%
M48
M72
T01C0.0197
T02C0.0236
T03C0.0354
T04C0.0400
%
T01
X16260Y13152
X20410Y17272
X20450Y18242
X20400Y19192
X20040Y19672
X19880Y20202
X21330Y19402
X21980Y18812
X23730Y17322
X24890Y18262
X24540Y21352
X23960Y21992
X23820Y21332
X23220Y21872
X22980Y22972
X22420Y23212
X21890Y24042
X19230Y22502
X18190Y23822
X19290Y25712
X19060Y27502
X18410Y27752
X15360Y25792
X13960Y27602
X12960Y27902
X10260Y28552
X9060Y26402
X9010Y25602
X18760Y18072
X20870Y15722
X26700Y23292
X27260Y24032
X29390Y25452
X31150Y23412
X34350Y23172
X34090Y22042
X30180Y19152
X30210Y18652
X27960Y20772
X24060Y27552
X23110Y27702
X26860Y7752
X26860Y6402
X23460Y54052
X22560Y54752
X18260Y55452
X12960Y55152
X11460Y56452
X11060Y56052
X27560Y54552
X31220Y55992
X31660Y56352
X33040Y54772
T02
X6819Y4913
X6780Y8952
X6780Y9552
X6780Y10132
X7480Y11132
X9420Y12932
X7660Y13752
X11026Y16948
X10180Y19572
X10108Y20324
X7013Y21764
X7056Y23732
X9483Y23927
X10460Y26352
X13223Y23927
X14110Y26352
X19210Y26352
X19820Y22072
X19080Y21852
X18080Y20972
X16840Y20792
X15220Y19912
X15940Y17852
X16640Y18032
X18720Y19872
X20600Y22232
X24280Y19492
X24680Y20172
X25580Y19072
X23820Y16292
X23341Y14793
X21140Y14832
X20120Y15192
X18677Y15500
X18120Y15112
X17640Y13692
X16240Y12432
X20560Y13732
X24780Y8496
X24780Y7512
X26590Y8649
X28834Y8531
X29071Y6252
X29071Y5464
X25015Y5106
X20300Y5232
X19733Y4874
X20520Y7197
X20340Y8052
X18140Y7612
X25440Y14852
X25600Y16152
X29200Y14612
X32200Y14752
X30055Y10976
X34740Y11134
X34622Y4992
X34580Y19792
X33860Y19852
X33120Y19932
X32081Y20030
X31340Y20632
X30440Y20752
X29640Y20672
X29100Y20672
X29560Y23012
X29060Y26352
X28520Y28132
X27400Y29092
X25360Y26352
X25380Y25752
X34460Y23752
X34660Y22592
X34860Y24632
X32480Y46652
X33760Y54152
X33760Y55352
X34240Y56892
X32160Y57152
X30100Y56632
X30800Y54512
X28360Y54152
X26160Y56052
X26280Y56752
X26960Y57152
X25860Y54552
X21860Y57152
X21260Y56652
X21060Y56052
X21360Y54652
X17660Y52852
X15960Y54652
X16060Y56052
X16460Y56452
X16960Y57152
X12260Y52952
X10860Y54552
X11860Y57452
T03
X30015Y9862
X30015Y8862
X30015Y7862
X30015Y6862
X30015Y5862
T04
X30260Y14952
X31260Y14952
X31260Y15952
X31260Y16952
X31260Y17952
X30260Y17952
X30260Y16952
X30260Y15952
X28160Y16092
X28160Y15092
X27160Y15092
X27160Y16092
X27160Y17092
X27160Y18092
X28160Y18092
X28160Y17092
X33260Y16952
X33260Y17952
X34260Y17952
X34260Y16952
X34260Y15952
X34260Y14952
X33260Y14952
X33260Y15952
X7583Y16234
X7483Y15234
X7483Y17234
X7583Y18234
X7483Y19234
M30
