G75*
%MOIN*%
%OFA0B0*%
%FSLAX24Y24*%
%IPPOS*%
%LPD*%
%AMOC8*
5,1,8,0,0,1.08239X$1,22.5*
%
%ADD10C,0.0100*%
%ADD11R,0.0040X0.0005*%
%ADD12R,0.0055X0.0005*%
%ADD13R,0.0065X0.0005*%
%ADD14R,0.0075X0.0005*%
%ADD15R,0.0090X0.0005*%
%ADD16R,0.0100X0.0005*%
%ADD17R,0.0110X0.0005*%
%ADD18R,0.0060X0.0005*%
%ADD19R,0.0050X0.0005*%
%ADD20R,0.0045X0.0005*%
%ADD21R,0.0145X0.0005*%
%ADD22R,0.0265X0.0005*%
%ADD23R,0.0310X0.0005*%
%ADD24R,0.0350X0.0005*%
%ADD25R,0.0375X0.0005*%
%ADD26R,0.0405X0.0005*%
%ADD27R,0.0435X0.0005*%
%ADD28R,0.0460X0.0005*%
%ADD29R,0.0230X0.0005*%
%ADD30R,0.0210X0.0005*%
%ADD31R,0.0195X0.0005*%
%ADD32R,0.0185X0.0005*%
%ADD33R,0.0035X0.0005*%
%ADD34R,0.0175X0.0005*%
%ADD35R,0.0170X0.0005*%
%ADD36R,0.0165X0.0005*%
%ADD37R,0.0155X0.0005*%
%ADD38R,0.0150X0.0005*%
%ADD39R,0.0140X0.0005*%
%ADD40R,0.0135X0.0005*%
%ADD41R,0.0130X0.0005*%
%ADD42R,0.0125X0.0005*%
%ADD43R,0.0120X0.0005*%
%ADD44R,0.0200X0.0005*%
%ADD45R,0.0115X0.0005*%
%ADD46R,0.0355X0.0005*%
%ADD47R,0.0545X0.0005*%
%ADD48R,0.0620X0.0005*%
%ADD49R,0.0680X0.0005*%
%ADD50R,0.0745X0.0005*%
%ADD51R,0.0910X0.0005*%
%ADD52R,0.0295X0.0005*%
%ADD53R,0.0270X0.0005*%
%ADD54R,0.0255X0.0005*%
%ADD55R,0.0220X0.0005*%
%ADD56R,0.0275X0.0005*%
%ADD57R,0.0205X0.0005*%
%ADD58R,0.0235X0.0005*%
%ADD59R,0.0190X0.0005*%
%ADD60R,0.0180X0.0005*%
%ADD61R,0.0160X0.0005*%
%ADD62R,0.0070X0.0005*%
%ADD63R,0.0105X0.0005*%
%ADD64R,0.0080X0.0005*%
%ADD65R,0.0085X0.0005*%
%ADD66R,0.0095X0.0005*%
%ADD67R,0.0025X0.0005*%
%ADD68R,0.0260X0.0005*%
%ADD69R,0.0315X0.0005*%
%ADD70R,0.0370X0.0005*%
%ADD71R,0.0430X0.0005*%
%ADD72R,0.0425X0.0005*%
%ADD73R,0.0395X0.0005*%
%ADD74R,0.0345X0.0005*%
%ADD75R,0.0290X0.0005*%
%ADD76R,0.0245X0.0005*%
%ADD77R,0.0030X0.0005*%
%ADD78R,0.0020X0.0005*%
%ADD79R,0.0015X0.0005*%
%ADD80R,0.0010X0.0005*%
%ADD81R,0.0455X0.0005*%
%ADD82R,0.0600X0.0005*%
%ADD83R,0.0740X0.0005*%
%ADD84R,0.0890X0.0005*%
%ADD85R,0.1060X0.0005*%
%ADD86R,0.0980X0.0005*%
%ADD87R,0.0825X0.0005*%
%ADD88R,0.0525X0.0005*%
%ADD89R,0.0380X0.0005*%
%ADD90R,0.0280X0.0005*%
%ADD91R,0.0820X0.0005*%
%ADD92R,0.0945X0.0005*%
%ADD93R,0.0955X0.0005*%
%ADD94R,0.0970X0.0005*%
%ADD95R,0.0975X0.0005*%
%ADD96R,0.0835X0.0005*%
%ADD97R,0.0575X0.0005*%
%ADD98R,0.0005X0.0005*%
%ADD99R,0.0215X0.0005*%
%ADD100R,0.0335X0.0005*%
%ADD101R,0.0440X0.0005*%
%ADD102R,0.0485X0.0005*%
%ADD103R,0.0240X0.0005*%
%ADD104R,0.0635X0.0005*%
%ADD105R,0.0710X0.0005*%
%ADD106R,0.0735X0.0005*%
%ADD107R,0.0750X0.0005*%
%ADD108R,0.0770X0.0005*%
%ADD109R,0.0780X0.0005*%
%ADD110R,0.0225X0.0005*%
%ADD111R,0.0340X0.0005*%
%ADD112R,0.0400X0.0005*%
%ADD113R,0.0500X0.0005*%
%ADD114R,0.0250X0.0005*%
%ADD115R,0.0505X0.0005*%
%ADD116R,0.0855X0.0005*%
%ADD117R,0.0800X0.0005*%
%ADD118R,0.0765X0.0005*%
%ADD119R,0.0725X0.0005*%
%ADD120R,0.0465X0.0005*%
%ADD121R,0.0305X0.0005*%
%ADD122R,0.0330X0.0005*%
%ADD123R,0.0360X0.0005*%
%ADD124R,0.0320X0.0005*%
%ADD125R,0.0285X0.0005*%
%ADD126R,0.0385X0.0005*%
%ADD127R,0.0325X0.0005*%
%ADD128R,0.0390X0.0005*%
%ADD129R,0.0900X0.0005*%
%ADD130R,0.0805X0.0005*%
%ADD131R,0.0700X0.0005*%
%ADD132R,0.0570X0.0005*%
%ADD133C,0.0000*%
%ADD134C,0.0160*%
D10*
X008487Y015576D02*
X008487Y015812D01*
X008959Y015812D02*
X008959Y015576D01*
X009193Y015613D02*
X009276Y015529D01*
X009276Y015571D02*
X009276Y015446D01*
X009193Y015446D02*
X009443Y015446D01*
X009443Y015571D01*
X009401Y015613D01*
X009318Y015613D01*
X009276Y015571D01*
X009276Y015768D02*
X009318Y015810D01*
X009318Y015893D01*
X009276Y015935D01*
X009235Y015935D01*
X009193Y015893D01*
X009193Y015810D01*
X009235Y015768D01*
X009276Y015768D01*
X009318Y015810D02*
X009360Y015768D01*
X009401Y015768D01*
X009443Y015810D01*
X009443Y015893D01*
X009401Y015935D01*
X009360Y015935D01*
X009318Y015893D01*
X011113Y020918D02*
X011364Y020918D01*
X011364Y021043D01*
X011322Y021085D01*
X011239Y021085D01*
X011197Y021043D01*
X011197Y020918D01*
X011197Y021002D02*
X011113Y021085D01*
X011155Y021240D02*
X011113Y021282D01*
X011113Y021365D01*
X011155Y021407D01*
X011197Y021407D01*
X011239Y021365D01*
X011239Y021240D01*
X011155Y021240D01*
X011239Y021240D02*
X011322Y021324D01*
X011364Y021407D01*
X011239Y021563D02*
X011239Y021729D01*
X011364Y021688D02*
X011239Y021563D01*
X011364Y021688D02*
X011113Y021688D01*
X010790Y022881D02*
X010790Y024849D01*
X009805Y024849D02*
X009805Y022881D01*
X010465Y023078D02*
X010467Y023096D01*
X010473Y023114D01*
X010482Y023130D01*
X010494Y023143D01*
X010509Y023154D01*
X010526Y023162D01*
X010544Y023166D01*
X010562Y023166D01*
X010580Y023162D01*
X010597Y023154D01*
X010612Y023143D01*
X010624Y023130D01*
X010633Y023114D01*
X010639Y023096D01*
X010641Y023078D01*
X010639Y023060D01*
X010633Y023042D01*
X010624Y023026D01*
X010612Y023013D01*
X010597Y023002D01*
X010580Y022994D01*
X010562Y022990D01*
X010544Y022990D01*
X010526Y022994D01*
X010509Y023002D01*
X010494Y023013D01*
X010482Y023026D01*
X010473Y023042D01*
X010467Y023060D01*
X010465Y023078D01*
X012360Y024827D02*
X012360Y024911D01*
X012401Y024952D01*
X012360Y024827D02*
X012401Y024786D01*
X012568Y024786D01*
X012610Y024827D01*
X012610Y024911D01*
X012568Y024952D01*
X012526Y025108D02*
X012610Y025191D01*
X012360Y025191D01*
X012360Y025108D02*
X012360Y025275D01*
X012360Y025430D02*
X012401Y025430D01*
X012568Y025597D01*
X012610Y025597D01*
X012610Y025430D01*
X013260Y025375D02*
X013260Y025208D01*
X013260Y025291D02*
X013510Y025291D01*
X013426Y025208D01*
X013468Y025052D02*
X013510Y025011D01*
X013510Y024927D01*
X013468Y024886D01*
X013301Y024886D01*
X013260Y024927D01*
X013260Y025011D01*
X013301Y025052D01*
X013301Y025530D02*
X013343Y025530D01*
X013385Y025572D01*
X013385Y025655D01*
X013343Y025697D01*
X013301Y025697D01*
X013260Y025655D01*
X013260Y025572D01*
X013301Y025530D01*
X013385Y025572D02*
X013426Y025530D01*
X013468Y025530D01*
X013510Y025572D01*
X013510Y025655D01*
X013468Y025697D01*
X013426Y025697D01*
X013385Y025655D01*
X015338Y024741D02*
X015338Y026709D01*
X016322Y026709D02*
X016322Y024741D01*
X015998Y024938D02*
X016000Y024956D01*
X016006Y024974D01*
X016015Y024990D01*
X016027Y025003D01*
X016042Y025014D01*
X016059Y025022D01*
X016077Y025026D01*
X016095Y025026D01*
X016113Y025022D01*
X016130Y025014D01*
X016145Y025003D01*
X016157Y024990D01*
X016166Y024974D01*
X016172Y024956D01*
X016174Y024938D01*
X016172Y024920D01*
X016166Y024902D01*
X016157Y024886D01*
X016145Y024873D01*
X016130Y024862D01*
X016113Y024854D01*
X016095Y024850D01*
X016077Y024850D01*
X016059Y024854D01*
X016042Y024862D01*
X016027Y024873D01*
X016015Y024886D01*
X016006Y024902D01*
X016000Y024920D01*
X015998Y024938D01*
X015998Y023559D02*
X015957Y023559D01*
X015915Y023518D01*
X015915Y023434D01*
X015957Y023393D01*
X015998Y023393D01*
X016040Y023434D01*
X016040Y023518D01*
X015998Y023559D01*
X015915Y023518D02*
X015873Y023559D01*
X015832Y023559D01*
X015790Y023518D01*
X015790Y023434D01*
X015832Y023393D01*
X015873Y023393D01*
X015915Y023434D01*
X015915Y023237D02*
X015832Y023237D01*
X015790Y023195D01*
X015790Y023112D01*
X015832Y023070D01*
X015915Y023070D02*
X015957Y023154D01*
X015957Y023195D01*
X015915Y023237D01*
X016040Y023237D02*
X016040Y023070D01*
X015915Y023070D01*
X015915Y022915D02*
X015873Y022873D01*
X015873Y022748D01*
X015790Y022748D02*
X016040Y022748D01*
X016040Y022873D01*
X015998Y022915D01*
X015915Y022915D01*
X015873Y022832D02*
X015790Y022915D01*
X017741Y024906D02*
X017700Y024947D01*
X017700Y025031D01*
X017741Y025072D01*
X017700Y025228D02*
X017700Y025395D01*
X017700Y025311D02*
X017950Y025311D01*
X017866Y025228D01*
X017908Y025072D02*
X017950Y025031D01*
X017950Y024947D01*
X017908Y024906D01*
X017741Y024906D01*
X017741Y025550D02*
X017700Y025592D01*
X017700Y025675D01*
X017741Y025717D01*
X017908Y025717D01*
X017950Y025675D01*
X017950Y025592D01*
X017908Y025550D01*
X017866Y025550D01*
X017825Y025592D01*
X017825Y025717D01*
X017169Y027826D02*
X017169Y027952D01*
X017127Y027993D01*
X017044Y027993D01*
X017002Y027952D01*
X017002Y027826D01*
X016919Y027826D02*
X017169Y027826D01*
X017002Y027910D02*
X016919Y027993D01*
X016960Y028149D02*
X016919Y028190D01*
X016919Y028274D01*
X016960Y028315D01*
X017044Y028315D01*
X017085Y028274D01*
X017085Y028232D01*
X017044Y028149D01*
X017169Y028149D01*
X017169Y028315D01*
X017044Y028471D02*
X017044Y028596D01*
X017002Y028638D01*
X016960Y028638D01*
X016919Y028596D01*
X016919Y028513D01*
X016960Y028471D01*
X017044Y028471D01*
X017127Y028554D01*
X017169Y028638D01*
X020501Y028643D02*
X020543Y028601D01*
X020710Y028768D01*
X020543Y028768D01*
X020501Y028726D01*
X020501Y028643D01*
X020543Y028601D02*
X020710Y028601D01*
X020751Y028643D01*
X020751Y028726D01*
X020710Y028768D01*
X020751Y028445D02*
X020751Y028279D01*
X020626Y028279D01*
X020668Y028362D01*
X020668Y028404D01*
X020626Y028445D01*
X020543Y028445D01*
X020501Y028404D01*
X020501Y028320D01*
X020543Y028279D01*
X020501Y028123D02*
X020584Y028040D01*
X020584Y028082D02*
X020584Y027956D01*
X020501Y027956D02*
X020751Y027956D01*
X020751Y028082D01*
X020710Y028123D01*
X020626Y028123D01*
X020584Y028082D01*
X020664Y026614D02*
X020664Y024645D01*
X021324Y024842D02*
X021326Y024860D01*
X021332Y024878D01*
X021341Y024894D01*
X021353Y024907D01*
X021368Y024918D01*
X021385Y024926D01*
X021403Y024930D01*
X021421Y024930D01*
X021439Y024926D01*
X021456Y024918D01*
X021471Y024907D01*
X021483Y024894D01*
X021492Y024878D01*
X021498Y024860D01*
X021500Y024842D01*
X021498Y024824D01*
X021492Y024806D01*
X021483Y024790D01*
X021471Y024777D01*
X021456Y024766D01*
X021439Y024758D01*
X021421Y024754D01*
X021403Y024754D01*
X021385Y024758D01*
X021368Y024766D01*
X021353Y024777D01*
X021341Y024790D01*
X021332Y024806D01*
X021326Y024824D01*
X021324Y024842D01*
X021648Y024645D02*
X021648Y026614D01*
X022971Y025494D02*
X022971Y025327D01*
X022971Y025410D02*
X023221Y025410D01*
X023138Y025327D01*
X023180Y025171D02*
X023221Y025130D01*
X023221Y025046D01*
X023180Y025004D01*
X023013Y025004D01*
X022971Y025046D01*
X022971Y025130D01*
X023013Y025171D01*
X024791Y024795D02*
X024791Y026764D01*
X025776Y026764D02*
X025776Y024795D01*
X025451Y024992D02*
X025453Y025010D01*
X025459Y025028D01*
X025468Y025044D01*
X025480Y025057D01*
X025495Y025068D01*
X025512Y025076D01*
X025530Y025080D01*
X025548Y025080D01*
X025566Y025076D01*
X025583Y025068D01*
X025598Y025057D01*
X025610Y025044D01*
X025619Y025028D01*
X025625Y025010D01*
X025627Y024992D01*
X025625Y024974D01*
X025619Y024956D01*
X025610Y024940D01*
X025598Y024927D01*
X025583Y024916D01*
X025566Y024908D01*
X025548Y024904D01*
X025530Y024904D01*
X025512Y024908D01*
X025495Y024916D01*
X025480Y024927D01*
X025468Y024940D01*
X025459Y024956D01*
X025453Y024974D01*
X025451Y024992D01*
X027556Y024984D02*
X027598Y025026D01*
X027556Y024984D02*
X027556Y024901D01*
X027598Y024859D01*
X027765Y024859D01*
X027806Y024901D01*
X027806Y024984D01*
X027765Y025026D01*
X027681Y025181D02*
X027681Y025348D01*
X027556Y025306D02*
X027806Y025306D01*
X027681Y025181D01*
X027598Y025503D02*
X027765Y025670D01*
X027598Y025670D01*
X027556Y025629D01*
X027556Y025545D01*
X027598Y025503D01*
X027765Y025503D01*
X027806Y025545D01*
X027806Y025629D01*
X027765Y025670D01*
X028072Y023946D02*
X028156Y023946D01*
X028198Y023905D01*
X028198Y023863D01*
X028156Y023821D01*
X028031Y023821D01*
X028031Y023738D02*
X028031Y023905D01*
X028072Y023946D01*
X028031Y023738D02*
X028072Y023696D01*
X028156Y023696D01*
X028198Y023738D01*
X028353Y023738D02*
X028395Y023696D01*
X028478Y023696D01*
X028520Y023738D01*
X028436Y023821D02*
X028395Y023821D01*
X028353Y023779D01*
X028353Y023738D01*
X028395Y023821D02*
X028353Y023863D01*
X028353Y023905D01*
X028395Y023946D01*
X028478Y023946D01*
X028520Y023905D01*
X028675Y023905D02*
X028675Y023821D01*
X028717Y023779D01*
X028842Y023779D01*
X028842Y023696D02*
X028842Y023946D01*
X028717Y023946D01*
X028675Y023905D01*
X028759Y023779D02*
X028675Y023696D01*
X031555Y023841D02*
X031555Y025809D01*
X032539Y025809D02*
X032539Y023841D01*
X032215Y024038D02*
X032217Y024056D01*
X032223Y024074D01*
X032232Y024090D01*
X032244Y024103D01*
X032259Y024114D01*
X032276Y024122D01*
X032294Y024126D01*
X032312Y024126D01*
X032330Y024122D01*
X032347Y024114D01*
X032362Y024103D01*
X032374Y024090D01*
X032383Y024074D01*
X032389Y024056D01*
X032391Y024038D01*
X032389Y024020D01*
X032383Y024002D01*
X032374Y023986D01*
X032362Y023973D01*
X032347Y023962D01*
X032330Y023954D01*
X032312Y023950D01*
X032294Y023950D01*
X032276Y023954D01*
X032259Y023962D01*
X032244Y023973D01*
X032232Y023986D01*
X032223Y024002D01*
X032217Y024020D01*
X032215Y024038D01*
X033191Y021344D02*
X033150Y021302D01*
X033150Y021219D01*
X033191Y021177D01*
X033358Y021344D01*
X033191Y021344D01*
X033358Y021344D02*
X033400Y021302D01*
X033400Y021219D01*
X033358Y021177D01*
X033191Y021177D01*
X033150Y021021D02*
X033150Y020855D01*
X033316Y021021D01*
X033358Y021021D01*
X033400Y020980D01*
X033400Y020896D01*
X033358Y020855D01*
X033358Y020699D02*
X033400Y020657D01*
X033400Y020574D01*
X033358Y020532D01*
X033191Y020532D01*
X033150Y020574D01*
X033150Y020657D01*
X033191Y020699D01*
X031626Y019161D02*
X031626Y018994D01*
X031585Y018952D01*
X031501Y018952D01*
X031460Y018994D01*
X031304Y018952D02*
X031137Y019119D01*
X031137Y019161D01*
X031179Y019203D01*
X031262Y019203D01*
X031304Y019161D01*
X031460Y019161D02*
X031501Y019203D01*
X031585Y019203D01*
X031626Y019161D01*
X031304Y018952D02*
X031137Y018952D01*
X030982Y018952D02*
X030815Y018952D01*
X030898Y018952D02*
X030898Y019203D01*
X030982Y019119D01*
X031283Y027085D02*
X031533Y027085D01*
X031533Y027210D01*
X031492Y027251D01*
X031408Y027251D01*
X031367Y027210D01*
X031367Y027085D01*
X031367Y027168D02*
X031283Y027251D01*
X031325Y027407D02*
X031283Y027449D01*
X031283Y027532D01*
X031325Y027574D01*
X031367Y027574D01*
X031408Y027532D01*
X031408Y027490D01*
X031408Y027532D02*
X031450Y027574D01*
X031492Y027574D01*
X031533Y027532D01*
X031533Y027449D01*
X031492Y027407D01*
X031533Y027729D02*
X031533Y027896D01*
X031492Y027896D01*
X031325Y027729D01*
X031283Y027729D01*
X025724Y028376D02*
X025724Y028502D01*
X025682Y028543D01*
X025599Y028543D01*
X025557Y028502D01*
X025557Y028376D01*
X025473Y028376D02*
X025724Y028376D01*
X025557Y028460D02*
X025473Y028543D01*
X025599Y028699D02*
X025599Y028865D01*
X025724Y028824D02*
X025599Y028699D01*
X025724Y028824D02*
X025473Y028824D01*
X025599Y029021D02*
X025599Y029188D01*
X025724Y029146D02*
X025599Y029021D01*
X025724Y029146D02*
X025473Y029146D01*
X021972Y022492D02*
X021847Y022492D01*
X021805Y022450D01*
X021805Y022366D01*
X021847Y022325D01*
X021972Y022325D01*
X021889Y022325D02*
X021805Y022241D01*
X021972Y022241D02*
X021972Y022492D01*
X021650Y022366D02*
X021483Y022366D01*
X021525Y022241D02*
X021525Y022492D01*
X021650Y022366D01*
X021328Y022366D02*
X021202Y022366D01*
X021161Y022325D01*
X021161Y022283D01*
X021202Y022241D01*
X021286Y022241D01*
X021328Y022283D01*
X021328Y022366D01*
X021244Y022450D01*
X021161Y022492D01*
X019095Y022888D02*
X019095Y023013D01*
X019054Y023055D01*
X018970Y023055D01*
X018929Y023013D01*
X018929Y022888D01*
X018929Y022972D02*
X018845Y023055D01*
X018887Y023210D02*
X018845Y023252D01*
X018845Y023335D01*
X018887Y023377D01*
X018970Y023377D01*
X019012Y023335D01*
X019012Y023294D01*
X018970Y023210D01*
X019095Y023210D01*
X019095Y023377D01*
X019054Y023533D02*
X019095Y023574D01*
X019095Y023658D01*
X019054Y023699D01*
X019012Y023699D01*
X018845Y023533D01*
X018845Y023699D01*
X018845Y022888D02*
X019095Y022888D01*
X020963Y019811D02*
X020922Y019769D01*
X020922Y019728D01*
X020963Y019686D01*
X020922Y019644D01*
X020922Y019602D01*
X020963Y019561D01*
X021047Y019561D01*
X021088Y019602D01*
X021005Y019686D02*
X020963Y019686D01*
X020963Y019811D02*
X021047Y019811D01*
X021088Y019769D01*
X021244Y019769D02*
X021286Y019811D01*
X021369Y019811D01*
X021411Y019769D01*
X021411Y019602D01*
X021369Y019561D01*
X021286Y019561D01*
X021244Y019602D01*
X021269Y018064D02*
X021311Y018023D01*
X021269Y018064D02*
X021186Y018064D01*
X021144Y018023D01*
X021144Y017981D01*
X021311Y017814D01*
X021144Y017814D01*
X021466Y017856D02*
X021508Y017814D01*
X021591Y017814D01*
X021633Y017856D01*
X021633Y018023D01*
X021591Y018064D01*
X021508Y018064D01*
X021466Y018023D01*
X023448Y007835D02*
X023406Y007793D01*
X023406Y007751D01*
X023448Y007710D01*
X023406Y007668D01*
X023406Y007626D01*
X023448Y007585D01*
X023531Y007585D01*
X023573Y007626D01*
X023490Y007710D02*
X023448Y007710D01*
X023448Y007835D02*
X023531Y007835D01*
X023573Y007793D01*
X023729Y007835D02*
X023729Y007626D01*
X023770Y007585D01*
X023854Y007585D01*
X023895Y007626D01*
X023895Y007835D01*
X023321Y007085D02*
X022081Y007085D01*
X022071Y007085D02*
X022071Y005085D01*
X022081Y005085D02*
X022501Y005085D01*
X022901Y005085D01*
X023321Y005085D01*
X023344Y005087D01*
X023367Y005092D01*
X023389Y005101D01*
X023409Y005114D01*
X023427Y005129D01*
X023442Y005147D01*
X023455Y005167D01*
X023464Y005189D01*
X023469Y005212D01*
X023471Y005235D01*
X023471Y006935D01*
X023469Y006958D01*
X023464Y006981D01*
X023455Y007003D01*
X023442Y007023D01*
X023427Y007041D01*
X023409Y007056D01*
X023389Y007069D01*
X023367Y007078D01*
X023344Y007083D01*
X023321Y007085D01*
X022081Y007085D02*
X022058Y007083D01*
X022035Y007078D01*
X022013Y007069D01*
X021993Y007056D01*
X021975Y007041D01*
X021960Y007023D01*
X021947Y007003D01*
X021938Y006981D01*
X021933Y006958D01*
X021931Y006935D01*
X021931Y005235D01*
X021933Y005212D01*
X021938Y005189D01*
X021947Y005167D01*
X021960Y005147D01*
X021975Y005129D01*
X021993Y005114D01*
X022013Y005101D01*
X022035Y005092D01*
X022058Y005087D01*
X022081Y005085D01*
X022501Y005085D02*
X022503Y005112D01*
X022508Y005139D01*
X022518Y005165D01*
X022530Y005189D01*
X022546Y005211D01*
X022564Y005231D01*
X022586Y005248D01*
X022609Y005263D01*
X022634Y005273D01*
X022660Y005281D01*
X022687Y005285D01*
X022715Y005285D01*
X022742Y005281D01*
X022768Y005273D01*
X022793Y005263D01*
X022816Y005248D01*
X022838Y005231D01*
X022856Y005211D01*
X022872Y005189D01*
X022884Y005165D01*
X022894Y005139D01*
X022899Y005112D01*
X022901Y005085D01*
X026238Y004808D02*
X026280Y004849D01*
X026363Y004849D01*
X026405Y004808D01*
X026560Y004808D02*
X026602Y004849D01*
X026686Y004849D01*
X026727Y004808D01*
X026883Y004808D02*
X026924Y004849D01*
X027008Y004849D01*
X027050Y004808D01*
X027050Y004641D01*
X027008Y004599D01*
X026924Y004599D01*
X026883Y004641D01*
X026727Y004599D02*
X026560Y004766D01*
X026560Y004808D01*
X026551Y004988D02*
X026315Y004988D01*
X026238Y004808D02*
X026238Y004766D01*
X026405Y004599D01*
X026238Y004599D01*
X026560Y004599D02*
X026727Y004599D01*
X026551Y005460D02*
X026315Y005460D01*
X028094Y007305D02*
X028052Y007347D01*
X028052Y007430D01*
X028094Y007472D01*
X028094Y007627D02*
X028052Y007627D01*
X028094Y007627D02*
X028261Y007794D01*
X028302Y007794D01*
X028302Y007627D01*
X028261Y007472D02*
X028302Y007430D01*
X028302Y007347D01*
X028261Y007305D01*
X028094Y007305D01*
X028566Y007281D02*
X028566Y007518D01*
X029038Y007518D02*
X029038Y007281D01*
X031168Y009174D02*
X031168Y009216D01*
X031209Y009258D01*
X031335Y009258D01*
X031335Y009174D01*
X031293Y009133D01*
X031209Y009133D01*
X031168Y009174D01*
X031251Y009341D02*
X031335Y009258D01*
X031251Y009341D02*
X031168Y009383D01*
X031490Y009341D02*
X031532Y009383D01*
X031615Y009383D01*
X031657Y009341D01*
X031657Y009174D01*
X031615Y009133D01*
X031532Y009133D01*
X031490Y009174D01*
X031937Y007685D02*
X031937Y007518D01*
X032103Y007685D01*
X032145Y007685D01*
X032187Y007643D01*
X032187Y007560D01*
X032145Y007518D01*
X032062Y007363D02*
X032062Y007196D01*
X032187Y007321D01*
X031937Y007321D01*
X031937Y007040D02*
X032020Y006957D01*
X032020Y006999D02*
X032020Y006874D01*
X031937Y006874D02*
X032187Y006874D01*
X032187Y006999D01*
X032145Y007040D01*
X032062Y007040D01*
X032020Y006999D01*
X011720Y027186D02*
X011720Y027311D01*
X011678Y027352D01*
X011595Y027352D01*
X011553Y027311D01*
X011553Y027186D01*
X011553Y027269D02*
X011470Y027352D01*
X011511Y027508D02*
X011470Y027550D01*
X011470Y027633D01*
X011511Y027675D01*
X011553Y027675D01*
X011595Y027633D01*
X011595Y027508D01*
X011511Y027508D01*
X011595Y027508D02*
X011678Y027591D01*
X011720Y027675D01*
X011678Y027830D02*
X011720Y027872D01*
X011720Y027955D01*
X011678Y027997D01*
X011636Y027997D01*
X011470Y027830D01*
X011470Y027997D01*
X011470Y027186D02*
X011720Y027186D01*
X017360Y046202D02*
X017610Y046202D01*
X017610Y046327D01*
X017568Y046369D01*
X017485Y046369D01*
X017443Y046327D01*
X017443Y046202D01*
X017443Y046286D02*
X017360Y046369D01*
X017360Y046525D02*
X017360Y046691D01*
X017360Y046608D02*
X017610Y046608D01*
X017526Y046525D01*
X017568Y046847D02*
X017610Y046889D01*
X017610Y046972D01*
X017568Y047014D01*
X017526Y047014D01*
X017485Y046972D01*
X017443Y047014D01*
X017401Y047014D01*
X017360Y046972D01*
X017360Y046889D01*
X017401Y046847D01*
X017485Y046930D02*
X017485Y046972D01*
X016963Y049645D02*
X016963Y051614D01*
X015979Y051614D02*
X015979Y049645D01*
X016639Y049842D02*
X016641Y049860D01*
X016647Y049878D01*
X016656Y049894D01*
X016668Y049907D01*
X016683Y049918D01*
X016700Y049926D01*
X016718Y049930D01*
X016736Y049930D01*
X016754Y049926D01*
X016771Y049918D01*
X016786Y049907D01*
X016798Y049894D01*
X016807Y049878D01*
X016813Y049860D01*
X016815Y049842D01*
X016813Y049824D01*
X016807Y049806D01*
X016798Y049790D01*
X016786Y049777D01*
X016771Y049766D01*
X016754Y049758D01*
X016736Y049754D01*
X016718Y049754D01*
X016700Y049758D01*
X016683Y049766D01*
X016668Y049777D01*
X016656Y049790D01*
X016647Y049806D01*
X016641Y049824D01*
X016639Y049842D01*
X015966Y053176D02*
X015966Y053302D01*
X015924Y053343D01*
X015841Y053343D01*
X015799Y053302D01*
X015799Y053176D01*
X015716Y053176D02*
X015966Y053176D01*
X015799Y053260D02*
X015716Y053343D01*
X015716Y053499D02*
X015716Y053665D01*
X015716Y053582D02*
X015966Y053582D01*
X015882Y053499D01*
X015924Y053821D02*
X015966Y053863D01*
X015966Y053946D01*
X015924Y053988D01*
X015882Y053988D01*
X015716Y053821D01*
X015716Y053988D01*
X015385Y055352D02*
X015301Y055352D01*
X015260Y055394D01*
X015385Y055352D02*
X015426Y055394D01*
X015426Y055561D01*
X015385Y055603D01*
X015301Y055603D01*
X015260Y055561D01*
X015104Y055519D02*
X015021Y055603D01*
X015021Y055352D01*
X015104Y055352D02*
X014937Y055352D01*
X014782Y055352D02*
X014615Y055519D01*
X014615Y055561D01*
X014657Y055603D01*
X014740Y055603D01*
X014782Y055561D01*
X014782Y055352D02*
X014615Y055352D01*
X014226Y055361D02*
X014226Y055194D01*
X014185Y055152D01*
X014101Y055152D01*
X014060Y055194D01*
X013904Y055152D02*
X013737Y055152D01*
X013821Y055152D02*
X013821Y055403D01*
X013904Y055319D01*
X014060Y055361D02*
X014101Y055403D01*
X014185Y055403D01*
X014226Y055361D01*
X013582Y055403D02*
X013582Y055277D01*
X013498Y055319D01*
X013457Y055319D01*
X013415Y055277D01*
X013415Y055194D01*
X013457Y055152D01*
X013540Y055152D01*
X013582Y055194D01*
X013582Y055403D02*
X013415Y055403D01*
X010310Y053352D02*
X010268Y053394D01*
X010226Y053394D01*
X010185Y053352D01*
X010185Y053269D01*
X010226Y053227D01*
X010268Y053227D01*
X010310Y053269D01*
X010310Y053352D01*
X010185Y053352D02*
X010143Y053394D01*
X010101Y053394D01*
X010060Y053352D01*
X010060Y053269D01*
X010101Y053227D01*
X010143Y053227D01*
X010185Y053269D01*
X010143Y053071D02*
X010185Y053030D01*
X010185Y052905D01*
X010101Y052905D01*
X010060Y052946D01*
X010060Y053030D01*
X010101Y053071D01*
X010143Y053071D01*
X010268Y052988D02*
X010185Y052905D01*
X010268Y052988D02*
X010310Y053071D01*
X010268Y052749D02*
X010185Y052749D01*
X010143Y052707D01*
X010143Y052582D01*
X010060Y052582D02*
X010310Y052582D01*
X010310Y052707D01*
X010268Y052749D01*
X010143Y052666D02*
X010060Y052749D01*
X010687Y051537D02*
X010687Y049568D01*
X011347Y049765D02*
X011349Y049783D01*
X011355Y049801D01*
X011364Y049817D01*
X011376Y049830D01*
X011391Y049841D01*
X011408Y049849D01*
X011426Y049853D01*
X011444Y049853D01*
X011462Y049849D01*
X011479Y049841D01*
X011494Y049830D01*
X011506Y049817D01*
X011515Y049801D01*
X011521Y049783D01*
X011523Y049765D01*
X011521Y049747D01*
X011515Y049729D01*
X011506Y049713D01*
X011494Y049700D01*
X011479Y049689D01*
X011462Y049681D01*
X011444Y049677D01*
X011426Y049677D01*
X011408Y049681D01*
X011391Y049689D01*
X011376Y049700D01*
X011364Y049713D01*
X011355Y049729D01*
X011349Y049747D01*
X011347Y049765D01*
X011671Y049568D02*
X011671Y051537D01*
X012689Y047329D02*
X012647Y047288D01*
X012647Y047204D01*
X012689Y047163D01*
X012855Y047329D01*
X012689Y047329D01*
X012689Y047163D02*
X012855Y047163D01*
X012897Y047204D01*
X012897Y047288D01*
X012855Y047329D01*
X012855Y047007D02*
X012689Y046840D01*
X012647Y046840D01*
X012647Y046685D02*
X012730Y046602D01*
X012730Y046643D02*
X012730Y046518D01*
X012647Y046518D02*
X012897Y046518D01*
X012897Y046643D01*
X012855Y046685D01*
X012772Y046685D01*
X012730Y046643D01*
X012897Y046840D02*
X012897Y047007D01*
X012855Y047007D01*
X021302Y049645D02*
X021302Y051614D01*
X022286Y051614D02*
X022286Y049645D01*
X021962Y049842D02*
X021964Y049860D01*
X021970Y049878D01*
X021979Y049894D01*
X021991Y049907D01*
X022006Y049918D01*
X022023Y049926D01*
X022041Y049930D01*
X022059Y049930D01*
X022077Y049926D01*
X022094Y049918D01*
X022109Y049907D01*
X022121Y049894D01*
X022130Y049878D01*
X022136Y049860D01*
X022138Y049842D01*
X022136Y049824D01*
X022130Y049806D01*
X022121Y049790D01*
X022109Y049777D01*
X022094Y049766D01*
X022077Y049758D01*
X022059Y049754D01*
X022041Y049754D01*
X022023Y049758D01*
X022006Y049766D01*
X021991Y049777D01*
X021979Y049790D01*
X021970Y049806D01*
X021964Y049824D01*
X021962Y049842D01*
X022643Y047529D02*
X022810Y047529D01*
X022852Y047488D01*
X022852Y047404D01*
X022810Y047363D01*
X022768Y047363D01*
X022727Y047404D01*
X022727Y047529D01*
X022643Y047529D02*
X022602Y047488D01*
X022602Y047404D01*
X022643Y047363D01*
X022602Y047207D02*
X022602Y047040D01*
X022602Y047124D02*
X022852Y047124D01*
X022768Y047040D01*
X022727Y046885D02*
X022685Y046843D01*
X022685Y046718D01*
X022602Y046718D02*
X022852Y046718D01*
X022852Y046843D01*
X022810Y046885D01*
X022727Y046885D01*
X022685Y046802D02*
X022602Y046885D01*
X025763Y046885D02*
X025847Y046802D01*
X025847Y046843D02*
X025847Y046718D01*
X025763Y046718D02*
X026014Y046718D01*
X026014Y046843D01*
X025972Y046885D01*
X025889Y046885D01*
X025847Y046843D01*
X025763Y047040D02*
X025930Y047207D01*
X025972Y047207D01*
X026014Y047165D01*
X026014Y047082D01*
X025972Y047040D01*
X025763Y047040D02*
X025763Y047207D01*
X025763Y047363D02*
X025805Y047363D01*
X025972Y047529D01*
X026014Y047529D01*
X026014Y047363D01*
X026124Y049645D02*
X026124Y051614D01*
X027108Y051614D02*
X027108Y049645D01*
X026784Y049842D02*
X026786Y049860D01*
X026792Y049878D01*
X026801Y049894D01*
X026813Y049907D01*
X026828Y049918D01*
X026845Y049926D01*
X026863Y049930D01*
X026881Y049930D01*
X026899Y049926D01*
X026916Y049918D01*
X026931Y049907D01*
X026943Y049894D01*
X026952Y049878D01*
X026958Y049860D01*
X026960Y049842D01*
X026958Y049824D01*
X026952Y049806D01*
X026943Y049790D01*
X026931Y049777D01*
X026916Y049766D01*
X026899Y049758D01*
X026881Y049754D01*
X026863Y049754D01*
X026845Y049758D01*
X026828Y049766D01*
X026813Y049777D01*
X026801Y049790D01*
X026792Y049806D01*
X026786Y049824D01*
X026784Y049842D01*
X029917Y049655D02*
X029917Y051624D01*
X030901Y051624D02*
X030901Y049655D01*
X030577Y049852D02*
X030579Y049870D01*
X030585Y049888D01*
X030594Y049904D01*
X030606Y049917D01*
X030621Y049928D01*
X030638Y049936D01*
X030656Y049940D01*
X030674Y049940D01*
X030692Y049936D01*
X030709Y049928D01*
X030724Y049917D01*
X030736Y049904D01*
X030745Y049888D01*
X030751Y049870D01*
X030753Y049852D01*
X030751Y049834D01*
X030745Y049816D01*
X030736Y049800D01*
X030724Y049787D01*
X030709Y049776D01*
X030692Y049768D01*
X030674Y049764D01*
X030656Y049764D01*
X030638Y049768D01*
X030621Y049776D01*
X030606Y049787D01*
X030594Y049800D01*
X030585Y049816D01*
X030579Y049834D01*
X030577Y049852D01*
X031253Y048299D02*
X031211Y048258D01*
X031211Y048174D01*
X031253Y048133D01*
X031336Y048216D02*
X031336Y048258D01*
X031294Y048299D01*
X031253Y048299D01*
X031336Y048258D02*
X031378Y048299D01*
X031420Y048299D01*
X031461Y048258D01*
X031461Y048174D01*
X031420Y048133D01*
X031420Y047977D02*
X031378Y047977D01*
X031336Y047935D01*
X031294Y047977D01*
X031253Y047977D01*
X031211Y047935D01*
X031211Y047852D01*
X031253Y047810D01*
X031336Y047894D02*
X031336Y047935D01*
X031420Y047977D02*
X031461Y047935D01*
X031461Y047852D01*
X031420Y047810D01*
X031420Y047655D02*
X031336Y047655D01*
X031294Y047613D01*
X031294Y047488D01*
X031211Y047488D02*
X031461Y047488D01*
X031461Y047613D01*
X031420Y047655D01*
X031294Y047572D02*
X031211Y047655D01*
X031671Y052985D02*
X031921Y052985D01*
X031921Y053110D01*
X031879Y053151D01*
X031796Y053151D01*
X031754Y053110D01*
X031754Y052985D01*
X031754Y053068D02*
X031671Y053151D01*
X031712Y053307D02*
X031671Y053349D01*
X031671Y053432D01*
X031712Y053474D01*
X031754Y053474D01*
X031796Y053432D01*
X031796Y053390D01*
X031796Y053432D02*
X031838Y053474D01*
X031879Y053474D01*
X031921Y053432D01*
X031921Y053349D01*
X031879Y053307D01*
X031838Y053629D02*
X031921Y053713D01*
X031671Y053713D01*
X031671Y053796D02*
X031671Y053629D01*
X033415Y055094D02*
X033415Y055136D01*
X033457Y055177D01*
X033582Y055177D01*
X033582Y055094D01*
X033540Y055052D01*
X033457Y055052D01*
X033415Y055094D01*
X033498Y055261D02*
X033582Y055177D01*
X033498Y055261D02*
X033415Y055303D01*
X033821Y055303D02*
X033821Y055052D01*
X033904Y055052D02*
X033737Y055052D01*
X033904Y055219D02*
X033821Y055303D01*
X034060Y055261D02*
X034101Y055303D01*
X034185Y055303D01*
X034226Y055261D01*
X034226Y055094D01*
X034185Y055052D01*
X034101Y055052D01*
X034060Y055094D01*
X029126Y055094D02*
X029085Y055052D01*
X029001Y055052D01*
X028960Y055094D01*
X028804Y055052D02*
X028637Y055052D01*
X028721Y055052D02*
X028721Y055303D01*
X028804Y055219D01*
X028960Y055261D02*
X029001Y055303D01*
X029085Y055303D01*
X029126Y055261D01*
X029126Y055094D01*
X028482Y055177D02*
X028315Y055177D01*
X028357Y055052D02*
X028357Y055303D01*
X028482Y055177D01*
X026431Y054018D02*
X026431Y053851D01*
X026306Y053851D01*
X026348Y053934D01*
X026348Y053976D01*
X026306Y054018D01*
X026222Y054018D01*
X026181Y053976D01*
X026181Y053893D01*
X026222Y053851D01*
X026181Y053695D02*
X026181Y053529D01*
X026348Y053695D01*
X026389Y053695D01*
X026431Y053654D01*
X026431Y053570D01*
X026389Y053529D01*
X026389Y053373D02*
X026306Y053373D01*
X026264Y053332D01*
X026264Y053206D01*
X026181Y053206D02*
X026431Y053206D01*
X026431Y053332D01*
X026389Y053373D01*
X026264Y053290D02*
X026181Y053373D01*
X024026Y055394D02*
X023985Y055352D01*
X023901Y055352D01*
X023860Y055394D01*
X023704Y055352D02*
X023537Y055352D01*
X023621Y055352D02*
X023621Y055603D01*
X023704Y055519D01*
X023860Y055561D02*
X023901Y055603D01*
X023985Y055603D01*
X024026Y055561D01*
X024026Y055394D01*
X023382Y055394D02*
X023340Y055352D01*
X023257Y055352D01*
X023215Y055394D01*
X023215Y055436D01*
X023257Y055477D01*
X023298Y055477D01*
X023257Y055477D02*
X023215Y055519D01*
X023215Y055561D01*
X023257Y055603D01*
X023340Y055603D01*
X023382Y055561D01*
X022962Y054318D02*
X022920Y054318D01*
X022878Y054276D01*
X022878Y054193D01*
X022920Y054151D01*
X022962Y054151D01*
X023003Y054193D01*
X023003Y054276D01*
X022962Y054318D01*
X022878Y054276D02*
X022837Y054318D01*
X022795Y054318D01*
X022753Y054276D01*
X022753Y054193D01*
X022795Y054151D01*
X022837Y054151D01*
X022878Y054193D01*
X022753Y053995D02*
X022753Y053829D01*
X022753Y053912D02*
X023003Y053912D01*
X022920Y053829D01*
X022878Y053673D02*
X022837Y053632D01*
X022837Y053506D01*
X022753Y053506D02*
X023003Y053506D01*
X023003Y053632D01*
X022962Y053673D01*
X022878Y053673D01*
X022837Y053590D02*
X022753Y053673D01*
D11*
X013676Y039067D03*
X013646Y039007D03*
X013641Y038997D03*
X013636Y038987D03*
X013631Y038977D03*
X013626Y038967D03*
X013621Y038957D03*
X013616Y038947D03*
X013611Y038937D03*
X013606Y038927D03*
X013606Y038922D03*
X013601Y038917D03*
X013601Y038912D03*
X013596Y038902D03*
X013591Y038892D03*
X013591Y038887D03*
X013586Y038882D03*
X013586Y038877D03*
X013581Y038867D03*
X013581Y038862D03*
X013576Y038857D03*
X013576Y038852D03*
X013571Y038842D03*
X013571Y038837D03*
X013566Y038827D03*
X013566Y038822D03*
X013566Y038817D03*
X013561Y038812D03*
X013561Y038807D03*
X013561Y038802D03*
X013556Y038797D03*
X013556Y038792D03*
X013556Y038787D03*
X013551Y038777D03*
X013551Y038772D03*
X013551Y038767D03*
X013546Y038757D03*
X013546Y038752D03*
X013546Y038747D03*
X013541Y038732D03*
X013541Y038727D03*
X013541Y038722D03*
X013541Y038717D03*
X013536Y038692D03*
X013536Y038687D03*
X013536Y038682D03*
X013536Y038677D03*
X013536Y038672D03*
X013536Y038667D03*
X013536Y038662D03*
X013536Y038657D03*
X013536Y038652D03*
X013536Y038647D03*
X013536Y038642D03*
X013536Y038637D03*
X013536Y038632D03*
X013536Y038627D03*
X013536Y038622D03*
X013536Y038617D03*
X013541Y038597D03*
X013541Y038592D03*
X013541Y038587D03*
X013541Y038582D03*
X013546Y038572D03*
X013546Y038567D03*
X013546Y038562D03*
X013546Y038557D03*
X013551Y038552D03*
X013551Y038547D03*
X013551Y038542D03*
X013551Y038537D03*
X013556Y038532D03*
X013556Y038527D03*
X013561Y038517D03*
X013561Y038512D03*
X013566Y038502D03*
X013571Y038492D03*
X013576Y038482D03*
X013421Y038302D03*
X013066Y038292D03*
X013296Y037932D03*
X013301Y037922D03*
X013306Y037912D03*
X013311Y037902D03*
X013316Y037892D03*
X013316Y037887D03*
X013321Y037882D03*
X013321Y037877D03*
X013321Y037872D03*
X013326Y037867D03*
X013326Y037862D03*
X013326Y037857D03*
X013331Y037852D03*
X013331Y037847D03*
X013331Y037842D03*
X013336Y037837D03*
X013336Y037832D03*
X013336Y037827D03*
X013336Y037822D03*
X013341Y037817D03*
X013341Y037812D03*
X013341Y037807D03*
X013341Y037802D03*
X013346Y037792D03*
X013346Y037787D03*
X013346Y037782D03*
X013346Y037777D03*
X013346Y037772D03*
X013351Y037757D03*
X013351Y037752D03*
X013351Y037747D03*
X013351Y037742D03*
X013351Y037737D03*
X013351Y037732D03*
X013351Y037727D03*
X013351Y037722D03*
X013351Y037717D03*
X013351Y037712D03*
X013351Y037707D03*
X013351Y037702D03*
X013351Y037697D03*
X013351Y037692D03*
X013351Y037687D03*
X013351Y037682D03*
X013351Y037677D03*
X013351Y037672D03*
X013351Y037667D03*
X013351Y037662D03*
X013346Y037642D03*
X013346Y037637D03*
X013346Y037632D03*
X013346Y037627D03*
X013341Y037612D03*
X013341Y037607D03*
X013341Y037602D03*
X013336Y037592D03*
X013336Y037587D03*
X013336Y037582D03*
X013331Y037572D03*
X013331Y037567D03*
X013331Y037562D03*
X013326Y037557D03*
X013326Y037552D03*
X013326Y037547D03*
X013321Y037542D03*
X013321Y037537D03*
X013316Y037527D03*
X013311Y037517D03*
X013311Y037512D03*
X013306Y037502D03*
X013301Y037492D03*
X013441Y037502D03*
X013436Y037532D03*
X013436Y037537D03*
X013436Y037542D03*
X013436Y037547D03*
X013436Y037557D03*
X013436Y037562D03*
X013436Y037567D03*
X013441Y037597D03*
X013441Y037602D03*
X013441Y037607D03*
X013441Y037612D03*
X013446Y037627D03*
X013446Y037632D03*
X013446Y037637D03*
X013451Y037647D03*
X013451Y037652D03*
X013451Y037657D03*
X013456Y037662D03*
X013456Y037667D03*
X013456Y037672D03*
X013461Y037677D03*
X013461Y037682D03*
X013466Y037692D03*
X013466Y037697D03*
X013471Y037707D03*
X013476Y037717D03*
X013446Y037347D03*
X013446Y037342D03*
X013446Y037337D03*
X013446Y037332D03*
X013446Y037327D03*
X013451Y037302D03*
X013451Y037297D03*
X013451Y037292D03*
X013451Y037287D03*
X013451Y037282D03*
X013451Y037277D03*
X013456Y037257D03*
X013456Y037252D03*
X013456Y037247D03*
X013456Y037242D03*
X013456Y037237D03*
X013456Y037232D03*
X013461Y037207D03*
X013461Y037202D03*
X013461Y037197D03*
X013461Y037192D03*
X013461Y037187D03*
X013466Y037162D03*
X013466Y037157D03*
X013466Y037152D03*
X013466Y037147D03*
X013466Y037142D03*
X013471Y037117D03*
X013471Y037112D03*
X013471Y037107D03*
X013471Y037102D03*
X013471Y037097D03*
X013471Y037092D03*
X013476Y037072D03*
X013476Y037067D03*
X013476Y037062D03*
X013476Y037057D03*
X013476Y037052D03*
X013476Y037047D03*
X013481Y037027D03*
X013481Y037022D03*
X013481Y037017D03*
X013481Y037012D03*
X013481Y037007D03*
X013481Y037002D03*
X013486Y036977D03*
X013486Y036972D03*
X013486Y036967D03*
X013486Y036962D03*
X013486Y036957D03*
X013491Y036932D03*
X013491Y036927D03*
X013491Y036922D03*
X013491Y036917D03*
X013491Y036912D03*
X013496Y036887D03*
X013496Y036882D03*
X013496Y036877D03*
X013496Y036872D03*
X013496Y036867D03*
X013496Y036862D03*
X013501Y036842D03*
X013501Y036837D03*
X013501Y036832D03*
X013501Y036827D03*
X013501Y036822D03*
X013501Y036817D03*
X013506Y036792D03*
X013506Y036787D03*
X013506Y036782D03*
X013506Y036777D03*
X013506Y036772D03*
X013511Y036747D03*
X013511Y036742D03*
X013511Y036737D03*
X013511Y036732D03*
X013511Y036727D03*
X013516Y036702D03*
X013516Y036697D03*
X013516Y036692D03*
X013516Y036687D03*
X013516Y036682D03*
X013516Y036677D03*
X013521Y036657D03*
X013521Y036652D03*
X013521Y036647D03*
X013521Y036642D03*
X013521Y036637D03*
X013521Y036632D03*
X013526Y036612D03*
X013526Y036607D03*
X013526Y036602D03*
X013526Y036597D03*
X013526Y036592D03*
X013526Y036587D03*
X013531Y036562D03*
X013531Y036557D03*
X013531Y036552D03*
X013531Y036547D03*
X013531Y036542D03*
X013701Y036477D03*
X013701Y036472D03*
X013701Y036467D03*
X013696Y036462D03*
X013696Y036457D03*
X013696Y036452D03*
X013691Y036447D03*
X013706Y036482D03*
X013706Y036487D03*
X013706Y036492D03*
X013711Y036497D03*
X013711Y036502D03*
X013711Y036507D03*
X013716Y036512D03*
X013716Y036517D03*
X013716Y036522D03*
X013721Y036527D03*
X013721Y036532D03*
X013721Y036537D03*
X013726Y036542D03*
X013726Y036547D03*
X013726Y036552D03*
X013731Y036557D03*
X013731Y036562D03*
X013731Y036567D03*
X013736Y036572D03*
X013736Y036577D03*
X013736Y036582D03*
X013741Y036587D03*
X013741Y036592D03*
X013741Y036597D03*
X013746Y036602D03*
X013746Y036607D03*
X013746Y036612D03*
X013736Y036642D03*
X013731Y036652D03*
X013726Y036662D03*
X013726Y036667D03*
X013726Y036672D03*
X013721Y036677D03*
X013721Y036682D03*
X013721Y036687D03*
X013716Y036692D03*
X013716Y036697D03*
X013716Y036702D03*
X013716Y036707D03*
X013711Y036717D03*
X013711Y036722D03*
X013711Y036727D03*
X013711Y036732D03*
X013706Y036752D03*
X013706Y036757D03*
X013706Y036762D03*
X013706Y036767D03*
X013706Y036772D03*
X013701Y036812D03*
X013701Y036817D03*
X013701Y036822D03*
X013701Y036827D03*
X013701Y036832D03*
X013701Y036837D03*
X013701Y036842D03*
X013701Y036847D03*
X013701Y036852D03*
X013701Y036857D03*
X013701Y036862D03*
X013701Y036867D03*
X013701Y036872D03*
X013701Y036877D03*
X013701Y036882D03*
X013701Y036887D03*
X013701Y036892D03*
X013701Y036897D03*
X013701Y036902D03*
X013701Y036907D03*
X013701Y036912D03*
X013701Y036917D03*
X013701Y036922D03*
X013701Y036927D03*
X013701Y036932D03*
X013701Y036937D03*
X013701Y036942D03*
X013701Y036947D03*
X013701Y036952D03*
X013701Y036957D03*
X013701Y036962D03*
X013701Y036967D03*
X013701Y036972D03*
X013701Y036977D03*
X013701Y036982D03*
X013701Y036987D03*
X013701Y036992D03*
X013701Y036997D03*
X013701Y037002D03*
X013701Y037007D03*
X014011Y036962D03*
X014011Y036957D03*
X014011Y036952D03*
X014011Y036947D03*
X014006Y036927D03*
X014006Y036922D03*
X014006Y036917D03*
X014006Y036912D03*
X014001Y036892D03*
X014001Y036887D03*
X014001Y036882D03*
X014001Y036877D03*
X013996Y036867D03*
X013996Y036862D03*
X013996Y036857D03*
X013996Y036852D03*
X013991Y036837D03*
X013991Y036832D03*
X013991Y036827D03*
X013991Y036822D03*
X013986Y036812D03*
X013986Y036807D03*
X013986Y036802D03*
X013981Y036792D03*
X013981Y036787D03*
X013981Y036782D03*
X013981Y036777D03*
X013976Y036767D03*
X013976Y036762D03*
X013976Y036757D03*
X013971Y036747D03*
X013971Y036742D03*
X013971Y036737D03*
X013971Y036732D03*
X013966Y036727D03*
X013966Y036722D03*
X013966Y036717D03*
X013961Y036707D03*
X013961Y036702D03*
X013961Y036697D03*
X013956Y036692D03*
X013956Y036687D03*
X013956Y036682D03*
X013956Y036677D03*
X013951Y036672D03*
X013951Y036667D03*
X013951Y036662D03*
X013946Y036657D03*
X013946Y036652D03*
X013946Y036647D03*
X013946Y036642D03*
X013941Y036637D03*
X013941Y036632D03*
X013941Y036627D03*
X013936Y036622D03*
X013936Y036617D03*
X013936Y036612D03*
X013931Y036607D03*
X013931Y036602D03*
X013931Y036597D03*
X013926Y036592D03*
X013926Y036587D03*
X013926Y036582D03*
X013921Y036577D03*
X013921Y036572D03*
X013916Y036562D03*
X013916Y036557D03*
X013911Y036547D03*
X013911Y036542D03*
X013906Y036537D03*
X013906Y036532D03*
X013906Y036527D03*
X013901Y036522D03*
X013901Y036517D03*
X013896Y036507D03*
X013891Y036497D03*
X013891Y036492D03*
X013886Y036482D03*
X013881Y036472D03*
X013881Y036467D03*
X013876Y036462D03*
X013876Y036457D03*
X013871Y036447D03*
X013866Y036437D03*
X013861Y036427D03*
X013856Y036417D03*
X013856Y036412D03*
X013851Y036402D03*
X013846Y036392D03*
X013841Y036382D03*
X013836Y036372D03*
X013831Y036362D03*
X013806Y036317D03*
X013801Y036307D03*
X013391Y036232D03*
X013391Y036227D03*
X013391Y036222D03*
X013391Y036217D03*
X013391Y036212D03*
X013391Y036207D03*
X013396Y036187D03*
X013396Y036182D03*
X013396Y036177D03*
X013396Y036172D03*
X013396Y036167D03*
X013396Y036162D03*
X013401Y036142D03*
X013401Y036137D03*
X013401Y036132D03*
X013401Y036127D03*
X013401Y036122D03*
X013401Y036117D03*
X013386Y036252D03*
X013386Y036257D03*
X013386Y036262D03*
X012841Y036337D03*
X012841Y036342D03*
X012841Y036347D03*
X012841Y036352D03*
X012836Y036362D03*
X012836Y036367D03*
X012836Y036372D03*
X012836Y036377D03*
X012831Y036387D03*
X012831Y036392D03*
X012831Y036397D03*
X012831Y036402D03*
X012826Y036412D03*
X012826Y036417D03*
X012826Y036422D03*
X012826Y036427D03*
X012821Y036437D03*
X012821Y036442D03*
X012821Y036447D03*
X012821Y036452D03*
X012816Y036462D03*
X012816Y036467D03*
X012816Y036472D03*
X012816Y036477D03*
X012811Y036487D03*
X012811Y036492D03*
X012811Y036497D03*
X012811Y036502D03*
X012806Y036512D03*
X012806Y036517D03*
X012806Y036522D03*
X012806Y036527D03*
X012801Y036537D03*
X012801Y036542D03*
X012801Y036547D03*
X012801Y036552D03*
X012796Y036562D03*
X012891Y036707D03*
X012896Y036717D03*
X012901Y036727D03*
X012906Y036737D03*
X012911Y036747D03*
X012916Y036757D03*
X012916Y036762D03*
X012921Y036772D03*
X012926Y036782D03*
X012931Y036792D03*
X012936Y036802D03*
X012936Y036807D03*
X012941Y036812D03*
X012941Y036817D03*
X012946Y036827D03*
X012946Y036832D03*
X012951Y036837D03*
X012951Y036842D03*
X012956Y036852D03*
X012956Y036857D03*
X012961Y036862D03*
X012961Y036867D03*
X012961Y036872D03*
X012966Y036877D03*
X012966Y036882D03*
X012971Y036892D03*
X012971Y036897D03*
X012976Y036902D03*
X012976Y036907D03*
X012976Y036912D03*
X012981Y036917D03*
X012981Y036922D03*
X012981Y036927D03*
X012986Y036932D03*
X012986Y036937D03*
X012986Y036942D03*
X012991Y036947D03*
X012991Y036952D03*
X012991Y036957D03*
X012996Y036962D03*
X012996Y036967D03*
X012996Y036972D03*
X013001Y036977D03*
X013001Y036982D03*
X013001Y036987D03*
X013006Y036992D03*
X013006Y036997D03*
X013006Y037002D03*
X013011Y037007D03*
X013011Y037012D03*
X013011Y037017D03*
X013016Y037022D03*
X013016Y037027D03*
X013016Y037032D03*
X013021Y037037D03*
X013021Y037042D03*
X013021Y037047D03*
X013026Y037052D03*
X013026Y037057D03*
X013026Y037062D03*
X013031Y037067D03*
X013031Y037072D03*
X013031Y037077D03*
X013036Y037082D03*
X013036Y037087D03*
X012821Y037632D03*
X012931Y037722D03*
X012936Y037732D03*
X012936Y037737D03*
X012941Y037742D03*
X012941Y037747D03*
X012941Y037752D03*
X012946Y037762D03*
X012946Y037767D03*
X012946Y037772D03*
X012946Y037777D03*
X012946Y037782D03*
X012946Y037787D03*
X012946Y037797D03*
X012946Y037802D03*
X012946Y037807D03*
X012946Y037812D03*
X012946Y037817D03*
X012946Y037822D03*
X012941Y037832D03*
X012941Y037837D03*
X012941Y037842D03*
X012936Y037847D03*
X012936Y037852D03*
X012931Y037862D03*
X012711Y037862D03*
X012706Y037852D03*
X012706Y037847D03*
X012701Y037842D03*
X012701Y037837D03*
X012701Y037832D03*
X012696Y037822D03*
X012696Y037817D03*
X012696Y037812D03*
X012696Y037807D03*
X012696Y037802D03*
X012696Y037787D03*
X012696Y037782D03*
X012696Y037777D03*
X012696Y037772D03*
X012696Y037767D03*
X012696Y037762D03*
X012701Y037752D03*
X012701Y037747D03*
X012701Y037742D03*
X012706Y037737D03*
X012706Y037732D03*
X012711Y037722D03*
X012461Y037737D03*
X012461Y037742D03*
X012461Y037747D03*
X012461Y037752D03*
X012461Y037757D03*
X012461Y037762D03*
X012461Y037767D03*
X012466Y037782D03*
X012466Y037787D03*
X012466Y037792D03*
X012466Y037797D03*
X012471Y037812D03*
X012471Y037817D03*
X012471Y037822D03*
X012476Y037832D03*
X012476Y037837D03*
X012476Y037842D03*
X012481Y037847D03*
X012481Y037852D03*
X012481Y037857D03*
X012486Y037867D03*
X012486Y037872D03*
X012491Y037877D03*
X012491Y037882D03*
X012496Y037892D03*
X012496Y037897D03*
X012501Y037907D03*
X012506Y037917D03*
X012511Y037927D03*
X012461Y037677D03*
X012461Y037672D03*
X012461Y037667D03*
X012461Y037662D03*
X012461Y037657D03*
X012461Y037652D03*
X012466Y037632D03*
X012466Y037627D03*
X012466Y037622D03*
X012466Y037617D03*
X012471Y037607D03*
X012471Y037602D03*
X012471Y037597D03*
X012471Y037592D03*
X012476Y037587D03*
X012476Y037582D03*
X012476Y037577D03*
X012476Y037572D03*
X012481Y037567D03*
X012481Y037562D03*
X012481Y037557D03*
X012486Y037552D03*
X012486Y037547D03*
X012491Y037537D03*
X012491Y037532D03*
X012496Y037522D03*
X012501Y037512D03*
X012506Y037502D03*
X012511Y037492D03*
X012521Y037472D03*
X012161Y037482D03*
X012161Y037487D03*
X012161Y037492D03*
X012161Y037497D03*
X012161Y037502D03*
X012161Y037507D03*
X012161Y037512D03*
X012161Y037517D03*
X012161Y037522D03*
X012161Y037527D03*
X012166Y037562D03*
X012166Y037567D03*
X012166Y037572D03*
X012166Y037577D03*
X012166Y037582D03*
X012166Y037587D03*
X012166Y037592D03*
X012171Y037617D03*
X012171Y037622D03*
X012171Y037627D03*
X012171Y037632D03*
X012171Y037637D03*
X012171Y037642D03*
X012171Y037647D03*
X012176Y037667D03*
X012176Y037672D03*
X012176Y037677D03*
X012176Y037682D03*
X012176Y037687D03*
X012181Y037707D03*
X012181Y037712D03*
X012181Y037717D03*
X012181Y037722D03*
X012181Y037727D03*
X012186Y037747D03*
X012186Y037752D03*
X012186Y037757D03*
X012186Y037762D03*
X012191Y037777D03*
X012191Y037782D03*
X012191Y037787D03*
X012191Y037792D03*
X012196Y037807D03*
X012196Y037812D03*
X012196Y037817D03*
X012196Y037822D03*
X012196Y037827D03*
X012201Y037837D03*
X012201Y037842D03*
X012201Y037847D03*
X012201Y037852D03*
X012206Y037867D03*
X012206Y037872D03*
X012206Y037877D03*
X012206Y037882D03*
X012211Y037892D03*
X012211Y037897D03*
X012211Y037902D03*
X012211Y037907D03*
X012216Y037917D03*
X012216Y037922D03*
X012216Y037927D03*
X012216Y037932D03*
X012221Y037942D03*
X012221Y037947D03*
X012221Y037952D03*
X012221Y037957D03*
X012226Y037962D03*
X012226Y037967D03*
X012226Y037972D03*
X012226Y037977D03*
X012231Y037987D03*
X012231Y037992D03*
X012231Y037997D03*
X012236Y038007D03*
X012236Y038012D03*
X012236Y038017D03*
X012241Y038027D03*
X012241Y038032D03*
X012241Y038037D03*
X012241Y038042D03*
X012246Y038047D03*
X012246Y038052D03*
X012246Y038057D03*
X012246Y038062D03*
X012251Y038067D03*
X012251Y038072D03*
X012251Y038077D03*
X012256Y038087D03*
X012256Y038092D03*
X012256Y038097D03*
X012261Y038102D03*
X012261Y038107D03*
X012261Y038112D03*
X012261Y038117D03*
X012266Y038122D03*
X012266Y038127D03*
X012266Y038132D03*
X011961Y037772D03*
X011956Y037762D03*
X011931Y037717D03*
X011926Y037707D03*
X011921Y037697D03*
X011916Y037687D03*
X011911Y037677D03*
X011906Y037667D03*
X011901Y037657D03*
X011901Y037652D03*
X011896Y037642D03*
X011891Y037632D03*
X011886Y037622D03*
X011881Y037612D03*
X011876Y037602D03*
X011876Y037597D03*
X011871Y037587D03*
X011866Y037577D03*
X011866Y037572D03*
X011861Y037567D03*
X011861Y037562D03*
X011856Y037552D03*
X011856Y037547D03*
X011851Y037542D03*
X011851Y037537D03*
X011846Y037527D03*
X011846Y037522D03*
X011841Y037517D03*
X011841Y037512D03*
X011836Y037502D03*
X011836Y037497D03*
X011831Y037487D03*
X011831Y037482D03*
X011826Y037477D03*
X011826Y037472D03*
X011826Y037467D03*
X011821Y037462D03*
X011821Y037457D03*
X011821Y037452D03*
X011816Y037447D03*
X011816Y037442D03*
X011816Y037437D03*
X011811Y037432D03*
X011811Y037427D03*
X011811Y037422D03*
X011806Y037417D03*
X011806Y037412D03*
X011806Y037407D03*
X011801Y037402D03*
X011801Y037397D03*
X011801Y037392D03*
X011796Y037387D03*
X011796Y037382D03*
X011796Y037377D03*
X011796Y037372D03*
X011791Y037367D03*
X011791Y037362D03*
X011791Y037357D03*
X011786Y037352D03*
X011786Y037347D03*
X011786Y037342D03*
X011786Y037337D03*
X011781Y037332D03*
X011781Y037327D03*
X011781Y037322D03*
X011776Y037312D03*
X011776Y037307D03*
X011776Y037302D03*
X011771Y037292D03*
X011771Y037287D03*
X011771Y037282D03*
X011766Y037272D03*
X011766Y037267D03*
X011766Y037262D03*
X011761Y037252D03*
X011761Y037247D03*
X011761Y037242D03*
X011761Y037237D03*
X011756Y037227D03*
X011756Y037222D03*
X011756Y037217D03*
X011756Y037212D03*
X011751Y037202D03*
X011751Y037197D03*
X011751Y037192D03*
X011746Y037177D03*
X011746Y037172D03*
X011746Y037167D03*
X011746Y037162D03*
X011741Y037152D03*
X011741Y037147D03*
X011741Y037142D03*
X011741Y037137D03*
X011736Y037122D03*
X011736Y037117D03*
X011736Y037112D03*
X011736Y037107D03*
X011736Y037102D03*
X011731Y037087D03*
X011731Y037082D03*
X011731Y037077D03*
X011731Y037072D03*
X011731Y037067D03*
X011726Y037052D03*
X011726Y037047D03*
X011726Y037042D03*
X011726Y037037D03*
X011726Y037032D03*
X011726Y037027D03*
X011721Y037007D03*
X011721Y037002D03*
X011721Y036997D03*
X011721Y036992D03*
X011721Y036987D03*
X011721Y036982D03*
X011716Y036957D03*
X011716Y036952D03*
X011716Y036947D03*
X011716Y036942D03*
X011716Y036937D03*
X011716Y036932D03*
X011716Y036927D03*
X011716Y036922D03*
X011711Y036882D03*
X011711Y036877D03*
X011711Y036872D03*
X011711Y036867D03*
X011711Y036862D03*
X011711Y036857D03*
X011711Y036852D03*
X011711Y036847D03*
X011711Y036842D03*
X011711Y036837D03*
X011711Y036832D03*
X011711Y036827D03*
X011711Y036822D03*
X011711Y036682D03*
X011711Y036677D03*
X011711Y036672D03*
X011711Y036667D03*
X011711Y036662D03*
X011711Y036657D03*
X011711Y036652D03*
X011711Y036647D03*
X011711Y036642D03*
X011711Y036637D03*
X011711Y036632D03*
X011711Y036627D03*
X011711Y036622D03*
X011711Y036617D03*
X011716Y036577D03*
X011716Y036572D03*
X011716Y036567D03*
X011716Y036562D03*
X011716Y036557D03*
X011716Y036552D03*
X011716Y036547D03*
X011716Y036542D03*
X011721Y036512D03*
X011721Y036507D03*
X011721Y036502D03*
X011721Y036497D03*
X011721Y036492D03*
X011721Y036487D03*
X011721Y036482D03*
X011726Y036457D03*
X011726Y036452D03*
X011726Y036447D03*
X011726Y036442D03*
X011726Y036437D03*
X011731Y036412D03*
X011731Y036407D03*
X011731Y036402D03*
X011731Y036397D03*
X011731Y036392D03*
X011736Y036377D03*
X011736Y036372D03*
X011736Y036367D03*
X011736Y036362D03*
X011736Y036357D03*
X011741Y036337D03*
X011741Y036332D03*
X011741Y036327D03*
X011741Y036322D03*
X011746Y036307D03*
X011746Y036302D03*
X011746Y036297D03*
X011746Y036292D03*
X011746Y036287D03*
X011751Y036272D03*
X011751Y036267D03*
X011751Y036262D03*
X011751Y036257D03*
X011756Y036242D03*
X011756Y036237D03*
X011756Y036232D03*
X011756Y036227D03*
X011761Y036217D03*
X011761Y036212D03*
X011761Y036207D03*
X011761Y036202D03*
X011766Y036187D03*
X011766Y036182D03*
X011766Y036177D03*
X011771Y036162D03*
X011771Y036157D03*
X011771Y036152D03*
X011776Y036137D03*
X011776Y036132D03*
X011776Y036127D03*
X011776Y036122D03*
X011781Y036112D03*
X011781Y036107D03*
X011781Y036102D03*
X011786Y036092D03*
X011786Y036087D03*
X011786Y036082D03*
X011786Y036077D03*
X011791Y036067D03*
X011791Y036062D03*
X011791Y036057D03*
X011796Y036047D03*
X011796Y036042D03*
X011796Y036037D03*
X011796Y036032D03*
X011801Y036027D03*
X011801Y036022D03*
X011801Y036017D03*
X011801Y036012D03*
X011806Y036002D03*
X011806Y035997D03*
X011816Y035897D03*
X011816Y035892D03*
X011821Y035887D03*
X011821Y035882D03*
X011826Y035872D03*
X011826Y035867D03*
X011831Y035862D03*
X011831Y035857D03*
X011836Y035847D03*
X011841Y035837D03*
X011841Y035832D03*
X011846Y035822D03*
X011851Y035812D03*
X011896Y035822D03*
X011896Y035827D03*
X011896Y035832D03*
X011896Y035837D03*
X011901Y035857D03*
X011901Y035862D03*
X011901Y035867D03*
X011901Y035872D03*
X011901Y035877D03*
X011906Y035892D03*
X011906Y035897D03*
X011906Y035902D03*
X011906Y035907D03*
X011906Y035912D03*
X011911Y035932D03*
X011911Y035937D03*
X011911Y035942D03*
X011911Y035947D03*
X011956Y035962D03*
X011961Y035957D03*
X011961Y035952D03*
X011966Y035942D03*
X011966Y035937D03*
X011971Y035932D03*
X011971Y035927D03*
X011976Y035917D03*
X011976Y035912D03*
X011981Y035902D03*
X011981Y035897D03*
X011986Y035892D03*
X011986Y035887D03*
X011991Y035877D03*
X011991Y035872D03*
X011996Y035867D03*
X011996Y035862D03*
X012001Y035852D03*
X012001Y035847D03*
X012006Y035837D03*
X012006Y035832D03*
X012011Y035827D03*
X012011Y035822D03*
X012016Y035812D03*
X012016Y035807D03*
X012066Y035807D03*
X012066Y035812D03*
X012066Y035817D03*
X012066Y035822D03*
X012071Y035827D03*
X012071Y035832D03*
X012071Y035837D03*
X012076Y035847D03*
X012076Y035852D03*
X012076Y035857D03*
X012091Y035907D03*
X012091Y035912D03*
X012096Y035922D03*
X012096Y035927D03*
X012096Y035932D03*
X012101Y035942D03*
X012101Y035947D03*
X012101Y035952D03*
X012106Y035957D03*
X012106Y035962D03*
X012106Y035967D03*
X012106Y035972D03*
X012111Y035977D03*
X012111Y035982D03*
X012111Y035987D03*
X012116Y035997D03*
X012116Y036002D03*
X012116Y036007D03*
X012121Y036017D03*
X012121Y036022D03*
X012121Y036027D03*
X012126Y036032D03*
X012171Y036032D03*
X012176Y036022D03*
X012181Y036012D03*
X012186Y036002D03*
X012191Y035992D03*
X012196Y035982D03*
X012201Y035972D03*
X012206Y035962D03*
X012211Y035952D03*
X012216Y035942D03*
X012221Y035932D03*
X012226Y035922D03*
X012231Y035912D03*
X012236Y035902D03*
X012241Y035892D03*
X012246Y035882D03*
X012251Y035872D03*
X012256Y035862D03*
X012261Y035852D03*
X012266Y035842D03*
X012271Y035832D03*
X012276Y035822D03*
X012281Y035812D03*
X012316Y035742D03*
X012321Y035732D03*
X012326Y035722D03*
X012331Y035712D03*
X012336Y035702D03*
X012341Y035692D03*
X012346Y035682D03*
X012351Y035672D03*
X012356Y035662D03*
X012361Y035652D03*
X012366Y035642D03*
X012371Y035632D03*
X012376Y035622D03*
X012381Y035612D03*
X012386Y035602D03*
X012391Y035592D03*
X012396Y035582D03*
X012401Y035572D03*
X012406Y035562D03*
X012411Y035552D03*
X012416Y035542D03*
X012421Y035532D03*
X012426Y035522D03*
X012431Y035512D03*
X012436Y035502D03*
X012441Y035492D03*
X012446Y035482D03*
X012451Y035472D03*
X012456Y035462D03*
X012496Y035472D03*
X012496Y035477D03*
X012491Y035492D03*
X012491Y035497D03*
X012491Y035502D03*
X012491Y035507D03*
X012486Y035517D03*
X012486Y035522D03*
X012486Y035527D03*
X012481Y035537D03*
X012481Y035542D03*
X012481Y035547D03*
X012481Y035552D03*
X012476Y035562D03*
X012476Y035567D03*
X012476Y035572D03*
X012476Y035577D03*
X012471Y035587D03*
X012471Y035592D03*
X012471Y035597D03*
X012466Y035607D03*
X012466Y035612D03*
X012466Y035617D03*
X012466Y035622D03*
X012461Y035632D03*
X012461Y035637D03*
X012461Y035642D03*
X012461Y035647D03*
X012456Y035657D03*
X012456Y035662D03*
X012456Y035667D03*
X012446Y035712D03*
X012441Y035722D03*
X012441Y035727D03*
X012441Y035732D03*
X012436Y035742D03*
X012436Y035747D03*
X012436Y035752D03*
X012436Y035757D03*
X012431Y035762D03*
X012431Y035767D03*
X012431Y035772D03*
X012431Y035777D03*
X012426Y035787D03*
X012426Y035792D03*
X012426Y035797D03*
X012421Y035807D03*
X012421Y035812D03*
X012421Y035817D03*
X012416Y035827D03*
X012416Y035832D03*
X012416Y035837D03*
X012416Y035842D03*
X012411Y035847D03*
X012411Y035852D03*
X012411Y035857D03*
X012411Y035862D03*
X012406Y035872D03*
X012406Y035877D03*
X012406Y035882D03*
X012401Y035892D03*
X012401Y035897D03*
X012401Y035902D03*
X012396Y035912D03*
X012396Y035917D03*
X012396Y035922D03*
X012391Y035932D03*
X012391Y035937D03*
X012391Y035942D03*
X012386Y035952D03*
X012386Y035957D03*
X012386Y035962D03*
X012381Y035972D03*
X012381Y035977D03*
X012381Y035982D03*
X012376Y035992D03*
X012376Y035997D03*
X012376Y036002D03*
X012371Y036012D03*
X012371Y036017D03*
X012371Y036022D03*
X012366Y036032D03*
X012366Y036037D03*
X012366Y036042D03*
X012361Y036052D03*
X012361Y036057D03*
X012361Y036062D03*
X012361Y036067D03*
X012356Y036072D03*
X012356Y036077D03*
X012356Y036082D03*
X012356Y036087D03*
X012351Y036092D03*
X012351Y036097D03*
X012351Y036102D03*
X012351Y036107D03*
X012346Y036112D03*
X012346Y036117D03*
X012346Y036122D03*
X012346Y036127D03*
X012341Y036132D03*
X012341Y036137D03*
X012341Y036142D03*
X012341Y036147D03*
X012336Y036152D03*
X012336Y036157D03*
X012336Y036162D03*
X012336Y036167D03*
X012331Y036172D03*
X012331Y036177D03*
X012331Y036182D03*
X012331Y036187D03*
X012326Y036192D03*
X012326Y036197D03*
X012326Y036202D03*
X012326Y036207D03*
X012321Y036217D03*
X012321Y036222D03*
X012321Y036227D03*
X012316Y036237D03*
X012316Y036242D03*
X012316Y036247D03*
X012311Y036257D03*
X012311Y036262D03*
X012311Y036267D03*
X012306Y036277D03*
X012306Y036282D03*
X012306Y036287D03*
X012306Y036292D03*
X012301Y036297D03*
X012301Y036302D03*
X012301Y036307D03*
X012301Y036312D03*
X012296Y036322D03*
X012296Y036327D03*
X012296Y036332D03*
X012291Y036342D03*
X012291Y036347D03*
X012291Y036352D03*
X012286Y036362D03*
X012286Y036367D03*
X012286Y036372D03*
X012286Y036377D03*
X012281Y036382D03*
X012281Y036387D03*
X012281Y036392D03*
X012281Y036397D03*
X012276Y036407D03*
X012276Y036412D03*
X012276Y036417D03*
X012276Y036422D03*
X012271Y036432D03*
X012271Y036437D03*
X012271Y036442D03*
X012266Y036452D03*
X012266Y036457D03*
X012266Y036462D03*
X012266Y036467D03*
X012261Y036477D03*
X012261Y036482D03*
X012261Y036487D03*
X012256Y036497D03*
X012256Y036502D03*
X012256Y036507D03*
X012256Y036512D03*
X012251Y036522D03*
X012251Y036527D03*
X012251Y036532D03*
X012246Y036542D03*
X012246Y036547D03*
X012246Y036552D03*
X012246Y036557D03*
X012241Y036567D03*
X012241Y036572D03*
X012241Y036577D03*
X012241Y036582D03*
X012236Y036592D03*
X012236Y036597D03*
X012236Y036602D03*
X012236Y036607D03*
X012231Y036617D03*
X012231Y036622D03*
X012231Y036627D03*
X012231Y036632D03*
X012226Y036642D03*
X012226Y036647D03*
X012226Y036652D03*
X012226Y036657D03*
X012221Y036672D03*
X012221Y036677D03*
X012221Y036682D03*
X012221Y036687D03*
X012216Y036702D03*
X012216Y036707D03*
X012216Y036712D03*
X012216Y036717D03*
X012211Y036727D03*
X012211Y036732D03*
X012211Y036737D03*
X012211Y036742D03*
X012206Y036757D03*
X012206Y036762D03*
X012206Y036767D03*
X012206Y036772D03*
X012201Y036787D03*
X012201Y036792D03*
X012201Y036797D03*
X012201Y036802D03*
X012201Y036807D03*
X012196Y036822D03*
X012196Y036827D03*
X012196Y036832D03*
X012196Y036837D03*
X012191Y036857D03*
X012191Y036862D03*
X012191Y036867D03*
X012191Y036872D03*
X012186Y036892D03*
X012186Y036897D03*
X012186Y036902D03*
X012186Y036907D03*
X012181Y036932D03*
X012181Y036937D03*
X012181Y036942D03*
X012181Y036947D03*
X012181Y036952D03*
X012176Y036972D03*
X012176Y036977D03*
X012176Y036982D03*
X012176Y036987D03*
X012176Y036992D03*
X012171Y037022D03*
X012171Y037027D03*
X012171Y037032D03*
X012171Y037037D03*
X012171Y037042D03*
X012171Y037047D03*
X012166Y037077D03*
X012166Y037082D03*
X012166Y037087D03*
X012166Y037092D03*
X012166Y037097D03*
X012166Y037102D03*
X012166Y037107D03*
X012161Y037147D03*
X012161Y037152D03*
X012161Y037157D03*
X012161Y037162D03*
X012161Y037167D03*
X012161Y037172D03*
X012161Y037177D03*
X012161Y037182D03*
X012161Y037187D03*
X012156Y037257D03*
X012156Y037262D03*
X012156Y037267D03*
X012156Y037272D03*
X012156Y037277D03*
X012156Y037282D03*
X012156Y037287D03*
X012156Y037292D03*
X012156Y037297D03*
X012156Y037302D03*
X012156Y037307D03*
X012156Y037312D03*
X012156Y037317D03*
X012156Y037322D03*
X012156Y037327D03*
X012156Y037332D03*
X012156Y037337D03*
X012156Y037342D03*
X012156Y037347D03*
X012156Y037352D03*
X012156Y037357D03*
X012156Y037362D03*
X012156Y037367D03*
X012156Y037372D03*
X012156Y037377D03*
X012156Y037382D03*
X012156Y037387D03*
X012156Y037392D03*
X012156Y037397D03*
X012156Y037402D03*
X012156Y037407D03*
X012156Y037412D03*
X011161Y036947D03*
X011156Y036957D03*
X011151Y036967D03*
X011146Y036977D03*
X011141Y036987D03*
X011141Y036992D03*
X011136Y037002D03*
X011131Y037012D03*
X011126Y037022D03*
X011126Y037027D03*
X011121Y037032D03*
X011121Y037037D03*
X011116Y037047D03*
X011111Y037057D03*
X011111Y037062D03*
X011106Y037072D03*
X011101Y037082D03*
X011101Y037087D03*
X011096Y037097D03*
X011091Y037107D03*
X011091Y037112D03*
X011086Y037117D03*
X011086Y037122D03*
X011081Y037132D03*
X011081Y037137D03*
X011076Y037147D03*
X011076Y037152D03*
X011071Y037157D03*
X011071Y037162D03*
X011071Y037167D03*
X011066Y037172D03*
X011066Y037177D03*
X011061Y037187D03*
X011061Y037192D03*
X011056Y037197D03*
X011056Y037202D03*
X011056Y037207D03*
X011051Y037212D03*
X011041Y037252D03*
X011036Y037257D03*
X011036Y037262D03*
X011036Y037267D03*
X011031Y037272D03*
X011031Y037277D03*
X011031Y037282D03*
X011026Y037287D03*
X011026Y037292D03*
X011026Y037297D03*
X011021Y037302D03*
X011021Y037307D03*
X011021Y037312D03*
X011021Y037317D03*
X011016Y037322D03*
X011016Y037327D03*
X011016Y037332D03*
X011011Y037337D03*
X011011Y037342D03*
X011011Y037347D03*
X011006Y037357D03*
X011006Y037362D03*
X011006Y037367D03*
X011001Y037372D03*
X011001Y037377D03*
X011001Y037382D03*
X010996Y037392D03*
X010996Y037397D03*
X010996Y037402D03*
X010991Y037412D03*
X010991Y037417D03*
X010991Y037422D03*
X010986Y037432D03*
X010986Y037437D03*
X010986Y037442D03*
X010981Y037452D03*
X010981Y037457D03*
X010981Y037462D03*
X010976Y037472D03*
X010976Y037477D03*
X010976Y037482D03*
X010976Y037487D03*
X010971Y037497D03*
X010971Y037502D03*
X010971Y037507D03*
X010971Y037512D03*
X010966Y037522D03*
X010966Y037527D03*
X010966Y037532D03*
X010961Y037547D03*
X010961Y037552D03*
X010961Y037557D03*
X010961Y037562D03*
X010956Y037577D03*
X010956Y037582D03*
X010956Y037587D03*
X010956Y037592D03*
X010951Y037602D03*
X010951Y037607D03*
X010951Y037612D03*
X010951Y037617D03*
X010951Y037622D03*
X010946Y037637D03*
X010946Y037642D03*
X010946Y037647D03*
X010946Y037652D03*
X010946Y037657D03*
X010941Y037677D03*
X010941Y037682D03*
X010941Y037687D03*
X010941Y037692D03*
X010941Y037697D03*
X010941Y037702D03*
X010936Y037732D03*
X010936Y037737D03*
X010936Y037742D03*
X010936Y037747D03*
X010936Y037752D03*
X010936Y037757D03*
X010936Y037762D03*
X010931Y037817D03*
X010931Y037822D03*
X010931Y037827D03*
X010931Y037832D03*
X010931Y037837D03*
X010931Y037842D03*
X010931Y037847D03*
X010931Y037852D03*
X010931Y037857D03*
X010931Y037862D03*
X010931Y037867D03*
X010931Y037872D03*
X010931Y037877D03*
X010931Y037882D03*
X010931Y037887D03*
X010931Y037892D03*
X010931Y037897D03*
X010931Y037902D03*
X010931Y037907D03*
X010931Y037912D03*
X010936Y037957D03*
X010936Y037962D03*
X010936Y037967D03*
X010936Y037972D03*
X010936Y037977D03*
X010936Y037982D03*
X010936Y037987D03*
X010941Y038012D03*
X010941Y038017D03*
X010941Y038022D03*
X010941Y038027D03*
X010941Y038032D03*
X010941Y038037D03*
X010946Y038052D03*
X010946Y038057D03*
X010946Y038062D03*
X010946Y038067D03*
X010951Y038082D03*
X010951Y038087D03*
X010951Y038092D03*
X010951Y038097D03*
X010951Y038102D03*
X010956Y038112D03*
X010956Y038117D03*
X010956Y038122D03*
X010956Y038127D03*
X010961Y038137D03*
X010961Y038142D03*
X010961Y038147D03*
X010966Y038157D03*
X010966Y038162D03*
X010966Y038167D03*
X010966Y038172D03*
X010971Y038177D03*
X010971Y038182D03*
X010971Y038187D03*
X010971Y038192D03*
X010976Y038197D03*
X010976Y038202D03*
X010976Y038207D03*
X010981Y038217D03*
X010981Y038222D03*
X010981Y038227D03*
X010986Y038232D03*
X010986Y038237D03*
X010986Y038242D03*
X010991Y038247D03*
X010991Y038252D03*
X010991Y038257D03*
X010996Y038262D03*
X010996Y038267D03*
X010996Y038272D03*
X011001Y038277D03*
X011001Y038282D03*
X011001Y038287D03*
X011006Y038292D03*
X011006Y038297D03*
X011011Y038307D03*
X011011Y038312D03*
X011016Y038317D03*
X011016Y038322D03*
X011021Y038332D03*
X011021Y038337D03*
X011026Y038342D03*
X011026Y038347D03*
X011031Y038357D03*
X011036Y038367D03*
X011041Y038377D03*
X011046Y038387D03*
X011051Y038397D03*
X011056Y038407D03*
X011066Y038427D03*
X011071Y038437D03*
X011166Y036932D03*
X011171Y036922D03*
X011176Y036912D03*
X011181Y036902D03*
X011186Y036892D03*
X011191Y036882D03*
X011196Y036872D03*
X011201Y036862D03*
X011206Y036852D03*
X011211Y036842D03*
X011311Y036572D03*
X011311Y036567D03*
X011311Y036562D03*
X011311Y036557D03*
X011311Y036552D03*
X011311Y036547D03*
X011311Y036542D03*
X011311Y036537D03*
X011311Y036532D03*
X011311Y036527D03*
X011311Y036522D03*
X011311Y036517D03*
X011311Y036512D03*
X011306Y036467D03*
X011306Y036462D03*
X011306Y036457D03*
X011306Y036452D03*
X011306Y036447D03*
X011301Y036422D03*
X011301Y036417D03*
X011301Y036412D03*
X011301Y036407D03*
X011296Y036392D03*
X011296Y036387D03*
X011296Y036382D03*
X011291Y036367D03*
X011291Y036362D03*
X011291Y036357D03*
X011291Y036352D03*
X011286Y036347D03*
X011286Y036342D03*
X011286Y036337D03*
X011281Y036332D03*
X011281Y036327D03*
X011281Y036322D03*
X011281Y036317D03*
X011276Y036312D03*
X011276Y036307D03*
X011276Y036302D03*
X011271Y036297D03*
X011271Y036292D03*
X011266Y036282D03*
X011266Y036277D03*
X011261Y036272D03*
X011261Y036267D03*
X011256Y036257D03*
X011251Y036247D03*
X011246Y036237D03*
X011926Y036047D03*
X011926Y036042D03*
X012141Y036092D03*
X012141Y036097D03*
X012046Y035737D03*
X012046Y035732D03*
X011881Y035742D03*
X011441Y035502D03*
X011471Y035447D03*
X011491Y035412D03*
X011511Y035377D03*
X011516Y035367D03*
X011536Y035332D03*
X011556Y035297D03*
X011576Y035262D03*
X011596Y035227D03*
X011621Y035182D03*
X011641Y035147D03*
X011661Y035112D03*
X011681Y035077D03*
X011701Y035042D03*
X011706Y035032D03*
X011726Y034997D03*
X011746Y034962D03*
X011766Y034927D03*
X011786Y034892D03*
X011816Y034822D03*
X011811Y034812D03*
X011806Y034802D03*
X011801Y034792D03*
X011781Y034757D03*
X011776Y034747D03*
X011771Y034737D03*
X011766Y034727D03*
X011701Y034607D03*
X011696Y034597D03*
X011691Y034587D03*
X011686Y034577D03*
X011666Y034542D03*
X011661Y034532D03*
X011656Y034522D03*
X011651Y034512D03*
X011626Y034467D03*
X011621Y034457D03*
X011616Y034447D03*
X011611Y034437D03*
X011586Y034392D03*
X011581Y034382D03*
X011576Y034372D03*
X011571Y034362D03*
X011551Y034327D03*
X011546Y034317D03*
X011541Y034307D03*
X011536Y034297D03*
X011511Y034252D03*
X011811Y034237D03*
X011811Y034232D03*
X011811Y034227D03*
X011811Y034222D03*
X011811Y034217D03*
X011816Y034267D03*
X011816Y034272D03*
X011816Y034277D03*
X011816Y034282D03*
X011816Y034287D03*
X011816Y034292D03*
X011816Y034297D03*
X011821Y034327D03*
X011821Y034332D03*
X011821Y034337D03*
X011821Y034342D03*
X011821Y034347D03*
X011821Y034352D03*
X011821Y034357D03*
X011821Y034362D03*
X011826Y034392D03*
X011826Y034397D03*
X011826Y034402D03*
X011826Y034407D03*
X011826Y034412D03*
X011826Y034417D03*
X011826Y034422D03*
X011831Y034452D03*
X011831Y034457D03*
X011831Y034462D03*
X011831Y034467D03*
X011831Y034472D03*
X011831Y034477D03*
X011831Y034482D03*
X011831Y034487D03*
X011836Y034517D03*
X011836Y034522D03*
X011836Y034527D03*
X011836Y034532D03*
X011836Y034537D03*
X011836Y034542D03*
X011836Y034547D03*
X011841Y034577D03*
X011841Y034582D03*
X011841Y034587D03*
X011841Y034592D03*
X011841Y034597D03*
X011841Y034602D03*
X011841Y034607D03*
X011841Y034612D03*
X011881Y034942D03*
X012531Y034917D03*
X012531Y034912D03*
X012531Y034907D03*
X012531Y034902D03*
X012536Y034932D03*
X012536Y034937D03*
X012536Y034942D03*
X012536Y034947D03*
X012541Y034957D03*
X012541Y034962D03*
X012541Y034967D03*
X012541Y034972D03*
X012546Y034982D03*
X012546Y034987D03*
X012546Y034992D03*
X012546Y034997D03*
X012551Y035007D03*
X012551Y035012D03*
X012551Y035017D03*
X012556Y035027D03*
X012556Y035032D03*
X012556Y035037D03*
X012556Y035042D03*
X012561Y035047D03*
X012561Y035052D03*
X012561Y035057D03*
X012561Y035062D03*
X012566Y035067D03*
X012566Y035072D03*
X012566Y035077D03*
X012566Y035082D03*
X012571Y035087D03*
X012571Y035092D03*
X012571Y035097D03*
X012576Y035107D03*
X012576Y035112D03*
X012576Y035117D03*
X012581Y035122D03*
X012581Y035127D03*
X012581Y035132D03*
X012586Y035137D03*
X012586Y035142D03*
X012586Y035147D03*
X012591Y035152D03*
X012591Y035157D03*
X012591Y035162D03*
X012596Y035167D03*
X012596Y035172D03*
X012596Y035177D03*
X012601Y035182D03*
X012601Y035187D03*
X012601Y035192D03*
X012606Y035197D03*
X012606Y035202D03*
X012606Y035207D03*
X012611Y035212D03*
X012611Y035217D03*
X012616Y035227D03*
X012616Y035232D03*
X012621Y035237D03*
X012621Y035242D03*
X012626Y035252D03*
X012626Y035257D03*
X012631Y035262D03*
X012631Y035267D03*
X012636Y035277D03*
X012641Y035287D03*
X012646Y035297D03*
X012651Y035307D03*
X012676Y035357D03*
X012681Y035367D03*
X012686Y035377D03*
X012521Y035332D03*
X012506Y034652D03*
X012506Y034647D03*
X012506Y034642D03*
X012506Y034637D03*
X012506Y034632D03*
X012506Y034627D03*
X012506Y034622D03*
X012506Y034617D03*
X012506Y034612D03*
X012506Y034607D03*
X012506Y034602D03*
X012506Y034597D03*
X012506Y034592D03*
X012506Y034587D03*
X012506Y034582D03*
X012506Y034577D03*
X012506Y034572D03*
X012506Y034567D03*
X012506Y034562D03*
X012506Y034557D03*
X012506Y034552D03*
X012506Y034547D03*
X012506Y034542D03*
X012506Y034537D03*
X012506Y034532D03*
X012506Y034527D03*
X012506Y034522D03*
X012506Y034517D03*
X012506Y034512D03*
X012506Y034507D03*
X012506Y034502D03*
X012506Y034497D03*
X012506Y034492D03*
X012506Y034487D03*
X012506Y034482D03*
X012506Y034477D03*
X012506Y034472D03*
X012506Y034467D03*
X012506Y034462D03*
X012506Y034457D03*
X012506Y034452D03*
X012506Y034447D03*
X012506Y034442D03*
X012506Y034437D03*
X012511Y034392D03*
X012511Y034387D03*
X012511Y034382D03*
X012511Y034377D03*
X012511Y034372D03*
X012511Y034367D03*
X012511Y034362D03*
X012511Y034357D03*
X012511Y034352D03*
X012511Y034347D03*
X012516Y034312D03*
X012516Y034307D03*
X012516Y034302D03*
X012516Y034297D03*
X012516Y034292D03*
X012516Y034287D03*
X012516Y034282D03*
X012521Y034252D03*
X012521Y034247D03*
X012521Y034242D03*
X012521Y034237D03*
X012521Y034232D03*
X012521Y034227D03*
X012526Y034207D03*
X012526Y034202D03*
X012526Y034197D03*
X012526Y034192D03*
X012526Y034187D03*
X012526Y034182D03*
X012531Y034162D03*
X012531Y034157D03*
X012531Y034152D03*
X012531Y034147D03*
X012531Y034142D03*
X012531Y034137D03*
X012536Y034117D03*
X012536Y034112D03*
X012536Y034107D03*
X012536Y034102D03*
X012541Y034082D03*
X012541Y034077D03*
X012541Y034072D03*
X012541Y034067D03*
X012541Y034062D03*
X012546Y034047D03*
X012546Y034042D03*
X012546Y034037D03*
X012546Y034032D03*
X012546Y034027D03*
X012551Y034012D03*
X012551Y034007D03*
X012551Y034002D03*
X012551Y033997D03*
X012556Y033982D03*
X012556Y033977D03*
X012556Y033972D03*
X012556Y033967D03*
X012556Y033962D03*
X012561Y033947D03*
X012561Y033942D03*
X012561Y033937D03*
X012561Y033932D03*
X012566Y033917D03*
X012566Y033912D03*
X012566Y033907D03*
X012566Y033902D03*
X012571Y033892D03*
X012571Y033887D03*
X012571Y033882D03*
X012571Y033877D03*
X012576Y033862D03*
X012576Y033857D03*
X012576Y033852D03*
X012576Y033847D03*
X012581Y033837D03*
X012581Y033832D03*
X012581Y033827D03*
X012581Y033822D03*
X012586Y033807D03*
X012586Y033802D03*
X012586Y033797D03*
X012591Y033782D03*
X012591Y033777D03*
X012591Y033772D03*
X012596Y033757D03*
X012596Y033752D03*
X012596Y033747D03*
X012601Y033732D03*
X012601Y033727D03*
X012601Y033722D03*
X012606Y033712D03*
X012606Y033707D03*
X012606Y033702D03*
X012606Y033697D03*
X012611Y033687D03*
X012611Y033682D03*
X012611Y033677D03*
X012611Y033672D03*
X012616Y033662D03*
X012616Y033657D03*
X012616Y033652D03*
X012621Y033642D03*
X012621Y033637D03*
X012621Y033632D03*
X012621Y033627D03*
X012626Y033617D03*
X012626Y033612D03*
X012626Y033607D03*
X012631Y033597D03*
X012631Y033592D03*
X012631Y033587D03*
X012631Y033582D03*
X012636Y033572D03*
X012636Y033567D03*
X012636Y033562D03*
X012641Y033552D03*
X012641Y033547D03*
X012641Y033542D03*
X012646Y033532D03*
X012646Y033527D03*
X012646Y033522D03*
X012651Y033512D03*
X012651Y033507D03*
X012651Y033502D03*
X012656Y033492D03*
X012656Y033487D03*
X012656Y033482D03*
X012656Y033477D03*
X012661Y033472D03*
X012661Y033467D03*
X012661Y033462D03*
X012661Y033457D03*
X012666Y033452D03*
X012666Y033447D03*
X012666Y033442D03*
X012666Y033437D03*
X012671Y033432D03*
X012671Y033427D03*
X012671Y033422D03*
X012671Y033417D03*
X012676Y033412D03*
X012676Y033407D03*
X012676Y033402D03*
X012681Y033392D03*
X012681Y033387D03*
X012681Y033382D03*
X012686Y033372D03*
X012686Y033367D03*
X012686Y033362D03*
X012691Y033352D03*
X012691Y033347D03*
X012691Y033342D03*
X012696Y033337D03*
X012696Y033332D03*
X012696Y033327D03*
X012696Y033322D03*
X012701Y033317D03*
X012701Y033312D03*
X012701Y033307D03*
X012706Y033297D03*
X012706Y033292D03*
X012706Y033287D03*
X012711Y033282D03*
X012711Y033277D03*
X012711Y033272D03*
X012711Y033267D03*
X012716Y033262D03*
X012716Y033257D03*
X012716Y033252D03*
X012721Y033247D03*
X012721Y033242D03*
X012721Y033237D03*
X012721Y033232D03*
X012726Y033227D03*
X012726Y033222D03*
X013111Y032957D03*
X013116Y032947D03*
X013121Y032937D03*
X013126Y032927D03*
X013126Y032922D03*
X013131Y032917D03*
X013131Y032912D03*
X013136Y032902D03*
X013136Y032897D03*
X013136Y032892D03*
X013141Y032887D03*
X013141Y032882D03*
X013141Y032877D03*
X013146Y032872D03*
X013146Y032867D03*
X013146Y032862D03*
X013146Y032857D03*
X013151Y032852D03*
X013151Y032847D03*
X013151Y032842D03*
X013156Y032832D03*
X013156Y032827D03*
X013156Y032822D03*
X013156Y032817D03*
X013161Y032812D03*
X012101Y033512D03*
X012101Y033527D03*
X012101Y033532D03*
X012101Y033537D03*
X012101Y033542D03*
X012101Y033547D03*
X012101Y033552D03*
X012101Y033557D03*
X012096Y033592D03*
X012096Y033597D03*
X012096Y033602D03*
X012096Y033607D03*
X012096Y033612D03*
X012096Y033617D03*
X012096Y033622D03*
X012096Y033627D03*
X012091Y033657D03*
X012091Y033662D03*
X012091Y033667D03*
X012091Y033672D03*
X012091Y033677D03*
X012091Y033682D03*
X012091Y033687D03*
X012091Y033692D03*
X012086Y033727D03*
X012086Y033732D03*
X012086Y033737D03*
X012086Y033742D03*
X012086Y033747D03*
X012086Y033752D03*
X012086Y033757D03*
X012081Y033792D03*
X012081Y033797D03*
X012081Y033802D03*
X012081Y033807D03*
X012081Y033812D03*
X012081Y033817D03*
X012081Y033822D03*
X012081Y033827D03*
X012076Y033862D03*
X012076Y033867D03*
X012076Y033872D03*
X012076Y033877D03*
X012076Y033882D03*
X012076Y033887D03*
X012076Y033892D03*
X012071Y033927D03*
X012071Y033932D03*
X012071Y033937D03*
X012071Y033942D03*
X012071Y033947D03*
X012071Y033952D03*
X012071Y033957D03*
X012066Y033992D03*
X012066Y033997D03*
X012066Y034002D03*
X012066Y034007D03*
X012066Y034012D03*
X012066Y034017D03*
X012066Y034022D03*
X012066Y034027D03*
X012061Y034057D03*
X012061Y034062D03*
X012061Y034067D03*
X012061Y034072D03*
X012061Y034077D03*
X012061Y034082D03*
X012061Y034087D03*
X012061Y034092D03*
X012056Y034127D03*
X012056Y034132D03*
X012056Y034137D03*
X012056Y034142D03*
X012056Y034147D03*
X012056Y034152D03*
X012056Y034157D03*
X012786Y034532D03*
X012786Y034537D03*
X012781Y034547D03*
X012781Y034552D03*
X012776Y034557D03*
X012776Y034562D03*
X012771Y034572D03*
X012771Y034577D03*
X012766Y034582D03*
X012766Y034587D03*
X012761Y034597D03*
X012761Y034602D03*
X012756Y034607D03*
X012756Y034612D03*
X012751Y034622D03*
X012751Y034627D03*
X012746Y034632D03*
X012746Y034637D03*
X012741Y034647D03*
X012741Y034652D03*
X012736Y034657D03*
X011036Y034477D03*
X011031Y034462D03*
X011031Y034457D03*
X011031Y034452D03*
X011031Y034447D03*
X011031Y034442D03*
X011026Y034427D03*
X011026Y034422D03*
X011026Y034417D03*
X011026Y034412D03*
X011026Y034407D03*
X011021Y034392D03*
X011021Y034387D03*
X011021Y034382D03*
X011021Y034377D03*
X011021Y034372D03*
X011016Y034357D03*
X011016Y034352D03*
X011016Y034347D03*
X011016Y034342D03*
X011016Y034337D03*
X011011Y034317D03*
X011011Y034312D03*
X011011Y034307D03*
X011011Y034302D03*
X011006Y034282D03*
X011006Y034277D03*
X011006Y034272D03*
X011006Y034267D03*
X011001Y034247D03*
X011001Y034242D03*
X011001Y034237D03*
X011001Y034232D03*
X010996Y034212D03*
X010996Y034207D03*
X010996Y034202D03*
X010996Y034197D03*
X010996Y034192D03*
X010991Y034177D03*
X010991Y034172D03*
X010991Y034167D03*
X010991Y034162D03*
X010991Y034157D03*
X010986Y034142D03*
X010986Y034137D03*
X010986Y034132D03*
X010986Y034127D03*
X010986Y034122D03*
X010981Y034107D03*
X010981Y034102D03*
X010981Y034097D03*
X010981Y034092D03*
X010981Y034087D03*
X010976Y034072D03*
X010976Y034067D03*
X010976Y034062D03*
X010976Y034057D03*
X010976Y034052D03*
X010971Y034037D03*
X010971Y034032D03*
X010971Y034027D03*
X010971Y034022D03*
X010971Y034017D03*
X010966Y033997D03*
X010966Y033992D03*
X010966Y033987D03*
X010966Y033982D03*
X010961Y033962D03*
X010961Y033957D03*
X010961Y033952D03*
X010961Y033947D03*
X010956Y033927D03*
X010956Y033922D03*
X010956Y033917D03*
X010956Y033912D03*
X010951Y033892D03*
X010951Y033887D03*
X010951Y033882D03*
X010951Y033877D03*
X010951Y033872D03*
X010946Y033857D03*
X010946Y033852D03*
X010946Y033847D03*
X010946Y033842D03*
X010946Y033837D03*
X010941Y033822D03*
X010941Y033817D03*
X010941Y033812D03*
X010941Y033807D03*
X010941Y033802D03*
X010936Y033787D03*
X010936Y033782D03*
X010936Y033777D03*
X010936Y033772D03*
X010936Y033767D03*
X010931Y033752D03*
X010931Y033747D03*
X010931Y033742D03*
X010931Y033737D03*
X010931Y033732D03*
X010926Y033717D03*
X010926Y033712D03*
X010926Y033707D03*
X010926Y033702D03*
X010926Y033697D03*
X010921Y033677D03*
X010921Y033672D03*
X010921Y033667D03*
X010921Y033662D03*
X010916Y033642D03*
X010916Y033637D03*
X010916Y033632D03*
X010916Y033627D03*
X010911Y033607D03*
X010911Y033602D03*
X010911Y033597D03*
X010911Y033592D03*
X010906Y033572D03*
X010906Y033567D03*
X010906Y033562D03*
X010906Y033557D03*
X010906Y033552D03*
X010901Y033537D03*
X010901Y033532D03*
X010901Y033527D03*
X010901Y033522D03*
X010901Y033517D03*
X010896Y033502D03*
X010896Y033497D03*
X010896Y033492D03*
X010896Y033487D03*
X010896Y033482D03*
X010891Y033467D03*
X010891Y033462D03*
X010656Y033182D03*
X010661Y033167D03*
X010661Y033162D03*
X010661Y033157D03*
X010661Y033152D03*
X010666Y033137D03*
X010666Y033132D03*
X010666Y033127D03*
X010666Y033122D03*
X010671Y033107D03*
X010671Y033102D03*
X010671Y033097D03*
X010671Y033092D03*
X010676Y033077D03*
X010676Y033072D03*
X010676Y033067D03*
X010676Y033062D03*
X010681Y033052D03*
X010681Y033047D03*
X010681Y033042D03*
X010686Y033032D03*
X010686Y033027D03*
X010686Y033022D03*
X010686Y033017D03*
X010691Y033012D03*
X010691Y033007D03*
X010691Y033002D03*
X010691Y032997D03*
X010696Y032992D03*
X010696Y032987D03*
X010696Y032982D03*
X010701Y032977D03*
X010701Y032972D03*
X010701Y032967D03*
X010706Y032957D03*
X010706Y032952D03*
X010711Y032942D03*
X010711Y032937D03*
X010716Y032927D03*
X010716Y032922D03*
X010721Y032912D03*
X010726Y032902D03*
X010726Y032897D03*
X010731Y032892D03*
X010731Y032887D03*
X010736Y032877D03*
X010741Y032867D03*
X010746Y032857D03*
X010751Y032847D03*
X010756Y032837D03*
X010761Y032827D03*
X011041Y032507D03*
X011166Y032662D03*
X011171Y032672D03*
X011176Y032682D03*
X011186Y032702D03*
X011191Y032712D03*
X011196Y032722D03*
X011201Y032732D03*
X011206Y032742D03*
X011206Y032747D03*
X011211Y032752D03*
X011211Y032757D03*
X011216Y032767D03*
X011216Y032772D03*
X011221Y032782D03*
X011221Y032787D03*
X011226Y032792D03*
X011226Y032797D03*
X011226Y032802D03*
X011231Y032807D03*
X011231Y032812D03*
X011231Y032817D03*
X011236Y032822D03*
X011236Y032827D03*
X011236Y032832D03*
X011241Y032837D03*
X011241Y032842D03*
X011241Y032847D03*
X011246Y032857D03*
X011246Y032862D03*
X011246Y032867D03*
X011251Y032872D03*
X011251Y032877D03*
X011251Y032882D03*
X011251Y032887D03*
X011256Y032892D03*
X011256Y032897D03*
X011256Y032902D03*
X011261Y032907D03*
X011261Y032912D03*
X011261Y032917D03*
X011261Y032922D03*
X011266Y032927D03*
X011266Y032932D03*
X011266Y032937D03*
X011266Y032942D03*
X011271Y032947D03*
X011271Y032952D03*
X011271Y032957D03*
X011271Y032962D03*
X011276Y032967D03*
X011276Y032972D03*
X011276Y032977D03*
X009456Y034262D03*
X009456Y034267D03*
X009456Y034272D03*
X009456Y034277D03*
X009461Y034287D03*
X009461Y034292D03*
X009461Y034297D03*
X009461Y034302D03*
X009466Y034312D03*
X009466Y034317D03*
X009466Y034322D03*
X009466Y034327D03*
X009471Y034342D03*
X009471Y034347D03*
X009471Y034352D03*
X009471Y034357D03*
X009476Y034367D03*
X009476Y034372D03*
X009476Y034377D03*
X009476Y034382D03*
X009476Y034387D03*
X009481Y034402D03*
X009481Y034407D03*
X009481Y034412D03*
X009481Y034417D03*
X009486Y034437D03*
X009486Y034442D03*
X009486Y034447D03*
X009486Y034452D03*
X009491Y034472D03*
X009491Y034477D03*
X009491Y034482D03*
X009491Y034487D03*
X009491Y034492D03*
X009491Y034497D03*
X009496Y034517D03*
X009496Y034522D03*
X009496Y034527D03*
X009496Y034532D03*
X009496Y034537D03*
X009501Y034562D03*
X009501Y034567D03*
X009501Y034572D03*
X009501Y034577D03*
X009501Y034582D03*
X009506Y034612D03*
X009506Y034617D03*
X009506Y034622D03*
X009506Y034627D03*
X009506Y034632D03*
X009506Y034637D03*
X009506Y034642D03*
X009511Y034672D03*
X009511Y034677D03*
X009511Y034682D03*
X009511Y034687D03*
X009511Y034692D03*
X009511Y034697D03*
X009511Y034702D03*
X009516Y034742D03*
X009516Y034747D03*
X009516Y034752D03*
X009516Y034757D03*
X009516Y034762D03*
X009516Y034767D03*
X009516Y034772D03*
X009516Y034777D03*
X009516Y034782D03*
X009521Y034827D03*
X009521Y034832D03*
X009521Y034837D03*
X009521Y034842D03*
X009521Y034847D03*
X009521Y034852D03*
X009521Y034857D03*
X009521Y034862D03*
X009521Y034867D03*
X009521Y034872D03*
X009521Y034877D03*
X009526Y034937D03*
X009526Y034942D03*
X009526Y034947D03*
X009526Y034952D03*
X009526Y034957D03*
X009526Y034962D03*
X009526Y034967D03*
X009526Y034972D03*
X009526Y034977D03*
X009526Y034982D03*
X009526Y034987D03*
X009526Y034992D03*
X009526Y034997D03*
X009531Y035067D03*
X009531Y035072D03*
X009531Y035077D03*
X009531Y035082D03*
X009531Y035087D03*
X009531Y035092D03*
X009531Y035097D03*
X009531Y035102D03*
X009531Y035107D03*
X009531Y035112D03*
X009531Y035117D03*
X009531Y035122D03*
X009531Y035127D03*
X009531Y035132D03*
X009531Y035137D03*
X009531Y035142D03*
X009536Y035212D03*
X009536Y035217D03*
X009536Y035222D03*
X009536Y035227D03*
X009536Y035232D03*
X009536Y035237D03*
X009536Y035242D03*
X009536Y035247D03*
X009536Y035252D03*
X009536Y035257D03*
X009536Y035262D03*
X009536Y035267D03*
X009536Y035272D03*
X009536Y035277D03*
X009536Y035282D03*
X009536Y035287D03*
X009541Y035357D03*
X009541Y035362D03*
X009541Y035367D03*
X009541Y035372D03*
X009541Y035377D03*
X009541Y035382D03*
X009541Y035387D03*
X009541Y035392D03*
X009541Y035397D03*
X009541Y035402D03*
X009541Y035407D03*
X009541Y035412D03*
X009546Y035467D03*
X009546Y035472D03*
X009546Y035477D03*
X009546Y035482D03*
X009546Y035487D03*
X009546Y035492D03*
X009546Y035497D03*
X009546Y035502D03*
X009546Y035507D03*
X009546Y035512D03*
X009551Y035547D03*
X009551Y035552D03*
X009551Y035557D03*
X009551Y035562D03*
X009551Y035567D03*
X009551Y035572D03*
X009551Y035577D03*
X009551Y035582D03*
X009551Y035587D03*
X009556Y035627D03*
X009556Y035632D03*
X009556Y035637D03*
X009556Y035642D03*
X009556Y035647D03*
X009556Y035652D03*
X009561Y035682D03*
X009561Y035687D03*
X009561Y035692D03*
X009561Y035697D03*
X009561Y035702D03*
X009561Y035707D03*
X009566Y035737D03*
X009566Y035742D03*
X009566Y035747D03*
X009566Y035752D03*
X009566Y035757D03*
X009566Y035762D03*
X009571Y035782D03*
X009571Y035787D03*
X009571Y035792D03*
X009571Y035797D03*
X009571Y035802D03*
X009576Y035822D03*
X009576Y035827D03*
X009576Y035832D03*
X009576Y035837D03*
X009576Y035842D03*
X009581Y035862D03*
X009581Y035867D03*
X009581Y035872D03*
X009581Y035877D03*
X009581Y035882D03*
X009586Y035897D03*
X009586Y035902D03*
X009586Y035907D03*
X009586Y035912D03*
X009586Y035917D03*
X009591Y035932D03*
X009591Y035937D03*
X009591Y035942D03*
X009591Y035947D03*
X009596Y035962D03*
X009596Y035967D03*
X009596Y035972D03*
X009596Y035977D03*
X009601Y035992D03*
X009601Y035997D03*
X009601Y036002D03*
X009601Y036007D03*
X009606Y036017D03*
X009606Y036022D03*
X009606Y036027D03*
X009606Y036032D03*
X009611Y036042D03*
X009611Y036047D03*
X009611Y036052D03*
X009611Y036057D03*
X009616Y036067D03*
X009616Y036072D03*
X009616Y036077D03*
X009621Y036087D03*
X009621Y036092D03*
X009621Y036097D03*
X009621Y036102D03*
X009626Y036107D03*
X009626Y036112D03*
X009626Y036117D03*
X009626Y036122D03*
X009631Y036132D03*
X009631Y036137D03*
X009631Y036142D03*
X009636Y036147D03*
X009636Y036152D03*
X009636Y036157D03*
X009636Y036162D03*
X009641Y036167D03*
X009641Y036172D03*
X009641Y036177D03*
X009641Y036182D03*
X009646Y036187D03*
X009646Y036192D03*
X009646Y036197D03*
X009651Y036202D03*
X009651Y036207D03*
X009651Y036212D03*
X009651Y036217D03*
X009656Y036222D03*
X009656Y036227D03*
X009656Y036232D03*
X009661Y036237D03*
X009661Y036242D03*
X009661Y036247D03*
X009666Y036252D03*
X009666Y036257D03*
X009666Y036262D03*
X009671Y036267D03*
X009671Y036272D03*
X009671Y036277D03*
X009676Y036282D03*
X009676Y036287D03*
X009676Y036292D03*
X009681Y036297D03*
X009681Y036302D03*
X009681Y036307D03*
X009686Y036312D03*
X009686Y036317D03*
X009686Y036322D03*
X009691Y036327D03*
X009691Y036332D03*
X009696Y036342D03*
X009696Y036347D03*
X009701Y036352D03*
X009701Y036357D03*
X009706Y036367D03*
X009706Y036372D03*
X009711Y036377D03*
X009711Y036382D03*
X009716Y036392D03*
X009716Y036397D03*
X009721Y036402D03*
X009721Y036407D03*
X009726Y036417D03*
X009731Y036427D03*
X009736Y036437D03*
X009741Y036447D03*
X009746Y036457D03*
X009771Y036507D03*
X009776Y036517D03*
X009781Y036527D03*
X009451Y034252D03*
X009451Y034247D03*
X009451Y034242D03*
X009451Y034237D03*
X009446Y034227D03*
X009446Y034222D03*
X009446Y034217D03*
X009441Y034207D03*
X009441Y034202D03*
X009441Y034197D03*
X009436Y034187D03*
X009436Y034182D03*
X009436Y034177D03*
X009431Y034167D03*
X009431Y034162D03*
X009431Y034157D03*
X009426Y034147D03*
X009426Y034142D03*
X009426Y034137D03*
X009421Y034132D03*
X009421Y034127D03*
X009421Y034122D03*
X009416Y034112D03*
X009416Y034107D03*
X009416Y034102D03*
X009411Y034097D03*
X009411Y034092D03*
X009411Y034087D03*
X009406Y034082D03*
X009406Y034077D03*
X009406Y034072D03*
X009401Y034067D03*
X009401Y034062D03*
X009401Y034057D03*
X009396Y034052D03*
X009396Y034047D03*
X009396Y034042D03*
X009391Y034037D03*
X009391Y034032D03*
X009391Y034027D03*
X009386Y034022D03*
X009386Y034017D03*
X009386Y034012D03*
X009381Y034007D03*
X009381Y034002D03*
X009376Y033992D03*
X009376Y033987D03*
X009371Y033977D03*
X009366Y033967D03*
X009366Y033962D03*
X009361Y033952D03*
X009356Y033942D03*
X009356Y033937D03*
X009351Y033932D03*
X009351Y033927D03*
X009346Y033917D03*
X009341Y033907D03*
X009336Y033897D03*
X009331Y033887D03*
X013826Y037432D03*
X013821Y037442D03*
X013816Y037452D03*
X013816Y037457D03*
X013816Y037462D03*
X013811Y037467D03*
X013811Y037472D03*
X013811Y037477D03*
X013811Y037482D03*
X013811Y037532D03*
X013811Y037537D03*
X013811Y037542D03*
X013816Y037552D03*
X013816Y037557D03*
X013821Y037567D03*
X014046Y037572D03*
X014051Y037562D03*
X014051Y037557D03*
X014056Y037547D03*
X014056Y037542D03*
X014056Y037537D03*
X014061Y037522D03*
X014061Y037517D03*
X014061Y037512D03*
X014061Y037507D03*
X014061Y037502D03*
X014061Y037497D03*
X014061Y037492D03*
X014056Y037472D03*
X014056Y037467D03*
X014056Y037462D03*
X014051Y037457D03*
X014051Y037452D03*
X014046Y037442D03*
X014041Y037432D03*
X014131Y037402D03*
X014131Y037397D03*
X014126Y037387D03*
X014121Y037377D03*
X014136Y037407D03*
X014136Y037412D03*
X014136Y037417D03*
X014141Y037422D03*
X014141Y037427D03*
X014146Y037437D03*
X014146Y037442D03*
X014146Y037447D03*
X014151Y037452D03*
X014151Y037457D03*
X014151Y037462D03*
X014151Y037467D03*
X014156Y037477D03*
X014156Y037482D03*
X014156Y037487D03*
X014156Y037492D03*
X014161Y037512D03*
X014161Y037517D03*
X014161Y037522D03*
X014161Y037527D03*
X014161Y037532D03*
X014161Y037537D03*
X014161Y037542D03*
X014161Y037547D03*
X014161Y037552D03*
X014161Y037557D03*
X014161Y037562D03*
X014161Y037567D03*
X014161Y037572D03*
X014161Y037577D03*
X014161Y037582D03*
X014161Y037587D03*
X014156Y037602D03*
X014156Y037607D03*
X014156Y037612D03*
X014156Y037617D03*
X014156Y037622D03*
X014151Y037632D03*
X014151Y037637D03*
X014151Y037642D03*
X014146Y037652D03*
X014146Y037657D03*
X014146Y037662D03*
X014141Y037667D03*
X014141Y037672D03*
X014136Y037682D03*
X014136Y037687D03*
X014131Y037697D03*
X014126Y037707D03*
X014121Y037717D03*
X014116Y037727D03*
X013881Y037937D03*
X013876Y037942D03*
X013876Y037947D03*
X013871Y037957D03*
X013841Y038022D03*
X013836Y038032D03*
X013831Y038042D03*
X013801Y038097D03*
X014026Y037217D03*
X014026Y037212D03*
X014026Y037207D03*
X014026Y037202D03*
X014026Y037197D03*
X014026Y037192D03*
X014026Y037187D03*
X014026Y037182D03*
X014026Y037177D03*
X014026Y037172D03*
X014026Y037167D03*
X014026Y037162D03*
X014026Y037157D03*
X014026Y037152D03*
X014026Y037147D03*
X014026Y037142D03*
X014026Y037137D03*
X014026Y037132D03*
X014026Y037127D03*
X014026Y037122D03*
X014026Y037117D03*
X014021Y037072D03*
X014021Y037067D03*
X014021Y037062D03*
X014021Y037057D03*
X014021Y037052D03*
X014021Y037047D03*
X014021Y037042D03*
X014021Y037037D03*
X014016Y037012D03*
X014016Y037007D03*
X014016Y037002D03*
X014016Y036997D03*
X014016Y036992D03*
X014016Y036987D03*
D12*
X014013Y037397D03*
X014018Y037402D03*
X014023Y037407D03*
X013853Y037397D03*
X013848Y037402D03*
X013853Y037612D03*
X014018Y037612D03*
X014058Y037807D03*
X014053Y037812D03*
X014048Y037817D03*
X014043Y037822D03*
X014128Y037922D03*
X013543Y037812D03*
X013438Y037472D03*
X013438Y037467D03*
X013438Y037462D03*
X013443Y037452D03*
X013443Y037447D03*
X013443Y037442D03*
X013443Y037437D03*
X013528Y037302D03*
X013533Y037297D03*
X013538Y037292D03*
X013543Y037287D03*
X013548Y037282D03*
X013553Y037277D03*
X013558Y037272D03*
X013563Y037267D03*
X013223Y037382D03*
X013218Y037377D03*
X013213Y037372D03*
X013208Y037367D03*
X013203Y037362D03*
X012898Y037682D03*
X012903Y037687D03*
X012908Y037692D03*
X012743Y037682D03*
X012738Y037687D03*
X012733Y037692D03*
X012738Y037897D03*
X012743Y037902D03*
X012898Y037902D03*
X012903Y037897D03*
X012618Y038062D03*
X012598Y038042D03*
X012568Y038012D03*
X012328Y038247D03*
X012323Y038242D03*
X012333Y038252D03*
X012338Y038257D03*
X012343Y038262D03*
X012348Y038267D03*
X012353Y038272D03*
X012358Y038277D03*
X012363Y038282D03*
X012368Y038287D03*
X012373Y038292D03*
X012378Y038297D03*
X012383Y038302D03*
X012388Y038307D03*
X012393Y038312D03*
X012428Y038342D03*
X012433Y038347D03*
X012288Y038207D03*
X012283Y038202D03*
X012278Y038197D03*
X012213Y038127D03*
X012208Y038122D03*
X012578Y037392D03*
X012583Y037387D03*
X012588Y037382D03*
X012593Y037377D03*
X012598Y037372D03*
X012603Y037367D03*
X012608Y037362D03*
X012613Y037357D03*
X013238Y038017D03*
X013233Y038022D03*
X013228Y038027D03*
X013223Y038032D03*
X013218Y038037D03*
X013213Y038042D03*
X013208Y038047D03*
X013203Y038052D03*
X013198Y038057D03*
X013413Y038307D03*
X013238Y038462D03*
X013173Y038502D03*
X011318Y038737D03*
X011283Y038707D03*
X011278Y038702D03*
X011273Y038697D03*
X011268Y038692D03*
X011263Y038687D03*
X011258Y038682D03*
X011253Y038677D03*
X011248Y038672D03*
X011243Y038667D03*
X011238Y038662D03*
X011233Y038657D03*
X011228Y038652D03*
X011223Y038647D03*
X011218Y038642D03*
X011213Y038637D03*
X011208Y036547D03*
X011203Y036542D03*
X011198Y036537D03*
X011193Y036532D03*
X011188Y036527D03*
X011183Y036522D03*
X011178Y036517D03*
X011173Y036512D03*
X011193Y036162D03*
X011188Y036157D03*
X011183Y036152D03*
X011178Y036147D03*
X011173Y036142D03*
X011818Y035912D03*
X011818Y035907D03*
X011878Y035767D03*
X011878Y035762D03*
X012043Y035762D03*
X012043Y035757D03*
X012043Y035752D03*
X012303Y035752D03*
X012453Y035707D03*
X012503Y035382D03*
X012503Y035377D03*
X012508Y035372D03*
X012508Y035367D03*
X012828Y035577D03*
X012833Y035582D03*
X012838Y035587D03*
X012843Y035592D03*
X012848Y035597D03*
X012853Y035602D03*
X012858Y035607D03*
X012863Y035612D03*
X012868Y035617D03*
X012873Y035622D03*
X012908Y034957D03*
X012913Y034952D03*
X012918Y034947D03*
X012923Y034942D03*
X012928Y034937D03*
X012933Y034932D03*
X012963Y034907D03*
X012968Y034902D03*
X012973Y034897D03*
X012978Y034892D03*
X012983Y034887D03*
X012988Y034882D03*
X012993Y034877D03*
X012998Y034872D03*
X013003Y034867D03*
X013008Y034862D03*
X013013Y034857D03*
X013018Y034852D03*
X013048Y034827D03*
X013053Y034822D03*
X013058Y034817D03*
X013063Y034812D03*
X013068Y034807D03*
X013073Y034802D03*
X013078Y034797D03*
X013083Y034792D03*
X013088Y034787D03*
X013093Y034782D03*
X013098Y034777D03*
X013103Y034772D03*
X013133Y034747D03*
X013138Y034742D03*
X013143Y034737D03*
X013148Y034732D03*
X013153Y034727D03*
X013158Y034722D03*
X013163Y034717D03*
X013498Y035927D03*
X013503Y035932D03*
X013508Y035937D03*
X013513Y035942D03*
X013518Y035947D03*
X013523Y035952D03*
X013528Y035957D03*
X013533Y035962D03*
X013538Y035967D03*
X013548Y035972D03*
X013553Y035977D03*
X013558Y035982D03*
X013563Y035987D03*
X013593Y036022D03*
X013598Y036027D03*
X013603Y036032D03*
X013608Y036037D03*
X013613Y036042D03*
X012143Y036072D03*
X012143Y036077D03*
X011928Y036022D03*
X011928Y036017D03*
X011168Y035397D03*
X011858Y034892D03*
X011233Y034312D03*
X011228Y034317D03*
X011223Y034322D03*
X011193Y034357D03*
X011188Y034362D03*
X011158Y034397D03*
X011153Y034402D03*
X011148Y034407D03*
X011118Y034442D03*
X011113Y034447D03*
X011048Y034517D03*
X011263Y034277D03*
X011268Y034272D03*
X010868Y032677D03*
X010873Y032672D03*
X010878Y032667D03*
X010883Y032662D03*
X010888Y032657D03*
X010893Y032652D03*
X010898Y032647D03*
X010903Y032642D03*
X010908Y032637D03*
X010913Y032632D03*
X010918Y032627D03*
X010923Y032622D03*
X010928Y032617D03*
X010933Y032612D03*
X010938Y032607D03*
X010943Y032602D03*
X010948Y032597D03*
X010953Y032592D03*
X010958Y032587D03*
X010963Y032582D03*
X010998Y032552D03*
X011043Y032512D03*
X011073Y032542D03*
X011078Y032547D03*
X011083Y032552D03*
X011088Y032557D03*
X011093Y032562D03*
X012738Y033212D03*
X013038Y033047D03*
X013043Y033042D03*
X013048Y033037D03*
X013053Y033032D03*
X013058Y033027D03*
X013063Y033022D03*
X013068Y033017D03*
X009928Y036737D03*
X009933Y036742D03*
X009963Y036777D03*
X009968Y036782D03*
X009973Y036787D03*
X009978Y036792D03*
X009983Y036797D03*
X009988Y036802D03*
X009993Y036807D03*
X010028Y036837D03*
X010033Y036842D03*
X010038Y036847D03*
D13*
X011053Y036417D03*
X011068Y036427D03*
X011073Y036432D03*
X011083Y036437D03*
X011088Y036442D03*
X011093Y036447D03*
X011108Y036457D03*
X011113Y036462D03*
X011323Y036612D03*
X011323Y036617D03*
X011368Y036697D03*
X011358Y036702D03*
X011353Y036707D03*
X011348Y036712D03*
X011338Y036717D03*
X011333Y036722D03*
X011318Y036732D03*
X011313Y036737D03*
X011303Y036742D03*
X011298Y036747D03*
X011283Y036757D03*
X011268Y036767D03*
X011148Y036122D03*
X011143Y036117D03*
X011803Y035947D03*
X011808Y035942D03*
X011808Y035937D03*
X011933Y035992D03*
X011933Y035997D03*
X012098Y035892D03*
X012138Y035862D03*
X012148Y035857D03*
X012153Y035852D03*
X012158Y035847D03*
X012168Y035842D03*
X012043Y035772D03*
X012298Y035757D03*
X012143Y036062D03*
X012493Y035412D03*
X012493Y035407D03*
X012498Y035397D03*
X011723Y034672D03*
X011433Y035497D03*
X011053Y034507D03*
X011043Y032517D03*
X012993Y033082D03*
X012998Y033077D03*
X013008Y033072D03*
X013013Y033067D03*
X013383Y035837D03*
X013388Y035842D03*
X013398Y035847D03*
X013403Y035852D03*
X013408Y035857D03*
X013418Y035862D03*
X013423Y035867D03*
X013443Y035882D03*
X013588Y036347D03*
X013603Y037237D03*
X013588Y037247D03*
X013583Y037252D03*
X013453Y037402D03*
X013453Y037407D03*
X013448Y037417D03*
X013448Y037422D03*
X013178Y037342D03*
X013173Y037337D03*
X013163Y037332D03*
X013158Y037327D03*
X013143Y037317D03*
X012893Y037677D03*
X012748Y037677D03*
X012748Y037907D03*
X012893Y037907D03*
X012648Y038087D03*
X012643Y038082D03*
X012768Y038312D03*
X012628Y038502D03*
X012633Y038507D03*
X012638Y038512D03*
X012648Y038517D03*
X012653Y038522D03*
X012668Y038532D03*
X012683Y038542D03*
X012688Y038547D03*
X012703Y038557D03*
X012718Y038567D03*
X012733Y038577D03*
X012748Y038587D03*
X012763Y038597D03*
X012618Y038497D03*
X012613Y038492D03*
X012598Y038482D03*
X012593Y038477D03*
X012578Y038467D03*
X012573Y038462D03*
X012553Y038447D03*
X012548Y038442D03*
X012528Y038427D03*
X012268Y038182D03*
X013153Y038092D03*
X013168Y038082D03*
X013298Y038362D03*
X013423Y038522D03*
X013418Y038527D03*
X013413Y038532D03*
X013403Y038537D03*
X013398Y038542D03*
X013383Y038552D03*
X013378Y038557D03*
X013368Y038562D03*
X013363Y038567D03*
X013348Y038577D03*
X013343Y038582D03*
X013333Y038587D03*
X013328Y038592D03*
X013323Y038597D03*
X013313Y038602D03*
X013308Y038607D03*
X013293Y038617D03*
X013288Y038622D03*
X013278Y038627D03*
X013133Y038732D03*
X013128Y038737D03*
X013113Y038747D03*
X013183Y038842D03*
X013228Y038877D03*
X013233Y038882D03*
X013433Y038517D03*
X013438Y038512D03*
X013453Y038502D03*
X013458Y038497D03*
X013468Y038492D03*
X013473Y038487D03*
X013478Y038482D03*
X013488Y038477D03*
X013493Y038472D03*
X013508Y038462D03*
X013513Y038457D03*
X013523Y038452D03*
X013528Y038447D03*
X013593Y037852D03*
X013588Y037847D03*
X013573Y037837D03*
X013863Y037622D03*
X014003Y037622D03*
X014018Y037842D03*
X014013Y037847D03*
X014003Y037852D03*
X013998Y037387D03*
X013933Y037347D03*
X013868Y037387D03*
X012653Y037327D03*
X012643Y037332D03*
X012638Y037337D03*
X011438Y038827D03*
X011423Y038817D03*
X011408Y038807D03*
X011403Y038802D03*
X011393Y038797D03*
X011388Y038792D03*
X011373Y038782D03*
X011368Y038777D03*
X011353Y038767D03*
X011348Y038762D03*
X012713Y039152D03*
D14*
X012948Y038712D03*
X012958Y038717D03*
X012933Y038702D03*
X012923Y038697D03*
X012908Y038687D03*
X012898Y038682D03*
X012888Y038677D03*
X012883Y038672D03*
X012873Y038667D03*
X012858Y038657D03*
X012848Y038652D03*
X012833Y038642D03*
X012818Y038632D03*
X012808Y038627D03*
X012793Y038617D03*
X012778Y038607D03*
X013158Y038827D03*
X013263Y038902D03*
X013273Y038907D03*
X013253Y038642D03*
X013263Y038637D03*
X013403Y038312D03*
X013323Y038122D03*
X013138Y038102D03*
X013128Y038107D03*
X012688Y038112D03*
X012678Y038107D03*
X012263Y038172D03*
X012258Y038167D03*
X012683Y037307D03*
X013118Y037302D03*
X013128Y037307D03*
X013458Y037382D03*
X013458Y037387D03*
X013873Y037627D03*
X013933Y037662D03*
X013993Y037627D03*
X013988Y037862D03*
X013618Y037867D03*
X013608Y037862D03*
X014008Y037242D03*
X013328Y035802D03*
X013318Y035797D03*
X013313Y035792D03*
X013303Y035787D03*
X012483Y035442D03*
X012483Y035437D03*
X012488Y035427D03*
X012288Y035767D03*
X011933Y035977D03*
X011933Y035982D03*
X011933Y035987D03*
X011798Y035957D03*
X011793Y035967D03*
X011873Y035802D03*
X011873Y035797D03*
X011873Y035792D03*
X011328Y036597D03*
X011223Y036797D03*
X011148Y036842D03*
X011133Y036852D03*
X011123Y036857D03*
X010978Y036367D03*
X010963Y036357D03*
X010953Y036352D03*
X010938Y036342D03*
X010928Y036337D03*
X010913Y036327D03*
X010903Y036322D03*
X011108Y036097D03*
X011118Y036102D03*
X010108Y036902D03*
X010063Y036927D03*
X010028Y036947D03*
X009993Y036967D03*
X009983Y036972D03*
X009948Y036992D03*
X009913Y037012D03*
X009903Y037017D03*
X011453Y038837D03*
X011468Y038847D03*
X011478Y038852D03*
X011483Y038857D03*
X011493Y038862D03*
X011503Y038867D03*
X011528Y038882D03*
X012833Y034957D03*
X012828Y034952D03*
X012818Y034947D03*
X012808Y034942D03*
X012803Y034937D03*
X012793Y034932D03*
X012783Y034927D03*
X012778Y034922D03*
X012768Y034917D03*
X012758Y034912D03*
X012753Y034907D03*
X012743Y034902D03*
X011723Y034677D03*
X012083Y033502D03*
X011333Y033257D03*
X010908Y033447D03*
X011043Y032522D03*
X009338Y033872D03*
X012953Y033107D03*
X012963Y033102D03*
D15*
X012896Y033137D03*
X012886Y033142D03*
X012876Y033147D03*
X012701Y033167D03*
X012691Y033162D03*
X012681Y033157D03*
X012671Y033152D03*
X012076Y033497D03*
X012026Y034162D03*
X011061Y034487D03*
X010496Y033287D03*
X010506Y033282D03*
X010551Y033262D03*
X010451Y033307D03*
X010441Y033312D03*
X010431Y033317D03*
X010421Y033322D03*
X010411Y033327D03*
X010376Y033342D03*
X010366Y033347D03*
X010356Y033352D03*
X010346Y033357D03*
X010336Y033362D03*
X010326Y033367D03*
X010316Y033372D03*
X010306Y033377D03*
X010296Y033382D03*
X010286Y033387D03*
X010276Y033392D03*
X010266Y033397D03*
X010256Y033402D03*
X010246Y033407D03*
X010236Y033412D03*
X010226Y033417D03*
X010216Y033422D03*
X010206Y033427D03*
X010196Y033432D03*
X009351Y033862D03*
X011041Y032527D03*
X012276Y035777D03*
X012106Y035877D03*
X011786Y035982D03*
X011781Y035992D03*
X011201Y036817D03*
X011016Y036912D03*
X011006Y036917D03*
X010996Y036922D03*
X010391Y036757D03*
X010381Y036762D03*
X010356Y036772D03*
X010346Y036777D03*
X010336Y036782D03*
X010326Y036787D03*
X010316Y036792D03*
X010306Y036797D03*
X010296Y036802D03*
X010111Y036897D03*
X010586Y036162D03*
X010596Y036167D03*
X010606Y036172D03*
X010641Y036187D03*
X010651Y036192D03*
X010661Y036197D03*
X010671Y036202D03*
X010681Y036207D03*
X010691Y036212D03*
X011081Y036082D03*
X012246Y038142D03*
X012821Y037947D03*
X013091Y038127D03*
X013316Y038127D03*
X013396Y038317D03*
X013611Y038387D03*
X013636Y038357D03*
X013221Y038467D03*
X013136Y038812D03*
X013311Y038927D03*
X013321Y038932D03*
X013646Y037882D03*
X013951Y037882D03*
X013946Y037212D03*
X013651Y037212D03*
X013086Y037287D03*
X013031Y036467D03*
X013216Y035742D03*
X013206Y035737D03*
X011616Y038927D03*
X011626Y038932D03*
X011636Y038937D03*
X011606Y038922D03*
D16*
X011671Y038952D03*
X011681Y038957D03*
X011696Y038962D03*
X011706Y038967D03*
X012781Y038302D03*
X013096Y038277D03*
X013316Y038352D03*
X013581Y038422D03*
X013586Y038417D03*
X013591Y038412D03*
X013346Y038942D03*
X013121Y038802D03*
X013011Y038742D03*
X013076Y037282D03*
X013936Y037207D03*
X013171Y035722D03*
X012481Y035692D03*
X012266Y035787D03*
X012111Y035872D03*
X011421Y035487D03*
X011056Y036072D03*
X010461Y036107D03*
X010436Y036097D03*
X010426Y036092D03*
X010411Y036087D03*
X010401Y036082D03*
X010391Y036077D03*
X010376Y036072D03*
X010366Y036067D03*
X010351Y036062D03*
X010341Y036057D03*
X010331Y036052D03*
X010471Y036722D03*
X010461Y036727D03*
X010446Y036732D03*
X010426Y037082D03*
X010451Y037092D03*
X010926Y036952D03*
X010951Y036942D03*
X011296Y036627D03*
X012871Y034972D03*
X012841Y033162D03*
X012601Y033122D03*
X012591Y033117D03*
X012576Y033112D03*
X011261Y033292D03*
X011251Y033297D03*
X011236Y033302D03*
X011226Y033307D03*
X011201Y033317D03*
X011191Y033322D03*
X011166Y033332D03*
X011156Y033337D03*
X011131Y033347D03*
X011121Y033352D03*
X011106Y033357D03*
X011096Y033362D03*
X011071Y033372D03*
X011061Y033377D03*
X011036Y033387D03*
X011026Y033392D03*
X011001Y033402D03*
X010991Y033407D03*
X010976Y033412D03*
X010966Y033417D03*
X010941Y033427D03*
X010931Y033432D03*
X010676Y033207D03*
X010666Y033212D03*
X010656Y033217D03*
X010631Y033227D03*
X010596Y033242D03*
X011041Y032532D03*
D17*
X011041Y032537D03*
X010871Y033132D03*
X010856Y033137D03*
X010846Y033142D03*
X010831Y033147D03*
X010816Y033152D03*
X010791Y033162D03*
X011336Y033262D03*
X012511Y033087D03*
X012526Y033092D03*
X012766Y033192D03*
X012871Y034967D03*
X013131Y035707D03*
X013146Y035712D03*
X012256Y035797D03*
X011041Y036067D03*
X010536Y036697D03*
X010521Y036702D03*
X010476Y037102D03*
X010491Y037107D03*
X010886Y036967D03*
X010901Y036962D03*
X011006Y037242D03*
X011746Y038982D03*
X011761Y038987D03*
X012756Y038142D03*
X012906Y038187D03*
X012821Y037942D03*
X012821Y037642D03*
X013576Y038427D03*
X013571Y038432D03*
X013566Y038437D03*
X013191Y038677D03*
X013626Y039032D03*
X013926Y037892D03*
D18*
X014026Y037837D03*
X014031Y037832D03*
X014036Y037827D03*
X014011Y037617D03*
X013856Y037617D03*
X013861Y037392D03*
X014006Y037392D03*
X014046Y037277D03*
X014041Y037272D03*
X014036Y037267D03*
X014031Y037262D03*
X014021Y037257D03*
X014016Y037252D03*
X013576Y037257D03*
X013571Y037262D03*
X013451Y037412D03*
X013446Y037427D03*
X013446Y037432D03*
X013196Y037357D03*
X013191Y037352D03*
X013186Y037347D03*
X012906Y037227D03*
X012631Y037342D03*
X012626Y037347D03*
X012621Y037352D03*
X012601Y038047D03*
X012606Y038052D03*
X012611Y038057D03*
X012626Y038067D03*
X012631Y038072D03*
X012636Y038077D03*
X012401Y038317D03*
X012406Y038322D03*
X012411Y038327D03*
X012416Y038332D03*
X012421Y038337D03*
X012441Y038352D03*
X012446Y038357D03*
X012451Y038362D03*
X012456Y038367D03*
X012461Y038372D03*
X012466Y038377D03*
X012476Y038382D03*
X012481Y038387D03*
X012486Y038392D03*
X012491Y038397D03*
X012496Y038402D03*
X012506Y038407D03*
X012511Y038412D03*
X012516Y038417D03*
X012521Y038422D03*
X012536Y038432D03*
X012541Y038437D03*
X012561Y038452D03*
X012566Y038457D03*
X012586Y038472D03*
X012606Y038487D03*
X012276Y038192D03*
X012271Y038187D03*
X013076Y038287D03*
X013176Y038077D03*
X013181Y038072D03*
X013186Y038067D03*
X013191Y038062D03*
X013611Y038057D03*
X013581Y037842D03*
X013566Y037832D03*
X013561Y037827D03*
X013556Y037822D03*
X013551Y037817D03*
X013636Y038342D03*
X013111Y038752D03*
X013191Y038847D03*
X013196Y038852D03*
X013201Y038857D03*
X013211Y038862D03*
X013216Y038867D03*
X013221Y038872D03*
X011381Y038787D03*
X011361Y038772D03*
X011341Y038757D03*
X011336Y038752D03*
X011331Y038747D03*
X011326Y038742D03*
X011311Y038732D03*
X011306Y038727D03*
X011301Y038722D03*
X011296Y038717D03*
X011291Y038712D03*
X010076Y036877D03*
X010066Y036872D03*
X010061Y036867D03*
X010056Y036862D03*
X010051Y036857D03*
X010046Y036852D03*
X010021Y036832D03*
X010016Y036827D03*
X010011Y036822D03*
X010006Y036817D03*
X010001Y036812D03*
X011101Y036452D03*
X011121Y036467D03*
X011126Y036472D03*
X011131Y036477D03*
X011136Y036482D03*
X011146Y036487D03*
X011151Y036492D03*
X011156Y036497D03*
X011161Y036502D03*
X011166Y036507D03*
X011166Y036137D03*
X011161Y036132D03*
X011156Y036127D03*
X011811Y035932D03*
X011816Y035927D03*
X011816Y035922D03*
X011816Y035917D03*
X011931Y036002D03*
X011931Y036007D03*
X011931Y036012D03*
X012096Y035897D03*
X012041Y035767D03*
X011876Y035772D03*
X011876Y035777D03*
X012146Y036067D03*
X012496Y035402D03*
X012501Y035392D03*
X012501Y035387D03*
X012876Y034987D03*
X012941Y034927D03*
X012946Y034922D03*
X012951Y034917D03*
X012956Y034912D03*
X013026Y034847D03*
X013031Y034842D03*
X013036Y034837D03*
X013041Y034832D03*
X013111Y034767D03*
X013116Y034762D03*
X013121Y034757D03*
X013126Y034752D03*
X013431Y035872D03*
X013436Y035877D03*
X013451Y035887D03*
X013456Y035892D03*
X013461Y035897D03*
X013466Y035902D03*
X013476Y035907D03*
X013481Y035912D03*
X013486Y035917D03*
X013491Y035922D03*
X013016Y036472D03*
X011726Y034667D03*
X011051Y034512D03*
X010901Y033452D03*
X010971Y032577D03*
X010976Y032572D03*
X010981Y032567D03*
X010986Y032562D03*
X010991Y032557D03*
X011006Y032547D03*
X011011Y032542D03*
X012091Y033507D03*
X013021Y033062D03*
X013026Y033057D03*
X013031Y033052D03*
X009336Y033877D03*
D19*
X009331Y033882D03*
X010896Y033457D03*
X011331Y033252D03*
X011141Y032622D03*
X011131Y032607D03*
X011126Y032602D03*
X011121Y032597D03*
X011116Y032587D03*
X011111Y032582D03*
X011106Y032577D03*
X011101Y032572D03*
X011096Y032567D03*
X010866Y032682D03*
X010861Y032687D03*
X010856Y032692D03*
X010851Y032697D03*
X010846Y032702D03*
X010841Y032712D03*
X010836Y032717D03*
X010831Y032722D03*
X010826Y032727D03*
X010821Y032737D03*
X010816Y032742D03*
X010806Y032757D03*
X011276Y034262D03*
X011271Y034267D03*
X011261Y034282D03*
X011256Y034287D03*
X011251Y034292D03*
X011246Y034297D03*
X011241Y034302D03*
X011236Y034307D03*
X011221Y034327D03*
X011216Y034332D03*
X011211Y034337D03*
X011206Y034342D03*
X011201Y034347D03*
X011196Y034352D03*
X011186Y034367D03*
X011181Y034372D03*
X011176Y034377D03*
X011171Y034382D03*
X011166Y034387D03*
X011161Y034392D03*
X011146Y034412D03*
X011141Y034417D03*
X011136Y034422D03*
X011131Y034427D03*
X011126Y034432D03*
X011121Y034437D03*
X011111Y034452D03*
X011106Y034457D03*
X011101Y034462D03*
X011096Y034467D03*
X011091Y034472D03*
X011086Y034477D03*
X011046Y034522D03*
X011046Y034527D03*
X011536Y034907D03*
X011541Y034902D03*
X011551Y034887D03*
X011556Y034882D03*
X011566Y034867D03*
X011571Y034862D03*
X011581Y034847D03*
X011586Y034842D03*
X011591Y034837D03*
X011596Y034827D03*
X011601Y034822D03*
X011606Y034817D03*
X011611Y034807D03*
X011616Y034802D03*
X011621Y034797D03*
X011626Y034787D03*
X011631Y034782D03*
X011636Y034777D03*
X011641Y034767D03*
X011646Y034762D03*
X011651Y034757D03*
X011656Y034747D03*
X011661Y034742D03*
X011666Y034737D03*
X011671Y034727D03*
X011676Y034722D03*
X011681Y034717D03*
X011686Y034707D03*
X011691Y034702D03*
X011696Y034697D03*
X011856Y034887D03*
X011861Y034897D03*
X011861Y034902D03*
X011526Y034922D03*
X011521Y034927D03*
X011516Y034932D03*
X011511Y034942D03*
X011506Y034947D03*
X011501Y034952D03*
X011496Y034962D03*
X011491Y034967D03*
X011486Y034972D03*
X011481Y034982D03*
X011476Y034987D03*
X011471Y034992D03*
X011466Y035002D03*
X011461Y035007D03*
X011456Y035012D03*
X011451Y035022D03*
X011446Y035027D03*
X011441Y035032D03*
X011436Y035042D03*
X011431Y035047D03*
X011426Y035052D03*
X011421Y035062D03*
X011416Y035067D03*
X011411Y035072D03*
X011401Y035087D03*
X011396Y035092D03*
X011386Y035107D03*
X011381Y035112D03*
X011371Y035127D03*
X011366Y035132D03*
X011356Y035147D03*
X011351Y035152D03*
X011346Y035157D03*
X011341Y035167D03*
X011336Y035172D03*
X011331Y035177D03*
X011326Y035187D03*
X011321Y035192D03*
X011316Y035197D03*
X011311Y035207D03*
X011306Y035212D03*
X011301Y035217D03*
X011296Y035227D03*
X011291Y035232D03*
X011286Y035237D03*
X011281Y035247D03*
X011276Y035252D03*
X011271Y035257D03*
X011266Y035267D03*
X011261Y035272D03*
X011256Y035277D03*
X011251Y035287D03*
X011246Y035292D03*
X011241Y035297D03*
X011231Y035312D03*
X011226Y035317D03*
X011216Y035332D03*
X011211Y035337D03*
X011201Y035352D03*
X011196Y035357D03*
X011186Y035372D03*
X011181Y035377D03*
X011176Y035382D03*
X011171Y035392D03*
X011196Y036167D03*
X011201Y036172D03*
X011206Y036177D03*
X011211Y036182D03*
X011221Y036197D03*
X011231Y036212D03*
X011481Y036377D03*
X011491Y036362D03*
X011501Y036347D03*
X011511Y036332D03*
X011521Y036317D03*
X011531Y036302D03*
X011541Y036287D03*
X011546Y036282D03*
X011556Y036267D03*
X011566Y036252D03*
X011576Y036237D03*
X011581Y036232D03*
X011591Y036217D03*
X011601Y036202D03*
X011606Y036197D03*
X011611Y036187D03*
X011616Y036182D03*
X011621Y036177D03*
X011626Y036167D03*
X011631Y036162D03*
X011641Y036147D03*
X011646Y036142D03*
X011656Y036127D03*
X011661Y036122D03*
X011666Y036112D03*
X011671Y036107D03*
X011676Y036102D03*
X011681Y036092D03*
X011686Y036087D03*
X011691Y036082D03*
X011696Y036072D03*
X011701Y036067D03*
X011706Y036062D03*
X011716Y036047D03*
X011721Y036042D03*
X011726Y036037D03*
X011731Y036027D03*
X011736Y036022D03*
X011741Y036017D03*
X011746Y036007D03*
X011751Y036002D03*
X011756Y035997D03*
X011761Y035987D03*
X011816Y035902D03*
X011881Y035757D03*
X011881Y035752D03*
X012096Y035902D03*
X012141Y036082D03*
X012311Y035747D03*
X012511Y035362D03*
X012511Y035357D03*
X012716Y035427D03*
X012746Y035472D03*
X012756Y035487D03*
X012761Y035492D03*
X012766Y035502D03*
X012771Y035507D03*
X012776Y035512D03*
X012781Y035522D03*
X012786Y035527D03*
X012791Y035532D03*
X012796Y035537D03*
X012801Y035542D03*
X012801Y035547D03*
X012806Y035552D03*
X012811Y035557D03*
X012816Y035562D03*
X012821Y035567D03*
X012826Y035572D03*
X013566Y035992D03*
X013571Y035997D03*
X013576Y036002D03*
X013581Y036007D03*
X013586Y036012D03*
X013591Y036017D03*
X013616Y036047D03*
X013621Y036052D03*
X013626Y036057D03*
X013631Y036062D03*
X013636Y036067D03*
X013641Y036072D03*
X013641Y036077D03*
X013646Y036082D03*
X013651Y036087D03*
X013656Y036092D03*
X013661Y036097D03*
X013666Y036107D03*
X013671Y036112D03*
X013676Y036117D03*
X013681Y036127D03*
X013686Y036132D03*
X013691Y036137D03*
X013701Y036152D03*
X013706Y036157D03*
X013716Y036172D03*
X013726Y036187D03*
X013736Y036202D03*
X013746Y036217D03*
X013756Y036232D03*
X013526Y036527D03*
X012846Y036632D03*
X012841Y036627D03*
X012831Y036612D03*
X012826Y036607D03*
X012821Y036597D03*
X012816Y036592D03*
X012811Y036587D03*
X012806Y036582D03*
X012801Y036577D03*
X012576Y037397D03*
X012571Y037402D03*
X012566Y037407D03*
X012561Y037412D03*
X012551Y037427D03*
X012546Y037432D03*
X012536Y037447D03*
X012726Y037697D03*
X012721Y037707D03*
X012726Y037887D03*
X012731Y037892D03*
X012821Y037952D03*
X012911Y037892D03*
X012916Y037887D03*
X012921Y037707D03*
X012916Y037697D03*
X013251Y037417D03*
X013256Y037422D03*
X013261Y037427D03*
X013271Y037442D03*
X013246Y037407D03*
X013241Y037402D03*
X013236Y037397D03*
X013231Y037392D03*
X013226Y037387D03*
X013441Y037457D03*
X013436Y037477D03*
X013436Y037482D03*
X013436Y037487D03*
X013436Y037492D03*
X013436Y037497D03*
X013501Y037337D03*
X013511Y037322D03*
X013516Y037317D03*
X013521Y037312D03*
X013526Y037307D03*
X013836Y037417D03*
X013841Y037412D03*
X013846Y037407D03*
X014026Y037412D03*
X014096Y037337D03*
X014091Y037327D03*
X014086Y037322D03*
X014081Y037317D03*
X014076Y037312D03*
X014076Y037307D03*
X014071Y037302D03*
X014066Y037297D03*
X014061Y037292D03*
X014056Y037287D03*
X014051Y037282D03*
X014031Y037597D03*
X014026Y037602D03*
X014021Y037607D03*
X014101Y037752D03*
X014091Y037767D03*
X014081Y037782D03*
X014076Y037787D03*
X014071Y037792D03*
X014066Y037797D03*
X014061Y037802D03*
X013846Y037607D03*
X013841Y037602D03*
X013836Y037597D03*
X013831Y037587D03*
X013541Y037807D03*
X013536Y037802D03*
X013531Y037797D03*
X013526Y037792D03*
X013521Y037787D03*
X013516Y037777D03*
X013511Y037772D03*
X013506Y037767D03*
X013501Y037757D03*
X013266Y037982D03*
X013261Y037987D03*
X013251Y038002D03*
X013246Y038007D03*
X013241Y038012D03*
X013331Y038117D03*
X013581Y038137D03*
X013716Y038232D03*
X013726Y038217D03*
X013736Y038202D03*
X013756Y038172D03*
X013706Y038247D03*
X013701Y038252D03*
X013691Y038267D03*
X013686Y038272D03*
X013681Y038277D03*
X013676Y038287D03*
X013671Y038292D03*
X013666Y038297D03*
X013661Y038307D03*
X013656Y038312D03*
X013651Y038317D03*
X013646Y038322D03*
X013641Y038327D03*
X013641Y038332D03*
X013636Y038337D03*
X013111Y038757D03*
X012761Y038317D03*
X012591Y038037D03*
X012586Y038032D03*
X012581Y038027D03*
X012576Y038022D03*
X012571Y038017D03*
X012566Y038007D03*
X012561Y038002D03*
X012556Y037997D03*
X012551Y037992D03*
X012546Y037982D03*
X012541Y037977D03*
X012301Y038222D03*
X012306Y038227D03*
X012311Y038232D03*
X012316Y038237D03*
X012296Y038217D03*
X012291Y038212D03*
X012221Y038137D03*
X012216Y038132D03*
X012206Y038117D03*
X012201Y038112D03*
X012196Y038107D03*
X012191Y038102D03*
X012186Y038097D03*
X012181Y038092D03*
X012181Y038087D03*
X012176Y038082D03*
X012171Y038077D03*
X012166Y038072D03*
X012161Y038067D03*
X012156Y038062D03*
X012156Y038057D03*
X012151Y038052D03*
X012146Y038047D03*
X012141Y038042D03*
X012136Y038032D03*
X012131Y038027D03*
X012126Y038022D03*
X012121Y038017D03*
X012116Y038007D03*
X012111Y038002D03*
X012101Y037987D03*
X012096Y037982D03*
X012086Y037967D03*
X012081Y037962D03*
X012071Y037947D03*
X012061Y037932D03*
X012051Y037917D03*
X012041Y037902D03*
X012031Y037887D03*
X012021Y037872D03*
X011131Y038532D03*
X011126Y038527D03*
X011141Y038547D03*
X011146Y038552D03*
X011151Y038562D03*
X011156Y038567D03*
X011161Y038572D03*
X011166Y038577D03*
X011166Y038582D03*
X011171Y038587D03*
X011176Y038592D03*
X011181Y038597D03*
X011186Y038602D03*
X011186Y038607D03*
X011191Y038612D03*
X011196Y038617D03*
X011201Y038622D03*
X011206Y038627D03*
X011211Y038632D03*
X011261Y036612D03*
X011251Y036597D03*
X011246Y036592D03*
X011241Y036587D03*
X011236Y036577D03*
X011231Y036572D03*
X011226Y036567D03*
X011221Y036562D03*
X011216Y036557D03*
X011211Y036552D03*
X011426Y036462D03*
X011461Y036407D03*
X011471Y036392D03*
X009961Y036772D03*
X009956Y036767D03*
X009951Y036762D03*
X009946Y036757D03*
X009941Y036752D03*
X009936Y036747D03*
X009926Y036732D03*
X009921Y036727D03*
X009916Y036722D03*
X009911Y036717D03*
X009906Y036712D03*
X009901Y036702D03*
X009896Y036697D03*
X009891Y036692D03*
X009886Y036687D03*
X009881Y036677D03*
X009876Y036672D03*
X009871Y036667D03*
X009861Y036652D03*
X009851Y036637D03*
X009846Y036632D03*
X009836Y036617D03*
X013021Y034542D03*
X013021Y034537D03*
X013016Y034532D03*
X013026Y034547D03*
X013031Y034552D03*
X013036Y034557D03*
X013041Y034562D03*
X013046Y034567D03*
X013046Y034572D03*
X013051Y034577D03*
X013056Y034582D03*
X013061Y034587D03*
X013066Y034592D03*
X013071Y034597D03*
X013071Y034602D03*
X013076Y034607D03*
X013081Y034612D03*
X013086Y034617D03*
X013091Y034622D03*
X013096Y034627D03*
X013096Y034632D03*
X013101Y034637D03*
X013106Y034642D03*
X013111Y034647D03*
X013116Y034652D03*
X013121Y034657D03*
X013121Y034662D03*
X013126Y034667D03*
X013131Y034672D03*
X013136Y034677D03*
X013141Y034682D03*
X013146Y034687D03*
X013146Y034692D03*
X013151Y034697D03*
X013156Y034702D03*
X013161Y034707D03*
X013166Y034712D03*
X013071Y033012D03*
X013076Y033007D03*
X013081Y033002D03*
X013086Y032997D03*
X013096Y032982D03*
X013671Y039062D03*
D20*
X013643Y039002D03*
X013638Y038992D03*
X013633Y038982D03*
X013628Y038972D03*
X013623Y038962D03*
X013618Y038952D03*
X013613Y038942D03*
X013608Y038932D03*
X013598Y038907D03*
X013593Y038897D03*
X013583Y038872D03*
X013573Y038847D03*
X013568Y038832D03*
X013558Y038522D03*
X013563Y038507D03*
X013568Y038497D03*
X013573Y038487D03*
X013578Y038477D03*
X013578Y038472D03*
X013583Y038467D03*
X013583Y038462D03*
X013588Y038457D03*
X013588Y038452D03*
X013593Y038447D03*
X013598Y038442D03*
X013663Y038302D03*
X013678Y038282D03*
X013693Y038262D03*
X013698Y038257D03*
X013708Y038242D03*
X013713Y038237D03*
X013718Y038227D03*
X013723Y038222D03*
X013728Y038212D03*
X013733Y038207D03*
X013738Y038197D03*
X013743Y038192D03*
X013748Y038187D03*
X013748Y038182D03*
X013753Y038177D03*
X013758Y038167D03*
X013763Y038162D03*
X013763Y038157D03*
X013768Y038152D03*
X013773Y038147D03*
X013773Y038142D03*
X013778Y038137D03*
X013778Y038132D03*
X013783Y038127D03*
X013788Y038122D03*
X013788Y038117D03*
X013793Y038112D03*
X013793Y038107D03*
X013798Y038102D03*
X013803Y038092D03*
X013808Y038087D03*
X013808Y038082D03*
X013813Y038077D03*
X013813Y038072D03*
X013818Y038067D03*
X013818Y038062D03*
X013823Y038057D03*
X013823Y038052D03*
X013828Y038047D03*
X013833Y038037D03*
X013838Y038027D03*
X013868Y037962D03*
X013873Y037952D03*
X014083Y037777D03*
X014088Y037772D03*
X014093Y037762D03*
X014098Y037757D03*
X014103Y037747D03*
X014108Y037742D03*
X014108Y037737D03*
X014113Y037732D03*
X014118Y037722D03*
X014123Y037712D03*
X014128Y037702D03*
X014133Y037692D03*
X014138Y037677D03*
X014038Y037587D03*
X014038Y037582D03*
X014043Y037577D03*
X014048Y037567D03*
X014033Y037592D03*
X014048Y037447D03*
X014043Y037437D03*
X014038Y037427D03*
X014033Y037422D03*
X014033Y037417D03*
X014113Y037367D03*
X014113Y037362D03*
X014108Y037357D03*
X014108Y037352D03*
X014103Y037347D03*
X014098Y037342D03*
X014093Y037332D03*
X014118Y037372D03*
X014123Y037382D03*
X014128Y037392D03*
X014143Y037432D03*
X013833Y037422D03*
X013828Y037427D03*
X013823Y037437D03*
X013818Y037447D03*
X013818Y037562D03*
X013823Y037572D03*
X013823Y037577D03*
X013828Y037582D03*
X013833Y037592D03*
X013518Y037782D03*
X013503Y037762D03*
X013498Y037752D03*
X013493Y037747D03*
X013488Y037742D03*
X013488Y037737D03*
X013483Y037732D03*
X013483Y037727D03*
X013478Y037722D03*
X013473Y037712D03*
X013468Y037702D03*
X013463Y037687D03*
X013318Y037532D03*
X013313Y037522D03*
X013308Y037507D03*
X013303Y037497D03*
X013298Y037487D03*
X013293Y037482D03*
X013293Y037477D03*
X013288Y037472D03*
X013288Y037467D03*
X013283Y037462D03*
X013278Y037457D03*
X013278Y037452D03*
X013273Y037447D03*
X013268Y037437D03*
X013263Y037432D03*
X013248Y037412D03*
X013488Y037357D03*
X013493Y037352D03*
X013493Y037347D03*
X013498Y037342D03*
X013503Y037332D03*
X013508Y037327D03*
X013313Y037897D03*
X013308Y037907D03*
X013303Y037917D03*
X013298Y037927D03*
X013293Y037937D03*
X013288Y037942D03*
X013288Y037947D03*
X013283Y037952D03*
X013283Y037957D03*
X013278Y037962D03*
X013273Y037967D03*
X013273Y037972D03*
X013268Y037977D03*
X013258Y037992D03*
X013253Y037997D03*
X012933Y037857D03*
X012928Y037867D03*
X012923Y037872D03*
X012923Y037877D03*
X012918Y037882D03*
X012933Y037727D03*
X012928Y037717D03*
X012923Y037712D03*
X012918Y037702D03*
X012723Y037702D03*
X012718Y037712D03*
X012713Y037717D03*
X012708Y037727D03*
X012708Y037857D03*
X012713Y037867D03*
X012718Y037872D03*
X012718Y037877D03*
X012723Y037882D03*
X012548Y037987D03*
X012538Y037972D03*
X012533Y037967D03*
X012533Y037962D03*
X012528Y037957D03*
X012523Y037952D03*
X012523Y037947D03*
X012518Y037942D03*
X012518Y037937D03*
X012513Y037932D03*
X012508Y037922D03*
X012503Y037912D03*
X012498Y037902D03*
X012493Y037887D03*
X012483Y037862D03*
X012488Y037542D03*
X012493Y037527D03*
X012498Y037517D03*
X012503Y037507D03*
X012508Y037497D03*
X012513Y037487D03*
X012513Y037482D03*
X012518Y037477D03*
X012523Y037467D03*
X012528Y037462D03*
X012528Y037457D03*
X012533Y037452D03*
X012538Y037442D03*
X012543Y037437D03*
X012553Y037422D03*
X012558Y037417D03*
X012968Y036887D03*
X012953Y036847D03*
X012943Y036822D03*
X012933Y036797D03*
X012928Y036787D03*
X012923Y036777D03*
X012918Y036767D03*
X012913Y036752D03*
X012908Y036742D03*
X012903Y036732D03*
X012898Y036722D03*
X012893Y036712D03*
X012888Y036702D03*
X012883Y036697D03*
X012883Y036692D03*
X012878Y036687D03*
X012878Y036682D03*
X012873Y036677D03*
X012868Y036672D03*
X012868Y036667D03*
X012863Y036662D03*
X012863Y036657D03*
X012858Y036652D03*
X012853Y036647D03*
X012853Y036642D03*
X012848Y036637D03*
X012838Y036622D03*
X012833Y036617D03*
X012823Y036602D03*
X012798Y036572D03*
X012798Y036567D03*
X012233Y035907D03*
X012238Y035897D03*
X012243Y035887D03*
X012248Y035877D03*
X012253Y035867D03*
X012258Y035857D03*
X012263Y035847D03*
X012268Y035837D03*
X012273Y035827D03*
X012278Y035817D03*
X012283Y035807D03*
X012318Y035737D03*
X012323Y035727D03*
X012328Y035717D03*
X012333Y035707D03*
X012338Y035697D03*
X012343Y035687D03*
X012348Y035677D03*
X012353Y035667D03*
X012358Y035657D03*
X012363Y035647D03*
X012368Y035637D03*
X012373Y035627D03*
X012378Y035617D03*
X012383Y035607D03*
X012388Y035597D03*
X012393Y035587D03*
X012398Y035577D03*
X012403Y035567D03*
X012408Y035557D03*
X012413Y035547D03*
X012418Y035537D03*
X012423Y035527D03*
X012428Y035517D03*
X012433Y035507D03*
X012438Y035497D03*
X012443Y035487D03*
X012448Y035477D03*
X012513Y035352D03*
X012513Y035347D03*
X012518Y035342D03*
X012518Y035337D03*
X012638Y035282D03*
X012633Y035272D03*
X012643Y035292D03*
X012648Y035302D03*
X012653Y035312D03*
X012653Y035317D03*
X012658Y035322D03*
X012658Y035327D03*
X012663Y035332D03*
X012663Y035337D03*
X012668Y035342D03*
X012668Y035347D03*
X012673Y035352D03*
X012678Y035362D03*
X012683Y035372D03*
X012688Y035382D03*
X012693Y035387D03*
X012693Y035392D03*
X012698Y035397D03*
X012698Y035402D03*
X012703Y035407D03*
X012708Y035412D03*
X012708Y035417D03*
X012713Y035422D03*
X012718Y035432D03*
X012723Y035437D03*
X012723Y035442D03*
X012728Y035447D03*
X012733Y035452D03*
X012733Y035457D03*
X012738Y035462D03*
X012743Y035467D03*
X012748Y035477D03*
X012753Y035482D03*
X012763Y035497D03*
X012778Y035517D03*
X012623Y035247D03*
X012613Y035222D03*
X012878Y034992D03*
X012743Y034642D03*
X012753Y034617D03*
X012763Y034592D03*
X012773Y034567D03*
X012783Y034542D03*
X011878Y034937D03*
X011873Y034932D03*
X011873Y034927D03*
X011868Y034922D03*
X011868Y034917D03*
X011863Y034912D03*
X011863Y034907D03*
X011828Y034847D03*
X011828Y034842D03*
X011823Y034837D03*
X011823Y034832D03*
X011818Y034827D03*
X011813Y034817D03*
X011808Y034807D03*
X011803Y034797D03*
X011798Y034787D03*
X011793Y034782D03*
X011793Y034777D03*
X011788Y034772D03*
X011788Y034767D03*
X011783Y034762D03*
X011778Y034752D03*
X011773Y034742D03*
X011768Y034732D03*
X011763Y034722D03*
X011758Y034717D03*
X011758Y034712D03*
X011753Y034707D03*
X011753Y034702D03*
X011748Y034697D03*
X011748Y034692D03*
X011698Y034692D03*
X011683Y034712D03*
X011668Y034732D03*
X011653Y034752D03*
X011638Y034772D03*
X011623Y034792D03*
X011608Y034812D03*
X011593Y034832D03*
X011578Y034852D03*
X011573Y034857D03*
X011563Y034872D03*
X011558Y034877D03*
X011548Y034892D03*
X011543Y034897D03*
X011533Y034912D03*
X011528Y034917D03*
X011513Y034937D03*
X011498Y034957D03*
X011483Y034977D03*
X011468Y034997D03*
X011453Y035017D03*
X011438Y035037D03*
X011423Y035057D03*
X011408Y035077D03*
X011403Y035082D03*
X011393Y035097D03*
X011388Y035102D03*
X011378Y035117D03*
X011373Y035122D03*
X011363Y035137D03*
X011358Y035142D03*
X011343Y035162D03*
X011328Y035182D03*
X011313Y035202D03*
X011298Y035222D03*
X011283Y035242D03*
X011268Y035262D03*
X011253Y035282D03*
X011238Y035302D03*
X011233Y035307D03*
X011223Y035322D03*
X011218Y035327D03*
X011208Y035342D03*
X011203Y035347D03*
X011193Y035362D03*
X011188Y035367D03*
X011173Y035387D03*
X011463Y035457D03*
X011463Y035462D03*
X011468Y035452D03*
X011473Y035442D03*
X011478Y035437D03*
X011478Y035432D03*
X011483Y035427D03*
X011483Y035422D03*
X011488Y035417D03*
X011493Y035407D03*
X011498Y035402D03*
X011498Y035397D03*
X011503Y035392D03*
X011503Y035387D03*
X011508Y035382D03*
X011513Y035372D03*
X011518Y035362D03*
X011523Y035357D03*
X011523Y035352D03*
X011528Y035347D03*
X011528Y035342D03*
X011533Y035337D03*
X011538Y035327D03*
X011543Y035322D03*
X011543Y035317D03*
X011548Y035312D03*
X011548Y035307D03*
X011553Y035302D03*
X011558Y035292D03*
X011563Y035287D03*
X011563Y035282D03*
X011568Y035277D03*
X011568Y035272D03*
X011573Y035267D03*
X011578Y035257D03*
X011583Y035252D03*
X011583Y035247D03*
X011588Y035242D03*
X011588Y035237D03*
X011593Y035232D03*
X011598Y035222D03*
X011603Y035217D03*
X011603Y035212D03*
X011608Y035207D03*
X011608Y035202D03*
X011613Y035197D03*
X011613Y035192D03*
X011618Y035187D03*
X011623Y035177D03*
X011628Y035172D03*
X011628Y035167D03*
X011633Y035162D03*
X011633Y035157D03*
X011638Y035152D03*
X011643Y035142D03*
X011648Y035137D03*
X011648Y035132D03*
X011653Y035127D03*
X011653Y035122D03*
X011658Y035117D03*
X011663Y035107D03*
X011668Y035102D03*
X011668Y035097D03*
X011673Y035092D03*
X011673Y035087D03*
X011678Y035082D03*
X011683Y035072D03*
X011688Y035067D03*
X011688Y035062D03*
X011693Y035057D03*
X011693Y035052D03*
X011698Y035047D03*
X011703Y035037D03*
X011708Y035027D03*
X011713Y035022D03*
X011713Y035017D03*
X011718Y035012D03*
X011718Y035007D03*
X011723Y035002D03*
X011728Y034992D03*
X011733Y034987D03*
X011733Y034982D03*
X011738Y034977D03*
X011738Y034972D03*
X011743Y034967D03*
X011748Y034957D03*
X011753Y034952D03*
X011753Y034947D03*
X011758Y034942D03*
X011758Y034937D03*
X011763Y034932D03*
X011768Y034922D03*
X011773Y034917D03*
X011773Y034912D03*
X011778Y034907D03*
X011778Y034902D03*
X011783Y034897D03*
X011788Y034887D03*
X011713Y034627D03*
X011708Y034622D03*
X011708Y034617D03*
X011703Y034612D03*
X011698Y034602D03*
X011693Y034592D03*
X011688Y034582D03*
X011683Y034572D03*
X011678Y034567D03*
X011678Y034562D03*
X011673Y034557D03*
X011673Y034552D03*
X011668Y034547D03*
X011663Y034537D03*
X011658Y034527D03*
X011653Y034517D03*
X011648Y034507D03*
X011643Y034502D03*
X011643Y034497D03*
X011638Y034492D03*
X011638Y034487D03*
X011633Y034482D03*
X011633Y034477D03*
X011628Y034472D03*
X011623Y034462D03*
X011618Y034452D03*
X011613Y034442D03*
X011608Y034432D03*
X011603Y034427D03*
X011603Y034422D03*
X011598Y034417D03*
X011598Y034412D03*
X011593Y034407D03*
X011593Y034402D03*
X011588Y034397D03*
X011583Y034387D03*
X011578Y034377D03*
X011573Y034367D03*
X011568Y034357D03*
X011563Y034352D03*
X011563Y034347D03*
X011558Y034342D03*
X011558Y034337D03*
X011553Y034332D03*
X011548Y034322D03*
X011543Y034312D03*
X011538Y034302D03*
X011533Y034292D03*
X011528Y034287D03*
X011528Y034282D03*
X011523Y034277D03*
X011523Y034272D03*
X011518Y034267D03*
X011518Y034262D03*
X011513Y034257D03*
X011508Y034247D03*
X011043Y034532D03*
X011883Y035747D03*
X011848Y035817D03*
X011843Y035827D03*
X011838Y035842D03*
X011833Y035852D03*
X011823Y035877D03*
X011963Y035947D03*
X011973Y035922D03*
X011978Y035907D03*
X011988Y035882D03*
X011998Y035857D03*
X012003Y035842D03*
X012013Y035817D03*
X012043Y035747D03*
X012043Y035742D03*
X012228Y035917D03*
X012223Y035927D03*
X012218Y035937D03*
X012213Y035947D03*
X012208Y035957D03*
X012203Y035967D03*
X012198Y035977D03*
X012193Y035987D03*
X012188Y035997D03*
X012183Y036007D03*
X012178Y036017D03*
X012173Y036027D03*
X012143Y036087D03*
X011928Y036037D03*
X011928Y036032D03*
X011928Y036027D03*
X011743Y036012D03*
X011728Y036032D03*
X011713Y036052D03*
X011708Y036057D03*
X011693Y036077D03*
X011678Y036097D03*
X011663Y036117D03*
X011653Y036132D03*
X011648Y036137D03*
X011638Y036152D03*
X011633Y036157D03*
X011623Y036172D03*
X011608Y036192D03*
X011598Y036207D03*
X011593Y036212D03*
X011588Y036222D03*
X011583Y036227D03*
X011573Y036242D03*
X011568Y036247D03*
X011563Y036257D03*
X011558Y036262D03*
X011553Y036272D03*
X011548Y036277D03*
X011538Y036292D03*
X011533Y036297D03*
X011528Y036307D03*
X011523Y036312D03*
X011518Y036322D03*
X011513Y036327D03*
X011508Y036337D03*
X011503Y036342D03*
X011498Y036352D03*
X011493Y036357D03*
X011488Y036367D03*
X011483Y036372D03*
X011478Y036382D03*
X011473Y036387D03*
X011468Y036397D03*
X011463Y036402D03*
X011458Y036412D03*
X011453Y036417D03*
X011453Y036422D03*
X011448Y036427D03*
X011443Y036432D03*
X011443Y036437D03*
X011438Y036442D03*
X011433Y036447D03*
X011433Y036452D03*
X011428Y036457D03*
X011423Y036467D03*
X011418Y036472D03*
X011418Y036477D03*
X011413Y036482D03*
X011408Y036487D03*
X011408Y036492D03*
X011403Y036497D03*
X011398Y036502D03*
X011398Y036507D03*
X011393Y036512D03*
X011393Y036517D03*
X011388Y036522D03*
X011383Y036527D03*
X011383Y036532D03*
X011378Y036537D03*
X011378Y036542D03*
X011373Y036547D03*
X011368Y036552D03*
X011368Y036557D03*
X011363Y036562D03*
X011363Y036567D03*
X011358Y036572D03*
X011263Y036617D03*
X011258Y036607D03*
X011253Y036602D03*
X011238Y036582D03*
X011208Y036847D03*
X011203Y036857D03*
X011198Y036867D03*
X011193Y036877D03*
X011188Y036887D03*
X011183Y036897D03*
X011178Y036907D03*
X011173Y036917D03*
X011168Y036927D03*
X011163Y036937D03*
X011163Y036942D03*
X011158Y036952D03*
X011153Y036962D03*
X011148Y036972D03*
X011143Y036982D03*
X011138Y036997D03*
X011133Y037007D03*
X011128Y037017D03*
X011118Y037042D03*
X011113Y037052D03*
X011108Y037067D03*
X011103Y037077D03*
X011098Y037092D03*
X011093Y037102D03*
X011083Y037127D03*
X011078Y037142D03*
X011063Y037182D03*
X011833Y037492D03*
X011838Y037507D03*
X011848Y037532D03*
X011858Y037557D03*
X011868Y037582D03*
X011873Y037592D03*
X011878Y037607D03*
X011883Y037617D03*
X011888Y037627D03*
X011893Y037637D03*
X011898Y037647D03*
X011903Y037662D03*
X011908Y037672D03*
X011913Y037682D03*
X011918Y037692D03*
X011923Y037702D03*
X011928Y037712D03*
X011933Y037722D03*
X011938Y037727D03*
X011938Y037732D03*
X011943Y037737D03*
X011943Y037742D03*
X011948Y037747D03*
X011948Y037752D03*
X011953Y037757D03*
X011958Y037767D03*
X011963Y037777D03*
X011968Y037782D03*
X011968Y037787D03*
X011973Y037792D03*
X011973Y037797D03*
X011978Y037802D03*
X011983Y037807D03*
X011983Y037812D03*
X011988Y037817D03*
X011988Y037822D03*
X011993Y037827D03*
X011998Y037832D03*
X011998Y037837D03*
X012003Y037842D03*
X012003Y037847D03*
X012008Y037852D03*
X012013Y037857D03*
X012013Y037862D03*
X012018Y037867D03*
X012023Y037877D03*
X012028Y037882D03*
X012033Y037892D03*
X012038Y037897D03*
X012043Y037907D03*
X012048Y037912D03*
X012053Y037922D03*
X012058Y037927D03*
X012063Y037937D03*
X012068Y037942D03*
X012073Y037952D03*
X012078Y037957D03*
X012088Y037972D03*
X012093Y037977D03*
X012103Y037992D03*
X012108Y037997D03*
X012118Y038012D03*
X012138Y038037D03*
X011148Y038557D03*
X011138Y038542D03*
X011133Y038537D03*
X011123Y038522D03*
X011118Y038517D03*
X011118Y038512D03*
X011113Y038507D03*
X011108Y038502D03*
X011108Y038497D03*
X011103Y038492D03*
X011098Y038487D03*
X011098Y038482D03*
X011093Y038477D03*
X011093Y038472D03*
X011088Y038467D03*
X011083Y038462D03*
X011083Y038457D03*
X011078Y038452D03*
X011078Y038447D03*
X011073Y038442D03*
X011068Y038432D03*
X011063Y038422D03*
X011058Y038417D03*
X011058Y038412D03*
X011053Y038402D03*
X011048Y038392D03*
X011043Y038382D03*
X011038Y038372D03*
X011033Y038362D03*
X011028Y038352D03*
X011018Y038327D03*
X011008Y038302D03*
X009903Y036707D03*
X009883Y036682D03*
X009868Y036662D03*
X009863Y036657D03*
X009858Y036647D03*
X009853Y036642D03*
X009843Y036627D03*
X009838Y036622D03*
X009833Y036612D03*
X009828Y036607D03*
X009828Y036602D03*
X009823Y036597D03*
X009818Y036592D03*
X009818Y036587D03*
X009813Y036582D03*
X009808Y036577D03*
X009808Y036572D03*
X009803Y036567D03*
X009803Y036562D03*
X009798Y036557D03*
X009793Y036552D03*
X009793Y036547D03*
X009788Y036542D03*
X009788Y036537D03*
X009783Y036532D03*
X009778Y036522D03*
X009773Y036512D03*
X009768Y036502D03*
X009763Y036497D03*
X009763Y036492D03*
X009758Y036487D03*
X009758Y036482D03*
X009753Y036477D03*
X009753Y036472D03*
X009748Y036467D03*
X009748Y036462D03*
X009743Y036452D03*
X009738Y036442D03*
X009733Y036432D03*
X009728Y036422D03*
X009723Y036412D03*
X009713Y036387D03*
X009703Y036362D03*
X009693Y036337D03*
X010278Y036007D03*
X011213Y036187D03*
X011218Y036192D03*
X011223Y036202D03*
X011228Y036207D03*
X011233Y036217D03*
X011238Y036222D03*
X011238Y036227D03*
X011243Y036232D03*
X011248Y036242D03*
X011253Y036252D03*
X011258Y036262D03*
X011268Y036287D03*
X013663Y036102D03*
X013678Y036122D03*
X013693Y036142D03*
X013698Y036147D03*
X013708Y036162D03*
X013713Y036167D03*
X013718Y036177D03*
X013723Y036182D03*
X013728Y036192D03*
X013733Y036197D03*
X013738Y036207D03*
X013743Y036212D03*
X013748Y036222D03*
X013753Y036227D03*
X013758Y036237D03*
X013763Y036242D03*
X013763Y036247D03*
X013768Y036252D03*
X013773Y036257D03*
X013773Y036262D03*
X013778Y036267D03*
X013778Y036272D03*
X013783Y036277D03*
X013788Y036282D03*
X013788Y036287D03*
X013793Y036292D03*
X013793Y036297D03*
X013798Y036302D03*
X013803Y036312D03*
X013808Y036322D03*
X013813Y036327D03*
X013813Y036332D03*
X013818Y036337D03*
X013818Y036342D03*
X013823Y036347D03*
X013823Y036352D03*
X013828Y036357D03*
X013833Y036367D03*
X013838Y036377D03*
X013843Y036387D03*
X013848Y036397D03*
X013853Y036407D03*
X013858Y036422D03*
X013863Y036432D03*
X013868Y036442D03*
X013873Y036452D03*
X013883Y036477D03*
X013888Y036487D03*
X013893Y036502D03*
X013898Y036512D03*
X013913Y036552D03*
X013918Y036567D03*
X013748Y036617D03*
X013748Y036622D03*
X013743Y036627D03*
X013743Y036632D03*
X013738Y036637D03*
X013733Y036647D03*
X013728Y036657D03*
X013288Y038367D03*
X013113Y038762D03*
X009378Y033997D03*
X009373Y033982D03*
X009368Y033972D03*
X009363Y033957D03*
X009358Y033947D03*
X009348Y033922D03*
X009343Y033912D03*
X009338Y033902D03*
X009333Y033892D03*
X010703Y032962D03*
X010708Y032947D03*
X010713Y032932D03*
X010718Y032917D03*
X010723Y032907D03*
X010733Y032882D03*
X010738Y032872D03*
X010743Y032862D03*
X010748Y032852D03*
X010753Y032842D03*
X010758Y032832D03*
X010763Y032822D03*
X010768Y032817D03*
X010768Y032812D03*
X010773Y032807D03*
X010773Y032802D03*
X010778Y032797D03*
X010783Y032792D03*
X010783Y032787D03*
X010788Y032782D03*
X010793Y032777D03*
X010793Y032772D03*
X010798Y032767D03*
X010803Y032762D03*
X010808Y032752D03*
X010813Y032747D03*
X010823Y032732D03*
X010843Y032707D03*
X011118Y032592D03*
X011133Y032612D03*
X011138Y032617D03*
X011143Y032627D03*
X011148Y032632D03*
X011148Y032637D03*
X011153Y032642D03*
X011158Y032647D03*
X011158Y032652D03*
X011163Y032657D03*
X011168Y032667D03*
X011173Y032677D03*
X011178Y032687D03*
X011183Y032692D03*
X011183Y032697D03*
X011188Y032707D03*
X011193Y032717D03*
X011198Y032727D03*
X011203Y032737D03*
X011213Y032762D03*
X011218Y032777D03*
X012728Y033217D03*
X013088Y032992D03*
X013093Y032987D03*
X013098Y032977D03*
X013103Y032972D03*
X013103Y032967D03*
X013108Y032962D03*
X013113Y032952D03*
X013118Y032942D03*
X013123Y032932D03*
X013133Y032907D03*
D21*
X013063Y032772D03*
X012553Y032867D03*
X012323Y033027D03*
X011138Y033047D03*
X011998Y034167D03*
X012503Y035682D03*
X010663Y036657D03*
X010773Y037002D03*
X010993Y037237D03*
X011933Y039042D03*
X013113Y038267D03*
X013348Y038337D03*
X013468Y038982D03*
X013483Y038987D03*
X013503Y038992D03*
X013598Y039017D03*
X013618Y039037D03*
X013933Y037647D03*
D22*
X013798Y037182D03*
X012903Y034527D03*
X012828Y032812D03*
X013053Y032777D03*
X010398Y036047D03*
D23*
X011851Y034637D03*
X012616Y034897D03*
X013031Y032782D03*
D24*
X013011Y032787D03*
X012096Y032977D03*
X013196Y039102D03*
D25*
X012993Y032792D03*
D26*
X012978Y032797D03*
D27*
X012963Y032802D03*
D28*
X012951Y032807D03*
X011781Y032947D03*
X013071Y039112D03*
D29*
X013286Y036412D03*
X013316Y036407D03*
X013346Y036402D03*
X012631Y034692D03*
X012896Y034497D03*
X012786Y032817D03*
D30*
X012756Y032822D03*
X013516Y036372D03*
X012116Y039082D03*
X010871Y037207D03*
X010656Y037027D03*
D31*
X012533Y035672D03*
X013808Y037927D03*
X012088Y039077D03*
X011333Y033002D03*
X012728Y032827D03*
D32*
X012703Y032832D03*
X011358Y034247D03*
X013528Y036367D03*
X013933Y037632D03*
X014048Y037952D03*
X013928Y037977D03*
X013858Y037992D03*
X013833Y037997D03*
X013808Y038002D03*
X013713Y038022D03*
X013688Y038027D03*
X013098Y038717D03*
X013608Y039042D03*
X012063Y039072D03*
D33*
X012268Y038137D03*
X012253Y038082D03*
X012238Y038022D03*
X012233Y038002D03*
X012228Y037982D03*
X012218Y037937D03*
X012213Y037912D03*
X012208Y037887D03*
X012203Y037862D03*
X012203Y037857D03*
X012198Y037832D03*
X012193Y037802D03*
X012193Y037797D03*
X012188Y037772D03*
X012188Y037767D03*
X012183Y037742D03*
X012183Y037737D03*
X012183Y037732D03*
X012178Y037702D03*
X012178Y037697D03*
X012178Y037692D03*
X012173Y037662D03*
X012173Y037657D03*
X012173Y037652D03*
X012168Y037612D03*
X012168Y037607D03*
X012168Y037602D03*
X012168Y037597D03*
X012163Y037557D03*
X012163Y037552D03*
X012163Y037547D03*
X012163Y037542D03*
X012163Y037537D03*
X012163Y037532D03*
X012158Y037477D03*
X012158Y037472D03*
X012158Y037467D03*
X012158Y037462D03*
X012158Y037457D03*
X012158Y037452D03*
X012158Y037447D03*
X012158Y037442D03*
X012158Y037437D03*
X012158Y037432D03*
X012158Y037427D03*
X012158Y037422D03*
X012158Y037417D03*
X012158Y037252D03*
X012158Y037247D03*
X012158Y037242D03*
X012158Y037237D03*
X012158Y037232D03*
X012158Y037227D03*
X012158Y037222D03*
X012158Y037217D03*
X012158Y037212D03*
X012158Y037207D03*
X012158Y037202D03*
X012158Y037197D03*
X012158Y037192D03*
X012163Y037142D03*
X012163Y037137D03*
X012163Y037132D03*
X012163Y037127D03*
X012163Y037122D03*
X012163Y037117D03*
X012163Y037112D03*
X012168Y037072D03*
X012168Y037067D03*
X012168Y037062D03*
X012168Y037057D03*
X012168Y037052D03*
X012173Y037017D03*
X012173Y037012D03*
X012173Y037007D03*
X012173Y037002D03*
X012173Y036997D03*
X012178Y036967D03*
X012178Y036962D03*
X012178Y036957D03*
X012183Y036927D03*
X012183Y036922D03*
X012183Y036917D03*
X012183Y036912D03*
X012188Y036887D03*
X012188Y036882D03*
X012188Y036877D03*
X012193Y036852D03*
X012193Y036847D03*
X012193Y036842D03*
X012198Y036817D03*
X012198Y036812D03*
X012203Y036782D03*
X012203Y036777D03*
X012208Y036752D03*
X012208Y036747D03*
X012213Y036722D03*
X012218Y036697D03*
X012218Y036692D03*
X012223Y036667D03*
X012223Y036662D03*
X012228Y036637D03*
X012233Y036612D03*
X012238Y036587D03*
X012243Y036562D03*
X012248Y036537D03*
X012253Y036517D03*
X012258Y036492D03*
X012263Y036472D03*
X012268Y036447D03*
X012273Y036427D03*
X012278Y036402D03*
X012288Y036357D03*
X012293Y036337D03*
X012298Y036317D03*
X012308Y036272D03*
X012313Y036252D03*
X012318Y036232D03*
X012323Y036212D03*
X012363Y036047D03*
X012368Y036027D03*
X012373Y036007D03*
X012378Y035987D03*
X012383Y035967D03*
X012388Y035947D03*
X012393Y035927D03*
X012398Y035907D03*
X012403Y035887D03*
X012408Y035867D03*
X012418Y035822D03*
X012423Y035802D03*
X012428Y035782D03*
X012438Y035737D03*
X012443Y035717D03*
X012458Y035652D03*
X012463Y035627D03*
X012468Y035602D03*
X012473Y035582D03*
X012478Y035557D03*
X012483Y035532D03*
X012488Y035512D03*
X012493Y035487D03*
X012493Y035482D03*
X012498Y035462D03*
X012573Y035102D03*
X012553Y035022D03*
X012548Y035002D03*
X012543Y034977D03*
X012538Y034952D03*
X012533Y034927D03*
X012533Y034922D03*
X012508Y034432D03*
X012508Y034427D03*
X012508Y034422D03*
X012508Y034417D03*
X012508Y034412D03*
X012508Y034407D03*
X012508Y034402D03*
X012508Y034397D03*
X012513Y034342D03*
X012513Y034337D03*
X012513Y034332D03*
X012513Y034327D03*
X012513Y034322D03*
X012513Y034317D03*
X012518Y034277D03*
X012518Y034272D03*
X012518Y034267D03*
X012518Y034262D03*
X012518Y034257D03*
X012523Y034222D03*
X012523Y034217D03*
X012523Y034212D03*
X012528Y034177D03*
X012528Y034172D03*
X012528Y034167D03*
X012533Y034132D03*
X012533Y034127D03*
X012533Y034122D03*
X012538Y034097D03*
X012538Y034092D03*
X012538Y034087D03*
X012543Y034057D03*
X012543Y034052D03*
X012548Y034022D03*
X012548Y034017D03*
X012553Y033992D03*
X012553Y033987D03*
X012558Y033957D03*
X012558Y033952D03*
X012563Y033927D03*
X012563Y033922D03*
X012568Y033897D03*
X012573Y033872D03*
X012573Y033867D03*
X012578Y033842D03*
X012583Y033817D03*
X012583Y033812D03*
X012588Y033792D03*
X012588Y033787D03*
X012593Y033767D03*
X012593Y033762D03*
X012598Y033742D03*
X012598Y033737D03*
X012603Y033717D03*
X012608Y033692D03*
X012613Y033667D03*
X012618Y033647D03*
X012623Y033622D03*
X012628Y033602D03*
X012633Y033577D03*
X012638Y033557D03*
X012643Y033537D03*
X012648Y033517D03*
X012653Y033497D03*
X012678Y033397D03*
X012683Y033377D03*
X012688Y033357D03*
X012703Y033302D03*
X012103Y033517D03*
X012103Y033522D03*
X012098Y033562D03*
X012098Y033567D03*
X012098Y033572D03*
X012098Y033577D03*
X012098Y033582D03*
X012098Y033587D03*
X012093Y033632D03*
X012093Y033637D03*
X012093Y033642D03*
X012093Y033647D03*
X012093Y033652D03*
X012088Y033697D03*
X012088Y033702D03*
X012088Y033707D03*
X012088Y033712D03*
X012088Y033717D03*
X012088Y033722D03*
X012083Y033762D03*
X012083Y033767D03*
X012083Y033772D03*
X012083Y033777D03*
X012083Y033782D03*
X012083Y033787D03*
X012078Y033832D03*
X012078Y033837D03*
X012078Y033842D03*
X012078Y033847D03*
X012078Y033852D03*
X012078Y033857D03*
X012073Y033897D03*
X012073Y033902D03*
X012073Y033907D03*
X012073Y033912D03*
X012073Y033917D03*
X012073Y033922D03*
X012068Y033962D03*
X012068Y033967D03*
X012068Y033972D03*
X012068Y033977D03*
X012068Y033982D03*
X012068Y033987D03*
X012063Y034032D03*
X012063Y034037D03*
X012063Y034042D03*
X012063Y034047D03*
X012063Y034052D03*
X012058Y034097D03*
X012058Y034102D03*
X012058Y034107D03*
X012058Y034112D03*
X012058Y034117D03*
X012058Y034122D03*
X011813Y034242D03*
X011813Y034247D03*
X011813Y034252D03*
X011813Y034257D03*
X011813Y034262D03*
X011818Y034302D03*
X011818Y034307D03*
X011818Y034312D03*
X011818Y034317D03*
X011818Y034322D03*
X011823Y034367D03*
X011823Y034372D03*
X011823Y034377D03*
X011823Y034382D03*
X011823Y034387D03*
X011828Y034427D03*
X011828Y034432D03*
X011828Y034437D03*
X011828Y034442D03*
X011828Y034447D03*
X011833Y034492D03*
X011833Y034497D03*
X011833Y034502D03*
X011833Y034507D03*
X011833Y034512D03*
X011838Y034552D03*
X011838Y034557D03*
X011838Y034562D03*
X011838Y034567D03*
X011838Y034572D03*
X011843Y034617D03*
X011843Y034622D03*
X011843Y034627D03*
X011878Y034947D03*
X011883Y035732D03*
X011883Y035737D03*
X011893Y035812D03*
X011893Y035817D03*
X011898Y035842D03*
X011898Y035847D03*
X011898Y035852D03*
X011903Y035882D03*
X011903Y035887D03*
X011908Y035917D03*
X011908Y035922D03*
X011908Y035927D03*
X011913Y035952D03*
X011913Y035957D03*
X011913Y035962D03*
X011808Y035987D03*
X011803Y036007D03*
X011793Y036052D03*
X011788Y036072D03*
X011783Y036097D03*
X011778Y036117D03*
X011773Y036142D03*
X011773Y036147D03*
X011768Y036167D03*
X011768Y036172D03*
X011763Y036192D03*
X011763Y036197D03*
X011758Y036222D03*
X011753Y036247D03*
X011753Y036252D03*
X011748Y036277D03*
X011748Y036282D03*
X011743Y036312D03*
X011743Y036317D03*
X011738Y036342D03*
X011738Y036347D03*
X011738Y036352D03*
X011733Y036382D03*
X011733Y036387D03*
X011728Y036417D03*
X011728Y036422D03*
X011728Y036427D03*
X011728Y036432D03*
X011723Y036462D03*
X011723Y036467D03*
X011723Y036472D03*
X011723Y036477D03*
X011718Y036517D03*
X011718Y036522D03*
X011718Y036527D03*
X011718Y036532D03*
X011718Y036537D03*
X011713Y036582D03*
X011713Y036587D03*
X011713Y036592D03*
X011713Y036597D03*
X011713Y036602D03*
X011713Y036607D03*
X011713Y036612D03*
X011708Y036687D03*
X011708Y036692D03*
X011708Y036697D03*
X011708Y036702D03*
X011708Y036707D03*
X011708Y036712D03*
X011708Y036717D03*
X011708Y036722D03*
X011708Y036727D03*
X011708Y036732D03*
X011708Y036737D03*
X011708Y036742D03*
X011708Y036747D03*
X011708Y036752D03*
X011708Y036757D03*
X011708Y036762D03*
X011708Y036767D03*
X011708Y036772D03*
X011708Y036777D03*
X011708Y036782D03*
X011708Y036787D03*
X011708Y036792D03*
X011708Y036797D03*
X011708Y036802D03*
X011708Y036807D03*
X011708Y036812D03*
X011708Y036817D03*
X011713Y036887D03*
X011713Y036892D03*
X011713Y036897D03*
X011713Y036902D03*
X011713Y036907D03*
X011713Y036912D03*
X011713Y036917D03*
X011718Y036962D03*
X011718Y036967D03*
X011718Y036972D03*
X011718Y036977D03*
X011723Y037012D03*
X011723Y037017D03*
X011723Y037022D03*
X011728Y037057D03*
X011728Y037062D03*
X011733Y037092D03*
X011733Y037097D03*
X011738Y037127D03*
X011738Y037132D03*
X011743Y037157D03*
X011748Y037182D03*
X011748Y037187D03*
X011753Y037207D03*
X011758Y037232D03*
X011763Y037257D03*
X011768Y037277D03*
X011773Y037297D03*
X011778Y037317D03*
X012468Y037612D03*
X012463Y037637D03*
X012463Y037642D03*
X012463Y037647D03*
X012458Y037682D03*
X012458Y037687D03*
X012458Y037692D03*
X012458Y037697D03*
X012458Y037702D03*
X012458Y037707D03*
X012458Y037712D03*
X012458Y037717D03*
X012458Y037722D03*
X012458Y037727D03*
X012458Y037732D03*
X012463Y037772D03*
X012463Y037777D03*
X012468Y037802D03*
X012468Y037807D03*
X012473Y037827D03*
X012693Y037797D03*
X012693Y037792D03*
X012698Y037757D03*
X012698Y037827D03*
X012943Y037827D03*
X012948Y037792D03*
X012943Y037757D03*
X013343Y037797D03*
X013348Y037767D03*
X013348Y037762D03*
X013348Y037657D03*
X013348Y037652D03*
X013348Y037647D03*
X013343Y037622D03*
X013343Y037617D03*
X013338Y037597D03*
X013333Y037577D03*
X013438Y037577D03*
X013438Y037572D03*
X013438Y037582D03*
X013438Y037587D03*
X013438Y037592D03*
X013443Y037617D03*
X013443Y037622D03*
X013448Y037642D03*
X013438Y037552D03*
X013438Y037527D03*
X013438Y037522D03*
X013438Y037517D03*
X013438Y037512D03*
X013438Y037507D03*
X013443Y037357D03*
X013443Y037352D03*
X013448Y037322D03*
X013448Y037317D03*
X013448Y037312D03*
X013448Y037307D03*
X013453Y037272D03*
X013453Y037267D03*
X013453Y037262D03*
X013458Y037227D03*
X013458Y037222D03*
X013458Y037217D03*
X013458Y037212D03*
X013463Y037182D03*
X013463Y037177D03*
X013463Y037172D03*
X013463Y037167D03*
X013468Y037137D03*
X013468Y037132D03*
X013468Y037127D03*
X013468Y037122D03*
X013473Y037087D03*
X013473Y037082D03*
X013473Y037077D03*
X013478Y037042D03*
X013478Y037037D03*
X013478Y037032D03*
X013483Y036997D03*
X013483Y036992D03*
X013483Y036987D03*
X013483Y036982D03*
X013488Y036952D03*
X013488Y036947D03*
X013488Y036942D03*
X013488Y036937D03*
X013493Y036907D03*
X013493Y036902D03*
X013493Y036897D03*
X013493Y036892D03*
X013498Y036857D03*
X013498Y036852D03*
X013498Y036847D03*
X013503Y036812D03*
X013503Y036807D03*
X013503Y036802D03*
X013503Y036797D03*
X013508Y036767D03*
X013508Y036762D03*
X013508Y036757D03*
X013508Y036752D03*
X013513Y036722D03*
X013513Y036717D03*
X013513Y036712D03*
X013513Y036707D03*
X013518Y036672D03*
X013518Y036667D03*
X013518Y036662D03*
X013523Y036627D03*
X013523Y036622D03*
X013523Y036617D03*
X013528Y036582D03*
X013528Y036577D03*
X013528Y036572D03*
X013528Y036567D03*
X013533Y036537D03*
X013533Y036532D03*
X013693Y036442D03*
X013713Y036712D03*
X013708Y036737D03*
X013708Y036742D03*
X013708Y036747D03*
X013703Y036777D03*
X013703Y036782D03*
X013703Y036787D03*
X013703Y036792D03*
X013703Y036797D03*
X013703Y036802D03*
X013703Y036807D03*
X013703Y037012D03*
X014013Y036982D03*
X014013Y036977D03*
X014013Y036972D03*
X014013Y036967D03*
X014008Y036942D03*
X014008Y036937D03*
X014008Y036932D03*
X014003Y036907D03*
X014003Y036902D03*
X014003Y036897D03*
X013998Y036872D03*
X013993Y036847D03*
X013993Y036842D03*
X013988Y036817D03*
X013983Y036797D03*
X013978Y036772D03*
X013973Y036752D03*
X013963Y036712D03*
X014018Y037017D03*
X014018Y037022D03*
X014018Y037027D03*
X014018Y037032D03*
X014023Y037077D03*
X014023Y037082D03*
X014023Y037087D03*
X014023Y037092D03*
X014023Y037097D03*
X014023Y037102D03*
X014023Y037107D03*
X014023Y037112D03*
X014058Y037477D03*
X014058Y037482D03*
X014058Y037487D03*
X014058Y037527D03*
X014058Y037532D03*
X014053Y037552D03*
X014158Y037592D03*
X014158Y037597D03*
X014153Y037627D03*
X014148Y037647D03*
X014158Y037507D03*
X014158Y037502D03*
X014158Y037497D03*
X014153Y037472D03*
X013808Y037487D03*
X013808Y037492D03*
X013808Y037497D03*
X013808Y037502D03*
X013808Y037507D03*
X013808Y037512D03*
X013808Y037517D03*
X013808Y037522D03*
X013808Y037527D03*
X013813Y037547D03*
X013338Y038112D03*
X013543Y038577D03*
X013538Y038602D03*
X013538Y038607D03*
X013538Y038612D03*
X013538Y038697D03*
X013538Y038702D03*
X013538Y038707D03*
X013538Y038712D03*
X013543Y038737D03*
X013543Y038742D03*
X013548Y038762D03*
X013553Y038782D03*
X012798Y036557D03*
X012803Y036532D03*
X012808Y036507D03*
X012813Y036482D03*
X012818Y036457D03*
X012823Y036432D03*
X012828Y036407D03*
X012833Y036382D03*
X012838Y036357D03*
X013388Y036247D03*
X013388Y036242D03*
X013388Y036237D03*
X013393Y036202D03*
X013393Y036197D03*
X013393Y036192D03*
X013398Y036157D03*
X013398Y036152D03*
X013398Y036147D03*
X012138Y036102D03*
X012118Y036012D03*
X012113Y035992D03*
X012098Y035937D03*
X012093Y035917D03*
X012078Y035862D03*
X012073Y035842D03*
X012043Y035727D03*
X011293Y036372D03*
X011293Y036377D03*
X011298Y036397D03*
X011298Y036402D03*
X011303Y036427D03*
X011303Y036432D03*
X011303Y036437D03*
X011303Y036442D03*
X011308Y036472D03*
X011308Y036477D03*
X011308Y036482D03*
X011308Y036487D03*
X011308Y036492D03*
X011308Y036497D03*
X011308Y036502D03*
X011308Y036507D03*
X011303Y036692D03*
X011008Y037352D03*
X010998Y037387D03*
X010993Y037407D03*
X010988Y037427D03*
X010983Y037447D03*
X010978Y037467D03*
X010973Y037492D03*
X010968Y037517D03*
X010963Y037537D03*
X010963Y037542D03*
X010958Y037567D03*
X010958Y037572D03*
X010953Y037597D03*
X010948Y037627D03*
X010948Y037632D03*
X010943Y037662D03*
X010943Y037667D03*
X010943Y037672D03*
X010938Y037707D03*
X010938Y037712D03*
X010938Y037717D03*
X010938Y037722D03*
X010938Y037727D03*
X010933Y037767D03*
X010933Y037772D03*
X010933Y037777D03*
X010933Y037782D03*
X010933Y037787D03*
X010933Y037792D03*
X010933Y037797D03*
X010933Y037802D03*
X010933Y037807D03*
X010933Y037812D03*
X010933Y037917D03*
X010933Y037922D03*
X010933Y037927D03*
X010933Y037932D03*
X010933Y037937D03*
X010933Y037942D03*
X010933Y037947D03*
X010933Y037952D03*
X010938Y037992D03*
X010938Y037997D03*
X010938Y038002D03*
X010938Y038007D03*
X010943Y038042D03*
X010943Y038047D03*
X010948Y038072D03*
X010948Y038077D03*
X010953Y038107D03*
X010958Y038132D03*
X010963Y038152D03*
X010978Y038212D03*
X009628Y036127D03*
X009618Y036082D03*
X009613Y036062D03*
X009608Y036037D03*
X009603Y036012D03*
X009598Y035987D03*
X009598Y035982D03*
X009593Y035957D03*
X009593Y035952D03*
X009588Y035927D03*
X009588Y035922D03*
X009583Y035892D03*
X009583Y035887D03*
X009578Y035857D03*
X009578Y035852D03*
X009578Y035847D03*
X009573Y035817D03*
X009573Y035812D03*
X009573Y035807D03*
X009568Y035777D03*
X009568Y035772D03*
X009568Y035767D03*
X009563Y035732D03*
X009563Y035727D03*
X009563Y035722D03*
X009563Y035717D03*
X009563Y035712D03*
X009558Y035677D03*
X009558Y035672D03*
X009558Y035667D03*
X009558Y035662D03*
X009558Y035657D03*
X009553Y035622D03*
X009553Y035617D03*
X009553Y035612D03*
X009553Y035607D03*
X009553Y035602D03*
X009553Y035597D03*
X009553Y035592D03*
X009548Y035542D03*
X009548Y035537D03*
X009548Y035532D03*
X009548Y035527D03*
X009548Y035522D03*
X009548Y035517D03*
X009543Y035462D03*
X009543Y035457D03*
X009543Y035452D03*
X009543Y035447D03*
X009543Y035442D03*
X009543Y035437D03*
X009543Y035432D03*
X009543Y035427D03*
X009543Y035422D03*
X009543Y035417D03*
X009538Y035352D03*
X009538Y035347D03*
X009538Y035342D03*
X009538Y035337D03*
X009538Y035332D03*
X009538Y035327D03*
X009538Y035322D03*
X009538Y035317D03*
X009538Y035312D03*
X009538Y035307D03*
X009538Y035302D03*
X009538Y035297D03*
X009538Y035292D03*
X009533Y035207D03*
X009533Y035202D03*
X009533Y035197D03*
X009533Y035192D03*
X009533Y035187D03*
X009533Y035182D03*
X009533Y035177D03*
X009533Y035172D03*
X009533Y035167D03*
X009533Y035162D03*
X009533Y035157D03*
X009533Y035152D03*
X009533Y035147D03*
X009528Y035062D03*
X009528Y035057D03*
X009528Y035052D03*
X009528Y035047D03*
X009528Y035042D03*
X009528Y035037D03*
X009528Y035032D03*
X009528Y035027D03*
X009528Y035022D03*
X009528Y035017D03*
X009528Y035012D03*
X009528Y035007D03*
X009528Y035002D03*
X009523Y034932D03*
X009523Y034927D03*
X009523Y034922D03*
X009523Y034917D03*
X009523Y034912D03*
X009523Y034907D03*
X009523Y034902D03*
X009523Y034897D03*
X009523Y034892D03*
X009523Y034887D03*
X009523Y034882D03*
X009518Y034822D03*
X009518Y034817D03*
X009518Y034812D03*
X009518Y034807D03*
X009518Y034802D03*
X009518Y034797D03*
X009518Y034792D03*
X009518Y034787D03*
X009513Y034737D03*
X009513Y034732D03*
X009513Y034727D03*
X009513Y034722D03*
X009513Y034717D03*
X009513Y034712D03*
X009513Y034707D03*
X009508Y034667D03*
X009508Y034662D03*
X009508Y034657D03*
X009508Y034652D03*
X009508Y034647D03*
X009503Y034607D03*
X009503Y034602D03*
X009503Y034597D03*
X009503Y034592D03*
X009503Y034587D03*
X009498Y034557D03*
X009498Y034552D03*
X009498Y034547D03*
X009498Y034542D03*
X009493Y034512D03*
X009493Y034507D03*
X009493Y034502D03*
X009488Y034467D03*
X009488Y034462D03*
X009488Y034457D03*
X009483Y034432D03*
X009483Y034427D03*
X009483Y034422D03*
X009478Y034397D03*
X009478Y034392D03*
X009473Y034362D03*
X009468Y034337D03*
X009468Y034332D03*
X009463Y034307D03*
X009458Y034282D03*
X009453Y034257D03*
X009448Y034232D03*
X009443Y034212D03*
X009438Y034192D03*
X009433Y034172D03*
X009428Y034152D03*
X009418Y034117D03*
X010953Y033907D03*
X010953Y033902D03*
X010953Y033897D03*
X010948Y033867D03*
X010948Y033862D03*
X010943Y033832D03*
X010943Y033827D03*
X010938Y033797D03*
X010938Y033792D03*
X010933Y033762D03*
X010933Y033757D03*
X010928Y033727D03*
X010928Y033722D03*
X010923Y033692D03*
X010923Y033687D03*
X010923Y033682D03*
X010918Y033657D03*
X010918Y033652D03*
X010918Y033647D03*
X010913Y033622D03*
X010913Y033617D03*
X010913Y033612D03*
X010908Y033587D03*
X010908Y033582D03*
X010908Y033577D03*
X010903Y033547D03*
X010903Y033542D03*
X010898Y033512D03*
X010898Y033507D03*
X010893Y033477D03*
X010893Y033472D03*
X010658Y033177D03*
X010658Y033172D03*
X010663Y033147D03*
X010663Y033142D03*
X010668Y033117D03*
X010668Y033112D03*
X010673Y033087D03*
X010673Y033082D03*
X010678Y033057D03*
X010683Y033037D03*
X011243Y032852D03*
X011278Y032982D03*
X010958Y033932D03*
X010958Y033937D03*
X010958Y033942D03*
X010963Y033967D03*
X010963Y033972D03*
X010963Y033977D03*
X010968Y034002D03*
X010968Y034007D03*
X010968Y034012D03*
X010973Y034042D03*
X010973Y034047D03*
X010978Y034077D03*
X010978Y034082D03*
X010983Y034112D03*
X010983Y034117D03*
X010988Y034147D03*
X010988Y034152D03*
X010993Y034182D03*
X010993Y034187D03*
X010998Y034217D03*
X010998Y034222D03*
X010998Y034227D03*
X011003Y034252D03*
X011003Y034257D03*
X011003Y034262D03*
X011008Y034287D03*
X011008Y034292D03*
X011008Y034297D03*
X011013Y034322D03*
X011013Y034327D03*
X011013Y034332D03*
X011018Y034362D03*
X011018Y034367D03*
X011023Y034397D03*
X011023Y034402D03*
X011028Y034432D03*
X011028Y034437D03*
X011033Y034467D03*
X011033Y034472D03*
X011043Y034537D03*
X013153Y032837D03*
D34*
X012678Y032837D03*
X012768Y033177D03*
X011258Y033017D03*
X011778Y034632D03*
X010973Y036597D03*
X010768Y037187D03*
X010978Y037232D03*
X012038Y039067D03*
X012903Y038182D03*
X013933Y037377D03*
X013468Y036517D03*
X013468Y036502D03*
X013468Y036497D03*
D35*
X013011Y035672D03*
X012516Y035677D03*
X010711Y037017D03*
X010746Y037182D03*
X012016Y039062D03*
X013111Y038712D03*
X012821Y037922D03*
X012821Y037662D03*
X013936Y037637D03*
X012241Y033007D03*
X012656Y032842D03*
D36*
X012633Y032847D03*
X012263Y033012D03*
X011238Y033022D03*
X011398Y035472D03*
X010708Y036647D03*
X010733Y037012D03*
X011993Y039057D03*
X012803Y038152D03*
X013008Y038152D03*
X013818Y037932D03*
X013933Y037372D03*
X013798Y037167D03*
X013588Y039012D03*
D37*
X013533Y038162D03*
X013658Y038037D03*
X014083Y037942D03*
X013933Y037642D03*
X013933Y037367D03*
X013543Y036362D03*
X013033Y035677D03*
X011258Y036652D03*
X010683Y036652D03*
X010683Y037167D03*
X010703Y037172D03*
X011953Y039047D03*
X011973Y039052D03*
X012768Y033182D03*
X012613Y032852D03*
X012283Y033017D03*
X011193Y033032D03*
D38*
X011176Y033037D03*
X011156Y033042D03*
X012306Y033022D03*
X012571Y032862D03*
X012591Y032857D03*
X013061Y036457D03*
X012906Y037232D03*
X012821Y037652D03*
X012821Y037932D03*
X013021Y038732D03*
X013136Y038702D03*
X010666Y037162D03*
X010756Y037007D03*
D39*
X010646Y037157D03*
X010646Y036662D03*
X011406Y035477D03*
X013051Y035682D03*
X013701Y037197D03*
X013896Y037197D03*
X013366Y038332D03*
X013331Y038342D03*
X013146Y038697D03*
X013436Y038972D03*
X013451Y038977D03*
X011916Y039037D03*
X011896Y039032D03*
X010706Y033187D03*
X011101Y033057D03*
X011121Y033052D03*
X012341Y033032D03*
X012361Y033037D03*
X012501Y032882D03*
X012536Y032872D03*
D40*
X012518Y032877D03*
X012483Y032887D03*
X012378Y033042D03*
X012013Y033472D03*
X011963Y033457D03*
X011898Y033437D03*
X011848Y033422D03*
X011783Y033402D03*
X011733Y033387D03*
X011668Y033367D03*
X011618Y033352D03*
X011553Y033332D03*
X011503Y033317D03*
X011438Y033297D03*
X011338Y033267D03*
X011083Y033062D03*
X011068Y033067D03*
X011328Y034252D03*
X011198Y035417D03*
X011213Y035422D03*
X011233Y035427D03*
X011248Y035432D03*
X011268Y035437D03*
X011283Y035442D03*
X011298Y035447D03*
X011318Y035452D03*
X011333Y035457D03*
X011353Y035462D03*
X011008Y036057D03*
X011273Y036657D03*
X010793Y036997D03*
X010628Y037152D03*
X010628Y036667D03*
X010118Y036882D03*
X012783Y037267D03*
X013028Y037267D03*
X013543Y038157D03*
X013378Y038327D03*
X013073Y038767D03*
X013418Y038967D03*
X013518Y038997D03*
X013533Y039002D03*
X013608Y039022D03*
X014093Y037937D03*
X013933Y037362D03*
X013068Y035687D03*
X011878Y039027D03*
D41*
X012801Y038292D03*
X012816Y038287D03*
X012831Y038282D03*
X012851Y038277D03*
X012866Y038272D03*
X012881Y038267D03*
X012896Y038262D03*
X012916Y038257D03*
X012931Y038252D03*
X012946Y038247D03*
X012961Y038242D03*
X012981Y038237D03*
X012996Y038232D03*
X013011Y038227D03*
X013026Y038222D03*
X013046Y038217D03*
X013061Y038212D03*
X013076Y038207D03*
X013091Y038202D03*
X013111Y038197D03*
X013126Y038192D03*
X013141Y038187D03*
X013156Y038182D03*
X013176Y038177D03*
X013191Y038172D03*
X013206Y038167D03*
X013221Y038162D03*
X013241Y038157D03*
X013256Y038152D03*
X013271Y038147D03*
X013286Y038142D03*
X013036Y038147D03*
X012821Y037937D03*
X012821Y037647D03*
X013646Y038042D03*
X013906Y037897D03*
X013156Y038692D03*
X013081Y038772D03*
X013551Y039007D03*
X011346Y036687D03*
X011346Y036682D03*
X011291Y036662D03*
X010826Y036987D03*
X010811Y036992D03*
X010611Y037147D03*
X010596Y037142D03*
X010611Y036672D03*
X011601Y033347D03*
X011586Y033342D03*
X011571Y033337D03*
X011536Y033327D03*
X011521Y033322D03*
X011486Y033312D03*
X011471Y033307D03*
X011456Y033302D03*
X011421Y033292D03*
X011406Y033287D03*
X011636Y033357D03*
X011651Y033362D03*
X011686Y033372D03*
X011701Y033377D03*
X011716Y033382D03*
X011751Y033392D03*
X011766Y033397D03*
X011801Y033407D03*
X011816Y033412D03*
X011831Y033417D03*
X011866Y033427D03*
X011881Y033432D03*
X011916Y033442D03*
X011931Y033447D03*
X011946Y033452D03*
X011981Y033462D03*
X011996Y033467D03*
X012031Y033477D03*
X012046Y033482D03*
X012061Y033487D03*
X012396Y033047D03*
X012451Y032897D03*
X012466Y032892D03*
X012766Y033187D03*
X011051Y033072D03*
X011036Y033077D03*
X010701Y033192D03*
D42*
X010988Y033092D03*
X011003Y033087D03*
X011018Y033082D03*
X012408Y033052D03*
X012403Y032912D03*
X012418Y032907D03*
X012433Y032902D03*
X012868Y034962D03*
X013088Y035692D03*
X013103Y035697D03*
X012493Y035687D03*
X013558Y036357D03*
X013933Y037652D03*
X013693Y037897D03*
X013103Y038272D03*
X013208Y038472D03*
X013208Y038477D03*
X013208Y038482D03*
X013208Y038487D03*
X013168Y038687D03*
X013088Y038777D03*
X013403Y038962D03*
X012773Y038147D03*
X011863Y039022D03*
X011848Y039017D03*
X010578Y037137D03*
X010563Y037132D03*
X010593Y036677D03*
X011308Y036667D03*
X011323Y036672D03*
X011338Y036677D03*
D43*
X010856Y036977D03*
X010841Y036982D03*
X010546Y037127D03*
X010581Y036682D03*
X010116Y036887D03*
X011026Y036062D03*
X011191Y035412D03*
X011411Y035482D03*
X013046Y036462D03*
X013301Y038137D03*
X013321Y038347D03*
X013206Y038492D03*
X013016Y038737D03*
X013096Y038782D03*
X013386Y038957D03*
X013616Y039027D03*
X012791Y038297D03*
X011831Y039012D03*
X011816Y039007D03*
X011801Y039002D03*
X010941Y033107D03*
X010956Y033102D03*
X010971Y033097D03*
X012326Y032937D03*
X012341Y032932D03*
X012356Y032927D03*
X012371Y032922D03*
X012386Y032917D03*
X012426Y033057D03*
X012441Y033062D03*
X012456Y033067D03*
D44*
X011786Y032937D03*
X010841Y037202D03*
X012906Y037237D03*
X013766Y038012D03*
D45*
X013553Y038152D03*
X013388Y038322D03*
X013053Y038142D03*
X013178Y038682D03*
X013103Y038787D03*
X013373Y038952D03*
X011788Y038997D03*
X011773Y038992D03*
X012763Y037272D03*
X013048Y037272D03*
X013678Y037202D03*
X013918Y037202D03*
X013988Y037222D03*
X013933Y037357D03*
X013493Y036522D03*
X013118Y035702D03*
X012248Y035802D03*
X011178Y036837D03*
X010873Y036972D03*
X010533Y037122D03*
X010518Y037117D03*
X010503Y037112D03*
X010548Y036692D03*
X010563Y036687D03*
X010693Y033197D03*
X010883Y033127D03*
X010898Y033122D03*
X010913Y033117D03*
X010928Y033112D03*
X012068Y033492D03*
X012238Y032967D03*
X012253Y032962D03*
X012268Y032957D03*
X012283Y032952D03*
X012298Y032947D03*
X012313Y032942D03*
X012468Y033072D03*
X012483Y033077D03*
X012498Y033082D03*
D46*
X011783Y032942D03*
D47*
X011778Y032952D03*
X012058Y034857D03*
X010968Y036627D03*
D48*
X011781Y032957D03*
D49*
X011781Y032962D03*
X012411Y034677D03*
X010591Y036017D03*
D50*
X011778Y032967D03*
D51*
X011831Y032972D03*
D52*
X011498Y032977D03*
X009988Y037032D03*
X013798Y037907D03*
D53*
X013556Y039057D03*
X012121Y032982D03*
D54*
X011453Y032982D03*
X011398Y034242D03*
X012898Y034517D03*
X010333Y037072D03*
X012903Y038172D03*
X013438Y039072D03*
D55*
X013596Y039047D03*
X013756Y038017D03*
X012906Y038177D03*
X012146Y039087D03*
X011231Y036642D03*
X010721Y036007D03*
X011346Y033282D03*
X012136Y032987D03*
D56*
X011398Y032987D03*
X012778Y035632D03*
X010973Y036602D03*
X013798Y037912D03*
X013368Y039082D03*
D57*
X013943Y037972D03*
X013798Y037172D03*
X010963Y037227D03*
X010758Y036637D03*
X011968Y034172D03*
X012168Y032992D03*
X011358Y032997D03*
D58*
X011378Y032992D03*
X012898Y034502D03*
X013798Y037177D03*
X013503Y039062D03*
X010953Y037222D03*
D59*
X010816Y037197D03*
X010686Y037022D03*
X010956Y036047D03*
X012576Y035667D03*
X012981Y035667D03*
X011341Y033277D03*
X012196Y032997D03*
X012821Y037917D03*
X013786Y038007D03*
X013881Y037987D03*
X013906Y037982D03*
X014001Y037962D03*
X014026Y037957D03*
D60*
X014071Y037947D03*
X013671Y038032D03*
X012821Y037667D03*
X013076Y036452D03*
X013466Y036507D03*
X013466Y036512D03*
X011246Y036647D03*
X010731Y036642D03*
X010791Y037192D03*
X011391Y035467D03*
X011281Y033012D03*
X011306Y033007D03*
X012221Y033002D03*
D61*
X011341Y033272D03*
X011216Y033027D03*
X010986Y036052D03*
X010726Y037177D03*
X012821Y037657D03*
X012821Y037927D03*
X013126Y038262D03*
X013146Y038257D03*
X013166Y038252D03*
X013191Y038247D03*
X013211Y038242D03*
X013231Y038237D03*
X013251Y038232D03*
X013271Y038227D03*
X013291Y038222D03*
X013311Y038217D03*
X013331Y038212D03*
X013351Y038207D03*
X013371Y038202D03*
X013391Y038197D03*
X013411Y038192D03*
X013436Y038187D03*
X013456Y038182D03*
X013476Y038177D03*
X013496Y038172D03*
X013516Y038167D03*
X013121Y038707D03*
X013461Y036492D03*
D62*
X013376Y035832D03*
X013366Y035827D03*
X013361Y035822D03*
X013351Y035817D03*
X013346Y035812D03*
X013336Y035807D03*
X012461Y035702D03*
X012291Y035762D03*
X012221Y035807D03*
X012211Y035812D03*
X012206Y035817D03*
X012196Y035822D03*
X012191Y035827D03*
X012181Y035832D03*
X012176Y035837D03*
X012101Y035887D03*
X012041Y035787D03*
X012041Y035782D03*
X012041Y035777D03*
X011876Y035782D03*
X011876Y035787D03*
X011801Y035952D03*
X012146Y036052D03*
X012146Y036057D03*
X012486Y035432D03*
X012491Y035422D03*
X012491Y035417D03*
X012876Y034982D03*
X012746Y033207D03*
X012971Y033097D03*
X012976Y033092D03*
X012986Y033087D03*
X011056Y034502D03*
X011126Y036107D03*
X011136Y036112D03*
X010971Y036362D03*
X010986Y036372D03*
X010996Y036377D03*
X011001Y036382D03*
X011011Y036387D03*
X011016Y036392D03*
X011026Y036397D03*
X011031Y036402D03*
X011041Y036407D03*
X011046Y036412D03*
X011061Y036422D03*
X010946Y036347D03*
X011326Y036602D03*
X011326Y036607D03*
X011326Y036727D03*
X011291Y036752D03*
X011276Y036762D03*
X011261Y036772D03*
X011256Y036777D03*
X011246Y036782D03*
X011241Y036787D03*
X011231Y036792D03*
X011216Y036802D03*
X011026Y037247D03*
X011416Y038812D03*
X011431Y038822D03*
X011446Y038832D03*
X011461Y038842D03*
X012266Y038177D03*
X012656Y038092D03*
X012666Y038097D03*
X012671Y038102D03*
X012756Y037912D03*
X012886Y037912D03*
X012881Y037672D03*
X012761Y037672D03*
X012661Y037322D03*
X012666Y037317D03*
X012676Y037312D03*
X013136Y037312D03*
X013151Y037322D03*
X013456Y037392D03*
X013456Y037397D03*
X013596Y037242D03*
X013611Y037232D03*
X014011Y037247D03*
X013996Y037857D03*
X013601Y037857D03*
X013571Y038142D03*
X013636Y038347D03*
X013536Y038442D03*
X013501Y038467D03*
X013446Y038507D03*
X013391Y038547D03*
X013356Y038572D03*
X013301Y038612D03*
X013271Y038632D03*
X013121Y038742D03*
X013166Y038832D03*
X013176Y038837D03*
X013241Y038887D03*
X013251Y038892D03*
X013256Y038897D03*
X012866Y038662D03*
X012841Y038647D03*
X012826Y038637D03*
X012801Y038622D03*
X012786Y038612D03*
X012771Y038602D03*
X012756Y038592D03*
X012741Y038582D03*
X012726Y038572D03*
X012711Y038562D03*
X012696Y038552D03*
X012676Y038537D03*
X012661Y038527D03*
X013146Y038097D03*
X013161Y038087D03*
D63*
X013068Y038137D03*
X013308Y038132D03*
X013633Y038047D03*
X013673Y037892D03*
X013933Y037657D03*
X014103Y037932D03*
X013993Y037227D03*
X013798Y037162D03*
X013663Y037207D03*
X013063Y037277D03*
X012748Y037277D03*
X012743Y038137D03*
X013198Y038672D03*
X013108Y038792D03*
X013113Y038797D03*
X013358Y038947D03*
X011733Y038977D03*
X011718Y038972D03*
X010913Y036957D03*
X010938Y036947D03*
X011183Y036832D03*
X011188Y036827D03*
X011298Y036622D03*
X012113Y035867D03*
X012258Y035792D03*
X013158Y035717D03*
X010688Y033202D03*
X010738Y033182D03*
X010753Y033177D03*
X010763Y033172D03*
X010778Y033167D03*
X010803Y033157D03*
X012538Y033097D03*
X012553Y033102D03*
X012563Y033107D03*
X012818Y033172D03*
X012828Y033167D03*
X010508Y036707D03*
X010498Y036712D03*
X010483Y036717D03*
X010438Y037087D03*
X010463Y037097D03*
X010113Y036892D03*
D64*
X010101Y036907D03*
X010091Y036912D03*
X010081Y036917D03*
X010071Y036922D03*
X010056Y036932D03*
X010046Y036937D03*
X010036Y036942D03*
X010021Y036952D03*
X010011Y036957D03*
X010001Y036962D03*
X009976Y036977D03*
X009966Y036982D03*
X009956Y036987D03*
X009941Y036997D03*
X009931Y037002D03*
X009921Y037007D03*
X009896Y037022D03*
X009886Y037027D03*
X010156Y036877D03*
X010161Y036872D03*
X010171Y036867D03*
X010181Y036862D03*
X010191Y036857D03*
X010201Y036852D03*
X010256Y036822D03*
X010266Y036817D03*
X010276Y036812D03*
X010821Y036277D03*
X010831Y036282D03*
X010841Y036287D03*
X010851Y036292D03*
X010861Y036297D03*
X010866Y036302D03*
X010876Y036307D03*
X010886Y036312D03*
X010896Y036317D03*
X010921Y036332D03*
X011101Y036092D03*
X011331Y036587D03*
X011331Y036592D03*
X011366Y036692D03*
X011211Y036807D03*
X011141Y036847D03*
X011116Y036862D03*
X011106Y036867D03*
X011096Y036872D03*
X011086Y036877D03*
X011791Y035972D03*
X011796Y035962D03*
X011936Y035967D03*
X011936Y035972D03*
X011871Y035807D03*
X012041Y035802D03*
X012041Y035797D03*
X012041Y035792D03*
X012106Y035882D03*
X012146Y036042D03*
X012146Y036047D03*
X012281Y035772D03*
X012476Y035457D03*
X012481Y035452D03*
X012481Y035447D03*
X012701Y034697D03*
X011721Y034682D03*
X011296Y034257D03*
X011056Y034497D03*
X011176Y035402D03*
X011426Y035492D03*
X013266Y035767D03*
X013276Y035772D03*
X013286Y035777D03*
X013296Y035782D03*
X013631Y037222D03*
X013621Y037227D03*
X013466Y037362D03*
X013466Y037367D03*
X013461Y037372D03*
X013461Y037377D03*
X013881Y037382D03*
X013986Y037382D03*
X013981Y037867D03*
X013971Y037872D03*
X014116Y037927D03*
X013636Y037877D03*
X013626Y037872D03*
X013621Y038052D03*
X013636Y038352D03*
X013306Y038357D03*
X013086Y038282D03*
X013111Y038117D03*
X013121Y038112D03*
X012776Y038307D03*
X012696Y038117D03*
X012256Y038157D03*
X012256Y038162D03*
X012251Y038152D03*
X012916Y038692D03*
X012941Y038707D03*
X013011Y038747D03*
X013021Y038752D03*
X013031Y038757D03*
X013151Y038822D03*
X013281Y038912D03*
X013291Y038917D03*
X013301Y038922D03*
X013236Y038652D03*
X013246Y038647D03*
X012691Y037302D03*
X012701Y037297D03*
X011566Y038902D03*
X011556Y038897D03*
X011546Y038892D03*
X011536Y038887D03*
X011521Y038877D03*
X011511Y038872D03*
X009691Y033692D03*
X009701Y033687D03*
X009711Y033682D03*
X009816Y033627D03*
X009826Y033622D03*
X009836Y033617D03*
X009846Y033612D03*
X009941Y033562D03*
X009951Y033557D03*
X009961Y033552D03*
X009971Y033547D03*
X010106Y033477D03*
X010116Y033472D03*
X010126Y033467D03*
X012926Y033122D03*
X012936Y033117D03*
X012946Y033112D03*
D65*
X012918Y033127D03*
X012908Y033132D03*
X012753Y033202D03*
X012713Y033172D03*
X011723Y034687D03*
X012473Y035467D03*
X012473Y035697D03*
X012148Y036037D03*
X011788Y035977D03*
X011333Y036577D03*
X011333Y036582D03*
X011203Y036812D03*
X011078Y036882D03*
X011068Y036887D03*
X011058Y036892D03*
X011048Y036897D03*
X011038Y036902D03*
X011028Y036907D03*
X010813Y036272D03*
X010803Y036267D03*
X010793Y036262D03*
X010783Y036257D03*
X010773Y036252D03*
X010763Y036247D03*
X010753Y036242D03*
X010743Y036237D03*
X010733Y036232D03*
X010723Y036227D03*
X010713Y036222D03*
X010703Y036217D03*
X011093Y036087D03*
X010288Y036807D03*
X010248Y036827D03*
X010238Y036832D03*
X010228Y036837D03*
X010218Y036842D03*
X010208Y036847D03*
X011058Y034492D03*
X010913Y033442D03*
X010398Y033332D03*
X010388Y033337D03*
X010183Y033437D03*
X010173Y033442D03*
X010163Y033447D03*
X010153Y033452D03*
X010143Y033457D03*
X010133Y033462D03*
X010098Y033482D03*
X010088Y033487D03*
X010078Y033492D03*
X010068Y033497D03*
X010058Y033502D03*
X010048Y033507D03*
X010038Y033512D03*
X010028Y033517D03*
X010018Y033522D03*
X010008Y033527D03*
X009998Y033532D03*
X009988Y033537D03*
X009978Y033542D03*
X009933Y033567D03*
X009923Y033572D03*
X009913Y033577D03*
X009903Y033582D03*
X009893Y033587D03*
X009883Y033592D03*
X009873Y033597D03*
X009863Y033602D03*
X009853Y033607D03*
X009808Y033632D03*
X009798Y033637D03*
X009788Y033642D03*
X009778Y033647D03*
X009768Y033652D03*
X009758Y033657D03*
X009748Y033662D03*
X009738Y033667D03*
X009728Y033672D03*
X009718Y033677D03*
X009683Y033697D03*
X009673Y033702D03*
X009663Y033707D03*
X009653Y033712D03*
X009643Y033717D03*
X009633Y033722D03*
X009623Y033727D03*
X009613Y033732D03*
X009603Y033737D03*
X009593Y033742D03*
X009583Y033747D03*
X009573Y033752D03*
X009563Y033757D03*
X009553Y033762D03*
X009543Y033767D03*
X009533Y033772D03*
X009523Y033777D03*
X009513Y033782D03*
X009503Y033787D03*
X009493Y033792D03*
X009483Y033797D03*
X009473Y033802D03*
X009463Y033807D03*
X009453Y033812D03*
X009443Y033817D03*
X009433Y033822D03*
X009423Y033827D03*
X009413Y033832D03*
X009403Y033837D03*
X009393Y033842D03*
X009383Y033847D03*
X009373Y033852D03*
X009363Y033857D03*
X009343Y033867D03*
X012713Y037292D03*
X012818Y037637D03*
X013098Y037292D03*
X013108Y037297D03*
X013638Y037217D03*
X013958Y037217D03*
X014003Y037237D03*
X013963Y037877D03*
X013103Y038122D03*
X013188Y038497D03*
X013228Y038657D03*
X013143Y038817D03*
X013038Y038762D03*
X012718Y038127D03*
X012708Y038122D03*
X012248Y038147D03*
X011593Y038917D03*
X011583Y038912D03*
X011573Y038907D03*
X013228Y035747D03*
X013238Y035752D03*
X013248Y035757D03*
X013258Y035762D03*
X012873Y034977D03*
D66*
X013183Y035727D03*
X013193Y035732D03*
X013573Y036352D03*
X013428Y036487D03*
X013998Y037232D03*
X013933Y037352D03*
X013938Y037887D03*
X013658Y037887D03*
X013563Y038147D03*
X013633Y038362D03*
X013628Y038367D03*
X013623Y038372D03*
X013618Y038377D03*
X013613Y038382D03*
X013608Y038392D03*
X013603Y038397D03*
X013598Y038402D03*
X013593Y038407D03*
X013218Y038662D03*
X013208Y038667D03*
X013128Y038807D03*
X013333Y038937D03*
X013083Y038132D03*
X012728Y038132D03*
X012723Y037287D03*
X012733Y037282D03*
X012268Y035782D03*
X011183Y035407D03*
X011068Y036077D03*
X010628Y036182D03*
X010618Y036177D03*
X010573Y036157D03*
X010563Y036152D03*
X010553Y036147D03*
X010538Y036142D03*
X010528Y036137D03*
X010518Y036132D03*
X010508Y036127D03*
X010493Y036122D03*
X010483Y036117D03*
X010473Y036112D03*
X010448Y036102D03*
X010433Y036737D03*
X010423Y036742D03*
X010413Y036747D03*
X010403Y036752D03*
X010368Y036767D03*
X010413Y037077D03*
X010963Y036937D03*
X010973Y036932D03*
X010983Y036927D03*
X011193Y036822D03*
X011063Y034482D03*
X010918Y033437D03*
X010953Y033422D03*
X011013Y033397D03*
X011048Y033382D03*
X011083Y033367D03*
X011143Y033342D03*
X011178Y033327D03*
X011213Y033312D03*
X011273Y033287D03*
X010643Y033222D03*
X010618Y033232D03*
X010608Y033237D03*
X010583Y033247D03*
X010573Y033252D03*
X010563Y033257D03*
X010538Y033267D03*
X010528Y033272D03*
X010518Y033277D03*
X010483Y033292D03*
X010473Y033297D03*
X010463Y033302D03*
X012613Y033127D03*
X012623Y033132D03*
X012638Y033137D03*
X012648Y033142D03*
X012658Y033147D03*
X012758Y033197D03*
X012853Y033157D03*
X012863Y033152D03*
X011648Y038942D03*
X011658Y038947D03*
D67*
X013253Y038457D03*
X013798Y037937D03*
X013028Y037092D03*
X012838Y036332D03*
X013393Y036267D03*
X012513Y035327D03*
X012043Y035712D03*
X011888Y035712D03*
X011888Y035717D03*
X012138Y036112D03*
X012138Y036117D03*
X011448Y035507D03*
X011038Y034547D03*
X011328Y033247D03*
X013688Y039077D03*
D68*
X013406Y039077D03*
X012211Y039097D03*
X010941Y037217D03*
X010806Y036632D03*
X011211Y036637D03*
X012901Y034522D03*
X011941Y034177D03*
D69*
X011913Y034182D03*
X013798Y037192D03*
X012903Y038162D03*
D70*
X011886Y034187D03*
D71*
X011856Y034192D03*
X011631Y034212D03*
D72*
X011688Y034207D03*
X011743Y034202D03*
X011798Y034197D03*
X011573Y034217D03*
X011518Y034222D03*
D73*
X011478Y034227D03*
X012778Y035642D03*
D74*
X011448Y034232D03*
X010548Y037037D03*
D75*
X012906Y038167D03*
X013801Y037187D03*
X013331Y039087D03*
X011416Y034237D03*
D76*
X012898Y034507D03*
X012898Y034512D03*
X013798Y037917D03*
X013473Y039067D03*
D77*
X013681Y039072D03*
X013591Y038132D03*
X013601Y038062D03*
X013936Y037667D03*
X014141Y037917D03*
X013396Y036482D03*
X013601Y036342D03*
X013001Y036477D03*
X012141Y036107D03*
X012046Y035722D03*
X012046Y035717D03*
X011886Y035722D03*
X011886Y035727D03*
X012881Y034997D03*
X011041Y034542D03*
X012751Y038322D03*
D78*
X013281Y038372D03*
X013346Y038107D03*
X013701Y036437D03*
X012136Y036122D03*
X012046Y035707D03*
X012046Y035702D03*
X011876Y034952D03*
X011036Y034552D03*
X012881Y035002D03*
X009941Y037027D03*
D79*
X011938Y036052D03*
X012138Y036127D03*
X012048Y035697D03*
X011888Y035702D03*
X011888Y035707D03*
X011033Y034557D03*
X013058Y038297D03*
X013158Y038507D03*
X013428Y038297D03*
X013693Y039082D03*
D80*
X013701Y039087D03*
X012746Y038327D03*
X011291Y036697D03*
X012136Y036137D03*
X012136Y036132D03*
X012046Y035692D03*
X012046Y035687D03*
X011891Y035692D03*
X011891Y035697D03*
X011871Y034957D03*
X011031Y034567D03*
X011031Y034562D03*
X013391Y036112D03*
D81*
X011923Y034642D03*
X010968Y036617D03*
D82*
X012001Y034647D03*
D83*
X012076Y034652D03*
D84*
X012146Y034657D03*
D85*
X012226Y034662D03*
X012726Y039117D03*
D86*
X012721Y039122D03*
X012266Y034667D03*
D87*
X012338Y034672D03*
X010258Y037047D03*
D88*
X012778Y035657D03*
X012483Y034682D03*
D89*
X012556Y034687D03*
D90*
X011926Y034852D03*
X012906Y037247D03*
D91*
X012191Y034862D03*
D92*
X012248Y034867D03*
D93*
X012253Y034872D03*
D94*
X012256Y034877D03*
D95*
X012258Y034882D03*
D96*
X012338Y034887D03*
D97*
X012478Y034892D03*
D98*
X012508Y035322D03*
X012048Y035682D03*
X011893Y035682D03*
X011893Y035687D03*
X013023Y037097D03*
X013603Y038127D03*
X014148Y037912D03*
D99*
X013798Y037922D03*
X013088Y036447D03*
X012798Y035627D03*
D100*
X012778Y035637D03*
X011178Y036632D03*
D101*
X012781Y035647D03*
D102*
X012778Y035652D03*
D103*
X012616Y035662D03*
X012941Y035662D03*
X012906Y037242D03*
X013056Y038727D03*
X013571Y039052D03*
X012176Y039092D03*
D104*
X010573Y036012D03*
D105*
X010606Y036022D03*
D106*
X010618Y036027D03*
D107*
X010626Y036032D03*
D108*
X010636Y036037D03*
D109*
X010646Y036042D03*
D110*
X010898Y037212D03*
X013108Y036442D03*
X013138Y036437D03*
X013168Y036432D03*
X013198Y036427D03*
X013228Y036422D03*
X013258Y036417D03*
X013373Y036397D03*
X013403Y036392D03*
X013433Y036387D03*
X013463Y036382D03*
X013493Y036377D03*
X013958Y037967D03*
D111*
X012906Y038157D03*
X010971Y036607D03*
D112*
X010971Y036612D03*
X012701Y039147D03*
D113*
X010971Y036622D03*
D114*
X010616Y037032D03*
X013056Y038722D03*
D115*
X010093Y037037D03*
D116*
X010268Y037042D03*
D117*
X010246Y037052D03*
D118*
X010228Y037057D03*
D119*
X010213Y037062D03*
D120*
X010293Y037067D03*
D121*
X012903Y037252D03*
X013288Y039092D03*
D122*
X013246Y039097D03*
X012906Y037257D03*
D123*
X012906Y037262D03*
D124*
X013801Y037902D03*
D125*
X012253Y039102D03*
D126*
X013143Y039107D03*
D127*
X012298Y039107D03*
D128*
X012361Y039112D03*
D129*
X012721Y039127D03*
D130*
X012713Y039132D03*
D131*
X012711Y039137D03*
D132*
X012706Y039142D03*
D133*
X013939Y032489D02*
X013937Y032487D01*
X013937Y032484D01*
X013939Y032482D01*
X013944Y032482D01*
X013947Y032482D02*
X013947Y032487D01*
X013948Y032489D01*
X013950Y032487D01*
X013950Y032482D01*
X013953Y032482D02*
X013953Y032489D01*
X013952Y032489D01*
X013950Y032487D01*
X013956Y032487D02*
X013958Y032489D01*
X013963Y032489D01*
X013963Y032492D02*
X013963Y032482D01*
X013958Y032482D01*
X013956Y032484D01*
X013956Y032487D01*
X013965Y032484D02*
X013965Y032482D01*
X013967Y032482D01*
X013967Y032484D01*
X013965Y032484D01*
X013970Y032482D02*
X013970Y032492D01*
X013976Y032492D02*
X013976Y032482D01*
X013973Y032486D01*
X013970Y032482D01*
X013979Y032484D02*
X013981Y032482D01*
X013986Y032482D01*
X013986Y032492D01*
X013981Y032492D01*
X013979Y032491D01*
X013979Y032489D01*
X013981Y032487D01*
X013986Y032487D01*
X013988Y032487D02*
X013995Y032487D01*
X013997Y032482D02*
X014004Y032482D01*
X014004Y032492D01*
X014006Y032491D02*
X014008Y032492D01*
X014012Y032492D01*
X014013Y032491D01*
X014013Y032484D01*
X014012Y032482D01*
X014008Y032482D01*
X014006Y032484D01*
X014006Y032491D01*
X014016Y032492D02*
X014022Y032482D01*
X014025Y032484D02*
X014025Y032487D01*
X014027Y032489D01*
X014030Y032489D01*
X014032Y032487D01*
X014032Y032484D01*
X014030Y032482D01*
X014027Y032482D01*
X014025Y032484D01*
X014034Y032482D02*
X014039Y032482D01*
X014041Y032484D01*
X014041Y032487D01*
X014039Y032489D01*
X014034Y032489D01*
X014034Y032481D01*
X014036Y032479D01*
X014037Y032479D01*
X014043Y032484D02*
X014043Y032487D01*
X014045Y032489D01*
X014048Y032489D01*
X014050Y032487D01*
X014050Y032484D01*
X014048Y032482D01*
X014045Y032482D01*
X014043Y032484D01*
X014053Y032482D02*
X014059Y032482D01*
X014059Y032492D01*
X014062Y032492D02*
X014068Y032482D01*
X014071Y032484D02*
X014073Y032482D01*
X014076Y032482D01*
X014078Y032484D01*
X014080Y032482D02*
X014087Y032482D01*
X014089Y032484D02*
X014091Y032482D01*
X014094Y032482D01*
X014096Y032484D01*
X014089Y032491D01*
X014089Y032484D01*
X014087Y032489D02*
X014083Y032492D01*
X014083Y032482D01*
X014078Y032487D02*
X014074Y032489D01*
X014073Y032489D01*
X014071Y032487D01*
X014071Y032484D01*
X014078Y032487D02*
X014078Y032492D01*
X014071Y032492D01*
X014089Y032491D02*
X014091Y032492D01*
X014094Y032492D01*
X014096Y032491D01*
X014096Y032484D01*
X014099Y032482D02*
X014105Y032482D01*
X014099Y032489D01*
X014099Y032491D01*
X014100Y032492D01*
X014104Y032492D01*
X014105Y032491D01*
X014108Y032492D02*
X014114Y032482D01*
X014117Y032486D02*
X014117Y032492D01*
X014117Y032486D02*
X014120Y032482D01*
X014124Y032486D01*
X014124Y032492D01*
X014126Y032492D02*
X014133Y032492D01*
X014133Y032482D01*
X014126Y032482D01*
X014130Y032487D02*
X014133Y032487D01*
X014135Y032492D02*
X014142Y032482D01*
X014145Y032482D02*
X014151Y032489D01*
X014154Y032487D02*
X014155Y032489D01*
X014159Y032489D01*
X014160Y032487D01*
X014160Y032484D01*
X014159Y032482D01*
X014155Y032482D01*
X014154Y032484D01*
X014154Y032487D01*
X014151Y032482D02*
X014145Y032489D01*
X014163Y032487D02*
X014165Y032489D01*
X014170Y032489D01*
X014172Y032487D02*
X014172Y032484D01*
X014174Y032482D01*
X014179Y032482D01*
X014179Y032479D02*
X014179Y032489D01*
X014174Y032489D01*
X014172Y032487D01*
X014170Y032482D02*
X014165Y032482D01*
X014163Y032484D01*
X014163Y032487D01*
X014170Y032492D02*
X014170Y032482D01*
X014181Y032484D02*
X014181Y032487D01*
X014183Y032489D01*
X014186Y032489D01*
X014188Y032487D01*
X014188Y032484D01*
X014186Y032482D01*
X014183Y032482D01*
X014181Y032484D01*
X014191Y032489D02*
X014192Y032489D01*
X014196Y032486D01*
X014198Y032484D02*
X014198Y032491D01*
X014200Y032492D01*
X014205Y032492D01*
X014205Y032482D01*
X014200Y032482D01*
X014198Y032484D01*
X014196Y032482D02*
X014196Y032489D01*
X014208Y032492D02*
X014214Y032482D01*
X014217Y032482D02*
X014219Y032482D01*
X014219Y032484D01*
X014217Y032484D01*
X014217Y032482D01*
X014221Y032484D02*
X014221Y032491D01*
X014223Y032492D01*
X014228Y032492D01*
X014228Y032482D01*
X014223Y032482D01*
X014221Y032484D01*
X014219Y032487D02*
X014219Y032489D01*
X014217Y032489D01*
X014217Y032487D01*
X014219Y032487D01*
X013981Y032487D02*
X013979Y032486D01*
X013979Y032484D01*
X013944Y032479D02*
X013944Y032489D01*
X013939Y032489D01*
D134*
X006260Y004452D02*
X006260Y062452D01*
X035260Y062452D01*
X035260Y004452D01*
X006260Y004452D01*
M02*
