G75*
G70*
%OFA0B0*%
%FSLAX25Y25*%
%IPPOS*%
%LPD*%
%AMOC8*
5,1,8,0,0,1.08239X$1,22.5*
%
%ADD309C,0.01600*%
%ADD878C,0.04000*%
%ADD956C,0.05000*%
X0020000Y0020000D02*
G75*
%LPD*%
D309*
X0020000Y0020000D02*
X0020000Y0600000D01*
X0310000Y0600000D01*
X0310000Y0020000D01*
X0020000Y0020000D01*
D956*
X0040000Y0570000D02*
X0290000Y0570000D01*
X0290000Y0584000D02*
X0040000Y0584000D01*
D878*
X0189570Y0106000D02*
X0303000Y0106000D01*
X0184390Y0099790D02*
X0184390Y0031220D01*
X0020000Y0612500D02*
G75*
%LPD*%
D309*
X0020000Y0612500D02*
X0020000Y1192500D01*
X0310000Y1192500D01*
X0310000Y0612500D01*
X0020000Y0612500D01*
D956*
X0040000Y1162500D02*
X0290000Y1162500D01*
X0290000Y1176500D02*
X0040000Y1176500D01*
D878*
X0189570Y0698500D02*
X0303000Y0698500D01*
X0184390Y0692290D02*
X0184390Y0623720D01*
X0322500Y0020000D02*
G75*
%LPD*%
D309*
X0322500Y0020000D02*
X0322500Y0600000D01*
X0612500Y0600000D01*
X0612500Y0020000D01*
X0322500Y0020000D01*
D956*
X0342500Y0570000D02*
X0592500Y0570000D01*
X0592500Y0584000D02*
X0342500Y0584000D01*
D878*
X0492070Y0106000D02*
X0605500Y0106000D01*
X0486890Y0099790D02*
X0486890Y0031220D01*
X0322500Y0612500D02*
G75*
%LPD*%
D309*
X0322500Y0612500D02*
X0322500Y1192500D01*
X0612500Y1192500D01*
X0612500Y0612500D01*
X0322500Y0612500D01*
D956*
X0342500Y1162500D02*
X0592500Y1162500D01*
X0592500Y1176500D02*
X0342500Y1176500D01*
D878*
X0492070Y0698500D02*
X0605500Y0698500D01*
X0486890Y0692290D02*
X0486890Y0623720D01*
X0625000Y0020000D02*
G75*
%LPD*%
D309*
X0625000Y0020000D02*
X0625000Y0600000D01*
X0915000Y0600000D01*
X0915000Y0020000D01*
X0625000Y0020000D01*
D956*
X0645000Y0570000D02*
X0895000Y0570000D01*
X0895000Y0584000D02*
X0645000Y0584000D01*
D878*
X0794570Y0106000D02*
X0908000Y0106000D01*
X0789390Y0099790D02*
X0789390Y0031220D01*
X0927500Y0020000D02*
G75*
%LPD*%
D309*
X0927500Y0020000D02*
X0927500Y0600000D01*
X1217500Y0600000D01*
X1217500Y0020000D01*
X0927500Y0020000D01*
D956*
X0947500Y0570000D02*
X1197500Y0570000D01*
X1197500Y0584000D02*
X0947500Y0584000D01*
D878*
X1097070Y0106000D02*
X1210500Y0106000D01*
X1091890Y0099790D02*
X1091890Y0031220D01*
X1230000Y0020000D02*
G75*
%LPD*%
D309*
X1230000Y0020000D02*
X1230000Y0600000D01*
X1520000Y0600000D01*
X1520000Y0020000D01*
X1230000Y0020000D01*
D956*
X1250000Y0570000D02*
X1500000Y0570000D01*
X1500000Y0584000D02*
X1250000Y0584000D01*
D878*
X1399570Y0106000D02*
X1513000Y0106000D01*
X1394390Y0099790D02*
X1394390Y0031220D01*
X0625000Y0612500D02*
G75*
%LPD*%
D309*
X0625000Y0612500D02*
X0625000Y1192500D01*
X0915000Y1192500D01*
X0915000Y0612500D01*
X0625000Y0612500D01*
D956*
X0645000Y1162500D02*
X0895000Y1162500D01*
X0895000Y1176500D02*
X0645000Y1176500D01*
D878*
X0794570Y0698500D02*
X0908000Y0698500D01*
X0789390Y0692290D02*
X0789390Y0623720D01*
X0927500Y0612500D02*
G75*
%LPD*%
D309*
X0927500Y0612500D02*
X0927500Y1192500D01*
X1217500Y1192500D01*
X1217500Y0612500D01*
X0927500Y0612500D01*
D956*
X0947500Y1162500D02*
X1197500Y1162500D01*
X1197500Y1176500D02*
X0947500Y1176500D01*
D878*
X1097070Y0698500D02*
X1210500Y0698500D01*
X1091890Y0692290D02*
X1091890Y0623720D01*
X1230000Y0612500D02*
G75*
%LPD*%
D309*
X1230000Y0612500D02*
X1230000Y1192500D01*
X1520000Y1192500D01*
X1520000Y0612500D01*
X1230000Y0612500D01*
D956*
X1250000Y1162500D02*
X1500000Y1162500D01*
X1500000Y1176500D02*
X1250000Y1176500D01*
D878*
X1399570Y0698500D02*
X1513000Y0698500D01*
X1394390Y0692290D02*
X1394390Y0623720D01*
M02*
