G75*
G70*
%OFA0B0*%
%FSLAX25Y25*%
%IPPOS*%
%LPD*%
%AMOC8*
5,1,8,0,0,1.08239X$1,22.5*
%
%ADD12R,0.05920X0.06710*%
%ADD151R,0.07100X0.07890*%
%ADD30R,0.06310X0.05130*%
%ADD329R,0.08800X0.03400*%
%ADD427C,0.07200*%
%ADD499R,0.03950X0.05520*%
%ADD571R,0.06740X0.06740*%
%ADD587R,0.04340X0.05520*%
%ADD680R,0.06710X0.05920*%
%ADD717R,0.05130X0.06310*%
%ADD728R,0.05520X0.03950*%
%ADD788C,0.06740*%
%ADD841OC8,0.08200*%
X0020000Y0020000D02*
G75*
%LPD*%
D680*
X0074000Y0223660D03*
X0074000Y0230350D03*
X0098000Y0230350D03*
X0098000Y0223660D03*
X0143400Y0223860D03*
X0143400Y0230550D03*
X0196710Y0230720D03*
X0196710Y0224020D03*
X0242160Y0224390D03*
X0242160Y0231080D03*
X0299000Y0189150D03*
X0299000Y0182460D03*
D427*
X0035430Y0127820D02*
X0029030Y0127820D01*
X0030030Y0137820D02*
X0036430Y0137820D01*
X0035430Y0147820D02*
X0029030Y0147820D01*
X0030030Y0157820D02*
X0036430Y0157820D01*
X0035430Y0167820D02*
X0029030Y0167820D01*
D728*
X0044630Y0135960D03*
X0044630Y0128880D03*
X0245420Y0053020D03*
X0245420Y0045930D03*
D12*
X0174580Y0148220D03*
X0167880Y0148220D03*
X0170210Y0179190D03*
X0163510Y0179190D03*
X0262450Y0174600D03*
X0269140Y0174600D03*
X0273650Y0527000D03*
X0280340Y0527000D03*
X0228340Y0528000D03*
X0221650Y0528000D03*
X0177340Y0530000D03*
X0170650Y0530000D03*
X0130340Y0529000D03*
X0123650Y0529000D03*
X0079340Y0528000D03*
X0072650Y0528000D03*
D329*
X0172310Y0043830D03*
X0172310Y0038830D03*
X0172310Y0033830D03*
X0172310Y0028830D03*
X0196510Y0028830D03*
X0196510Y0033830D03*
X0196510Y0038830D03*
X0196510Y0043830D03*
D151*
X0270660Y0075880D03*
X0281680Y0075880D03*
D30*
X0271180Y0053690D03*
X0271180Y0045820D03*
X0155550Y0203720D03*
X0155550Y0211600D03*
X0125300Y0212600D03*
X0125300Y0204720D03*
X0119090Y0252780D03*
X0119090Y0260650D03*
X0171810Y0262150D03*
X0171810Y0254280D03*
X0221030Y0257280D03*
X0221030Y0265150D03*
X0280230Y0253230D03*
X0280230Y0245360D03*
X0225460Y0444220D03*
X0225460Y0452100D03*
X0264010Y0452420D03*
X0264010Y0460300D03*
X0267110Y0504560D03*
X0267110Y0512430D03*
X0226210Y0509780D03*
X0226210Y0517650D03*
X0177930Y0516650D03*
X0177930Y0508780D03*
X0177420Y0452100D03*
X0177420Y0444220D03*
X0124500Y0440570D03*
X0124500Y0448440D03*
X0076870Y0450600D03*
X0076870Y0442720D03*
X0067000Y0505070D03*
X0067000Y0512940D03*
X0122660Y0513650D03*
X0122660Y0505780D03*
X0064500Y0254440D03*
X0064500Y0246570D03*
X0062750Y0194600D03*
X0062750Y0186720D03*
D587*
X0062820Y0201530D03*
X0057820Y0201530D03*
X0057820Y0226730D03*
X0062820Y0226730D03*
X0113140Y0220130D03*
X0118140Y0220130D03*
X0118140Y0245330D03*
X0113140Y0245330D03*
X0166400Y0244370D03*
X0171400Y0244370D03*
X0171400Y0219180D03*
X0166400Y0219180D03*
X0207680Y0220680D03*
X0212680Y0220680D03*
X0212680Y0245870D03*
X0207680Y0245870D03*
X0275310Y0236330D03*
X0280310Y0236330D03*
X0280310Y0211130D03*
X0275310Y0211130D03*
X0263930Y0469280D03*
X0258930Y0469280D03*
X0258930Y0494470D03*
X0263930Y0494470D03*
X0226000Y0494370D03*
X0221000Y0494370D03*
X0221000Y0469180D03*
X0226000Y0469180D03*
X0177780Y0469180D03*
X0172780Y0469180D03*
X0172780Y0494370D03*
X0177780Y0494370D03*
X0124550Y0494370D03*
X0119550Y0494370D03*
X0119550Y0469180D03*
X0124550Y0469180D03*
X0071630Y0468410D03*
X0066630Y0468410D03*
X0066630Y0493600D03*
X0071630Y0493600D03*
D717*
X0253720Y0212440D03*
X0261590Y0212440D03*
X0174290Y0205590D03*
X0166420Y0205590D03*
D841*
X0229000Y0156400D03*
X0229000Y0146400D03*
X0239000Y0146400D03*
X0239000Y0156400D03*
X0239000Y0136400D03*
X0239000Y0126400D03*
X0229000Y0126400D03*
X0229000Y0136400D03*
X0260000Y0135000D03*
X0270000Y0135000D03*
X0270000Y0125000D03*
X0260000Y0125000D03*
X0260000Y0145000D03*
X0260000Y0155000D03*
X0270000Y0155000D03*
X0270000Y0145000D03*
X0290000Y0145000D03*
X0290000Y0155000D03*
X0300000Y0155000D03*
X0300000Y0145000D03*
X0300000Y0135000D03*
X0300000Y0125000D03*
X0290000Y0125000D03*
X0290000Y0135000D03*
D788*
X0257550Y0074100D03*
X0257550Y0064100D03*
X0257550Y0054100D03*
X0257550Y0044100D03*
D571*
X0257550Y0034100D03*
D499*
X0225270Y0027720D03*
X0218180Y0027720D03*
X0020000Y0612500D02*
G75*
%LPD*%
D680*
X0074000Y0816160D03*
X0074000Y0822850D03*
X0098000Y0822850D03*
X0098000Y0816160D03*
X0143400Y0816360D03*
X0143400Y0823050D03*
X0196710Y0823220D03*
X0196710Y0816520D03*
X0242160Y0816890D03*
X0242160Y0823580D03*
X0299000Y0781650D03*
X0299000Y0774960D03*
D427*
X0035430Y0720320D02*
X0029030Y0720320D01*
X0030030Y0730320D02*
X0036430Y0730320D01*
X0035430Y0740320D02*
X0029030Y0740320D01*
X0030030Y0750320D02*
X0036430Y0750320D01*
X0035430Y0760320D02*
X0029030Y0760320D01*
D728*
X0044630Y0728460D03*
X0044630Y0721380D03*
X0245420Y0645520D03*
X0245420Y0638430D03*
D12*
X0174580Y0740720D03*
X0167880Y0740720D03*
X0170210Y0771690D03*
X0163510Y0771690D03*
X0262450Y0767100D03*
X0269140Y0767100D03*
X0273650Y1119500D03*
X0280340Y1119500D03*
X0228340Y1120500D03*
X0221650Y1120500D03*
X0177340Y1122500D03*
X0170650Y1122500D03*
X0130340Y1121500D03*
X0123650Y1121500D03*
X0079340Y1120500D03*
X0072650Y1120500D03*
D329*
X0172310Y0636330D03*
X0172310Y0631330D03*
X0172310Y0626330D03*
X0172310Y0621330D03*
X0196510Y0621330D03*
X0196510Y0626330D03*
X0196510Y0631330D03*
X0196510Y0636330D03*
D151*
X0270660Y0668380D03*
X0281680Y0668380D03*
D30*
X0271180Y0646190D03*
X0271180Y0638320D03*
X0155550Y0796220D03*
X0155550Y0804100D03*
X0125300Y0805100D03*
X0125300Y0797220D03*
X0119090Y0845280D03*
X0119090Y0853150D03*
X0171810Y0854650D03*
X0171810Y0846780D03*
X0221030Y0849780D03*
X0221030Y0857650D03*
X0280230Y0845730D03*
X0280230Y0837860D03*
X0225460Y1036720D03*
X0225460Y1044600D03*
X0264010Y1044920D03*
X0264010Y1052800D03*
X0267110Y1097060D03*
X0267110Y1104930D03*
X0226210Y1102280D03*
X0226210Y1110150D03*
X0177930Y1109150D03*
X0177930Y1101280D03*
X0177420Y1044600D03*
X0177420Y1036720D03*
X0124500Y1033070D03*
X0124500Y1040940D03*
X0076870Y1043100D03*
X0076870Y1035220D03*
X0067000Y1097570D03*
X0067000Y1105440D03*
X0122660Y1106150D03*
X0122660Y1098280D03*
X0064500Y0846940D03*
X0064500Y0839070D03*
X0062750Y0787100D03*
X0062750Y0779220D03*
D587*
X0062820Y0794030D03*
X0057820Y0794030D03*
X0057820Y0819230D03*
X0062820Y0819230D03*
X0113140Y0812630D03*
X0118140Y0812630D03*
X0118140Y0837830D03*
X0113140Y0837830D03*
X0166400Y0836870D03*
X0171400Y0836870D03*
X0171400Y0811680D03*
X0166400Y0811680D03*
X0207680Y0813180D03*
X0212680Y0813180D03*
X0212680Y0838370D03*
X0207680Y0838370D03*
X0275310Y0828830D03*
X0280310Y0828830D03*
X0280310Y0803630D03*
X0275310Y0803630D03*
X0263930Y1061780D03*
X0258930Y1061780D03*
X0258930Y1086970D03*
X0263930Y1086970D03*
X0226000Y1086870D03*
X0221000Y1086870D03*
X0221000Y1061680D03*
X0226000Y1061680D03*
X0177780Y1061680D03*
X0172780Y1061680D03*
X0172780Y1086870D03*
X0177780Y1086870D03*
X0124550Y1086870D03*
X0119550Y1086870D03*
X0119550Y1061680D03*
X0124550Y1061680D03*
X0071630Y1060910D03*
X0066630Y1060910D03*
X0066630Y1086100D03*
X0071630Y1086100D03*
D717*
X0253720Y0804940D03*
X0261590Y0804940D03*
X0174290Y0798090D03*
X0166420Y0798090D03*
D841*
X0229000Y0748900D03*
X0229000Y0738900D03*
X0239000Y0738900D03*
X0239000Y0748900D03*
X0239000Y0728900D03*
X0239000Y0718900D03*
X0229000Y0718900D03*
X0229000Y0728900D03*
X0260000Y0727500D03*
X0270000Y0727500D03*
X0270000Y0717500D03*
X0260000Y0717500D03*
X0260000Y0737500D03*
X0260000Y0747500D03*
X0270000Y0747500D03*
X0270000Y0737500D03*
X0290000Y0737500D03*
X0290000Y0747500D03*
X0300000Y0747500D03*
X0300000Y0737500D03*
X0300000Y0727500D03*
X0300000Y0717500D03*
X0290000Y0717500D03*
X0290000Y0727500D03*
D788*
X0257550Y0666600D03*
X0257550Y0656600D03*
X0257550Y0646600D03*
X0257550Y0636600D03*
D571*
X0257550Y0626600D03*
D499*
X0225270Y0620220D03*
X0218180Y0620220D03*
X0322500Y0020000D02*
G75*
%LPD*%
D680*
X0376500Y0223660D03*
X0376500Y0230350D03*
X0400500Y0230350D03*
X0400500Y0223660D03*
X0445900Y0223860D03*
X0445900Y0230550D03*
X0499210Y0230720D03*
X0499210Y0224020D03*
X0544660Y0224390D03*
X0544660Y0231080D03*
X0601500Y0189150D03*
X0601500Y0182460D03*
D427*
X0337930Y0127820D02*
X0331530Y0127820D01*
X0332530Y0137820D02*
X0338930Y0137820D01*
X0337930Y0147820D02*
X0331530Y0147820D01*
X0332530Y0157820D02*
X0338930Y0157820D01*
X0337930Y0167820D02*
X0331530Y0167820D01*
D728*
X0347130Y0135960D03*
X0347130Y0128880D03*
X0547920Y0053020D03*
X0547920Y0045930D03*
D12*
X0477080Y0148220D03*
X0470380Y0148220D03*
X0472710Y0179190D03*
X0466010Y0179190D03*
X0564950Y0174600D03*
X0571640Y0174600D03*
X0576150Y0527000D03*
X0582840Y0527000D03*
X0530840Y0528000D03*
X0524150Y0528000D03*
X0479840Y0530000D03*
X0473150Y0530000D03*
X0432840Y0529000D03*
X0426150Y0529000D03*
X0381840Y0528000D03*
X0375150Y0528000D03*
D329*
X0474810Y0043830D03*
X0474810Y0038830D03*
X0474810Y0033830D03*
X0474810Y0028830D03*
X0499010Y0028830D03*
X0499010Y0033830D03*
X0499010Y0038830D03*
X0499010Y0043830D03*
D151*
X0573160Y0075880D03*
X0584180Y0075880D03*
D30*
X0573680Y0053690D03*
X0573680Y0045820D03*
X0458050Y0203720D03*
X0458050Y0211600D03*
X0427800Y0212600D03*
X0427800Y0204720D03*
X0421590Y0252780D03*
X0421590Y0260650D03*
X0474310Y0262150D03*
X0474310Y0254280D03*
X0523530Y0257280D03*
X0523530Y0265150D03*
X0582730Y0253230D03*
X0582730Y0245360D03*
X0527960Y0444220D03*
X0527960Y0452100D03*
X0566510Y0452420D03*
X0566510Y0460300D03*
X0569610Y0504560D03*
X0569610Y0512430D03*
X0528710Y0509780D03*
X0528710Y0517650D03*
X0480430Y0516650D03*
X0480430Y0508780D03*
X0479920Y0452100D03*
X0479920Y0444220D03*
X0427000Y0440570D03*
X0427000Y0448440D03*
X0379370Y0450600D03*
X0379370Y0442720D03*
X0369500Y0505070D03*
X0369500Y0512940D03*
X0425160Y0513650D03*
X0425160Y0505780D03*
X0367000Y0254440D03*
X0367000Y0246570D03*
X0365250Y0194600D03*
X0365250Y0186720D03*
D587*
X0365320Y0201530D03*
X0360320Y0201530D03*
X0360320Y0226730D03*
X0365320Y0226730D03*
X0415640Y0220130D03*
X0420640Y0220130D03*
X0420640Y0245330D03*
X0415640Y0245330D03*
X0468900Y0244370D03*
X0473900Y0244370D03*
X0473900Y0219180D03*
X0468900Y0219180D03*
X0510180Y0220680D03*
X0515180Y0220680D03*
X0515180Y0245870D03*
X0510180Y0245870D03*
X0577810Y0236330D03*
X0582810Y0236330D03*
X0582810Y0211130D03*
X0577810Y0211130D03*
X0566430Y0469280D03*
X0561430Y0469280D03*
X0561430Y0494470D03*
X0566430Y0494470D03*
X0528500Y0494370D03*
X0523500Y0494370D03*
X0523500Y0469180D03*
X0528500Y0469180D03*
X0480280Y0469180D03*
X0475280Y0469180D03*
X0475280Y0494370D03*
X0480280Y0494370D03*
X0427050Y0494370D03*
X0422050Y0494370D03*
X0422050Y0469180D03*
X0427050Y0469180D03*
X0374130Y0468410D03*
X0369130Y0468410D03*
X0369130Y0493600D03*
X0374130Y0493600D03*
D717*
X0556220Y0212440D03*
X0564090Y0212440D03*
X0476790Y0205590D03*
X0468920Y0205590D03*
D841*
X0531500Y0156400D03*
X0531500Y0146400D03*
X0541500Y0146400D03*
X0541500Y0156400D03*
X0541500Y0136400D03*
X0541500Y0126400D03*
X0531500Y0126400D03*
X0531500Y0136400D03*
X0562500Y0135000D03*
X0572500Y0135000D03*
X0572500Y0125000D03*
X0562500Y0125000D03*
X0562500Y0145000D03*
X0562500Y0155000D03*
X0572500Y0155000D03*
X0572500Y0145000D03*
X0592500Y0145000D03*
X0592500Y0155000D03*
X0602500Y0155000D03*
X0602500Y0145000D03*
X0602500Y0135000D03*
X0602500Y0125000D03*
X0592500Y0125000D03*
X0592500Y0135000D03*
D788*
X0560050Y0074100D03*
X0560050Y0064100D03*
X0560050Y0054100D03*
X0560050Y0044100D03*
D571*
X0560050Y0034100D03*
D499*
X0527770Y0027720D03*
X0520680Y0027720D03*
X0322500Y0612500D02*
G75*
%LPD*%
D680*
X0376500Y0816160D03*
X0376500Y0822850D03*
X0400500Y0822850D03*
X0400500Y0816160D03*
X0445900Y0816360D03*
X0445900Y0823050D03*
X0499210Y0823220D03*
X0499210Y0816520D03*
X0544660Y0816890D03*
X0544660Y0823580D03*
X0601500Y0781650D03*
X0601500Y0774960D03*
D427*
X0337930Y0720320D02*
X0331530Y0720320D01*
X0332530Y0730320D02*
X0338930Y0730320D01*
X0337930Y0740320D02*
X0331530Y0740320D01*
X0332530Y0750320D02*
X0338930Y0750320D01*
X0337930Y0760320D02*
X0331530Y0760320D01*
D728*
X0347130Y0728460D03*
X0347130Y0721380D03*
X0547920Y0645520D03*
X0547920Y0638430D03*
D12*
X0477080Y0740720D03*
X0470380Y0740720D03*
X0472710Y0771690D03*
X0466010Y0771690D03*
X0564950Y0767100D03*
X0571640Y0767100D03*
X0576150Y1119500D03*
X0582840Y1119500D03*
X0530840Y1120500D03*
X0524150Y1120500D03*
X0479840Y1122500D03*
X0473150Y1122500D03*
X0432840Y1121500D03*
X0426150Y1121500D03*
X0381840Y1120500D03*
X0375150Y1120500D03*
D329*
X0474810Y0636330D03*
X0474810Y0631330D03*
X0474810Y0626330D03*
X0474810Y0621330D03*
X0499010Y0621330D03*
X0499010Y0626330D03*
X0499010Y0631330D03*
X0499010Y0636330D03*
D151*
X0573160Y0668380D03*
X0584180Y0668380D03*
D30*
X0573680Y0646190D03*
X0573680Y0638320D03*
X0458050Y0796220D03*
X0458050Y0804100D03*
X0427800Y0805100D03*
X0427800Y0797220D03*
X0421590Y0845280D03*
X0421590Y0853150D03*
X0474310Y0854650D03*
X0474310Y0846780D03*
X0523530Y0849780D03*
X0523530Y0857650D03*
X0582730Y0845730D03*
X0582730Y0837860D03*
X0527960Y1036720D03*
X0527960Y1044600D03*
X0566510Y1044920D03*
X0566510Y1052800D03*
X0569610Y1097060D03*
X0569610Y1104930D03*
X0528710Y1102280D03*
X0528710Y1110150D03*
X0480430Y1109150D03*
X0480430Y1101280D03*
X0479920Y1044600D03*
X0479920Y1036720D03*
X0427000Y1033070D03*
X0427000Y1040940D03*
X0379370Y1043100D03*
X0379370Y1035220D03*
X0369500Y1097570D03*
X0369500Y1105440D03*
X0425160Y1106150D03*
X0425160Y1098280D03*
X0367000Y0846940D03*
X0367000Y0839070D03*
X0365250Y0787100D03*
X0365250Y0779220D03*
D587*
X0365320Y0794030D03*
X0360320Y0794030D03*
X0360320Y0819230D03*
X0365320Y0819230D03*
X0415640Y0812630D03*
X0420640Y0812630D03*
X0420640Y0837830D03*
X0415640Y0837830D03*
X0468900Y0836870D03*
X0473900Y0836870D03*
X0473900Y0811680D03*
X0468900Y0811680D03*
X0510180Y0813180D03*
X0515180Y0813180D03*
X0515180Y0838370D03*
X0510180Y0838370D03*
X0577810Y0828830D03*
X0582810Y0828830D03*
X0582810Y0803630D03*
X0577810Y0803630D03*
X0566430Y1061780D03*
X0561430Y1061780D03*
X0561430Y1086970D03*
X0566430Y1086970D03*
X0528500Y1086870D03*
X0523500Y1086870D03*
X0523500Y1061680D03*
X0528500Y1061680D03*
X0480280Y1061680D03*
X0475280Y1061680D03*
X0475280Y1086870D03*
X0480280Y1086870D03*
X0427050Y1086870D03*
X0422050Y1086870D03*
X0422050Y1061680D03*
X0427050Y1061680D03*
X0374130Y1060910D03*
X0369130Y1060910D03*
X0369130Y1086100D03*
X0374130Y1086100D03*
D717*
X0556220Y0804940D03*
X0564090Y0804940D03*
X0476790Y0798090D03*
X0468920Y0798090D03*
D841*
X0531500Y0748900D03*
X0531500Y0738900D03*
X0541500Y0738900D03*
X0541500Y0748900D03*
X0541500Y0728900D03*
X0541500Y0718900D03*
X0531500Y0718900D03*
X0531500Y0728900D03*
X0562500Y0727500D03*
X0572500Y0727500D03*
X0572500Y0717500D03*
X0562500Y0717500D03*
X0562500Y0737500D03*
X0562500Y0747500D03*
X0572500Y0747500D03*
X0572500Y0737500D03*
X0592500Y0737500D03*
X0592500Y0747500D03*
X0602500Y0747500D03*
X0602500Y0737500D03*
X0602500Y0727500D03*
X0602500Y0717500D03*
X0592500Y0717500D03*
X0592500Y0727500D03*
D788*
X0560050Y0666600D03*
X0560050Y0656600D03*
X0560050Y0646600D03*
X0560050Y0636600D03*
D571*
X0560050Y0626600D03*
D499*
X0527770Y0620220D03*
X0520680Y0620220D03*
X0625000Y0020000D02*
G75*
%LPD*%
D680*
X0679000Y0223660D03*
X0679000Y0230350D03*
X0703000Y0230350D03*
X0703000Y0223660D03*
X0748400Y0223860D03*
X0748400Y0230550D03*
X0801710Y0230720D03*
X0801710Y0224020D03*
X0847160Y0224390D03*
X0847160Y0231080D03*
X0904000Y0189150D03*
X0904000Y0182460D03*
D427*
X0640430Y0127820D02*
X0634030Y0127820D01*
X0635030Y0137820D02*
X0641430Y0137820D01*
X0640430Y0147820D02*
X0634030Y0147820D01*
X0635030Y0157820D02*
X0641430Y0157820D01*
X0640430Y0167820D02*
X0634030Y0167820D01*
D728*
X0649630Y0135960D03*
X0649630Y0128880D03*
X0850420Y0053020D03*
X0850420Y0045930D03*
D12*
X0779580Y0148220D03*
X0772880Y0148220D03*
X0775210Y0179190D03*
X0768510Y0179190D03*
X0867450Y0174600D03*
X0874140Y0174600D03*
X0878650Y0527000D03*
X0885340Y0527000D03*
X0833340Y0528000D03*
X0826650Y0528000D03*
X0782340Y0530000D03*
X0775650Y0530000D03*
X0735340Y0529000D03*
X0728650Y0529000D03*
X0684340Y0528000D03*
X0677650Y0528000D03*
D329*
X0777310Y0043830D03*
X0777310Y0038830D03*
X0777310Y0033830D03*
X0777310Y0028830D03*
X0801510Y0028830D03*
X0801510Y0033830D03*
X0801510Y0038830D03*
X0801510Y0043830D03*
D151*
X0875660Y0075880D03*
X0886680Y0075880D03*
D30*
X0876180Y0053690D03*
X0876180Y0045820D03*
X0760550Y0203720D03*
X0760550Y0211600D03*
X0730300Y0212600D03*
X0730300Y0204720D03*
X0724090Y0252780D03*
X0724090Y0260650D03*
X0776810Y0262150D03*
X0776810Y0254280D03*
X0826030Y0257280D03*
X0826030Y0265150D03*
X0885230Y0253230D03*
X0885230Y0245360D03*
X0830460Y0444220D03*
X0830460Y0452100D03*
X0869010Y0452420D03*
X0869010Y0460300D03*
X0872110Y0504560D03*
X0872110Y0512430D03*
X0831210Y0509780D03*
X0831210Y0517650D03*
X0782930Y0516650D03*
X0782930Y0508780D03*
X0782420Y0452100D03*
X0782420Y0444220D03*
X0729500Y0440570D03*
X0729500Y0448440D03*
X0681870Y0450600D03*
X0681870Y0442720D03*
X0672000Y0505070D03*
X0672000Y0512940D03*
X0727660Y0513650D03*
X0727660Y0505780D03*
X0669500Y0254440D03*
X0669500Y0246570D03*
X0667750Y0194600D03*
X0667750Y0186720D03*
D587*
X0667820Y0201530D03*
X0662820Y0201530D03*
X0662820Y0226730D03*
X0667820Y0226730D03*
X0718140Y0220130D03*
X0723140Y0220130D03*
X0723140Y0245330D03*
X0718140Y0245330D03*
X0771400Y0244370D03*
X0776400Y0244370D03*
X0776400Y0219180D03*
X0771400Y0219180D03*
X0812680Y0220680D03*
X0817680Y0220680D03*
X0817680Y0245870D03*
X0812680Y0245870D03*
X0880310Y0236330D03*
X0885310Y0236330D03*
X0885310Y0211130D03*
X0880310Y0211130D03*
X0868930Y0469280D03*
X0863930Y0469280D03*
X0863930Y0494470D03*
X0868930Y0494470D03*
X0831000Y0494370D03*
X0826000Y0494370D03*
X0826000Y0469180D03*
X0831000Y0469180D03*
X0782780Y0469180D03*
X0777780Y0469180D03*
X0777780Y0494370D03*
X0782780Y0494370D03*
X0729550Y0494370D03*
X0724550Y0494370D03*
X0724550Y0469180D03*
X0729550Y0469180D03*
X0676630Y0468410D03*
X0671630Y0468410D03*
X0671630Y0493600D03*
X0676630Y0493600D03*
D717*
X0858720Y0212440D03*
X0866590Y0212440D03*
X0779290Y0205590D03*
X0771420Y0205590D03*
D841*
X0834000Y0156400D03*
X0834000Y0146400D03*
X0844000Y0146400D03*
X0844000Y0156400D03*
X0844000Y0136400D03*
X0844000Y0126400D03*
X0834000Y0126400D03*
X0834000Y0136400D03*
X0865000Y0135000D03*
X0875000Y0135000D03*
X0875000Y0125000D03*
X0865000Y0125000D03*
X0865000Y0145000D03*
X0865000Y0155000D03*
X0875000Y0155000D03*
X0875000Y0145000D03*
X0895000Y0145000D03*
X0895000Y0155000D03*
X0905000Y0155000D03*
X0905000Y0145000D03*
X0905000Y0135000D03*
X0905000Y0125000D03*
X0895000Y0125000D03*
X0895000Y0135000D03*
D788*
X0862550Y0074100D03*
X0862550Y0064100D03*
X0862550Y0054100D03*
X0862550Y0044100D03*
D571*
X0862550Y0034100D03*
D499*
X0830270Y0027720D03*
X0823180Y0027720D03*
X0927500Y0020000D02*
G75*
%LPD*%
D680*
X0981500Y0223660D03*
X0981500Y0230350D03*
X1005500Y0230350D03*
X1005500Y0223660D03*
X1050900Y0223860D03*
X1050900Y0230550D03*
X1104210Y0230720D03*
X1104210Y0224020D03*
X1149660Y0224390D03*
X1149660Y0231080D03*
X1206500Y0189150D03*
X1206500Y0182460D03*
D427*
X0942930Y0127820D02*
X0936530Y0127820D01*
X0937530Y0137820D02*
X0943930Y0137820D01*
X0942930Y0147820D02*
X0936530Y0147820D01*
X0937530Y0157820D02*
X0943930Y0157820D01*
X0942930Y0167820D02*
X0936530Y0167820D01*
D728*
X0952130Y0135960D03*
X0952130Y0128880D03*
X1152920Y0053020D03*
X1152920Y0045930D03*
D12*
X1082080Y0148220D03*
X1075380Y0148220D03*
X1077710Y0179190D03*
X1071010Y0179190D03*
X1169950Y0174600D03*
X1176640Y0174600D03*
X1181150Y0527000D03*
X1187840Y0527000D03*
X1135840Y0528000D03*
X1129150Y0528000D03*
X1084840Y0530000D03*
X1078150Y0530000D03*
X1037840Y0529000D03*
X1031150Y0529000D03*
X0986840Y0528000D03*
X0980150Y0528000D03*
D329*
X1079810Y0043830D03*
X1079810Y0038830D03*
X1079810Y0033830D03*
X1079810Y0028830D03*
X1104010Y0028830D03*
X1104010Y0033830D03*
X1104010Y0038830D03*
X1104010Y0043830D03*
D151*
X1178160Y0075880D03*
X1189180Y0075880D03*
D30*
X1178680Y0053690D03*
X1178680Y0045820D03*
X1063050Y0203720D03*
X1063050Y0211600D03*
X1032800Y0212600D03*
X1032800Y0204720D03*
X1026590Y0252780D03*
X1026590Y0260650D03*
X1079310Y0262150D03*
X1079310Y0254280D03*
X1128530Y0257280D03*
X1128530Y0265150D03*
X1187730Y0253230D03*
X1187730Y0245360D03*
X1132960Y0444220D03*
X1132960Y0452100D03*
X1171510Y0452420D03*
X1171510Y0460300D03*
X1174610Y0504560D03*
X1174610Y0512430D03*
X1133710Y0509780D03*
X1133710Y0517650D03*
X1085430Y0516650D03*
X1085430Y0508780D03*
X1084920Y0452100D03*
X1084920Y0444220D03*
X1032000Y0440570D03*
X1032000Y0448440D03*
X0984370Y0450600D03*
X0984370Y0442720D03*
X0974500Y0505070D03*
X0974500Y0512940D03*
X1030160Y0513650D03*
X1030160Y0505780D03*
X0972000Y0254440D03*
X0972000Y0246570D03*
X0970250Y0194600D03*
X0970250Y0186720D03*
D587*
X0970320Y0201530D03*
X0965320Y0201530D03*
X0965320Y0226730D03*
X0970320Y0226730D03*
X1020640Y0220130D03*
X1025640Y0220130D03*
X1025640Y0245330D03*
X1020640Y0245330D03*
X1073900Y0244370D03*
X1078900Y0244370D03*
X1078900Y0219180D03*
X1073900Y0219180D03*
X1115180Y0220680D03*
X1120180Y0220680D03*
X1120180Y0245870D03*
X1115180Y0245870D03*
X1182810Y0236330D03*
X1187810Y0236330D03*
X1187810Y0211130D03*
X1182810Y0211130D03*
X1171430Y0469280D03*
X1166430Y0469280D03*
X1166430Y0494470D03*
X1171430Y0494470D03*
X1133500Y0494370D03*
X1128500Y0494370D03*
X1128500Y0469180D03*
X1133500Y0469180D03*
X1085280Y0469180D03*
X1080280Y0469180D03*
X1080280Y0494370D03*
X1085280Y0494370D03*
X1032050Y0494370D03*
X1027050Y0494370D03*
X1027050Y0469180D03*
X1032050Y0469180D03*
X0979130Y0468410D03*
X0974130Y0468410D03*
X0974130Y0493600D03*
X0979130Y0493600D03*
D717*
X1161220Y0212440D03*
X1169090Y0212440D03*
X1081790Y0205590D03*
X1073920Y0205590D03*
D841*
X1136500Y0156400D03*
X1136500Y0146400D03*
X1146500Y0146400D03*
X1146500Y0156400D03*
X1146500Y0136400D03*
X1146500Y0126400D03*
X1136500Y0126400D03*
X1136500Y0136400D03*
X1167500Y0135000D03*
X1177500Y0135000D03*
X1177500Y0125000D03*
X1167500Y0125000D03*
X1167500Y0145000D03*
X1167500Y0155000D03*
X1177500Y0155000D03*
X1177500Y0145000D03*
X1197500Y0145000D03*
X1197500Y0155000D03*
X1207500Y0155000D03*
X1207500Y0145000D03*
X1207500Y0135000D03*
X1207500Y0125000D03*
X1197500Y0125000D03*
X1197500Y0135000D03*
D788*
X1165050Y0074100D03*
X1165050Y0064100D03*
X1165050Y0054100D03*
X1165050Y0044100D03*
D571*
X1165050Y0034100D03*
D499*
X1132770Y0027720D03*
X1125680Y0027720D03*
X1230000Y0020000D02*
G75*
%LPD*%
D680*
X1284000Y0223660D03*
X1284000Y0230350D03*
X1308000Y0230350D03*
X1308000Y0223660D03*
X1353400Y0223860D03*
X1353400Y0230550D03*
X1406710Y0230720D03*
X1406710Y0224020D03*
X1452160Y0224390D03*
X1452160Y0231080D03*
X1509000Y0189150D03*
X1509000Y0182460D03*
D427*
X1245430Y0127820D02*
X1239030Y0127820D01*
X1240030Y0137820D02*
X1246430Y0137820D01*
X1245430Y0147820D02*
X1239030Y0147820D01*
X1240030Y0157820D02*
X1246430Y0157820D01*
X1245430Y0167820D02*
X1239030Y0167820D01*
D728*
X1254630Y0135960D03*
X1254630Y0128880D03*
X1455420Y0053020D03*
X1455420Y0045930D03*
D12*
X1384580Y0148220D03*
X1377880Y0148220D03*
X1380210Y0179190D03*
X1373510Y0179190D03*
X1472450Y0174600D03*
X1479140Y0174600D03*
X1483650Y0527000D03*
X1490340Y0527000D03*
X1438340Y0528000D03*
X1431650Y0528000D03*
X1387340Y0530000D03*
X1380650Y0530000D03*
X1340340Y0529000D03*
X1333650Y0529000D03*
X1289340Y0528000D03*
X1282650Y0528000D03*
D329*
X1382310Y0043830D03*
X1382310Y0038830D03*
X1382310Y0033830D03*
X1382310Y0028830D03*
X1406510Y0028830D03*
X1406510Y0033830D03*
X1406510Y0038830D03*
X1406510Y0043830D03*
D151*
X1480660Y0075880D03*
X1491680Y0075880D03*
D30*
X1481180Y0053690D03*
X1481180Y0045820D03*
X1365550Y0203720D03*
X1365550Y0211600D03*
X1335300Y0212600D03*
X1335300Y0204720D03*
X1329090Y0252780D03*
X1329090Y0260650D03*
X1381810Y0262150D03*
X1381810Y0254280D03*
X1431030Y0257280D03*
X1431030Y0265150D03*
X1490230Y0253230D03*
X1490230Y0245360D03*
X1435460Y0444220D03*
X1435460Y0452100D03*
X1474010Y0452420D03*
X1474010Y0460300D03*
X1477110Y0504560D03*
X1477110Y0512430D03*
X1436210Y0509780D03*
X1436210Y0517650D03*
X1387930Y0516650D03*
X1387930Y0508780D03*
X1387420Y0452100D03*
X1387420Y0444220D03*
X1334500Y0440570D03*
X1334500Y0448440D03*
X1286870Y0450600D03*
X1286870Y0442720D03*
X1277000Y0505070D03*
X1277000Y0512940D03*
X1332660Y0513650D03*
X1332660Y0505780D03*
X1274500Y0254440D03*
X1274500Y0246570D03*
X1272750Y0194600D03*
X1272750Y0186720D03*
D587*
X1272820Y0201530D03*
X1267820Y0201530D03*
X1267820Y0226730D03*
X1272820Y0226730D03*
X1323140Y0220130D03*
X1328140Y0220130D03*
X1328140Y0245330D03*
X1323140Y0245330D03*
X1376400Y0244370D03*
X1381400Y0244370D03*
X1381400Y0219180D03*
X1376400Y0219180D03*
X1417680Y0220680D03*
X1422680Y0220680D03*
X1422680Y0245870D03*
X1417680Y0245870D03*
X1485310Y0236330D03*
X1490310Y0236330D03*
X1490310Y0211130D03*
X1485310Y0211130D03*
X1473930Y0469280D03*
X1468930Y0469280D03*
X1468930Y0494470D03*
X1473930Y0494470D03*
X1436000Y0494370D03*
X1431000Y0494370D03*
X1431000Y0469180D03*
X1436000Y0469180D03*
X1387780Y0469180D03*
X1382780Y0469180D03*
X1382780Y0494370D03*
X1387780Y0494370D03*
X1334550Y0494370D03*
X1329550Y0494370D03*
X1329550Y0469180D03*
X1334550Y0469180D03*
X1281630Y0468410D03*
X1276630Y0468410D03*
X1276630Y0493600D03*
X1281630Y0493600D03*
D717*
X1463720Y0212440D03*
X1471590Y0212440D03*
X1384290Y0205590D03*
X1376420Y0205590D03*
D841*
X1439000Y0156400D03*
X1439000Y0146400D03*
X1449000Y0146400D03*
X1449000Y0156400D03*
X1449000Y0136400D03*
X1449000Y0126400D03*
X1439000Y0126400D03*
X1439000Y0136400D03*
X1470000Y0135000D03*
X1480000Y0135000D03*
X1480000Y0125000D03*
X1470000Y0125000D03*
X1470000Y0145000D03*
X1470000Y0155000D03*
X1480000Y0155000D03*
X1480000Y0145000D03*
X1500000Y0145000D03*
X1500000Y0155000D03*
X1510000Y0155000D03*
X1510000Y0145000D03*
X1510000Y0135000D03*
X1510000Y0125000D03*
X1500000Y0125000D03*
X1500000Y0135000D03*
D788*
X1467550Y0074100D03*
X1467550Y0064100D03*
X1467550Y0054100D03*
X1467550Y0044100D03*
D571*
X1467550Y0034100D03*
D499*
X1435270Y0027720D03*
X1428180Y0027720D03*
X0625000Y0612500D02*
G75*
%LPD*%
D680*
X0679000Y0816160D03*
X0679000Y0822850D03*
X0703000Y0822850D03*
X0703000Y0816160D03*
X0748400Y0816360D03*
X0748400Y0823050D03*
X0801710Y0823220D03*
X0801710Y0816520D03*
X0847160Y0816890D03*
X0847160Y0823580D03*
X0904000Y0781650D03*
X0904000Y0774960D03*
D427*
X0640430Y0720320D02*
X0634030Y0720320D01*
X0635030Y0730320D02*
X0641430Y0730320D01*
X0640430Y0740320D02*
X0634030Y0740320D01*
X0635030Y0750320D02*
X0641430Y0750320D01*
X0640430Y0760320D02*
X0634030Y0760320D01*
D728*
X0649630Y0728460D03*
X0649630Y0721380D03*
X0850420Y0645520D03*
X0850420Y0638430D03*
D12*
X0779580Y0740720D03*
X0772880Y0740720D03*
X0775210Y0771690D03*
X0768510Y0771690D03*
X0867450Y0767100D03*
X0874140Y0767100D03*
X0878650Y1119500D03*
X0885340Y1119500D03*
X0833340Y1120500D03*
X0826650Y1120500D03*
X0782340Y1122500D03*
X0775650Y1122500D03*
X0735340Y1121500D03*
X0728650Y1121500D03*
X0684340Y1120500D03*
X0677650Y1120500D03*
D329*
X0777310Y0636330D03*
X0777310Y0631330D03*
X0777310Y0626330D03*
X0777310Y0621330D03*
X0801510Y0621330D03*
X0801510Y0626330D03*
X0801510Y0631330D03*
X0801510Y0636330D03*
D151*
X0875660Y0668380D03*
X0886680Y0668380D03*
D30*
X0876180Y0646190D03*
X0876180Y0638320D03*
X0760550Y0796220D03*
X0760550Y0804100D03*
X0730300Y0805100D03*
X0730300Y0797220D03*
X0724090Y0845280D03*
X0724090Y0853150D03*
X0776810Y0854650D03*
X0776810Y0846780D03*
X0826030Y0849780D03*
X0826030Y0857650D03*
X0885230Y0845730D03*
X0885230Y0837860D03*
X0830460Y1036720D03*
X0830460Y1044600D03*
X0869010Y1044920D03*
X0869010Y1052800D03*
X0872110Y1097060D03*
X0872110Y1104930D03*
X0831210Y1102280D03*
X0831210Y1110150D03*
X0782930Y1109150D03*
X0782930Y1101280D03*
X0782420Y1044600D03*
X0782420Y1036720D03*
X0729500Y1033070D03*
X0729500Y1040940D03*
X0681870Y1043100D03*
X0681870Y1035220D03*
X0672000Y1097570D03*
X0672000Y1105440D03*
X0727660Y1106150D03*
X0727660Y1098280D03*
X0669500Y0846940D03*
X0669500Y0839070D03*
X0667750Y0787100D03*
X0667750Y0779220D03*
D587*
X0667820Y0794030D03*
X0662820Y0794030D03*
X0662820Y0819230D03*
X0667820Y0819230D03*
X0718140Y0812630D03*
X0723140Y0812630D03*
X0723140Y0837830D03*
X0718140Y0837830D03*
X0771400Y0836870D03*
X0776400Y0836870D03*
X0776400Y0811680D03*
X0771400Y0811680D03*
X0812680Y0813180D03*
X0817680Y0813180D03*
X0817680Y0838370D03*
X0812680Y0838370D03*
X0880310Y0828830D03*
X0885310Y0828830D03*
X0885310Y0803630D03*
X0880310Y0803630D03*
X0868930Y1061780D03*
X0863930Y1061780D03*
X0863930Y1086970D03*
X0868930Y1086970D03*
X0831000Y1086870D03*
X0826000Y1086870D03*
X0826000Y1061680D03*
X0831000Y1061680D03*
X0782780Y1061680D03*
X0777780Y1061680D03*
X0777780Y1086870D03*
X0782780Y1086870D03*
X0729550Y1086870D03*
X0724550Y1086870D03*
X0724550Y1061680D03*
X0729550Y1061680D03*
X0676630Y1060910D03*
X0671630Y1060910D03*
X0671630Y1086100D03*
X0676630Y1086100D03*
D717*
X0858720Y0804940D03*
X0866590Y0804940D03*
X0779290Y0798090D03*
X0771420Y0798090D03*
D841*
X0834000Y0748900D03*
X0834000Y0738900D03*
X0844000Y0738900D03*
X0844000Y0748900D03*
X0844000Y0728900D03*
X0844000Y0718900D03*
X0834000Y0718900D03*
X0834000Y0728900D03*
X0865000Y0727500D03*
X0875000Y0727500D03*
X0875000Y0717500D03*
X0865000Y0717500D03*
X0865000Y0737500D03*
X0865000Y0747500D03*
X0875000Y0747500D03*
X0875000Y0737500D03*
X0895000Y0737500D03*
X0895000Y0747500D03*
X0905000Y0747500D03*
X0905000Y0737500D03*
X0905000Y0727500D03*
X0905000Y0717500D03*
X0895000Y0717500D03*
X0895000Y0727500D03*
D788*
X0862550Y0666600D03*
X0862550Y0656600D03*
X0862550Y0646600D03*
X0862550Y0636600D03*
D571*
X0862550Y0626600D03*
D499*
X0830270Y0620220D03*
X0823180Y0620220D03*
X0927500Y0612500D02*
G75*
%LPD*%
D680*
X0981500Y0816160D03*
X0981500Y0822850D03*
X1005500Y0822850D03*
X1005500Y0816160D03*
X1050900Y0816360D03*
X1050900Y0823050D03*
X1104210Y0823220D03*
X1104210Y0816520D03*
X1149660Y0816890D03*
X1149660Y0823580D03*
X1206500Y0781650D03*
X1206500Y0774960D03*
D427*
X0942930Y0720320D02*
X0936530Y0720320D01*
X0937530Y0730320D02*
X0943930Y0730320D01*
X0942930Y0740320D02*
X0936530Y0740320D01*
X0937530Y0750320D02*
X0943930Y0750320D01*
X0942930Y0760320D02*
X0936530Y0760320D01*
D728*
X0952130Y0728460D03*
X0952130Y0721380D03*
X1152920Y0645520D03*
X1152920Y0638430D03*
D12*
X1082080Y0740720D03*
X1075380Y0740720D03*
X1077710Y0771690D03*
X1071010Y0771690D03*
X1169950Y0767100D03*
X1176640Y0767100D03*
X1181150Y1119500D03*
X1187840Y1119500D03*
X1135840Y1120500D03*
X1129150Y1120500D03*
X1084840Y1122500D03*
X1078150Y1122500D03*
X1037840Y1121500D03*
X1031150Y1121500D03*
X0986840Y1120500D03*
X0980150Y1120500D03*
D329*
X1079810Y0636330D03*
X1079810Y0631330D03*
X1079810Y0626330D03*
X1079810Y0621330D03*
X1104010Y0621330D03*
X1104010Y0626330D03*
X1104010Y0631330D03*
X1104010Y0636330D03*
D151*
X1178160Y0668380D03*
X1189180Y0668380D03*
D30*
X1178680Y0646190D03*
X1178680Y0638320D03*
X1063050Y0796220D03*
X1063050Y0804100D03*
X1032800Y0805100D03*
X1032800Y0797220D03*
X1026590Y0845280D03*
X1026590Y0853150D03*
X1079310Y0854650D03*
X1079310Y0846780D03*
X1128530Y0849780D03*
X1128530Y0857650D03*
X1187730Y0845730D03*
X1187730Y0837860D03*
X1132960Y1036720D03*
X1132960Y1044600D03*
X1171510Y1044920D03*
X1171510Y1052800D03*
X1174610Y1097060D03*
X1174610Y1104930D03*
X1133710Y1102280D03*
X1133710Y1110150D03*
X1085430Y1109150D03*
X1085430Y1101280D03*
X1084920Y1044600D03*
X1084920Y1036720D03*
X1032000Y1033070D03*
X1032000Y1040940D03*
X0984370Y1043100D03*
X0984370Y1035220D03*
X0974500Y1097570D03*
X0974500Y1105440D03*
X1030160Y1106150D03*
X1030160Y1098280D03*
X0972000Y0846940D03*
X0972000Y0839070D03*
X0970250Y0787100D03*
X0970250Y0779220D03*
D587*
X0970320Y0794030D03*
X0965320Y0794030D03*
X0965320Y0819230D03*
X0970320Y0819230D03*
X1020640Y0812630D03*
X1025640Y0812630D03*
X1025640Y0837830D03*
X1020640Y0837830D03*
X1073900Y0836870D03*
X1078900Y0836870D03*
X1078900Y0811680D03*
X1073900Y0811680D03*
X1115180Y0813180D03*
X1120180Y0813180D03*
X1120180Y0838370D03*
X1115180Y0838370D03*
X1182810Y0828830D03*
X1187810Y0828830D03*
X1187810Y0803630D03*
X1182810Y0803630D03*
X1171430Y1061780D03*
X1166430Y1061780D03*
X1166430Y1086970D03*
X1171430Y1086970D03*
X1133500Y1086870D03*
X1128500Y1086870D03*
X1128500Y1061680D03*
X1133500Y1061680D03*
X1085280Y1061680D03*
X1080280Y1061680D03*
X1080280Y1086870D03*
X1085280Y1086870D03*
X1032050Y1086870D03*
X1027050Y1086870D03*
X1027050Y1061680D03*
X1032050Y1061680D03*
X0979130Y1060910D03*
X0974130Y1060910D03*
X0974130Y1086100D03*
X0979130Y1086100D03*
D717*
X1161220Y0804940D03*
X1169090Y0804940D03*
X1081790Y0798090D03*
X1073920Y0798090D03*
D841*
X1136500Y0748900D03*
X1136500Y0738900D03*
X1146500Y0738900D03*
X1146500Y0748900D03*
X1146500Y0728900D03*
X1146500Y0718900D03*
X1136500Y0718900D03*
X1136500Y0728900D03*
X1167500Y0727500D03*
X1177500Y0727500D03*
X1177500Y0717500D03*
X1167500Y0717500D03*
X1167500Y0737500D03*
X1167500Y0747500D03*
X1177500Y0747500D03*
X1177500Y0737500D03*
X1197500Y0737500D03*
X1197500Y0747500D03*
X1207500Y0747500D03*
X1207500Y0737500D03*
X1207500Y0727500D03*
X1207500Y0717500D03*
X1197500Y0717500D03*
X1197500Y0727500D03*
D788*
X1165050Y0666600D03*
X1165050Y0656600D03*
X1165050Y0646600D03*
X1165050Y0636600D03*
D571*
X1165050Y0626600D03*
D499*
X1132770Y0620220D03*
X1125680Y0620220D03*
X1230000Y0612500D02*
G75*
%LPD*%
D680*
X1284000Y0816160D03*
X1284000Y0822850D03*
X1308000Y0822850D03*
X1308000Y0816160D03*
X1353400Y0816360D03*
X1353400Y0823050D03*
X1406710Y0823220D03*
X1406710Y0816520D03*
X1452160Y0816890D03*
X1452160Y0823580D03*
X1509000Y0781650D03*
X1509000Y0774960D03*
D427*
X1245430Y0720320D02*
X1239030Y0720320D01*
X1240030Y0730320D02*
X1246430Y0730320D01*
X1245430Y0740320D02*
X1239030Y0740320D01*
X1240030Y0750320D02*
X1246430Y0750320D01*
X1245430Y0760320D02*
X1239030Y0760320D01*
D728*
X1254630Y0728460D03*
X1254630Y0721380D03*
X1455420Y0645520D03*
X1455420Y0638430D03*
D12*
X1384580Y0740720D03*
X1377880Y0740720D03*
X1380210Y0771690D03*
X1373510Y0771690D03*
X1472450Y0767100D03*
X1479140Y0767100D03*
X1483650Y1119500D03*
X1490340Y1119500D03*
X1438340Y1120500D03*
X1431650Y1120500D03*
X1387340Y1122500D03*
X1380650Y1122500D03*
X1340340Y1121500D03*
X1333650Y1121500D03*
X1289340Y1120500D03*
X1282650Y1120500D03*
D329*
X1382310Y0636330D03*
X1382310Y0631330D03*
X1382310Y0626330D03*
X1382310Y0621330D03*
X1406510Y0621330D03*
X1406510Y0626330D03*
X1406510Y0631330D03*
X1406510Y0636330D03*
D151*
X1480660Y0668380D03*
X1491680Y0668380D03*
D30*
X1481180Y0646190D03*
X1481180Y0638320D03*
X1365550Y0796220D03*
X1365550Y0804100D03*
X1335300Y0805100D03*
X1335300Y0797220D03*
X1329090Y0845280D03*
X1329090Y0853150D03*
X1381810Y0854650D03*
X1381810Y0846780D03*
X1431030Y0849780D03*
X1431030Y0857650D03*
X1490230Y0845730D03*
X1490230Y0837860D03*
X1435460Y1036720D03*
X1435460Y1044600D03*
X1474010Y1044920D03*
X1474010Y1052800D03*
X1477110Y1097060D03*
X1477110Y1104930D03*
X1436210Y1102280D03*
X1436210Y1110150D03*
X1387930Y1109150D03*
X1387930Y1101280D03*
X1387420Y1044600D03*
X1387420Y1036720D03*
X1334500Y1033070D03*
X1334500Y1040940D03*
X1286870Y1043100D03*
X1286870Y1035220D03*
X1277000Y1097570D03*
X1277000Y1105440D03*
X1332660Y1106150D03*
X1332660Y1098280D03*
X1274500Y0846940D03*
X1274500Y0839070D03*
X1272750Y0787100D03*
X1272750Y0779220D03*
D587*
X1272820Y0794030D03*
X1267820Y0794030D03*
X1267820Y0819230D03*
X1272820Y0819230D03*
X1323140Y0812630D03*
X1328140Y0812630D03*
X1328140Y0837830D03*
X1323140Y0837830D03*
X1376400Y0836870D03*
X1381400Y0836870D03*
X1381400Y0811680D03*
X1376400Y0811680D03*
X1417680Y0813180D03*
X1422680Y0813180D03*
X1422680Y0838370D03*
X1417680Y0838370D03*
X1485310Y0828830D03*
X1490310Y0828830D03*
X1490310Y0803630D03*
X1485310Y0803630D03*
X1473930Y1061780D03*
X1468930Y1061780D03*
X1468930Y1086970D03*
X1473930Y1086970D03*
X1436000Y1086870D03*
X1431000Y1086870D03*
X1431000Y1061680D03*
X1436000Y1061680D03*
X1387780Y1061680D03*
X1382780Y1061680D03*
X1382780Y1086870D03*
X1387780Y1086870D03*
X1334550Y1086870D03*
X1329550Y1086870D03*
X1329550Y1061680D03*
X1334550Y1061680D03*
X1281630Y1060910D03*
X1276630Y1060910D03*
X1276630Y1086100D03*
X1281630Y1086100D03*
D717*
X1463720Y0804940D03*
X1471590Y0804940D03*
X1384290Y0798090D03*
X1376420Y0798090D03*
D841*
X1439000Y0748900D03*
X1439000Y0738900D03*
X1449000Y0738900D03*
X1449000Y0748900D03*
X1449000Y0728900D03*
X1449000Y0718900D03*
X1439000Y0718900D03*
X1439000Y0728900D03*
X1470000Y0727500D03*
X1480000Y0727500D03*
X1480000Y0717500D03*
X1470000Y0717500D03*
X1470000Y0737500D03*
X1470000Y0747500D03*
X1480000Y0747500D03*
X1480000Y0737500D03*
X1500000Y0737500D03*
X1500000Y0747500D03*
X1510000Y0747500D03*
X1510000Y0737500D03*
X1510000Y0727500D03*
X1510000Y0717500D03*
X1500000Y0717500D03*
X1500000Y0727500D03*
D788*
X1467550Y0666600D03*
X1467550Y0656600D03*
X1467550Y0646600D03*
X1467550Y0636600D03*
D571*
X1467550Y0626600D03*
D499*
X1435270Y0620220D03*
X1428180Y0620220D03*
M02*
