%
T01C0.021650
X2559Y2461
X2520Y6500
X2520Y7100
X2520Y7680
X3220Y8680
X5160Y10480
X3400Y11300
X6766Y14496
X5920Y17120
X5848Y17872
X2753Y19312
X2796Y21280
X5223Y21475
X6200Y23900
X8963Y21475
X9850Y23900
X14950Y23900
X15560Y19620
X14820Y19400
X13820Y18520
X12580Y18340
X10960Y17460
X11680Y15400
X12380Y15580
X14460Y17420
X16340Y19780
X20020Y17040
X20420Y17720
X21320Y16620
X19560Y13840
X19081Y12341
X16880Y12380
X15860Y12740
X14417Y13048
X13860Y12660
X13380Y11240
X11980Y9980
X16300Y11280
X20520Y6044
X20520Y5060
X22330Y6197
X24574Y6079
X24811Y3800
X24811Y3012
X20755Y2654
X16040Y2780
X15473Y2422
X16260Y4745
X16080Y5600
X13880Y5160
X21180Y12400
X21340Y13700
X24940Y12160
X27940Y12300
X25795Y8524
X30480Y8682
X30362Y2540
X30320Y17340
X29600Y17400
X28860Y17480
X27821Y17578
X27080Y18180
X26180Y18300
X25380Y18220
X24840Y18220
X25300Y20560
X24800Y23900
X24260Y25680
X23140Y26640
X21100Y23900
X21120Y23300
X30200Y21300
X30400Y20140
X30600Y22180
X28220Y44200
X29500Y51700
X29500Y52900
X29980Y54440
X27900Y54700
X25840Y54180
X26540Y52060
X24100Y51700
X21900Y53600
X22020Y54300
X22700Y54700
X21600Y52100
X17600Y54700
X17000Y54200
X16800Y53600
X17100Y52200
X13400Y50400
X11700Y52200
X11800Y53600
X12200Y54000
X12700Y54700
X8000Y50500
X6600Y52100
X7600Y55000
X12000Y10700
X16150Y14820
X16190Y15790
X16140Y16740
X15780Y17220
X15620Y17750
X17070Y16950
X17720Y16360
X19470Y14870
X20630Y15810
X20280Y18900
X19700Y19540
X19560Y18880
X18960Y19420
X18720Y20520
X18160Y20760
X17630Y21590
X14970Y20050
X13930Y21370
X15030Y23260
X14800Y25050
X14150Y25300
X11100Y23340
X9700Y25150
X8700Y25450
X6000Y26100
X4800Y23950
X4750Y23150
X14500Y15620
X16610Y13270
X22440Y20840
X23000Y21580
X25130Y23000
X26890Y20960
X30090Y20720
X29830Y19590
X25920Y16700
X25950Y16200
X23700Y18320
X19800Y25100
X18850Y25250
X22600Y5300
X22600Y3950
X19200Y51600
X18300Y52300
X14000Y53000
X8700Y52700
X7200Y54000
X6800Y53600
X23300Y52100
X26960Y53540
X27400Y53900
X28780Y52320
X2559Y61711
X2520Y65750
X2520Y66350
X2520Y66930
X3220Y67930
X5160Y69730
X3400Y70550
X6766Y73746
X5920Y76370
X5848Y77122
X2753Y78562
X2796Y80530
X5223Y80725
X6200Y83150
X8963Y80725
X9850Y83150
X14950Y83150
X15560Y78870
X14820Y78650
X13820Y77770
X12580Y77590
X10960Y76710
X11680Y74650
X12380Y74830
X14460Y76670
X16340Y79030
X20020Y76290
X20420Y76970
X21320Y75870
X19560Y73090
X19081Y71591
X16880Y71630
X15860Y71990
X14417Y72298
X13860Y71910
X13380Y70490
X11980Y69230
X16300Y70530
X20520Y65294
X20520Y64310
X22330Y65447
X24574Y65329
X24811Y63050
X24811Y62262
X20755Y61904
X16040Y62030
X15473Y61672
X16260Y63995
X16080Y64850
X13880Y64410
X21180Y71650
X21340Y72950
X24940Y71410
X27940Y71550
X25795Y67774
X30480Y67932
X30362Y61790
X30320Y76590
X29600Y76650
X28860Y76730
X27821Y76828
X27080Y77430
X26180Y77550
X25380Y77470
X24840Y77470
X25300Y79810
X24800Y83150
X24260Y84930
X23140Y85890
X21100Y83150
X21120Y82550
X30200Y80550
X30400Y79390
X30600Y81430
X28220Y103450
X29500Y110950
X29500Y112150
X29980Y113690
X27900Y113950
X25840Y113430
X26540Y111310
X24100Y110950
X21900Y112850
X22020Y113550
X22700Y113950
X21600Y111350
X17600Y113950
X17000Y113450
X16800Y112850
X17100Y111450
X13400Y109650
X11700Y111450
X11800Y112850
X12200Y113250
X12700Y113950
X8000Y109750
X6600Y111350
X7600Y114250
X12000Y69950
X16150Y74070
X16190Y75040
X16140Y75990
X15780Y76470
X15620Y77000
X17070Y76200
X17720Y75610
X19470Y74120
X20630Y75060
X20280Y78150
X19700Y78790
X19560Y78130
X18960Y78670
X18720Y79770
X18160Y80010
X17630Y80840
X14970Y79300
X13930Y80620
X15030Y82510
X14800Y84300
X14150Y84550
X11100Y82590
X9700Y84400
X8700Y84700
X6000Y85350
X4800Y83200
X4750Y82400
X14500Y74870
X16610Y72520
X22440Y80090
X23000Y80830
X25130Y82250
X26890Y80210
X30090Y79970
X29830Y78840
X25920Y75950
X25950Y75450
X23700Y77570
X19800Y84350
X18850Y84500
X22600Y64550
X22600Y63200
X19200Y110850
X18300Y111550
X14000Y112250
X8700Y111950
X7200Y113250
X6800Y112850
X23300Y111350
X26960Y112790
X27400Y113150
X28780Y111570
X32809Y2461
X32770Y6500
X32770Y7100
X32770Y7680
X33470Y8680
X35410Y10480
X33650Y11300
X37016Y14496
X36170Y17120
X36098Y17872
X33003Y19312
X33046Y21280
X35473Y21475
X36450Y23900
X39213Y21475
X40100Y23900
X45200Y23900
X45810Y19620
X45070Y19400
X44070Y18520
X42830Y18340
X41210Y17460
X41930Y15400
X42630Y15580
X44710Y17420
X46590Y19780
X50270Y17040
X50670Y17720
X51570Y16620
X49810Y13840
X49331Y12341
X47130Y12380
X46110Y12740
X44667Y13048
X44110Y12660
X43630Y11240
X42230Y9980
X46550Y11280
X50770Y6044
X50770Y5060
X52580Y6197
X54824Y6079
X55061Y3800
X55061Y3012
X51005Y2654
X46290Y2780
X45723Y2422
X46510Y4745
X46330Y5600
X44130Y5160
X51430Y12400
X51590Y13700
X55190Y12160
X58190Y12300
X56045Y8524
X60730Y8682
X60612Y2540
X60570Y17340
X59850Y17400
X59110Y17480
X58071Y17578
X57330Y18180
X56430Y18300
X55630Y18220
X55090Y18220
X55550Y20560
X55050Y23900
X54510Y25680
X53390Y26640
X51350Y23900
X51370Y23300
X60450Y21300
X60650Y20140
X60850Y22180
X58470Y44200
X59750Y51700
X59750Y52900
X60230Y54440
X58150Y54700
X56090Y54180
X56790Y52060
X54350Y51700
X52150Y53600
X52270Y54300
X52950Y54700
X51850Y52100
X47850Y54700
X47250Y54200
X47050Y53600
X47350Y52200
X43650Y50400
X41950Y52200
X42050Y53600
X42450Y54000
X42950Y54700
X38250Y50500
X36850Y52100
X37850Y55000
X42250Y10700
X46400Y14820
X46440Y15790
X46390Y16740
X46030Y17220
X45870Y17750
X47320Y16950
X47970Y16360
X49720Y14870
X50880Y15810
X50530Y18900
X49950Y19540
X49810Y18880
X49210Y19420
X48970Y20520
X48410Y20760
X47880Y21590
X45220Y20050
X44180Y21370
X45280Y23260
X45050Y25050
X44400Y25300
X41350Y23340
X39950Y25150
X38950Y25450
X36250Y26100
X35050Y23950
X35000Y23150
X44750Y15620
X46860Y13270
X52690Y20840
X53250Y21580
X55380Y23000
X57140Y20960
X60340Y20720
X60080Y19590
X56170Y16700
X56200Y16200
X53950Y18320
X50050Y25100
X49100Y25250
X52850Y5300
X52850Y3950
X49450Y51600
X48550Y52300
X44250Y53000
X38950Y52700
X37450Y54000
X37050Y53600
X53550Y52100
X57210Y53540
X57650Y53900
X59030Y52320
X32809Y61711
X32770Y65750
X32770Y66350
X32770Y66930
X33470Y67930
X35410Y69730
X33650Y70550
X37016Y73746
X36170Y76370
X36098Y77122
X33003Y78562
X33046Y80530
X35473Y80725
X36450Y83150
X39213Y80725
X40100Y83150
X45200Y83150
X45810Y78870
X45070Y78650
X44070Y77770
X42830Y77590
X41210Y76710
X41930Y74650
X42630Y74830
X44710Y76670
X46590Y79030
X50270Y76290
X50670Y76970
X51570Y75870
X49810Y73090
X49331Y71591
X47130Y71630
X46110Y71990
X44667Y72298
X44110Y71910
X43630Y70490
X42230Y69230
X46550Y70530
X50770Y65294
X50770Y64310
X52580Y65447
X54824Y65329
X55061Y63050
X55061Y62262
X51005Y61904
X46290Y62030
X45723Y61672
X46510Y63995
X46330Y64850
X44130Y64410
X51430Y71650
X51590Y72950
X55190Y71410
X58190Y71550
X56045Y67774
X60730Y67932
X60612Y61790
X60570Y76590
X59850Y76650
X59110Y76730
X58071Y76828
X57330Y77430
X56430Y77550
X55630Y77470
X55090Y77470
X55550Y79810
X55050Y83150
X54510Y84930
X53390Y85890
X51350Y83150
X51370Y82550
X60450Y80550
X60650Y79390
X60850Y81430
X58470Y103450
X59750Y110950
X59750Y112150
X60230Y113690
X58150Y113950
X56090Y113430
X56790Y111310
X54350Y110950
X52150Y112850
X52270Y113550
X52950Y113950
X51850Y111350
X47850Y113950
X47250Y113450
X47050Y112850
X47350Y111450
X43650Y109650
X41950Y111450
X42050Y112850
X42450Y113250
X42950Y113950
X38250Y109750
X36850Y111350
X37850Y114250
X42250Y69950
X46400Y74070
X46440Y75040
X46390Y75990
X46030Y76470
X45870Y77000
X47320Y76200
X47970Y75610
X49720Y74120
X50880Y75060
X50530Y78150
X49950Y78790
X49810Y78130
X49210Y78670
X48970Y79770
X48410Y80010
X47880Y80840
X45220Y79300
X44180Y80620
X45280Y82510
X45050Y84300
X44400Y84550
X41350Y82590
X39950Y84400
X38950Y84700
X36250Y85350
X35050Y83200
X35000Y82400
X44750Y74870
X46860Y72520
X52690Y80090
X53250Y80830
X55380Y82250
X57140Y80210
X60340Y79970
X60080Y78840
X56170Y75950
X56200Y75450
X53950Y77570
X50050Y84350
X49100Y84500
X52850Y64550
X52850Y63200
X49450Y110850
X48550Y111550
X44250Y112250
X38950Y111950
X37450Y113250
X37050Y112850
X53550Y111350
X57210Y112790
X57650Y113150
X59030Y111570
X63059Y2461
X63020Y6500
X63020Y7100
X63020Y7680
X63720Y8680
X65660Y10480
X63900Y11300
X67266Y14496
X66420Y17120
X66348Y17872
X63253Y19312
X63296Y21280
X65723Y21475
X66700Y23900
X69463Y21475
X70350Y23900
X75450Y23900
X76060Y19620
X75320Y19400
X74320Y18520
X73080Y18340
X71460Y17460
X72180Y15400
X72880Y15580
X74960Y17420
X76840Y19780
X80520Y17040
X80920Y17720
X81820Y16620
X80060Y13840
X79581Y12341
X77380Y12380
X76360Y12740
X74917Y13048
X74360Y12660
X73880Y11240
X72480Y9980
X76800Y11280
X81020Y6044
X81020Y5060
X82830Y6197
X85074Y6079
X85311Y3800
X85311Y3012
X81255Y2654
X76540Y2780
X75973Y2422
X76760Y4745
X76580Y5600
X74380Y5160
X81680Y12400
X81840Y13700
X85440Y12160
X88440Y12300
X86295Y8524
X90980Y8682
X90862Y2540
X90820Y17340
X90100Y17400
X89360Y17480
X88321Y17578
X87580Y18180
X86680Y18300
X85880Y18220
X85340Y18220
X85800Y20560
X85300Y23900
X84760Y25680
X83640Y26640
X81600Y23900
X81620Y23300
X90700Y21300
X90900Y20140
X91100Y22180
X88720Y44200
X90000Y51700
X90000Y52900
X90480Y54440
X88400Y54700
X86340Y54180
X87040Y52060
X84600Y51700
X82400Y53600
X82520Y54300
X83200Y54700
X82100Y52100
X78100Y54700
X77500Y54200
X77300Y53600
X77600Y52200
X73900Y50400
X72200Y52200
X72300Y53600
X72700Y54000
X73200Y54700
X68500Y50500
X67100Y52100
X68100Y55000
X72500Y10700
X76650Y14820
X76690Y15790
X76640Y16740
X76280Y17220
X76120Y17750
X77570Y16950
X78220Y16360
X79970Y14870
X81130Y15810
X80780Y18900
X80200Y19540
X80060Y18880
X79460Y19420
X79220Y20520
X78660Y20760
X78130Y21590
X75470Y20050
X74430Y21370
X75530Y23260
X75300Y25050
X74650Y25300
X71600Y23340
X70200Y25150
X69200Y25450
X66500Y26100
X65300Y23950
X65250Y23150
X75000Y15620
X77110Y13270
X82940Y20840
X83500Y21580
X85630Y23000
X87390Y20960
X90590Y20720
X90330Y19590
X86420Y16700
X86450Y16200
X84200Y18320
X80300Y25100
X79350Y25250
X83100Y5300
X83100Y3950
X79700Y51600
X78800Y52300
X74500Y53000
X69200Y52700
X67700Y54000
X67300Y53600
X83800Y52100
X87460Y53540
X87900Y53900
X89280Y52320
X93309Y2461
X93270Y6500
X93270Y7100
X93270Y7680
X93970Y8680
X95910Y10480
X94150Y11300
X97516Y14496
X96670Y17120
X96598Y17872
X93503Y19312
X93546Y21280
X95973Y21475
X96950Y23900
X99713Y21475
X100600Y23900
X105700Y23900
X106310Y19620
X105570Y19400
X104570Y18520
X103330Y18340
X101710Y17460
X102430Y15400
X103130Y15580
X105210Y17420
X107090Y19780
X110770Y17040
X111170Y17720
X112070Y16620
X110310Y13840
X109831Y12341
X107630Y12380
X106610Y12740
X105167Y13048
X104610Y12660
X104130Y11240
X102730Y9980
X107050Y11280
X111270Y6044
X111270Y5060
X113080Y6197
X115324Y6079
X115561Y3800
X115561Y3012
X111505Y2654
X106790Y2780
X106223Y2422
X107010Y4745
X106830Y5600
X104630Y5160
X111930Y12400
X112090Y13700
X115690Y12160
X118690Y12300
X116545Y8524
X121230Y8682
X121112Y2540
X121070Y17340
X120350Y17400
X119610Y17480
X118571Y17578
X117830Y18180
X116930Y18300
X116130Y18220
X115590Y18220
X116050Y20560
X115550Y23900
X115010Y25680
X113890Y26640
X111850Y23900
X111870Y23300
X120950Y21300
X121150Y20140
X121350Y22180
X118970Y44200
X120250Y51700
X120250Y52900
X120730Y54440
X118650Y54700
X116590Y54180
X117290Y52060
X114850Y51700
X112650Y53600
X112770Y54300
X113450Y54700
X112350Y52100
X108350Y54700
X107750Y54200
X107550Y53600
X107850Y52200
X104150Y50400
X102450Y52200
X102550Y53600
X102950Y54000
X103450Y54700
X98750Y50500
X97350Y52100
X98350Y55000
X102750Y10700
X106900Y14820
X106940Y15790
X106890Y16740
X106530Y17220
X106370Y17750
X107820Y16950
X108470Y16360
X110220Y14870
X111380Y15810
X111030Y18900
X110450Y19540
X110310Y18880
X109710Y19420
X109470Y20520
X108910Y20760
X108380Y21590
X105720Y20050
X104680Y21370
X105780Y23260
X105550Y25050
X104900Y25300
X101850Y23340
X100450Y25150
X99450Y25450
X96750Y26100
X95550Y23950
X95500Y23150
X105250Y15620
X107360Y13270
X113190Y20840
X113750Y21580
X115880Y23000
X117640Y20960
X120840Y20720
X120580Y19590
X116670Y16700
X116700Y16200
X114450Y18320
X110550Y25100
X109600Y25250
X113350Y5300
X113350Y3950
X109950Y51600
X109050Y52300
X104750Y53000
X99450Y52700
X97950Y54000
X97550Y53600
X114050Y52100
X117710Y53540
X118150Y53900
X119530Y52320
X123559Y2461
X123520Y6500
X123520Y7100
X123520Y7680
X124220Y8680
X126160Y10480
X124400Y11300
X127766Y14496
X126920Y17120
X126848Y17872
X123753Y19312
X123796Y21280
X126223Y21475
X127200Y23900
X129963Y21475
X130850Y23900
X135950Y23900
X136560Y19620
X135820Y19400
X134820Y18520
X133580Y18340
X131960Y17460
X132680Y15400
X133380Y15580
X135460Y17420
X137340Y19780
X141020Y17040
X141420Y17720
X142320Y16620
X140560Y13840
X140081Y12341
X137880Y12380
X136860Y12740
X135417Y13048
X134860Y12660
X134380Y11240
X132980Y9980
X137300Y11280
X141520Y6044
X141520Y5060
X143330Y6197
X145574Y6079
X145811Y3800
X145811Y3012
X141755Y2654
X137040Y2780
X136473Y2422
X137260Y4745
X137080Y5600
X134880Y5160
X142180Y12400
X142340Y13700
X145940Y12160
X148940Y12300
X146795Y8524
X151480Y8682
X151362Y2540
X151320Y17340
X150600Y17400
X149860Y17480
X148821Y17578
X148080Y18180
X147180Y18300
X146380Y18220
X145840Y18220
X146300Y20560
X145800Y23900
X145260Y25680
X144140Y26640
X142100Y23900
X142120Y23300
X151200Y21300
X151400Y20140
X151600Y22180
X149220Y44200
X150500Y51700
X150500Y52900
X150980Y54440
X148900Y54700
X146840Y54180
X147540Y52060
X145100Y51700
X142900Y53600
X143020Y54300
X143700Y54700
X142600Y52100
X138600Y54700
X138000Y54200
X137800Y53600
X138100Y52200
X134400Y50400
X132700Y52200
X132800Y53600
X133200Y54000
X133700Y54700
X129000Y50500
X127600Y52100
X128600Y55000
X133000Y10700
X137150Y14820
X137190Y15790
X137140Y16740
X136780Y17220
X136620Y17750
X138070Y16950
X138720Y16360
X140470Y14870
X141630Y15810
X141280Y18900
X140700Y19540
X140560Y18880
X139960Y19420
X139720Y20520
X139160Y20760
X138630Y21590
X135970Y20050
X134930Y21370
X136030Y23260
X135800Y25050
X135150Y25300
X132100Y23340
X130700Y25150
X129700Y25450
X127000Y26100
X125800Y23950
X125750Y23150
X135500Y15620
X137610Y13270
X143440Y20840
X144000Y21580
X146130Y23000
X147890Y20960
X151090Y20720
X150830Y19590
X146920Y16700
X146950Y16200
X144700Y18320
X140800Y25100
X139850Y25250
X143600Y5300
X143600Y3950
X140200Y51600
X139300Y52300
X135000Y53000
X129700Y52700
X128200Y54000
X127800Y53600
X144300Y52100
X147960Y53540
X148400Y53900
X149780Y52320
X63059Y61711
X63020Y65750
X63020Y66350
X63020Y66930
X63720Y67930
X65660Y69730
X63900Y70550
X67266Y73746
X66420Y76370
X66348Y77122
X63253Y78562
X63296Y80530
X65723Y80725
X66700Y83150
X69463Y80725
X70350Y83150
X75450Y83150
X76060Y78870
X75320Y78650
X74320Y77770
X73080Y77590
X71460Y76710
X72180Y74650
X72880Y74830
X74960Y76670
X76840Y79030
X80520Y76290
X80920Y76970
X81820Y75870
X80060Y73090
X79581Y71591
X77380Y71630
X76360Y71990
X74917Y72298
X74360Y71910
X73880Y70490
X72480Y69230
X76800Y70530
X81020Y65294
X81020Y64310
X82830Y65447
X85074Y65329
X85311Y63050
X85311Y62262
X81255Y61904
X76540Y62030
X75973Y61672
X76760Y63995
X76580Y64850
X74380Y64410
X81680Y71650
X81840Y72950
X85440Y71410
X88440Y71550
X86295Y67774
X90980Y67932
X90862Y61790
X90820Y76590
X90100Y76650
X89360Y76730
X88321Y76828
X87580Y77430
X86680Y77550
X85880Y77470
X85340Y77470
X85800Y79810
X85300Y83150
X84760Y84930
X83640Y85890
X81600Y83150
X81620Y82550
X90700Y80550
X90900Y79390
X91100Y81430
X88720Y103450
X90000Y110950
X90000Y112150
X90480Y113690
X88400Y113950
X86340Y113430
X87040Y111310
X84600Y110950
X82400Y112850
X82520Y113550
X83200Y113950
X82100Y111350
X78100Y113950
X77500Y113450
X77300Y112850
X77600Y111450
X73900Y109650
X72200Y111450
X72300Y112850
X72700Y113250
X73200Y113950
X68500Y109750
X67100Y111350
X68100Y114250
X72500Y69950
X76650Y74070
X76690Y75040
X76640Y75990
X76280Y76470
X76120Y77000
X77570Y76200
X78220Y75610
X79970Y74120
X81130Y75060
X80780Y78150
X80200Y78790
X80060Y78130
X79460Y78670
X79220Y79770
X78660Y80010
X78130Y80840
X75470Y79300
X74430Y80620
X75530Y82510
X75300Y84300
X74650Y84550
X71600Y82590
X70200Y84400
X69200Y84700
X66500Y85350
X65300Y83200
X65250Y82400
X75000Y74870
X77110Y72520
X82940Y80090
X83500Y80830
X85630Y82250
X87390Y80210
X90590Y79970
X90330Y78840
X86420Y75950
X86450Y75450
X84200Y77570
X80300Y84350
X79350Y84500
X83100Y64550
X83100Y63200
X79700Y110850
X78800Y111550
X74500Y112250
X69200Y111950
X67700Y113250
X67300Y112850
X83800Y111350
X87460Y112790
X87900Y113150
X89280Y111570
X93309Y61711
X93270Y65750
X93270Y66350
X93270Y66930
X93970Y67930
X95910Y69730
X94150Y70550
X97516Y73746
X96670Y76370
X96598Y77122
X93503Y78562
X93546Y80530
X95973Y80725
X96950Y83150
X99713Y80725
X100600Y83150
X105700Y83150
X106310Y78870
X105570Y78650
X104570Y77770
X103330Y77590
X101710Y76710
X102430Y74650
X103130Y74830
X105210Y76670
X107090Y79030
X110770Y76290
X111170Y76970
X112070Y75870
X110310Y73090
X109831Y71591
X107630Y71630
X106610Y71990
X105167Y72298
X104610Y71910
X104130Y70490
X102730Y69230
X107050Y70530
X111270Y65294
X111270Y64310
X113080Y65447
X115324Y65329
X115561Y63050
X115561Y62262
X111505Y61904
X106790Y62030
X106223Y61672
X107010Y63995
X106830Y64850
X104630Y64410
X111930Y71650
X112090Y72950
X115690Y71410
X118690Y71550
X116545Y67774
X121230Y67932
X121112Y61790
X121070Y76590
X120350Y76650
X119610Y76730
X118571Y76828
X117830Y77430
X116930Y77550
X116130Y77470
X115590Y77470
X116050Y79810
X115550Y83150
X115010Y84930
X113890Y85890
X111850Y83150
X111870Y82550
X120950Y80550
X121150Y79390
X121350Y81430
X118970Y103450
X120250Y110950
X120250Y112150
X120730Y113690
X118650Y113950
X116590Y113430
X117290Y111310
X114850Y110950
X112650Y112850
X112770Y113550
X113450Y113950
X112350Y111350
X108350Y113950
X107750Y113450
X107550Y112850
X107850Y111450
X104150Y109650
X102450Y111450
X102550Y112850
X102950Y113250
X103450Y113950
X98750Y109750
X97350Y111350
X98350Y114250
X102750Y69950
X106900Y74070
X106940Y75040
X106890Y75990
X106530Y76470
X106370Y77000
X107820Y76200
X108470Y75610
X110220Y74120
X111380Y75060
X111030Y78150
X110450Y78790
X110310Y78130
X109710Y78670
X109470Y79770
X108910Y80010
X108380Y80840
X105720Y79300
X104680Y80620
X105780Y82510
X105550Y84300
X104900Y84550
X101850Y82590
X100450Y84400
X99450Y84700
X96750Y85350
X95550Y83200
X95500Y82400
X105250Y74870
X107360Y72520
X113190Y80090
X113750Y80830
X115880Y82250
X117640Y80210
X120840Y79970
X120580Y78840
X116670Y75950
X116700Y75450
X114450Y77570
X110550Y84350
X109600Y84500
X113350Y64550
X113350Y63200
X109950Y110850
X109050Y111550
X104750Y112250
X99450Y111950
X97950Y113250
X97550Y112850
X114050Y111350
X117710Y112790
X118150Y113150
X119530Y111570
X123559Y61711
X123520Y65750
X123520Y66350
X123520Y66930
X124220Y67930
X126160Y69730
X124400Y70550
X127766Y73746
X126920Y76370
X126848Y77122
X123753Y78562
X123796Y80530
X126223Y80725
X127200Y83150
X129963Y80725
X130850Y83150
X135950Y83150
X136560Y78870
X135820Y78650
X134820Y77770
X133580Y77590
X131960Y76710
X132680Y74650
X133380Y74830
X135460Y76670
X137340Y79030
X141020Y76290
X141420Y76970
X142320Y75870
X140560Y73090
X140081Y71591
X137880Y71630
X136860Y71990
X135417Y72298
X134860Y71910
X134380Y70490
X132980Y69230
X137300Y70530
X141520Y65294
X141520Y64310
X143330Y65447
X145574Y65329
X145811Y63050
X145811Y62262
X141755Y61904
X137040Y62030
X136473Y61672
X137260Y63995
X137080Y64850
X134880Y64410
X142180Y71650
X142340Y72950
X145940Y71410
X148940Y71550
X146795Y67774
X151480Y67932
X151362Y61790
X151320Y76590
X150600Y76650
X149860Y76730
X148821Y76828
X148080Y77430
X147180Y77550
X146380Y77470
X145840Y77470
X146300Y79810
X145800Y83150
X145260Y84930
X144140Y85890
X142100Y83150
X142120Y82550
X151200Y80550
X151400Y79390
X151600Y81430
X149220Y103450
X150500Y110950
X150500Y112150
X150980Y113690
X148900Y113950
X146840Y113430
X147540Y111310
X145100Y110950
X142900Y112850
X143020Y113550
X143700Y113950
X142600Y111350
X138600Y113950
X138000Y113450
X137800Y112850
X138100Y111450
X134400Y109650
X132700Y111450
X132800Y112850
X133200Y113250
X133700Y113950
X129000Y109750
X127600Y111350
X128600Y114250
X133000Y69950
X137150Y74070
X137190Y75040
X137140Y75990
X136780Y76470
X136620Y77000
X138070Y76200
X138720Y75610
X140470Y74120
X141630Y75060
X141280Y78150
X140700Y78790
X140560Y78130
X139960Y78670
X139720Y79770
X139160Y80010
X138630Y80840
X135970Y79300
X134930Y80620
X136030Y82510
X135800Y84300
X135150Y84550
X132100Y82590
X130700Y84400
X129700Y84700
X127000Y85350
X125800Y83200
X125750Y82400
X135500Y74870
X137610Y72520
X143440Y80090
X144000Y80830
X146130Y82250
X147890Y80210
X151090Y79970
X150830Y78840
X146920Y75950
X146950Y75450
X144700Y77570
X140800Y84350
X139850Y84500
X143600Y64550
X143600Y63200
X140200Y110850
X139300Y111550
X135000Y112250
X129700Y111950
X128200Y113250
X127800Y112850
X144300Y111350
X147960Y112790
X148400Y113150
X149780Y111570
T02C0.035400
X25755Y7410
X25755Y6410
X25755Y5410
X25755Y4410
X25755Y3410
X25755Y66660
X25755Y65660
X25755Y64660
X25755Y63660
X25755Y62660
X56005Y7410
X56005Y6410
X56005Y5410
X56005Y4410
X56005Y3410
X56005Y66660
X56005Y65660
X56005Y64660
X56005Y63660
X56005Y62660
X86255Y7410
X86255Y6410
X86255Y5410
X86255Y4410
X86255Y3410
X116505Y7410
X116505Y6410
X116505Y5410
X116505Y4410
X116505Y3410
X146755Y7410
X146755Y6410
X146755Y5410
X146755Y4410
X146755Y3410
X86255Y66660
X86255Y65660
X86255Y64660
X86255Y63660
X86255Y62660
X116505Y66660
X116505Y65660
X116505Y64660
X116505Y63660
X116505Y62660
X146755Y66660
X146755Y65660
X146755Y64660
X146755Y63660
X146755Y62660
T03C0.040000
X26000Y12500
X27000Y12500
X27000Y13500
X27000Y14500
X27000Y15500
X26000Y15500
X26000Y14500
X26000Y13500
X23900Y13640
X23900Y12640
X22900Y12640
X22900Y13640
X22900Y14640
X22900Y15640
X23900Y15640
X23900Y14640
X29000Y14500
X29000Y15500
X30000Y15500
X30000Y14500
X30000Y13500
X30000Y12500
X29000Y12500
X29000Y13500
X3323Y13782
X3223Y12782
X3223Y14782
X3323Y15782
X3223Y16782
X26000Y71750
X27000Y71750
X27000Y72750
X27000Y73750
X27000Y74750
X26000Y74750
X26000Y73750
X26000Y72750
X23900Y72890
X23900Y71890
X22900Y71890
X22900Y72890
X22900Y73890
X22900Y74890
X23900Y74890
X23900Y73890
X29000Y73750
X29000Y74750
X30000Y74750
X30000Y73750
X30000Y72750
X30000Y71750
X29000Y71750
X29000Y72750
X3323Y73032
X3223Y72032
X3223Y74032
X3323Y75032
X3223Y76032
X56250Y12500
X57250Y12500
X57250Y13500
X57250Y14500
X57250Y15500
X56250Y15500
X56250Y14500
X56250Y13500
X54150Y13640
X54150Y12640
X53150Y12640
X53150Y13640
X53150Y14640
X53150Y15640
X54150Y15640
X54150Y14640
X59250Y14500
X59250Y15500
X60250Y15500
X60250Y14500
X60250Y13500
X60250Y12500
X59250Y12500
X59250Y13500
X33573Y13782
X33473Y12782
X33473Y14782
X33573Y15782
X33473Y16782
X56250Y71750
X57250Y71750
X57250Y72750
X57250Y73750
X57250Y74750
X56250Y74750
X56250Y73750
X56250Y72750
X54150Y72890
X54150Y71890
X53150Y71890
X53150Y72890
X53150Y73890
X53150Y74890
X54150Y74890
X54150Y73890
X59250Y73750
X59250Y74750
X60250Y74750
X60250Y73750
X60250Y72750
X60250Y71750
X59250Y71750
X59250Y72750
X33573Y73032
X33473Y72032
X33473Y74032
X33573Y75032
X33473Y76032
X86500Y12500
X87500Y12500
X87500Y13500
X87500Y14500
X87500Y15500
X86500Y15500
X86500Y14500
X86500Y13500
X84400Y13640
X84400Y12640
X83400Y12640
X83400Y13640
X83400Y14640
X83400Y15640
X84400Y15640
X84400Y14640
X89500Y14500
X89500Y15500
X90500Y15500
X90500Y14500
X90500Y13500
X90500Y12500
X89500Y12500
X89500Y13500
X63823Y13782
X63723Y12782
X63723Y14782
X63823Y15782
X63723Y16782
X116750Y12500
X117750Y12500
X117750Y13500
X117750Y14500
X117750Y15500
X116750Y15500
X116750Y14500
X116750Y13500
X114650Y13640
X114650Y12640
X113650Y12640
X113650Y13640
X113650Y14640
X113650Y15640
X114650Y15640
X114650Y14640
X119750Y14500
X119750Y15500
X120750Y15500
X120750Y14500
X120750Y13500
X120750Y12500
X119750Y12500
X119750Y13500
X94073Y13782
X93973Y12782
X93973Y14782
X94073Y15782
X93973Y16782
X147000Y12500
X148000Y12500
X148000Y13500
X148000Y14500
X148000Y15500
X147000Y15500
X147000Y14500
X147000Y13500
X144900Y13640
X144900Y12640
X143900Y12640
X143900Y13640
X143900Y14640
X143900Y15640
X144900Y15640
X144900Y14640
X150000Y14500
X150000Y15500
X151000Y15500
X151000Y14500
X151000Y13500
X151000Y12500
X150000Y12500
X150000Y13500
X124323Y13782
X124223Y12782
X124223Y14782
X124323Y15782
X124223Y16782
X86500Y71750
X87500Y71750
X87500Y72750
X87500Y73750
X87500Y74750
X86500Y74750
X86500Y73750
X86500Y72750
X84400Y72890
X84400Y71890
X83400Y71890
X83400Y72890
X83400Y73890
X83400Y74890
X84400Y74890
X84400Y73890
X89500Y73750
X89500Y74750
X90500Y74750
X90500Y73750
X90500Y72750
X90500Y71750
X89500Y71750
X89500Y72750
X63823Y73032
X63723Y72032
X63723Y74032
X63823Y75032
X63723Y76032
X116750Y71750
X117750Y71750
X117750Y72750
X117750Y73750
X117750Y74750
X116750Y74750
X116750Y73750
X116750Y72750
X114650Y72890
X114650Y71890
X113650Y71890
X113650Y72890
X113650Y73890
X113650Y74890
X114650Y74890
X114650Y73890
X119750Y73750
X119750Y74750
X120750Y74750
X120750Y73750
X120750Y72750
X120750Y71750
X119750Y71750
X119750Y72750
X94073Y73032
X93973Y72032
X93973Y74032
X94073Y75032
X93973Y76032
X147000Y71750
X148000Y71750
X148000Y72750
X148000Y73750
X148000Y74750
X147000Y74750
X147000Y73750
X147000Y72750
X144900Y72890
X144900Y71890
X143900Y71890
X143900Y72890
X143900Y73890
X143900Y74890
X144900Y74890
X144900Y73890
X150000Y73750
X150000Y74750
X151000Y74750
X151000Y73750
X151000Y72750
X151000Y71750
X150000Y71750
X150000Y72750
X124323Y73032
X124223Y72032
X124223Y74032
X124323Y75032
X124223Y76032
M30
