G75*
%MOIN*%
%OFA0B0*%
%FSLAX24Y24*%
%IPPOS*%
%LPD*%
%AMOC8*
5,1,8,0,0,1.08239X$1,22.5*
%
%ADD10C,0.0050*%
%ADD11C,0.0000*%
D10*
X003400Y002774D02*
X003400Y030461D01*
X003398Y030569D01*
X003392Y030678D01*
X003383Y030786D01*
X003369Y030893D01*
X003352Y031001D01*
X003331Y031107D01*
X003306Y031213D01*
X003277Y031317D01*
X003244Y031421D01*
X003208Y031523D01*
X003169Y031624D01*
X003125Y031723D01*
X003079Y031821D01*
X003028Y031917D01*
X002975Y032012D01*
X002918Y032104D01*
X002857Y032194D01*
X002794Y032282D01*
X002727Y032368D01*
X002658Y032451D01*
X002585Y032532D01*
X002510Y032610D01*
X002432Y032685D01*
X002351Y032758D01*
X002268Y032827D01*
X002182Y032894D01*
X002094Y032957D01*
X002004Y033018D01*
X001912Y033075D01*
X001817Y033128D01*
X001721Y033179D01*
X001623Y033225D01*
X001524Y033269D01*
X001423Y033308D01*
X001321Y033344D01*
X001217Y033377D01*
X001113Y033406D01*
X001007Y033431D01*
X000901Y033452D01*
X000793Y033469D01*
X000686Y033483D01*
X000578Y033492D01*
X000469Y033498D01*
X000361Y033500D01*
X000150Y033500D01*
X000150Y042000D01*
X040150Y042000D01*
X040150Y033500D01*
X039928Y033500D01*
X039820Y033498D01*
X039712Y033492D01*
X039604Y033483D01*
X039497Y033469D01*
X039390Y033452D01*
X039284Y033431D01*
X039179Y033406D01*
X039075Y033377D01*
X038972Y033345D01*
X038870Y033309D01*
X038769Y033270D01*
X038670Y033226D01*
X038573Y033180D01*
X038477Y033130D01*
X038383Y033076D01*
X038291Y033019D01*
X038201Y032959D01*
X038114Y032896D01*
X038028Y032830D01*
X037946Y032760D01*
X037865Y032688D01*
X037787Y032613D01*
X037712Y032535D01*
X037640Y032455D01*
X037571Y032372D01*
X037505Y032287D01*
X037441Y032199D01*
X037381Y032109D01*
X037325Y032017D01*
X037271Y031923D01*
X037221Y031828D01*
X037174Y031730D01*
X037131Y031631D01*
X037092Y031530D01*
X037056Y031428D01*
X037023Y031325D01*
X036995Y031221D01*
X036970Y031116D01*
X036949Y031010D01*
X036932Y030903D01*
X036918Y030796D01*
X036909Y030688D01*
X036903Y030580D01*
X036901Y030472D01*
X036901Y030473D02*
X036910Y002782D01*
X036909Y002781D02*
X036907Y002704D01*
X036901Y002626D01*
X036891Y002549D01*
X036878Y002473D01*
X036860Y002397D01*
X036839Y002323D01*
X036814Y002249D01*
X036785Y002177D01*
X036753Y002107D01*
X036717Y002038D01*
X036677Y001971D01*
X036635Y001906D01*
X036589Y001844D01*
X036540Y001784D01*
X036488Y001726D01*
X036433Y001671D01*
X036375Y001619D01*
X036315Y001570D01*
X036253Y001524D01*
X036188Y001482D01*
X036121Y001442D01*
X036052Y001406D01*
X035982Y001374D01*
X035910Y001345D01*
X035836Y001320D01*
X035762Y001299D01*
X035686Y001281D01*
X035610Y001268D01*
X035533Y001258D01*
X035455Y001252D01*
X035378Y001250D01*
X004924Y001250D01*
X004847Y001252D01*
X004770Y001258D01*
X004693Y001268D01*
X004617Y001281D01*
X004542Y001299D01*
X004468Y001320D01*
X004395Y001345D01*
X004323Y001374D01*
X004253Y001406D01*
X004184Y001441D01*
X004118Y001481D01*
X004053Y001523D01*
X003991Y001569D01*
X003931Y001618D01*
X003874Y001669D01*
X003819Y001724D01*
X003768Y001781D01*
X003719Y001841D01*
X003673Y001903D01*
X003631Y001968D01*
X003591Y002034D01*
X003556Y002103D01*
X003524Y002173D01*
X003495Y002245D01*
X003470Y002318D01*
X003449Y002392D01*
X003431Y002467D01*
X003418Y002543D01*
X003408Y002620D01*
X003402Y002697D01*
X003400Y002774D01*
D11*
X010750Y038250D02*
X010752Y038302D01*
X010758Y038354D01*
X010768Y038406D01*
X010781Y038456D01*
X010798Y038506D01*
X010819Y038554D01*
X010844Y038600D01*
X010872Y038644D01*
X010903Y038686D01*
X010937Y038726D01*
X010974Y038763D01*
X011014Y038797D01*
X011056Y038828D01*
X011100Y038856D01*
X011146Y038881D01*
X011194Y038902D01*
X011244Y038919D01*
X011294Y038932D01*
X011346Y038942D01*
X011398Y038948D01*
X011450Y038950D01*
X011502Y038948D01*
X011554Y038942D01*
X011606Y038932D01*
X011656Y038919D01*
X011706Y038902D01*
X011754Y038881D01*
X011800Y038856D01*
X011844Y038828D01*
X011886Y038797D01*
X011926Y038763D01*
X011963Y038726D01*
X011997Y038686D01*
X012028Y038644D01*
X012056Y038600D01*
X012081Y038554D01*
X012102Y038506D01*
X012119Y038456D01*
X012132Y038406D01*
X012142Y038354D01*
X012148Y038302D01*
X012150Y038250D01*
X012148Y038198D01*
X012142Y038146D01*
X012132Y038094D01*
X012119Y038044D01*
X012102Y037994D01*
X012081Y037946D01*
X012056Y037900D01*
X012028Y037856D01*
X011997Y037814D01*
X011963Y037774D01*
X011926Y037737D01*
X011886Y037703D01*
X011844Y037672D01*
X011800Y037644D01*
X011754Y037619D01*
X011706Y037598D01*
X011656Y037581D01*
X011606Y037568D01*
X011554Y037558D01*
X011502Y037552D01*
X011450Y037550D01*
X011398Y037552D01*
X011346Y037558D01*
X011294Y037568D01*
X011244Y037581D01*
X011194Y037598D01*
X011146Y037619D01*
X011100Y037644D01*
X011056Y037672D01*
X011014Y037703D01*
X010974Y037737D01*
X010937Y037774D01*
X010903Y037814D01*
X010872Y037856D01*
X010844Y037900D01*
X010819Y037946D01*
X010798Y037994D01*
X010781Y038044D01*
X010768Y038094D01*
X010758Y038146D01*
X010752Y038198D01*
X010750Y038250D01*
X031250Y038250D02*
X031252Y038302D01*
X031258Y038354D01*
X031268Y038406D01*
X031281Y038456D01*
X031298Y038506D01*
X031319Y038554D01*
X031344Y038600D01*
X031372Y038644D01*
X031403Y038686D01*
X031437Y038726D01*
X031474Y038763D01*
X031514Y038797D01*
X031556Y038828D01*
X031600Y038856D01*
X031646Y038881D01*
X031694Y038902D01*
X031744Y038919D01*
X031794Y038932D01*
X031846Y038942D01*
X031898Y038948D01*
X031950Y038950D01*
X032002Y038948D01*
X032054Y038942D01*
X032106Y038932D01*
X032156Y038919D01*
X032206Y038902D01*
X032254Y038881D01*
X032300Y038856D01*
X032344Y038828D01*
X032386Y038797D01*
X032426Y038763D01*
X032463Y038726D01*
X032497Y038686D01*
X032528Y038644D01*
X032556Y038600D01*
X032581Y038554D01*
X032602Y038506D01*
X032619Y038456D01*
X032632Y038406D01*
X032642Y038354D01*
X032648Y038302D01*
X032650Y038250D01*
X032648Y038198D01*
X032642Y038146D01*
X032632Y038094D01*
X032619Y038044D01*
X032602Y037994D01*
X032581Y037946D01*
X032556Y037900D01*
X032528Y037856D01*
X032497Y037814D01*
X032463Y037774D01*
X032426Y037737D01*
X032386Y037703D01*
X032344Y037672D01*
X032300Y037644D01*
X032254Y037619D01*
X032206Y037598D01*
X032156Y037581D01*
X032106Y037568D01*
X032054Y037558D01*
X032002Y037552D01*
X031950Y037550D01*
X031898Y037552D01*
X031846Y037558D01*
X031794Y037568D01*
X031744Y037581D01*
X031694Y037598D01*
X031646Y037619D01*
X031600Y037644D01*
X031556Y037672D01*
X031514Y037703D01*
X031474Y037737D01*
X031437Y037774D01*
X031403Y037814D01*
X031372Y037856D01*
X031344Y037900D01*
X031319Y037946D01*
X031298Y037994D01*
X031281Y038044D01*
X031268Y038094D01*
X031258Y038146D01*
X031252Y038198D01*
X031250Y038250D01*
M02*
