G75*
%MOIN*%
%OFA0B0*%
%FSLAX24Y24*%
%IPPOS*%
%LPD*%
%AMOC8*
5,1,8,0,0,1.08239X$1,22.5*
%
%ADD10C,0.0100*%
%ADD11R,0.0059X0.0118*%
%ADD12R,0.0118X0.0118*%
%ADD13R,0.0118X0.0059*%
%ADD14R,0.0079X0.0079*%
%ADD15R,0.0140X0.0005*%
%ADD16R,0.0130X0.0005*%
%ADD17R,0.0210X0.0005*%
%ADD18R,0.0190X0.0005*%
%ADD19R,0.0265X0.0005*%
%ADD20R,0.0235X0.0005*%
%ADD21R,0.0300X0.0005*%
%ADD22R,0.0275X0.0005*%
%ADD23R,0.0340X0.0005*%
%ADD24R,0.0305X0.0005*%
%ADD25R,0.0245X0.0005*%
%ADD26R,0.0250X0.0005*%
%ADD27R,0.0255X0.0005*%
%ADD28R,0.0365X0.0005*%
%ADD29R,0.0230X0.0005*%
%ADD30R,0.0335X0.0005*%
%ADD31R,0.0160X0.0005*%
%ADD32R,0.0860X0.0005*%
%ADD33R,0.0280X0.0005*%
%ADD34R,0.0395X0.0005*%
%ADD35R,0.0360X0.0005*%
%ADD36R,0.0155X0.0005*%
%ADD37R,0.0285X0.0005*%
%ADD38R,0.0420X0.0005*%
%ADD39R,0.0385X0.0005*%
%ADD40R,0.0290X0.0005*%
%ADD41R,0.0445X0.0005*%
%ADD42R,0.0405X0.0005*%
%ADD43R,0.0465X0.0005*%
%ADD44R,0.0425X0.0005*%
%ADD45R,0.0295X0.0005*%
%ADD46R,0.0240X0.0005*%
%ADD47R,0.0485X0.0005*%
%ADD48R,0.0165X0.0005*%
%ADD49R,0.0505X0.0005*%
%ADD50R,0.0460X0.0005*%
%ADD51R,0.0525X0.0005*%
%ADD52R,0.0270X0.0005*%
%ADD53R,0.0480X0.0005*%
%ADD54R,0.0540X0.0005*%
%ADD55R,0.0495X0.0005*%
%ADD56R,0.0310X0.0005*%
%ADD57R,0.0555X0.0005*%
%ADD58R,0.0510X0.0005*%
%ADD59R,0.0575X0.0005*%
%ADD60R,0.0170X0.0005*%
%ADD61R,0.0590X0.0005*%
%ADD62R,0.0315X0.0005*%
%ADD63R,0.0605X0.0005*%
%ADD64R,0.0550X0.0005*%
%ADD65R,0.0615X0.0005*%
%ADD66R,0.0565X0.0005*%
%ADD67R,0.0320X0.0005*%
%ADD68R,0.0630X0.0005*%
%ADD69R,0.0325X0.0005*%
%ADD70R,0.0640X0.0005*%
%ADD71R,0.0585X0.0005*%
%ADD72R,0.0655X0.0005*%
%ADD73R,0.0600X0.0005*%
%ADD74R,0.0175X0.0005*%
%ADD75R,0.0330X0.0005*%
%ADD76R,0.0670X0.0005*%
%ADD77R,0.0610X0.0005*%
%ADD78R,0.0680X0.0005*%
%ADD79R,0.0620X0.0005*%
%ADD80R,0.0690X0.0005*%
%ADD81R,0.0635X0.0005*%
%ADD82R,0.0700X0.0005*%
%ADD83R,0.0645X0.0005*%
%ADD84R,0.0345X0.0005*%
%ADD85R,0.0710X0.0005*%
%ADD86R,0.0650X0.0005*%
%ADD87R,0.0180X0.0005*%
%ADD88R,0.0725X0.0005*%
%ADD89R,0.0660X0.0005*%
%ADD90R,0.0350X0.0005*%
%ADD91R,0.0735X0.0005*%
%ADD92R,0.0355X0.0005*%
%ADD93R,0.0740X0.0005*%
%ADD94R,0.0685X0.0005*%
%ADD95R,0.0750X0.0005*%
%ADD96R,0.0760X0.0005*%
%ADD97R,0.0770X0.0005*%
%ADD98R,0.0890X0.0005*%
%ADD99R,0.0780X0.0005*%
%ADD100R,0.0895X0.0005*%
%ADD101R,0.0785X0.0005*%
%ADD102R,0.0900X0.0005*%
%ADD103R,0.0370X0.0005*%
%ADD104R,0.0795X0.0005*%
%ADD105R,0.0905X0.0005*%
%ADD106R,0.0800X0.0005*%
%ADD107R,0.0375X0.0005*%
%ADD108R,0.0815X0.0005*%
%ADD109R,0.0915X0.0005*%
%ADD110R,0.0380X0.0005*%
%ADD111R,0.0820X0.0005*%
%ADD112R,0.0825X0.0005*%
%ADD113R,0.0920X0.0005*%
%ADD114R,0.0835X0.0005*%
%ADD115R,0.0925X0.0005*%
%ADD116R,0.0390X0.0005*%
%ADD117R,0.0840X0.0005*%
%ADD118R,0.0845X0.0005*%
%ADD119R,0.0930X0.0005*%
%ADD120R,0.0855X0.0005*%
%ADD121R,0.0935X0.0005*%
%ADD122R,0.0400X0.0005*%
%ADD123R,0.0435X0.0005*%
%ADD124R,0.0410X0.0005*%
%ADD125R,0.0415X0.0005*%
%ADD126R,0.0430X0.0005*%
%ADD127R,0.0440X0.0005*%
%ADD128R,0.0450X0.0005*%
%ADD129R,0.0455X0.0005*%
%ADD130R,0.0260X0.0005*%
%ADD131R,0.0470X0.0005*%
%ADD132R,0.0475X0.0005*%
%ADD133R,0.0490X0.0005*%
%ADD134R,0.0500X0.0005*%
%ADD135R,0.0225X0.0005*%
%ADD136R,0.0880X0.0005*%
%ADD137R,0.0870X0.0005*%
%ADD138R,0.0865X0.0005*%
%ADD139R,0.0850X0.0005*%
%ADD140R,0.0830X0.0005*%
%ADD141R,0.0810X0.0005*%
%ADD142R,0.0790X0.0005*%
%ADD143R,0.0765X0.0005*%
%ADD144R,0.0805X0.0005*%
%ADD145R,0.0875X0.0005*%
%ADD146R,0.0910X0.0005*%
%ADD147R,0.0885X0.0005*%
%ADD148R,0.0775X0.0005*%
%ADD149R,0.0755X0.0005*%
%ADD150R,0.0745X0.0005*%
%ADD151R,0.0730X0.0005*%
%ADD152R,0.0720X0.0005*%
%ADD153R,0.0715X0.0005*%
%ADD154R,0.0705X0.0005*%
%ADD155R,0.0695X0.0005*%
%ADD156R,0.0675X0.0005*%
%ADD157R,0.0665X0.0005*%
%ADD158R,0.0625X0.0005*%
%ADD159R,0.0595X0.0005*%
%ADD160R,0.0580X0.0005*%
%ADD161R,0.0545X0.0005*%
%ADD162R,0.0535X0.0005*%
%ADD163R,0.0515X0.0005*%
%ADD164R,0.0115X0.0005*%
%ADD165R,0.0110X0.0005*%
%ADD166R,0.0010X0.0005*%
%ADD167C,0.0000*%
%ADD168R,0.0340X0.0300*%
D10*
X003400Y002774D02*
X003400Y030461D01*
X005720Y030472D02*
X005720Y030272D01*
X005870Y030272D01*
X005820Y030372D01*
X005820Y030422D01*
X005870Y030472D01*
X005970Y030472D01*
X006020Y030422D01*
X006020Y030322D01*
X005970Y030272D01*
X006020Y030104D02*
X005920Y030003D01*
X005920Y030053D02*
X005920Y029903D01*
X006020Y029903D02*
X005720Y029903D01*
X005720Y030053D01*
X005770Y030104D01*
X005870Y030104D01*
X005920Y030053D01*
X006280Y030050D02*
X006280Y030220D01*
X006880Y030230D02*
X006880Y030060D01*
X007200Y030088D02*
X007200Y029888D01*
X007350Y029888D01*
X007300Y029988D01*
X007300Y030038D01*
X007350Y030088D01*
X007450Y030088D01*
X007500Y030038D01*
X007500Y029938D01*
X007450Y029888D01*
X007450Y029720D02*
X007500Y029670D01*
X007500Y029570D01*
X007450Y029520D01*
X007250Y029520D01*
X007200Y029570D01*
X007200Y029670D01*
X007250Y029720D01*
X007600Y029190D02*
X007600Y028610D01*
X007697Y028376D02*
X007697Y027864D01*
X007146Y027864D01*
X007163Y027670D02*
X007313Y027670D01*
X007364Y027620D01*
X007364Y027420D01*
X007313Y027370D01*
X007163Y027370D01*
X007163Y027670D01*
X007532Y027670D02*
X007532Y027520D01*
X007632Y027570D01*
X007682Y027570D01*
X007732Y027520D01*
X007732Y027420D01*
X007682Y027370D01*
X007582Y027370D01*
X007532Y027420D01*
X007532Y027670D02*
X007732Y027670D01*
X007697Y027864D02*
X007854Y027864D01*
X007854Y028376D02*
X007697Y028376D01*
X007146Y028376D01*
X007064Y026914D02*
X007064Y026757D01*
X007576Y026757D01*
X007576Y026206D01*
X007760Y026160D02*
X007760Y026010D01*
X008060Y026010D01*
X008060Y026160D01*
X008010Y026210D01*
X007810Y026210D01*
X007760Y026160D01*
X007910Y026378D02*
X007910Y026528D01*
X007960Y026578D01*
X008010Y026578D01*
X008060Y026528D01*
X008060Y026428D01*
X008010Y026378D01*
X007910Y026378D01*
X007810Y026478D01*
X007760Y026578D01*
X007576Y026757D02*
X007576Y026914D01*
X007064Y026757D02*
X007064Y026206D01*
X005910Y026353D02*
X005910Y026453D01*
X005860Y026504D01*
X005910Y026353D02*
X005860Y026303D01*
X005660Y026303D01*
X005610Y026353D01*
X005610Y026453D01*
X005660Y026504D01*
X005760Y026672D02*
X005760Y026822D01*
X005810Y026872D01*
X005860Y026872D01*
X005910Y026822D01*
X005910Y026722D01*
X005860Y026672D01*
X005760Y026672D01*
X005660Y026772D01*
X005610Y026872D01*
X006510Y024150D02*
X006400Y024040D01*
X006510Y024150D02*
X006900Y024150D01*
X007290Y024150D01*
X007400Y024040D01*
X006900Y024050D02*
X006900Y024150D01*
X006900Y023250D02*
X006900Y023050D01*
X006900Y022250D02*
X006900Y022050D01*
X006900Y021250D02*
X006900Y021050D01*
X006900Y020250D02*
X006900Y020050D01*
X006900Y019250D02*
X006900Y019150D01*
X007290Y019150D01*
X007400Y019260D01*
X006900Y019150D02*
X006510Y019150D01*
X006400Y019260D01*
X006100Y019250D02*
X006100Y019300D01*
X006050Y019350D01*
X005800Y019350D01*
X005800Y019300D02*
X005800Y019400D01*
X005800Y019568D02*
X005800Y019718D01*
X005850Y019768D01*
X005950Y019768D01*
X006000Y019718D01*
X006000Y019568D01*
X006100Y019568D02*
X005800Y019568D01*
X005850Y019937D02*
X005900Y019937D01*
X005950Y019987D01*
X005950Y020137D01*
X006050Y020137D02*
X005850Y020137D01*
X005800Y020087D01*
X005800Y019987D01*
X005850Y019937D01*
X006050Y019937D02*
X006100Y019987D01*
X006100Y020087D01*
X006050Y020137D01*
X006100Y019250D02*
X006050Y019200D01*
X007355Y017910D02*
X007355Y017710D01*
X007405Y017660D01*
X007505Y017660D01*
X007555Y017710D01*
X007723Y017660D02*
X007924Y017860D01*
X007924Y017910D01*
X007873Y017960D01*
X007773Y017960D01*
X007723Y017910D01*
X007555Y017910D02*
X007505Y017960D01*
X007405Y017960D01*
X007355Y017910D01*
X007723Y017660D02*
X007924Y017660D01*
X008092Y017660D02*
X008292Y017860D01*
X008292Y017910D01*
X008242Y017960D01*
X008142Y017960D01*
X008092Y017910D01*
X008092Y017660D02*
X008292Y017660D01*
X008155Y017000D02*
X007350Y017000D01*
X006550Y016650D02*
X006550Y014950D01*
X007350Y014600D02*
X008143Y014600D01*
X008950Y014950D02*
X008950Y016650D01*
X009300Y016632D02*
X009300Y016532D01*
X009350Y016482D01*
X009300Y016632D02*
X009350Y016682D01*
X009400Y016682D01*
X009600Y016482D01*
X009600Y016682D01*
X009550Y016314D02*
X009600Y016263D01*
X009600Y016163D01*
X009550Y016113D01*
X009450Y016163D02*
X009450Y016263D01*
X009500Y016314D01*
X009550Y016314D01*
X009450Y016163D02*
X009400Y016113D01*
X009350Y016113D01*
X009300Y016163D01*
X009300Y016263D01*
X009350Y016314D01*
X007050Y015800D02*
X007052Y015852D01*
X007058Y015904D01*
X007068Y015956D01*
X007081Y016006D01*
X007098Y016056D01*
X007119Y016104D01*
X007144Y016150D01*
X007172Y016194D01*
X007203Y016236D01*
X007237Y016276D01*
X007274Y016313D01*
X007314Y016347D01*
X007356Y016378D01*
X007400Y016406D01*
X007446Y016431D01*
X007494Y016452D01*
X007544Y016469D01*
X007594Y016482D01*
X007646Y016492D01*
X007698Y016498D01*
X007750Y016500D01*
X007802Y016498D01*
X007854Y016492D01*
X007906Y016482D01*
X007956Y016469D01*
X008006Y016452D01*
X008054Y016431D01*
X008100Y016406D01*
X008144Y016378D01*
X008186Y016347D01*
X008226Y016313D01*
X008263Y016276D01*
X008297Y016236D01*
X008328Y016194D01*
X008356Y016150D01*
X008381Y016104D01*
X008402Y016056D01*
X008419Y016006D01*
X008432Y015956D01*
X008442Y015904D01*
X008448Y015852D01*
X008450Y015800D01*
X008448Y015748D01*
X008442Y015696D01*
X008432Y015644D01*
X008419Y015594D01*
X008402Y015544D01*
X008381Y015496D01*
X008356Y015450D01*
X008328Y015406D01*
X008297Y015364D01*
X008263Y015324D01*
X008226Y015287D01*
X008186Y015253D01*
X008144Y015222D01*
X008100Y015194D01*
X008054Y015169D01*
X008006Y015148D01*
X007956Y015131D01*
X007906Y015118D01*
X007854Y015108D01*
X007802Y015102D01*
X007750Y015100D01*
X007698Y015102D01*
X007646Y015108D01*
X007594Y015118D01*
X007544Y015131D01*
X007494Y015148D01*
X007446Y015169D01*
X007400Y015194D01*
X007356Y015222D01*
X007314Y015253D01*
X007274Y015287D01*
X007237Y015324D01*
X007203Y015364D01*
X007172Y015406D01*
X007144Y015450D01*
X007119Y015496D01*
X007098Y015544D01*
X007081Y015594D01*
X007068Y015644D01*
X007058Y015696D01*
X007052Y015748D01*
X007050Y015800D01*
X007900Y018210D02*
X007900Y018790D01*
X008685Y019510D02*
X008685Y019660D01*
X008735Y019710D01*
X008835Y019710D01*
X008885Y019660D01*
X008885Y019510D01*
X008985Y019510D02*
X008685Y019510D01*
X008885Y019610D02*
X008985Y019710D01*
X008835Y019878D02*
X008835Y020078D01*
X008985Y020028D02*
X008685Y020028D01*
X008835Y019878D01*
X008486Y019832D02*
X008486Y020068D01*
X008685Y020297D02*
X008685Y020397D01*
X008735Y020447D01*
X008935Y020247D01*
X008985Y020297D01*
X008985Y020397D01*
X008935Y020447D01*
X008735Y020447D01*
X008685Y020297D02*
X008735Y020247D01*
X008935Y020247D01*
X009157Y020225D02*
X009155Y020207D01*
X009156Y020190D01*
X009160Y020173D01*
X009167Y020157D01*
X009177Y020142D01*
X009189Y020130D01*
X009203Y020120D01*
X009219Y020112D01*
X009235Y020107D01*
X009235Y020106D02*
X009865Y020106D01*
X009865Y020107D02*
X009881Y020112D01*
X009897Y020120D01*
X009911Y020130D01*
X009923Y020142D01*
X009933Y020157D01*
X009940Y020173D01*
X009944Y020190D01*
X009945Y020207D01*
X009943Y020225D01*
X010170Y020203D02*
X010220Y020253D01*
X010170Y020203D02*
X010170Y020103D01*
X010220Y020053D01*
X010270Y020053D01*
X010320Y020103D01*
X010320Y020203D01*
X010370Y020253D01*
X010420Y020253D01*
X010470Y020203D01*
X010470Y020103D01*
X010420Y020053D01*
X010420Y020421D02*
X010470Y020471D01*
X010470Y020521D01*
X010420Y020571D01*
X010170Y020571D01*
X010170Y020521D02*
X010170Y020621D01*
X010270Y020789D02*
X010170Y020889D01*
X010470Y020889D01*
X010470Y020789D02*
X010470Y020989D01*
X009865Y020894D02*
X009235Y020894D01*
X009235Y020893D02*
X009217Y020887D01*
X009199Y020878D01*
X009184Y020866D01*
X009172Y020850D01*
X009163Y020833D01*
X009157Y020814D01*
X009155Y020795D01*
X009157Y020775D01*
X009219Y021340D02*
X008881Y021340D01*
X008731Y021794D02*
X008731Y022006D01*
X008881Y022460D02*
X009219Y022460D01*
X009298Y022790D02*
X009248Y022840D01*
X009298Y022790D02*
X009398Y022790D01*
X009448Y022840D01*
X009448Y023040D01*
X009398Y023090D01*
X009298Y023090D01*
X009248Y023040D01*
X009248Y022990D01*
X009298Y022940D01*
X009448Y022940D01*
X009080Y022840D02*
X009080Y023090D01*
X008880Y023090D02*
X008880Y022840D01*
X008930Y022790D01*
X009030Y022790D01*
X009080Y022840D01*
X009865Y020893D02*
X009881Y020888D01*
X009897Y020880D01*
X009911Y020870D01*
X009923Y020858D01*
X009933Y020843D01*
X009940Y020827D01*
X009944Y020810D01*
X009945Y020793D01*
X009943Y020775D01*
X009768Y019286D02*
X009532Y019286D01*
X009532Y018814D02*
X009768Y018814D01*
X009818Y018545D02*
X009668Y018395D01*
X009868Y018395D01*
X009818Y018245D02*
X009818Y018545D01*
X010037Y018445D02*
X010137Y018545D01*
X010137Y018245D01*
X010037Y018245D02*
X010237Y018245D01*
X009500Y018245D02*
X009400Y018345D01*
X009450Y018345D02*
X009300Y018345D01*
X009300Y018245D02*
X009300Y018545D01*
X009450Y018545D01*
X009500Y018495D01*
X009500Y018395D01*
X009450Y018345D01*
X008014Y019832D02*
X008014Y020068D01*
X010150Y025630D02*
X010320Y025630D01*
X010330Y026200D02*
X010160Y026200D01*
X010150Y026430D02*
X010050Y026530D01*
X010100Y026530D02*
X009950Y026530D01*
X009950Y026430D02*
X009950Y026730D01*
X010100Y026730D01*
X010150Y026680D01*
X010150Y026580D01*
X010100Y026530D01*
X010318Y026480D02*
X010368Y026430D01*
X010468Y026430D01*
X010518Y026480D01*
X010518Y026530D01*
X010468Y026580D01*
X010318Y026580D01*
X010318Y026480D01*
X010318Y026580D02*
X010418Y026680D01*
X010518Y026730D01*
X010612Y027340D02*
X010612Y027390D01*
X010812Y027590D01*
X010812Y027640D01*
X010612Y027640D01*
X010444Y027590D02*
X010444Y027390D01*
X010393Y027340D01*
X010243Y027340D01*
X010243Y027640D01*
X010393Y027640D01*
X010444Y027590D01*
X010626Y027844D02*
X011177Y027844D01*
X011177Y028356D01*
X010626Y028356D01*
X010970Y028600D02*
X010970Y029180D01*
X010957Y029420D02*
X010757Y029420D01*
X010857Y029420D02*
X010857Y029720D01*
X010757Y029620D01*
X010588Y029420D02*
X010388Y029420D01*
X010488Y029420D02*
X010488Y029720D01*
X010388Y029620D01*
X010220Y029670D02*
X010170Y029720D01*
X010070Y029720D01*
X010020Y029670D01*
X010020Y029470D01*
X010070Y029420D01*
X010170Y029420D01*
X010220Y029470D01*
X009930Y030040D02*
X009930Y030210D01*
X009300Y030210D02*
X009300Y030040D01*
X009132Y029660D02*
X008982Y029510D01*
X009182Y029510D01*
X009132Y029360D02*
X009132Y029660D01*
X008814Y029610D02*
X008763Y029660D01*
X008663Y029660D01*
X008613Y029610D01*
X008613Y029410D01*
X008663Y029360D01*
X008763Y029360D01*
X008814Y029410D01*
X009270Y029190D02*
X009270Y028610D01*
X009407Y028371D02*
X009407Y027859D01*
X008856Y027859D01*
X008850Y027625D02*
X008700Y027625D01*
X008700Y027325D01*
X008850Y027325D01*
X008900Y027375D01*
X008900Y027575D01*
X008850Y027625D01*
X009068Y027525D02*
X009168Y027625D01*
X009168Y027325D01*
X009068Y027325D02*
X009269Y027325D01*
X009437Y027475D02*
X009637Y027475D01*
X009587Y027325D02*
X009587Y027625D01*
X009437Y027475D01*
X009407Y027859D02*
X009564Y027859D01*
X009564Y028371D02*
X009407Y028371D01*
X008856Y028371D01*
X008390Y030060D02*
X008390Y030230D01*
X007800Y030240D02*
X007800Y030070D01*
X007920Y031023D02*
X007920Y031173D01*
X007970Y031224D01*
X008070Y031224D01*
X008120Y031173D01*
X008120Y031023D01*
X008220Y031023D02*
X007920Y031023D01*
X008120Y031123D02*
X008220Y031224D01*
X008070Y031392D02*
X008070Y031592D01*
X008220Y031542D02*
X007920Y031542D01*
X008070Y031392D01*
X009440Y031432D02*
X009440Y031532D01*
X009490Y031582D01*
X009540Y031582D01*
X009590Y031532D01*
X009640Y031582D01*
X009690Y031582D01*
X009740Y031532D01*
X009740Y031432D01*
X009690Y031382D01*
X009590Y031482D02*
X009590Y031532D01*
X009490Y031382D02*
X009440Y031432D01*
X009490Y031214D02*
X009590Y031214D01*
X009640Y031163D01*
X009640Y031013D01*
X009740Y031013D02*
X009440Y031013D01*
X009440Y031163D01*
X009490Y031214D01*
X009640Y031113D02*
X009740Y031214D01*
X010735Y031130D02*
X010885Y031130D01*
X010935Y031180D01*
X010935Y031280D01*
X010885Y031330D01*
X010735Y031330D01*
X010735Y031030D01*
X010835Y031130D02*
X010935Y031030D01*
X011103Y031030D02*
X011304Y031030D01*
X011203Y031030D02*
X011203Y031330D01*
X011103Y031230D01*
X011472Y031180D02*
X011622Y031180D01*
X011672Y031130D01*
X011672Y031080D01*
X011622Y031030D01*
X011522Y031030D01*
X011472Y031080D01*
X011472Y031180D01*
X011572Y031280D01*
X011672Y031330D01*
X011600Y030190D02*
X011600Y030020D01*
X011890Y029690D02*
X011890Y029490D01*
X011940Y029440D01*
X012040Y029440D01*
X012090Y029490D01*
X012258Y029490D02*
X012308Y029440D01*
X012408Y029440D01*
X012458Y029490D01*
X012458Y029690D01*
X012408Y029740D01*
X012308Y029740D01*
X012258Y029690D01*
X012258Y029640D01*
X012308Y029590D01*
X012458Y029590D01*
X012090Y029690D02*
X012040Y029740D01*
X011940Y029740D01*
X011890Y029690D01*
X012730Y030050D02*
X012730Y030220D01*
X013320Y030210D02*
X013320Y030040D01*
X013110Y031045D02*
X012810Y031045D01*
X012810Y031195D01*
X012860Y031245D01*
X012960Y031245D01*
X013010Y031195D01*
X013010Y031045D01*
X013010Y031145D02*
X013110Y031245D01*
X013110Y031413D02*
X013110Y031614D01*
X013110Y031513D02*
X012810Y031513D01*
X012910Y031413D01*
X012960Y031782D02*
X012810Y031782D01*
X012810Y031982D01*
X012910Y031932D02*
X012960Y031982D01*
X013060Y031982D01*
X013110Y031932D01*
X013110Y031832D01*
X013060Y031782D01*
X012960Y031782D02*
X012910Y031882D01*
X012910Y031932D01*
X014430Y030770D02*
X014430Y030600D01*
X015010Y030590D02*
X015010Y030760D01*
X014820Y031580D02*
X014520Y031580D01*
X014520Y031730D01*
X014570Y031780D01*
X014670Y031780D01*
X014720Y031730D01*
X014720Y031580D01*
X014720Y031680D02*
X014820Y031780D01*
X014820Y031948D02*
X014820Y032148D01*
X014820Y032048D02*
X014520Y032048D01*
X014620Y031948D01*
X014670Y032317D02*
X014670Y032517D01*
X014820Y032467D02*
X014520Y032467D01*
X014670Y032317D01*
X017728Y032434D02*
X017728Y030466D01*
X018712Y030466D02*
X018712Y032434D01*
X018388Y032237D02*
X018390Y032255D01*
X018396Y032273D01*
X018405Y032289D01*
X018417Y032302D01*
X018432Y032313D01*
X018449Y032321D01*
X018467Y032325D01*
X018485Y032325D01*
X018503Y032321D01*
X018520Y032313D01*
X018535Y032302D01*
X018547Y032289D01*
X018556Y032273D01*
X018562Y032255D01*
X018564Y032237D01*
X018562Y032219D01*
X018556Y032201D01*
X018547Y032185D01*
X018535Y032172D01*
X018520Y032161D01*
X018503Y032153D01*
X018485Y032149D01*
X018467Y032149D01*
X018449Y032153D01*
X018432Y032161D01*
X018417Y032172D01*
X018405Y032185D01*
X018396Y032201D01*
X018390Y032219D01*
X018388Y032237D01*
X019228Y032434D02*
X019228Y030466D01*
X020212Y030466D02*
X020212Y032434D01*
X019888Y032237D02*
X019890Y032255D01*
X019896Y032273D01*
X019905Y032289D01*
X019917Y032302D01*
X019932Y032313D01*
X019949Y032321D01*
X019967Y032325D01*
X019985Y032325D01*
X020003Y032321D01*
X020020Y032313D01*
X020035Y032302D01*
X020047Y032289D01*
X020056Y032273D01*
X020062Y032255D01*
X020064Y032237D01*
X020062Y032219D01*
X020056Y032201D01*
X020047Y032185D01*
X020035Y032172D01*
X020020Y032161D01*
X020003Y032153D01*
X019985Y032149D01*
X019967Y032149D01*
X019949Y032153D01*
X019932Y032161D01*
X019917Y032172D01*
X019905Y032185D01*
X019896Y032201D01*
X019890Y032219D01*
X019888Y032237D01*
X020728Y032484D02*
X020728Y030516D01*
X021712Y030516D02*
X021712Y032484D01*
X021388Y032287D02*
X021390Y032305D01*
X021396Y032323D01*
X021405Y032339D01*
X021417Y032352D01*
X021432Y032363D01*
X021449Y032371D01*
X021467Y032375D01*
X021485Y032375D01*
X021503Y032371D01*
X021520Y032363D01*
X021535Y032352D01*
X021547Y032339D01*
X021556Y032323D01*
X021562Y032305D01*
X021564Y032287D01*
X021562Y032269D01*
X021556Y032251D01*
X021547Y032235D01*
X021535Y032222D01*
X021520Y032211D01*
X021503Y032203D01*
X021485Y032199D01*
X021467Y032199D01*
X021449Y032203D01*
X021432Y032211D01*
X021417Y032222D01*
X021405Y032235D01*
X021396Y032251D01*
X021390Y032269D01*
X021388Y032287D01*
X022378Y032484D02*
X022378Y030516D01*
X023362Y030516D02*
X023362Y032484D01*
X023038Y032287D02*
X023040Y032305D01*
X023046Y032323D01*
X023055Y032339D01*
X023067Y032352D01*
X023082Y032363D01*
X023099Y032371D01*
X023117Y032375D01*
X023135Y032375D01*
X023153Y032371D01*
X023170Y032363D01*
X023185Y032352D01*
X023197Y032339D01*
X023206Y032323D01*
X023212Y032305D01*
X023214Y032287D01*
X023212Y032269D01*
X023206Y032251D01*
X023197Y032235D01*
X023185Y032222D01*
X023170Y032211D01*
X023153Y032203D01*
X023135Y032199D01*
X023117Y032199D01*
X023099Y032203D01*
X023082Y032211D01*
X023067Y032222D01*
X023055Y032235D01*
X023046Y032251D01*
X023040Y032269D01*
X023038Y032287D01*
X023790Y031619D02*
X023790Y031281D01*
X024244Y031769D02*
X024456Y031769D01*
X024910Y031619D02*
X024910Y031281D01*
X025130Y030807D02*
X025430Y030807D01*
X025430Y030707D02*
X025430Y030907D01*
X025230Y030707D02*
X025130Y030807D01*
X025130Y030538D02*
X025430Y030338D01*
X025430Y030538D02*
X025130Y030338D01*
X025130Y030170D02*
X025130Y029970D01*
X025130Y030070D02*
X025430Y030070D01*
X024400Y030058D02*
X024100Y030058D01*
X024200Y029958D01*
X024100Y029790D02*
X024350Y029790D01*
X024400Y029740D01*
X024400Y029640D01*
X024350Y029590D01*
X024100Y029590D01*
X024400Y029958D02*
X024400Y030158D01*
X024400Y030327D02*
X024400Y030527D01*
X024400Y030427D02*
X024100Y030427D01*
X024200Y030327D01*
X023490Y028960D02*
X023490Y028790D01*
X022730Y028750D02*
X022730Y028920D01*
X021810Y028930D02*
X021810Y028760D01*
X021100Y028750D02*
X021100Y028920D01*
X020260Y028930D02*
X020260Y028760D01*
X019600Y028750D02*
X019600Y028920D01*
X018810Y028950D02*
X018810Y028780D01*
X018130Y028770D02*
X018130Y028940D01*
X018350Y027932D02*
X018400Y027932D01*
X018450Y027882D01*
X018500Y027932D01*
X018550Y027932D01*
X018600Y027882D01*
X018600Y027782D01*
X018550Y027732D01*
X018450Y027832D02*
X018450Y027882D01*
X018350Y027932D02*
X018300Y027882D01*
X018300Y027782D01*
X018350Y027732D01*
X018300Y027463D02*
X018600Y027463D01*
X018600Y027363D02*
X018600Y027564D01*
X018400Y027363D02*
X018300Y027463D01*
X018350Y027195D02*
X018450Y027195D01*
X018500Y027145D01*
X018500Y026995D01*
X018600Y026995D02*
X018300Y026995D01*
X018300Y027145D01*
X018350Y027195D01*
X018500Y027095D02*
X018600Y027195D01*
X019800Y027195D02*
X019850Y027245D01*
X019950Y027245D01*
X020000Y027195D01*
X020000Y027045D01*
X020100Y027045D02*
X019800Y027045D01*
X019800Y027195D01*
X020000Y027145D02*
X020100Y027245D01*
X020100Y027413D02*
X020100Y027614D01*
X020100Y027513D02*
X019800Y027513D01*
X019900Y027413D01*
X019850Y027782D02*
X019800Y027832D01*
X019800Y027932D01*
X019850Y027982D01*
X019900Y027982D01*
X020100Y027782D01*
X020100Y027982D01*
X021350Y027832D02*
X021650Y027832D01*
X021650Y027732D02*
X021650Y027932D01*
X021450Y027732D02*
X021350Y027832D01*
X021350Y027463D02*
X021650Y027463D01*
X021650Y027363D02*
X021650Y027564D01*
X021450Y027363D02*
X021350Y027463D01*
X021400Y027195D02*
X021350Y027145D01*
X021350Y026995D01*
X021650Y026995D01*
X021550Y026995D02*
X021550Y027145D01*
X021500Y027195D01*
X021400Y027195D01*
X021550Y027095D02*
X021650Y027195D01*
X022900Y027145D02*
X022950Y027195D01*
X023050Y027195D01*
X023100Y027145D01*
X023100Y026995D01*
X023200Y026995D02*
X022900Y026995D01*
X022900Y027145D01*
X023100Y027095D02*
X023200Y027195D01*
X023200Y027363D02*
X023200Y027564D01*
X023200Y027463D02*
X022900Y027463D01*
X023000Y027363D01*
X022950Y027732D02*
X022900Y027782D01*
X022900Y027882D01*
X022950Y027932D01*
X023150Y027732D01*
X023200Y027782D01*
X023200Y027882D01*
X023150Y027932D01*
X022950Y027932D01*
X022950Y027732D02*
X023150Y027732D01*
X023188Y025580D02*
X022988Y025580D01*
X022988Y025280D01*
X023188Y025280D01*
X023357Y025280D02*
X023507Y025280D01*
X023557Y025330D01*
X023557Y025530D01*
X023507Y025580D01*
X023357Y025580D01*
X023357Y025280D01*
X023088Y025430D02*
X022988Y025430D01*
X022820Y025280D02*
X022620Y025280D01*
X022620Y025580D01*
X022300Y025182D02*
X022300Y024982D01*
X022200Y025082D02*
X022400Y025082D01*
X021462Y025305D02*
X021412Y025255D01*
X021312Y025255D01*
X021262Y025305D01*
X021312Y025405D02*
X021462Y025405D01*
X021462Y025305D02*
X021462Y025505D01*
X021412Y025555D01*
X021312Y025555D01*
X021262Y025505D01*
X021262Y025455D01*
X021312Y025405D01*
X021094Y025355D02*
X021094Y025305D01*
X021043Y025255D01*
X020943Y025255D01*
X020893Y025305D01*
X020993Y025405D02*
X021043Y025405D01*
X021094Y025355D01*
X021043Y025405D02*
X021094Y025455D01*
X021094Y025505D01*
X021043Y025555D01*
X020943Y025555D01*
X020893Y025505D01*
X020725Y025505D02*
X020725Y025405D01*
X020675Y025355D01*
X020525Y025355D01*
X020525Y025255D02*
X020525Y025555D01*
X020675Y025555D01*
X020725Y025505D01*
X020625Y025355D02*
X020725Y025255D01*
X020882Y025036D02*
X021118Y025036D01*
X021118Y024564D02*
X020882Y024564D01*
X021180Y022182D02*
X021230Y022182D01*
X021280Y022132D01*
X021280Y022032D01*
X021230Y021982D01*
X021180Y021982D01*
X021130Y022032D01*
X021130Y022132D01*
X021180Y022182D01*
X021280Y022132D02*
X021330Y022182D01*
X021380Y022182D01*
X021430Y022132D01*
X021430Y022032D01*
X021380Y021982D01*
X021330Y021982D01*
X021280Y022032D01*
X021330Y021814D02*
X021380Y021814D01*
X021430Y021763D01*
X021430Y021663D01*
X021380Y021613D01*
X021280Y021713D02*
X021280Y021763D01*
X021330Y021814D01*
X021280Y021763D02*
X021230Y021814D01*
X021180Y021814D01*
X021130Y021763D01*
X021130Y021663D01*
X021180Y021613D01*
X021180Y021445D02*
X021280Y021445D01*
X021330Y021395D01*
X021330Y021245D01*
X021430Y021245D02*
X021130Y021245D01*
X021130Y021395D01*
X021180Y021445D01*
X021330Y021345D02*
X021430Y021445D01*
X021680Y021660D02*
X021680Y021830D01*
X022250Y021830D02*
X022250Y021660D01*
X022539Y020965D02*
X022539Y020788D01*
X022539Y020552D01*
X022539Y020375D01*
X023601Y020375D01*
X023601Y020965D01*
X022539Y020965D01*
X022539Y020788D02*
X022559Y020786D01*
X022579Y020781D01*
X022598Y020772D01*
X022615Y020760D01*
X022629Y020746D01*
X022641Y020729D01*
X022650Y020710D01*
X022655Y020690D01*
X022657Y020670D01*
X022655Y020650D01*
X022650Y020630D01*
X022641Y020611D01*
X022629Y020594D01*
X022615Y020580D01*
X022598Y020568D01*
X022579Y020559D01*
X022559Y020554D01*
X022539Y020552D01*
X022714Y020572D02*
X022716Y020592D01*
X022722Y020610D01*
X022731Y020628D01*
X022743Y020643D01*
X022758Y020655D01*
X022776Y020664D01*
X022794Y020670D01*
X022814Y020672D01*
X022834Y020670D01*
X022852Y020664D01*
X022870Y020655D01*
X022885Y020643D01*
X022897Y020628D01*
X022906Y020610D01*
X022912Y020592D01*
X022914Y020572D01*
X022912Y020552D01*
X022906Y020534D01*
X022897Y020516D01*
X022885Y020501D01*
X022870Y020489D01*
X022852Y020480D01*
X022834Y020474D01*
X022814Y020472D01*
X022794Y020474D01*
X022776Y020480D01*
X022758Y020489D01*
X022743Y020501D01*
X022731Y020516D01*
X022722Y020534D01*
X022716Y020552D01*
X022714Y020572D01*
X021683Y019735D02*
X021683Y019685D01*
X021633Y019635D01*
X021533Y019635D01*
X021483Y019685D01*
X021483Y019735D01*
X021533Y019785D01*
X021633Y019785D01*
X021683Y019735D01*
X021633Y019635D02*
X021683Y019585D01*
X021683Y019535D01*
X021633Y019485D01*
X021533Y019485D01*
X021483Y019535D01*
X021483Y019585D01*
X021533Y019635D01*
X021315Y019535D02*
X021315Y019785D01*
X021115Y019785D02*
X021115Y019535D01*
X021165Y019485D01*
X021265Y019485D01*
X021315Y019535D01*
X021043Y019152D02*
X023347Y019152D01*
X023347Y015058D01*
X021043Y015058D01*
X021043Y019152D01*
X021246Y018768D02*
X021248Y018794D01*
X021254Y018820D01*
X021263Y018845D01*
X021276Y018868D01*
X021292Y018889D01*
X021311Y018907D01*
X021333Y018923D01*
X021356Y018935D01*
X021381Y018943D01*
X021407Y018948D01*
X021434Y018949D01*
X021460Y018946D01*
X021485Y018939D01*
X021510Y018929D01*
X021532Y018915D01*
X021553Y018898D01*
X021570Y018879D01*
X021585Y018857D01*
X021596Y018833D01*
X021604Y018807D01*
X021608Y018781D01*
X021608Y018755D01*
X021604Y018729D01*
X021596Y018703D01*
X021585Y018679D01*
X021570Y018657D01*
X021553Y018638D01*
X021532Y018621D01*
X021510Y018607D01*
X021485Y018597D01*
X021460Y018590D01*
X021434Y018587D01*
X021407Y018588D01*
X021381Y018593D01*
X021356Y018601D01*
X021333Y018613D01*
X021311Y018629D01*
X021292Y018647D01*
X021276Y018668D01*
X021263Y018691D01*
X021254Y018716D01*
X021248Y018742D01*
X021246Y018768D01*
X019385Y017102D02*
X019085Y017102D01*
X019235Y016952D01*
X019235Y017152D01*
X019185Y016784D02*
X019135Y016784D01*
X019085Y016733D01*
X019085Y016633D01*
X019135Y016583D01*
X019135Y016415D02*
X019085Y016365D01*
X019085Y016265D01*
X019135Y016215D01*
X019335Y016215D01*
X019385Y016265D01*
X019385Y016365D01*
X019335Y016415D01*
X019385Y016583D02*
X019185Y016784D01*
X019385Y016784D02*
X019385Y016583D01*
X018786Y016582D02*
X018786Y016818D01*
X018314Y016818D02*
X018314Y016582D01*
X017634Y016632D02*
X017634Y016868D01*
X017628Y017670D02*
X017628Y017970D01*
X017528Y017870D01*
X017360Y017920D02*
X017360Y017970D01*
X017360Y017920D02*
X017260Y017820D01*
X017260Y017670D01*
X017260Y017820D02*
X017160Y017920D01*
X017160Y017970D01*
X017528Y017670D02*
X017728Y017670D01*
X016886Y017380D02*
X016414Y017380D01*
X015666Y016868D02*
X015666Y016632D01*
X015236Y016718D02*
X015236Y016482D01*
X014764Y016482D02*
X014764Y016718D01*
X014515Y016748D02*
X014515Y016548D01*
X014315Y016748D01*
X014265Y016748D01*
X014215Y016698D01*
X014215Y016598D01*
X014265Y016548D01*
X014265Y016380D02*
X014215Y016330D01*
X014215Y016230D01*
X014265Y016180D01*
X014465Y016180D01*
X014515Y016230D01*
X014515Y016330D01*
X014465Y016380D01*
X014465Y016917D02*
X014515Y016967D01*
X014515Y017067D01*
X014465Y017117D01*
X014415Y017117D01*
X014365Y017067D01*
X014365Y017017D01*
X014365Y017067D02*
X014315Y017117D01*
X014265Y017117D01*
X014215Y017067D01*
X014215Y016967D01*
X014265Y016917D01*
X016414Y016120D02*
X016886Y016120D01*
X017632Y019260D02*
X014168Y019260D01*
X014010Y019418D01*
X014010Y022882D01*
X014168Y023040D01*
X017632Y023040D01*
X017790Y022882D01*
X017790Y019418D01*
X017632Y019260D01*
X017300Y022063D02*
X017350Y022113D01*
X017350Y022213D01*
X017300Y022264D01*
X017050Y022264D01*
X017150Y022432D02*
X017050Y022532D01*
X017350Y022532D01*
X017350Y022432D02*
X017350Y022632D01*
X017364Y022725D02*
X017366Y022745D01*
X017371Y022765D01*
X017381Y022783D01*
X017393Y022800D01*
X017408Y022814D01*
X017426Y022824D01*
X017445Y022832D01*
X017465Y022836D01*
X017485Y022836D01*
X017505Y022832D01*
X017524Y022824D01*
X017542Y022814D01*
X017557Y022800D01*
X017569Y022783D01*
X017579Y022765D01*
X017584Y022745D01*
X017586Y022725D01*
X017584Y022705D01*
X017579Y022685D01*
X017569Y022667D01*
X017557Y022650D01*
X017542Y022636D01*
X017524Y022626D01*
X017505Y022618D01*
X017485Y022614D01*
X017465Y022614D01*
X017445Y022618D01*
X017426Y022626D01*
X017408Y022636D01*
X017393Y022650D01*
X017381Y022667D01*
X017371Y022685D01*
X017366Y022705D01*
X017364Y022725D01*
X017300Y022063D02*
X017050Y022063D01*
X015078Y022360D02*
X015028Y022310D01*
X014978Y022310D01*
X014928Y022360D01*
X015078Y022360D02*
X015078Y022610D01*
X015028Y022610D02*
X015128Y022610D01*
X014760Y022560D02*
X014760Y022460D01*
X014710Y022410D01*
X014560Y022410D01*
X014560Y022310D02*
X014560Y022610D01*
X014710Y022610D01*
X014760Y022560D01*
X014660Y022410D02*
X014760Y022310D01*
X013190Y025630D02*
X013020Y025630D01*
X013020Y026200D02*
X013190Y026200D01*
X013222Y026440D02*
X013422Y026440D01*
X013322Y026440D02*
X013322Y026740D01*
X013222Y026640D01*
X013054Y026590D02*
X013003Y026540D01*
X012853Y026540D01*
X012853Y026440D02*
X012853Y026740D01*
X013003Y026740D01*
X013054Y026690D01*
X013054Y026590D01*
X012953Y026540D02*
X013054Y026440D01*
X012842Y027320D02*
X012842Y027620D01*
X012692Y027470D01*
X012892Y027470D01*
X012524Y027370D02*
X012524Y027570D01*
X012473Y027620D01*
X012323Y027620D01*
X012323Y027320D01*
X012473Y027320D01*
X012524Y027370D01*
X012306Y027854D02*
X012857Y027854D01*
X012857Y028366D01*
X012306Y028366D01*
X012690Y028600D02*
X012690Y029180D01*
X012857Y028366D02*
X013014Y028366D01*
X013014Y027854D02*
X012857Y027854D01*
X014036Y027764D02*
X014587Y027764D01*
X014587Y028276D01*
X014036Y028276D01*
X014370Y028560D02*
X014370Y029140D01*
X015210Y029010D02*
X015210Y028810D01*
X015260Y028760D01*
X015360Y028760D01*
X015410Y028810D01*
X015578Y028810D02*
X015628Y028760D01*
X015728Y028760D01*
X015778Y028810D01*
X015778Y028860D01*
X015728Y028910D01*
X015678Y028910D01*
X015728Y028910D02*
X015778Y028960D01*
X015778Y029010D01*
X015728Y029060D01*
X015628Y029060D01*
X015578Y029010D01*
X015410Y029010D02*
X015360Y029060D01*
X015260Y029060D01*
X015210Y029010D01*
X014744Y028276D02*
X014587Y028276D01*
X014587Y027764D02*
X014744Y027764D01*
X014652Y027580D02*
X014702Y027530D01*
X014702Y027480D01*
X014652Y027430D01*
X014702Y027380D01*
X014702Y027330D01*
X014652Y027280D01*
X014552Y027280D01*
X014502Y027330D01*
X014602Y027430D02*
X014652Y027430D01*
X014652Y027580D02*
X014552Y027580D01*
X014502Y027530D01*
X014334Y027530D02*
X014283Y027580D01*
X014133Y027580D01*
X014133Y027280D01*
X014283Y027280D01*
X014334Y027330D01*
X014334Y027530D01*
X011334Y027844D02*
X011177Y027844D01*
X011177Y028356D02*
X011334Y028356D01*
X011010Y030020D02*
X011010Y030190D01*
X009780Y032435D02*
X009480Y032435D01*
X009480Y032585D01*
X009530Y032635D01*
X009630Y032635D01*
X009680Y032585D01*
X009680Y032435D01*
X009680Y032535D02*
X009780Y032635D01*
X009780Y032803D02*
X009780Y033004D01*
X009780Y032903D02*
X009480Y032903D01*
X009580Y032803D01*
X009230Y032910D02*
X009230Y033080D01*
X009480Y033222D02*
X009480Y033322D01*
X009530Y033372D01*
X009730Y033372D01*
X009780Y033322D01*
X009780Y033222D01*
X009730Y033172D01*
X009630Y033222D02*
X009630Y033372D01*
X009630Y033222D02*
X009580Y033172D01*
X009530Y033172D01*
X009480Y033222D01*
X008660Y033090D02*
X008660Y032920D01*
X008230Y032920D02*
X008230Y033090D01*
X007670Y033090D02*
X007670Y032920D01*
X007240Y032920D02*
X007240Y033090D01*
X006650Y033090D02*
X006650Y032920D01*
X006370Y032948D02*
X006070Y032948D01*
X006170Y032848D01*
X006220Y032680D02*
X006270Y032630D01*
X006270Y032480D01*
X006370Y032480D02*
X006070Y032480D01*
X006070Y032630D01*
X006120Y032680D01*
X006220Y032680D01*
X006270Y032580D02*
X006370Y032680D01*
X006370Y032848D02*
X006370Y033048D01*
X006370Y033217D02*
X006320Y033217D01*
X006120Y033417D01*
X006070Y033417D01*
X006070Y033217D01*
X007720Y033900D02*
X007720Y034050D01*
X007770Y034100D01*
X007870Y034100D01*
X007920Y034050D01*
X007920Y033900D01*
X008020Y033900D02*
X007720Y033900D01*
X007920Y034000D02*
X008020Y034100D01*
X008020Y034268D02*
X008020Y034468D01*
X008020Y034368D02*
X007720Y034368D01*
X007820Y034268D01*
X007820Y034637D02*
X007770Y034637D01*
X007720Y034687D01*
X007720Y034787D01*
X007770Y034837D01*
X007820Y034837D01*
X007870Y034787D01*
X007870Y034687D01*
X007820Y034637D01*
X007870Y034687D02*
X007920Y034637D01*
X007970Y034637D01*
X008020Y034687D01*
X008020Y034787D01*
X007970Y034837D01*
X007920Y034837D01*
X007870Y034787D01*
X005150Y035250D02*
X005150Y001250D01*
X004924Y001250D01*
X005150Y001250D02*
X035150Y001250D01*
X035150Y035250D01*
X005150Y035250D01*
X000361Y033500D02*
X000150Y033500D01*
X000150Y042000D01*
X040150Y042000D01*
X040150Y033500D01*
X039928Y033500D01*
X039820Y033498D01*
X039712Y033492D01*
X039604Y033483D01*
X039497Y033469D01*
X039390Y033452D01*
X039284Y033431D01*
X039179Y033406D01*
X039075Y033377D01*
X038972Y033345D01*
X038870Y033309D01*
X038769Y033270D01*
X038670Y033226D01*
X038573Y033180D01*
X038477Y033130D01*
X038383Y033076D01*
X038291Y033019D01*
X038201Y032959D01*
X038114Y032896D01*
X038028Y032830D01*
X037946Y032760D01*
X037865Y032688D01*
X037787Y032613D01*
X037712Y032535D01*
X037640Y032455D01*
X037571Y032372D01*
X037505Y032287D01*
X037441Y032199D01*
X037381Y032109D01*
X037325Y032017D01*
X037271Y031923D01*
X037221Y031828D01*
X037174Y031730D01*
X037131Y031631D01*
X037092Y031530D01*
X037056Y031428D01*
X037023Y031325D01*
X036995Y031221D01*
X036970Y031116D01*
X036949Y031010D01*
X036932Y030903D01*
X036918Y030796D01*
X036909Y030688D01*
X036903Y030580D01*
X036901Y030472D01*
X036901Y030473D02*
X036910Y002782D01*
X036909Y002781D02*
X036907Y002704D01*
X036901Y002626D01*
X036891Y002549D01*
X036878Y002473D01*
X036860Y002397D01*
X036839Y002323D01*
X036814Y002249D01*
X036785Y002177D01*
X036753Y002107D01*
X036717Y002038D01*
X036677Y001971D01*
X036635Y001906D01*
X036589Y001844D01*
X036540Y001784D01*
X036488Y001726D01*
X036433Y001671D01*
X036375Y001619D01*
X036315Y001570D01*
X036253Y001524D01*
X036188Y001482D01*
X036121Y001442D01*
X036052Y001406D01*
X035982Y001374D01*
X035910Y001345D01*
X035836Y001320D01*
X035762Y001299D01*
X035686Y001281D01*
X035610Y001268D01*
X035533Y001258D01*
X035455Y001252D01*
X035378Y001250D01*
X035150Y001250D01*
X024300Y011750D02*
X020300Y011750D01*
X020300Y013950D01*
X020800Y013950D01*
X020800Y013450D01*
X023800Y013450D01*
X023800Y013950D01*
X024300Y013950D01*
X024300Y011750D01*
X023800Y013950D02*
X020800Y013950D01*
X024310Y015110D02*
X024310Y015260D01*
X024360Y015310D01*
X024460Y015310D01*
X024510Y015260D01*
X024510Y015110D01*
X024610Y015110D02*
X024310Y015110D01*
X024510Y015210D02*
X024610Y015310D01*
X024610Y015478D02*
X024310Y015678D01*
X024310Y015478D02*
X024610Y015678D01*
X024160Y019213D02*
X024160Y019414D01*
X024160Y019313D02*
X024460Y019313D01*
X024460Y019582D02*
X024160Y019782D01*
X024160Y019582D02*
X024460Y019782D01*
X025453Y020858D02*
X025303Y021008D01*
X025303Y021308D01*
X025453Y020858D02*
X026203Y020858D01*
X026303Y020958D01*
X026303Y021358D01*
X026253Y022158D02*
X026253Y022908D01*
X025353Y022908D01*
X025353Y022158D01*
X025122Y022118D02*
X025072Y022168D01*
X025122Y022118D02*
X025122Y022018D01*
X025072Y021968D01*
X024872Y021968D01*
X024822Y022018D01*
X024822Y022118D01*
X024872Y022168D01*
X024872Y022336D02*
X024922Y022336D01*
X024972Y022386D01*
X024972Y022486D01*
X025022Y022537D01*
X025072Y022537D01*
X025122Y022486D01*
X025122Y022386D01*
X025072Y022336D01*
X025022Y022336D01*
X024972Y022386D01*
X024972Y022486D02*
X024922Y022537D01*
X024872Y022537D01*
X024822Y022486D01*
X024822Y022386D01*
X024872Y022336D01*
X024872Y022705D02*
X024822Y022755D01*
X024822Y022855D01*
X024872Y022905D01*
X025072Y022705D01*
X025122Y022755D01*
X025122Y022855D01*
X025072Y022905D01*
X024872Y022905D01*
X024872Y022705D02*
X025072Y022705D01*
X025034Y023998D02*
X025034Y024148D01*
X024984Y024198D01*
X024884Y024198D01*
X024834Y024148D01*
X024834Y023998D01*
X025134Y023998D01*
X025034Y024098D02*
X025134Y024198D01*
X025134Y024366D02*
X024934Y024566D01*
X024884Y024566D01*
X024834Y024516D01*
X024834Y024416D01*
X024884Y024366D01*
X025134Y024366D02*
X025134Y024566D01*
X025330Y024470D02*
X025330Y024300D01*
X024984Y024735D02*
X024984Y024935D01*
X025134Y024885D02*
X024834Y024885D01*
X024984Y024735D01*
X023925Y025530D02*
X023725Y025330D01*
X023725Y025280D01*
X023725Y025580D02*
X023925Y025580D01*
X023925Y025530D01*
X025640Y026785D02*
X025640Y026935D01*
X025690Y026985D01*
X025790Y026985D01*
X025840Y026935D01*
X025840Y026785D01*
X025940Y026785D02*
X025640Y026785D01*
X025840Y026885D02*
X025940Y026985D01*
X025890Y027153D02*
X025840Y027153D01*
X025790Y027203D01*
X025790Y027303D01*
X025840Y027354D01*
X025890Y027354D01*
X025940Y027303D01*
X025940Y027203D01*
X025890Y027153D01*
X025790Y027203D02*
X025740Y027153D01*
X025690Y027153D01*
X025640Y027203D01*
X025640Y027303D01*
X025690Y027354D01*
X025740Y027354D01*
X025790Y027303D01*
X025740Y027522D02*
X025640Y027622D01*
X025940Y027622D01*
X025940Y027522D02*
X025940Y027722D01*
X026540Y027662D02*
X026540Y027562D01*
X026590Y027512D01*
X026540Y027662D02*
X026590Y027712D01*
X026640Y027712D01*
X026840Y027512D01*
X026840Y027712D01*
X026790Y027344D02*
X026840Y027293D01*
X026840Y027193D01*
X026790Y027143D01*
X026740Y027143D01*
X026690Y027193D01*
X026690Y027293D01*
X026740Y027344D01*
X026790Y027344D01*
X026690Y027293D02*
X026640Y027344D01*
X026590Y027344D01*
X026540Y027293D01*
X026540Y027193D01*
X026590Y027143D01*
X026640Y027143D01*
X026690Y027193D01*
X026690Y026975D02*
X026590Y026975D01*
X026540Y026925D01*
X026540Y026775D01*
X026840Y026775D01*
X026740Y026775D02*
X026740Y026925D01*
X026690Y026975D01*
X026740Y026875D02*
X026840Y026975D01*
X027390Y027333D02*
X027440Y027283D01*
X027640Y027283D01*
X027690Y027333D01*
X027690Y027433D01*
X027640Y027484D01*
X027640Y027652D02*
X027690Y027652D01*
X027640Y027652D02*
X027440Y027852D01*
X027390Y027852D01*
X027390Y027652D01*
X027440Y027484D02*
X027390Y027433D01*
X027390Y027333D01*
X027556Y027133D02*
X027556Y026345D01*
X027949Y025951D01*
X029131Y025951D01*
X029524Y026345D01*
X029524Y027133D01*
X029524Y028707D02*
X029524Y029889D01*
X027556Y029889D01*
X027556Y028707D01*
X027010Y028720D02*
X027010Y028550D01*
X026460Y028550D02*
X026460Y028720D01*
X026170Y028720D02*
X026170Y028550D01*
X025560Y028560D02*
X025560Y028730D01*
X027170Y030170D02*
X027170Y030320D01*
X027220Y030370D01*
X027320Y030370D01*
X027370Y030320D01*
X027370Y030170D01*
X027470Y030170D02*
X027170Y030170D01*
X027370Y030270D02*
X027470Y030370D01*
X027470Y030538D02*
X027170Y030738D01*
X027270Y030907D02*
X027170Y031007D01*
X027470Y031007D01*
X027470Y030907D02*
X027470Y031107D01*
X027470Y030738D02*
X027170Y030538D01*
X028308Y031484D02*
X028308Y031784D01*
X028308Y031484D02*
X028509Y031484D01*
X028677Y031484D02*
X028877Y031684D01*
X028877Y031734D01*
X028827Y031784D01*
X028727Y031784D01*
X028677Y031734D01*
X028677Y031484D02*
X028877Y031484D01*
X030036Y031471D02*
X030237Y031471D01*
X030405Y031471D02*
X030605Y031471D01*
X030505Y031471D02*
X030505Y031772D01*
X030405Y031672D01*
X030036Y031772D02*
X030036Y031471D01*
X029945Y029955D02*
X030457Y029955D01*
X030457Y029758D01*
X030496Y029719D01*
X030496Y029561D01*
X030457Y029561D01*
X030457Y029758D01*
X030496Y029719D02*
X030496Y029955D01*
X030733Y029955D01*
X030733Y029915D01*
X030496Y029955D02*
X030457Y029955D01*
X030457Y029561D02*
X029945Y029561D01*
X029945Y029601D01*
X029945Y029915D02*
X029945Y029955D01*
X030496Y029561D02*
X030733Y029561D01*
X030733Y029601D01*
X031163Y029680D02*
X031163Y029980D01*
X031313Y029980D01*
X031364Y029930D01*
X031364Y029730D01*
X031313Y029680D01*
X031163Y029680D01*
X031532Y029680D02*
X031732Y029880D01*
X031732Y029930D01*
X031682Y029980D01*
X031582Y029980D01*
X031532Y029930D01*
X031532Y029680D02*
X031732Y029680D01*
X031778Y029120D02*
X031778Y028820D01*
X031678Y028820D02*
X031878Y028820D01*
X031678Y029020D02*
X031778Y029120D01*
X031510Y029120D02*
X031510Y028920D01*
X031410Y028820D01*
X031310Y028920D01*
X031310Y029120D01*
X030380Y029060D02*
X030380Y028890D01*
X031452Y027613D02*
X031753Y027613D01*
X031753Y027513D02*
X031753Y027713D01*
X031553Y027513D02*
X031452Y027613D01*
X031502Y027345D02*
X031452Y027295D01*
X031452Y027144D01*
X031753Y027144D01*
X031753Y027295D01*
X031703Y027345D01*
X031502Y027345D01*
X031858Y025663D02*
X031808Y025613D01*
X031808Y025513D01*
X031858Y025463D01*
X031958Y025563D02*
X031958Y025613D01*
X032008Y025663D01*
X032058Y025663D01*
X032108Y025613D01*
X032108Y025513D01*
X032058Y025463D01*
X031958Y025613D02*
X031908Y025663D01*
X031858Y025663D01*
X031958Y025294D02*
X031958Y025094D01*
X031808Y025244D01*
X032108Y025244D01*
X032410Y025200D02*
X032410Y025030D01*
X032108Y024926D02*
X032008Y024826D01*
X032008Y024876D02*
X032008Y024726D01*
X032108Y024726D02*
X031808Y024726D01*
X031808Y024876D01*
X031858Y024926D01*
X031958Y024926D01*
X032008Y024876D01*
X033000Y025030D02*
X033000Y025200D01*
X033480Y024490D02*
X033480Y024290D01*
X033380Y024390D02*
X033580Y024390D01*
X034400Y024577D02*
X034700Y024577D01*
X034700Y024777D01*
X034700Y024945D02*
X034400Y024945D01*
X034400Y025145D01*
X034400Y025313D02*
X034400Y025463D01*
X034450Y025514D01*
X034650Y025514D01*
X034700Y025463D01*
X034700Y025313D01*
X034400Y025313D01*
X034550Y025045D02*
X034550Y024945D01*
X034700Y024945D02*
X034700Y025145D01*
X034700Y025682D02*
X034700Y025882D01*
X034700Y025782D02*
X034400Y025782D01*
X034500Y025682D01*
X034500Y026945D02*
X034500Y027095D01*
X034450Y027145D01*
X034350Y027145D01*
X034300Y027095D01*
X034300Y026945D01*
X034600Y026945D01*
X034500Y027045D02*
X034600Y027145D01*
X034600Y027313D02*
X034400Y027514D01*
X034350Y027514D01*
X034300Y027463D01*
X034300Y027363D01*
X034350Y027313D01*
X034600Y027313D02*
X034600Y027514D01*
X034550Y027682D02*
X034500Y027682D01*
X034450Y027732D01*
X034450Y027832D01*
X034500Y027882D01*
X034550Y027882D01*
X034600Y027832D01*
X034600Y027732D01*
X034550Y027682D01*
X034450Y027732D02*
X034400Y027682D01*
X034350Y027682D01*
X034300Y027732D01*
X034300Y027832D01*
X034350Y027882D01*
X034400Y027882D01*
X034450Y027832D01*
X033750Y027732D02*
X033700Y027732D01*
X033500Y027932D01*
X033450Y027932D01*
X033450Y027732D01*
X033500Y027564D02*
X033450Y027513D01*
X033450Y027413D01*
X033500Y027363D01*
X033500Y027195D02*
X033600Y027195D01*
X033650Y027145D01*
X033650Y026995D01*
X033750Y026995D02*
X033450Y026995D01*
X033450Y027145D01*
X033500Y027195D01*
X033650Y027095D02*
X033750Y027195D01*
X033750Y027363D02*
X033550Y027564D01*
X033500Y027564D01*
X033750Y027564D02*
X033750Y027363D01*
X033920Y028710D02*
X033920Y028880D01*
X034140Y028890D02*
X034140Y028720D01*
X034780Y028720D02*
X034780Y028890D01*
X033310Y028890D02*
X033310Y028720D01*
X033250Y029810D02*
X032950Y029810D01*
X032950Y029960D01*
X033000Y030010D01*
X033100Y030010D01*
X033150Y029960D01*
X033150Y029810D01*
X033150Y029910D02*
X033250Y030010D01*
X033250Y030178D02*
X032950Y030378D01*
X033000Y030547D02*
X032950Y030597D01*
X032950Y030697D01*
X033000Y030747D01*
X033050Y030747D01*
X033250Y030547D01*
X033250Y030747D01*
X033250Y030378D02*
X032950Y030178D01*
X032650Y030118D02*
X032350Y030318D01*
X032400Y030487D02*
X032350Y030537D01*
X032350Y030637D01*
X032400Y030687D01*
X032450Y030687D01*
X032650Y030487D01*
X032650Y030687D01*
X032650Y030318D02*
X032350Y030118D01*
X032350Y029950D02*
X032350Y029750D01*
X032350Y029850D02*
X032650Y029850D01*
X032640Y032290D02*
X032690Y032340D01*
X032690Y032440D01*
X032640Y032490D01*
X032390Y032490D01*
X032390Y032290D02*
X032640Y032290D01*
X032540Y032658D02*
X032540Y032858D01*
X032690Y032808D02*
X032390Y032808D01*
X032540Y032658D01*
X033040Y032700D02*
X033040Y034120D01*
X033203Y033020D02*
X033205Y033035D01*
X033211Y033048D01*
X033220Y033060D01*
X033231Y033069D01*
X033245Y033075D01*
X033260Y033077D01*
X033275Y033075D01*
X033288Y033069D01*
X033300Y033060D01*
X033309Y033049D01*
X033315Y033035D01*
X033317Y033020D01*
X033315Y033005D01*
X033309Y032992D01*
X033300Y032980D01*
X033289Y032971D01*
X033275Y032965D01*
X033260Y032963D01*
X033245Y032965D01*
X033232Y032971D01*
X033220Y032980D01*
X033211Y032991D01*
X033205Y033005D01*
X033203Y033020D01*
X034900Y032700D02*
X034900Y034120D01*
X028774Y033694D02*
X028774Y033594D01*
X028724Y033544D01*
X028524Y033744D01*
X028724Y033744D01*
X028774Y033694D01*
X028724Y033544D02*
X028524Y033544D01*
X028474Y033594D01*
X028474Y033694D01*
X028524Y033744D01*
X028774Y033376D02*
X028774Y033176D01*
X028774Y033276D02*
X028474Y033276D01*
X028574Y033176D01*
X028524Y033008D02*
X028474Y032958D01*
X028474Y032858D01*
X028524Y032808D01*
X028724Y032808D01*
X028774Y032858D01*
X028774Y032958D01*
X028724Y033008D01*
X028060Y032980D02*
X028060Y033080D01*
X028010Y033130D01*
X027760Y033130D01*
X027860Y033298D02*
X027760Y033398D01*
X028060Y033398D01*
X028060Y033298D02*
X028060Y033498D01*
X028010Y033667D02*
X028060Y033717D01*
X028060Y033817D01*
X028010Y033867D01*
X027960Y033867D01*
X027910Y033817D01*
X027910Y033767D01*
X027910Y033817D02*
X027860Y033867D01*
X027810Y033867D01*
X027760Y033817D01*
X027760Y033717D01*
X027810Y033667D01*
X027530Y034030D02*
X027530Y032610D01*
X027760Y032930D02*
X028010Y032930D01*
X028060Y032980D01*
X025833Y032930D02*
X025835Y032945D01*
X025841Y032958D01*
X025850Y032970D01*
X025861Y032979D01*
X025875Y032985D01*
X025890Y032987D01*
X025905Y032985D01*
X025918Y032979D01*
X025930Y032970D01*
X025939Y032959D01*
X025945Y032945D01*
X025947Y032930D01*
X025945Y032915D01*
X025939Y032902D01*
X025930Y032890D01*
X025919Y032881D01*
X025905Y032875D01*
X025890Y032873D01*
X025875Y032875D01*
X025862Y032881D01*
X025850Y032890D01*
X025841Y032901D01*
X025835Y032915D01*
X025833Y032930D01*
X025670Y032610D02*
X025670Y034030D01*
X025090Y034012D02*
X025090Y034112D01*
X025040Y034162D01*
X024990Y034162D01*
X024940Y034112D01*
X024940Y033962D01*
X025040Y033962D01*
X025090Y034012D01*
X024940Y033962D02*
X024840Y034062D01*
X024790Y034162D01*
X024840Y033794D02*
X024790Y033743D01*
X024790Y033643D01*
X024840Y033593D01*
X024840Y033425D02*
X024940Y033425D01*
X024990Y033375D01*
X024990Y033225D01*
X025090Y033225D02*
X024790Y033225D01*
X024790Y033375D01*
X024840Y033425D01*
X024990Y033325D02*
X025090Y033425D01*
X025090Y033593D02*
X024890Y033794D01*
X024840Y033794D01*
X024630Y033750D02*
X024630Y033580D01*
X025090Y033593D02*
X025090Y033794D01*
X023890Y033750D02*
X023890Y033580D01*
X023460Y034070D02*
X023460Y034240D01*
X022770Y034240D02*
X022770Y034070D01*
X022520Y034050D02*
X022420Y033950D01*
X022420Y034000D02*
X022420Y033850D01*
X022520Y033850D02*
X022220Y033850D01*
X022220Y034000D01*
X022270Y034050D01*
X022370Y034050D01*
X022420Y034000D01*
X022470Y034218D02*
X022520Y034268D01*
X022520Y034368D01*
X022470Y034418D01*
X022270Y034418D01*
X022220Y034368D01*
X022220Y034268D01*
X022270Y034218D01*
X022320Y034218D01*
X022370Y034268D01*
X022370Y034418D01*
X021810Y034230D02*
X021810Y034060D01*
X021140Y034060D02*
X021140Y034230D01*
X020850Y034228D02*
X020800Y034178D01*
X020750Y034178D01*
X020700Y034228D01*
X020700Y034328D01*
X020750Y034378D01*
X020800Y034378D01*
X020850Y034328D01*
X020850Y034228D01*
X020700Y034228D02*
X020650Y034178D01*
X020600Y034178D01*
X020550Y034228D01*
X020550Y034328D01*
X020600Y034378D01*
X020650Y034378D01*
X020700Y034328D01*
X020700Y034010D02*
X020750Y033960D01*
X020750Y033810D01*
X020850Y033810D02*
X020550Y033810D01*
X020550Y033960D01*
X020600Y034010D01*
X020700Y034010D01*
X020750Y033910D02*
X020850Y034010D01*
X020210Y034060D02*
X020210Y034230D01*
X019600Y034230D02*
X019600Y034060D01*
X019320Y034080D02*
X019220Y033980D01*
X019220Y034030D02*
X019220Y033880D01*
X019320Y033880D02*
X019020Y033880D01*
X019020Y034030D01*
X019070Y034080D01*
X019170Y034080D01*
X019220Y034030D01*
X019270Y034248D02*
X019320Y034248D01*
X019270Y034248D02*
X019070Y034448D01*
X019020Y034448D01*
X019020Y034248D01*
X018740Y034190D02*
X018740Y034020D01*
X018160Y034020D02*
X018160Y034190D01*
X017890Y034218D02*
X017690Y034418D01*
X017640Y034418D01*
X017590Y034368D01*
X017590Y034268D01*
X017640Y034218D01*
X017640Y034050D02*
X017740Y034050D01*
X017790Y034000D01*
X017790Y033850D01*
X017890Y033850D02*
X017590Y033850D01*
X017590Y034000D01*
X017640Y034050D01*
X017790Y033950D02*
X017890Y034050D01*
X017890Y034218D02*
X017890Y034418D01*
X011650Y033090D02*
X011650Y032920D01*
X011060Y032920D02*
X011060Y033090D01*
X010830Y033064D02*
X010830Y032863D01*
X010630Y033064D01*
X010580Y033064D01*
X010530Y033013D01*
X010530Y032913D01*
X010580Y032863D01*
X010580Y032695D02*
X010680Y032695D01*
X010730Y032645D01*
X010730Y032495D01*
X010830Y032495D02*
X010530Y032495D01*
X010530Y032645D01*
X010580Y032695D01*
X010730Y032595D02*
X010830Y032695D01*
X010830Y033232D02*
X010630Y033432D01*
X010580Y033432D01*
X010530Y033382D01*
X010530Y033282D01*
X010580Y033232D01*
X010830Y033232D02*
X010830Y033432D01*
X003400Y030461D02*
X003398Y030569D01*
X003392Y030678D01*
X003383Y030786D01*
X003369Y030893D01*
X003352Y031001D01*
X003331Y031107D01*
X003306Y031213D01*
X003277Y031317D01*
X003244Y031421D01*
X003208Y031523D01*
X003169Y031624D01*
X003125Y031723D01*
X003079Y031821D01*
X003028Y031917D01*
X002975Y032012D01*
X002918Y032104D01*
X002857Y032194D01*
X002794Y032282D01*
X002727Y032368D01*
X002658Y032451D01*
X002585Y032532D01*
X002510Y032610D01*
X002432Y032685D01*
X002351Y032758D01*
X002268Y032827D01*
X002182Y032894D01*
X002094Y032957D01*
X002004Y033018D01*
X001912Y033075D01*
X001817Y033128D01*
X001721Y033179D01*
X001623Y033225D01*
X001524Y033269D01*
X001423Y033308D01*
X001321Y033344D01*
X001217Y033377D01*
X001113Y033406D01*
X001007Y033431D01*
X000901Y033452D01*
X000793Y033469D01*
X000686Y033483D01*
X000578Y033492D01*
X000469Y033498D01*
X000361Y033500D01*
X025900Y024480D02*
X025900Y024310D01*
X026712Y025170D02*
X026912Y025170D01*
X026812Y025270D02*
X026812Y025070D01*
X027070Y024822D02*
X027120Y024872D01*
X027170Y024872D01*
X027220Y024822D01*
X027270Y024872D01*
X027320Y024872D01*
X027370Y024822D01*
X027370Y024722D01*
X027320Y024672D01*
X027220Y024772D02*
X027220Y024822D01*
X027070Y024822D02*
X027070Y024722D01*
X027120Y024672D01*
X027120Y024504D02*
X027070Y024453D01*
X027070Y024303D01*
X027370Y024303D01*
X027370Y024453D01*
X027320Y024504D01*
X027120Y024504D01*
X027070Y024135D02*
X027070Y023935D01*
X027370Y023935D01*
X027370Y024135D01*
X027220Y024035D02*
X027220Y023935D01*
X027370Y023767D02*
X027370Y023567D01*
X027070Y023567D01*
X028380Y023180D02*
X030960Y023180D01*
X030960Y020820D01*
X031220Y022275D02*
X031470Y022275D01*
X031520Y022325D01*
X031520Y022425D01*
X031470Y022475D01*
X031220Y022475D01*
X031320Y022643D02*
X031220Y022743D01*
X031520Y022743D01*
X031520Y022643D02*
X031520Y022844D01*
X031520Y023012D02*
X031320Y023212D01*
X031270Y023212D01*
X031220Y023162D01*
X031220Y023062D01*
X031270Y023012D01*
X031520Y023012D02*
X031520Y023212D01*
X028380Y023180D02*
X028380Y020820D01*
X004924Y001250D02*
X004847Y001252D01*
X004770Y001258D01*
X004693Y001268D01*
X004617Y001281D01*
X004542Y001299D01*
X004468Y001320D01*
X004395Y001345D01*
X004323Y001374D01*
X004253Y001406D01*
X004184Y001441D01*
X004118Y001481D01*
X004053Y001523D01*
X003991Y001569D01*
X003931Y001618D01*
X003874Y001669D01*
X003819Y001724D01*
X003768Y001781D01*
X003719Y001841D01*
X003673Y001903D01*
X003631Y001968D01*
X003591Y002034D01*
X003556Y002103D01*
X003524Y002173D01*
X003495Y002245D01*
X003470Y002318D01*
X003449Y002392D01*
X003431Y002467D01*
X003418Y002543D01*
X003408Y002620D01*
X003402Y002697D01*
X003400Y002774D01*
D11*
X026294Y024311D03*
X026766Y024311D03*
X033594Y025249D03*
X034066Y025249D03*
D12*
X033830Y025249D03*
X026530Y024311D03*
X023159Y024800D03*
D13*
X023159Y024564D03*
X023159Y025036D03*
D14*
X025880Y030339D03*
X026710Y030289D03*
X033700Y030489D03*
X034400Y030499D03*
X024420Y018291D03*
X024400Y016509D03*
D15*
X018393Y002075D03*
D16*
X023308Y002075D03*
D17*
X018393Y002080D03*
D18*
X018848Y003325D03*
X023308Y002080D03*
X023768Y003325D03*
D19*
X023985Y003030D03*
X023985Y003025D03*
X023985Y003020D03*
X023805Y002410D03*
X023800Y002405D03*
X023070Y002415D03*
X023070Y002420D03*
X023070Y002425D03*
X023070Y002430D03*
X023260Y002965D03*
X023265Y002970D03*
X023270Y002975D03*
X023275Y002980D03*
X021775Y002130D03*
X021775Y002125D03*
X021775Y002120D03*
X021500Y003270D03*
X021500Y003275D03*
X019070Y003010D03*
X019070Y003005D03*
X018840Y002390D03*
X018835Y002385D03*
X018830Y002380D03*
X018825Y002375D03*
X018395Y002085D03*
X018145Y002420D03*
X018145Y002425D03*
X018145Y002430D03*
X018145Y002435D03*
X018145Y002440D03*
X018340Y002970D03*
X018345Y002975D03*
X018350Y002980D03*
X018355Y002985D03*
X016975Y003285D03*
X015405Y003040D03*
X015405Y003035D03*
X015405Y003030D03*
X015405Y003025D03*
X015275Y002785D03*
X015185Y002520D03*
X015185Y002515D03*
D20*
X015170Y002375D03*
X015165Y002360D03*
X015165Y002355D03*
X015160Y002345D03*
X015160Y002340D03*
X015160Y002335D03*
X015155Y002330D03*
X015155Y002325D03*
X015155Y002320D03*
X015150Y002315D03*
X015150Y002310D03*
X015150Y002305D03*
X015150Y002300D03*
X015145Y002295D03*
X015145Y002290D03*
X015145Y002285D03*
X015140Y002275D03*
X015140Y002270D03*
X015135Y002260D03*
X015135Y002255D03*
X015135Y002250D03*
X015130Y002245D03*
X015130Y002240D03*
X015130Y002235D03*
X015125Y002225D03*
X015125Y002220D03*
X015125Y002215D03*
X015120Y002205D03*
X015120Y002200D03*
X015120Y002195D03*
X015115Y002180D03*
X015115Y002175D03*
X015115Y002170D03*
X015110Y002145D03*
X015110Y002140D03*
X016400Y002505D03*
X016410Y002520D03*
X016425Y002540D03*
X016435Y002555D03*
X016440Y002560D03*
X016445Y002570D03*
X016450Y002575D03*
X016455Y002585D03*
X016460Y002590D03*
X016465Y002595D03*
X016470Y002605D03*
X016475Y002610D03*
X016480Y002620D03*
X016485Y002625D03*
X016490Y002630D03*
X016490Y002635D03*
X016495Y002640D03*
X016500Y002645D03*
X016500Y002650D03*
X016505Y002655D03*
X016510Y002660D03*
X016515Y002665D03*
X016515Y002670D03*
X016520Y002675D03*
X016525Y002680D03*
X016530Y002690D03*
X016535Y002695D03*
X016540Y002705D03*
X016545Y002710D03*
X016550Y002715D03*
X016555Y002725D03*
X016560Y002730D03*
X016565Y002740D03*
X016570Y002745D03*
X016580Y002760D03*
X016590Y002775D03*
X016595Y002780D03*
X016605Y002795D03*
X016615Y002810D03*
X016985Y002810D03*
X016985Y002815D03*
X016985Y002820D03*
X016985Y002825D03*
X016985Y002830D03*
X016985Y002835D03*
X016985Y002840D03*
X016985Y002845D03*
X016985Y002850D03*
X016985Y002855D03*
X016985Y002860D03*
X016985Y002865D03*
X016985Y002870D03*
X016985Y002875D03*
X016990Y002925D03*
X016990Y002930D03*
X016990Y002935D03*
X016990Y002940D03*
X016990Y002945D03*
X016990Y002950D03*
X016990Y002955D03*
X016990Y002960D03*
X016990Y002965D03*
X016990Y002970D03*
X016990Y002975D03*
X016990Y002980D03*
X016990Y002985D03*
X016990Y002990D03*
X016990Y002995D03*
X016990Y003000D03*
X016985Y002805D03*
X016985Y002800D03*
X016985Y002795D03*
X016985Y002790D03*
X016985Y002785D03*
X016985Y002780D03*
X016985Y002775D03*
X016985Y002770D03*
X016985Y002765D03*
X016985Y002760D03*
X016985Y002755D03*
X016985Y002750D03*
X021060Y002105D03*
X021065Y002120D03*
X021070Y002135D03*
X021075Y002145D03*
X021075Y002150D03*
X021080Y002160D03*
X021085Y002175D03*
X021090Y002190D03*
X021095Y002200D03*
X021095Y002205D03*
X021100Y002215D03*
X021105Y002230D03*
X021110Y002245D03*
X021115Y002255D03*
X021115Y002260D03*
X021120Y002270D03*
X021125Y002285D03*
X021130Y002300D03*
X021135Y002310D03*
X021135Y002315D03*
X021140Y002325D03*
X021145Y002340D03*
X021150Y002355D03*
X021155Y002365D03*
X021160Y002380D03*
X021165Y002395D03*
X021170Y002410D03*
X021175Y002420D03*
X021180Y002435D03*
X021185Y002450D03*
X021190Y002465D03*
X021195Y002475D03*
X021200Y002490D03*
X021205Y002505D03*
X021210Y002520D03*
X021215Y002530D03*
X021220Y002545D03*
X021225Y002560D03*
X021230Y002575D03*
X021235Y002585D03*
X021240Y002600D03*
X021245Y002615D03*
X021250Y002630D03*
X021255Y002640D03*
X021260Y002655D03*
X021265Y002670D03*
X021270Y002685D03*
X021275Y002695D03*
X021280Y002710D03*
X021285Y002725D03*
X021290Y002740D03*
X021295Y002750D03*
X021300Y002765D03*
X021305Y002780D03*
X021310Y002795D03*
X021315Y002805D03*
X021320Y002820D03*
X021325Y002835D03*
X021330Y002850D03*
X021335Y002860D03*
X021340Y002875D03*
X021345Y002890D03*
X021350Y002905D03*
X021995Y002685D03*
X022000Y002695D03*
X022005Y002710D03*
X022010Y002725D03*
X022015Y002740D03*
X022020Y002750D03*
X022025Y002765D03*
X022030Y002780D03*
X022035Y002795D03*
X022040Y002805D03*
X022045Y002820D03*
X022050Y002835D03*
X022055Y002850D03*
X022060Y002860D03*
X022065Y002875D03*
X022070Y002890D03*
X022075Y002905D03*
X022080Y002915D03*
X022085Y002930D03*
X022090Y002945D03*
X022095Y002960D03*
X022100Y002970D03*
X022105Y002985D03*
X022110Y003000D03*
X022115Y003015D03*
X022120Y003025D03*
X022125Y003040D03*
X022130Y003055D03*
X022135Y003065D03*
X022135Y003070D03*
X022140Y003080D03*
X022145Y003095D03*
X022150Y003110D03*
X022155Y003120D03*
X022155Y003125D03*
X022160Y003135D03*
X022165Y003150D03*
X022170Y003165D03*
X022175Y003175D03*
X022175Y003180D03*
X022180Y003190D03*
X022185Y003205D03*
X022190Y003220D03*
X022195Y003230D03*
X022195Y003235D03*
X022200Y003245D03*
X022205Y003260D03*
X022210Y003275D03*
X022215Y003285D03*
X022215Y003290D03*
X022220Y003300D03*
X021990Y002670D03*
X021985Y002655D03*
X021980Y002640D03*
X021975Y002630D03*
X021970Y002615D03*
X021965Y002600D03*
X021960Y002585D03*
X021955Y002575D03*
X021950Y002560D03*
X021945Y002545D03*
X021940Y002535D03*
X021940Y002530D03*
X021935Y002520D03*
X021930Y002505D03*
X023305Y002085D03*
X023840Y002475D03*
X023845Y002485D03*
X023850Y002495D03*
X023980Y002910D03*
D21*
X023768Y002360D03*
X023093Y002345D03*
X023353Y003055D03*
X023358Y003060D03*
X021498Y003210D03*
X021498Y003215D03*
X021498Y003220D03*
X019048Y003065D03*
X018433Y003060D03*
X018428Y003055D03*
X018168Y002350D03*
X018398Y002090D03*
X018768Y002325D03*
X016958Y003235D03*
X016958Y003240D03*
X027993Y002130D03*
X027993Y002125D03*
D22*
X023980Y003045D03*
X023305Y003015D03*
X023300Y003010D03*
X023295Y003005D03*
X023075Y002395D03*
X023075Y002390D03*
X023305Y002090D03*
X023790Y002390D03*
X021500Y003250D03*
X021500Y003255D03*
X021500Y003260D03*
X019065Y003030D03*
X019065Y003025D03*
X018815Y002365D03*
X018810Y002360D03*
X018805Y002355D03*
X018150Y002395D03*
X018150Y002400D03*
X016970Y003270D03*
X016970Y003275D03*
X015405Y003050D03*
X015260Y002775D03*
X015180Y002535D03*
D23*
X016938Y003180D03*
X016938Y003185D03*
X018198Y002310D03*
X018398Y002095D03*
X019023Y003095D03*
X021493Y003140D03*
X021493Y003145D03*
X021493Y003150D03*
X021788Y002255D03*
X023123Y002310D03*
X023738Y002330D03*
X028018Y002195D03*
D24*
X028000Y002145D03*
X027995Y002135D03*
X023960Y003080D03*
X023365Y003065D03*
X023095Y002340D03*
X023305Y002095D03*
X021780Y002190D03*
X021780Y002195D03*
X021495Y003200D03*
X021495Y003205D03*
X019045Y003070D03*
X018440Y003065D03*
X018170Y002345D03*
X018175Y002340D03*
X018760Y002320D03*
X016955Y003230D03*
X015390Y003080D03*
X015165Y002555D03*
D25*
X015185Y002460D03*
X015185Y002455D03*
X015185Y002450D03*
X015185Y002445D03*
X015185Y002440D03*
X015180Y002420D03*
X015180Y002415D03*
X015110Y002120D03*
X015110Y002115D03*
X015110Y002110D03*
X015110Y002105D03*
X015110Y002100D03*
X014510Y002445D03*
X014505Y002435D03*
X014505Y002430D03*
X014500Y002420D03*
X014495Y002405D03*
X014490Y002390D03*
X014485Y002380D03*
X014485Y002375D03*
X014480Y002365D03*
X014475Y002350D03*
X014470Y002335D03*
X014465Y002325D03*
X014465Y002320D03*
X014460Y002310D03*
X014455Y002295D03*
X014450Y002280D03*
X014445Y002270D03*
X014445Y002265D03*
X014440Y002255D03*
X014435Y002240D03*
X014430Y002225D03*
X014425Y002215D03*
X014425Y002210D03*
X014420Y002200D03*
X014415Y002185D03*
X014410Y002170D03*
X014405Y002160D03*
X014405Y002155D03*
X014400Y002145D03*
X014395Y002130D03*
X014390Y002115D03*
X014385Y002105D03*
X014385Y002100D03*
X014515Y002460D03*
X014520Y002475D03*
X014525Y002485D03*
X014525Y002490D03*
X014530Y002500D03*
X014535Y002515D03*
X014540Y002530D03*
X014545Y002540D03*
X014545Y002545D03*
X014550Y002555D03*
X015305Y002810D03*
X015310Y002815D03*
X015315Y002820D03*
X015320Y002825D03*
X015325Y002830D03*
X015325Y002835D03*
X015330Y002840D03*
X015335Y002845D03*
X015340Y002855D03*
X015345Y002860D03*
X015350Y002870D03*
X015355Y002880D03*
X015360Y002885D03*
X015360Y002890D03*
X015365Y002895D03*
X015365Y002900D03*
X015370Y002905D03*
X015370Y002910D03*
X015375Y002915D03*
X015375Y002920D03*
X015380Y002930D03*
X015385Y002940D03*
X015385Y002945D03*
X015390Y002955D03*
X016275Y002330D03*
X016280Y002335D03*
X016290Y002350D03*
X016295Y002355D03*
X016300Y002365D03*
X016305Y002370D03*
X016315Y002385D03*
X016340Y002420D03*
X016270Y002320D03*
X016265Y002315D03*
X016260Y002305D03*
X016255Y002300D03*
X016250Y002295D03*
X016250Y002290D03*
X016245Y002285D03*
X016240Y002280D03*
X016235Y002270D03*
X016230Y002265D03*
X016225Y002260D03*
X016225Y002255D03*
X016220Y002250D03*
X016215Y002245D03*
X016210Y002235D03*
X016205Y002230D03*
X016200Y002225D03*
X016200Y002220D03*
X016195Y002215D03*
X016190Y002210D03*
X016185Y002200D03*
X016180Y002195D03*
X016175Y002185D03*
X016170Y002180D03*
X016160Y002165D03*
X016155Y002160D03*
X016150Y002150D03*
X016145Y002145D03*
X016135Y002130D03*
X016125Y002115D03*
X016975Y002365D03*
X016975Y002370D03*
X016975Y002375D03*
X016975Y002380D03*
X016975Y002385D03*
X016975Y002390D03*
X016975Y002395D03*
X016975Y002400D03*
X016975Y002405D03*
X016975Y002410D03*
X016975Y002415D03*
X016975Y002420D03*
X016975Y002425D03*
X016975Y002430D03*
X016975Y002435D03*
X016975Y002440D03*
X016975Y002445D03*
X016975Y002450D03*
X016975Y002455D03*
X016975Y002460D03*
X016975Y002465D03*
X016975Y002470D03*
X016975Y002475D03*
X016975Y002480D03*
X016975Y002485D03*
X016975Y002490D03*
X016980Y002530D03*
X016980Y002535D03*
X016980Y002540D03*
X016980Y002545D03*
X016980Y002550D03*
X016980Y002555D03*
X016980Y002560D03*
X016980Y002565D03*
X016980Y002570D03*
X016980Y002575D03*
X016980Y002580D03*
X016980Y002585D03*
X016980Y002590D03*
X016980Y002595D03*
X016980Y002600D03*
X016980Y002605D03*
X016980Y002610D03*
X016980Y002615D03*
X018160Y002605D03*
X018165Y002625D03*
X018170Y002645D03*
X018175Y002660D03*
X018180Y002675D03*
X018185Y002690D03*
X018190Y002705D03*
X018195Y002715D03*
X018200Y002730D03*
X018205Y002740D03*
X018215Y002765D03*
X018220Y002775D03*
X018225Y002785D03*
X018890Y002455D03*
X018900Y002470D03*
X018905Y002480D03*
X018910Y002485D03*
X018910Y002490D03*
X018915Y002495D03*
X018920Y002505D03*
X018925Y002510D03*
X018930Y002520D03*
X018935Y002530D03*
X018940Y002540D03*
X019070Y002930D03*
X019070Y002935D03*
X019070Y002940D03*
X019070Y002945D03*
X019070Y002950D03*
X019070Y002955D03*
X018845Y003320D03*
X020145Y002780D03*
X020140Y002765D03*
X020135Y002755D03*
X020130Y002740D03*
X020125Y002725D03*
X020120Y002710D03*
X020115Y002700D03*
X020110Y002685D03*
X020105Y002670D03*
X020100Y002655D03*
X020095Y002645D03*
X020090Y002630D03*
X020085Y002615D03*
X020080Y002600D03*
X020075Y002590D03*
X020070Y002575D03*
X020065Y002560D03*
X020060Y002545D03*
X020055Y002535D03*
X020050Y002520D03*
X020045Y002505D03*
X020040Y002490D03*
X020035Y002480D03*
X020030Y002465D03*
X020025Y002450D03*
X020020Y002435D03*
X020015Y002425D03*
X020010Y002410D03*
X020005Y002395D03*
X020000Y002385D03*
X020000Y002380D03*
X019995Y002370D03*
X019990Y002355D03*
X019985Y002340D03*
X019980Y002330D03*
X019980Y002325D03*
X019975Y002315D03*
X019970Y002300D03*
X019965Y002285D03*
X019960Y002275D03*
X019960Y002270D03*
X019955Y002260D03*
X019950Y002245D03*
X019945Y002230D03*
X019940Y002220D03*
X019940Y002215D03*
X019935Y002205D03*
X019930Y002190D03*
X019925Y002175D03*
X019920Y002165D03*
X019920Y002160D03*
X019915Y002150D03*
X019910Y002135D03*
X019905Y002120D03*
X019900Y002110D03*
X019900Y002105D03*
X020150Y002795D03*
X020155Y002810D03*
X020160Y002820D03*
X020165Y002835D03*
X020170Y002850D03*
X020175Y002865D03*
X020180Y002875D03*
X020185Y002890D03*
X020190Y002905D03*
X020195Y002920D03*
X020200Y002930D03*
X020205Y002945D03*
X020210Y002960D03*
X020215Y002975D03*
X020220Y002985D03*
X020225Y003000D03*
X020230Y003015D03*
X020235Y003030D03*
X020240Y003040D03*
X020245Y003055D03*
X020250Y003070D03*
X020255Y003085D03*
X020260Y003095D03*
X020265Y003110D03*
X020270Y003125D03*
X020275Y003140D03*
X020280Y003150D03*
X020285Y003165D03*
X020290Y003180D03*
X020295Y003195D03*
X020300Y003205D03*
X020305Y003220D03*
X020310Y003235D03*
X020315Y003245D03*
X020315Y003250D03*
X020320Y003260D03*
X020325Y003275D03*
X020330Y003290D03*
X020335Y003300D03*
X021595Y002900D03*
X021595Y002895D03*
X021600Y002880D03*
X021600Y002875D03*
X021600Y002870D03*
X021605Y002855D03*
X021605Y002850D03*
X021610Y002835D03*
X021610Y002830D03*
X021610Y002825D03*
X021615Y002810D03*
X021615Y002805D03*
X021620Y002790D03*
X021620Y002785D03*
X021620Y002780D03*
X021625Y002765D03*
X021625Y002760D03*
X021630Y002745D03*
X021630Y002740D03*
X021630Y002735D03*
X021635Y002720D03*
X021635Y002715D03*
X021640Y002695D03*
X021640Y002690D03*
X021645Y002675D03*
X021645Y002670D03*
X021645Y002665D03*
X021650Y002650D03*
X021650Y002645D03*
X021655Y002630D03*
X021655Y002625D03*
X021655Y002620D03*
X021660Y002605D03*
X021660Y002600D03*
X021665Y002585D03*
X021665Y002580D03*
X021665Y002575D03*
X021670Y002560D03*
X021670Y002555D03*
X021675Y002540D03*
X021675Y002535D03*
X021675Y002530D03*
X021680Y002515D03*
X021680Y002510D03*
X021685Y002495D03*
X023090Y002630D03*
X023095Y002650D03*
X023100Y002665D03*
X023105Y002680D03*
X023110Y002695D03*
X023115Y002705D03*
X023120Y002720D03*
X023130Y002745D03*
X023135Y002755D03*
X023825Y002450D03*
X023825Y002445D03*
X023830Y002455D03*
X023835Y002465D03*
X023990Y002960D03*
X023990Y002965D03*
X023990Y002970D03*
X026075Y002330D03*
X026080Y002345D03*
X026085Y002360D03*
X026090Y002370D03*
X026090Y002375D03*
X026095Y002385D03*
X026100Y002400D03*
X026105Y002415D03*
X026110Y002425D03*
X026110Y002430D03*
X026115Y002440D03*
X026120Y002455D03*
X026125Y002470D03*
X026130Y002480D03*
X026130Y002485D03*
X026135Y002495D03*
X026140Y002510D03*
X026145Y002525D03*
X026150Y002535D03*
X026150Y002540D03*
X026155Y002550D03*
X026160Y002565D03*
X026165Y002580D03*
X026170Y002590D03*
X026170Y002595D03*
X026175Y002605D03*
X027990Y002500D03*
X027990Y002495D03*
X027990Y002490D03*
X027990Y002485D03*
X027990Y002480D03*
X027995Y002565D03*
X027995Y002570D03*
X027995Y002575D03*
X028000Y002645D03*
X028000Y002650D03*
X028260Y002485D03*
X028270Y002500D03*
X028280Y002515D03*
X028290Y002530D03*
X028300Y002545D03*
X028310Y002560D03*
X028320Y002575D03*
X028330Y002590D03*
X028340Y002605D03*
X028250Y002470D03*
D26*
X028253Y002475D03*
X028258Y002480D03*
X028263Y002490D03*
X028268Y002495D03*
X028273Y002505D03*
X028278Y002510D03*
X028283Y002520D03*
X028288Y002525D03*
X028293Y002535D03*
X028298Y002540D03*
X028303Y002550D03*
X028308Y002555D03*
X028313Y002565D03*
X028318Y002570D03*
X028323Y002580D03*
X028328Y002585D03*
X028333Y002595D03*
X028338Y002600D03*
X028343Y002610D03*
X028348Y002615D03*
X028353Y002620D03*
X028353Y002625D03*
X028358Y002630D03*
X028363Y002635D03*
X028363Y002640D03*
X028368Y002645D03*
X028373Y002650D03*
X028373Y002655D03*
X028378Y002660D03*
X028383Y002665D03*
X028383Y002670D03*
X028388Y002675D03*
X028393Y002680D03*
X028393Y002685D03*
X028398Y002690D03*
X028403Y002695D03*
X028403Y002700D03*
X028408Y002705D03*
X028413Y002710D03*
X028413Y002715D03*
X028418Y002720D03*
X028423Y002725D03*
X028423Y002730D03*
X028428Y002735D03*
X028433Y002740D03*
X028433Y002745D03*
X028438Y002750D03*
X028443Y002755D03*
X028443Y002760D03*
X028448Y002765D03*
X028453Y002770D03*
X028453Y002775D03*
X028458Y002780D03*
X028463Y002785D03*
X028463Y002790D03*
X028468Y002795D03*
X028473Y002800D03*
X028478Y002810D03*
X028483Y002815D03*
X028488Y002825D03*
X028493Y002830D03*
X028498Y002840D03*
X028503Y002845D03*
X028508Y002855D03*
X028513Y002860D03*
X028518Y002870D03*
X028523Y002875D03*
X028528Y002885D03*
X028533Y002890D03*
X028538Y002900D03*
X028543Y002905D03*
X028548Y002915D03*
X028553Y002920D03*
X028558Y002930D03*
X028563Y002935D03*
X028568Y002945D03*
X028573Y002950D03*
X028578Y002960D03*
X028583Y002965D03*
X028588Y002975D03*
X028593Y002980D03*
X028603Y002995D03*
X028613Y003010D03*
X028623Y003025D03*
X028633Y003040D03*
X028643Y003055D03*
X028653Y003070D03*
X028663Y003085D03*
X028673Y003100D03*
X028683Y003115D03*
X028693Y003130D03*
X028703Y003145D03*
X028713Y003160D03*
X028038Y003230D03*
X028038Y003235D03*
X028038Y003240D03*
X028038Y003245D03*
X028038Y003250D03*
X028038Y003255D03*
X028033Y003180D03*
X028033Y003175D03*
X028033Y003170D03*
X028033Y003165D03*
X028033Y003160D03*
X028033Y003155D03*
X028033Y003150D03*
X028028Y003105D03*
X028028Y003100D03*
X028028Y003095D03*
X028028Y003090D03*
X028028Y003085D03*
X028028Y003080D03*
X028028Y003075D03*
X028028Y003070D03*
X028028Y003065D03*
X028023Y003030D03*
X028023Y003025D03*
X028023Y003020D03*
X028023Y003015D03*
X028023Y003010D03*
X028023Y003005D03*
X028023Y003000D03*
X028023Y002995D03*
X028023Y002990D03*
X028023Y002985D03*
X028023Y002980D03*
X028018Y002955D03*
X028018Y002950D03*
X028018Y002945D03*
X028018Y002940D03*
X028018Y002935D03*
X028018Y002930D03*
X028018Y002925D03*
X028018Y002920D03*
X028018Y002915D03*
X028018Y002910D03*
X028018Y002905D03*
X028018Y002900D03*
X028013Y002880D03*
X028013Y002875D03*
X028013Y002870D03*
X028013Y002865D03*
X028013Y002860D03*
X028013Y002855D03*
X028013Y002850D03*
X028013Y002845D03*
X028013Y002840D03*
X028013Y002835D03*
X028013Y002830D03*
X028013Y002825D03*
X028013Y002820D03*
X028013Y002815D03*
X028008Y002800D03*
X028008Y002795D03*
X028008Y002790D03*
X028008Y002785D03*
X028008Y002780D03*
X028008Y002775D03*
X028008Y002770D03*
X028008Y002765D03*
X028008Y002760D03*
X028008Y002755D03*
X028008Y002750D03*
X028008Y002745D03*
X028008Y002740D03*
X028008Y002735D03*
X028008Y002730D03*
X028003Y002725D03*
X028003Y002720D03*
X028003Y002715D03*
X028003Y002710D03*
X028003Y002705D03*
X028003Y002700D03*
X028003Y002695D03*
X028003Y002690D03*
X028003Y002685D03*
X028003Y002680D03*
X028003Y002675D03*
X028003Y002670D03*
X028003Y002665D03*
X028003Y002660D03*
X028003Y002655D03*
X027998Y002640D03*
X027998Y002635D03*
X027998Y002630D03*
X027998Y002625D03*
X027998Y002620D03*
X027998Y002615D03*
X027998Y002610D03*
X027998Y002605D03*
X027998Y002600D03*
X027998Y002595D03*
X027998Y002590D03*
X027998Y002585D03*
X027998Y002580D03*
X027993Y002560D03*
X027993Y002555D03*
X027993Y002550D03*
X027993Y002545D03*
X027993Y002540D03*
X027993Y002535D03*
X027993Y002530D03*
X027993Y002525D03*
X027993Y002520D03*
X027993Y002515D03*
X027993Y002510D03*
X027993Y002505D03*
X027988Y002475D03*
X027988Y002470D03*
X027988Y002465D03*
X027988Y002460D03*
X028243Y002460D03*
X028248Y002465D03*
X026178Y002610D03*
X026178Y002615D03*
X026173Y002600D03*
X026168Y002585D03*
X026163Y002575D03*
X026163Y002570D03*
X026158Y002560D03*
X026158Y002555D03*
X026153Y002545D03*
X026148Y002530D03*
X026143Y002520D03*
X026143Y002515D03*
X026138Y002505D03*
X026138Y002500D03*
X026133Y002490D03*
X026128Y002475D03*
X026123Y002465D03*
X026123Y002460D03*
X026118Y002450D03*
X026118Y002445D03*
X026113Y002435D03*
X026108Y002420D03*
X026103Y002410D03*
X026103Y002405D03*
X026098Y002395D03*
X026098Y002390D03*
X026093Y002380D03*
X026088Y002365D03*
X026083Y002355D03*
X026083Y002350D03*
X026078Y002340D03*
X026078Y002335D03*
X026073Y002325D03*
X026073Y002320D03*
X023988Y002975D03*
X023988Y002980D03*
X023988Y002985D03*
X023988Y002990D03*
X023823Y002440D03*
X023818Y002435D03*
X023088Y002615D03*
X023088Y002620D03*
X023088Y002625D03*
X023093Y002635D03*
X023093Y002640D03*
X023093Y002645D03*
X023098Y002655D03*
X023098Y002660D03*
X023103Y002670D03*
X023103Y002675D03*
X023108Y002685D03*
X023108Y002690D03*
X023113Y002700D03*
X023118Y002710D03*
X023118Y002715D03*
X023123Y002725D03*
X023123Y002730D03*
X023128Y002735D03*
X023128Y002740D03*
X023133Y002750D03*
X023138Y002760D03*
X023138Y002765D03*
X023143Y002770D03*
X023143Y002775D03*
X023148Y002780D03*
X023148Y002785D03*
X023153Y002790D03*
X023153Y002795D03*
X023158Y002800D03*
X023158Y002805D03*
X023163Y002810D03*
X023163Y002815D03*
X023168Y002820D03*
X023168Y002825D03*
X023173Y002830D03*
X023173Y002835D03*
X023178Y002840D03*
X023178Y002845D03*
X023183Y002850D03*
X023188Y002860D03*
X023193Y002870D03*
X023198Y002875D03*
X023203Y002885D03*
X023213Y002900D03*
X023083Y002610D03*
X023083Y002605D03*
X023083Y002600D03*
X023083Y002595D03*
X023078Y002590D03*
X023078Y002585D03*
X023078Y002580D03*
X023078Y002575D03*
X023078Y002570D03*
X023073Y002565D03*
X023073Y002560D03*
X023073Y002555D03*
X023073Y002550D03*
X023073Y002545D03*
X023068Y002525D03*
X023068Y002520D03*
X023068Y002515D03*
X023068Y002510D03*
X021773Y002100D03*
X021503Y003295D03*
X021503Y003300D03*
X020333Y003295D03*
X020328Y003285D03*
X020328Y003280D03*
X020323Y003270D03*
X020323Y003265D03*
X020318Y003255D03*
X020313Y003240D03*
X020308Y003230D03*
X020308Y003225D03*
X020303Y003215D03*
X020303Y003210D03*
X020298Y003200D03*
X020293Y003190D03*
X020293Y003185D03*
X020288Y003175D03*
X020288Y003170D03*
X020283Y003160D03*
X020283Y003155D03*
X020278Y003145D03*
X020273Y003135D03*
X020273Y003130D03*
X020268Y003120D03*
X020268Y003115D03*
X020263Y003105D03*
X020263Y003100D03*
X020258Y003090D03*
X020253Y003080D03*
X020253Y003075D03*
X020248Y003065D03*
X020248Y003060D03*
X020243Y003050D03*
X020243Y003045D03*
X020238Y003035D03*
X020233Y003025D03*
X020233Y003020D03*
X020228Y003010D03*
X020228Y003005D03*
X020223Y002995D03*
X020223Y002990D03*
X020218Y002980D03*
X020213Y002970D03*
X020213Y002965D03*
X020208Y002955D03*
X020208Y002950D03*
X020203Y002940D03*
X020203Y002935D03*
X020198Y002925D03*
X020193Y002915D03*
X020193Y002910D03*
X020188Y002900D03*
X020188Y002895D03*
X020183Y002885D03*
X020183Y002880D03*
X020178Y002870D03*
X020173Y002860D03*
X020173Y002855D03*
X020168Y002845D03*
X020168Y002840D03*
X020163Y002830D03*
X020163Y002825D03*
X020158Y002815D03*
X020153Y002805D03*
X020153Y002800D03*
X020148Y002790D03*
X020148Y002785D03*
X020143Y002775D03*
X020143Y002770D03*
X020138Y002760D03*
X020133Y002750D03*
X020133Y002745D03*
X020128Y002735D03*
X020128Y002730D03*
X020123Y002720D03*
X020123Y002715D03*
X020118Y002705D03*
X020113Y002695D03*
X020113Y002690D03*
X020108Y002680D03*
X020108Y002675D03*
X020103Y002665D03*
X020103Y002660D03*
X020098Y002650D03*
X020093Y002640D03*
X020093Y002635D03*
X020088Y002625D03*
X020088Y002620D03*
X020083Y002610D03*
X020083Y002605D03*
X020078Y002595D03*
X020073Y002585D03*
X020073Y002580D03*
X020068Y002570D03*
X020068Y002565D03*
X020063Y002555D03*
X020063Y002550D03*
X020058Y002540D03*
X020053Y002530D03*
X020053Y002525D03*
X020048Y002515D03*
X020048Y002510D03*
X020043Y002500D03*
X020043Y002495D03*
X020038Y002485D03*
X020033Y002475D03*
X020033Y002470D03*
X020028Y002460D03*
X020028Y002455D03*
X020023Y002445D03*
X020023Y002440D03*
X020018Y002430D03*
X020013Y002420D03*
X020013Y002415D03*
X020008Y002405D03*
X020008Y002400D03*
X020003Y002390D03*
X019998Y002375D03*
X019993Y002365D03*
X019993Y002360D03*
X019988Y002350D03*
X019988Y002345D03*
X019983Y002335D03*
X019978Y002320D03*
X019973Y002310D03*
X019973Y002305D03*
X019968Y002295D03*
X019968Y002290D03*
X019963Y002280D03*
X019958Y002265D03*
X019953Y002255D03*
X019953Y002250D03*
X019948Y002240D03*
X019948Y002235D03*
X019943Y002225D03*
X019938Y002210D03*
X019933Y002200D03*
X019933Y002195D03*
X019928Y002185D03*
X019928Y002180D03*
X019923Y002170D03*
X019918Y002155D03*
X019913Y002145D03*
X019913Y002140D03*
X019908Y002130D03*
X019908Y002125D03*
X019903Y002115D03*
X019898Y002100D03*
X018903Y002475D03*
X018898Y002465D03*
X018893Y002460D03*
X018888Y002450D03*
X018883Y002445D03*
X018873Y002430D03*
X018158Y002585D03*
X018158Y002590D03*
X018158Y002595D03*
X018158Y002600D03*
X018163Y002610D03*
X018163Y002615D03*
X018163Y002620D03*
X018168Y002630D03*
X018168Y002635D03*
X018168Y002640D03*
X018173Y002650D03*
X018173Y002655D03*
X018178Y002665D03*
X018178Y002670D03*
X018183Y002680D03*
X018183Y002685D03*
X018188Y002695D03*
X018188Y002700D03*
X018193Y002710D03*
X018198Y002720D03*
X018198Y002725D03*
X018203Y002735D03*
X018208Y002745D03*
X018208Y002750D03*
X018213Y002755D03*
X018213Y002760D03*
X018218Y002770D03*
X018223Y002780D03*
X018228Y002790D03*
X018228Y002795D03*
X018233Y002800D03*
X018233Y002805D03*
X018238Y002810D03*
X018238Y002815D03*
X018243Y002820D03*
X018248Y002830D03*
X018253Y002840D03*
X018258Y002845D03*
X018258Y002850D03*
X018263Y002855D03*
X018268Y002865D03*
X018273Y002875D03*
X018283Y002890D03*
X018293Y002905D03*
X018153Y002580D03*
X018153Y002575D03*
X018153Y002570D03*
X018153Y002565D03*
X018148Y002555D03*
X018148Y002550D03*
X018148Y002545D03*
X018148Y002540D03*
X018148Y002535D03*
X019073Y002960D03*
X019073Y002965D03*
X019073Y002970D03*
X019073Y002975D03*
X019073Y002980D03*
X016973Y002360D03*
X016973Y002355D03*
X016973Y002350D03*
X016973Y002345D03*
X016973Y002340D03*
X016973Y002335D03*
X016973Y002330D03*
X016973Y002325D03*
X016973Y002320D03*
X016973Y002315D03*
X016973Y002310D03*
X016973Y002305D03*
X016973Y002300D03*
X016973Y002295D03*
X016973Y002290D03*
X016973Y002285D03*
X016973Y002280D03*
X016973Y002275D03*
X016973Y002270D03*
X016973Y002265D03*
X016973Y002260D03*
X016973Y002255D03*
X016973Y002250D03*
X016973Y002245D03*
X016973Y002240D03*
X016973Y002235D03*
X016968Y002125D03*
X016968Y002120D03*
X016968Y002115D03*
X016968Y002110D03*
X016213Y002240D03*
X016188Y002205D03*
X016178Y002190D03*
X016168Y002175D03*
X016163Y002170D03*
X016153Y002155D03*
X016143Y002140D03*
X016138Y002135D03*
X016133Y002125D03*
X016128Y002120D03*
X016123Y002110D03*
X016118Y002105D03*
X016113Y002100D03*
X015188Y002465D03*
X015188Y002470D03*
X015188Y002475D03*
X015188Y002480D03*
X015188Y002485D03*
X015188Y002490D03*
X015378Y002925D03*
X015383Y002935D03*
X015388Y002950D03*
X015393Y002960D03*
X015393Y002965D03*
X015393Y002970D03*
X015398Y002975D03*
X015398Y002980D03*
X015398Y002985D03*
X014558Y002570D03*
X014553Y002565D03*
X014553Y002560D03*
X014548Y002550D03*
X014543Y002535D03*
X014538Y002525D03*
X014538Y002520D03*
X014533Y002510D03*
X014533Y002505D03*
X014528Y002495D03*
X014523Y002480D03*
X014518Y002470D03*
X014518Y002465D03*
X014513Y002455D03*
X014513Y002450D03*
X014508Y002440D03*
X014503Y002425D03*
X014498Y002415D03*
X014498Y002410D03*
X014493Y002400D03*
X014493Y002395D03*
X014488Y002385D03*
X014483Y002370D03*
X014478Y002360D03*
X014478Y002355D03*
X014473Y002345D03*
X014473Y002340D03*
X014468Y002330D03*
X014463Y002315D03*
X014458Y002305D03*
X014458Y002300D03*
X014453Y002290D03*
X014453Y002285D03*
X014448Y002275D03*
X014443Y002260D03*
X014438Y002250D03*
X014438Y002245D03*
X014433Y002235D03*
X014433Y002230D03*
X014428Y002220D03*
X014423Y002205D03*
X014418Y002195D03*
X014418Y002190D03*
X014413Y002180D03*
X014413Y002175D03*
X014408Y002165D03*
X014403Y002150D03*
X014398Y002140D03*
X014398Y002135D03*
X014393Y002125D03*
X014393Y002120D03*
X014388Y002110D03*
D27*
X015290Y002795D03*
X015295Y002800D03*
X015300Y002805D03*
X015400Y002990D03*
X015400Y002995D03*
X015400Y003000D03*
X016980Y003300D03*
X016970Y002230D03*
X016970Y002225D03*
X016970Y002220D03*
X016970Y002215D03*
X016970Y002210D03*
X016970Y002205D03*
X016970Y002200D03*
X016970Y002195D03*
X016970Y002190D03*
X016970Y002185D03*
X016970Y002180D03*
X016970Y002175D03*
X016970Y002170D03*
X016970Y002165D03*
X016970Y002160D03*
X016970Y002155D03*
X016970Y002150D03*
X016970Y002145D03*
X016970Y002140D03*
X016970Y002135D03*
X016970Y002130D03*
X016965Y002105D03*
X016965Y002100D03*
X018145Y002495D03*
X018145Y002500D03*
X018145Y002505D03*
X018145Y002510D03*
X018145Y002515D03*
X018145Y002520D03*
X018145Y002525D03*
X018145Y002530D03*
X018150Y002560D03*
X018245Y002825D03*
X018250Y002835D03*
X018265Y002860D03*
X018270Y002870D03*
X018275Y002880D03*
X018280Y002885D03*
X018285Y002895D03*
X018290Y002900D03*
X018295Y002910D03*
X018300Y002915D03*
X018305Y002925D03*
X018310Y002930D03*
X018875Y002435D03*
X018880Y002440D03*
X018870Y002425D03*
X018865Y002420D03*
X018860Y002415D03*
X019070Y002985D03*
X019070Y002990D03*
X019070Y002995D03*
X021500Y003290D03*
X021775Y002115D03*
X021775Y002110D03*
X021775Y002105D03*
X023065Y002470D03*
X023065Y002475D03*
X023065Y002480D03*
X023065Y002485D03*
X023065Y002490D03*
X023065Y002495D03*
X023065Y002500D03*
X023065Y002505D03*
X023070Y002530D03*
X023070Y002535D03*
X023070Y002540D03*
X023185Y002855D03*
X023190Y002865D03*
X023200Y002880D03*
X023205Y002890D03*
X023210Y002895D03*
X023215Y002905D03*
X023220Y002910D03*
X023225Y002915D03*
X023225Y002920D03*
X023230Y002925D03*
X023245Y002945D03*
X023990Y002995D03*
X023990Y003000D03*
X023815Y002430D03*
X023810Y002420D03*
X028010Y002805D03*
X028010Y002810D03*
X028015Y002885D03*
X028015Y002890D03*
X028015Y002895D03*
X028020Y002960D03*
X028020Y002965D03*
X028020Y002970D03*
X028020Y002975D03*
X028025Y003035D03*
X028025Y003040D03*
X028025Y003045D03*
X028025Y003050D03*
X028025Y003055D03*
X028025Y003060D03*
X028030Y003110D03*
X028030Y003115D03*
X028030Y003120D03*
X028030Y003125D03*
X028030Y003130D03*
X028030Y003135D03*
X028030Y003140D03*
X028030Y003145D03*
X028035Y003185D03*
X028035Y003190D03*
X028035Y003195D03*
X028035Y003200D03*
X028035Y003205D03*
X028035Y003210D03*
X028035Y003215D03*
X028035Y003220D03*
X028035Y003225D03*
X028040Y003260D03*
X028040Y003265D03*
X028040Y003270D03*
X028040Y003275D03*
X028040Y003280D03*
X028040Y003285D03*
X028040Y003290D03*
X028040Y003295D03*
X028040Y003300D03*
X028565Y002940D03*
X028555Y002925D03*
X028545Y002910D03*
X028535Y002895D03*
X028525Y002880D03*
X028515Y002865D03*
X028505Y002850D03*
X028495Y002835D03*
X028485Y002820D03*
X028475Y002805D03*
X028575Y002955D03*
X028585Y002970D03*
X028595Y002985D03*
X028600Y002990D03*
X028605Y003000D03*
X028610Y003005D03*
X028615Y003015D03*
X028620Y003020D03*
X028625Y003030D03*
X028630Y003035D03*
X028635Y003045D03*
X028640Y003050D03*
X028645Y003060D03*
X028650Y003065D03*
X028655Y003075D03*
X028660Y003080D03*
X028665Y003090D03*
X028670Y003095D03*
X028675Y003105D03*
X028680Y003110D03*
X028685Y003120D03*
X028690Y003125D03*
X028695Y003135D03*
X028700Y003140D03*
X028705Y003150D03*
X028710Y003155D03*
X028715Y003165D03*
X028720Y003170D03*
X028725Y003175D03*
X028725Y003180D03*
X028730Y003185D03*
X028735Y003190D03*
X028735Y003195D03*
X028740Y003200D03*
X028745Y003205D03*
X028745Y003210D03*
X028750Y003215D03*
X028755Y003220D03*
X028755Y003225D03*
X028760Y003230D03*
X028765Y003235D03*
X028765Y003240D03*
X028770Y003245D03*
X028775Y003250D03*
X028775Y003255D03*
X028780Y003260D03*
X028785Y003265D03*
X028785Y003270D03*
X028790Y003275D03*
X028795Y003280D03*
X028795Y003285D03*
X028800Y003290D03*
X028805Y003295D03*
X028805Y003300D03*
D28*
X028035Y002240D03*
X023135Y002300D03*
X021790Y002300D03*
X021490Y003100D03*
X021490Y003105D03*
X019010Y003105D03*
X018710Y002295D03*
X018400Y002100D03*
X018215Y002300D03*
X016925Y003145D03*
X016925Y003150D03*
D29*
X016993Y003005D03*
X016988Y002920D03*
X016988Y002915D03*
X016988Y002910D03*
X016988Y002905D03*
X016988Y002900D03*
X016988Y002895D03*
X016988Y002890D03*
X016988Y002885D03*
X016988Y002880D03*
X016743Y002990D03*
X016733Y002975D03*
X016723Y002960D03*
X016718Y002955D03*
X016708Y002940D03*
X016703Y002935D03*
X016698Y002925D03*
X016693Y002920D03*
X016688Y002910D03*
X016683Y002905D03*
X016678Y002900D03*
X016673Y002890D03*
X016668Y002885D03*
X016663Y002875D03*
X016658Y002870D03*
X016653Y002865D03*
X016653Y002860D03*
X016648Y002855D03*
X016643Y002850D03*
X016643Y002845D03*
X016638Y002840D03*
X016633Y002835D03*
X016628Y002830D03*
X016628Y002825D03*
X016623Y002820D03*
X016618Y002815D03*
X016613Y002805D03*
X016608Y002800D03*
X016603Y002790D03*
X016598Y002785D03*
X016588Y002770D03*
X016583Y002765D03*
X016578Y002755D03*
X016573Y002750D03*
X016563Y002735D03*
X016553Y002720D03*
X016538Y002700D03*
X016528Y002685D03*
X015143Y002280D03*
X015138Y002265D03*
X015128Y002230D03*
X021058Y002100D03*
X021063Y002110D03*
X021063Y002115D03*
X021068Y002125D03*
X021068Y002130D03*
X021073Y002140D03*
X021078Y002155D03*
X021083Y002165D03*
X021083Y002170D03*
X021088Y002180D03*
X021088Y002185D03*
X021093Y002195D03*
X021098Y002210D03*
X021103Y002220D03*
X021103Y002225D03*
X021108Y002235D03*
X021108Y002240D03*
X021113Y002250D03*
X021118Y002265D03*
X021123Y002275D03*
X021123Y002280D03*
X021128Y002290D03*
X021128Y002295D03*
X021133Y002305D03*
X021138Y002320D03*
X021143Y002330D03*
X021143Y002335D03*
X021148Y002345D03*
X021148Y002350D03*
X021153Y002360D03*
X021158Y002370D03*
X021158Y002375D03*
X021163Y002385D03*
X021163Y002390D03*
X021168Y002400D03*
X021168Y002405D03*
X021173Y002415D03*
X021178Y002425D03*
X021178Y002430D03*
X021183Y002440D03*
X021183Y002445D03*
X021188Y002455D03*
X021188Y002460D03*
X021193Y002470D03*
X021198Y002480D03*
X021198Y002485D03*
X021203Y002495D03*
X021203Y002500D03*
X021208Y002510D03*
X021208Y002515D03*
X021213Y002525D03*
X021218Y002535D03*
X021218Y002540D03*
X021223Y002550D03*
X021223Y002555D03*
X021228Y002565D03*
X021228Y002570D03*
X021233Y002580D03*
X021238Y002590D03*
X021238Y002595D03*
X021243Y002605D03*
X021243Y002610D03*
X021248Y002620D03*
X021248Y002625D03*
X021253Y002635D03*
X021258Y002645D03*
X021258Y002650D03*
X021263Y002660D03*
X021263Y002665D03*
X021268Y002675D03*
X021268Y002680D03*
X021273Y002690D03*
X021278Y002700D03*
X021278Y002705D03*
X021283Y002715D03*
X021283Y002720D03*
X021288Y002730D03*
X021288Y002735D03*
X021293Y002745D03*
X021298Y002755D03*
X021298Y002760D03*
X021303Y002770D03*
X021303Y002775D03*
X021308Y002785D03*
X021308Y002790D03*
X021313Y002800D03*
X021318Y002810D03*
X021318Y002815D03*
X021323Y002825D03*
X021323Y002830D03*
X021328Y002840D03*
X021328Y002845D03*
X021333Y002855D03*
X021338Y002865D03*
X021338Y002870D03*
X021343Y002880D03*
X021343Y002885D03*
X021348Y002895D03*
X021348Y002900D03*
X021993Y002680D03*
X021993Y002675D03*
X021988Y002665D03*
X021988Y002660D03*
X021983Y002650D03*
X021983Y002645D03*
X021978Y002635D03*
X021973Y002625D03*
X021973Y002620D03*
X021968Y002610D03*
X021968Y002605D03*
X021963Y002595D03*
X021963Y002590D03*
X021958Y002580D03*
X021953Y002570D03*
X021953Y002565D03*
X021948Y002555D03*
X021948Y002550D03*
X021943Y002540D03*
X021938Y002525D03*
X021933Y002515D03*
X021933Y002510D03*
X021928Y002500D03*
X021928Y002495D03*
X021998Y002690D03*
X022003Y002700D03*
X022003Y002705D03*
X022008Y002715D03*
X022008Y002720D03*
X022013Y002730D03*
X022013Y002735D03*
X022018Y002745D03*
X022023Y002755D03*
X022023Y002760D03*
X022028Y002770D03*
X022028Y002775D03*
X022033Y002785D03*
X022033Y002790D03*
X022038Y002800D03*
X022043Y002810D03*
X022043Y002815D03*
X022048Y002825D03*
X022048Y002830D03*
X022053Y002840D03*
X022053Y002845D03*
X022058Y002855D03*
X022063Y002865D03*
X022063Y002870D03*
X022068Y002880D03*
X022068Y002885D03*
X022073Y002895D03*
X022073Y002900D03*
X022078Y002910D03*
X022083Y002920D03*
X022083Y002925D03*
X022088Y002935D03*
X022088Y002940D03*
X022093Y002950D03*
X022093Y002955D03*
X022098Y002965D03*
X022103Y002975D03*
X022103Y002980D03*
X022108Y002990D03*
X022108Y002995D03*
X022113Y003005D03*
X022113Y003010D03*
X022118Y003020D03*
X022123Y003030D03*
X022123Y003035D03*
X022128Y003045D03*
X022128Y003050D03*
X022133Y003060D03*
X022138Y003075D03*
X022143Y003085D03*
X022143Y003090D03*
X022148Y003100D03*
X022148Y003105D03*
X022153Y003115D03*
X022158Y003130D03*
X022163Y003140D03*
X022163Y003145D03*
X022168Y003155D03*
X022168Y003160D03*
X022173Y003170D03*
X022178Y003185D03*
X022183Y003195D03*
X022183Y003200D03*
X022188Y003210D03*
X022188Y003215D03*
X022193Y003225D03*
X022198Y003240D03*
X022203Y003250D03*
X022203Y003255D03*
X022208Y003265D03*
X022208Y003270D03*
X022213Y003280D03*
X022218Y003295D03*
X023853Y002505D03*
X023853Y002500D03*
X023858Y002510D03*
X023858Y002515D03*
X023863Y002520D03*
X023863Y002525D03*
X023868Y002535D03*
X023848Y002490D03*
D30*
X023305Y002100D03*
X023115Y002315D03*
X023405Y003090D03*
X021785Y002250D03*
X021785Y002245D03*
X019030Y003090D03*
X018480Y003090D03*
X018735Y002305D03*
X016940Y003190D03*
X028015Y002190D03*
X028015Y002185D03*
D31*
X023753Y002130D03*
X023748Y002120D03*
X023748Y002115D03*
X023748Y002110D03*
X023743Y002100D03*
D32*
X026298Y002100D03*
X026298Y002105D03*
X026303Y002110D03*
X026303Y002115D03*
X026303Y002120D03*
X026308Y002125D03*
X026308Y002130D03*
X026308Y002135D03*
X026313Y002140D03*
X026313Y002145D03*
X026318Y002150D03*
X026318Y002155D03*
X026318Y002160D03*
X026323Y002165D03*
X026323Y002170D03*
X026323Y002175D03*
X026328Y002180D03*
X026328Y002185D03*
X026328Y002190D03*
X026333Y002195D03*
X026333Y002200D03*
X026338Y002205D03*
X026338Y002210D03*
X026338Y002215D03*
X026343Y002220D03*
X026343Y002225D03*
X026343Y002230D03*
X026348Y002235D03*
X026348Y002240D03*
X026348Y002245D03*
X026353Y002250D03*
X026353Y002255D03*
X026358Y002260D03*
X026358Y002265D03*
X026358Y002270D03*
X026363Y002275D03*
X026363Y002280D03*
X026363Y002285D03*
X026368Y002290D03*
X026368Y002295D03*
X026368Y002300D03*
X026373Y002305D03*
X026373Y002310D03*
X026378Y002315D03*
X014923Y002735D03*
X014918Y002730D03*
X014873Y002605D03*
X014873Y002600D03*
D33*
X015178Y002540D03*
X015403Y003055D03*
X015403Y003060D03*
X016968Y003265D03*
X018383Y003015D03*
X018388Y003020D03*
X018393Y003025D03*
X018398Y003030D03*
X019063Y003035D03*
X019063Y003040D03*
X018153Y002390D03*
X018153Y002385D03*
X018158Y002375D03*
X021498Y003245D03*
X021778Y002155D03*
X021778Y002150D03*
X021778Y002145D03*
X023078Y002380D03*
X023078Y002385D03*
X023313Y003020D03*
X023318Y003025D03*
X023323Y003030D03*
X023978Y003050D03*
X023978Y003055D03*
X023788Y002385D03*
X023783Y002380D03*
X027983Y002100D03*
D34*
X028050Y002280D03*
X028050Y002285D03*
X023700Y002305D03*
X021790Y002350D03*
X021485Y003045D03*
X021485Y003050D03*
X021485Y003055D03*
X018995Y003110D03*
X018400Y002105D03*
X016910Y003105D03*
D35*
X016928Y003155D03*
X021488Y003110D03*
X021788Y002295D03*
X021788Y002290D03*
X021788Y002285D03*
X023308Y002105D03*
X028028Y002225D03*
X028033Y002230D03*
X028033Y002235D03*
D36*
X023745Y002105D03*
D37*
X023780Y002375D03*
X023080Y002375D03*
X023080Y002370D03*
X023325Y003035D03*
X023765Y003315D03*
X023975Y003060D03*
X021780Y002160D03*
X021500Y003240D03*
X019060Y003045D03*
X018410Y003040D03*
X018405Y003035D03*
X018155Y002380D03*
X018160Y002370D03*
X018160Y002365D03*
X018795Y002345D03*
X018800Y002350D03*
X016965Y003255D03*
X016965Y003260D03*
X015400Y003065D03*
X015250Y002770D03*
X015175Y002545D03*
X027985Y002105D03*
D38*
X028068Y002325D03*
X028068Y002330D03*
X021483Y003005D03*
X021483Y003010D03*
X021483Y003015D03*
X018403Y002110D03*
X016898Y003070D03*
D39*
X016915Y003120D03*
X018225Y002295D03*
X021485Y003065D03*
X021485Y003070D03*
X021790Y002335D03*
X021790Y002330D03*
X021790Y002325D03*
X023150Y002295D03*
X023310Y002110D03*
X023915Y003110D03*
X028045Y002270D03*
X028045Y002265D03*
D40*
X027988Y002115D03*
X027988Y002110D03*
X023973Y003065D03*
X023338Y003045D03*
X023333Y003040D03*
X023083Y002365D03*
X023088Y002360D03*
X021778Y002170D03*
X021778Y002165D03*
X021498Y003225D03*
X021498Y003230D03*
X021498Y003235D03*
X019058Y003050D03*
X018843Y003315D03*
X018788Y002340D03*
X018783Y002335D03*
X018163Y002360D03*
X016963Y003250D03*
X015398Y003070D03*
D41*
X016885Y003035D03*
X018405Y002115D03*
X021480Y002965D03*
X021480Y002970D03*
X021800Y002435D03*
X023310Y002125D03*
X028080Y002365D03*
D42*
X028055Y002300D03*
X028055Y002295D03*
X023755Y003295D03*
X023460Y003110D03*
X023310Y002115D03*
X021795Y002365D03*
X021485Y003030D03*
X021485Y003035D03*
X018535Y003110D03*
X016905Y003095D03*
X016905Y003090D03*
D43*
X016875Y003010D03*
X018405Y002120D03*
X021475Y002930D03*
X021800Y002470D03*
X021800Y002465D03*
X028095Y002405D03*
X028095Y002400D03*
D44*
X028070Y002335D03*
X023310Y002120D03*
X021795Y002395D03*
X021795Y002400D03*
X021795Y002405D03*
X021480Y002995D03*
X021480Y003000D03*
X016895Y003065D03*
D45*
X016960Y003245D03*
X018415Y003045D03*
X018420Y003050D03*
X019050Y003060D03*
X019055Y003055D03*
X018775Y002330D03*
X018165Y002355D03*
X015395Y003075D03*
X015240Y002765D03*
X015170Y002550D03*
X021780Y002185D03*
X021780Y002180D03*
X021780Y002175D03*
X023090Y002350D03*
X023090Y002355D03*
X023770Y002365D03*
X023775Y002370D03*
X023970Y003070D03*
X023965Y003075D03*
X023345Y003050D03*
X027990Y002120D03*
D46*
X023988Y002935D03*
X023988Y002940D03*
X023988Y002945D03*
X023988Y002950D03*
X023988Y002955D03*
X023983Y002930D03*
X023983Y002925D03*
X023983Y002920D03*
X023983Y002915D03*
X023843Y002480D03*
X023838Y002470D03*
X023833Y002460D03*
X023768Y003320D03*
X021608Y002845D03*
X021608Y002840D03*
X021613Y002820D03*
X021613Y002815D03*
X021618Y002800D03*
X021618Y002795D03*
X021623Y002775D03*
X021623Y002770D03*
X021628Y002755D03*
X021628Y002750D03*
X021633Y002730D03*
X021633Y002725D03*
X021638Y002710D03*
X021638Y002705D03*
X021638Y002700D03*
X021643Y002685D03*
X021643Y002680D03*
X021648Y002660D03*
X021648Y002655D03*
X021653Y002640D03*
X021653Y002635D03*
X021658Y002615D03*
X021658Y002610D03*
X021663Y002595D03*
X021663Y002590D03*
X021668Y002570D03*
X021668Y002565D03*
X021673Y002550D03*
X021673Y002545D03*
X021678Y002525D03*
X021678Y002520D03*
X021683Y002505D03*
X021683Y002500D03*
X021603Y002860D03*
X021603Y002865D03*
X021598Y002885D03*
X021598Y002890D03*
X021593Y002905D03*
X019068Y002910D03*
X019068Y002915D03*
X019068Y002920D03*
X019068Y002925D03*
X019063Y002905D03*
X018948Y002560D03*
X018948Y002555D03*
X018943Y002550D03*
X018943Y002545D03*
X018938Y002535D03*
X018933Y002525D03*
X018928Y002515D03*
X018918Y002500D03*
X016983Y002620D03*
X016983Y002625D03*
X016983Y002630D03*
X016983Y002635D03*
X016983Y002640D03*
X016983Y002645D03*
X016983Y002650D03*
X016983Y002655D03*
X016983Y002660D03*
X016983Y002665D03*
X016983Y002670D03*
X016983Y002675D03*
X016983Y002680D03*
X016983Y002685D03*
X016983Y002690D03*
X016983Y002695D03*
X016983Y002700D03*
X016983Y002705D03*
X016983Y002710D03*
X016983Y002715D03*
X016983Y002720D03*
X016983Y002725D03*
X016983Y002730D03*
X016983Y002735D03*
X016983Y002740D03*
X016983Y002745D03*
X016978Y002525D03*
X016978Y002520D03*
X016978Y002515D03*
X016978Y002510D03*
X016978Y002505D03*
X016978Y002500D03*
X016978Y002495D03*
X016478Y002615D03*
X016468Y002600D03*
X016453Y002580D03*
X016443Y002565D03*
X016433Y002550D03*
X016428Y002545D03*
X016423Y002535D03*
X016418Y002530D03*
X016413Y002525D03*
X016408Y002515D03*
X016403Y002510D03*
X016398Y002500D03*
X016393Y002495D03*
X016388Y002490D03*
X016388Y002485D03*
X016383Y002480D03*
X016378Y002475D03*
X016378Y002470D03*
X016373Y002465D03*
X016368Y002460D03*
X016363Y002455D03*
X016363Y002450D03*
X016358Y002445D03*
X016353Y002440D03*
X016353Y002435D03*
X016348Y002430D03*
X016343Y002425D03*
X016338Y002415D03*
X016333Y002410D03*
X016328Y002405D03*
X016328Y002400D03*
X016323Y002395D03*
X016318Y002390D03*
X016313Y002380D03*
X016308Y002375D03*
X016298Y002360D03*
X016288Y002345D03*
X016283Y002340D03*
X016273Y002325D03*
X016263Y002310D03*
X016238Y002275D03*
X015348Y002865D03*
X015353Y002875D03*
X015338Y002850D03*
X015183Y002435D03*
X015183Y002430D03*
X015183Y002425D03*
X015178Y002410D03*
X015178Y002405D03*
X015178Y002400D03*
X015173Y002395D03*
X015173Y002390D03*
X015173Y002385D03*
X015173Y002380D03*
X015168Y002370D03*
X015168Y002365D03*
X015163Y002350D03*
X015123Y002210D03*
X015118Y002190D03*
X015118Y002185D03*
X015113Y002165D03*
X015113Y002160D03*
X015113Y002155D03*
X015113Y002150D03*
X015108Y002135D03*
X015108Y002130D03*
X015108Y002125D03*
D47*
X018410Y002125D03*
X028105Y002430D03*
X028105Y002435D03*
D48*
X023760Y002160D03*
X023755Y002145D03*
X023755Y002140D03*
X023755Y002135D03*
X023750Y002125D03*
D49*
X018410Y002130D03*
D50*
X018833Y003285D03*
X016878Y003015D03*
X021478Y002945D03*
X021478Y002940D03*
X021478Y002935D03*
X023313Y002130D03*
X028088Y002385D03*
X028088Y002390D03*
X028093Y002395D03*
D51*
X023745Y003265D03*
X023315Y002150D03*
X018410Y002135D03*
D52*
X018148Y002405D03*
X018148Y002410D03*
X018148Y002415D03*
X018823Y002370D03*
X019068Y003015D03*
X019068Y003020D03*
X018378Y003010D03*
X018373Y003005D03*
X018368Y003000D03*
X018363Y002995D03*
X018358Y002990D03*
X016973Y003280D03*
X015403Y003045D03*
X015268Y002780D03*
X015183Y002530D03*
X015183Y002525D03*
X021503Y003265D03*
X021778Y002140D03*
X021778Y002135D03*
X023073Y002400D03*
X023073Y002405D03*
X023073Y002410D03*
X023278Y002985D03*
X023283Y002990D03*
X023288Y002995D03*
X023293Y003000D03*
X023983Y003035D03*
X023983Y003040D03*
X023798Y002400D03*
X023793Y002395D03*
D53*
X023758Y002575D03*
X023778Y002630D03*
X023798Y002685D03*
X023313Y002135D03*
X021803Y002490D03*
X028103Y002425D03*
D54*
X023318Y002155D03*
X018413Y002140D03*
D55*
X023315Y002140D03*
X028110Y002445D03*
D56*
X028003Y002150D03*
X027998Y002140D03*
X023958Y003085D03*
X023373Y003070D03*
X023098Y002335D03*
X023758Y002350D03*
X023763Y002355D03*
X021783Y002205D03*
X021783Y002200D03*
X021498Y003195D03*
X019043Y003075D03*
X018448Y003070D03*
X018178Y002335D03*
X016953Y003225D03*
X015158Y002560D03*
D57*
X018415Y002145D03*
D58*
X023313Y002145D03*
X023748Y003270D03*
D59*
X023740Y003250D03*
X023320Y002170D03*
X018415Y002150D03*
D60*
X023758Y002150D03*
X023758Y002155D03*
X023763Y002165D03*
X023763Y002170D03*
X023763Y002175D03*
D61*
X023738Y003245D03*
X018418Y002155D03*
D62*
X018180Y002330D03*
X018755Y002315D03*
X019040Y003080D03*
X018455Y003075D03*
X016950Y003215D03*
X016950Y003220D03*
X015385Y003085D03*
X021495Y003185D03*
X021495Y003190D03*
X021780Y002210D03*
X023105Y002330D03*
X023380Y003075D03*
X028005Y002160D03*
X028005Y002155D03*
D63*
X023735Y003240D03*
X018420Y002160D03*
D64*
X018823Y003260D03*
X023318Y002160D03*
D65*
X018420Y002165D03*
D66*
X018820Y003255D03*
X023320Y002165D03*
X023740Y003255D03*
D67*
X023763Y003310D03*
X023953Y003090D03*
X023388Y003080D03*
X023108Y002325D03*
X023748Y002340D03*
X023753Y002345D03*
X021783Y002225D03*
X021783Y002220D03*
X021783Y002215D03*
X021493Y003180D03*
X018463Y003080D03*
X018183Y002325D03*
X016948Y003210D03*
X015223Y002760D03*
X028008Y002165D03*
D68*
X018423Y002170D03*
D69*
X018745Y002310D03*
X018470Y003085D03*
X018840Y003310D03*
X019035Y003085D03*
X016945Y003200D03*
X016945Y003205D03*
X015380Y003090D03*
X021495Y003170D03*
X021495Y003175D03*
X021785Y002230D03*
X023110Y002320D03*
X023395Y003085D03*
X028010Y002175D03*
X028010Y002170D03*
D70*
X018423Y002175D03*
D71*
X023320Y002175D03*
D72*
X018425Y002180D03*
D73*
X023323Y002180D03*
D74*
X023765Y002180D03*
X023765Y002185D03*
X023770Y002190D03*
X023770Y002195D03*
X023770Y002200D03*
X023775Y002215D03*
D75*
X023743Y002335D03*
X023948Y003095D03*
X021783Y002240D03*
X021783Y002235D03*
X021493Y003155D03*
X021493Y003160D03*
X021493Y003165D03*
X018193Y002315D03*
X018188Y002320D03*
X016943Y003195D03*
X015148Y002565D03*
X028013Y002180D03*
D76*
X023723Y003215D03*
X023328Y002215D03*
X018428Y002185D03*
D77*
X018813Y003240D03*
X023323Y002185D03*
D78*
X023723Y003210D03*
X018428Y002190D03*
D79*
X023323Y002190D03*
X023733Y003235D03*
D80*
X023333Y002225D03*
X018803Y003210D03*
X018428Y002195D03*
D81*
X018810Y003230D03*
X023325Y002195D03*
X023730Y003230D03*
D82*
X023333Y002230D03*
X018433Y002200D03*
X015043Y003295D03*
D83*
X023325Y002200D03*
X023730Y003225D03*
D84*
X023940Y003100D03*
X023415Y003095D03*
X023730Y002325D03*
X021785Y002265D03*
X021785Y002260D03*
X021490Y003135D03*
X018725Y002300D03*
X018490Y003095D03*
X016935Y003175D03*
X015370Y003095D03*
X028020Y002205D03*
X028020Y002200D03*
D85*
X018798Y003200D03*
X018433Y002205D03*
D86*
X018808Y003225D03*
X023328Y002205D03*
D87*
X023773Y002205D03*
X023773Y002210D03*
X023778Y002220D03*
X023778Y002225D03*
X023778Y002230D03*
D88*
X023715Y003190D03*
X018435Y002210D03*
D89*
X023328Y002210D03*
X023728Y003220D03*
D90*
X023128Y002305D03*
X021788Y002275D03*
X021788Y002270D03*
X021493Y003130D03*
X019018Y003100D03*
X016933Y003165D03*
X016933Y003170D03*
X028023Y002210D03*
D91*
X018435Y002215D03*
D92*
X018205Y002305D03*
X018500Y003100D03*
X018840Y003305D03*
X016930Y003160D03*
X021490Y003125D03*
X021490Y003120D03*
X021490Y003115D03*
X021785Y002280D03*
X023425Y003100D03*
X023760Y003305D03*
X023930Y003105D03*
X023725Y002320D03*
X028025Y002220D03*
X028025Y002215D03*
D93*
X018793Y003185D03*
X018438Y002220D03*
D94*
X023330Y002220D03*
D95*
X018793Y003180D03*
X018438Y002225D03*
D96*
X018443Y002230D03*
X018788Y003175D03*
X023708Y003170D03*
D97*
X018788Y003170D03*
X018443Y002235D03*
D98*
X015093Y003160D03*
X023428Y002235D03*
D99*
X023703Y003160D03*
X018443Y002240D03*
X014858Y002675D03*
X014853Y002660D03*
D100*
X015090Y003145D03*
X015090Y003150D03*
X015090Y003155D03*
X023425Y002240D03*
D101*
X023700Y003155D03*
X018445Y002245D03*
X015075Y003260D03*
X014865Y002680D03*
D102*
X023428Y002245D03*
D103*
X023718Y002315D03*
X021788Y002305D03*
X021488Y003090D03*
X021488Y003095D03*
X016923Y003140D03*
X015128Y002570D03*
X028038Y002250D03*
X028038Y002245D03*
D104*
X026525Y002810D03*
X026520Y002800D03*
X026515Y002785D03*
X026510Y002770D03*
X026505Y002755D03*
X026500Y002745D03*
X026495Y002730D03*
X026490Y002715D03*
X026485Y002700D03*
X026480Y002690D03*
X026475Y002675D03*
X026470Y002660D03*
X026465Y002645D03*
X026460Y002635D03*
X026455Y002620D03*
X023700Y003150D03*
X018780Y003155D03*
X018445Y002250D03*
X014870Y002685D03*
D105*
X015090Y003135D03*
X015090Y003140D03*
X023425Y002255D03*
X023425Y002250D03*
D106*
X023698Y003145D03*
X026458Y002630D03*
X026458Y002625D03*
X026463Y002640D03*
X026468Y002650D03*
X026468Y002655D03*
X026473Y002665D03*
X026473Y002670D03*
X026478Y002680D03*
X026478Y002685D03*
X026483Y002695D03*
X026488Y002705D03*
X026488Y002710D03*
X026493Y002720D03*
X026493Y002725D03*
X026498Y002735D03*
X026498Y002740D03*
X026503Y002750D03*
X026508Y002760D03*
X026508Y002765D03*
X026513Y002775D03*
X026513Y002780D03*
X026518Y002790D03*
X026518Y002795D03*
X026523Y002805D03*
X026528Y002815D03*
X026528Y002820D03*
X018778Y003150D03*
X018448Y002255D03*
X015078Y003250D03*
X014863Y002650D03*
D107*
X016920Y003130D03*
X016920Y003135D03*
X018515Y003105D03*
X021490Y003085D03*
X021790Y002320D03*
X021790Y002315D03*
X021790Y002310D03*
X023440Y003105D03*
X023710Y002310D03*
X028040Y002255D03*
D108*
X018775Y003140D03*
X018450Y002260D03*
X015080Y003240D03*
D109*
X015085Y003115D03*
X015085Y003110D03*
X015085Y003105D03*
X023425Y002265D03*
X023425Y002260D03*
D110*
X023758Y003300D03*
X021488Y003080D03*
X021488Y003075D03*
X018838Y003300D03*
X016918Y003125D03*
X028043Y002260D03*
D111*
X023693Y003135D03*
X018773Y003135D03*
X018453Y002265D03*
X015083Y003235D03*
X014888Y002700D03*
X014868Y002640D03*
D112*
X014895Y002705D03*
X015085Y003230D03*
X018455Y002270D03*
X023690Y003130D03*
D113*
X023423Y002270D03*
X015083Y003100D03*
D114*
X015085Y003225D03*
X014900Y002710D03*
X014870Y002630D03*
X014870Y002625D03*
X018455Y002275D03*
X018770Y003130D03*
D115*
X023425Y002280D03*
X023425Y002275D03*
D116*
X021793Y002340D03*
X021793Y002345D03*
X021488Y003060D03*
X016913Y003110D03*
X016913Y003115D03*
X028048Y002275D03*
D117*
X023688Y003120D03*
X018768Y003125D03*
X018458Y002280D03*
X015088Y003220D03*
X014903Y002715D03*
D118*
X014910Y002720D03*
X014870Y002620D03*
X015090Y003215D03*
X018460Y002285D03*
X018765Y003120D03*
X023685Y003115D03*
X026650Y003090D03*
X026650Y003085D03*
X026655Y003100D03*
X026655Y003105D03*
X026660Y003115D03*
X026665Y003130D03*
X026670Y003140D03*
X026670Y003145D03*
X026675Y003155D03*
X026675Y003160D03*
X026680Y003170D03*
X026685Y003185D03*
X026690Y003195D03*
X026690Y003200D03*
X026695Y003210D03*
X026695Y003215D03*
X026700Y003225D03*
X026705Y003240D03*
X026710Y003250D03*
X026710Y003255D03*
X026715Y003265D03*
X026720Y003280D03*
X026725Y003295D03*
D119*
X023423Y002285D03*
D120*
X018765Y003115D03*
X018460Y002290D03*
X015090Y003200D03*
X015090Y003205D03*
D121*
X023425Y002290D03*
D122*
X021793Y002355D03*
X021793Y002360D03*
X021483Y003040D03*
X016908Y003100D03*
X028053Y002290D03*
D123*
X028075Y002350D03*
X023675Y002295D03*
X021795Y002415D03*
X021480Y002975D03*
X021480Y002980D03*
X021480Y002985D03*
X018835Y003290D03*
X016890Y003050D03*
D124*
X016903Y003085D03*
X018838Y003295D03*
X021483Y003025D03*
X021483Y003020D03*
X021793Y002375D03*
X021793Y002370D03*
X023693Y002300D03*
X028058Y002305D03*
X028063Y002315D03*
D125*
X028065Y002320D03*
X028060Y002310D03*
X021795Y002380D03*
X021795Y002385D03*
X021795Y002390D03*
X016900Y003075D03*
X016900Y003080D03*
D126*
X016893Y003060D03*
X016893Y003055D03*
X021483Y002990D03*
X021798Y002410D03*
X023753Y003290D03*
X028073Y002345D03*
X028073Y002340D03*
D127*
X028078Y002355D03*
X028078Y002360D03*
X021798Y002420D03*
X021798Y002425D03*
X021798Y002430D03*
X016888Y003040D03*
X016888Y003045D03*
D128*
X016883Y003030D03*
X021478Y002960D03*
X021478Y002955D03*
X021478Y002950D03*
X021798Y002445D03*
X021798Y002440D03*
X023753Y003285D03*
X028083Y002375D03*
X028083Y002370D03*
D129*
X028085Y002380D03*
X021800Y002450D03*
X021800Y002455D03*
X021800Y002460D03*
X016880Y003020D03*
X016880Y003025D03*
D130*
X016978Y003290D03*
X016978Y003295D03*
X018303Y002920D03*
X018313Y002935D03*
X018318Y002940D03*
X018323Y002945D03*
X018328Y002950D03*
X018328Y002955D03*
X018333Y002960D03*
X018338Y002965D03*
X018143Y002490D03*
X018143Y002485D03*
X018143Y002480D03*
X018143Y002475D03*
X018143Y002470D03*
X018143Y002465D03*
X018143Y002460D03*
X018143Y002455D03*
X018143Y002450D03*
X018143Y002445D03*
X018843Y002395D03*
X018848Y002400D03*
X018853Y002405D03*
X018858Y002410D03*
X019073Y003000D03*
X021503Y003280D03*
X021503Y003285D03*
X023233Y002930D03*
X023238Y002935D03*
X023243Y002940D03*
X023248Y002950D03*
X023253Y002955D03*
X023258Y002960D03*
X023068Y002465D03*
X023068Y002460D03*
X023068Y002455D03*
X023068Y002450D03*
X023068Y002445D03*
X023068Y002440D03*
X023068Y002435D03*
X023808Y002415D03*
X023813Y002425D03*
X023988Y003005D03*
X023988Y003010D03*
X023988Y003015D03*
X015403Y003015D03*
X015403Y003020D03*
X015403Y003010D03*
X015403Y003005D03*
X015283Y002790D03*
X015188Y002510D03*
X015188Y002505D03*
X015188Y002500D03*
X015188Y002495D03*
D131*
X021478Y002920D03*
X021478Y002925D03*
X021803Y002480D03*
X021803Y002475D03*
X028098Y002410D03*
D132*
X028100Y002415D03*
X028100Y002420D03*
X023820Y002740D03*
X023820Y002745D03*
X023815Y002735D03*
X023815Y002730D03*
X023810Y002725D03*
X023810Y002720D03*
X023810Y002715D03*
X023805Y002710D03*
X023805Y002705D03*
X023805Y002700D03*
X023800Y002695D03*
X023800Y002690D03*
X023795Y002680D03*
X023795Y002675D03*
X023790Y002670D03*
X023790Y002665D03*
X023790Y002660D03*
X023785Y002655D03*
X023785Y002650D03*
X023785Y002645D03*
X023780Y002640D03*
X023780Y002635D03*
X023775Y002625D03*
X023775Y002620D03*
X023770Y002615D03*
X023770Y002610D03*
X023770Y002605D03*
X023765Y002600D03*
X023765Y002595D03*
X023765Y002590D03*
X023760Y002585D03*
X023760Y002580D03*
X023755Y002570D03*
X023755Y002565D03*
X023750Y002560D03*
X023750Y002555D03*
X023750Y003280D03*
X021800Y002485D03*
X021475Y002910D03*
X021475Y002915D03*
X018830Y003280D03*
D133*
X023748Y003275D03*
X028108Y002440D03*
D134*
X028113Y002450D03*
X028113Y002455D03*
X018828Y003275D03*
D135*
X016755Y003005D03*
X016750Y003000D03*
X016745Y002995D03*
X016740Y002985D03*
X016735Y002980D03*
X016730Y002970D03*
X016725Y002965D03*
X016715Y002950D03*
X016710Y002945D03*
X016700Y002930D03*
X016690Y002915D03*
X016675Y002895D03*
X016665Y002880D03*
X023865Y002530D03*
X023870Y002540D03*
X023870Y002545D03*
X023875Y002550D03*
D136*
X015093Y003175D03*
X014938Y002755D03*
X014873Y002580D03*
X014873Y002575D03*
D137*
X014873Y002585D03*
X014873Y002590D03*
D138*
X014875Y002595D03*
X014925Y002740D03*
X015090Y003190D03*
X015090Y003195D03*
D139*
X015088Y003210D03*
X014913Y002725D03*
X014873Y002615D03*
X014873Y002610D03*
X026653Y003095D03*
X026658Y003110D03*
X026663Y003120D03*
X026663Y003125D03*
X026668Y003135D03*
X026673Y003150D03*
X026678Y003165D03*
X026683Y003175D03*
X026683Y003180D03*
X026688Y003190D03*
X026693Y003205D03*
X026698Y003220D03*
X026703Y003230D03*
X026703Y003235D03*
X026708Y003245D03*
X026713Y003260D03*
X026718Y003270D03*
X026718Y003275D03*
X026723Y003285D03*
X026723Y003290D03*
X026728Y003300D03*
D140*
X023688Y003125D03*
X014868Y002635D03*
D141*
X014863Y002645D03*
X014883Y002695D03*
X018778Y003145D03*
X023693Y003140D03*
D142*
X018783Y003160D03*
X015078Y003255D03*
X014858Y002655D03*
D143*
X014850Y002665D03*
X014850Y002670D03*
X015070Y003270D03*
D144*
X015080Y003245D03*
X014875Y002690D03*
D145*
X014930Y002745D03*
X014935Y002750D03*
X015090Y003180D03*
X015090Y003185D03*
D146*
X015088Y003130D03*
X015088Y003125D03*
X015088Y003120D03*
D147*
X015090Y003165D03*
X015090Y003170D03*
D148*
X015070Y003265D03*
X018785Y003165D03*
X023705Y003165D03*
D149*
X023710Y003175D03*
X015065Y003275D03*
D150*
X015060Y003280D03*
X023710Y003180D03*
D151*
X023713Y003185D03*
X018793Y003190D03*
X015058Y003285D03*
D152*
X018798Y003195D03*
D153*
X015050Y003290D03*
X023715Y003195D03*
D154*
X023720Y003200D03*
D155*
X023720Y003205D03*
X018800Y003205D03*
D156*
X018805Y003215D03*
D157*
X018805Y003220D03*
X015030Y003300D03*
D158*
X018810Y003235D03*
D159*
X018815Y003245D03*
D160*
X018818Y003250D03*
D161*
X023740Y003260D03*
D162*
X018825Y003265D03*
D163*
X018825Y003270D03*
D164*
X018850Y003330D03*
D165*
X023773Y003330D03*
D166*
X027393Y010505D03*
X027393Y010510D03*
D167*
X008872Y000480D02*
X008872Y000477D01*
X008871Y000475D01*
X008866Y000475D01*
X008863Y000475D02*
X008863Y000480D01*
X008861Y000482D01*
X008860Y000480D01*
X008860Y000475D01*
X008856Y000475D02*
X008856Y000482D01*
X008858Y000482D01*
X008860Y000480D01*
X008866Y000482D02*
X008871Y000482D01*
X008872Y000480D01*
X008866Y000482D02*
X008866Y000472D01*
X008854Y000477D02*
X008854Y000480D01*
X008852Y000482D01*
X008847Y000482D01*
X008847Y000485D02*
X008847Y000475D01*
X008852Y000475D01*
X008854Y000477D01*
X008844Y000477D02*
X008844Y000475D01*
X008843Y000475D01*
X008843Y000477D01*
X008844Y000477D01*
X008840Y000475D02*
X008835Y000475D01*
X008833Y000477D01*
X008833Y000480D01*
X008835Y000482D01*
X008840Y000482D01*
X008840Y000485D02*
X008840Y000475D01*
X008831Y000478D02*
X008824Y000478D01*
X008824Y000477D02*
X008824Y000480D01*
X008826Y000482D01*
X008829Y000482D01*
X008831Y000480D01*
X008831Y000478D01*
X008829Y000475D02*
X008826Y000475D01*
X008824Y000477D01*
X008822Y000475D02*
X008815Y000482D01*
X008811Y000482D02*
X008811Y000475D01*
X008812Y000475D02*
X008809Y000475D01*
X008804Y000475D02*
X008804Y000483D01*
X008806Y000485D01*
X008809Y000482D02*
X008811Y000482D01*
X008811Y000485D02*
X008811Y000487D01*
X008806Y000480D02*
X008803Y000480D01*
X008800Y000480D02*
X008793Y000480D01*
X008791Y000480D02*
X008791Y000477D01*
X008789Y000475D01*
X008784Y000475D01*
X008781Y000475D02*
X008778Y000475D01*
X008780Y000475D02*
X008780Y000482D01*
X008778Y000482D01*
X008776Y000483D02*
X008769Y000477D01*
X008769Y000475D01*
X008776Y000475D01*
X008776Y000483D02*
X008776Y000485D01*
X008769Y000485D01*
X008766Y000485D02*
X008760Y000475D01*
X008757Y000477D02*
X008757Y000480D01*
X008756Y000482D01*
X008752Y000482D01*
X008751Y000480D01*
X008751Y000477D01*
X008752Y000475D01*
X008756Y000475D01*
X008757Y000477D01*
X008748Y000475D02*
X008743Y000475D01*
X008741Y000477D01*
X008741Y000480D01*
X008743Y000482D01*
X008748Y000482D01*
X008748Y000473D01*
X008746Y000472D01*
X008745Y000472D01*
X008739Y000477D02*
X008739Y000480D01*
X008737Y000482D01*
X008734Y000482D01*
X008732Y000480D01*
X008732Y000477D01*
X008734Y000475D01*
X008737Y000475D01*
X008739Y000477D01*
X008730Y000475D02*
X008723Y000475D01*
X008723Y000485D01*
X008720Y000485D02*
X008714Y000475D01*
X008711Y000475D02*
X008708Y000475D01*
X008709Y000475D02*
X008709Y000485D01*
X008708Y000485D01*
X008703Y000482D02*
X008700Y000482D01*
X008698Y000480D01*
X008698Y000477D01*
X008700Y000475D01*
X008703Y000475D01*
X008705Y000477D01*
X008705Y000480D01*
X008703Y000482D01*
X008696Y000482D02*
X008694Y000482D01*
X008691Y000478D01*
X008691Y000475D02*
X008691Y000482D01*
X008688Y000482D02*
X008685Y000482D01*
X008686Y000483D02*
X008686Y000477D01*
X008688Y000475D01*
X008682Y000475D02*
X008682Y000480D01*
X008680Y000482D01*
X008675Y000482D01*
X008675Y000475D01*
X008673Y000477D02*
X008673Y000480D01*
X008671Y000482D01*
X008668Y000482D01*
X008666Y000480D01*
X008666Y000477D01*
X008668Y000475D01*
X008671Y000475D01*
X008673Y000477D01*
X008664Y000477D02*
X008662Y000475D01*
X008659Y000475D01*
X008657Y000477D01*
X008657Y000483D01*
X008659Y000485D01*
X008662Y000485D01*
X008664Y000483D01*
X008645Y000480D02*
X008645Y000475D01*
X008642Y000475D02*
X008642Y000480D01*
X008644Y000482D01*
X008645Y000480D01*
X008642Y000480D02*
X008640Y000482D01*
X008639Y000482D01*
X008639Y000475D01*
X008636Y000478D02*
X008629Y000478D01*
X008629Y000477D02*
X008629Y000480D01*
X008631Y000482D01*
X008634Y000482D01*
X008636Y000480D01*
X008636Y000478D01*
X008634Y000475D02*
X008631Y000475D01*
X008629Y000477D01*
X008626Y000475D02*
X008625Y000477D01*
X008625Y000483D01*
X008626Y000482D02*
X008623Y000482D01*
X008621Y000482D02*
X008616Y000482D01*
X008614Y000480D01*
X008616Y000478D01*
X008619Y000478D01*
X008621Y000477D01*
X008619Y000475D01*
X008614Y000475D01*
X008611Y000475D02*
X008606Y000475D01*
X008605Y000477D01*
X008605Y000482D01*
X008602Y000482D02*
X008597Y000482D01*
X008596Y000480D01*
X008597Y000478D01*
X008601Y000478D01*
X008602Y000477D01*
X008601Y000475D01*
X008596Y000475D01*
X008593Y000477D02*
X008593Y000480D01*
X008591Y000482D01*
X008586Y000482D01*
X008584Y000482D02*
X008584Y000475D01*
X008579Y000475D01*
X008577Y000477D01*
X008577Y000482D01*
X008575Y000483D02*
X008573Y000485D01*
X008570Y000485D01*
X008568Y000483D01*
X008568Y000482D01*
X008570Y000480D01*
X008573Y000480D01*
X008575Y000478D01*
X008575Y000477D01*
X008573Y000475D01*
X008570Y000475D01*
X008568Y000477D01*
X008565Y000485D02*
X008559Y000475D01*
X008556Y000477D02*
X008555Y000475D01*
X008551Y000475D01*
X008549Y000477D01*
X008547Y000475D02*
X008540Y000475D01*
X008538Y000477D02*
X008536Y000475D01*
X008533Y000475D01*
X008531Y000477D01*
X008538Y000483D01*
X008538Y000477D01*
X008540Y000482D02*
X008544Y000485D01*
X008544Y000475D01*
X008549Y000480D02*
X008553Y000482D01*
X008555Y000482D01*
X008556Y000480D01*
X008556Y000477D01*
X008549Y000480D02*
X008549Y000485D01*
X008556Y000485D01*
X008538Y000483D02*
X008536Y000485D01*
X008533Y000485D01*
X008531Y000483D01*
X008531Y000477D01*
X008529Y000475D02*
X008522Y000475D01*
X008529Y000482D01*
X008529Y000483D01*
X008527Y000485D01*
X008524Y000485D01*
X008522Y000483D01*
X008519Y000485D02*
X008513Y000475D01*
X008510Y000475D02*
X008503Y000475D01*
X008503Y000485D01*
X008510Y000485D01*
X008507Y000480D02*
X008503Y000480D01*
X008501Y000480D02*
X008494Y000480D01*
X008494Y000482D02*
X008498Y000485D01*
X008501Y000482D01*
X008501Y000475D01*
X008494Y000475D02*
X008494Y000482D01*
X008492Y000483D02*
X008490Y000485D01*
X008487Y000485D01*
X008485Y000483D01*
X008485Y000482D01*
X008487Y000480D01*
X008490Y000480D01*
X008492Y000478D01*
X008492Y000477D01*
X008490Y000475D01*
X008487Y000475D01*
X008485Y000477D01*
X008479Y000480D02*
X008476Y000480D01*
X008476Y000475D02*
X008476Y000485D01*
X008483Y000485D01*
X008473Y000485D02*
X008467Y000475D01*
X008464Y000478D02*
X008457Y000478D01*
X008457Y000477D02*
X008457Y000480D01*
X008459Y000482D01*
X008462Y000482D01*
X008464Y000480D01*
X008464Y000478D01*
X008462Y000475D02*
X008459Y000475D01*
X008457Y000477D01*
X008452Y000475D02*
X008455Y000482D01*
X008448Y000482D02*
X008452Y000475D01*
X008445Y000475D02*
X008442Y000475D01*
X008444Y000475D02*
X008444Y000482D01*
X008442Y000482D01*
X008439Y000482D02*
X008438Y000482D01*
X008434Y000478D01*
X008432Y000477D02*
X008432Y000483D01*
X008430Y000485D01*
X008425Y000485D01*
X008425Y000475D01*
X008430Y000475D01*
X008432Y000477D01*
X008434Y000475D02*
X008434Y000482D01*
X008444Y000485D02*
X008444Y000487D01*
X008423Y000480D02*
X008423Y000478D01*
X008416Y000478D01*
X008416Y000477D02*
X008416Y000480D01*
X008418Y000482D01*
X008421Y000482D01*
X008423Y000480D01*
X008421Y000475D02*
X008418Y000475D01*
X008416Y000477D01*
X008413Y000475D02*
X008410Y000475D01*
X008412Y000475D02*
X008412Y000485D01*
X008410Y000485D01*
X008407Y000482D02*
X008402Y000482D01*
X008401Y000480D01*
X008401Y000477D01*
X008402Y000475D01*
X008407Y000475D01*
X008407Y000473D02*
X008407Y000482D01*
X008407Y000473D02*
X008406Y000472D01*
X008404Y000472D01*
X008398Y000477D02*
X008398Y000480D01*
X008396Y000482D01*
X008393Y000482D01*
X008391Y000480D01*
X008391Y000477D01*
X008393Y000475D01*
X008396Y000475D01*
X008398Y000477D01*
X008389Y000477D02*
X008389Y000480D01*
X008387Y000482D01*
X008384Y000482D01*
X008382Y000480D01*
X008382Y000477D01*
X008384Y000475D01*
X008387Y000475D01*
X008389Y000477D01*
X008380Y000477D02*
X008380Y000480D01*
X008376Y000480D01*
X008373Y000477D02*
X008375Y000475D01*
X008378Y000475D01*
X008380Y000477D01*
X008380Y000483D02*
X008378Y000485D01*
X008375Y000485D01*
X008373Y000483D01*
X008373Y000477D01*
X008370Y000485D02*
X008364Y000475D01*
X008361Y000475D02*
X008359Y000475D01*
X008359Y000477D01*
X008361Y000477D01*
X008361Y000475D01*
X008357Y000477D02*
X008355Y000475D01*
X008352Y000475D01*
X008350Y000477D01*
X008352Y000480D02*
X008355Y000480D01*
X008357Y000478D01*
X008357Y000477D01*
X008359Y000480D02*
X008359Y000482D01*
X008361Y000482D01*
X008361Y000480D01*
X008359Y000480D01*
X008357Y000483D02*
X008355Y000485D01*
X008352Y000485D01*
X008350Y000483D01*
X008350Y000482D01*
X008352Y000480D01*
X008586Y000475D02*
X008591Y000475D01*
X008593Y000477D01*
X008586Y000475D02*
X008586Y000485D01*
X008611Y000482D02*
X008611Y000473D01*
X008610Y000472D01*
X008608Y000472D01*
X008780Y000487D02*
X008780Y000485D01*
X008784Y000482D02*
X008789Y000482D01*
X008791Y000480D01*
X008784Y000482D02*
X008784Y000472D01*
X008815Y000475D02*
X008822Y000482D01*
D168*
X029670Y023370D03*
M02*
