%
M48
M72
T01C0.0197
T02C0.0236
T03C0.0400
T04C0.0630
T05C0.1400
%
T01
X5550Y1750
X15700Y13200
X14600Y17600
X15800Y18120
X15800Y19700
X15320Y20510
X16400Y21450
X17250Y21050
X16560Y22700
X17920Y23460
X19350Y22050
X19950Y21700
X20300Y20950
X19900Y20500
X19300Y18400
X22100Y20650
X23050Y22950
X23800Y23050
X24050Y23900
X24850Y21350
X25370Y20360
X21350Y24000
X24760Y29050
X23850Y29400
X24750Y30200
X22820Y31160
X22040Y29960
X22350Y29400
X20750Y29350
X17050Y34400
X14000Y29650
X11150Y27200
X11500Y26800
X11900Y26400
X9790Y27040
X8850Y26150
X8500Y26550
X8050Y26950
X5700Y25550
X9850Y23650
X12760Y22690
X13670Y23710
X11350Y20550
X10950Y20200
X10900Y19650
X12250Y18850
X12700Y19400
X11150Y17700
X6050Y18000
X7270Y30690
X8770Y31190
X22950Y15950
X20720Y14350
X25050Y14390
X29900Y23950
X31200Y23950
X31200Y24450
X32400Y26800
X32850Y27100
X29950Y27650
X30100Y30500
X30100Y31000
X29000Y31000
X29000Y30450
X27950Y30500
X27950Y31050
X25600Y33600
X26200Y27450
X27100Y25850
X27250Y25250
X32280Y31430
X33690Y31430
X35000Y31150
X32200Y34450
X34500Y23450
X34750Y14950
X34900Y1700
T02
X34200Y16100
X34200Y16600
X34200Y17100
X34200Y17600
X34200Y18100
X33700Y18100
X33700Y17600
X33700Y17100
X33700Y16600
X33700Y16100
X33200Y16100
X33200Y16600
X33200Y17100
X33200Y17600
X33200Y18100
X32700Y18100
X32700Y17600
X32700Y17100
X32700Y16600
X32700Y16100
X32200Y16100
X32200Y16600
X32200Y17100
X32200Y17600
X32200Y18100
X31700Y18100
X31700Y17600
X31700Y17100
X31700Y16600
X31700Y16100
X31200Y16100
X31200Y16600
X31200Y17100
X31200Y17600
X31200Y18100
X30700Y18100
X30700Y17600
X30700Y17100
X30700Y16600
X30700Y16100
X30200Y16100
X30200Y16600
X30200Y17100
X30200Y17600
X30200Y18100
X29700Y18100
X29700Y17600
X29700Y17100
X29700Y16600
X29700Y16100
X29200Y16100
X29200Y16600
X29200Y17100
X29200Y17600
X29200Y18100
X28700Y18100
X28700Y17600
X28700Y17100
X28700Y16600
X28700Y16100
X28200Y16100
X28200Y16600
X28200Y17100
X28200Y17600
X28200Y18100
X27700Y18100
X27700Y17600
X27700Y17100
X27700Y16600
X27700Y16100
X27200Y16100
X27200Y16600
X27200Y17100
X27200Y17600
X27200Y18100
X27200Y18600
X27200Y19100
X27200Y19600
X27200Y20100
X27200Y20600
X27700Y20600
X27700Y20100
X27700Y19600
X27700Y19100
X27700Y18600
X28200Y18600
X28200Y19100
X28200Y19600
X28200Y20100
X28200Y20600
X28200Y21100
X28200Y21600
X28200Y22100
X27700Y22100
X27700Y21600
X27700Y21100
X27200Y21100
X27200Y21600
X27200Y22100
X27700Y23210
X28030Y25110
X28800Y25300
X25400Y25900
X25010Y26870
X25410Y31310
X25220Y32170
X23780Y32550
X24300Y37650
X16740Y31850
X14730Y33620
X11990Y35280
X11290Y31830
X8870Y31980
X7980Y31990
X6720Y32020
X5400Y34400
X7460Y36140
X15420Y24850
X16330Y24750
X14380Y20970
X20150Y18000
X22800Y16750
X25100Y17350
X25200Y18750
X28700Y18600
X28700Y19100
X28700Y19600
X29200Y19600
X29200Y19100
X29200Y18600
X29700Y18600
X29700Y19100
X29700Y19600
X30200Y19600
X30200Y19100
X30200Y18600
X30700Y18600
X30700Y19100
X30700Y19600
X31200Y19600
X31200Y19100
X31200Y18600
X31700Y18600
X31700Y19100
X31700Y19600
X31700Y20100
X31700Y20600
X31200Y20600
X31200Y20100
X32200Y20100
X32200Y19600
X32200Y19100
X32200Y18600
X32700Y18600
X32700Y19100
X32700Y19600
X32700Y20100
X32700Y20600
X33200Y20600
X33200Y20100
X33200Y19600
X33200Y19100
X33200Y18600
X33700Y18600
X33700Y19100
X33700Y19600
X33700Y20100
X33700Y20600
X34200Y20600
X34200Y20100
X34200Y19600
X34200Y19100
X34200Y18600
X32200Y20600
X32200Y21100
X32200Y21600
X32200Y22100
X31700Y22100
X31700Y21600
X31700Y21100
X31200Y21100
X31200Y21600
X31200Y22100
X32700Y22100
X32700Y21600
X32700Y21100
X33200Y21100
X33200Y21600
X33200Y22100
X33700Y22100
X33700Y21600
X33700Y21100
X34200Y21100
X34200Y21600
X34200Y22100
X33310Y26430
X33930Y33230
X32490Y33520
X19200Y29350
T03
X8640Y17080
X6860Y17080
X6860Y14520
X8640Y14520
X6850Y19650
X6950Y20650
X6850Y21650
X6950Y22650
X6850Y23650
X20800Y12950
X21800Y12950
X22800Y12950
X23800Y12950
T04
X25710Y36960
X27270Y36960
X28830Y36960
X28830Y38530
X27270Y38530
X25710Y38530
X25710Y40100
X27270Y40100
X28830Y40100
X35070Y40100
X36630Y40100
X38190Y40100
X38190Y38530
X36630Y38530
X35070Y38530
X35070Y36960
X36630Y36960
X38190Y36960
X20810Y36960
X19250Y36960
X17690Y36960
X16130Y36960
X14570Y36960
X14570Y38530
X16130Y38530
X17690Y38530
X19250Y38530
X20810Y38530
X20810Y40100
X19250Y40100
X17690Y40100
X16130Y40100
X14570Y40100
X8330Y40100
X6770Y40100
X5210Y40100
X3650Y40100
X2090Y40100
X2090Y38530
X3650Y38530
X5210Y38530
X6770Y38530
X8330Y38530
X8330Y36960
X6770Y36960
X5210Y36960
X3650Y36960
X2090Y36960
T05
X11450Y38250
X31950Y38250
M30
