G75*
%MOIN*%
%OFA0B0*%
%FSLAX24Y24*%
%IPPOS*%
%LPD*%
%AMOC8*
5,1,8,0,0,1.08239X$1,22.5*
%
%ADD10C,0.0100*%
D10*
X003400Y002774D02*
X003400Y030461D01*
X003398Y030569D01*
X003392Y030678D01*
X003383Y030786D01*
X003369Y030893D01*
X003352Y031001D01*
X003331Y031107D01*
X003306Y031213D01*
X003277Y031317D01*
X003244Y031421D01*
X003208Y031523D01*
X003169Y031624D01*
X003125Y031723D01*
X003079Y031821D01*
X003028Y031917D01*
X002975Y032012D01*
X002918Y032104D01*
X002857Y032194D01*
X002794Y032282D01*
X002727Y032368D01*
X002658Y032451D01*
X002585Y032532D01*
X002510Y032610D01*
X002432Y032685D01*
X002351Y032758D01*
X002268Y032827D01*
X002182Y032894D01*
X002094Y032957D01*
X002004Y033018D01*
X001912Y033075D01*
X001817Y033128D01*
X001721Y033179D01*
X001623Y033225D01*
X001524Y033269D01*
X001423Y033308D01*
X001321Y033344D01*
X001217Y033377D01*
X001113Y033406D01*
X001007Y033431D01*
X000901Y033452D01*
X000793Y033469D01*
X000686Y033483D01*
X000578Y033492D01*
X000469Y033498D01*
X000361Y033500D01*
X000150Y033500D01*
X000150Y042000D01*
X040150Y042000D01*
X040150Y033500D01*
X039928Y033500D01*
X039820Y033498D01*
X039712Y033492D01*
X039604Y033483D01*
X039497Y033469D01*
X039390Y033452D01*
X039284Y033431D01*
X039179Y033406D01*
X039075Y033377D01*
X038972Y033345D01*
X038870Y033309D01*
X038769Y033270D01*
X038670Y033226D01*
X038573Y033180D01*
X038477Y033130D01*
X038383Y033076D01*
X038291Y033019D01*
X038201Y032959D01*
X038114Y032896D01*
X038028Y032830D01*
X037946Y032760D01*
X037865Y032688D01*
X037787Y032613D01*
X037712Y032535D01*
X037640Y032455D01*
X037571Y032372D01*
X037505Y032287D01*
X037441Y032199D01*
X037381Y032109D01*
X037325Y032017D01*
X037271Y031923D01*
X037221Y031828D01*
X037174Y031730D01*
X037131Y031631D01*
X037092Y031530D01*
X037056Y031428D01*
X037023Y031325D01*
X036995Y031221D01*
X036970Y031116D01*
X036949Y031010D01*
X036932Y030903D01*
X036918Y030796D01*
X036909Y030688D01*
X036903Y030580D01*
X036901Y030472D01*
X036901Y030473D02*
X036910Y002782D01*
X036909Y002781D02*
X036907Y002704D01*
X036901Y002626D01*
X036891Y002549D01*
X036878Y002473D01*
X036860Y002397D01*
X036839Y002323D01*
X036814Y002249D01*
X036785Y002177D01*
X036753Y002107D01*
X036717Y002038D01*
X036677Y001971D01*
X036635Y001906D01*
X036589Y001844D01*
X036540Y001784D01*
X036488Y001726D01*
X036433Y001671D01*
X036375Y001619D01*
X036315Y001570D01*
X036253Y001524D01*
X036188Y001482D01*
X036121Y001442D01*
X036052Y001406D01*
X035982Y001374D01*
X035910Y001345D01*
X035836Y001320D01*
X035762Y001299D01*
X035686Y001281D01*
X035610Y001268D01*
X035533Y001258D01*
X035455Y001252D01*
X035378Y001250D01*
X004924Y001250D01*
X004847Y001252D01*
X004770Y001258D01*
X004693Y001268D01*
X004617Y001281D01*
X004542Y001299D01*
X004468Y001320D01*
X004395Y001345D01*
X004323Y001374D01*
X004253Y001406D01*
X004184Y001441D01*
X004118Y001481D01*
X004053Y001523D01*
X003991Y001569D01*
X003931Y001618D01*
X003874Y001669D01*
X003819Y001724D01*
X003768Y001781D01*
X003719Y001841D01*
X003673Y001903D01*
X003631Y001968D01*
X003591Y002034D01*
X003556Y002103D01*
X003524Y002173D01*
X003495Y002245D01*
X003470Y002318D01*
X003449Y002392D01*
X003431Y002467D01*
X003418Y002543D01*
X003408Y002620D01*
X003402Y002697D01*
X003400Y002774D01*
X016488Y019005D02*
X016588Y019005D01*
X016638Y019055D01*
X016638Y019105D01*
X016588Y019155D01*
X016488Y019155D01*
X016438Y019105D01*
X016438Y019055D01*
X016488Y019005D01*
X016488Y019155D02*
X016438Y019205D01*
X016438Y019255D01*
X016488Y019305D01*
X016588Y019305D01*
X016638Y019255D01*
X016638Y019205D01*
X016588Y019155D01*
X016806Y019005D02*
X017007Y019005D01*
X016907Y019005D02*
X016907Y019305D01*
X017007Y019205D01*
X017175Y019255D02*
X017225Y019305D01*
X017325Y019305D01*
X017375Y019255D01*
X017375Y019055D01*
X017325Y019005D01*
X017225Y019005D01*
X017175Y019055D01*
X016918Y019514D02*
X016682Y019514D01*
X016682Y019986D02*
X016918Y019986D01*
X016090Y020503D02*
X015790Y020503D01*
X015790Y020704D01*
X015840Y020872D02*
X015790Y020922D01*
X015790Y021022D01*
X015840Y021072D01*
X015890Y021072D01*
X015940Y021022D01*
X015940Y020972D01*
X015940Y021022D02*
X015990Y021072D01*
X016040Y021072D01*
X016090Y021022D01*
X016090Y020922D01*
X016040Y020872D01*
X015390Y021230D02*
X015220Y021230D01*
X015220Y021770D02*
X015390Y021770D01*
X014900Y022140D02*
X014900Y022640D01*
X014937Y023040D02*
X014736Y023040D01*
X014568Y023040D02*
X014368Y023040D01*
X014468Y023040D02*
X014468Y023340D01*
X014568Y023240D01*
X014736Y023240D02*
X014736Y023290D01*
X014787Y023340D01*
X014887Y023340D01*
X014937Y023290D01*
X015105Y023290D02*
X015155Y023340D01*
X015255Y023340D01*
X015305Y023290D01*
X015305Y023090D01*
X015255Y023040D01*
X015155Y023040D01*
X015105Y023090D01*
X014937Y023040D02*
X014736Y023240D01*
X014917Y024048D02*
X014484Y024048D01*
X014240Y024120D02*
X014240Y024920D01*
X014484Y024992D02*
X014917Y024992D01*
X015074Y024835D01*
X015074Y024205D01*
X014917Y024048D01*
X014297Y025306D02*
X014197Y025306D01*
X014146Y025356D01*
X014297Y025306D02*
X014347Y025356D01*
X014347Y025557D01*
X014297Y025607D01*
X014197Y025607D01*
X014146Y025557D01*
X013978Y025557D02*
X013978Y025506D01*
X013928Y025456D01*
X013828Y025456D01*
X013778Y025406D01*
X013778Y025356D01*
X013828Y025306D01*
X013928Y025306D01*
X013978Y025356D01*
X013978Y025406D01*
X013928Y025456D01*
X013828Y025456D02*
X013778Y025506D01*
X013778Y025557D01*
X013828Y025607D01*
X013928Y025607D01*
X013978Y025557D01*
X013696Y024992D02*
X013106Y024992D01*
X013106Y024048D01*
X013696Y024048D01*
X016914Y022018D02*
X016914Y021782D01*
X017386Y021782D02*
X017386Y022018D01*
X017675Y022058D02*
X017675Y021858D01*
X017675Y021958D02*
X017975Y021958D01*
X017875Y021858D01*
X017925Y021690D02*
X017975Y021640D01*
X017975Y021540D01*
X017925Y021490D01*
X017725Y021490D01*
X017675Y021540D01*
X017675Y021640D01*
X017725Y021690D01*
X017725Y022227D02*
X017675Y022277D01*
X017675Y022377D01*
X017725Y022427D01*
X017925Y022427D01*
X017975Y022377D01*
X017975Y022277D01*
X017925Y022227D01*
X017875Y022227D01*
X017825Y022277D01*
X017825Y022427D01*
X022450Y018850D02*
X022620Y018850D01*
X022620Y018160D02*
X022450Y018160D01*
X022450Y017940D02*
X022620Y017940D01*
X022640Y017290D02*
X022470Y017290D01*
X021592Y016859D02*
X020648Y016859D01*
X020648Y016269D01*
X020337Y016307D02*
X020287Y016357D01*
X020236Y016357D01*
X020186Y016307D01*
X020136Y016357D01*
X020086Y016357D01*
X020036Y016307D01*
X020036Y016207D01*
X020086Y016157D01*
X020186Y016257D02*
X020186Y016307D01*
X020337Y016307D02*
X020337Y016207D01*
X020287Y016157D01*
X020287Y015989D02*
X020236Y015989D01*
X020186Y015938D01*
X020136Y015989D01*
X020086Y015989D01*
X020036Y015938D01*
X020036Y015838D01*
X020086Y015788D01*
X020186Y015888D02*
X020186Y015938D01*
X020287Y015989D02*
X020337Y015938D01*
X020337Y015838D01*
X020287Y015788D01*
X020287Y015620D02*
X020337Y015570D01*
X020337Y015470D01*
X020287Y015420D01*
X020086Y015420D01*
X020036Y015470D01*
X020036Y015570D01*
X020086Y015620D01*
X020648Y015481D02*
X020648Y015048D01*
X020805Y014891D01*
X021435Y014891D01*
X021592Y015048D01*
X021592Y015481D01*
X021520Y015725D02*
X020720Y015725D01*
X021592Y016269D02*
X021592Y016859D01*
X022094Y015698D02*
X022094Y015462D01*
X022566Y015462D02*
X022566Y015698D01*
X022848Y015395D02*
X022898Y015445D01*
X022998Y015445D01*
X023048Y015395D01*
X023216Y015395D02*
X023216Y015345D01*
X023267Y015295D01*
X023216Y015245D01*
X023216Y015195D01*
X023267Y015145D01*
X023367Y015145D01*
X023417Y015195D01*
X023317Y015295D02*
X023267Y015295D01*
X023216Y015395D02*
X023267Y015445D01*
X023367Y015445D01*
X023417Y015395D01*
X023585Y015395D02*
X023635Y015445D01*
X023735Y015445D01*
X023785Y015395D01*
X023785Y015195D01*
X023735Y015145D01*
X023635Y015145D01*
X023585Y015195D01*
X023048Y015145D02*
X022848Y015345D01*
X022848Y015395D01*
X022848Y015145D02*
X023048Y015145D01*
X022773Y014596D02*
X022537Y014596D01*
X022537Y014124D02*
X022773Y014124D01*
X022792Y013875D02*
X022692Y013875D01*
X022641Y013825D01*
X022641Y013775D01*
X022692Y013725D01*
X022641Y013675D01*
X022641Y013625D01*
X022692Y013575D01*
X022792Y013575D01*
X022842Y013625D01*
X022742Y013725D02*
X022692Y013725D01*
X022842Y013825D02*
X022792Y013875D01*
X023010Y013825D02*
X023060Y013875D01*
X023160Y013875D01*
X023210Y013825D01*
X023210Y013625D01*
X023160Y013575D01*
X023060Y013575D01*
X023010Y013625D01*
X022473Y013725D02*
X022273Y013725D01*
X022323Y013575D02*
X022323Y013875D01*
X022473Y013725D01*
X023713Y017350D02*
X023813Y017350D01*
X023863Y017400D01*
X023863Y017450D01*
X023813Y017500D01*
X023713Y017500D01*
X023663Y017450D01*
X023663Y017400D01*
X023713Y017350D01*
X023713Y017500D02*
X023663Y017550D01*
X023663Y017600D01*
X023713Y017650D01*
X023813Y017650D01*
X023863Y017600D01*
X023863Y017550D01*
X023813Y017500D01*
X024032Y017450D02*
X024032Y017400D01*
X024082Y017350D01*
X024182Y017350D01*
X024232Y017400D01*
X024232Y017450D01*
X024182Y017500D01*
X024082Y017500D01*
X024032Y017450D01*
X024082Y017500D02*
X024032Y017550D01*
X024032Y017600D01*
X024082Y017650D01*
X024182Y017650D01*
X024232Y017600D01*
X024232Y017550D01*
X024182Y017500D01*
X024400Y017500D02*
X024450Y017450D01*
X024600Y017450D01*
X024600Y017350D02*
X024600Y017650D01*
X024450Y017650D01*
X024400Y017600D01*
X024400Y017500D01*
X024500Y017450D02*
X024400Y017350D01*
X024350Y018370D02*
X024350Y018670D01*
X024200Y018670D01*
X024150Y018620D01*
X024150Y018520D01*
X024200Y018470D01*
X024350Y018470D01*
X024250Y018470D02*
X024150Y018370D01*
X023982Y018420D02*
X023982Y018470D01*
X023932Y018520D01*
X023832Y018520D01*
X023782Y018470D01*
X023782Y018420D01*
X023832Y018370D01*
X023932Y018370D01*
X023982Y018420D01*
X023932Y018520D02*
X023982Y018570D01*
X023982Y018620D01*
X023932Y018670D01*
X023832Y018670D01*
X023782Y018620D01*
X023782Y018570D01*
X023832Y018520D01*
X023613Y018420D02*
X023413Y018620D01*
X023413Y018670D01*
X023613Y018670D01*
X023613Y018420D02*
X023613Y018370D01*
X026198Y032630D02*
X026398Y032630D01*
X026198Y032830D01*
X026198Y032880D01*
X026248Y032930D01*
X026348Y032930D01*
X026398Y032880D01*
X026667Y032930D02*
X026667Y032630D01*
X026767Y032630D02*
X026566Y032630D01*
X026767Y032830D02*
X026667Y032930D01*
X026935Y032880D02*
X026985Y032930D01*
X027085Y032930D01*
X027135Y032880D01*
X027135Y032680D01*
X027085Y032630D01*
X026985Y032630D01*
X026935Y032680D01*
X026550Y033250D02*
X026550Y033750D01*
X033433Y034630D02*
X033483Y034580D01*
X033583Y034580D01*
X033633Y034630D01*
X033433Y034830D01*
X033433Y034630D01*
X033433Y034830D02*
X033483Y034880D01*
X033583Y034880D01*
X033633Y034830D01*
X033633Y034630D01*
X033802Y034730D02*
X034002Y034730D01*
X033852Y034880D01*
X033852Y034580D01*
X034170Y034630D02*
X034220Y034580D01*
X034320Y034580D01*
X034370Y034630D01*
X034370Y034830D01*
X034320Y034880D01*
X034220Y034880D01*
X034170Y034830D01*
X034000Y034230D02*
X034000Y033730D01*
M02*
