G75*
G70*
%OFA0B0*%
%FSLAX25Y25*%
%IPPOS*%
%LPD*%
%AMOC8*
5,1,8,0,0,1.08239X$1,22.5*
%
%ADD15C,0.00000*%
X0011000Y0011000D02*
G75*
%LPD*%
D15*
X0011000Y0011000D02*
X0011000Y0035000D01*
X0046000Y0035000D01*
X0046000Y0011000D01*
X0011000Y0011000D01*
X0011000Y0037000D02*
G75*
%LPD*%
D15*
X0011000Y0037000D02*
X0011000Y0061000D01*
X0046000Y0061000D01*
X0046000Y0037000D01*
X0011000Y0037000D01*
X0048000Y0011000D02*
G75*
%LPD*%
D15*
X0048000Y0011000D02*
X0048000Y0035000D01*
X0083000Y0035000D01*
X0083000Y0011000D01*
X0048000Y0011000D01*
X0011000Y0063000D02*
G75*
%LPD*%
D15*
X0011000Y0063000D02*
X0011000Y0087000D01*
X0046000Y0087000D01*
X0046000Y0063000D01*
X0011000Y0063000D01*
X0048000Y0037000D02*
G75*
%LPD*%
D15*
X0048000Y0037000D02*
X0048000Y0061000D01*
X0083000Y0061000D01*
X0083000Y0037000D01*
X0048000Y0037000D01*
X0011000Y0089000D02*
G75*
%LPD*%
D15*
X0011000Y0089000D02*
X0011000Y0113000D01*
X0046000Y0113000D01*
X0046000Y0089000D01*
X0011000Y0089000D01*
X0048000Y0063000D02*
G75*
%LPD*%
D15*
X0048000Y0063000D02*
X0048000Y0087000D01*
X0083000Y0087000D01*
X0083000Y0063000D01*
X0048000Y0063000D01*
X0048000Y0089000D02*
G75*
%LPD*%
D15*
X0048000Y0089000D02*
X0048000Y0113000D01*
X0083000Y0113000D01*
X0083000Y0089000D01*
X0048000Y0089000D01*
X0011000Y0115000D02*
G75*
%LPD*%
D15*
X0011000Y0115000D02*
X0011000Y0139000D01*
X0046000Y0139000D01*
X0046000Y0115000D01*
X0011000Y0115000D01*
X0048000Y0115000D02*
G75*
%LPD*%
D15*
X0048000Y0115000D02*
X0048000Y0139000D01*
X0083000Y0139000D01*
X0083000Y0115000D01*
X0048000Y0115000D01*
M02*
