G75*
G70*
%OFA0B0*%
%FSLAX25Y25*%
%IPPOS*%
%LPD*%
%AMOC8*
5,1,8,0,0,1.08239X$1,22.5*
%
%ADD12C,0.04370*%
%ADD13R,0.07100X0.07890*%
X0011000Y0011000D02*
G75*
%LPD*%
D13*
X0022480Y0023000D03*
X0033510Y0023000D03*
D12*
X0017000Y0017000D03*
X0017000Y0021000D03*
X0017000Y0025000D03*
X0017000Y0029000D03*
X0022500Y0029000D03*
X0022500Y0017000D03*
X0034500Y0017000D03*
X0040000Y0017000D03*
X0040000Y0021000D03*
X0040000Y0025000D03*
X0040000Y0029000D03*
X0034500Y0029000D03*
X0011000Y0037000D02*
G75*
%LPD*%
D13*
X0022480Y0049000D03*
X0033510Y0049000D03*
D12*
X0017000Y0043000D03*
X0017000Y0047000D03*
X0017000Y0051000D03*
X0017000Y0055000D03*
X0022500Y0055000D03*
X0022500Y0043000D03*
X0034500Y0043000D03*
X0040000Y0043000D03*
X0040000Y0047000D03*
X0040000Y0051000D03*
X0040000Y0055000D03*
X0034500Y0055000D03*
X0048000Y0011000D02*
G75*
%LPD*%
D13*
X0059480Y0023000D03*
X0070510Y0023000D03*
D12*
X0054000Y0017000D03*
X0054000Y0021000D03*
X0054000Y0025000D03*
X0054000Y0029000D03*
X0059500Y0029000D03*
X0059500Y0017000D03*
X0071500Y0017000D03*
X0077000Y0017000D03*
X0077000Y0021000D03*
X0077000Y0025000D03*
X0077000Y0029000D03*
X0071500Y0029000D03*
X0011000Y0063000D02*
G75*
%LPD*%
D13*
X0022480Y0075000D03*
X0033510Y0075000D03*
D12*
X0017000Y0069000D03*
X0017000Y0073000D03*
X0017000Y0077000D03*
X0017000Y0081000D03*
X0022500Y0081000D03*
X0022500Y0069000D03*
X0034500Y0069000D03*
X0040000Y0069000D03*
X0040000Y0073000D03*
X0040000Y0077000D03*
X0040000Y0081000D03*
X0034500Y0081000D03*
X0048000Y0037000D02*
G75*
%LPD*%
D13*
X0059480Y0049000D03*
X0070510Y0049000D03*
D12*
X0054000Y0043000D03*
X0054000Y0047000D03*
X0054000Y0051000D03*
X0054000Y0055000D03*
X0059500Y0055000D03*
X0059500Y0043000D03*
X0071500Y0043000D03*
X0077000Y0043000D03*
X0077000Y0047000D03*
X0077000Y0051000D03*
X0077000Y0055000D03*
X0071500Y0055000D03*
X0011000Y0089000D02*
G75*
%LPD*%
D13*
X0022480Y0101000D03*
X0033510Y0101000D03*
D12*
X0017000Y0095000D03*
X0017000Y0099000D03*
X0017000Y0103000D03*
X0017000Y0107000D03*
X0022500Y0107000D03*
X0022500Y0095000D03*
X0034500Y0095000D03*
X0040000Y0095000D03*
X0040000Y0099000D03*
X0040000Y0103000D03*
X0040000Y0107000D03*
X0034500Y0107000D03*
X0048000Y0063000D02*
G75*
%LPD*%
D13*
X0059480Y0075000D03*
X0070510Y0075000D03*
D12*
X0054000Y0069000D03*
X0054000Y0073000D03*
X0054000Y0077000D03*
X0054000Y0081000D03*
X0059500Y0081000D03*
X0059500Y0069000D03*
X0071500Y0069000D03*
X0077000Y0069000D03*
X0077000Y0073000D03*
X0077000Y0077000D03*
X0077000Y0081000D03*
X0071500Y0081000D03*
X0048000Y0089000D02*
G75*
%LPD*%
D13*
X0059480Y0101000D03*
X0070510Y0101000D03*
D12*
X0054000Y0095000D03*
X0054000Y0099000D03*
X0054000Y0103000D03*
X0054000Y0107000D03*
X0059500Y0107000D03*
X0059500Y0095000D03*
X0071500Y0095000D03*
X0077000Y0095000D03*
X0077000Y0099000D03*
X0077000Y0103000D03*
X0077000Y0107000D03*
X0071500Y0107000D03*
X0011000Y0115000D02*
G75*
%LPD*%
D13*
X0022480Y0127000D03*
X0033510Y0127000D03*
D12*
X0017000Y0121000D03*
X0017000Y0125000D03*
X0017000Y0129000D03*
X0017000Y0133000D03*
X0022500Y0133000D03*
X0022500Y0121000D03*
X0034500Y0121000D03*
X0040000Y0121000D03*
X0040000Y0125000D03*
X0040000Y0129000D03*
X0040000Y0133000D03*
X0034500Y0133000D03*
X0048000Y0115000D02*
G75*
%LPD*%
D13*
X0059480Y0127000D03*
X0070510Y0127000D03*
D12*
X0054000Y0121000D03*
X0054000Y0125000D03*
X0054000Y0129000D03*
X0054000Y0133000D03*
X0059500Y0133000D03*
X0059500Y0121000D03*
X0071500Y0121000D03*
X0077000Y0121000D03*
X0077000Y0125000D03*
X0077000Y0129000D03*
X0077000Y0133000D03*
X0071500Y0133000D03*
M02*
