%
T01C0.019700
X1700Y1700
X1700Y2100
X1700Y2500
X1700Y2900
X2250Y2900
X2250Y1700
X3450Y1700
X4000Y1700
X4000Y2100
X4000Y2500
X4000Y2900
X3450Y2900
X1700Y4300
X1700Y4700
X1700Y5100
X1700Y5500
X2250Y5500
X2250Y4300
X3450Y4300
X4000Y4300
X4000Y4700
X4000Y5100
X4000Y5500
X3450Y5500
X5400Y1700
X5400Y2100
X5400Y2500
X5400Y2900
X5950Y2900
X5950Y1700
X7150Y1700
X7700Y1700
X7700Y2100
X7700Y2500
X7700Y2900
X7150Y2900
X1700Y6900
X1700Y7300
X1700Y7700
X1700Y8100
X2250Y8100
X2250Y6900
X3450Y6900
X4000Y6900
X4000Y7300
X4000Y7700
X4000Y8100
X3450Y8100
X5400Y4300
X5400Y4700
X5400Y5100
X5400Y5500
X5950Y5500
X5950Y4300
X7150Y4300
X7700Y4300
X7700Y4700
X7700Y5100
X7700Y5500
X7150Y5500
X1700Y9500
X1700Y9900
X1700Y10300
X1700Y10700
X2250Y10700
X2250Y9500
X3450Y9500
X4000Y9500
X4000Y9900
X4000Y10300
X4000Y10700
X3450Y10700
X5400Y6900
X5400Y7300
X5400Y7700
X5400Y8100
X5950Y8100
X5950Y6900
X7150Y6900
X7700Y6900
X7700Y7300
X7700Y7700
X7700Y8100
X7150Y8100
X5400Y9500
X5400Y9900
X5400Y10300
X5400Y10700
X5950Y10700
X5950Y9500
X7150Y9500
X7700Y9500
X7700Y9900
X7700Y10300
X7700Y10700
X7150Y10700
X1700Y12100
X1700Y12500
X1700Y12900
X1700Y13300
X2250Y13300
X2250Y12100
X3450Y12100
X4000Y12100
X4000Y12500
X4000Y12900
X4000Y13300
X3450Y13300
X5400Y12100
X5400Y12500
X5400Y12900
X5400Y13300
X5950Y13300
X5950Y12100
X7150Y12100
X7700Y12100
X7700Y12500
X7700Y12900
X7700Y13300
X7150Y13300
M30
