G75*
G70*
%OFA0B0*%
%FSLAX25Y25*%
%IPPOS*%
%LPD*%
%AMOC8*
5,1,8,0,0,1.08239X$1,22.5*
%
%ADD11C,0.01000*%
%ADD14R,0.06300X0.07090*%
%ADD17C,0.03570*%
X0011000Y0011000D02*
G75*
%LPD*%
D14*
X0022480Y0023000D03*
X0033510Y0023000D03*
D11*
X0015500Y0015500D02*
X0015500Y0030500D01*
X0025000Y0030500D01*
X0025000Y0015500D01*
X0015500Y0015500D01*
X0015500Y0015930D02*
X0025000Y0015930D01*
X0025000Y0016910D02*
X0015500Y0016910D01*
X0015500Y0017900D02*
X0025000Y0017900D01*
X0025000Y0018880D02*
X0015500Y0018880D01*
X0015500Y0019870D02*
X0025000Y0019870D01*
X0025000Y0020850D02*
X0015500Y0020850D01*
X0015500Y0021840D02*
X0025000Y0021840D01*
X0025000Y0022820D02*
X0015500Y0022820D01*
X0015500Y0023810D02*
X0025000Y0023810D01*
X0025000Y0024790D02*
X0015500Y0024790D01*
X0015500Y0025780D02*
X0025000Y0025780D01*
X0025000Y0026760D02*
X0015500Y0026760D01*
X0015500Y0027750D02*
X0025000Y0027750D01*
X0025000Y0028730D02*
X0015500Y0028730D01*
X0015500Y0029720D02*
X0025000Y0029720D01*
X0032000Y0029720D02*
X0041500Y0029720D01*
X0041500Y0030500D02*
X0041500Y0015500D01*
X0032000Y0015500D01*
X0032000Y0030500D01*
X0041500Y0030500D01*
X0041500Y0028730D02*
X0032000Y0028730D01*
X0032000Y0027750D02*
X0041500Y0027750D01*
X0041500Y0026760D02*
X0032000Y0026760D01*
X0032000Y0025780D02*
X0041500Y0025780D01*
X0041500Y0024790D02*
X0032000Y0024790D01*
X0032000Y0023810D02*
X0041500Y0023810D01*
X0041500Y0022820D02*
X0032000Y0022820D01*
X0032000Y0021840D02*
X0041500Y0021840D01*
X0041500Y0020850D02*
X0032000Y0020850D01*
X0032000Y0019870D02*
X0041500Y0019870D01*
X0041500Y0018880D02*
X0032000Y0018880D01*
X0032000Y0017900D02*
X0041500Y0017900D01*
X0041500Y0016910D02*
X0032000Y0016910D01*
X0032000Y0015930D02*
X0041500Y0015930D01*
D17*
X0040000Y0017000D03*
X0040000Y0021000D03*
X0040000Y0025000D03*
X0040000Y0029000D03*
X0034500Y0029000D03*
X0034500Y0017000D03*
X0022500Y0017000D03*
X0017000Y0017000D03*
X0017000Y0021000D03*
X0017000Y0025000D03*
X0017000Y0029000D03*
X0022500Y0029000D03*
X0011000Y0037000D02*
G75*
%LPD*%
D14*
X0022480Y0049000D03*
X0033510Y0049000D03*
D11*
X0015500Y0041500D02*
X0015500Y0056500D01*
X0025000Y0056500D01*
X0025000Y0041500D01*
X0015500Y0041500D01*
X0015500Y0041930D02*
X0025000Y0041930D01*
X0025000Y0042910D02*
X0015500Y0042910D01*
X0015500Y0043900D02*
X0025000Y0043900D01*
X0025000Y0044880D02*
X0015500Y0044880D01*
X0015500Y0045870D02*
X0025000Y0045870D01*
X0025000Y0046850D02*
X0015500Y0046850D01*
X0015500Y0047840D02*
X0025000Y0047840D01*
X0025000Y0048820D02*
X0015500Y0048820D01*
X0015500Y0049810D02*
X0025000Y0049810D01*
X0025000Y0050790D02*
X0015500Y0050790D01*
X0015500Y0051780D02*
X0025000Y0051780D01*
X0025000Y0052760D02*
X0015500Y0052760D01*
X0015500Y0053750D02*
X0025000Y0053750D01*
X0025000Y0054730D02*
X0015500Y0054730D01*
X0015500Y0055720D02*
X0025000Y0055720D01*
X0032000Y0055720D02*
X0041500Y0055720D01*
X0041500Y0056500D02*
X0041500Y0041500D01*
X0032000Y0041500D01*
X0032000Y0056500D01*
X0041500Y0056500D01*
X0041500Y0054730D02*
X0032000Y0054730D01*
X0032000Y0053750D02*
X0041500Y0053750D01*
X0041500Y0052760D02*
X0032000Y0052760D01*
X0032000Y0051780D02*
X0041500Y0051780D01*
X0041500Y0050790D02*
X0032000Y0050790D01*
X0032000Y0049810D02*
X0041500Y0049810D01*
X0041500Y0048820D02*
X0032000Y0048820D01*
X0032000Y0047840D02*
X0041500Y0047840D01*
X0041500Y0046850D02*
X0032000Y0046850D01*
X0032000Y0045870D02*
X0041500Y0045870D01*
X0041500Y0044880D02*
X0032000Y0044880D01*
X0032000Y0043900D02*
X0041500Y0043900D01*
X0041500Y0042910D02*
X0032000Y0042910D01*
X0032000Y0041930D02*
X0041500Y0041930D01*
D17*
X0040000Y0043000D03*
X0040000Y0047000D03*
X0040000Y0051000D03*
X0040000Y0055000D03*
X0034500Y0055000D03*
X0034500Y0043000D03*
X0022500Y0043000D03*
X0017000Y0043000D03*
X0017000Y0047000D03*
X0017000Y0051000D03*
X0017000Y0055000D03*
X0022500Y0055000D03*
X0048000Y0011000D02*
G75*
%LPD*%
D14*
X0059480Y0023000D03*
X0070510Y0023000D03*
D11*
X0052500Y0015500D02*
X0052500Y0030500D01*
X0062000Y0030500D01*
X0062000Y0015500D01*
X0052500Y0015500D01*
X0052500Y0015930D02*
X0062000Y0015930D01*
X0062000Y0016910D02*
X0052500Y0016910D01*
X0052500Y0017900D02*
X0062000Y0017900D01*
X0062000Y0018880D02*
X0052500Y0018880D01*
X0052500Y0019870D02*
X0062000Y0019870D01*
X0062000Y0020850D02*
X0052500Y0020850D01*
X0052500Y0021840D02*
X0062000Y0021840D01*
X0062000Y0022820D02*
X0052500Y0022820D01*
X0052500Y0023810D02*
X0062000Y0023810D01*
X0062000Y0024790D02*
X0052500Y0024790D01*
X0052500Y0025780D02*
X0062000Y0025780D01*
X0062000Y0026760D02*
X0052500Y0026760D01*
X0052500Y0027750D02*
X0062000Y0027750D01*
X0062000Y0028730D02*
X0052500Y0028730D01*
X0052500Y0029720D02*
X0062000Y0029720D01*
X0069000Y0029720D02*
X0078500Y0029720D01*
X0078500Y0030500D02*
X0078500Y0015500D01*
X0069000Y0015500D01*
X0069000Y0030500D01*
X0078500Y0030500D01*
X0078500Y0028730D02*
X0069000Y0028730D01*
X0069000Y0027750D02*
X0078500Y0027750D01*
X0078500Y0026760D02*
X0069000Y0026760D01*
X0069000Y0025780D02*
X0078500Y0025780D01*
X0078500Y0024790D02*
X0069000Y0024790D01*
X0069000Y0023810D02*
X0078500Y0023810D01*
X0078500Y0022820D02*
X0069000Y0022820D01*
X0069000Y0021840D02*
X0078500Y0021840D01*
X0078500Y0020850D02*
X0069000Y0020850D01*
X0069000Y0019870D02*
X0078500Y0019870D01*
X0078500Y0018880D02*
X0069000Y0018880D01*
X0069000Y0017900D02*
X0078500Y0017900D01*
X0078500Y0016910D02*
X0069000Y0016910D01*
X0069000Y0015930D02*
X0078500Y0015930D01*
D17*
X0077000Y0017000D03*
X0077000Y0021000D03*
X0077000Y0025000D03*
X0077000Y0029000D03*
X0071500Y0029000D03*
X0071500Y0017000D03*
X0059500Y0017000D03*
X0054000Y0017000D03*
X0054000Y0021000D03*
X0054000Y0025000D03*
X0054000Y0029000D03*
X0059500Y0029000D03*
X0011000Y0063000D02*
G75*
%LPD*%
D14*
X0022480Y0075000D03*
X0033510Y0075000D03*
D11*
X0015500Y0067500D02*
X0015500Y0082500D01*
X0025000Y0082500D01*
X0025000Y0067500D01*
X0015500Y0067500D01*
X0015500Y0067930D02*
X0025000Y0067930D01*
X0025000Y0068910D02*
X0015500Y0068910D01*
X0015500Y0069900D02*
X0025000Y0069900D01*
X0025000Y0070880D02*
X0015500Y0070880D01*
X0015500Y0071870D02*
X0025000Y0071870D01*
X0025000Y0072850D02*
X0015500Y0072850D01*
X0015500Y0073840D02*
X0025000Y0073840D01*
X0025000Y0074820D02*
X0015500Y0074820D01*
X0015500Y0075810D02*
X0025000Y0075810D01*
X0025000Y0076790D02*
X0015500Y0076790D01*
X0015500Y0077780D02*
X0025000Y0077780D01*
X0025000Y0078760D02*
X0015500Y0078760D01*
X0015500Y0079750D02*
X0025000Y0079750D01*
X0025000Y0080730D02*
X0015500Y0080730D01*
X0015500Y0081720D02*
X0025000Y0081720D01*
X0032000Y0081720D02*
X0041500Y0081720D01*
X0041500Y0082500D02*
X0041500Y0067500D01*
X0032000Y0067500D01*
X0032000Y0082500D01*
X0041500Y0082500D01*
X0041500Y0080730D02*
X0032000Y0080730D01*
X0032000Y0079750D02*
X0041500Y0079750D01*
X0041500Y0078760D02*
X0032000Y0078760D01*
X0032000Y0077780D02*
X0041500Y0077780D01*
X0041500Y0076790D02*
X0032000Y0076790D01*
X0032000Y0075810D02*
X0041500Y0075810D01*
X0041500Y0074820D02*
X0032000Y0074820D01*
X0032000Y0073840D02*
X0041500Y0073840D01*
X0041500Y0072850D02*
X0032000Y0072850D01*
X0032000Y0071870D02*
X0041500Y0071870D01*
X0041500Y0070880D02*
X0032000Y0070880D01*
X0032000Y0069900D02*
X0041500Y0069900D01*
X0041500Y0068910D02*
X0032000Y0068910D01*
X0032000Y0067930D02*
X0041500Y0067930D01*
D17*
X0040000Y0069000D03*
X0040000Y0073000D03*
X0040000Y0077000D03*
X0040000Y0081000D03*
X0034500Y0081000D03*
X0034500Y0069000D03*
X0022500Y0069000D03*
X0017000Y0069000D03*
X0017000Y0073000D03*
X0017000Y0077000D03*
X0017000Y0081000D03*
X0022500Y0081000D03*
X0048000Y0037000D02*
G75*
%LPD*%
D14*
X0059480Y0049000D03*
X0070510Y0049000D03*
D11*
X0052500Y0041500D02*
X0052500Y0056500D01*
X0062000Y0056500D01*
X0062000Y0041500D01*
X0052500Y0041500D01*
X0052500Y0041930D02*
X0062000Y0041930D01*
X0062000Y0042910D02*
X0052500Y0042910D01*
X0052500Y0043900D02*
X0062000Y0043900D01*
X0062000Y0044880D02*
X0052500Y0044880D01*
X0052500Y0045870D02*
X0062000Y0045870D01*
X0062000Y0046850D02*
X0052500Y0046850D01*
X0052500Y0047840D02*
X0062000Y0047840D01*
X0062000Y0048820D02*
X0052500Y0048820D01*
X0052500Y0049810D02*
X0062000Y0049810D01*
X0062000Y0050790D02*
X0052500Y0050790D01*
X0052500Y0051780D02*
X0062000Y0051780D01*
X0062000Y0052760D02*
X0052500Y0052760D01*
X0052500Y0053750D02*
X0062000Y0053750D01*
X0062000Y0054730D02*
X0052500Y0054730D01*
X0052500Y0055720D02*
X0062000Y0055720D01*
X0069000Y0055720D02*
X0078500Y0055720D01*
X0078500Y0056500D02*
X0078500Y0041500D01*
X0069000Y0041500D01*
X0069000Y0056500D01*
X0078500Y0056500D01*
X0078500Y0054730D02*
X0069000Y0054730D01*
X0069000Y0053750D02*
X0078500Y0053750D01*
X0078500Y0052760D02*
X0069000Y0052760D01*
X0069000Y0051780D02*
X0078500Y0051780D01*
X0078500Y0050790D02*
X0069000Y0050790D01*
X0069000Y0049810D02*
X0078500Y0049810D01*
X0078500Y0048820D02*
X0069000Y0048820D01*
X0069000Y0047840D02*
X0078500Y0047840D01*
X0078500Y0046850D02*
X0069000Y0046850D01*
X0069000Y0045870D02*
X0078500Y0045870D01*
X0078500Y0044880D02*
X0069000Y0044880D01*
X0069000Y0043900D02*
X0078500Y0043900D01*
X0078500Y0042910D02*
X0069000Y0042910D01*
X0069000Y0041930D02*
X0078500Y0041930D01*
D17*
X0077000Y0043000D03*
X0077000Y0047000D03*
X0077000Y0051000D03*
X0077000Y0055000D03*
X0071500Y0055000D03*
X0071500Y0043000D03*
X0059500Y0043000D03*
X0054000Y0043000D03*
X0054000Y0047000D03*
X0054000Y0051000D03*
X0054000Y0055000D03*
X0059500Y0055000D03*
X0011000Y0089000D02*
G75*
%LPD*%
D14*
X0022480Y0101000D03*
X0033510Y0101000D03*
D11*
X0015500Y0093500D02*
X0015500Y0108500D01*
X0025000Y0108500D01*
X0025000Y0093500D01*
X0015500Y0093500D01*
X0015500Y0093930D02*
X0025000Y0093930D01*
X0025000Y0094910D02*
X0015500Y0094910D01*
X0015500Y0095900D02*
X0025000Y0095900D01*
X0025000Y0096880D02*
X0015500Y0096880D01*
X0015500Y0097870D02*
X0025000Y0097870D01*
X0025000Y0098850D02*
X0015500Y0098850D01*
X0015500Y0099840D02*
X0025000Y0099840D01*
X0025000Y0100820D02*
X0015500Y0100820D01*
X0015500Y0101810D02*
X0025000Y0101810D01*
X0025000Y0102790D02*
X0015500Y0102790D01*
X0015500Y0103780D02*
X0025000Y0103780D01*
X0025000Y0104760D02*
X0015500Y0104760D01*
X0015500Y0105750D02*
X0025000Y0105750D01*
X0025000Y0106730D02*
X0015500Y0106730D01*
X0015500Y0107720D02*
X0025000Y0107720D01*
X0032000Y0107720D02*
X0041500Y0107720D01*
X0041500Y0108500D02*
X0041500Y0093500D01*
X0032000Y0093500D01*
X0032000Y0108500D01*
X0041500Y0108500D01*
X0041500Y0106730D02*
X0032000Y0106730D01*
X0032000Y0105750D02*
X0041500Y0105750D01*
X0041500Y0104760D02*
X0032000Y0104760D01*
X0032000Y0103780D02*
X0041500Y0103780D01*
X0041500Y0102790D02*
X0032000Y0102790D01*
X0032000Y0101810D02*
X0041500Y0101810D01*
X0041500Y0100820D02*
X0032000Y0100820D01*
X0032000Y0099840D02*
X0041500Y0099840D01*
X0041500Y0098850D02*
X0032000Y0098850D01*
X0032000Y0097870D02*
X0041500Y0097870D01*
X0041500Y0096880D02*
X0032000Y0096880D01*
X0032000Y0095900D02*
X0041500Y0095900D01*
X0041500Y0094910D02*
X0032000Y0094910D01*
X0032000Y0093930D02*
X0041500Y0093930D01*
D17*
X0040000Y0095000D03*
X0040000Y0099000D03*
X0040000Y0103000D03*
X0040000Y0107000D03*
X0034500Y0107000D03*
X0034500Y0095000D03*
X0022500Y0095000D03*
X0017000Y0095000D03*
X0017000Y0099000D03*
X0017000Y0103000D03*
X0017000Y0107000D03*
X0022500Y0107000D03*
X0048000Y0063000D02*
G75*
%LPD*%
D14*
X0059480Y0075000D03*
X0070510Y0075000D03*
D11*
X0052500Y0067500D02*
X0052500Y0082500D01*
X0062000Y0082500D01*
X0062000Y0067500D01*
X0052500Y0067500D01*
X0052500Y0067930D02*
X0062000Y0067930D01*
X0062000Y0068910D02*
X0052500Y0068910D01*
X0052500Y0069900D02*
X0062000Y0069900D01*
X0062000Y0070880D02*
X0052500Y0070880D01*
X0052500Y0071870D02*
X0062000Y0071870D01*
X0062000Y0072850D02*
X0052500Y0072850D01*
X0052500Y0073840D02*
X0062000Y0073840D01*
X0062000Y0074820D02*
X0052500Y0074820D01*
X0052500Y0075810D02*
X0062000Y0075810D01*
X0062000Y0076790D02*
X0052500Y0076790D01*
X0052500Y0077780D02*
X0062000Y0077780D01*
X0062000Y0078760D02*
X0052500Y0078760D01*
X0052500Y0079750D02*
X0062000Y0079750D01*
X0062000Y0080730D02*
X0052500Y0080730D01*
X0052500Y0081720D02*
X0062000Y0081720D01*
X0069000Y0081720D02*
X0078500Y0081720D01*
X0078500Y0082500D02*
X0078500Y0067500D01*
X0069000Y0067500D01*
X0069000Y0082500D01*
X0078500Y0082500D01*
X0078500Y0080730D02*
X0069000Y0080730D01*
X0069000Y0079750D02*
X0078500Y0079750D01*
X0078500Y0078760D02*
X0069000Y0078760D01*
X0069000Y0077780D02*
X0078500Y0077780D01*
X0078500Y0076790D02*
X0069000Y0076790D01*
X0069000Y0075810D02*
X0078500Y0075810D01*
X0078500Y0074820D02*
X0069000Y0074820D01*
X0069000Y0073840D02*
X0078500Y0073840D01*
X0078500Y0072850D02*
X0069000Y0072850D01*
X0069000Y0071870D02*
X0078500Y0071870D01*
X0078500Y0070880D02*
X0069000Y0070880D01*
X0069000Y0069900D02*
X0078500Y0069900D01*
X0078500Y0068910D02*
X0069000Y0068910D01*
X0069000Y0067930D02*
X0078500Y0067930D01*
D17*
X0077000Y0069000D03*
X0077000Y0073000D03*
X0077000Y0077000D03*
X0077000Y0081000D03*
X0071500Y0081000D03*
X0071500Y0069000D03*
X0059500Y0069000D03*
X0054000Y0069000D03*
X0054000Y0073000D03*
X0054000Y0077000D03*
X0054000Y0081000D03*
X0059500Y0081000D03*
X0048000Y0089000D02*
G75*
%LPD*%
D14*
X0059480Y0101000D03*
X0070510Y0101000D03*
D11*
X0052500Y0093500D02*
X0052500Y0108500D01*
X0062000Y0108500D01*
X0062000Y0093500D01*
X0052500Y0093500D01*
X0052500Y0093930D02*
X0062000Y0093930D01*
X0062000Y0094910D02*
X0052500Y0094910D01*
X0052500Y0095900D02*
X0062000Y0095900D01*
X0062000Y0096880D02*
X0052500Y0096880D01*
X0052500Y0097870D02*
X0062000Y0097870D01*
X0062000Y0098850D02*
X0052500Y0098850D01*
X0052500Y0099840D02*
X0062000Y0099840D01*
X0062000Y0100820D02*
X0052500Y0100820D01*
X0052500Y0101810D02*
X0062000Y0101810D01*
X0062000Y0102790D02*
X0052500Y0102790D01*
X0052500Y0103780D02*
X0062000Y0103780D01*
X0062000Y0104760D02*
X0052500Y0104760D01*
X0052500Y0105750D02*
X0062000Y0105750D01*
X0062000Y0106730D02*
X0052500Y0106730D01*
X0052500Y0107720D02*
X0062000Y0107720D01*
X0069000Y0107720D02*
X0078500Y0107720D01*
X0078500Y0108500D02*
X0078500Y0093500D01*
X0069000Y0093500D01*
X0069000Y0108500D01*
X0078500Y0108500D01*
X0078500Y0106730D02*
X0069000Y0106730D01*
X0069000Y0105750D02*
X0078500Y0105750D01*
X0078500Y0104760D02*
X0069000Y0104760D01*
X0069000Y0103780D02*
X0078500Y0103780D01*
X0078500Y0102790D02*
X0069000Y0102790D01*
X0069000Y0101810D02*
X0078500Y0101810D01*
X0078500Y0100820D02*
X0069000Y0100820D01*
X0069000Y0099840D02*
X0078500Y0099840D01*
X0078500Y0098850D02*
X0069000Y0098850D01*
X0069000Y0097870D02*
X0078500Y0097870D01*
X0078500Y0096880D02*
X0069000Y0096880D01*
X0069000Y0095900D02*
X0078500Y0095900D01*
X0078500Y0094910D02*
X0069000Y0094910D01*
X0069000Y0093930D02*
X0078500Y0093930D01*
D17*
X0077000Y0095000D03*
X0077000Y0099000D03*
X0077000Y0103000D03*
X0077000Y0107000D03*
X0071500Y0107000D03*
X0071500Y0095000D03*
X0059500Y0095000D03*
X0054000Y0095000D03*
X0054000Y0099000D03*
X0054000Y0103000D03*
X0054000Y0107000D03*
X0059500Y0107000D03*
X0011000Y0115000D02*
G75*
%LPD*%
D14*
X0022480Y0127000D03*
X0033510Y0127000D03*
D11*
X0015500Y0119500D02*
X0015500Y0134500D01*
X0025000Y0134500D01*
X0025000Y0119500D01*
X0015500Y0119500D01*
X0015500Y0119930D02*
X0025000Y0119930D01*
X0025000Y0120910D02*
X0015500Y0120910D01*
X0015500Y0121900D02*
X0025000Y0121900D01*
X0025000Y0122880D02*
X0015500Y0122880D01*
X0015500Y0123870D02*
X0025000Y0123870D01*
X0025000Y0124850D02*
X0015500Y0124850D01*
X0015500Y0125840D02*
X0025000Y0125840D01*
X0025000Y0126820D02*
X0015500Y0126820D01*
X0015500Y0127810D02*
X0025000Y0127810D01*
X0025000Y0128790D02*
X0015500Y0128790D01*
X0015500Y0129780D02*
X0025000Y0129780D01*
X0025000Y0130760D02*
X0015500Y0130760D01*
X0015500Y0131750D02*
X0025000Y0131750D01*
X0025000Y0132730D02*
X0015500Y0132730D01*
X0015500Y0133720D02*
X0025000Y0133720D01*
X0032000Y0133720D02*
X0041500Y0133720D01*
X0041500Y0134500D02*
X0041500Y0119500D01*
X0032000Y0119500D01*
X0032000Y0134500D01*
X0041500Y0134500D01*
X0041500Y0132730D02*
X0032000Y0132730D01*
X0032000Y0131750D02*
X0041500Y0131750D01*
X0041500Y0130760D02*
X0032000Y0130760D01*
X0032000Y0129780D02*
X0041500Y0129780D01*
X0041500Y0128790D02*
X0032000Y0128790D01*
X0032000Y0127810D02*
X0041500Y0127810D01*
X0041500Y0126820D02*
X0032000Y0126820D01*
X0032000Y0125840D02*
X0041500Y0125840D01*
X0041500Y0124850D02*
X0032000Y0124850D01*
X0032000Y0123870D02*
X0041500Y0123870D01*
X0041500Y0122880D02*
X0032000Y0122880D01*
X0032000Y0121900D02*
X0041500Y0121900D01*
X0041500Y0120910D02*
X0032000Y0120910D01*
X0032000Y0119930D02*
X0041500Y0119930D01*
D17*
X0040000Y0121000D03*
X0040000Y0125000D03*
X0040000Y0129000D03*
X0040000Y0133000D03*
X0034500Y0133000D03*
X0034500Y0121000D03*
X0022500Y0121000D03*
X0017000Y0121000D03*
X0017000Y0125000D03*
X0017000Y0129000D03*
X0017000Y0133000D03*
X0022500Y0133000D03*
X0048000Y0115000D02*
G75*
%LPD*%
D14*
X0059480Y0127000D03*
X0070510Y0127000D03*
D11*
X0052500Y0119500D02*
X0052500Y0134500D01*
X0062000Y0134500D01*
X0062000Y0119500D01*
X0052500Y0119500D01*
X0052500Y0119930D02*
X0062000Y0119930D01*
X0062000Y0120910D02*
X0052500Y0120910D01*
X0052500Y0121900D02*
X0062000Y0121900D01*
X0062000Y0122880D02*
X0052500Y0122880D01*
X0052500Y0123870D02*
X0062000Y0123870D01*
X0062000Y0124850D02*
X0052500Y0124850D01*
X0052500Y0125840D02*
X0062000Y0125840D01*
X0062000Y0126820D02*
X0052500Y0126820D01*
X0052500Y0127810D02*
X0062000Y0127810D01*
X0062000Y0128790D02*
X0052500Y0128790D01*
X0052500Y0129780D02*
X0062000Y0129780D01*
X0062000Y0130760D02*
X0052500Y0130760D01*
X0052500Y0131750D02*
X0062000Y0131750D01*
X0062000Y0132730D02*
X0052500Y0132730D01*
X0052500Y0133720D02*
X0062000Y0133720D01*
X0069000Y0133720D02*
X0078500Y0133720D01*
X0078500Y0134500D02*
X0078500Y0119500D01*
X0069000Y0119500D01*
X0069000Y0134500D01*
X0078500Y0134500D01*
X0078500Y0132730D02*
X0069000Y0132730D01*
X0069000Y0131750D02*
X0078500Y0131750D01*
X0078500Y0130760D02*
X0069000Y0130760D01*
X0069000Y0129780D02*
X0078500Y0129780D01*
X0078500Y0128790D02*
X0069000Y0128790D01*
X0069000Y0127810D02*
X0078500Y0127810D01*
X0078500Y0126820D02*
X0069000Y0126820D01*
X0069000Y0125840D02*
X0078500Y0125840D01*
X0078500Y0124850D02*
X0069000Y0124850D01*
X0069000Y0123870D02*
X0078500Y0123870D01*
X0078500Y0122880D02*
X0069000Y0122880D01*
X0069000Y0121900D02*
X0078500Y0121900D01*
X0078500Y0120910D02*
X0069000Y0120910D01*
X0069000Y0119930D02*
X0078500Y0119930D01*
D17*
X0077000Y0121000D03*
X0077000Y0125000D03*
X0077000Y0129000D03*
X0077000Y0133000D03*
X0071500Y0133000D03*
X0071500Y0121000D03*
X0059500Y0121000D03*
X0054000Y0121000D03*
X0054000Y0125000D03*
X0054000Y0129000D03*
X0054000Y0133000D03*
X0059500Y0133000D03*
M02*
