%
T01C0.019700
X13300Y1700
X12900Y1700
X12500Y1700
X12100Y1700
X12100Y2250
X13300Y2250
X13300Y3450
X13300Y4000
X12900Y4000
X12500Y4000
X12100Y4000
X12100Y3450
X10700Y1700
X10300Y1700
X9900Y1700
X9500Y1700
X9500Y2250
X10700Y2250
X10700Y3450
X10700Y4000
X10300Y4000
X9900Y4000
X9500Y4000
X9500Y3450
X13300Y5400
X12900Y5400
X12500Y5400
X12100Y5400
X12100Y5950
X13300Y5950
X13300Y7150
X13300Y7700
X12900Y7700
X12500Y7700
X12100Y7700
X12100Y7150
X8100Y1700
X7700Y1700
X7300Y1700
X6900Y1700
X6900Y2250
X8100Y2250
X8100Y3450
X8100Y4000
X7700Y4000
X7300Y4000
X6900Y4000
X6900Y3450
X10700Y5400
X10300Y5400
X9900Y5400
X9500Y5400
X9500Y5950
X10700Y5950
X10700Y7150
X10700Y7700
X10300Y7700
X9900Y7700
X9500Y7700
X9500Y7150
X5500Y1700
X5100Y1700
X4700Y1700
X4300Y1700
X4300Y2250
X5500Y2250
X5500Y3450
X5500Y4000
X5100Y4000
X4700Y4000
X4300Y4000
X4300Y3450
X8100Y5400
X7700Y5400
X7300Y5400
X6900Y5400
X6900Y5950
X8100Y5950
X8100Y7150
X8100Y7700
X7700Y7700
X7300Y7700
X6900Y7700
X6900Y7150
X5500Y5400
X5100Y5400
X4700Y5400
X4300Y5400
X4300Y5950
X5500Y5950
X5500Y7150
X5500Y7700
X5100Y7700
X4700Y7700
X4300Y7700
X4300Y7150
X2900Y1700
X2500Y1700
X2100Y1700
X1700Y1700
X1700Y2250
X2900Y2250
X2900Y3450
X2900Y4000
X2500Y4000
X2100Y4000
X1700Y4000
X1700Y3450
X2900Y5400
X2500Y5400
X2100Y5400
X1700Y5400
X1700Y5950
X2900Y5950
X2900Y7150
X2900Y7700
X2500Y7700
X2100Y7700
X1700Y7700
X1700Y7150
X13300Y9100
X12900Y9100
X12500Y9100
X12100Y9100
X12100Y9650
X13300Y9650
X13300Y10850
X13300Y11400
X12900Y11400
X12500Y11400
X12100Y11400
X12100Y10850
X10700Y9100
X10300Y9100
X9900Y9100
X9500Y9100
X9500Y9650
X10700Y9650
X10700Y10850
X10700Y11400
X10300Y11400
X9900Y11400
X9500Y11400
X9500Y10850
X13300Y12800
X12900Y12800
X12500Y12800
X12100Y12800
X12100Y13350
X13300Y13350
X13300Y14550
X13300Y15100
X12900Y15100
X12500Y15100
X12100Y15100
X12100Y14550
X8100Y9100
X7700Y9100
X7300Y9100
X6900Y9100
X6900Y9650
X8100Y9650
X8100Y10850
X8100Y11400
X7700Y11400
X7300Y11400
X6900Y11400
X6900Y10850
X10700Y12800
X10300Y12800
X9900Y12800
X9500Y12800
X9500Y13350
X10700Y13350
X10700Y14550
X10700Y15100
X10300Y15100
X9900Y15100
X9500Y15100
X9500Y14550
X5500Y9100
X5100Y9100
X4700Y9100
X4300Y9100
X4300Y9650
X5500Y9650
X5500Y10850
X5500Y11400
X5100Y11400
X4700Y11400
X4300Y11400
X4300Y10850
X8100Y12800
X7700Y12800
X7300Y12800
X6900Y12800
X6900Y13350
X8100Y13350
X8100Y14550
X8100Y15100
X7700Y15100
X7300Y15100
X6900Y15100
X6900Y14550
X5500Y12800
X5100Y12800
X4700Y12800
X4300Y12800
X4300Y13350
X5500Y13350
X5500Y14550
X5500Y15100
X5100Y15100
X4700Y15100
X4300Y15100
X4300Y14550
X2900Y9100
X2500Y9100
X2100Y9100
X1700Y9100
X1700Y9650
X2900Y9650
X2900Y10850
X2900Y11400
X2500Y11400
X2100Y11400
X1700Y11400
X1700Y10850
X2900Y12800
X2500Y12800
X2100Y12800
X1700Y12800
X1700Y13350
X2900Y13350
X2900Y14550
X2900Y15100
X2500Y15100
X2100Y15100
X1700Y15100
X1700Y14550
X26300Y1700
X25900Y1700
X25500Y1700
X25100Y1700
X25100Y2250
X26300Y2250
X26300Y3450
X26300Y4000
X25900Y4000
X25500Y4000
X25100Y4000
X25100Y3450
X23700Y1700
X23300Y1700
X22900Y1700
X22500Y1700
X22500Y2250
X23700Y2250
X23700Y3450
X23700Y4000
X23300Y4000
X22900Y4000
X22500Y4000
X22500Y3450
X26300Y5400
X25900Y5400
X25500Y5400
X25100Y5400
X25100Y5950
X26300Y5950
X26300Y7150
X26300Y7700
X25900Y7700
X25500Y7700
X25100Y7700
X25100Y7150
X21100Y1700
X20700Y1700
X20300Y1700
X19900Y1700
X19900Y2250
X21100Y2250
X21100Y3450
X21100Y4000
X20700Y4000
X20300Y4000
X19900Y4000
X19900Y3450
X23700Y5400
X23300Y5400
X22900Y5400
X22500Y5400
X22500Y5950
X23700Y5950
X23700Y7150
X23700Y7700
X23300Y7700
X22900Y7700
X22500Y7700
X22500Y7150
X18500Y1700
X18100Y1700
X17700Y1700
X17300Y1700
X17300Y2250
X18500Y2250
X18500Y3450
X18500Y4000
X18100Y4000
X17700Y4000
X17300Y4000
X17300Y3450
X21100Y5400
X20700Y5400
X20300Y5400
X19900Y5400
X19900Y5950
X21100Y5950
X21100Y7150
X21100Y7700
X20700Y7700
X20300Y7700
X19900Y7700
X19900Y7150
X18500Y5400
X18100Y5400
X17700Y5400
X17300Y5400
X17300Y5950
X18500Y5950
X18500Y7150
X18500Y7700
X18100Y7700
X17700Y7700
X17300Y7700
X17300Y7150
X15900Y1700
X15500Y1700
X15100Y1700
X14700Y1700
X14700Y2250
X15900Y2250
X15900Y3450
X15900Y4000
X15500Y4000
X15100Y4000
X14700Y4000
X14700Y3450
X15900Y5400
X15500Y5400
X15100Y5400
X14700Y5400
X14700Y5950
X15900Y5950
X15900Y7150
X15900Y7700
X15500Y7700
X15100Y7700
X14700Y7700
X14700Y7150
X26300Y9100
X25900Y9100
X25500Y9100
X25100Y9100
X25100Y9650
X26300Y9650
X26300Y10850
X26300Y11400
X25900Y11400
X25500Y11400
X25100Y11400
X25100Y10850
X23700Y9100
X23300Y9100
X22900Y9100
X22500Y9100
X22500Y9650
X23700Y9650
X23700Y10850
X23700Y11400
X23300Y11400
X22900Y11400
X22500Y11400
X22500Y10850
X26300Y12800
X25900Y12800
X25500Y12800
X25100Y12800
X25100Y13350
X26300Y13350
X26300Y14550
X26300Y15100
X25900Y15100
X25500Y15100
X25100Y15100
X25100Y14550
X21100Y9100
X20700Y9100
X20300Y9100
X19900Y9100
X19900Y9650
X21100Y9650
X21100Y10850
X21100Y11400
X20700Y11400
X20300Y11400
X19900Y11400
X19900Y10850
X23700Y12800
X23300Y12800
X22900Y12800
X22500Y12800
X22500Y13350
X23700Y13350
X23700Y14550
X23700Y15100
X23300Y15100
X22900Y15100
X22500Y15100
X22500Y14550
X18500Y9100
X18100Y9100
X17700Y9100
X17300Y9100
X17300Y9650
X18500Y9650
X18500Y10850
X18500Y11400
X18100Y11400
X17700Y11400
X17300Y11400
X17300Y10850
X21100Y12800
X20700Y12800
X20300Y12800
X19900Y12800
X19900Y13350
X21100Y13350
X21100Y14550
X21100Y15100
X20700Y15100
X20300Y15100
X19900Y15100
X19900Y14550
X18500Y12800
X18100Y12800
X17700Y12800
X17300Y12800
X17300Y13350
X18500Y13350
X18500Y14550
X18500Y15100
X18100Y15100
X17700Y15100
X17300Y15100
X17300Y14550
X15900Y9100
X15500Y9100
X15100Y9100
X14700Y9100
X14700Y9650
X15900Y9650
X15900Y10850
X15900Y11400
X15500Y11400
X15100Y11400
X14700Y11400
X14700Y10850
X15900Y12800
X15500Y12800
X15100Y12800
X14700Y12800
X14700Y13350
X15900Y13350
X15900Y14550
X15900Y15100
X15500Y15100
X15100Y15100
X14700Y15100
X14700Y14550
X13300Y16500
X12900Y16500
X12500Y16500
X12100Y16500
X12100Y17050
X13300Y17050
X13300Y18250
X13300Y18800
X12900Y18800
X12500Y18800
X12100Y18800
X12100Y18250
X10700Y16500
X10300Y16500
X9900Y16500
X9500Y16500
X9500Y17050
X10700Y17050
X10700Y18250
X10700Y18800
X10300Y18800
X9900Y18800
X9500Y18800
X9500Y18250
X13300Y20200
X12900Y20200
X12500Y20200
X12100Y20200
X12100Y20750
X13300Y20750
X13300Y21950
X13300Y22500
X12900Y22500
X12500Y22500
X12100Y22500
X12100Y21950
X8100Y16500
X7700Y16500
X7300Y16500
X6900Y16500
X6900Y17050
X8100Y17050
X8100Y18250
X8100Y18800
X7700Y18800
X7300Y18800
X6900Y18800
X6900Y18250
X10700Y20200
X10300Y20200
X9900Y20200
X9500Y20200
X9500Y20750
X10700Y20750
X10700Y21950
X10700Y22500
X10300Y22500
X9900Y22500
X9500Y22500
X9500Y21950
X5500Y16500
X5100Y16500
X4700Y16500
X4300Y16500
X4300Y17050
X5500Y17050
X5500Y18250
X5500Y18800
X5100Y18800
X4700Y18800
X4300Y18800
X4300Y18250
X8100Y20200
X7700Y20200
X7300Y20200
X6900Y20200
X6900Y20750
X8100Y20750
X8100Y21950
X8100Y22500
X7700Y22500
X7300Y22500
X6900Y22500
X6900Y21950
X5500Y20200
X5100Y20200
X4700Y20200
X4300Y20200
X4300Y20750
X5500Y20750
X5500Y21950
X5500Y22500
X5100Y22500
X4700Y22500
X4300Y22500
X4300Y21950
X2900Y16500
X2500Y16500
X2100Y16500
X1700Y16500
X1700Y17050
X2900Y17050
X2900Y18250
X2900Y18800
X2500Y18800
X2100Y18800
X1700Y18800
X1700Y18250
X2900Y20200
X2500Y20200
X2100Y20200
X1700Y20200
X1700Y20750
X2900Y20750
X2900Y21950
X2900Y22500
X2500Y22500
X2100Y22500
X1700Y22500
X1700Y21950
X26300Y16500
X25900Y16500
X25500Y16500
X25100Y16500
X25100Y17050
X26300Y17050
X26300Y18250
X26300Y18800
X25900Y18800
X25500Y18800
X25100Y18800
X25100Y18250
X23700Y16500
X23300Y16500
X22900Y16500
X22500Y16500
X22500Y17050
X23700Y17050
X23700Y18250
X23700Y18800
X23300Y18800
X22900Y18800
X22500Y18800
X22500Y18250
X26300Y20200
X25900Y20200
X25500Y20200
X25100Y20200
X25100Y20750
X26300Y20750
X26300Y21950
X26300Y22500
X25900Y22500
X25500Y22500
X25100Y22500
X25100Y21950
X21100Y16500
X20700Y16500
X20300Y16500
X19900Y16500
X19900Y17050
X21100Y17050
X21100Y18250
X21100Y18800
X20700Y18800
X20300Y18800
X19900Y18800
X19900Y18250
X23700Y20200
X23300Y20200
X22900Y20200
X22500Y20200
X22500Y20750
X23700Y20750
X23700Y21950
X23700Y22500
X23300Y22500
X22900Y22500
X22500Y22500
X22500Y21950
X18500Y16500
X18100Y16500
X17700Y16500
X17300Y16500
X17300Y17050
X18500Y17050
X18500Y18250
X18500Y18800
X18100Y18800
X17700Y18800
X17300Y18800
X17300Y18250
X21100Y20200
X20700Y20200
X20300Y20200
X19900Y20200
X19900Y20750
X21100Y20750
X21100Y21950
X21100Y22500
X20700Y22500
X20300Y22500
X19900Y22500
X19900Y21950
X18500Y20200
X18100Y20200
X17700Y20200
X17300Y20200
X17300Y20750
X18500Y20750
X18500Y21950
X18500Y22500
X18100Y22500
X17700Y22500
X17300Y22500
X17300Y21950
X15900Y16500
X15500Y16500
X15100Y16500
X14700Y16500
X14700Y17050
X15900Y17050
X15900Y18250
X15900Y18800
X15500Y18800
X15100Y18800
X14700Y18800
X14700Y18250
X15900Y20200
X15500Y20200
X15100Y20200
X14700Y20200
X14700Y20750
X15900Y20750
X15900Y21950
X15900Y22500
X15500Y22500
X15100Y22500
X14700Y22500
X14700Y21950
X13300Y23900
X12900Y23900
X12500Y23900
X12100Y23900
X12100Y24450
X13300Y24450
X13300Y25650
X13300Y26200
X12900Y26200
X12500Y26200
X12100Y26200
X12100Y25650
X10700Y23900
X10300Y23900
X9900Y23900
X9500Y23900
X9500Y24450
X10700Y24450
X10700Y25650
X10700Y26200
X10300Y26200
X9900Y26200
X9500Y26200
X9500Y25650
X13300Y27600
X12900Y27600
X12500Y27600
X12100Y27600
X12100Y28150
X13300Y28150
X13300Y29350
X13300Y29900
X12900Y29900
X12500Y29900
X12100Y29900
X12100Y29350
X8100Y23900
X7700Y23900
X7300Y23900
X6900Y23900
X6900Y24450
X8100Y24450
X8100Y25650
X8100Y26200
X7700Y26200
X7300Y26200
X6900Y26200
X6900Y25650
X10700Y27600
X10300Y27600
X9900Y27600
X9500Y27600
X9500Y28150
X10700Y28150
X10700Y29350
X10700Y29900
X10300Y29900
X9900Y29900
X9500Y29900
X9500Y29350
X5500Y23900
X5100Y23900
X4700Y23900
X4300Y23900
X4300Y24450
X5500Y24450
X5500Y25650
X5500Y26200
X5100Y26200
X4700Y26200
X4300Y26200
X4300Y25650
X8100Y27600
X7700Y27600
X7300Y27600
X6900Y27600
X6900Y28150
X8100Y28150
X8100Y29350
X8100Y29900
X7700Y29900
X7300Y29900
X6900Y29900
X6900Y29350
X5500Y27600
X5100Y27600
X4700Y27600
X4300Y27600
X4300Y28150
X5500Y28150
X5500Y29350
X5500Y29900
X5100Y29900
X4700Y29900
X4300Y29900
X4300Y29350
X2900Y23900
X2500Y23900
X2100Y23900
X1700Y23900
X1700Y24450
X2900Y24450
X2900Y25650
X2900Y26200
X2500Y26200
X2100Y26200
X1700Y26200
X1700Y25650
X2900Y27600
X2500Y27600
X2100Y27600
X1700Y27600
X1700Y28150
X2900Y28150
X2900Y29350
X2900Y29900
X2500Y29900
X2100Y29900
X1700Y29900
X1700Y29350
X26300Y23900
X25900Y23900
X25500Y23900
X25100Y23900
X25100Y24450
X26300Y24450
X26300Y25650
X26300Y26200
X25900Y26200
X25500Y26200
X25100Y26200
X25100Y25650
X23700Y23900
X23300Y23900
X22900Y23900
X22500Y23900
X22500Y24450
X23700Y24450
X23700Y25650
X23700Y26200
X23300Y26200
X22900Y26200
X22500Y26200
X22500Y25650
X26300Y27600
X25900Y27600
X25500Y27600
X25100Y27600
X25100Y28150
X26300Y28150
X26300Y29350
X26300Y29900
X25900Y29900
X25500Y29900
X25100Y29900
X25100Y29350
X21100Y23900
X20700Y23900
X20300Y23900
X19900Y23900
X19900Y24450
X21100Y24450
X21100Y25650
X21100Y26200
X20700Y26200
X20300Y26200
X19900Y26200
X19900Y25650
X23700Y27600
X23300Y27600
X22900Y27600
X22500Y27600
X22500Y28150
X23700Y28150
X23700Y29350
X23700Y29900
X23300Y29900
X22900Y29900
X22500Y29900
X22500Y29350
X18500Y23900
X18100Y23900
X17700Y23900
X17300Y23900
X17300Y24450
X18500Y24450
X18500Y25650
X18500Y26200
X18100Y26200
X17700Y26200
X17300Y26200
X17300Y25650
X21100Y27600
X20700Y27600
X20300Y27600
X19900Y27600
X19900Y28150
X21100Y28150
X21100Y29350
X21100Y29900
X20700Y29900
X20300Y29900
X19900Y29900
X19900Y29350
X18500Y27600
X18100Y27600
X17700Y27600
X17300Y27600
X17300Y28150
X18500Y28150
X18500Y29350
X18500Y29900
X18100Y29900
X17700Y29900
X17300Y29900
X17300Y29350
X15900Y23900
X15500Y23900
X15100Y23900
X14700Y23900
X14700Y24450
X15900Y24450
X15900Y25650
X15900Y26200
X15500Y26200
X15100Y26200
X14700Y26200
X14700Y25650
X15900Y27600
X15500Y27600
X15100Y27600
X14700Y27600
X14700Y28150
X15900Y28150
X15900Y29350
X15900Y29900
X15500Y29900
X15100Y29900
X14700Y29900
X14700Y29350
X13300Y31300
X12900Y31300
X12500Y31300
X12100Y31300
X12100Y31850
X13300Y31850
X13300Y33050
X13300Y33600
X12900Y33600
X12500Y33600
X12100Y33600
X12100Y33050
X10700Y31300
X10300Y31300
X9900Y31300
X9500Y31300
X9500Y31850
X10700Y31850
X10700Y33050
X10700Y33600
X10300Y33600
X9900Y33600
X9500Y33600
X9500Y33050
X13300Y35000
X12900Y35000
X12500Y35000
X12100Y35000
X12100Y35550
X13300Y35550
X13300Y36750
X13300Y37300
X12900Y37300
X12500Y37300
X12100Y37300
X12100Y36750
X8100Y31300
X7700Y31300
X7300Y31300
X6900Y31300
X6900Y31850
X8100Y31850
X8100Y33050
X8100Y33600
X7700Y33600
X7300Y33600
X6900Y33600
X6900Y33050
X10700Y35000
X10300Y35000
X9900Y35000
X9500Y35000
X9500Y35550
X10700Y35550
X10700Y36750
X10700Y37300
X10300Y37300
X9900Y37300
X9500Y37300
X9500Y36750
X5500Y31300
X5100Y31300
X4700Y31300
X4300Y31300
X4300Y31850
X5500Y31850
X5500Y33050
X5500Y33600
X5100Y33600
X4700Y33600
X4300Y33600
X4300Y33050
X8100Y35000
X7700Y35000
X7300Y35000
X6900Y35000
X6900Y35550
X8100Y35550
X8100Y36750
X8100Y37300
X7700Y37300
X7300Y37300
X6900Y37300
X6900Y36750
X5500Y35000
X5100Y35000
X4700Y35000
X4300Y35000
X4300Y35550
X5500Y35550
X5500Y36750
X5500Y37300
X5100Y37300
X4700Y37300
X4300Y37300
X4300Y36750
X2900Y31300
X2500Y31300
X2100Y31300
X1700Y31300
X1700Y31850
X2900Y31850
X2900Y33050
X2900Y33600
X2500Y33600
X2100Y33600
X1700Y33600
X1700Y33050
X2900Y35000
X2500Y35000
X2100Y35000
X1700Y35000
X1700Y35550
X2900Y35550
X2900Y36750
X2900Y37300
X2500Y37300
X2100Y37300
X1700Y37300
X1700Y36750
X26300Y31300
X25900Y31300
X25500Y31300
X25100Y31300
X25100Y31850
X26300Y31850
X26300Y33050
X26300Y33600
X25900Y33600
X25500Y33600
X25100Y33600
X25100Y33050
X23700Y31300
X23300Y31300
X22900Y31300
X22500Y31300
X22500Y31850
X23700Y31850
X23700Y33050
X23700Y33600
X23300Y33600
X22900Y33600
X22500Y33600
X22500Y33050
X26300Y35000
X25900Y35000
X25500Y35000
X25100Y35000
X25100Y35550
X26300Y35550
X26300Y36750
X26300Y37300
X25900Y37300
X25500Y37300
X25100Y37300
X25100Y36750
X21100Y31300
X20700Y31300
X20300Y31300
X19900Y31300
X19900Y31850
X21100Y31850
X21100Y33050
X21100Y33600
X20700Y33600
X20300Y33600
X19900Y33600
X19900Y33050
X23700Y35000
X23300Y35000
X22900Y35000
X22500Y35000
X22500Y35550
X23700Y35550
X23700Y36750
X23700Y37300
X23300Y37300
X22900Y37300
X22500Y37300
X22500Y36750
X18500Y31300
X18100Y31300
X17700Y31300
X17300Y31300
X17300Y31850
X18500Y31850
X18500Y33050
X18500Y33600
X18100Y33600
X17700Y33600
X17300Y33600
X17300Y33050
X21100Y35000
X20700Y35000
X20300Y35000
X19900Y35000
X19900Y35550
X21100Y35550
X21100Y36750
X21100Y37300
X20700Y37300
X20300Y37300
X19900Y37300
X19900Y36750
X18500Y35000
X18100Y35000
X17700Y35000
X17300Y35000
X17300Y35550
X18500Y35550
X18500Y36750
X18500Y37300
X18100Y37300
X17700Y37300
X17300Y37300
X17300Y36750
X15900Y31300
X15500Y31300
X15100Y31300
X14700Y31300
X14700Y31850
X15900Y31850
X15900Y33050
X15900Y33600
X15500Y33600
X15100Y33600
X14700Y33600
X14700Y33050
X15900Y35000
X15500Y35000
X15100Y35000
X14700Y35000
X14700Y35550
X15900Y35550
X15900Y36750
X15900Y37300
X15500Y37300
X15100Y37300
X14700Y37300
X14700Y36750
M30
