G75*
G70*
%OFA0B0*%
%FSLAX25Y25*%
%IPPOS*%
%LPD*%
%AMOC8*
5,1,8,0,0,1.08239X$1,22.5*
%
%ADD11C,0.01000*%
%ADD17C,0.03570*%
%ADD18R,0.07090X0.06300*%
X0011000Y0011000D02*
G75*
%LPD*%
X0139000Y0011000D02*
G75*
%LPD*%
D18*
X0127000Y0022480D03*
X0127000Y0033510D03*
D11*
X0134500Y0015500D02*
X0119500Y0015500D01*
X0119500Y0025000D01*
X0134500Y0025000D01*
X0134500Y0015500D01*
X0134070Y0015500D02*
X0134070Y0025000D01*
X0133090Y0025000D02*
X0133090Y0015500D01*
X0132100Y0015500D02*
X0132100Y0025000D01*
X0131120Y0025000D02*
X0131120Y0015500D01*
X0130130Y0015500D02*
X0130130Y0025000D01*
X0129150Y0025000D02*
X0129150Y0015500D01*
X0128160Y0015500D02*
X0128160Y0025000D01*
X0127180Y0025000D02*
X0127180Y0015500D01*
X0126190Y0015500D02*
X0126190Y0025000D01*
X0125210Y0025000D02*
X0125210Y0015500D01*
X0124220Y0015500D02*
X0124220Y0025000D01*
X0123240Y0025000D02*
X0123240Y0015500D01*
X0122250Y0015500D02*
X0122250Y0025000D01*
X0121270Y0025000D02*
X0121270Y0015500D01*
X0120280Y0015500D02*
X0120280Y0025000D01*
X0120280Y0032000D02*
X0120280Y0041500D01*
X0119500Y0041500D02*
X0134500Y0041500D01*
X0134500Y0032000D01*
X0119500Y0032000D01*
X0119500Y0041500D01*
X0121270Y0041500D02*
X0121270Y0032000D01*
X0122250Y0032000D02*
X0122250Y0041500D01*
X0123240Y0041500D02*
X0123240Y0032000D01*
X0124220Y0032000D02*
X0124220Y0041500D01*
X0125210Y0041500D02*
X0125210Y0032000D01*
X0126190Y0032000D02*
X0126190Y0041500D01*
X0127180Y0041500D02*
X0127180Y0032000D01*
X0128160Y0032000D02*
X0128160Y0041500D01*
X0129150Y0041500D02*
X0129150Y0032000D01*
X0130130Y0032000D02*
X0130130Y0041500D01*
X0131120Y0041500D02*
X0131120Y0032000D01*
X0132100Y0032000D02*
X0132100Y0041500D01*
X0133090Y0041500D02*
X0133090Y0032000D01*
X0134070Y0032000D02*
X0134070Y0041500D01*
D17*
X0133000Y0040000D03*
X0129000Y0040000D03*
X0125000Y0040000D03*
X0121000Y0040000D03*
X0121000Y0034500D03*
X0133000Y0034500D03*
X0133000Y0022500D03*
X0133000Y0017000D03*
X0129000Y0017000D03*
X0125000Y0017000D03*
X0121000Y0017000D03*
X0121000Y0022500D03*
X0113000Y0011000D02*
G75*
%LPD*%
D18*
X0101000Y0022480D03*
X0101000Y0033510D03*
D11*
X0108500Y0015500D02*
X0093500Y0015500D01*
X0093500Y0025000D01*
X0108500Y0025000D01*
X0108500Y0015500D01*
X0108070Y0015500D02*
X0108070Y0025000D01*
X0107090Y0025000D02*
X0107090Y0015500D01*
X0106100Y0015500D02*
X0106100Y0025000D01*
X0105120Y0025000D02*
X0105120Y0015500D01*
X0104130Y0015500D02*
X0104130Y0025000D01*
X0103150Y0025000D02*
X0103150Y0015500D01*
X0102160Y0015500D02*
X0102160Y0025000D01*
X0101180Y0025000D02*
X0101180Y0015500D01*
X0100190Y0015500D02*
X0100190Y0025000D01*
X0099210Y0025000D02*
X0099210Y0015500D01*
X0098220Y0015500D02*
X0098220Y0025000D01*
X0097240Y0025000D02*
X0097240Y0015500D01*
X0096250Y0015500D02*
X0096250Y0025000D01*
X0095270Y0025000D02*
X0095270Y0015500D01*
X0094280Y0015500D02*
X0094280Y0025000D01*
X0094280Y0032000D02*
X0094280Y0041500D01*
X0093500Y0041500D02*
X0108500Y0041500D01*
X0108500Y0032000D01*
X0093500Y0032000D01*
X0093500Y0041500D01*
X0095270Y0041500D02*
X0095270Y0032000D01*
X0096250Y0032000D02*
X0096250Y0041500D01*
X0097240Y0041500D02*
X0097240Y0032000D01*
X0098220Y0032000D02*
X0098220Y0041500D01*
X0099210Y0041500D02*
X0099210Y0032000D01*
X0100190Y0032000D02*
X0100190Y0041500D01*
X0101180Y0041500D02*
X0101180Y0032000D01*
X0102160Y0032000D02*
X0102160Y0041500D01*
X0103150Y0041500D02*
X0103150Y0032000D01*
X0104130Y0032000D02*
X0104130Y0041500D01*
X0105120Y0041500D02*
X0105120Y0032000D01*
X0106100Y0032000D02*
X0106100Y0041500D01*
X0107090Y0041500D02*
X0107090Y0032000D01*
X0108070Y0032000D02*
X0108070Y0041500D01*
D17*
X0107000Y0040000D03*
X0103000Y0040000D03*
X0099000Y0040000D03*
X0095000Y0040000D03*
X0095000Y0034500D03*
X0107000Y0034500D03*
X0107000Y0022500D03*
X0107000Y0017000D03*
X0103000Y0017000D03*
X0099000Y0017000D03*
X0095000Y0017000D03*
X0095000Y0022500D03*
X0139000Y0048000D02*
G75*
%LPD*%
D18*
X0127000Y0059480D03*
X0127000Y0070510D03*
D11*
X0134500Y0052500D02*
X0119500Y0052500D01*
X0119500Y0062000D01*
X0134500Y0062000D01*
X0134500Y0052500D01*
X0134070Y0052500D02*
X0134070Y0062000D01*
X0133090Y0062000D02*
X0133090Y0052500D01*
X0132100Y0052500D02*
X0132100Y0062000D01*
X0131120Y0062000D02*
X0131120Y0052500D01*
X0130130Y0052500D02*
X0130130Y0062000D01*
X0129150Y0062000D02*
X0129150Y0052500D01*
X0128160Y0052500D02*
X0128160Y0062000D01*
X0127180Y0062000D02*
X0127180Y0052500D01*
X0126190Y0052500D02*
X0126190Y0062000D01*
X0125210Y0062000D02*
X0125210Y0052500D01*
X0124220Y0052500D02*
X0124220Y0062000D01*
X0123240Y0062000D02*
X0123240Y0052500D01*
X0122250Y0052500D02*
X0122250Y0062000D01*
X0121270Y0062000D02*
X0121270Y0052500D01*
X0120280Y0052500D02*
X0120280Y0062000D01*
X0120280Y0069000D02*
X0120280Y0078500D01*
X0119500Y0078500D02*
X0134500Y0078500D01*
X0134500Y0069000D01*
X0119500Y0069000D01*
X0119500Y0078500D01*
X0121270Y0078500D02*
X0121270Y0069000D01*
X0122250Y0069000D02*
X0122250Y0078500D01*
X0123240Y0078500D02*
X0123240Y0069000D01*
X0124220Y0069000D02*
X0124220Y0078500D01*
X0125210Y0078500D02*
X0125210Y0069000D01*
X0126190Y0069000D02*
X0126190Y0078500D01*
X0127180Y0078500D02*
X0127180Y0069000D01*
X0128160Y0069000D02*
X0128160Y0078500D01*
X0129150Y0078500D02*
X0129150Y0069000D01*
X0130130Y0069000D02*
X0130130Y0078500D01*
X0131120Y0078500D02*
X0131120Y0069000D01*
X0132100Y0069000D02*
X0132100Y0078500D01*
X0133090Y0078500D02*
X0133090Y0069000D01*
X0134070Y0069000D02*
X0134070Y0078500D01*
D17*
X0133000Y0077000D03*
X0129000Y0077000D03*
X0125000Y0077000D03*
X0121000Y0077000D03*
X0121000Y0071500D03*
X0133000Y0071500D03*
X0133000Y0059500D03*
X0133000Y0054000D03*
X0129000Y0054000D03*
X0125000Y0054000D03*
X0121000Y0054000D03*
X0121000Y0059500D03*
X0087000Y0011000D02*
G75*
%LPD*%
D18*
X0075000Y0022480D03*
X0075000Y0033510D03*
D11*
X0082500Y0015500D02*
X0067500Y0015500D01*
X0067500Y0025000D01*
X0082500Y0025000D01*
X0082500Y0015500D01*
X0082070Y0015500D02*
X0082070Y0025000D01*
X0081090Y0025000D02*
X0081090Y0015500D01*
X0080100Y0015500D02*
X0080100Y0025000D01*
X0079120Y0025000D02*
X0079120Y0015500D01*
X0078130Y0015500D02*
X0078130Y0025000D01*
X0077150Y0025000D02*
X0077150Y0015500D01*
X0076160Y0015500D02*
X0076160Y0025000D01*
X0075180Y0025000D02*
X0075180Y0015500D01*
X0074190Y0015500D02*
X0074190Y0025000D01*
X0073210Y0025000D02*
X0073210Y0015500D01*
X0072220Y0015500D02*
X0072220Y0025000D01*
X0071240Y0025000D02*
X0071240Y0015500D01*
X0070250Y0015500D02*
X0070250Y0025000D01*
X0069270Y0025000D02*
X0069270Y0015500D01*
X0068280Y0015500D02*
X0068280Y0025000D01*
X0068280Y0032000D02*
X0068280Y0041500D01*
X0067500Y0041500D02*
X0082500Y0041500D01*
X0082500Y0032000D01*
X0067500Y0032000D01*
X0067500Y0041500D01*
X0069270Y0041500D02*
X0069270Y0032000D01*
X0070250Y0032000D02*
X0070250Y0041500D01*
X0071240Y0041500D02*
X0071240Y0032000D01*
X0072220Y0032000D02*
X0072220Y0041500D01*
X0073210Y0041500D02*
X0073210Y0032000D01*
X0074190Y0032000D02*
X0074190Y0041500D01*
X0075180Y0041500D02*
X0075180Y0032000D01*
X0076160Y0032000D02*
X0076160Y0041500D01*
X0077150Y0041500D02*
X0077150Y0032000D01*
X0078130Y0032000D02*
X0078130Y0041500D01*
X0079120Y0041500D02*
X0079120Y0032000D01*
X0080100Y0032000D02*
X0080100Y0041500D01*
X0081090Y0041500D02*
X0081090Y0032000D01*
X0082070Y0032000D02*
X0082070Y0041500D01*
D17*
X0081000Y0040000D03*
X0077000Y0040000D03*
X0073000Y0040000D03*
X0069000Y0040000D03*
X0069000Y0034500D03*
X0081000Y0034500D03*
X0081000Y0022500D03*
X0081000Y0017000D03*
X0077000Y0017000D03*
X0073000Y0017000D03*
X0069000Y0017000D03*
X0069000Y0022500D03*
X0113000Y0048000D02*
G75*
%LPD*%
D18*
X0101000Y0059480D03*
X0101000Y0070510D03*
D11*
X0108500Y0052500D02*
X0093500Y0052500D01*
X0093500Y0062000D01*
X0108500Y0062000D01*
X0108500Y0052500D01*
X0108070Y0052500D02*
X0108070Y0062000D01*
X0107090Y0062000D02*
X0107090Y0052500D01*
X0106100Y0052500D02*
X0106100Y0062000D01*
X0105120Y0062000D02*
X0105120Y0052500D01*
X0104130Y0052500D02*
X0104130Y0062000D01*
X0103150Y0062000D02*
X0103150Y0052500D01*
X0102160Y0052500D02*
X0102160Y0062000D01*
X0101180Y0062000D02*
X0101180Y0052500D01*
X0100190Y0052500D02*
X0100190Y0062000D01*
X0099210Y0062000D02*
X0099210Y0052500D01*
X0098220Y0052500D02*
X0098220Y0062000D01*
X0097240Y0062000D02*
X0097240Y0052500D01*
X0096250Y0052500D02*
X0096250Y0062000D01*
X0095270Y0062000D02*
X0095270Y0052500D01*
X0094280Y0052500D02*
X0094280Y0062000D01*
X0094280Y0069000D02*
X0094280Y0078500D01*
X0093500Y0078500D02*
X0108500Y0078500D01*
X0108500Y0069000D01*
X0093500Y0069000D01*
X0093500Y0078500D01*
X0095270Y0078500D02*
X0095270Y0069000D01*
X0096250Y0069000D02*
X0096250Y0078500D01*
X0097240Y0078500D02*
X0097240Y0069000D01*
X0098220Y0069000D02*
X0098220Y0078500D01*
X0099210Y0078500D02*
X0099210Y0069000D01*
X0100190Y0069000D02*
X0100190Y0078500D01*
X0101180Y0078500D02*
X0101180Y0069000D01*
X0102160Y0069000D02*
X0102160Y0078500D01*
X0103150Y0078500D02*
X0103150Y0069000D01*
X0104130Y0069000D02*
X0104130Y0078500D01*
X0105120Y0078500D02*
X0105120Y0069000D01*
X0106100Y0069000D02*
X0106100Y0078500D01*
X0107090Y0078500D02*
X0107090Y0069000D01*
X0108070Y0069000D02*
X0108070Y0078500D01*
D17*
X0107000Y0077000D03*
X0103000Y0077000D03*
X0099000Y0077000D03*
X0095000Y0077000D03*
X0095000Y0071500D03*
X0107000Y0071500D03*
X0107000Y0059500D03*
X0107000Y0054000D03*
X0103000Y0054000D03*
X0099000Y0054000D03*
X0095000Y0054000D03*
X0095000Y0059500D03*
X0061000Y0011000D02*
G75*
%LPD*%
D18*
X0049000Y0022480D03*
X0049000Y0033510D03*
D11*
X0056500Y0015500D02*
X0041500Y0015500D01*
X0041500Y0025000D01*
X0056500Y0025000D01*
X0056500Y0015500D01*
X0056070Y0015500D02*
X0056070Y0025000D01*
X0055090Y0025000D02*
X0055090Y0015500D01*
X0054100Y0015500D02*
X0054100Y0025000D01*
X0053120Y0025000D02*
X0053120Y0015500D01*
X0052130Y0015500D02*
X0052130Y0025000D01*
X0051150Y0025000D02*
X0051150Y0015500D01*
X0050160Y0015500D02*
X0050160Y0025000D01*
X0049180Y0025000D02*
X0049180Y0015500D01*
X0048190Y0015500D02*
X0048190Y0025000D01*
X0047210Y0025000D02*
X0047210Y0015500D01*
X0046220Y0015500D02*
X0046220Y0025000D01*
X0045240Y0025000D02*
X0045240Y0015500D01*
X0044250Y0015500D02*
X0044250Y0025000D01*
X0043270Y0025000D02*
X0043270Y0015500D01*
X0042280Y0015500D02*
X0042280Y0025000D01*
X0042280Y0032000D02*
X0042280Y0041500D01*
X0041500Y0041500D02*
X0056500Y0041500D01*
X0056500Y0032000D01*
X0041500Y0032000D01*
X0041500Y0041500D01*
X0043270Y0041500D02*
X0043270Y0032000D01*
X0044250Y0032000D02*
X0044250Y0041500D01*
X0045240Y0041500D02*
X0045240Y0032000D01*
X0046220Y0032000D02*
X0046220Y0041500D01*
X0047210Y0041500D02*
X0047210Y0032000D01*
X0048190Y0032000D02*
X0048190Y0041500D01*
X0049180Y0041500D02*
X0049180Y0032000D01*
X0050160Y0032000D02*
X0050160Y0041500D01*
X0051150Y0041500D02*
X0051150Y0032000D01*
X0052130Y0032000D02*
X0052130Y0041500D01*
X0053120Y0041500D02*
X0053120Y0032000D01*
X0054100Y0032000D02*
X0054100Y0041500D01*
X0055090Y0041500D02*
X0055090Y0032000D01*
X0056070Y0032000D02*
X0056070Y0041500D01*
D17*
X0055000Y0040000D03*
X0051000Y0040000D03*
X0047000Y0040000D03*
X0043000Y0040000D03*
X0043000Y0034500D03*
X0055000Y0034500D03*
X0055000Y0022500D03*
X0055000Y0017000D03*
X0051000Y0017000D03*
X0047000Y0017000D03*
X0043000Y0017000D03*
X0043000Y0022500D03*
X0087000Y0048000D02*
G75*
%LPD*%
D18*
X0075000Y0059480D03*
X0075000Y0070510D03*
D11*
X0082500Y0052500D02*
X0067500Y0052500D01*
X0067500Y0062000D01*
X0082500Y0062000D01*
X0082500Y0052500D01*
X0082070Y0052500D02*
X0082070Y0062000D01*
X0081090Y0062000D02*
X0081090Y0052500D01*
X0080100Y0052500D02*
X0080100Y0062000D01*
X0079120Y0062000D02*
X0079120Y0052500D01*
X0078130Y0052500D02*
X0078130Y0062000D01*
X0077150Y0062000D02*
X0077150Y0052500D01*
X0076160Y0052500D02*
X0076160Y0062000D01*
X0075180Y0062000D02*
X0075180Y0052500D01*
X0074190Y0052500D02*
X0074190Y0062000D01*
X0073210Y0062000D02*
X0073210Y0052500D01*
X0072220Y0052500D02*
X0072220Y0062000D01*
X0071240Y0062000D02*
X0071240Y0052500D01*
X0070250Y0052500D02*
X0070250Y0062000D01*
X0069270Y0062000D02*
X0069270Y0052500D01*
X0068280Y0052500D02*
X0068280Y0062000D01*
X0068280Y0069000D02*
X0068280Y0078500D01*
X0067500Y0078500D02*
X0082500Y0078500D01*
X0082500Y0069000D01*
X0067500Y0069000D01*
X0067500Y0078500D01*
X0069270Y0078500D02*
X0069270Y0069000D01*
X0070250Y0069000D02*
X0070250Y0078500D01*
X0071240Y0078500D02*
X0071240Y0069000D01*
X0072220Y0069000D02*
X0072220Y0078500D01*
X0073210Y0078500D02*
X0073210Y0069000D01*
X0074190Y0069000D02*
X0074190Y0078500D01*
X0075180Y0078500D02*
X0075180Y0069000D01*
X0076160Y0069000D02*
X0076160Y0078500D01*
X0077150Y0078500D02*
X0077150Y0069000D01*
X0078130Y0069000D02*
X0078130Y0078500D01*
X0079120Y0078500D02*
X0079120Y0069000D01*
X0080100Y0069000D02*
X0080100Y0078500D01*
X0081090Y0078500D02*
X0081090Y0069000D01*
X0082070Y0069000D02*
X0082070Y0078500D01*
D17*
X0081000Y0077000D03*
X0077000Y0077000D03*
X0073000Y0077000D03*
X0069000Y0077000D03*
X0069000Y0071500D03*
X0081000Y0071500D03*
X0081000Y0059500D03*
X0081000Y0054000D03*
X0077000Y0054000D03*
X0073000Y0054000D03*
X0069000Y0054000D03*
X0069000Y0059500D03*
X0061000Y0048000D02*
G75*
%LPD*%
D18*
X0049000Y0059480D03*
X0049000Y0070510D03*
D11*
X0056500Y0052500D02*
X0041500Y0052500D01*
X0041500Y0062000D01*
X0056500Y0062000D01*
X0056500Y0052500D01*
X0056070Y0052500D02*
X0056070Y0062000D01*
X0055090Y0062000D02*
X0055090Y0052500D01*
X0054100Y0052500D02*
X0054100Y0062000D01*
X0053120Y0062000D02*
X0053120Y0052500D01*
X0052130Y0052500D02*
X0052130Y0062000D01*
X0051150Y0062000D02*
X0051150Y0052500D01*
X0050160Y0052500D02*
X0050160Y0062000D01*
X0049180Y0062000D02*
X0049180Y0052500D01*
X0048190Y0052500D02*
X0048190Y0062000D01*
X0047210Y0062000D02*
X0047210Y0052500D01*
X0046220Y0052500D02*
X0046220Y0062000D01*
X0045240Y0062000D02*
X0045240Y0052500D01*
X0044250Y0052500D02*
X0044250Y0062000D01*
X0043270Y0062000D02*
X0043270Y0052500D01*
X0042280Y0052500D02*
X0042280Y0062000D01*
X0042280Y0069000D02*
X0042280Y0078500D01*
X0041500Y0078500D02*
X0056500Y0078500D01*
X0056500Y0069000D01*
X0041500Y0069000D01*
X0041500Y0078500D01*
X0043270Y0078500D02*
X0043270Y0069000D01*
X0044250Y0069000D02*
X0044250Y0078500D01*
X0045240Y0078500D02*
X0045240Y0069000D01*
X0046220Y0069000D02*
X0046220Y0078500D01*
X0047210Y0078500D02*
X0047210Y0069000D01*
X0048190Y0069000D02*
X0048190Y0078500D01*
X0049180Y0078500D02*
X0049180Y0069000D01*
X0050160Y0069000D02*
X0050160Y0078500D01*
X0051150Y0078500D02*
X0051150Y0069000D01*
X0052130Y0069000D02*
X0052130Y0078500D01*
X0053120Y0078500D02*
X0053120Y0069000D01*
X0054100Y0069000D02*
X0054100Y0078500D01*
X0055090Y0078500D02*
X0055090Y0069000D01*
X0056070Y0069000D02*
X0056070Y0078500D01*
D17*
X0055000Y0077000D03*
X0051000Y0077000D03*
X0047000Y0077000D03*
X0043000Y0077000D03*
X0043000Y0071500D03*
X0055000Y0071500D03*
X0055000Y0059500D03*
X0055000Y0054000D03*
X0051000Y0054000D03*
X0047000Y0054000D03*
X0043000Y0054000D03*
X0043000Y0059500D03*
X0035000Y0011000D02*
G75*
%LPD*%
D18*
X0023000Y0022480D03*
X0023000Y0033510D03*
D11*
X0030500Y0015500D02*
X0015500Y0015500D01*
X0015500Y0025000D01*
X0030500Y0025000D01*
X0030500Y0015500D01*
X0030070Y0015500D02*
X0030070Y0025000D01*
X0029090Y0025000D02*
X0029090Y0015500D01*
X0028100Y0015500D02*
X0028100Y0025000D01*
X0027120Y0025000D02*
X0027120Y0015500D01*
X0026130Y0015500D02*
X0026130Y0025000D01*
X0025150Y0025000D02*
X0025150Y0015500D01*
X0024160Y0015500D02*
X0024160Y0025000D01*
X0023180Y0025000D02*
X0023180Y0015500D01*
X0022190Y0015500D02*
X0022190Y0025000D01*
X0021210Y0025000D02*
X0021210Y0015500D01*
X0020220Y0015500D02*
X0020220Y0025000D01*
X0019240Y0025000D02*
X0019240Y0015500D01*
X0018250Y0015500D02*
X0018250Y0025000D01*
X0017270Y0025000D02*
X0017270Y0015500D01*
X0016280Y0015500D02*
X0016280Y0025000D01*
X0016280Y0032000D02*
X0016280Y0041500D01*
X0015500Y0041500D02*
X0030500Y0041500D01*
X0030500Y0032000D01*
X0015500Y0032000D01*
X0015500Y0041500D01*
X0017270Y0041500D02*
X0017270Y0032000D01*
X0018250Y0032000D02*
X0018250Y0041500D01*
X0019240Y0041500D02*
X0019240Y0032000D01*
X0020220Y0032000D02*
X0020220Y0041500D01*
X0021210Y0041500D02*
X0021210Y0032000D01*
X0022190Y0032000D02*
X0022190Y0041500D01*
X0023180Y0041500D02*
X0023180Y0032000D01*
X0024160Y0032000D02*
X0024160Y0041500D01*
X0025150Y0041500D02*
X0025150Y0032000D01*
X0026130Y0032000D02*
X0026130Y0041500D01*
X0027120Y0041500D02*
X0027120Y0032000D01*
X0028100Y0032000D02*
X0028100Y0041500D01*
X0029090Y0041500D02*
X0029090Y0032000D01*
X0030070Y0032000D02*
X0030070Y0041500D01*
D17*
X0029000Y0040000D03*
X0025000Y0040000D03*
X0021000Y0040000D03*
X0017000Y0040000D03*
X0017000Y0034500D03*
X0029000Y0034500D03*
X0029000Y0022500D03*
X0029000Y0017000D03*
X0025000Y0017000D03*
X0021000Y0017000D03*
X0017000Y0017000D03*
X0017000Y0022500D03*
X0035000Y0048000D02*
G75*
%LPD*%
D18*
X0023000Y0059480D03*
X0023000Y0070510D03*
D11*
X0030500Y0052500D02*
X0015500Y0052500D01*
X0015500Y0062000D01*
X0030500Y0062000D01*
X0030500Y0052500D01*
X0030070Y0052500D02*
X0030070Y0062000D01*
X0029090Y0062000D02*
X0029090Y0052500D01*
X0028100Y0052500D02*
X0028100Y0062000D01*
X0027120Y0062000D02*
X0027120Y0052500D01*
X0026130Y0052500D02*
X0026130Y0062000D01*
X0025150Y0062000D02*
X0025150Y0052500D01*
X0024160Y0052500D02*
X0024160Y0062000D01*
X0023180Y0062000D02*
X0023180Y0052500D01*
X0022190Y0052500D02*
X0022190Y0062000D01*
X0021210Y0062000D02*
X0021210Y0052500D01*
X0020220Y0052500D02*
X0020220Y0062000D01*
X0019240Y0062000D02*
X0019240Y0052500D01*
X0018250Y0052500D02*
X0018250Y0062000D01*
X0017270Y0062000D02*
X0017270Y0052500D01*
X0016280Y0052500D02*
X0016280Y0062000D01*
X0016280Y0069000D02*
X0016280Y0078500D01*
X0015500Y0078500D02*
X0030500Y0078500D01*
X0030500Y0069000D01*
X0015500Y0069000D01*
X0015500Y0078500D01*
X0017270Y0078500D02*
X0017270Y0069000D01*
X0018250Y0069000D02*
X0018250Y0078500D01*
X0019240Y0078500D02*
X0019240Y0069000D01*
X0020220Y0069000D02*
X0020220Y0078500D01*
X0021210Y0078500D02*
X0021210Y0069000D01*
X0022190Y0069000D02*
X0022190Y0078500D01*
X0023180Y0078500D02*
X0023180Y0069000D01*
X0024160Y0069000D02*
X0024160Y0078500D01*
X0025150Y0078500D02*
X0025150Y0069000D01*
X0026130Y0069000D02*
X0026130Y0078500D01*
X0027120Y0078500D02*
X0027120Y0069000D01*
X0028100Y0069000D02*
X0028100Y0078500D01*
X0029090Y0078500D02*
X0029090Y0069000D01*
X0030070Y0069000D02*
X0030070Y0078500D01*
D17*
X0029000Y0077000D03*
X0025000Y0077000D03*
X0021000Y0077000D03*
X0017000Y0077000D03*
X0017000Y0071500D03*
X0029000Y0071500D03*
X0029000Y0059500D03*
X0029000Y0054000D03*
X0025000Y0054000D03*
X0021000Y0054000D03*
X0017000Y0054000D03*
X0017000Y0059500D03*
X0011000Y0085000D02*
G75*
%LPD*%
X0139000Y0085000D02*
G75*
%LPD*%
D18*
X0127000Y0096480D03*
X0127000Y0107510D03*
D11*
X0134500Y0089500D02*
X0119500Y0089500D01*
X0119500Y0099000D01*
X0134500Y0099000D01*
X0134500Y0089500D01*
X0134070Y0089500D02*
X0134070Y0099000D01*
X0133090Y0099000D02*
X0133090Y0089500D01*
X0132100Y0089500D02*
X0132100Y0099000D01*
X0131120Y0099000D02*
X0131120Y0089500D01*
X0130130Y0089500D02*
X0130130Y0099000D01*
X0129150Y0099000D02*
X0129150Y0089500D01*
X0128160Y0089500D02*
X0128160Y0099000D01*
X0127180Y0099000D02*
X0127180Y0089500D01*
X0126190Y0089500D02*
X0126190Y0099000D01*
X0125210Y0099000D02*
X0125210Y0089500D01*
X0124220Y0089500D02*
X0124220Y0099000D01*
X0123240Y0099000D02*
X0123240Y0089500D01*
X0122250Y0089500D02*
X0122250Y0099000D01*
X0121270Y0099000D02*
X0121270Y0089500D01*
X0120280Y0089500D02*
X0120280Y0099000D01*
X0120280Y0106000D02*
X0120280Y0115500D01*
X0119500Y0115500D02*
X0134500Y0115500D01*
X0134500Y0106000D01*
X0119500Y0106000D01*
X0119500Y0115500D01*
X0121270Y0115500D02*
X0121270Y0106000D01*
X0122250Y0106000D02*
X0122250Y0115500D01*
X0123240Y0115500D02*
X0123240Y0106000D01*
X0124220Y0106000D02*
X0124220Y0115500D01*
X0125210Y0115500D02*
X0125210Y0106000D01*
X0126190Y0106000D02*
X0126190Y0115500D01*
X0127180Y0115500D02*
X0127180Y0106000D01*
X0128160Y0106000D02*
X0128160Y0115500D01*
X0129150Y0115500D02*
X0129150Y0106000D01*
X0130130Y0106000D02*
X0130130Y0115500D01*
X0131120Y0115500D02*
X0131120Y0106000D01*
X0132100Y0106000D02*
X0132100Y0115500D01*
X0133090Y0115500D02*
X0133090Y0106000D01*
X0134070Y0106000D02*
X0134070Y0115500D01*
D17*
X0133000Y0114000D03*
X0129000Y0114000D03*
X0125000Y0114000D03*
X0121000Y0114000D03*
X0121000Y0108500D03*
X0133000Y0108500D03*
X0133000Y0096500D03*
X0133000Y0091000D03*
X0129000Y0091000D03*
X0125000Y0091000D03*
X0121000Y0091000D03*
X0121000Y0096500D03*
X0113000Y0085000D02*
G75*
%LPD*%
D18*
X0101000Y0096480D03*
X0101000Y0107510D03*
D11*
X0108500Y0089500D02*
X0093500Y0089500D01*
X0093500Y0099000D01*
X0108500Y0099000D01*
X0108500Y0089500D01*
X0108070Y0089500D02*
X0108070Y0099000D01*
X0107090Y0099000D02*
X0107090Y0089500D01*
X0106100Y0089500D02*
X0106100Y0099000D01*
X0105120Y0099000D02*
X0105120Y0089500D01*
X0104130Y0089500D02*
X0104130Y0099000D01*
X0103150Y0099000D02*
X0103150Y0089500D01*
X0102160Y0089500D02*
X0102160Y0099000D01*
X0101180Y0099000D02*
X0101180Y0089500D01*
X0100190Y0089500D02*
X0100190Y0099000D01*
X0099210Y0099000D02*
X0099210Y0089500D01*
X0098220Y0089500D02*
X0098220Y0099000D01*
X0097240Y0099000D02*
X0097240Y0089500D01*
X0096250Y0089500D02*
X0096250Y0099000D01*
X0095270Y0099000D02*
X0095270Y0089500D01*
X0094280Y0089500D02*
X0094280Y0099000D01*
X0094280Y0106000D02*
X0094280Y0115500D01*
X0093500Y0115500D02*
X0108500Y0115500D01*
X0108500Y0106000D01*
X0093500Y0106000D01*
X0093500Y0115500D01*
X0095270Y0115500D02*
X0095270Y0106000D01*
X0096250Y0106000D02*
X0096250Y0115500D01*
X0097240Y0115500D02*
X0097240Y0106000D01*
X0098220Y0106000D02*
X0098220Y0115500D01*
X0099210Y0115500D02*
X0099210Y0106000D01*
X0100190Y0106000D02*
X0100190Y0115500D01*
X0101180Y0115500D02*
X0101180Y0106000D01*
X0102160Y0106000D02*
X0102160Y0115500D01*
X0103150Y0115500D02*
X0103150Y0106000D01*
X0104130Y0106000D02*
X0104130Y0115500D01*
X0105120Y0115500D02*
X0105120Y0106000D01*
X0106100Y0106000D02*
X0106100Y0115500D01*
X0107090Y0115500D02*
X0107090Y0106000D01*
X0108070Y0106000D02*
X0108070Y0115500D01*
D17*
X0107000Y0114000D03*
X0103000Y0114000D03*
X0099000Y0114000D03*
X0095000Y0114000D03*
X0095000Y0108500D03*
X0107000Y0108500D03*
X0107000Y0096500D03*
X0107000Y0091000D03*
X0103000Y0091000D03*
X0099000Y0091000D03*
X0095000Y0091000D03*
X0095000Y0096500D03*
X0139000Y0122000D02*
G75*
%LPD*%
D18*
X0127000Y0133480D03*
X0127000Y0144510D03*
D11*
X0134500Y0126500D02*
X0119500Y0126500D01*
X0119500Y0136000D01*
X0134500Y0136000D01*
X0134500Y0126500D01*
X0134070Y0126500D02*
X0134070Y0136000D01*
X0133090Y0136000D02*
X0133090Y0126500D01*
X0132100Y0126500D02*
X0132100Y0136000D01*
X0131120Y0136000D02*
X0131120Y0126500D01*
X0130130Y0126500D02*
X0130130Y0136000D01*
X0129150Y0136000D02*
X0129150Y0126500D01*
X0128160Y0126500D02*
X0128160Y0136000D01*
X0127180Y0136000D02*
X0127180Y0126500D01*
X0126190Y0126500D02*
X0126190Y0136000D01*
X0125210Y0136000D02*
X0125210Y0126500D01*
X0124220Y0126500D02*
X0124220Y0136000D01*
X0123240Y0136000D02*
X0123240Y0126500D01*
X0122250Y0126500D02*
X0122250Y0136000D01*
X0121270Y0136000D02*
X0121270Y0126500D01*
X0120280Y0126500D02*
X0120280Y0136000D01*
X0120280Y0143000D02*
X0120280Y0152500D01*
X0119500Y0152500D02*
X0134500Y0152500D01*
X0134500Y0143000D01*
X0119500Y0143000D01*
X0119500Y0152500D01*
X0121270Y0152500D02*
X0121270Y0143000D01*
X0122250Y0143000D02*
X0122250Y0152500D01*
X0123240Y0152500D02*
X0123240Y0143000D01*
X0124220Y0143000D02*
X0124220Y0152500D01*
X0125210Y0152500D02*
X0125210Y0143000D01*
X0126190Y0143000D02*
X0126190Y0152500D01*
X0127180Y0152500D02*
X0127180Y0143000D01*
X0128160Y0143000D02*
X0128160Y0152500D01*
X0129150Y0152500D02*
X0129150Y0143000D01*
X0130130Y0143000D02*
X0130130Y0152500D01*
X0131120Y0152500D02*
X0131120Y0143000D01*
X0132100Y0143000D02*
X0132100Y0152500D01*
X0133090Y0152500D02*
X0133090Y0143000D01*
X0134070Y0143000D02*
X0134070Y0152500D01*
D17*
X0133000Y0151000D03*
X0129000Y0151000D03*
X0125000Y0151000D03*
X0121000Y0151000D03*
X0121000Y0145500D03*
X0133000Y0145500D03*
X0133000Y0133500D03*
X0133000Y0128000D03*
X0129000Y0128000D03*
X0125000Y0128000D03*
X0121000Y0128000D03*
X0121000Y0133500D03*
X0087000Y0085000D02*
G75*
%LPD*%
D18*
X0075000Y0096480D03*
X0075000Y0107510D03*
D11*
X0082500Y0089500D02*
X0067500Y0089500D01*
X0067500Y0099000D01*
X0082500Y0099000D01*
X0082500Y0089500D01*
X0082070Y0089500D02*
X0082070Y0099000D01*
X0081090Y0099000D02*
X0081090Y0089500D01*
X0080100Y0089500D02*
X0080100Y0099000D01*
X0079120Y0099000D02*
X0079120Y0089500D01*
X0078130Y0089500D02*
X0078130Y0099000D01*
X0077150Y0099000D02*
X0077150Y0089500D01*
X0076160Y0089500D02*
X0076160Y0099000D01*
X0075180Y0099000D02*
X0075180Y0089500D01*
X0074190Y0089500D02*
X0074190Y0099000D01*
X0073210Y0099000D02*
X0073210Y0089500D01*
X0072220Y0089500D02*
X0072220Y0099000D01*
X0071240Y0099000D02*
X0071240Y0089500D01*
X0070250Y0089500D02*
X0070250Y0099000D01*
X0069270Y0099000D02*
X0069270Y0089500D01*
X0068280Y0089500D02*
X0068280Y0099000D01*
X0068280Y0106000D02*
X0068280Y0115500D01*
X0067500Y0115500D02*
X0082500Y0115500D01*
X0082500Y0106000D01*
X0067500Y0106000D01*
X0067500Y0115500D01*
X0069270Y0115500D02*
X0069270Y0106000D01*
X0070250Y0106000D02*
X0070250Y0115500D01*
X0071240Y0115500D02*
X0071240Y0106000D01*
X0072220Y0106000D02*
X0072220Y0115500D01*
X0073210Y0115500D02*
X0073210Y0106000D01*
X0074190Y0106000D02*
X0074190Y0115500D01*
X0075180Y0115500D02*
X0075180Y0106000D01*
X0076160Y0106000D02*
X0076160Y0115500D01*
X0077150Y0115500D02*
X0077150Y0106000D01*
X0078130Y0106000D02*
X0078130Y0115500D01*
X0079120Y0115500D02*
X0079120Y0106000D01*
X0080100Y0106000D02*
X0080100Y0115500D01*
X0081090Y0115500D02*
X0081090Y0106000D01*
X0082070Y0106000D02*
X0082070Y0115500D01*
D17*
X0081000Y0114000D03*
X0077000Y0114000D03*
X0073000Y0114000D03*
X0069000Y0114000D03*
X0069000Y0108500D03*
X0081000Y0108500D03*
X0081000Y0096500D03*
X0081000Y0091000D03*
X0077000Y0091000D03*
X0073000Y0091000D03*
X0069000Y0091000D03*
X0069000Y0096500D03*
X0113000Y0122000D02*
G75*
%LPD*%
D18*
X0101000Y0133480D03*
X0101000Y0144510D03*
D11*
X0108500Y0126500D02*
X0093500Y0126500D01*
X0093500Y0136000D01*
X0108500Y0136000D01*
X0108500Y0126500D01*
X0108070Y0126500D02*
X0108070Y0136000D01*
X0107090Y0136000D02*
X0107090Y0126500D01*
X0106100Y0126500D02*
X0106100Y0136000D01*
X0105120Y0136000D02*
X0105120Y0126500D01*
X0104130Y0126500D02*
X0104130Y0136000D01*
X0103150Y0136000D02*
X0103150Y0126500D01*
X0102160Y0126500D02*
X0102160Y0136000D01*
X0101180Y0136000D02*
X0101180Y0126500D01*
X0100190Y0126500D02*
X0100190Y0136000D01*
X0099210Y0136000D02*
X0099210Y0126500D01*
X0098220Y0126500D02*
X0098220Y0136000D01*
X0097240Y0136000D02*
X0097240Y0126500D01*
X0096250Y0126500D02*
X0096250Y0136000D01*
X0095270Y0136000D02*
X0095270Y0126500D01*
X0094280Y0126500D02*
X0094280Y0136000D01*
X0094280Y0143000D02*
X0094280Y0152500D01*
X0093500Y0152500D02*
X0108500Y0152500D01*
X0108500Y0143000D01*
X0093500Y0143000D01*
X0093500Y0152500D01*
X0095270Y0152500D02*
X0095270Y0143000D01*
X0096250Y0143000D02*
X0096250Y0152500D01*
X0097240Y0152500D02*
X0097240Y0143000D01*
X0098220Y0143000D02*
X0098220Y0152500D01*
X0099210Y0152500D02*
X0099210Y0143000D01*
X0100190Y0143000D02*
X0100190Y0152500D01*
X0101180Y0152500D02*
X0101180Y0143000D01*
X0102160Y0143000D02*
X0102160Y0152500D01*
X0103150Y0152500D02*
X0103150Y0143000D01*
X0104130Y0143000D02*
X0104130Y0152500D01*
X0105120Y0152500D02*
X0105120Y0143000D01*
X0106100Y0143000D02*
X0106100Y0152500D01*
X0107090Y0152500D02*
X0107090Y0143000D01*
X0108070Y0143000D02*
X0108070Y0152500D01*
D17*
X0107000Y0151000D03*
X0103000Y0151000D03*
X0099000Y0151000D03*
X0095000Y0151000D03*
X0095000Y0145500D03*
X0107000Y0145500D03*
X0107000Y0133500D03*
X0107000Y0128000D03*
X0103000Y0128000D03*
X0099000Y0128000D03*
X0095000Y0128000D03*
X0095000Y0133500D03*
X0061000Y0085000D02*
G75*
%LPD*%
D18*
X0049000Y0096480D03*
X0049000Y0107510D03*
D11*
X0056500Y0089500D02*
X0041500Y0089500D01*
X0041500Y0099000D01*
X0056500Y0099000D01*
X0056500Y0089500D01*
X0056070Y0089500D02*
X0056070Y0099000D01*
X0055090Y0099000D02*
X0055090Y0089500D01*
X0054100Y0089500D02*
X0054100Y0099000D01*
X0053120Y0099000D02*
X0053120Y0089500D01*
X0052130Y0089500D02*
X0052130Y0099000D01*
X0051150Y0099000D02*
X0051150Y0089500D01*
X0050160Y0089500D02*
X0050160Y0099000D01*
X0049180Y0099000D02*
X0049180Y0089500D01*
X0048190Y0089500D02*
X0048190Y0099000D01*
X0047210Y0099000D02*
X0047210Y0089500D01*
X0046220Y0089500D02*
X0046220Y0099000D01*
X0045240Y0099000D02*
X0045240Y0089500D01*
X0044250Y0089500D02*
X0044250Y0099000D01*
X0043270Y0099000D02*
X0043270Y0089500D01*
X0042280Y0089500D02*
X0042280Y0099000D01*
X0042280Y0106000D02*
X0042280Y0115500D01*
X0041500Y0115500D02*
X0056500Y0115500D01*
X0056500Y0106000D01*
X0041500Y0106000D01*
X0041500Y0115500D01*
X0043270Y0115500D02*
X0043270Y0106000D01*
X0044250Y0106000D02*
X0044250Y0115500D01*
X0045240Y0115500D02*
X0045240Y0106000D01*
X0046220Y0106000D02*
X0046220Y0115500D01*
X0047210Y0115500D02*
X0047210Y0106000D01*
X0048190Y0106000D02*
X0048190Y0115500D01*
X0049180Y0115500D02*
X0049180Y0106000D01*
X0050160Y0106000D02*
X0050160Y0115500D01*
X0051150Y0115500D02*
X0051150Y0106000D01*
X0052130Y0106000D02*
X0052130Y0115500D01*
X0053120Y0115500D02*
X0053120Y0106000D01*
X0054100Y0106000D02*
X0054100Y0115500D01*
X0055090Y0115500D02*
X0055090Y0106000D01*
X0056070Y0106000D02*
X0056070Y0115500D01*
D17*
X0055000Y0114000D03*
X0051000Y0114000D03*
X0047000Y0114000D03*
X0043000Y0114000D03*
X0043000Y0108500D03*
X0055000Y0108500D03*
X0055000Y0096500D03*
X0055000Y0091000D03*
X0051000Y0091000D03*
X0047000Y0091000D03*
X0043000Y0091000D03*
X0043000Y0096500D03*
X0087000Y0122000D02*
G75*
%LPD*%
D18*
X0075000Y0133480D03*
X0075000Y0144510D03*
D11*
X0082500Y0126500D02*
X0067500Y0126500D01*
X0067500Y0136000D01*
X0082500Y0136000D01*
X0082500Y0126500D01*
X0082070Y0126500D02*
X0082070Y0136000D01*
X0081090Y0136000D02*
X0081090Y0126500D01*
X0080100Y0126500D02*
X0080100Y0136000D01*
X0079120Y0136000D02*
X0079120Y0126500D01*
X0078130Y0126500D02*
X0078130Y0136000D01*
X0077150Y0136000D02*
X0077150Y0126500D01*
X0076160Y0126500D02*
X0076160Y0136000D01*
X0075180Y0136000D02*
X0075180Y0126500D01*
X0074190Y0126500D02*
X0074190Y0136000D01*
X0073210Y0136000D02*
X0073210Y0126500D01*
X0072220Y0126500D02*
X0072220Y0136000D01*
X0071240Y0136000D02*
X0071240Y0126500D01*
X0070250Y0126500D02*
X0070250Y0136000D01*
X0069270Y0136000D02*
X0069270Y0126500D01*
X0068280Y0126500D02*
X0068280Y0136000D01*
X0068280Y0143000D02*
X0068280Y0152500D01*
X0067500Y0152500D02*
X0082500Y0152500D01*
X0082500Y0143000D01*
X0067500Y0143000D01*
X0067500Y0152500D01*
X0069270Y0152500D02*
X0069270Y0143000D01*
X0070250Y0143000D02*
X0070250Y0152500D01*
X0071240Y0152500D02*
X0071240Y0143000D01*
X0072220Y0143000D02*
X0072220Y0152500D01*
X0073210Y0152500D02*
X0073210Y0143000D01*
X0074190Y0143000D02*
X0074190Y0152500D01*
X0075180Y0152500D02*
X0075180Y0143000D01*
X0076160Y0143000D02*
X0076160Y0152500D01*
X0077150Y0152500D02*
X0077150Y0143000D01*
X0078130Y0143000D02*
X0078130Y0152500D01*
X0079120Y0152500D02*
X0079120Y0143000D01*
X0080100Y0143000D02*
X0080100Y0152500D01*
X0081090Y0152500D02*
X0081090Y0143000D01*
X0082070Y0143000D02*
X0082070Y0152500D01*
D17*
X0081000Y0151000D03*
X0077000Y0151000D03*
X0073000Y0151000D03*
X0069000Y0151000D03*
X0069000Y0145500D03*
X0081000Y0145500D03*
X0081000Y0133500D03*
X0081000Y0128000D03*
X0077000Y0128000D03*
X0073000Y0128000D03*
X0069000Y0128000D03*
X0069000Y0133500D03*
X0061000Y0122000D02*
G75*
%LPD*%
D18*
X0049000Y0133480D03*
X0049000Y0144510D03*
D11*
X0056500Y0126500D02*
X0041500Y0126500D01*
X0041500Y0136000D01*
X0056500Y0136000D01*
X0056500Y0126500D01*
X0056070Y0126500D02*
X0056070Y0136000D01*
X0055090Y0136000D02*
X0055090Y0126500D01*
X0054100Y0126500D02*
X0054100Y0136000D01*
X0053120Y0136000D02*
X0053120Y0126500D01*
X0052130Y0126500D02*
X0052130Y0136000D01*
X0051150Y0136000D02*
X0051150Y0126500D01*
X0050160Y0126500D02*
X0050160Y0136000D01*
X0049180Y0136000D02*
X0049180Y0126500D01*
X0048190Y0126500D02*
X0048190Y0136000D01*
X0047210Y0136000D02*
X0047210Y0126500D01*
X0046220Y0126500D02*
X0046220Y0136000D01*
X0045240Y0136000D02*
X0045240Y0126500D01*
X0044250Y0126500D02*
X0044250Y0136000D01*
X0043270Y0136000D02*
X0043270Y0126500D01*
X0042280Y0126500D02*
X0042280Y0136000D01*
X0042280Y0143000D02*
X0042280Y0152500D01*
X0041500Y0152500D02*
X0056500Y0152500D01*
X0056500Y0143000D01*
X0041500Y0143000D01*
X0041500Y0152500D01*
X0043270Y0152500D02*
X0043270Y0143000D01*
X0044250Y0143000D02*
X0044250Y0152500D01*
X0045240Y0152500D02*
X0045240Y0143000D01*
X0046220Y0143000D02*
X0046220Y0152500D01*
X0047210Y0152500D02*
X0047210Y0143000D01*
X0048190Y0143000D02*
X0048190Y0152500D01*
X0049180Y0152500D02*
X0049180Y0143000D01*
X0050160Y0143000D02*
X0050160Y0152500D01*
X0051150Y0152500D02*
X0051150Y0143000D01*
X0052130Y0143000D02*
X0052130Y0152500D01*
X0053120Y0152500D02*
X0053120Y0143000D01*
X0054100Y0143000D02*
X0054100Y0152500D01*
X0055090Y0152500D02*
X0055090Y0143000D01*
X0056070Y0143000D02*
X0056070Y0152500D01*
D17*
X0055000Y0151000D03*
X0051000Y0151000D03*
X0047000Y0151000D03*
X0043000Y0151000D03*
X0043000Y0145500D03*
X0055000Y0145500D03*
X0055000Y0133500D03*
X0055000Y0128000D03*
X0051000Y0128000D03*
X0047000Y0128000D03*
X0043000Y0128000D03*
X0043000Y0133500D03*
X0035000Y0085000D02*
G75*
%LPD*%
D18*
X0023000Y0096480D03*
X0023000Y0107510D03*
D11*
X0030500Y0089500D02*
X0015500Y0089500D01*
X0015500Y0099000D01*
X0030500Y0099000D01*
X0030500Y0089500D01*
X0030070Y0089500D02*
X0030070Y0099000D01*
X0029090Y0099000D02*
X0029090Y0089500D01*
X0028100Y0089500D02*
X0028100Y0099000D01*
X0027120Y0099000D02*
X0027120Y0089500D01*
X0026130Y0089500D02*
X0026130Y0099000D01*
X0025150Y0099000D02*
X0025150Y0089500D01*
X0024160Y0089500D02*
X0024160Y0099000D01*
X0023180Y0099000D02*
X0023180Y0089500D01*
X0022190Y0089500D02*
X0022190Y0099000D01*
X0021210Y0099000D02*
X0021210Y0089500D01*
X0020220Y0089500D02*
X0020220Y0099000D01*
X0019240Y0099000D02*
X0019240Y0089500D01*
X0018250Y0089500D02*
X0018250Y0099000D01*
X0017270Y0099000D02*
X0017270Y0089500D01*
X0016280Y0089500D02*
X0016280Y0099000D01*
X0016280Y0106000D02*
X0016280Y0115500D01*
X0015500Y0115500D02*
X0030500Y0115500D01*
X0030500Y0106000D01*
X0015500Y0106000D01*
X0015500Y0115500D01*
X0017270Y0115500D02*
X0017270Y0106000D01*
X0018250Y0106000D02*
X0018250Y0115500D01*
X0019240Y0115500D02*
X0019240Y0106000D01*
X0020220Y0106000D02*
X0020220Y0115500D01*
X0021210Y0115500D02*
X0021210Y0106000D01*
X0022190Y0106000D02*
X0022190Y0115500D01*
X0023180Y0115500D02*
X0023180Y0106000D01*
X0024160Y0106000D02*
X0024160Y0115500D01*
X0025150Y0115500D02*
X0025150Y0106000D01*
X0026130Y0106000D02*
X0026130Y0115500D01*
X0027120Y0115500D02*
X0027120Y0106000D01*
X0028100Y0106000D02*
X0028100Y0115500D01*
X0029090Y0115500D02*
X0029090Y0106000D01*
X0030070Y0106000D02*
X0030070Y0115500D01*
D17*
X0029000Y0114000D03*
X0025000Y0114000D03*
X0021000Y0114000D03*
X0017000Y0114000D03*
X0017000Y0108500D03*
X0029000Y0108500D03*
X0029000Y0096500D03*
X0029000Y0091000D03*
X0025000Y0091000D03*
X0021000Y0091000D03*
X0017000Y0091000D03*
X0017000Y0096500D03*
X0035000Y0122000D02*
G75*
%LPD*%
D18*
X0023000Y0133480D03*
X0023000Y0144510D03*
D11*
X0030500Y0126500D02*
X0015500Y0126500D01*
X0015500Y0136000D01*
X0030500Y0136000D01*
X0030500Y0126500D01*
X0030070Y0126500D02*
X0030070Y0136000D01*
X0029090Y0136000D02*
X0029090Y0126500D01*
X0028100Y0126500D02*
X0028100Y0136000D01*
X0027120Y0136000D02*
X0027120Y0126500D01*
X0026130Y0126500D02*
X0026130Y0136000D01*
X0025150Y0136000D02*
X0025150Y0126500D01*
X0024160Y0126500D02*
X0024160Y0136000D01*
X0023180Y0136000D02*
X0023180Y0126500D01*
X0022190Y0126500D02*
X0022190Y0136000D01*
X0021210Y0136000D02*
X0021210Y0126500D01*
X0020220Y0126500D02*
X0020220Y0136000D01*
X0019240Y0136000D02*
X0019240Y0126500D01*
X0018250Y0126500D02*
X0018250Y0136000D01*
X0017270Y0136000D02*
X0017270Y0126500D01*
X0016280Y0126500D02*
X0016280Y0136000D01*
X0016280Y0143000D02*
X0016280Y0152500D01*
X0015500Y0152500D02*
X0030500Y0152500D01*
X0030500Y0143000D01*
X0015500Y0143000D01*
X0015500Y0152500D01*
X0017270Y0152500D02*
X0017270Y0143000D01*
X0018250Y0143000D02*
X0018250Y0152500D01*
X0019240Y0152500D02*
X0019240Y0143000D01*
X0020220Y0143000D02*
X0020220Y0152500D01*
X0021210Y0152500D02*
X0021210Y0143000D01*
X0022190Y0143000D02*
X0022190Y0152500D01*
X0023180Y0152500D02*
X0023180Y0143000D01*
X0024160Y0143000D02*
X0024160Y0152500D01*
X0025150Y0152500D02*
X0025150Y0143000D01*
X0026130Y0143000D02*
X0026130Y0152500D01*
X0027120Y0152500D02*
X0027120Y0143000D01*
X0028100Y0143000D02*
X0028100Y0152500D01*
X0029090Y0152500D02*
X0029090Y0143000D01*
X0030070Y0143000D02*
X0030070Y0152500D01*
D17*
X0029000Y0151000D03*
X0025000Y0151000D03*
X0021000Y0151000D03*
X0017000Y0151000D03*
X0017000Y0145500D03*
X0029000Y0145500D03*
X0029000Y0133500D03*
X0029000Y0128000D03*
X0025000Y0128000D03*
X0021000Y0128000D03*
X0017000Y0128000D03*
X0017000Y0133500D03*
X0141000Y0011000D02*
G75*
%LPD*%
X0269000Y0011000D02*
G75*
%LPD*%
D18*
X0257000Y0022480D03*
X0257000Y0033510D03*
D11*
X0264500Y0015500D02*
X0249500Y0015500D01*
X0249500Y0025000D01*
X0264500Y0025000D01*
X0264500Y0015500D01*
X0264070Y0015500D02*
X0264070Y0025000D01*
X0263090Y0025000D02*
X0263090Y0015500D01*
X0262100Y0015500D02*
X0262100Y0025000D01*
X0261120Y0025000D02*
X0261120Y0015500D01*
X0260130Y0015500D02*
X0260130Y0025000D01*
X0259150Y0025000D02*
X0259150Y0015500D01*
X0258160Y0015500D02*
X0258160Y0025000D01*
X0257180Y0025000D02*
X0257180Y0015500D01*
X0256190Y0015500D02*
X0256190Y0025000D01*
X0255210Y0025000D02*
X0255210Y0015500D01*
X0254220Y0015500D02*
X0254220Y0025000D01*
X0253240Y0025000D02*
X0253240Y0015500D01*
X0252250Y0015500D02*
X0252250Y0025000D01*
X0251270Y0025000D02*
X0251270Y0015500D01*
X0250280Y0015500D02*
X0250280Y0025000D01*
X0250280Y0032000D02*
X0250280Y0041500D01*
X0249500Y0041500D02*
X0264500Y0041500D01*
X0264500Y0032000D01*
X0249500Y0032000D01*
X0249500Y0041500D01*
X0251270Y0041500D02*
X0251270Y0032000D01*
X0252250Y0032000D02*
X0252250Y0041500D01*
X0253240Y0041500D02*
X0253240Y0032000D01*
X0254220Y0032000D02*
X0254220Y0041500D01*
X0255210Y0041500D02*
X0255210Y0032000D01*
X0256190Y0032000D02*
X0256190Y0041500D01*
X0257180Y0041500D02*
X0257180Y0032000D01*
X0258160Y0032000D02*
X0258160Y0041500D01*
X0259150Y0041500D02*
X0259150Y0032000D01*
X0260130Y0032000D02*
X0260130Y0041500D01*
X0261120Y0041500D02*
X0261120Y0032000D01*
X0262100Y0032000D02*
X0262100Y0041500D01*
X0263090Y0041500D02*
X0263090Y0032000D01*
X0264070Y0032000D02*
X0264070Y0041500D01*
D17*
X0263000Y0040000D03*
X0259000Y0040000D03*
X0255000Y0040000D03*
X0251000Y0040000D03*
X0251000Y0034500D03*
X0263000Y0034500D03*
X0263000Y0022500D03*
X0263000Y0017000D03*
X0259000Y0017000D03*
X0255000Y0017000D03*
X0251000Y0017000D03*
X0251000Y0022500D03*
X0243000Y0011000D02*
G75*
%LPD*%
D18*
X0231000Y0022480D03*
X0231000Y0033510D03*
D11*
X0238500Y0015500D02*
X0223500Y0015500D01*
X0223500Y0025000D01*
X0238500Y0025000D01*
X0238500Y0015500D01*
X0238070Y0015500D02*
X0238070Y0025000D01*
X0237090Y0025000D02*
X0237090Y0015500D01*
X0236100Y0015500D02*
X0236100Y0025000D01*
X0235120Y0025000D02*
X0235120Y0015500D01*
X0234130Y0015500D02*
X0234130Y0025000D01*
X0233150Y0025000D02*
X0233150Y0015500D01*
X0232160Y0015500D02*
X0232160Y0025000D01*
X0231180Y0025000D02*
X0231180Y0015500D01*
X0230190Y0015500D02*
X0230190Y0025000D01*
X0229210Y0025000D02*
X0229210Y0015500D01*
X0228220Y0015500D02*
X0228220Y0025000D01*
X0227240Y0025000D02*
X0227240Y0015500D01*
X0226250Y0015500D02*
X0226250Y0025000D01*
X0225270Y0025000D02*
X0225270Y0015500D01*
X0224280Y0015500D02*
X0224280Y0025000D01*
X0224280Y0032000D02*
X0224280Y0041500D01*
X0223500Y0041500D02*
X0238500Y0041500D01*
X0238500Y0032000D01*
X0223500Y0032000D01*
X0223500Y0041500D01*
X0225270Y0041500D02*
X0225270Y0032000D01*
X0226250Y0032000D02*
X0226250Y0041500D01*
X0227240Y0041500D02*
X0227240Y0032000D01*
X0228220Y0032000D02*
X0228220Y0041500D01*
X0229210Y0041500D02*
X0229210Y0032000D01*
X0230190Y0032000D02*
X0230190Y0041500D01*
X0231180Y0041500D02*
X0231180Y0032000D01*
X0232160Y0032000D02*
X0232160Y0041500D01*
X0233150Y0041500D02*
X0233150Y0032000D01*
X0234130Y0032000D02*
X0234130Y0041500D01*
X0235120Y0041500D02*
X0235120Y0032000D01*
X0236100Y0032000D02*
X0236100Y0041500D01*
X0237090Y0041500D02*
X0237090Y0032000D01*
X0238070Y0032000D02*
X0238070Y0041500D01*
D17*
X0237000Y0040000D03*
X0233000Y0040000D03*
X0229000Y0040000D03*
X0225000Y0040000D03*
X0225000Y0034500D03*
X0237000Y0034500D03*
X0237000Y0022500D03*
X0237000Y0017000D03*
X0233000Y0017000D03*
X0229000Y0017000D03*
X0225000Y0017000D03*
X0225000Y0022500D03*
X0269000Y0048000D02*
G75*
%LPD*%
D18*
X0257000Y0059480D03*
X0257000Y0070510D03*
D11*
X0264500Y0052500D02*
X0249500Y0052500D01*
X0249500Y0062000D01*
X0264500Y0062000D01*
X0264500Y0052500D01*
X0264070Y0052500D02*
X0264070Y0062000D01*
X0263090Y0062000D02*
X0263090Y0052500D01*
X0262100Y0052500D02*
X0262100Y0062000D01*
X0261120Y0062000D02*
X0261120Y0052500D01*
X0260130Y0052500D02*
X0260130Y0062000D01*
X0259150Y0062000D02*
X0259150Y0052500D01*
X0258160Y0052500D02*
X0258160Y0062000D01*
X0257180Y0062000D02*
X0257180Y0052500D01*
X0256190Y0052500D02*
X0256190Y0062000D01*
X0255210Y0062000D02*
X0255210Y0052500D01*
X0254220Y0052500D02*
X0254220Y0062000D01*
X0253240Y0062000D02*
X0253240Y0052500D01*
X0252250Y0052500D02*
X0252250Y0062000D01*
X0251270Y0062000D02*
X0251270Y0052500D01*
X0250280Y0052500D02*
X0250280Y0062000D01*
X0250280Y0069000D02*
X0250280Y0078500D01*
X0249500Y0078500D02*
X0264500Y0078500D01*
X0264500Y0069000D01*
X0249500Y0069000D01*
X0249500Y0078500D01*
X0251270Y0078500D02*
X0251270Y0069000D01*
X0252250Y0069000D02*
X0252250Y0078500D01*
X0253240Y0078500D02*
X0253240Y0069000D01*
X0254220Y0069000D02*
X0254220Y0078500D01*
X0255210Y0078500D02*
X0255210Y0069000D01*
X0256190Y0069000D02*
X0256190Y0078500D01*
X0257180Y0078500D02*
X0257180Y0069000D01*
X0258160Y0069000D02*
X0258160Y0078500D01*
X0259150Y0078500D02*
X0259150Y0069000D01*
X0260130Y0069000D02*
X0260130Y0078500D01*
X0261120Y0078500D02*
X0261120Y0069000D01*
X0262100Y0069000D02*
X0262100Y0078500D01*
X0263090Y0078500D02*
X0263090Y0069000D01*
X0264070Y0069000D02*
X0264070Y0078500D01*
D17*
X0263000Y0077000D03*
X0259000Y0077000D03*
X0255000Y0077000D03*
X0251000Y0077000D03*
X0251000Y0071500D03*
X0263000Y0071500D03*
X0263000Y0059500D03*
X0263000Y0054000D03*
X0259000Y0054000D03*
X0255000Y0054000D03*
X0251000Y0054000D03*
X0251000Y0059500D03*
X0217000Y0011000D02*
G75*
%LPD*%
D18*
X0205000Y0022480D03*
X0205000Y0033510D03*
D11*
X0212500Y0015500D02*
X0197500Y0015500D01*
X0197500Y0025000D01*
X0212500Y0025000D01*
X0212500Y0015500D01*
X0212070Y0015500D02*
X0212070Y0025000D01*
X0211090Y0025000D02*
X0211090Y0015500D01*
X0210100Y0015500D02*
X0210100Y0025000D01*
X0209120Y0025000D02*
X0209120Y0015500D01*
X0208130Y0015500D02*
X0208130Y0025000D01*
X0207150Y0025000D02*
X0207150Y0015500D01*
X0206160Y0015500D02*
X0206160Y0025000D01*
X0205180Y0025000D02*
X0205180Y0015500D01*
X0204190Y0015500D02*
X0204190Y0025000D01*
X0203210Y0025000D02*
X0203210Y0015500D01*
X0202220Y0015500D02*
X0202220Y0025000D01*
X0201240Y0025000D02*
X0201240Y0015500D01*
X0200250Y0015500D02*
X0200250Y0025000D01*
X0199270Y0025000D02*
X0199270Y0015500D01*
X0198280Y0015500D02*
X0198280Y0025000D01*
X0198280Y0032000D02*
X0198280Y0041500D01*
X0197500Y0041500D02*
X0212500Y0041500D01*
X0212500Y0032000D01*
X0197500Y0032000D01*
X0197500Y0041500D01*
X0199270Y0041500D02*
X0199270Y0032000D01*
X0200250Y0032000D02*
X0200250Y0041500D01*
X0201240Y0041500D02*
X0201240Y0032000D01*
X0202220Y0032000D02*
X0202220Y0041500D01*
X0203210Y0041500D02*
X0203210Y0032000D01*
X0204190Y0032000D02*
X0204190Y0041500D01*
X0205180Y0041500D02*
X0205180Y0032000D01*
X0206160Y0032000D02*
X0206160Y0041500D01*
X0207150Y0041500D02*
X0207150Y0032000D01*
X0208130Y0032000D02*
X0208130Y0041500D01*
X0209120Y0041500D02*
X0209120Y0032000D01*
X0210100Y0032000D02*
X0210100Y0041500D01*
X0211090Y0041500D02*
X0211090Y0032000D01*
X0212070Y0032000D02*
X0212070Y0041500D01*
D17*
X0211000Y0040000D03*
X0207000Y0040000D03*
X0203000Y0040000D03*
X0199000Y0040000D03*
X0199000Y0034500D03*
X0211000Y0034500D03*
X0211000Y0022500D03*
X0211000Y0017000D03*
X0207000Y0017000D03*
X0203000Y0017000D03*
X0199000Y0017000D03*
X0199000Y0022500D03*
X0243000Y0048000D02*
G75*
%LPD*%
D18*
X0231000Y0059480D03*
X0231000Y0070510D03*
D11*
X0238500Y0052500D02*
X0223500Y0052500D01*
X0223500Y0062000D01*
X0238500Y0062000D01*
X0238500Y0052500D01*
X0238070Y0052500D02*
X0238070Y0062000D01*
X0237090Y0062000D02*
X0237090Y0052500D01*
X0236100Y0052500D02*
X0236100Y0062000D01*
X0235120Y0062000D02*
X0235120Y0052500D01*
X0234130Y0052500D02*
X0234130Y0062000D01*
X0233150Y0062000D02*
X0233150Y0052500D01*
X0232160Y0052500D02*
X0232160Y0062000D01*
X0231180Y0062000D02*
X0231180Y0052500D01*
X0230190Y0052500D02*
X0230190Y0062000D01*
X0229210Y0062000D02*
X0229210Y0052500D01*
X0228220Y0052500D02*
X0228220Y0062000D01*
X0227240Y0062000D02*
X0227240Y0052500D01*
X0226250Y0052500D02*
X0226250Y0062000D01*
X0225270Y0062000D02*
X0225270Y0052500D01*
X0224280Y0052500D02*
X0224280Y0062000D01*
X0224280Y0069000D02*
X0224280Y0078500D01*
X0223500Y0078500D02*
X0238500Y0078500D01*
X0238500Y0069000D01*
X0223500Y0069000D01*
X0223500Y0078500D01*
X0225270Y0078500D02*
X0225270Y0069000D01*
X0226250Y0069000D02*
X0226250Y0078500D01*
X0227240Y0078500D02*
X0227240Y0069000D01*
X0228220Y0069000D02*
X0228220Y0078500D01*
X0229210Y0078500D02*
X0229210Y0069000D01*
X0230190Y0069000D02*
X0230190Y0078500D01*
X0231180Y0078500D02*
X0231180Y0069000D01*
X0232160Y0069000D02*
X0232160Y0078500D01*
X0233150Y0078500D02*
X0233150Y0069000D01*
X0234130Y0069000D02*
X0234130Y0078500D01*
X0235120Y0078500D02*
X0235120Y0069000D01*
X0236100Y0069000D02*
X0236100Y0078500D01*
X0237090Y0078500D02*
X0237090Y0069000D01*
X0238070Y0069000D02*
X0238070Y0078500D01*
D17*
X0237000Y0077000D03*
X0233000Y0077000D03*
X0229000Y0077000D03*
X0225000Y0077000D03*
X0225000Y0071500D03*
X0237000Y0071500D03*
X0237000Y0059500D03*
X0237000Y0054000D03*
X0233000Y0054000D03*
X0229000Y0054000D03*
X0225000Y0054000D03*
X0225000Y0059500D03*
X0191000Y0011000D02*
G75*
%LPD*%
D18*
X0179000Y0022480D03*
X0179000Y0033510D03*
D11*
X0186500Y0015500D02*
X0171500Y0015500D01*
X0171500Y0025000D01*
X0186500Y0025000D01*
X0186500Y0015500D01*
X0186070Y0015500D02*
X0186070Y0025000D01*
X0185090Y0025000D02*
X0185090Y0015500D01*
X0184100Y0015500D02*
X0184100Y0025000D01*
X0183120Y0025000D02*
X0183120Y0015500D01*
X0182130Y0015500D02*
X0182130Y0025000D01*
X0181150Y0025000D02*
X0181150Y0015500D01*
X0180160Y0015500D02*
X0180160Y0025000D01*
X0179180Y0025000D02*
X0179180Y0015500D01*
X0178190Y0015500D02*
X0178190Y0025000D01*
X0177210Y0025000D02*
X0177210Y0015500D01*
X0176220Y0015500D02*
X0176220Y0025000D01*
X0175240Y0025000D02*
X0175240Y0015500D01*
X0174250Y0015500D02*
X0174250Y0025000D01*
X0173270Y0025000D02*
X0173270Y0015500D01*
X0172280Y0015500D02*
X0172280Y0025000D01*
X0172280Y0032000D02*
X0172280Y0041500D01*
X0171500Y0041500D02*
X0186500Y0041500D01*
X0186500Y0032000D01*
X0171500Y0032000D01*
X0171500Y0041500D01*
X0173270Y0041500D02*
X0173270Y0032000D01*
X0174250Y0032000D02*
X0174250Y0041500D01*
X0175240Y0041500D02*
X0175240Y0032000D01*
X0176220Y0032000D02*
X0176220Y0041500D01*
X0177210Y0041500D02*
X0177210Y0032000D01*
X0178190Y0032000D02*
X0178190Y0041500D01*
X0179180Y0041500D02*
X0179180Y0032000D01*
X0180160Y0032000D02*
X0180160Y0041500D01*
X0181150Y0041500D02*
X0181150Y0032000D01*
X0182130Y0032000D02*
X0182130Y0041500D01*
X0183120Y0041500D02*
X0183120Y0032000D01*
X0184100Y0032000D02*
X0184100Y0041500D01*
X0185090Y0041500D02*
X0185090Y0032000D01*
X0186070Y0032000D02*
X0186070Y0041500D01*
D17*
X0185000Y0040000D03*
X0181000Y0040000D03*
X0177000Y0040000D03*
X0173000Y0040000D03*
X0173000Y0034500D03*
X0185000Y0034500D03*
X0185000Y0022500D03*
X0185000Y0017000D03*
X0181000Y0017000D03*
X0177000Y0017000D03*
X0173000Y0017000D03*
X0173000Y0022500D03*
X0217000Y0048000D02*
G75*
%LPD*%
D18*
X0205000Y0059480D03*
X0205000Y0070510D03*
D11*
X0212500Y0052500D02*
X0197500Y0052500D01*
X0197500Y0062000D01*
X0212500Y0062000D01*
X0212500Y0052500D01*
X0212070Y0052500D02*
X0212070Y0062000D01*
X0211090Y0062000D02*
X0211090Y0052500D01*
X0210100Y0052500D02*
X0210100Y0062000D01*
X0209120Y0062000D02*
X0209120Y0052500D01*
X0208130Y0052500D02*
X0208130Y0062000D01*
X0207150Y0062000D02*
X0207150Y0052500D01*
X0206160Y0052500D02*
X0206160Y0062000D01*
X0205180Y0062000D02*
X0205180Y0052500D01*
X0204190Y0052500D02*
X0204190Y0062000D01*
X0203210Y0062000D02*
X0203210Y0052500D01*
X0202220Y0052500D02*
X0202220Y0062000D01*
X0201240Y0062000D02*
X0201240Y0052500D01*
X0200250Y0052500D02*
X0200250Y0062000D01*
X0199270Y0062000D02*
X0199270Y0052500D01*
X0198280Y0052500D02*
X0198280Y0062000D01*
X0198280Y0069000D02*
X0198280Y0078500D01*
X0197500Y0078500D02*
X0212500Y0078500D01*
X0212500Y0069000D01*
X0197500Y0069000D01*
X0197500Y0078500D01*
X0199270Y0078500D02*
X0199270Y0069000D01*
X0200250Y0069000D02*
X0200250Y0078500D01*
X0201240Y0078500D02*
X0201240Y0069000D01*
X0202220Y0069000D02*
X0202220Y0078500D01*
X0203210Y0078500D02*
X0203210Y0069000D01*
X0204190Y0069000D02*
X0204190Y0078500D01*
X0205180Y0078500D02*
X0205180Y0069000D01*
X0206160Y0069000D02*
X0206160Y0078500D01*
X0207150Y0078500D02*
X0207150Y0069000D01*
X0208130Y0069000D02*
X0208130Y0078500D01*
X0209120Y0078500D02*
X0209120Y0069000D01*
X0210100Y0069000D02*
X0210100Y0078500D01*
X0211090Y0078500D02*
X0211090Y0069000D01*
X0212070Y0069000D02*
X0212070Y0078500D01*
D17*
X0211000Y0077000D03*
X0207000Y0077000D03*
X0203000Y0077000D03*
X0199000Y0077000D03*
X0199000Y0071500D03*
X0211000Y0071500D03*
X0211000Y0059500D03*
X0211000Y0054000D03*
X0207000Y0054000D03*
X0203000Y0054000D03*
X0199000Y0054000D03*
X0199000Y0059500D03*
X0191000Y0048000D02*
G75*
%LPD*%
D18*
X0179000Y0059480D03*
X0179000Y0070510D03*
D11*
X0186500Y0052500D02*
X0171500Y0052500D01*
X0171500Y0062000D01*
X0186500Y0062000D01*
X0186500Y0052500D01*
X0186070Y0052500D02*
X0186070Y0062000D01*
X0185090Y0062000D02*
X0185090Y0052500D01*
X0184100Y0052500D02*
X0184100Y0062000D01*
X0183120Y0062000D02*
X0183120Y0052500D01*
X0182130Y0052500D02*
X0182130Y0062000D01*
X0181150Y0062000D02*
X0181150Y0052500D01*
X0180160Y0052500D02*
X0180160Y0062000D01*
X0179180Y0062000D02*
X0179180Y0052500D01*
X0178190Y0052500D02*
X0178190Y0062000D01*
X0177210Y0062000D02*
X0177210Y0052500D01*
X0176220Y0052500D02*
X0176220Y0062000D01*
X0175240Y0062000D02*
X0175240Y0052500D01*
X0174250Y0052500D02*
X0174250Y0062000D01*
X0173270Y0062000D02*
X0173270Y0052500D01*
X0172280Y0052500D02*
X0172280Y0062000D01*
X0172280Y0069000D02*
X0172280Y0078500D01*
X0171500Y0078500D02*
X0186500Y0078500D01*
X0186500Y0069000D01*
X0171500Y0069000D01*
X0171500Y0078500D01*
X0173270Y0078500D02*
X0173270Y0069000D01*
X0174250Y0069000D02*
X0174250Y0078500D01*
X0175240Y0078500D02*
X0175240Y0069000D01*
X0176220Y0069000D02*
X0176220Y0078500D01*
X0177210Y0078500D02*
X0177210Y0069000D01*
X0178190Y0069000D02*
X0178190Y0078500D01*
X0179180Y0078500D02*
X0179180Y0069000D01*
X0180160Y0069000D02*
X0180160Y0078500D01*
X0181150Y0078500D02*
X0181150Y0069000D01*
X0182130Y0069000D02*
X0182130Y0078500D01*
X0183120Y0078500D02*
X0183120Y0069000D01*
X0184100Y0069000D02*
X0184100Y0078500D01*
X0185090Y0078500D02*
X0185090Y0069000D01*
X0186070Y0069000D02*
X0186070Y0078500D01*
D17*
X0185000Y0077000D03*
X0181000Y0077000D03*
X0177000Y0077000D03*
X0173000Y0077000D03*
X0173000Y0071500D03*
X0185000Y0071500D03*
X0185000Y0059500D03*
X0185000Y0054000D03*
X0181000Y0054000D03*
X0177000Y0054000D03*
X0173000Y0054000D03*
X0173000Y0059500D03*
X0165000Y0011000D02*
G75*
%LPD*%
D18*
X0153000Y0022480D03*
X0153000Y0033510D03*
D11*
X0160500Y0015500D02*
X0145500Y0015500D01*
X0145500Y0025000D01*
X0160500Y0025000D01*
X0160500Y0015500D01*
X0160070Y0015500D02*
X0160070Y0025000D01*
X0159090Y0025000D02*
X0159090Y0015500D01*
X0158100Y0015500D02*
X0158100Y0025000D01*
X0157120Y0025000D02*
X0157120Y0015500D01*
X0156130Y0015500D02*
X0156130Y0025000D01*
X0155150Y0025000D02*
X0155150Y0015500D01*
X0154160Y0015500D02*
X0154160Y0025000D01*
X0153180Y0025000D02*
X0153180Y0015500D01*
X0152190Y0015500D02*
X0152190Y0025000D01*
X0151210Y0025000D02*
X0151210Y0015500D01*
X0150220Y0015500D02*
X0150220Y0025000D01*
X0149240Y0025000D02*
X0149240Y0015500D01*
X0148250Y0015500D02*
X0148250Y0025000D01*
X0147270Y0025000D02*
X0147270Y0015500D01*
X0146280Y0015500D02*
X0146280Y0025000D01*
X0146280Y0032000D02*
X0146280Y0041500D01*
X0145500Y0041500D02*
X0160500Y0041500D01*
X0160500Y0032000D01*
X0145500Y0032000D01*
X0145500Y0041500D01*
X0147270Y0041500D02*
X0147270Y0032000D01*
X0148250Y0032000D02*
X0148250Y0041500D01*
X0149240Y0041500D02*
X0149240Y0032000D01*
X0150220Y0032000D02*
X0150220Y0041500D01*
X0151210Y0041500D02*
X0151210Y0032000D01*
X0152190Y0032000D02*
X0152190Y0041500D01*
X0153180Y0041500D02*
X0153180Y0032000D01*
X0154160Y0032000D02*
X0154160Y0041500D01*
X0155150Y0041500D02*
X0155150Y0032000D01*
X0156130Y0032000D02*
X0156130Y0041500D01*
X0157120Y0041500D02*
X0157120Y0032000D01*
X0158100Y0032000D02*
X0158100Y0041500D01*
X0159090Y0041500D02*
X0159090Y0032000D01*
X0160070Y0032000D02*
X0160070Y0041500D01*
D17*
X0159000Y0040000D03*
X0155000Y0040000D03*
X0151000Y0040000D03*
X0147000Y0040000D03*
X0147000Y0034500D03*
X0159000Y0034500D03*
X0159000Y0022500D03*
X0159000Y0017000D03*
X0155000Y0017000D03*
X0151000Y0017000D03*
X0147000Y0017000D03*
X0147000Y0022500D03*
X0165000Y0048000D02*
G75*
%LPD*%
D18*
X0153000Y0059480D03*
X0153000Y0070510D03*
D11*
X0160500Y0052500D02*
X0145500Y0052500D01*
X0145500Y0062000D01*
X0160500Y0062000D01*
X0160500Y0052500D01*
X0160070Y0052500D02*
X0160070Y0062000D01*
X0159090Y0062000D02*
X0159090Y0052500D01*
X0158100Y0052500D02*
X0158100Y0062000D01*
X0157120Y0062000D02*
X0157120Y0052500D01*
X0156130Y0052500D02*
X0156130Y0062000D01*
X0155150Y0062000D02*
X0155150Y0052500D01*
X0154160Y0052500D02*
X0154160Y0062000D01*
X0153180Y0062000D02*
X0153180Y0052500D01*
X0152190Y0052500D02*
X0152190Y0062000D01*
X0151210Y0062000D02*
X0151210Y0052500D01*
X0150220Y0052500D02*
X0150220Y0062000D01*
X0149240Y0062000D02*
X0149240Y0052500D01*
X0148250Y0052500D02*
X0148250Y0062000D01*
X0147270Y0062000D02*
X0147270Y0052500D01*
X0146280Y0052500D02*
X0146280Y0062000D01*
X0146280Y0069000D02*
X0146280Y0078500D01*
X0145500Y0078500D02*
X0160500Y0078500D01*
X0160500Y0069000D01*
X0145500Y0069000D01*
X0145500Y0078500D01*
X0147270Y0078500D02*
X0147270Y0069000D01*
X0148250Y0069000D02*
X0148250Y0078500D01*
X0149240Y0078500D02*
X0149240Y0069000D01*
X0150220Y0069000D02*
X0150220Y0078500D01*
X0151210Y0078500D02*
X0151210Y0069000D01*
X0152190Y0069000D02*
X0152190Y0078500D01*
X0153180Y0078500D02*
X0153180Y0069000D01*
X0154160Y0069000D02*
X0154160Y0078500D01*
X0155150Y0078500D02*
X0155150Y0069000D01*
X0156130Y0069000D02*
X0156130Y0078500D01*
X0157120Y0078500D02*
X0157120Y0069000D01*
X0158100Y0069000D02*
X0158100Y0078500D01*
X0159090Y0078500D02*
X0159090Y0069000D01*
X0160070Y0069000D02*
X0160070Y0078500D01*
D17*
X0159000Y0077000D03*
X0155000Y0077000D03*
X0151000Y0077000D03*
X0147000Y0077000D03*
X0147000Y0071500D03*
X0159000Y0071500D03*
X0159000Y0059500D03*
X0159000Y0054000D03*
X0155000Y0054000D03*
X0151000Y0054000D03*
X0147000Y0054000D03*
X0147000Y0059500D03*
X0141000Y0085000D02*
G75*
%LPD*%
X0269000Y0085000D02*
G75*
%LPD*%
D18*
X0257000Y0096480D03*
X0257000Y0107510D03*
D11*
X0264500Y0089500D02*
X0249500Y0089500D01*
X0249500Y0099000D01*
X0264500Y0099000D01*
X0264500Y0089500D01*
X0264070Y0089500D02*
X0264070Y0099000D01*
X0263090Y0099000D02*
X0263090Y0089500D01*
X0262100Y0089500D02*
X0262100Y0099000D01*
X0261120Y0099000D02*
X0261120Y0089500D01*
X0260130Y0089500D02*
X0260130Y0099000D01*
X0259150Y0099000D02*
X0259150Y0089500D01*
X0258160Y0089500D02*
X0258160Y0099000D01*
X0257180Y0099000D02*
X0257180Y0089500D01*
X0256190Y0089500D02*
X0256190Y0099000D01*
X0255210Y0099000D02*
X0255210Y0089500D01*
X0254220Y0089500D02*
X0254220Y0099000D01*
X0253240Y0099000D02*
X0253240Y0089500D01*
X0252250Y0089500D02*
X0252250Y0099000D01*
X0251270Y0099000D02*
X0251270Y0089500D01*
X0250280Y0089500D02*
X0250280Y0099000D01*
X0250280Y0106000D02*
X0250280Y0115500D01*
X0249500Y0115500D02*
X0264500Y0115500D01*
X0264500Y0106000D01*
X0249500Y0106000D01*
X0249500Y0115500D01*
X0251270Y0115500D02*
X0251270Y0106000D01*
X0252250Y0106000D02*
X0252250Y0115500D01*
X0253240Y0115500D02*
X0253240Y0106000D01*
X0254220Y0106000D02*
X0254220Y0115500D01*
X0255210Y0115500D02*
X0255210Y0106000D01*
X0256190Y0106000D02*
X0256190Y0115500D01*
X0257180Y0115500D02*
X0257180Y0106000D01*
X0258160Y0106000D02*
X0258160Y0115500D01*
X0259150Y0115500D02*
X0259150Y0106000D01*
X0260130Y0106000D02*
X0260130Y0115500D01*
X0261120Y0115500D02*
X0261120Y0106000D01*
X0262100Y0106000D02*
X0262100Y0115500D01*
X0263090Y0115500D02*
X0263090Y0106000D01*
X0264070Y0106000D02*
X0264070Y0115500D01*
D17*
X0263000Y0114000D03*
X0259000Y0114000D03*
X0255000Y0114000D03*
X0251000Y0114000D03*
X0251000Y0108500D03*
X0263000Y0108500D03*
X0263000Y0096500D03*
X0263000Y0091000D03*
X0259000Y0091000D03*
X0255000Y0091000D03*
X0251000Y0091000D03*
X0251000Y0096500D03*
X0243000Y0085000D02*
G75*
%LPD*%
D18*
X0231000Y0096480D03*
X0231000Y0107510D03*
D11*
X0238500Y0089500D02*
X0223500Y0089500D01*
X0223500Y0099000D01*
X0238500Y0099000D01*
X0238500Y0089500D01*
X0238070Y0089500D02*
X0238070Y0099000D01*
X0237090Y0099000D02*
X0237090Y0089500D01*
X0236100Y0089500D02*
X0236100Y0099000D01*
X0235120Y0099000D02*
X0235120Y0089500D01*
X0234130Y0089500D02*
X0234130Y0099000D01*
X0233150Y0099000D02*
X0233150Y0089500D01*
X0232160Y0089500D02*
X0232160Y0099000D01*
X0231180Y0099000D02*
X0231180Y0089500D01*
X0230190Y0089500D02*
X0230190Y0099000D01*
X0229210Y0099000D02*
X0229210Y0089500D01*
X0228220Y0089500D02*
X0228220Y0099000D01*
X0227240Y0099000D02*
X0227240Y0089500D01*
X0226250Y0089500D02*
X0226250Y0099000D01*
X0225270Y0099000D02*
X0225270Y0089500D01*
X0224280Y0089500D02*
X0224280Y0099000D01*
X0224280Y0106000D02*
X0224280Y0115500D01*
X0223500Y0115500D02*
X0238500Y0115500D01*
X0238500Y0106000D01*
X0223500Y0106000D01*
X0223500Y0115500D01*
X0225270Y0115500D02*
X0225270Y0106000D01*
X0226250Y0106000D02*
X0226250Y0115500D01*
X0227240Y0115500D02*
X0227240Y0106000D01*
X0228220Y0106000D02*
X0228220Y0115500D01*
X0229210Y0115500D02*
X0229210Y0106000D01*
X0230190Y0106000D02*
X0230190Y0115500D01*
X0231180Y0115500D02*
X0231180Y0106000D01*
X0232160Y0106000D02*
X0232160Y0115500D01*
X0233150Y0115500D02*
X0233150Y0106000D01*
X0234130Y0106000D02*
X0234130Y0115500D01*
X0235120Y0115500D02*
X0235120Y0106000D01*
X0236100Y0106000D02*
X0236100Y0115500D01*
X0237090Y0115500D02*
X0237090Y0106000D01*
X0238070Y0106000D02*
X0238070Y0115500D01*
D17*
X0237000Y0114000D03*
X0233000Y0114000D03*
X0229000Y0114000D03*
X0225000Y0114000D03*
X0225000Y0108500D03*
X0237000Y0108500D03*
X0237000Y0096500D03*
X0237000Y0091000D03*
X0233000Y0091000D03*
X0229000Y0091000D03*
X0225000Y0091000D03*
X0225000Y0096500D03*
X0269000Y0122000D02*
G75*
%LPD*%
D18*
X0257000Y0133480D03*
X0257000Y0144510D03*
D11*
X0264500Y0126500D02*
X0249500Y0126500D01*
X0249500Y0136000D01*
X0264500Y0136000D01*
X0264500Y0126500D01*
X0264070Y0126500D02*
X0264070Y0136000D01*
X0263090Y0136000D02*
X0263090Y0126500D01*
X0262100Y0126500D02*
X0262100Y0136000D01*
X0261120Y0136000D02*
X0261120Y0126500D01*
X0260130Y0126500D02*
X0260130Y0136000D01*
X0259150Y0136000D02*
X0259150Y0126500D01*
X0258160Y0126500D02*
X0258160Y0136000D01*
X0257180Y0136000D02*
X0257180Y0126500D01*
X0256190Y0126500D02*
X0256190Y0136000D01*
X0255210Y0136000D02*
X0255210Y0126500D01*
X0254220Y0126500D02*
X0254220Y0136000D01*
X0253240Y0136000D02*
X0253240Y0126500D01*
X0252250Y0126500D02*
X0252250Y0136000D01*
X0251270Y0136000D02*
X0251270Y0126500D01*
X0250280Y0126500D02*
X0250280Y0136000D01*
X0250280Y0143000D02*
X0250280Y0152500D01*
X0249500Y0152500D02*
X0264500Y0152500D01*
X0264500Y0143000D01*
X0249500Y0143000D01*
X0249500Y0152500D01*
X0251270Y0152500D02*
X0251270Y0143000D01*
X0252250Y0143000D02*
X0252250Y0152500D01*
X0253240Y0152500D02*
X0253240Y0143000D01*
X0254220Y0143000D02*
X0254220Y0152500D01*
X0255210Y0152500D02*
X0255210Y0143000D01*
X0256190Y0143000D02*
X0256190Y0152500D01*
X0257180Y0152500D02*
X0257180Y0143000D01*
X0258160Y0143000D02*
X0258160Y0152500D01*
X0259150Y0152500D02*
X0259150Y0143000D01*
X0260130Y0143000D02*
X0260130Y0152500D01*
X0261120Y0152500D02*
X0261120Y0143000D01*
X0262100Y0143000D02*
X0262100Y0152500D01*
X0263090Y0152500D02*
X0263090Y0143000D01*
X0264070Y0143000D02*
X0264070Y0152500D01*
D17*
X0263000Y0151000D03*
X0259000Y0151000D03*
X0255000Y0151000D03*
X0251000Y0151000D03*
X0251000Y0145500D03*
X0263000Y0145500D03*
X0263000Y0133500D03*
X0263000Y0128000D03*
X0259000Y0128000D03*
X0255000Y0128000D03*
X0251000Y0128000D03*
X0251000Y0133500D03*
X0217000Y0085000D02*
G75*
%LPD*%
D18*
X0205000Y0096480D03*
X0205000Y0107510D03*
D11*
X0212500Y0089500D02*
X0197500Y0089500D01*
X0197500Y0099000D01*
X0212500Y0099000D01*
X0212500Y0089500D01*
X0212070Y0089500D02*
X0212070Y0099000D01*
X0211090Y0099000D02*
X0211090Y0089500D01*
X0210100Y0089500D02*
X0210100Y0099000D01*
X0209120Y0099000D02*
X0209120Y0089500D01*
X0208130Y0089500D02*
X0208130Y0099000D01*
X0207150Y0099000D02*
X0207150Y0089500D01*
X0206160Y0089500D02*
X0206160Y0099000D01*
X0205180Y0099000D02*
X0205180Y0089500D01*
X0204190Y0089500D02*
X0204190Y0099000D01*
X0203210Y0099000D02*
X0203210Y0089500D01*
X0202220Y0089500D02*
X0202220Y0099000D01*
X0201240Y0099000D02*
X0201240Y0089500D01*
X0200250Y0089500D02*
X0200250Y0099000D01*
X0199270Y0099000D02*
X0199270Y0089500D01*
X0198280Y0089500D02*
X0198280Y0099000D01*
X0198280Y0106000D02*
X0198280Y0115500D01*
X0197500Y0115500D02*
X0212500Y0115500D01*
X0212500Y0106000D01*
X0197500Y0106000D01*
X0197500Y0115500D01*
X0199270Y0115500D02*
X0199270Y0106000D01*
X0200250Y0106000D02*
X0200250Y0115500D01*
X0201240Y0115500D02*
X0201240Y0106000D01*
X0202220Y0106000D02*
X0202220Y0115500D01*
X0203210Y0115500D02*
X0203210Y0106000D01*
X0204190Y0106000D02*
X0204190Y0115500D01*
X0205180Y0115500D02*
X0205180Y0106000D01*
X0206160Y0106000D02*
X0206160Y0115500D01*
X0207150Y0115500D02*
X0207150Y0106000D01*
X0208130Y0106000D02*
X0208130Y0115500D01*
X0209120Y0115500D02*
X0209120Y0106000D01*
X0210100Y0106000D02*
X0210100Y0115500D01*
X0211090Y0115500D02*
X0211090Y0106000D01*
X0212070Y0106000D02*
X0212070Y0115500D01*
D17*
X0211000Y0114000D03*
X0207000Y0114000D03*
X0203000Y0114000D03*
X0199000Y0114000D03*
X0199000Y0108500D03*
X0211000Y0108500D03*
X0211000Y0096500D03*
X0211000Y0091000D03*
X0207000Y0091000D03*
X0203000Y0091000D03*
X0199000Y0091000D03*
X0199000Y0096500D03*
X0243000Y0122000D02*
G75*
%LPD*%
D18*
X0231000Y0133480D03*
X0231000Y0144510D03*
D11*
X0238500Y0126500D02*
X0223500Y0126500D01*
X0223500Y0136000D01*
X0238500Y0136000D01*
X0238500Y0126500D01*
X0238070Y0126500D02*
X0238070Y0136000D01*
X0237090Y0136000D02*
X0237090Y0126500D01*
X0236100Y0126500D02*
X0236100Y0136000D01*
X0235120Y0136000D02*
X0235120Y0126500D01*
X0234130Y0126500D02*
X0234130Y0136000D01*
X0233150Y0136000D02*
X0233150Y0126500D01*
X0232160Y0126500D02*
X0232160Y0136000D01*
X0231180Y0136000D02*
X0231180Y0126500D01*
X0230190Y0126500D02*
X0230190Y0136000D01*
X0229210Y0136000D02*
X0229210Y0126500D01*
X0228220Y0126500D02*
X0228220Y0136000D01*
X0227240Y0136000D02*
X0227240Y0126500D01*
X0226250Y0126500D02*
X0226250Y0136000D01*
X0225270Y0136000D02*
X0225270Y0126500D01*
X0224280Y0126500D02*
X0224280Y0136000D01*
X0224280Y0143000D02*
X0224280Y0152500D01*
X0223500Y0152500D02*
X0238500Y0152500D01*
X0238500Y0143000D01*
X0223500Y0143000D01*
X0223500Y0152500D01*
X0225270Y0152500D02*
X0225270Y0143000D01*
X0226250Y0143000D02*
X0226250Y0152500D01*
X0227240Y0152500D02*
X0227240Y0143000D01*
X0228220Y0143000D02*
X0228220Y0152500D01*
X0229210Y0152500D02*
X0229210Y0143000D01*
X0230190Y0143000D02*
X0230190Y0152500D01*
X0231180Y0152500D02*
X0231180Y0143000D01*
X0232160Y0143000D02*
X0232160Y0152500D01*
X0233150Y0152500D02*
X0233150Y0143000D01*
X0234130Y0143000D02*
X0234130Y0152500D01*
X0235120Y0152500D02*
X0235120Y0143000D01*
X0236100Y0143000D02*
X0236100Y0152500D01*
X0237090Y0152500D02*
X0237090Y0143000D01*
X0238070Y0143000D02*
X0238070Y0152500D01*
D17*
X0237000Y0151000D03*
X0233000Y0151000D03*
X0229000Y0151000D03*
X0225000Y0151000D03*
X0225000Y0145500D03*
X0237000Y0145500D03*
X0237000Y0133500D03*
X0237000Y0128000D03*
X0233000Y0128000D03*
X0229000Y0128000D03*
X0225000Y0128000D03*
X0225000Y0133500D03*
X0191000Y0085000D02*
G75*
%LPD*%
D18*
X0179000Y0096480D03*
X0179000Y0107510D03*
D11*
X0186500Y0089500D02*
X0171500Y0089500D01*
X0171500Y0099000D01*
X0186500Y0099000D01*
X0186500Y0089500D01*
X0186070Y0089500D02*
X0186070Y0099000D01*
X0185090Y0099000D02*
X0185090Y0089500D01*
X0184100Y0089500D02*
X0184100Y0099000D01*
X0183120Y0099000D02*
X0183120Y0089500D01*
X0182130Y0089500D02*
X0182130Y0099000D01*
X0181150Y0099000D02*
X0181150Y0089500D01*
X0180160Y0089500D02*
X0180160Y0099000D01*
X0179180Y0099000D02*
X0179180Y0089500D01*
X0178190Y0089500D02*
X0178190Y0099000D01*
X0177210Y0099000D02*
X0177210Y0089500D01*
X0176220Y0089500D02*
X0176220Y0099000D01*
X0175240Y0099000D02*
X0175240Y0089500D01*
X0174250Y0089500D02*
X0174250Y0099000D01*
X0173270Y0099000D02*
X0173270Y0089500D01*
X0172280Y0089500D02*
X0172280Y0099000D01*
X0172280Y0106000D02*
X0172280Y0115500D01*
X0171500Y0115500D02*
X0186500Y0115500D01*
X0186500Y0106000D01*
X0171500Y0106000D01*
X0171500Y0115500D01*
X0173270Y0115500D02*
X0173270Y0106000D01*
X0174250Y0106000D02*
X0174250Y0115500D01*
X0175240Y0115500D02*
X0175240Y0106000D01*
X0176220Y0106000D02*
X0176220Y0115500D01*
X0177210Y0115500D02*
X0177210Y0106000D01*
X0178190Y0106000D02*
X0178190Y0115500D01*
X0179180Y0115500D02*
X0179180Y0106000D01*
X0180160Y0106000D02*
X0180160Y0115500D01*
X0181150Y0115500D02*
X0181150Y0106000D01*
X0182130Y0106000D02*
X0182130Y0115500D01*
X0183120Y0115500D02*
X0183120Y0106000D01*
X0184100Y0106000D02*
X0184100Y0115500D01*
X0185090Y0115500D02*
X0185090Y0106000D01*
X0186070Y0106000D02*
X0186070Y0115500D01*
D17*
X0185000Y0114000D03*
X0181000Y0114000D03*
X0177000Y0114000D03*
X0173000Y0114000D03*
X0173000Y0108500D03*
X0185000Y0108500D03*
X0185000Y0096500D03*
X0185000Y0091000D03*
X0181000Y0091000D03*
X0177000Y0091000D03*
X0173000Y0091000D03*
X0173000Y0096500D03*
X0217000Y0122000D02*
G75*
%LPD*%
D18*
X0205000Y0133480D03*
X0205000Y0144510D03*
D11*
X0212500Y0126500D02*
X0197500Y0126500D01*
X0197500Y0136000D01*
X0212500Y0136000D01*
X0212500Y0126500D01*
X0212070Y0126500D02*
X0212070Y0136000D01*
X0211090Y0136000D02*
X0211090Y0126500D01*
X0210100Y0126500D02*
X0210100Y0136000D01*
X0209120Y0136000D02*
X0209120Y0126500D01*
X0208130Y0126500D02*
X0208130Y0136000D01*
X0207150Y0136000D02*
X0207150Y0126500D01*
X0206160Y0126500D02*
X0206160Y0136000D01*
X0205180Y0136000D02*
X0205180Y0126500D01*
X0204190Y0126500D02*
X0204190Y0136000D01*
X0203210Y0136000D02*
X0203210Y0126500D01*
X0202220Y0126500D02*
X0202220Y0136000D01*
X0201240Y0136000D02*
X0201240Y0126500D01*
X0200250Y0126500D02*
X0200250Y0136000D01*
X0199270Y0136000D02*
X0199270Y0126500D01*
X0198280Y0126500D02*
X0198280Y0136000D01*
X0198280Y0143000D02*
X0198280Y0152500D01*
X0197500Y0152500D02*
X0212500Y0152500D01*
X0212500Y0143000D01*
X0197500Y0143000D01*
X0197500Y0152500D01*
X0199270Y0152500D02*
X0199270Y0143000D01*
X0200250Y0143000D02*
X0200250Y0152500D01*
X0201240Y0152500D02*
X0201240Y0143000D01*
X0202220Y0143000D02*
X0202220Y0152500D01*
X0203210Y0152500D02*
X0203210Y0143000D01*
X0204190Y0143000D02*
X0204190Y0152500D01*
X0205180Y0152500D02*
X0205180Y0143000D01*
X0206160Y0143000D02*
X0206160Y0152500D01*
X0207150Y0152500D02*
X0207150Y0143000D01*
X0208130Y0143000D02*
X0208130Y0152500D01*
X0209120Y0152500D02*
X0209120Y0143000D01*
X0210100Y0143000D02*
X0210100Y0152500D01*
X0211090Y0152500D02*
X0211090Y0143000D01*
X0212070Y0143000D02*
X0212070Y0152500D01*
D17*
X0211000Y0151000D03*
X0207000Y0151000D03*
X0203000Y0151000D03*
X0199000Y0151000D03*
X0199000Y0145500D03*
X0211000Y0145500D03*
X0211000Y0133500D03*
X0211000Y0128000D03*
X0207000Y0128000D03*
X0203000Y0128000D03*
X0199000Y0128000D03*
X0199000Y0133500D03*
X0191000Y0122000D02*
G75*
%LPD*%
D18*
X0179000Y0133480D03*
X0179000Y0144510D03*
D11*
X0186500Y0126500D02*
X0171500Y0126500D01*
X0171500Y0136000D01*
X0186500Y0136000D01*
X0186500Y0126500D01*
X0186070Y0126500D02*
X0186070Y0136000D01*
X0185090Y0136000D02*
X0185090Y0126500D01*
X0184100Y0126500D02*
X0184100Y0136000D01*
X0183120Y0136000D02*
X0183120Y0126500D01*
X0182130Y0126500D02*
X0182130Y0136000D01*
X0181150Y0136000D02*
X0181150Y0126500D01*
X0180160Y0126500D02*
X0180160Y0136000D01*
X0179180Y0136000D02*
X0179180Y0126500D01*
X0178190Y0126500D02*
X0178190Y0136000D01*
X0177210Y0136000D02*
X0177210Y0126500D01*
X0176220Y0126500D02*
X0176220Y0136000D01*
X0175240Y0136000D02*
X0175240Y0126500D01*
X0174250Y0126500D02*
X0174250Y0136000D01*
X0173270Y0136000D02*
X0173270Y0126500D01*
X0172280Y0126500D02*
X0172280Y0136000D01*
X0172280Y0143000D02*
X0172280Y0152500D01*
X0171500Y0152500D02*
X0186500Y0152500D01*
X0186500Y0143000D01*
X0171500Y0143000D01*
X0171500Y0152500D01*
X0173270Y0152500D02*
X0173270Y0143000D01*
X0174250Y0143000D02*
X0174250Y0152500D01*
X0175240Y0152500D02*
X0175240Y0143000D01*
X0176220Y0143000D02*
X0176220Y0152500D01*
X0177210Y0152500D02*
X0177210Y0143000D01*
X0178190Y0143000D02*
X0178190Y0152500D01*
X0179180Y0152500D02*
X0179180Y0143000D01*
X0180160Y0143000D02*
X0180160Y0152500D01*
X0181150Y0152500D02*
X0181150Y0143000D01*
X0182130Y0143000D02*
X0182130Y0152500D01*
X0183120Y0152500D02*
X0183120Y0143000D01*
X0184100Y0143000D02*
X0184100Y0152500D01*
X0185090Y0152500D02*
X0185090Y0143000D01*
X0186070Y0143000D02*
X0186070Y0152500D01*
D17*
X0185000Y0151000D03*
X0181000Y0151000D03*
X0177000Y0151000D03*
X0173000Y0151000D03*
X0173000Y0145500D03*
X0185000Y0145500D03*
X0185000Y0133500D03*
X0185000Y0128000D03*
X0181000Y0128000D03*
X0177000Y0128000D03*
X0173000Y0128000D03*
X0173000Y0133500D03*
X0165000Y0085000D02*
G75*
%LPD*%
D18*
X0153000Y0096480D03*
X0153000Y0107510D03*
D11*
X0160500Y0089500D02*
X0145500Y0089500D01*
X0145500Y0099000D01*
X0160500Y0099000D01*
X0160500Y0089500D01*
X0160070Y0089500D02*
X0160070Y0099000D01*
X0159090Y0099000D02*
X0159090Y0089500D01*
X0158100Y0089500D02*
X0158100Y0099000D01*
X0157120Y0099000D02*
X0157120Y0089500D01*
X0156130Y0089500D02*
X0156130Y0099000D01*
X0155150Y0099000D02*
X0155150Y0089500D01*
X0154160Y0089500D02*
X0154160Y0099000D01*
X0153180Y0099000D02*
X0153180Y0089500D01*
X0152190Y0089500D02*
X0152190Y0099000D01*
X0151210Y0099000D02*
X0151210Y0089500D01*
X0150220Y0089500D02*
X0150220Y0099000D01*
X0149240Y0099000D02*
X0149240Y0089500D01*
X0148250Y0089500D02*
X0148250Y0099000D01*
X0147270Y0099000D02*
X0147270Y0089500D01*
X0146280Y0089500D02*
X0146280Y0099000D01*
X0146280Y0106000D02*
X0146280Y0115500D01*
X0145500Y0115500D02*
X0160500Y0115500D01*
X0160500Y0106000D01*
X0145500Y0106000D01*
X0145500Y0115500D01*
X0147270Y0115500D02*
X0147270Y0106000D01*
X0148250Y0106000D02*
X0148250Y0115500D01*
X0149240Y0115500D02*
X0149240Y0106000D01*
X0150220Y0106000D02*
X0150220Y0115500D01*
X0151210Y0115500D02*
X0151210Y0106000D01*
X0152190Y0106000D02*
X0152190Y0115500D01*
X0153180Y0115500D02*
X0153180Y0106000D01*
X0154160Y0106000D02*
X0154160Y0115500D01*
X0155150Y0115500D02*
X0155150Y0106000D01*
X0156130Y0106000D02*
X0156130Y0115500D01*
X0157120Y0115500D02*
X0157120Y0106000D01*
X0158100Y0106000D02*
X0158100Y0115500D01*
X0159090Y0115500D02*
X0159090Y0106000D01*
X0160070Y0106000D02*
X0160070Y0115500D01*
D17*
X0159000Y0114000D03*
X0155000Y0114000D03*
X0151000Y0114000D03*
X0147000Y0114000D03*
X0147000Y0108500D03*
X0159000Y0108500D03*
X0159000Y0096500D03*
X0159000Y0091000D03*
X0155000Y0091000D03*
X0151000Y0091000D03*
X0147000Y0091000D03*
X0147000Y0096500D03*
X0165000Y0122000D02*
G75*
%LPD*%
D18*
X0153000Y0133480D03*
X0153000Y0144510D03*
D11*
X0160500Y0126500D02*
X0145500Y0126500D01*
X0145500Y0136000D01*
X0160500Y0136000D01*
X0160500Y0126500D01*
X0160070Y0126500D02*
X0160070Y0136000D01*
X0159090Y0136000D02*
X0159090Y0126500D01*
X0158100Y0126500D02*
X0158100Y0136000D01*
X0157120Y0136000D02*
X0157120Y0126500D01*
X0156130Y0126500D02*
X0156130Y0136000D01*
X0155150Y0136000D02*
X0155150Y0126500D01*
X0154160Y0126500D02*
X0154160Y0136000D01*
X0153180Y0136000D02*
X0153180Y0126500D01*
X0152190Y0126500D02*
X0152190Y0136000D01*
X0151210Y0136000D02*
X0151210Y0126500D01*
X0150220Y0126500D02*
X0150220Y0136000D01*
X0149240Y0136000D02*
X0149240Y0126500D01*
X0148250Y0126500D02*
X0148250Y0136000D01*
X0147270Y0136000D02*
X0147270Y0126500D01*
X0146280Y0126500D02*
X0146280Y0136000D01*
X0146280Y0143000D02*
X0146280Y0152500D01*
X0145500Y0152500D02*
X0160500Y0152500D01*
X0160500Y0143000D01*
X0145500Y0143000D01*
X0145500Y0152500D01*
X0147270Y0152500D02*
X0147270Y0143000D01*
X0148250Y0143000D02*
X0148250Y0152500D01*
X0149240Y0152500D02*
X0149240Y0143000D01*
X0150220Y0143000D02*
X0150220Y0152500D01*
X0151210Y0152500D02*
X0151210Y0143000D01*
X0152190Y0143000D02*
X0152190Y0152500D01*
X0153180Y0152500D02*
X0153180Y0143000D01*
X0154160Y0143000D02*
X0154160Y0152500D01*
X0155150Y0152500D02*
X0155150Y0143000D01*
X0156130Y0143000D02*
X0156130Y0152500D01*
X0157120Y0152500D02*
X0157120Y0143000D01*
X0158100Y0143000D02*
X0158100Y0152500D01*
X0159090Y0152500D02*
X0159090Y0143000D01*
X0160070Y0143000D02*
X0160070Y0152500D01*
D17*
X0159000Y0151000D03*
X0155000Y0151000D03*
X0151000Y0151000D03*
X0147000Y0151000D03*
X0147000Y0145500D03*
X0159000Y0145500D03*
X0159000Y0133500D03*
X0159000Y0128000D03*
X0155000Y0128000D03*
X0151000Y0128000D03*
X0147000Y0128000D03*
X0147000Y0133500D03*
X0011000Y0159000D02*
G75*
%LPD*%
X0139000Y0159000D02*
G75*
%LPD*%
D18*
X0127000Y0170480D03*
X0127000Y0181510D03*
D11*
X0134500Y0163500D02*
X0119500Y0163500D01*
X0119500Y0173000D01*
X0134500Y0173000D01*
X0134500Y0163500D01*
X0134070Y0163500D02*
X0134070Y0173000D01*
X0133090Y0173000D02*
X0133090Y0163500D01*
X0132100Y0163500D02*
X0132100Y0173000D01*
X0131120Y0173000D02*
X0131120Y0163500D01*
X0130130Y0163500D02*
X0130130Y0173000D01*
X0129150Y0173000D02*
X0129150Y0163500D01*
X0128160Y0163500D02*
X0128160Y0173000D01*
X0127180Y0173000D02*
X0127180Y0163500D01*
X0126190Y0163500D02*
X0126190Y0173000D01*
X0125210Y0173000D02*
X0125210Y0163500D01*
X0124220Y0163500D02*
X0124220Y0173000D01*
X0123240Y0173000D02*
X0123240Y0163500D01*
X0122250Y0163500D02*
X0122250Y0173000D01*
X0121270Y0173000D02*
X0121270Y0163500D01*
X0120280Y0163500D02*
X0120280Y0173000D01*
X0120280Y0180000D02*
X0120280Y0189500D01*
X0119500Y0189500D02*
X0134500Y0189500D01*
X0134500Y0180000D01*
X0119500Y0180000D01*
X0119500Y0189500D01*
X0121270Y0189500D02*
X0121270Y0180000D01*
X0122250Y0180000D02*
X0122250Y0189500D01*
X0123240Y0189500D02*
X0123240Y0180000D01*
X0124220Y0180000D02*
X0124220Y0189500D01*
X0125210Y0189500D02*
X0125210Y0180000D01*
X0126190Y0180000D02*
X0126190Y0189500D01*
X0127180Y0189500D02*
X0127180Y0180000D01*
X0128160Y0180000D02*
X0128160Y0189500D01*
X0129150Y0189500D02*
X0129150Y0180000D01*
X0130130Y0180000D02*
X0130130Y0189500D01*
X0131120Y0189500D02*
X0131120Y0180000D01*
X0132100Y0180000D02*
X0132100Y0189500D01*
X0133090Y0189500D02*
X0133090Y0180000D01*
X0134070Y0180000D02*
X0134070Y0189500D01*
D17*
X0133000Y0188000D03*
X0129000Y0188000D03*
X0125000Y0188000D03*
X0121000Y0188000D03*
X0121000Y0182500D03*
X0133000Y0182500D03*
X0133000Y0170500D03*
X0133000Y0165000D03*
X0129000Y0165000D03*
X0125000Y0165000D03*
X0121000Y0165000D03*
X0121000Y0170500D03*
X0113000Y0159000D02*
G75*
%LPD*%
D18*
X0101000Y0170480D03*
X0101000Y0181510D03*
D11*
X0108500Y0163500D02*
X0093500Y0163500D01*
X0093500Y0173000D01*
X0108500Y0173000D01*
X0108500Y0163500D01*
X0108070Y0163500D02*
X0108070Y0173000D01*
X0107090Y0173000D02*
X0107090Y0163500D01*
X0106100Y0163500D02*
X0106100Y0173000D01*
X0105120Y0173000D02*
X0105120Y0163500D01*
X0104130Y0163500D02*
X0104130Y0173000D01*
X0103150Y0173000D02*
X0103150Y0163500D01*
X0102160Y0163500D02*
X0102160Y0173000D01*
X0101180Y0173000D02*
X0101180Y0163500D01*
X0100190Y0163500D02*
X0100190Y0173000D01*
X0099210Y0173000D02*
X0099210Y0163500D01*
X0098220Y0163500D02*
X0098220Y0173000D01*
X0097240Y0173000D02*
X0097240Y0163500D01*
X0096250Y0163500D02*
X0096250Y0173000D01*
X0095270Y0173000D02*
X0095270Y0163500D01*
X0094280Y0163500D02*
X0094280Y0173000D01*
X0094280Y0180000D02*
X0094280Y0189500D01*
X0093500Y0189500D02*
X0108500Y0189500D01*
X0108500Y0180000D01*
X0093500Y0180000D01*
X0093500Y0189500D01*
X0095270Y0189500D02*
X0095270Y0180000D01*
X0096250Y0180000D02*
X0096250Y0189500D01*
X0097240Y0189500D02*
X0097240Y0180000D01*
X0098220Y0180000D02*
X0098220Y0189500D01*
X0099210Y0189500D02*
X0099210Y0180000D01*
X0100190Y0180000D02*
X0100190Y0189500D01*
X0101180Y0189500D02*
X0101180Y0180000D01*
X0102160Y0180000D02*
X0102160Y0189500D01*
X0103150Y0189500D02*
X0103150Y0180000D01*
X0104130Y0180000D02*
X0104130Y0189500D01*
X0105120Y0189500D02*
X0105120Y0180000D01*
X0106100Y0180000D02*
X0106100Y0189500D01*
X0107090Y0189500D02*
X0107090Y0180000D01*
X0108070Y0180000D02*
X0108070Y0189500D01*
D17*
X0107000Y0188000D03*
X0103000Y0188000D03*
X0099000Y0188000D03*
X0095000Y0188000D03*
X0095000Y0182500D03*
X0107000Y0182500D03*
X0107000Y0170500D03*
X0107000Y0165000D03*
X0103000Y0165000D03*
X0099000Y0165000D03*
X0095000Y0165000D03*
X0095000Y0170500D03*
X0139000Y0196000D02*
G75*
%LPD*%
D18*
X0127000Y0207480D03*
X0127000Y0218510D03*
D11*
X0134500Y0200500D02*
X0119500Y0200500D01*
X0119500Y0210000D01*
X0134500Y0210000D01*
X0134500Y0200500D01*
X0134070Y0200500D02*
X0134070Y0210000D01*
X0133090Y0210000D02*
X0133090Y0200500D01*
X0132100Y0200500D02*
X0132100Y0210000D01*
X0131120Y0210000D02*
X0131120Y0200500D01*
X0130130Y0200500D02*
X0130130Y0210000D01*
X0129150Y0210000D02*
X0129150Y0200500D01*
X0128160Y0200500D02*
X0128160Y0210000D01*
X0127180Y0210000D02*
X0127180Y0200500D01*
X0126190Y0200500D02*
X0126190Y0210000D01*
X0125210Y0210000D02*
X0125210Y0200500D01*
X0124220Y0200500D02*
X0124220Y0210000D01*
X0123240Y0210000D02*
X0123240Y0200500D01*
X0122250Y0200500D02*
X0122250Y0210000D01*
X0121270Y0210000D02*
X0121270Y0200500D01*
X0120280Y0200500D02*
X0120280Y0210000D01*
X0120280Y0217000D02*
X0120280Y0226500D01*
X0119500Y0226500D02*
X0134500Y0226500D01*
X0134500Y0217000D01*
X0119500Y0217000D01*
X0119500Y0226500D01*
X0121270Y0226500D02*
X0121270Y0217000D01*
X0122250Y0217000D02*
X0122250Y0226500D01*
X0123240Y0226500D02*
X0123240Y0217000D01*
X0124220Y0217000D02*
X0124220Y0226500D01*
X0125210Y0226500D02*
X0125210Y0217000D01*
X0126190Y0217000D02*
X0126190Y0226500D01*
X0127180Y0226500D02*
X0127180Y0217000D01*
X0128160Y0217000D02*
X0128160Y0226500D01*
X0129150Y0226500D02*
X0129150Y0217000D01*
X0130130Y0217000D02*
X0130130Y0226500D01*
X0131120Y0226500D02*
X0131120Y0217000D01*
X0132100Y0217000D02*
X0132100Y0226500D01*
X0133090Y0226500D02*
X0133090Y0217000D01*
X0134070Y0217000D02*
X0134070Y0226500D01*
D17*
X0133000Y0225000D03*
X0129000Y0225000D03*
X0125000Y0225000D03*
X0121000Y0225000D03*
X0121000Y0219500D03*
X0133000Y0219500D03*
X0133000Y0207500D03*
X0133000Y0202000D03*
X0129000Y0202000D03*
X0125000Y0202000D03*
X0121000Y0202000D03*
X0121000Y0207500D03*
X0087000Y0159000D02*
G75*
%LPD*%
D18*
X0075000Y0170480D03*
X0075000Y0181510D03*
D11*
X0082500Y0163500D02*
X0067500Y0163500D01*
X0067500Y0173000D01*
X0082500Y0173000D01*
X0082500Y0163500D01*
X0082070Y0163500D02*
X0082070Y0173000D01*
X0081090Y0173000D02*
X0081090Y0163500D01*
X0080100Y0163500D02*
X0080100Y0173000D01*
X0079120Y0173000D02*
X0079120Y0163500D01*
X0078130Y0163500D02*
X0078130Y0173000D01*
X0077150Y0173000D02*
X0077150Y0163500D01*
X0076160Y0163500D02*
X0076160Y0173000D01*
X0075180Y0173000D02*
X0075180Y0163500D01*
X0074190Y0163500D02*
X0074190Y0173000D01*
X0073210Y0173000D02*
X0073210Y0163500D01*
X0072220Y0163500D02*
X0072220Y0173000D01*
X0071240Y0173000D02*
X0071240Y0163500D01*
X0070250Y0163500D02*
X0070250Y0173000D01*
X0069270Y0173000D02*
X0069270Y0163500D01*
X0068280Y0163500D02*
X0068280Y0173000D01*
X0068280Y0180000D02*
X0068280Y0189500D01*
X0067500Y0189500D02*
X0082500Y0189500D01*
X0082500Y0180000D01*
X0067500Y0180000D01*
X0067500Y0189500D01*
X0069270Y0189500D02*
X0069270Y0180000D01*
X0070250Y0180000D02*
X0070250Y0189500D01*
X0071240Y0189500D02*
X0071240Y0180000D01*
X0072220Y0180000D02*
X0072220Y0189500D01*
X0073210Y0189500D02*
X0073210Y0180000D01*
X0074190Y0180000D02*
X0074190Y0189500D01*
X0075180Y0189500D02*
X0075180Y0180000D01*
X0076160Y0180000D02*
X0076160Y0189500D01*
X0077150Y0189500D02*
X0077150Y0180000D01*
X0078130Y0180000D02*
X0078130Y0189500D01*
X0079120Y0189500D02*
X0079120Y0180000D01*
X0080100Y0180000D02*
X0080100Y0189500D01*
X0081090Y0189500D02*
X0081090Y0180000D01*
X0082070Y0180000D02*
X0082070Y0189500D01*
D17*
X0081000Y0188000D03*
X0077000Y0188000D03*
X0073000Y0188000D03*
X0069000Y0188000D03*
X0069000Y0182500D03*
X0081000Y0182500D03*
X0081000Y0170500D03*
X0081000Y0165000D03*
X0077000Y0165000D03*
X0073000Y0165000D03*
X0069000Y0165000D03*
X0069000Y0170500D03*
X0113000Y0196000D02*
G75*
%LPD*%
D18*
X0101000Y0207480D03*
X0101000Y0218510D03*
D11*
X0108500Y0200500D02*
X0093500Y0200500D01*
X0093500Y0210000D01*
X0108500Y0210000D01*
X0108500Y0200500D01*
X0108070Y0200500D02*
X0108070Y0210000D01*
X0107090Y0210000D02*
X0107090Y0200500D01*
X0106100Y0200500D02*
X0106100Y0210000D01*
X0105120Y0210000D02*
X0105120Y0200500D01*
X0104130Y0200500D02*
X0104130Y0210000D01*
X0103150Y0210000D02*
X0103150Y0200500D01*
X0102160Y0200500D02*
X0102160Y0210000D01*
X0101180Y0210000D02*
X0101180Y0200500D01*
X0100190Y0200500D02*
X0100190Y0210000D01*
X0099210Y0210000D02*
X0099210Y0200500D01*
X0098220Y0200500D02*
X0098220Y0210000D01*
X0097240Y0210000D02*
X0097240Y0200500D01*
X0096250Y0200500D02*
X0096250Y0210000D01*
X0095270Y0210000D02*
X0095270Y0200500D01*
X0094280Y0200500D02*
X0094280Y0210000D01*
X0094280Y0217000D02*
X0094280Y0226500D01*
X0093500Y0226500D02*
X0108500Y0226500D01*
X0108500Y0217000D01*
X0093500Y0217000D01*
X0093500Y0226500D01*
X0095270Y0226500D02*
X0095270Y0217000D01*
X0096250Y0217000D02*
X0096250Y0226500D01*
X0097240Y0226500D02*
X0097240Y0217000D01*
X0098220Y0217000D02*
X0098220Y0226500D01*
X0099210Y0226500D02*
X0099210Y0217000D01*
X0100190Y0217000D02*
X0100190Y0226500D01*
X0101180Y0226500D02*
X0101180Y0217000D01*
X0102160Y0217000D02*
X0102160Y0226500D01*
X0103150Y0226500D02*
X0103150Y0217000D01*
X0104130Y0217000D02*
X0104130Y0226500D01*
X0105120Y0226500D02*
X0105120Y0217000D01*
X0106100Y0217000D02*
X0106100Y0226500D01*
X0107090Y0226500D02*
X0107090Y0217000D01*
X0108070Y0217000D02*
X0108070Y0226500D01*
D17*
X0107000Y0225000D03*
X0103000Y0225000D03*
X0099000Y0225000D03*
X0095000Y0225000D03*
X0095000Y0219500D03*
X0107000Y0219500D03*
X0107000Y0207500D03*
X0107000Y0202000D03*
X0103000Y0202000D03*
X0099000Y0202000D03*
X0095000Y0202000D03*
X0095000Y0207500D03*
X0061000Y0159000D02*
G75*
%LPD*%
D18*
X0049000Y0170480D03*
X0049000Y0181510D03*
D11*
X0056500Y0163500D02*
X0041500Y0163500D01*
X0041500Y0173000D01*
X0056500Y0173000D01*
X0056500Y0163500D01*
X0056070Y0163500D02*
X0056070Y0173000D01*
X0055090Y0173000D02*
X0055090Y0163500D01*
X0054100Y0163500D02*
X0054100Y0173000D01*
X0053120Y0173000D02*
X0053120Y0163500D01*
X0052130Y0163500D02*
X0052130Y0173000D01*
X0051150Y0173000D02*
X0051150Y0163500D01*
X0050160Y0163500D02*
X0050160Y0173000D01*
X0049180Y0173000D02*
X0049180Y0163500D01*
X0048190Y0163500D02*
X0048190Y0173000D01*
X0047210Y0173000D02*
X0047210Y0163500D01*
X0046220Y0163500D02*
X0046220Y0173000D01*
X0045240Y0173000D02*
X0045240Y0163500D01*
X0044250Y0163500D02*
X0044250Y0173000D01*
X0043270Y0173000D02*
X0043270Y0163500D01*
X0042280Y0163500D02*
X0042280Y0173000D01*
X0042280Y0180000D02*
X0042280Y0189500D01*
X0041500Y0189500D02*
X0056500Y0189500D01*
X0056500Y0180000D01*
X0041500Y0180000D01*
X0041500Y0189500D01*
X0043270Y0189500D02*
X0043270Y0180000D01*
X0044250Y0180000D02*
X0044250Y0189500D01*
X0045240Y0189500D02*
X0045240Y0180000D01*
X0046220Y0180000D02*
X0046220Y0189500D01*
X0047210Y0189500D02*
X0047210Y0180000D01*
X0048190Y0180000D02*
X0048190Y0189500D01*
X0049180Y0189500D02*
X0049180Y0180000D01*
X0050160Y0180000D02*
X0050160Y0189500D01*
X0051150Y0189500D02*
X0051150Y0180000D01*
X0052130Y0180000D02*
X0052130Y0189500D01*
X0053120Y0189500D02*
X0053120Y0180000D01*
X0054100Y0180000D02*
X0054100Y0189500D01*
X0055090Y0189500D02*
X0055090Y0180000D01*
X0056070Y0180000D02*
X0056070Y0189500D01*
D17*
X0055000Y0188000D03*
X0051000Y0188000D03*
X0047000Y0188000D03*
X0043000Y0188000D03*
X0043000Y0182500D03*
X0055000Y0182500D03*
X0055000Y0170500D03*
X0055000Y0165000D03*
X0051000Y0165000D03*
X0047000Y0165000D03*
X0043000Y0165000D03*
X0043000Y0170500D03*
X0087000Y0196000D02*
G75*
%LPD*%
D18*
X0075000Y0207480D03*
X0075000Y0218510D03*
D11*
X0082500Y0200500D02*
X0067500Y0200500D01*
X0067500Y0210000D01*
X0082500Y0210000D01*
X0082500Y0200500D01*
X0082070Y0200500D02*
X0082070Y0210000D01*
X0081090Y0210000D02*
X0081090Y0200500D01*
X0080100Y0200500D02*
X0080100Y0210000D01*
X0079120Y0210000D02*
X0079120Y0200500D01*
X0078130Y0200500D02*
X0078130Y0210000D01*
X0077150Y0210000D02*
X0077150Y0200500D01*
X0076160Y0200500D02*
X0076160Y0210000D01*
X0075180Y0210000D02*
X0075180Y0200500D01*
X0074190Y0200500D02*
X0074190Y0210000D01*
X0073210Y0210000D02*
X0073210Y0200500D01*
X0072220Y0200500D02*
X0072220Y0210000D01*
X0071240Y0210000D02*
X0071240Y0200500D01*
X0070250Y0200500D02*
X0070250Y0210000D01*
X0069270Y0210000D02*
X0069270Y0200500D01*
X0068280Y0200500D02*
X0068280Y0210000D01*
X0068280Y0217000D02*
X0068280Y0226500D01*
X0067500Y0226500D02*
X0082500Y0226500D01*
X0082500Y0217000D01*
X0067500Y0217000D01*
X0067500Y0226500D01*
X0069270Y0226500D02*
X0069270Y0217000D01*
X0070250Y0217000D02*
X0070250Y0226500D01*
X0071240Y0226500D02*
X0071240Y0217000D01*
X0072220Y0217000D02*
X0072220Y0226500D01*
X0073210Y0226500D02*
X0073210Y0217000D01*
X0074190Y0217000D02*
X0074190Y0226500D01*
X0075180Y0226500D02*
X0075180Y0217000D01*
X0076160Y0217000D02*
X0076160Y0226500D01*
X0077150Y0226500D02*
X0077150Y0217000D01*
X0078130Y0217000D02*
X0078130Y0226500D01*
X0079120Y0226500D02*
X0079120Y0217000D01*
X0080100Y0217000D02*
X0080100Y0226500D01*
X0081090Y0226500D02*
X0081090Y0217000D01*
X0082070Y0217000D02*
X0082070Y0226500D01*
D17*
X0081000Y0225000D03*
X0077000Y0225000D03*
X0073000Y0225000D03*
X0069000Y0225000D03*
X0069000Y0219500D03*
X0081000Y0219500D03*
X0081000Y0207500D03*
X0081000Y0202000D03*
X0077000Y0202000D03*
X0073000Y0202000D03*
X0069000Y0202000D03*
X0069000Y0207500D03*
X0061000Y0196000D02*
G75*
%LPD*%
D18*
X0049000Y0207480D03*
X0049000Y0218510D03*
D11*
X0056500Y0200500D02*
X0041500Y0200500D01*
X0041500Y0210000D01*
X0056500Y0210000D01*
X0056500Y0200500D01*
X0056070Y0200500D02*
X0056070Y0210000D01*
X0055090Y0210000D02*
X0055090Y0200500D01*
X0054100Y0200500D02*
X0054100Y0210000D01*
X0053120Y0210000D02*
X0053120Y0200500D01*
X0052130Y0200500D02*
X0052130Y0210000D01*
X0051150Y0210000D02*
X0051150Y0200500D01*
X0050160Y0200500D02*
X0050160Y0210000D01*
X0049180Y0210000D02*
X0049180Y0200500D01*
X0048190Y0200500D02*
X0048190Y0210000D01*
X0047210Y0210000D02*
X0047210Y0200500D01*
X0046220Y0200500D02*
X0046220Y0210000D01*
X0045240Y0210000D02*
X0045240Y0200500D01*
X0044250Y0200500D02*
X0044250Y0210000D01*
X0043270Y0210000D02*
X0043270Y0200500D01*
X0042280Y0200500D02*
X0042280Y0210000D01*
X0042280Y0217000D02*
X0042280Y0226500D01*
X0041500Y0226500D02*
X0056500Y0226500D01*
X0056500Y0217000D01*
X0041500Y0217000D01*
X0041500Y0226500D01*
X0043270Y0226500D02*
X0043270Y0217000D01*
X0044250Y0217000D02*
X0044250Y0226500D01*
X0045240Y0226500D02*
X0045240Y0217000D01*
X0046220Y0217000D02*
X0046220Y0226500D01*
X0047210Y0226500D02*
X0047210Y0217000D01*
X0048190Y0217000D02*
X0048190Y0226500D01*
X0049180Y0226500D02*
X0049180Y0217000D01*
X0050160Y0217000D02*
X0050160Y0226500D01*
X0051150Y0226500D02*
X0051150Y0217000D01*
X0052130Y0217000D02*
X0052130Y0226500D01*
X0053120Y0226500D02*
X0053120Y0217000D01*
X0054100Y0217000D02*
X0054100Y0226500D01*
X0055090Y0226500D02*
X0055090Y0217000D01*
X0056070Y0217000D02*
X0056070Y0226500D01*
D17*
X0055000Y0225000D03*
X0051000Y0225000D03*
X0047000Y0225000D03*
X0043000Y0225000D03*
X0043000Y0219500D03*
X0055000Y0219500D03*
X0055000Y0207500D03*
X0055000Y0202000D03*
X0051000Y0202000D03*
X0047000Y0202000D03*
X0043000Y0202000D03*
X0043000Y0207500D03*
X0035000Y0159000D02*
G75*
%LPD*%
D18*
X0023000Y0170480D03*
X0023000Y0181510D03*
D11*
X0030500Y0163500D02*
X0015500Y0163500D01*
X0015500Y0173000D01*
X0030500Y0173000D01*
X0030500Y0163500D01*
X0030070Y0163500D02*
X0030070Y0173000D01*
X0029090Y0173000D02*
X0029090Y0163500D01*
X0028100Y0163500D02*
X0028100Y0173000D01*
X0027120Y0173000D02*
X0027120Y0163500D01*
X0026130Y0163500D02*
X0026130Y0173000D01*
X0025150Y0173000D02*
X0025150Y0163500D01*
X0024160Y0163500D02*
X0024160Y0173000D01*
X0023180Y0173000D02*
X0023180Y0163500D01*
X0022190Y0163500D02*
X0022190Y0173000D01*
X0021210Y0173000D02*
X0021210Y0163500D01*
X0020220Y0163500D02*
X0020220Y0173000D01*
X0019240Y0173000D02*
X0019240Y0163500D01*
X0018250Y0163500D02*
X0018250Y0173000D01*
X0017270Y0173000D02*
X0017270Y0163500D01*
X0016280Y0163500D02*
X0016280Y0173000D01*
X0016280Y0180000D02*
X0016280Y0189500D01*
X0015500Y0189500D02*
X0030500Y0189500D01*
X0030500Y0180000D01*
X0015500Y0180000D01*
X0015500Y0189500D01*
X0017270Y0189500D02*
X0017270Y0180000D01*
X0018250Y0180000D02*
X0018250Y0189500D01*
X0019240Y0189500D02*
X0019240Y0180000D01*
X0020220Y0180000D02*
X0020220Y0189500D01*
X0021210Y0189500D02*
X0021210Y0180000D01*
X0022190Y0180000D02*
X0022190Y0189500D01*
X0023180Y0189500D02*
X0023180Y0180000D01*
X0024160Y0180000D02*
X0024160Y0189500D01*
X0025150Y0189500D02*
X0025150Y0180000D01*
X0026130Y0180000D02*
X0026130Y0189500D01*
X0027120Y0189500D02*
X0027120Y0180000D01*
X0028100Y0180000D02*
X0028100Y0189500D01*
X0029090Y0189500D02*
X0029090Y0180000D01*
X0030070Y0180000D02*
X0030070Y0189500D01*
D17*
X0029000Y0188000D03*
X0025000Y0188000D03*
X0021000Y0188000D03*
X0017000Y0188000D03*
X0017000Y0182500D03*
X0029000Y0182500D03*
X0029000Y0170500D03*
X0029000Y0165000D03*
X0025000Y0165000D03*
X0021000Y0165000D03*
X0017000Y0165000D03*
X0017000Y0170500D03*
X0035000Y0196000D02*
G75*
%LPD*%
D18*
X0023000Y0207480D03*
X0023000Y0218510D03*
D11*
X0030500Y0200500D02*
X0015500Y0200500D01*
X0015500Y0210000D01*
X0030500Y0210000D01*
X0030500Y0200500D01*
X0030070Y0200500D02*
X0030070Y0210000D01*
X0029090Y0210000D02*
X0029090Y0200500D01*
X0028100Y0200500D02*
X0028100Y0210000D01*
X0027120Y0210000D02*
X0027120Y0200500D01*
X0026130Y0200500D02*
X0026130Y0210000D01*
X0025150Y0210000D02*
X0025150Y0200500D01*
X0024160Y0200500D02*
X0024160Y0210000D01*
X0023180Y0210000D02*
X0023180Y0200500D01*
X0022190Y0200500D02*
X0022190Y0210000D01*
X0021210Y0210000D02*
X0021210Y0200500D01*
X0020220Y0200500D02*
X0020220Y0210000D01*
X0019240Y0210000D02*
X0019240Y0200500D01*
X0018250Y0200500D02*
X0018250Y0210000D01*
X0017270Y0210000D02*
X0017270Y0200500D01*
X0016280Y0200500D02*
X0016280Y0210000D01*
X0016280Y0217000D02*
X0016280Y0226500D01*
X0015500Y0226500D02*
X0030500Y0226500D01*
X0030500Y0217000D01*
X0015500Y0217000D01*
X0015500Y0226500D01*
X0017270Y0226500D02*
X0017270Y0217000D01*
X0018250Y0217000D02*
X0018250Y0226500D01*
X0019240Y0226500D02*
X0019240Y0217000D01*
X0020220Y0217000D02*
X0020220Y0226500D01*
X0021210Y0226500D02*
X0021210Y0217000D01*
X0022190Y0217000D02*
X0022190Y0226500D01*
X0023180Y0226500D02*
X0023180Y0217000D01*
X0024160Y0217000D02*
X0024160Y0226500D01*
X0025150Y0226500D02*
X0025150Y0217000D01*
X0026130Y0217000D02*
X0026130Y0226500D01*
X0027120Y0226500D02*
X0027120Y0217000D01*
X0028100Y0217000D02*
X0028100Y0226500D01*
X0029090Y0226500D02*
X0029090Y0217000D01*
X0030070Y0217000D02*
X0030070Y0226500D01*
D17*
X0029000Y0225000D03*
X0025000Y0225000D03*
X0021000Y0225000D03*
X0017000Y0225000D03*
X0017000Y0219500D03*
X0029000Y0219500D03*
X0029000Y0207500D03*
X0029000Y0202000D03*
X0025000Y0202000D03*
X0021000Y0202000D03*
X0017000Y0202000D03*
X0017000Y0207500D03*
X0141000Y0159000D02*
G75*
%LPD*%
X0269000Y0159000D02*
G75*
%LPD*%
D18*
X0257000Y0170480D03*
X0257000Y0181510D03*
D11*
X0264500Y0163500D02*
X0249500Y0163500D01*
X0249500Y0173000D01*
X0264500Y0173000D01*
X0264500Y0163500D01*
X0264070Y0163500D02*
X0264070Y0173000D01*
X0263090Y0173000D02*
X0263090Y0163500D01*
X0262100Y0163500D02*
X0262100Y0173000D01*
X0261120Y0173000D02*
X0261120Y0163500D01*
X0260130Y0163500D02*
X0260130Y0173000D01*
X0259150Y0173000D02*
X0259150Y0163500D01*
X0258160Y0163500D02*
X0258160Y0173000D01*
X0257180Y0173000D02*
X0257180Y0163500D01*
X0256190Y0163500D02*
X0256190Y0173000D01*
X0255210Y0173000D02*
X0255210Y0163500D01*
X0254220Y0163500D02*
X0254220Y0173000D01*
X0253240Y0173000D02*
X0253240Y0163500D01*
X0252250Y0163500D02*
X0252250Y0173000D01*
X0251270Y0173000D02*
X0251270Y0163500D01*
X0250280Y0163500D02*
X0250280Y0173000D01*
X0250280Y0180000D02*
X0250280Y0189500D01*
X0249500Y0189500D02*
X0264500Y0189500D01*
X0264500Y0180000D01*
X0249500Y0180000D01*
X0249500Y0189500D01*
X0251270Y0189500D02*
X0251270Y0180000D01*
X0252250Y0180000D02*
X0252250Y0189500D01*
X0253240Y0189500D02*
X0253240Y0180000D01*
X0254220Y0180000D02*
X0254220Y0189500D01*
X0255210Y0189500D02*
X0255210Y0180000D01*
X0256190Y0180000D02*
X0256190Y0189500D01*
X0257180Y0189500D02*
X0257180Y0180000D01*
X0258160Y0180000D02*
X0258160Y0189500D01*
X0259150Y0189500D02*
X0259150Y0180000D01*
X0260130Y0180000D02*
X0260130Y0189500D01*
X0261120Y0189500D02*
X0261120Y0180000D01*
X0262100Y0180000D02*
X0262100Y0189500D01*
X0263090Y0189500D02*
X0263090Y0180000D01*
X0264070Y0180000D02*
X0264070Y0189500D01*
D17*
X0263000Y0188000D03*
X0259000Y0188000D03*
X0255000Y0188000D03*
X0251000Y0188000D03*
X0251000Y0182500D03*
X0263000Y0182500D03*
X0263000Y0170500D03*
X0263000Y0165000D03*
X0259000Y0165000D03*
X0255000Y0165000D03*
X0251000Y0165000D03*
X0251000Y0170500D03*
X0243000Y0159000D02*
G75*
%LPD*%
D18*
X0231000Y0170480D03*
X0231000Y0181510D03*
D11*
X0238500Y0163500D02*
X0223500Y0163500D01*
X0223500Y0173000D01*
X0238500Y0173000D01*
X0238500Y0163500D01*
X0238070Y0163500D02*
X0238070Y0173000D01*
X0237090Y0173000D02*
X0237090Y0163500D01*
X0236100Y0163500D02*
X0236100Y0173000D01*
X0235120Y0173000D02*
X0235120Y0163500D01*
X0234130Y0163500D02*
X0234130Y0173000D01*
X0233150Y0173000D02*
X0233150Y0163500D01*
X0232160Y0163500D02*
X0232160Y0173000D01*
X0231180Y0173000D02*
X0231180Y0163500D01*
X0230190Y0163500D02*
X0230190Y0173000D01*
X0229210Y0173000D02*
X0229210Y0163500D01*
X0228220Y0163500D02*
X0228220Y0173000D01*
X0227240Y0173000D02*
X0227240Y0163500D01*
X0226250Y0163500D02*
X0226250Y0173000D01*
X0225270Y0173000D02*
X0225270Y0163500D01*
X0224280Y0163500D02*
X0224280Y0173000D01*
X0224280Y0180000D02*
X0224280Y0189500D01*
X0223500Y0189500D02*
X0238500Y0189500D01*
X0238500Y0180000D01*
X0223500Y0180000D01*
X0223500Y0189500D01*
X0225270Y0189500D02*
X0225270Y0180000D01*
X0226250Y0180000D02*
X0226250Y0189500D01*
X0227240Y0189500D02*
X0227240Y0180000D01*
X0228220Y0180000D02*
X0228220Y0189500D01*
X0229210Y0189500D02*
X0229210Y0180000D01*
X0230190Y0180000D02*
X0230190Y0189500D01*
X0231180Y0189500D02*
X0231180Y0180000D01*
X0232160Y0180000D02*
X0232160Y0189500D01*
X0233150Y0189500D02*
X0233150Y0180000D01*
X0234130Y0180000D02*
X0234130Y0189500D01*
X0235120Y0189500D02*
X0235120Y0180000D01*
X0236100Y0180000D02*
X0236100Y0189500D01*
X0237090Y0189500D02*
X0237090Y0180000D01*
X0238070Y0180000D02*
X0238070Y0189500D01*
D17*
X0237000Y0188000D03*
X0233000Y0188000D03*
X0229000Y0188000D03*
X0225000Y0188000D03*
X0225000Y0182500D03*
X0237000Y0182500D03*
X0237000Y0170500D03*
X0237000Y0165000D03*
X0233000Y0165000D03*
X0229000Y0165000D03*
X0225000Y0165000D03*
X0225000Y0170500D03*
X0269000Y0196000D02*
G75*
%LPD*%
D18*
X0257000Y0207480D03*
X0257000Y0218510D03*
D11*
X0264500Y0200500D02*
X0249500Y0200500D01*
X0249500Y0210000D01*
X0264500Y0210000D01*
X0264500Y0200500D01*
X0264070Y0200500D02*
X0264070Y0210000D01*
X0263090Y0210000D02*
X0263090Y0200500D01*
X0262100Y0200500D02*
X0262100Y0210000D01*
X0261120Y0210000D02*
X0261120Y0200500D01*
X0260130Y0200500D02*
X0260130Y0210000D01*
X0259150Y0210000D02*
X0259150Y0200500D01*
X0258160Y0200500D02*
X0258160Y0210000D01*
X0257180Y0210000D02*
X0257180Y0200500D01*
X0256190Y0200500D02*
X0256190Y0210000D01*
X0255210Y0210000D02*
X0255210Y0200500D01*
X0254220Y0200500D02*
X0254220Y0210000D01*
X0253240Y0210000D02*
X0253240Y0200500D01*
X0252250Y0200500D02*
X0252250Y0210000D01*
X0251270Y0210000D02*
X0251270Y0200500D01*
X0250280Y0200500D02*
X0250280Y0210000D01*
X0250280Y0217000D02*
X0250280Y0226500D01*
X0249500Y0226500D02*
X0264500Y0226500D01*
X0264500Y0217000D01*
X0249500Y0217000D01*
X0249500Y0226500D01*
X0251270Y0226500D02*
X0251270Y0217000D01*
X0252250Y0217000D02*
X0252250Y0226500D01*
X0253240Y0226500D02*
X0253240Y0217000D01*
X0254220Y0217000D02*
X0254220Y0226500D01*
X0255210Y0226500D02*
X0255210Y0217000D01*
X0256190Y0217000D02*
X0256190Y0226500D01*
X0257180Y0226500D02*
X0257180Y0217000D01*
X0258160Y0217000D02*
X0258160Y0226500D01*
X0259150Y0226500D02*
X0259150Y0217000D01*
X0260130Y0217000D02*
X0260130Y0226500D01*
X0261120Y0226500D02*
X0261120Y0217000D01*
X0262100Y0217000D02*
X0262100Y0226500D01*
X0263090Y0226500D02*
X0263090Y0217000D01*
X0264070Y0217000D02*
X0264070Y0226500D01*
D17*
X0263000Y0225000D03*
X0259000Y0225000D03*
X0255000Y0225000D03*
X0251000Y0225000D03*
X0251000Y0219500D03*
X0263000Y0219500D03*
X0263000Y0207500D03*
X0263000Y0202000D03*
X0259000Y0202000D03*
X0255000Y0202000D03*
X0251000Y0202000D03*
X0251000Y0207500D03*
X0217000Y0159000D02*
G75*
%LPD*%
D18*
X0205000Y0170480D03*
X0205000Y0181510D03*
D11*
X0212500Y0163500D02*
X0197500Y0163500D01*
X0197500Y0173000D01*
X0212500Y0173000D01*
X0212500Y0163500D01*
X0212070Y0163500D02*
X0212070Y0173000D01*
X0211090Y0173000D02*
X0211090Y0163500D01*
X0210100Y0163500D02*
X0210100Y0173000D01*
X0209120Y0173000D02*
X0209120Y0163500D01*
X0208130Y0163500D02*
X0208130Y0173000D01*
X0207150Y0173000D02*
X0207150Y0163500D01*
X0206160Y0163500D02*
X0206160Y0173000D01*
X0205180Y0173000D02*
X0205180Y0163500D01*
X0204190Y0163500D02*
X0204190Y0173000D01*
X0203210Y0173000D02*
X0203210Y0163500D01*
X0202220Y0163500D02*
X0202220Y0173000D01*
X0201240Y0173000D02*
X0201240Y0163500D01*
X0200250Y0163500D02*
X0200250Y0173000D01*
X0199270Y0173000D02*
X0199270Y0163500D01*
X0198280Y0163500D02*
X0198280Y0173000D01*
X0198280Y0180000D02*
X0198280Y0189500D01*
X0197500Y0189500D02*
X0212500Y0189500D01*
X0212500Y0180000D01*
X0197500Y0180000D01*
X0197500Y0189500D01*
X0199270Y0189500D02*
X0199270Y0180000D01*
X0200250Y0180000D02*
X0200250Y0189500D01*
X0201240Y0189500D02*
X0201240Y0180000D01*
X0202220Y0180000D02*
X0202220Y0189500D01*
X0203210Y0189500D02*
X0203210Y0180000D01*
X0204190Y0180000D02*
X0204190Y0189500D01*
X0205180Y0189500D02*
X0205180Y0180000D01*
X0206160Y0180000D02*
X0206160Y0189500D01*
X0207150Y0189500D02*
X0207150Y0180000D01*
X0208130Y0180000D02*
X0208130Y0189500D01*
X0209120Y0189500D02*
X0209120Y0180000D01*
X0210100Y0180000D02*
X0210100Y0189500D01*
X0211090Y0189500D02*
X0211090Y0180000D01*
X0212070Y0180000D02*
X0212070Y0189500D01*
D17*
X0211000Y0188000D03*
X0207000Y0188000D03*
X0203000Y0188000D03*
X0199000Y0188000D03*
X0199000Y0182500D03*
X0211000Y0182500D03*
X0211000Y0170500D03*
X0211000Y0165000D03*
X0207000Y0165000D03*
X0203000Y0165000D03*
X0199000Y0165000D03*
X0199000Y0170500D03*
X0243000Y0196000D02*
G75*
%LPD*%
D18*
X0231000Y0207480D03*
X0231000Y0218510D03*
D11*
X0238500Y0200500D02*
X0223500Y0200500D01*
X0223500Y0210000D01*
X0238500Y0210000D01*
X0238500Y0200500D01*
X0238070Y0200500D02*
X0238070Y0210000D01*
X0237090Y0210000D02*
X0237090Y0200500D01*
X0236100Y0200500D02*
X0236100Y0210000D01*
X0235120Y0210000D02*
X0235120Y0200500D01*
X0234130Y0200500D02*
X0234130Y0210000D01*
X0233150Y0210000D02*
X0233150Y0200500D01*
X0232160Y0200500D02*
X0232160Y0210000D01*
X0231180Y0210000D02*
X0231180Y0200500D01*
X0230190Y0200500D02*
X0230190Y0210000D01*
X0229210Y0210000D02*
X0229210Y0200500D01*
X0228220Y0200500D02*
X0228220Y0210000D01*
X0227240Y0210000D02*
X0227240Y0200500D01*
X0226250Y0200500D02*
X0226250Y0210000D01*
X0225270Y0210000D02*
X0225270Y0200500D01*
X0224280Y0200500D02*
X0224280Y0210000D01*
X0224280Y0217000D02*
X0224280Y0226500D01*
X0223500Y0226500D02*
X0238500Y0226500D01*
X0238500Y0217000D01*
X0223500Y0217000D01*
X0223500Y0226500D01*
X0225270Y0226500D02*
X0225270Y0217000D01*
X0226250Y0217000D02*
X0226250Y0226500D01*
X0227240Y0226500D02*
X0227240Y0217000D01*
X0228220Y0217000D02*
X0228220Y0226500D01*
X0229210Y0226500D02*
X0229210Y0217000D01*
X0230190Y0217000D02*
X0230190Y0226500D01*
X0231180Y0226500D02*
X0231180Y0217000D01*
X0232160Y0217000D02*
X0232160Y0226500D01*
X0233150Y0226500D02*
X0233150Y0217000D01*
X0234130Y0217000D02*
X0234130Y0226500D01*
X0235120Y0226500D02*
X0235120Y0217000D01*
X0236100Y0217000D02*
X0236100Y0226500D01*
X0237090Y0226500D02*
X0237090Y0217000D01*
X0238070Y0217000D02*
X0238070Y0226500D01*
D17*
X0237000Y0225000D03*
X0233000Y0225000D03*
X0229000Y0225000D03*
X0225000Y0225000D03*
X0225000Y0219500D03*
X0237000Y0219500D03*
X0237000Y0207500D03*
X0237000Y0202000D03*
X0233000Y0202000D03*
X0229000Y0202000D03*
X0225000Y0202000D03*
X0225000Y0207500D03*
X0191000Y0159000D02*
G75*
%LPD*%
D18*
X0179000Y0170480D03*
X0179000Y0181510D03*
D11*
X0186500Y0163500D02*
X0171500Y0163500D01*
X0171500Y0173000D01*
X0186500Y0173000D01*
X0186500Y0163500D01*
X0186070Y0163500D02*
X0186070Y0173000D01*
X0185090Y0173000D02*
X0185090Y0163500D01*
X0184100Y0163500D02*
X0184100Y0173000D01*
X0183120Y0173000D02*
X0183120Y0163500D01*
X0182130Y0163500D02*
X0182130Y0173000D01*
X0181150Y0173000D02*
X0181150Y0163500D01*
X0180160Y0163500D02*
X0180160Y0173000D01*
X0179180Y0173000D02*
X0179180Y0163500D01*
X0178190Y0163500D02*
X0178190Y0173000D01*
X0177210Y0173000D02*
X0177210Y0163500D01*
X0176220Y0163500D02*
X0176220Y0173000D01*
X0175240Y0173000D02*
X0175240Y0163500D01*
X0174250Y0163500D02*
X0174250Y0173000D01*
X0173270Y0173000D02*
X0173270Y0163500D01*
X0172280Y0163500D02*
X0172280Y0173000D01*
X0172280Y0180000D02*
X0172280Y0189500D01*
X0171500Y0189500D02*
X0186500Y0189500D01*
X0186500Y0180000D01*
X0171500Y0180000D01*
X0171500Y0189500D01*
X0173270Y0189500D02*
X0173270Y0180000D01*
X0174250Y0180000D02*
X0174250Y0189500D01*
X0175240Y0189500D02*
X0175240Y0180000D01*
X0176220Y0180000D02*
X0176220Y0189500D01*
X0177210Y0189500D02*
X0177210Y0180000D01*
X0178190Y0180000D02*
X0178190Y0189500D01*
X0179180Y0189500D02*
X0179180Y0180000D01*
X0180160Y0180000D02*
X0180160Y0189500D01*
X0181150Y0189500D02*
X0181150Y0180000D01*
X0182130Y0180000D02*
X0182130Y0189500D01*
X0183120Y0189500D02*
X0183120Y0180000D01*
X0184100Y0180000D02*
X0184100Y0189500D01*
X0185090Y0189500D02*
X0185090Y0180000D01*
X0186070Y0180000D02*
X0186070Y0189500D01*
D17*
X0185000Y0188000D03*
X0181000Y0188000D03*
X0177000Y0188000D03*
X0173000Y0188000D03*
X0173000Y0182500D03*
X0185000Y0182500D03*
X0185000Y0170500D03*
X0185000Y0165000D03*
X0181000Y0165000D03*
X0177000Y0165000D03*
X0173000Y0165000D03*
X0173000Y0170500D03*
X0217000Y0196000D02*
G75*
%LPD*%
D18*
X0205000Y0207480D03*
X0205000Y0218510D03*
D11*
X0212500Y0200500D02*
X0197500Y0200500D01*
X0197500Y0210000D01*
X0212500Y0210000D01*
X0212500Y0200500D01*
X0212070Y0200500D02*
X0212070Y0210000D01*
X0211090Y0210000D02*
X0211090Y0200500D01*
X0210100Y0200500D02*
X0210100Y0210000D01*
X0209120Y0210000D02*
X0209120Y0200500D01*
X0208130Y0200500D02*
X0208130Y0210000D01*
X0207150Y0210000D02*
X0207150Y0200500D01*
X0206160Y0200500D02*
X0206160Y0210000D01*
X0205180Y0210000D02*
X0205180Y0200500D01*
X0204190Y0200500D02*
X0204190Y0210000D01*
X0203210Y0210000D02*
X0203210Y0200500D01*
X0202220Y0200500D02*
X0202220Y0210000D01*
X0201240Y0210000D02*
X0201240Y0200500D01*
X0200250Y0200500D02*
X0200250Y0210000D01*
X0199270Y0210000D02*
X0199270Y0200500D01*
X0198280Y0200500D02*
X0198280Y0210000D01*
X0198280Y0217000D02*
X0198280Y0226500D01*
X0197500Y0226500D02*
X0212500Y0226500D01*
X0212500Y0217000D01*
X0197500Y0217000D01*
X0197500Y0226500D01*
X0199270Y0226500D02*
X0199270Y0217000D01*
X0200250Y0217000D02*
X0200250Y0226500D01*
X0201240Y0226500D02*
X0201240Y0217000D01*
X0202220Y0217000D02*
X0202220Y0226500D01*
X0203210Y0226500D02*
X0203210Y0217000D01*
X0204190Y0217000D02*
X0204190Y0226500D01*
X0205180Y0226500D02*
X0205180Y0217000D01*
X0206160Y0217000D02*
X0206160Y0226500D01*
X0207150Y0226500D02*
X0207150Y0217000D01*
X0208130Y0217000D02*
X0208130Y0226500D01*
X0209120Y0226500D02*
X0209120Y0217000D01*
X0210100Y0217000D02*
X0210100Y0226500D01*
X0211090Y0226500D02*
X0211090Y0217000D01*
X0212070Y0217000D02*
X0212070Y0226500D01*
D17*
X0211000Y0225000D03*
X0207000Y0225000D03*
X0203000Y0225000D03*
X0199000Y0225000D03*
X0199000Y0219500D03*
X0211000Y0219500D03*
X0211000Y0207500D03*
X0211000Y0202000D03*
X0207000Y0202000D03*
X0203000Y0202000D03*
X0199000Y0202000D03*
X0199000Y0207500D03*
X0191000Y0196000D02*
G75*
%LPD*%
D18*
X0179000Y0207480D03*
X0179000Y0218510D03*
D11*
X0186500Y0200500D02*
X0171500Y0200500D01*
X0171500Y0210000D01*
X0186500Y0210000D01*
X0186500Y0200500D01*
X0186070Y0200500D02*
X0186070Y0210000D01*
X0185090Y0210000D02*
X0185090Y0200500D01*
X0184100Y0200500D02*
X0184100Y0210000D01*
X0183120Y0210000D02*
X0183120Y0200500D01*
X0182130Y0200500D02*
X0182130Y0210000D01*
X0181150Y0210000D02*
X0181150Y0200500D01*
X0180160Y0200500D02*
X0180160Y0210000D01*
X0179180Y0210000D02*
X0179180Y0200500D01*
X0178190Y0200500D02*
X0178190Y0210000D01*
X0177210Y0210000D02*
X0177210Y0200500D01*
X0176220Y0200500D02*
X0176220Y0210000D01*
X0175240Y0210000D02*
X0175240Y0200500D01*
X0174250Y0200500D02*
X0174250Y0210000D01*
X0173270Y0210000D02*
X0173270Y0200500D01*
X0172280Y0200500D02*
X0172280Y0210000D01*
X0172280Y0217000D02*
X0172280Y0226500D01*
X0171500Y0226500D02*
X0186500Y0226500D01*
X0186500Y0217000D01*
X0171500Y0217000D01*
X0171500Y0226500D01*
X0173270Y0226500D02*
X0173270Y0217000D01*
X0174250Y0217000D02*
X0174250Y0226500D01*
X0175240Y0226500D02*
X0175240Y0217000D01*
X0176220Y0217000D02*
X0176220Y0226500D01*
X0177210Y0226500D02*
X0177210Y0217000D01*
X0178190Y0217000D02*
X0178190Y0226500D01*
X0179180Y0226500D02*
X0179180Y0217000D01*
X0180160Y0217000D02*
X0180160Y0226500D01*
X0181150Y0226500D02*
X0181150Y0217000D01*
X0182130Y0217000D02*
X0182130Y0226500D01*
X0183120Y0226500D02*
X0183120Y0217000D01*
X0184100Y0217000D02*
X0184100Y0226500D01*
X0185090Y0226500D02*
X0185090Y0217000D01*
X0186070Y0217000D02*
X0186070Y0226500D01*
D17*
X0185000Y0225000D03*
X0181000Y0225000D03*
X0177000Y0225000D03*
X0173000Y0225000D03*
X0173000Y0219500D03*
X0185000Y0219500D03*
X0185000Y0207500D03*
X0185000Y0202000D03*
X0181000Y0202000D03*
X0177000Y0202000D03*
X0173000Y0202000D03*
X0173000Y0207500D03*
X0165000Y0159000D02*
G75*
%LPD*%
D18*
X0153000Y0170480D03*
X0153000Y0181510D03*
D11*
X0160500Y0163500D02*
X0145500Y0163500D01*
X0145500Y0173000D01*
X0160500Y0173000D01*
X0160500Y0163500D01*
X0160070Y0163500D02*
X0160070Y0173000D01*
X0159090Y0173000D02*
X0159090Y0163500D01*
X0158100Y0163500D02*
X0158100Y0173000D01*
X0157120Y0173000D02*
X0157120Y0163500D01*
X0156130Y0163500D02*
X0156130Y0173000D01*
X0155150Y0173000D02*
X0155150Y0163500D01*
X0154160Y0163500D02*
X0154160Y0173000D01*
X0153180Y0173000D02*
X0153180Y0163500D01*
X0152190Y0163500D02*
X0152190Y0173000D01*
X0151210Y0173000D02*
X0151210Y0163500D01*
X0150220Y0163500D02*
X0150220Y0173000D01*
X0149240Y0173000D02*
X0149240Y0163500D01*
X0148250Y0163500D02*
X0148250Y0173000D01*
X0147270Y0173000D02*
X0147270Y0163500D01*
X0146280Y0163500D02*
X0146280Y0173000D01*
X0146280Y0180000D02*
X0146280Y0189500D01*
X0145500Y0189500D02*
X0160500Y0189500D01*
X0160500Y0180000D01*
X0145500Y0180000D01*
X0145500Y0189500D01*
X0147270Y0189500D02*
X0147270Y0180000D01*
X0148250Y0180000D02*
X0148250Y0189500D01*
X0149240Y0189500D02*
X0149240Y0180000D01*
X0150220Y0180000D02*
X0150220Y0189500D01*
X0151210Y0189500D02*
X0151210Y0180000D01*
X0152190Y0180000D02*
X0152190Y0189500D01*
X0153180Y0189500D02*
X0153180Y0180000D01*
X0154160Y0180000D02*
X0154160Y0189500D01*
X0155150Y0189500D02*
X0155150Y0180000D01*
X0156130Y0180000D02*
X0156130Y0189500D01*
X0157120Y0189500D02*
X0157120Y0180000D01*
X0158100Y0180000D02*
X0158100Y0189500D01*
X0159090Y0189500D02*
X0159090Y0180000D01*
X0160070Y0180000D02*
X0160070Y0189500D01*
D17*
X0159000Y0188000D03*
X0155000Y0188000D03*
X0151000Y0188000D03*
X0147000Y0188000D03*
X0147000Y0182500D03*
X0159000Y0182500D03*
X0159000Y0170500D03*
X0159000Y0165000D03*
X0155000Y0165000D03*
X0151000Y0165000D03*
X0147000Y0165000D03*
X0147000Y0170500D03*
X0165000Y0196000D02*
G75*
%LPD*%
D18*
X0153000Y0207480D03*
X0153000Y0218510D03*
D11*
X0160500Y0200500D02*
X0145500Y0200500D01*
X0145500Y0210000D01*
X0160500Y0210000D01*
X0160500Y0200500D01*
X0160070Y0200500D02*
X0160070Y0210000D01*
X0159090Y0210000D02*
X0159090Y0200500D01*
X0158100Y0200500D02*
X0158100Y0210000D01*
X0157120Y0210000D02*
X0157120Y0200500D01*
X0156130Y0200500D02*
X0156130Y0210000D01*
X0155150Y0210000D02*
X0155150Y0200500D01*
X0154160Y0200500D02*
X0154160Y0210000D01*
X0153180Y0210000D02*
X0153180Y0200500D01*
X0152190Y0200500D02*
X0152190Y0210000D01*
X0151210Y0210000D02*
X0151210Y0200500D01*
X0150220Y0200500D02*
X0150220Y0210000D01*
X0149240Y0210000D02*
X0149240Y0200500D01*
X0148250Y0200500D02*
X0148250Y0210000D01*
X0147270Y0210000D02*
X0147270Y0200500D01*
X0146280Y0200500D02*
X0146280Y0210000D01*
X0146280Y0217000D02*
X0146280Y0226500D01*
X0145500Y0226500D02*
X0160500Y0226500D01*
X0160500Y0217000D01*
X0145500Y0217000D01*
X0145500Y0226500D01*
X0147270Y0226500D02*
X0147270Y0217000D01*
X0148250Y0217000D02*
X0148250Y0226500D01*
X0149240Y0226500D02*
X0149240Y0217000D01*
X0150220Y0217000D02*
X0150220Y0226500D01*
X0151210Y0226500D02*
X0151210Y0217000D01*
X0152190Y0217000D02*
X0152190Y0226500D01*
X0153180Y0226500D02*
X0153180Y0217000D01*
X0154160Y0217000D02*
X0154160Y0226500D01*
X0155150Y0226500D02*
X0155150Y0217000D01*
X0156130Y0217000D02*
X0156130Y0226500D01*
X0157120Y0226500D02*
X0157120Y0217000D01*
X0158100Y0217000D02*
X0158100Y0226500D01*
X0159090Y0226500D02*
X0159090Y0217000D01*
X0160070Y0217000D02*
X0160070Y0226500D01*
D17*
X0159000Y0225000D03*
X0155000Y0225000D03*
X0151000Y0225000D03*
X0147000Y0225000D03*
X0147000Y0219500D03*
X0159000Y0219500D03*
X0159000Y0207500D03*
X0159000Y0202000D03*
X0155000Y0202000D03*
X0151000Y0202000D03*
X0147000Y0202000D03*
X0147000Y0207500D03*
X0011000Y0233000D02*
G75*
%LPD*%
X0139000Y0233000D02*
G75*
%LPD*%
D18*
X0127000Y0244480D03*
X0127000Y0255510D03*
D11*
X0134500Y0237500D02*
X0119500Y0237500D01*
X0119500Y0247000D01*
X0134500Y0247000D01*
X0134500Y0237500D01*
X0134070Y0237500D02*
X0134070Y0247000D01*
X0133090Y0247000D02*
X0133090Y0237500D01*
X0132100Y0237500D02*
X0132100Y0247000D01*
X0131120Y0247000D02*
X0131120Y0237500D01*
X0130130Y0237500D02*
X0130130Y0247000D01*
X0129150Y0247000D02*
X0129150Y0237500D01*
X0128160Y0237500D02*
X0128160Y0247000D01*
X0127180Y0247000D02*
X0127180Y0237500D01*
X0126190Y0237500D02*
X0126190Y0247000D01*
X0125210Y0247000D02*
X0125210Y0237500D01*
X0124220Y0237500D02*
X0124220Y0247000D01*
X0123240Y0247000D02*
X0123240Y0237500D01*
X0122250Y0237500D02*
X0122250Y0247000D01*
X0121270Y0247000D02*
X0121270Y0237500D01*
X0120280Y0237500D02*
X0120280Y0247000D01*
X0120280Y0254000D02*
X0120280Y0263500D01*
X0119500Y0263500D02*
X0134500Y0263500D01*
X0134500Y0254000D01*
X0119500Y0254000D01*
X0119500Y0263500D01*
X0121270Y0263500D02*
X0121270Y0254000D01*
X0122250Y0254000D02*
X0122250Y0263500D01*
X0123240Y0263500D02*
X0123240Y0254000D01*
X0124220Y0254000D02*
X0124220Y0263500D01*
X0125210Y0263500D02*
X0125210Y0254000D01*
X0126190Y0254000D02*
X0126190Y0263500D01*
X0127180Y0263500D02*
X0127180Y0254000D01*
X0128160Y0254000D02*
X0128160Y0263500D01*
X0129150Y0263500D02*
X0129150Y0254000D01*
X0130130Y0254000D02*
X0130130Y0263500D01*
X0131120Y0263500D02*
X0131120Y0254000D01*
X0132100Y0254000D02*
X0132100Y0263500D01*
X0133090Y0263500D02*
X0133090Y0254000D01*
X0134070Y0254000D02*
X0134070Y0263500D01*
D17*
X0133000Y0262000D03*
X0129000Y0262000D03*
X0125000Y0262000D03*
X0121000Y0262000D03*
X0121000Y0256500D03*
X0133000Y0256500D03*
X0133000Y0244500D03*
X0133000Y0239000D03*
X0129000Y0239000D03*
X0125000Y0239000D03*
X0121000Y0239000D03*
X0121000Y0244500D03*
X0113000Y0233000D02*
G75*
%LPD*%
D18*
X0101000Y0244480D03*
X0101000Y0255510D03*
D11*
X0108500Y0237500D02*
X0093500Y0237500D01*
X0093500Y0247000D01*
X0108500Y0247000D01*
X0108500Y0237500D01*
X0108070Y0237500D02*
X0108070Y0247000D01*
X0107090Y0247000D02*
X0107090Y0237500D01*
X0106100Y0237500D02*
X0106100Y0247000D01*
X0105120Y0247000D02*
X0105120Y0237500D01*
X0104130Y0237500D02*
X0104130Y0247000D01*
X0103150Y0247000D02*
X0103150Y0237500D01*
X0102160Y0237500D02*
X0102160Y0247000D01*
X0101180Y0247000D02*
X0101180Y0237500D01*
X0100190Y0237500D02*
X0100190Y0247000D01*
X0099210Y0247000D02*
X0099210Y0237500D01*
X0098220Y0237500D02*
X0098220Y0247000D01*
X0097240Y0247000D02*
X0097240Y0237500D01*
X0096250Y0237500D02*
X0096250Y0247000D01*
X0095270Y0247000D02*
X0095270Y0237500D01*
X0094280Y0237500D02*
X0094280Y0247000D01*
X0094280Y0254000D02*
X0094280Y0263500D01*
X0093500Y0263500D02*
X0108500Y0263500D01*
X0108500Y0254000D01*
X0093500Y0254000D01*
X0093500Y0263500D01*
X0095270Y0263500D02*
X0095270Y0254000D01*
X0096250Y0254000D02*
X0096250Y0263500D01*
X0097240Y0263500D02*
X0097240Y0254000D01*
X0098220Y0254000D02*
X0098220Y0263500D01*
X0099210Y0263500D02*
X0099210Y0254000D01*
X0100190Y0254000D02*
X0100190Y0263500D01*
X0101180Y0263500D02*
X0101180Y0254000D01*
X0102160Y0254000D02*
X0102160Y0263500D01*
X0103150Y0263500D02*
X0103150Y0254000D01*
X0104130Y0254000D02*
X0104130Y0263500D01*
X0105120Y0263500D02*
X0105120Y0254000D01*
X0106100Y0254000D02*
X0106100Y0263500D01*
X0107090Y0263500D02*
X0107090Y0254000D01*
X0108070Y0254000D02*
X0108070Y0263500D01*
D17*
X0107000Y0262000D03*
X0103000Y0262000D03*
X0099000Y0262000D03*
X0095000Y0262000D03*
X0095000Y0256500D03*
X0107000Y0256500D03*
X0107000Y0244500D03*
X0107000Y0239000D03*
X0103000Y0239000D03*
X0099000Y0239000D03*
X0095000Y0239000D03*
X0095000Y0244500D03*
X0139000Y0270000D02*
G75*
%LPD*%
D18*
X0127000Y0281480D03*
X0127000Y0292510D03*
D11*
X0134500Y0274500D02*
X0119500Y0274500D01*
X0119500Y0284000D01*
X0134500Y0284000D01*
X0134500Y0274500D01*
X0134070Y0274500D02*
X0134070Y0284000D01*
X0133090Y0284000D02*
X0133090Y0274500D01*
X0132100Y0274500D02*
X0132100Y0284000D01*
X0131120Y0284000D02*
X0131120Y0274500D01*
X0130130Y0274500D02*
X0130130Y0284000D01*
X0129150Y0284000D02*
X0129150Y0274500D01*
X0128160Y0274500D02*
X0128160Y0284000D01*
X0127180Y0284000D02*
X0127180Y0274500D01*
X0126190Y0274500D02*
X0126190Y0284000D01*
X0125210Y0284000D02*
X0125210Y0274500D01*
X0124220Y0274500D02*
X0124220Y0284000D01*
X0123240Y0284000D02*
X0123240Y0274500D01*
X0122250Y0274500D02*
X0122250Y0284000D01*
X0121270Y0284000D02*
X0121270Y0274500D01*
X0120280Y0274500D02*
X0120280Y0284000D01*
X0120280Y0291000D02*
X0120280Y0300500D01*
X0119500Y0300500D02*
X0134500Y0300500D01*
X0134500Y0291000D01*
X0119500Y0291000D01*
X0119500Y0300500D01*
X0121270Y0300500D02*
X0121270Y0291000D01*
X0122250Y0291000D02*
X0122250Y0300500D01*
X0123240Y0300500D02*
X0123240Y0291000D01*
X0124220Y0291000D02*
X0124220Y0300500D01*
X0125210Y0300500D02*
X0125210Y0291000D01*
X0126190Y0291000D02*
X0126190Y0300500D01*
X0127180Y0300500D02*
X0127180Y0291000D01*
X0128160Y0291000D02*
X0128160Y0300500D01*
X0129150Y0300500D02*
X0129150Y0291000D01*
X0130130Y0291000D02*
X0130130Y0300500D01*
X0131120Y0300500D02*
X0131120Y0291000D01*
X0132100Y0291000D02*
X0132100Y0300500D01*
X0133090Y0300500D02*
X0133090Y0291000D01*
X0134070Y0291000D02*
X0134070Y0300500D01*
D17*
X0133000Y0299000D03*
X0129000Y0299000D03*
X0125000Y0299000D03*
X0121000Y0299000D03*
X0121000Y0293500D03*
X0133000Y0293500D03*
X0133000Y0281500D03*
X0133000Y0276000D03*
X0129000Y0276000D03*
X0125000Y0276000D03*
X0121000Y0276000D03*
X0121000Y0281500D03*
X0087000Y0233000D02*
G75*
%LPD*%
D18*
X0075000Y0244480D03*
X0075000Y0255510D03*
D11*
X0082500Y0237500D02*
X0067500Y0237500D01*
X0067500Y0247000D01*
X0082500Y0247000D01*
X0082500Y0237500D01*
X0082070Y0237500D02*
X0082070Y0247000D01*
X0081090Y0247000D02*
X0081090Y0237500D01*
X0080100Y0237500D02*
X0080100Y0247000D01*
X0079120Y0247000D02*
X0079120Y0237500D01*
X0078130Y0237500D02*
X0078130Y0247000D01*
X0077150Y0247000D02*
X0077150Y0237500D01*
X0076160Y0237500D02*
X0076160Y0247000D01*
X0075180Y0247000D02*
X0075180Y0237500D01*
X0074190Y0237500D02*
X0074190Y0247000D01*
X0073210Y0247000D02*
X0073210Y0237500D01*
X0072220Y0237500D02*
X0072220Y0247000D01*
X0071240Y0247000D02*
X0071240Y0237500D01*
X0070250Y0237500D02*
X0070250Y0247000D01*
X0069270Y0247000D02*
X0069270Y0237500D01*
X0068280Y0237500D02*
X0068280Y0247000D01*
X0068280Y0254000D02*
X0068280Y0263500D01*
X0067500Y0263500D02*
X0082500Y0263500D01*
X0082500Y0254000D01*
X0067500Y0254000D01*
X0067500Y0263500D01*
X0069270Y0263500D02*
X0069270Y0254000D01*
X0070250Y0254000D02*
X0070250Y0263500D01*
X0071240Y0263500D02*
X0071240Y0254000D01*
X0072220Y0254000D02*
X0072220Y0263500D01*
X0073210Y0263500D02*
X0073210Y0254000D01*
X0074190Y0254000D02*
X0074190Y0263500D01*
X0075180Y0263500D02*
X0075180Y0254000D01*
X0076160Y0254000D02*
X0076160Y0263500D01*
X0077150Y0263500D02*
X0077150Y0254000D01*
X0078130Y0254000D02*
X0078130Y0263500D01*
X0079120Y0263500D02*
X0079120Y0254000D01*
X0080100Y0254000D02*
X0080100Y0263500D01*
X0081090Y0263500D02*
X0081090Y0254000D01*
X0082070Y0254000D02*
X0082070Y0263500D01*
D17*
X0081000Y0262000D03*
X0077000Y0262000D03*
X0073000Y0262000D03*
X0069000Y0262000D03*
X0069000Y0256500D03*
X0081000Y0256500D03*
X0081000Y0244500D03*
X0081000Y0239000D03*
X0077000Y0239000D03*
X0073000Y0239000D03*
X0069000Y0239000D03*
X0069000Y0244500D03*
X0113000Y0270000D02*
G75*
%LPD*%
D18*
X0101000Y0281480D03*
X0101000Y0292510D03*
D11*
X0108500Y0274500D02*
X0093500Y0274500D01*
X0093500Y0284000D01*
X0108500Y0284000D01*
X0108500Y0274500D01*
X0108070Y0274500D02*
X0108070Y0284000D01*
X0107090Y0284000D02*
X0107090Y0274500D01*
X0106100Y0274500D02*
X0106100Y0284000D01*
X0105120Y0284000D02*
X0105120Y0274500D01*
X0104130Y0274500D02*
X0104130Y0284000D01*
X0103150Y0284000D02*
X0103150Y0274500D01*
X0102160Y0274500D02*
X0102160Y0284000D01*
X0101180Y0284000D02*
X0101180Y0274500D01*
X0100190Y0274500D02*
X0100190Y0284000D01*
X0099210Y0284000D02*
X0099210Y0274500D01*
X0098220Y0274500D02*
X0098220Y0284000D01*
X0097240Y0284000D02*
X0097240Y0274500D01*
X0096250Y0274500D02*
X0096250Y0284000D01*
X0095270Y0284000D02*
X0095270Y0274500D01*
X0094280Y0274500D02*
X0094280Y0284000D01*
X0094280Y0291000D02*
X0094280Y0300500D01*
X0093500Y0300500D02*
X0108500Y0300500D01*
X0108500Y0291000D01*
X0093500Y0291000D01*
X0093500Y0300500D01*
X0095270Y0300500D02*
X0095270Y0291000D01*
X0096250Y0291000D02*
X0096250Y0300500D01*
X0097240Y0300500D02*
X0097240Y0291000D01*
X0098220Y0291000D02*
X0098220Y0300500D01*
X0099210Y0300500D02*
X0099210Y0291000D01*
X0100190Y0291000D02*
X0100190Y0300500D01*
X0101180Y0300500D02*
X0101180Y0291000D01*
X0102160Y0291000D02*
X0102160Y0300500D01*
X0103150Y0300500D02*
X0103150Y0291000D01*
X0104130Y0291000D02*
X0104130Y0300500D01*
X0105120Y0300500D02*
X0105120Y0291000D01*
X0106100Y0291000D02*
X0106100Y0300500D01*
X0107090Y0300500D02*
X0107090Y0291000D01*
X0108070Y0291000D02*
X0108070Y0300500D01*
D17*
X0107000Y0299000D03*
X0103000Y0299000D03*
X0099000Y0299000D03*
X0095000Y0299000D03*
X0095000Y0293500D03*
X0107000Y0293500D03*
X0107000Y0281500D03*
X0107000Y0276000D03*
X0103000Y0276000D03*
X0099000Y0276000D03*
X0095000Y0276000D03*
X0095000Y0281500D03*
X0061000Y0233000D02*
G75*
%LPD*%
D18*
X0049000Y0244480D03*
X0049000Y0255510D03*
D11*
X0056500Y0237500D02*
X0041500Y0237500D01*
X0041500Y0247000D01*
X0056500Y0247000D01*
X0056500Y0237500D01*
X0056070Y0237500D02*
X0056070Y0247000D01*
X0055090Y0247000D02*
X0055090Y0237500D01*
X0054100Y0237500D02*
X0054100Y0247000D01*
X0053120Y0247000D02*
X0053120Y0237500D01*
X0052130Y0237500D02*
X0052130Y0247000D01*
X0051150Y0247000D02*
X0051150Y0237500D01*
X0050160Y0237500D02*
X0050160Y0247000D01*
X0049180Y0247000D02*
X0049180Y0237500D01*
X0048190Y0237500D02*
X0048190Y0247000D01*
X0047210Y0247000D02*
X0047210Y0237500D01*
X0046220Y0237500D02*
X0046220Y0247000D01*
X0045240Y0247000D02*
X0045240Y0237500D01*
X0044250Y0237500D02*
X0044250Y0247000D01*
X0043270Y0247000D02*
X0043270Y0237500D01*
X0042280Y0237500D02*
X0042280Y0247000D01*
X0042280Y0254000D02*
X0042280Y0263500D01*
X0041500Y0263500D02*
X0056500Y0263500D01*
X0056500Y0254000D01*
X0041500Y0254000D01*
X0041500Y0263500D01*
X0043270Y0263500D02*
X0043270Y0254000D01*
X0044250Y0254000D02*
X0044250Y0263500D01*
X0045240Y0263500D02*
X0045240Y0254000D01*
X0046220Y0254000D02*
X0046220Y0263500D01*
X0047210Y0263500D02*
X0047210Y0254000D01*
X0048190Y0254000D02*
X0048190Y0263500D01*
X0049180Y0263500D02*
X0049180Y0254000D01*
X0050160Y0254000D02*
X0050160Y0263500D01*
X0051150Y0263500D02*
X0051150Y0254000D01*
X0052130Y0254000D02*
X0052130Y0263500D01*
X0053120Y0263500D02*
X0053120Y0254000D01*
X0054100Y0254000D02*
X0054100Y0263500D01*
X0055090Y0263500D02*
X0055090Y0254000D01*
X0056070Y0254000D02*
X0056070Y0263500D01*
D17*
X0055000Y0262000D03*
X0051000Y0262000D03*
X0047000Y0262000D03*
X0043000Y0262000D03*
X0043000Y0256500D03*
X0055000Y0256500D03*
X0055000Y0244500D03*
X0055000Y0239000D03*
X0051000Y0239000D03*
X0047000Y0239000D03*
X0043000Y0239000D03*
X0043000Y0244500D03*
X0087000Y0270000D02*
G75*
%LPD*%
D18*
X0075000Y0281480D03*
X0075000Y0292510D03*
D11*
X0082500Y0274500D02*
X0067500Y0274500D01*
X0067500Y0284000D01*
X0082500Y0284000D01*
X0082500Y0274500D01*
X0082070Y0274500D02*
X0082070Y0284000D01*
X0081090Y0284000D02*
X0081090Y0274500D01*
X0080100Y0274500D02*
X0080100Y0284000D01*
X0079120Y0284000D02*
X0079120Y0274500D01*
X0078130Y0274500D02*
X0078130Y0284000D01*
X0077150Y0284000D02*
X0077150Y0274500D01*
X0076160Y0274500D02*
X0076160Y0284000D01*
X0075180Y0284000D02*
X0075180Y0274500D01*
X0074190Y0274500D02*
X0074190Y0284000D01*
X0073210Y0284000D02*
X0073210Y0274500D01*
X0072220Y0274500D02*
X0072220Y0284000D01*
X0071240Y0284000D02*
X0071240Y0274500D01*
X0070250Y0274500D02*
X0070250Y0284000D01*
X0069270Y0284000D02*
X0069270Y0274500D01*
X0068280Y0274500D02*
X0068280Y0284000D01*
X0068280Y0291000D02*
X0068280Y0300500D01*
X0067500Y0300500D02*
X0082500Y0300500D01*
X0082500Y0291000D01*
X0067500Y0291000D01*
X0067500Y0300500D01*
X0069270Y0300500D02*
X0069270Y0291000D01*
X0070250Y0291000D02*
X0070250Y0300500D01*
X0071240Y0300500D02*
X0071240Y0291000D01*
X0072220Y0291000D02*
X0072220Y0300500D01*
X0073210Y0300500D02*
X0073210Y0291000D01*
X0074190Y0291000D02*
X0074190Y0300500D01*
X0075180Y0300500D02*
X0075180Y0291000D01*
X0076160Y0291000D02*
X0076160Y0300500D01*
X0077150Y0300500D02*
X0077150Y0291000D01*
X0078130Y0291000D02*
X0078130Y0300500D01*
X0079120Y0300500D02*
X0079120Y0291000D01*
X0080100Y0291000D02*
X0080100Y0300500D01*
X0081090Y0300500D02*
X0081090Y0291000D01*
X0082070Y0291000D02*
X0082070Y0300500D01*
D17*
X0081000Y0299000D03*
X0077000Y0299000D03*
X0073000Y0299000D03*
X0069000Y0299000D03*
X0069000Y0293500D03*
X0081000Y0293500D03*
X0081000Y0281500D03*
X0081000Y0276000D03*
X0077000Y0276000D03*
X0073000Y0276000D03*
X0069000Y0276000D03*
X0069000Y0281500D03*
X0061000Y0270000D02*
G75*
%LPD*%
D18*
X0049000Y0281480D03*
X0049000Y0292510D03*
D11*
X0056500Y0274500D02*
X0041500Y0274500D01*
X0041500Y0284000D01*
X0056500Y0284000D01*
X0056500Y0274500D01*
X0056070Y0274500D02*
X0056070Y0284000D01*
X0055090Y0284000D02*
X0055090Y0274500D01*
X0054100Y0274500D02*
X0054100Y0284000D01*
X0053120Y0284000D02*
X0053120Y0274500D01*
X0052130Y0274500D02*
X0052130Y0284000D01*
X0051150Y0284000D02*
X0051150Y0274500D01*
X0050160Y0274500D02*
X0050160Y0284000D01*
X0049180Y0284000D02*
X0049180Y0274500D01*
X0048190Y0274500D02*
X0048190Y0284000D01*
X0047210Y0284000D02*
X0047210Y0274500D01*
X0046220Y0274500D02*
X0046220Y0284000D01*
X0045240Y0284000D02*
X0045240Y0274500D01*
X0044250Y0274500D02*
X0044250Y0284000D01*
X0043270Y0284000D02*
X0043270Y0274500D01*
X0042280Y0274500D02*
X0042280Y0284000D01*
X0042280Y0291000D02*
X0042280Y0300500D01*
X0041500Y0300500D02*
X0056500Y0300500D01*
X0056500Y0291000D01*
X0041500Y0291000D01*
X0041500Y0300500D01*
X0043270Y0300500D02*
X0043270Y0291000D01*
X0044250Y0291000D02*
X0044250Y0300500D01*
X0045240Y0300500D02*
X0045240Y0291000D01*
X0046220Y0291000D02*
X0046220Y0300500D01*
X0047210Y0300500D02*
X0047210Y0291000D01*
X0048190Y0291000D02*
X0048190Y0300500D01*
X0049180Y0300500D02*
X0049180Y0291000D01*
X0050160Y0291000D02*
X0050160Y0300500D01*
X0051150Y0300500D02*
X0051150Y0291000D01*
X0052130Y0291000D02*
X0052130Y0300500D01*
X0053120Y0300500D02*
X0053120Y0291000D01*
X0054100Y0291000D02*
X0054100Y0300500D01*
X0055090Y0300500D02*
X0055090Y0291000D01*
X0056070Y0291000D02*
X0056070Y0300500D01*
D17*
X0055000Y0299000D03*
X0051000Y0299000D03*
X0047000Y0299000D03*
X0043000Y0299000D03*
X0043000Y0293500D03*
X0055000Y0293500D03*
X0055000Y0281500D03*
X0055000Y0276000D03*
X0051000Y0276000D03*
X0047000Y0276000D03*
X0043000Y0276000D03*
X0043000Y0281500D03*
X0035000Y0233000D02*
G75*
%LPD*%
D18*
X0023000Y0244480D03*
X0023000Y0255510D03*
D11*
X0030500Y0237500D02*
X0015500Y0237500D01*
X0015500Y0247000D01*
X0030500Y0247000D01*
X0030500Y0237500D01*
X0030070Y0237500D02*
X0030070Y0247000D01*
X0029090Y0247000D02*
X0029090Y0237500D01*
X0028100Y0237500D02*
X0028100Y0247000D01*
X0027120Y0247000D02*
X0027120Y0237500D01*
X0026130Y0237500D02*
X0026130Y0247000D01*
X0025150Y0247000D02*
X0025150Y0237500D01*
X0024160Y0237500D02*
X0024160Y0247000D01*
X0023180Y0247000D02*
X0023180Y0237500D01*
X0022190Y0237500D02*
X0022190Y0247000D01*
X0021210Y0247000D02*
X0021210Y0237500D01*
X0020220Y0237500D02*
X0020220Y0247000D01*
X0019240Y0247000D02*
X0019240Y0237500D01*
X0018250Y0237500D02*
X0018250Y0247000D01*
X0017270Y0247000D02*
X0017270Y0237500D01*
X0016280Y0237500D02*
X0016280Y0247000D01*
X0016280Y0254000D02*
X0016280Y0263500D01*
X0015500Y0263500D02*
X0030500Y0263500D01*
X0030500Y0254000D01*
X0015500Y0254000D01*
X0015500Y0263500D01*
X0017270Y0263500D02*
X0017270Y0254000D01*
X0018250Y0254000D02*
X0018250Y0263500D01*
X0019240Y0263500D02*
X0019240Y0254000D01*
X0020220Y0254000D02*
X0020220Y0263500D01*
X0021210Y0263500D02*
X0021210Y0254000D01*
X0022190Y0254000D02*
X0022190Y0263500D01*
X0023180Y0263500D02*
X0023180Y0254000D01*
X0024160Y0254000D02*
X0024160Y0263500D01*
X0025150Y0263500D02*
X0025150Y0254000D01*
X0026130Y0254000D02*
X0026130Y0263500D01*
X0027120Y0263500D02*
X0027120Y0254000D01*
X0028100Y0254000D02*
X0028100Y0263500D01*
X0029090Y0263500D02*
X0029090Y0254000D01*
X0030070Y0254000D02*
X0030070Y0263500D01*
D17*
X0029000Y0262000D03*
X0025000Y0262000D03*
X0021000Y0262000D03*
X0017000Y0262000D03*
X0017000Y0256500D03*
X0029000Y0256500D03*
X0029000Y0244500D03*
X0029000Y0239000D03*
X0025000Y0239000D03*
X0021000Y0239000D03*
X0017000Y0239000D03*
X0017000Y0244500D03*
X0035000Y0270000D02*
G75*
%LPD*%
D18*
X0023000Y0281480D03*
X0023000Y0292510D03*
D11*
X0030500Y0274500D02*
X0015500Y0274500D01*
X0015500Y0284000D01*
X0030500Y0284000D01*
X0030500Y0274500D01*
X0030070Y0274500D02*
X0030070Y0284000D01*
X0029090Y0284000D02*
X0029090Y0274500D01*
X0028100Y0274500D02*
X0028100Y0284000D01*
X0027120Y0284000D02*
X0027120Y0274500D01*
X0026130Y0274500D02*
X0026130Y0284000D01*
X0025150Y0284000D02*
X0025150Y0274500D01*
X0024160Y0274500D02*
X0024160Y0284000D01*
X0023180Y0284000D02*
X0023180Y0274500D01*
X0022190Y0274500D02*
X0022190Y0284000D01*
X0021210Y0284000D02*
X0021210Y0274500D01*
X0020220Y0274500D02*
X0020220Y0284000D01*
X0019240Y0284000D02*
X0019240Y0274500D01*
X0018250Y0274500D02*
X0018250Y0284000D01*
X0017270Y0284000D02*
X0017270Y0274500D01*
X0016280Y0274500D02*
X0016280Y0284000D01*
X0016280Y0291000D02*
X0016280Y0300500D01*
X0015500Y0300500D02*
X0030500Y0300500D01*
X0030500Y0291000D01*
X0015500Y0291000D01*
X0015500Y0300500D01*
X0017270Y0300500D02*
X0017270Y0291000D01*
X0018250Y0291000D02*
X0018250Y0300500D01*
X0019240Y0300500D02*
X0019240Y0291000D01*
X0020220Y0291000D02*
X0020220Y0300500D01*
X0021210Y0300500D02*
X0021210Y0291000D01*
X0022190Y0291000D02*
X0022190Y0300500D01*
X0023180Y0300500D02*
X0023180Y0291000D01*
X0024160Y0291000D02*
X0024160Y0300500D01*
X0025150Y0300500D02*
X0025150Y0291000D01*
X0026130Y0291000D02*
X0026130Y0300500D01*
X0027120Y0300500D02*
X0027120Y0291000D01*
X0028100Y0291000D02*
X0028100Y0300500D01*
X0029090Y0300500D02*
X0029090Y0291000D01*
X0030070Y0291000D02*
X0030070Y0300500D01*
D17*
X0029000Y0299000D03*
X0025000Y0299000D03*
X0021000Y0299000D03*
X0017000Y0299000D03*
X0017000Y0293500D03*
X0029000Y0293500D03*
X0029000Y0281500D03*
X0029000Y0276000D03*
X0025000Y0276000D03*
X0021000Y0276000D03*
X0017000Y0276000D03*
X0017000Y0281500D03*
X0141000Y0233000D02*
G75*
%LPD*%
X0269000Y0233000D02*
G75*
%LPD*%
D18*
X0257000Y0244480D03*
X0257000Y0255510D03*
D11*
X0264500Y0237500D02*
X0249500Y0237500D01*
X0249500Y0247000D01*
X0264500Y0247000D01*
X0264500Y0237500D01*
X0264070Y0237500D02*
X0264070Y0247000D01*
X0263090Y0247000D02*
X0263090Y0237500D01*
X0262100Y0237500D02*
X0262100Y0247000D01*
X0261120Y0247000D02*
X0261120Y0237500D01*
X0260130Y0237500D02*
X0260130Y0247000D01*
X0259150Y0247000D02*
X0259150Y0237500D01*
X0258160Y0237500D02*
X0258160Y0247000D01*
X0257180Y0247000D02*
X0257180Y0237500D01*
X0256190Y0237500D02*
X0256190Y0247000D01*
X0255210Y0247000D02*
X0255210Y0237500D01*
X0254220Y0237500D02*
X0254220Y0247000D01*
X0253240Y0247000D02*
X0253240Y0237500D01*
X0252250Y0237500D02*
X0252250Y0247000D01*
X0251270Y0247000D02*
X0251270Y0237500D01*
X0250280Y0237500D02*
X0250280Y0247000D01*
X0250280Y0254000D02*
X0250280Y0263500D01*
X0249500Y0263500D02*
X0264500Y0263500D01*
X0264500Y0254000D01*
X0249500Y0254000D01*
X0249500Y0263500D01*
X0251270Y0263500D02*
X0251270Y0254000D01*
X0252250Y0254000D02*
X0252250Y0263500D01*
X0253240Y0263500D02*
X0253240Y0254000D01*
X0254220Y0254000D02*
X0254220Y0263500D01*
X0255210Y0263500D02*
X0255210Y0254000D01*
X0256190Y0254000D02*
X0256190Y0263500D01*
X0257180Y0263500D02*
X0257180Y0254000D01*
X0258160Y0254000D02*
X0258160Y0263500D01*
X0259150Y0263500D02*
X0259150Y0254000D01*
X0260130Y0254000D02*
X0260130Y0263500D01*
X0261120Y0263500D02*
X0261120Y0254000D01*
X0262100Y0254000D02*
X0262100Y0263500D01*
X0263090Y0263500D02*
X0263090Y0254000D01*
X0264070Y0254000D02*
X0264070Y0263500D01*
D17*
X0263000Y0262000D03*
X0259000Y0262000D03*
X0255000Y0262000D03*
X0251000Y0262000D03*
X0251000Y0256500D03*
X0263000Y0256500D03*
X0263000Y0244500D03*
X0263000Y0239000D03*
X0259000Y0239000D03*
X0255000Y0239000D03*
X0251000Y0239000D03*
X0251000Y0244500D03*
X0243000Y0233000D02*
G75*
%LPD*%
D18*
X0231000Y0244480D03*
X0231000Y0255510D03*
D11*
X0238500Y0237500D02*
X0223500Y0237500D01*
X0223500Y0247000D01*
X0238500Y0247000D01*
X0238500Y0237500D01*
X0238070Y0237500D02*
X0238070Y0247000D01*
X0237090Y0247000D02*
X0237090Y0237500D01*
X0236100Y0237500D02*
X0236100Y0247000D01*
X0235120Y0247000D02*
X0235120Y0237500D01*
X0234130Y0237500D02*
X0234130Y0247000D01*
X0233150Y0247000D02*
X0233150Y0237500D01*
X0232160Y0237500D02*
X0232160Y0247000D01*
X0231180Y0247000D02*
X0231180Y0237500D01*
X0230190Y0237500D02*
X0230190Y0247000D01*
X0229210Y0247000D02*
X0229210Y0237500D01*
X0228220Y0237500D02*
X0228220Y0247000D01*
X0227240Y0247000D02*
X0227240Y0237500D01*
X0226250Y0237500D02*
X0226250Y0247000D01*
X0225270Y0247000D02*
X0225270Y0237500D01*
X0224280Y0237500D02*
X0224280Y0247000D01*
X0224280Y0254000D02*
X0224280Y0263500D01*
X0223500Y0263500D02*
X0238500Y0263500D01*
X0238500Y0254000D01*
X0223500Y0254000D01*
X0223500Y0263500D01*
X0225270Y0263500D02*
X0225270Y0254000D01*
X0226250Y0254000D02*
X0226250Y0263500D01*
X0227240Y0263500D02*
X0227240Y0254000D01*
X0228220Y0254000D02*
X0228220Y0263500D01*
X0229210Y0263500D02*
X0229210Y0254000D01*
X0230190Y0254000D02*
X0230190Y0263500D01*
X0231180Y0263500D02*
X0231180Y0254000D01*
X0232160Y0254000D02*
X0232160Y0263500D01*
X0233150Y0263500D02*
X0233150Y0254000D01*
X0234130Y0254000D02*
X0234130Y0263500D01*
X0235120Y0263500D02*
X0235120Y0254000D01*
X0236100Y0254000D02*
X0236100Y0263500D01*
X0237090Y0263500D02*
X0237090Y0254000D01*
X0238070Y0254000D02*
X0238070Y0263500D01*
D17*
X0237000Y0262000D03*
X0233000Y0262000D03*
X0229000Y0262000D03*
X0225000Y0262000D03*
X0225000Y0256500D03*
X0237000Y0256500D03*
X0237000Y0244500D03*
X0237000Y0239000D03*
X0233000Y0239000D03*
X0229000Y0239000D03*
X0225000Y0239000D03*
X0225000Y0244500D03*
X0269000Y0270000D02*
G75*
%LPD*%
D18*
X0257000Y0281480D03*
X0257000Y0292510D03*
D11*
X0264500Y0274500D02*
X0249500Y0274500D01*
X0249500Y0284000D01*
X0264500Y0284000D01*
X0264500Y0274500D01*
X0264070Y0274500D02*
X0264070Y0284000D01*
X0263090Y0284000D02*
X0263090Y0274500D01*
X0262100Y0274500D02*
X0262100Y0284000D01*
X0261120Y0284000D02*
X0261120Y0274500D01*
X0260130Y0274500D02*
X0260130Y0284000D01*
X0259150Y0284000D02*
X0259150Y0274500D01*
X0258160Y0274500D02*
X0258160Y0284000D01*
X0257180Y0284000D02*
X0257180Y0274500D01*
X0256190Y0274500D02*
X0256190Y0284000D01*
X0255210Y0284000D02*
X0255210Y0274500D01*
X0254220Y0274500D02*
X0254220Y0284000D01*
X0253240Y0284000D02*
X0253240Y0274500D01*
X0252250Y0274500D02*
X0252250Y0284000D01*
X0251270Y0284000D02*
X0251270Y0274500D01*
X0250280Y0274500D02*
X0250280Y0284000D01*
X0250280Y0291000D02*
X0250280Y0300500D01*
X0249500Y0300500D02*
X0264500Y0300500D01*
X0264500Y0291000D01*
X0249500Y0291000D01*
X0249500Y0300500D01*
X0251270Y0300500D02*
X0251270Y0291000D01*
X0252250Y0291000D02*
X0252250Y0300500D01*
X0253240Y0300500D02*
X0253240Y0291000D01*
X0254220Y0291000D02*
X0254220Y0300500D01*
X0255210Y0300500D02*
X0255210Y0291000D01*
X0256190Y0291000D02*
X0256190Y0300500D01*
X0257180Y0300500D02*
X0257180Y0291000D01*
X0258160Y0291000D02*
X0258160Y0300500D01*
X0259150Y0300500D02*
X0259150Y0291000D01*
X0260130Y0291000D02*
X0260130Y0300500D01*
X0261120Y0300500D02*
X0261120Y0291000D01*
X0262100Y0291000D02*
X0262100Y0300500D01*
X0263090Y0300500D02*
X0263090Y0291000D01*
X0264070Y0291000D02*
X0264070Y0300500D01*
D17*
X0263000Y0299000D03*
X0259000Y0299000D03*
X0255000Y0299000D03*
X0251000Y0299000D03*
X0251000Y0293500D03*
X0263000Y0293500D03*
X0263000Y0281500D03*
X0263000Y0276000D03*
X0259000Y0276000D03*
X0255000Y0276000D03*
X0251000Y0276000D03*
X0251000Y0281500D03*
X0217000Y0233000D02*
G75*
%LPD*%
D18*
X0205000Y0244480D03*
X0205000Y0255510D03*
D11*
X0212500Y0237500D02*
X0197500Y0237500D01*
X0197500Y0247000D01*
X0212500Y0247000D01*
X0212500Y0237500D01*
X0212070Y0237500D02*
X0212070Y0247000D01*
X0211090Y0247000D02*
X0211090Y0237500D01*
X0210100Y0237500D02*
X0210100Y0247000D01*
X0209120Y0247000D02*
X0209120Y0237500D01*
X0208130Y0237500D02*
X0208130Y0247000D01*
X0207150Y0247000D02*
X0207150Y0237500D01*
X0206160Y0237500D02*
X0206160Y0247000D01*
X0205180Y0247000D02*
X0205180Y0237500D01*
X0204190Y0237500D02*
X0204190Y0247000D01*
X0203210Y0247000D02*
X0203210Y0237500D01*
X0202220Y0237500D02*
X0202220Y0247000D01*
X0201240Y0247000D02*
X0201240Y0237500D01*
X0200250Y0237500D02*
X0200250Y0247000D01*
X0199270Y0247000D02*
X0199270Y0237500D01*
X0198280Y0237500D02*
X0198280Y0247000D01*
X0198280Y0254000D02*
X0198280Y0263500D01*
X0197500Y0263500D02*
X0212500Y0263500D01*
X0212500Y0254000D01*
X0197500Y0254000D01*
X0197500Y0263500D01*
X0199270Y0263500D02*
X0199270Y0254000D01*
X0200250Y0254000D02*
X0200250Y0263500D01*
X0201240Y0263500D02*
X0201240Y0254000D01*
X0202220Y0254000D02*
X0202220Y0263500D01*
X0203210Y0263500D02*
X0203210Y0254000D01*
X0204190Y0254000D02*
X0204190Y0263500D01*
X0205180Y0263500D02*
X0205180Y0254000D01*
X0206160Y0254000D02*
X0206160Y0263500D01*
X0207150Y0263500D02*
X0207150Y0254000D01*
X0208130Y0254000D02*
X0208130Y0263500D01*
X0209120Y0263500D02*
X0209120Y0254000D01*
X0210100Y0254000D02*
X0210100Y0263500D01*
X0211090Y0263500D02*
X0211090Y0254000D01*
X0212070Y0254000D02*
X0212070Y0263500D01*
D17*
X0211000Y0262000D03*
X0207000Y0262000D03*
X0203000Y0262000D03*
X0199000Y0262000D03*
X0199000Y0256500D03*
X0211000Y0256500D03*
X0211000Y0244500D03*
X0211000Y0239000D03*
X0207000Y0239000D03*
X0203000Y0239000D03*
X0199000Y0239000D03*
X0199000Y0244500D03*
X0243000Y0270000D02*
G75*
%LPD*%
D18*
X0231000Y0281480D03*
X0231000Y0292510D03*
D11*
X0238500Y0274500D02*
X0223500Y0274500D01*
X0223500Y0284000D01*
X0238500Y0284000D01*
X0238500Y0274500D01*
X0238070Y0274500D02*
X0238070Y0284000D01*
X0237090Y0284000D02*
X0237090Y0274500D01*
X0236100Y0274500D02*
X0236100Y0284000D01*
X0235120Y0284000D02*
X0235120Y0274500D01*
X0234130Y0274500D02*
X0234130Y0284000D01*
X0233150Y0284000D02*
X0233150Y0274500D01*
X0232160Y0274500D02*
X0232160Y0284000D01*
X0231180Y0284000D02*
X0231180Y0274500D01*
X0230190Y0274500D02*
X0230190Y0284000D01*
X0229210Y0284000D02*
X0229210Y0274500D01*
X0228220Y0274500D02*
X0228220Y0284000D01*
X0227240Y0284000D02*
X0227240Y0274500D01*
X0226250Y0274500D02*
X0226250Y0284000D01*
X0225270Y0284000D02*
X0225270Y0274500D01*
X0224280Y0274500D02*
X0224280Y0284000D01*
X0224280Y0291000D02*
X0224280Y0300500D01*
X0223500Y0300500D02*
X0238500Y0300500D01*
X0238500Y0291000D01*
X0223500Y0291000D01*
X0223500Y0300500D01*
X0225270Y0300500D02*
X0225270Y0291000D01*
X0226250Y0291000D02*
X0226250Y0300500D01*
X0227240Y0300500D02*
X0227240Y0291000D01*
X0228220Y0291000D02*
X0228220Y0300500D01*
X0229210Y0300500D02*
X0229210Y0291000D01*
X0230190Y0291000D02*
X0230190Y0300500D01*
X0231180Y0300500D02*
X0231180Y0291000D01*
X0232160Y0291000D02*
X0232160Y0300500D01*
X0233150Y0300500D02*
X0233150Y0291000D01*
X0234130Y0291000D02*
X0234130Y0300500D01*
X0235120Y0300500D02*
X0235120Y0291000D01*
X0236100Y0291000D02*
X0236100Y0300500D01*
X0237090Y0300500D02*
X0237090Y0291000D01*
X0238070Y0291000D02*
X0238070Y0300500D01*
D17*
X0237000Y0299000D03*
X0233000Y0299000D03*
X0229000Y0299000D03*
X0225000Y0299000D03*
X0225000Y0293500D03*
X0237000Y0293500D03*
X0237000Y0281500D03*
X0237000Y0276000D03*
X0233000Y0276000D03*
X0229000Y0276000D03*
X0225000Y0276000D03*
X0225000Y0281500D03*
X0191000Y0233000D02*
G75*
%LPD*%
D18*
X0179000Y0244480D03*
X0179000Y0255510D03*
D11*
X0186500Y0237500D02*
X0171500Y0237500D01*
X0171500Y0247000D01*
X0186500Y0247000D01*
X0186500Y0237500D01*
X0186070Y0237500D02*
X0186070Y0247000D01*
X0185090Y0247000D02*
X0185090Y0237500D01*
X0184100Y0237500D02*
X0184100Y0247000D01*
X0183120Y0247000D02*
X0183120Y0237500D01*
X0182130Y0237500D02*
X0182130Y0247000D01*
X0181150Y0247000D02*
X0181150Y0237500D01*
X0180160Y0237500D02*
X0180160Y0247000D01*
X0179180Y0247000D02*
X0179180Y0237500D01*
X0178190Y0237500D02*
X0178190Y0247000D01*
X0177210Y0247000D02*
X0177210Y0237500D01*
X0176220Y0237500D02*
X0176220Y0247000D01*
X0175240Y0247000D02*
X0175240Y0237500D01*
X0174250Y0237500D02*
X0174250Y0247000D01*
X0173270Y0247000D02*
X0173270Y0237500D01*
X0172280Y0237500D02*
X0172280Y0247000D01*
X0172280Y0254000D02*
X0172280Y0263500D01*
X0171500Y0263500D02*
X0186500Y0263500D01*
X0186500Y0254000D01*
X0171500Y0254000D01*
X0171500Y0263500D01*
X0173270Y0263500D02*
X0173270Y0254000D01*
X0174250Y0254000D02*
X0174250Y0263500D01*
X0175240Y0263500D02*
X0175240Y0254000D01*
X0176220Y0254000D02*
X0176220Y0263500D01*
X0177210Y0263500D02*
X0177210Y0254000D01*
X0178190Y0254000D02*
X0178190Y0263500D01*
X0179180Y0263500D02*
X0179180Y0254000D01*
X0180160Y0254000D02*
X0180160Y0263500D01*
X0181150Y0263500D02*
X0181150Y0254000D01*
X0182130Y0254000D02*
X0182130Y0263500D01*
X0183120Y0263500D02*
X0183120Y0254000D01*
X0184100Y0254000D02*
X0184100Y0263500D01*
X0185090Y0263500D02*
X0185090Y0254000D01*
X0186070Y0254000D02*
X0186070Y0263500D01*
D17*
X0185000Y0262000D03*
X0181000Y0262000D03*
X0177000Y0262000D03*
X0173000Y0262000D03*
X0173000Y0256500D03*
X0185000Y0256500D03*
X0185000Y0244500D03*
X0185000Y0239000D03*
X0181000Y0239000D03*
X0177000Y0239000D03*
X0173000Y0239000D03*
X0173000Y0244500D03*
X0217000Y0270000D02*
G75*
%LPD*%
D18*
X0205000Y0281480D03*
X0205000Y0292510D03*
D11*
X0212500Y0274500D02*
X0197500Y0274500D01*
X0197500Y0284000D01*
X0212500Y0284000D01*
X0212500Y0274500D01*
X0212070Y0274500D02*
X0212070Y0284000D01*
X0211090Y0284000D02*
X0211090Y0274500D01*
X0210100Y0274500D02*
X0210100Y0284000D01*
X0209120Y0284000D02*
X0209120Y0274500D01*
X0208130Y0274500D02*
X0208130Y0284000D01*
X0207150Y0284000D02*
X0207150Y0274500D01*
X0206160Y0274500D02*
X0206160Y0284000D01*
X0205180Y0284000D02*
X0205180Y0274500D01*
X0204190Y0274500D02*
X0204190Y0284000D01*
X0203210Y0284000D02*
X0203210Y0274500D01*
X0202220Y0274500D02*
X0202220Y0284000D01*
X0201240Y0284000D02*
X0201240Y0274500D01*
X0200250Y0274500D02*
X0200250Y0284000D01*
X0199270Y0284000D02*
X0199270Y0274500D01*
X0198280Y0274500D02*
X0198280Y0284000D01*
X0198280Y0291000D02*
X0198280Y0300500D01*
X0197500Y0300500D02*
X0212500Y0300500D01*
X0212500Y0291000D01*
X0197500Y0291000D01*
X0197500Y0300500D01*
X0199270Y0300500D02*
X0199270Y0291000D01*
X0200250Y0291000D02*
X0200250Y0300500D01*
X0201240Y0300500D02*
X0201240Y0291000D01*
X0202220Y0291000D02*
X0202220Y0300500D01*
X0203210Y0300500D02*
X0203210Y0291000D01*
X0204190Y0291000D02*
X0204190Y0300500D01*
X0205180Y0300500D02*
X0205180Y0291000D01*
X0206160Y0291000D02*
X0206160Y0300500D01*
X0207150Y0300500D02*
X0207150Y0291000D01*
X0208130Y0291000D02*
X0208130Y0300500D01*
X0209120Y0300500D02*
X0209120Y0291000D01*
X0210100Y0291000D02*
X0210100Y0300500D01*
X0211090Y0300500D02*
X0211090Y0291000D01*
X0212070Y0291000D02*
X0212070Y0300500D01*
D17*
X0211000Y0299000D03*
X0207000Y0299000D03*
X0203000Y0299000D03*
X0199000Y0299000D03*
X0199000Y0293500D03*
X0211000Y0293500D03*
X0211000Y0281500D03*
X0211000Y0276000D03*
X0207000Y0276000D03*
X0203000Y0276000D03*
X0199000Y0276000D03*
X0199000Y0281500D03*
X0191000Y0270000D02*
G75*
%LPD*%
D18*
X0179000Y0281480D03*
X0179000Y0292510D03*
D11*
X0186500Y0274500D02*
X0171500Y0274500D01*
X0171500Y0284000D01*
X0186500Y0284000D01*
X0186500Y0274500D01*
X0186070Y0274500D02*
X0186070Y0284000D01*
X0185090Y0284000D02*
X0185090Y0274500D01*
X0184100Y0274500D02*
X0184100Y0284000D01*
X0183120Y0284000D02*
X0183120Y0274500D01*
X0182130Y0274500D02*
X0182130Y0284000D01*
X0181150Y0284000D02*
X0181150Y0274500D01*
X0180160Y0274500D02*
X0180160Y0284000D01*
X0179180Y0284000D02*
X0179180Y0274500D01*
X0178190Y0274500D02*
X0178190Y0284000D01*
X0177210Y0284000D02*
X0177210Y0274500D01*
X0176220Y0274500D02*
X0176220Y0284000D01*
X0175240Y0284000D02*
X0175240Y0274500D01*
X0174250Y0274500D02*
X0174250Y0284000D01*
X0173270Y0284000D02*
X0173270Y0274500D01*
X0172280Y0274500D02*
X0172280Y0284000D01*
X0172280Y0291000D02*
X0172280Y0300500D01*
X0171500Y0300500D02*
X0186500Y0300500D01*
X0186500Y0291000D01*
X0171500Y0291000D01*
X0171500Y0300500D01*
X0173270Y0300500D02*
X0173270Y0291000D01*
X0174250Y0291000D02*
X0174250Y0300500D01*
X0175240Y0300500D02*
X0175240Y0291000D01*
X0176220Y0291000D02*
X0176220Y0300500D01*
X0177210Y0300500D02*
X0177210Y0291000D01*
X0178190Y0291000D02*
X0178190Y0300500D01*
X0179180Y0300500D02*
X0179180Y0291000D01*
X0180160Y0291000D02*
X0180160Y0300500D01*
X0181150Y0300500D02*
X0181150Y0291000D01*
X0182130Y0291000D02*
X0182130Y0300500D01*
X0183120Y0300500D02*
X0183120Y0291000D01*
X0184100Y0291000D02*
X0184100Y0300500D01*
X0185090Y0300500D02*
X0185090Y0291000D01*
X0186070Y0291000D02*
X0186070Y0300500D01*
D17*
X0185000Y0299000D03*
X0181000Y0299000D03*
X0177000Y0299000D03*
X0173000Y0299000D03*
X0173000Y0293500D03*
X0185000Y0293500D03*
X0185000Y0281500D03*
X0185000Y0276000D03*
X0181000Y0276000D03*
X0177000Y0276000D03*
X0173000Y0276000D03*
X0173000Y0281500D03*
X0165000Y0233000D02*
G75*
%LPD*%
D18*
X0153000Y0244480D03*
X0153000Y0255510D03*
D11*
X0160500Y0237500D02*
X0145500Y0237500D01*
X0145500Y0247000D01*
X0160500Y0247000D01*
X0160500Y0237500D01*
X0160070Y0237500D02*
X0160070Y0247000D01*
X0159090Y0247000D02*
X0159090Y0237500D01*
X0158100Y0237500D02*
X0158100Y0247000D01*
X0157120Y0247000D02*
X0157120Y0237500D01*
X0156130Y0237500D02*
X0156130Y0247000D01*
X0155150Y0247000D02*
X0155150Y0237500D01*
X0154160Y0237500D02*
X0154160Y0247000D01*
X0153180Y0247000D02*
X0153180Y0237500D01*
X0152190Y0237500D02*
X0152190Y0247000D01*
X0151210Y0247000D02*
X0151210Y0237500D01*
X0150220Y0237500D02*
X0150220Y0247000D01*
X0149240Y0247000D02*
X0149240Y0237500D01*
X0148250Y0237500D02*
X0148250Y0247000D01*
X0147270Y0247000D02*
X0147270Y0237500D01*
X0146280Y0237500D02*
X0146280Y0247000D01*
X0146280Y0254000D02*
X0146280Y0263500D01*
X0145500Y0263500D02*
X0160500Y0263500D01*
X0160500Y0254000D01*
X0145500Y0254000D01*
X0145500Y0263500D01*
X0147270Y0263500D02*
X0147270Y0254000D01*
X0148250Y0254000D02*
X0148250Y0263500D01*
X0149240Y0263500D02*
X0149240Y0254000D01*
X0150220Y0254000D02*
X0150220Y0263500D01*
X0151210Y0263500D02*
X0151210Y0254000D01*
X0152190Y0254000D02*
X0152190Y0263500D01*
X0153180Y0263500D02*
X0153180Y0254000D01*
X0154160Y0254000D02*
X0154160Y0263500D01*
X0155150Y0263500D02*
X0155150Y0254000D01*
X0156130Y0254000D02*
X0156130Y0263500D01*
X0157120Y0263500D02*
X0157120Y0254000D01*
X0158100Y0254000D02*
X0158100Y0263500D01*
X0159090Y0263500D02*
X0159090Y0254000D01*
X0160070Y0254000D02*
X0160070Y0263500D01*
D17*
X0159000Y0262000D03*
X0155000Y0262000D03*
X0151000Y0262000D03*
X0147000Y0262000D03*
X0147000Y0256500D03*
X0159000Y0256500D03*
X0159000Y0244500D03*
X0159000Y0239000D03*
X0155000Y0239000D03*
X0151000Y0239000D03*
X0147000Y0239000D03*
X0147000Y0244500D03*
X0165000Y0270000D02*
G75*
%LPD*%
D18*
X0153000Y0281480D03*
X0153000Y0292510D03*
D11*
X0160500Y0274500D02*
X0145500Y0274500D01*
X0145500Y0284000D01*
X0160500Y0284000D01*
X0160500Y0274500D01*
X0160070Y0274500D02*
X0160070Y0284000D01*
X0159090Y0284000D02*
X0159090Y0274500D01*
X0158100Y0274500D02*
X0158100Y0284000D01*
X0157120Y0284000D02*
X0157120Y0274500D01*
X0156130Y0274500D02*
X0156130Y0284000D01*
X0155150Y0284000D02*
X0155150Y0274500D01*
X0154160Y0274500D02*
X0154160Y0284000D01*
X0153180Y0284000D02*
X0153180Y0274500D01*
X0152190Y0274500D02*
X0152190Y0284000D01*
X0151210Y0284000D02*
X0151210Y0274500D01*
X0150220Y0274500D02*
X0150220Y0284000D01*
X0149240Y0284000D02*
X0149240Y0274500D01*
X0148250Y0274500D02*
X0148250Y0284000D01*
X0147270Y0284000D02*
X0147270Y0274500D01*
X0146280Y0274500D02*
X0146280Y0284000D01*
X0146280Y0291000D02*
X0146280Y0300500D01*
X0145500Y0300500D02*
X0160500Y0300500D01*
X0160500Y0291000D01*
X0145500Y0291000D01*
X0145500Y0300500D01*
X0147270Y0300500D02*
X0147270Y0291000D01*
X0148250Y0291000D02*
X0148250Y0300500D01*
X0149240Y0300500D02*
X0149240Y0291000D01*
X0150220Y0291000D02*
X0150220Y0300500D01*
X0151210Y0300500D02*
X0151210Y0291000D01*
X0152190Y0291000D02*
X0152190Y0300500D01*
X0153180Y0300500D02*
X0153180Y0291000D01*
X0154160Y0291000D02*
X0154160Y0300500D01*
X0155150Y0300500D02*
X0155150Y0291000D01*
X0156130Y0291000D02*
X0156130Y0300500D01*
X0157120Y0300500D02*
X0157120Y0291000D01*
X0158100Y0291000D02*
X0158100Y0300500D01*
X0159090Y0300500D02*
X0159090Y0291000D01*
X0160070Y0291000D02*
X0160070Y0300500D01*
D17*
X0159000Y0299000D03*
X0155000Y0299000D03*
X0151000Y0299000D03*
X0147000Y0299000D03*
X0147000Y0293500D03*
X0159000Y0293500D03*
X0159000Y0281500D03*
X0159000Y0276000D03*
X0155000Y0276000D03*
X0151000Y0276000D03*
X0147000Y0276000D03*
X0147000Y0281500D03*
X0011000Y0307000D02*
G75*
%LPD*%
X0139000Y0307000D02*
G75*
%LPD*%
D18*
X0127000Y0318480D03*
X0127000Y0329510D03*
D11*
X0134500Y0311500D02*
X0119500Y0311500D01*
X0119500Y0321000D01*
X0134500Y0321000D01*
X0134500Y0311500D01*
X0134070Y0311500D02*
X0134070Y0321000D01*
X0133090Y0321000D02*
X0133090Y0311500D01*
X0132100Y0311500D02*
X0132100Y0321000D01*
X0131120Y0321000D02*
X0131120Y0311500D01*
X0130130Y0311500D02*
X0130130Y0321000D01*
X0129150Y0321000D02*
X0129150Y0311500D01*
X0128160Y0311500D02*
X0128160Y0321000D01*
X0127180Y0321000D02*
X0127180Y0311500D01*
X0126190Y0311500D02*
X0126190Y0321000D01*
X0125210Y0321000D02*
X0125210Y0311500D01*
X0124220Y0311500D02*
X0124220Y0321000D01*
X0123240Y0321000D02*
X0123240Y0311500D01*
X0122250Y0311500D02*
X0122250Y0321000D01*
X0121270Y0321000D02*
X0121270Y0311500D01*
X0120280Y0311500D02*
X0120280Y0321000D01*
X0120280Y0328000D02*
X0120280Y0337500D01*
X0119500Y0337500D02*
X0134500Y0337500D01*
X0134500Y0328000D01*
X0119500Y0328000D01*
X0119500Y0337500D01*
X0121270Y0337500D02*
X0121270Y0328000D01*
X0122250Y0328000D02*
X0122250Y0337500D01*
X0123240Y0337500D02*
X0123240Y0328000D01*
X0124220Y0328000D02*
X0124220Y0337500D01*
X0125210Y0337500D02*
X0125210Y0328000D01*
X0126190Y0328000D02*
X0126190Y0337500D01*
X0127180Y0337500D02*
X0127180Y0328000D01*
X0128160Y0328000D02*
X0128160Y0337500D01*
X0129150Y0337500D02*
X0129150Y0328000D01*
X0130130Y0328000D02*
X0130130Y0337500D01*
X0131120Y0337500D02*
X0131120Y0328000D01*
X0132100Y0328000D02*
X0132100Y0337500D01*
X0133090Y0337500D02*
X0133090Y0328000D01*
X0134070Y0328000D02*
X0134070Y0337500D01*
D17*
X0133000Y0336000D03*
X0129000Y0336000D03*
X0125000Y0336000D03*
X0121000Y0336000D03*
X0121000Y0330500D03*
X0133000Y0330500D03*
X0133000Y0318500D03*
X0133000Y0313000D03*
X0129000Y0313000D03*
X0125000Y0313000D03*
X0121000Y0313000D03*
X0121000Y0318500D03*
X0113000Y0307000D02*
G75*
%LPD*%
D18*
X0101000Y0318480D03*
X0101000Y0329510D03*
D11*
X0108500Y0311500D02*
X0093500Y0311500D01*
X0093500Y0321000D01*
X0108500Y0321000D01*
X0108500Y0311500D01*
X0108070Y0311500D02*
X0108070Y0321000D01*
X0107090Y0321000D02*
X0107090Y0311500D01*
X0106100Y0311500D02*
X0106100Y0321000D01*
X0105120Y0321000D02*
X0105120Y0311500D01*
X0104130Y0311500D02*
X0104130Y0321000D01*
X0103150Y0321000D02*
X0103150Y0311500D01*
X0102160Y0311500D02*
X0102160Y0321000D01*
X0101180Y0321000D02*
X0101180Y0311500D01*
X0100190Y0311500D02*
X0100190Y0321000D01*
X0099210Y0321000D02*
X0099210Y0311500D01*
X0098220Y0311500D02*
X0098220Y0321000D01*
X0097240Y0321000D02*
X0097240Y0311500D01*
X0096250Y0311500D02*
X0096250Y0321000D01*
X0095270Y0321000D02*
X0095270Y0311500D01*
X0094280Y0311500D02*
X0094280Y0321000D01*
X0094280Y0328000D02*
X0094280Y0337500D01*
X0093500Y0337500D02*
X0108500Y0337500D01*
X0108500Y0328000D01*
X0093500Y0328000D01*
X0093500Y0337500D01*
X0095270Y0337500D02*
X0095270Y0328000D01*
X0096250Y0328000D02*
X0096250Y0337500D01*
X0097240Y0337500D02*
X0097240Y0328000D01*
X0098220Y0328000D02*
X0098220Y0337500D01*
X0099210Y0337500D02*
X0099210Y0328000D01*
X0100190Y0328000D02*
X0100190Y0337500D01*
X0101180Y0337500D02*
X0101180Y0328000D01*
X0102160Y0328000D02*
X0102160Y0337500D01*
X0103150Y0337500D02*
X0103150Y0328000D01*
X0104130Y0328000D02*
X0104130Y0337500D01*
X0105120Y0337500D02*
X0105120Y0328000D01*
X0106100Y0328000D02*
X0106100Y0337500D01*
X0107090Y0337500D02*
X0107090Y0328000D01*
X0108070Y0328000D02*
X0108070Y0337500D01*
D17*
X0107000Y0336000D03*
X0103000Y0336000D03*
X0099000Y0336000D03*
X0095000Y0336000D03*
X0095000Y0330500D03*
X0107000Y0330500D03*
X0107000Y0318500D03*
X0107000Y0313000D03*
X0103000Y0313000D03*
X0099000Y0313000D03*
X0095000Y0313000D03*
X0095000Y0318500D03*
X0139000Y0344000D02*
G75*
%LPD*%
D18*
X0127000Y0355480D03*
X0127000Y0366510D03*
D11*
X0134500Y0348500D02*
X0119500Y0348500D01*
X0119500Y0358000D01*
X0134500Y0358000D01*
X0134500Y0348500D01*
X0134070Y0348500D02*
X0134070Y0358000D01*
X0133090Y0358000D02*
X0133090Y0348500D01*
X0132100Y0348500D02*
X0132100Y0358000D01*
X0131120Y0358000D02*
X0131120Y0348500D01*
X0130130Y0348500D02*
X0130130Y0358000D01*
X0129150Y0358000D02*
X0129150Y0348500D01*
X0128160Y0348500D02*
X0128160Y0358000D01*
X0127180Y0358000D02*
X0127180Y0348500D01*
X0126190Y0348500D02*
X0126190Y0358000D01*
X0125210Y0358000D02*
X0125210Y0348500D01*
X0124220Y0348500D02*
X0124220Y0358000D01*
X0123240Y0358000D02*
X0123240Y0348500D01*
X0122250Y0348500D02*
X0122250Y0358000D01*
X0121270Y0358000D02*
X0121270Y0348500D01*
X0120280Y0348500D02*
X0120280Y0358000D01*
X0120280Y0365000D02*
X0120280Y0374500D01*
X0119500Y0374500D02*
X0134500Y0374500D01*
X0134500Y0365000D01*
X0119500Y0365000D01*
X0119500Y0374500D01*
X0121270Y0374500D02*
X0121270Y0365000D01*
X0122250Y0365000D02*
X0122250Y0374500D01*
X0123240Y0374500D02*
X0123240Y0365000D01*
X0124220Y0365000D02*
X0124220Y0374500D01*
X0125210Y0374500D02*
X0125210Y0365000D01*
X0126190Y0365000D02*
X0126190Y0374500D01*
X0127180Y0374500D02*
X0127180Y0365000D01*
X0128160Y0365000D02*
X0128160Y0374500D01*
X0129150Y0374500D02*
X0129150Y0365000D01*
X0130130Y0365000D02*
X0130130Y0374500D01*
X0131120Y0374500D02*
X0131120Y0365000D01*
X0132100Y0365000D02*
X0132100Y0374500D01*
X0133090Y0374500D02*
X0133090Y0365000D01*
X0134070Y0365000D02*
X0134070Y0374500D01*
D17*
X0133000Y0373000D03*
X0129000Y0373000D03*
X0125000Y0373000D03*
X0121000Y0373000D03*
X0121000Y0367500D03*
X0133000Y0367500D03*
X0133000Y0355500D03*
X0133000Y0350000D03*
X0129000Y0350000D03*
X0125000Y0350000D03*
X0121000Y0350000D03*
X0121000Y0355500D03*
X0087000Y0307000D02*
G75*
%LPD*%
D18*
X0075000Y0318480D03*
X0075000Y0329510D03*
D11*
X0082500Y0311500D02*
X0067500Y0311500D01*
X0067500Y0321000D01*
X0082500Y0321000D01*
X0082500Y0311500D01*
X0082070Y0311500D02*
X0082070Y0321000D01*
X0081090Y0321000D02*
X0081090Y0311500D01*
X0080100Y0311500D02*
X0080100Y0321000D01*
X0079120Y0321000D02*
X0079120Y0311500D01*
X0078130Y0311500D02*
X0078130Y0321000D01*
X0077150Y0321000D02*
X0077150Y0311500D01*
X0076160Y0311500D02*
X0076160Y0321000D01*
X0075180Y0321000D02*
X0075180Y0311500D01*
X0074190Y0311500D02*
X0074190Y0321000D01*
X0073210Y0321000D02*
X0073210Y0311500D01*
X0072220Y0311500D02*
X0072220Y0321000D01*
X0071240Y0321000D02*
X0071240Y0311500D01*
X0070250Y0311500D02*
X0070250Y0321000D01*
X0069270Y0321000D02*
X0069270Y0311500D01*
X0068280Y0311500D02*
X0068280Y0321000D01*
X0068280Y0328000D02*
X0068280Y0337500D01*
X0067500Y0337500D02*
X0082500Y0337500D01*
X0082500Y0328000D01*
X0067500Y0328000D01*
X0067500Y0337500D01*
X0069270Y0337500D02*
X0069270Y0328000D01*
X0070250Y0328000D02*
X0070250Y0337500D01*
X0071240Y0337500D02*
X0071240Y0328000D01*
X0072220Y0328000D02*
X0072220Y0337500D01*
X0073210Y0337500D02*
X0073210Y0328000D01*
X0074190Y0328000D02*
X0074190Y0337500D01*
X0075180Y0337500D02*
X0075180Y0328000D01*
X0076160Y0328000D02*
X0076160Y0337500D01*
X0077150Y0337500D02*
X0077150Y0328000D01*
X0078130Y0328000D02*
X0078130Y0337500D01*
X0079120Y0337500D02*
X0079120Y0328000D01*
X0080100Y0328000D02*
X0080100Y0337500D01*
X0081090Y0337500D02*
X0081090Y0328000D01*
X0082070Y0328000D02*
X0082070Y0337500D01*
D17*
X0081000Y0336000D03*
X0077000Y0336000D03*
X0073000Y0336000D03*
X0069000Y0336000D03*
X0069000Y0330500D03*
X0081000Y0330500D03*
X0081000Y0318500D03*
X0081000Y0313000D03*
X0077000Y0313000D03*
X0073000Y0313000D03*
X0069000Y0313000D03*
X0069000Y0318500D03*
X0113000Y0344000D02*
G75*
%LPD*%
D18*
X0101000Y0355480D03*
X0101000Y0366510D03*
D11*
X0108500Y0348500D02*
X0093500Y0348500D01*
X0093500Y0358000D01*
X0108500Y0358000D01*
X0108500Y0348500D01*
X0108070Y0348500D02*
X0108070Y0358000D01*
X0107090Y0358000D02*
X0107090Y0348500D01*
X0106100Y0348500D02*
X0106100Y0358000D01*
X0105120Y0358000D02*
X0105120Y0348500D01*
X0104130Y0348500D02*
X0104130Y0358000D01*
X0103150Y0358000D02*
X0103150Y0348500D01*
X0102160Y0348500D02*
X0102160Y0358000D01*
X0101180Y0358000D02*
X0101180Y0348500D01*
X0100190Y0348500D02*
X0100190Y0358000D01*
X0099210Y0358000D02*
X0099210Y0348500D01*
X0098220Y0348500D02*
X0098220Y0358000D01*
X0097240Y0358000D02*
X0097240Y0348500D01*
X0096250Y0348500D02*
X0096250Y0358000D01*
X0095270Y0358000D02*
X0095270Y0348500D01*
X0094280Y0348500D02*
X0094280Y0358000D01*
X0094280Y0365000D02*
X0094280Y0374500D01*
X0093500Y0374500D02*
X0108500Y0374500D01*
X0108500Y0365000D01*
X0093500Y0365000D01*
X0093500Y0374500D01*
X0095270Y0374500D02*
X0095270Y0365000D01*
X0096250Y0365000D02*
X0096250Y0374500D01*
X0097240Y0374500D02*
X0097240Y0365000D01*
X0098220Y0365000D02*
X0098220Y0374500D01*
X0099210Y0374500D02*
X0099210Y0365000D01*
X0100190Y0365000D02*
X0100190Y0374500D01*
X0101180Y0374500D02*
X0101180Y0365000D01*
X0102160Y0365000D02*
X0102160Y0374500D01*
X0103150Y0374500D02*
X0103150Y0365000D01*
X0104130Y0365000D02*
X0104130Y0374500D01*
X0105120Y0374500D02*
X0105120Y0365000D01*
X0106100Y0365000D02*
X0106100Y0374500D01*
X0107090Y0374500D02*
X0107090Y0365000D01*
X0108070Y0365000D02*
X0108070Y0374500D01*
D17*
X0107000Y0373000D03*
X0103000Y0373000D03*
X0099000Y0373000D03*
X0095000Y0373000D03*
X0095000Y0367500D03*
X0107000Y0367500D03*
X0107000Y0355500D03*
X0107000Y0350000D03*
X0103000Y0350000D03*
X0099000Y0350000D03*
X0095000Y0350000D03*
X0095000Y0355500D03*
X0061000Y0307000D02*
G75*
%LPD*%
D18*
X0049000Y0318480D03*
X0049000Y0329510D03*
D11*
X0056500Y0311500D02*
X0041500Y0311500D01*
X0041500Y0321000D01*
X0056500Y0321000D01*
X0056500Y0311500D01*
X0056070Y0311500D02*
X0056070Y0321000D01*
X0055090Y0321000D02*
X0055090Y0311500D01*
X0054100Y0311500D02*
X0054100Y0321000D01*
X0053120Y0321000D02*
X0053120Y0311500D01*
X0052130Y0311500D02*
X0052130Y0321000D01*
X0051150Y0321000D02*
X0051150Y0311500D01*
X0050160Y0311500D02*
X0050160Y0321000D01*
X0049180Y0321000D02*
X0049180Y0311500D01*
X0048190Y0311500D02*
X0048190Y0321000D01*
X0047210Y0321000D02*
X0047210Y0311500D01*
X0046220Y0311500D02*
X0046220Y0321000D01*
X0045240Y0321000D02*
X0045240Y0311500D01*
X0044250Y0311500D02*
X0044250Y0321000D01*
X0043270Y0321000D02*
X0043270Y0311500D01*
X0042280Y0311500D02*
X0042280Y0321000D01*
X0042280Y0328000D02*
X0042280Y0337500D01*
X0041500Y0337500D02*
X0056500Y0337500D01*
X0056500Y0328000D01*
X0041500Y0328000D01*
X0041500Y0337500D01*
X0043270Y0337500D02*
X0043270Y0328000D01*
X0044250Y0328000D02*
X0044250Y0337500D01*
X0045240Y0337500D02*
X0045240Y0328000D01*
X0046220Y0328000D02*
X0046220Y0337500D01*
X0047210Y0337500D02*
X0047210Y0328000D01*
X0048190Y0328000D02*
X0048190Y0337500D01*
X0049180Y0337500D02*
X0049180Y0328000D01*
X0050160Y0328000D02*
X0050160Y0337500D01*
X0051150Y0337500D02*
X0051150Y0328000D01*
X0052130Y0328000D02*
X0052130Y0337500D01*
X0053120Y0337500D02*
X0053120Y0328000D01*
X0054100Y0328000D02*
X0054100Y0337500D01*
X0055090Y0337500D02*
X0055090Y0328000D01*
X0056070Y0328000D02*
X0056070Y0337500D01*
D17*
X0055000Y0336000D03*
X0051000Y0336000D03*
X0047000Y0336000D03*
X0043000Y0336000D03*
X0043000Y0330500D03*
X0055000Y0330500D03*
X0055000Y0318500D03*
X0055000Y0313000D03*
X0051000Y0313000D03*
X0047000Y0313000D03*
X0043000Y0313000D03*
X0043000Y0318500D03*
X0087000Y0344000D02*
G75*
%LPD*%
D18*
X0075000Y0355480D03*
X0075000Y0366510D03*
D11*
X0082500Y0348500D02*
X0067500Y0348500D01*
X0067500Y0358000D01*
X0082500Y0358000D01*
X0082500Y0348500D01*
X0082070Y0348500D02*
X0082070Y0358000D01*
X0081090Y0358000D02*
X0081090Y0348500D01*
X0080100Y0348500D02*
X0080100Y0358000D01*
X0079120Y0358000D02*
X0079120Y0348500D01*
X0078130Y0348500D02*
X0078130Y0358000D01*
X0077150Y0358000D02*
X0077150Y0348500D01*
X0076160Y0348500D02*
X0076160Y0358000D01*
X0075180Y0358000D02*
X0075180Y0348500D01*
X0074190Y0348500D02*
X0074190Y0358000D01*
X0073210Y0358000D02*
X0073210Y0348500D01*
X0072220Y0348500D02*
X0072220Y0358000D01*
X0071240Y0358000D02*
X0071240Y0348500D01*
X0070250Y0348500D02*
X0070250Y0358000D01*
X0069270Y0358000D02*
X0069270Y0348500D01*
X0068280Y0348500D02*
X0068280Y0358000D01*
X0068280Y0365000D02*
X0068280Y0374500D01*
X0067500Y0374500D02*
X0082500Y0374500D01*
X0082500Y0365000D01*
X0067500Y0365000D01*
X0067500Y0374500D01*
X0069270Y0374500D02*
X0069270Y0365000D01*
X0070250Y0365000D02*
X0070250Y0374500D01*
X0071240Y0374500D02*
X0071240Y0365000D01*
X0072220Y0365000D02*
X0072220Y0374500D01*
X0073210Y0374500D02*
X0073210Y0365000D01*
X0074190Y0365000D02*
X0074190Y0374500D01*
X0075180Y0374500D02*
X0075180Y0365000D01*
X0076160Y0365000D02*
X0076160Y0374500D01*
X0077150Y0374500D02*
X0077150Y0365000D01*
X0078130Y0365000D02*
X0078130Y0374500D01*
X0079120Y0374500D02*
X0079120Y0365000D01*
X0080100Y0365000D02*
X0080100Y0374500D01*
X0081090Y0374500D02*
X0081090Y0365000D01*
X0082070Y0365000D02*
X0082070Y0374500D01*
D17*
X0081000Y0373000D03*
X0077000Y0373000D03*
X0073000Y0373000D03*
X0069000Y0373000D03*
X0069000Y0367500D03*
X0081000Y0367500D03*
X0081000Y0355500D03*
X0081000Y0350000D03*
X0077000Y0350000D03*
X0073000Y0350000D03*
X0069000Y0350000D03*
X0069000Y0355500D03*
X0061000Y0344000D02*
G75*
%LPD*%
D18*
X0049000Y0355480D03*
X0049000Y0366510D03*
D11*
X0056500Y0348500D02*
X0041500Y0348500D01*
X0041500Y0358000D01*
X0056500Y0358000D01*
X0056500Y0348500D01*
X0056070Y0348500D02*
X0056070Y0358000D01*
X0055090Y0358000D02*
X0055090Y0348500D01*
X0054100Y0348500D02*
X0054100Y0358000D01*
X0053120Y0358000D02*
X0053120Y0348500D01*
X0052130Y0348500D02*
X0052130Y0358000D01*
X0051150Y0358000D02*
X0051150Y0348500D01*
X0050160Y0348500D02*
X0050160Y0358000D01*
X0049180Y0358000D02*
X0049180Y0348500D01*
X0048190Y0348500D02*
X0048190Y0358000D01*
X0047210Y0358000D02*
X0047210Y0348500D01*
X0046220Y0348500D02*
X0046220Y0358000D01*
X0045240Y0358000D02*
X0045240Y0348500D01*
X0044250Y0348500D02*
X0044250Y0358000D01*
X0043270Y0358000D02*
X0043270Y0348500D01*
X0042280Y0348500D02*
X0042280Y0358000D01*
X0042280Y0365000D02*
X0042280Y0374500D01*
X0041500Y0374500D02*
X0056500Y0374500D01*
X0056500Y0365000D01*
X0041500Y0365000D01*
X0041500Y0374500D01*
X0043270Y0374500D02*
X0043270Y0365000D01*
X0044250Y0365000D02*
X0044250Y0374500D01*
X0045240Y0374500D02*
X0045240Y0365000D01*
X0046220Y0365000D02*
X0046220Y0374500D01*
X0047210Y0374500D02*
X0047210Y0365000D01*
X0048190Y0365000D02*
X0048190Y0374500D01*
X0049180Y0374500D02*
X0049180Y0365000D01*
X0050160Y0365000D02*
X0050160Y0374500D01*
X0051150Y0374500D02*
X0051150Y0365000D01*
X0052130Y0365000D02*
X0052130Y0374500D01*
X0053120Y0374500D02*
X0053120Y0365000D01*
X0054100Y0365000D02*
X0054100Y0374500D01*
X0055090Y0374500D02*
X0055090Y0365000D01*
X0056070Y0365000D02*
X0056070Y0374500D01*
D17*
X0055000Y0373000D03*
X0051000Y0373000D03*
X0047000Y0373000D03*
X0043000Y0373000D03*
X0043000Y0367500D03*
X0055000Y0367500D03*
X0055000Y0355500D03*
X0055000Y0350000D03*
X0051000Y0350000D03*
X0047000Y0350000D03*
X0043000Y0350000D03*
X0043000Y0355500D03*
X0035000Y0307000D02*
G75*
%LPD*%
D18*
X0023000Y0318480D03*
X0023000Y0329510D03*
D11*
X0030500Y0311500D02*
X0015500Y0311500D01*
X0015500Y0321000D01*
X0030500Y0321000D01*
X0030500Y0311500D01*
X0030070Y0311500D02*
X0030070Y0321000D01*
X0029090Y0321000D02*
X0029090Y0311500D01*
X0028100Y0311500D02*
X0028100Y0321000D01*
X0027120Y0321000D02*
X0027120Y0311500D01*
X0026130Y0311500D02*
X0026130Y0321000D01*
X0025150Y0321000D02*
X0025150Y0311500D01*
X0024160Y0311500D02*
X0024160Y0321000D01*
X0023180Y0321000D02*
X0023180Y0311500D01*
X0022190Y0311500D02*
X0022190Y0321000D01*
X0021210Y0321000D02*
X0021210Y0311500D01*
X0020220Y0311500D02*
X0020220Y0321000D01*
X0019240Y0321000D02*
X0019240Y0311500D01*
X0018250Y0311500D02*
X0018250Y0321000D01*
X0017270Y0321000D02*
X0017270Y0311500D01*
X0016280Y0311500D02*
X0016280Y0321000D01*
X0016280Y0328000D02*
X0016280Y0337500D01*
X0015500Y0337500D02*
X0030500Y0337500D01*
X0030500Y0328000D01*
X0015500Y0328000D01*
X0015500Y0337500D01*
X0017270Y0337500D02*
X0017270Y0328000D01*
X0018250Y0328000D02*
X0018250Y0337500D01*
X0019240Y0337500D02*
X0019240Y0328000D01*
X0020220Y0328000D02*
X0020220Y0337500D01*
X0021210Y0337500D02*
X0021210Y0328000D01*
X0022190Y0328000D02*
X0022190Y0337500D01*
X0023180Y0337500D02*
X0023180Y0328000D01*
X0024160Y0328000D02*
X0024160Y0337500D01*
X0025150Y0337500D02*
X0025150Y0328000D01*
X0026130Y0328000D02*
X0026130Y0337500D01*
X0027120Y0337500D02*
X0027120Y0328000D01*
X0028100Y0328000D02*
X0028100Y0337500D01*
X0029090Y0337500D02*
X0029090Y0328000D01*
X0030070Y0328000D02*
X0030070Y0337500D01*
D17*
X0029000Y0336000D03*
X0025000Y0336000D03*
X0021000Y0336000D03*
X0017000Y0336000D03*
X0017000Y0330500D03*
X0029000Y0330500D03*
X0029000Y0318500D03*
X0029000Y0313000D03*
X0025000Y0313000D03*
X0021000Y0313000D03*
X0017000Y0313000D03*
X0017000Y0318500D03*
X0035000Y0344000D02*
G75*
%LPD*%
D18*
X0023000Y0355480D03*
X0023000Y0366510D03*
D11*
X0030500Y0348500D02*
X0015500Y0348500D01*
X0015500Y0358000D01*
X0030500Y0358000D01*
X0030500Y0348500D01*
X0030070Y0348500D02*
X0030070Y0358000D01*
X0029090Y0358000D02*
X0029090Y0348500D01*
X0028100Y0348500D02*
X0028100Y0358000D01*
X0027120Y0358000D02*
X0027120Y0348500D01*
X0026130Y0348500D02*
X0026130Y0358000D01*
X0025150Y0358000D02*
X0025150Y0348500D01*
X0024160Y0348500D02*
X0024160Y0358000D01*
X0023180Y0358000D02*
X0023180Y0348500D01*
X0022190Y0348500D02*
X0022190Y0358000D01*
X0021210Y0358000D02*
X0021210Y0348500D01*
X0020220Y0348500D02*
X0020220Y0358000D01*
X0019240Y0358000D02*
X0019240Y0348500D01*
X0018250Y0348500D02*
X0018250Y0358000D01*
X0017270Y0358000D02*
X0017270Y0348500D01*
X0016280Y0348500D02*
X0016280Y0358000D01*
X0016280Y0365000D02*
X0016280Y0374500D01*
X0015500Y0374500D02*
X0030500Y0374500D01*
X0030500Y0365000D01*
X0015500Y0365000D01*
X0015500Y0374500D01*
X0017270Y0374500D02*
X0017270Y0365000D01*
X0018250Y0365000D02*
X0018250Y0374500D01*
X0019240Y0374500D02*
X0019240Y0365000D01*
X0020220Y0365000D02*
X0020220Y0374500D01*
X0021210Y0374500D02*
X0021210Y0365000D01*
X0022190Y0365000D02*
X0022190Y0374500D01*
X0023180Y0374500D02*
X0023180Y0365000D01*
X0024160Y0365000D02*
X0024160Y0374500D01*
X0025150Y0374500D02*
X0025150Y0365000D01*
X0026130Y0365000D02*
X0026130Y0374500D01*
X0027120Y0374500D02*
X0027120Y0365000D01*
X0028100Y0365000D02*
X0028100Y0374500D01*
X0029090Y0374500D02*
X0029090Y0365000D01*
X0030070Y0365000D02*
X0030070Y0374500D01*
D17*
X0029000Y0373000D03*
X0025000Y0373000D03*
X0021000Y0373000D03*
X0017000Y0373000D03*
X0017000Y0367500D03*
X0029000Y0367500D03*
X0029000Y0355500D03*
X0029000Y0350000D03*
X0025000Y0350000D03*
X0021000Y0350000D03*
X0017000Y0350000D03*
X0017000Y0355500D03*
X0141000Y0307000D02*
G75*
%LPD*%
X0269000Y0307000D02*
G75*
%LPD*%
D18*
X0257000Y0318480D03*
X0257000Y0329510D03*
D11*
X0264500Y0311500D02*
X0249500Y0311500D01*
X0249500Y0321000D01*
X0264500Y0321000D01*
X0264500Y0311500D01*
X0264070Y0311500D02*
X0264070Y0321000D01*
X0263090Y0321000D02*
X0263090Y0311500D01*
X0262100Y0311500D02*
X0262100Y0321000D01*
X0261120Y0321000D02*
X0261120Y0311500D01*
X0260130Y0311500D02*
X0260130Y0321000D01*
X0259150Y0321000D02*
X0259150Y0311500D01*
X0258160Y0311500D02*
X0258160Y0321000D01*
X0257180Y0321000D02*
X0257180Y0311500D01*
X0256190Y0311500D02*
X0256190Y0321000D01*
X0255210Y0321000D02*
X0255210Y0311500D01*
X0254220Y0311500D02*
X0254220Y0321000D01*
X0253240Y0321000D02*
X0253240Y0311500D01*
X0252250Y0311500D02*
X0252250Y0321000D01*
X0251270Y0321000D02*
X0251270Y0311500D01*
X0250280Y0311500D02*
X0250280Y0321000D01*
X0250280Y0328000D02*
X0250280Y0337500D01*
X0249500Y0337500D02*
X0264500Y0337500D01*
X0264500Y0328000D01*
X0249500Y0328000D01*
X0249500Y0337500D01*
X0251270Y0337500D02*
X0251270Y0328000D01*
X0252250Y0328000D02*
X0252250Y0337500D01*
X0253240Y0337500D02*
X0253240Y0328000D01*
X0254220Y0328000D02*
X0254220Y0337500D01*
X0255210Y0337500D02*
X0255210Y0328000D01*
X0256190Y0328000D02*
X0256190Y0337500D01*
X0257180Y0337500D02*
X0257180Y0328000D01*
X0258160Y0328000D02*
X0258160Y0337500D01*
X0259150Y0337500D02*
X0259150Y0328000D01*
X0260130Y0328000D02*
X0260130Y0337500D01*
X0261120Y0337500D02*
X0261120Y0328000D01*
X0262100Y0328000D02*
X0262100Y0337500D01*
X0263090Y0337500D02*
X0263090Y0328000D01*
X0264070Y0328000D02*
X0264070Y0337500D01*
D17*
X0263000Y0336000D03*
X0259000Y0336000D03*
X0255000Y0336000D03*
X0251000Y0336000D03*
X0251000Y0330500D03*
X0263000Y0330500D03*
X0263000Y0318500D03*
X0263000Y0313000D03*
X0259000Y0313000D03*
X0255000Y0313000D03*
X0251000Y0313000D03*
X0251000Y0318500D03*
X0243000Y0307000D02*
G75*
%LPD*%
D18*
X0231000Y0318480D03*
X0231000Y0329510D03*
D11*
X0238500Y0311500D02*
X0223500Y0311500D01*
X0223500Y0321000D01*
X0238500Y0321000D01*
X0238500Y0311500D01*
X0238070Y0311500D02*
X0238070Y0321000D01*
X0237090Y0321000D02*
X0237090Y0311500D01*
X0236100Y0311500D02*
X0236100Y0321000D01*
X0235120Y0321000D02*
X0235120Y0311500D01*
X0234130Y0311500D02*
X0234130Y0321000D01*
X0233150Y0321000D02*
X0233150Y0311500D01*
X0232160Y0311500D02*
X0232160Y0321000D01*
X0231180Y0321000D02*
X0231180Y0311500D01*
X0230190Y0311500D02*
X0230190Y0321000D01*
X0229210Y0321000D02*
X0229210Y0311500D01*
X0228220Y0311500D02*
X0228220Y0321000D01*
X0227240Y0321000D02*
X0227240Y0311500D01*
X0226250Y0311500D02*
X0226250Y0321000D01*
X0225270Y0321000D02*
X0225270Y0311500D01*
X0224280Y0311500D02*
X0224280Y0321000D01*
X0224280Y0328000D02*
X0224280Y0337500D01*
X0223500Y0337500D02*
X0238500Y0337500D01*
X0238500Y0328000D01*
X0223500Y0328000D01*
X0223500Y0337500D01*
X0225270Y0337500D02*
X0225270Y0328000D01*
X0226250Y0328000D02*
X0226250Y0337500D01*
X0227240Y0337500D02*
X0227240Y0328000D01*
X0228220Y0328000D02*
X0228220Y0337500D01*
X0229210Y0337500D02*
X0229210Y0328000D01*
X0230190Y0328000D02*
X0230190Y0337500D01*
X0231180Y0337500D02*
X0231180Y0328000D01*
X0232160Y0328000D02*
X0232160Y0337500D01*
X0233150Y0337500D02*
X0233150Y0328000D01*
X0234130Y0328000D02*
X0234130Y0337500D01*
X0235120Y0337500D02*
X0235120Y0328000D01*
X0236100Y0328000D02*
X0236100Y0337500D01*
X0237090Y0337500D02*
X0237090Y0328000D01*
X0238070Y0328000D02*
X0238070Y0337500D01*
D17*
X0237000Y0336000D03*
X0233000Y0336000D03*
X0229000Y0336000D03*
X0225000Y0336000D03*
X0225000Y0330500D03*
X0237000Y0330500D03*
X0237000Y0318500D03*
X0237000Y0313000D03*
X0233000Y0313000D03*
X0229000Y0313000D03*
X0225000Y0313000D03*
X0225000Y0318500D03*
X0269000Y0344000D02*
G75*
%LPD*%
D18*
X0257000Y0355480D03*
X0257000Y0366510D03*
D11*
X0264500Y0348500D02*
X0249500Y0348500D01*
X0249500Y0358000D01*
X0264500Y0358000D01*
X0264500Y0348500D01*
X0264070Y0348500D02*
X0264070Y0358000D01*
X0263090Y0358000D02*
X0263090Y0348500D01*
X0262100Y0348500D02*
X0262100Y0358000D01*
X0261120Y0358000D02*
X0261120Y0348500D01*
X0260130Y0348500D02*
X0260130Y0358000D01*
X0259150Y0358000D02*
X0259150Y0348500D01*
X0258160Y0348500D02*
X0258160Y0358000D01*
X0257180Y0358000D02*
X0257180Y0348500D01*
X0256190Y0348500D02*
X0256190Y0358000D01*
X0255210Y0358000D02*
X0255210Y0348500D01*
X0254220Y0348500D02*
X0254220Y0358000D01*
X0253240Y0358000D02*
X0253240Y0348500D01*
X0252250Y0348500D02*
X0252250Y0358000D01*
X0251270Y0358000D02*
X0251270Y0348500D01*
X0250280Y0348500D02*
X0250280Y0358000D01*
X0250280Y0365000D02*
X0250280Y0374500D01*
X0249500Y0374500D02*
X0264500Y0374500D01*
X0264500Y0365000D01*
X0249500Y0365000D01*
X0249500Y0374500D01*
X0251270Y0374500D02*
X0251270Y0365000D01*
X0252250Y0365000D02*
X0252250Y0374500D01*
X0253240Y0374500D02*
X0253240Y0365000D01*
X0254220Y0365000D02*
X0254220Y0374500D01*
X0255210Y0374500D02*
X0255210Y0365000D01*
X0256190Y0365000D02*
X0256190Y0374500D01*
X0257180Y0374500D02*
X0257180Y0365000D01*
X0258160Y0365000D02*
X0258160Y0374500D01*
X0259150Y0374500D02*
X0259150Y0365000D01*
X0260130Y0365000D02*
X0260130Y0374500D01*
X0261120Y0374500D02*
X0261120Y0365000D01*
X0262100Y0365000D02*
X0262100Y0374500D01*
X0263090Y0374500D02*
X0263090Y0365000D01*
X0264070Y0365000D02*
X0264070Y0374500D01*
D17*
X0263000Y0373000D03*
X0259000Y0373000D03*
X0255000Y0373000D03*
X0251000Y0373000D03*
X0251000Y0367500D03*
X0263000Y0367500D03*
X0263000Y0355500D03*
X0263000Y0350000D03*
X0259000Y0350000D03*
X0255000Y0350000D03*
X0251000Y0350000D03*
X0251000Y0355500D03*
X0217000Y0307000D02*
G75*
%LPD*%
D18*
X0205000Y0318480D03*
X0205000Y0329510D03*
D11*
X0212500Y0311500D02*
X0197500Y0311500D01*
X0197500Y0321000D01*
X0212500Y0321000D01*
X0212500Y0311500D01*
X0212070Y0311500D02*
X0212070Y0321000D01*
X0211090Y0321000D02*
X0211090Y0311500D01*
X0210100Y0311500D02*
X0210100Y0321000D01*
X0209120Y0321000D02*
X0209120Y0311500D01*
X0208130Y0311500D02*
X0208130Y0321000D01*
X0207150Y0321000D02*
X0207150Y0311500D01*
X0206160Y0311500D02*
X0206160Y0321000D01*
X0205180Y0321000D02*
X0205180Y0311500D01*
X0204190Y0311500D02*
X0204190Y0321000D01*
X0203210Y0321000D02*
X0203210Y0311500D01*
X0202220Y0311500D02*
X0202220Y0321000D01*
X0201240Y0321000D02*
X0201240Y0311500D01*
X0200250Y0311500D02*
X0200250Y0321000D01*
X0199270Y0321000D02*
X0199270Y0311500D01*
X0198280Y0311500D02*
X0198280Y0321000D01*
X0198280Y0328000D02*
X0198280Y0337500D01*
X0197500Y0337500D02*
X0212500Y0337500D01*
X0212500Y0328000D01*
X0197500Y0328000D01*
X0197500Y0337500D01*
X0199270Y0337500D02*
X0199270Y0328000D01*
X0200250Y0328000D02*
X0200250Y0337500D01*
X0201240Y0337500D02*
X0201240Y0328000D01*
X0202220Y0328000D02*
X0202220Y0337500D01*
X0203210Y0337500D02*
X0203210Y0328000D01*
X0204190Y0328000D02*
X0204190Y0337500D01*
X0205180Y0337500D02*
X0205180Y0328000D01*
X0206160Y0328000D02*
X0206160Y0337500D01*
X0207150Y0337500D02*
X0207150Y0328000D01*
X0208130Y0328000D02*
X0208130Y0337500D01*
X0209120Y0337500D02*
X0209120Y0328000D01*
X0210100Y0328000D02*
X0210100Y0337500D01*
X0211090Y0337500D02*
X0211090Y0328000D01*
X0212070Y0328000D02*
X0212070Y0337500D01*
D17*
X0211000Y0336000D03*
X0207000Y0336000D03*
X0203000Y0336000D03*
X0199000Y0336000D03*
X0199000Y0330500D03*
X0211000Y0330500D03*
X0211000Y0318500D03*
X0211000Y0313000D03*
X0207000Y0313000D03*
X0203000Y0313000D03*
X0199000Y0313000D03*
X0199000Y0318500D03*
X0243000Y0344000D02*
G75*
%LPD*%
D18*
X0231000Y0355480D03*
X0231000Y0366510D03*
D11*
X0238500Y0348500D02*
X0223500Y0348500D01*
X0223500Y0358000D01*
X0238500Y0358000D01*
X0238500Y0348500D01*
X0238070Y0348500D02*
X0238070Y0358000D01*
X0237090Y0358000D02*
X0237090Y0348500D01*
X0236100Y0348500D02*
X0236100Y0358000D01*
X0235120Y0358000D02*
X0235120Y0348500D01*
X0234130Y0348500D02*
X0234130Y0358000D01*
X0233150Y0358000D02*
X0233150Y0348500D01*
X0232160Y0348500D02*
X0232160Y0358000D01*
X0231180Y0358000D02*
X0231180Y0348500D01*
X0230190Y0348500D02*
X0230190Y0358000D01*
X0229210Y0358000D02*
X0229210Y0348500D01*
X0228220Y0348500D02*
X0228220Y0358000D01*
X0227240Y0358000D02*
X0227240Y0348500D01*
X0226250Y0348500D02*
X0226250Y0358000D01*
X0225270Y0358000D02*
X0225270Y0348500D01*
X0224280Y0348500D02*
X0224280Y0358000D01*
X0224280Y0365000D02*
X0224280Y0374500D01*
X0223500Y0374500D02*
X0238500Y0374500D01*
X0238500Y0365000D01*
X0223500Y0365000D01*
X0223500Y0374500D01*
X0225270Y0374500D02*
X0225270Y0365000D01*
X0226250Y0365000D02*
X0226250Y0374500D01*
X0227240Y0374500D02*
X0227240Y0365000D01*
X0228220Y0365000D02*
X0228220Y0374500D01*
X0229210Y0374500D02*
X0229210Y0365000D01*
X0230190Y0365000D02*
X0230190Y0374500D01*
X0231180Y0374500D02*
X0231180Y0365000D01*
X0232160Y0365000D02*
X0232160Y0374500D01*
X0233150Y0374500D02*
X0233150Y0365000D01*
X0234130Y0365000D02*
X0234130Y0374500D01*
X0235120Y0374500D02*
X0235120Y0365000D01*
X0236100Y0365000D02*
X0236100Y0374500D01*
X0237090Y0374500D02*
X0237090Y0365000D01*
X0238070Y0365000D02*
X0238070Y0374500D01*
D17*
X0237000Y0373000D03*
X0233000Y0373000D03*
X0229000Y0373000D03*
X0225000Y0373000D03*
X0225000Y0367500D03*
X0237000Y0367500D03*
X0237000Y0355500D03*
X0237000Y0350000D03*
X0233000Y0350000D03*
X0229000Y0350000D03*
X0225000Y0350000D03*
X0225000Y0355500D03*
X0191000Y0307000D02*
G75*
%LPD*%
D18*
X0179000Y0318480D03*
X0179000Y0329510D03*
D11*
X0186500Y0311500D02*
X0171500Y0311500D01*
X0171500Y0321000D01*
X0186500Y0321000D01*
X0186500Y0311500D01*
X0186070Y0311500D02*
X0186070Y0321000D01*
X0185090Y0321000D02*
X0185090Y0311500D01*
X0184100Y0311500D02*
X0184100Y0321000D01*
X0183120Y0321000D02*
X0183120Y0311500D01*
X0182130Y0311500D02*
X0182130Y0321000D01*
X0181150Y0321000D02*
X0181150Y0311500D01*
X0180160Y0311500D02*
X0180160Y0321000D01*
X0179180Y0321000D02*
X0179180Y0311500D01*
X0178190Y0311500D02*
X0178190Y0321000D01*
X0177210Y0321000D02*
X0177210Y0311500D01*
X0176220Y0311500D02*
X0176220Y0321000D01*
X0175240Y0321000D02*
X0175240Y0311500D01*
X0174250Y0311500D02*
X0174250Y0321000D01*
X0173270Y0321000D02*
X0173270Y0311500D01*
X0172280Y0311500D02*
X0172280Y0321000D01*
X0172280Y0328000D02*
X0172280Y0337500D01*
X0171500Y0337500D02*
X0186500Y0337500D01*
X0186500Y0328000D01*
X0171500Y0328000D01*
X0171500Y0337500D01*
X0173270Y0337500D02*
X0173270Y0328000D01*
X0174250Y0328000D02*
X0174250Y0337500D01*
X0175240Y0337500D02*
X0175240Y0328000D01*
X0176220Y0328000D02*
X0176220Y0337500D01*
X0177210Y0337500D02*
X0177210Y0328000D01*
X0178190Y0328000D02*
X0178190Y0337500D01*
X0179180Y0337500D02*
X0179180Y0328000D01*
X0180160Y0328000D02*
X0180160Y0337500D01*
X0181150Y0337500D02*
X0181150Y0328000D01*
X0182130Y0328000D02*
X0182130Y0337500D01*
X0183120Y0337500D02*
X0183120Y0328000D01*
X0184100Y0328000D02*
X0184100Y0337500D01*
X0185090Y0337500D02*
X0185090Y0328000D01*
X0186070Y0328000D02*
X0186070Y0337500D01*
D17*
X0185000Y0336000D03*
X0181000Y0336000D03*
X0177000Y0336000D03*
X0173000Y0336000D03*
X0173000Y0330500D03*
X0185000Y0330500D03*
X0185000Y0318500D03*
X0185000Y0313000D03*
X0181000Y0313000D03*
X0177000Y0313000D03*
X0173000Y0313000D03*
X0173000Y0318500D03*
X0217000Y0344000D02*
G75*
%LPD*%
D18*
X0205000Y0355480D03*
X0205000Y0366510D03*
D11*
X0212500Y0348500D02*
X0197500Y0348500D01*
X0197500Y0358000D01*
X0212500Y0358000D01*
X0212500Y0348500D01*
X0212070Y0348500D02*
X0212070Y0358000D01*
X0211090Y0358000D02*
X0211090Y0348500D01*
X0210100Y0348500D02*
X0210100Y0358000D01*
X0209120Y0358000D02*
X0209120Y0348500D01*
X0208130Y0348500D02*
X0208130Y0358000D01*
X0207150Y0358000D02*
X0207150Y0348500D01*
X0206160Y0348500D02*
X0206160Y0358000D01*
X0205180Y0358000D02*
X0205180Y0348500D01*
X0204190Y0348500D02*
X0204190Y0358000D01*
X0203210Y0358000D02*
X0203210Y0348500D01*
X0202220Y0348500D02*
X0202220Y0358000D01*
X0201240Y0358000D02*
X0201240Y0348500D01*
X0200250Y0348500D02*
X0200250Y0358000D01*
X0199270Y0358000D02*
X0199270Y0348500D01*
X0198280Y0348500D02*
X0198280Y0358000D01*
X0198280Y0365000D02*
X0198280Y0374500D01*
X0197500Y0374500D02*
X0212500Y0374500D01*
X0212500Y0365000D01*
X0197500Y0365000D01*
X0197500Y0374500D01*
X0199270Y0374500D02*
X0199270Y0365000D01*
X0200250Y0365000D02*
X0200250Y0374500D01*
X0201240Y0374500D02*
X0201240Y0365000D01*
X0202220Y0365000D02*
X0202220Y0374500D01*
X0203210Y0374500D02*
X0203210Y0365000D01*
X0204190Y0365000D02*
X0204190Y0374500D01*
X0205180Y0374500D02*
X0205180Y0365000D01*
X0206160Y0365000D02*
X0206160Y0374500D01*
X0207150Y0374500D02*
X0207150Y0365000D01*
X0208130Y0365000D02*
X0208130Y0374500D01*
X0209120Y0374500D02*
X0209120Y0365000D01*
X0210100Y0365000D02*
X0210100Y0374500D01*
X0211090Y0374500D02*
X0211090Y0365000D01*
X0212070Y0365000D02*
X0212070Y0374500D01*
D17*
X0211000Y0373000D03*
X0207000Y0373000D03*
X0203000Y0373000D03*
X0199000Y0373000D03*
X0199000Y0367500D03*
X0211000Y0367500D03*
X0211000Y0355500D03*
X0211000Y0350000D03*
X0207000Y0350000D03*
X0203000Y0350000D03*
X0199000Y0350000D03*
X0199000Y0355500D03*
X0191000Y0344000D02*
G75*
%LPD*%
D18*
X0179000Y0355480D03*
X0179000Y0366510D03*
D11*
X0186500Y0348500D02*
X0171500Y0348500D01*
X0171500Y0358000D01*
X0186500Y0358000D01*
X0186500Y0348500D01*
X0186070Y0348500D02*
X0186070Y0358000D01*
X0185090Y0358000D02*
X0185090Y0348500D01*
X0184100Y0348500D02*
X0184100Y0358000D01*
X0183120Y0358000D02*
X0183120Y0348500D01*
X0182130Y0348500D02*
X0182130Y0358000D01*
X0181150Y0358000D02*
X0181150Y0348500D01*
X0180160Y0348500D02*
X0180160Y0358000D01*
X0179180Y0358000D02*
X0179180Y0348500D01*
X0178190Y0348500D02*
X0178190Y0358000D01*
X0177210Y0358000D02*
X0177210Y0348500D01*
X0176220Y0348500D02*
X0176220Y0358000D01*
X0175240Y0358000D02*
X0175240Y0348500D01*
X0174250Y0348500D02*
X0174250Y0358000D01*
X0173270Y0358000D02*
X0173270Y0348500D01*
X0172280Y0348500D02*
X0172280Y0358000D01*
X0172280Y0365000D02*
X0172280Y0374500D01*
X0171500Y0374500D02*
X0186500Y0374500D01*
X0186500Y0365000D01*
X0171500Y0365000D01*
X0171500Y0374500D01*
X0173270Y0374500D02*
X0173270Y0365000D01*
X0174250Y0365000D02*
X0174250Y0374500D01*
X0175240Y0374500D02*
X0175240Y0365000D01*
X0176220Y0365000D02*
X0176220Y0374500D01*
X0177210Y0374500D02*
X0177210Y0365000D01*
X0178190Y0365000D02*
X0178190Y0374500D01*
X0179180Y0374500D02*
X0179180Y0365000D01*
X0180160Y0365000D02*
X0180160Y0374500D01*
X0181150Y0374500D02*
X0181150Y0365000D01*
X0182130Y0365000D02*
X0182130Y0374500D01*
X0183120Y0374500D02*
X0183120Y0365000D01*
X0184100Y0365000D02*
X0184100Y0374500D01*
X0185090Y0374500D02*
X0185090Y0365000D01*
X0186070Y0365000D02*
X0186070Y0374500D01*
D17*
X0185000Y0373000D03*
X0181000Y0373000D03*
X0177000Y0373000D03*
X0173000Y0373000D03*
X0173000Y0367500D03*
X0185000Y0367500D03*
X0185000Y0355500D03*
X0185000Y0350000D03*
X0181000Y0350000D03*
X0177000Y0350000D03*
X0173000Y0350000D03*
X0173000Y0355500D03*
X0165000Y0307000D02*
G75*
%LPD*%
D18*
X0153000Y0318480D03*
X0153000Y0329510D03*
D11*
X0160500Y0311500D02*
X0145500Y0311500D01*
X0145500Y0321000D01*
X0160500Y0321000D01*
X0160500Y0311500D01*
X0160070Y0311500D02*
X0160070Y0321000D01*
X0159090Y0321000D02*
X0159090Y0311500D01*
X0158100Y0311500D02*
X0158100Y0321000D01*
X0157120Y0321000D02*
X0157120Y0311500D01*
X0156130Y0311500D02*
X0156130Y0321000D01*
X0155150Y0321000D02*
X0155150Y0311500D01*
X0154160Y0311500D02*
X0154160Y0321000D01*
X0153180Y0321000D02*
X0153180Y0311500D01*
X0152190Y0311500D02*
X0152190Y0321000D01*
X0151210Y0321000D02*
X0151210Y0311500D01*
X0150220Y0311500D02*
X0150220Y0321000D01*
X0149240Y0321000D02*
X0149240Y0311500D01*
X0148250Y0311500D02*
X0148250Y0321000D01*
X0147270Y0321000D02*
X0147270Y0311500D01*
X0146280Y0311500D02*
X0146280Y0321000D01*
X0146280Y0328000D02*
X0146280Y0337500D01*
X0145500Y0337500D02*
X0160500Y0337500D01*
X0160500Y0328000D01*
X0145500Y0328000D01*
X0145500Y0337500D01*
X0147270Y0337500D02*
X0147270Y0328000D01*
X0148250Y0328000D02*
X0148250Y0337500D01*
X0149240Y0337500D02*
X0149240Y0328000D01*
X0150220Y0328000D02*
X0150220Y0337500D01*
X0151210Y0337500D02*
X0151210Y0328000D01*
X0152190Y0328000D02*
X0152190Y0337500D01*
X0153180Y0337500D02*
X0153180Y0328000D01*
X0154160Y0328000D02*
X0154160Y0337500D01*
X0155150Y0337500D02*
X0155150Y0328000D01*
X0156130Y0328000D02*
X0156130Y0337500D01*
X0157120Y0337500D02*
X0157120Y0328000D01*
X0158100Y0328000D02*
X0158100Y0337500D01*
X0159090Y0337500D02*
X0159090Y0328000D01*
X0160070Y0328000D02*
X0160070Y0337500D01*
D17*
X0159000Y0336000D03*
X0155000Y0336000D03*
X0151000Y0336000D03*
X0147000Y0336000D03*
X0147000Y0330500D03*
X0159000Y0330500D03*
X0159000Y0318500D03*
X0159000Y0313000D03*
X0155000Y0313000D03*
X0151000Y0313000D03*
X0147000Y0313000D03*
X0147000Y0318500D03*
X0165000Y0344000D02*
G75*
%LPD*%
D18*
X0153000Y0355480D03*
X0153000Y0366510D03*
D11*
X0160500Y0348500D02*
X0145500Y0348500D01*
X0145500Y0358000D01*
X0160500Y0358000D01*
X0160500Y0348500D01*
X0160070Y0348500D02*
X0160070Y0358000D01*
X0159090Y0358000D02*
X0159090Y0348500D01*
X0158100Y0348500D02*
X0158100Y0358000D01*
X0157120Y0358000D02*
X0157120Y0348500D01*
X0156130Y0348500D02*
X0156130Y0358000D01*
X0155150Y0358000D02*
X0155150Y0348500D01*
X0154160Y0348500D02*
X0154160Y0358000D01*
X0153180Y0358000D02*
X0153180Y0348500D01*
X0152190Y0348500D02*
X0152190Y0358000D01*
X0151210Y0358000D02*
X0151210Y0348500D01*
X0150220Y0348500D02*
X0150220Y0358000D01*
X0149240Y0358000D02*
X0149240Y0348500D01*
X0148250Y0348500D02*
X0148250Y0358000D01*
X0147270Y0358000D02*
X0147270Y0348500D01*
X0146280Y0348500D02*
X0146280Y0358000D01*
X0146280Y0365000D02*
X0146280Y0374500D01*
X0145500Y0374500D02*
X0160500Y0374500D01*
X0160500Y0365000D01*
X0145500Y0365000D01*
X0145500Y0374500D01*
X0147270Y0374500D02*
X0147270Y0365000D01*
X0148250Y0365000D02*
X0148250Y0374500D01*
X0149240Y0374500D02*
X0149240Y0365000D01*
X0150220Y0365000D02*
X0150220Y0374500D01*
X0151210Y0374500D02*
X0151210Y0365000D01*
X0152190Y0365000D02*
X0152190Y0374500D01*
X0153180Y0374500D02*
X0153180Y0365000D01*
X0154160Y0365000D02*
X0154160Y0374500D01*
X0155150Y0374500D02*
X0155150Y0365000D01*
X0156130Y0365000D02*
X0156130Y0374500D01*
X0157120Y0374500D02*
X0157120Y0365000D01*
X0158100Y0365000D02*
X0158100Y0374500D01*
X0159090Y0374500D02*
X0159090Y0365000D01*
X0160070Y0365000D02*
X0160070Y0374500D01*
D17*
X0159000Y0373000D03*
X0155000Y0373000D03*
X0151000Y0373000D03*
X0147000Y0373000D03*
X0147000Y0367500D03*
X0159000Y0367500D03*
X0159000Y0355500D03*
X0159000Y0350000D03*
X0155000Y0350000D03*
X0151000Y0350000D03*
X0147000Y0350000D03*
X0147000Y0355500D03*
M02*
