G75*
G70*
%OFA0B0*%
%FSLAX25Y25*%
%IPPOS*%
%LPD*%
%AMOC8*
5,1,8,0,0,1.08239X$1,22.5*
%
%ADD12C,0.04370*%
%ADD19R,0.07890X0.07100*%
X0011000Y0011000D02*
G75*
%LPD*%
X0139000Y0011000D02*
G75*
%LPD*%
D19*
X0127000Y0022480D03*
X0127000Y0033510D03*
D12*
X0133000Y0017000D03*
X0129000Y0017000D03*
X0125000Y0017000D03*
X0121000Y0017000D03*
X0121000Y0022500D03*
X0133000Y0022500D03*
X0133000Y0034500D03*
X0133000Y0040000D03*
X0129000Y0040000D03*
X0125000Y0040000D03*
X0121000Y0040000D03*
X0121000Y0034500D03*
X0113000Y0011000D02*
G75*
%LPD*%
D19*
X0101000Y0022480D03*
X0101000Y0033510D03*
D12*
X0107000Y0017000D03*
X0103000Y0017000D03*
X0099000Y0017000D03*
X0095000Y0017000D03*
X0095000Y0022500D03*
X0107000Y0022500D03*
X0107000Y0034500D03*
X0107000Y0040000D03*
X0103000Y0040000D03*
X0099000Y0040000D03*
X0095000Y0040000D03*
X0095000Y0034500D03*
X0139000Y0048000D02*
G75*
%LPD*%
D19*
X0127000Y0059480D03*
X0127000Y0070510D03*
D12*
X0133000Y0054000D03*
X0129000Y0054000D03*
X0125000Y0054000D03*
X0121000Y0054000D03*
X0121000Y0059500D03*
X0133000Y0059500D03*
X0133000Y0071500D03*
X0133000Y0077000D03*
X0129000Y0077000D03*
X0125000Y0077000D03*
X0121000Y0077000D03*
X0121000Y0071500D03*
X0087000Y0011000D02*
G75*
%LPD*%
D19*
X0075000Y0022480D03*
X0075000Y0033510D03*
D12*
X0081000Y0017000D03*
X0077000Y0017000D03*
X0073000Y0017000D03*
X0069000Y0017000D03*
X0069000Y0022500D03*
X0081000Y0022500D03*
X0081000Y0034500D03*
X0081000Y0040000D03*
X0077000Y0040000D03*
X0073000Y0040000D03*
X0069000Y0040000D03*
X0069000Y0034500D03*
X0113000Y0048000D02*
G75*
%LPD*%
D19*
X0101000Y0059480D03*
X0101000Y0070510D03*
D12*
X0107000Y0054000D03*
X0103000Y0054000D03*
X0099000Y0054000D03*
X0095000Y0054000D03*
X0095000Y0059500D03*
X0107000Y0059500D03*
X0107000Y0071500D03*
X0107000Y0077000D03*
X0103000Y0077000D03*
X0099000Y0077000D03*
X0095000Y0077000D03*
X0095000Y0071500D03*
X0061000Y0011000D02*
G75*
%LPD*%
D19*
X0049000Y0022480D03*
X0049000Y0033510D03*
D12*
X0055000Y0017000D03*
X0051000Y0017000D03*
X0047000Y0017000D03*
X0043000Y0017000D03*
X0043000Y0022500D03*
X0055000Y0022500D03*
X0055000Y0034500D03*
X0055000Y0040000D03*
X0051000Y0040000D03*
X0047000Y0040000D03*
X0043000Y0040000D03*
X0043000Y0034500D03*
X0087000Y0048000D02*
G75*
%LPD*%
D19*
X0075000Y0059480D03*
X0075000Y0070510D03*
D12*
X0081000Y0054000D03*
X0077000Y0054000D03*
X0073000Y0054000D03*
X0069000Y0054000D03*
X0069000Y0059500D03*
X0081000Y0059500D03*
X0081000Y0071500D03*
X0081000Y0077000D03*
X0077000Y0077000D03*
X0073000Y0077000D03*
X0069000Y0077000D03*
X0069000Y0071500D03*
X0061000Y0048000D02*
G75*
%LPD*%
D19*
X0049000Y0059480D03*
X0049000Y0070510D03*
D12*
X0055000Y0054000D03*
X0051000Y0054000D03*
X0047000Y0054000D03*
X0043000Y0054000D03*
X0043000Y0059500D03*
X0055000Y0059500D03*
X0055000Y0071500D03*
X0055000Y0077000D03*
X0051000Y0077000D03*
X0047000Y0077000D03*
X0043000Y0077000D03*
X0043000Y0071500D03*
X0035000Y0011000D02*
G75*
%LPD*%
D19*
X0023000Y0022480D03*
X0023000Y0033510D03*
D12*
X0029000Y0017000D03*
X0025000Y0017000D03*
X0021000Y0017000D03*
X0017000Y0017000D03*
X0017000Y0022500D03*
X0029000Y0022500D03*
X0029000Y0034500D03*
X0029000Y0040000D03*
X0025000Y0040000D03*
X0021000Y0040000D03*
X0017000Y0040000D03*
X0017000Y0034500D03*
X0035000Y0048000D02*
G75*
%LPD*%
D19*
X0023000Y0059480D03*
X0023000Y0070510D03*
D12*
X0029000Y0054000D03*
X0025000Y0054000D03*
X0021000Y0054000D03*
X0017000Y0054000D03*
X0017000Y0059500D03*
X0029000Y0059500D03*
X0029000Y0071500D03*
X0029000Y0077000D03*
X0025000Y0077000D03*
X0021000Y0077000D03*
X0017000Y0077000D03*
X0017000Y0071500D03*
X0011000Y0085000D02*
G75*
%LPD*%
X0139000Y0085000D02*
G75*
%LPD*%
D19*
X0127000Y0096480D03*
X0127000Y0107510D03*
D12*
X0133000Y0091000D03*
X0129000Y0091000D03*
X0125000Y0091000D03*
X0121000Y0091000D03*
X0121000Y0096500D03*
X0133000Y0096500D03*
X0133000Y0108500D03*
X0133000Y0114000D03*
X0129000Y0114000D03*
X0125000Y0114000D03*
X0121000Y0114000D03*
X0121000Y0108500D03*
X0113000Y0085000D02*
G75*
%LPD*%
D19*
X0101000Y0096480D03*
X0101000Y0107510D03*
D12*
X0107000Y0091000D03*
X0103000Y0091000D03*
X0099000Y0091000D03*
X0095000Y0091000D03*
X0095000Y0096500D03*
X0107000Y0096500D03*
X0107000Y0108500D03*
X0107000Y0114000D03*
X0103000Y0114000D03*
X0099000Y0114000D03*
X0095000Y0114000D03*
X0095000Y0108500D03*
X0139000Y0122000D02*
G75*
%LPD*%
D19*
X0127000Y0133480D03*
X0127000Y0144510D03*
D12*
X0133000Y0128000D03*
X0129000Y0128000D03*
X0125000Y0128000D03*
X0121000Y0128000D03*
X0121000Y0133500D03*
X0133000Y0133500D03*
X0133000Y0145500D03*
X0133000Y0151000D03*
X0129000Y0151000D03*
X0125000Y0151000D03*
X0121000Y0151000D03*
X0121000Y0145500D03*
X0087000Y0085000D02*
G75*
%LPD*%
D19*
X0075000Y0096480D03*
X0075000Y0107510D03*
D12*
X0081000Y0091000D03*
X0077000Y0091000D03*
X0073000Y0091000D03*
X0069000Y0091000D03*
X0069000Y0096500D03*
X0081000Y0096500D03*
X0081000Y0108500D03*
X0081000Y0114000D03*
X0077000Y0114000D03*
X0073000Y0114000D03*
X0069000Y0114000D03*
X0069000Y0108500D03*
X0113000Y0122000D02*
G75*
%LPD*%
D19*
X0101000Y0133480D03*
X0101000Y0144510D03*
D12*
X0107000Y0128000D03*
X0103000Y0128000D03*
X0099000Y0128000D03*
X0095000Y0128000D03*
X0095000Y0133500D03*
X0107000Y0133500D03*
X0107000Y0145500D03*
X0107000Y0151000D03*
X0103000Y0151000D03*
X0099000Y0151000D03*
X0095000Y0151000D03*
X0095000Y0145500D03*
X0061000Y0085000D02*
G75*
%LPD*%
D19*
X0049000Y0096480D03*
X0049000Y0107510D03*
D12*
X0055000Y0091000D03*
X0051000Y0091000D03*
X0047000Y0091000D03*
X0043000Y0091000D03*
X0043000Y0096500D03*
X0055000Y0096500D03*
X0055000Y0108500D03*
X0055000Y0114000D03*
X0051000Y0114000D03*
X0047000Y0114000D03*
X0043000Y0114000D03*
X0043000Y0108500D03*
X0087000Y0122000D02*
G75*
%LPD*%
D19*
X0075000Y0133480D03*
X0075000Y0144510D03*
D12*
X0081000Y0128000D03*
X0077000Y0128000D03*
X0073000Y0128000D03*
X0069000Y0128000D03*
X0069000Y0133500D03*
X0081000Y0133500D03*
X0081000Y0145500D03*
X0081000Y0151000D03*
X0077000Y0151000D03*
X0073000Y0151000D03*
X0069000Y0151000D03*
X0069000Y0145500D03*
X0061000Y0122000D02*
G75*
%LPD*%
D19*
X0049000Y0133480D03*
X0049000Y0144510D03*
D12*
X0055000Y0128000D03*
X0051000Y0128000D03*
X0047000Y0128000D03*
X0043000Y0128000D03*
X0043000Y0133500D03*
X0055000Y0133500D03*
X0055000Y0145500D03*
X0055000Y0151000D03*
X0051000Y0151000D03*
X0047000Y0151000D03*
X0043000Y0151000D03*
X0043000Y0145500D03*
X0035000Y0085000D02*
G75*
%LPD*%
D19*
X0023000Y0096480D03*
X0023000Y0107510D03*
D12*
X0029000Y0091000D03*
X0025000Y0091000D03*
X0021000Y0091000D03*
X0017000Y0091000D03*
X0017000Y0096500D03*
X0029000Y0096500D03*
X0029000Y0108500D03*
X0029000Y0114000D03*
X0025000Y0114000D03*
X0021000Y0114000D03*
X0017000Y0114000D03*
X0017000Y0108500D03*
X0035000Y0122000D02*
G75*
%LPD*%
D19*
X0023000Y0133480D03*
X0023000Y0144510D03*
D12*
X0029000Y0128000D03*
X0025000Y0128000D03*
X0021000Y0128000D03*
X0017000Y0128000D03*
X0017000Y0133500D03*
X0029000Y0133500D03*
X0029000Y0145500D03*
X0029000Y0151000D03*
X0025000Y0151000D03*
X0021000Y0151000D03*
X0017000Y0151000D03*
X0017000Y0145500D03*
X0141000Y0011000D02*
G75*
%LPD*%
X0269000Y0011000D02*
G75*
%LPD*%
D19*
X0257000Y0022480D03*
X0257000Y0033510D03*
D12*
X0263000Y0017000D03*
X0259000Y0017000D03*
X0255000Y0017000D03*
X0251000Y0017000D03*
X0251000Y0022500D03*
X0263000Y0022500D03*
X0263000Y0034500D03*
X0263000Y0040000D03*
X0259000Y0040000D03*
X0255000Y0040000D03*
X0251000Y0040000D03*
X0251000Y0034500D03*
X0243000Y0011000D02*
G75*
%LPD*%
D19*
X0231000Y0022480D03*
X0231000Y0033510D03*
D12*
X0237000Y0017000D03*
X0233000Y0017000D03*
X0229000Y0017000D03*
X0225000Y0017000D03*
X0225000Y0022500D03*
X0237000Y0022500D03*
X0237000Y0034500D03*
X0237000Y0040000D03*
X0233000Y0040000D03*
X0229000Y0040000D03*
X0225000Y0040000D03*
X0225000Y0034500D03*
X0269000Y0048000D02*
G75*
%LPD*%
D19*
X0257000Y0059480D03*
X0257000Y0070510D03*
D12*
X0263000Y0054000D03*
X0259000Y0054000D03*
X0255000Y0054000D03*
X0251000Y0054000D03*
X0251000Y0059500D03*
X0263000Y0059500D03*
X0263000Y0071500D03*
X0263000Y0077000D03*
X0259000Y0077000D03*
X0255000Y0077000D03*
X0251000Y0077000D03*
X0251000Y0071500D03*
X0217000Y0011000D02*
G75*
%LPD*%
D19*
X0205000Y0022480D03*
X0205000Y0033510D03*
D12*
X0211000Y0017000D03*
X0207000Y0017000D03*
X0203000Y0017000D03*
X0199000Y0017000D03*
X0199000Y0022500D03*
X0211000Y0022500D03*
X0211000Y0034500D03*
X0211000Y0040000D03*
X0207000Y0040000D03*
X0203000Y0040000D03*
X0199000Y0040000D03*
X0199000Y0034500D03*
X0243000Y0048000D02*
G75*
%LPD*%
D19*
X0231000Y0059480D03*
X0231000Y0070510D03*
D12*
X0237000Y0054000D03*
X0233000Y0054000D03*
X0229000Y0054000D03*
X0225000Y0054000D03*
X0225000Y0059500D03*
X0237000Y0059500D03*
X0237000Y0071500D03*
X0237000Y0077000D03*
X0233000Y0077000D03*
X0229000Y0077000D03*
X0225000Y0077000D03*
X0225000Y0071500D03*
X0191000Y0011000D02*
G75*
%LPD*%
D19*
X0179000Y0022480D03*
X0179000Y0033510D03*
D12*
X0185000Y0017000D03*
X0181000Y0017000D03*
X0177000Y0017000D03*
X0173000Y0017000D03*
X0173000Y0022500D03*
X0185000Y0022500D03*
X0185000Y0034500D03*
X0185000Y0040000D03*
X0181000Y0040000D03*
X0177000Y0040000D03*
X0173000Y0040000D03*
X0173000Y0034500D03*
X0217000Y0048000D02*
G75*
%LPD*%
D19*
X0205000Y0059480D03*
X0205000Y0070510D03*
D12*
X0211000Y0054000D03*
X0207000Y0054000D03*
X0203000Y0054000D03*
X0199000Y0054000D03*
X0199000Y0059500D03*
X0211000Y0059500D03*
X0211000Y0071500D03*
X0211000Y0077000D03*
X0207000Y0077000D03*
X0203000Y0077000D03*
X0199000Y0077000D03*
X0199000Y0071500D03*
X0191000Y0048000D02*
G75*
%LPD*%
D19*
X0179000Y0059480D03*
X0179000Y0070510D03*
D12*
X0185000Y0054000D03*
X0181000Y0054000D03*
X0177000Y0054000D03*
X0173000Y0054000D03*
X0173000Y0059500D03*
X0185000Y0059500D03*
X0185000Y0071500D03*
X0185000Y0077000D03*
X0181000Y0077000D03*
X0177000Y0077000D03*
X0173000Y0077000D03*
X0173000Y0071500D03*
X0165000Y0011000D02*
G75*
%LPD*%
D19*
X0153000Y0022480D03*
X0153000Y0033510D03*
D12*
X0159000Y0017000D03*
X0155000Y0017000D03*
X0151000Y0017000D03*
X0147000Y0017000D03*
X0147000Y0022500D03*
X0159000Y0022500D03*
X0159000Y0034500D03*
X0159000Y0040000D03*
X0155000Y0040000D03*
X0151000Y0040000D03*
X0147000Y0040000D03*
X0147000Y0034500D03*
X0165000Y0048000D02*
G75*
%LPD*%
D19*
X0153000Y0059480D03*
X0153000Y0070510D03*
D12*
X0159000Y0054000D03*
X0155000Y0054000D03*
X0151000Y0054000D03*
X0147000Y0054000D03*
X0147000Y0059500D03*
X0159000Y0059500D03*
X0159000Y0071500D03*
X0159000Y0077000D03*
X0155000Y0077000D03*
X0151000Y0077000D03*
X0147000Y0077000D03*
X0147000Y0071500D03*
X0141000Y0085000D02*
G75*
%LPD*%
X0269000Y0085000D02*
G75*
%LPD*%
D19*
X0257000Y0096480D03*
X0257000Y0107510D03*
D12*
X0263000Y0091000D03*
X0259000Y0091000D03*
X0255000Y0091000D03*
X0251000Y0091000D03*
X0251000Y0096500D03*
X0263000Y0096500D03*
X0263000Y0108500D03*
X0263000Y0114000D03*
X0259000Y0114000D03*
X0255000Y0114000D03*
X0251000Y0114000D03*
X0251000Y0108500D03*
X0243000Y0085000D02*
G75*
%LPD*%
D19*
X0231000Y0096480D03*
X0231000Y0107510D03*
D12*
X0237000Y0091000D03*
X0233000Y0091000D03*
X0229000Y0091000D03*
X0225000Y0091000D03*
X0225000Y0096500D03*
X0237000Y0096500D03*
X0237000Y0108500D03*
X0237000Y0114000D03*
X0233000Y0114000D03*
X0229000Y0114000D03*
X0225000Y0114000D03*
X0225000Y0108500D03*
X0269000Y0122000D02*
G75*
%LPD*%
D19*
X0257000Y0133480D03*
X0257000Y0144510D03*
D12*
X0263000Y0128000D03*
X0259000Y0128000D03*
X0255000Y0128000D03*
X0251000Y0128000D03*
X0251000Y0133500D03*
X0263000Y0133500D03*
X0263000Y0145500D03*
X0263000Y0151000D03*
X0259000Y0151000D03*
X0255000Y0151000D03*
X0251000Y0151000D03*
X0251000Y0145500D03*
X0217000Y0085000D02*
G75*
%LPD*%
D19*
X0205000Y0096480D03*
X0205000Y0107510D03*
D12*
X0211000Y0091000D03*
X0207000Y0091000D03*
X0203000Y0091000D03*
X0199000Y0091000D03*
X0199000Y0096500D03*
X0211000Y0096500D03*
X0211000Y0108500D03*
X0211000Y0114000D03*
X0207000Y0114000D03*
X0203000Y0114000D03*
X0199000Y0114000D03*
X0199000Y0108500D03*
X0243000Y0122000D02*
G75*
%LPD*%
D19*
X0231000Y0133480D03*
X0231000Y0144510D03*
D12*
X0237000Y0128000D03*
X0233000Y0128000D03*
X0229000Y0128000D03*
X0225000Y0128000D03*
X0225000Y0133500D03*
X0237000Y0133500D03*
X0237000Y0145500D03*
X0237000Y0151000D03*
X0233000Y0151000D03*
X0229000Y0151000D03*
X0225000Y0151000D03*
X0225000Y0145500D03*
X0191000Y0085000D02*
G75*
%LPD*%
D19*
X0179000Y0096480D03*
X0179000Y0107510D03*
D12*
X0185000Y0091000D03*
X0181000Y0091000D03*
X0177000Y0091000D03*
X0173000Y0091000D03*
X0173000Y0096500D03*
X0185000Y0096500D03*
X0185000Y0108500D03*
X0185000Y0114000D03*
X0181000Y0114000D03*
X0177000Y0114000D03*
X0173000Y0114000D03*
X0173000Y0108500D03*
X0217000Y0122000D02*
G75*
%LPD*%
D19*
X0205000Y0133480D03*
X0205000Y0144510D03*
D12*
X0211000Y0128000D03*
X0207000Y0128000D03*
X0203000Y0128000D03*
X0199000Y0128000D03*
X0199000Y0133500D03*
X0211000Y0133500D03*
X0211000Y0145500D03*
X0211000Y0151000D03*
X0207000Y0151000D03*
X0203000Y0151000D03*
X0199000Y0151000D03*
X0199000Y0145500D03*
X0191000Y0122000D02*
G75*
%LPD*%
D19*
X0179000Y0133480D03*
X0179000Y0144510D03*
D12*
X0185000Y0128000D03*
X0181000Y0128000D03*
X0177000Y0128000D03*
X0173000Y0128000D03*
X0173000Y0133500D03*
X0185000Y0133500D03*
X0185000Y0145500D03*
X0185000Y0151000D03*
X0181000Y0151000D03*
X0177000Y0151000D03*
X0173000Y0151000D03*
X0173000Y0145500D03*
X0165000Y0085000D02*
G75*
%LPD*%
D19*
X0153000Y0096480D03*
X0153000Y0107510D03*
D12*
X0159000Y0091000D03*
X0155000Y0091000D03*
X0151000Y0091000D03*
X0147000Y0091000D03*
X0147000Y0096500D03*
X0159000Y0096500D03*
X0159000Y0108500D03*
X0159000Y0114000D03*
X0155000Y0114000D03*
X0151000Y0114000D03*
X0147000Y0114000D03*
X0147000Y0108500D03*
X0165000Y0122000D02*
G75*
%LPD*%
D19*
X0153000Y0133480D03*
X0153000Y0144510D03*
D12*
X0159000Y0128000D03*
X0155000Y0128000D03*
X0151000Y0128000D03*
X0147000Y0128000D03*
X0147000Y0133500D03*
X0159000Y0133500D03*
X0159000Y0145500D03*
X0159000Y0151000D03*
X0155000Y0151000D03*
X0151000Y0151000D03*
X0147000Y0151000D03*
X0147000Y0145500D03*
X0011000Y0159000D02*
G75*
%LPD*%
X0139000Y0159000D02*
G75*
%LPD*%
D19*
X0127000Y0170480D03*
X0127000Y0181510D03*
D12*
X0133000Y0165000D03*
X0129000Y0165000D03*
X0125000Y0165000D03*
X0121000Y0165000D03*
X0121000Y0170500D03*
X0133000Y0170500D03*
X0133000Y0182500D03*
X0133000Y0188000D03*
X0129000Y0188000D03*
X0125000Y0188000D03*
X0121000Y0188000D03*
X0121000Y0182500D03*
X0113000Y0159000D02*
G75*
%LPD*%
D19*
X0101000Y0170480D03*
X0101000Y0181510D03*
D12*
X0107000Y0165000D03*
X0103000Y0165000D03*
X0099000Y0165000D03*
X0095000Y0165000D03*
X0095000Y0170500D03*
X0107000Y0170500D03*
X0107000Y0182500D03*
X0107000Y0188000D03*
X0103000Y0188000D03*
X0099000Y0188000D03*
X0095000Y0188000D03*
X0095000Y0182500D03*
X0139000Y0196000D02*
G75*
%LPD*%
D19*
X0127000Y0207480D03*
X0127000Y0218510D03*
D12*
X0133000Y0202000D03*
X0129000Y0202000D03*
X0125000Y0202000D03*
X0121000Y0202000D03*
X0121000Y0207500D03*
X0133000Y0207500D03*
X0133000Y0219500D03*
X0133000Y0225000D03*
X0129000Y0225000D03*
X0125000Y0225000D03*
X0121000Y0225000D03*
X0121000Y0219500D03*
X0087000Y0159000D02*
G75*
%LPD*%
D19*
X0075000Y0170480D03*
X0075000Y0181510D03*
D12*
X0081000Y0165000D03*
X0077000Y0165000D03*
X0073000Y0165000D03*
X0069000Y0165000D03*
X0069000Y0170500D03*
X0081000Y0170500D03*
X0081000Y0182500D03*
X0081000Y0188000D03*
X0077000Y0188000D03*
X0073000Y0188000D03*
X0069000Y0188000D03*
X0069000Y0182500D03*
X0113000Y0196000D02*
G75*
%LPD*%
D19*
X0101000Y0207480D03*
X0101000Y0218510D03*
D12*
X0107000Y0202000D03*
X0103000Y0202000D03*
X0099000Y0202000D03*
X0095000Y0202000D03*
X0095000Y0207500D03*
X0107000Y0207500D03*
X0107000Y0219500D03*
X0107000Y0225000D03*
X0103000Y0225000D03*
X0099000Y0225000D03*
X0095000Y0225000D03*
X0095000Y0219500D03*
X0061000Y0159000D02*
G75*
%LPD*%
D19*
X0049000Y0170480D03*
X0049000Y0181510D03*
D12*
X0055000Y0165000D03*
X0051000Y0165000D03*
X0047000Y0165000D03*
X0043000Y0165000D03*
X0043000Y0170500D03*
X0055000Y0170500D03*
X0055000Y0182500D03*
X0055000Y0188000D03*
X0051000Y0188000D03*
X0047000Y0188000D03*
X0043000Y0188000D03*
X0043000Y0182500D03*
X0087000Y0196000D02*
G75*
%LPD*%
D19*
X0075000Y0207480D03*
X0075000Y0218510D03*
D12*
X0081000Y0202000D03*
X0077000Y0202000D03*
X0073000Y0202000D03*
X0069000Y0202000D03*
X0069000Y0207500D03*
X0081000Y0207500D03*
X0081000Y0219500D03*
X0081000Y0225000D03*
X0077000Y0225000D03*
X0073000Y0225000D03*
X0069000Y0225000D03*
X0069000Y0219500D03*
X0061000Y0196000D02*
G75*
%LPD*%
D19*
X0049000Y0207480D03*
X0049000Y0218510D03*
D12*
X0055000Y0202000D03*
X0051000Y0202000D03*
X0047000Y0202000D03*
X0043000Y0202000D03*
X0043000Y0207500D03*
X0055000Y0207500D03*
X0055000Y0219500D03*
X0055000Y0225000D03*
X0051000Y0225000D03*
X0047000Y0225000D03*
X0043000Y0225000D03*
X0043000Y0219500D03*
X0035000Y0159000D02*
G75*
%LPD*%
D19*
X0023000Y0170480D03*
X0023000Y0181510D03*
D12*
X0029000Y0165000D03*
X0025000Y0165000D03*
X0021000Y0165000D03*
X0017000Y0165000D03*
X0017000Y0170500D03*
X0029000Y0170500D03*
X0029000Y0182500D03*
X0029000Y0188000D03*
X0025000Y0188000D03*
X0021000Y0188000D03*
X0017000Y0188000D03*
X0017000Y0182500D03*
X0035000Y0196000D02*
G75*
%LPD*%
D19*
X0023000Y0207480D03*
X0023000Y0218510D03*
D12*
X0029000Y0202000D03*
X0025000Y0202000D03*
X0021000Y0202000D03*
X0017000Y0202000D03*
X0017000Y0207500D03*
X0029000Y0207500D03*
X0029000Y0219500D03*
X0029000Y0225000D03*
X0025000Y0225000D03*
X0021000Y0225000D03*
X0017000Y0225000D03*
X0017000Y0219500D03*
X0141000Y0159000D02*
G75*
%LPD*%
X0269000Y0159000D02*
G75*
%LPD*%
D19*
X0257000Y0170480D03*
X0257000Y0181510D03*
D12*
X0263000Y0165000D03*
X0259000Y0165000D03*
X0255000Y0165000D03*
X0251000Y0165000D03*
X0251000Y0170500D03*
X0263000Y0170500D03*
X0263000Y0182500D03*
X0263000Y0188000D03*
X0259000Y0188000D03*
X0255000Y0188000D03*
X0251000Y0188000D03*
X0251000Y0182500D03*
X0243000Y0159000D02*
G75*
%LPD*%
D19*
X0231000Y0170480D03*
X0231000Y0181510D03*
D12*
X0237000Y0165000D03*
X0233000Y0165000D03*
X0229000Y0165000D03*
X0225000Y0165000D03*
X0225000Y0170500D03*
X0237000Y0170500D03*
X0237000Y0182500D03*
X0237000Y0188000D03*
X0233000Y0188000D03*
X0229000Y0188000D03*
X0225000Y0188000D03*
X0225000Y0182500D03*
X0269000Y0196000D02*
G75*
%LPD*%
D19*
X0257000Y0207480D03*
X0257000Y0218510D03*
D12*
X0263000Y0202000D03*
X0259000Y0202000D03*
X0255000Y0202000D03*
X0251000Y0202000D03*
X0251000Y0207500D03*
X0263000Y0207500D03*
X0263000Y0219500D03*
X0263000Y0225000D03*
X0259000Y0225000D03*
X0255000Y0225000D03*
X0251000Y0225000D03*
X0251000Y0219500D03*
X0217000Y0159000D02*
G75*
%LPD*%
D19*
X0205000Y0170480D03*
X0205000Y0181510D03*
D12*
X0211000Y0165000D03*
X0207000Y0165000D03*
X0203000Y0165000D03*
X0199000Y0165000D03*
X0199000Y0170500D03*
X0211000Y0170500D03*
X0211000Y0182500D03*
X0211000Y0188000D03*
X0207000Y0188000D03*
X0203000Y0188000D03*
X0199000Y0188000D03*
X0199000Y0182500D03*
X0243000Y0196000D02*
G75*
%LPD*%
D19*
X0231000Y0207480D03*
X0231000Y0218510D03*
D12*
X0237000Y0202000D03*
X0233000Y0202000D03*
X0229000Y0202000D03*
X0225000Y0202000D03*
X0225000Y0207500D03*
X0237000Y0207500D03*
X0237000Y0219500D03*
X0237000Y0225000D03*
X0233000Y0225000D03*
X0229000Y0225000D03*
X0225000Y0225000D03*
X0225000Y0219500D03*
X0191000Y0159000D02*
G75*
%LPD*%
D19*
X0179000Y0170480D03*
X0179000Y0181510D03*
D12*
X0185000Y0165000D03*
X0181000Y0165000D03*
X0177000Y0165000D03*
X0173000Y0165000D03*
X0173000Y0170500D03*
X0185000Y0170500D03*
X0185000Y0182500D03*
X0185000Y0188000D03*
X0181000Y0188000D03*
X0177000Y0188000D03*
X0173000Y0188000D03*
X0173000Y0182500D03*
X0217000Y0196000D02*
G75*
%LPD*%
D19*
X0205000Y0207480D03*
X0205000Y0218510D03*
D12*
X0211000Y0202000D03*
X0207000Y0202000D03*
X0203000Y0202000D03*
X0199000Y0202000D03*
X0199000Y0207500D03*
X0211000Y0207500D03*
X0211000Y0219500D03*
X0211000Y0225000D03*
X0207000Y0225000D03*
X0203000Y0225000D03*
X0199000Y0225000D03*
X0199000Y0219500D03*
X0191000Y0196000D02*
G75*
%LPD*%
D19*
X0179000Y0207480D03*
X0179000Y0218510D03*
D12*
X0185000Y0202000D03*
X0181000Y0202000D03*
X0177000Y0202000D03*
X0173000Y0202000D03*
X0173000Y0207500D03*
X0185000Y0207500D03*
X0185000Y0219500D03*
X0185000Y0225000D03*
X0181000Y0225000D03*
X0177000Y0225000D03*
X0173000Y0225000D03*
X0173000Y0219500D03*
X0165000Y0159000D02*
G75*
%LPD*%
D19*
X0153000Y0170480D03*
X0153000Y0181510D03*
D12*
X0159000Y0165000D03*
X0155000Y0165000D03*
X0151000Y0165000D03*
X0147000Y0165000D03*
X0147000Y0170500D03*
X0159000Y0170500D03*
X0159000Y0182500D03*
X0159000Y0188000D03*
X0155000Y0188000D03*
X0151000Y0188000D03*
X0147000Y0188000D03*
X0147000Y0182500D03*
X0165000Y0196000D02*
G75*
%LPD*%
D19*
X0153000Y0207480D03*
X0153000Y0218510D03*
D12*
X0159000Y0202000D03*
X0155000Y0202000D03*
X0151000Y0202000D03*
X0147000Y0202000D03*
X0147000Y0207500D03*
X0159000Y0207500D03*
X0159000Y0219500D03*
X0159000Y0225000D03*
X0155000Y0225000D03*
X0151000Y0225000D03*
X0147000Y0225000D03*
X0147000Y0219500D03*
X0011000Y0233000D02*
G75*
%LPD*%
X0139000Y0233000D02*
G75*
%LPD*%
D19*
X0127000Y0244480D03*
X0127000Y0255510D03*
D12*
X0133000Y0239000D03*
X0129000Y0239000D03*
X0125000Y0239000D03*
X0121000Y0239000D03*
X0121000Y0244500D03*
X0133000Y0244500D03*
X0133000Y0256500D03*
X0133000Y0262000D03*
X0129000Y0262000D03*
X0125000Y0262000D03*
X0121000Y0262000D03*
X0121000Y0256500D03*
X0113000Y0233000D02*
G75*
%LPD*%
D19*
X0101000Y0244480D03*
X0101000Y0255510D03*
D12*
X0107000Y0239000D03*
X0103000Y0239000D03*
X0099000Y0239000D03*
X0095000Y0239000D03*
X0095000Y0244500D03*
X0107000Y0244500D03*
X0107000Y0256500D03*
X0107000Y0262000D03*
X0103000Y0262000D03*
X0099000Y0262000D03*
X0095000Y0262000D03*
X0095000Y0256500D03*
X0139000Y0270000D02*
G75*
%LPD*%
D19*
X0127000Y0281480D03*
X0127000Y0292510D03*
D12*
X0133000Y0276000D03*
X0129000Y0276000D03*
X0125000Y0276000D03*
X0121000Y0276000D03*
X0121000Y0281500D03*
X0133000Y0281500D03*
X0133000Y0293500D03*
X0133000Y0299000D03*
X0129000Y0299000D03*
X0125000Y0299000D03*
X0121000Y0299000D03*
X0121000Y0293500D03*
X0087000Y0233000D02*
G75*
%LPD*%
D19*
X0075000Y0244480D03*
X0075000Y0255510D03*
D12*
X0081000Y0239000D03*
X0077000Y0239000D03*
X0073000Y0239000D03*
X0069000Y0239000D03*
X0069000Y0244500D03*
X0081000Y0244500D03*
X0081000Y0256500D03*
X0081000Y0262000D03*
X0077000Y0262000D03*
X0073000Y0262000D03*
X0069000Y0262000D03*
X0069000Y0256500D03*
X0113000Y0270000D02*
G75*
%LPD*%
D19*
X0101000Y0281480D03*
X0101000Y0292510D03*
D12*
X0107000Y0276000D03*
X0103000Y0276000D03*
X0099000Y0276000D03*
X0095000Y0276000D03*
X0095000Y0281500D03*
X0107000Y0281500D03*
X0107000Y0293500D03*
X0107000Y0299000D03*
X0103000Y0299000D03*
X0099000Y0299000D03*
X0095000Y0299000D03*
X0095000Y0293500D03*
X0061000Y0233000D02*
G75*
%LPD*%
D19*
X0049000Y0244480D03*
X0049000Y0255510D03*
D12*
X0055000Y0239000D03*
X0051000Y0239000D03*
X0047000Y0239000D03*
X0043000Y0239000D03*
X0043000Y0244500D03*
X0055000Y0244500D03*
X0055000Y0256500D03*
X0055000Y0262000D03*
X0051000Y0262000D03*
X0047000Y0262000D03*
X0043000Y0262000D03*
X0043000Y0256500D03*
X0087000Y0270000D02*
G75*
%LPD*%
D19*
X0075000Y0281480D03*
X0075000Y0292510D03*
D12*
X0081000Y0276000D03*
X0077000Y0276000D03*
X0073000Y0276000D03*
X0069000Y0276000D03*
X0069000Y0281500D03*
X0081000Y0281500D03*
X0081000Y0293500D03*
X0081000Y0299000D03*
X0077000Y0299000D03*
X0073000Y0299000D03*
X0069000Y0299000D03*
X0069000Y0293500D03*
X0061000Y0270000D02*
G75*
%LPD*%
D19*
X0049000Y0281480D03*
X0049000Y0292510D03*
D12*
X0055000Y0276000D03*
X0051000Y0276000D03*
X0047000Y0276000D03*
X0043000Y0276000D03*
X0043000Y0281500D03*
X0055000Y0281500D03*
X0055000Y0293500D03*
X0055000Y0299000D03*
X0051000Y0299000D03*
X0047000Y0299000D03*
X0043000Y0299000D03*
X0043000Y0293500D03*
X0035000Y0233000D02*
G75*
%LPD*%
D19*
X0023000Y0244480D03*
X0023000Y0255510D03*
D12*
X0029000Y0239000D03*
X0025000Y0239000D03*
X0021000Y0239000D03*
X0017000Y0239000D03*
X0017000Y0244500D03*
X0029000Y0244500D03*
X0029000Y0256500D03*
X0029000Y0262000D03*
X0025000Y0262000D03*
X0021000Y0262000D03*
X0017000Y0262000D03*
X0017000Y0256500D03*
X0035000Y0270000D02*
G75*
%LPD*%
D19*
X0023000Y0281480D03*
X0023000Y0292510D03*
D12*
X0029000Y0276000D03*
X0025000Y0276000D03*
X0021000Y0276000D03*
X0017000Y0276000D03*
X0017000Y0281500D03*
X0029000Y0281500D03*
X0029000Y0293500D03*
X0029000Y0299000D03*
X0025000Y0299000D03*
X0021000Y0299000D03*
X0017000Y0299000D03*
X0017000Y0293500D03*
X0141000Y0233000D02*
G75*
%LPD*%
X0269000Y0233000D02*
G75*
%LPD*%
D19*
X0257000Y0244480D03*
X0257000Y0255510D03*
D12*
X0263000Y0239000D03*
X0259000Y0239000D03*
X0255000Y0239000D03*
X0251000Y0239000D03*
X0251000Y0244500D03*
X0263000Y0244500D03*
X0263000Y0256500D03*
X0263000Y0262000D03*
X0259000Y0262000D03*
X0255000Y0262000D03*
X0251000Y0262000D03*
X0251000Y0256500D03*
X0243000Y0233000D02*
G75*
%LPD*%
D19*
X0231000Y0244480D03*
X0231000Y0255510D03*
D12*
X0237000Y0239000D03*
X0233000Y0239000D03*
X0229000Y0239000D03*
X0225000Y0239000D03*
X0225000Y0244500D03*
X0237000Y0244500D03*
X0237000Y0256500D03*
X0237000Y0262000D03*
X0233000Y0262000D03*
X0229000Y0262000D03*
X0225000Y0262000D03*
X0225000Y0256500D03*
X0269000Y0270000D02*
G75*
%LPD*%
D19*
X0257000Y0281480D03*
X0257000Y0292510D03*
D12*
X0263000Y0276000D03*
X0259000Y0276000D03*
X0255000Y0276000D03*
X0251000Y0276000D03*
X0251000Y0281500D03*
X0263000Y0281500D03*
X0263000Y0293500D03*
X0263000Y0299000D03*
X0259000Y0299000D03*
X0255000Y0299000D03*
X0251000Y0299000D03*
X0251000Y0293500D03*
X0217000Y0233000D02*
G75*
%LPD*%
D19*
X0205000Y0244480D03*
X0205000Y0255510D03*
D12*
X0211000Y0239000D03*
X0207000Y0239000D03*
X0203000Y0239000D03*
X0199000Y0239000D03*
X0199000Y0244500D03*
X0211000Y0244500D03*
X0211000Y0256500D03*
X0211000Y0262000D03*
X0207000Y0262000D03*
X0203000Y0262000D03*
X0199000Y0262000D03*
X0199000Y0256500D03*
X0243000Y0270000D02*
G75*
%LPD*%
D19*
X0231000Y0281480D03*
X0231000Y0292510D03*
D12*
X0237000Y0276000D03*
X0233000Y0276000D03*
X0229000Y0276000D03*
X0225000Y0276000D03*
X0225000Y0281500D03*
X0237000Y0281500D03*
X0237000Y0293500D03*
X0237000Y0299000D03*
X0233000Y0299000D03*
X0229000Y0299000D03*
X0225000Y0299000D03*
X0225000Y0293500D03*
X0191000Y0233000D02*
G75*
%LPD*%
D19*
X0179000Y0244480D03*
X0179000Y0255510D03*
D12*
X0185000Y0239000D03*
X0181000Y0239000D03*
X0177000Y0239000D03*
X0173000Y0239000D03*
X0173000Y0244500D03*
X0185000Y0244500D03*
X0185000Y0256500D03*
X0185000Y0262000D03*
X0181000Y0262000D03*
X0177000Y0262000D03*
X0173000Y0262000D03*
X0173000Y0256500D03*
X0217000Y0270000D02*
G75*
%LPD*%
D19*
X0205000Y0281480D03*
X0205000Y0292510D03*
D12*
X0211000Y0276000D03*
X0207000Y0276000D03*
X0203000Y0276000D03*
X0199000Y0276000D03*
X0199000Y0281500D03*
X0211000Y0281500D03*
X0211000Y0293500D03*
X0211000Y0299000D03*
X0207000Y0299000D03*
X0203000Y0299000D03*
X0199000Y0299000D03*
X0199000Y0293500D03*
X0191000Y0270000D02*
G75*
%LPD*%
D19*
X0179000Y0281480D03*
X0179000Y0292510D03*
D12*
X0185000Y0276000D03*
X0181000Y0276000D03*
X0177000Y0276000D03*
X0173000Y0276000D03*
X0173000Y0281500D03*
X0185000Y0281500D03*
X0185000Y0293500D03*
X0185000Y0299000D03*
X0181000Y0299000D03*
X0177000Y0299000D03*
X0173000Y0299000D03*
X0173000Y0293500D03*
X0165000Y0233000D02*
G75*
%LPD*%
D19*
X0153000Y0244480D03*
X0153000Y0255510D03*
D12*
X0159000Y0239000D03*
X0155000Y0239000D03*
X0151000Y0239000D03*
X0147000Y0239000D03*
X0147000Y0244500D03*
X0159000Y0244500D03*
X0159000Y0256500D03*
X0159000Y0262000D03*
X0155000Y0262000D03*
X0151000Y0262000D03*
X0147000Y0262000D03*
X0147000Y0256500D03*
X0165000Y0270000D02*
G75*
%LPD*%
D19*
X0153000Y0281480D03*
X0153000Y0292510D03*
D12*
X0159000Y0276000D03*
X0155000Y0276000D03*
X0151000Y0276000D03*
X0147000Y0276000D03*
X0147000Y0281500D03*
X0159000Y0281500D03*
X0159000Y0293500D03*
X0159000Y0299000D03*
X0155000Y0299000D03*
X0151000Y0299000D03*
X0147000Y0299000D03*
X0147000Y0293500D03*
X0011000Y0307000D02*
G75*
%LPD*%
X0139000Y0307000D02*
G75*
%LPD*%
D19*
X0127000Y0318480D03*
X0127000Y0329510D03*
D12*
X0133000Y0313000D03*
X0129000Y0313000D03*
X0125000Y0313000D03*
X0121000Y0313000D03*
X0121000Y0318500D03*
X0133000Y0318500D03*
X0133000Y0330500D03*
X0133000Y0336000D03*
X0129000Y0336000D03*
X0125000Y0336000D03*
X0121000Y0336000D03*
X0121000Y0330500D03*
X0113000Y0307000D02*
G75*
%LPD*%
D19*
X0101000Y0318480D03*
X0101000Y0329510D03*
D12*
X0107000Y0313000D03*
X0103000Y0313000D03*
X0099000Y0313000D03*
X0095000Y0313000D03*
X0095000Y0318500D03*
X0107000Y0318500D03*
X0107000Y0330500D03*
X0107000Y0336000D03*
X0103000Y0336000D03*
X0099000Y0336000D03*
X0095000Y0336000D03*
X0095000Y0330500D03*
X0139000Y0344000D02*
G75*
%LPD*%
D19*
X0127000Y0355480D03*
X0127000Y0366510D03*
D12*
X0133000Y0350000D03*
X0129000Y0350000D03*
X0125000Y0350000D03*
X0121000Y0350000D03*
X0121000Y0355500D03*
X0133000Y0355500D03*
X0133000Y0367500D03*
X0133000Y0373000D03*
X0129000Y0373000D03*
X0125000Y0373000D03*
X0121000Y0373000D03*
X0121000Y0367500D03*
X0087000Y0307000D02*
G75*
%LPD*%
D19*
X0075000Y0318480D03*
X0075000Y0329510D03*
D12*
X0081000Y0313000D03*
X0077000Y0313000D03*
X0073000Y0313000D03*
X0069000Y0313000D03*
X0069000Y0318500D03*
X0081000Y0318500D03*
X0081000Y0330500D03*
X0081000Y0336000D03*
X0077000Y0336000D03*
X0073000Y0336000D03*
X0069000Y0336000D03*
X0069000Y0330500D03*
X0113000Y0344000D02*
G75*
%LPD*%
D19*
X0101000Y0355480D03*
X0101000Y0366510D03*
D12*
X0107000Y0350000D03*
X0103000Y0350000D03*
X0099000Y0350000D03*
X0095000Y0350000D03*
X0095000Y0355500D03*
X0107000Y0355500D03*
X0107000Y0367500D03*
X0107000Y0373000D03*
X0103000Y0373000D03*
X0099000Y0373000D03*
X0095000Y0373000D03*
X0095000Y0367500D03*
X0061000Y0307000D02*
G75*
%LPD*%
D19*
X0049000Y0318480D03*
X0049000Y0329510D03*
D12*
X0055000Y0313000D03*
X0051000Y0313000D03*
X0047000Y0313000D03*
X0043000Y0313000D03*
X0043000Y0318500D03*
X0055000Y0318500D03*
X0055000Y0330500D03*
X0055000Y0336000D03*
X0051000Y0336000D03*
X0047000Y0336000D03*
X0043000Y0336000D03*
X0043000Y0330500D03*
X0087000Y0344000D02*
G75*
%LPD*%
D19*
X0075000Y0355480D03*
X0075000Y0366510D03*
D12*
X0081000Y0350000D03*
X0077000Y0350000D03*
X0073000Y0350000D03*
X0069000Y0350000D03*
X0069000Y0355500D03*
X0081000Y0355500D03*
X0081000Y0367500D03*
X0081000Y0373000D03*
X0077000Y0373000D03*
X0073000Y0373000D03*
X0069000Y0373000D03*
X0069000Y0367500D03*
X0061000Y0344000D02*
G75*
%LPD*%
D19*
X0049000Y0355480D03*
X0049000Y0366510D03*
D12*
X0055000Y0350000D03*
X0051000Y0350000D03*
X0047000Y0350000D03*
X0043000Y0350000D03*
X0043000Y0355500D03*
X0055000Y0355500D03*
X0055000Y0367500D03*
X0055000Y0373000D03*
X0051000Y0373000D03*
X0047000Y0373000D03*
X0043000Y0373000D03*
X0043000Y0367500D03*
X0035000Y0307000D02*
G75*
%LPD*%
D19*
X0023000Y0318480D03*
X0023000Y0329510D03*
D12*
X0029000Y0313000D03*
X0025000Y0313000D03*
X0021000Y0313000D03*
X0017000Y0313000D03*
X0017000Y0318500D03*
X0029000Y0318500D03*
X0029000Y0330500D03*
X0029000Y0336000D03*
X0025000Y0336000D03*
X0021000Y0336000D03*
X0017000Y0336000D03*
X0017000Y0330500D03*
X0035000Y0344000D02*
G75*
%LPD*%
D19*
X0023000Y0355480D03*
X0023000Y0366510D03*
D12*
X0029000Y0350000D03*
X0025000Y0350000D03*
X0021000Y0350000D03*
X0017000Y0350000D03*
X0017000Y0355500D03*
X0029000Y0355500D03*
X0029000Y0367500D03*
X0029000Y0373000D03*
X0025000Y0373000D03*
X0021000Y0373000D03*
X0017000Y0373000D03*
X0017000Y0367500D03*
X0141000Y0307000D02*
G75*
%LPD*%
X0269000Y0307000D02*
G75*
%LPD*%
D19*
X0257000Y0318480D03*
X0257000Y0329510D03*
D12*
X0263000Y0313000D03*
X0259000Y0313000D03*
X0255000Y0313000D03*
X0251000Y0313000D03*
X0251000Y0318500D03*
X0263000Y0318500D03*
X0263000Y0330500D03*
X0263000Y0336000D03*
X0259000Y0336000D03*
X0255000Y0336000D03*
X0251000Y0336000D03*
X0251000Y0330500D03*
X0243000Y0307000D02*
G75*
%LPD*%
D19*
X0231000Y0318480D03*
X0231000Y0329510D03*
D12*
X0237000Y0313000D03*
X0233000Y0313000D03*
X0229000Y0313000D03*
X0225000Y0313000D03*
X0225000Y0318500D03*
X0237000Y0318500D03*
X0237000Y0330500D03*
X0237000Y0336000D03*
X0233000Y0336000D03*
X0229000Y0336000D03*
X0225000Y0336000D03*
X0225000Y0330500D03*
X0269000Y0344000D02*
G75*
%LPD*%
D19*
X0257000Y0355480D03*
X0257000Y0366510D03*
D12*
X0263000Y0350000D03*
X0259000Y0350000D03*
X0255000Y0350000D03*
X0251000Y0350000D03*
X0251000Y0355500D03*
X0263000Y0355500D03*
X0263000Y0367500D03*
X0263000Y0373000D03*
X0259000Y0373000D03*
X0255000Y0373000D03*
X0251000Y0373000D03*
X0251000Y0367500D03*
X0217000Y0307000D02*
G75*
%LPD*%
D19*
X0205000Y0318480D03*
X0205000Y0329510D03*
D12*
X0211000Y0313000D03*
X0207000Y0313000D03*
X0203000Y0313000D03*
X0199000Y0313000D03*
X0199000Y0318500D03*
X0211000Y0318500D03*
X0211000Y0330500D03*
X0211000Y0336000D03*
X0207000Y0336000D03*
X0203000Y0336000D03*
X0199000Y0336000D03*
X0199000Y0330500D03*
X0243000Y0344000D02*
G75*
%LPD*%
D19*
X0231000Y0355480D03*
X0231000Y0366510D03*
D12*
X0237000Y0350000D03*
X0233000Y0350000D03*
X0229000Y0350000D03*
X0225000Y0350000D03*
X0225000Y0355500D03*
X0237000Y0355500D03*
X0237000Y0367500D03*
X0237000Y0373000D03*
X0233000Y0373000D03*
X0229000Y0373000D03*
X0225000Y0373000D03*
X0225000Y0367500D03*
X0191000Y0307000D02*
G75*
%LPD*%
D19*
X0179000Y0318480D03*
X0179000Y0329510D03*
D12*
X0185000Y0313000D03*
X0181000Y0313000D03*
X0177000Y0313000D03*
X0173000Y0313000D03*
X0173000Y0318500D03*
X0185000Y0318500D03*
X0185000Y0330500D03*
X0185000Y0336000D03*
X0181000Y0336000D03*
X0177000Y0336000D03*
X0173000Y0336000D03*
X0173000Y0330500D03*
X0217000Y0344000D02*
G75*
%LPD*%
D19*
X0205000Y0355480D03*
X0205000Y0366510D03*
D12*
X0211000Y0350000D03*
X0207000Y0350000D03*
X0203000Y0350000D03*
X0199000Y0350000D03*
X0199000Y0355500D03*
X0211000Y0355500D03*
X0211000Y0367500D03*
X0211000Y0373000D03*
X0207000Y0373000D03*
X0203000Y0373000D03*
X0199000Y0373000D03*
X0199000Y0367500D03*
X0191000Y0344000D02*
G75*
%LPD*%
D19*
X0179000Y0355480D03*
X0179000Y0366510D03*
D12*
X0185000Y0350000D03*
X0181000Y0350000D03*
X0177000Y0350000D03*
X0173000Y0350000D03*
X0173000Y0355500D03*
X0185000Y0355500D03*
X0185000Y0367500D03*
X0185000Y0373000D03*
X0181000Y0373000D03*
X0177000Y0373000D03*
X0173000Y0373000D03*
X0173000Y0367500D03*
X0165000Y0307000D02*
G75*
%LPD*%
D19*
X0153000Y0318480D03*
X0153000Y0329510D03*
D12*
X0159000Y0313000D03*
X0155000Y0313000D03*
X0151000Y0313000D03*
X0147000Y0313000D03*
X0147000Y0318500D03*
X0159000Y0318500D03*
X0159000Y0330500D03*
X0159000Y0336000D03*
X0155000Y0336000D03*
X0151000Y0336000D03*
X0147000Y0336000D03*
X0147000Y0330500D03*
X0165000Y0344000D02*
G75*
%LPD*%
D19*
X0153000Y0355480D03*
X0153000Y0366510D03*
D12*
X0159000Y0350000D03*
X0155000Y0350000D03*
X0151000Y0350000D03*
X0147000Y0350000D03*
X0147000Y0355500D03*
X0159000Y0355500D03*
X0159000Y0367500D03*
X0159000Y0373000D03*
X0155000Y0373000D03*
X0151000Y0373000D03*
X0147000Y0373000D03*
X0147000Y0367500D03*
M02*
