G75*
G70*
%OFA0B0*%
%FSLAX25Y25*%
%IPPOS*%
%LPD*%
%AMOC8*
5,1,8,0,0,1.08239X$1,22.5*
%
%ADD10C,0.02560*%
%ADD12C,0.04370*%
X0011000Y0011000D02*
G75*
%LPD*%
X0139000Y0011000D02*
G75*
%LPD*%
D10*
X0133790Y0023840D02*
X0120210Y0023840D01*
X0133790Y0023840D02*
X0133790Y0016160D01*
X0120210Y0016160D01*
X0120210Y0023840D01*
X0131240Y0023840D02*
X0131240Y0016160D01*
X0128690Y0016160D02*
X0128690Y0023840D01*
X0126140Y0023840D02*
X0126140Y0016160D01*
X0123590Y0016160D02*
X0123590Y0023840D01*
X0121040Y0023840D02*
X0121040Y0016160D01*
X0120210Y0033160D02*
X0133790Y0033160D01*
X0120210Y0033160D02*
X0120210Y0040840D01*
X0133790Y0040840D01*
X0133790Y0033160D01*
X0131240Y0033160D02*
X0131240Y0040840D01*
X0128690Y0040840D02*
X0128690Y0033160D01*
X0126140Y0033160D02*
X0126140Y0040840D01*
X0123590Y0040840D02*
X0123590Y0033160D01*
X0121040Y0033160D02*
X0121040Y0040840D01*
D12*
X0133000Y0017000D03*
X0129000Y0017000D03*
X0125000Y0017000D03*
X0121000Y0017000D03*
X0121000Y0022500D03*
X0133000Y0022500D03*
X0133000Y0034500D03*
X0133000Y0040000D03*
X0129000Y0040000D03*
X0125000Y0040000D03*
X0121000Y0040000D03*
X0121000Y0034500D03*
X0113000Y0011000D02*
G75*
%LPD*%
D10*
X0107790Y0023840D02*
X0094210Y0023840D01*
X0107790Y0023840D02*
X0107790Y0016160D01*
X0094210Y0016160D01*
X0094210Y0023840D01*
X0105240Y0023840D02*
X0105240Y0016160D01*
X0102690Y0016160D02*
X0102690Y0023840D01*
X0100140Y0023840D02*
X0100140Y0016160D01*
X0097590Y0016160D02*
X0097590Y0023840D01*
X0095040Y0023840D02*
X0095040Y0016160D01*
X0094210Y0033160D02*
X0107790Y0033160D01*
X0094210Y0033160D02*
X0094210Y0040840D01*
X0107790Y0040840D01*
X0107790Y0033160D01*
X0105240Y0033160D02*
X0105240Y0040840D01*
X0102690Y0040840D02*
X0102690Y0033160D01*
X0100140Y0033160D02*
X0100140Y0040840D01*
X0097590Y0040840D02*
X0097590Y0033160D01*
X0095040Y0033160D02*
X0095040Y0040840D01*
D12*
X0107000Y0017000D03*
X0103000Y0017000D03*
X0099000Y0017000D03*
X0095000Y0017000D03*
X0095000Y0022500D03*
X0107000Y0022500D03*
X0107000Y0034500D03*
X0107000Y0040000D03*
X0103000Y0040000D03*
X0099000Y0040000D03*
X0095000Y0040000D03*
X0095000Y0034500D03*
X0139000Y0048000D02*
G75*
%LPD*%
D10*
X0133790Y0060840D02*
X0120210Y0060840D01*
X0133790Y0060840D02*
X0133790Y0053160D01*
X0120210Y0053160D01*
X0120210Y0060840D01*
X0131240Y0060840D02*
X0131240Y0053160D01*
X0128690Y0053160D02*
X0128690Y0060840D01*
X0126140Y0060840D02*
X0126140Y0053160D01*
X0123590Y0053160D02*
X0123590Y0060840D01*
X0121040Y0060840D02*
X0121040Y0053160D01*
X0120210Y0070160D02*
X0133790Y0070160D01*
X0120210Y0070160D02*
X0120210Y0077840D01*
X0133790Y0077840D01*
X0133790Y0070160D01*
X0131240Y0070160D02*
X0131240Y0077840D01*
X0128690Y0077840D02*
X0128690Y0070160D01*
X0126140Y0070160D02*
X0126140Y0077840D01*
X0123590Y0077840D02*
X0123590Y0070160D01*
X0121040Y0070160D02*
X0121040Y0077840D01*
D12*
X0133000Y0054000D03*
X0129000Y0054000D03*
X0125000Y0054000D03*
X0121000Y0054000D03*
X0121000Y0059500D03*
X0133000Y0059500D03*
X0133000Y0071500D03*
X0133000Y0077000D03*
X0129000Y0077000D03*
X0125000Y0077000D03*
X0121000Y0077000D03*
X0121000Y0071500D03*
X0087000Y0011000D02*
G75*
%LPD*%
D10*
X0081790Y0023840D02*
X0068210Y0023840D01*
X0081790Y0023840D02*
X0081790Y0016160D01*
X0068210Y0016160D01*
X0068210Y0023840D01*
X0079240Y0023840D02*
X0079240Y0016160D01*
X0076690Y0016160D02*
X0076690Y0023840D01*
X0074140Y0023840D02*
X0074140Y0016160D01*
X0071590Y0016160D02*
X0071590Y0023840D01*
X0069040Y0023840D02*
X0069040Y0016160D01*
X0068210Y0033160D02*
X0081790Y0033160D01*
X0068210Y0033160D02*
X0068210Y0040840D01*
X0081790Y0040840D01*
X0081790Y0033160D01*
X0079240Y0033160D02*
X0079240Y0040840D01*
X0076690Y0040840D02*
X0076690Y0033160D01*
X0074140Y0033160D02*
X0074140Y0040840D01*
X0071590Y0040840D02*
X0071590Y0033160D01*
X0069040Y0033160D02*
X0069040Y0040840D01*
D12*
X0081000Y0017000D03*
X0077000Y0017000D03*
X0073000Y0017000D03*
X0069000Y0017000D03*
X0069000Y0022500D03*
X0081000Y0022500D03*
X0081000Y0034500D03*
X0081000Y0040000D03*
X0077000Y0040000D03*
X0073000Y0040000D03*
X0069000Y0040000D03*
X0069000Y0034500D03*
X0113000Y0048000D02*
G75*
%LPD*%
D10*
X0107790Y0060840D02*
X0094210Y0060840D01*
X0107790Y0060840D02*
X0107790Y0053160D01*
X0094210Y0053160D01*
X0094210Y0060840D01*
X0105240Y0060840D02*
X0105240Y0053160D01*
X0102690Y0053160D02*
X0102690Y0060840D01*
X0100140Y0060840D02*
X0100140Y0053160D01*
X0097590Y0053160D02*
X0097590Y0060840D01*
X0095040Y0060840D02*
X0095040Y0053160D01*
X0094210Y0070160D02*
X0107790Y0070160D01*
X0094210Y0070160D02*
X0094210Y0077840D01*
X0107790Y0077840D01*
X0107790Y0070160D01*
X0105240Y0070160D02*
X0105240Y0077840D01*
X0102690Y0077840D02*
X0102690Y0070160D01*
X0100140Y0070160D02*
X0100140Y0077840D01*
X0097590Y0077840D02*
X0097590Y0070160D01*
X0095040Y0070160D02*
X0095040Y0077840D01*
D12*
X0107000Y0054000D03*
X0103000Y0054000D03*
X0099000Y0054000D03*
X0095000Y0054000D03*
X0095000Y0059500D03*
X0107000Y0059500D03*
X0107000Y0071500D03*
X0107000Y0077000D03*
X0103000Y0077000D03*
X0099000Y0077000D03*
X0095000Y0077000D03*
X0095000Y0071500D03*
X0061000Y0011000D02*
G75*
%LPD*%
D10*
X0055790Y0023840D02*
X0042210Y0023840D01*
X0055790Y0023840D02*
X0055790Y0016160D01*
X0042210Y0016160D01*
X0042210Y0023840D01*
X0053240Y0023840D02*
X0053240Y0016160D01*
X0050690Y0016160D02*
X0050690Y0023840D01*
X0048140Y0023840D02*
X0048140Y0016160D01*
X0045590Y0016160D02*
X0045590Y0023840D01*
X0043040Y0023840D02*
X0043040Y0016160D01*
X0042210Y0033160D02*
X0055790Y0033160D01*
X0042210Y0033160D02*
X0042210Y0040840D01*
X0055790Y0040840D01*
X0055790Y0033160D01*
X0053240Y0033160D02*
X0053240Y0040840D01*
X0050690Y0040840D02*
X0050690Y0033160D01*
X0048140Y0033160D02*
X0048140Y0040840D01*
X0045590Y0040840D02*
X0045590Y0033160D01*
X0043040Y0033160D02*
X0043040Y0040840D01*
D12*
X0055000Y0017000D03*
X0051000Y0017000D03*
X0047000Y0017000D03*
X0043000Y0017000D03*
X0043000Y0022500D03*
X0055000Y0022500D03*
X0055000Y0034500D03*
X0055000Y0040000D03*
X0051000Y0040000D03*
X0047000Y0040000D03*
X0043000Y0040000D03*
X0043000Y0034500D03*
X0087000Y0048000D02*
G75*
%LPD*%
D10*
X0081790Y0060840D02*
X0068210Y0060840D01*
X0081790Y0060840D02*
X0081790Y0053160D01*
X0068210Y0053160D01*
X0068210Y0060840D01*
X0079240Y0060840D02*
X0079240Y0053160D01*
X0076690Y0053160D02*
X0076690Y0060840D01*
X0074140Y0060840D02*
X0074140Y0053160D01*
X0071590Y0053160D02*
X0071590Y0060840D01*
X0069040Y0060840D02*
X0069040Y0053160D01*
X0068210Y0070160D02*
X0081790Y0070160D01*
X0068210Y0070160D02*
X0068210Y0077840D01*
X0081790Y0077840D01*
X0081790Y0070160D01*
X0079240Y0070160D02*
X0079240Y0077840D01*
X0076690Y0077840D02*
X0076690Y0070160D01*
X0074140Y0070160D02*
X0074140Y0077840D01*
X0071590Y0077840D02*
X0071590Y0070160D01*
X0069040Y0070160D02*
X0069040Y0077840D01*
D12*
X0081000Y0054000D03*
X0077000Y0054000D03*
X0073000Y0054000D03*
X0069000Y0054000D03*
X0069000Y0059500D03*
X0081000Y0059500D03*
X0081000Y0071500D03*
X0081000Y0077000D03*
X0077000Y0077000D03*
X0073000Y0077000D03*
X0069000Y0077000D03*
X0069000Y0071500D03*
X0061000Y0048000D02*
G75*
%LPD*%
D10*
X0055790Y0060840D02*
X0042210Y0060840D01*
X0055790Y0060840D02*
X0055790Y0053160D01*
X0042210Y0053160D01*
X0042210Y0060840D01*
X0053240Y0060840D02*
X0053240Y0053160D01*
X0050690Y0053160D02*
X0050690Y0060840D01*
X0048140Y0060840D02*
X0048140Y0053160D01*
X0045590Y0053160D02*
X0045590Y0060840D01*
X0043040Y0060840D02*
X0043040Y0053160D01*
X0042210Y0070160D02*
X0055790Y0070160D01*
X0042210Y0070160D02*
X0042210Y0077840D01*
X0055790Y0077840D01*
X0055790Y0070160D01*
X0053240Y0070160D02*
X0053240Y0077840D01*
X0050690Y0077840D02*
X0050690Y0070160D01*
X0048140Y0070160D02*
X0048140Y0077840D01*
X0045590Y0077840D02*
X0045590Y0070160D01*
X0043040Y0070160D02*
X0043040Y0077840D01*
D12*
X0055000Y0054000D03*
X0051000Y0054000D03*
X0047000Y0054000D03*
X0043000Y0054000D03*
X0043000Y0059500D03*
X0055000Y0059500D03*
X0055000Y0071500D03*
X0055000Y0077000D03*
X0051000Y0077000D03*
X0047000Y0077000D03*
X0043000Y0077000D03*
X0043000Y0071500D03*
X0035000Y0011000D02*
G75*
%LPD*%
D10*
X0029790Y0023840D02*
X0016210Y0023840D01*
X0029790Y0023840D02*
X0029790Y0016160D01*
X0016210Y0016160D01*
X0016210Y0023840D01*
X0027240Y0023840D02*
X0027240Y0016160D01*
X0024690Y0016160D02*
X0024690Y0023840D01*
X0022140Y0023840D02*
X0022140Y0016160D01*
X0019590Y0016160D02*
X0019590Y0023840D01*
X0017040Y0023840D02*
X0017040Y0016160D01*
X0016210Y0033160D02*
X0029790Y0033160D01*
X0016210Y0033160D02*
X0016210Y0040840D01*
X0029790Y0040840D01*
X0029790Y0033160D01*
X0027240Y0033160D02*
X0027240Y0040840D01*
X0024690Y0040840D02*
X0024690Y0033160D01*
X0022140Y0033160D02*
X0022140Y0040840D01*
X0019590Y0040840D02*
X0019590Y0033160D01*
X0017040Y0033160D02*
X0017040Y0040840D01*
D12*
X0029000Y0017000D03*
X0025000Y0017000D03*
X0021000Y0017000D03*
X0017000Y0017000D03*
X0017000Y0022500D03*
X0029000Y0022500D03*
X0029000Y0034500D03*
X0029000Y0040000D03*
X0025000Y0040000D03*
X0021000Y0040000D03*
X0017000Y0040000D03*
X0017000Y0034500D03*
X0035000Y0048000D02*
G75*
%LPD*%
D10*
X0029790Y0060840D02*
X0016210Y0060840D01*
X0029790Y0060840D02*
X0029790Y0053160D01*
X0016210Y0053160D01*
X0016210Y0060840D01*
X0027240Y0060840D02*
X0027240Y0053160D01*
X0024690Y0053160D02*
X0024690Y0060840D01*
X0022140Y0060840D02*
X0022140Y0053160D01*
X0019590Y0053160D02*
X0019590Y0060840D01*
X0017040Y0060840D02*
X0017040Y0053160D01*
X0016210Y0070160D02*
X0029790Y0070160D01*
X0016210Y0070160D02*
X0016210Y0077840D01*
X0029790Y0077840D01*
X0029790Y0070160D01*
X0027240Y0070160D02*
X0027240Y0077840D01*
X0024690Y0077840D02*
X0024690Y0070160D01*
X0022140Y0070160D02*
X0022140Y0077840D01*
X0019590Y0077840D02*
X0019590Y0070160D01*
X0017040Y0070160D02*
X0017040Y0077840D01*
D12*
X0029000Y0054000D03*
X0025000Y0054000D03*
X0021000Y0054000D03*
X0017000Y0054000D03*
X0017000Y0059500D03*
X0029000Y0059500D03*
X0029000Y0071500D03*
X0029000Y0077000D03*
X0025000Y0077000D03*
X0021000Y0077000D03*
X0017000Y0077000D03*
X0017000Y0071500D03*
X0011000Y0085000D02*
G75*
%LPD*%
X0139000Y0085000D02*
G75*
%LPD*%
D10*
X0133790Y0097840D02*
X0120210Y0097840D01*
X0133790Y0097840D02*
X0133790Y0090160D01*
X0120210Y0090160D01*
X0120210Y0097840D01*
X0131240Y0097840D02*
X0131240Y0090160D01*
X0128690Y0090160D02*
X0128690Y0097840D01*
X0126140Y0097840D02*
X0126140Y0090160D01*
X0123590Y0090160D02*
X0123590Y0097840D01*
X0121040Y0097840D02*
X0121040Y0090160D01*
X0120210Y0107160D02*
X0133790Y0107160D01*
X0120210Y0107160D02*
X0120210Y0114840D01*
X0133790Y0114840D01*
X0133790Y0107160D01*
X0131240Y0107160D02*
X0131240Y0114840D01*
X0128690Y0114840D02*
X0128690Y0107160D01*
X0126140Y0107160D02*
X0126140Y0114840D01*
X0123590Y0114840D02*
X0123590Y0107160D01*
X0121040Y0107160D02*
X0121040Y0114840D01*
D12*
X0133000Y0091000D03*
X0129000Y0091000D03*
X0125000Y0091000D03*
X0121000Y0091000D03*
X0121000Y0096500D03*
X0133000Y0096500D03*
X0133000Y0108500D03*
X0133000Y0114000D03*
X0129000Y0114000D03*
X0125000Y0114000D03*
X0121000Y0114000D03*
X0121000Y0108500D03*
X0113000Y0085000D02*
G75*
%LPD*%
D10*
X0107790Y0097840D02*
X0094210Y0097840D01*
X0107790Y0097840D02*
X0107790Y0090160D01*
X0094210Y0090160D01*
X0094210Y0097840D01*
X0105240Y0097840D02*
X0105240Y0090160D01*
X0102690Y0090160D02*
X0102690Y0097840D01*
X0100140Y0097840D02*
X0100140Y0090160D01*
X0097590Y0090160D02*
X0097590Y0097840D01*
X0095040Y0097840D02*
X0095040Y0090160D01*
X0094210Y0107160D02*
X0107790Y0107160D01*
X0094210Y0107160D02*
X0094210Y0114840D01*
X0107790Y0114840D01*
X0107790Y0107160D01*
X0105240Y0107160D02*
X0105240Y0114840D01*
X0102690Y0114840D02*
X0102690Y0107160D01*
X0100140Y0107160D02*
X0100140Y0114840D01*
X0097590Y0114840D02*
X0097590Y0107160D01*
X0095040Y0107160D02*
X0095040Y0114840D01*
D12*
X0107000Y0091000D03*
X0103000Y0091000D03*
X0099000Y0091000D03*
X0095000Y0091000D03*
X0095000Y0096500D03*
X0107000Y0096500D03*
X0107000Y0108500D03*
X0107000Y0114000D03*
X0103000Y0114000D03*
X0099000Y0114000D03*
X0095000Y0114000D03*
X0095000Y0108500D03*
X0139000Y0122000D02*
G75*
%LPD*%
D10*
X0133790Y0134840D02*
X0120210Y0134840D01*
X0133790Y0134840D02*
X0133790Y0127160D01*
X0120210Y0127160D01*
X0120210Y0134840D01*
X0131240Y0134840D02*
X0131240Y0127160D01*
X0128690Y0127160D02*
X0128690Y0134840D01*
X0126140Y0134840D02*
X0126140Y0127160D01*
X0123590Y0127160D02*
X0123590Y0134840D01*
X0121040Y0134840D02*
X0121040Y0127160D01*
X0120210Y0144160D02*
X0133790Y0144160D01*
X0120210Y0144160D02*
X0120210Y0151840D01*
X0133790Y0151840D01*
X0133790Y0144160D01*
X0131240Y0144160D02*
X0131240Y0151840D01*
X0128690Y0151840D02*
X0128690Y0144160D01*
X0126140Y0144160D02*
X0126140Y0151840D01*
X0123590Y0151840D02*
X0123590Y0144160D01*
X0121040Y0144160D02*
X0121040Y0151840D01*
D12*
X0133000Y0128000D03*
X0129000Y0128000D03*
X0125000Y0128000D03*
X0121000Y0128000D03*
X0121000Y0133500D03*
X0133000Y0133500D03*
X0133000Y0145500D03*
X0133000Y0151000D03*
X0129000Y0151000D03*
X0125000Y0151000D03*
X0121000Y0151000D03*
X0121000Y0145500D03*
X0087000Y0085000D02*
G75*
%LPD*%
D10*
X0081790Y0097840D02*
X0068210Y0097840D01*
X0081790Y0097840D02*
X0081790Y0090160D01*
X0068210Y0090160D01*
X0068210Y0097840D01*
X0079240Y0097840D02*
X0079240Y0090160D01*
X0076690Y0090160D02*
X0076690Y0097840D01*
X0074140Y0097840D02*
X0074140Y0090160D01*
X0071590Y0090160D02*
X0071590Y0097840D01*
X0069040Y0097840D02*
X0069040Y0090160D01*
X0068210Y0107160D02*
X0081790Y0107160D01*
X0068210Y0107160D02*
X0068210Y0114840D01*
X0081790Y0114840D01*
X0081790Y0107160D01*
X0079240Y0107160D02*
X0079240Y0114840D01*
X0076690Y0114840D02*
X0076690Y0107160D01*
X0074140Y0107160D02*
X0074140Y0114840D01*
X0071590Y0114840D02*
X0071590Y0107160D01*
X0069040Y0107160D02*
X0069040Y0114840D01*
D12*
X0081000Y0091000D03*
X0077000Y0091000D03*
X0073000Y0091000D03*
X0069000Y0091000D03*
X0069000Y0096500D03*
X0081000Y0096500D03*
X0081000Y0108500D03*
X0081000Y0114000D03*
X0077000Y0114000D03*
X0073000Y0114000D03*
X0069000Y0114000D03*
X0069000Y0108500D03*
X0113000Y0122000D02*
G75*
%LPD*%
D10*
X0107790Y0134840D02*
X0094210Y0134840D01*
X0107790Y0134840D02*
X0107790Y0127160D01*
X0094210Y0127160D01*
X0094210Y0134840D01*
X0105240Y0134840D02*
X0105240Y0127160D01*
X0102690Y0127160D02*
X0102690Y0134840D01*
X0100140Y0134840D02*
X0100140Y0127160D01*
X0097590Y0127160D02*
X0097590Y0134840D01*
X0095040Y0134840D02*
X0095040Y0127160D01*
X0094210Y0144160D02*
X0107790Y0144160D01*
X0094210Y0144160D02*
X0094210Y0151840D01*
X0107790Y0151840D01*
X0107790Y0144160D01*
X0105240Y0144160D02*
X0105240Y0151840D01*
X0102690Y0151840D02*
X0102690Y0144160D01*
X0100140Y0144160D02*
X0100140Y0151840D01*
X0097590Y0151840D02*
X0097590Y0144160D01*
X0095040Y0144160D02*
X0095040Y0151840D01*
D12*
X0107000Y0128000D03*
X0103000Y0128000D03*
X0099000Y0128000D03*
X0095000Y0128000D03*
X0095000Y0133500D03*
X0107000Y0133500D03*
X0107000Y0145500D03*
X0107000Y0151000D03*
X0103000Y0151000D03*
X0099000Y0151000D03*
X0095000Y0151000D03*
X0095000Y0145500D03*
X0061000Y0085000D02*
G75*
%LPD*%
D10*
X0055790Y0097840D02*
X0042210Y0097840D01*
X0055790Y0097840D02*
X0055790Y0090160D01*
X0042210Y0090160D01*
X0042210Y0097840D01*
X0053240Y0097840D02*
X0053240Y0090160D01*
X0050690Y0090160D02*
X0050690Y0097840D01*
X0048140Y0097840D02*
X0048140Y0090160D01*
X0045590Y0090160D02*
X0045590Y0097840D01*
X0043040Y0097840D02*
X0043040Y0090160D01*
X0042210Y0107160D02*
X0055790Y0107160D01*
X0042210Y0107160D02*
X0042210Y0114840D01*
X0055790Y0114840D01*
X0055790Y0107160D01*
X0053240Y0107160D02*
X0053240Y0114840D01*
X0050690Y0114840D02*
X0050690Y0107160D01*
X0048140Y0107160D02*
X0048140Y0114840D01*
X0045590Y0114840D02*
X0045590Y0107160D01*
X0043040Y0107160D02*
X0043040Y0114840D01*
D12*
X0055000Y0091000D03*
X0051000Y0091000D03*
X0047000Y0091000D03*
X0043000Y0091000D03*
X0043000Y0096500D03*
X0055000Y0096500D03*
X0055000Y0108500D03*
X0055000Y0114000D03*
X0051000Y0114000D03*
X0047000Y0114000D03*
X0043000Y0114000D03*
X0043000Y0108500D03*
X0087000Y0122000D02*
G75*
%LPD*%
D10*
X0081790Y0134840D02*
X0068210Y0134840D01*
X0081790Y0134840D02*
X0081790Y0127160D01*
X0068210Y0127160D01*
X0068210Y0134840D01*
X0079240Y0134840D02*
X0079240Y0127160D01*
X0076690Y0127160D02*
X0076690Y0134840D01*
X0074140Y0134840D02*
X0074140Y0127160D01*
X0071590Y0127160D02*
X0071590Y0134840D01*
X0069040Y0134840D02*
X0069040Y0127160D01*
X0068210Y0144160D02*
X0081790Y0144160D01*
X0068210Y0144160D02*
X0068210Y0151840D01*
X0081790Y0151840D01*
X0081790Y0144160D01*
X0079240Y0144160D02*
X0079240Y0151840D01*
X0076690Y0151840D02*
X0076690Y0144160D01*
X0074140Y0144160D02*
X0074140Y0151840D01*
X0071590Y0151840D02*
X0071590Y0144160D01*
X0069040Y0144160D02*
X0069040Y0151840D01*
D12*
X0081000Y0128000D03*
X0077000Y0128000D03*
X0073000Y0128000D03*
X0069000Y0128000D03*
X0069000Y0133500D03*
X0081000Y0133500D03*
X0081000Y0145500D03*
X0081000Y0151000D03*
X0077000Y0151000D03*
X0073000Y0151000D03*
X0069000Y0151000D03*
X0069000Y0145500D03*
X0061000Y0122000D02*
G75*
%LPD*%
D10*
X0055790Y0134840D02*
X0042210Y0134840D01*
X0055790Y0134840D02*
X0055790Y0127160D01*
X0042210Y0127160D01*
X0042210Y0134840D01*
X0053240Y0134840D02*
X0053240Y0127160D01*
X0050690Y0127160D02*
X0050690Y0134840D01*
X0048140Y0134840D02*
X0048140Y0127160D01*
X0045590Y0127160D02*
X0045590Y0134840D01*
X0043040Y0134840D02*
X0043040Y0127160D01*
X0042210Y0144160D02*
X0055790Y0144160D01*
X0042210Y0144160D02*
X0042210Y0151840D01*
X0055790Y0151840D01*
X0055790Y0144160D01*
X0053240Y0144160D02*
X0053240Y0151840D01*
X0050690Y0151840D02*
X0050690Y0144160D01*
X0048140Y0144160D02*
X0048140Y0151840D01*
X0045590Y0151840D02*
X0045590Y0144160D01*
X0043040Y0144160D02*
X0043040Y0151840D01*
D12*
X0055000Y0128000D03*
X0051000Y0128000D03*
X0047000Y0128000D03*
X0043000Y0128000D03*
X0043000Y0133500D03*
X0055000Y0133500D03*
X0055000Y0145500D03*
X0055000Y0151000D03*
X0051000Y0151000D03*
X0047000Y0151000D03*
X0043000Y0151000D03*
X0043000Y0145500D03*
X0035000Y0085000D02*
G75*
%LPD*%
D10*
X0029790Y0097840D02*
X0016210Y0097840D01*
X0029790Y0097840D02*
X0029790Y0090160D01*
X0016210Y0090160D01*
X0016210Y0097840D01*
X0027240Y0097840D02*
X0027240Y0090160D01*
X0024690Y0090160D02*
X0024690Y0097840D01*
X0022140Y0097840D02*
X0022140Y0090160D01*
X0019590Y0090160D02*
X0019590Y0097840D01*
X0017040Y0097840D02*
X0017040Y0090160D01*
X0016210Y0107160D02*
X0029790Y0107160D01*
X0016210Y0107160D02*
X0016210Y0114840D01*
X0029790Y0114840D01*
X0029790Y0107160D01*
X0027240Y0107160D02*
X0027240Y0114840D01*
X0024690Y0114840D02*
X0024690Y0107160D01*
X0022140Y0107160D02*
X0022140Y0114840D01*
X0019590Y0114840D02*
X0019590Y0107160D01*
X0017040Y0107160D02*
X0017040Y0114840D01*
D12*
X0029000Y0091000D03*
X0025000Y0091000D03*
X0021000Y0091000D03*
X0017000Y0091000D03*
X0017000Y0096500D03*
X0029000Y0096500D03*
X0029000Y0108500D03*
X0029000Y0114000D03*
X0025000Y0114000D03*
X0021000Y0114000D03*
X0017000Y0114000D03*
X0017000Y0108500D03*
X0035000Y0122000D02*
G75*
%LPD*%
D10*
X0029790Y0134840D02*
X0016210Y0134840D01*
X0029790Y0134840D02*
X0029790Y0127160D01*
X0016210Y0127160D01*
X0016210Y0134840D01*
X0027240Y0134840D02*
X0027240Y0127160D01*
X0024690Y0127160D02*
X0024690Y0134840D01*
X0022140Y0134840D02*
X0022140Y0127160D01*
X0019590Y0127160D02*
X0019590Y0134840D01*
X0017040Y0134840D02*
X0017040Y0127160D01*
X0016210Y0144160D02*
X0029790Y0144160D01*
X0016210Y0144160D02*
X0016210Y0151840D01*
X0029790Y0151840D01*
X0029790Y0144160D01*
X0027240Y0144160D02*
X0027240Y0151840D01*
X0024690Y0151840D02*
X0024690Y0144160D01*
X0022140Y0144160D02*
X0022140Y0151840D01*
X0019590Y0151840D02*
X0019590Y0144160D01*
X0017040Y0144160D02*
X0017040Y0151840D01*
D12*
X0029000Y0128000D03*
X0025000Y0128000D03*
X0021000Y0128000D03*
X0017000Y0128000D03*
X0017000Y0133500D03*
X0029000Y0133500D03*
X0029000Y0145500D03*
X0029000Y0151000D03*
X0025000Y0151000D03*
X0021000Y0151000D03*
X0017000Y0151000D03*
X0017000Y0145500D03*
X0141000Y0011000D02*
G75*
%LPD*%
X0269000Y0011000D02*
G75*
%LPD*%
D10*
X0263790Y0023840D02*
X0250210Y0023840D01*
X0263790Y0023840D02*
X0263790Y0016160D01*
X0250210Y0016160D01*
X0250210Y0023840D01*
X0261240Y0023840D02*
X0261240Y0016160D01*
X0258690Y0016160D02*
X0258690Y0023840D01*
X0256140Y0023840D02*
X0256140Y0016160D01*
X0253590Y0016160D02*
X0253590Y0023840D01*
X0251040Y0023840D02*
X0251040Y0016160D01*
X0250210Y0033160D02*
X0263790Y0033160D01*
X0250210Y0033160D02*
X0250210Y0040840D01*
X0263790Y0040840D01*
X0263790Y0033160D01*
X0261240Y0033160D02*
X0261240Y0040840D01*
X0258690Y0040840D02*
X0258690Y0033160D01*
X0256140Y0033160D02*
X0256140Y0040840D01*
X0253590Y0040840D02*
X0253590Y0033160D01*
X0251040Y0033160D02*
X0251040Y0040840D01*
D12*
X0263000Y0017000D03*
X0259000Y0017000D03*
X0255000Y0017000D03*
X0251000Y0017000D03*
X0251000Y0022500D03*
X0263000Y0022500D03*
X0263000Y0034500D03*
X0263000Y0040000D03*
X0259000Y0040000D03*
X0255000Y0040000D03*
X0251000Y0040000D03*
X0251000Y0034500D03*
X0243000Y0011000D02*
G75*
%LPD*%
D10*
X0237790Y0023840D02*
X0224210Y0023840D01*
X0237790Y0023840D02*
X0237790Y0016160D01*
X0224210Y0016160D01*
X0224210Y0023840D01*
X0235240Y0023840D02*
X0235240Y0016160D01*
X0232690Y0016160D02*
X0232690Y0023840D01*
X0230140Y0023840D02*
X0230140Y0016160D01*
X0227590Y0016160D02*
X0227590Y0023840D01*
X0225040Y0023840D02*
X0225040Y0016160D01*
X0224210Y0033160D02*
X0237790Y0033160D01*
X0224210Y0033160D02*
X0224210Y0040840D01*
X0237790Y0040840D01*
X0237790Y0033160D01*
X0235240Y0033160D02*
X0235240Y0040840D01*
X0232690Y0040840D02*
X0232690Y0033160D01*
X0230140Y0033160D02*
X0230140Y0040840D01*
X0227590Y0040840D02*
X0227590Y0033160D01*
X0225040Y0033160D02*
X0225040Y0040840D01*
D12*
X0237000Y0017000D03*
X0233000Y0017000D03*
X0229000Y0017000D03*
X0225000Y0017000D03*
X0225000Y0022500D03*
X0237000Y0022500D03*
X0237000Y0034500D03*
X0237000Y0040000D03*
X0233000Y0040000D03*
X0229000Y0040000D03*
X0225000Y0040000D03*
X0225000Y0034500D03*
X0269000Y0048000D02*
G75*
%LPD*%
D10*
X0263790Y0060840D02*
X0250210Y0060840D01*
X0263790Y0060840D02*
X0263790Y0053160D01*
X0250210Y0053160D01*
X0250210Y0060840D01*
X0261240Y0060840D02*
X0261240Y0053160D01*
X0258690Y0053160D02*
X0258690Y0060840D01*
X0256140Y0060840D02*
X0256140Y0053160D01*
X0253590Y0053160D02*
X0253590Y0060840D01*
X0251040Y0060840D02*
X0251040Y0053160D01*
X0250210Y0070160D02*
X0263790Y0070160D01*
X0250210Y0070160D02*
X0250210Y0077840D01*
X0263790Y0077840D01*
X0263790Y0070160D01*
X0261240Y0070160D02*
X0261240Y0077840D01*
X0258690Y0077840D02*
X0258690Y0070160D01*
X0256140Y0070160D02*
X0256140Y0077840D01*
X0253590Y0077840D02*
X0253590Y0070160D01*
X0251040Y0070160D02*
X0251040Y0077840D01*
D12*
X0263000Y0054000D03*
X0259000Y0054000D03*
X0255000Y0054000D03*
X0251000Y0054000D03*
X0251000Y0059500D03*
X0263000Y0059500D03*
X0263000Y0071500D03*
X0263000Y0077000D03*
X0259000Y0077000D03*
X0255000Y0077000D03*
X0251000Y0077000D03*
X0251000Y0071500D03*
X0217000Y0011000D02*
G75*
%LPD*%
D10*
X0211790Y0023840D02*
X0198210Y0023840D01*
X0211790Y0023840D02*
X0211790Y0016160D01*
X0198210Y0016160D01*
X0198210Y0023840D01*
X0209240Y0023840D02*
X0209240Y0016160D01*
X0206690Y0016160D02*
X0206690Y0023840D01*
X0204140Y0023840D02*
X0204140Y0016160D01*
X0201590Y0016160D02*
X0201590Y0023840D01*
X0199040Y0023840D02*
X0199040Y0016160D01*
X0198210Y0033160D02*
X0211790Y0033160D01*
X0198210Y0033160D02*
X0198210Y0040840D01*
X0211790Y0040840D01*
X0211790Y0033160D01*
X0209240Y0033160D02*
X0209240Y0040840D01*
X0206690Y0040840D02*
X0206690Y0033160D01*
X0204140Y0033160D02*
X0204140Y0040840D01*
X0201590Y0040840D02*
X0201590Y0033160D01*
X0199040Y0033160D02*
X0199040Y0040840D01*
D12*
X0211000Y0017000D03*
X0207000Y0017000D03*
X0203000Y0017000D03*
X0199000Y0017000D03*
X0199000Y0022500D03*
X0211000Y0022500D03*
X0211000Y0034500D03*
X0211000Y0040000D03*
X0207000Y0040000D03*
X0203000Y0040000D03*
X0199000Y0040000D03*
X0199000Y0034500D03*
X0243000Y0048000D02*
G75*
%LPD*%
D10*
X0237790Y0060840D02*
X0224210Y0060840D01*
X0237790Y0060840D02*
X0237790Y0053160D01*
X0224210Y0053160D01*
X0224210Y0060840D01*
X0235240Y0060840D02*
X0235240Y0053160D01*
X0232690Y0053160D02*
X0232690Y0060840D01*
X0230140Y0060840D02*
X0230140Y0053160D01*
X0227590Y0053160D02*
X0227590Y0060840D01*
X0225040Y0060840D02*
X0225040Y0053160D01*
X0224210Y0070160D02*
X0237790Y0070160D01*
X0224210Y0070160D02*
X0224210Y0077840D01*
X0237790Y0077840D01*
X0237790Y0070160D01*
X0235240Y0070160D02*
X0235240Y0077840D01*
X0232690Y0077840D02*
X0232690Y0070160D01*
X0230140Y0070160D02*
X0230140Y0077840D01*
X0227590Y0077840D02*
X0227590Y0070160D01*
X0225040Y0070160D02*
X0225040Y0077840D01*
D12*
X0237000Y0054000D03*
X0233000Y0054000D03*
X0229000Y0054000D03*
X0225000Y0054000D03*
X0225000Y0059500D03*
X0237000Y0059500D03*
X0237000Y0071500D03*
X0237000Y0077000D03*
X0233000Y0077000D03*
X0229000Y0077000D03*
X0225000Y0077000D03*
X0225000Y0071500D03*
X0191000Y0011000D02*
G75*
%LPD*%
D10*
X0185790Y0023840D02*
X0172210Y0023840D01*
X0185790Y0023840D02*
X0185790Y0016160D01*
X0172210Y0016160D01*
X0172210Y0023840D01*
X0183240Y0023840D02*
X0183240Y0016160D01*
X0180690Y0016160D02*
X0180690Y0023840D01*
X0178140Y0023840D02*
X0178140Y0016160D01*
X0175590Y0016160D02*
X0175590Y0023840D01*
X0173040Y0023840D02*
X0173040Y0016160D01*
X0172210Y0033160D02*
X0185790Y0033160D01*
X0172210Y0033160D02*
X0172210Y0040840D01*
X0185790Y0040840D01*
X0185790Y0033160D01*
X0183240Y0033160D02*
X0183240Y0040840D01*
X0180690Y0040840D02*
X0180690Y0033160D01*
X0178140Y0033160D02*
X0178140Y0040840D01*
X0175590Y0040840D02*
X0175590Y0033160D01*
X0173040Y0033160D02*
X0173040Y0040840D01*
D12*
X0185000Y0017000D03*
X0181000Y0017000D03*
X0177000Y0017000D03*
X0173000Y0017000D03*
X0173000Y0022500D03*
X0185000Y0022500D03*
X0185000Y0034500D03*
X0185000Y0040000D03*
X0181000Y0040000D03*
X0177000Y0040000D03*
X0173000Y0040000D03*
X0173000Y0034500D03*
X0217000Y0048000D02*
G75*
%LPD*%
D10*
X0211790Y0060840D02*
X0198210Y0060840D01*
X0211790Y0060840D02*
X0211790Y0053160D01*
X0198210Y0053160D01*
X0198210Y0060840D01*
X0209240Y0060840D02*
X0209240Y0053160D01*
X0206690Y0053160D02*
X0206690Y0060840D01*
X0204140Y0060840D02*
X0204140Y0053160D01*
X0201590Y0053160D02*
X0201590Y0060840D01*
X0199040Y0060840D02*
X0199040Y0053160D01*
X0198210Y0070160D02*
X0211790Y0070160D01*
X0198210Y0070160D02*
X0198210Y0077840D01*
X0211790Y0077840D01*
X0211790Y0070160D01*
X0209240Y0070160D02*
X0209240Y0077840D01*
X0206690Y0077840D02*
X0206690Y0070160D01*
X0204140Y0070160D02*
X0204140Y0077840D01*
X0201590Y0077840D02*
X0201590Y0070160D01*
X0199040Y0070160D02*
X0199040Y0077840D01*
D12*
X0211000Y0054000D03*
X0207000Y0054000D03*
X0203000Y0054000D03*
X0199000Y0054000D03*
X0199000Y0059500D03*
X0211000Y0059500D03*
X0211000Y0071500D03*
X0211000Y0077000D03*
X0207000Y0077000D03*
X0203000Y0077000D03*
X0199000Y0077000D03*
X0199000Y0071500D03*
X0191000Y0048000D02*
G75*
%LPD*%
D10*
X0185790Y0060840D02*
X0172210Y0060840D01*
X0185790Y0060840D02*
X0185790Y0053160D01*
X0172210Y0053160D01*
X0172210Y0060840D01*
X0183240Y0060840D02*
X0183240Y0053160D01*
X0180690Y0053160D02*
X0180690Y0060840D01*
X0178140Y0060840D02*
X0178140Y0053160D01*
X0175590Y0053160D02*
X0175590Y0060840D01*
X0173040Y0060840D02*
X0173040Y0053160D01*
X0172210Y0070160D02*
X0185790Y0070160D01*
X0172210Y0070160D02*
X0172210Y0077840D01*
X0185790Y0077840D01*
X0185790Y0070160D01*
X0183240Y0070160D02*
X0183240Y0077840D01*
X0180690Y0077840D02*
X0180690Y0070160D01*
X0178140Y0070160D02*
X0178140Y0077840D01*
X0175590Y0077840D02*
X0175590Y0070160D01*
X0173040Y0070160D02*
X0173040Y0077840D01*
D12*
X0185000Y0054000D03*
X0181000Y0054000D03*
X0177000Y0054000D03*
X0173000Y0054000D03*
X0173000Y0059500D03*
X0185000Y0059500D03*
X0185000Y0071500D03*
X0185000Y0077000D03*
X0181000Y0077000D03*
X0177000Y0077000D03*
X0173000Y0077000D03*
X0173000Y0071500D03*
X0165000Y0011000D02*
G75*
%LPD*%
D10*
X0159790Y0023840D02*
X0146210Y0023840D01*
X0159790Y0023840D02*
X0159790Y0016160D01*
X0146210Y0016160D01*
X0146210Y0023840D01*
X0157240Y0023840D02*
X0157240Y0016160D01*
X0154690Y0016160D02*
X0154690Y0023840D01*
X0152140Y0023840D02*
X0152140Y0016160D01*
X0149590Y0016160D02*
X0149590Y0023840D01*
X0147040Y0023840D02*
X0147040Y0016160D01*
X0146210Y0033160D02*
X0159790Y0033160D01*
X0146210Y0033160D02*
X0146210Y0040840D01*
X0159790Y0040840D01*
X0159790Y0033160D01*
X0157240Y0033160D02*
X0157240Y0040840D01*
X0154690Y0040840D02*
X0154690Y0033160D01*
X0152140Y0033160D02*
X0152140Y0040840D01*
X0149590Y0040840D02*
X0149590Y0033160D01*
X0147040Y0033160D02*
X0147040Y0040840D01*
D12*
X0159000Y0017000D03*
X0155000Y0017000D03*
X0151000Y0017000D03*
X0147000Y0017000D03*
X0147000Y0022500D03*
X0159000Y0022500D03*
X0159000Y0034500D03*
X0159000Y0040000D03*
X0155000Y0040000D03*
X0151000Y0040000D03*
X0147000Y0040000D03*
X0147000Y0034500D03*
X0165000Y0048000D02*
G75*
%LPD*%
D10*
X0159790Y0060840D02*
X0146210Y0060840D01*
X0159790Y0060840D02*
X0159790Y0053160D01*
X0146210Y0053160D01*
X0146210Y0060840D01*
X0157240Y0060840D02*
X0157240Y0053160D01*
X0154690Y0053160D02*
X0154690Y0060840D01*
X0152140Y0060840D02*
X0152140Y0053160D01*
X0149590Y0053160D02*
X0149590Y0060840D01*
X0147040Y0060840D02*
X0147040Y0053160D01*
X0146210Y0070160D02*
X0159790Y0070160D01*
X0146210Y0070160D02*
X0146210Y0077840D01*
X0159790Y0077840D01*
X0159790Y0070160D01*
X0157240Y0070160D02*
X0157240Y0077840D01*
X0154690Y0077840D02*
X0154690Y0070160D01*
X0152140Y0070160D02*
X0152140Y0077840D01*
X0149590Y0077840D02*
X0149590Y0070160D01*
X0147040Y0070160D02*
X0147040Y0077840D01*
D12*
X0159000Y0054000D03*
X0155000Y0054000D03*
X0151000Y0054000D03*
X0147000Y0054000D03*
X0147000Y0059500D03*
X0159000Y0059500D03*
X0159000Y0071500D03*
X0159000Y0077000D03*
X0155000Y0077000D03*
X0151000Y0077000D03*
X0147000Y0077000D03*
X0147000Y0071500D03*
X0141000Y0085000D02*
G75*
%LPD*%
X0269000Y0085000D02*
G75*
%LPD*%
D10*
X0263790Y0097840D02*
X0250210Y0097840D01*
X0263790Y0097840D02*
X0263790Y0090160D01*
X0250210Y0090160D01*
X0250210Y0097840D01*
X0261240Y0097840D02*
X0261240Y0090160D01*
X0258690Y0090160D02*
X0258690Y0097840D01*
X0256140Y0097840D02*
X0256140Y0090160D01*
X0253590Y0090160D02*
X0253590Y0097840D01*
X0251040Y0097840D02*
X0251040Y0090160D01*
X0250210Y0107160D02*
X0263790Y0107160D01*
X0250210Y0107160D02*
X0250210Y0114840D01*
X0263790Y0114840D01*
X0263790Y0107160D01*
X0261240Y0107160D02*
X0261240Y0114840D01*
X0258690Y0114840D02*
X0258690Y0107160D01*
X0256140Y0107160D02*
X0256140Y0114840D01*
X0253590Y0114840D02*
X0253590Y0107160D01*
X0251040Y0107160D02*
X0251040Y0114840D01*
D12*
X0263000Y0091000D03*
X0259000Y0091000D03*
X0255000Y0091000D03*
X0251000Y0091000D03*
X0251000Y0096500D03*
X0263000Y0096500D03*
X0263000Y0108500D03*
X0263000Y0114000D03*
X0259000Y0114000D03*
X0255000Y0114000D03*
X0251000Y0114000D03*
X0251000Y0108500D03*
X0243000Y0085000D02*
G75*
%LPD*%
D10*
X0237790Y0097840D02*
X0224210Y0097840D01*
X0237790Y0097840D02*
X0237790Y0090160D01*
X0224210Y0090160D01*
X0224210Y0097840D01*
X0235240Y0097840D02*
X0235240Y0090160D01*
X0232690Y0090160D02*
X0232690Y0097840D01*
X0230140Y0097840D02*
X0230140Y0090160D01*
X0227590Y0090160D02*
X0227590Y0097840D01*
X0225040Y0097840D02*
X0225040Y0090160D01*
X0224210Y0107160D02*
X0237790Y0107160D01*
X0224210Y0107160D02*
X0224210Y0114840D01*
X0237790Y0114840D01*
X0237790Y0107160D01*
X0235240Y0107160D02*
X0235240Y0114840D01*
X0232690Y0114840D02*
X0232690Y0107160D01*
X0230140Y0107160D02*
X0230140Y0114840D01*
X0227590Y0114840D02*
X0227590Y0107160D01*
X0225040Y0107160D02*
X0225040Y0114840D01*
D12*
X0237000Y0091000D03*
X0233000Y0091000D03*
X0229000Y0091000D03*
X0225000Y0091000D03*
X0225000Y0096500D03*
X0237000Y0096500D03*
X0237000Y0108500D03*
X0237000Y0114000D03*
X0233000Y0114000D03*
X0229000Y0114000D03*
X0225000Y0114000D03*
X0225000Y0108500D03*
X0269000Y0122000D02*
G75*
%LPD*%
D10*
X0263790Y0134840D02*
X0250210Y0134840D01*
X0263790Y0134840D02*
X0263790Y0127160D01*
X0250210Y0127160D01*
X0250210Y0134840D01*
X0261240Y0134840D02*
X0261240Y0127160D01*
X0258690Y0127160D02*
X0258690Y0134840D01*
X0256140Y0134840D02*
X0256140Y0127160D01*
X0253590Y0127160D02*
X0253590Y0134840D01*
X0251040Y0134840D02*
X0251040Y0127160D01*
X0250210Y0144160D02*
X0263790Y0144160D01*
X0250210Y0144160D02*
X0250210Y0151840D01*
X0263790Y0151840D01*
X0263790Y0144160D01*
X0261240Y0144160D02*
X0261240Y0151840D01*
X0258690Y0151840D02*
X0258690Y0144160D01*
X0256140Y0144160D02*
X0256140Y0151840D01*
X0253590Y0151840D02*
X0253590Y0144160D01*
X0251040Y0144160D02*
X0251040Y0151840D01*
D12*
X0263000Y0128000D03*
X0259000Y0128000D03*
X0255000Y0128000D03*
X0251000Y0128000D03*
X0251000Y0133500D03*
X0263000Y0133500D03*
X0263000Y0145500D03*
X0263000Y0151000D03*
X0259000Y0151000D03*
X0255000Y0151000D03*
X0251000Y0151000D03*
X0251000Y0145500D03*
X0217000Y0085000D02*
G75*
%LPD*%
D10*
X0211790Y0097840D02*
X0198210Y0097840D01*
X0211790Y0097840D02*
X0211790Y0090160D01*
X0198210Y0090160D01*
X0198210Y0097840D01*
X0209240Y0097840D02*
X0209240Y0090160D01*
X0206690Y0090160D02*
X0206690Y0097840D01*
X0204140Y0097840D02*
X0204140Y0090160D01*
X0201590Y0090160D02*
X0201590Y0097840D01*
X0199040Y0097840D02*
X0199040Y0090160D01*
X0198210Y0107160D02*
X0211790Y0107160D01*
X0198210Y0107160D02*
X0198210Y0114840D01*
X0211790Y0114840D01*
X0211790Y0107160D01*
X0209240Y0107160D02*
X0209240Y0114840D01*
X0206690Y0114840D02*
X0206690Y0107160D01*
X0204140Y0107160D02*
X0204140Y0114840D01*
X0201590Y0114840D02*
X0201590Y0107160D01*
X0199040Y0107160D02*
X0199040Y0114840D01*
D12*
X0211000Y0091000D03*
X0207000Y0091000D03*
X0203000Y0091000D03*
X0199000Y0091000D03*
X0199000Y0096500D03*
X0211000Y0096500D03*
X0211000Y0108500D03*
X0211000Y0114000D03*
X0207000Y0114000D03*
X0203000Y0114000D03*
X0199000Y0114000D03*
X0199000Y0108500D03*
X0243000Y0122000D02*
G75*
%LPD*%
D10*
X0237790Y0134840D02*
X0224210Y0134840D01*
X0237790Y0134840D02*
X0237790Y0127160D01*
X0224210Y0127160D01*
X0224210Y0134840D01*
X0235240Y0134840D02*
X0235240Y0127160D01*
X0232690Y0127160D02*
X0232690Y0134840D01*
X0230140Y0134840D02*
X0230140Y0127160D01*
X0227590Y0127160D02*
X0227590Y0134840D01*
X0225040Y0134840D02*
X0225040Y0127160D01*
X0224210Y0144160D02*
X0237790Y0144160D01*
X0224210Y0144160D02*
X0224210Y0151840D01*
X0237790Y0151840D01*
X0237790Y0144160D01*
X0235240Y0144160D02*
X0235240Y0151840D01*
X0232690Y0151840D02*
X0232690Y0144160D01*
X0230140Y0144160D02*
X0230140Y0151840D01*
X0227590Y0151840D02*
X0227590Y0144160D01*
X0225040Y0144160D02*
X0225040Y0151840D01*
D12*
X0237000Y0128000D03*
X0233000Y0128000D03*
X0229000Y0128000D03*
X0225000Y0128000D03*
X0225000Y0133500D03*
X0237000Y0133500D03*
X0237000Y0145500D03*
X0237000Y0151000D03*
X0233000Y0151000D03*
X0229000Y0151000D03*
X0225000Y0151000D03*
X0225000Y0145500D03*
X0191000Y0085000D02*
G75*
%LPD*%
D10*
X0185790Y0097840D02*
X0172210Y0097840D01*
X0185790Y0097840D02*
X0185790Y0090160D01*
X0172210Y0090160D01*
X0172210Y0097840D01*
X0183240Y0097840D02*
X0183240Y0090160D01*
X0180690Y0090160D02*
X0180690Y0097840D01*
X0178140Y0097840D02*
X0178140Y0090160D01*
X0175590Y0090160D02*
X0175590Y0097840D01*
X0173040Y0097840D02*
X0173040Y0090160D01*
X0172210Y0107160D02*
X0185790Y0107160D01*
X0172210Y0107160D02*
X0172210Y0114840D01*
X0185790Y0114840D01*
X0185790Y0107160D01*
X0183240Y0107160D02*
X0183240Y0114840D01*
X0180690Y0114840D02*
X0180690Y0107160D01*
X0178140Y0107160D02*
X0178140Y0114840D01*
X0175590Y0114840D02*
X0175590Y0107160D01*
X0173040Y0107160D02*
X0173040Y0114840D01*
D12*
X0185000Y0091000D03*
X0181000Y0091000D03*
X0177000Y0091000D03*
X0173000Y0091000D03*
X0173000Y0096500D03*
X0185000Y0096500D03*
X0185000Y0108500D03*
X0185000Y0114000D03*
X0181000Y0114000D03*
X0177000Y0114000D03*
X0173000Y0114000D03*
X0173000Y0108500D03*
X0217000Y0122000D02*
G75*
%LPD*%
D10*
X0211790Y0134840D02*
X0198210Y0134840D01*
X0211790Y0134840D02*
X0211790Y0127160D01*
X0198210Y0127160D01*
X0198210Y0134840D01*
X0209240Y0134840D02*
X0209240Y0127160D01*
X0206690Y0127160D02*
X0206690Y0134840D01*
X0204140Y0134840D02*
X0204140Y0127160D01*
X0201590Y0127160D02*
X0201590Y0134840D01*
X0199040Y0134840D02*
X0199040Y0127160D01*
X0198210Y0144160D02*
X0211790Y0144160D01*
X0198210Y0144160D02*
X0198210Y0151840D01*
X0211790Y0151840D01*
X0211790Y0144160D01*
X0209240Y0144160D02*
X0209240Y0151840D01*
X0206690Y0151840D02*
X0206690Y0144160D01*
X0204140Y0144160D02*
X0204140Y0151840D01*
X0201590Y0151840D02*
X0201590Y0144160D01*
X0199040Y0144160D02*
X0199040Y0151840D01*
D12*
X0211000Y0128000D03*
X0207000Y0128000D03*
X0203000Y0128000D03*
X0199000Y0128000D03*
X0199000Y0133500D03*
X0211000Y0133500D03*
X0211000Y0145500D03*
X0211000Y0151000D03*
X0207000Y0151000D03*
X0203000Y0151000D03*
X0199000Y0151000D03*
X0199000Y0145500D03*
X0191000Y0122000D02*
G75*
%LPD*%
D10*
X0185790Y0134840D02*
X0172210Y0134840D01*
X0185790Y0134840D02*
X0185790Y0127160D01*
X0172210Y0127160D01*
X0172210Y0134840D01*
X0183240Y0134840D02*
X0183240Y0127160D01*
X0180690Y0127160D02*
X0180690Y0134840D01*
X0178140Y0134840D02*
X0178140Y0127160D01*
X0175590Y0127160D02*
X0175590Y0134840D01*
X0173040Y0134840D02*
X0173040Y0127160D01*
X0172210Y0144160D02*
X0185790Y0144160D01*
X0172210Y0144160D02*
X0172210Y0151840D01*
X0185790Y0151840D01*
X0185790Y0144160D01*
X0183240Y0144160D02*
X0183240Y0151840D01*
X0180690Y0151840D02*
X0180690Y0144160D01*
X0178140Y0144160D02*
X0178140Y0151840D01*
X0175590Y0151840D02*
X0175590Y0144160D01*
X0173040Y0144160D02*
X0173040Y0151840D01*
D12*
X0185000Y0128000D03*
X0181000Y0128000D03*
X0177000Y0128000D03*
X0173000Y0128000D03*
X0173000Y0133500D03*
X0185000Y0133500D03*
X0185000Y0145500D03*
X0185000Y0151000D03*
X0181000Y0151000D03*
X0177000Y0151000D03*
X0173000Y0151000D03*
X0173000Y0145500D03*
X0165000Y0085000D02*
G75*
%LPD*%
D10*
X0159790Y0097840D02*
X0146210Y0097840D01*
X0159790Y0097840D02*
X0159790Y0090160D01*
X0146210Y0090160D01*
X0146210Y0097840D01*
X0157240Y0097840D02*
X0157240Y0090160D01*
X0154690Y0090160D02*
X0154690Y0097840D01*
X0152140Y0097840D02*
X0152140Y0090160D01*
X0149590Y0090160D02*
X0149590Y0097840D01*
X0147040Y0097840D02*
X0147040Y0090160D01*
X0146210Y0107160D02*
X0159790Y0107160D01*
X0146210Y0107160D02*
X0146210Y0114840D01*
X0159790Y0114840D01*
X0159790Y0107160D01*
X0157240Y0107160D02*
X0157240Y0114840D01*
X0154690Y0114840D02*
X0154690Y0107160D01*
X0152140Y0107160D02*
X0152140Y0114840D01*
X0149590Y0114840D02*
X0149590Y0107160D01*
X0147040Y0107160D02*
X0147040Y0114840D01*
D12*
X0159000Y0091000D03*
X0155000Y0091000D03*
X0151000Y0091000D03*
X0147000Y0091000D03*
X0147000Y0096500D03*
X0159000Y0096500D03*
X0159000Y0108500D03*
X0159000Y0114000D03*
X0155000Y0114000D03*
X0151000Y0114000D03*
X0147000Y0114000D03*
X0147000Y0108500D03*
X0165000Y0122000D02*
G75*
%LPD*%
D10*
X0159790Y0134840D02*
X0146210Y0134840D01*
X0159790Y0134840D02*
X0159790Y0127160D01*
X0146210Y0127160D01*
X0146210Y0134840D01*
X0157240Y0134840D02*
X0157240Y0127160D01*
X0154690Y0127160D02*
X0154690Y0134840D01*
X0152140Y0134840D02*
X0152140Y0127160D01*
X0149590Y0127160D02*
X0149590Y0134840D01*
X0147040Y0134840D02*
X0147040Y0127160D01*
X0146210Y0144160D02*
X0159790Y0144160D01*
X0146210Y0144160D02*
X0146210Y0151840D01*
X0159790Y0151840D01*
X0159790Y0144160D01*
X0157240Y0144160D02*
X0157240Y0151840D01*
X0154690Y0151840D02*
X0154690Y0144160D01*
X0152140Y0144160D02*
X0152140Y0151840D01*
X0149590Y0151840D02*
X0149590Y0144160D01*
X0147040Y0144160D02*
X0147040Y0151840D01*
D12*
X0159000Y0128000D03*
X0155000Y0128000D03*
X0151000Y0128000D03*
X0147000Y0128000D03*
X0147000Y0133500D03*
X0159000Y0133500D03*
X0159000Y0145500D03*
X0159000Y0151000D03*
X0155000Y0151000D03*
X0151000Y0151000D03*
X0147000Y0151000D03*
X0147000Y0145500D03*
X0011000Y0159000D02*
G75*
%LPD*%
X0139000Y0159000D02*
G75*
%LPD*%
D10*
X0133790Y0171840D02*
X0120210Y0171840D01*
X0133790Y0171840D02*
X0133790Y0164160D01*
X0120210Y0164160D01*
X0120210Y0171840D01*
X0131240Y0171840D02*
X0131240Y0164160D01*
X0128690Y0164160D02*
X0128690Y0171840D01*
X0126140Y0171840D02*
X0126140Y0164160D01*
X0123590Y0164160D02*
X0123590Y0171840D01*
X0121040Y0171840D02*
X0121040Y0164160D01*
X0120210Y0181160D02*
X0133790Y0181160D01*
X0120210Y0181160D02*
X0120210Y0188840D01*
X0133790Y0188840D01*
X0133790Y0181160D01*
X0131240Y0181160D02*
X0131240Y0188840D01*
X0128690Y0188840D02*
X0128690Y0181160D01*
X0126140Y0181160D02*
X0126140Y0188840D01*
X0123590Y0188840D02*
X0123590Y0181160D01*
X0121040Y0181160D02*
X0121040Y0188840D01*
D12*
X0133000Y0165000D03*
X0129000Y0165000D03*
X0125000Y0165000D03*
X0121000Y0165000D03*
X0121000Y0170500D03*
X0133000Y0170500D03*
X0133000Y0182500D03*
X0133000Y0188000D03*
X0129000Y0188000D03*
X0125000Y0188000D03*
X0121000Y0188000D03*
X0121000Y0182500D03*
X0113000Y0159000D02*
G75*
%LPD*%
D10*
X0107790Y0171840D02*
X0094210Y0171840D01*
X0107790Y0171840D02*
X0107790Y0164160D01*
X0094210Y0164160D01*
X0094210Y0171840D01*
X0105240Y0171840D02*
X0105240Y0164160D01*
X0102690Y0164160D02*
X0102690Y0171840D01*
X0100140Y0171840D02*
X0100140Y0164160D01*
X0097590Y0164160D02*
X0097590Y0171840D01*
X0095040Y0171840D02*
X0095040Y0164160D01*
X0094210Y0181160D02*
X0107790Y0181160D01*
X0094210Y0181160D02*
X0094210Y0188840D01*
X0107790Y0188840D01*
X0107790Y0181160D01*
X0105240Y0181160D02*
X0105240Y0188840D01*
X0102690Y0188840D02*
X0102690Y0181160D01*
X0100140Y0181160D02*
X0100140Y0188840D01*
X0097590Y0188840D02*
X0097590Y0181160D01*
X0095040Y0181160D02*
X0095040Y0188840D01*
D12*
X0107000Y0165000D03*
X0103000Y0165000D03*
X0099000Y0165000D03*
X0095000Y0165000D03*
X0095000Y0170500D03*
X0107000Y0170500D03*
X0107000Y0182500D03*
X0107000Y0188000D03*
X0103000Y0188000D03*
X0099000Y0188000D03*
X0095000Y0188000D03*
X0095000Y0182500D03*
X0139000Y0196000D02*
G75*
%LPD*%
D10*
X0133790Y0208840D02*
X0120210Y0208840D01*
X0133790Y0208840D02*
X0133790Y0201160D01*
X0120210Y0201160D01*
X0120210Y0208840D01*
X0131240Y0208840D02*
X0131240Y0201160D01*
X0128690Y0201160D02*
X0128690Y0208840D01*
X0126140Y0208840D02*
X0126140Y0201160D01*
X0123590Y0201160D02*
X0123590Y0208840D01*
X0121040Y0208840D02*
X0121040Y0201160D01*
X0120210Y0218160D02*
X0133790Y0218160D01*
X0120210Y0218160D02*
X0120210Y0225840D01*
X0133790Y0225840D01*
X0133790Y0218160D01*
X0131240Y0218160D02*
X0131240Y0225840D01*
X0128690Y0225840D02*
X0128690Y0218160D01*
X0126140Y0218160D02*
X0126140Y0225840D01*
X0123590Y0225840D02*
X0123590Y0218160D01*
X0121040Y0218160D02*
X0121040Y0225840D01*
D12*
X0133000Y0202000D03*
X0129000Y0202000D03*
X0125000Y0202000D03*
X0121000Y0202000D03*
X0121000Y0207500D03*
X0133000Y0207500D03*
X0133000Y0219500D03*
X0133000Y0225000D03*
X0129000Y0225000D03*
X0125000Y0225000D03*
X0121000Y0225000D03*
X0121000Y0219500D03*
X0087000Y0159000D02*
G75*
%LPD*%
D10*
X0081790Y0171840D02*
X0068210Y0171840D01*
X0081790Y0171840D02*
X0081790Y0164160D01*
X0068210Y0164160D01*
X0068210Y0171840D01*
X0079240Y0171840D02*
X0079240Y0164160D01*
X0076690Y0164160D02*
X0076690Y0171840D01*
X0074140Y0171840D02*
X0074140Y0164160D01*
X0071590Y0164160D02*
X0071590Y0171840D01*
X0069040Y0171840D02*
X0069040Y0164160D01*
X0068210Y0181160D02*
X0081790Y0181160D01*
X0068210Y0181160D02*
X0068210Y0188840D01*
X0081790Y0188840D01*
X0081790Y0181160D01*
X0079240Y0181160D02*
X0079240Y0188840D01*
X0076690Y0188840D02*
X0076690Y0181160D01*
X0074140Y0181160D02*
X0074140Y0188840D01*
X0071590Y0188840D02*
X0071590Y0181160D01*
X0069040Y0181160D02*
X0069040Y0188840D01*
D12*
X0081000Y0165000D03*
X0077000Y0165000D03*
X0073000Y0165000D03*
X0069000Y0165000D03*
X0069000Y0170500D03*
X0081000Y0170500D03*
X0081000Y0182500D03*
X0081000Y0188000D03*
X0077000Y0188000D03*
X0073000Y0188000D03*
X0069000Y0188000D03*
X0069000Y0182500D03*
X0113000Y0196000D02*
G75*
%LPD*%
D10*
X0107790Y0208840D02*
X0094210Y0208840D01*
X0107790Y0208840D02*
X0107790Y0201160D01*
X0094210Y0201160D01*
X0094210Y0208840D01*
X0105240Y0208840D02*
X0105240Y0201160D01*
X0102690Y0201160D02*
X0102690Y0208840D01*
X0100140Y0208840D02*
X0100140Y0201160D01*
X0097590Y0201160D02*
X0097590Y0208840D01*
X0095040Y0208840D02*
X0095040Y0201160D01*
X0094210Y0218160D02*
X0107790Y0218160D01*
X0094210Y0218160D02*
X0094210Y0225840D01*
X0107790Y0225840D01*
X0107790Y0218160D01*
X0105240Y0218160D02*
X0105240Y0225840D01*
X0102690Y0225840D02*
X0102690Y0218160D01*
X0100140Y0218160D02*
X0100140Y0225840D01*
X0097590Y0225840D02*
X0097590Y0218160D01*
X0095040Y0218160D02*
X0095040Y0225840D01*
D12*
X0107000Y0202000D03*
X0103000Y0202000D03*
X0099000Y0202000D03*
X0095000Y0202000D03*
X0095000Y0207500D03*
X0107000Y0207500D03*
X0107000Y0219500D03*
X0107000Y0225000D03*
X0103000Y0225000D03*
X0099000Y0225000D03*
X0095000Y0225000D03*
X0095000Y0219500D03*
X0061000Y0159000D02*
G75*
%LPD*%
D10*
X0055790Y0171840D02*
X0042210Y0171840D01*
X0055790Y0171840D02*
X0055790Y0164160D01*
X0042210Y0164160D01*
X0042210Y0171840D01*
X0053240Y0171840D02*
X0053240Y0164160D01*
X0050690Y0164160D02*
X0050690Y0171840D01*
X0048140Y0171840D02*
X0048140Y0164160D01*
X0045590Y0164160D02*
X0045590Y0171840D01*
X0043040Y0171840D02*
X0043040Y0164160D01*
X0042210Y0181160D02*
X0055790Y0181160D01*
X0042210Y0181160D02*
X0042210Y0188840D01*
X0055790Y0188840D01*
X0055790Y0181160D01*
X0053240Y0181160D02*
X0053240Y0188840D01*
X0050690Y0188840D02*
X0050690Y0181160D01*
X0048140Y0181160D02*
X0048140Y0188840D01*
X0045590Y0188840D02*
X0045590Y0181160D01*
X0043040Y0181160D02*
X0043040Y0188840D01*
D12*
X0055000Y0165000D03*
X0051000Y0165000D03*
X0047000Y0165000D03*
X0043000Y0165000D03*
X0043000Y0170500D03*
X0055000Y0170500D03*
X0055000Y0182500D03*
X0055000Y0188000D03*
X0051000Y0188000D03*
X0047000Y0188000D03*
X0043000Y0188000D03*
X0043000Y0182500D03*
X0087000Y0196000D02*
G75*
%LPD*%
D10*
X0081790Y0208840D02*
X0068210Y0208840D01*
X0081790Y0208840D02*
X0081790Y0201160D01*
X0068210Y0201160D01*
X0068210Y0208840D01*
X0079240Y0208840D02*
X0079240Y0201160D01*
X0076690Y0201160D02*
X0076690Y0208840D01*
X0074140Y0208840D02*
X0074140Y0201160D01*
X0071590Y0201160D02*
X0071590Y0208840D01*
X0069040Y0208840D02*
X0069040Y0201160D01*
X0068210Y0218160D02*
X0081790Y0218160D01*
X0068210Y0218160D02*
X0068210Y0225840D01*
X0081790Y0225840D01*
X0081790Y0218160D01*
X0079240Y0218160D02*
X0079240Y0225840D01*
X0076690Y0225840D02*
X0076690Y0218160D01*
X0074140Y0218160D02*
X0074140Y0225840D01*
X0071590Y0225840D02*
X0071590Y0218160D01*
X0069040Y0218160D02*
X0069040Y0225840D01*
D12*
X0081000Y0202000D03*
X0077000Y0202000D03*
X0073000Y0202000D03*
X0069000Y0202000D03*
X0069000Y0207500D03*
X0081000Y0207500D03*
X0081000Y0219500D03*
X0081000Y0225000D03*
X0077000Y0225000D03*
X0073000Y0225000D03*
X0069000Y0225000D03*
X0069000Y0219500D03*
X0061000Y0196000D02*
G75*
%LPD*%
D10*
X0055790Y0208840D02*
X0042210Y0208840D01*
X0055790Y0208840D02*
X0055790Y0201160D01*
X0042210Y0201160D01*
X0042210Y0208840D01*
X0053240Y0208840D02*
X0053240Y0201160D01*
X0050690Y0201160D02*
X0050690Y0208840D01*
X0048140Y0208840D02*
X0048140Y0201160D01*
X0045590Y0201160D02*
X0045590Y0208840D01*
X0043040Y0208840D02*
X0043040Y0201160D01*
X0042210Y0218160D02*
X0055790Y0218160D01*
X0042210Y0218160D02*
X0042210Y0225840D01*
X0055790Y0225840D01*
X0055790Y0218160D01*
X0053240Y0218160D02*
X0053240Y0225840D01*
X0050690Y0225840D02*
X0050690Y0218160D01*
X0048140Y0218160D02*
X0048140Y0225840D01*
X0045590Y0225840D02*
X0045590Y0218160D01*
X0043040Y0218160D02*
X0043040Y0225840D01*
D12*
X0055000Y0202000D03*
X0051000Y0202000D03*
X0047000Y0202000D03*
X0043000Y0202000D03*
X0043000Y0207500D03*
X0055000Y0207500D03*
X0055000Y0219500D03*
X0055000Y0225000D03*
X0051000Y0225000D03*
X0047000Y0225000D03*
X0043000Y0225000D03*
X0043000Y0219500D03*
X0035000Y0159000D02*
G75*
%LPD*%
D10*
X0029790Y0171840D02*
X0016210Y0171840D01*
X0029790Y0171840D02*
X0029790Y0164160D01*
X0016210Y0164160D01*
X0016210Y0171840D01*
X0027240Y0171840D02*
X0027240Y0164160D01*
X0024690Y0164160D02*
X0024690Y0171840D01*
X0022140Y0171840D02*
X0022140Y0164160D01*
X0019590Y0164160D02*
X0019590Y0171840D01*
X0017040Y0171840D02*
X0017040Y0164160D01*
X0016210Y0181160D02*
X0029790Y0181160D01*
X0016210Y0181160D02*
X0016210Y0188840D01*
X0029790Y0188840D01*
X0029790Y0181160D01*
X0027240Y0181160D02*
X0027240Y0188840D01*
X0024690Y0188840D02*
X0024690Y0181160D01*
X0022140Y0181160D02*
X0022140Y0188840D01*
X0019590Y0188840D02*
X0019590Y0181160D01*
X0017040Y0181160D02*
X0017040Y0188840D01*
D12*
X0029000Y0165000D03*
X0025000Y0165000D03*
X0021000Y0165000D03*
X0017000Y0165000D03*
X0017000Y0170500D03*
X0029000Y0170500D03*
X0029000Y0182500D03*
X0029000Y0188000D03*
X0025000Y0188000D03*
X0021000Y0188000D03*
X0017000Y0188000D03*
X0017000Y0182500D03*
X0035000Y0196000D02*
G75*
%LPD*%
D10*
X0029790Y0208840D02*
X0016210Y0208840D01*
X0029790Y0208840D02*
X0029790Y0201160D01*
X0016210Y0201160D01*
X0016210Y0208840D01*
X0027240Y0208840D02*
X0027240Y0201160D01*
X0024690Y0201160D02*
X0024690Y0208840D01*
X0022140Y0208840D02*
X0022140Y0201160D01*
X0019590Y0201160D02*
X0019590Y0208840D01*
X0017040Y0208840D02*
X0017040Y0201160D01*
X0016210Y0218160D02*
X0029790Y0218160D01*
X0016210Y0218160D02*
X0016210Y0225840D01*
X0029790Y0225840D01*
X0029790Y0218160D01*
X0027240Y0218160D02*
X0027240Y0225840D01*
X0024690Y0225840D02*
X0024690Y0218160D01*
X0022140Y0218160D02*
X0022140Y0225840D01*
X0019590Y0225840D02*
X0019590Y0218160D01*
X0017040Y0218160D02*
X0017040Y0225840D01*
D12*
X0029000Y0202000D03*
X0025000Y0202000D03*
X0021000Y0202000D03*
X0017000Y0202000D03*
X0017000Y0207500D03*
X0029000Y0207500D03*
X0029000Y0219500D03*
X0029000Y0225000D03*
X0025000Y0225000D03*
X0021000Y0225000D03*
X0017000Y0225000D03*
X0017000Y0219500D03*
X0141000Y0159000D02*
G75*
%LPD*%
X0269000Y0159000D02*
G75*
%LPD*%
D10*
X0263790Y0171840D02*
X0250210Y0171840D01*
X0263790Y0171840D02*
X0263790Y0164160D01*
X0250210Y0164160D01*
X0250210Y0171840D01*
X0261240Y0171840D02*
X0261240Y0164160D01*
X0258690Y0164160D02*
X0258690Y0171840D01*
X0256140Y0171840D02*
X0256140Y0164160D01*
X0253590Y0164160D02*
X0253590Y0171840D01*
X0251040Y0171840D02*
X0251040Y0164160D01*
X0250210Y0181160D02*
X0263790Y0181160D01*
X0250210Y0181160D02*
X0250210Y0188840D01*
X0263790Y0188840D01*
X0263790Y0181160D01*
X0261240Y0181160D02*
X0261240Y0188840D01*
X0258690Y0188840D02*
X0258690Y0181160D01*
X0256140Y0181160D02*
X0256140Y0188840D01*
X0253590Y0188840D02*
X0253590Y0181160D01*
X0251040Y0181160D02*
X0251040Y0188840D01*
D12*
X0263000Y0165000D03*
X0259000Y0165000D03*
X0255000Y0165000D03*
X0251000Y0165000D03*
X0251000Y0170500D03*
X0263000Y0170500D03*
X0263000Y0182500D03*
X0263000Y0188000D03*
X0259000Y0188000D03*
X0255000Y0188000D03*
X0251000Y0188000D03*
X0251000Y0182500D03*
X0243000Y0159000D02*
G75*
%LPD*%
D10*
X0237790Y0171840D02*
X0224210Y0171840D01*
X0237790Y0171840D02*
X0237790Y0164160D01*
X0224210Y0164160D01*
X0224210Y0171840D01*
X0235240Y0171840D02*
X0235240Y0164160D01*
X0232690Y0164160D02*
X0232690Y0171840D01*
X0230140Y0171840D02*
X0230140Y0164160D01*
X0227590Y0164160D02*
X0227590Y0171840D01*
X0225040Y0171840D02*
X0225040Y0164160D01*
X0224210Y0181160D02*
X0237790Y0181160D01*
X0224210Y0181160D02*
X0224210Y0188840D01*
X0237790Y0188840D01*
X0237790Y0181160D01*
X0235240Y0181160D02*
X0235240Y0188840D01*
X0232690Y0188840D02*
X0232690Y0181160D01*
X0230140Y0181160D02*
X0230140Y0188840D01*
X0227590Y0188840D02*
X0227590Y0181160D01*
X0225040Y0181160D02*
X0225040Y0188840D01*
D12*
X0237000Y0165000D03*
X0233000Y0165000D03*
X0229000Y0165000D03*
X0225000Y0165000D03*
X0225000Y0170500D03*
X0237000Y0170500D03*
X0237000Y0182500D03*
X0237000Y0188000D03*
X0233000Y0188000D03*
X0229000Y0188000D03*
X0225000Y0188000D03*
X0225000Y0182500D03*
X0269000Y0196000D02*
G75*
%LPD*%
D10*
X0263790Y0208840D02*
X0250210Y0208840D01*
X0263790Y0208840D02*
X0263790Y0201160D01*
X0250210Y0201160D01*
X0250210Y0208840D01*
X0261240Y0208840D02*
X0261240Y0201160D01*
X0258690Y0201160D02*
X0258690Y0208840D01*
X0256140Y0208840D02*
X0256140Y0201160D01*
X0253590Y0201160D02*
X0253590Y0208840D01*
X0251040Y0208840D02*
X0251040Y0201160D01*
X0250210Y0218160D02*
X0263790Y0218160D01*
X0250210Y0218160D02*
X0250210Y0225840D01*
X0263790Y0225840D01*
X0263790Y0218160D01*
X0261240Y0218160D02*
X0261240Y0225840D01*
X0258690Y0225840D02*
X0258690Y0218160D01*
X0256140Y0218160D02*
X0256140Y0225840D01*
X0253590Y0225840D02*
X0253590Y0218160D01*
X0251040Y0218160D02*
X0251040Y0225840D01*
D12*
X0263000Y0202000D03*
X0259000Y0202000D03*
X0255000Y0202000D03*
X0251000Y0202000D03*
X0251000Y0207500D03*
X0263000Y0207500D03*
X0263000Y0219500D03*
X0263000Y0225000D03*
X0259000Y0225000D03*
X0255000Y0225000D03*
X0251000Y0225000D03*
X0251000Y0219500D03*
X0217000Y0159000D02*
G75*
%LPD*%
D10*
X0211790Y0171840D02*
X0198210Y0171840D01*
X0211790Y0171840D02*
X0211790Y0164160D01*
X0198210Y0164160D01*
X0198210Y0171840D01*
X0209240Y0171840D02*
X0209240Y0164160D01*
X0206690Y0164160D02*
X0206690Y0171840D01*
X0204140Y0171840D02*
X0204140Y0164160D01*
X0201590Y0164160D02*
X0201590Y0171840D01*
X0199040Y0171840D02*
X0199040Y0164160D01*
X0198210Y0181160D02*
X0211790Y0181160D01*
X0198210Y0181160D02*
X0198210Y0188840D01*
X0211790Y0188840D01*
X0211790Y0181160D01*
X0209240Y0181160D02*
X0209240Y0188840D01*
X0206690Y0188840D02*
X0206690Y0181160D01*
X0204140Y0181160D02*
X0204140Y0188840D01*
X0201590Y0188840D02*
X0201590Y0181160D01*
X0199040Y0181160D02*
X0199040Y0188840D01*
D12*
X0211000Y0165000D03*
X0207000Y0165000D03*
X0203000Y0165000D03*
X0199000Y0165000D03*
X0199000Y0170500D03*
X0211000Y0170500D03*
X0211000Y0182500D03*
X0211000Y0188000D03*
X0207000Y0188000D03*
X0203000Y0188000D03*
X0199000Y0188000D03*
X0199000Y0182500D03*
X0243000Y0196000D02*
G75*
%LPD*%
D10*
X0237790Y0208840D02*
X0224210Y0208840D01*
X0237790Y0208840D02*
X0237790Y0201160D01*
X0224210Y0201160D01*
X0224210Y0208840D01*
X0235240Y0208840D02*
X0235240Y0201160D01*
X0232690Y0201160D02*
X0232690Y0208840D01*
X0230140Y0208840D02*
X0230140Y0201160D01*
X0227590Y0201160D02*
X0227590Y0208840D01*
X0225040Y0208840D02*
X0225040Y0201160D01*
X0224210Y0218160D02*
X0237790Y0218160D01*
X0224210Y0218160D02*
X0224210Y0225840D01*
X0237790Y0225840D01*
X0237790Y0218160D01*
X0235240Y0218160D02*
X0235240Y0225840D01*
X0232690Y0225840D02*
X0232690Y0218160D01*
X0230140Y0218160D02*
X0230140Y0225840D01*
X0227590Y0225840D02*
X0227590Y0218160D01*
X0225040Y0218160D02*
X0225040Y0225840D01*
D12*
X0237000Y0202000D03*
X0233000Y0202000D03*
X0229000Y0202000D03*
X0225000Y0202000D03*
X0225000Y0207500D03*
X0237000Y0207500D03*
X0237000Y0219500D03*
X0237000Y0225000D03*
X0233000Y0225000D03*
X0229000Y0225000D03*
X0225000Y0225000D03*
X0225000Y0219500D03*
X0191000Y0159000D02*
G75*
%LPD*%
D10*
X0185790Y0171840D02*
X0172210Y0171840D01*
X0185790Y0171840D02*
X0185790Y0164160D01*
X0172210Y0164160D01*
X0172210Y0171840D01*
X0183240Y0171840D02*
X0183240Y0164160D01*
X0180690Y0164160D02*
X0180690Y0171840D01*
X0178140Y0171840D02*
X0178140Y0164160D01*
X0175590Y0164160D02*
X0175590Y0171840D01*
X0173040Y0171840D02*
X0173040Y0164160D01*
X0172210Y0181160D02*
X0185790Y0181160D01*
X0172210Y0181160D02*
X0172210Y0188840D01*
X0185790Y0188840D01*
X0185790Y0181160D01*
X0183240Y0181160D02*
X0183240Y0188840D01*
X0180690Y0188840D02*
X0180690Y0181160D01*
X0178140Y0181160D02*
X0178140Y0188840D01*
X0175590Y0188840D02*
X0175590Y0181160D01*
X0173040Y0181160D02*
X0173040Y0188840D01*
D12*
X0185000Y0165000D03*
X0181000Y0165000D03*
X0177000Y0165000D03*
X0173000Y0165000D03*
X0173000Y0170500D03*
X0185000Y0170500D03*
X0185000Y0182500D03*
X0185000Y0188000D03*
X0181000Y0188000D03*
X0177000Y0188000D03*
X0173000Y0188000D03*
X0173000Y0182500D03*
X0217000Y0196000D02*
G75*
%LPD*%
D10*
X0211790Y0208840D02*
X0198210Y0208840D01*
X0211790Y0208840D02*
X0211790Y0201160D01*
X0198210Y0201160D01*
X0198210Y0208840D01*
X0209240Y0208840D02*
X0209240Y0201160D01*
X0206690Y0201160D02*
X0206690Y0208840D01*
X0204140Y0208840D02*
X0204140Y0201160D01*
X0201590Y0201160D02*
X0201590Y0208840D01*
X0199040Y0208840D02*
X0199040Y0201160D01*
X0198210Y0218160D02*
X0211790Y0218160D01*
X0198210Y0218160D02*
X0198210Y0225840D01*
X0211790Y0225840D01*
X0211790Y0218160D01*
X0209240Y0218160D02*
X0209240Y0225840D01*
X0206690Y0225840D02*
X0206690Y0218160D01*
X0204140Y0218160D02*
X0204140Y0225840D01*
X0201590Y0225840D02*
X0201590Y0218160D01*
X0199040Y0218160D02*
X0199040Y0225840D01*
D12*
X0211000Y0202000D03*
X0207000Y0202000D03*
X0203000Y0202000D03*
X0199000Y0202000D03*
X0199000Y0207500D03*
X0211000Y0207500D03*
X0211000Y0219500D03*
X0211000Y0225000D03*
X0207000Y0225000D03*
X0203000Y0225000D03*
X0199000Y0225000D03*
X0199000Y0219500D03*
X0191000Y0196000D02*
G75*
%LPD*%
D10*
X0185790Y0208840D02*
X0172210Y0208840D01*
X0185790Y0208840D02*
X0185790Y0201160D01*
X0172210Y0201160D01*
X0172210Y0208840D01*
X0183240Y0208840D02*
X0183240Y0201160D01*
X0180690Y0201160D02*
X0180690Y0208840D01*
X0178140Y0208840D02*
X0178140Y0201160D01*
X0175590Y0201160D02*
X0175590Y0208840D01*
X0173040Y0208840D02*
X0173040Y0201160D01*
X0172210Y0218160D02*
X0185790Y0218160D01*
X0172210Y0218160D02*
X0172210Y0225840D01*
X0185790Y0225840D01*
X0185790Y0218160D01*
X0183240Y0218160D02*
X0183240Y0225840D01*
X0180690Y0225840D02*
X0180690Y0218160D01*
X0178140Y0218160D02*
X0178140Y0225840D01*
X0175590Y0225840D02*
X0175590Y0218160D01*
X0173040Y0218160D02*
X0173040Y0225840D01*
D12*
X0185000Y0202000D03*
X0181000Y0202000D03*
X0177000Y0202000D03*
X0173000Y0202000D03*
X0173000Y0207500D03*
X0185000Y0207500D03*
X0185000Y0219500D03*
X0185000Y0225000D03*
X0181000Y0225000D03*
X0177000Y0225000D03*
X0173000Y0225000D03*
X0173000Y0219500D03*
X0165000Y0159000D02*
G75*
%LPD*%
D10*
X0159790Y0171840D02*
X0146210Y0171840D01*
X0159790Y0171840D02*
X0159790Y0164160D01*
X0146210Y0164160D01*
X0146210Y0171840D01*
X0157240Y0171840D02*
X0157240Y0164160D01*
X0154690Y0164160D02*
X0154690Y0171840D01*
X0152140Y0171840D02*
X0152140Y0164160D01*
X0149590Y0164160D02*
X0149590Y0171840D01*
X0147040Y0171840D02*
X0147040Y0164160D01*
X0146210Y0181160D02*
X0159790Y0181160D01*
X0146210Y0181160D02*
X0146210Y0188840D01*
X0159790Y0188840D01*
X0159790Y0181160D01*
X0157240Y0181160D02*
X0157240Y0188840D01*
X0154690Y0188840D02*
X0154690Y0181160D01*
X0152140Y0181160D02*
X0152140Y0188840D01*
X0149590Y0188840D02*
X0149590Y0181160D01*
X0147040Y0181160D02*
X0147040Y0188840D01*
D12*
X0159000Y0165000D03*
X0155000Y0165000D03*
X0151000Y0165000D03*
X0147000Y0165000D03*
X0147000Y0170500D03*
X0159000Y0170500D03*
X0159000Y0182500D03*
X0159000Y0188000D03*
X0155000Y0188000D03*
X0151000Y0188000D03*
X0147000Y0188000D03*
X0147000Y0182500D03*
X0165000Y0196000D02*
G75*
%LPD*%
D10*
X0159790Y0208840D02*
X0146210Y0208840D01*
X0159790Y0208840D02*
X0159790Y0201160D01*
X0146210Y0201160D01*
X0146210Y0208840D01*
X0157240Y0208840D02*
X0157240Y0201160D01*
X0154690Y0201160D02*
X0154690Y0208840D01*
X0152140Y0208840D02*
X0152140Y0201160D01*
X0149590Y0201160D02*
X0149590Y0208840D01*
X0147040Y0208840D02*
X0147040Y0201160D01*
X0146210Y0218160D02*
X0159790Y0218160D01*
X0146210Y0218160D02*
X0146210Y0225840D01*
X0159790Y0225840D01*
X0159790Y0218160D01*
X0157240Y0218160D02*
X0157240Y0225840D01*
X0154690Y0225840D02*
X0154690Y0218160D01*
X0152140Y0218160D02*
X0152140Y0225840D01*
X0149590Y0225840D02*
X0149590Y0218160D01*
X0147040Y0218160D02*
X0147040Y0225840D01*
D12*
X0159000Y0202000D03*
X0155000Y0202000D03*
X0151000Y0202000D03*
X0147000Y0202000D03*
X0147000Y0207500D03*
X0159000Y0207500D03*
X0159000Y0219500D03*
X0159000Y0225000D03*
X0155000Y0225000D03*
X0151000Y0225000D03*
X0147000Y0225000D03*
X0147000Y0219500D03*
X0011000Y0233000D02*
G75*
%LPD*%
X0139000Y0233000D02*
G75*
%LPD*%
D10*
X0133790Y0245840D02*
X0120210Y0245840D01*
X0133790Y0245840D02*
X0133790Y0238160D01*
X0120210Y0238160D01*
X0120210Y0245840D01*
X0131240Y0245840D02*
X0131240Y0238160D01*
X0128690Y0238160D02*
X0128690Y0245840D01*
X0126140Y0245840D02*
X0126140Y0238160D01*
X0123590Y0238160D02*
X0123590Y0245840D01*
X0121040Y0245840D02*
X0121040Y0238160D01*
X0120210Y0255160D02*
X0133790Y0255160D01*
X0120210Y0255160D02*
X0120210Y0262840D01*
X0133790Y0262840D01*
X0133790Y0255160D01*
X0131240Y0255160D02*
X0131240Y0262840D01*
X0128690Y0262840D02*
X0128690Y0255160D01*
X0126140Y0255160D02*
X0126140Y0262840D01*
X0123590Y0262840D02*
X0123590Y0255160D01*
X0121040Y0255160D02*
X0121040Y0262840D01*
D12*
X0133000Y0239000D03*
X0129000Y0239000D03*
X0125000Y0239000D03*
X0121000Y0239000D03*
X0121000Y0244500D03*
X0133000Y0244500D03*
X0133000Y0256500D03*
X0133000Y0262000D03*
X0129000Y0262000D03*
X0125000Y0262000D03*
X0121000Y0262000D03*
X0121000Y0256500D03*
X0113000Y0233000D02*
G75*
%LPD*%
D10*
X0107790Y0245840D02*
X0094210Y0245840D01*
X0107790Y0245840D02*
X0107790Y0238160D01*
X0094210Y0238160D01*
X0094210Y0245840D01*
X0105240Y0245840D02*
X0105240Y0238160D01*
X0102690Y0238160D02*
X0102690Y0245840D01*
X0100140Y0245840D02*
X0100140Y0238160D01*
X0097590Y0238160D02*
X0097590Y0245840D01*
X0095040Y0245840D02*
X0095040Y0238160D01*
X0094210Y0255160D02*
X0107790Y0255160D01*
X0094210Y0255160D02*
X0094210Y0262840D01*
X0107790Y0262840D01*
X0107790Y0255160D01*
X0105240Y0255160D02*
X0105240Y0262840D01*
X0102690Y0262840D02*
X0102690Y0255160D01*
X0100140Y0255160D02*
X0100140Y0262840D01*
X0097590Y0262840D02*
X0097590Y0255160D01*
X0095040Y0255160D02*
X0095040Y0262840D01*
D12*
X0107000Y0239000D03*
X0103000Y0239000D03*
X0099000Y0239000D03*
X0095000Y0239000D03*
X0095000Y0244500D03*
X0107000Y0244500D03*
X0107000Y0256500D03*
X0107000Y0262000D03*
X0103000Y0262000D03*
X0099000Y0262000D03*
X0095000Y0262000D03*
X0095000Y0256500D03*
X0139000Y0270000D02*
G75*
%LPD*%
D10*
X0133790Y0282840D02*
X0120210Y0282840D01*
X0133790Y0282840D02*
X0133790Y0275160D01*
X0120210Y0275160D01*
X0120210Y0282840D01*
X0131240Y0282840D02*
X0131240Y0275160D01*
X0128690Y0275160D02*
X0128690Y0282840D01*
X0126140Y0282840D02*
X0126140Y0275160D01*
X0123590Y0275160D02*
X0123590Y0282840D01*
X0121040Y0282840D02*
X0121040Y0275160D01*
X0120210Y0292160D02*
X0133790Y0292160D01*
X0120210Y0292160D02*
X0120210Y0299840D01*
X0133790Y0299840D01*
X0133790Y0292160D01*
X0131240Y0292160D02*
X0131240Y0299840D01*
X0128690Y0299840D02*
X0128690Y0292160D01*
X0126140Y0292160D02*
X0126140Y0299840D01*
X0123590Y0299840D02*
X0123590Y0292160D01*
X0121040Y0292160D02*
X0121040Y0299840D01*
D12*
X0133000Y0276000D03*
X0129000Y0276000D03*
X0125000Y0276000D03*
X0121000Y0276000D03*
X0121000Y0281500D03*
X0133000Y0281500D03*
X0133000Y0293500D03*
X0133000Y0299000D03*
X0129000Y0299000D03*
X0125000Y0299000D03*
X0121000Y0299000D03*
X0121000Y0293500D03*
X0087000Y0233000D02*
G75*
%LPD*%
D10*
X0081790Y0245840D02*
X0068210Y0245840D01*
X0081790Y0245840D02*
X0081790Y0238160D01*
X0068210Y0238160D01*
X0068210Y0245840D01*
X0079240Y0245840D02*
X0079240Y0238160D01*
X0076690Y0238160D02*
X0076690Y0245840D01*
X0074140Y0245840D02*
X0074140Y0238160D01*
X0071590Y0238160D02*
X0071590Y0245840D01*
X0069040Y0245840D02*
X0069040Y0238160D01*
X0068210Y0255160D02*
X0081790Y0255160D01*
X0068210Y0255160D02*
X0068210Y0262840D01*
X0081790Y0262840D01*
X0081790Y0255160D01*
X0079240Y0255160D02*
X0079240Y0262840D01*
X0076690Y0262840D02*
X0076690Y0255160D01*
X0074140Y0255160D02*
X0074140Y0262840D01*
X0071590Y0262840D02*
X0071590Y0255160D01*
X0069040Y0255160D02*
X0069040Y0262840D01*
D12*
X0081000Y0239000D03*
X0077000Y0239000D03*
X0073000Y0239000D03*
X0069000Y0239000D03*
X0069000Y0244500D03*
X0081000Y0244500D03*
X0081000Y0256500D03*
X0081000Y0262000D03*
X0077000Y0262000D03*
X0073000Y0262000D03*
X0069000Y0262000D03*
X0069000Y0256500D03*
X0113000Y0270000D02*
G75*
%LPD*%
D10*
X0107790Y0282840D02*
X0094210Y0282840D01*
X0107790Y0282840D02*
X0107790Y0275160D01*
X0094210Y0275160D01*
X0094210Y0282840D01*
X0105240Y0282840D02*
X0105240Y0275160D01*
X0102690Y0275160D02*
X0102690Y0282840D01*
X0100140Y0282840D02*
X0100140Y0275160D01*
X0097590Y0275160D02*
X0097590Y0282840D01*
X0095040Y0282840D02*
X0095040Y0275160D01*
X0094210Y0292160D02*
X0107790Y0292160D01*
X0094210Y0292160D02*
X0094210Y0299840D01*
X0107790Y0299840D01*
X0107790Y0292160D01*
X0105240Y0292160D02*
X0105240Y0299840D01*
X0102690Y0299840D02*
X0102690Y0292160D01*
X0100140Y0292160D02*
X0100140Y0299840D01*
X0097590Y0299840D02*
X0097590Y0292160D01*
X0095040Y0292160D02*
X0095040Y0299840D01*
D12*
X0107000Y0276000D03*
X0103000Y0276000D03*
X0099000Y0276000D03*
X0095000Y0276000D03*
X0095000Y0281500D03*
X0107000Y0281500D03*
X0107000Y0293500D03*
X0107000Y0299000D03*
X0103000Y0299000D03*
X0099000Y0299000D03*
X0095000Y0299000D03*
X0095000Y0293500D03*
X0061000Y0233000D02*
G75*
%LPD*%
D10*
X0055790Y0245840D02*
X0042210Y0245840D01*
X0055790Y0245840D02*
X0055790Y0238160D01*
X0042210Y0238160D01*
X0042210Y0245840D01*
X0053240Y0245840D02*
X0053240Y0238160D01*
X0050690Y0238160D02*
X0050690Y0245840D01*
X0048140Y0245840D02*
X0048140Y0238160D01*
X0045590Y0238160D02*
X0045590Y0245840D01*
X0043040Y0245840D02*
X0043040Y0238160D01*
X0042210Y0255160D02*
X0055790Y0255160D01*
X0042210Y0255160D02*
X0042210Y0262840D01*
X0055790Y0262840D01*
X0055790Y0255160D01*
X0053240Y0255160D02*
X0053240Y0262840D01*
X0050690Y0262840D02*
X0050690Y0255160D01*
X0048140Y0255160D02*
X0048140Y0262840D01*
X0045590Y0262840D02*
X0045590Y0255160D01*
X0043040Y0255160D02*
X0043040Y0262840D01*
D12*
X0055000Y0239000D03*
X0051000Y0239000D03*
X0047000Y0239000D03*
X0043000Y0239000D03*
X0043000Y0244500D03*
X0055000Y0244500D03*
X0055000Y0256500D03*
X0055000Y0262000D03*
X0051000Y0262000D03*
X0047000Y0262000D03*
X0043000Y0262000D03*
X0043000Y0256500D03*
X0087000Y0270000D02*
G75*
%LPD*%
D10*
X0081790Y0282840D02*
X0068210Y0282840D01*
X0081790Y0282840D02*
X0081790Y0275160D01*
X0068210Y0275160D01*
X0068210Y0282840D01*
X0079240Y0282840D02*
X0079240Y0275160D01*
X0076690Y0275160D02*
X0076690Y0282840D01*
X0074140Y0282840D02*
X0074140Y0275160D01*
X0071590Y0275160D02*
X0071590Y0282840D01*
X0069040Y0282840D02*
X0069040Y0275160D01*
X0068210Y0292160D02*
X0081790Y0292160D01*
X0068210Y0292160D02*
X0068210Y0299840D01*
X0081790Y0299840D01*
X0081790Y0292160D01*
X0079240Y0292160D02*
X0079240Y0299840D01*
X0076690Y0299840D02*
X0076690Y0292160D01*
X0074140Y0292160D02*
X0074140Y0299840D01*
X0071590Y0299840D02*
X0071590Y0292160D01*
X0069040Y0292160D02*
X0069040Y0299840D01*
D12*
X0081000Y0276000D03*
X0077000Y0276000D03*
X0073000Y0276000D03*
X0069000Y0276000D03*
X0069000Y0281500D03*
X0081000Y0281500D03*
X0081000Y0293500D03*
X0081000Y0299000D03*
X0077000Y0299000D03*
X0073000Y0299000D03*
X0069000Y0299000D03*
X0069000Y0293500D03*
X0061000Y0270000D02*
G75*
%LPD*%
D10*
X0055790Y0282840D02*
X0042210Y0282840D01*
X0055790Y0282840D02*
X0055790Y0275160D01*
X0042210Y0275160D01*
X0042210Y0282840D01*
X0053240Y0282840D02*
X0053240Y0275160D01*
X0050690Y0275160D02*
X0050690Y0282840D01*
X0048140Y0282840D02*
X0048140Y0275160D01*
X0045590Y0275160D02*
X0045590Y0282840D01*
X0043040Y0282840D02*
X0043040Y0275160D01*
X0042210Y0292160D02*
X0055790Y0292160D01*
X0042210Y0292160D02*
X0042210Y0299840D01*
X0055790Y0299840D01*
X0055790Y0292160D01*
X0053240Y0292160D02*
X0053240Y0299840D01*
X0050690Y0299840D02*
X0050690Y0292160D01*
X0048140Y0292160D02*
X0048140Y0299840D01*
X0045590Y0299840D02*
X0045590Y0292160D01*
X0043040Y0292160D02*
X0043040Y0299840D01*
D12*
X0055000Y0276000D03*
X0051000Y0276000D03*
X0047000Y0276000D03*
X0043000Y0276000D03*
X0043000Y0281500D03*
X0055000Y0281500D03*
X0055000Y0293500D03*
X0055000Y0299000D03*
X0051000Y0299000D03*
X0047000Y0299000D03*
X0043000Y0299000D03*
X0043000Y0293500D03*
X0035000Y0233000D02*
G75*
%LPD*%
D10*
X0029790Y0245840D02*
X0016210Y0245840D01*
X0029790Y0245840D02*
X0029790Y0238160D01*
X0016210Y0238160D01*
X0016210Y0245840D01*
X0027240Y0245840D02*
X0027240Y0238160D01*
X0024690Y0238160D02*
X0024690Y0245840D01*
X0022140Y0245840D02*
X0022140Y0238160D01*
X0019590Y0238160D02*
X0019590Y0245840D01*
X0017040Y0245840D02*
X0017040Y0238160D01*
X0016210Y0255160D02*
X0029790Y0255160D01*
X0016210Y0255160D02*
X0016210Y0262840D01*
X0029790Y0262840D01*
X0029790Y0255160D01*
X0027240Y0255160D02*
X0027240Y0262840D01*
X0024690Y0262840D02*
X0024690Y0255160D01*
X0022140Y0255160D02*
X0022140Y0262840D01*
X0019590Y0262840D02*
X0019590Y0255160D01*
X0017040Y0255160D02*
X0017040Y0262840D01*
D12*
X0029000Y0239000D03*
X0025000Y0239000D03*
X0021000Y0239000D03*
X0017000Y0239000D03*
X0017000Y0244500D03*
X0029000Y0244500D03*
X0029000Y0256500D03*
X0029000Y0262000D03*
X0025000Y0262000D03*
X0021000Y0262000D03*
X0017000Y0262000D03*
X0017000Y0256500D03*
X0035000Y0270000D02*
G75*
%LPD*%
D10*
X0029790Y0282840D02*
X0016210Y0282840D01*
X0029790Y0282840D02*
X0029790Y0275160D01*
X0016210Y0275160D01*
X0016210Y0282840D01*
X0027240Y0282840D02*
X0027240Y0275160D01*
X0024690Y0275160D02*
X0024690Y0282840D01*
X0022140Y0282840D02*
X0022140Y0275160D01*
X0019590Y0275160D02*
X0019590Y0282840D01*
X0017040Y0282840D02*
X0017040Y0275160D01*
X0016210Y0292160D02*
X0029790Y0292160D01*
X0016210Y0292160D02*
X0016210Y0299840D01*
X0029790Y0299840D01*
X0029790Y0292160D01*
X0027240Y0292160D02*
X0027240Y0299840D01*
X0024690Y0299840D02*
X0024690Y0292160D01*
X0022140Y0292160D02*
X0022140Y0299840D01*
X0019590Y0299840D02*
X0019590Y0292160D01*
X0017040Y0292160D02*
X0017040Y0299840D01*
D12*
X0029000Y0276000D03*
X0025000Y0276000D03*
X0021000Y0276000D03*
X0017000Y0276000D03*
X0017000Y0281500D03*
X0029000Y0281500D03*
X0029000Y0293500D03*
X0029000Y0299000D03*
X0025000Y0299000D03*
X0021000Y0299000D03*
X0017000Y0299000D03*
X0017000Y0293500D03*
X0141000Y0233000D02*
G75*
%LPD*%
X0269000Y0233000D02*
G75*
%LPD*%
D10*
X0263790Y0245840D02*
X0250210Y0245840D01*
X0263790Y0245840D02*
X0263790Y0238160D01*
X0250210Y0238160D01*
X0250210Y0245840D01*
X0261240Y0245840D02*
X0261240Y0238160D01*
X0258690Y0238160D02*
X0258690Y0245840D01*
X0256140Y0245840D02*
X0256140Y0238160D01*
X0253590Y0238160D02*
X0253590Y0245840D01*
X0251040Y0245840D02*
X0251040Y0238160D01*
X0250210Y0255160D02*
X0263790Y0255160D01*
X0250210Y0255160D02*
X0250210Y0262840D01*
X0263790Y0262840D01*
X0263790Y0255160D01*
X0261240Y0255160D02*
X0261240Y0262840D01*
X0258690Y0262840D02*
X0258690Y0255160D01*
X0256140Y0255160D02*
X0256140Y0262840D01*
X0253590Y0262840D02*
X0253590Y0255160D01*
X0251040Y0255160D02*
X0251040Y0262840D01*
D12*
X0263000Y0239000D03*
X0259000Y0239000D03*
X0255000Y0239000D03*
X0251000Y0239000D03*
X0251000Y0244500D03*
X0263000Y0244500D03*
X0263000Y0256500D03*
X0263000Y0262000D03*
X0259000Y0262000D03*
X0255000Y0262000D03*
X0251000Y0262000D03*
X0251000Y0256500D03*
X0243000Y0233000D02*
G75*
%LPD*%
D10*
X0237790Y0245840D02*
X0224210Y0245840D01*
X0237790Y0245840D02*
X0237790Y0238160D01*
X0224210Y0238160D01*
X0224210Y0245840D01*
X0235240Y0245840D02*
X0235240Y0238160D01*
X0232690Y0238160D02*
X0232690Y0245840D01*
X0230140Y0245840D02*
X0230140Y0238160D01*
X0227590Y0238160D02*
X0227590Y0245840D01*
X0225040Y0245840D02*
X0225040Y0238160D01*
X0224210Y0255160D02*
X0237790Y0255160D01*
X0224210Y0255160D02*
X0224210Y0262840D01*
X0237790Y0262840D01*
X0237790Y0255160D01*
X0235240Y0255160D02*
X0235240Y0262840D01*
X0232690Y0262840D02*
X0232690Y0255160D01*
X0230140Y0255160D02*
X0230140Y0262840D01*
X0227590Y0262840D02*
X0227590Y0255160D01*
X0225040Y0255160D02*
X0225040Y0262840D01*
D12*
X0237000Y0239000D03*
X0233000Y0239000D03*
X0229000Y0239000D03*
X0225000Y0239000D03*
X0225000Y0244500D03*
X0237000Y0244500D03*
X0237000Y0256500D03*
X0237000Y0262000D03*
X0233000Y0262000D03*
X0229000Y0262000D03*
X0225000Y0262000D03*
X0225000Y0256500D03*
X0269000Y0270000D02*
G75*
%LPD*%
D10*
X0263790Y0282840D02*
X0250210Y0282840D01*
X0263790Y0282840D02*
X0263790Y0275160D01*
X0250210Y0275160D01*
X0250210Y0282840D01*
X0261240Y0282840D02*
X0261240Y0275160D01*
X0258690Y0275160D02*
X0258690Y0282840D01*
X0256140Y0282840D02*
X0256140Y0275160D01*
X0253590Y0275160D02*
X0253590Y0282840D01*
X0251040Y0282840D02*
X0251040Y0275160D01*
X0250210Y0292160D02*
X0263790Y0292160D01*
X0250210Y0292160D02*
X0250210Y0299840D01*
X0263790Y0299840D01*
X0263790Y0292160D01*
X0261240Y0292160D02*
X0261240Y0299840D01*
X0258690Y0299840D02*
X0258690Y0292160D01*
X0256140Y0292160D02*
X0256140Y0299840D01*
X0253590Y0299840D02*
X0253590Y0292160D01*
X0251040Y0292160D02*
X0251040Y0299840D01*
D12*
X0263000Y0276000D03*
X0259000Y0276000D03*
X0255000Y0276000D03*
X0251000Y0276000D03*
X0251000Y0281500D03*
X0263000Y0281500D03*
X0263000Y0293500D03*
X0263000Y0299000D03*
X0259000Y0299000D03*
X0255000Y0299000D03*
X0251000Y0299000D03*
X0251000Y0293500D03*
X0217000Y0233000D02*
G75*
%LPD*%
D10*
X0211790Y0245840D02*
X0198210Y0245840D01*
X0211790Y0245840D02*
X0211790Y0238160D01*
X0198210Y0238160D01*
X0198210Y0245840D01*
X0209240Y0245840D02*
X0209240Y0238160D01*
X0206690Y0238160D02*
X0206690Y0245840D01*
X0204140Y0245840D02*
X0204140Y0238160D01*
X0201590Y0238160D02*
X0201590Y0245840D01*
X0199040Y0245840D02*
X0199040Y0238160D01*
X0198210Y0255160D02*
X0211790Y0255160D01*
X0198210Y0255160D02*
X0198210Y0262840D01*
X0211790Y0262840D01*
X0211790Y0255160D01*
X0209240Y0255160D02*
X0209240Y0262840D01*
X0206690Y0262840D02*
X0206690Y0255160D01*
X0204140Y0255160D02*
X0204140Y0262840D01*
X0201590Y0262840D02*
X0201590Y0255160D01*
X0199040Y0255160D02*
X0199040Y0262840D01*
D12*
X0211000Y0239000D03*
X0207000Y0239000D03*
X0203000Y0239000D03*
X0199000Y0239000D03*
X0199000Y0244500D03*
X0211000Y0244500D03*
X0211000Y0256500D03*
X0211000Y0262000D03*
X0207000Y0262000D03*
X0203000Y0262000D03*
X0199000Y0262000D03*
X0199000Y0256500D03*
X0243000Y0270000D02*
G75*
%LPD*%
D10*
X0237790Y0282840D02*
X0224210Y0282840D01*
X0237790Y0282840D02*
X0237790Y0275160D01*
X0224210Y0275160D01*
X0224210Y0282840D01*
X0235240Y0282840D02*
X0235240Y0275160D01*
X0232690Y0275160D02*
X0232690Y0282840D01*
X0230140Y0282840D02*
X0230140Y0275160D01*
X0227590Y0275160D02*
X0227590Y0282840D01*
X0225040Y0282840D02*
X0225040Y0275160D01*
X0224210Y0292160D02*
X0237790Y0292160D01*
X0224210Y0292160D02*
X0224210Y0299840D01*
X0237790Y0299840D01*
X0237790Y0292160D01*
X0235240Y0292160D02*
X0235240Y0299840D01*
X0232690Y0299840D02*
X0232690Y0292160D01*
X0230140Y0292160D02*
X0230140Y0299840D01*
X0227590Y0299840D02*
X0227590Y0292160D01*
X0225040Y0292160D02*
X0225040Y0299840D01*
D12*
X0237000Y0276000D03*
X0233000Y0276000D03*
X0229000Y0276000D03*
X0225000Y0276000D03*
X0225000Y0281500D03*
X0237000Y0281500D03*
X0237000Y0293500D03*
X0237000Y0299000D03*
X0233000Y0299000D03*
X0229000Y0299000D03*
X0225000Y0299000D03*
X0225000Y0293500D03*
X0191000Y0233000D02*
G75*
%LPD*%
D10*
X0185790Y0245840D02*
X0172210Y0245840D01*
X0185790Y0245840D02*
X0185790Y0238160D01*
X0172210Y0238160D01*
X0172210Y0245840D01*
X0183240Y0245840D02*
X0183240Y0238160D01*
X0180690Y0238160D02*
X0180690Y0245840D01*
X0178140Y0245840D02*
X0178140Y0238160D01*
X0175590Y0238160D02*
X0175590Y0245840D01*
X0173040Y0245840D02*
X0173040Y0238160D01*
X0172210Y0255160D02*
X0185790Y0255160D01*
X0172210Y0255160D02*
X0172210Y0262840D01*
X0185790Y0262840D01*
X0185790Y0255160D01*
X0183240Y0255160D02*
X0183240Y0262840D01*
X0180690Y0262840D02*
X0180690Y0255160D01*
X0178140Y0255160D02*
X0178140Y0262840D01*
X0175590Y0262840D02*
X0175590Y0255160D01*
X0173040Y0255160D02*
X0173040Y0262840D01*
D12*
X0185000Y0239000D03*
X0181000Y0239000D03*
X0177000Y0239000D03*
X0173000Y0239000D03*
X0173000Y0244500D03*
X0185000Y0244500D03*
X0185000Y0256500D03*
X0185000Y0262000D03*
X0181000Y0262000D03*
X0177000Y0262000D03*
X0173000Y0262000D03*
X0173000Y0256500D03*
X0217000Y0270000D02*
G75*
%LPD*%
D10*
X0211790Y0282840D02*
X0198210Y0282840D01*
X0211790Y0282840D02*
X0211790Y0275160D01*
X0198210Y0275160D01*
X0198210Y0282840D01*
X0209240Y0282840D02*
X0209240Y0275160D01*
X0206690Y0275160D02*
X0206690Y0282840D01*
X0204140Y0282840D02*
X0204140Y0275160D01*
X0201590Y0275160D02*
X0201590Y0282840D01*
X0199040Y0282840D02*
X0199040Y0275160D01*
X0198210Y0292160D02*
X0211790Y0292160D01*
X0198210Y0292160D02*
X0198210Y0299840D01*
X0211790Y0299840D01*
X0211790Y0292160D01*
X0209240Y0292160D02*
X0209240Y0299840D01*
X0206690Y0299840D02*
X0206690Y0292160D01*
X0204140Y0292160D02*
X0204140Y0299840D01*
X0201590Y0299840D02*
X0201590Y0292160D01*
X0199040Y0292160D02*
X0199040Y0299840D01*
D12*
X0211000Y0276000D03*
X0207000Y0276000D03*
X0203000Y0276000D03*
X0199000Y0276000D03*
X0199000Y0281500D03*
X0211000Y0281500D03*
X0211000Y0293500D03*
X0211000Y0299000D03*
X0207000Y0299000D03*
X0203000Y0299000D03*
X0199000Y0299000D03*
X0199000Y0293500D03*
X0191000Y0270000D02*
G75*
%LPD*%
D10*
X0185790Y0282840D02*
X0172210Y0282840D01*
X0185790Y0282840D02*
X0185790Y0275160D01*
X0172210Y0275160D01*
X0172210Y0282840D01*
X0183240Y0282840D02*
X0183240Y0275160D01*
X0180690Y0275160D02*
X0180690Y0282840D01*
X0178140Y0282840D02*
X0178140Y0275160D01*
X0175590Y0275160D02*
X0175590Y0282840D01*
X0173040Y0282840D02*
X0173040Y0275160D01*
X0172210Y0292160D02*
X0185790Y0292160D01*
X0172210Y0292160D02*
X0172210Y0299840D01*
X0185790Y0299840D01*
X0185790Y0292160D01*
X0183240Y0292160D02*
X0183240Y0299840D01*
X0180690Y0299840D02*
X0180690Y0292160D01*
X0178140Y0292160D02*
X0178140Y0299840D01*
X0175590Y0299840D02*
X0175590Y0292160D01*
X0173040Y0292160D02*
X0173040Y0299840D01*
D12*
X0185000Y0276000D03*
X0181000Y0276000D03*
X0177000Y0276000D03*
X0173000Y0276000D03*
X0173000Y0281500D03*
X0185000Y0281500D03*
X0185000Y0293500D03*
X0185000Y0299000D03*
X0181000Y0299000D03*
X0177000Y0299000D03*
X0173000Y0299000D03*
X0173000Y0293500D03*
X0165000Y0233000D02*
G75*
%LPD*%
D10*
X0159790Y0245840D02*
X0146210Y0245840D01*
X0159790Y0245840D02*
X0159790Y0238160D01*
X0146210Y0238160D01*
X0146210Y0245840D01*
X0157240Y0245840D02*
X0157240Y0238160D01*
X0154690Y0238160D02*
X0154690Y0245840D01*
X0152140Y0245840D02*
X0152140Y0238160D01*
X0149590Y0238160D02*
X0149590Y0245840D01*
X0147040Y0245840D02*
X0147040Y0238160D01*
X0146210Y0255160D02*
X0159790Y0255160D01*
X0146210Y0255160D02*
X0146210Y0262840D01*
X0159790Y0262840D01*
X0159790Y0255160D01*
X0157240Y0255160D02*
X0157240Y0262840D01*
X0154690Y0262840D02*
X0154690Y0255160D01*
X0152140Y0255160D02*
X0152140Y0262840D01*
X0149590Y0262840D02*
X0149590Y0255160D01*
X0147040Y0255160D02*
X0147040Y0262840D01*
D12*
X0159000Y0239000D03*
X0155000Y0239000D03*
X0151000Y0239000D03*
X0147000Y0239000D03*
X0147000Y0244500D03*
X0159000Y0244500D03*
X0159000Y0256500D03*
X0159000Y0262000D03*
X0155000Y0262000D03*
X0151000Y0262000D03*
X0147000Y0262000D03*
X0147000Y0256500D03*
X0165000Y0270000D02*
G75*
%LPD*%
D10*
X0159790Y0282840D02*
X0146210Y0282840D01*
X0159790Y0282840D02*
X0159790Y0275160D01*
X0146210Y0275160D01*
X0146210Y0282840D01*
X0157240Y0282840D02*
X0157240Y0275160D01*
X0154690Y0275160D02*
X0154690Y0282840D01*
X0152140Y0282840D02*
X0152140Y0275160D01*
X0149590Y0275160D02*
X0149590Y0282840D01*
X0147040Y0282840D02*
X0147040Y0275160D01*
X0146210Y0292160D02*
X0159790Y0292160D01*
X0146210Y0292160D02*
X0146210Y0299840D01*
X0159790Y0299840D01*
X0159790Y0292160D01*
X0157240Y0292160D02*
X0157240Y0299840D01*
X0154690Y0299840D02*
X0154690Y0292160D01*
X0152140Y0292160D02*
X0152140Y0299840D01*
X0149590Y0299840D02*
X0149590Y0292160D01*
X0147040Y0292160D02*
X0147040Y0299840D01*
D12*
X0159000Y0276000D03*
X0155000Y0276000D03*
X0151000Y0276000D03*
X0147000Y0276000D03*
X0147000Y0281500D03*
X0159000Y0281500D03*
X0159000Y0293500D03*
X0159000Y0299000D03*
X0155000Y0299000D03*
X0151000Y0299000D03*
X0147000Y0299000D03*
X0147000Y0293500D03*
X0011000Y0307000D02*
G75*
%LPD*%
X0139000Y0307000D02*
G75*
%LPD*%
D10*
X0133790Y0319840D02*
X0120210Y0319840D01*
X0133790Y0319840D02*
X0133790Y0312160D01*
X0120210Y0312160D01*
X0120210Y0319840D01*
X0131240Y0319840D02*
X0131240Y0312160D01*
X0128690Y0312160D02*
X0128690Y0319840D01*
X0126140Y0319840D02*
X0126140Y0312160D01*
X0123590Y0312160D02*
X0123590Y0319840D01*
X0121040Y0319840D02*
X0121040Y0312160D01*
X0120210Y0329160D02*
X0133790Y0329160D01*
X0120210Y0329160D02*
X0120210Y0336840D01*
X0133790Y0336840D01*
X0133790Y0329160D01*
X0131240Y0329160D02*
X0131240Y0336840D01*
X0128690Y0336840D02*
X0128690Y0329160D01*
X0126140Y0329160D02*
X0126140Y0336840D01*
X0123590Y0336840D02*
X0123590Y0329160D01*
X0121040Y0329160D02*
X0121040Y0336840D01*
D12*
X0133000Y0313000D03*
X0129000Y0313000D03*
X0125000Y0313000D03*
X0121000Y0313000D03*
X0121000Y0318500D03*
X0133000Y0318500D03*
X0133000Y0330500D03*
X0133000Y0336000D03*
X0129000Y0336000D03*
X0125000Y0336000D03*
X0121000Y0336000D03*
X0121000Y0330500D03*
X0113000Y0307000D02*
G75*
%LPD*%
D10*
X0107790Y0319840D02*
X0094210Y0319840D01*
X0107790Y0319840D02*
X0107790Y0312160D01*
X0094210Y0312160D01*
X0094210Y0319840D01*
X0105240Y0319840D02*
X0105240Y0312160D01*
X0102690Y0312160D02*
X0102690Y0319840D01*
X0100140Y0319840D02*
X0100140Y0312160D01*
X0097590Y0312160D02*
X0097590Y0319840D01*
X0095040Y0319840D02*
X0095040Y0312160D01*
X0094210Y0329160D02*
X0107790Y0329160D01*
X0094210Y0329160D02*
X0094210Y0336840D01*
X0107790Y0336840D01*
X0107790Y0329160D01*
X0105240Y0329160D02*
X0105240Y0336840D01*
X0102690Y0336840D02*
X0102690Y0329160D01*
X0100140Y0329160D02*
X0100140Y0336840D01*
X0097590Y0336840D02*
X0097590Y0329160D01*
X0095040Y0329160D02*
X0095040Y0336840D01*
D12*
X0107000Y0313000D03*
X0103000Y0313000D03*
X0099000Y0313000D03*
X0095000Y0313000D03*
X0095000Y0318500D03*
X0107000Y0318500D03*
X0107000Y0330500D03*
X0107000Y0336000D03*
X0103000Y0336000D03*
X0099000Y0336000D03*
X0095000Y0336000D03*
X0095000Y0330500D03*
X0139000Y0344000D02*
G75*
%LPD*%
D10*
X0133790Y0356840D02*
X0120210Y0356840D01*
X0133790Y0356840D02*
X0133790Y0349160D01*
X0120210Y0349160D01*
X0120210Y0356840D01*
X0131240Y0356840D02*
X0131240Y0349160D01*
X0128690Y0349160D02*
X0128690Y0356840D01*
X0126140Y0356840D02*
X0126140Y0349160D01*
X0123590Y0349160D02*
X0123590Y0356840D01*
X0121040Y0356840D02*
X0121040Y0349160D01*
X0120210Y0366160D02*
X0133790Y0366160D01*
X0120210Y0366160D02*
X0120210Y0373840D01*
X0133790Y0373840D01*
X0133790Y0366160D01*
X0131240Y0366160D02*
X0131240Y0373840D01*
X0128690Y0373840D02*
X0128690Y0366160D01*
X0126140Y0366160D02*
X0126140Y0373840D01*
X0123590Y0373840D02*
X0123590Y0366160D01*
X0121040Y0366160D02*
X0121040Y0373840D01*
D12*
X0133000Y0350000D03*
X0129000Y0350000D03*
X0125000Y0350000D03*
X0121000Y0350000D03*
X0121000Y0355500D03*
X0133000Y0355500D03*
X0133000Y0367500D03*
X0133000Y0373000D03*
X0129000Y0373000D03*
X0125000Y0373000D03*
X0121000Y0373000D03*
X0121000Y0367500D03*
X0087000Y0307000D02*
G75*
%LPD*%
D10*
X0081790Y0319840D02*
X0068210Y0319840D01*
X0081790Y0319840D02*
X0081790Y0312160D01*
X0068210Y0312160D01*
X0068210Y0319840D01*
X0079240Y0319840D02*
X0079240Y0312160D01*
X0076690Y0312160D02*
X0076690Y0319840D01*
X0074140Y0319840D02*
X0074140Y0312160D01*
X0071590Y0312160D02*
X0071590Y0319840D01*
X0069040Y0319840D02*
X0069040Y0312160D01*
X0068210Y0329160D02*
X0081790Y0329160D01*
X0068210Y0329160D02*
X0068210Y0336840D01*
X0081790Y0336840D01*
X0081790Y0329160D01*
X0079240Y0329160D02*
X0079240Y0336840D01*
X0076690Y0336840D02*
X0076690Y0329160D01*
X0074140Y0329160D02*
X0074140Y0336840D01*
X0071590Y0336840D02*
X0071590Y0329160D01*
X0069040Y0329160D02*
X0069040Y0336840D01*
D12*
X0081000Y0313000D03*
X0077000Y0313000D03*
X0073000Y0313000D03*
X0069000Y0313000D03*
X0069000Y0318500D03*
X0081000Y0318500D03*
X0081000Y0330500D03*
X0081000Y0336000D03*
X0077000Y0336000D03*
X0073000Y0336000D03*
X0069000Y0336000D03*
X0069000Y0330500D03*
X0113000Y0344000D02*
G75*
%LPD*%
D10*
X0107790Y0356840D02*
X0094210Y0356840D01*
X0107790Y0356840D02*
X0107790Y0349160D01*
X0094210Y0349160D01*
X0094210Y0356840D01*
X0105240Y0356840D02*
X0105240Y0349160D01*
X0102690Y0349160D02*
X0102690Y0356840D01*
X0100140Y0356840D02*
X0100140Y0349160D01*
X0097590Y0349160D02*
X0097590Y0356840D01*
X0095040Y0356840D02*
X0095040Y0349160D01*
X0094210Y0366160D02*
X0107790Y0366160D01*
X0094210Y0366160D02*
X0094210Y0373840D01*
X0107790Y0373840D01*
X0107790Y0366160D01*
X0105240Y0366160D02*
X0105240Y0373840D01*
X0102690Y0373840D02*
X0102690Y0366160D01*
X0100140Y0366160D02*
X0100140Y0373840D01*
X0097590Y0373840D02*
X0097590Y0366160D01*
X0095040Y0366160D02*
X0095040Y0373840D01*
D12*
X0107000Y0350000D03*
X0103000Y0350000D03*
X0099000Y0350000D03*
X0095000Y0350000D03*
X0095000Y0355500D03*
X0107000Y0355500D03*
X0107000Y0367500D03*
X0107000Y0373000D03*
X0103000Y0373000D03*
X0099000Y0373000D03*
X0095000Y0373000D03*
X0095000Y0367500D03*
X0061000Y0307000D02*
G75*
%LPD*%
D10*
X0055790Y0319840D02*
X0042210Y0319840D01*
X0055790Y0319840D02*
X0055790Y0312160D01*
X0042210Y0312160D01*
X0042210Y0319840D01*
X0053240Y0319840D02*
X0053240Y0312160D01*
X0050690Y0312160D02*
X0050690Y0319840D01*
X0048140Y0319840D02*
X0048140Y0312160D01*
X0045590Y0312160D02*
X0045590Y0319840D01*
X0043040Y0319840D02*
X0043040Y0312160D01*
X0042210Y0329160D02*
X0055790Y0329160D01*
X0042210Y0329160D02*
X0042210Y0336840D01*
X0055790Y0336840D01*
X0055790Y0329160D01*
X0053240Y0329160D02*
X0053240Y0336840D01*
X0050690Y0336840D02*
X0050690Y0329160D01*
X0048140Y0329160D02*
X0048140Y0336840D01*
X0045590Y0336840D02*
X0045590Y0329160D01*
X0043040Y0329160D02*
X0043040Y0336840D01*
D12*
X0055000Y0313000D03*
X0051000Y0313000D03*
X0047000Y0313000D03*
X0043000Y0313000D03*
X0043000Y0318500D03*
X0055000Y0318500D03*
X0055000Y0330500D03*
X0055000Y0336000D03*
X0051000Y0336000D03*
X0047000Y0336000D03*
X0043000Y0336000D03*
X0043000Y0330500D03*
X0087000Y0344000D02*
G75*
%LPD*%
D10*
X0081790Y0356840D02*
X0068210Y0356840D01*
X0081790Y0356840D02*
X0081790Y0349160D01*
X0068210Y0349160D01*
X0068210Y0356840D01*
X0079240Y0356840D02*
X0079240Y0349160D01*
X0076690Y0349160D02*
X0076690Y0356840D01*
X0074140Y0356840D02*
X0074140Y0349160D01*
X0071590Y0349160D02*
X0071590Y0356840D01*
X0069040Y0356840D02*
X0069040Y0349160D01*
X0068210Y0366160D02*
X0081790Y0366160D01*
X0068210Y0366160D02*
X0068210Y0373840D01*
X0081790Y0373840D01*
X0081790Y0366160D01*
X0079240Y0366160D02*
X0079240Y0373840D01*
X0076690Y0373840D02*
X0076690Y0366160D01*
X0074140Y0366160D02*
X0074140Y0373840D01*
X0071590Y0373840D02*
X0071590Y0366160D01*
X0069040Y0366160D02*
X0069040Y0373840D01*
D12*
X0081000Y0350000D03*
X0077000Y0350000D03*
X0073000Y0350000D03*
X0069000Y0350000D03*
X0069000Y0355500D03*
X0081000Y0355500D03*
X0081000Y0367500D03*
X0081000Y0373000D03*
X0077000Y0373000D03*
X0073000Y0373000D03*
X0069000Y0373000D03*
X0069000Y0367500D03*
X0061000Y0344000D02*
G75*
%LPD*%
D10*
X0055790Y0356840D02*
X0042210Y0356840D01*
X0055790Y0356840D02*
X0055790Y0349160D01*
X0042210Y0349160D01*
X0042210Y0356840D01*
X0053240Y0356840D02*
X0053240Y0349160D01*
X0050690Y0349160D02*
X0050690Y0356840D01*
X0048140Y0356840D02*
X0048140Y0349160D01*
X0045590Y0349160D02*
X0045590Y0356840D01*
X0043040Y0356840D02*
X0043040Y0349160D01*
X0042210Y0366160D02*
X0055790Y0366160D01*
X0042210Y0366160D02*
X0042210Y0373840D01*
X0055790Y0373840D01*
X0055790Y0366160D01*
X0053240Y0366160D02*
X0053240Y0373840D01*
X0050690Y0373840D02*
X0050690Y0366160D01*
X0048140Y0366160D02*
X0048140Y0373840D01*
X0045590Y0373840D02*
X0045590Y0366160D01*
X0043040Y0366160D02*
X0043040Y0373840D01*
D12*
X0055000Y0350000D03*
X0051000Y0350000D03*
X0047000Y0350000D03*
X0043000Y0350000D03*
X0043000Y0355500D03*
X0055000Y0355500D03*
X0055000Y0367500D03*
X0055000Y0373000D03*
X0051000Y0373000D03*
X0047000Y0373000D03*
X0043000Y0373000D03*
X0043000Y0367500D03*
X0035000Y0307000D02*
G75*
%LPD*%
D10*
X0029790Y0319840D02*
X0016210Y0319840D01*
X0029790Y0319840D02*
X0029790Y0312160D01*
X0016210Y0312160D01*
X0016210Y0319840D01*
X0027240Y0319840D02*
X0027240Y0312160D01*
X0024690Y0312160D02*
X0024690Y0319840D01*
X0022140Y0319840D02*
X0022140Y0312160D01*
X0019590Y0312160D02*
X0019590Y0319840D01*
X0017040Y0319840D02*
X0017040Y0312160D01*
X0016210Y0329160D02*
X0029790Y0329160D01*
X0016210Y0329160D02*
X0016210Y0336840D01*
X0029790Y0336840D01*
X0029790Y0329160D01*
X0027240Y0329160D02*
X0027240Y0336840D01*
X0024690Y0336840D02*
X0024690Y0329160D01*
X0022140Y0329160D02*
X0022140Y0336840D01*
X0019590Y0336840D02*
X0019590Y0329160D01*
X0017040Y0329160D02*
X0017040Y0336840D01*
D12*
X0029000Y0313000D03*
X0025000Y0313000D03*
X0021000Y0313000D03*
X0017000Y0313000D03*
X0017000Y0318500D03*
X0029000Y0318500D03*
X0029000Y0330500D03*
X0029000Y0336000D03*
X0025000Y0336000D03*
X0021000Y0336000D03*
X0017000Y0336000D03*
X0017000Y0330500D03*
X0035000Y0344000D02*
G75*
%LPD*%
D10*
X0029790Y0356840D02*
X0016210Y0356840D01*
X0029790Y0356840D02*
X0029790Y0349160D01*
X0016210Y0349160D01*
X0016210Y0356840D01*
X0027240Y0356840D02*
X0027240Y0349160D01*
X0024690Y0349160D02*
X0024690Y0356840D01*
X0022140Y0356840D02*
X0022140Y0349160D01*
X0019590Y0349160D02*
X0019590Y0356840D01*
X0017040Y0356840D02*
X0017040Y0349160D01*
X0016210Y0366160D02*
X0029790Y0366160D01*
X0016210Y0366160D02*
X0016210Y0373840D01*
X0029790Y0373840D01*
X0029790Y0366160D01*
X0027240Y0366160D02*
X0027240Y0373840D01*
X0024690Y0373840D02*
X0024690Y0366160D01*
X0022140Y0366160D02*
X0022140Y0373840D01*
X0019590Y0373840D02*
X0019590Y0366160D01*
X0017040Y0366160D02*
X0017040Y0373840D01*
D12*
X0029000Y0350000D03*
X0025000Y0350000D03*
X0021000Y0350000D03*
X0017000Y0350000D03*
X0017000Y0355500D03*
X0029000Y0355500D03*
X0029000Y0367500D03*
X0029000Y0373000D03*
X0025000Y0373000D03*
X0021000Y0373000D03*
X0017000Y0373000D03*
X0017000Y0367500D03*
X0141000Y0307000D02*
G75*
%LPD*%
X0269000Y0307000D02*
G75*
%LPD*%
D10*
X0263790Y0319840D02*
X0250210Y0319840D01*
X0263790Y0319840D02*
X0263790Y0312160D01*
X0250210Y0312160D01*
X0250210Y0319840D01*
X0261240Y0319840D02*
X0261240Y0312160D01*
X0258690Y0312160D02*
X0258690Y0319840D01*
X0256140Y0319840D02*
X0256140Y0312160D01*
X0253590Y0312160D02*
X0253590Y0319840D01*
X0251040Y0319840D02*
X0251040Y0312160D01*
X0250210Y0329160D02*
X0263790Y0329160D01*
X0250210Y0329160D02*
X0250210Y0336840D01*
X0263790Y0336840D01*
X0263790Y0329160D01*
X0261240Y0329160D02*
X0261240Y0336840D01*
X0258690Y0336840D02*
X0258690Y0329160D01*
X0256140Y0329160D02*
X0256140Y0336840D01*
X0253590Y0336840D02*
X0253590Y0329160D01*
X0251040Y0329160D02*
X0251040Y0336840D01*
D12*
X0263000Y0313000D03*
X0259000Y0313000D03*
X0255000Y0313000D03*
X0251000Y0313000D03*
X0251000Y0318500D03*
X0263000Y0318500D03*
X0263000Y0330500D03*
X0263000Y0336000D03*
X0259000Y0336000D03*
X0255000Y0336000D03*
X0251000Y0336000D03*
X0251000Y0330500D03*
X0243000Y0307000D02*
G75*
%LPD*%
D10*
X0237790Y0319840D02*
X0224210Y0319840D01*
X0237790Y0319840D02*
X0237790Y0312160D01*
X0224210Y0312160D01*
X0224210Y0319840D01*
X0235240Y0319840D02*
X0235240Y0312160D01*
X0232690Y0312160D02*
X0232690Y0319840D01*
X0230140Y0319840D02*
X0230140Y0312160D01*
X0227590Y0312160D02*
X0227590Y0319840D01*
X0225040Y0319840D02*
X0225040Y0312160D01*
X0224210Y0329160D02*
X0237790Y0329160D01*
X0224210Y0329160D02*
X0224210Y0336840D01*
X0237790Y0336840D01*
X0237790Y0329160D01*
X0235240Y0329160D02*
X0235240Y0336840D01*
X0232690Y0336840D02*
X0232690Y0329160D01*
X0230140Y0329160D02*
X0230140Y0336840D01*
X0227590Y0336840D02*
X0227590Y0329160D01*
X0225040Y0329160D02*
X0225040Y0336840D01*
D12*
X0237000Y0313000D03*
X0233000Y0313000D03*
X0229000Y0313000D03*
X0225000Y0313000D03*
X0225000Y0318500D03*
X0237000Y0318500D03*
X0237000Y0330500D03*
X0237000Y0336000D03*
X0233000Y0336000D03*
X0229000Y0336000D03*
X0225000Y0336000D03*
X0225000Y0330500D03*
X0269000Y0344000D02*
G75*
%LPD*%
D10*
X0263790Y0356840D02*
X0250210Y0356840D01*
X0263790Y0356840D02*
X0263790Y0349160D01*
X0250210Y0349160D01*
X0250210Y0356840D01*
X0261240Y0356840D02*
X0261240Y0349160D01*
X0258690Y0349160D02*
X0258690Y0356840D01*
X0256140Y0356840D02*
X0256140Y0349160D01*
X0253590Y0349160D02*
X0253590Y0356840D01*
X0251040Y0356840D02*
X0251040Y0349160D01*
X0250210Y0366160D02*
X0263790Y0366160D01*
X0250210Y0366160D02*
X0250210Y0373840D01*
X0263790Y0373840D01*
X0263790Y0366160D01*
X0261240Y0366160D02*
X0261240Y0373840D01*
X0258690Y0373840D02*
X0258690Y0366160D01*
X0256140Y0366160D02*
X0256140Y0373840D01*
X0253590Y0373840D02*
X0253590Y0366160D01*
X0251040Y0366160D02*
X0251040Y0373840D01*
D12*
X0263000Y0350000D03*
X0259000Y0350000D03*
X0255000Y0350000D03*
X0251000Y0350000D03*
X0251000Y0355500D03*
X0263000Y0355500D03*
X0263000Y0367500D03*
X0263000Y0373000D03*
X0259000Y0373000D03*
X0255000Y0373000D03*
X0251000Y0373000D03*
X0251000Y0367500D03*
X0217000Y0307000D02*
G75*
%LPD*%
D10*
X0211790Y0319840D02*
X0198210Y0319840D01*
X0211790Y0319840D02*
X0211790Y0312160D01*
X0198210Y0312160D01*
X0198210Y0319840D01*
X0209240Y0319840D02*
X0209240Y0312160D01*
X0206690Y0312160D02*
X0206690Y0319840D01*
X0204140Y0319840D02*
X0204140Y0312160D01*
X0201590Y0312160D02*
X0201590Y0319840D01*
X0199040Y0319840D02*
X0199040Y0312160D01*
X0198210Y0329160D02*
X0211790Y0329160D01*
X0198210Y0329160D02*
X0198210Y0336840D01*
X0211790Y0336840D01*
X0211790Y0329160D01*
X0209240Y0329160D02*
X0209240Y0336840D01*
X0206690Y0336840D02*
X0206690Y0329160D01*
X0204140Y0329160D02*
X0204140Y0336840D01*
X0201590Y0336840D02*
X0201590Y0329160D01*
X0199040Y0329160D02*
X0199040Y0336840D01*
D12*
X0211000Y0313000D03*
X0207000Y0313000D03*
X0203000Y0313000D03*
X0199000Y0313000D03*
X0199000Y0318500D03*
X0211000Y0318500D03*
X0211000Y0330500D03*
X0211000Y0336000D03*
X0207000Y0336000D03*
X0203000Y0336000D03*
X0199000Y0336000D03*
X0199000Y0330500D03*
X0243000Y0344000D02*
G75*
%LPD*%
D10*
X0237790Y0356840D02*
X0224210Y0356840D01*
X0237790Y0356840D02*
X0237790Y0349160D01*
X0224210Y0349160D01*
X0224210Y0356840D01*
X0235240Y0356840D02*
X0235240Y0349160D01*
X0232690Y0349160D02*
X0232690Y0356840D01*
X0230140Y0356840D02*
X0230140Y0349160D01*
X0227590Y0349160D02*
X0227590Y0356840D01*
X0225040Y0356840D02*
X0225040Y0349160D01*
X0224210Y0366160D02*
X0237790Y0366160D01*
X0224210Y0366160D02*
X0224210Y0373840D01*
X0237790Y0373840D01*
X0237790Y0366160D01*
X0235240Y0366160D02*
X0235240Y0373840D01*
X0232690Y0373840D02*
X0232690Y0366160D01*
X0230140Y0366160D02*
X0230140Y0373840D01*
X0227590Y0373840D02*
X0227590Y0366160D01*
X0225040Y0366160D02*
X0225040Y0373840D01*
D12*
X0237000Y0350000D03*
X0233000Y0350000D03*
X0229000Y0350000D03*
X0225000Y0350000D03*
X0225000Y0355500D03*
X0237000Y0355500D03*
X0237000Y0367500D03*
X0237000Y0373000D03*
X0233000Y0373000D03*
X0229000Y0373000D03*
X0225000Y0373000D03*
X0225000Y0367500D03*
X0191000Y0307000D02*
G75*
%LPD*%
D10*
X0185790Y0319840D02*
X0172210Y0319840D01*
X0185790Y0319840D02*
X0185790Y0312160D01*
X0172210Y0312160D01*
X0172210Y0319840D01*
X0183240Y0319840D02*
X0183240Y0312160D01*
X0180690Y0312160D02*
X0180690Y0319840D01*
X0178140Y0319840D02*
X0178140Y0312160D01*
X0175590Y0312160D02*
X0175590Y0319840D01*
X0173040Y0319840D02*
X0173040Y0312160D01*
X0172210Y0329160D02*
X0185790Y0329160D01*
X0172210Y0329160D02*
X0172210Y0336840D01*
X0185790Y0336840D01*
X0185790Y0329160D01*
X0183240Y0329160D02*
X0183240Y0336840D01*
X0180690Y0336840D02*
X0180690Y0329160D01*
X0178140Y0329160D02*
X0178140Y0336840D01*
X0175590Y0336840D02*
X0175590Y0329160D01*
X0173040Y0329160D02*
X0173040Y0336840D01*
D12*
X0185000Y0313000D03*
X0181000Y0313000D03*
X0177000Y0313000D03*
X0173000Y0313000D03*
X0173000Y0318500D03*
X0185000Y0318500D03*
X0185000Y0330500D03*
X0185000Y0336000D03*
X0181000Y0336000D03*
X0177000Y0336000D03*
X0173000Y0336000D03*
X0173000Y0330500D03*
X0217000Y0344000D02*
G75*
%LPD*%
D10*
X0211790Y0356840D02*
X0198210Y0356840D01*
X0211790Y0356840D02*
X0211790Y0349160D01*
X0198210Y0349160D01*
X0198210Y0356840D01*
X0209240Y0356840D02*
X0209240Y0349160D01*
X0206690Y0349160D02*
X0206690Y0356840D01*
X0204140Y0356840D02*
X0204140Y0349160D01*
X0201590Y0349160D02*
X0201590Y0356840D01*
X0199040Y0356840D02*
X0199040Y0349160D01*
X0198210Y0366160D02*
X0211790Y0366160D01*
X0198210Y0366160D02*
X0198210Y0373840D01*
X0211790Y0373840D01*
X0211790Y0366160D01*
X0209240Y0366160D02*
X0209240Y0373840D01*
X0206690Y0373840D02*
X0206690Y0366160D01*
X0204140Y0366160D02*
X0204140Y0373840D01*
X0201590Y0373840D02*
X0201590Y0366160D01*
X0199040Y0366160D02*
X0199040Y0373840D01*
D12*
X0211000Y0350000D03*
X0207000Y0350000D03*
X0203000Y0350000D03*
X0199000Y0350000D03*
X0199000Y0355500D03*
X0211000Y0355500D03*
X0211000Y0367500D03*
X0211000Y0373000D03*
X0207000Y0373000D03*
X0203000Y0373000D03*
X0199000Y0373000D03*
X0199000Y0367500D03*
X0191000Y0344000D02*
G75*
%LPD*%
D10*
X0185790Y0356840D02*
X0172210Y0356840D01*
X0185790Y0356840D02*
X0185790Y0349160D01*
X0172210Y0349160D01*
X0172210Y0356840D01*
X0183240Y0356840D02*
X0183240Y0349160D01*
X0180690Y0349160D02*
X0180690Y0356840D01*
X0178140Y0356840D02*
X0178140Y0349160D01*
X0175590Y0349160D02*
X0175590Y0356840D01*
X0173040Y0356840D02*
X0173040Y0349160D01*
X0172210Y0366160D02*
X0185790Y0366160D01*
X0172210Y0366160D02*
X0172210Y0373840D01*
X0185790Y0373840D01*
X0185790Y0366160D01*
X0183240Y0366160D02*
X0183240Y0373840D01*
X0180690Y0373840D02*
X0180690Y0366160D01*
X0178140Y0366160D02*
X0178140Y0373840D01*
X0175590Y0373840D02*
X0175590Y0366160D01*
X0173040Y0366160D02*
X0173040Y0373840D01*
D12*
X0185000Y0350000D03*
X0181000Y0350000D03*
X0177000Y0350000D03*
X0173000Y0350000D03*
X0173000Y0355500D03*
X0185000Y0355500D03*
X0185000Y0367500D03*
X0185000Y0373000D03*
X0181000Y0373000D03*
X0177000Y0373000D03*
X0173000Y0373000D03*
X0173000Y0367500D03*
X0165000Y0307000D02*
G75*
%LPD*%
D10*
X0159790Y0319840D02*
X0146210Y0319840D01*
X0159790Y0319840D02*
X0159790Y0312160D01*
X0146210Y0312160D01*
X0146210Y0319840D01*
X0157240Y0319840D02*
X0157240Y0312160D01*
X0154690Y0312160D02*
X0154690Y0319840D01*
X0152140Y0319840D02*
X0152140Y0312160D01*
X0149590Y0312160D02*
X0149590Y0319840D01*
X0147040Y0319840D02*
X0147040Y0312160D01*
X0146210Y0329160D02*
X0159790Y0329160D01*
X0146210Y0329160D02*
X0146210Y0336840D01*
X0159790Y0336840D01*
X0159790Y0329160D01*
X0157240Y0329160D02*
X0157240Y0336840D01*
X0154690Y0336840D02*
X0154690Y0329160D01*
X0152140Y0329160D02*
X0152140Y0336840D01*
X0149590Y0336840D02*
X0149590Y0329160D01*
X0147040Y0329160D02*
X0147040Y0336840D01*
D12*
X0159000Y0313000D03*
X0155000Y0313000D03*
X0151000Y0313000D03*
X0147000Y0313000D03*
X0147000Y0318500D03*
X0159000Y0318500D03*
X0159000Y0330500D03*
X0159000Y0336000D03*
X0155000Y0336000D03*
X0151000Y0336000D03*
X0147000Y0336000D03*
X0147000Y0330500D03*
X0165000Y0344000D02*
G75*
%LPD*%
D10*
X0159790Y0356840D02*
X0146210Y0356840D01*
X0159790Y0356840D02*
X0159790Y0349160D01*
X0146210Y0349160D01*
X0146210Y0356840D01*
X0157240Y0356840D02*
X0157240Y0349160D01*
X0154690Y0349160D02*
X0154690Y0356840D01*
X0152140Y0356840D02*
X0152140Y0349160D01*
X0149590Y0349160D02*
X0149590Y0356840D01*
X0147040Y0356840D02*
X0147040Y0349160D01*
X0146210Y0366160D02*
X0159790Y0366160D01*
X0146210Y0366160D02*
X0146210Y0373840D01*
X0159790Y0373840D01*
X0159790Y0366160D01*
X0157240Y0366160D02*
X0157240Y0373840D01*
X0154690Y0373840D02*
X0154690Y0366160D01*
X0152140Y0366160D02*
X0152140Y0373840D01*
X0149590Y0373840D02*
X0149590Y0366160D01*
X0147040Y0366160D02*
X0147040Y0373840D01*
D12*
X0159000Y0350000D03*
X0155000Y0350000D03*
X0151000Y0350000D03*
X0147000Y0350000D03*
X0147000Y0355500D03*
X0159000Y0355500D03*
X0159000Y0367500D03*
X0159000Y0373000D03*
X0155000Y0373000D03*
X0151000Y0373000D03*
X0147000Y0373000D03*
X0147000Y0367500D03*
M02*
