G75*
%MOIN*%
%OFA0B0*%
%FSLAX24Y24*%
%IPPOS*%
%LPD*%
%AMOC8*
5,1,8,0,0,1.08239X$1,22.5*
%
%ADD10R,0.0472X0.0472*%
%ADD11R,0.0433X0.0551*%
%ADD12R,0.0709X0.1083*%
%ADD13C,0.0600*%
%ADD14R,0.0551X0.0433*%
%ADD15C,0.0740*%
%ADD16R,0.0870X0.0240*%
%ADD17R,0.0740X0.0740*%
%ADD18C,0.1266*%
%ADD19R,0.0315X0.0472*%
%ADD20R,0.0120X0.0350*%
%ADD21R,0.0320X0.0160*%
%ADD22R,0.0472X0.0315*%
%ADD23R,0.0551X0.0630*%
%ADD24R,0.0630X0.0551*%
%ADD25R,0.0394X0.0118*%
%ADD26R,0.0630X0.0709*%
%ADD27R,0.1083X0.0709*%
%ADD28R,0.0354X0.0472*%
%ADD29R,0.1181X0.0630*%
%ADD30R,0.2250X0.1900*%
%ADD31OC8,0.0520*%
%ADD32R,0.0591X0.0512*%
%ADD33R,0.0240X0.0870*%
%ADD34R,0.0327X0.0248*%
%ADD35R,0.0551X0.0394*%
%ADD36C,0.0160*%
%ADD37C,0.0396*%
%ADD38C,0.0240*%
%ADD39C,0.0100*%
%ADD40C,0.0120*%
%ADD41C,0.0560*%
%ADD42C,0.0660*%
%ADD43C,0.0400*%
D10*
X022893Y028370D03*
X023720Y028370D03*
X023910Y031350D03*
X023083Y031350D03*
X026546Y027853D03*
X026546Y027027D03*
D11*
X025590Y028370D03*
X024802Y028370D03*
D12*
X022996Y033317D03*
X022996Y035383D03*
D13*
X023296Y026850D02*
X022696Y026850D01*
X022796Y025850D02*
X023396Y025850D01*
X023296Y024850D02*
X022696Y024850D01*
D14*
X026526Y028986D03*
X026526Y029774D03*
D15*
X026496Y030850D03*
X025446Y032350D03*
X025546Y033350D03*
X025446Y034350D03*
X023896Y037500D03*
X025696Y025350D03*
X026546Y020350D03*
X025446Y017350D03*
X026546Y014350D03*
X026546Y011350D03*
X024296Y006100D03*
X015146Y012940D03*
X009796Y008800D03*
X009596Y004200D03*
X009596Y001400D03*
X007546Y017350D03*
X007446Y018350D03*
X007546Y020850D03*
X007446Y021850D03*
X007546Y027350D03*
X007446Y028350D03*
X007546Y029350D03*
X007546Y031850D03*
X007446Y032850D03*
X007546Y033850D03*
D16*
X022966Y030600D03*
X022966Y030100D03*
X022966Y029600D03*
X022966Y029100D03*
X025026Y029100D03*
X025026Y029600D03*
X025026Y030100D03*
X025026Y030600D03*
D17*
X025546Y035350D03*
X022796Y037500D03*
X025446Y020350D03*
X026546Y017350D03*
X025446Y014350D03*
X025446Y011350D03*
X024296Y005000D03*
X014046Y012940D03*
X009796Y007700D03*
X009596Y005300D03*
X009596Y002500D03*
X007546Y019350D03*
X007546Y022850D03*
X007446Y026350D03*
X007446Y030850D03*
D18*
X011996Y031350D03*
X011996Y029350D03*
X011996Y034350D03*
X019996Y034350D03*
X019996Y030350D03*
X019996Y026350D03*
D19*
X014911Y018320D03*
X014202Y018320D03*
X014521Y015210D03*
X013812Y015210D03*
X015842Y010050D03*
X016551Y010050D03*
X016551Y009150D03*
X015842Y009150D03*
X018072Y011480D03*
X018781Y011480D03*
X018751Y014480D03*
X018042Y014480D03*
X022942Y014350D03*
X023651Y014350D03*
X023651Y011350D03*
X022942Y011350D03*
X016651Y004950D03*
X016651Y004250D03*
X015942Y004250D03*
X015942Y004950D03*
X014251Y004350D03*
X013542Y004350D03*
X013542Y003450D03*
X014251Y003450D03*
D20*
X015562Y018479D03*
X015759Y018479D03*
X015956Y018479D03*
X016153Y018479D03*
X016350Y018479D03*
X016350Y020141D03*
X016153Y020141D03*
X015956Y020141D03*
X015759Y020141D03*
X015562Y020141D03*
D21*
X013532Y019502D03*
X013532Y019246D03*
X013532Y018990D03*
X013532Y018734D03*
X013532Y018478D03*
X013532Y018222D03*
X013532Y017966D03*
X013532Y017710D03*
X013532Y017454D03*
X013532Y017198D03*
X010461Y017198D03*
X010461Y017454D03*
X010461Y017710D03*
X010461Y017966D03*
X010461Y018222D03*
X010461Y018478D03*
X010461Y018734D03*
X010461Y018990D03*
X010461Y019246D03*
X010461Y019502D03*
D22*
X007996Y015904D03*
X007996Y015196D03*
X011646Y007704D03*
X011646Y006996D03*
X011346Y005554D03*
X011346Y004846D03*
X012896Y004504D03*
X012896Y003796D03*
X013596Y002204D03*
X013596Y001496D03*
X014796Y006796D03*
X014796Y007504D03*
X014796Y008096D03*
X014796Y008804D03*
X014916Y017026D03*
X014916Y017734D03*
X014916Y020896D03*
X014916Y021604D03*
X015716Y021604D03*
X015716Y020896D03*
D23*
X014767Y016200D03*
X013665Y016200D03*
X019445Y016350D03*
X020547Y016350D03*
X020547Y019350D03*
X019445Y019350D03*
D24*
X009496Y015901D03*
X009496Y014799D03*
D25*
X019738Y014734D03*
X019738Y014478D03*
X019738Y014222D03*
X019738Y013966D03*
X021264Y013966D03*
X021264Y014222D03*
X021264Y014478D03*
X021264Y014734D03*
X021264Y011734D03*
X021264Y011478D03*
X021264Y011222D03*
X021264Y010966D03*
X019738Y010966D03*
X019738Y011222D03*
X019738Y011478D03*
X019738Y011734D03*
D26*
X019445Y017350D03*
X020547Y017350D03*
X021445Y017350D03*
X022547Y017350D03*
X023445Y017350D03*
X024547Y017350D03*
X024547Y020350D03*
X023445Y020350D03*
X022547Y020350D03*
X021445Y020350D03*
X020547Y020350D03*
X019445Y020350D03*
D27*
X009230Y035250D03*
X007163Y035250D03*
D28*
X009832Y012710D03*
X010332Y012710D03*
X010332Y010190D03*
X009832Y010190D03*
D29*
X019787Y008248D03*
X019787Y006452D03*
X019787Y003248D03*
X019787Y001452D03*
D30*
X017071Y002350D03*
X017071Y007350D03*
D31*
X021996Y008250D03*
X023996Y008250D03*
D32*
X015196Y002124D03*
X015196Y001376D03*
D33*
X014046Y005520D03*
X013546Y005520D03*
X013046Y005520D03*
X012546Y005520D03*
X012546Y007580D03*
X013046Y007580D03*
X013546Y007580D03*
X014046Y007580D03*
D34*
X012196Y004503D03*
X012196Y003597D03*
D35*
X012629Y002224D03*
X012629Y001476D03*
X011763Y001850D03*
D36*
X012196Y004503D02*
X012298Y004504D01*
X012896Y004504D01*
X012896Y004650D01*
X013046Y004800D01*
X013046Y005520D01*
X013546Y005520D02*
X013546Y004354D01*
X013542Y004350D01*
X013542Y003450D01*
X012696Y006750D02*
X012546Y006900D01*
X012546Y007580D01*
X012442Y007685D01*
X012696Y006750D02*
X014651Y006750D01*
X014796Y006796D01*
X014796Y007504D02*
X014651Y007550D01*
X014196Y007550D01*
X014166Y007580D01*
X014046Y007580D01*
X013546Y007580D01*
X014796Y007504D02*
X014796Y008096D01*
X013996Y010050D02*
X013996Y010150D01*
X013996Y010050D02*
X015842Y010050D01*
X016551Y010050D02*
X016551Y009550D01*
X016651Y009450D01*
X019196Y009450D01*
X019787Y008859D01*
X019787Y008248D01*
X018072Y011480D02*
X017996Y011556D01*
X017996Y012350D01*
X017406Y012940D01*
X014046Y012940D01*
X013665Y016200D02*
X013665Y017000D01*
X013665Y017065D01*
X013532Y017198D01*
X010461Y017454D02*
X010456Y017450D01*
X009496Y017450D01*
X009496Y017550D01*
X009496Y018550D01*
X009680Y018734D01*
X010461Y018734D01*
X009496Y017450D02*
X009496Y015901D01*
X009493Y015904D01*
X007996Y015904D01*
X006546Y014650D02*
X006546Y013750D01*
X006846Y013450D01*
X009396Y013450D01*
X009796Y013050D01*
X009796Y012746D01*
X009832Y012710D01*
X010332Y012710D02*
X010332Y013114D01*
X010046Y013400D01*
X010046Y013800D01*
X009946Y013900D01*
X006546Y014650D02*
X005946Y015250D01*
X005946Y021550D01*
X009196Y024850D02*
X009196Y028050D01*
X009096Y028150D01*
X009096Y032750D01*
X008996Y032850D01*
X007446Y032850D01*
X009196Y028050D02*
X009296Y027950D01*
X011096Y027950D01*
X011196Y027850D01*
X011646Y028300D01*
X013296Y028300D01*
X013646Y028650D01*
X013646Y032600D01*
X017996Y032669D02*
X018058Y032669D01*
X018038Y032621D02*
X018038Y032479D01*
X018093Y032347D01*
X018193Y032246D01*
X018325Y032192D01*
X018467Y032192D01*
X018599Y032246D01*
X018663Y032310D01*
X021624Y032310D01*
X021712Y032347D01*
X021857Y032492D01*
X021947Y032492D01*
X022079Y032546D01*
X022180Y032647D01*
X022234Y032779D01*
X022234Y032921D01*
X022180Y033053D01*
X022079Y033154D01*
X021947Y033208D01*
X021805Y033208D01*
X021673Y033154D01*
X021573Y033053D01*
X021518Y032921D01*
X021518Y032831D01*
X021477Y032790D01*
X018663Y032790D01*
X018599Y032854D01*
X018467Y032908D01*
X018325Y032908D01*
X018193Y032854D01*
X018093Y032753D01*
X018038Y032621D01*
X018038Y032510D02*
X017996Y032510D01*
X017996Y032352D02*
X018091Y032352D01*
X017996Y032193D02*
X018322Y032193D01*
X018470Y032193D02*
X023626Y032193D01*
X023626Y032035D02*
X017996Y032035D01*
X017996Y031876D02*
X018401Y031876D01*
X018485Y031960D02*
X017996Y031471D01*
X017996Y035389D01*
X018016Y035728D01*
X018074Y036062D01*
X018169Y036387D01*
X018302Y036699D01*
X018469Y036994D01*
X018669Y037268D01*
X018898Y037517D01*
X019155Y037739D01*
X020370Y038670D01*
X027516Y038670D01*
X027516Y024149D01*
X020413Y024138D01*
X020141Y024158D01*
X019873Y024210D01*
X019613Y024294D01*
X019365Y024408D01*
X019132Y024551D01*
X018918Y024721D01*
X018726Y024916D01*
X018420Y025266D01*
X018294Y025428D01*
X018189Y025604D01*
X018106Y025791D01*
X018045Y025987D01*
X018008Y026189D01*
X017996Y026393D01*
X017996Y026939D01*
X018138Y026797D01*
X018138Y026679D01*
X018193Y026547D01*
X018293Y026446D01*
X018425Y026392D01*
X018567Y026392D01*
X018699Y026446D01*
X018800Y026547D01*
X018854Y026679D01*
X018854Y026811D01*
X018983Y026940D01*
X019465Y026940D01*
X019324Y026799D01*
X019203Y026508D01*
X019203Y026192D01*
X019324Y025901D01*
X019547Y025678D01*
X019838Y025557D01*
X020154Y025557D01*
X020445Y025678D01*
X020669Y025901D01*
X020789Y026192D01*
X020789Y026508D01*
X020669Y026799D01*
X020528Y026940D01*
X021609Y026940D01*
X021786Y026763D01*
X021786Y025963D01*
X021986Y025763D01*
X022109Y025640D01*
X022385Y025640D01*
X022406Y025589D01*
X022536Y025460D01*
X022705Y025390D01*
X023488Y025390D01*
X023657Y025460D01*
X023786Y025589D01*
X023856Y025758D01*
X023856Y025941D01*
X023786Y026111D01*
X023657Y026240D01*
X023488Y026310D01*
X022705Y026310D01*
X022536Y026240D01*
X022406Y026111D01*
X022385Y026060D01*
X022283Y026060D01*
X022206Y026137D01*
X022206Y026937D01*
X022083Y027060D01*
X021903Y027240D01*
X022395Y027240D01*
X022405Y027230D01*
X022406Y027230D01*
X022415Y027219D01*
X022306Y027111D01*
X022236Y026941D01*
X022236Y026758D01*
X022306Y026589D01*
X022436Y026460D01*
X022605Y026390D01*
X023388Y026390D01*
X023557Y026460D01*
X023686Y026589D01*
X023756Y026758D01*
X023756Y026941D01*
X023686Y027111D01*
X023557Y027240D01*
X023388Y027310D01*
X022886Y027310D01*
X022726Y027502D01*
X022726Y027929D01*
X022771Y027974D01*
X023195Y027974D01*
X023289Y028068D01*
X023289Y028672D01*
X023195Y028766D01*
X023186Y028766D01*
X023186Y028820D01*
X023467Y028820D01*
X023561Y028914D01*
X023561Y029286D01*
X023497Y029350D01*
X023561Y029414D01*
X023561Y029786D01*
X023497Y029850D01*
X023561Y029914D01*
X023561Y030286D01*
X023497Y030350D01*
X023561Y030414D01*
X023561Y030786D01*
X023467Y030880D01*
X023206Y030880D01*
X023206Y030954D01*
X023385Y030954D01*
X023479Y031048D01*
X023479Y031652D01*
X023385Y031746D01*
X023041Y031746D01*
X022956Y031831D01*
X022827Y031960D01*
X018485Y031960D01*
X018243Y031718D02*
X017996Y031718D01*
X017996Y031559D02*
X018084Y031559D01*
X018389Y031242D02*
X022687Y031242D01*
X022687Y031084D02*
X020298Y031084D01*
X020154Y031143D02*
X020445Y031022D01*
X020669Y030799D01*
X020789Y030508D01*
X020789Y030192D01*
X020669Y029901D01*
X020445Y029678D01*
X020185Y029570D01*
X021505Y029570D01*
X021576Y029641D01*
X021705Y029770D01*
X022371Y029770D01*
X022371Y029786D01*
X022435Y029850D01*
X022371Y029914D01*
X022371Y030286D01*
X022435Y030350D01*
X022371Y030414D01*
X022371Y030786D01*
X022465Y030880D01*
X022726Y030880D01*
X022726Y031008D01*
X022687Y031048D01*
X022687Y031478D01*
X022645Y031520D01*
X018667Y031520D01*
X018306Y031159D01*
X018306Y027759D01*
X018425Y027808D01*
X018567Y027808D01*
X018699Y027754D01*
X018793Y027660D01*
X022286Y027660D01*
X022286Y028111D01*
X022415Y028240D01*
X022497Y028322D01*
X022497Y028672D01*
X022590Y028766D01*
X022746Y028766D01*
X022746Y028820D01*
X022465Y028820D01*
X022371Y028914D01*
X022371Y029286D01*
X022415Y029330D01*
X021887Y029330D01*
X021687Y029130D01*
X019205Y029130D01*
X019121Y029214D01*
X019067Y029192D01*
X018925Y029192D01*
X018793Y029246D01*
X018693Y029347D01*
X018638Y029479D01*
X018638Y029621D01*
X018693Y029753D01*
X018793Y029854D01*
X018925Y029908D01*
X019067Y029908D01*
X019199Y029854D01*
X019300Y029753D01*
X019354Y029621D01*
X019354Y029603D01*
X019387Y029570D01*
X019807Y029570D01*
X019547Y029678D01*
X019324Y029901D01*
X019203Y030192D01*
X019203Y030508D01*
X019324Y030799D01*
X019547Y031022D01*
X019838Y031143D01*
X020154Y031143D01*
X020543Y030925D02*
X022726Y030925D01*
X022371Y030767D02*
X020682Y030767D01*
X020748Y030608D02*
X022371Y030608D01*
X022371Y030450D02*
X020789Y030450D01*
X020789Y030291D02*
X022376Y030291D01*
X022371Y030133D02*
X020765Y030133D01*
X020699Y029974D02*
X022371Y029974D01*
X022400Y029816D02*
X020583Y029816D01*
X020396Y029657D02*
X021592Y029657D01*
X021739Y029182D02*
X022371Y029182D01*
X022371Y029023D02*
X018306Y029023D01*
X018306Y028865D02*
X022420Y028865D01*
X022530Y028706D02*
X018306Y028706D01*
X018306Y028548D02*
X022497Y028548D01*
X022497Y028389D02*
X018306Y028389D01*
X018306Y028231D02*
X022406Y028231D01*
X022286Y028072D02*
X018306Y028072D01*
X018306Y027914D02*
X022286Y027914D01*
X022286Y027755D02*
X018696Y027755D01*
X018854Y026804D02*
X019329Y026804D01*
X019260Y026646D02*
X018841Y026646D01*
X018740Y026487D02*
X019203Y026487D01*
X019203Y026329D02*
X018000Y026329D01*
X017996Y026487D02*
X018253Y026487D01*
X018152Y026646D02*
X017996Y026646D01*
X017996Y026804D02*
X018131Y026804D01*
X018012Y026170D02*
X019212Y026170D01*
X019278Y026012D02*
X018041Y026012D01*
X018086Y025853D02*
X019372Y025853D01*
X019530Y025695D02*
X018149Y025695D01*
X018230Y025536D02*
X022460Y025536D01*
X022512Y025295D02*
X022445Y025261D01*
X022383Y025216D01*
X022330Y025163D01*
X022286Y025102D01*
X022251Y025034D01*
X022228Y024962D01*
X022216Y024888D01*
X022216Y024870D01*
X022976Y024870D01*
X022976Y024830D01*
X022216Y024830D01*
X022216Y024812D01*
X022228Y024738D01*
X022251Y024666D01*
X022286Y024598D01*
X022330Y024537D01*
X022383Y024484D01*
X022445Y024439D01*
X022512Y024405D01*
X022584Y024382D01*
X022658Y024370D01*
X022976Y024370D01*
X022976Y024830D01*
X023016Y024830D01*
X023016Y024370D01*
X023334Y024370D01*
X023409Y024382D01*
X023480Y024405D01*
X023548Y024439D01*
X023609Y024484D01*
X023662Y024537D01*
X023707Y024598D01*
X023741Y024666D01*
X023764Y024738D01*
X023776Y024812D01*
X023776Y024830D01*
X023016Y024830D01*
X023016Y024870D01*
X022976Y024870D01*
X022976Y025330D01*
X022658Y025330D01*
X022584Y025318D01*
X022512Y025295D01*
X022387Y025219D02*
X018461Y025219D01*
X018333Y025378D02*
X025146Y025378D01*
X025146Y025370D02*
X025676Y025370D01*
X025676Y025330D01*
X025146Y025330D01*
X025146Y025307D01*
X025160Y025221D01*
X025186Y025139D01*
X025226Y025062D01*
X025277Y024992D01*
X025338Y024930D01*
X025408Y024880D01*
X025485Y024840D01*
X025567Y024814D01*
X025653Y024800D01*
X025676Y024800D01*
X025676Y025330D01*
X025716Y025330D01*
X025716Y024800D01*
X025739Y024800D01*
X025825Y024814D01*
X025907Y024840D01*
X025984Y024880D01*
X026054Y024930D01*
X026116Y024992D01*
X026167Y025062D01*
X026206Y025139D01*
X026233Y025221D01*
X026246Y025307D01*
X026246Y025330D01*
X025716Y025330D01*
X025716Y025370D01*
X025676Y025370D01*
X025676Y025900D01*
X025653Y025900D01*
X025567Y025886D01*
X025485Y025860D01*
X025408Y025820D01*
X025338Y025770D01*
X025277Y025708D01*
X025226Y025638D01*
X025186Y025561D01*
X025160Y025479D01*
X025146Y025393D01*
X025146Y025370D01*
X025160Y025219D02*
X023605Y025219D01*
X023609Y025216D02*
X023548Y025261D01*
X023480Y025295D01*
X023409Y025318D01*
X023334Y025330D01*
X023016Y025330D01*
X023016Y024870D01*
X023776Y024870D01*
X023776Y024888D01*
X023764Y024962D01*
X023741Y025034D01*
X023707Y025102D01*
X023662Y025163D01*
X023609Y025216D01*
X023728Y025061D02*
X025227Y025061D01*
X025377Y024902D02*
X023774Y024902D01*
X023765Y024744D02*
X027516Y024744D01*
X027516Y024902D02*
X026015Y024902D01*
X026166Y025061D02*
X027516Y025061D01*
X027516Y025219D02*
X026232Y025219D01*
X026246Y025370D02*
X026246Y025393D01*
X026233Y025479D01*
X026206Y025561D01*
X026167Y025638D01*
X026116Y025708D01*
X026054Y025770D01*
X025984Y025820D01*
X025907Y025860D01*
X025825Y025886D01*
X025739Y025900D01*
X025716Y025900D01*
X025716Y025370D01*
X026246Y025370D01*
X026246Y025378D02*
X027516Y025378D01*
X027516Y025536D02*
X026214Y025536D01*
X026126Y025695D02*
X027516Y025695D01*
X027516Y025853D02*
X025920Y025853D01*
X025716Y025853D02*
X025676Y025853D01*
X025676Y025695D02*
X025716Y025695D01*
X025716Y025536D02*
X025676Y025536D01*
X025676Y025378D02*
X025716Y025378D01*
X025716Y025219D02*
X025676Y025219D01*
X025676Y025061D02*
X025716Y025061D01*
X025716Y024902D02*
X025676Y024902D01*
X025178Y025536D02*
X023733Y025536D01*
X023830Y025695D02*
X025267Y025695D01*
X025472Y025853D02*
X023856Y025853D01*
X023827Y026012D02*
X027516Y026012D01*
X027516Y026170D02*
X023727Y026170D01*
X023584Y026487D02*
X027516Y026487D01*
X027516Y026329D02*
X022206Y026329D01*
X022206Y026487D02*
X022409Y026487D01*
X022283Y026646D02*
X022206Y026646D01*
X022206Y026804D02*
X022236Y026804D01*
X022245Y026963D02*
X022181Y026963D01*
X022317Y027121D02*
X022022Y027121D01*
X021745Y026804D02*
X020664Y026804D01*
X020732Y026646D02*
X021786Y026646D01*
X021786Y026487D02*
X020789Y026487D01*
X020789Y026329D02*
X021786Y026329D01*
X021786Y026170D02*
X020780Y026170D01*
X020714Y026012D02*
X021786Y026012D01*
X021896Y025853D02*
X020621Y025853D01*
X020462Y025695D02*
X022055Y025695D01*
X022206Y026170D02*
X022466Y026170D01*
X022976Y025219D02*
X023016Y025219D01*
X023016Y025061D02*
X022976Y025061D01*
X022976Y024902D02*
X023016Y024902D01*
X023016Y024744D02*
X022976Y024744D01*
X022976Y024585D02*
X023016Y024585D01*
X023016Y024427D02*
X022976Y024427D01*
X022470Y024427D02*
X019334Y024427D01*
X019089Y024585D02*
X022295Y024585D01*
X022227Y024744D02*
X018896Y024744D01*
X018740Y024902D02*
X022218Y024902D01*
X022265Y025061D02*
X018599Y025061D01*
X019692Y024268D02*
X027516Y024268D01*
X027516Y024427D02*
X023522Y024427D01*
X023697Y024585D02*
X027516Y024585D01*
X027516Y026646D02*
X026891Y026646D01*
X026893Y026646D02*
X026926Y026680D01*
X026950Y026721D01*
X026962Y026767D01*
X026962Y026989D01*
X026584Y026989D01*
X026584Y027065D01*
X026508Y027065D01*
X026508Y027443D01*
X026286Y027443D01*
X026240Y027431D01*
X026199Y027407D01*
X026166Y027373D01*
X026142Y027332D01*
X026130Y027287D01*
X026130Y027065D01*
X026508Y027065D01*
X026508Y026989D01*
X026130Y026989D01*
X026130Y026767D01*
X026142Y026721D01*
X026166Y026680D01*
X026199Y026646D01*
X026240Y026623D01*
X026286Y026610D01*
X026508Y026610D01*
X026508Y026988D01*
X026584Y026988D01*
X026584Y026610D01*
X026806Y026610D01*
X026852Y026623D01*
X026893Y026646D01*
X026962Y026804D02*
X027516Y026804D01*
X027516Y026963D02*
X026962Y026963D01*
X026962Y027065D02*
X026962Y027287D01*
X026950Y027332D01*
X026926Y027373D01*
X026893Y027407D01*
X026852Y027431D01*
X026806Y027443D01*
X026584Y027443D01*
X026584Y027065D01*
X026962Y027065D01*
X026962Y027121D02*
X027516Y027121D01*
X027516Y027280D02*
X026962Y027280D01*
X026824Y027438D02*
X027516Y027438D01*
X027516Y027597D02*
X026942Y027597D01*
X026942Y027551D02*
X026942Y028156D01*
X026849Y028250D01*
X026766Y028250D01*
X026766Y028610D01*
X026868Y028610D01*
X026962Y028703D01*
X026962Y029269D01*
X026868Y029363D01*
X026184Y029363D01*
X026116Y029295D01*
X026116Y029351D01*
X026174Y029408D01*
X026184Y029397D01*
X026868Y029397D01*
X026962Y029491D01*
X026962Y030057D01*
X026868Y030150D01*
X026766Y030150D01*
X026766Y030388D01*
X026796Y030401D01*
X026945Y030550D01*
X027026Y030745D01*
X027026Y030955D01*
X026945Y031150D01*
X026796Y031299D01*
X026602Y031380D01*
X026391Y031380D01*
X026196Y031299D01*
X026047Y031150D01*
X025996Y031028D01*
X025996Y031121D01*
X026512Y031637D01*
X026580Y031704D01*
X026616Y031792D01*
X026616Y033258D01*
X026580Y033346D01*
X026440Y033486D01*
X026372Y033553D01*
X026284Y033590D01*
X026020Y033590D01*
X025995Y033650D01*
X025846Y033799D01*
X025674Y033871D01*
X025746Y033901D01*
X025895Y034050D01*
X025976Y034245D01*
X025976Y034455D01*
X025895Y034650D01*
X025746Y034799D01*
X025696Y034820D01*
X025982Y034820D01*
X026076Y034914D01*
X026076Y035786D01*
X025982Y035880D01*
X025110Y035880D01*
X025016Y035786D01*
X025016Y035630D01*
X023511Y035630D01*
X023511Y035991D01*
X023417Y036085D01*
X022576Y036085D01*
X022482Y035991D01*
X022482Y034776D01*
X022576Y034682D01*
X023417Y034682D01*
X023511Y034776D01*
X023511Y035070D01*
X025016Y035070D01*
X025016Y034914D01*
X025110Y034820D01*
X025196Y034820D01*
X025146Y034799D01*
X024997Y034650D01*
X024928Y034484D01*
X024448Y034484D01*
X024360Y034447D01*
X024293Y034380D01*
X024183Y034270D01*
X024146Y034181D01*
X024146Y032856D01*
X024049Y032954D01*
X023917Y033008D01*
X023775Y033008D01*
X023643Y032954D01*
X023543Y032853D01*
X023531Y032824D01*
X023531Y033237D01*
X023076Y033237D01*
X023076Y033397D01*
X022916Y033397D01*
X022916Y034038D01*
X022618Y034038D01*
X022572Y034026D01*
X022531Y034002D01*
X022498Y033968D01*
X022474Y033927D01*
X022462Y033882D01*
X022462Y033397D01*
X022916Y033397D01*
X022916Y033237D01*
X022462Y033237D01*
X022462Y032751D01*
X022474Y032706D01*
X022498Y032665D01*
X022531Y032631D01*
X022572Y032607D01*
X022618Y032595D01*
X022916Y032595D01*
X022916Y033237D01*
X023076Y033237D01*
X023076Y032595D01*
X023374Y032595D01*
X023420Y032607D01*
X023461Y032631D01*
X023488Y032658D01*
X023488Y032579D01*
X023543Y032447D01*
X023626Y032364D01*
X023626Y031746D01*
X023607Y031746D01*
X023513Y031652D01*
X023513Y031048D01*
X023607Y030954D01*
X024146Y030954D01*
X024146Y030192D01*
X024183Y030104D01*
X024250Y030037D01*
X024390Y029897D01*
X024478Y029860D01*
X024485Y029860D01*
X024495Y029850D01*
X024431Y029786D01*
X024431Y029414D01*
X024481Y029364D01*
X024481Y029364D01*
X024447Y029331D01*
X024423Y029289D01*
X024411Y029244D01*
X024411Y029100D01*
X025026Y029100D01*
X024411Y029100D01*
X024411Y028956D01*
X024423Y028911D01*
X024447Y028869D01*
X024481Y028836D01*
X024522Y028812D01*
X024547Y028806D01*
X024520Y028806D01*
X024426Y028712D01*
X024426Y028610D01*
X024116Y028610D01*
X024116Y028672D01*
X024022Y028766D01*
X023417Y028766D01*
X023323Y028672D01*
X023323Y028068D01*
X023417Y027974D01*
X024022Y027974D01*
X024116Y028068D01*
X024116Y028130D01*
X024426Y028130D01*
X024426Y028028D01*
X024520Y027934D01*
X025085Y027934D01*
X025179Y028028D01*
X025179Y028712D01*
X025091Y028800D01*
X025301Y028800D01*
X025213Y028712D01*
X025213Y028028D01*
X025307Y027934D01*
X025873Y027934D01*
X025966Y028028D01*
X025966Y028311D01*
X026012Y028357D01*
X026080Y028424D01*
X026116Y028512D01*
X026116Y028678D01*
X026184Y028610D01*
X026286Y028610D01*
X026286Y028250D01*
X026244Y028250D01*
X026150Y028156D01*
X026150Y027551D01*
X026244Y027457D01*
X026849Y027457D01*
X026942Y027551D01*
X026942Y027755D02*
X027516Y027755D01*
X027516Y027914D02*
X026942Y027914D01*
X026942Y028072D02*
X027516Y028072D01*
X027516Y028231D02*
X026868Y028231D01*
X026766Y028389D02*
X027516Y028389D01*
X027516Y028548D02*
X026766Y028548D01*
X026962Y028706D02*
X027516Y028706D01*
X027516Y028865D02*
X026962Y028865D01*
X026962Y029023D02*
X027516Y029023D01*
X027516Y029182D02*
X026962Y029182D01*
X026891Y029340D02*
X027516Y029340D01*
X027516Y029499D02*
X026962Y029499D01*
X026962Y029657D02*
X027516Y029657D01*
X027516Y029816D02*
X026962Y029816D01*
X026962Y029974D02*
X027516Y029974D01*
X027516Y030133D02*
X026886Y030133D01*
X026766Y030291D02*
X027516Y030291D01*
X027516Y030450D02*
X026845Y030450D01*
X026970Y030608D02*
X027516Y030608D01*
X027516Y030767D02*
X027026Y030767D01*
X027026Y030925D02*
X027516Y030925D01*
X027516Y031084D02*
X026973Y031084D01*
X026854Y031242D02*
X027516Y031242D01*
X027516Y031401D02*
X026276Y031401D01*
X026139Y031242D02*
X026118Y031242D01*
X026019Y031084D02*
X025996Y031084D01*
X025756Y031220D02*
X026376Y031840D01*
X026376Y033210D01*
X026236Y033350D01*
X025546Y033350D01*
X025161Y032986D02*
X024626Y032986D01*
X024626Y033144D02*
X025058Y033144D01*
X025097Y033050D02*
X025016Y033245D01*
X025016Y033455D01*
X025097Y033650D01*
X025246Y033799D01*
X025318Y033829D01*
X025146Y033901D01*
X025043Y034004D01*
X024626Y034004D01*
X024626Y030880D01*
X024786Y030880D01*
X024786Y031154D01*
X024783Y031157D01*
X024728Y031289D01*
X024728Y031431D01*
X024783Y031563D01*
X024883Y031664D01*
X025015Y031718D01*
X025157Y031718D01*
X025289Y031664D01*
X025390Y031563D01*
X025444Y031431D01*
X025444Y031289D01*
X025390Y031157D01*
X025289Y031056D01*
X025266Y031047D01*
X025266Y030880D01*
X025516Y030880D01*
X025516Y031268D01*
X025553Y031356D01*
X026136Y031939D01*
X026136Y033110D01*
X026020Y033110D01*
X025995Y033050D01*
X025846Y032901D01*
X025698Y032839D01*
X025734Y032820D01*
X025804Y032770D01*
X025866Y032708D01*
X025917Y032638D01*
X025956Y032561D01*
X025983Y032479D01*
X025996Y032393D01*
X025996Y032370D01*
X025466Y032370D01*
X025466Y032330D01*
X025466Y031800D01*
X025489Y031800D01*
X025575Y031814D01*
X025657Y031840D01*
X025734Y031880D01*
X025804Y031930D01*
X025866Y031992D01*
X025917Y032062D01*
X025956Y032139D01*
X025983Y032221D01*
X025996Y032307D01*
X025996Y032330D01*
X025466Y032330D01*
X025426Y032330D01*
X024896Y032330D01*
X024896Y032307D01*
X024910Y032221D01*
X024936Y032139D01*
X024976Y032062D01*
X025027Y031992D01*
X025088Y031930D01*
X025158Y031880D01*
X025235Y031840D01*
X025317Y031814D01*
X025403Y031800D01*
X025426Y031800D01*
X025426Y032330D01*
X025426Y032370D01*
X024896Y032370D01*
X024896Y032393D01*
X024910Y032479D01*
X024936Y032561D01*
X024976Y032638D01*
X025027Y032708D01*
X025088Y032770D01*
X025158Y032820D01*
X025235Y032860D01*
X025297Y032880D01*
X025246Y032901D01*
X025097Y033050D01*
X025171Y032827D02*
X024626Y032827D01*
X024626Y032669D02*
X024998Y032669D01*
X024920Y032510D02*
X024626Y032510D01*
X024626Y032352D02*
X025426Y032352D01*
X025466Y032352D02*
X026136Y032352D01*
X026136Y032510D02*
X025972Y032510D01*
X025895Y032669D02*
X026136Y032669D01*
X026136Y032827D02*
X025721Y032827D01*
X025931Y032986D02*
X026136Y032986D01*
X026465Y033461D02*
X027516Y033461D01*
X027516Y033303D02*
X026598Y033303D01*
X026616Y033144D02*
X027516Y033144D01*
X027516Y032986D02*
X026616Y032986D01*
X026616Y032827D02*
X027516Y032827D01*
X027516Y032669D02*
X026616Y032669D01*
X026616Y032510D02*
X027516Y032510D01*
X027516Y032352D02*
X026616Y032352D01*
X026616Y032193D02*
X027516Y032193D01*
X027516Y032035D02*
X026616Y032035D01*
X026616Y031876D02*
X027516Y031876D01*
X027516Y031718D02*
X026585Y031718D01*
X026512Y031637D02*
X026512Y031637D01*
X026435Y031559D02*
X027516Y031559D01*
X026526Y030820D02*
X026496Y030850D01*
X026526Y030820D02*
X026526Y029774D01*
X026522Y029770D01*
X026196Y029770D01*
X025876Y029450D01*
X025876Y028560D01*
X025686Y028370D01*
X025590Y028370D01*
X025213Y028389D02*
X025179Y028389D01*
X025179Y028231D02*
X025213Y028231D01*
X025213Y028072D02*
X025179Y028072D01*
X025179Y028548D02*
X025213Y028548D01*
X025213Y028706D02*
X025179Y028706D01*
X025026Y029100D02*
X025026Y029100D01*
X025026Y029600D02*
X025556Y029600D01*
X025756Y029800D01*
X025756Y031220D01*
X025597Y031401D02*
X025444Y031401D01*
X025425Y031242D02*
X025516Y031242D01*
X025516Y031084D02*
X025316Y031084D01*
X025266Y030925D02*
X025516Y030925D01*
X025086Y031360D02*
X025026Y031300D01*
X025026Y030600D01*
X024786Y030925D02*
X024626Y030925D01*
X024626Y031084D02*
X024786Y031084D01*
X024747Y031242D02*
X024626Y031242D01*
X024626Y031401D02*
X024728Y031401D01*
X024781Y031559D02*
X024626Y031559D01*
X024626Y031718D02*
X025014Y031718D01*
X025159Y031718D02*
X025914Y031718D01*
X026073Y031876D02*
X025727Y031876D01*
X025897Y032035D02*
X026136Y032035D01*
X026136Y032193D02*
X025973Y032193D01*
X025466Y032193D02*
X025426Y032193D01*
X025426Y032035D02*
X025466Y032035D01*
X025466Y031876D02*
X025426Y031876D01*
X025165Y031876D02*
X024626Y031876D01*
X024626Y032035D02*
X024996Y032035D01*
X024919Y032193D02*
X024626Y032193D01*
X024146Y032986D02*
X023972Y032986D01*
X024146Y033144D02*
X023531Y033144D01*
X023531Y032986D02*
X023720Y032986D01*
X023531Y032827D02*
X023532Y032827D01*
X023517Y032510D02*
X021991Y032510D01*
X022189Y032669D02*
X022496Y032669D01*
X022462Y032827D02*
X022234Y032827D01*
X022208Y032986D02*
X022462Y032986D01*
X022462Y033144D02*
X022089Y033144D01*
X021876Y032850D02*
X021576Y032550D01*
X018396Y032550D01*
X018167Y032827D02*
X017996Y032827D01*
X017996Y032986D02*
X021545Y032986D01*
X021514Y032827D02*
X018626Y032827D01*
X017996Y033778D02*
X019418Y033778D01*
X019384Y033813D02*
X019459Y033737D01*
X019543Y033673D01*
X019636Y033619D01*
X019734Y033578D01*
X019837Y033551D01*
X019916Y033540D01*
X019916Y034270D01*
X019187Y034270D01*
X019197Y034191D01*
X019225Y034088D01*
X019265Y033990D01*
X019319Y033897D01*
X019384Y033813D01*
X019296Y033937D02*
X017996Y033937D01*
X017996Y034095D02*
X019223Y034095D01*
X019189Y034254D02*
X017996Y034254D01*
X017996Y034412D02*
X019916Y034412D01*
X019916Y034430D02*
X019916Y034270D01*
X020076Y034270D01*
X020076Y033540D01*
X020155Y033551D01*
X020258Y033578D01*
X020357Y033619D01*
X020449Y033673D01*
X020533Y033737D01*
X020609Y033813D01*
X020674Y033897D01*
X020727Y033990D01*
X020768Y034088D01*
X020795Y034191D01*
X020806Y034270D01*
X020076Y034270D01*
X020076Y034430D01*
X019916Y034430D01*
X019187Y034430D01*
X019197Y034509D01*
X019225Y034612D01*
X019265Y034710D01*
X019319Y034803D01*
X019384Y034887D01*
X019459Y034963D01*
X019543Y035027D01*
X019636Y035081D01*
X019734Y035122D01*
X019837Y035149D01*
X019916Y035160D01*
X019916Y034430D01*
X019916Y034571D02*
X020076Y034571D01*
X020076Y034430D02*
X020076Y035160D01*
X020155Y035149D01*
X020258Y035122D01*
X020357Y035081D01*
X020449Y035027D01*
X020533Y034963D01*
X020609Y034887D01*
X020674Y034803D01*
X020727Y034710D01*
X020768Y034612D01*
X020795Y034509D01*
X020806Y034430D01*
X020076Y034430D01*
X020076Y034412D02*
X024325Y034412D01*
X024176Y034254D02*
X020804Y034254D01*
X020770Y034095D02*
X024146Y034095D01*
X024146Y033937D02*
X023513Y033937D01*
X023518Y033927D02*
X023495Y033968D01*
X023461Y034002D01*
X023420Y034026D01*
X023374Y034038D01*
X023076Y034038D01*
X023076Y033397D01*
X023531Y033397D01*
X023531Y033882D01*
X023518Y033927D01*
X023531Y033778D02*
X024146Y033778D01*
X024146Y033620D02*
X023531Y033620D01*
X023531Y033461D02*
X024146Y033461D01*
X024146Y033303D02*
X023076Y033303D01*
X023076Y033461D02*
X022916Y033461D01*
X022916Y033303D02*
X017996Y033303D01*
X017996Y033461D02*
X022462Y033461D01*
X022462Y033620D02*
X020357Y033620D01*
X020574Y033778D02*
X022462Y033778D01*
X022479Y033937D02*
X020696Y033937D01*
X020779Y034571D02*
X024964Y034571D01*
X025076Y034729D02*
X023464Y034729D01*
X023511Y034888D02*
X025042Y034888D01*
X025016Y035046D02*
X023511Y035046D01*
X023030Y035350D02*
X022996Y035383D01*
X022482Y035363D02*
X017996Y035363D01*
X017996Y035205D02*
X022482Y035205D01*
X022482Y035046D02*
X020417Y035046D01*
X020608Y034888D02*
X022482Y034888D01*
X022529Y034729D02*
X020716Y034729D01*
X020076Y034729D02*
X019916Y034729D01*
X019916Y034888D02*
X020076Y034888D01*
X020076Y035046D02*
X019916Y035046D01*
X019576Y035046D02*
X017996Y035046D01*
X017996Y034888D02*
X019384Y034888D01*
X019276Y034729D02*
X017996Y034729D01*
X017996Y034571D02*
X019214Y034571D01*
X019916Y034254D02*
X020076Y034254D01*
X020076Y034095D02*
X019916Y034095D01*
X019916Y033937D02*
X020076Y033937D01*
X020076Y033778D02*
X019916Y033778D01*
X019916Y033620D02*
X020076Y033620D01*
X019635Y033620D02*
X017996Y033620D01*
X017996Y033144D02*
X021664Y033144D01*
X021717Y032352D02*
X023626Y032352D01*
X023626Y031876D02*
X022911Y031876D01*
X022687Y031401D02*
X018548Y031401D01*
X018306Y031084D02*
X019695Y031084D01*
X019450Y030925D02*
X018306Y030925D01*
X018306Y030767D02*
X019310Y030767D01*
X019245Y030608D02*
X018306Y030608D01*
X018306Y030450D02*
X019203Y030450D01*
X019203Y030291D02*
X018306Y030291D01*
X018306Y030133D02*
X019228Y030133D01*
X019293Y029974D02*
X018306Y029974D01*
X018306Y029816D02*
X018755Y029816D01*
X018653Y029657D02*
X018306Y029657D01*
X018306Y029499D02*
X018638Y029499D01*
X018700Y029340D02*
X018306Y029340D01*
X018306Y029182D02*
X019154Y029182D01*
X019339Y029657D02*
X019597Y029657D01*
X019409Y029816D02*
X019237Y029816D01*
X022726Y027914D02*
X026150Y027914D01*
X026150Y028072D02*
X025966Y028072D01*
X025966Y028231D02*
X026225Y028231D01*
X026286Y028389D02*
X026045Y028389D01*
X026116Y028548D02*
X026286Y028548D01*
X026526Y028986D02*
X026526Y027873D01*
X026546Y027853D01*
X026508Y027438D02*
X026584Y027438D01*
X026584Y027280D02*
X026508Y027280D01*
X026508Y027121D02*
X026584Y027121D01*
X026584Y026963D02*
X026508Y026963D01*
X026508Y026804D02*
X026584Y026804D01*
X026584Y026646D02*
X026508Y026646D01*
X026201Y026646D02*
X023709Y026646D01*
X023756Y026804D02*
X026130Y026804D01*
X026130Y026963D02*
X023747Y026963D01*
X023676Y027121D02*
X026130Y027121D01*
X026130Y027280D02*
X023461Y027280D01*
X023323Y028072D02*
X023289Y028072D01*
X023289Y028231D02*
X023323Y028231D01*
X023323Y028389D02*
X023289Y028389D01*
X023289Y028548D02*
X023323Y028548D01*
X023357Y028706D02*
X023255Y028706D01*
X023512Y028865D02*
X024452Y028865D01*
X024426Y028706D02*
X024082Y028706D01*
X024411Y029023D02*
X023561Y029023D01*
X023561Y029182D02*
X024411Y029182D01*
X024457Y029340D02*
X023507Y029340D01*
X023561Y029499D02*
X024431Y029499D01*
X024431Y029657D02*
X023561Y029657D01*
X023532Y029816D02*
X024460Y029816D01*
X024313Y029974D02*
X023561Y029974D01*
X023561Y030133D02*
X024171Y030133D01*
X024146Y030291D02*
X023556Y030291D01*
X023561Y030450D02*
X024146Y030450D01*
X024146Y030608D02*
X023561Y030608D01*
X023561Y030767D02*
X024146Y030767D01*
X024146Y030925D02*
X023206Y030925D01*
X023479Y031084D02*
X023513Y031084D01*
X023513Y031242D02*
X023479Y031242D01*
X023479Y031401D02*
X023513Y031401D01*
X023513Y031559D02*
X023479Y031559D01*
X023414Y031718D02*
X023578Y031718D01*
X023083Y031350D02*
X022966Y031233D01*
X022966Y030600D01*
X024386Y030240D02*
X024386Y034134D01*
X024496Y034244D01*
X025340Y034244D01*
X025446Y034350D01*
X025817Y034729D02*
X027516Y034729D01*
X027516Y034571D02*
X025928Y034571D01*
X025976Y034412D02*
X027516Y034412D01*
X027516Y034254D02*
X025976Y034254D01*
X025914Y034095D02*
X027516Y034095D01*
X027516Y033937D02*
X025782Y033937D01*
X025868Y033778D02*
X027516Y033778D01*
X027516Y033620D02*
X026008Y033620D01*
X025225Y033778D02*
X024626Y033778D01*
X024626Y033620D02*
X025084Y033620D01*
X025019Y033461D02*
X024626Y033461D01*
X024626Y033303D02*
X025016Y033303D01*
X025110Y033937D02*
X024626Y033937D01*
X025016Y035680D02*
X023511Y035680D01*
X023511Y035839D02*
X025068Y035839D01*
X025302Y036246D02*
X025560Y036097D01*
X025847Y036020D01*
X026145Y036020D01*
X026432Y036097D01*
X026690Y036246D01*
X026900Y036456D01*
X027049Y036714D01*
X027126Y037001D01*
X027126Y037299D01*
X027049Y037586D01*
X026900Y037844D01*
X026690Y038054D01*
X026432Y038203D01*
X026145Y038280D01*
X025847Y038280D01*
X025560Y038203D01*
X025302Y038054D01*
X025092Y037844D01*
X024943Y037586D01*
X024866Y037299D01*
X024866Y037001D01*
X024943Y036714D01*
X025092Y036456D01*
X025302Y036246D01*
X025234Y036314D02*
X018148Y036314D01*
X018101Y036156D02*
X025459Y036156D01*
X025082Y036473D02*
X018206Y036473D01*
X018273Y036631D02*
X024991Y036631D01*
X024923Y036790D02*
X018353Y036790D01*
X018443Y036948D02*
X024880Y036948D01*
X024866Y037107D02*
X024281Y037107D01*
X024254Y037080D02*
X024316Y037142D01*
X024367Y037212D01*
X024406Y037289D01*
X024433Y037371D01*
X024446Y037457D01*
X024446Y037480D01*
X023916Y037480D01*
X023916Y036950D01*
X023939Y036950D01*
X024025Y036964D01*
X024107Y036990D01*
X024184Y037030D01*
X024254Y037080D01*
X024394Y037265D02*
X024866Y037265D01*
X024900Y037424D02*
X024441Y037424D01*
X024446Y037520D02*
X024446Y037543D01*
X024433Y037629D01*
X024406Y037711D01*
X024367Y037788D01*
X024316Y037858D01*
X024254Y037920D01*
X024184Y037970D01*
X024107Y038010D01*
X024025Y038036D01*
X023939Y038050D01*
X023916Y038050D01*
X023916Y037520D01*
X023876Y037520D01*
X023876Y037480D01*
X023346Y037480D01*
X023346Y037457D01*
X023360Y037371D01*
X023386Y037289D01*
X023426Y037212D01*
X023477Y037142D01*
X023538Y037080D01*
X023608Y037030D01*
X023685Y036990D01*
X023767Y036964D01*
X023853Y036950D01*
X023876Y036950D01*
X023876Y037480D01*
X023916Y037480D01*
X023916Y037520D01*
X024446Y037520D01*
X024440Y037582D02*
X024942Y037582D01*
X025032Y037741D02*
X024391Y037741D01*
X024275Y037899D02*
X025147Y037899D01*
X025308Y038058D02*
X019571Y038058D01*
X019778Y038216D02*
X025609Y038216D01*
X026384Y038216D02*
X027516Y038216D01*
X027516Y038058D02*
X026684Y038058D01*
X026845Y037899D02*
X027516Y037899D01*
X027516Y037741D02*
X026960Y037741D01*
X027050Y037582D02*
X027516Y037582D01*
X027516Y037424D02*
X027093Y037424D01*
X027126Y037265D02*
X027516Y037265D01*
X027516Y037107D02*
X027126Y037107D01*
X027112Y036948D02*
X027516Y036948D01*
X027516Y036790D02*
X027069Y036790D01*
X027001Y036631D02*
X027516Y036631D01*
X027516Y036473D02*
X026910Y036473D01*
X026758Y036314D02*
X027516Y036314D01*
X027516Y036156D02*
X026534Y036156D01*
X026024Y035839D02*
X027516Y035839D01*
X027516Y035997D02*
X023505Y035997D01*
X023232Y036970D02*
X023326Y037064D01*
X023326Y037936D01*
X023232Y038030D01*
X022360Y038030D01*
X022266Y037936D01*
X022266Y037064D01*
X022360Y036970D01*
X023232Y036970D01*
X023326Y037107D02*
X023512Y037107D01*
X023399Y037265D02*
X023326Y037265D01*
X023326Y037424D02*
X023351Y037424D01*
X023346Y037520D02*
X023876Y037520D01*
X023876Y038050D01*
X023853Y038050D01*
X023767Y038036D01*
X023685Y038010D01*
X023608Y037970D01*
X023538Y037920D01*
X023477Y037858D01*
X023426Y037788D01*
X023386Y037711D01*
X023360Y037629D01*
X023346Y037543D01*
X023346Y037520D01*
X023352Y037582D02*
X023326Y037582D01*
X023326Y037741D02*
X023401Y037741D01*
X023326Y037899D02*
X023517Y037899D01*
X023876Y037899D02*
X023916Y037899D01*
X023916Y037741D02*
X023876Y037741D01*
X023876Y037582D02*
X023916Y037582D01*
X023916Y037424D02*
X023876Y037424D01*
X023876Y037265D02*
X023916Y037265D01*
X023916Y037107D02*
X023876Y037107D01*
X022266Y037107D02*
X018551Y037107D01*
X018666Y037265D02*
X022266Y037265D01*
X022266Y037424D02*
X018812Y037424D01*
X018974Y037582D02*
X022266Y037582D01*
X022266Y037741D02*
X019158Y037741D01*
X019365Y037899D02*
X022266Y037899D01*
X022488Y035997D02*
X018062Y035997D01*
X018035Y035839D02*
X022482Y035839D01*
X022482Y035680D02*
X018013Y035680D01*
X018004Y035522D02*
X022482Y035522D01*
X022916Y033937D02*
X023076Y033937D01*
X023076Y033778D02*
X022916Y033778D01*
X022916Y033620D02*
X023076Y033620D01*
X023076Y033144D02*
X022916Y033144D01*
X022916Y032986D02*
X023076Y032986D01*
X023076Y032827D02*
X022916Y032827D01*
X022916Y032669D02*
X023076Y032669D01*
X024386Y030240D02*
X024526Y030100D01*
X025026Y030100D01*
X025391Y031559D02*
X025756Y031559D01*
X026116Y029340D02*
X026162Y029340D01*
X026150Y027755D02*
X022726Y027755D01*
X022726Y027597D02*
X026150Y027597D01*
X026268Y027438D02*
X022780Y027438D01*
X023720Y028370D02*
X024802Y028370D01*
X024426Y028072D02*
X024116Y028072D01*
X026050Y034888D02*
X027516Y034888D01*
X027516Y035046D02*
X026076Y035046D01*
X026076Y035205D02*
X027516Y035205D01*
X027516Y035363D02*
X026076Y035363D01*
X026076Y035522D02*
X027516Y035522D01*
X027516Y035680D02*
X026076Y035680D01*
X027516Y038375D02*
X019985Y038375D01*
X020191Y038533D02*
X027516Y038533D01*
X026546Y020350D02*
X025446Y020350D01*
X024547Y020350D01*
X023445Y020350D02*
X022547Y020350D01*
X021445Y020350D02*
X020547Y020350D01*
X020547Y019350D01*
X019445Y019350D02*
X019445Y017350D01*
X019445Y016350D01*
X018326Y016350D01*
X018006Y016030D01*
X018006Y014516D01*
X018042Y014480D01*
X018042Y013930D01*
X018042Y011610D01*
X018072Y011480D01*
X016551Y009550D02*
X016551Y009150D01*
X016651Y004950D02*
X016651Y004296D01*
X016696Y004250D01*
X016696Y004450D01*
X016596Y004550D01*
X019396Y004550D01*
X019796Y004150D01*
X019796Y003257D01*
X019787Y003248D01*
X016651Y004250D02*
X016651Y004950D01*
X020547Y016350D02*
X020547Y017350D01*
X021445Y017350D01*
X022547Y017350D02*
X023445Y017350D01*
X024547Y017350D02*
X025446Y017350D01*
X026546Y017350D01*
X019445Y019350D02*
X019445Y020350D01*
D37*
X018426Y018170D03*
X017476Y018210D03*
X016986Y017880D03*
X016006Y019220D03*
X015266Y019110D03*
X016386Y020690D03*
X015506Y016840D03*
X016006Y016440D03*
X014106Y016930D03*
X013606Y020130D03*
X009896Y018220D03*
X009496Y017550D03*
X008396Y014350D03*
X005796Y014250D03*
X009796Y009650D03*
X010796Y006850D03*
X011896Y010050D03*
X014096Y008750D03*
X015296Y010050D03*
X015396Y006350D03*
X013796Y006300D03*
X012896Y003350D03*
X015696Y000650D03*
X016496Y002250D03*
X021756Y010550D03*
X021956Y014650D03*
X020546Y018160D03*
X018756Y015240D03*
X018796Y012250D03*
X020076Y024880D03*
X018496Y026750D03*
X018496Y027450D03*
X018996Y029550D03*
X018736Y030840D03*
X018396Y032550D03*
X019216Y035520D03*
X020736Y035450D03*
X020896Y033430D03*
X021876Y032850D03*
X021136Y030700D03*
X021256Y028890D03*
X023846Y032650D03*
X025086Y031360D03*
X027016Y032170D03*
X027006Y032730D03*
X027136Y038360D03*
X020666Y038330D03*
X013646Y032600D03*
X012996Y035850D03*
X011996Y038150D03*
X005696Y037950D03*
X011196Y027850D03*
X012596Y025550D03*
X013596Y027750D03*
X010096Y023950D03*
X009196Y024850D03*
X007396Y024050D03*
X005946Y021550D03*
X005896Y022400D03*
X027156Y024540D03*
D38*
X025546Y035350D02*
X023030Y035350D01*
X015146Y012940D02*
X014046Y012940D01*
X012546Y007704D02*
X011646Y007704D01*
X011646Y007685D01*
X009812Y007685D01*
X009596Y004200D02*
X010746Y004200D01*
X011296Y003650D01*
X011296Y002317D01*
X011763Y001850D01*
X012629Y001476D02*
X013576Y001476D01*
X013596Y001496D01*
X012546Y007580D02*
X012546Y007704D01*
X018052Y011500D02*
X018072Y011480D01*
X019787Y006452D02*
X019789Y006450D01*
X023196Y006450D01*
X023146Y006400D01*
X023146Y001750D01*
X022746Y001350D01*
X019889Y001350D01*
X023196Y006450D02*
X024296Y006450D01*
X024296Y007950D01*
X023996Y008250D01*
X024296Y006450D02*
X024296Y006100D01*
X024296Y005000D01*
D39*
X008596Y000600D02*
X008596Y009710D01*
X008604Y009810D01*
X008628Y009908D01*
X009525Y009908D01*
X009525Y009900D02*
X009554Y009872D01*
X009518Y009836D01*
X009468Y009715D01*
X009468Y009585D01*
X009518Y009464D01*
X009610Y009372D01*
X009731Y009322D01*
X009861Y009322D01*
X009982Y009372D01*
X010074Y009464D01*
X010124Y009585D01*
X010124Y009715D01*
X010079Y009825D01*
X010097Y009814D01*
X010135Y009804D01*
X010294Y009804D01*
X010294Y010152D01*
X010371Y010152D01*
X010371Y010229D01*
X010660Y010229D01*
X010660Y010350D01*
X015548Y010350D01*
X015545Y010344D01*
X015534Y010306D01*
X015534Y010079D01*
X015813Y010079D01*
X015813Y010021D01*
X015871Y010021D01*
X015871Y009664D01*
X015996Y009664D01*
X015996Y009516D01*
X015631Y009516D01*
X015554Y009440D01*
X015554Y008860D01*
X015631Y008784D01*
X015652Y008784D01*
X015652Y007574D01*
X015506Y007429D01*
X015506Y007429D01*
X015417Y007340D01*
X015306Y007229D01*
X015306Y006668D01*
X015210Y006628D01*
X015118Y006536D01*
X015068Y006415D01*
X015068Y006391D01*
X015017Y006340D01*
X014906Y006229D01*
X014906Y003640D01*
X014538Y003640D01*
X014538Y003740D01*
X014462Y003816D01*
X014039Y003816D01*
X013963Y003740D01*
X013963Y003160D01*
X014039Y003084D01*
X014462Y003084D01*
X014538Y003160D01*
X014538Y003260D01*
X015075Y003260D01*
X015175Y003360D01*
X015286Y003471D01*
X015286Y006040D01*
X015331Y006022D01*
X015461Y006022D01*
X015582Y006072D01*
X015674Y006164D01*
X015724Y006285D01*
X015724Y006415D01*
X015686Y006507D01*
X015686Y007071D01*
X015775Y007160D01*
X015816Y007160D01*
X015816Y006346D01*
X015892Y006270D01*
X015996Y006270D01*
X015996Y005336D01*
X015971Y005336D01*
X015971Y004979D01*
X015913Y004979D01*
X015913Y005336D01*
X015765Y005336D01*
X015726Y005326D01*
X015692Y005306D01*
X015664Y005278D01*
X015645Y005244D01*
X015634Y005206D01*
X015634Y004979D01*
X015913Y004979D01*
X015913Y004921D01*
X015634Y004921D01*
X015634Y004694D01*
X015645Y004656D01*
X015664Y004622D01*
X015692Y004594D01*
X015702Y004588D01*
X015654Y004540D01*
X015654Y003960D01*
X015731Y003884D01*
X015752Y003884D01*
X015752Y002726D01*
X015816Y002661D01*
X015816Y002314D01*
X015621Y002314D01*
X015621Y002434D01*
X015545Y002510D01*
X014847Y002510D01*
X014771Y002434D01*
X014771Y001814D01*
X014824Y001761D01*
X014809Y001752D01*
X014781Y001724D01*
X014761Y001690D01*
X014751Y001652D01*
X014751Y001426D01*
X015146Y001426D01*
X015146Y001326D01*
X014751Y001326D01*
X014751Y001100D01*
X014761Y001062D01*
X014781Y001028D01*
X014809Y001000D01*
X014843Y000980D01*
X014881Y000970D01*
X015146Y000970D01*
X015146Y001326D01*
X015246Y001326D01*
X015246Y000970D01*
X015511Y000970D01*
X015549Y000980D01*
X015584Y001000D01*
X015611Y001028D01*
X015631Y001062D01*
X015641Y001100D01*
X015641Y001326D01*
X015246Y001326D01*
X015246Y001426D01*
X015641Y001426D01*
X015641Y001652D01*
X015631Y001690D01*
X015611Y001724D01*
X015584Y001752D01*
X015568Y001761D01*
X015621Y001814D01*
X015621Y001934D01*
X015816Y001934D01*
X015816Y001346D01*
X015892Y001270D01*
X015996Y001270D01*
X015996Y000600D01*
X008596Y000600D01*
X008596Y000649D02*
X015996Y000649D01*
X015996Y000747D02*
X008596Y000747D01*
X008596Y000846D02*
X015996Y000846D01*
X015996Y000944D02*
X009848Y000944D01*
X009869Y000955D02*
X009796Y000918D01*
X009718Y000893D01*
X009646Y000881D01*
X009646Y001350D01*
X009546Y001350D01*
X009078Y001350D01*
X009089Y001278D01*
X009114Y001200D01*
X009151Y001127D01*
X009200Y001061D01*
X009257Y001003D01*
X009324Y000955D01*
X009397Y000918D01*
X009474Y000893D01*
X009546Y000881D01*
X009546Y001350D01*
X009546Y001450D01*
X009078Y001450D01*
X009089Y001522D01*
X009114Y001600D01*
X009151Y001673D01*
X009200Y001739D01*
X009257Y001797D01*
X009324Y001845D01*
X009397Y001882D01*
X009474Y001907D01*
X009546Y001919D01*
X009546Y001450D01*
X009646Y001450D01*
X009646Y001919D01*
X009718Y001907D01*
X009796Y001882D01*
X009869Y001845D01*
X009935Y001797D01*
X009993Y001739D01*
X010041Y001673D01*
X010078Y001600D01*
X010103Y001522D01*
X010115Y001450D01*
X009646Y001450D01*
X009646Y001350D01*
X010115Y001350D01*
X010103Y001278D01*
X010078Y001200D01*
X010041Y001127D01*
X009993Y001061D01*
X009935Y001003D01*
X009869Y000955D01*
X009975Y001043D02*
X014772Y001043D01*
X014751Y001141D02*
X010048Y001141D01*
X010091Y001240D02*
X012224Y001240D01*
X012224Y001225D02*
X012300Y001149D01*
X012959Y001149D01*
X013035Y001225D01*
X013035Y001226D01*
X013288Y001226D01*
X013306Y001208D01*
X013886Y001208D01*
X013962Y001284D01*
X013962Y001360D01*
X014175Y001360D01*
X014286Y001471D01*
X014386Y001571D01*
X014386Y002729D01*
X014275Y002840D01*
X013975Y003140D01*
X013809Y003140D01*
X013829Y003160D01*
X013829Y003740D01*
X013753Y003816D01*
X013752Y003816D01*
X013752Y003984D01*
X013753Y003984D01*
X013829Y004060D01*
X013829Y004640D01*
X013756Y004713D01*
X013756Y004991D01*
X013789Y005023D01*
X013806Y004993D01*
X013834Y004965D01*
X013868Y004945D01*
X013906Y004935D01*
X014036Y004935D01*
X014036Y005510D01*
X013796Y005510D01*
X013796Y005530D01*
X014036Y005530D01*
X014036Y005510D01*
X014056Y005510D01*
X014056Y004935D01*
X014186Y004935D01*
X014224Y004945D01*
X014258Y004965D01*
X014286Y004993D01*
X014306Y005027D01*
X014316Y005065D01*
X014316Y005510D01*
X014056Y005510D01*
X014056Y005530D01*
X014036Y005530D01*
X014036Y006105D01*
X013906Y006105D01*
X013868Y006095D01*
X013834Y006075D01*
X013806Y006047D01*
X013789Y006017D01*
X013720Y006085D01*
X013372Y006085D01*
X013296Y006009D01*
X013220Y006085D01*
X012872Y006085D01*
X012796Y006009D01*
X012720Y006085D01*
X012372Y006085D01*
X012296Y006009D01*
X012296Y005744D01*
X011712Y005744D01*
X011712Y005766D01*
X011636Y005842D01*
X011056Y005842D01*
X010980Y005766D01*
X010980Y005343D01*
X011056Y005267D01*
X011636Y005267D01*
X011712Y005343D01*
X011712Y005364D01*
X012296Y005364D01*
X012296Y005031D01*
X012372Y004955D01*
X012720Y004955D01*
X012796Y005031D01*
X012796Y006009D01*
X012796Y005031D01*
X012836Y004991D01*
X012836Y004887D01*
X012809Y004860D01*
X012741Y004792D01*
X012606Y004792D01*
X012530Y004716D01*
X012530Y004714D01*
X012456Y004714D01*
X012413Y004757D01*
X011979Y004757D01*
X011903Y004681D01*
X011903Y004325D01*
X011979Y004249D01*
X012413Y004249D01*
X012459Y004294D01*
X012530Y004294D01*
X012530Y004293D01*
X012606Y004217D01*
X013186Y004217D01*
X013254Y004285D01*
X013254Y004060D01*
X013331Y003984D01*
X013332Y003984D01*
X013332Y003816D01*
X013331Y003816D01*
X013262Y003748D01*
X013262Y004007D01*
X013186Y004083D01*
X012606Y004083D01*
X012530Y004007D01*
X012530Y003584D01*
X012606Y003508D01*
X012607Y003508D01*
X012568Y003415D01*
X012568Y003285D01*
X012618Y003164D01*
X012642Y003140D01*
X011886Y003140D01*
X011886Y003441D01*
X011893Y003415D01*
X011913Y003381D01*
X011941Y003353D01*
X011975Y003333D01*
X012013Y003323D01*
X012184Y003323D01*
X012184Y003585D01*
X012208Y003585D01*
X012208Y003323D01*
X012379Y003323D01*
X012417Y003333D01*
X012452Y003353D01*
X012480Y003381D01*
X012499Y003415D01*
X012510Y003453D01*
X012510Y003585D01*
X012208Y003585D01*
X012208Y003609D01*
X012510Y003609D01*
X012510Y003741D01*
X012499Y003779D01*
X012480Y003813D01*
X012452Y003841D01*
X012417Y003861D01*
X012379Y003871D01*
X012208Y003871D01*
X012208Y003609D01*
X012184Y003609D01*
X012184Y003871D01*
X012013Y003871D01*
X011975Y003861D01*
X011941Y003841D01*
X011913Y003813D01*
X011893Y003779D01*
X011886Y003754D01*
X011886Y003929D01*
X011775Y004040D01*
X011536Y004279D01*
X011536Y004558D01*
X011636Y004558D01*
X011712Y004634D01*
X011712Y005057D01*
X011636Y005133D01*
X011056Y005133D01*
X010980Y005057D01*
X010980Y004634D01*
X011056Y004558D01*
X011156Y004558D01*
X011156Y004144D01*
X010888Y004412D01*
X010796Y004450D01*
X010034Y004450D01*
X010020Y004483D01*
X009879Y004624D01*
X009696Y004700D01*
X009497Y004700D01*
X009313Y004624D01*
X009172Y004483D01*
X009096Y004299D01*
X009096Y004101D01*
X009172Y003917D01*
X009313Y003776D01*
X009497Y003700D01*
X009696Y003700D01*
X009879Y003776D01*
X010020Y003917D01*
X010034Y003950D01*
X010643Y003950D01*
X011046Y003546D01*
X011046Y002267D01*
X011084Y002175D01*
X011358Y001902D01*
X011358Y001599D01*
X011434Y001523D01*
X012093Y001523D01*
X012169Y001599D01*
X012169Y002101D01*
X012093Y002177D01*
X011790Y002177D01*
X011546Y002420D01*
X011546Y002931D01*
X011606Y002871D01*
X011717Y002760D01*
X013817Y002760D01*
X014006Y002571D01*
X014006Y001740D01*
X013929Y001740D01*
X013886Y001783D01*
X013306Y001783D01*
X013249Y001726D01*
X013035Y001726D01*
X013035Y001727D01*
X012959Y001803D01*
X012300Y001803D01*
X012224Y001727D01*
X012224Y001225D01*
X012224Y001338D02*
X010113Y001338D01*
X010099Y001535D02*
X011421Y001535D01*
X011358Y001634D02*
X010061Y001634D01*
X009997Y001732D02*
X011358Y001732D01*
X011358Y001831D02*
X009888Y001831D01*
X009986Y001980D02*
X010024Y001990D01*
X010058Y002010D01*
X010086Y002038D01*
X010106Y002072D01*
X010116Y002110D01*
X010116Y002450D01*
X009646Y002450D01*
X009646Y001980D01*
X009986Y001980D01*
X010076Y002028D02*
X011232Y002028D01*
X011330Y001929D02*
X008596Y001929D01*
X008596Y001831D02*
X009305Y001831D01*
X009195Y001732D02*
X008596Y001732D01*
X008596Y001634D02*
X009132Y001634D01*
X009093Y001535D02*
X008596Y001535D01*
X008596Y001437D02*
X009546Y001437D01*
X009546Y001535D02*
X009646Y001535D01*
X009646Y001437D02*
X012224Y001437D01*
X012224Y001535D02*
X012105Y001535D01*
X012169Y001634D02*
X012224Y001634D01*
X012229Y001732D02*
X012169Y001732D01*
X012169Y001831D02*
X014006Y001831D01*
X014006Y001929D02*
X013927Y001929D01*
X013925Y001927D02*
X013952Y001955D01*
X013972Y001989D01*
X013982Y002027D01*
X013982Y002176D01*
X013625Y002176D01*
X013625Y002233D01*
X013982Y002233D01*
X013982Y002382D01*
X013972Y002420D01*
X013952Y002454D01*
X013925Y002482D01*
X013890Y002502D01*
X013852Y002512D01*
X013625Y002512D01*
X013625Y002233D01*
X013567Y002233D01*
X013567Y002176D01*
X013210Y002176D01*
X013210Y002027D01*
X013220Y001989D01*
X013240Y001955D01*
X013268Y001927D01*
X013302Y001907D01*
X013340Y001897D01*
X013567Y001897D01*
X013567Y002176D01*
X013625Y002176D01*
X013625Y001897D01*
X013852Y001897D01*
X013890Y001907D01*
X013925Y001927D01*
X013982Y002028D02*
X014006Y002028D01*
X014006Y002126D02*
X013982Y002126D01*
X014006Y002225D02*
X013625Y002225D01*
X013567Y002225D02*
X012678Y002225D01*
X012678Y002272D02*
X013055Y002272D01*
X013055Y002441D01*
X013045Y002479D01*
X013025Y002513D01*
X012997Y002541D01*
X012963Y002561D01*
X012925Y002571D01*
X012678Y002571D01*
X012678Y002272D01*
X012678Y002176D01*
X013055Y002176D01*
X013055Y002007D01*
X013045Y001969D01*
X013025Y001935D01*
X012997Y001907D01*
X012963Y001887D01*
X012925Y001877D01*
X012678Y001877D01*
X012678Y002176D01*
X012581Y002176D01*
X012204Y002176D01*
X012204Y002007D01*
X012214Y001969D01*
X012234Y001935D01*
X012262Y001907D01*
X012296Y001887D01*
X012334Y001877D01*
X012581Y001877D01*
X012581Y002176D01*
X012581Y002272D01*
X012204Y002272D01*
X012204Y002441D01*
X012214Y002479D01*
X012234Y002513D01*
X012262Y002541D01*
X012296Y002561D01*
X012334Y002571D01*
X012581Y002571D01*
X012581Y002272D01*
X012678Y002272D01*
X012678Y002323D02*
X012581Y002323D01*
X012581Y002225D02*
X011742Y002225D01*
X011643Y002323D02*
X012204Y002323D01*
X012204Y002422D02*
X011546Y002422D01*
X011546Y002520D02*
X012241Y002520D01*
X012581Y002520D02*
X012678Y002520D01*
X012678Y002422D02*
X012581Y002422D01*
X012581Y002126D02*
X012678Y002126D01*
X012678Y002028D02*
X012581Y002028D01*
X012581Y001929D02*
X012678Y001929D01*
X012239Y001929D02*
X012169Y001929D01*
X012169Y002028D02*
X012204Y002028D01*
X012204Y002126D02*
X012143Y002126D01*
X011661Y002816D02*
X011546Y002816D01*
X011546Y002914D02*
X011563Y002914D01*
X011546Y002717D02*
X013860Y002717D01*
X013958Y002619D02*
X011546Y002619D01*
X011046Y002619D02*
X010116Y002619D01*
X010116Y002550D02*
X010116Y002890D01*
X010106Y002928D01*
X010086Y002962D01*
X010058Y002990D01*
X010024Y003010D01*
X009986Y003020D01*
X009646Y003020D01*
X009646Y002550D01*
X009546Y002550D01*
X009546Y002450D01*
X009076Y002450D01*
X009076Y002110D01*
X009086Y002072D01*
X009106Y002038D01*
X009134Y002010D01*
X009168Y001990D01*
X009206Y001980D01*
X009546Y001980D01*
X009546Y002450D01*
X009646Y002450D01*
X009646Y002550D01*
X010116Y002550D01*
X010116Y002422D02*
X011046Y002422D01*
X011046Y002520D02*
X009646Y002520D01*
X009646Y002422D02*
X009546Y002422D01*
X009546Y002520D02*
X008596Y002520D01*
X008596Y002422D02*
X009076Y002422D01*
X009076Y002323D02*
X008596Y002323D01*
X008596Y002225D02*
X009076Y002225D01*
X009076Y002126D02*
X008596Y002126D01*
X008596Y002028D02*
X009116Y002028D01*
X009546Y002028D02*
X009646Y002028D01*
X009646Y002126D02*
X009546Y002126D01*
X009546Y002225D02*
X009646Y002225D01*
X009646Y002323D02*
X009546Y002323D01*
X009546Y002550D02*
X009076Y002550D01*
X009076Y002890D01*
X009086Y002928D01*
X009106Y002962D01*
X009134Y002990D01*
X009168Y003010D01*
X009206Y003020D01*
X009546Y003020D01*
X009546Y002550D01*
X009546Y002619D02*
X009646Y002619D01*
X009646Y002717D02*
X009546Y002717D01*
X009546Y002816D02*
X009646Y002816D01*
X009646Y002914D02*
X009546Y002914D01*
X009546Y003013D02*
X009646Y003013D01*
X010012Y003013D02*
X011046Y003013D01*
X011046Y003111D02*
X008596Y003111D01*
X008596Y003013D02*
X009180Y003013D01*
X009083Y002914D02*
X008596Y002914D01*
X008596Y002816D02*
X009076Y002816D01*
X009076Y002717D02*
X008596Y002717D01*
X008596Y002619D02*
X009076Y002619D01*
X009546Y001831D02*
X009646Y001831D01*
X009646Y001732D02*
X009546Y001732D01*
X009546Y001634D02*
X009646Y001634D01*
X009646Y001338D02*
X009546Y001338D01*
X009546Y001240D02*
X009646Y001240D01*
X009646Y001141D02*
X009546Y001141D01*
X009546Y001043D02*
X009646Y001043D01*
X009646Y000944D02*
X009546Y000944D01*
X009345Y000944D02*
X008596Y000944D01*
X008596Y001043D02*
X009218Y001043D01*
X009144Y001141D02*
X008596Y001141D01*
X008596Y001240D02*
X009101Y001240D01*
X009079Y001338D02*
X008596Y001338D01*
X008596Y003210D02*
X011046Y003210D01*
X011046Y003308D02*
X008596Y003308D01*
X008596Y003407D02*
X011046Y003407D01*
X011046Y003505D02*
X008596Y003505D01*
X008596Y003604D02*
X010989Y003604D01*
X010890Y003702D02*
X009702Y003702D01*
X009491Y003702D02*
X008596Y003702D01*
X008596Y003801D02*
X009288Y003801D01*
X009190Y003899D02*
X008596Y003899D01*
X008596Y003998D02*
X009139Y003998D01*
X009098Y004096D02*
X008596Y004096D01*
X008596Y004195D02*
X009096Y004195D01*
X009096Y004293D02*
X008596Y004293D01*
X008596Y004392D02*
X009135Y004392D01*
X009180Y004490D02*
X008596Y004490D01*
X008596Y004589D02*
X009278Y004589D01*
X009467Y004687D02*
X008596Y004687D01*
X008596Y004786D02*
X010980Y004786D01*
X010980Y004884D02*
X010096Y004884D01*
X010096Y004876D02*
X010096Y005724D01*
X010020Y005800D01*
X010006Y005800D01*
X010006Y007200D01*
X010220Y007200D01*
X010296Y007276D01*
X010296Y007435D01*
X011338Y007435D01*
X011356Y007417D01*
X011936Y007417D01*
X011974Y007454D01*
X012296Y007454D01*
X012296Y007091D01*
X012336Y007051D01*
X012336Y006813D01*
X012486Y006663D01*
X012609Y006540D01*
X014474Y006540D01*
X014506Y006508D01*
X015086Y006508D01*
X015162Y006584D01*
X015162Y007007D01*
X015086Y007083D01*
X014506Y007083D01*
X014430Y007007D01*
X014430Y006960D01*
X012783Y006960D01*
X012756Y006987D01*
X012756Y007051D01*
X012796Y007091D01*
X012796Y008069D01*
X012720Y008145D01*
X012372Y008145D01*
X012296Y008069D01*
X012296Y007954D01*
X011974Y007954D01*
X011936Y007992D01*
X011356Y007992D01*
X011299Y007935D01*
X010296Y007935D01*
X010296Y008124D01*
X010220Y008200D01*
X009372Y008200D01*
X009296Y008124D01*
X009296Y007780D01*
X009249Y007732D01*
X009186Y007582D01*
X009186Y005800D01*
X009172Y005800D01*
X009096Y005724D01*
X009096Y004876D01*
X009172Y004800D01*
X010020Y004800D01*
X010096Y004876D01*
X010096Y004983D02*
X010980Y004983D01*
X011004Y005081D02*
X010096Y005081D01*
X010096Y005180D02*
X012296Y005180D01*
X012296Y005278D02*
X011648Y005278D01*
X011688Y005081D02*
X012296Y005081D01*
X012344Y004983D02*
X011712Y004983D01*
X011712Y004884D02*
X012834Y004884D01*
X012836Y004983D02*
X012748Y004983D01*
X012796Y005081D02*
X012796Y005081D01*
X012796Y005180D02*
X012796Y005180D01*
X012796Y005278D02*
X012796Y005278D01*
X012796Y005377D02*
X012796Y005377D01*
X012796Y005475D02*
X012796Y005475D01*
X012796Y005574D02*
X012796Y005574D01*
X012796Y005672D02*
X012796Y005672D01*
X012796Y005771D02*
X012796Y005771D01*
X012796Y005869D02*
X012796Y005869D01*
X012796Y005968D02*
X012796Y005968D01*
X012739Y006066D02*
X012854Y006066D01*
X013239Y006066D02*
X013354Y006066D01*
X013296Y006009D02*
X013296Y005031D01*
X013296Y006009D01*
X013296Y005968D02*
X013296Y005968D01*
X013296Y005869D02*
X013296Y005869D01*
X013296Y005771D02*
X013296Y005771D01*
X013296Y005672D02*
X013296Y005672D01*
X013296Y005574D02*
X013296Y005574D01*
X013296Y005475D02*
X013296Y005475D01*
X013296Y005377D02*
X013296Y005377D01*
X013296Y005278D02*
X013296Y005278D01*
X013296Y005180D02*
X013296Y005180D01*
X013296Y005081D02*
X013296Y005081D01*
X013296Y005031D02*
X013256Y004991D01*
X013256Y004722D01*
X013262Y004716D01*
X013262Y004648D01*
X013331Y004716D01*
X013336Y004716D01*
X013336Y004991D01*
X013296Y005031D01*
X013256Y004983D02*
X013336Y004983D01*
X013336Y004884D02*
X013256Y004884D01*
X013256Y004786D02*
X013336Y004786D01*
X013302Y004687D02*
X013262Y004687D01*
X013254Y004195D02*
X011620Y004195D01*
X011536Y004293D02*
X011934Y004293D01*
X011903Y004392D02*
X011536Y004392D01*
X011536Y004490D02*
X011903Y004490D01*
X011903Y004589D02*
X011667Y004589D01*
X011712Y004687D02*
X011910Y004687D01*
X011712Y004786D02*
X012600Y004786D01*
X012530Y004293D02*
X012458Y004293D01*
X012530Y003998D02*
X011817Y003998D01*
X011886Y003899D02*
X012530Y003899D01*
X012530Y003801D02*
X012487Y003801D01*
X012510Y003702D02*
X012530Y003702D01*
X012530Y003604D02*
X012208Y003604D01*
X012208Y003702D02*
X012184Y003702D01*
X012184Y003801D02*
X012208Y003801D01*
X012184Y003505D02*
X012208Y003505D01*
X012208Y003407D02*
X012184Y003407D01*
X011898Y003407D02*
X011886Y003407D01*
X011886Y003308D02*
X012568Y003308D01*
X012568Y003407D02*
X012495Y003407D01*
X012510Y003505D02*
X012605Y003505D01*
X012599Y003210D02*
X011886Y003210D01*
X011886Y003801D02*
X011906Y003801D01*
X011718Y004096D02*
X013254Y004096D01*
X013262Y003998D02*
X013316Y003998D01*
X013332Y003899D02*
X013262Y003899D01*
X013262Y003801D02*
X013315Y003801D01*
X013752Y003899D02*
X014906Y003899D01*
X014906Y003801D02*
X014477Y003801D01*
X014538Y003702D02*
X014906Y003702D01*
X014906Y003998D02*
X014504Y003998D01*
X014500Y003994D02*
X014528Y004022D01*
X014548Y004056D01*
X014558Y004094D01*
X014558Y004321D01*
X014279Y004321D01*
X014279Y003964D01*
X014428Y003964D01*
X014466Y003974D01*
X014500Y003994D01*
X014558Y004096D02*
X014906Y004096D01*
X014906Y004195D02*
X014558Y004195D01*
X014558Y004293D02*
X014906Y004293D01*
X014906Y004392D02*
X014558Y004392D01*
X014558Y004379D02*
X014558Y004606D01*
X014548Y004644D01*
X014528Y004678D01*
X014500Y004706D01*
X014466Y004726D01*
X014428Y004736D01*
X014279Y004736D01*
X014279Y004379D01*
X014222Y004379D01*
X014222Y004736D01*
X014073Y004736D01*
X014035Y004726D01*
X014001Y004706D01*
X013973Y004678D01*
X013953Y004644D01*
X013943Y004606D01*
X013943Y004379D01*
X014222Y004379D01*
X014222Y004321D01*
X014279Y004321D01*
X014279Y004379D01*
X014558Y004379D01*
X014558Y004490D02*
X014906Y004490D01*
X014906Y004589D02*
X014558Y004589D01*
X014519Y004687D02*
X014906Y004687D01*
X014906Y004786D02*
X013756Y004786D01*
X013756Y004884D02*
X014906Y004884D01*
X014906Y004983D02*
X014276Y004983D01*
X014316Y005081D02*
X014906Y005081D01*
X014906Y005180D02*
X014316Y005180D01*
X014316Y005278D02*
X014906Y005278D01*
X014906Y005377D02*
X014316Y005377D01*
X014316Y005475D02*
X014906Y005475D01*
X014906Y005574D02*
X014316Y005574D01*
X014316Y005530D02*
X014316Y005975D01*
X014306Y006013D01*
X014286Y006047D01*
X014258Y006075D01*
X014224Y006095D01*
X014186Y006105D01*
X014056Y006105D01*
X014056Y005530D01*
X014316Y005530D01*
X014316Y005672D02*
X014906Y005672D01*
X014906Y005771D02*
X014316Y005771D01*
X014316Y005869D02*
X014906Y005869D01*
X014906Y005968D02*
X014316Y005968D01*
X014267Y006066D02*
X014906Y006066D01*
X014906Y006165D02*
X010006Y006165D01*
X010006Y006263D02*
X014941Y006263D01*
X015017Y006340D02*
X015017Y006340D01*
X015039Y006362D02*
X010006Y006362D01*
X010006Y006460D02*
X015087Y006460D01*
X015137Y006559D02*
X015141Y006559D01*
X015162Y006657D02*
X015281Y006657D01*
X015306Y006756D02*
X015162Y006756D01*
X015162Y006854D02*
X015306Y006854D01*
X015306Y006953D02*
X015162Y006953D01*
X015118Y007051D02*
X015306Y007051D01*
X015306Y007150D02*
X014296Y007150D01*
X014296Y007091D02*
X014296Y007340D01*
X014430Y007340D01*
X014430Y007293D01*
X014506Y007217D01*
X015086Y007217D01*
X015162Y007293D01*
X015162Y007716D01*
X015086Y007792D01*
X015006Y007792D01*
X015006Y007808D01*
X015086Y007808D01*
X015162Y007884D01*
X015162Y008307D01*
X015086Y008383D01*
X014506Y008383D01*
X014430Y008307D01*
X014430Y007884D01*
X014506Y007808D01*
X014586Y007808D01*
X014586Y007792D01*
X014506Y007792D01*
X014474Y007760D01*
X014296Y007760D01*
X014296Y008069D01*
X014220Y008145D01*
X013872Y008145D01*
X013796Y008069D01*
X013720Y008145D01*
X013372Y008145D01*
X013296Y008069D01*
X013220Y008145D01*
X012872Y008145D01*
X012796Y008069D01*
X012796Y007091D01*
X012872Y007015D01*
X013220Y007015D01*
X013296Y007091D01*
X013296Y008069D01*
X013296Y007091D01*
X013372Y007015D01*
X013720Y007015D01*
X013796Y007091D01*
X013796Y007370D01*
X013796Y007370D01*
X013796Y007091D01*
X013872Y007015D01*
X014220Y007015D01*
X014296Y007091D01*
X014257Y007051D02*
X014474Y007051D01*
X014474Y007249D02*
X014296Y007249D01*
X013836Y007051D02*
X013757Y007051D01*
X013796Y007150D02*
X013796Y007150D01*
X013796Y007249D02*
X013796Y007249D01*
X013796Y007347D02*
X013796Y007347D01*
X013796Y007790D02*
X013796Y008069D01*
X013796Y007790D01*
X013796Y007790D01*
X013796Y007840D02*
X013796Y007840D01*
X013796Y007938D02*
X013796Y007938D01*
X013796Y008037D02*
X013796Y008037D01*
X013730Y008135D02*
X013862Y008135D01*
X014230Y008135D02*
X014430Y008135D01*
X014430Y008037D02*
X014296Y008037D01*
X014296Y007938D02*
X014430Y007938D01*
X014475Y007840D02*
X014296Y007840D01*
X014430Y008234D02*
X008596Y008234D01*
X008596Y008332D02*
X009569Y008332D01*
X009597Y008318D02*
X009524Y008355D01*
X009457Y008403D01*
X009400Y008461D01*
X009351Y008527D01*
X009314Y008600D01*
X009289Y008678D01*
X009278Y008750D01*
X009746Y008750D01*
X009746Y008850D01*
X009278Y008850D01*
X009289Y008922D01*
X009314Y009000D01*
X009351Y009073D01*
X009400Y009139D01*
X009457Y009197D01*
X009524Y009245D01*
X009597Y009282D01*
X009674Y009307D01*
X009746Y009319D01*
X009746Y008850D01*
X009846Y008850D01*
X009846Y009319D01*
X009918Y009307D01*
X009996Y009282D01*
X010069Y009245D01*
X010135Y009197D01*
X010193Y009139D01*
X010241Y009073D01*
X010278Y009000D01*
X010303Y008922D01*
X010315Y008850D01*
X009846Y008850D01*
X009846Y008750D01*
X009846Y008281D01*
X009918Y008293D01*
X009996Y008318D01*
X010069Y008355D01*
X010135Y008403D01*
X010193Y008461D01*
X010241Y008527D01*
X010278Y008600D01*
X010303Y008678D01*
X010315Y008750D01*
X009846Y008750D01*
X009746Y008750D01*
X009746Y008281D01*
X009674Y008293D01*
X009597Y008318D01*
X009746Y008332D02*
X009846Y008332D01*
X009846Y008431D02*
X009746Y008431D01*
X009746Y008529D02*
X009846Y008529D01*
X009846Y008628D02*
X009746Y008628D01*
X009746Y008726D02*
X009846Y008726D01*
X009846Y008825D02*
X014767Y008825D01*
X014767Y008833D02*
X014767Y008776D01*
X014410Y008776D01*
X014410Y008627D01*
X014420Y008589D01*
X014440Y008555D01*
X014468Y008527D01*
X014502Y008507D01*
X014540Y008497D01*
X014767Y008497D01*
X014767Y008776D01*
X014825Y008776D01*
X014825Y008833D01*
X015182Y008833D01*
X015182Y008982D01*
X015172Y009020D01*
X015152Y009054D01*
X015125Y009082D01*
X015090Y009102D01*
X015052Y009112D01*
X014825Y009112D01*
X014825Y008833D01*
X014767Y008833D01*
X014410Y008833D01*
X014410Y008982D01*
X014420Y009020D01*
X014440Y009054D01*
X014468Y009082D01*
X014502Y009102D01*
X014540Y009112D01*
X014767Y009112D01*
X014767Y008833D01*
X014825Y008825D02*
X015590Y008825D01*
X015554Y008923D02*
X015182Y008923D01*
X015171Y009022D02*
X015554Y009022D01*
X015554Y009120D02*
X010206Y009120D01*
X010267Y009022D02*
X014421Y009022D01*
X014410Y008923D02*
X010303Y008923D01*
X010311Y008726D02*
X014410Y008726D01*
X014410Y008628D02*
X010287Y008628D01*
X010242Y008529D02*
X014466Y008529D01*
X014455Y008332D02*
X010023Y008332D01*
X010162Y008431D02*
X015652Y008431D01*
X015652Y008529D02*
X015127Y008529D01*
X015125Y008527D02*
X015152Y008555D01*
X015172Y008589D01*
X015182Y008627D01*
X015182Y008776D01*
X014825Y008776D01*
X014825Y008497D01*
X015052Y008497D01*
X015090Y008507D01*
X015125Y008527D01*
X015182Y008628D02*
X015652Y008628D01*
X015652Y008726D02*
X015182Y008726D01*
X014825Y008726D02*
X014767Y008726D01*
X014767Y008628D02*
X014825Y008628D01*
X014825Y008529D02*
X014767Y008529D01*
X014767Y008923D02*
X014825Y008923D01*
X014825Y009022D02*
X014767Y009022D01*
X015137Y008332D02*
X015652Y008332D01*
X015652Y008234D02*
X015162Y008234D01*
X015162Y008135D02*
X015652Y008135D01*
X015652Y008037D02*
X015162Y008037D01*
X015162Y007938D02*
X015652Y007938D01*
X015652Y007840D02*
X015118Y007840D01*
X015137Y007741D02*
X015652Y007741D01*
X015652Y007643D02*
X015162Y007643D01*
X015162Y007544D02*
X015621Y007544D01*
X015523Y007446D02*
X015162Y007446D01*
X015162Y007347D02*
X015424Y007347D01*
X015326Y007249D02*
X015118Y007249D01*
X015686Y007051D02*
X015816Y007051D01*
X015816Y006953D02*
X015686Y006953D01*
X015686Y006854D02*
X015816Y006854D01*
X015816Y006756D02*
X015686Y006756D01*
X015686Y006657D02*
X015816Y006657D01*
X015816Y006559D02*
X015686Y006559D01*
X015706Y006460D02*
X015816Y006460D01*
X015816Y006362D02*
X015724Y006362D01*
X015715Y006263D02*
X015996Y006263D01*
X015996Y006165D02*
X015675Y006165D01*
X015569Y006066D02*
X015996Y006066D01*
X015996Y005968D02*
X015286Y005968D01*
X015286Y005869D02*
X015996Y005869D01*
X015996Y005771D02*
X015286Y005771D01*
X015286Y005672D02*
X015996Y005672D01*
X015996Y005574D02*
X015286Y005574D01*
X015286Y005475D02*
X015996Y005475D01*
X015996Y005377D02*
X015286Y005377D01*
X015286Y005278D02*
X015665Y005278D01*
X015634Y005180D02*
X015286Y005180D01*
X015286Y005081D02*
X015634Y005081D01*
X015634Y004983D02*
X015286Y004983D01*
X015286Y004884D02*
X015634Y004884D01*
X015634Y004786D02*
X015286Y004786D01*
X015286Y004687D02*
X015636Y004687D01*
X015701Y004589D02*
X015286Y004589D01*
X015286Y004490D02*
X015654Y004490D01*
X015654Y004392D02*
X015286Y004392D01*
X015286Y004293D02*
X015654Y004293D01*
X015654Y004195D02*
X015286Y004195D01*
X015286Y004096D02*
X015654Y004096D01*
X015654Y003998D02*
X015286Y003998D01*
X015286Y003899D02*
X015715Y003899D01*
X015752Y003801D02*
X015286Y003801D01*
X015286Y003702D02*
X015752Y003702D01*
X015752Y003604D02*
X015286Y003604D01*
X015286Y003505D02*
X015752Y003505D01*
X015752Y003407D02*
X015222Y003407D01*
X015123Y003308D02*
X015752Y003308D01*
X015752Y003210D02*
X014538Y003210D01*
X014490Y003111D02*
X015752Y003111D01*
X015752Y003013D02*
X014102Y003013D01*
X014011Y003111D02*
X014003Y003111D01*
X013963Y003210D02*
X013829Y003210D01*
X013829Y003308D02*
X013963Y003308D01*
X013963Y003407D02*
X013829Y003407D01*
X013829Y003505D02*
X013963Y003505D01*
X013963Y003604D02*
X013829Y003604D01*
X013829Y003702D02*
X013963Y003702D01*
X014024Y003801D02*
X013768Y003801D01*
X013767Y003998D02*
X013997Y003998D01*
X014001Y003994D02*
X014035Y003974D01*
X014073Y003964D01*
X014222Y003964D01*
X014222Y004321D01*
X013943Y004321D01*
X013943Y004094D01*
X013953Y004056D01*
X013973Y004022D01*
X014001Y003994D01*
X013943Y004096D02*
X013829Y004096D01*
X013829Y004195D02*
X013943Y004195D01*
X013943Y004293D02*
X013829Y004293D01*
X013829Y004392D02*
X013943Y004392D01*
X013943Y004490D02*
X013829Y004490D01*
X013829Y004589D02*
X013943Y004589D01*
X013982Y004687D02*
X013782Y004687D01*
X013756Y004983D02*
X013816Y004983D01*
X014036Y004983D02*
X014056Y004983D01*
X014056Y005081D02*
X014036Y005081D01*
X014036Y005180D02*
X014056Y005180D01*
X014056Y005278D02*
X014036Y005278D01*
X014036Y005377D02*
X014056Y005377D01*
X014056Y005475D02*
X014036Y005475D01*
X014036Y005574D02*
X014056Y005574D01*
X014056Y005672D02*
X014036Y005672D01*
X014036Y005771D02*
X014056Y005771D01*
X014056Y005869D02*
X014036Y005869D01*
X014036Y005968D02*
X014056Y005968D01*
X014056Y006066D02*
X014036Y006066D01*
X013826Y006066D02*
X013739Y006066D01*
X013336Y007051D02*
X013257Y007051D01*
X013296Y007150D02*
X013296Y007150D01*
X013296Y007249D02*
X013296Y007249D01*
X013296Y007347D02*
X013296Y007347D01*
X013296Y007446D02*
X013296Y007446D01*
X013296Y007544D02*
X013296Y007544D01*
X013296Y007643D02*
X013296Y007643D01*
X013296Y007741D02*
X013296Y007741D01*
X013296Y007840D02*
X013296Y007840D01*
X013296Y007938D02*
X013296Y007938D01*
X013296Y008037D02*
X013296Y008037D01*
X013230Y008135D02*
X013362Y008135D01*
X012862Y008135D02*
X012730Y008135D01*
X012796Y008037D02*
X012796Y008037D01*
X012796Y007938D02*
X012796Y007938D01*
X012796Y007840D02*
X012796Y007840D01*
X012796Y007741D02*
X012796Y007741D01*
X012796Y007643D02*
X012796Y007643D01*
X012796Y007544D02*
X012796Y007544D01*
X012796Y007446D02*
X012796Y007446D01*
X012796Y007347D02*
X012796Y007347D01*
X012796Y007249D02*
X012796Y007249D01*
X012796Y007150D02*
X012796Y007150D01*
X012757Y007051D02*
X012836Y007051D01*
X012492Y006657D02*
X010006Y006657D01*
X010006Y006559D02*
X012590Y006559D01*
X012393Y006756D02*
X012008Y006756D01*
X012002Y006746D02*
X012022Y006780D01*
X012032Y006818D01*
X012032Y006967D01*
X011675Y006967D01*
X011675Y007024D01*
X012032Y007024D01*
X012032Y007173D01*
X012022Y007211D01*
X012002Y007245D01*
X011975Y007273D01*
X011940Y007293D01*
X011902Y007303D01*
X011675Y007303D01*
X011675Y007024D01*
X011617Y007024D01*
X011617Y006967D01*
X011260Y006967D01*
X011260Y006818D01*
X011270Y006780D01*
X011290Y006746D01*
X011318Y006718D01*
X011352Y006698D01*
X011390Y006688D01*
X011617Y006688D01*
X011617Y006967D01*
X011675Y006967D01*
X011675Y006688D01*
X011902Y006688D01*
X011940Y006698D01*
X011975Y006718D01*
X012002Y006746D01*
X012032Y006854D02*
X012336Y006854D01*
X012336Y006953D02*
X012032Y006953D01*
X012032Y007051D02*
X012336Y007051D01*
X012296Y007150D02*
X012032Y007150D01*
X011999Y007249D02*
X012296Y007249D01*
X012296Y007347D02*
X010296Y007347D01*
X010269Y007249D02*
X011293Y007249D01*
X011290Y007245D02*
X011270Y007211D01*
X011260Y007173D01*
X011260Y007024D01*
X011617Y007024D01*
X011617Y007303D01*
X011390Y007303D01*
X011352Y007293D01*
X011318Y007273D01*
X011290Y007245D01*
X011260Y007150D02*
X010006Y007150D01*
X010006Y007051D02*
X011260Y007051D01*
X011260Y006953D02*
X010006Y006953D01*
X010006Y006854D02*
X011260Y006854D01*
X011284Y006756D02*
X010006Y006756D01*
X010006Y006066D02*
X012354Y006066D01*
X012296Y005968D02*
X010006Y005968D01*
X010006Y005869D02*
X012296Y005869D01*
X012296Y005771D02*
X011707Y005771D01*
X011044Y005278D02*
X010096Y005278D01*
X010096Y005377D02*
X010980Y005377D01*
X010980Y005475D02*
X010096Y005475D01*
X010096Y005574D02*
X010980Y005574D01*
X010980Y005672D02*
X010096Y005672D01*
X010049Y005771D02*
X010985Y005771D01*
X010980Y004687D02*
X009726Y004687D01*
X009914Y004589D02*
X011025Y004589D01*
X011156Y004490D02*
X010013Y004490D01*
X010003Y003899D02*
X010693Y003899D01*
X010792Y003801D02*
X009904Y003801D01*
X010110Y002914D02*
X011046Y002914D01*
X011046Y002816D02*
X010116Y002816D01*
X010116Y002717D02*
X011046Y002717D01*
X011046Y002323D02*
X010116Y002323D01*
X010116Y002225D02*
X011064Y002225D01*
X011133Y002126D02*
X010116Y002126D01*
X011105Y004195D02*
X011156Y004195D01*
X011156Y004293D02*
X011006Y004293D01*
X010908Y004392D02*
X011156Y004392D01*
X011617Y006756D02*
X011675Y006756D01*
X011675Y006854D02*
X011617Y006854D01*
X011617Y006953D02*
X011675Y006953D01*
X011675Y007051D02*
X011617Y007051D01*
X011617Y007150D02*
X011675Y007150D01*
X011675Y007249D02*
X011617Y007249D01*
X011965Y007446D02*
X012296Y007446D01*
X012296Y008037D02*
X010296Y008037D01*
X010285Y008135D02*
X012362Y008135D01*
X011302Y007938D02*
X010296Y007938D01*
X009746Y008825D02*
X008596Y008825D01*
X008596Y008923D02*
X009289Y008923D01*
X009325Y009022D02*
X008596Y009022D01*
X008596Y009120D02*
X009386Y009120D01*
X009488Y009219D02*
X008596Y009219D01*
X008596Y009317D02*
X009736Y009317D01*
X009746Y009317D02*
X009846Y009317D01*
X009856Y009317D02*
X015554Y009317D01*
X015554Y009219D02*
X010105Y009219D01*
X010026Y009416D02*
X015554Y009416D01*
X015628Y009514D02*
X010095Y009514D01*
X010124Y009613D02*
X015996Y009613D01*
X015871Y009711D02*
X015813Y009711D01*
X015813Y009664D02*
X015813Y010021D01*
X015534Y010021D01*
X015534Y009794D01*
X015545Y009756D01*
X015564Y009722D01*
X015592Y009694D01*
X015626Y009674D01*
X015665Y009664D01*
X015813Y009664D01*
X015813Y009810D02*
X015871Y009810D01*
X015871Y009908D02*
X015813Y009908D01*
X015813Y010007D02*
X015871Y010007D01*
X015534Y010007D02*
X010660Y010007D01*
X010660Y009934D02*
X010660Y010152D01*
X010371Y010152D01*
X010371Y009804D01*
X010529Y009804D01*
X010567Y009814D01*
X010602Y009834D01*
X010630Y009862D01*
X010649Y009896D01*
X010660Y009934D01*
X010653Y009908D02*
X015534Y009908D01*
X015534Y009810D02*
X010550Y009810D01*
X010371Y009810D02*
X010294Y009810D01*
X010294Y009908D02*
X010371Y009908D01*
X010371Y010007D02*
X010294Y010007D01*
X010294Y010105D02*
X010371Y010105D01*
X010371Y010204D02*
X015534Y010204D01*
X015534Y010302D02*
X010660Y010302D01*
X010660Y010105D02*
X015534Y010105D01*
X015575Y009711D02*
X010124Y009711D01*
X010115Y009810D02*
X010085Y009810D01*
X009525Y009900D02*
X009525Y010350D01*
X009236Y010350D01*
X009136Y010342D01*
X009039Y010319D01*
X008946Y010280D01*
X008860Y010228D01*
X008784Y010162D01*
X008718Y010086D01*
X008666Y010000D01*
X008628Y009908D01*
X008604Y009810D02*
X009507Y009810D01*
X009468Y009711D02*
X008596Y009711D01*
X008596Y009613D02*
X009468Y009613D01*
X009497Y009514D02*
X008596Y009514D01*
X008596Y009416D02*
X009567Y009416D01*
X009746Y009219D02*
X009846Y009219D01*
X009846Y009120D02*
X009746Y009120D01*
X009746Y009022D02*
X009846Y009022D01*
X009846Y008923D02*
X009746Y008923D01*
X009305Y008628D02*
X008596Y008628D01*
X008596Y008726D02*
X009281Y008726D01*
X009351Y008529D02*
X008596Y008529D01*
X008596Y008431D02*
X009430Y008431D01*
X009307Y008135D02*
X008596Y008135D01*
X008596Y008037D02*
X009296Y008037D01*
X009296Y007938D02*
X008596Y007938D01*
X008596Y007840D02*
X009296Y007840D01*
X009257Y007741D02*
X008596Y007741D01*
X008596Y007643D02*
X009211Y007643D01*
X009186Y007544D02*
X008596Y007544D01*
X008596Y007446D02*
X009186Y007446D01*
X009186Y007347D02*
X008596Y007347D01*
X008596Y007249D02*
X009186Y007249D01*
X009186Y007150D02*
X008596Y007150D01*
X008596Y007051D02*
X009186Y007051D01*
X009186Y006953D02*
X008596Y006953D01*
X008596Y006854D02*
X009186Y006854D01*
X009186Y006756D02*
X008596Y006756D01*
X008596Y006657D02*
X009186Y006657D01*
X009186Y006559D02*
X008596Y006559D01*
X008596Y006460D02*
X009186Y006460D01*
X009186Y006362D02*
X008596Y006362D01*
X008596Y006263D02*
X009186Y006263D01*
X009186Y006165D02*
X008596Y006165D01*
X008596Y006066D02*
X009186Y006066D01*
X009186Y005968D02*
X008596Y005968D01*
X008596Y005869D02*
X009186Y005869D01*
X009143Y005771D02*
X008596Y005771D01*
X008596Y005672D02*
X009096Y005672D01*
X009096Y005574D02*
X008596Y005574D01*
X008596Y005475D02*
X009096Y005475D01*
X009096Y005377D02*
X008596Y005377D01*
X008596Y005278D02*
X009096Y005278D01*
X009096Y005180D02*
X008596Y005180D01*
X008596Y005081D02*
X009096Y005081D01*
X009096Y004983D02*
X008596Y004983D01*
X008596Y004884D02*
X009096Y004884D01*
X008670Y010007D02*
X009525Y010007D01*
X009525Y010105D02*
X008735Y010105D01*
X008832Y010204D02*
X009525Y010204D01*
X009525Y010302D02*
X008998Y010302D01*
X009996Y013750D02*
X006843Y013750D01*
X006756Y013837D01*
X006756Y014737D01*
X006633Y014860D01*
X006156Y015337D01*
X006156Y021296D01*
X006224Y021364D01*
X006274Y021485D01*
X006274Y021615D01*
X006224Y021736D01*
X006132Y021828D01*
X006011Y021878D01*
X005881Y021878D01*
X005760Y021828D01*
X005668Y021736D01*
X005618Y021615D01*
X005618Y021485D01*
X005668Y021364D01*
X005736Y021296D01*
X005736Y015163D01*
X006336Y014563D01*
X006336Y013750D01*
X005446Y013750D01*
X005446Y038700D01*
X012387Y038700D01*
X013391Y037546D01*
X013570Y037313D01*
X013721Y037060D01*
X013840Y036792D01*
X013926Y036510D01*
X013979Y036221D01*
X013996Y035927D01*
X013996Y025705D01*
X013988Y025568D01*
X013962Y025433D01*
X013920Y025302D01*
X013863Y025178D01*
X013790Y025061D01*
X013496Y024650D01*
X013352Y024475D01*
X013186Y024321D01*
X013000Y024191D01*
X005446Y024191D01*
X005446Y024289D02*
X013141Y024289D01*
X013258Y024388D02*
X005446Y024388D01*
X005446Y024486D02*
X013361Y024486D01*
X013442Y024585D02*
X009395Y024585D01*
X009382Y024572D02*
X009474Y024664D01*
X009524Y024785D01*
X009524Y024915D01*
X009474Y025036D01*
X009406Y025104D01*
X009406Y027740D01*
X010887Y027740D01*
X010918Y027664D01*
X011010Y027572D01*
X011131Y027522D01*
X011261Y027522D01*
X011382Y027572D01*
X011474Y027664D01*
X011524Y027785D01*
X011524Y027881D01*
X011733Y028090D01*
X013383Y028090D01*
X013506Y028213D01*
X013856Y028563D01*
X013856Y032346D01*
X013924Y032414D01*
X013974Y032535D01*
X013974Y032665D01*
X013924Y032786D01*
X013832Y032878D01*
X013711Y032928D01*
X013581Y032928D01*
X013460Y032878D01*
X013368Y032786D01*
X013318Y032665D01*
X013318Y032535D01*
X013368Y032414D01*
X013436Y032346D01*
X013436Y028737D01*
X013209Y028510D01*
X011559Y028510D01*
X011227Y028178D01*
X011131Y028178D01*
X011087Y028160D01*
X009383Y028160D01*
X009306Y028237D01*
X009306Y032837D01*
X009183Y032960D01*
X009083Y033060D01*
X007900Y033060D01*
X007870Y033133D01*
X007729Y033274D01*
X007546Y033350D01*
X007347Y033350D01*
X007163Y033274D01*
X007022Y033133D01*
X006946Y032949D01*
X006946Y032751D01*
X007022Y032567D01*
X007163Y032426D01*
X007347Y032350D01*
X007546Y032350D01*
X007729Y032426D01*
X007870Y032567D01*
X007900Y032640D01*
X008886Y032640D01*
X008886Y028063D01*
X008986Y027963D01*
X008986Y025104D01*
X008918Y025036D01*
X008868Y024915D01*
X008868Y024785D01*
X008918Y024664D01*
X009010Y024572D01*
X009131Y024522D01*
X009261Y024522D01*
X009382Y024572D01*
X009482Y024683D02*
X013520Y024683D01*
X013590Y024782D02*
X009523Y024782D01*
X009524Y024880D02*
X013660Y024880D01*
X013731Y024979D02*
X009498Y024979D01*
X009433Y025077D02*
X013800Y025077D01*
X013861Y025176D02*
X009406Y025176D01*
X009406Y025274D02*
X013907Y025274D01*
X013943Y025373D02*
X009406Y025373D01*
X009406Y025471D02*
X013969Y025471D01*
X013988Y025570D02*
X009406Y025570D01*
X009406Y025668D02*
X013994Y025668D01*
X013996Y025767D02*
X009406Y025767D01*
X009406Y025865D02*
X013996Y025865D01*
X013996Y025964D02*
X009406Y025964D01*
X009406Y026062D02*
X013996Y026062D01*
X013996Y026161D02*
X009406Y026161D01*
X009406Y026259D02*
X013996Y026259D01*
X013996Y026358D02*
X009406Y026358D01*
X009406Y026456D02*
X013996Y026456D01*
X013996Y026555D02*
X009406Y026555D01*
X009406Y026653D02*
X013996Y026653D01*
X013996Y026752D02*
X009406Y026752D01*
X009406Y026850D02*
X013996Y026850D01*
X013996Y026949D02*
X009406Y026949D01*
X009406Y027047D02*
X013996Y027047D01*
X013996Y027146D02*
X009406Y027146D01*
X009406Y027244D02*
X013996Y027244D01*
X013996Y027343D02*
X009406Y027343D01*
X009406Y027441D02*
X013996Y027441D01*
X013996Y027540D02*
X011304Y027540D01*
X011448Y027638D02*
X013996Y027638D01*
X013996Y027737D02*
X011504Y027737D01*
X011524Y027835D02*
X013996Y027835D01*
X013996Y027934D02*
X011577Y027934D01*
X011675Y028032D02*
X013996Y028032D01*
X013996Y028131D02*
X013424Y028131D01*
X013522Y028229D02*
X013996Y028229D01*
X013996Y028328D02*
X013621Y028328D01*
X013719Y028426D02*
X013996Y028426D01*
X013996Y028525D02*
X013818Y028525D01*
X013856Y028623D02*
X013996Y028623D01*
X013996Y028722D02*
X013856Y028722D01*
X013856Y028820D02*
X013996Y028820D01*
X013996Y028919D02*
X013856Y028919D01*
X013856Y029017D02*
X013996Y029017D01*
X013996Y029116D02*
X013856Y029116D01*
X013856Y029214D02*
X013996Y029214D01*
X013996Y029313D02*
X013856Y029313D01*
X013856Y029411D02*
X013996Y029411D01*
X013996Y029510D02*
X013856Y029510D01*
X013856Y029608D02*
X013996Y029608D01*
X013996Y029707D02*
X013856Y029707D01*
X013856Y029805D02*
X013996Y029805D01*
X013996Y029904D02*
X013856Y029904D01*
X013856Y030002D02*
X013996Y030002D01*
X013996Y030101D02*
X013856Y030101D01*
X013856Y030199D02*
X013996Y030199D01*
X013996Y030298D02*
X013856Y030298D01*
X013856Y030396D02*
X013996Y030396D01*
X013996Y030495D02*
X013856Y030495D01*
X013856Y030593D02*
X013996Y030593D01*
X013996Y030692D02*
X013856Y030692D01*
X013856Y030790D02*
X013996Y030790D01*
X013996Y030889D02*
X013856Y030889D01*
X013856Y030987D02*
X013996Y030987D01*
X013996Y031086D02*
X013856Y031086D01*
X013856Y031184D02*
X013996Y031184D01*
X013996Y031283D02*
X013856Y031283D01*
X013856Y031381D02*
X013996Y031381D01*
X013996Y031480D02*
X013856Y031480D01*
X013856Y031578D02*
X013996Y031578D01*
X013996Y031677D02*
X013856Y031677D01*
X013856Y031775D02*
X013996Y031775D01*
X013996Y031874D02*
X013856Y031874D01*
X013856Y031972D02*
X013996Y031972D01*
X013996Y032071D02*
X013856Y032071D01*
X013856Y032169D02*
X013996Y032169D01*
X013996Y032268D02*
X013856Y032268D01*
X013876Y032366D02*
X013996Y032366D01*
X013996Y032465D02*
X013945Y032465D01*
X013974Y032563D02*
X013996Y032563D01*
X013996Y032662D02*
X013974Y032662D01*
X013996Y032760D02*
X013935Y032760D01*
X013996Y032859D02*
X013852Y032859D01*
X013996Y032957D02*
X010506Y032957D01*
X010506Y032859D02*
X013441Y032859D01*
X013357Y032760D02*
X010506Y032760D01*
X010506Y032662D02*
X013318Y032662D01*
X013318Y032563D02*
X010506Y032563D01*
X010506Y032465D02*
X013347Y032465D01*
X013416Y032366D02*
X010506Y032366D01*
X010506Y032268D02*
X013436Y032268D01*
X013436Y032169D02*
X010506Y032169D01*
X010506Y032071D02*
X011690Y032071D01*
X011649Y032054D02*
X011560Y032002D01*
X011479Y031940D01*
X011406Y031867D01*
X011344Y031786D01*
X011292Y031697D01*
X011253Y031602D01*
X011227Y031503D01*
X011213Y031401D01*
X011213Y031400D01*
X011946Y031400D01*
X011946Y031300D01*
X011213Y031300D01*
X011213Y031299D01*
X011227Y031197D01*
X011253Y031098D01*
X011292Y031003D01*
X011344Y030914D01*
X011406Y030833D01*
X011479Y030760D01*
X011560Y030698D01*
X011649Y030646D01*
X011744Y030607D01*
X011843Y030580D01*
X011945Y030567D01*
X011946Y030567D01*
X011946Y031300D01*
X012046Y031300D01*
X012046Y030567D01*
X012048Y030567D01*
X012149Y030580D01*
X012248Y030607D01*
X012343Y030646D01*
X012432Y030698D01*
X012514Y030760D01*
X012586Y030833D01*
X012649Y030914D01*
X012700Y031003D01*
X012739Y031098D01*
X012766Y031197D01*
X012779Y031299D01*
X012779Y031300D01*
X012046Y031300D01*
X012046Y031400D01*
X011946Y031400D01*
X011946Y032133D01*
X011945Y032133D01*
X011843Y032120D01*
X011744Y032093D01*
X011649Y032054D01*
X011521Y031972D02*
X010506Y031972D01*
X010506Y031874D02*
X011412Y031874D01*
X011337Y031775D02*
X010506Y031775D01*
X010506Y031677D02*
X011284Y031677D01*
X011247Y031578D02*
X010506Y031578D01*
X010506Y031480D02*
X011223Y031480D01*
X011215Y031283D02*
X010506Y031283D01*
X010506Y031381D02*
X011946Y031381D01*
X011946Y031283D02*
X012046Y031283D01*
X012046Y031381D02*
X013436Y031381D01*
X013436Y031283D02*
X012777Y031283D01*
X012762Y031184D02*
X013436Y031184D01*
X013436Y031086D02*
X012734Y031086D01*
X012691Y030987D02*
X013436Y030987D01*
X013436Y030889D02*
X012629Y030889D01*
X012544Y030790D02*
X013436Y030790D01*
X013436Y030692D02*
X012422Y030692D01*
X012197Y030593D02*
X013436Y030593D01*
X013436Y030495D02*
X010506Y030495D01*
X010506Y030593D02*
X011796Y030593D01*
X011946Y030593D02*
X012046Y030593D01*
X012046Y030692D02*
X011946Y030692D01*
X011946Y030790D02*
X012046Y030790D01*
X012046Y030889D02*
X011946Y030889D01*
X011946Y030987D02*
X012046Y030987D01*
X012046Y031086D02*
X011946Y031086D01*
X011946Y031184D02*
X012046Y031184D01*
X012046Y031400D02*
X012779Y031400D01*
X012779Y031401D01*
X012766Y031503D01*
X012739Y031602D01*
X012700Y031697D01*
X012649Y031786D01*
X012586Y031867D01*
X012514Y031940D01*
X012432Y032002D01*
X012343Y032054D01*
X012248Y032093D01*
X012149Y032120D01*
X012048Y032133D01*
X012046Y032133D01*
X012046Y031400D01*
X012046Y031480D02*
X011946Y031480D01*
X011946Y031578D02*
X012046Y031578D01*
X012046Y031677D02*
X011946Y031677D01*
X011946Y031775D02*
X012046Y031775D01*
X012046Y031874D02*
X011946Y031874D01*
X011946Y031972D02*
X012046Y031972D01*
X012046Y032071D02*
X011946Y032071D01*
X012303Y032071D02*
X013436Y032071D01*
X013436Y031972D02*
X012472Y031972D01*
X012580Y031874D02*
X013436Y031874D01*
X013436Y031775D02*
X012655Y031775D01*
X012709Y031677D02*
X013436Y031677D01*
X013436Y031578D02*
X012746Y031578D01*
X012769Y031480D02*
X013436Y031480D01*
X013436Y030396D02*
X010506Y030396D01*
X010506Y030298D02*
X013436Y030298D01*
X013436Y030199D02*
X010506Y030199D01*
X010506Y030120D02*
X010506Y033520D01*
X010514Y033570D01*
X010506Y033600D01*
X010506Y033632D01*
X010487Y033679D01*
X010474Y033729D01*
X010456Y033754D01*
X010444Y033782D01*
X010408Y033818D01*
X010377Y033860D01*
X010350Y033876D01*
X010328Y033898D01*
X010281Y033917D01*
X009850Y034176D01*
X009828Y034198D01*
X009781Y034217D01*
X009737Y034244D01*
X009706Y034248D01*
X009678Y034260D01*
X009627Y034260D01*
X009576Y034268D01*
X009546Y034260D01*
X007843Y034260D01*
X007829Y034274D01*
X007646Y034350D01*
X007626Y034350D01*
X007573Y034403D01*
X007573Y034766D01*
X007758Y034766D01*
X007834Y034842D01*
X007834Y035658D01*
X007758Y035734D01*
X006568Y035734D01*
X006491Y035658D01*
X006491Y034842D01*
X006568Y034766D01*
X006753Y034766D01*
X006753Y034152D01*
X006815Y034001D01*
X007046Y033770D01*
X007046Y033751D01*
X007122Y033567D01*
X007263Y033426D01*
X007447Y033350D01*
X007646Y033350D01*
X007829Y033426D01*
X007843Y033440D01*
X009483Y033440D01*
X009686Y033318D01*
X009686Y029868D01*
X009749Y029718D01*
X009864Y029602D01*
X010464Y029002D01*
X010615Y028940D01*
X011340Y028940D01*
X011349Y028918D01*
X011564Y028703D01*
X011844Y028587D01*
X012148Y028587D01*
X012428Y028703D01*
X012643Y028918D01*
X012759Y029198D01*
X012759Y029502D01*
X012643Y029782D01*
X012428Y029997D01*
X012148Y030113D01*
X011844Y030113D01*
X011564Y029997D01*
X011349Y029782D01*
X011340Y029760D01*
X010866Y029760D01*
X010506Y030120D01*
X010525Y030101D02*
X011814Y030101D01*
X011576Y030002D02*
X010624Y030002D01*
X010722Y029904D02*
X011471Y029904D01*
X011372Y029805D02*
X010821Y029805D01*
X010449Y029017D02*
X009306Y029017D01*
X009306Y028919D02*
X011349Y028919D01*
X011447Y028820D02*
X009306Y028820D01*
X009306Y028722D02*
X011545Y028722D01*
X011757Y028623D02*
X009306Y028623D01*
X009306Y028525D02*
X013224Y028525D01*
X013322Y028623D02*
X012235Y028623D01*
X012447Y028722D02*
X013421Y028722D01*
X013436Y028820D02*
X012545Y028820D01*
X012643Y028919D02*
X013436Y028919D01*
X013436Y029017D02*
X012684Y029017D01*
X012725Y029116D02*
X013436Y029116D01*
X013436Y029214D02*
X012759Y029214D01*
X012759Y029313D02*
X013436Y029313D01*
X013436Y029411D02*
X012759Y029411D01*
X012756Y029510D02*
X013436Y029510D01*
X013436Y029608D02*
X012715Y029608D01*
X012674Y029707D02*
X013436Y029707D01*
X013436Y029805D02*
X012620Y029805D01*
X012522Y029904D02*
X013436Y029904D01*
X013436Y030002D02*
X012416Y030002D01*
X012178Y030101D02*
X013436Y030101D01*
X011570Y030692D02*
X010506Y030692D01*
X010506Y030790D02*
X011449Y030790D01*
X011363Y030889D02*
X010506Y030889D01*
X010506Y030987D02*
X011302Y030987D01*
X011258Y031086D02*
X010506Y031086D01*
X010506Y031184D02*
X011230Y031184D01*
X009957Y029510D02*
X009306Y029510D01*
X009306Y029608D02*
X009858Y029608D01*
X009760Y029707D02*
X009306Y029707D01*
X009306Y029805D02*
X009712Y029805D01*
X009686Y029904D02*
X009306Y029904D01*
X009306Y030002D02*
X009686Y030002D01*
X009686Y030101D02*
X009306Y030101D01*
X009306Y030199D02*
X009686Y030199D01*
X009686Y030298D02*
X009306Y030298D01*
X009306Y030396D02*
X009686Y030396D01*
X009686Y030495D02*
X009306Y030495D01*
X009306Y030593D02*
X009686Y030593D01*
X009686Y030692D02*
X009306Y030692D01*
X009306Y030790D02*
X009686Y030790D01*
X009686Y030889D02*
X009306Y030889D01*
X009306Y030987D02*
X009686Y030987D01*
X009686Y031086D02*
X009306Y031086D01*
X009306Y031184D02*
X009686Y031184D01*
X009686Y031283D02*
X009306Y031283D01*
X009306Y031381D02*
X009686Y031381D01*
X009686Y031480D02*
X009306Y031480D01*
X009306Y031578D02*
X009686Y031578D01*
X009686Y031677D02*
X009306Y031677D01*
X009306Y031775D02*
X009686Y031775D01*
X009686Y031874D02*
X009306Y031874D01*
X009306Y031972D02*
X009686Y031972D01*
X009686Y032071D02*
X009306Y032071D01*
X009306Y032169D02*
X009686Y032169D01*
X009686Y032268D02*
X009306Y032268D01*
X009306Y032366D02*
X009686Y032366D01*
X009686Y032465D02*
X009306Y032465D01*
X009306Y032563D02*
X009686Y032563D01*
X009686Y032662D02*
X009306Y032662D01*
X009306Y032760D02*
X009686Y032760D01*
X009686Y032859D02*
X009285Y032859D01*
X009186Y032957D02*
X009686Y032957D01*
X009686Y033056D02*
X009088Y033056D01*
X008886Y032563D02*
X007866Y032563D01*
X007768Y032465D02*
X008886Y032465D01*
X008886Y032366D02*
X007584Y032366D01*
X007646Y032350D02*
X007447Y032350D01*
X007263Y032274D01*
X007122Y032133D01*
X007046Y031949D01*
X007046Y031751D01*
X007122Y031567D01*
X007263Y031426D01*
X007447Y031350D01*
X007496Y031350D01*
X007496Y030900D01*
X007396Y030900D01*
X007396Y030800D01*
X006926Y030800D01*
X006926Y030460D01*
X006936Y030422D01*
X006956Y030388D01*
X006984Y030360D01*
X007018Y030340D01*
X007056Y030330D01*
X007396Y030330D01*
X007396Y030800D01*
X007496Y030800D01*
X007496Y030330D01*
X007836Y030330D01*
X007874Y030340D01*
X007908Y030360D01*
X007936Y030388D01*
X007956Y030422D01*
X007966Y030460D01*
X007966Y030800D01*
X007496Y030800D01*
X007496Y030900D01*
X007966Y030900D01*
X007966Y031240D01*
X007956Y031278D01*
X007936Y031312D01*
X007908Y031340D01*
X007874Y031360D01*
X007836Y031370D01*
X007694Y031370D01*
X007829Y031426D01*
X007970Y031567D01*
X008046Y031751D01*
X008046Y031949D01*
X007970Y032133D01*
X007829Y032274D01*
X007646Y032350D01*
X007836Y032268D02*
X008886Y032268D01*
X008886Y032169D02*
X007934Y032169D01*
X007996Y032071D02*
X008886Y032071D01*
X008886Y031972D02*
X008037Y031972D01*
X008046Y031874D02*
X008886Y031874D01*
X008886Y031775D02*
X008046Y031775D01*
X008016Y031677D02*
X008886Y031677D01*
X008886Y031578D02*
X007975Y031578D01*
X007883Y031480D02*
X008886Y031480D01*
X008886Y031381D02*
X007721Y031381D01*
X007496Y031283D02*
X007396Y031283D01*
X007396Y031370D02*
X007056Y031370D01*
X007018Y031360D01*
X006984Y031340D01*
X006956Y031312D01*
X006936Y031278D01*
X006926Y031240D01*
X006926Y030900D01*
X007396Y030900D01*
X007396Y031370D01*
X007372Y031381D02*
X005446Y031381D01*
X005446Y031283D02*
X006939Y031283D01*
X006926Y031184D02*
X005446Y031184D01*
X005446Y031086D02*
X006926Y031086D01*
X006926Y030987D02*
X005446Y030987D01*
X005446Y030889D02*
X007396Y030889D01*
X007396Y030987D02*
X007496Y030987D01*
X007496Y030889D02*
X008886Y030889D01*
X008886Y030987D02*
X007966Y030987D01*
X007966Y031086D02*
X008886Y031086D01*
X008886Y031184D02*
X007966Y031184D01*
X007953Y031283D02*
X008886Y031283D01*
X008886Y030790D02*
X007966Y030790D01*
X007966Y030692D02*
X008886Y030692D01*
X008886Y030593D02*
X007966Y030593D01*
X007966Y030495D02*
X008886Y030495D01*
X008886Y030396D02*
X007941Y030396D01*
X007496Y030396D02*
X007396Y030396D01*
X007396Y030495D02*
X007496Y030495D01*
X007496Y030593D02*
X007396Y030593D01*
X007396Y030692D02*
X007496Y030692D01*
X007496Y030790D02*
X007396Y030790D01*
X007396Y031086D02*
X007496Y031086D01*
X007496Y031184D02*
X007396Y031184D01*
X007210Y031480D02*
X005446Y031480D01*
X005446Y031578D02*
X007118Y031578D01*
X007077Y031677D02*
X005446Y031677D01*
X005446Y031775D02*
X007046Y031775D01*
X007046Y031874D02*
X005446Y031874D01*
X005446Y031972D02*
X007056Y031972D01*
X007096Y032071D02*
X005446Y032071D01*
X005446Y032169D02*
X007158Y032169D01*
X007257Y032268D02*
X005446Y032268D01*
X005446Y032366D02*
X007308Y032366D01*
X007125Y032465D02*
X005446Y032465D01*
X005446Y032563D02*
X007026Y032563D01*
X006983Y032662D02*
X005446Y032662D01*
X005446Y032760D02*
X006946Y032760D01*
X006946Y032859D02*
X005446Y032859D01*
X005446Y032957D02*
X006949Y032957D01*
X006990Y033056D02*
X005446Y033056D01*
X005446Y033154D02*
X007043Y033154D01*
X007142Y033253D02*
X005446Y033253D01*
X005446Y033351D02*
X007444Y033351D01*
X007648Y033351D02*
X009631Y033351D01*
X009686Y033253D02*
X007751Y033253D01*
X007849Y033154D02*
X009686Y033154D01*
X010240Y033942D02*
X011339Y033942D01*
X011349Y033918D02*
X011564Y033703D01*
X011844Y033587D01*
X012148Y033587D01*
X012428Y033703D01*
X012643Y033918D01*
X012759Y034198D01*
X012759Y034502D01*
X012643Y034782D01*
X012428Y034997D01*
X012148Y035113D01*
X011844Y035113D01*
X011564Y034997D01*
X011349Y034782D01*
X011233Y034502D01*
X011233Y034198D01*
X011349Y033918D01*
X011423Y033844D02*
X010389Y033844D01*
X010462Y033745D02*
X011522Y033745D01*
X011700Y033647D02*
X010500Y033647D01*
X010510Y033548D02*
X013996Y033548D01*
X013996Y033450D02*
X010506Y033450D01*
X010506Y033351D02*
X013996Y033351D01*
X013996Y033253D02*
X010506Y033253D01*
X010506Y033154D02*
X013996Y033154D01*
X013996Y033056D02*
X010506Y033056D01*
X010075Y034041D02*
X011298Y034041D01*
X011258Y034139D02*
X009911Y034139D01*
X009747Y034238D02*
X011233Y034238D01*
X011233Y034336D02*
X007679Y034336D01*
X007573Y034435D02*
X011233Y034435D01*
X011246Y034533D02*
X007573Y034533D01*
X007573Y034632D02*
X011287Y034632D01*
X011328Y034730D02*
X007573Y034730D01*
X007821Y034829D02*
X008554Y034829D01*
X008549Y034838D02*
X008568Y034804D01*
X008596Y034776D01*
X008630Y034756D01*
X008669Y034746D01*
X009180Y034746D01*
X009180Y035200D01*
X009280Y035200D01*
X009280Y035300D01*
X009921Y035300D01*
X009921Y035624D01*
X009911Y035662D01*
X009891Y035696D01*
X009863Y035724D01*
X009829Y035744D01*
X009791Y035754D01*
X009280Y035754D01*
X009280Y035300D01*
X009180Y035300D01*
X009180Y035754D01*
X008669Y035754D01*
X008630Y035744D01*
X008596Y035724D01*
X008568Y035696D01*
X008549Y035662D01*
X008538Y035624D01*
X008538Y035300D01*
X009180Y035300D01*
X009180Y035200D01*
X008538Y035200D01*
X008538Y034876D01*
X008549Y034838D01*
X008538Y034927D02*
X007834Y034927D01*
X007834Y035026D02*
X008538Y035026D01*
X008538Y035124D02*
X007834Y035124D01*
X007834Y035223D02*
X009180Y035223D01*
X009180Y035321D02*
X009280Y035321D01*
X009280Y035223D02*
X013996Y035223D01*
X013996Y035321D02*
X009921Y035321D01*
X009921Y035420D02*
X013996Y035420D01*
X013996Y035518D02*
X009921Y035518D01*
X009921Y035617D02*
X013996Y035617D01*
X013996Y035715D02*
X009872Y035715D01*
X009921Y035200D02*
X009280Y035200D01*
X009280Y034746D01*
X009791Y034746D01*
X009829Y034756D01*
X009863Y034776D01*
X009891Y034804D01*
X009911Y034838D01*
X009921Y034876D01*
X009921Y035200D01*
X009921Y035124D02*
X013996Y035124D01*
X013996Y035026D02*
X012359Y035026D01*
X012498Y034927D02*
X013996Y034927D01*
X013996Y034829D02*
X012597Y034829D01*
X012665Y034730D02*
X013996Y034730D01*
X013996Y034632D02*
X012705Y034632D01*
X012746Y034533D02*
X013996Y034533D01*
X013996Y034435D02*
X012759Y034435D01*
X012759Y034336D02*
X013996Y034336D01*
X013996Y034238D02*
X012759Y034238D01*
X012735Y034139D02*
X013996Y034139D01*
X013996Y034041D02*
X012694Y034041D01*
X012653Y033942D02*
X013996Y033942D01*
X013996Y033844D02*
X012569Y033844D01*
X012470Y033745D02*
X013996Y033745D01*
X013996Y033647D02*
X012292Y033647D01*
X011396Y034829D02*
X009905Y034829D01*
X009921Y034927D02*
X011494Y034927D01*
X011633Y035026D02*
X009921Y035026D01*
X009280Y035026D02*
X009180Y035026D01*
X009180Y035124D02*
X009280Y035124D01*
X009280Y034927D02*
X009180Y034927D01*
X009180Y034829D02*
X009280Y034829D01*
X009280Y035420D02*
X009180Y035420D01*
X009180Y035518D02*
X009280Y035518D01*
X009280Y035617D02*
X009180Y035617D01*
X009180Y035715D02*
X009280Y035715D01*
X008587Y035715D02*
X007777Y035715D01*
X007834Y035617D02*
X008538Y035617D01*
X008538Y035518D02*
X007834Y035518D01*
X007834Y035420D02*
X008538Y035420D01*
X008538Y035321D02*
X007834Y035321D01*
X007421Y036125D02*
X007141Y036050D01*
X006851Y036050D01*
X006572Y036125D01*
X006321Y036270D01*
X006116Y036475D01*
X005971Y036725D01*
X005896Y037005D01*
X005896Y037295D01*
X005971Y037575D01*
X006116Y037825D01*
X006321Y038030D01*
X006572Y038175D01*
X006851Y038250D01*
X007141Y038250D01*
X007421Y038175D01*
X007672Y038030D01*
X007876Y037825D01*
X008021Y037575D01*
X008096Y037295D01*
X008096Y037005D01*
X008021Y036725D01*
X007876Y036475D01*
X007672Y036270D01*
X007421Y036125D01*
X007361Y036109D02*
X013985Y036109D01*
X013991Y036011D02*
X005446Y036011D01*
X005446Y036109D02*
X006631Y036109D01*
X006429Y036208D02*
X005446Y036208D01*
X005446Y036306D02*
X006284Y036306D01*
X006186Y036405D02*
X005446Y036405D01*
X005446Y036503D02*
X006100Y036503D01*
X006043Y036602D02*
X005446Y036602D01*
X005446Y036700D02*
X005986Y036700D01*
X005952Y036799D02*
X005446Y036799D01*
X005446Y036897D02*
X005925Y036897D01*
X005899Y036996D02*
X005446Y036996D01*
X005446Y037094D02*
X005896Y037094D01*
X005896Y037193D02*
X005446Y037193D01*
X005446Y037291D02*
X005896Y037291D01*
X005922Y037390D02*
X005446Y037390D01*
X005446Y037488D02*
X005948Y037488D01*
X005978Y037587D02*
X005446Y037587D01*
X005446Y037685D02*
X006035Y037685D01*
X006092Y037784D02*
X005446Y037784D01*
X005446Y037882D02*
X006173Y037882D01*
X006271Y037981D02*
X005446Y037981D01*
X005446Y038079D02*
X006405Y038079D01*
X006581Y038178D02*
X005446Y038178D01*
X005446Y038276D02*
X012756Y038276D01*
X012670Y038375D02*
X005446Y038375D01*
X005446Y038473D02*
X012585Y038473D01*
X012499Y038572D02*
X005446Y038572D01*
X005446Y038670D02*
X012414Y038670D01*
X012842Y038178D02*
X007411Y038178D01*
X007587Y038079D02*
X012927Y038079D01*
X013013Y037981D02*
X007721Y037981D01*
X007820Y037882D02*
X013099Y037882D01*
X013184Y037784D02*
X007901Y037784D01*
X007957Y037685D02*
X013270Y037685D01*
X013356Y037587D02*
X008014Y037587D01*
X008044Y037488D02*
X013436Y037488D01*
X013511Y037390D02*
X008071Y037390D01*
X008096Y037291D02*
X013583Y037291D01*
X013642Y037193D02*
X008096Y037193D01*
X008096Y037094D02*
X013701Y037094D01*
X013749Y036996D02*
X008094Y036996D01*
X008067Y036897D02*
X013793Y036897D01*
X013837Y036799D02*
X008041Y036799D01*
X008007Y036700D02*
X013868Y036700D01*
X013898Y036602D02*
X007950Y036602D01*
X007893Y036503D02*
X013928Y036503D01*
X013945Y036405D02*
X007806Y036405D01*
X007708Y036306D02*
X013963Y036306D01*
X013979Y036208D02*
X007564Y036208D01*
X006548Y035715D02*
X005446Y035715D01*
X005446Y035617D02*
X006491Y035617D01*
X006491Y035518D02*
X005446Y035518D01*
X005446Y035420D02*
X006491Y035420D01*
X006491Y035321D02*
X005446Y035321D01*
X005446Y035223D02*
X006491Y035223D01*
X006491Y035124D02*
X005446Y035124D01*
X005446Y035026D02*
X006491Y035026D01*
X006491Y034927D02*
X005446Y034927D01*
X005446Y034829D02*
X006505Y034829D01*
X006753Y034730D02*
X005446Y034730D01*
X005446Y034632D02*
X006753Y034632D01*
X006753Y034533D02*
X005446Y034533D01*
X005446Y034435D02*
X006753Y034435D01*
X006753Y034336D02*
X005446Y034336D01*
X005446Y034238D02*
X006753Y034238D01*
X006758Y034139D02*
X005446Y034139D01*
X005446Y034041D02*
X006799Y034041D01*
X006874Y033942D02*
X005446Y033942D01*
X005446Y033844D02*
X006973Y033844D01*
X007048Y033745D02*
X005446Y033745D01*
X005446Y033647D02*
X007089Y033647D01*
X007141Y033548D02*
X005446Y033548D01*
X005446Y033450D02*
X007240Y033450D01*
X006926Y030790D02*
X005446Y030790D01*
X005446Y030692D02*
X006926Y030692D01*
X006926Y030593D02*
X005446Y030593D01*
X005446Y030495D02*
X006926Y030495D01*
X006951Y030396D02*
X005446Y030396D01*
X005446Y030298D02*
X008886Y030298D01*
X008886Y030199D02*
X005446Y030199D01*
X005446Y030101D02*
X008886Y030101D01*
X008886Y030002D02*
X005446Y030002D01*
X005446Y029904D02*
X008886Y029904D01*
X008886Y029805D02*
X007754Y029805D01*
X007829Y029774D02*
X007646Y029850D01*
X007447Y029850D01*
X007263Y029774D01*
X007122Y029633D01*
X007046Y029449D01*
X007046Y029251D01*
X007122Y029067D01*
X007263Y028926D01*
X007447Y028850D01*
X007646Y028850D01*
X007829Y028926D01*
X007970Y029067D01*
X008046Y029251D01*
X008046Y029449D01*
X007970Y029633D01*
X007829Y029774D01*
X007897Y029707D02*
X008886Y029707D01*
X008886Y029608D02*
X007980Y029608D01*
X008021Y029510D02*
X008886Y029510D01*
X008886Y029411D02*
X008046Y029411D01*
X008046Y029313D02*
X008886Y029313D01*
X008886Y029214D02*
X008031Y029214D01*
X007990Y029116D02*
X008886Y029116D01*
X008886Y029017D02*
X007920Y029017D01*
X007811Y028919D02*
X008886Y028919D01*
X008886Y028820D02*
X007618Y028820D01*
X007546Y028850D02*
X007729Y028774D01*
X007870Y028633D01*
X007946Y028449D01*
X007946Y028251D01*
X007870Y028067D01*
X007729Y027926D01*
X007546Y027850D01*
X007347Y027850D01*
X007163Y027926D01*
X007022Y028067D01*
X006946Y028251D01*
X006946Y028449D01*
X007022Y028633D01*
X007163Y028774D01*
X007347Y028850D01*
X007546Y028850D01*
X007782Y028722D02*
X008886Y028722D01*
X008886Y028623D02*
X007874Y028623D01*
X007915Y028525D02*
X008886Y028525D01*
X008886Y028426D02*
X007946Y028426D01*
X007946Y028328D02*
X008886Y028328D01*
X008886Y028229D02*
X007937Y028229D01*
X007896Y028131D02*
X008886Y028131D01*
X008917Y028032D02*
X007835Y028032D01*
X007737Y027934D02*
X008986Y027934D01*
X008986Y027835D02*
X007682Y027835D01*
X007646Y027850D02*
X007447Y027850D01*
X007263Y027774D01*
X007122Y027633D01*
X007046Y027449D01*
X007046Y027251D01*
X007122Y027067D01*
X007263Y026926D01*
X007447Y026850D01*
X007646Y026850D01*
X008986Y026850D01*
X008986Y026752D02*
X007946Y026752D01*
X007946Y026774D02*
X007870Y026850D01*
X007022Y026850D01*
X006946Y026774D01*
X006946Y025926D01*
X007022Y025850D01*
X007870Y025850D01*
X007946Y025926D01*
X007946Y026774D01*
X007946Y026653D02*
X008986Y026653D01*
X008986Y026555D02*
X007946Y026555D01*
X007946Y026456D02*
X008986Y026456D01*
X008986Y026358D02*
X007946Y026358D01*
X007946Y026259D02*
X008986Y026259D01*
X008986Y026161D02*
X007946Y026161D01*
X007946Y026062D02*
X008986Y026062D01*
X008986Y025964D02*
X007946Y025964D01*
X007885Y025865D02*
X008986Y025865D01*
X008986Y025767D02*
X005446Y025767D01*
X005446Y025865D02*
X007007Y025865D01*
X006946Y025964D02*
X005446Y025964D01*
X005446Y026062D02*
X006946Y026062D01*
X006946Y026161D02*
X005446Y026161D01*
X005446Y026259D02*
X006946Y026259D01*
X006946Y026358D02*
X005446Y026358D01*
X005446Y026456D02*
X006946Y026456D01*
X006946Y026555D02*
X005446Y026555D01*
X005446Y026653D02*
X006946Y026653D01*
X006946Y026752D02*
X005446Y026752D01*
X005446Y026850D02*
X007447Y026850D01*
X007646Y026850D02*
X007829Y026926D01*
X007970Y027067D01*
X008046Y027251D01*
X008046Y027449D01*
X007970Y027633D01*
X007829Y027774D01*
X007646Y027850D01*
X007411Y027835D02*
X005446Y027835D01*
X005446Y027737D02*
X007226Y027737D01*
X007127Y027638D02*
X005446Y027638D01*
X005446Y027540D02*
X007084Y027540D01*
X007046Y027441D02*
X005446Y027441D01*
X005446Y027343D02*
X007046Y027343D01*
X007049Y027244D02*
X005446Y027244D01*
X005446Y027146D02*
X007090Y027146D01*
X007142Y027047D02*
X005446Y027047D01*
X005446Y026949D02*
X007241Y026949D01*
X007852Y026949D02*
X008986Y026949D01*
X008986Y027047D02*
X007950Y027047D01*
X008003Y027146D02*
X008986Y027146D01*
X008986Y027244D02*
X008043Y027244D01*
X008046Y027343D02*
X008986Y027343D01*
X008986Y027441D02*
X008046Y027441D01*
X008009Y027540D02*
X008986Y027540D01*
X008986Y027638D02*
X007965Y027638D01*
X007867Y027737D02*
X008986Y027737D01*
X009406Y027737D02*
X010888Y027737D01*
X010944Y027638D02*
X009406Y027638D01*
X009406Y027540D02*
X011088Y027540D01*
X011278Y028229D02*
X009314Y028229D01*
X009306Y028328D02*
X011377Y028328D01*
X011475Y028426D02*
X009306Y028426D01*
X009306Y029116D02*
X010351Y029116D01*
X010252Y029214D02*
X009306Y029214D01*
X009306Y029313D02*
X010154Y029313D01*
X010055Y029411D02*
X009306Y029411D01*
X007338Y029805D02*
X005446Y029805D01*
X005446Y029707D02*
X007196Y029707D01*
X007112Y029608D02*
X005446Y029608D01*
X005446Y029510D02*
X007071Y029510D01*
X007046Y029411D02*
X005446Y029411D01*
X005446Y029313D02*
X007046Y029313D01*
X007061Y029214D02*
X005446Y029214D01*
X005446Y029116D02*
X007102Y029116D01*
X007172Y029017D02*
X005446Y029017D01*
X005446Y028919D02*
X007281Y028919D01*
X007274Y028820D02*
X005446Y028820D01*
X005446Y028722D02*
X007111Y028722D01*
X007018Y028623D02*
X005446Y028623D01*
X005446Y028525D02*
X006977Y028525D01*
X006946Y028426D02*
X005446Y028426D01*
X005446Y028328D02*
X006946Y028328D01*
X006955Y028229D02*
X005446Y028229D01*
X005446Y028131D02*
X006996Y028131D01*
X007057Y028032D02*
X005446Y028032D01*
X005446Y027934D02*
X007156Y027934D01*
X005446Y025668D02*
X008986Y025668D01*
X008986Y025570D02*
X005446Y025570D01*
X005446Y025471D02*
X008986Y025471D01*
X008986Y025373D02*
X005446Y025373D01*
X005446Y025274D02*
X008986Y025274D01*
X008986Y025176D02*
X005446Y025176D01*
X005446Y025077D02*
X008959Y025077D01*
X008894Y024979D02*
X005446Y024979D01*
X005446Y024880D02*
X008868Y024880D01*
X008869Y024782D02*
X005446Y024782D01*
X005446Y024683D02*
X008910Y024683D01*
X008998Y024585D02*
X005446Y024585D01*
X005446Y024092D02*
X012809Y024092D01*
X012798Y024087D02*
X012584Y024011D01*
X012362Y023965D01*
X012136Y023950D01*
X011537Y023950D01*
X011389Y023939D01*
X011243Y023908D01*
X011104Y023856D01*
X010974Y023785D01*
X010855Y023696D01*
X010750Y023591D01*
X010661Y023472D01*
X010590Y023342D01*
X010538Y023203D01*
X010507Y023058D01*
X010496Y022910D01*
X008046Y022910D01*
X008046Y022812D02*
X010496Y022812D01*
X010496Y022910D02*
X010496Y019732D01*
X010461Y019732D01*
X010461Y019502D01*
X010461Y019502D01*
X010461Y019732D01*
X010281Y019732D01*
X010243Y019721D01*
X010209Y019702D01*
X010181Y019674D01*
X010161Y019639D01*
X010151Y019601D01*
X010151Y019502D01*
X010461Y019502D01*
X010461Y019502D01*
X010151Y019502D01*
X010151Y019426D01*
X008046Y019426D01*
X008046Y019774D01*
X007970Y019850D01*
X007122Y019850D01*
X007046Y019774D01*
X007046Y018926D01*
X007122Y018850D01*
X007970Y018850D01*
X008046Y018926D01*
X008046Y019066D01*
X008957Y019066D01*
X008422Y018530D01*
X007913Y018530D01*
X007870Y018633D01*
X007729Y018774D01*
X007546Y018850D01*
X007347Y018850D01*
X007163Y018774D01*
X007022Y018633D01*
X006946Y018449D01*
X006946Y018251D01*
X007022Y018067D01*
X007163Y017926D01*
X007347Y017850D01*
X007402Y017850D01*
X007347Y017832D01*
X007274Y017795D01*
X007207Y017747D01*
X007150Y017689D01*
X007101Y017623D01*
X007064Y017550D01*
X007039Y017472D01*
X007028Y017400D01*
X007496Y017400D01*
X007496Y017300D01*
X007028Y017300D01*
X007039Y017228D01*
X007064Y017150D01*
X007101Y017077D01*
X007150Y017011D01*
X007207Y016953D01*
X007274Y016905D01*
X007347Y016868D01*
X007424Y016843D01*
X007496Y016831D01*
X007496Y017300D01*
X007596Y017300D01*
X007596Y016831D01*
X007668Y016843D01*
X007746Y016868D01*
X007819Y016905D01*
X007885Y016953D01*
X007943Y017011D01*
X007991Y017077D01*
X008028Y017150D01*
X008053Y017228D01*
X008065Y017300D01*
X007596Y017300D01*
X007596Y017400D01*
X007496Y017400D01*
X007496Y017850D01*
X007546Y017850D01*
X007729Y017926D01*
X007870Y018067D01*
X007913Y018170D01*
X008571Y018170D01*
X008676Y018275D01*
X009211Y018810D01*
X009459Y018810D01*
X009409Y018760D01*
X009286Y018637D01*
X009286Y017804D01*
X009218Y017736D01*
X009168Y017615D01*
X009168Y017485D01*
X009218Y017364D01*
X009286Y017296D01*
X009286Y016307D01*
X009127Y016307D01*
X009051Y016231D01*
X009051Y016114D01*
X008362Y016114D01*
X008362Y016116D01*
X008286Y016192D01*
X007706Y016192D01*
X007630Y016116D01*
X007630Y015693D01*
X007706Y015617D01*
X008286Y015617D01*
X008362Y015693D01*
X008362Y015694D01*
X009051Y015694D01*
X009051Y015572D01*
X009127Y015496D01*
X009865Y015496D01*
X009941Y015572D01*
X009941Y016231D01*
X009865Y016307D01*
X009706Y016307D01*
X009706Y017240D01*
X010151Y017240D01*
X010151Y017198D01*
X010151Y017099D01*
X010161Y017061D01*
X010181Y017026D01*
X010209Y016998D01*
X010243Y016979D01*
X010281Y016968D01*
X010461Y016968D01*
X010496Y016968D01*
X010496Y014250D01*
X009996Y013750D01*
X010094Y013848D02*
X006756Y013848D01*
X006756Y013947D02*
X010193Y013947D01*
X010291Y014045D02*
X006756Y014045D01*
X006756Y014144D02*
X010390Y014144D01*
X010488Y014242D02*
X006756Y014242D01*
X006756Y014341D02*
X010496Y014341D01*
X010496Y014439D02*
X009936Y014439D01*
X009931Y014431D02*
X009951Y014465D01*
X009961Y014503D01*
X009961Y014749D01*
X009546Y014749D01*
X009546Y014373D01*
X009831Y014373D01*
X009869Y014383D01*
X009903Y014403D01*
X009931Y014431D01*
X009961Y014538D02*
X010496Y014538D01*
X010496Y014636D02*
X009961Y014636D01*
X009961Y014735D02*
X010496Y014735D01*
X010496Y014833D02*
X009546Y014833D01*
X009546Y014849D02*
X009961Y014849D01*
X009961Y015094D01*
X009951Y015132D01*
X009931Y015167D01*
X009903Y015194D01*
X009869Y015214D01*
X009831Y015224D01*
X009546Y015224D01*
X009546Y014849D01*
X009446Y014849D01*
X009446Y015224D01*
X009161Y015224D01*
X009123Y015214D01*
X009089Y015194D01*
X009061Y015167D01*
X009041Y015132D01*
X009031Y015094D01*
X009031Y014849D01*
X009446Y014849D01*
X009446Y014749D01*
X009031Y014749D01*
X009031Y014503D01*
X009041Y014465D01*
X009061Y014431D01*
X009089Y014403D01*
X009123Y014383D01*
X009161Y014373D01*
X009446Y014373D01*
X009446Y014749D01*
X009546Y014749D01*
X009546Y014849D01*
X009546Y014932D02*
X009446Y014932D01*
X009446Y015030D02*
X009546Y015030D01*
X009546Y015129D02*
X009446Y015129D01*
X009446Y014833D02*
X006660Y014833D01*
X006756Y014735D02*
X009031Y014735D01*
X009031Y014636D02*
X006756Y014636D01*
X006756Y014538D02*
X009031Y014538D01*
X009057Y014439D02*
X006756Y014439D01*
X006336Y014439D02*
X005446Y014439D01*
X005446Y014341D02*
X006336Y014341D01*
X006336Y014242D02*
X005446Y014242D01*
X005446Y014144D02*
X006336Y014144D01*
X006336Y014045D02*
X005446Y014045D01*
X005446Y013947D02*
X006336Y013947D01*
X006336Y013848D02*
X005446Y013848D01*
X005446Y014538D02*
X006336Y014538D01*
X006263Y014636D02*
X005446Y014636D01*
X005446Y014735D02*
X006165Y014735D01*
X006066Y014833D02*
X005446Y014833D01*
X005446Y014932D02*
X005968Y014932D01*
X005869Y015030D02*
X005446Y015030D01*
X005446Y015129D02*
X005771Y015129D01*
X005736Y015227D02*
X005446Y015227D01*
X005446Y015326D02*
X005736Y015326D01*
X005736Y015424D02*
X005446Y015424D01*
X005446Y015523D02*
X005736Y015523D01*
X005736Y015621D02*
X005446Y015621D01*
X005446Y015720D02*
X005736Y015720D01*
X005736Y015818D02*
X005446Y015818D01*
X005446Y015917D02*
X005736Y015917D01*
X005736Y016015D02*
X005446Y016015D01*
X005446Y016114D02*
X005736Y016114D01*
X005736Y016212D02*
X005446Y016212D01*
X005446Y016311D02*
X005736Y016311D01*
X005736Y016409D02*
X005446Y016409D01*
X005446Y016508D02*
X005736Y016508D01*
X005736Y016606D02*
X005446Y016606D01*
X005446Y016705D02*
X005736Y016705D01*
X005736Y016803D02*
X005446Y016803D01*
X005446Y016902D02*
X005736Y016902D01*
X005736Y017000D02*
X005446Y017000D01*
X005446Y017099D02*
X005736Y017099D01*
X005736Y017197D02*
X005446Y017197D01*
X005446Y017296D02*
X005736Y017296D01*
X005736Y017394D02*
X005446Y017394D01*
X005446Y017493D02*
X005736Y017493D01*
X005736Y017591D02*
X005446Y017591D01*
X005446Y017690D02*
X005736Y017690D01*
X005736Y017788D02*
X005446Y017788D01*
X005446Y017887D02*
X005736Y017887D01*
X005736Y017985D02*
X005446Y017985D01*
X005446Y018084D02*
X005736Y018084D01*
X005736Y018182D02*
X005446Y018182D01*
X005446Y018281D02*
X005736Y018281D01*
X005736Y018379D02*
X005446Y018379D01*
X005446Y018478D02*
X005736Y018478D01*
X005736Y018576D02*
X005446Y018576D01*
X005446Y018675D02*
X005736Y018675D01*
X005736Y018773D02*
X005446Y018773D01*
X005446Y018872D02*
X005736Y018872D01*
X005736Y018970D02*
X005446Y018970D01*
X005446Y019069D02*
X005736Y019069D01*
X005736Y019167D02*
X005446Y019167D01*
X005446Y019266D02*
X005736Y019266D01*
X005736Y019364D02*
X005446Y019364D01*
X005446Y019463D02*
X005736Y019463D01*
X005736Y019561D02*
X005446Y019561D01*
X005446Y019660D02*
X005736Y019660D01*
X005736Y019758D02*
X005446Y019758D01*
X005446Y019857D02*
X005736Y019857D01*
X005736Y019955D02*
X005446Y019955D01*
X005446Y020054D02*
X005736Y020054D01*
X005736Y020152D02*
X005446Y020152D01*
X005446Y020251D02*
X005736Y020251D01*
X005736Y020349D02*
X005446Y020349D01*
X005446Y020448D02*
X005736Y020448D01*
X005736Y020546D02*
X005446Y020546D01*
X005446Y020645D02*
X005736Y020645D01*
X005736Y020743D02*
X005446Y020743D01*
X005446Y020842D02*
X005736Y020842D01*
X005736Y020940D02*
X005446Y020940D01*
X005446Y021039D02*
X005736Y021039D01*
X005736Y021137D02*
X005446Y021137D01*
X005446Y021236D02*
X005736Y021236D01*
X005698Y021334D02*
X005446Y021334D01*
X005446Y021433D02*
X005640Y021433D01*
X005618Y021531D02*
X005446Y021531D01*
X005446Y021630D02*
X005624Y021630D01*
X005665Y021728D02*
X005446Y021728D01*
X005446Y021827D02*
X005759Y021827D01*
X005446Y021925D02*
X006946Y021925D01*
X006946Y021949D02*
X006946Y021751D01*
X007022Y021567D01*
X007163Y021426D01*
X007347Y021350D01*
X007402Y021350D01*
X007347Y021332D01*
X007274Y021295D01*
X007207Y021247D01*
X007150Y021189D01*
X007101Y021123D01*
X007064Y021050D01*
X007039Y020972D01*
X007028Y020900D01*
X007496Y020900D01*
X007496Y020800D01*
X007028Y020800D01*
X007039Y020728D01*
X007064Y020650D01*
X007101Y020577D01*
X007150Y020511D01*
X007207Y020453D01*
X007274Y020405D01*
X007347Y020368D01*
X007424Y020343D01*
X007496Y020331D01*
X007496Y020800D01*
X007596Y020800D01*
X007596Y020331D01*
X007668Y020343D01*
X007746Y020368D01*
X007819Y020405D01*
X007885Y020453D01*
X007943Y020511D01*
X007991Y020577D01*
X008028Y020650D01*
X008053Y020728D01*
X008065Y020800D01*
X007596Y020800D01*
X007596Y020900D01*
X007496Y020900D01*
X007496Y021350D01*
X007546Y021350D01*
X007729Y021426D01*
X007870Y021567D01*
X007946Y021751D01*
X007946Y021949D01*
X007870Y022133D01*
X007729Y022274D01*
X007546Y022350D01*
X007347Y022350D01*
X007163Y022274D01*
X007022Y022133D01*
X006946Y021949D01*
X006977Y022024D02*
X005446Y022024D01*
X005446Y022122D02*
X007018Y022122D01*
X007110Y022221D02*
X005446Y022221D01*
X005446Y022319D02*
X007272Y022319D01*
X007122Y022350D02*
X007046Y022426D01*
X007046Y023274D01*
X007122Y023350D01*
X007970Y023350D01*
X008046Y023274D01*
X008046Y022426D01*
X007970Y022350D01*
X007122Y022350D01*
X007055Y022418D02*
X005446Y022418D01*
X005446Y022516D02*
X007046Y022516D01*
X007046Y022615D02*
X005446Y022615D01*
X005446Y022713D02*
X007046Y022713D01*
X007046Y022812D02*
X005446Y022812D01*
X005446Y022910D02*
X007046Y022910D01*
X007046Y023009D02*
X005446Y023009D01*
X005446Y023107D02*
X007046Y023107D01*
X007046Y023206D02*
X005446Y023206D01*
X005446Y023304D02*
X007076Y023304D01*
X008016Y023304D02*
X010576Y023304D01*
X010539Y023206D02*
X008046Y023206D01*
X008046Y023107D02*
X010518Y023107D01*
X010503Y023009D02*
X008046Y023009D01*
X008046Y022713D02*
X010496Y022713D01*
X010496Y022615D02*
X008046Y022615D01*
X008046Y022516D02*
X010496Y022516D01*
X010496Y022418D02*
X008038Y022418D01*
X007783Y022221D02*
X010496Y022221D01*
X010496Y022319D02*
X007620Y022319D01*
X007875Y022122D02*
X010496Y022122D01*
X010496Y022024D02*
X007915Y022024D01*
X007946Y021925D02*
X010496Y021925D01*
X010496Y021827D02*
X007946Y021827D01*
X007937Y021728D02*
X010496Y021728D01*
X010496Y021630D02*
X007896Y021630D01*
X007834Y021531D02*
X010496Y021531D01*
X010496Y021433D02*
X007736Y021433D01*
X007739Y021334D02*
X010496Y021334D01*
X010496Y021236D02*
X007896Y021236D01*
X007885Y021247D02*
X007943Y021189D01*
X007991Y021123D01*
X008028Y021050D01*
X008053Y020972D01*
X008065Y020900D01*
X007596Y020900D01*
X007596Y021369D01*
X007668Y021357D01*
X007746Y021332D01*
X007819Y021295D01*
X007885Y021247D01*
X007980Y021137D02*
X010496Y021137D01*
X010496Y021039D02*
X008032Y021039D01*
X008058Y020940D02*
X010496Y020940D01*
X010496Y020842D02*
X007596Y020842D01*
X007596Y020940D02*
X007496Y020940D01*
X007496Y020842D02*
X006156Y020842D01*
X006156Y020940D02*
X007034Y020940D01*
X007061Y021039D02*
X006156Y021039D01*
X006156Y021137D02*
X007112Y021137D01*
X007196Y021236D02*
X006156Y021236D01*
X006194Y021334D02*
X007353Y021334D01*
X007496Y021334D02*
X007596Y021334D01*
X007596Y021236D02*
X007496Y021236D01*
X007496Y021137D02*
X007596Y021137D01*
X007596Y021039D02*
X007496Y021039D01*
X007496Y020743D02*
X007596Y020743D01*
X007596Y020645D02*
X007496Y020645D01*
X007496Y020546D02*
X007596Y020546D01*
X007596Y020448D02*
X007496Y020448D01*
X007496Y020349D02*
X007596Y020349D01*
X007687Y020349D02*
X010496Y020349D01*
X010496Y020251D02*
X006156Y020251D01*
X006156Y020349D02*
X007405Y020349D01*
X007215Y020448D02*
X006156Y020448D01*
X006156Y020546D02*
X007124Y020546D01*
X007067Y020645D02*
X006156Y020645D01*
X006156Y020743D02*
X007037Y020743D01*
X007157Y021433D02*
X006253Y021433D01*
X006274Y021531D02*
X007058Y021531D01*
X006996Y021630D02*
X006268Y021630D01*
X006228Y021728D02*
X006956Y021728D01*
X006946Y021827D02*
X006134Y021827D01*
X006156Y020152D02*
X010496Y020152D01*
X010496Y020054D02*
X006156Y020054D01*
X006156Y019955D02*
X010496Y019955D01*
X010496Y019857D02*
X006156Y019857D01*
X006156Y019758D02*
X007046Y019758D01*
X007046Y019660D02*
X006156Y019660D01*
X006156Y019561D02*
X007046Y019561D01*
X007046Y019463D02*
X006156Y019463D01*
X006156Y019364D02*
X007046Y019364D01*
X007046Y019266D02*
X006156Y019266D01*
X006156Y019167D02*
X007046Y019167D01*
X007046Y019069D02*
X006156Y019069D01*
X006156Y018970D02*
X007046Y018970D01*
X007101Y018872D02*
X006156Y018872D01*
X006156Y018773D02*
X007162Y018773D01*
X007064Y018675D02*
X006156Y018675D01*
X006156Y018576D02*
X006999Y018576D01*
X006958Y018478D02*
X006156Y018478D01*
X006156Y018379D02*
X006946Y018379D01*
X006946Y018281D02*
X006156Y018281D01*
X006156Y018182D02*
X006975Y018182D01*
X007015Y018084D02*
X006156Y018084D01*
X006156Y017985D02*
X007104Y017985D01*
X007259Y017887D02*
X006156Y017887D01*
X006156Y017788D02*
X007264Y017788D01*
X007150Y017690D02*
X006156Y017690D01*
X006156Y017591D02*
X007085Y017591D01*
X007046Y017493D02*
X006156Y017493D01*
X006156Y017394D02*
X007496Y017394D01*
X007496Y017296D02*
X007596Y017296D01*
X007596Y017394D02*
X009206Y017394D01*
X009168Y017493D02*
X008047Y017493D01*
X008053Y017472D02*
X008028Y017550D01*
X007991Y017623D01*
X007943Y017689D01*
X007885Y017747D01*
X007819Y017795D01*
X007746Y017832D01*
X007668Y017857D01*
X007596Y017869D01*
X007596Y017400D01*
X008065Y017400D01*
X008053Y017472D01*
X008007Y017591D02*
X009168Y017591D01*
X009199Y017690D02*
X007942Y017690D01*
X007828Y017788D02*
X009270Y017788D01*
X009286Y017887D02*
X007634Y017887D01*
X007596Y017788D02*
X007496Y017788D01*
X007496Y017690D02*
X007596Y017690D01*
X007596Y017591D02*
X007496Y017591D01*
X007496Y017493D02*
X007596Y017493D01*
X007596Y017197D02*
X007496Y017197D01*
X007496Y017099D02*
X007596Y017099D01*
X007596Y017000D02*
X007496Y017000D01*
X007496Y016902D02*
X007596Y016902D01*
X007811Y016902D02*
X009286Y016902D01*
X009286Y017000D02*
X007932Y017000D01*
X008002Y017099D02*
X009286Y017099D01*
X009286Y017197D02*
X008043Y017197D01*
X008064Y017296D02*
X009286Y017296D01*
X009286Y016803D02*
X006156Y016803D01*
X006156Y016705D02*
X009286Y016705D01*
X009286Y016606D02*
X006156Y016606D01*
X006156Y016508D02*
X009286Y016508D01*
X009286Y016409D02*
X006156Y016409D01*
X006156Y016311D02*
X009286Y016311D01*
X009051Y016212D02*
X006156Y016212D01*
X006156Y016114D02*
X007630Y016114D01*
X007630Y016015D02*
X006156Y016015D01*
X006156Y015917D02*
X007630Y015917D01*
X007630Y015818D02*
X006156Y015818D01*
X006156Y015720D02*
X007630Y015720D01*
X007702Y015621D02*
X006156Y015621D01*
X006156Y015523D02*
X009100Y015523D01*
X009051Y015621D02*
X008290Y015621D01*
X008252Y015503D02*
X008025Y015503D01*
X008025Y015224D01*
X008382Y015224D01*
X008382Y015373D01*
X008372Y015411D01*
X008352Y015445D01*
X008325Y015473D01*
X008290Y015493D01*
X008252Y015503D01*
X008365Y015424D02*
X010496Y015424D01*
X010496Y015326D02*
X008382Y015326D01*
X008382Y015227D02*
X010496Y015227D01*
X010496Y015129D02*
X009952Y015129D01*
X009961Y015030D02*
X010496Y015030D01*
X010496Y014932D02*
X009961Y014932D01*
X009546Y014735D02*
X009446Y014735D01*
X009446Y014636D02*
X009546Y014636D01*
X009546Y014538D02*
X009446Y014538D01*
X009446Y014439D02*
X009546Y014439D01*
X009031Y014932D02*
X008338Y014932D01*
X008325Y014918D02*
X008352Y014946D01*
X008372Y014980D01*
X008382Y015018D01*
X008382Y015167D01*
X008025Y015167D01*
X008025Y015224D01*
X007967Y015224D01*
X007967Y015167D01*
X007610Y015167D01*
X007610Y015018D01*
X007620Y014980D01*
X007640Y014946D01*
X007668Y014918D01*
X007702Y014898D01*
X007740Y014888D01*
X007967Y014888D01*
X007967Y015167D01*
X008025Y015167D01*
X008025Y014888D01*
X008252Y014888D01*
X008290Y014898D01*
X008325Y014918D01*
X008382Y015030D02*
X009031Y015030D01*
X009040Y015129D02*
X008382Y015129D01*
X008025Y015129D02*
X007967Y015129D01*
X007967Y015224D02*
X007610Y015224D01*
X007610Y015373D01*
X007620Y015411D01*
X007640Y015445D01*
X007668Y015473D01*
X007702Y015493D01*
X007740Y015503D01*
X007967Y015503D01*
X007967Y015224D01*
X007967Y015227D02*
X008025Y015227D01*
X008025Y015326D02*
X007967Y015326D01*
X007967Y015424D02*
X008025Y015424D01*
X008025Y015030D02*
X007967Y015030D01*
X007967Y014932D02*
X008025Y014932D01*
X007654Y014932D02*
X006562Y014932D01*
X006463Y015030D02*
X007610Y015030D01*
X007610Y015129D02*
X006365Y015129D01*
X006266Y015227D02*
X007610Y015227D01*
X007610Y015326D02*
X006168Y015326D01*
X006156Y015424D02*
X007628Y015424D01*
X007281Y016902D02*
X006156Y016902D01*
X006156Y017000D02*
X007161Y017000D01*
X007091Y017099D02*
X006156Y017099D01*
X006156Y017197D02*
X007049Y017197D01*
X007028Y017296D02*
X006156Y017296D01*
X007446Y018350D02*
X008496Y018350D01*
X009136Y018990D01*
X010461Y018990D01*
X010461Y019246D02*
X007546Y019246D01*
X007546Y019350D01*
X008046Y019463D02*
X010151Y019463D01*
X010151Y019561D02*
X008046Y019561D01*
X008046Y019660D02*
X010173Y019660D01*
X010461Y019660D02*
X010461Y019660D01*
X010461Y019561D02*
X010461Y019561D01*
X010496Y019758D02*
X008046Y019758D01*
X008046Y018970D02*
X008862Y018970D01*
X008763Y018872D02*
X007992Y018872D01*
X007829Y018675D02*
X008566Y018675D01*
X008665Y018773D02*
X007730Y018773D01*
X007894Y018576D02*
X008468Y018576D01*
X008681Y018281D02*
X009286Y018281D01*
X009286Y018379D02*
X008780Y018379D01*
X008878Y018478D02*
X009286Y018478D01*
X009286Y018576D02*
X008977Y018576D01*
X009075Y018675D02*
X009324Y018675D01*
X009422Y018773D02*
X009174Y018773D01*
X009286Y018182D02*
X008583Y018182D01*
X009286Y018084D02*
X007877Y018084D01*
X007788Y017985D02*
X009286Y017985D01*
X009706Y017985D02*
X010151Y017985D01*
X010151Y017966D02*
X010461Y017966D01*
X010151Y017966D01*
X010151Y017866D01*
X010161Y017828D01*
X010171Y017811D01*
X010171Y017660D01*
X009806Y017660D01*
X009774Y017736D01*
X009706Y017804D01*
X009706Y018463D01*
X009767Y018524D01*
X010151Y018524D01*
X010151Y018478D01*
X010461Y018478D01*
X010461Y018478D01*
X010151Y018478D01*
X010151Y018378D01*
X010161Y018340D01*
X010171Y018323D01*
X010171Y018121D01*
X010161Y018104D01*
X010151Y018066D01*
X010151Y017966D01*
X010151Y017887D02*
X009706Y017887D01*
X009722Y017788D02*
X010171Y017788D01*
X010171Y017690D02*
X009794Y017690D01*
X009706Y018084D02*
X010155Y018084D01*
X010171Y018182D02*
X009706Y018182D01*
X009706Y018281D02*
X010171Y018281D01*
X010151Y018379D02*
X009706Y018379D01*
X009721Y018478D02*
X010151Y018478D01*
X010461Y017966D02*
X010461Y017966D01*
X010461Y017198D02*
X010151Y017198D01*
X010461Y017198D01*
X010461Y016968D01*
X010461Y017198D01*
X010461Y017198D01*
X010461Y017198D01*
X010461Y017197D02*
X010461Y017197D01*
X010461Y017099D02*
X010461Y017099D01*
X010461Y017000D02*
X010461Y017000D01*
X010496Y016902D02*
X009706Y016902D01*
X009706Y017000D02*
X010207Y017000D01*
X010151Y017099D02*
X009706Y017099D01*
X009706Y017197D02*
X010151Y017197D01*
X010496Y016803D02*
X009706Y016803D01*
X009706Y016705D02*
X010496Y016705D01*
X010496Y016606D02*
X009706Y016606D01*
X009706Y016508D02*
X010496Y016508D01*
X010496Y016409D02*
X009706Y016409D01*
X009706Y016311D02*
X010496Y016311D01*
X010496Y016212D02*
X009941Y016212D01*
X009941Y016114D02*
X010496Y016114D01*
X010496Y016015D02*
X009941Y016015D01*
X009941Y015917D02*
X010496Y015917D01*
X010496Y015818D02*
X009941Y015818D01*
X009941Y015720D02*
X010496Y015720D01*
X010496Y015621D02*
X009941Y015621D01*
X009892Y015523D02*
X010496Y015523D01*
X013196Y017260D02*
X013196Y017900D01*
X013266Y017970D01*
X013528Y017970D01*
X013532Y017966D01*
X013266Y017970D02*
X013186Y018050D01*
X013186Y018380D01*
X013286Y018480D01*
X013530Y018480D01*
X013532Y018478D01*
X013286Y018480D02*
X013266Y018480D01*
X013186Y018560D01*
X013186Y019450D01*
X013238Y019502D01*
X013532Y019502D01*
X013532Y020055D01*
X013606Y020130D01*
X013532Y019246D02*
X014422Y019246D01*
X015276Y020100D01*
X014926Y020450D01*
X014916Y020896D01*
X014916Y021604D02*
X015716Y021604D01*
X015716Y020896D02*
X015759Y020853D01*
X015759Y020141D01*
X015756Y020137D01*
X015756Y019800D01*
X015636Y019680D01*
X015206Y019680D01*
X014516Y018990D01*
X013532Y018990D01*
X013196Y017260D02*
X013258Y017198D01*
X013532Y017198D01*
X015276Y020100D02*
X015316Y020140D01*
X015562Y020140D01*
X015562Y020141D01*
X015956Y020141D02*
X015956Y020390D01*
X016246Y020690D01*
X016386Y020690D01*
X016350Y020141D02*
X018377Y020141D01*
X018546Y020310D01*
X018546Y020970D01*
X018686Y021110D01*
X020446Y021110D01*
X020556Y021000D01*
X020556Y020359D01*
X020547Y020350D01*
X020546Y018160D02*
X020546Y017351D01*
X020547Y017350D01*
X018756Y015240D02*
X018756Y014486D01*
X018751Y014480D01*
X018753Y014478D01*
X019738Y014478D01*
X019738Y013966D02*
X018078Y013966D01*
X018042Y013930D01*
X018796Y012250D02*
X018796Y011496D01*
X018781Y011480D01*
X018783Y011478D01*
X019738Y011478D01*
X019738Y010966D02*
X018210Y010966D01*
X018056Y011120D01*
X018056Y011464D01*
X018072Y011480D01*
X015816Y007150D02*
X015765Y007150D01*
X015913Y005278D02*
X015971Y005278D01*
X015971Y005180D02*
X015913Y005180D01*
X015913Y005081D02*
X015971Y005081D01*
X015971Y004983D02*
X015913Y004983D01*
X015752Y002914D02*
X014200Y002914D01*
X014299Y002816D02*
X015752Y002816D01*
X015760Y002717D02*
X014386Y002717D01*
X014386Y002619D02*
X015816Y002619D01*
X015816Y002520D02*
X014386Y002520D01*
X014386Y002422D02*
X014771Y002422D01*
X014771Y002323D02*
X014386Y002323D01*
X014386Y002225D02*
X014771Y002225D01*
X014771Y002126D02*
X014386Y002126D01*
X014386Y002028D02*
X014771Y002028D01*
X014771Y001929D02*
X014386Y001929D01*
X014386Y001831D02*
X014771Y001831D01*
X014789Y001732D02*
X014386Y001732D01*
X014386Y001634D02*
X014751Y001634D01*
X014751Y001535D02*
X014350Y001535D01*
X014252Y001437D02*
X014751Y001437D01*
X014751Y001240D02*
X013918Y001240D01*
X013962Y001338D02*
X015146Y001338D01*
X015146Y001240D02*
X015246Y001240D01*
X015246Y001338D02*
X015824Y001338D01*
X015816Y001437D02*
X015641Y001437D01*
X015641Y001535D02*
X015816Y001535D01*
X015816Y001634D02*
X015641Y001634D01*
X015603Y001732D02*
X015816Y001732D01*
X015816Y001831D02*
X015621Y001831D01*
X015621Y001929D02*
X015816Y001929D01*
X015816Y002323D02*
X015621Y002323D01*
X015621Y002422D02*
X015816Y002422D01*
X015641Y001240D02*
X015996Y001240D01*
X015996Y001141D02*
X015641Y001141D01*
X015620Y001043D02*
X015996Y001043D01*
X015246Y001043D02*
X015146Y001043D01*
X015146Y001141D02*
X015246Y001141D01*
X014006Y002323D02*
X013982Y002323D01*
X013971Y002422D02*
X014006Y002422D01*
X014006Y002520D02*
X013017Y002520D01*
X013055Y002422D02*
X013221Y002422D01*
X013220Y002420D02*
X013210Y002382D01*
X013210Y002233D01*
X013567Y002233D01*
X013567Y002512D01*
X013340Y002512D01*
X013302Y002502D01*
X013268Y002482D01*
X013240Y002454D01*
X013220Y002420D01*
X013210Y002323D02*
X013055Y002323D01*
X013055Y002126D02*
X013210Y002126D01*
X013210Y002028D02*
X013055Y002028D01*
X013019Y001929D02*
X013265Y001929D01*
X013255Y001732D02*
X013029Y001732D01*
X013567Y001929D02*
X013625Y001929D01*
X013625Y002028D02*
X013567Y002028D01*
X013567Y002126D02*
X013625Y002126D01*
X013625Y002323D02*
X013567Y002323D01*
X013567Y002422D02*
X013625Y002422D01*
X014222Y003998D02*
X014279Y003998D01*
X014279Y004096D02*
X014222Y004096D01*
X014222Y004195D02*
X014279Y004195D01*
X014279Y004293D02*
X014222Y004293D01*
X014222Y004392D02*
X014279Y004392D01*
X014279Y004490D02*
X014222Y004490D01*
X014222Y004589D02*
X014279Y004589D01*
X014279Y004687D02*
X014222Y004687D01*
X021264Y011222D02*
X022914Y011222D01*
X022942Y011350D01*
X023596Y011196D02*
X023596Y010650D01*
X023496Y010550D01*
X021756Y010550D01*
X021676Y011480D02*
X021266Y011480D01*
X021264Y011478D01*
X021676Y011480D02*
X021786Y011590D01*
X021786Y012410D01*
X021456Y012740D01*
X021456Y013650D01*
X021396Y013650D01*
X021264Y013782D01*
X021264Y013966D01*
X021264Y014222D02*
X022942Y014222D01*
X022942Y014350D01*
X023651Y014350D02*
X025446Y014350D01*
X026546Y014350D01*
X026546Y011350D02*
X025446Y011350D01*
X023651Y011350D01*
X023596Y011196D01*
X023596Y013650D02*
X023696Y013750D01*
X023696Y014304D01*
X023651Y014350D01*
X023596Y013650D02*
X021456Y013650D01*
X021264Y014478D02*
X021266Y014480D01*
X021776Y014480D01*
X021946Y014650D01*
X021956Y014650D01*
X021264Y014478D02*
X021212Y014480D01*
X018426Y018170D02*
X018376Y018220D01*
X018376Y019540D01*
X018276Y019640D01*
X016326Y019640D01*
X016153Y019813D01*
X016153Y020141D01*
X016153Y018479D02*
X016153Y018083D01*
X016286Y017950D01*
X016916Y017950D01*
X016986Y017880D01*
X017476Y018210D02*
X017207Y018479D01*
X016350Y018479D01*
X013000Y024191D02*
X012798Y024087D01*
X012499Y023994D02*
X005446Y023994D01*
X005446Y023895D02*
X011209Y023895D01*
X010996Y023797D02*
X005446Y023797D01*
X005446Y023698D02*
X010858Y023698D01*
X010759Y023600D02*
X005446Y023600D01*
X005446Y023501D02*
X010683Y023501D01*
X010623Y023403D02*
X005446Y023403D01*
X007877Y020448D02*
X010496Y020448D01*
X010496Y020546D02*
X007968Y020546D01*
X008025Y020645D02*
X010496Y020645D01*
X010496Y020743D02*
X008056Y020743D01*
X005446Y035814D02*
X013996Y035814D01*
X013996Y035912D02*
X005446Y035912D01*
X018496Y027450D02*
X022496Y027450D01*
X022996Y026850D01*
X021996Y026850D02*
X021996Y026050D01*
X022196Y025850D01*
X023096Y025850D01*
X021996Y026850D02*
X021696Y027150D01*
X018896Y027150D01*
X018496Y026750D01*
D40*
X018086Y027160D01*
X018086Y031250D01*
X018576Y031740D01*
X022736Y031740D01*
X022966Y031510D01*
X022966Y030600D01*
X022966Y030100D02*
X022966Y029600D01*
X022916Y029550D01*
X021796Y029550D01*
X021596Y029350D01*
X019296Y029350D01*
X019096Y029550D01*
X018996Y029550D01*
X022506Y028020D02*
X022506Y027460D01*
X022496Y027450D01*
X022506Y028020D02*
X022856Y028370D01*
X022893Y028370D01*
X022966Y028443D01*
X022966Y029100D01*
X023910Y031350D02*
X023846Y031413D01*
X023846Y032650D01*
X016252Y021604D02*
X016386Y021470D01*
X016386Y020690D01*
X016252Y021604D02*
X015716Y021604D01*
X016006Y019220D02*
X015976Y019190D01*
X015976Y018920D01*
X015906Y018850D01*
X015606Y018850D01*
X015556Y018800D01*
X015556Y018486D01*
X015562Y018479D01*
X015956Y018479D02*
X015956Y018800D01*
X015906Y018850D01*
X015266Y019110D02*
X014890Y018734D01*
X013532Y018734D01*
X013534Y018480D02*
X013532Y018478D01*
X013534Y018480D02*
X014156Y018480D01*
X014202Y018434D01*
X014202Y018320D01*
X014911Y018320D02*
X014916Y018314D01*
X014916Y017734D01*
X014892Y017710D01*
X013532Y017710D01*
X013532Y017454D02*
X014202Y017454D01*
X014636Y017020D01*
X014911Y017020D01*
X015326Y017020D01*
X015506Y016840D01*
X016006Y016440D02*
X016416Y016030D01*
X018006Y016030D01*
X014836Y016131D02*
X014836Y015290D01*
X014756Y015210D01*
X014521Y015210D01*
X013812Y015210D02*
X013636Y015210D01*
X013596Y015250D01*
X013596Y016131D01*
X013665Y016200D01*
X013735Y016930D02*
X013665Y017000D01*
X013735Y016930D02*
X014106Y016930D01*
X014767Y016877D02*
X014767Y016200D01*
X014836Y016131D01*
X014767Y016877D02*
X014916Y017026D01*
X014911Y017020D01*
X015842Y009150D02*
X015842Y007496D01*
X015696Y007350D01*
X015496Y007150D01*
X015496Y006450D01*
X015396Y006350D01*
X015296Y006350D01*
X015096Y006150D01*
X015096Y003550D01*
X014996Y003450D01*
X014251Y003450D01*
X013896Y002950D02*
X014196Y002650D01*
X014196Y001650D01*
X014096Y001550D01*
X013651Y001550D01*
X013596Y001496D01*
X013896Y002950D02*
X011796Y002950D01*
X011696Y003050D01*
X011696Y003850D01*
X011346Y004200D01*
X011346Y004846D01*
X011346Y005554D02*
X012431Y005554D01*
X012546Y005520D01*
X012896Y003796D02*
X012896Y003350D01*
X015196Y002124D02*
X016370Y002124D01*
X016496Y002250D01*
X015942Y002804D01*
X015942Y004250D01*
X015696Y007350D02*
X017071Y007350D01*
X021264Y010682D02*
X021396Y010550D01*
X021756Y010550D01*
X021264Y010682D02*
X021264Y010966D01*
X009832Y010190D02*
X009796Y010154D01*
X009796Y009650D01*
X009796Y007700D02*
X009812Y007685D01*
D41*
X009796Y007700D02*
X009596Y007500D01*
X009596Y005300D01*
X016496Y002250D02*
X016596Y002350D01*
X017071Y002350D01*
X011996Y029350D02*
X010696Y029350D01*
X010096Y029950D01*
X010096Y033550D01*
X009596Y033850D01*
X007546Y033850D01*
X007163Y034233D01*
X007163Y035250D01*
D42*
X014046Y012940D02*
X013996Y012890D01*
X013996Y010150D01*
D43*
X019787Y001452D02*
X019889Y001350D01*
M02*
