%
M48
M72
T01C0.0236
T02C0.0320
T03C0.0400
T04C0.0866
T05C0.1300
%
T01
X5796Y14250
X8396Y14350
X9496Y17550
X9896Y18220
X13606Y20130
X15266Y19110
X16006Y19220
X16386Y20690
X17476Y18210
X16986Y17880
X16006Y16440
X15506Y16840
X14106Y16930
X18426Y18170
X20546Y18160
X18756Y15240
X18796Y12250
X21756Y10550
X21956Y14650
X27156Y24540
X25086Y31360
X23846Y32650
X21876Y32850
X20896Y33430
X20736Y35450
X19216Y35520
X18396Y32550
X18736Y30840
X18996Y29550
X18496Y27450
X18496Y26750
X20076Y24880
X21256Y28890
X21136Y30700
X20666Y38330
X27006Y32730
X27016Y32170
X27136Y38360
X13646Y32600
X12996Y35850
X11996Y38150
X5696Y37950
X11196Y27850
X12596Y25550
X13596Y27750
X10096Y23950
X9196Y24850
X7396Y24050
X5946Y21550
X5896Y22400
X11896Y10050
X10796Y6850
X9796Y9650
X13796Y6300
X14096Y8750
X15296Y10050
X15396Y6350
X12896Y3350
X15696Y650
X16496Y2250
T02
X21996Y8250
X23996Y8250
T03
X24296Y6100
X24296Y5000
X25446Y11350
X26546Y11350
X26546Y14350
X25446Y14350
X25446Y17350
X26546Y17350
X26546Y20350
X25446Y20350
X22996Y24850
X23096Y25850
X22996Y26850
X25696Y25350
X26496Y30850
X25446Y32350
X25546Y33350
X25446Y34350
X25546Y35350
X23896Y37500
X22796Y37500
X7546Y33850
X7446Y32850
X7546Y31850
X7446Y30850
X7546Y29350
X7446Y28350
X7546Y27350
X7446Y26350
X7546Y22850
X7446Y21850
X7546Y20850
X7546Y19350
X7446Y18350
X7546Y17350
X9796Y8800
X9796Y7700
X9596Y5300
X9596Y4200
X9596Y2500
X9596Y1400
X14046Y12940
X15146Y12940
T04
X19996Y26350
X19996Y30350
X19996Y34350
X11996Y34350
X11996Y31350
X11996Y29350
T05
X6996Y2150
X25996Y2150
X25996Y37150
X6996Y37150
M30
