G75*
%MOIN*%
%OFA0B0*%
%FSLAX24Y24*%
%IPPOS*%
%LPD*%
%AMOC8*
5,1,8,0,0,1.08239X$1,22.5*
%
%ADD10C,0.0100*%
%ADD11R,0.0551X0.0256*%
%ADD12R,0.0256X0.0551*%
%ADD13C,0.0320*%
%ADD14C,0.0160*%
D10*
X004996Y000150D02*
X004996Y039150D01*
X027996Y039150D01*
X027996Y000150D01*
X004996Y000150D01*
X008771Y008300D02*
X009172Y008300D01*
X009172Y008500D01*
X009105Y008567D01*
X008971Y008567D01*
X008905Y008500D01*
X008905Y008300D01*
X008905Y008433D02*
X008771Y008567D01*
X008838Y008760D02*
X008771Y008827D01*
X008771Y008961D01*
X008838Y009027D01*
X008971Y009027D01*
X009038Y008961D01*
X009038Y008894D01*
X008971Y008760D01*
X009172Y008760D01*
X009172Y009027D01*
X009132Y009132D02*
X009132Y009368D01*
X008660Y009368D02*
X008660Y009132D01*
X015046Y004140D02*
X015113Y004207D01*
X015180Y004207D01*
X015246Y004140D01*
X015246Y003940D01*
X015113Y003940D01*
X015046Y004006D01*
X015046Y004140D01*
X015246Y003940D02*
X015380Y004073D01*
X015447Y004207D01*
X015380Y003746D02*
X015447Y003679D01*
X015447Y003546D01*
X015380Y003479D01*
X015113Y003479D01*
X015046Y003546D01*
X015046Y003679D01*
X015113Y003746D01*
X015320Y019678D02*
X015753Y019678D01*
X015910Y019835D01*
X015910Y020465D01*
X015753Y020622D01*
X015320Y020622D01*
X015076Y020550D02*
X015076Y019750D01*
X014532Y019678D02*
X013942Y019678D01*
X013942Y020622D01*
X014532Y020622D01*
X014778Y020944D02*
X015014Y020944D01*
X015014Y021416D02*
X014778Y021416D01*
X014742Y021665D02*
X014742Y022065D01*
X014876Y021932D01*
X015069Y021999D02*
X015136Y022065D01*
X015269Y022065D01*
X015336Y021999D01*
X015336Y021732D01*
X015269Y021665D01*
X015136Y021665D01*
X015069Y021732D01*
X014876Y021665D02*
X014609Y021665D01*
X014415Y021665D02*
X014415Y021732D01*
X014149Y021999D01*
X014149Y022065D01*
X014415Y022065D01*
X016236Y020307D02*
X016170Y020240D01*
X016437Y019973D01*
X016370Y019906D01*
X016236Y019906D01*
X016170Y019973D01*
X016170Y020240D01*
X016236Y020307D02*
X016370Y020307D01*
X016437Y020240D01*
X016437Y019973D01*
X016630Y019906D02*
X016897Y019906D01*
X016630Y020173D01*
X016630Y020240D01*
X016697Y020307D01*
X016830Y020307D01*
X016897Y020240D01*
X017090Y020240D02*
X017157Y020307D01*
X017291Y020307D01*
X017357Y020240D01*
X017357Y019973D01*
X017291Y019906D01*
X017157Y019906D01*
X017090Y019973D01*
X015500Y025200D02*
X015367Y025200D01*
X015300Y025267D01*
X015300Y025600D01*
X015107Y025534D02*
X015107Y025467D01*
X015040Y025400D01*
X014906Y025400D01*
X014840Y025333D01*
X014840Y025267D01*
X014906Y025200D01*
X015040Y025200D01*
X015107Y025267D01*
X015107Y025333D01*
X015040Y025400D01*
X014906Y025400D02*
X014840Y025467D01*
X014840Y025534D01*
X014906Y025600D01*
X015040Y025600D01*
X015107Y025534D01*
X015366Y025850D02*
X015366Y027850D01*
X015376Y027850D02*
X016616Y027850D01*
X016639Y027848D01*
X016662Y027843D01*
X016684Y027834D01*
X016704Y027821D01*
X016722Y027806D01*
X016737Y027788D01*
X016750Y027768D01*
X016759Y027746D01*
X016764Y027723D01*
X016766Y027700D01*
X016766Y026000D01*
X016764Y025977D01*
X016759Y025954D01*
X016750Y025932D01*
X016737Y025912D01*
X016722Y025894D01*
X016704Y025879D01*
X016684Y025866D01*
X016662Y025857D01*
X016639Y025852D01*
X016616Y025850D01*
X016196Y025850D01*
X015796Y025850D01*
X015376Y025850D01*
X015353Y025852D01*
X015330Y025857D01*
X015308Y025866D01*
X015288Y025879D01*
X015270Y025894D01*
X015255Y025912D01*
X015242Y025932D01*
X015233Y025954D01*
X015228Y025977D01*
X015226Y026000D01*
X015226Y027700D01*
X015228Y027723D01*
X015233Y027746D01*
X015242Y027768D01*
X015255Y027788D01*
X015270Y027806D01*
X015288Y027821D01*
X015308Y027834D01*
X015330Y027843D01*
X015353Y027848D01*
X015376Y027850D01*
X015012Y029838D02*
X016980Y029838D01*
X016980Y030822D02*
X015012Y030822D01*
X015121Y030074D02*
X015123Y030092D01*
X015129Y030110D01*
X015138Y030126D01*
X015150Y030139D01*
X015165Y030150D01*
X015182Y030158D01*
X015200Y030162D01*
X015218Y030162D01*
X015236Y030158D01*
X015253Y030150D01*
X015268Y030139D01*
X015280Y030126D01*
X015289Y030110D01*
X015295Y030092D01*
X015297Y030074D01*
X015295Y030056D01*
X015289Y030038D01*
X015280Y030022D01*
X015268Y030009D01*
X015253Y029998D01*
X015236Y029990D01*
X015218Y029986D01*
X015200Y029986D01*
X015182Y029990D01*
X015165Y029998D01*
X015150Y030009D01*
X015138Y030022D01*
X015129Y030038D01*
X015123Y030056D01*
X015121Y030074D01*
X015267Y031850D02*
X015200Y031917D01*
X015200Y032250D01*
X015007Y032184D02*
X014940Y032250D01*
X014806Y032250D01*
X014740Y032184D01*
X014740Y032117D01*
X014806Y032050D01*
X014740Y031983D01*
X014740Y031917D01*
X014806Y031850D01*
X014940Y031850D01*
X015007Y031917D01*
X014873Y032050D02*
X014806Y032050D01*
X015267Y031850D02*
X015400Y031850D01*
X015467Y031917D01*
X015467Y032250D01*
X015326Y032450D02*
X015746Y032450D01*
X016146Y032450D01*
X016566Y032450D01*
X016589Y032452D01*
X016612Y032457D01*
X016634Y032466D01*
X016654Y032479D01*
X016672Y032494D01*
X016687Y032512D01*
X016700Y032532D01*
X016709Y032554D01*
X016714Y032577D01*
X016716Y032600D01*
X016716Y034300D01*
X016714Y034323D01*
X016709Y034346D01*
X016700Y034368D01*
X016687Y034388D01*
X016672Y034406D01*
X016654Y034421D01*
X016634Y034434D01*
X016612Y034443D01*
X016589Y034448D01*
X016566Y034450D01*
X015326Y034450D01*
X015316Y034450D02*
X015316Y032450D01*
X015326Y032450D02*
X015303Y032452D01*
X015280Y032457D01*
X015258Y032466D01*
X015238Y032479D01*
X015220Y032494D01*
X015205Y032512D01*
X015192Y032532D01*
X015183Y032554D01*
X015178Y032577D01*
X015176Y032600D01*
X015176Y034300D01*
X015178Y034323D01*
X015183Y034346D01*
X015192Y034368D01*
X015205Y034388D01*
X015220Y034406D01*
X015238Y034421D01*
X015258Y034434D01*
X015280Y034443D01*
X015303Y034448D01*
X015326Y034450D01*
X015746Y032450D02*
X015748Y032477D01*
X015753Y032504D01*
X015763Y032530D01*
X015775Y032554D01*
X015791Y032576D01*
X015809Y032596D01*
X015831Y032613D01*
X015854Y032628D01*
X015879Y032638D01*
X015905Y032646D01*
X015932Y032650D01*
X015960Y032650D01*
X015987Y032646D01*
X016013Y032638D01*
X016038Y032628D01*
X016061Y032613D01*
X016083Y032596D01*
X016101Y032576D01*
X016117Y032554D01*
X016129Y032530D01*
X016139Y032504D01*
X016144Y032477D01*
X016146Y032450D01*
X018113Y029188D02*
X018046Y029121D01*
X018046Y028988D01*
X018113Y028921D01*
X018380Y029188D01*
X018113Y029188D01*
X018380Y029188D02*
X018447Y029121D01*
X018447Y028988D01*
X018380Y028921D01*
X018113Y028921D01*
X018113Y028727D02*
X018046Y028661D01*
X018046Y028527D01*
X018113Y028460D01*
X018246Y028460D02*
X018313Y028594D01*
X018313Y028661D01*
X018246Y028727D01*
X018113Y028727D01*
X018246Y028460D02*
X018447Y028460D01*
X018447Y028727D01*
X018380Y028267D02*
X018246Y028267D01*
X018180Y028200D01*
X018180Y028000D01*
X018180Y028133D02*
X018046Y028267D01*
X018046Y028000D02*
X018447Y028000D01*
X018447Y028200D01*
X018380Y028267D01*
X020446Y028236D02*
X020580Y028102D01*
X020580Y028169D02*
X020580Y027969D01*
X020446Y027969D02*
X020847Y027969D01*
X020847Y028169D01*
X020780Y028236D01*
X020646Y028236D01*
X020580Y028169D01*
X020646Y028429D02*
X020713Y028563D01*
X020713Y028629D01*
X020646Y028696D01*
X020513Y028696D01*
X020446Y028629D01*
X020446Y028496D01*
X020513Y028429D01*
X020646Y028429D02*
X020847Y028429D01*
X020847Y028696D01*
X020713Y028890D02*
X020847Y029023D01*
X020446Y029023D01*
X020446Y028890D02*
X020446Y029156D01*
X019497Y031819D02*
X019096Y031819D01*
X019230Y031819D02*
X019230Y032019D01*
X019296Y032086D01*
X019430Y032086D01*
X019497Y032019D01*
X019497Y031819D01*
X019230Y031952D02*
X019096Y032086D01*
X019096Y032279D02*
X019363Y032546D01*
X019430Y032546D01*
X019497Y032479D01*
X019497Y032346D01*
X019430Y032279D01*
X019096Y032279D02*
X019096Y032546D01*
X019163Y032740D02*
X019096Y032806D01*
X019096Y032940D01*
X019163Y033006D01*
X019296Y033006D01*
X019363Y032940D01*
X019363Y032873D01*
X019296Y032740D01*
X019497Y032740D01*
X019497Y033006D01*
X022809Y031234D02*
X022809Y030967D01*
X022875Y030900D01*
X023009Y030900D01*
X023075Y030967D01*
X022809Y031234D01*
X022875Y031300D01*
X023009Y031300D01*
X023075Y031234D01*
X023075Y030967D01*
X023269Y030967D02*
X023336Y030900D01*
X023469Y030900D01*
X023536Y030967D01*
X023402Y031100D02*
X023336Y031100D01*
X023269Y031033D01*
X023269Y030967D01*
X023336Y031100D02*
X023269Y031167D01*
X023269Y031234D01*
X023336Y031300D01*
X023469Y031300D01*
X023536Y031234D01*
X023729Y031234D02*
X023729Y031100D01*
X023796Y031033D01*
X023996Y031033D01*
X023996Y030900D02*
X023996Y031300D01*
X023796Y031300D01*
X023729Y031234D01*
X023863Y031033D02*
X023729Y030900D01*
X024123Y030326D02*
X024056Y030260D01*
X024056Y030126D01*
X024123Y030060D01*
X024256Y030060D02*
X024323Y030193D01*
X024323Y030260D01*
X024256Y030326D01*
X024123Y030326D01*
X024256Y030060D02*
X024457Y030060D01*
X024457Y030326D01*
X024390Y029866D02*
X024457Y029799D01*
X024457Y029666D01*
X024390Y029599D01*
X024390Y029406D02*
X024457Y029339D01*
X024457Y029206D01*
X024390Y029139D01*
X024123Y029139D01*
X024056Y029206D01*
X024056Y029339D01*
X024123Y029406D01*
X024056Y029599D02*
X024323Y029866D01*
X024390Y029866D01*
X024056Y029866D02*
X024056Y029599D01*
X023947Y033200D02*
X023546Y033200D01*
X023680Y033200D02*
X023680Y033400D01*
X023746Y033467D01*
X023880Y033467D01*
X023947Y033400D01*
X023947Y033200D01*
X023680Y033333D02*
X023546Y033467D01*
X023613Y033660D02*
X023546Y033727D01*
X023546Y033861D01*
X023613Y033927D01*
X023680Y033927D01*
X023746Y033861D01*
X023746Y033794D01*
X023746Y033861D02*
X023813Y033927D01*
X023880Y033927D01*
X023947Y033861D01*
X023947Y033727D01*
X023880Y033660D01*
X023880Y034121D02*
X023947Y034188D01*
X023947Y034321D01*
X023880Y034388D01*
X023813Y034388D01*
X023746Y034321D01*
X023680Y034388D01*
X023613Y034388D01*
X023546Y034321D01*
X023546Y034188D01*
X023613Y034121D01*
X023746Y034254D02*
X023746Y034321D01*
X016196Y025850D02*
X016194Y025877D01*
X016189Y025904D01*
X016179Y025930D01*
X016167Y025954D01*
X016151Y025976D01*
X016133Y025996D01*
X016111Y026013D01*
X016088Y026028D01*
X016063Y026038D01*
X016037Y026046D01*
X016010Y026050D01*
X015982Y026050D01*
X015955Y026046D01*
X015929Y026038D01*
X015904Y026028D01*
X015881Y026013D01*
X015859Y025996D01*
X015841Y025976D01*
X015825Y025954D01*
X015813Y025930D01*
X015803Y025904D01*
X015798Y025877D01*
X015796Y025850D01*
X015567Y025600D02*
X015567Y025267D01*
X015500Y025200D01*
X012596Y028017D02*
X012529Y027950D01*
X012396Y027950D01*
X012329Y028017D01*
X012329Y028350D01*
X012136Y028217D02*
X012002Y028350D01*
X012002Y027950D01*
X011869Y027950D02*
X012136Y027950D01*
X011866Y027700D02*
X011866Y026000D01*
X011864Y025977D01*
X011859Y025954D01*
X011850Y025932D01*
X011837Y025912D01*
X011822Y025894D01*
X011804Y025879D01*
X011784Y025866D01*
X011762Y025857D01*
X011739Y025852D01*
X011716Y025850D01*
X010476Y025850D01*
X010453Y025852D01*
X010430Y025857D01*
X010408Y025866D01*
X010388Y025879D01*
X010370Y025894D01*
X010355Y025912D01*
X010342Y025932D01*
X010333Y025954D01*
X010328Y025977D01*
X010326Y026000D01*
X010326Y027700D01*
X010328Y027723D01*
X010333Y027746D01*
X010342Y027768D01*
X010355Y027788D01*
X010370Y027806D01*
X010388Y027821D01*
X010408Y027834D01*
X010430Y027843D01*
X010453Y027848D01*
X010476Y027850D01*
X010896Y027850D01*
X011296Y027850D01*
X011716Y027850D01*
X011726Y027850D02*
X011726Y025850D01*
X011846Y025300D02*
X011779Y025234D01*
X011846Y025300D02*
X011979Y025300D01*
X012046Y025234D01*
X012046Y024967D01*
X011979Y024900D01*
X011846Y024900D01*
X011779Y024967D01*
X011586Y024900D02*
X011319Y025167D01*
X011319Y025234D01*
X011386Y025300D01*
X011519Y025300D01*
X011586Y025234D01*
X011586Y024900D02*
X011319Y024900D01*
X011866Y027700D02*
X011864Y027723D01*
X011859Y027746D01*
X011850Y027768D01*
X011837Y027788D01*
X011822Y027806D01*
X011804Y027821D01*
X011784Y027834D01*
X011762Y027843D01*
X011739Y027848D01*
X011716Y027850D01*
X011296Y027850D02*
X011294Y027823D01*
X011289Y027796D01*
X011279Y027770D01*
X011267Y027746D01*
X011251Y027724D01*
X011233Y027704D01*
X011211Y027687D01*
X011188Y027672D01*
X011163Y027662D01*
X011137Y027654D01*
X011110Y027650D01*
X011082Y027650D01*
X011055Y027654D01*
X011029Y027662D01*
X011004Y027672D01*
X010981Y027687D01*
X010959Y027704D01*
X010941Y027724D01*
X010925Y027746D01*
X010913Y027770D01*
X010903Y027796D01*
X010898Y027823D01*
X010896Y027850D01*
X010229Y029100D02*
X010096Y029100D01*
X010029Y029167D01*
X009836Y029100D02*
X009569Y029100D01*
X009702Y029100D02*
X009702Y029500D01*
X009836Y029367D01*
X010029Y029434D02*
X010096Y029500D01*
X010229Y029500D01*
X010296Y029434D01*
X010296Y029167D01*
X010229Y029100D01*
X010186Y030950D02*
X010186Y031350D01*
X010386Y031150D01*
X010119Y031150D01*
X009925Y031217D02*
X009859Y031150D01*
X009659Y031150D01*
X009659Y031017D02*
X009659Y031284D01*
X009725Y031350D01*
X009859Y031350D01*
X009925Y031284D01*
X009925Y031217D01*
X009925Y031017D02*
X009859Y030950D01*
X009725Y030950D01*
X009659Y031017D01*
X010579Y030950D02*
X010713Y031083D01*
X010646Y031083D02*
X010846Y031083D01*
X010846Y030950D02*
X010846Y031350D01*
X010646Y031350D01*
X010579Y031284D01*
X010579Y031150D01*
X010646Y031083D01*
X012596Y028350D02*
X012596Y028017D01*
D11*
X018996Y028262D03*
X018996Y028842D03*
X019996Y028842D03*
X019996Y028262D03*
X019996Y032062D03*
X019996Y032642D03*
X024497Y033558D03*
X024497Y034138D03*
D12*
X023788Y031851D03*
X023208Y031851D03*
X010688Y030451D03*
X010108Y030451D03*
D13*
X012760Y022850D02*
X015296Y022850D01*
X016006Y023570D02*
X015986Y036780D01*
X016796Y022850D02*
X026896Y022850D01*
X026796Y018850D02*
X021796Y018850D01*
X021996Y018250D02*
X021996Y016450D01*
X021896Y015850D02*
X026896Y015850D01*
X026796Y012950D02*
X021796Y012950D01*
X023996Y016450D02*
X023996Y018250D01*
X023996Y019450D02*
X023996Y021160D01*
X021996Y021260D02*
X021996Y019550D01*
X012266Y022620D02*
X012225Y022576D01*
X012187Y022529D01*
X012151Y022480D01*
X012120Y022429D01*
X012091Y022376D01*
X012066Y022321D01*
X012045Y022264D01*
X012027Y022207D01*
X012014Y022148D01*
X012004Y022088D01*
X011998Y022028D01*
X011996Y021968D01*
X011996Y012850D01*
X012310Y022664D02*
X012344Y022695D01*
X012379Y022723D01*
X012416Y022749D01*
X012455Y022772D01*
X012496Y022793D01*
X012538Y022810D01*
X012581Y022824D01*
X012625Y022835D01*
X012669Y022844D01*
X012715Y022848D01*
X012760Y022850D01*
X012310Y022664D02*
X012266Y022620D01*
D14*
X018946Y007350D02*
X018746Y007100D01*
X018746Y006000D01*
X018946Y007350D02*
X020996Y007350D01*
X020996Y002350D02*
X018946Y002350D01*
X018746Y002100D01*
X018746Y001000D01*
M02*
