G75*
%MOIN*%
%OFA0B0*%
%FSLAX24Y24*%
%IPPOS*%
%LPD*%
%AMOC8*
5,1,8,0,0,1.08239X$1,22.5*
%
%ADD10C,0.0160*%
%ADD11C,0.0400*%
%ADD12C,0.0000*%
%ADD13C,0.0050*%
D10*
X000180Y004452D02*
X000180Y014502D01*
X001230Y014502D01*
X001230Y015502D01*
X000180Y015502D01*
X000180Y060652D01*
X033180Y060652D01*
X033180Y015452D01*
X032130Y015452D01*
X032130Y014502D01*
X033180Y014502D01*
X033180Y004452D01*
X000180Y004452D01*
D11*
X018619Y004996D02*
X018619Y012431D01*
X019137Y013052D02*
X030480Y013052D01*
D12*
X030080Y007107D02*
X030082Y007138D01*
X030088Y007169D01*
X030097Y007199D01*
X030110Y007228D01*
X030127Y007255D01*
X030147Y007279D01*
X030169Y007301D01*
X030195Y007320D01*
X030222Y007336D01*
X030251Y007348D01*
X030281Y007357D01*
X030312Y007362D01*
X030344Y007363D01*
X030375Y007360D01*
X030406Y007353D01*
X030436Y007343D01*
X030464Y007329D01*
X030490Y007311D01*
X030514Y007291D01*
X030535Y007267D01*
X030554Y007242D01*
X030569Y007214D01*
X030580Y007185D01*
X030588Y007154D01*
X030592Y007123D01*
X030592Y007091D01*
X030588Y007060D01*
X030580Y007029D01*
X030569Y007000D01*
X030554Y006972D01*
X030535Y006947D01*
X030514Y006923D01*
X030490Y006903D01*
X030464Y006885D01*
X030436Y006871D01*
X030406Y006861D01*
X030375Y006854D01*
X030344Y006851D01*
X030312Y006852D01*
X030281Y006857D01*
X030251Y006866D01*
X030222Y006878D01*
X030195Y006894D01*
X030169Y006913D01*
X030147Y006935D01*
X030127Y006959D01*
X030110Y006986D01*
X030097Y007015D01*
X030088Y007045D01*
X030082Y007076D01*
X030080Y007107D01*
X024568Y007107D02*
X024570Y007138D01*
X024576Y007169D01*
X024585Y007199D01*
X024598Y007228D01*
X024615Y007255D01*
X024635Y007279D01*
X024657Y007301D01*
X024683Y007320D01*
X024710Y007336D01*
X024739Y007348D01*
X024769Y007357D01*
X024800Y007362D01*
X024832Y007363D01*
X024863Y007360D01*
X024894Y007353D01*
X024924Y007343D01*
X024952Y007329D01*
X024978Y007311D01*
X025002Y007291D01*
X025023Y007267D01*
X025042Y007242D01*
X025057Y007214D01*
X025068Y007185D01*
X025076Y007154D01*
X025080Y007123D01*
X025080Y007091D01*
X025076Y007060D01*
X025068Y007029D01*
X025057Y007000D01*
X025042Y006972D01*
X025023Y006947D01*
X025002Y006923D01*
X024978Y006903D01*
X024952Y006885D01*
X024924Y006871D01*
X024894Y006861D01*
X024863Y006854D01*
X024832Y006851D01*
X024800Y006852D01*
X024769Y006857D01*
X024739Y006866D01*
X024710Y006878D01*
X024683Y006894D01*
X024657Y006913D01*
X024635Y006935D01*
X024615Y006959D01*
X024598Y006986D01*
X024585Y007015D01*
X024576Y007045D01*
X024570Y007076D01*
X024568Y007107D01*
X023300Y059252D02*
X023302Y059302D01*
X023308Y059352D01*
X023318Y059401D01*
X023332Y059449D01*
X023349Y059496D01*
X023370Y059541D01*
X023395Y059585D01*
X023423Y059626D01*
X023455Y059665D01*
X023489Y059702D01*
X023526Y059736D01*
X023566Y059766D01*
X023608Y059793D01*
X023652Y059817D01*
X023698Y059838D01*
X023745Y059854D01*
X023793Y059867D01*
X023843Y059876D01*
X023892Y059881D01*
X023943Y059882D01*
X023993Y059879D01*
X024042Y059872D01*
X024091Y059861D01*
X024139Y059846D01*
X024185Y059828D01*
X024230Y059806D01*
X024273Y059780D01*
X024314Y059751D01*
X024353Y059719D01*
X024389Y059684D01*
X024421Y059646D01*
X024451Y059606D01*
X024478Y059563D01*
X024501Y059519D01*
X024520Y059473D01*
X024536Y059425D01*
X024548Y059376D01*
X024556Y059327D01*
X024560Y059277D01*
X024560Y059227D01*
X024556Y059177D01*
X024548Y059128D01*
X024536Y059079D01*
X024520Y059031D01*
X024501Y058985D01*
X024478Y058941D01*
X024451Y058898D01*
X024421Y058858D01*
X024389Y058820D01*
X024353Y058785D01*
X024314Y058753D01*
X024273Y058724D01*
X024230Y058698D01*
X024185Y058676D01*
X024139Y058658D01*
X024091Y058643D01*
X024042Y058632D01*
X023993Y058625D01*
X023943Y058622D01*
X023892Y058623D01*
X023843Y058628D01*
X023793Y058637D01*
X023745Y058650D01*
X023698Y058666D01*
X023652Y058687D01*
X023608Y058711D01*
X023566Y058738D01*
X023526Y058768D01*
X023489Y058802D01*
X023455Y058839D01*
X023423Y058878D01*
X023395Y058919D01*
X023370Y058963D01*
X023349Y059008D01*
X023332Y059055D01*
X023318Y059103D01*
X023308Y059152D01*
X023302Y059202D01*
X023300Y059252D01*
X020650Y059252D02*
X020652Y059302D01*
X020658Y059352D01*
X020668Y059401D01*
X020682Y059449D01*
X020699Y059496D01*
X020720Y059541D01*
X020745Y059585D01*
X020773Y059626D01*
X020805Y059665D01*
X020839Y059702D01*
X020876Y059736D01*
X020916Y059766D01*
X020958Y059793D01*
X021002Y059817D01*
X021048Y059838D01*
X021095Y059854D01*
X021143Y059867D01*
X021193Y059876D01*
X021242Y059881D01*
X021293Y059882D01*
X021343Y059879D01*
X021392Y059872D01*
X021441Y059861D01*
X021489Y059846D01*
X021535Y059828D01*
X021580Y059806D01*
X021623Y059780D01*
X021664Y059751D01*
X021703Y059719D01*
X021739Y059684D01*
X021771Y059646D01*
X021801Y059606D01*
X021828Y059563D01*
X021851Y059519D01*
X021870Y059473D01*
X021886Y059425D01*
X021898Y059376D01*
X021906Y059327D01*
X021910Y059277D01*
X021910Y059227D01*
X021906Y059177D01*
X021898Y059128D01*
X021886Y059079D01*
X021870Y059031D01*
X021851Y058985D01*
X021828Y058941D01*
X021801Y058898D01*
X021771Y058858D01*
X021739Y058820D01*
X021703Y058785D01*
X021664Y058753D01*
X021623Y058724D01*
X021580Y058698D01*
X021535Y058676D01*
X021489Y058658D01*
X021441Y058643D01*
X021392Y058632D01*
X021343Y058625D01*
X021293Y058622D01*
X021242Y058623D01*
X021193Y058628D01*
X021143Y058637D01*
X021095Y058650D01*
X021048Y058666D01*
X021002Y058687D01*
X020958Y058711D01*
X020916Y058738D01*
X020876Y058768D01*
X020839Y058802D01*
X020805Y058839D01*
X020773Y058878D01*
X020745Y058919D01*
X020720Y058963D01*
X020699Y059008D01*
X020682Y059055D01*
X020668Y059103D01*
X020658Y059152D01*
X020652Y059202D01*
X020650Y059252D01*
X018450Y059252D02*
X018452Y059302D01*
X018458Y059352D01*
X018468Y059401D01*
X018482Y059449D01*
X018499Y059496D01*
X018520Y059541D01*
X018545Y059585D01*
X018573Y059626D01*
X018605Y059665D01*
X018639Y059702D01*
X018676Y059736D01*
X018716Y059766D01*
X018758Y059793D01*
X018802Y059817D01*
X018848Y059838D01*
X018895Y059854D01*
X018943Y059867D01*
X018993Y059876D01*
X019042Y059881D01*
X019093Y059882D01*
X019143Y059879D01*
X019192Y059872D01*
X019241Y059861D01*
X019289Y059846D01*
X019335Y059828D01*
X019380Y059806D01*
X019423Y059780D01*
X019464Y059751D01*
X019503Y059719D01*
X019539Y059684D01*
X019571Y059646D01*
X019601Y059606D01*
X019628Y059563D01*
X019651Y059519D01*
X019670Y059473D01*
X019686Y059425D01*
X019698Y059376D01*
X019706Y059327D01*
X019710Y059277D01*
X019710Y059227D01*
X019706Y059177D01*
X019698Y059128D01*
X019686Y059079D01*
X019670Y059031D01*
X019651Y058985D01*
X019628Y058941D01*
X019601Y058898D01*
X019571Y058858D01*
X019539Y058820D01*
X019503Y058785D01*
X019464Y058753D01*
X019423Y058724D01*
X019380Y058698D01*
X019335Y058676D01*
X019289Y058658D01*
X019241Y058643D01*
X019192Y058632D01*
X019143Y058625D01*
X019093Y058622D01*
X019042Y058623D01*
X018993Y058628D01*
X018943Y058637D01*
X018895Y058650D01*
X018848Y058666D01*
X018802Y058687D01*
X018758Y058711D01*
X018716Y058738D01*
X018676Y058768D01*
X018639Y058802D01*
X018605Y058839D01*
X018573Y058878D01*
X018545Y058919D01*
X018520Y058963D01*
X018499Y059008D01*
X018482Y059055D01*
X018468Y059103D01*
X018458Y059152D01*
X018452Y059202D01*
X018450Y059252D01*
X015750Y059252D02*
X015752Y059302D01*
X015758Y059352D01*
X015768Y059401D01*
X015782Y059449D01*
X015799Y059496D01*
X015820Y059541D01*
X015845Y059585D01*
X015873Y059626D01*
X015905Y059665D01*
X015939Y059702D01*
X015976Y059736D01*
X016016Y059766D01*
X016058Y059793D01*
X016102Y059817D01*
X016148Y059838D01*
X016195Y059854D01*
X016243Y059867D01*
X016293Y059876D01*
X016342Y059881D01*
X016393Y059882D01*
X016443Y059879D01*
X016492Y059872D01*
X016541Y059861D01*
X016589Y059846D01*
X016635Y059828D01*
X016680Y059806D01*
X016723Y059780D01*
X016764Y059751D01*
X016803Y059719D01*
X016839Y059684D01*
X016871Y059646D01*
X016901Y059606D01*
X016928Y059563D01*
X016951Y059519D01*
X016970Y059473D01*
X016986Y059425D01*
X016998Y059376D01*
X017006Y059327D01*
X017010Y059277D01*
X017010Y059227D01*
X017006Y059177D01*
X016998Y059128D01*
X016986Y059079D01*
X016970Y059031D01*
X016951Y058985D01*
X016928Y058941D01*
X016901Y058898D01*
X016871Y058858D01*
X016839Y058820D01*
X016803Y058785D01*
X016764Y058753D01*
X016723Y058724D01*
X016680Y058698D01*
X016635Y058676D01*
X016589Y058658D01*
X016541Y058643D01*
X016492Y058632D01*
X016443Y058625D01*
X016393Y058622D01*
X016342Y058623D01*
X016293Y058628D01*
X016243Y058637D01*
X016195Y058650D01*
X016148Y058666D01*
X016102Y058687D01*
X016058Y058711D01*
X016016Y058738D01*
X015976Y058768D01*
X015939Y058802D01*
X015905Y058839D01*
X015873Y058878D01*
X015845Y058919D01*
X015820Y058963D01*
X015799Y059008D01*
X015782Y059055D01*
X015768Y059103D01*
X015758Y059152D01*
X015752Y059202D01*
X015750Y059252D01*
X013550Y059252D02*
X013552Y059302D01*
X013558Y059352D01*
X013568Y059401D01*
X013582Y059449D01*
X013599Y059496D01*
X013620Y059541D01*
X013645Y059585D01*
X013673Y059626D01*
X013705Y059665D01*
X013739Y059702D01*
X013776Y059736D01*
X013816Y059766D01*
X013858Y059793D01*
X013902Y059817D01*
X013948Y059838D01*
X013995Y059854D01*
X014043Y059867D01*
X014093Y059876D01*
X014142Y059881D01*
X014193Y059882D01*
X014243Y059879D01*
X014292Y059872D01*
X014341Y059861D01*
X014389Y059846D01*
X014435Y059828D01*
X014480Y059806D01*
X014523Y059780D01*
X014564Y059751D01*
X014603Y059719D01*
X014639Y059684D01*
X014671Y059646D01*
X014701Y059606D01*
X014728Y059563D01*
X014751Y059519D01*
X014770Y059473D01*
X014786Y059425D01*
X014798Y059376D01*
X014806Y059327D01*
X014810Y059277D01*
X014810Y059227D01*
X014806Y059177D01*
X014798Y059128D01*
X014786Y059079D01*
X014770Y059031D01*
X014751Y058985D01*
X014728Y058941D01*
X014701Y058898D01*
X014671Y058858D01*
X014639Y058820D01*
X014603Y058785D01*
X014564Y058753D01*
X014523Y058724D01*
X014480Y058698D01*
X014435Y058676D01*
X014389Y058658D01*
X014341Y058643D01*
X014292Y058632D01*
X014243Y058625D01*
X014193Y058622D01*
X014142Y058623D01*
X014093Y058628D01*
X014043Y058637D01*
X013995Y058650D01*
X013948Y058666D01*
X013902Y058687D01*
X013858Y058711D01*
X013816Y058738D01*
X013776Y058768D01*
X013739Y058802D01*
X013705Y058839D01*
X013673Y058878D01*
X013645Y058919D01*
X013620Y058963D01*
X013599Y059008D01*
X013582Y059055D01*
X013568Y059103D01*
X013558Y059152D01*
X013552Y059202D01*
X013550Y059252D01*
X010650Y059302D02*
X010652Y059352D01*
X010658Y059402D01*
X010668Y059451D01*
X010682Y059499D01*
X010699Y059546D01*
X010720Y059591D01*
X010745Y059635D01*
X010773Y059676D01*
X010805Y059715D01*
X010839Y059752D01*
X010876Y059786D01*
X010916Y059816D01*
X010958Y059843D01*
X011002Y059867D01*
X011048Y059888D01*
X011095Y059904D01*
X011143Y059917D01*
X011193Y059926D01*
X011242Y059931D01*
X011293Y059932D01*
X011343Y059929D01*
X011392Y059922D01*
X011441Y059911D01*
X011489Y059896D01*
X011535Y059878D01*
X011580Y059856D01*
X011623Y059830D01*
X011664Y059801D01*
X011703Y059769D01*
X011739Y059734D01*
X011771Y059696D01*
X011801Y059656D01*
X011828Y059613D01*
X011851Y059569D01*
X011870Y059523D01*
X011886Y059475D01*
X011898Y059426D01*
X011906Y059377D01*
X011910Y059327D01*
X011910Y059277D01*
X011906Y059227D01*
X011898Y059178D01*
X011886Y059129D01*
X011870Y059081D01*
X011851Y059035D01*
X011828Y058991D01*
X011801Y058948D01*
X011771Y058908D01*
X011739Y058870D01*
X011703Y058835D01*
X011664Y058803D01*
X011623Y058774D01*
X011580Y058748D01*
X011535Y058726D01*
X011489Y058708D01*
X011441Y058693D01*
X011392Y058682D01*
X011343Y058675D01*
X011293Y058672D01*
X011242Y058673D01*
X011193Y058678D01*
X011143Y058687D01*
X011095Y058700D01*
X011048Y058716D01*
X011002Y058737D01*
X010958Y058761D01*
X010916Y058788D01*
X010876Y058818D01*
X010839Y058852D01*
X010805Y058889D01*
X010773Y058928D01*
X010745Y058969D01*
X010720Y059013D01*
X010699Y059058D01*
X010682Y059105D01*
X010668Y059153D01*
X010658Y059202D01*
X010652Y059252D01*
X010650Y059302D01*
X008600Y059302D02*
X008602Y059352D01*
X008608Y059402D01*
X008618Y059451D01*
X008632Y059499D01*
X008649Y059546D01*
X008670Y059591D01*
X008695Y059635D01*
X008723Y059676D01*
X008755Y059715D01*
X008789Y059752D01*
X008826Y059786D01*
X008866Y059816D01*
X008908Y059843D01*
X008952Y059867D01*
X008998Y059888D01*
X009045Y059904D01*
X009093Y059917D01*
X009143Y059926D01*
X009192Y059931D01*
X009243Y059932D01*
X009293Y059929D01*
X009342Y059922D01*
X009391Y059911D01*
X009439Y059896D01*
X009485Y059878D01*
X009530Y059856D01*
X009573Y059830D01*
X009614Y059801D01*
X009653Y059769D01*
X009689Y059734D01*
X009721Y059696D01*
X009751Y059656D01*
X009778Y059613D01*
X009801Y059569D01*
X009820Y059523D01*
X009836Y059475D01*
X009848Y059426D01*
X009856Y059377D01*
X009860Y059327D01*
X009860Y059277D01*
X009856Y059227D01*
X009848Y059178D01*
X009836Y059129D01*
X009820Y059081D01*
X009801Y059035D01*
X009778Y058991D01*
X009751Y058948D01*
X009721Y058908D01*
X009689Y058870D01*
X009653Y058835D01*
X009614Y058803D01*
X009573Y058774D01*
X009530Y058748D01*
X009485Y058726D01*
X009439Y058708D01*
X009391Y058693D01*
X009342Y058682D01*
X009293Y058675D01*
X009243Y058672D01*
X009192Y058673D01*
X009143Y058678D01*
X009093Y058687D01*
X009045Y058700D01*
X008998Y058716D01*
X008952Y058737D01*
X008908Y058761D01*
X008866Y058788D01*
X008826Y058818D01*
X008789Y058852D01*
X008755Y058889D01*
X008723Y058928D01*
X008695Y058969D01*
X008670Y059013D01*
X008649Y059058D01*
X008632Y059105D01*
X008618Y059153D01*
X008608Y059202D01*
X008602Y059252D01*
X008600Y059302D01*
X025650Y059252D02*
X025652Y059302D01*
X025658Y059352D01*
X025668Y059401D01*
X025682Y059449D01*
X025699Y059496D01*
X025720Y059541D01*
X025745Y059585D01*
X025773Y059626D01*
X025805Y059665D01*
X025839Y059702D01*
X025876Y059736D01*
X025916Y059766D01*
X025958Y059793D01*
X026002Y059817D01*
X026048Y059838D01*
X026095Y059854D01*
X026143Y059867D01*
X026193Y059876D01*
X026242Y059881D01*
X026293Y059882D01*
X026343Y059879D01*
X026392Y059872D01*
X026441Y059861D01*
X026489Y059846D01*
X026535Y059828D01*
X026580Y059806D01*
X026623Y059780D01*
X026664Y059751D01*
X026703Y059719D01*
X026739Y059684D01*
X026771Y059646D01*
X026801Y059606D01*
X026828Y059563D01*
X026851Y059519D01*
X026870Y059473D01*
X026886Y059425D01*
X026898Y059376D01*
X026906Y059327D01*
X026910Y059277D01*
X026910Y059227D01*
X026906Y059177D01*
X026898Y059128D01*
X026886Y059079D01*
X026870Y059031D01*
X026851Y058985D01*
X026828Y058941D01*
X026801Y058898D01*
X026771Y058858D01*
X026739Y058820D01*
X026703Y058785D01*
X026664Y058753D01*
X026623Y058724D01*
X026580Y058698D01*
X026535Y058676D01*
X026489Y058658D01*
X026441Y058643D01*
X026392Y058632D01*
X026343Y058625D01*
X026293Y058622D01*
X026242Y058623D01*
X026193Y058628D01*
X026143Y058637D01*
X026095Y058650D01*
X026048Y058666D01*
X026002Y058687D01*
X025958Y058711D01*
X025916Y058738D01*
X025876Y058768D01*
X025839Y058802D01*
X025805Y058839D01*
X025773Y058878D01*
X025745Y058919D01*
X025720Y058963D01*
X025699Y059008D01*
X025682Y059055D01*
X025668Y059103D01*
X025658Y059152D01*
X025652Y059202D01*
X025650Y059252D01*
D13*
X008349Y009215D02*
X002207Y009215D01*
X002207Y004490D01*
X008349Y004490D01*
X008349Y009215D01*
M02*
