G75*
%MOIN*%
%OFA0B0*%
%FSLAX24Y24*%
%IPPOS*%
%LPD*%
%AMOC8*
5,1,8,0,0,1.08239X$1,22.5*
%
%ADD10C,0.0100*%
%ADD11R,0.0551X0.0256*%
%ADD12C,0.0030*%
%ADD13R,0.0059X0.0118*%
%ADD14R,0.0118X0.0118*%
%ADD15C,0.0080*%
%ADD16R,0.0256X0.0551*%
%ADD17R,0.0118X0.0059*%
%ADD18C,0.0050*%
%ADD19R,0.0079X0.0079*%
%ADD20R,0.0340X0.0300*%
%ADD21C,0.0060*%
%ADD22C,0.0040*%
%ADD23R,0.0827X0.0118*%
%ADD24C,0.0020*%
%ADD25C,0.0240*%
%ADD26R,0.0028X0.0001*%
%ADD27R,0.0026X0.0001*%
%ADD28R,0.0042X0.0001*%
%ADD29R,0.0038X0.0001*%
%ADD30R,0.0053X0.0001*%
%ADD31R,0.0047X0.0001*%
%ADD32R,0.0060X0.0001*%
%ADD33R,0.0055X0.0001*%
%ADD34R,0.0068X0.0001*%
%ADD35R,0.0061X0.0001*%
%ADD36R,0.0049X0.0001*%
%ADD37R,0.0050X0.0001*%
%ADD38R,0.0051X0.0001*%
%ADD39R,0.0073X0.0001*%
%ADD40R,0.0046X0.0001*%
%ADD41R,0.0067X0.0001*%
%ADD42R,0.0032X0.0001*%
%ADD43R,0.0172X0.0001*%
%ADD44R,0.0056X0.0001*%
%ADD45R,0.0049X0.0001*%
%ADD46R,0.0050X0.0001*%
%ADD47R,0.0051X0.0001*%
%ADD48R,0.0079X0.0001*%
%ADD49R,0.0049X0.0001*%
%ADD50R,0.0047X0.0001*%
%ADD51R,0.0051X0.0001*%
%ADD52R,0.0072X0.0001*%
%ADD53R,0.0031X0.0001*%
%ADD54R,0.0172X0.0001*%
%ADD55R,0.0057X0.0001*%
%ADD56R,0.0084X0.0001*%
%ADD57R,0.0046X0.0001*%
%ADD58R,0.0077X0.0001*%
%ADD59R,0.0032X0.0001*%
%ADD60R,0.0058X0.0001*%
%ADD61R,0.0089X0.0001*%
%ADD62R,0.0081X0.0001*%
%ADD63R,0.0093X0.0001*%
%ADD64R,0.0085X0.0001*%
%ADD65R,0.0059X0.0001*%
%ADD66R,0.0048X0.0001*%
%ADD67R,0.0097X0.0001*%
%ADD68R,0.0053X0.0001*%
%ADD69R,0.0089X0.0001*%
%ADD70R,0.0033X0.0001*%
%ADD71R,0.0172X0.0001*%
%ADD72R,0.0060X0.0001*%
%ADD73R,0.0048X0.0001*%
%ADD74R,0.0101X0.0001*%
%ADD75R,0.0046X0.0001*%
%ADD76R,0.0092X0.0001*%
%ADD77R,0.0172X0.0001*%
%ADD78R,0.0105X0.0001*%
%ADD79R,0.0054X0.0001*%
%ADD80R,0.0096X0.0001*%
%ADD81R,0.0033X0.0001*%
%ADD82R,0.0108X0.0001*%
%ADD83R,0.0099X0.0001*%
%ADD84R,0.0062X0.0001*%
%ADD85R,0.0111X0.0001*%
%ADD86R,0.0056X0.0001*%
%ADD87R,0.0102X0.0001*%
%ADD88R,0.0061X0.0001*%
%ADD89R,0.0049X0.0001*%
%ADD90R,0.0115X0.0001*%
%ADD91R,0.0047X0.0001*%
%ADD92R,0.0105X0.0001*%
%ADD93R,0.0034X0.0001*%
%ADD94R,0.0062X0.0001*%
%ADD95R,0.0118X0.0001*%
%ADD96R,0.0034X0.0001*%
%ADD97R,0.0063X0.0001*%
%ADD98R,0.0121X0.0001*%
%ADD99R,0.0057X0.0001*%
%ADD100R,0.0110X0.0001*%
%ADD101R,0.0033X0.0001*%
%ADD102R,0.0123X0.0001*%
%ADD103R,0.0058X0.0001*%
%ADD104R,0.0113X0.0001*%
%ADD105R,0.0034X0.0001*%
%ADD106R,0.0064X0.0001*%
%ADD107R,0.0126X0.0001*%
%ADD108R,0.0115X0.0001*%
%ADD109R,0.0065X0.0001*%
%ADD110R,0.0047X0.0001*%
%ADD111R,0.0128X0.0001*%
%ADD112R,0.0059X0.0001*%
%ADD113R,0.0117X0.0001*%
%ADD114R,0.0034X0.0001*%
%ADD115R,0.0065X0.0001*%
%ADD116R,0.0131X0.0001*%
%ADD117R,0.0120X0.0001*%
%ADD118R,0.0035X0.0001*%
%ADD119R,0.0066X0.0001*%
%ADD120R,0.0134X0.0001*%
%ADD121R,0.0122X0.0001*%
%ADD122R,0.0067X0.0001*%
%ADD123R,0.0136X0.0001*%
%ADD124R,0.0124X0.0001*%
%ADD125R,0.0138X0.0001*%
%ADD126R,0.0127X0.0001*%
%ADD127R,0.0068X0.0001*%
%ADD128R,0.0140X0.0001*%
%ADD129R,0.0062X0.0001*%
%ADD130R,0.0129X0.0001*%
%ADD131R,0.0035X0.0001*%
%ADD132R,0.0069X0.0001*%
%ADD133R,0.0142X0.0001*%
%ADD134R,0.0062X0.0001*%
%ADD135R,0.0130X0.0001*%
%ADD136R,0.0036X0.0001*%
%ADD137R,0.0069X0.0001*%
%ADD138R,0.0048X0.0001*%
%ADD139R,0.0145X0.0001*%
%ADD140R,0.0132X0.0001*%
%ADD141R,0.0070X0.0001*%
%ADD142R,0.0147X0.0001*%
%ADD143R,0.0071X0.0001*%
%ADD144R,0.0148X0.0001*%
%ADD145R,0.0137X0.0001*%
%ADD146R,0.0150X0.0001*%
%ADD147R,0.0064X0.0001*%
%ADD148R,0.0138X0.0001*%
%ADD149R,0.0036X0.0001*%
%ADD150R,0.0072X0.0001*%
%ADD151R,0.0152X0.0001*%
%ADD152R,0.0140X0.0001*%
%ADD153R,0.0154X0.0001*%
%ADD154R,0.0066X0.0001*%
%ADD155R,0.0178X0.0001*%
%ADD156R,0.0156X0.0001*%
%ADD157R,0.0179X0.0001*%
%ADD158R,0.0073X0.0001*%
%ADD159R,0.0157X0.0001*%
%ADD160R,0.0180X0.0001*%
%ADD161R,0.0074X0.0001*%
%ADD162R,0.0159X0.0001*%
%ADD163R,0.0046X0.0001*%
%ADD164R,0.0067X0.0001*%
%ADD165R,0.0181X0.0001*%
%ADD166R,0.0074X0.0001*%
%ADD167R,0.0160X0.0001*%
%ADD168R,0.0181X0.0001*%
%ADD169R,0.0075X0.0001*%
%ADD170R,0.0163X0.0001*%
%ADD171R,0.0183X0.0001*%
%ADD172R,0.0076X0.0001*%
%ADD173R,0.0164X0.0001*%
%ADD174R,0.0077X0.0001*%
%ADD175R,0.0165X0.0001*%
%ADD176R,0.0184X0.0001*%
%ADD177R,0.0167X0.0001*%
%ADD178R,0.0070X0.0001*%
%ADD179R,0.0185X0.0001*%
%ADD180R,0.0078X0.0001*%
%ADD181R,0.0168X0.0001*%
%ADD182R,0.0071X0.0001*%
%ADD183R,0.0185X0.0001*%
%ADD184R,0.0169X0.0001*%
%ADD185R,0.0186X0.0001*%
%ADD186R,0.0171X0.0001*%
%ADD187R,0.0187X0.0001*%
%ADD188R,0.0080X0.0001*%
%ADD189R,0.0087X0.0001*%
%ADD190R,0.0073X0.0001*%
%ADD191R,0.0069X0.0001*%
%ADD192R,0.0082X0.0001*%
%ADD193R,0.0081X0.0001*%
%ADD194R,0.0082X0.0001*%
%ADD195R,0.0083X0.0001*%
%ADD196R,0.0074X0.0001*%
%ADD197R,0.0048X0.0001*%
%ADD198R,0.0077X0.0001*%
%ADD199R,0.0084X0.0001*%
%ADD200R,0.0059X0.0001*%
%ADD201R,0.0078X0.0001*%
%ADD202R,0.0086X0.0001*%
%ADD203R,0.0057X0.0001*%
%ADD204R,0.0079X0.0001*%
%ADD205R,0.0087X0.0001*%
%ADD206R,0.0088X0.0001*%
%ADD207R,0.0090X0.0001*%
%ADD208R,0.0090X0.0001*%
%ADD209R,0.0083X0.0001*%
%ADD210R,0.0091X0.0001*%
%ADD211R,0.0053X0.0001*%
%ADD212R,0.0056X0.0001*%
%ADD213R,0.0052X0.0001*%
%ADD214R,0.0055X0.0001*%
%ADD215R,0.0052X0.0001*%
%ADD216R,0.0085X0.0001*%
%ADD217R,0.0054X0.0001*%
%ADD218R,0.0093X0.0001*%
%ADD219R,0.0052X0.0001*%
%ADD220R,0.0094X0.0001*%
%ADD221R,0.0095X0.0001*%
%ADD222R,0.0088X0.0001*%
%ADD223R,0.0052X0.0001*%
%ADD224R,0.0096X0.0001*%
%ADD225R,0.0097X0.0001*%
%ADD226R,0.0089X0.0001*%
%ADD227R,0.0098X0.0001*%
%ADD228R,0.0091X0.0001*%
%ADD229R,0.0100X0.0001*%
%ADD230R,0.0091X0.0001*%
%ADD231R,0.0100X0.0001*%
%ADD232R,0.0094X0.0001*%
%ADD233R,0.0096X0.0001*%
%ADD234R,0.0045X0.0001*%
%ADD235R,0.0045X0.0001*%
%ADD236R,0.0176X0.0001*%
%ADD237R,0.0176X0.0001*%
%ADD238R,0.0174X0.0001*%
%ADD239R,0.0173X0.0001*%
%ADD240R,0.0095X0.0001*%
%ADD241R,0.0170X0.0001*%
%ADD242R,0.0159X0.0001*%
%ADD243R,0.0160X0.0001*%
%ADD244R,0.0167X0.0001*%
%ADD245R,0.0166X0.0001*%
%ADD246R,0.0162X0.0001*%
%ADD247R,0.0158X0.0001*%
%ADD248R,0.0153X0.0001*%
%ADD249R,0.0156X0.0001*%
%ADD250R,0.0159X0.0001*%
%ADD251R,0.0157X0.0001*%
%ADD252R,0.0161X0.0001*%
%ADD253R,0.0164X0.0001*%
%ADD254R,0.0168X0.0001*%
%ADD255R,0.0170X0.0001*%
%ADD256R,0.0175X0.0001*%
%ADD257R,0.0159X0.0001*%
%ADD258R,0.0175X0.0001*%
%ADD259R,0.0176X0.0001*%
%ADD260R,0.0092X0.0001*%
%ADD261R,0.0054X0.0001*%
%ADD262R,0.0051X0.0001*%
%ADD263R,0.0091X0.0001*%
%ADD264R,0.0053X0.0001*%
%ADD265R,0.0088X0.0001*%
%ADD266R,0.0079X0.0001*%
%ADD267R,0.0087X0.0001*%
%ADD268R,0.0058X0.0001*%
%ADD269R,0.0083X0.0001*%
%ADD270R,0.0063X0.0001*%
%ADD271R,0.0076X0.0001*%
%ADD272R,0.0064X0.0001*%
%ADD273R,0.0063X0.0001*%
%ADD274R,0.0076X0.0001*%
%ADD275R,0.0082X0.0001*%
%ADD276R,0.0169X0.0001*%
%ADD277R,0.0067X0.0001*%
%ADD278R,0.0184X0.0001*%
%ADD279R,0.0080X0.0001*%
%ADD280R,0.0071X0.0001*%
%ADD281R,0.0169X0.0001*%
%ADD282R,0.0183X0.0001*%
%ADD283R,0.0182X0.0001*%
%ADD284R,0.0182X0.0001*%
%ADD285R,0.0076X0.0001*%
%ADD286R,0.0168X0.0001*%
%ADD287R,0.0071X0.0001*%
%ADD288R,0.0166X0.0001*%
%ADD289R,0.0181X0.0001*%
%ADD290R,0.0179X0.0001*%
%ADD291R,0.0073X0.0001*%
%ADD292R,0.0162X0.0001*%
%ADD293R,0.0179X0.0001*%
%ADD294R,0.0068X0.0001*%
%ADD295R,0.0072X0.0001*%
%ADD296R,0.0178X0.0001*%
%ADD297R,0.0177X0.0001*%
%ADD298R,0.0155X0.0001*%
%ADD299R,0.0154X0.0001*%
%ADD300R,0.0152X0.0001*%
%ADD301R,0.0151X0.0001*%
%ADD302R,0.0150X0.0001*%
%ADD303R,0.0149X0.0001*%
%ADD304R,0.0146X0.0001*%
%ADD305R,0.0173X0.0001*%
%ADD306R,0.0146X0.0001*%
%ADD307R,0.0144X0.0001*%
%ADD308R,0.0143X0.0001*%
%ADD309R,0.0171X0.0001*%
%ADD310R,0.0142X0.0001*%
%ADD311R,0.0061X0.0001*%
%ADD312R,0.0141X0.0001*%
%ADD313R,0.0139X0.0001*%
%ADD314R,0.0139X0.0001*%
%ADD315R,0.0135X0.0001*%
%ADD316R,0.0133X0.0001*%
%ADD317R,0.0167X0.0001*%
%ADD318R,0.0130X0.0001*%
%ADD319R,0.0058X0.0001*%
%ADD320R,0.0129X0.0001*%
%ADD321R,0.0169X0.0001*%
%ADD322R,0.0127X0.0001*%
%ADD323R,0.0125X0.0001*%
%ADD324R,0.0122X0.0001*%
%ADD325R,0.0161X0.0001*%
%ADD326R,0.0119X0.0001*%
%ADD327R,0.0116X0.0001*%
%ADD328R,0.0158X0.0001*%
%ADD329R,0.0113X0.0001*%
%ADD330R,0.0109X0.0001*%
%ADD331R,0.0107X0.0001*%
%ADD332R,0.0103X0.0001*%
%ADD333R,0.0102X0.0001*%
%ADD334R,0.0098X0.0001*%
%ADD335R,0.0143X0.0001*%
%ADD336R,0.0087X0.0001*%
%ADD337R,0.0133X0.0001*%
%ADD338R,0.0038X0.0001*%
%ADD339R,0.0038X0.0001*%
%ADD340R,0.0023X0.0001*%
%ADD341R,0.0022X0.0001*%
%ADD342R,0.0002X0.0001*%
D10*
X006430Y009635D02*
X006697Y009635D01*
X006891Y009702D02*
X006958Y009635D01*
X007091Y009635D01*
X007158Y009702D01*
X007158Y009769D01*
X007091Y009835D01*
X007024Y009835D01*
X007091Y009835D02*
X007158Y009902D01*
X007158Y009969D01*
X007091Y010036D01*
X006958Y010036D01*
X006891Y009969D01*
X006430Y010036D02*
X006430Y009635D01*
X005763Y010251D02*
X005629Y010251D01*
X005563Y010318D01*
X005696Y010451D02*
X005763Y010451D01*
X005830Y010385D01*
X005830Y010318D01*
X005763Y010251D01*
X005763Y010451D02*
X005830Y010518D01*
X005830Y010585D01*
X005763Y010652D01*
X005629Y010652D01*
X005563Y010585D01*
X005369Y010451D02*
X005102Y010451D01*
X005303Y010652D01*
X005303Y010251D01*
X004909Y010251D02*
X004775Y010385D01*
X004842Y010385D02*
X004642Y010385D01*
X004642Y010251D02*
X004642Y010652D01*
X004842Y010652D01*
X004909Y010585D01*
X004909Y010451D01*
X004842Y010385D01*
X003888Y010421D02*
X003688Y010421D01*
X003622Y010488D01*
X003622Y010555D01*
X003688Y010622D01*
X003822Y010622D01*
X003888Y010555D01*
X003888Y010288D01*
X003822Y010221D01*
X003688Y010221D01*
X003622Y010288D01*
X003428Y010288D02*
X003428Y010555D01*
X003361Y010622D01*
X003161Y010622D01*
X003161Y010221D01*
X003361Y010221D01*
X003428Y010288D01*
X002968Y010221D02*
X002701Y010221D01*
X002701Y010622D01*
X002968Y010622D01*
X002834Y010421D02*
X002701Y010421D01*
X002507Y010221D02*
X002240Y010221D01*
X002240Y010622D01*
X005274Y012814D02*
X005274Y013014D01*
X005341Y013081D01*
X005608Y013081D01*
X005674Y013014D01*
X005674Y012814D01*
X005274Y012814D01*
X005341Y013274D02*
X005274Y013341D01*
X005274Y013474D01*
X005341Y013541D01*
X005407Y013541D01*
X005674Y013274D01*
X005674Y013541D01*
X005605Y014756D02*
X005672Y014823D01*
X005672Y014956D01*
X005605Y015023D01*
X005271Y015023D01*
X005338Y015216D02*
X005271Y015283D01*
X005271Y015417D01*
X005338Y015483D01*
X005405Y015483D01*
X005672Y015216D01*
X005672Y015483D01*
X005605Y014756D02*
X005271Y014756D01*
X004223Y016332D02*
X004290Y016398D01*
X004290Y016532D01*
X004223Y016598D01*
X004223Y016792D02*
X004157Y016792D01*
X004090Y016859D01*
X004090Y016992D01*
X004157Y017059D01*
X004223Y017059D01*
X004290Y016992D01*
X004290Y016859D01*
X004223Y016792D01*
X004090Y016859D02*
X004023Y016792D01*
X003956Y016792D01*
X003890Y016859D01*
X003890Y016992D01*
X003956Y017059D01*
X004023Y017059D01*
X004090Y016992D01*
X003956Y016598D02*
X003890Y016532D01*
X003890Y016398D01*
X003956Y016332D01*
X004223Y016332D01*
X005429Y017069D02*
X005496Y017002D01*
X005629Y017002D01*
X005696Y017069D01*
X005890Y017069D02*
X005956Y017002D01*
X006090Y017002D01*
X006157Y017069D01*
X006157Y017203D01*
X006090Y017269D01*
X006023Y017269D01*
X005890Y017203D01*
X005890Y017403D01*
X006157Y017403D01*
X005696Y017336D02*
X005629Y017403D01*
X005496Y017403D01*
X005429Y017336D01*
X005429Y017069D01*
X006620Y016814D02*
X006620Y016414D01*
X006887Y016414D01*
X007081Y016414D02*
X007347Y016414D01*
X007214Y016414D02*
X007214Y016814D01*
X007081Y016681D01*
X007367Y017175D02*
X007634Y017175D01*
X007827Y017175D02*
X008094Y017175D01*
X008287Y017175D02*
X008488Y017175D01*
X008554Y017242D01*
X008554Y017509D01*
X008488Y017575D01*
X008287Y017575D01*
X008287Y017175D01*
X007961Y017375D02*
X007827Y017375D01*
X007827Y017575D02*
X007827Y017175D01*
X007827Y017575D02*
X008094Y017575D01*
X007367Y017575D02*
X007367Y017175D01*
X007339Y018638D02*
X007273Y018705D01*
X007339Y018638D02*
X007473Y018638D01*
X007540Y018705D01*
X007540Y018771D01*
X007473Y018838D01*
X007406Y018838D01*
X007473Y018838D02*
X007540Y018905D01*
X007540Y018971D01*
X007473Y019038D01*
X007339Y019038D01*
X007273Y018971D01*
X007079Y018971D02*
X007013Y019038D01*
X006879Y019038D01*
X006812Y018971D01*
X006619Y018971D02*
X006552Y019038D01*
X006419Y019038D01*
X006352Y018971D01*
X006352Y018705D01*
X006419Y018638D01*
X006552Y018638D01*
X006619Y018705D01*
X006812Y018638D02*
X007079Y018905D01*
X007079Y018971D01*
X007079Y018638D02*
X006812Y018638D01*
X008748Y017442D02*
X008881Y017575D01*
X008881Y017175D01*
X008748Y017175D02*
X009015Y017175D01*
X009700Y018935D02*
X009834Y018935D01*
X009900Y019002D01*
X009900Y019335D01*
X010094Y019269D02*
X010094Y019202D01*
X010161Y019135D01*
X010361Y019135D01*
X010361Y019002D02*
X010361Y019269D01*
X010294Y019335D01*
X010161Y019335D01*
X010094Y019269D01*
X010094Y019002D02*
X010161Y018935D01*
X010294Y018935D01*
X010361Y019002D01*
X009700Y018935D02*
X009634Y019002D01*
X009634Y019335D01*
X011080Y016903D02*
X011280Y016903D01*
X011347Y016836D01*
X011347Y016703D01*
X011280Y016636D01*
X011080Y016636D01*
X011213Y016636D02*
X011347Y016502D01*
X011540Y016502D02*
X011807Y016502D01*
X011674Y016502D02*
X011674Y016903D01*
X011540Y016769D01*
X012001Y016836D02*
X012068Y016903D01*
X012201Y016903D01*
X012268Y016836D01*
X012001Y016569D01*
X012068Y016502D01*
X012201Y016502D01*
X012268Y016569D01*
X012268Y016836D01*
X012001Y016836D02*
X012001Y016569D01*
X012326Y017199D02*
X012459Y017199D01*
X012526Y017265D01*
X012720Y017199D02*
X012986Y017466D01*
X012986Y017532D01*
X012920Y017599D01*
X012786Y017599D01*
X012720Y017532D01*
X012526Y017532D02*
X012459Y017599D01*
X012326Y017599D01*
X012259Y017532D01*
X012259Y017265D01*
X012326Y017199D01*
X012720Y017199D02*
X012986Y017199D01*
X013180Y017399D02*
X013447Y017399D01*
X013380Y017599D02*
X013180Y017399D01*
X013380Y017199D02*
X013380Y017599D01*
X013209Y015830D02*
X013209Y015429D01*
X013342Y015429D02*
X013075Y015429D01*
X012882Y015496D02*
X012815Y015429D01*
X012682Y015429D01*
X012615Y015496D01*
X012615Y015763D01*
X012682Y015830D01*
X012815Y015830D01*
X012882Y015763D01*
X013075Y015696D02*
X013209Y015830D01*
X013536Y015696D02*
X013669Y015830D01*
X013669Y015429D01*
X013536Y015429D02*
X013803Y015429D01*
X013906Y014851D02*
X013906Y014584D01*
X013706Y014784D01*
X014106Y014784D01*
X014106Y014390D02*
X014106Y014124D01*
X013839Y014390D01*
X013772Y014390D01*
X013706Y014324D01*
X013706Y014190D01*
X013772Y014124D01*
X013772Y013930D02*
X013906Y013930D01*
X013973Y013863D01*
X013973Y013663D01*
X014106Y013663D02*
X013706Y013663D01*
X013706Y013863D01*
X013772Y013930D01*
X013973Y013797D02*
X014106Y013930D01*
X014033Y013389D02*
X014100Y013322D01*
X014100Y013189D01*
X014033Y013122D01*
X013900Y013255D02*
X013900Y013322D01*
X013967Y013389D01*
X014033Y013389D01*
X013900Y013322D02*
X013833Y013389D01*
X013766Y013389D01*
X013700Y013322D01*
X013700Y013189D01*
X013766Y013122D01*
X013766Y012928D02*
X013700Y012862D01*
X013700Y012662D01*
X014100Y012662D01*
X014100Y012862D01*
X014033Y012928D01*
X013766Y012928D01*
X013700Y012468D02*
X013700Y012201D01*
X014100Y012201D01*
X014100Y012468D01*
X013900Y012335D02*
X013900Y012201D01*
X014100Y012008D02*
X014100Y011741D01*
X013700Y011741D01*
X014351Y011555D02*
X014618Y011555D01*
X014351Y011555D02*
X014351Y011956D01*
X014811Y011755D02*
X015078Y011755D01*
X015011Y011555D02*
X015011Y011956D01*
X014811Y011755D01*
X015094Y010739D02*
X015027Y010673D01*
X015027Y010473D01*
X015427Y010473D01*
X015427Y010673D01*
X015361Y010739D01*
X015094Y010739D01*
X015027Y010279D02*
X015427Y010279D01*
X015027Y010012D01*
X015427Y010012D01*
X015361Y009819D02*
X015227Y009819D01*
X015227Y009685D01*
X015094Y009552D02*
X015361Y009552D01*
X015427Y009618D01*
X015427Y009752D01*
X015361Y009819D01*
X015094Y009819D02*
X015027Y009752D01*
X015027Y009618D01*
X015094Y009552D01*
X015227Y009358D02*
X015227Y009091D01*
X015094Y008898D02*
X015027Y008831D01*
X015027Y008698D01*
X015094Y008631D01*
X015361Y008631D01*
X015427Y008698D01*
X015427Y008831D01*
X015361Y008898D01*
X016230Y009702D02*
X016230Y009903D01*
X016296Y009969D01*
X016430Y009969D01*
X016497Y009903D01*
X016497Y009702D01*
X016630Y009702D02*
X016230Y009702D01*
X016497Y009836D02*
X016630Y009969D01*
X016630Y010163D02*
X016630Y010430D01*
X016630Y010296D02*
X016230Y010296D01*
X016363Y010163D01*
X016230Y010623D02*
X016230Y010890D01*
X016296Y010890D01*
X016563Y010623D01*
X016630Y010623D01*
X013679Y009068D02*
X013679Y008801D01*
X013412Y009068D01*
X013346Y009068D01*
X013279Y009001D01*
X013279Y008867D01*
X013346Y008801D01*
X013279Y008607D02*
X013546Y008607D01*
X013679Y008474D01*
X013546Y008340D01*
X013279Y008340D01*
X013054Y008364D02*
X013054Y008564D01*
X012988Y008631D01*
X012721Y008631D01*
X012654Y008564D01*
X012654Y008364D01*
X013054Y008364D01*
X012988Y008825D02*
X013054Y008891D01*
X013054Y009025D01*
X012988Y009092D01*
X012721Y009092D01*
X012654Y009025D01*
X012654Y008891D01*
X012721Y008825D01*
X012788Y008825D01*
X012854Y008891D01*
X012854Y009092D01*
X011586Y006279D02*
X011586Y005879D01*
X011453Y005879D02*
X011719Y005879D01*
X011453Y006146D02*
X011586Y006279D01*
X011259Y006279D02*
X010992Y006279D01*
X010992Y005879D01*
X010992Y006079D02*
X011126Y006079D01*
X013009Y005906D02*
X013276Y005906D01*
X013142Y006039D02*
X013142Y005772D01*
X013009Y005579D02*
X012942Y005512D01*
X012942Y005379D01*
X013009Y005312D01*
X013276Y005312D01*
X013343Y005379D01*
X013343Y005512D01*
X013276Y005579D01*
X010367Y009705D02*
X010643Y010118D01*
X010072Y010118D01*
X010367Y009705D01*
X009839Y009204D02*
X009439Y009204D01*
X009639Y009004D01*
X009639Y009271D01*
X009206Y009189D02*
X008805Y009189D01*
X009005Y008989D01*
X009005Y009256D01*
X008872Y008796D02*
X008805Y008729D01*
X008805Y008596D01*
X008872Y008529D01*
X009139Y008529D01*
X009206Y008596D01*
X009206Y008729D01*
X009139Y008796D01*
X009439Y008744D02*
X009439Y008544D01*
X009839Y008544D01*
X009839Y008744D01*
X009773Y008811D01*
X009506Y008811D01*
X009439Y008744D01*
X008801Y010525D02*
X008400Y010525D01*
X008400Y010726D01*
X008467Y010792D01*
X008734Y010792D01*
X008801Y010726D01*
X008801Y010525D01*
X008801Y010986D02*
X008801Y011253D01*
X008801Y011119D02*
X008400Y011119D01*
X008534Y010986D01*
X011080Y016502D02*
X011080Y016903D01*
X012367Y023790D02*
X012500Y023790D01*
X012567Y023856D01*
X012567Y024123D01*
X012500Y024190D01*
X012367Y024190D01*
X012300Y024123D01*
X012300Y024057D01*
X012367Y023990D01*
X012567Y023990D01*
X012367Y023790D02*
X012300Y023856D01*
X012106Y023990D02*
X011839Y023990D01*
X011973Y024123D02*
X011973Y023856D01*
X012000Y027549D02*
X012000Y027949D01*
X012200Y027949D01*
X012267Y027882D01*
X012267Y027749D01*
X012200Y027682D01*
X012000Y027682D01*
X012133Y027682D02*
X012267Y027549D01*
X012460Y027749D02*
X012727Y027749D01*
X012660Y027949D02*
X012460Y027749D01*
X012660Y027549D02*
X012660Y027949D01*
X012921Y027882D02*
X012987Y027949D01*
X013121Y027949D01*
X013188Y027882D01*
X012921Y027615D01*
X012987Y027549D01*
X013121Y027549D01*
X013188Y027615D01*
X013188Y027882D01*
X012921Y027882D02*
X012921Y027615D01*
X014546Y029445D02*
X014480Y029512D01*
X014480Y029645D01*
X014546Y029712D01*
X014813Y029712D01*
X014880Y029645D01*
X014880Y029512D01*
X014813Y029445D01*
X014546Y029445D01*
X014747Y029578D02*
X014880Y029712D01*
X014813Y029905D02*
X014747Y029905D01*
X014680Y029972D01*
X014680Y030105D01*
X014747Y030172D01*
X014813Y030172D01*
X014880Y030105D01*
X014880Y029972D01*
X014813Y029905D01*
X014680Y029972D02*
X014613Y029905D01*
X014546Y029905D01*
X014480Y029972D01*
X014480Y030105D01*
X014546Y030172D01*
X014613Y030172D01*
X014680Y030105D01*
X014656Y032322D02*
X014790Y032322D01*
X014856Y032389D01*
X014856Y032456D01*
X014790Y032523D01*
X014590Y032523D01*
X014590Y032389D01*
X014656Y032322D01*
X014590Y032523D02*
X014723Y032656D01*
X014856Y032723D01*
X014396Y032656D02*
X014329Y032723D01*
X014129Y032723D01*
X014129Y032322D01*
X014329Y032322D01*
X014396Y032389D01*
X014396Y032656D01*
X013936Y032723D02*
X013669Y032723D01*
X013669Y032322D01*
X013936Y032322D01*
X013802Y032523D02*
X013669Y032523D01*
X013475Y032322D02*
X013208Y032322D01*
X013208Y032723D01*
X013030Y032609D02*
X012897Y032476D01*
X012897Y032543D02*
X012897Y032342D01*
X013030Y032342D02*
X012630Y032342D01*
X012630Y032543D01*
X012696Y032609D01*
X012830Y032609D01*
X012897Y032543D01*
X012963Y032803D02*
X013030Y032869D01*
X013030Y033003D01*
X012963Y033070D01*
X012897Y033070D01*
X012830Y033003D01*
X012830Y032936D01*
X012830Y033003D02*
X012763Y033070D01*
X012696Y033070D01*
X012630Y033003D01*
X012630Y032869D01*
X012696Y032803D01*
X012696Y033263D02*
X012763Y033263D01*
X012830Y033330D01*
X012830Y033463D01*
X012897Y033530D01*
X012963Y033530D01*
X013030Y033463D01*
X013030Y033330D01*
X012963Y033263D01*
X012897Y033263D01*
X012830Y033330D01*
X012830Y033463D02*
X012763Y033530D01*
X012696Y033530D01*
X012630Y033463D01*
X012630Y033330D01*
X012696Y033263D01*
X009696Y032843D02*
X009696Y032776D01*
X009430Y032509D01*
X009430Y032442D01*
X009236Y032509D02*
X009236Y032776D01*
X009169Y032843D01*
X008969Y032843D01*
X008969Y032442D01*
X009169Y032442D01*
X009236Y032509D01*
X009430Y032843D02*
X009696Y032843D01*
X008776Y032843D02*
X008509Y032843D01*
X008509Y032442D01*
X008776Y032442D01*
X008642Y032643D02*
X008509Y032643D01*
X008315Y032442D02*
X008048Y032442D01*
X008048Y032843D01*
X007891Y033162D02*
X007758Y033162D01*
X007691Y033229D01*
X007691Y033363D02*
X007824Y033429D01*
X007891Y033429D01*
X007958Y033363D01*
X007958Y033229D01*
X007891Y033162D01*
X007691Y033363D02*
X007691Y033563D01*
X007958Y033563D01*
X007497Y033363D02*
X007230Y033363D01*
X007431Y033563D01*
X007431Y033162D01*
X007037Y033162D02*
X006903Y033296D01*
X006970Y033296D02*
X006770Y033296D01*
X006770Y033162D02*
X006770Y033563D01*
X006970Y033563D01*
X007037Y033496D01*
X007037Y033363D01*
X006970Y033296D01*
X004798Y032756D02*
X004798Y032689D01*
X004731Y032623D01*
X004598Y032623D01*
X004531Y032689D01*
X004531Y032756D01*
X004598Y032823D01*
X004731Y032823D01*
X004798Y032756D01*
X004731Y032623D02*
X004798Y032556D01*
X004798Y032489D01*
X004731Y032422D01*
X004598Y032422D01*
X004531Y032489D01*
X004531Y032556D01*
X004598Y032623D01*
X004338Y032756D02*
X004271Y032823D01*
X004071Y032823D01*
X004071Y032422D01*
X004271Y032422D01*
X004338Y032489D01*
X004338Y032756D01*
X003877Y032823D02*
X003610Y032823D01*
X003610Y032422D01*
X003877Y032422D01*
X003744Y032623D02*
X003610Y032623D01*
X003417Y032422D02*
X003150Y032422D01*
X003150Y032823D01*
X003209Y031399D02*
X003142Y031333D01*
X003142Y031133D01*
X003543Y031133D01*
X003543Y031333D01*
X003476Y031399D01*
X003209Y031399D01*
X003142Y030939D02*
X003543Y030939D01*
X003142Y030672D01*
X003543Y030672D01*
X003476Y030479D02*
X003342Y030479D01*
X003342Y030345D01*
X003209Y030212D02*
X003476Y030212D01*
X003543Y030279D01*
X003543Y030412D01*
X003476Y030479D01*
X003209Y030479D02*
X003142Y030412D01*
X003142Y030279D01*
X003209Y030212D01*
X004320Y030438D02*
X004387Y030371D01*
X004654Y030371D01*
X004721Y030438D01*
X004721Y030571D01*
X004654Y030638D01*
X004387Y030638D01*
X004320Y030571D01*
X004320Y030438D01*
X004587Y030505D02*
X004721Y030638D01*
X004721Y030832D02*
X004721Y031099D01*
X004721Y030965D02*
X004320Y030965D01*
X004454Y030832D01*
X004387Y031292D02*
X004320Y031359D01*
X004320Y031492D01*
X004387Y031559D01*
X004454Y031559D01*
X004721Y031292D01*
X004721Y031559D01*
X007249Y027763D02*
X007449Y027763D01*
X007516Y027696D01*
X007516Y027563D01*
X007449Y027496D01*
X007249Y027496D01*
X007382Y027496D02*
X007516Y027362D01*
X007249Y027362D02*
X007249Y027763D01*
X007709Y027563D02*
X007976Y027563D01*
X007909Y027763D02*
X007709Y027563D01*
X007909Y027763D02*
X007909Y027362D01*
X008170Y027362D02*
X008170Y027429D01*
X008436Y027696D01*
X008436Y027763D01*
X008170Y027763D01*
X009346Y029545D02*
X009280Y029612D01*
X009280Y029745D01*
X009346Y029812D01*
X009613Y029812D01*
X009680Y029745D01*
X009680Y029612D01*
X009613Y029545D01*
X009346Y029545D01*
X009547Y029678D02*
X009680Y029812D01*
X009680Y030005D02*
X009680Y030272D01*
X009680Y030139D02*
X009280Y030139D01*
X009413Y030005D01*
X009346Y030466D02*
X009280Y030532D01*
X009280Y030666D01*
X009346Y030733D01*
X009613Y030466D01*
X009680Y030532D01*
X009680Y030666D01*
X009613Y030733D01*
X009346Y030733D01*
X009346Y030466D02*
X009613Y030466D01*
X007200Y024175D02*
X007067Y024175D01*
X007000Y024109D01*
X007000Y023842D01*
X007267Y024109D01*
X007267Y023842D01*
X007200Y023775D01*
X007067Y023775D01*
X007000Y023842D01*
X006807Y023775D02*
X006540Y023775D01*
X006673Y023775D02*
X006673Y024175D01*
X006540Y024042D01*
X006346Y023975D02*
X006079Y023975D01*
X006213Y023842D02*
X006213Y024109D01*
X007200Y024175D02*
X007267Y024109D01*
X004392Y022224D02*
X003991Y022224D01*
X003991Y022425D01*
X004058Y022491D01*
X004192Y022491D01*
X004258Y022425D01*
X004258Y022224D01*
X004258Y022031D02*
X004325Y022031D01*
X004392Y021964D01*
X004392Y021831D01*
X004325Y021764D01*
X004192Y021831D02*
X004192Y021964D01*
X004258Y022031D01*
X004058Y022031D02*
X003991Y021964D01*
X003991Y021831D01*
X004058Y021764D01*
X004125Y021764D01*
X004192Y021831D01*
X004325Y021571D02*
X004392Y021504D01*
X004392Y021370D01*
X004325Y021304D01*
X004058Y021304D01*
X003991Y021370D01*
X003991Y021504D01*
X004058Y021571D01*
X003991Y021130D02*
X003991Y020997D01*
X003991Y021063D02*
X004392Y021063D01*
X004392Y020997D02*
X004392Y021130D01*
X003099Y017642D02*
X002965Y017642D01*
X003032Y017642D02*
X003032Y017308D01*
X002965Y017242D01*
X002898Y017242D01*
X002832Y017308D01*
X002638Y017242D02*
X002505Y017375D01*
X002572Y017375D02*
X002371Y017375D01*
X002371Y017242D02*
X002371Y017642D01*
X002572Y017642D01*
X002638Y017575D01*
X002638Y017442D01*
X002572Y017375D01*
X016739Y023970D02*
X017006Y023970D01*
X016873Y024103D02*
X016873Y023836D01*
X017200Y023836D02*
X017200Y023903D01*
X017267Y023970D01*
X017400Y023970D01*
X017467Y023903D01*
X017467Y023836D01*
X017400Y023770D01*
X017267Y023770D01*
X017200Y023836D01*
X017267Y023970D02*
X017200Y024037D01*
X017200Y024103D01*
X017267Y024170D01*
X017400Y024170D01*
X017467Y024103D01*
X017467Y024037D01*
X017400Y023970D01*
X018280Y021070D02*
X018280Y020736D01*
X018347Y020669D01*
X018480Y020669D01*
X018547Y020736D01*
X018547Y021070D01*
X018741Y021003D02*
X018741Y020936D01*
X018807Y020870D01*
X018941Y020870D01*
X019008Y020803D01*
X019008Y020736D01*
X018941Y020669D01*
X018807Y020669D01*
X018741Y020736D01*
X018741Y020803D01*
X018807Y020870D01*
X018941Y020870D02*
X019008Y020936D01*
X019008Y021003D01*
X018941Y021070D01*
X018807Y021070D01*
X018741Y021003D01*
X017724Y020264D02*
X017726Y020284D01*
X017731Y020304D01*
X017741Y020322D01*
X017753Y020339D01*
X017768Y020353D01*
X017786Y020363D01*
X017805Y020371D01*
X017825Y020375D01*
X017845Y020375D01*
X017865Y020371D01*
X017884Y020363D01*
X017902Y020353D01*
X017917Y020339D01*
X017929Y020322D01*
X017939Y020304D01*
X017944Y020284D01*
X017946Y020264D01*
X017944Y020244D01*
X017939Y020224D01*
X017929Y020206D01*
X017917Y020189D01*
X017902Y020175D01*
X017884Y020165D01*
X017865Y020157D01*
X017845Y020153D01*
X017825Y020153D01*
X017805Y020157D01*
X017786Y020165D01*
X017768Y020175D01*
X017753Y020189D01*
X017741Y020206D01*
X017731Y020224D01*
X017726Y020244D01*
X017724Y020264D01*
X020010Y018663D02*
X020076Y018730D01*
X020143Y018730D01*
X020210Y018663D01*
X020277Y018730D01*
X020343Y018730D01*
X020410Y018663D01*
X020410Y018529D01*
X020343Y018463D01*
X020210Y018596D02*
X020210Y018663D01*
X020010Y018663D02*
X020010Y018529D01*
X020076Y018463D01*
X020076Y018269D02*
X020210Y018269D01*
X020277Y018203D01*
X020277Y018002D01*
X020410Y018002D02*
X020010Y018002D01*
X020010Y018203D01*
X020076Y018269D01*
X020277Y018136D02*
X020410Y018269D01*
X021210Y018172D02*
X021276Y018238D01*
X021410Y018238D01*
X021477Y018172D01*
X021477Y017972D01*
X021610Y017972D02*
X021210Y017972D01*
X021210Y018172D01*
X021477Y018105D02*
X021610Y018238D01*
X021410Y018432D02*
X021410Y018699D01*
X021610Y018632D02*
X021210Y018632D01*
X021410Y018432D01*
X021970Y018364D02*
X022170Y018164D01*
X022170Y018431D01*
X022370Y018364D02*
X021970Y018364D01*
X022170Y017971D02*
X022170Y017704D01*
X022370Y017510D02*
X022370Y017244D01*
X022370Y017377D02*
X021970Y017377D01*
X022103Y017244D01*
X022036Y017050D02*
X021970Y016983D01*
X021970Y016783D01*
X022370Y016783D01*
X022370Y016983D01*
X022303Y017050D01*
X022036Y017050D01*
X021970Y016590D02*
X021970Y016323D01*
X021970Y016456D02*
X022370Y016456D01*
X022370Y016129D02*
X022237Y015996D01*
X022237Y016063D02*
X022237Y015862D01*
X022370Y015862D02*
X021970Y015862D01*
X021970Y016063D01*
X022036Y016129D01*
X022170Y016129D01*
X022237Y016063D01*
X025060Y016003D02*
X025060Y015802D01*
X025460Y015802D01*
X025327Y015802D02*
X025327Y016003D01*
X025260Y016069D01*
X025126Y016069D01*
X025060Y016003D01*
X025060Y016263D02*
X025060Y016530D01*
X025060Y016396D02*
X025460Y016396D01*
X025460Y016069D02*
X025327Y015936D01*
X025460Y016723D02*
X025460Y016923D01*
X025393Y016990D01*
X025126Y016990D01*
X025060Y016923D01*
X025060Y016723D01*
X025460Y016723D01*
X025393Y017184D02*
X025460Y017250D01*
X025460Y017384D01*
X025393Y017450D01*
X025260Y017450D01*
X025193Y017384D01*
X025193Y017317D01*
X025260Y017184D01*
X025060Y017184D01*
X025060Y017450D01*
X025260Y017644D02*
X025260Y017911D01*
X025327Y018104D02*
X025260Y018171D01*
X025260Y018304D01*
X025327Y018371D01*
X025393Y018371D01*
X025460Y018304D01*
X025460Y018171D01*
X025393Y018104D01*
X025327Y018104D01*
X025260Y018171D02*
X025193Y018104D01*
X025126Y018104D01*
X025060Y018171D01*
X025060Y018304D01*
X025126Y018371D01*
X025193Y018371D01*
X025260Y018304D01*
X026967Y021802D02*
X027100Y021802D01*
X027167Y021869D01*
X027167Y022203D01*
X027360Y022203D02*
X027360Y022003D01*
X027494Y022069D01*
X027561Y022069D01*
X027627Y022003D01*
X027627Y021869D01*
X027561Y021802D01*
X027427Y021802D01*
X027360Y021869D01*
X027360Y022203D02*
X027627Y022203D01*
X026900Y022203D02*
X026900Y021869D01*
X026967Y021802D01*
X027367Y023790D02*
X027500Y023790D01*
X027567Y023856D01*
X027567Y023923D01*
X027500Y023990D01*
X027300Y023990D01*
X027300Y023856D01*
X027367Y023790D01*
X027300Y023990D02*
X027433Y024123D01*
X027567Y024190D01*
X027106Y023990D02*
X026839Y023990D01*
X026973Y024123D02*
X026973Y023856D01*
X027200Y027519D02*
X027200Y027919D01*
X027400Y027919D01*
X027467Y027852D01*
X027467Y027719D01*
X027400Y027652D01*
X027200Y027652D01*
X027333Y027652D02*
X027467Y027519D01*
X027660Y027519D02*
X027927Y027786D01*
X027927Y027852D01*
X027860Y027919D01*
X027727Y027919D01*
X027660Y027852D01*
X027660Y027519D02*
X027927Y027519D01*
X028121Y027585D02*
X028388Y027852D01*
X028388Y027585D01*
X028321Y027519D01*
X028187Y027519D01*
X028121Y027585D01*
X028121Y027852D01*
X028187Y027919D01*
X028321Y027919D01*
X028388Y027852D01*
X024680Y029612D02*
X024613Y029545D01*
X024346Y029545D01*
X024280Y029612D01*
X024280Y029745D01*
X024346Y029812D01*
X024613Y029812D01*
X024680Y029745D01*
X024680Y029612D01*
X024547Y029678D02*
X024680Y029812D01*
X024480Y030005D02*
X024480Y030272D01*
X024680Y030205D02*
X024280Y030205D01*
X024480Y030005D01*
X024576Y032382D02*
X024310Y032382D01*
X024576Y032649D01*
X024576Y032716D01*
X024510Y032783D01*
X024376Y032783D01*
X024310Y032716D01*
X024116Y032716D02*
X024049Y032783D01*
X023849Y032783D01*
X023849Y032382D01*
X024049Y032382D01*
X024116Y032449D01*
X024116Y032716D01*
X023656Y032783D02*
X023389Y032783D01*
X023389Y032382D01*
X023656Y032382D01*
X023522Y032583D02*
X023389Y032583D01*
X023195Y032382D02*
X022928Y032382D01*
X022928Y032783D01*
X022898Y033242D02*
X023031Y033242D01*
X023098Y033309D01*
X023098Y033376D01*
X023031Y033443D01*
X022831Y033443D01*
X022831Y033309D01*
X022898Y033242D01*
X022831Y033443D02*
X022964Y033576D01*
X023098Y033643D01*
X022637Y033576D02*
X022571Y033643D01*
X022437Y033643D01*
X022370Y033576D01*
X022177Y033576D02*
X022177Y033443D01*
X022110Y033376D01*
X021910Y033376D01*
X022043Y033376D02*
X022177Y033242D01*
X022370Y033242D02*
X022637Y033509D01*
X022637Y033576D01*
X022637Y033242D02*
X022370Y033242D01*
X022177Y033576D02*
X022110Y033643D01*
X021910Y033643D01*
X021910Y033242D01*
X019616Y032763D02*
X019350Y032763D01*
X019350Y032563D01*
X019483Y032629D01*
X019550Y032629D01*
X019616Y032563D01*
X019616Y032429D01*
X019550Y032362D01*
X019416Y032362D01*
X019350Y032429D01*
X019156Y032429D02*
X019156Y032696D01*
X019089Y032763D01*
X018889Y032763D01*
X018889Y032362D01*
X019089Y032362D01*
X019156Y032429D01*
X018696Y032362D02*
X018429Y032362D01*
X018429Y032763D01*
X018696Y032763D01*
X018562Y032563D02*
X018429Y032563D01*
X018235Y032362D02*
X017968Y032362D01*
X017968Y032763D01*
X018018Y033142D02*
X017751Y033142D01*
X018018Y033409D01*
X018018Y033476D01*
X017951Y033543D01*
X017818Y033543D01*
X017751Y033476D01*
X017557Y033476D02*
X017557Y033409D01*
X017491Y033343D01*
X017557Y033276D01*
X017557Y033209D01*
X017491Y033142D01*
X017357Y033142D01*
X017290Y033209D01*
X017424Y033343D02*
X017491Y033343D01*
X017557Y033476D02*
X017491Y033543D01*
X017357Y033543D01*
X017290Y033476D01*
X017097Y033476D02*
X017097Y033343D01*
X017030Y033276D01*
X016830Y033276D01*
X016963Y033276D02*
X017097Y033142D01*
X016830Y033142D02*
X016830Y033543D01*
X017030Y033543D01*
X017097Y033476D01*
X019280Y030272D02*
X019346Y030139D01*
X019480Y030005D01*
X019480Y030205D01*
X019547Y030272D01*
X019613Y030272D01*
X019680Y030205D01*
X019680Y030072D01*
X019613Y030005D01*
X019480Y030005D01*
X019613Y029812D02*
X019680Y029745D01*
X019680Y029612D01*
X019613Y029545D01*
X019346Y029545D01*
X019280Y029612D01*
X019280Y029745D01*
X019346Y029812D01*
X019613Y029812D01*
X019680Y029812D02*
X019547Y029678D01*
X018251Y027769D02*
X018051Y027569D01*
X018318Y027569D01*
X018251Y027369D02*
X018251Y027769D01*
X017857Y027702D02*
X017857Y027636D01*
X017790Y027569D01*
X017857Y027502D01*
X017857Y027435D01*
X017790Y027369D01*
X017657Y027369D01*
X017590Y027435D01*
X017724Y027569D02*
X017790Y027569D01*
X017857Y027702D02*
X017790Y027769D01*
X017657Y027769D01*
X017590Y027702D01*
X017397Y027702D02*
X017397Y027569D01*
X017330Y027502D01*
X017130Y027502D01*
X017130Y027369D02*
X017130Y027769D01*
X017330Y027769D01*
X017397Y027702D01*
X017263Y027502D02*
X017397Y027369D01*
X021839Y023990D02*
X022106Y023990D01*
X021973Y024123D02*
X021973Y023856D01*
X022300Y023856D02*
X022300Y023790D01*
X022300Y023856D02*
X022567Y024123D01*
X022567Y024190D01*
X022300Y024190D01*
X022316Y022303D02*
X022316Y021969D01*
X022249Y021902D01*
X022116Y021902D01*
X022049Y021969D01*
X022049Y022303D01*
X022510Y022169D02*
X022643Y022303D01*
X022643Y021902D01*
X022510Y021902D02*
X022777Y021902D01*
X022847Y027529D02*
X022580Y027529D01*
X022847Y027796D01*
X022847Y027862D01*
X022780Y027929D01*
X022647Y027929D01*
X022580Y027862D01*
X022387Y027862D02*
X022387Y027729D01*
X022320Y027662D01*
X022120Y027662D01*
X022120Y027529D02*
X022120Y027929D01*
X022320Y027929D01*
X022387Y027862D01*
X022253Y027662D02*
X022387Y027529D01*
X023041Y027595D02*
X023041Y027662D01*
X023107Y027729D01*
X023241Y027729D01*
X023308Y027662D01*
X023308Y027595D01*
X023241Y027529D01*
X023107Y027529D01*
X023041Y027595D01*
X023107Y027729D02*
X023041Y027796D01*
X023041Y027862D01*
X023107Y027929D01*
X023241Y027929D01*
X023308Y027862D01*
X023308Y027796D01*
X023241Y027729D01*
X026910Y033182D02*
X026910Y033583D01*
X027110Y033583D01*
X027177Y033516D01*
X027177Y033383D01*
X027110Y033316D01*
X026910Y033316D01*
X027043Y033316D02*
X027177Y033182D01*
X027370Y033182D02*
X027637Y033182D01*
X027504Y033182D02*
X027504Y033583D01*
X027370Y033449D01*
X027831Y033383D02*
X028031Y033583D01*
X028031Y033182D01*
X028098Y033383D02*
X027831Y033383D01*
X025416Y040719D02*
X025149Y040719D01*
X025283Y040719D02*
X025283Y041119D01*
X025149Y040986D01*
X024956Y040986D02*
X024689Y040719D01*
X024956Y040719D01*
X024956Y040986D02*
X024956Y041053D01*
X024889Y041119D01*
X024755Y041119D01*
X024689Y041053D01*
X024495Y041053D02*
X024495Y040919D01*
X024429Y040852D01*
X024228Y040852D01*
X024228Y040719D02*
X024228Y041119D01*
X024429Y041119D01*
X024495Y041053D01*
X024362Y040852D02*
X024495Y040719D01*
X022838Y040853D02*
X022771Y040786D01*
X022638Y040786D01*
X022571Y040853D01*
X022705Y040986D02*
X022771Y040986D01*
X022838Y040919D01*
X022838Y040853D01*
X022771Y040986D02*
X022838Y041053D01*
X022838Y041119D01*
X022771Y041186D01*
X022638Y041186D01*
X022571Y041119D01*
X022378Y041119D02*
X022311Y041186D01*
X022178Y041186D01*
X022111Y041119D01*
X021917Y041119D02*
X021917Y040986D01*
X021851Y040919D01*
X021650Y040919D01*
X021650Y040786D02*
X021650Y041186D01*
X021851Y041186D01*
X021917Y041119D01*
X021784Y040919D02*
X021917Y040786D01*
X022111Y040786D02*
X022378Y041053D01*
X022378Y041119D01*
X022378Y040786D02*
X022111Y040786D01*
X020516Y040719D02*
X020249Y040719D01*
X020383Y040719D02*
X020383Y041119D01*
X020249Y040986D01*
X020056Y040719D02*
X019789Y040719D01*
X019922Y040719D02*
X019922Y041119D01*
X019789Y040986D01*
X019595Y041053D02*
X019595Y040919D01*
X019529Y040852D01*
X019328Y040852D01*
X019328Y040719D02*
X019328Y041119D01*
X019529Y041119D01*
X019595Y041053D01*
X019462Y040852D02*
X019595Y040719D01*
X017816Y040886D02*
X017816Y041153D01*
X017749Y041219D01*
X017616Y041219D01*
X017549Y041153D01*
X017549Y041086D01*
X017616Y041019D01*
X017816Y041019D01*
X017816Y040886D02*
X017749Y040819D01*
X017616Y040819D01*
X017549Y040886D01*
X017356Y040819D02*
X017089Y040819D01*
X017356Y041086D01*
X017356Y041153D01*
X017289Y041219D01*
X017155Y041219D01*
X017089Y041153D01*
X016895Y041153D02*
X016895Y041019D01*
X016829Y040952D01*
X016628Y040952D01*
X016628Y040819D02*
X016628Y041219D01*
X016829Y041219D01*
X016895Y041153D01*
X016762Y040952D02*
X016895Y040819D01*
X015316Y040786D02*
X015249Y040719D01*
X015116Y040719D01*
X015049Y040786D01*
X015116Y040919D02*
X015316Y040919D01*
X015316Y040786D02*
X015316Y041053D01*
X015249Y041119D01*
X015116Y041119D01*
X015049Y041053D01*
X015049Y040986D01*
X015116Y040919D01*
X014856Y040919D02*
X014789Y040852D01*
X014589Y040852D01*
X014589Y040719D02*
X014589Y041119D01*
X014789Y041119D01*
X014856Y041053D01*
X014856Y040919D01*
X014722Y040852D02*
X014856Y040719D01*
X012816Y041053D02*
X012549Y040786D01*
X012549Y040719D01*
X012356Y040719D02*
X012222Y040852D01*
X012289Y040852D02*
X012089Y040852D01*
X012089Y040719D02*
X012089Y041119D01*
X012289Y041119D01*
X012356Y041053D01*
X012356Y040919D01*
X012289Y040852D01*
X012549Y041119D02*
X012816Y041119D01*
X012816Y041053D01*
X010838Y041119D02*
X010571Y040853D01*
X010638Y040786D01*
X010771Y040786D01*
X010838Y040853D01*
X010838Y041119D01*
X010771Y041186D01*
X010638Y041186D01*
X010571Y041119D01*
X010571Y040853D01*
X010378Y040853D02*
X010311Y040786D01*
X010178Y040786D01*
X010111Y040853D01*
X010244Y040986D02*
X010311Y040986D01*
X010378Y040919D01*
X010378Y040853D01*
X010311Y040986D02*
X010378Y041053D01*
X010378Y041119D01*
X010311Y041186D01*
X010178Y041186D01*
X010111Y041119D01*
X009917Y041119D02*
X009917Y040986D01*
X009851Y040919D01*
X009650Y040919D01*
X009650Y040786D02*
X009650Y041186D01*
X009851Y041186D01*
X009917Y041119D01*
X009784Y040919D02*
X009917Y040786D01*
X007816Y040719D02*
X007549Y040719D01*
X007683Y040719D02*
X007683Y041119D01*
X007549Y040986D01*
X007356Y041053D02*
X007356Y040919D01*
X007289Y040852D01*
X007089Y040852D01*
X007089Y040719D02*
X007089Y041119D01*
X007289Y041119D01*
X007356Y041053D01*
X007222Y040852D02*
X007356Y040719D01*
X005838Y040853D02*
X005771Y040786D01*
X005638Y040786D01*
X005571Y040853D01*
X005571Y040986D02*
X005705Y041053D01*
X005771Y041053D01*
X005838Y040986D01*
X005838Y040853D01*
X005571Y040986D02*
X005571Y041186D01*
X005838Y041186D01*
X005378Y041119D02*
X005378Y041053D01*
X005311Y040986D01*
X005378Y040919D01*
X005378Y040853D01*
X005311Y040786D01*
X005178Y040786D01*
X005111Y040853D01*
X005244Y040986D02*
X005311Y040986D01*
X005378Y041119D02*
X005311Y041186D01*
X005178Y041186D01*
X005111Y041119D01*
X004917Y041119D02*
X004917Y040986D01*
X004851Y040919D01*
X004650Y040919D01*
X004650Y040786D02*
X004650Y041186D01*
X004851Y041186D01*
X004917Y041119D01*
X004784Y040919D02*
X004917Y040786D01*
X004600Y048332D02*
X004466Y048332D01*
X004400Y048399D01*
X004466Y048533D02*
X004666Y048533D01*
X004666Y048666D02*
X004666Y048399D01*
X004600Y048332D01*
X004466Y048533D02*
X004400Y048599D01*
X004400Y048666D01*
X004466Y048733D01*
X004600Y048733D01*
X004666Y048666D01*
X004206Y048733D02*
X004073Y048666D01*
X003939Y048533D01*
X004139Y048533D01*
X004206Y048466D01*
X004206Y048399D01*
X004139Y048332D01*
X004006Y048332D01*
X003939Y048399D01*
X003939Y048533D01*
X003746Y048533D02*
X003679Y048466D01*
X003479Y048466D01*
X003612Y048466D02*
X003746Y048332D01*
X003746Y048533D02*
X003746Y048666D01*
X003679Y048733D01*
X003479Y048733D01*
X003479Y048332D01*
X005090Y053391D02*
X005023Y053458D01*
X005023Y053725D01*
X005090Y053791D01*
X005223Y053791D01*
X005290Y053725D01*
X005290Y053458D01*
X005223Y053391D01*
X005090Y053391D01*
X005156Y053524D02*
X005290Y053391D01*
X005483Y053391D02*
X005750Y053391D01*
X005617Y053391D02*
X005617Y053791D01*
X005483Y053658D01*
X005944Y053658D02*
X006010Y053591D01*
X006211Y053591D01*
X006211Y053458D02*
X006211Y053725D01*
X006144Y053791D01*
X006010Y053791D01*
X005944Y053725D01*
X005944Y053658D01*
X005944Y053458D02*
X006010Y053391D01*
X006144Y053391D01*
X006211Y053458D01*
X006630Y053702D02*
X006897Y053702D01*
X007090Y053702D02*
X007357Y053702D01*
X007551Y053702D02*
X007751Y053702D01*
X007818Y053769D01*
X007818Y054036D01*
X007751Y054103D01*
X007551Y054103D01*
X007551Y053702D01*
X007224Y053903D02*
X007090Y053903D01*
X007090Y054103D02*
X007090Y053702D01*
X007090Y054103D02*
X007357Y054103D01*
X008011Y053969D02*
X008145Y054103D01*
X008145Y053702D01*
X008278Y053702D02*
X008011Y053702D01*
X008472Y053769D02*
X008538Y053702D01*
X008672Y053702D01*
X008738Y053769D01*
X008738Y053836D01*
X008672Y053903D01*
X008605Y053903D01*
X008672Y053903D02*
X008738Y053969D01*
X008738Y054036D01*
X008672Y054103D01*
X008538Y054103D01*
X008472Y054036D01*
X010030Y054852D02*
X010030Y055253D01*
X010230Y055253D01*
X010297Y055186D01*
X010297Y055053D01*
X010230Y054986D01*
X010030Y054986D01*
X010163Y054986D02*
X010297Y054852D01*
X010490Y054919D02*
X010557Y054852D01*
X010691Y054852D01*
X010757Y054919D01*
X010757Y054986D01*
X010691Y055053D01*
X010490Y055053D01*
X010490Y054919D01*
X010490Y055053D02*
X010624Y055186D01*
X010757Y055253D01*
X010951Y055253D02*
X010951Y055053D01*
X011084Y055119D01*
X011151Y055119D01*
X011218Y055053D01*
X011218Y054919D01*
X011151Y054852D01*
X011018Y054852D01*
X010951Y054919D01*
X010951Y055253D02*
X011218Y055253D01*
X012330Y055053D02*
X012330Y054652D01*
X012597Y054652D01*
X012790Y054652D02*
X012790Y055053D01*
X013057Y055053D01*
X013251Y055053D02*
X013451Y055053D01*
X013518Y054986D01*
X013518Y054719D01*
X013451Y054652D01*
X013251Y054652D01*
X013251Y055053D01*
X012924Y054853D02*
X012790Y054853D01*
X012790Y054652D02*
X013057Y054652D01*
X013711Y054652D02*
X013978Y054652D01*
X013845Y054652D02*
X013845Y055053D01*
X013711Y054919D01*
X014172Y054986D02*
X014238Y055053D01*
X014372Y055053D01*
X014438Y054986D01*
X014438Y054919D01*
X014172Y054652D01*
X014438Y054652D01*
X015530Y054852D02*
X015530Y055253D01*
X015730Y055253D01*
X015797Y055186D01*
X015797Y055053D01*
X015730Y054986D01*
X015530Y054986D01*
X015663Y054986D02*
X015797Y054852D01*
X015990Y054919D02*
X016057Y054852D01*
X016191Y054852D01*
X016257Y054919D01*
X016257Y055053D01*
X016191Y055119D01*
X016124Y055119D01*
X015990Y055053D01*
X015990Y055253D01*
X016257Y055253D01*
X016451Y055186D02*
X016451Y055119D01*
X016518Y055053D01*
X016718Y055053D01*
X016718Y055186D02*
X016651Y055253D01*
X016518Y055253D01*
X016451Y055186D01*
X016718Y055186D02*
X016718Y054919D01*
X016651Y054852D01*
X016518Y054852D01*
X016451Y054919D01*
X016680Y053253D02*
X016680Y052852D01*
X016947Y052852D01*
X017140Y052852D02*
X017407Y052852D01*
X017601Y052852D02*
X017801Y052852D01*
X017868Y052919D01*
X017868Y053186D01*
X017801Y053253D01*
X017601Y053253D01*
X017601Y052852D01*
X017274Y053053D02*
X017140Y053053D01*
X017140Y053253D02*
X017140Y052852D01*
X017140Y053253D02*
X017407Y053253D01*
X018061Y053119D02*
X018195Y053253D01*
X018195Y052852D01*
X018328Y052852D02*
X018061Y052852D01*
X018522Y052852D02*
X018788Y052852D01*
X018655Y052852D02*
X018655Y053253D01*
X018522Y053119D01*
X017080Y052200D02*
X017080Y052066D01*
X017013Y051999D01*
X016880Y051999D02*
X016813Y052133D01*
X016813Y052200D01*
X016880Y052266D01*
X017013Y052266D01*
X017080Y052200D01*
X016880Y051999D02*
X016680Y051999D01*
X016680Y052266D01*
X016680Y051673D02*
X017080Y051673D01*
X017080Y051806D02*
X017080Y051539D01*
X017080Y051346D02*
X016947Y051212D01*
X017080Y051145D02*
X017013Y051079D01*
X016746Y051079D01*
X016680Y051145D01*
X016680Y051279D01*
X016746Y051346D01*
X017013Y051346D01*
X017080Y051279D01*
X017080Y051145D01*
X016813Y051539D02*
X016680Y051673D01*
X018609Y048683D02*
X018809Y048683D01*
X018876Y048616D01*
X018876Y048483D01*
X018809Y048416D01*
X018609Y048416D01*
X018742Y048416D02*
X018876Y048282D01*
X019069Y048349D02*
X019136Y048282D01*
X019269Y048282D01*
X019336Y048349D01*
X019336Y048483D01*
X019269Y048549D01*
X019203Y048549D01*
X019069Y048483D01*
X019069Y048683D01*
X019336Y048683D01*
X019530Y048549D02*
X019663Y048683D01*
X019663Y048282D01*
X019530Y048282D02*
X019796Y048282D01*
X018609Y048282D02*
X018609Y048683D01*
X021680Y051606D02*
X021680Y051739D01*
X021746Y051806D01*
X022013Y051806D01*
X022080Y051739D01*
X022080Y051606D01*
X022013Y051539D01*
X021746Y051539D01*
X021680Y051606D01*
X021947Y051673D02*
X022080Y051806D01*
X022080Y051999D02*
X022080Y052266D01*
X022080Y052133D02*
X021680Y052133D01*
X021813Y051999D01*
X021730Y052952D02*
X021997Y052952D01*
X022190Y052952D02*
X022457Y052952D01*
X022651Y052952D02*
X022851Y052952D01*
X022918Y053019D01*
X022918Y053286D01*
X022851Y053353D01*
X022651Y053353D01*
X022651Y052952D01*
X022324Y053153D02*
X022190Y053153D01*
X022190Y053353D02*
X022190Y052952D01*
X022190Y053353D02*
X022457Y053353D01*
X021730Y053353D02*
X021730Y052952D01*
X023111Y052952D02*
X023378Y052952D01*
X023245Y052952D02*
X023245Y053353D01*
X023111Y053219D01*
X023572Y053286D02*
X023638Y053353D01*
X023772Y053353D01*
X023838Y053286D01*
X023572Y053019D01*
X023638Y052952D01*
X023772Y052952D01*
X023838Y053019D01*
X023838Y053286D01*
X023572Y053286D02*
X023572Y053019D01*
X024011Y054754D02*
X024011Y055155D01*
X024211Y055155D01*
X024278Y055088D01*
X024278Y054955D01*
X024211Y054888D01*
X024011Y054888D01*
X024145Y054888D02*
X024278Y054754D01*
X024471Y054821D02*
X024538Y054754D01*
X024672Y054754D01*
X024738Y054821D01*
X024738Y054888D01*
X024672Y054955D01*
X024471Y054955D01*
X024471Y054821D01*
X024471Y054955D02*
X024605Y055088D01*
X024738Y055155D01*
X024142Y055912D02*
X024142Y056179D01*
X024009Y056045D02*
X024276Y056045D01*
X024276Y056372D02*
X024343Y056439D01*
X024343Y056572D01*
X024276Y056639D01*
X024142Y056639D01*
X024076Y056572D01*
X024076Y056506D01*
X024142Y056372D01*
X023942Y056372D01*
X023942Y056639D01*
X021218Y055186D02*
X021218Y055119D01*
X021151Y055053D01*
X021218Y054986D01*
X021218Y054919D01*
X021151Y054852D01*
X021018Y054852D01*
X020951Y054919D01*
X021084Y055053D02*
X021151Y055053D01*
X021218Y055186D02*
X021151Y055253D01*
X021018Y055253D01*
X020951Y055186D01*
X020757Y055253D02*
X020490Y055253D01*
X020490Y055053D01*
X020624Y055119D01*
X020691Y055119D01*
X020757Y055053D01*
X020757Y054919D01*
X020691Y054852D01*
X020557Y054852D01*
X020490Y054919D01*
X020297Y054852D02*
X020163Y054986D01*
X020230Y054986D02*
X020030Y054986D01*
X020030Y054852D02*
X020030Y055253D01*
X020230Y055253D01*
X020297Y055186D01*
X020297Y055053D01*
X020230Y054986D01*
X019276Y056045D02*
X019009Y056045D01*
X019142Y055912D02*
X019142Y056179D01*
X019142Y056372D02*
X019142Y056639D01*
X018942Y056572D02*
X019142Y056372D01*
X018942Y056572D02*
X019343Y056572D01*
X014343Y056572D02*
X014343Y056439D01*
X014276Y056372D01*
X014142Y056506D02*
X014142Y056572D01*
X014209Y056639D01*
X014276Y056639D01*
X014343Y056572D01*
X014142Y056572D02*
X014076Y056639D01*
X014009Y056639D01*
X013942Y056572D01*
X013942Y056439D01*
X014009Y056372D01*
X014142Y056179D02*
X014142Y055912D01*
X014009Y056045D02*
X014276Y056045D01*
X009343Y056372D02*
X009076Y056639D01*
X009009Y056639D01*
X008942Y056572D01*
X008942Y056439D01*
X009009Y056372D01*
X009142Y056179D02*
X009142Y055912D01*
X009009Y056045D02*
X009276Y056045D01*
X009343Y056372D02*
X009343Y056639D01*
X006630Y054103D02*
X006630Y053702D01*
X004618Y054102D02*
X004351Y054102D01*
X004484Y054102D02*
X004484Y054503D01*
X004351Y054369D01*
X004157Y054436D02*
X003890Y054169D01*
X003890Y054102D01*
X003697Y054102D02*
X003563Y054236D01*
X003630Y054236D02*
X003430Y054236D01*
X003430Y054102D02*
X003430Y054503D01*
X003630Y054503D01*
X003697Y054436D01*
X003697Y054303D01*
X003630Y054236D01*
X003890Y054503D02*
X004157Y054503D01*
X004157Y054436D01*
X004142Y055912D02*
X004142Y056179D01*
X004009Y056045D02*
X004276Y056045D01*
X004343Y056372D02*
X004343Y056639D01*
X004343Y056506D02*
X003942Y056506D01*
X004076Y056372D01*
X008480Y050866D02*
X008546Y050866D01*
X008813Y050599D01*
X008880Y050599D01*
X008880Y050406D02*
X008880Y050139D01*
X008880Y050273D02*
X008480Y050273D01*
X008613Y050139D01*
X008546Y049946D02*
X008813Y049946D01*
X008880Y049879D01*
X008880Y049745D01*
X008813Y049679D01*
X008546Y049679D01*
X008480Y049745D01*
X008480Y049879D01*
X008546Y049946D01*
X008747Y049812D02*
X008880Y049946D01*
X008480Y050599D02*
X008480Y050866D01*
X008499Y048803D02*
X008699Y048803D01*
X008766Y048736D01*
X008766Y048603D01*
X008699Y048536D01*
X008499Y048536D01*
X008632Y048536D02*
X008766Y048402D01*
X008959Y048469D02*
X009026Y048402D01*
X009159Y048402D01*
X009226Y048469D01*
X009226Y048536D01*
X009159Y048603D01*
X008959Y048603D01*
X008959Y048469D01*
X008959Y048603D02*
X009093Y048736D01*
X009226Y048803D01*
X009420Y048736D02*
X009486Y048803D01*
X009620Y048803D01*
X009686Y048736D01*
X009686Y048669D01*
X009620Y048603D01*
X009686Y048536D01*
X009686Y048469D01*
X009620Y048402D01*
X009486Y048402D01*
X009420Y048469D01*
X009553Y048603D02*
X009620Y048603D01*
X008499Y048402D02*
X008499Y048803D01*
X013509Y048703D02*
X013509Y048302D01*
X013509Y048436D02*
X013709Y048436D01*
X013776Y048503D01*
X013776Y048636D01*
X013709Y048703D01*
X013509Y048703D01*
X013642Y048436D02*
X013776Y048302D01*
X013969Y048369D02*
X014036Y048302D01*
X014169Y048302D01*
X014236Y048369D01*
X014236Y048503D01*
X014169Y048569D01*
X014103Y048569D01*
X013969Y048503D01*
X013969Y048703D01*
X014236Y048703D01*
X014430Y048703D02*
X014696Y048703D01*
X014696Y048636D01*
X014430Y048369D01*
X014430Y048302D01*
X023699Y048302D02*
X023699Y048703D01*
X023899Y048703D01*
X023966Y048636D01*
X023966Y048503D01*
X023899Y048436D01*
X023699Y048436D01*
X023832Y048436D02*
X023966Y048302D01*
X024159Y048302D02*
X024426Y048302D01*
X024293Y048302D02*
X024293Y048703D01*
X024159Y048569D01*
X024620Y048503D02*
X024620Y048703D01*
X024886Y048703D01*
X024820Y048569D02*
X024886Y048503D01*
X024886Y048369D01*
X024820Y048302D01*
X024686Y048302D01*
X024620Y048369D01*
X024620Y048503D02*
X024753Y048569D01*
X024820Y048569D01*
X026746Y051539D02*
X026680Y051606D01*
X026680Y051739D01*
X026746Y051806D01*
X027013Y051806D01*
X027080Y051739D01*
X027080Y051606D01*
X027013Y051539D01*
X026746Y051539D01*
X026947Y051673D02*
X027080Y051806D01*
X027080Y051999D02*
X026813Y052266D01*
X026746Y052266D01*
X026680Y052200D01*
X026680Y052066D01*
X026746Y051999D01*
X027080Y051999D02*
X027080Y052266D01*
X027130Y054202D02*
X027397Y054202D01*
X027590Y054202D02*
X027857Y054202D01*
X028051Y054202D02*
X028251Y054202D01*
X028318Y054269D01*
X028318Y054536D01*
X028251Y054603D01*
X028051Y054603D01*
X028051Y054202D01*
X027724Y054403D02*
X027590Y054403D01*
X027590Y054603D02*
X027590Y054202D01*
X027590Y054603D02*
X027857Y054603D01*
X028511Y054403D02*
X028778Y054403D01*
X028711Y054603D02*
X028511Y054403D01*
X028711Y054603D02*
X028711Y054202D01*
X027130Y054202D02*
X027130Y054603D01*
X027178Y041186D02*
X027111Y041119D01*
X027178Y041186D02*
X027311Y041186D01*
X027378Y041119D01*
X027378Y041053D01*
X027111Y040786D01*
X027378Y040786D01*
X027571Y040786D02*
X027838Y041053D01*
X027838Y041119D01*
X027771Y041186D01*
X027638Y041186D01*
X027571Y041119D01*
X027571Y040786D02*
X027838Y040786D01*
X026917Y040786D02*
X026784Y040919D01*
X026851Y040919D02*
X026650Y040919D01*
X026650Y040786D02*
X026650Y041186D01*
X026851Y041186D01*
X026917Y041119D01*
X026917Y040986D01*
X026851Y040919D01*
X028156Y018812D02*
X028090Y018745D01*
X028090Y018611D01*
X028156Y018545D01*
X028156Y018812D02*
X028223Y018812D01*
X028490Y018545D01*
X028490Y018812D01*
X028490Y018351D02*
X028490Y018084D01*
X028490Y018218D02*
X028090Y018218D01*
X028223Y018084D01*
X028290Y017891D02*
X028290Y017624D01*
X028290Y017430D02*
X028290Y017230D01*
X028223Y017164D01*
X028156Y017164D01*
X028090Y017230D01*
X028090Y017364D01*
X028156Y017430D01*
X028423Y017430D01*
X028490Y017364D01*
X028490Y017230D01*
X028423Y017164D01*
X028423Y016970D02*
X028156Y016970D01*
X028090Y016903D01*
X028090Y016703D01*
X028490Y016703D01*
X028490Y016903D01*
X028423Y016970D01*
X028090Y016510D02*
X028090Y016243D01*
X028090Y016376D02*
X028490Y016376D01*
X028490Y016049D02*
X028357Y015916D01*
X028357Y015983D02*
X028357Y015782D01*
X028490Y015782D02*
X028090Y015782D01*
X028090Y015983D01*
X028156Y016049D01*
X028290Y016049D01*
X028357Y015983D01*
X028417Y011260D02*
X028417Y011193D01*
X028150Y010927D01*
X028150Y010860D01*
X027956Y010927D02*
X027956Y011260D01*
X028150Y011260D02*
X028417Y011260D01*
X027956Y010927D02*
X027890Y010860D01*
X027756Y010860D01*
X027689Y010927D01*
X027689Y011260D01*
X030265Y009476D02*
X030399Y009476D01*
X030332Y009476D02*
X030332Y009143D01*
X030265Y009076D01*
X030199Y009076D01*
X030132Y009143D01*
X030592Y009076D02*
X030859Y009076D01*
X030726Y009076D02*
X030726Y009476D01*
X030592Y009343D01*
X023805Y008489D02*
X023404Y008222D01*
X023404Y008029D02*
X023404Y007762D01*
X023404Y007895D02*
X023805Y007895D01*
X023805Y008222D02*
X023404Y008489D01*
X023527Y007378D02*
X023460Y007311D01*
X023460Y007178D01*
X023527Y007111D01*
X023527Y006917D02*
X023660Y006917D01*
X023727Y006851D01*
X023727Y006650D01*
X023860Y006650D02*
X023460Y006650D01*
X023460Y006851D01*
X023527Y006917D01*
X023727Y006784D02*
X023860Y006917D01*
X023860Y007111D02*
X023593Y007378D01*
X023527Y007378D01*
X023860Y007378D02*
X023860Y007111D01*
X021639Y006984D02*
X021505Y006850D01*
X021505Y006917D02*
X021505Y006717D01*
X021639Y006717D02*
X021238Y006717D01*
X021238Y006917D01*
X021305Y006984D01*
X021438Y006984D01*
X021505Y006917D01*
X021438Y007177D02*
X021372Y007311D01*
X021372Y007378D01*
X021438Y007444D01*
X021572Y007444D01*
X021639Y007378D01*
X021639Y007244D01*
X021572Y007177D01*
X021438Y007177D02*
X021238Y007177D01*
X021238Y007444D01*
X021202Y007814D02*
X021202Y008014D01*
X021269Y008081D01*
X021403Y008081D01*
X021469Y008014D01*
X021469Y007814D01*
X021469Y007948D02*
X021603Y008081D01*
X021603Y008275D02*
X021202Y008542D01*
X021202Y008275D02*
X021603Y008542D01*
X021603Y007814D02*
X021202Y007814D01*
X021391Y005453D02*
X021190Y005253D01*
X021457Y005253D01*
X021651Y005319D02*
X021784Y005453D01*
X021784Y005052D01*
X021651Y005052D02*
X021918Y005052D01*
X021391Y005052D02*
X021391Y005453D01*
X020997Y005386D02*
X020997Y005253D01*
X020930Y005186D01*
X020730Y005186D01*
X020863Y005186D02*
X020997Y005052D01*
X020730Y005052D02*
X020730Y005453D01*
X020930Y005453D01*
X020997Y005386D01*
X022269Y010645D02*
X022269Y011046D01*
X022470Y011046D01*
X022536Y010979D01*
X022536Y010846D01*
X022470Y010779D01*
X022269Y010779D01*
X022403Y010779D02*
X022536Y010645D01*
X022730Y010712D02*
X022796Y010645D01*
X022930Y010645D01*
X022997Y010712D01*
X022997Y010779D01*
X022930Y010846D01*
X022863Y010846D01*
X022930Y010846D02*
X022997Y010912D01*
X022997Y010979D01*
X022930Y011046D01*
X022796Y011046D01*
X022730Y010979D01*
X023190Y010846D02*
X023390Y010846D01*
X023457Y010779D01*
X023457Y010712D01*
X023390Y010645D01*
X023257Y010645D01*
X023190Y010712D01*
X023190Y010846D01*
X023324Y010979D01*
X023457Y011046D01*
D11*
X022940Y006975D03*
X022940Y006395D03*
X022115Y006405D03*
X022115Y006985D03*
X016479Y008010D03*
X016479Y008590D03*
X013179Y013810D03*
X013179Y014390D03*
X020339Y016900D03*
X020339Y017480D03*
X021359Y017480D03*
X021359Y016900D03*
D12*
X013574Y013253D02*
X013327Y013253D01*
X013450Y013376D02*
X013450Y013129D01*
X009203Y016391D02*
X008956Y016391D01*
X009080Y016514D02*
X009080Y016267D01*
X004132Y009533D02*
X004132Y009286D01*
X004255Y009410D02*
X004008Y009410D01*
D13*
X012944Y012393D03*
X013416Y012393D03*
D14*
X013180Y012393D03*
X008221Y016752D03*
X003273Y009771D03*
D15*
X004159Y011454D02*
X004159Y012242D01*
X004700Y011848D01*
X004159Y011454D01*
X004700Y011454D02*
X004700Y012242D01*
X004807Y014820D02*
X004809Y014835D01*
X004815Y014848D01*
X004824Y014860D01*
X004835Y014869D01*
X004849Y014875D01*
X004864Y014877D01*
X004879Y014875D01*
X004892Y014869D01*
X004904Y014860D01*
X004913Y014849D01*
X004919Y014835D01*
X004921Y014820D01*
X004919Y014805D01*
X004913Y014792D01*
X004904Y014780D01*
X004893Y014771D01*
X004879Y014765D01*
X004864Y014763D01*
X004849Y014765D01*
X004836Y014771D01*
X004824Y014780D01*
X004815Y014791D01*
X004809Y014805D01*
X004807Y014820D01*
X003443Y017984D02*
X003053Y017984D01*
X002663Y017984D01*
X002553Y018094D01*
X003053Y018084D02*
X003053Y017984D01*
X003443Y017984D02*
X003553Y018094D01*
X003053Y018884D02*
X003053Y019084D01*
X003053Y019884D02*
X003053Y020084D01*
X003053Y020884D02*
X003053Y021084D01*
X003053Y021884D02*
X003053Y022084D01*
X003053Y022884D02*
X003053Y022984D01*
X002663Y022984D01*
X002553Y022874D01*
X003053Y022984D02*
X003443Y022984D01*
X003553Y022874D01*
X004930Y029311D02*
X004931Y031749D01*
X004930Y029311D02*
X007511Y029311D01*
X007511Y031749D01*
X009890Y031923D02*
X009890Y029484D01*
X012470Y029484D01*
X012470Y031923D01*
X015090Y031823D02*
X015090Y029384D01*
X017670Y029384D01*
X017670Y031823D01*
X019890Y031923D02*
X019890Y029484D01*
X022470Y029484D01*
X022470Y031923D01*
X024890Y031923D02*
X024890Y029484D01*
X027470Y029484D01*
X027470Y031923D01*
X017993Y020579D02*
X014528Y020579D01*
X014371Y020422D01*
X014371Y016957D01*
X014528Y016800D01*
X017993Y016800D01*
X018150Y016957D01*
X018150Y020422D01*
X017993Y020579D01*
X012442Y016032D02*
X012442Y014772D01*
X011418Y014772D02*
X011418Y016032D01*
X009984Y017633D02*
X009646Y017633D01*
X010134Y018087D02*
X010134Y018298D01*
X009984Y018753D02*
X009646Y018753D01*
X011362Y010273D02*
X012149Y010273D01*
X011756Y009732D01*
X011362Y010273D01*
X011362Y009732D02*
X012149Y009732D01*
X017646Y007264D02*
X019614Y007264D01*
X019614Y006280D02*
X017646Y006280D01*
X017646Y006075D02*
X019614Y006075D01*
X019329Y005327D02*
X019331Y005345D01*
X019337Y005363D01*
X019346Y005379D01*
X019358Y005392D01*
X019373Y005403D01*
X019390Y005411D01*
X019408Y005415D01*
X019426Y005415D01*
X019444Y005411D01*
X019461Y005403D01*
X019476Y005392D01*
X019488Y005379D01*
X019497Y005363D01*
X019503Y005345D01*
X019505Y005327D01*
X019503Y005309D01*
X019497Y005291D01*
X019488Y005275D01*
X019476Y005262D01*
X019461Y005251D01*
X019444Y005243D01*
X019426Y005239D01*
X019408Y005239D01*
X019390Y005243D01*
X019373Y005251D01*
X019358Y005262D01*
X019346Y005275D01*
X019337Y005291D01*
X019331Y005309D01*
X019329Y005327D01*
X019614Y005091D02*
X017646Y005091D01*
X017755Y007028D02*
X017757Y007046D01*
X017763Y007064D01*
X017772Y007080D01*
X017784Y007093D01*
X017799Y007104D01*
X017816Y007112D01*
X017834Y007116D01*
X017852Y007116D01*
X017870Y007112D01*
X017887Y007104D01*
X017902Y007093D01*
X017914Y007080D01*
X017923Y007064D01*
X017929Y007046D01*
X017931Y007028D01*
X017929Y007010D01*
X017923Y006992D01*
X017914Y006976D01*
X017902Y006963D01*
X017887Y006952D01*
X017870Y006944D01*
X017852Y006940D01*
X017834Y006940D01*
X017816Y006944D01*
X017799Y006952D01*
X017784Y006963D01*
X017772Y006976D01*
X017763Y006992D01*
X017757Y007010D01*
X017755Y007028D01*
X025526Y010780D02*
X025528Y010795D01*
X025534Y010808D01*
X025543Y010820D01*
X025554Y010829D01*
X025568Y010835D01*
X025583Y010837D01*
X025598Y010835D01*
X025611Y010829D01*
X025623Y010820D01*
X025632Y010809D01*
X025638Y010795D01*
X025640Y010780D01*
X025638Y010765D01*
X025632Y010752D01*
X025623Y010740D01*
X025612Y010731D01*
X025598Y010725D01*
X025583Y010723D01*
X025568Y010725D01*
X025555Y010731D01*
X025543Y010740D01*
X025534Y010751D01*
X025528Y010765D01*
X025526Y010780D01*
X026470Y049982D02*
X026470Y052420D01*
X023890Y052420D01*
X023890Y049982D01*
X021470Y049982D02*
X021470Y052420D01*
X018890Y052420D01*
X018890Y049982D01*
X016470Y049982D02*
X016470Y052420D01*
X013890Y052420D01*
X013890Y049982D01*
X011470Y049982D02*
X011470Y052420D01*
X008890Y052420D01*
X008890Y049982D01*
X006470Y049982D02*
X006470Y052420D01*
X003890Y052420D01*
X003890Y049982D01*
D16*
X005392Y048552D03*
X005972Y048552D03*
X010442Y048652D03*
X011022Y048652D03*
X015442Y048552D03*
X016022Y048552D03*
X020442Y048552D03*
X021022Y048552D03*
X025592Y048552D03*
X026172Y048552D03*
X025749Y054205D03*
X025169Y054205D03*
X020868Y054403D03*
X020288Y054403D03*
X016368Y054303D03*
X015788Y054303D03*
X010768Y054303D03*
X010188Y054303D03*
X005668Y054353D03*
X005088Y054353D03*
X005588Y033353D03*
X006168Y033353D03*
X011188Y033353D03*
X011768Y033353D03*
X015588Y033353D03*
X016168Y033353D03*
X020588Y033353D03*
X021168Y033353D03*
X025588Y033353D03*
X026168Y033353D03*
X025973Y027708D03*
X026553Y027708D03*
X021603Y027808D03*
X021023Y027808D03*
X016603Y027658D03*
X016023Y027658D03*
X011553Y027808D03*
X010973Y027808D03*
X006672Y027602D03*
X006092Y027602D03*
X009838Y016753D03*
X010418Y016753D03*
X005420Y009772D03*
X004840Y009772D03*
D17*
X003273Y009535D03*
X003273Y010007D03*
X008221Y016516D03*
X008221Y016989D03*
D18*
X006469Y016177D02*
X010406Y016177D01*
X010445Y016175D01*
X010483Y016169D01*
X010520Y016160D01*
X010557Y016147D01*
X010592Y016130D01*
X010625Y016111D01*
X010656Y016088D01*
X010685Y016062D01*
X010711Y016033D01*
X010734Y016002D01*
X010753Y015969D01*
X010770Y015934D01*
X010783Y015897D01*
X010792Y015860D01*
X010798Y015822D01*
X010800Y015783D01*
X010799Y015783D02*
X010799Y014996D01*
X011543Y014363D02*
X011306Y014127D01*
X011306Y011765D01*
X012566Y011765D01*
X012566Y014127D01*
X012330Y014363D01*
X011543Y014363D01*
X010799Y012634D02*
X010799Y011846D01*
X010800Y011846D02*
X010798Y011807D01*
X010792Y011769D01*
X010783Y011732D01*
X010770Y011695D01*
X010753Y011660D01*
X010734Y011627D01*
X010711Y011596D01*
X010685Y011567D01*
X010656Y011541D01*
X010625Y011518D01*
X010592Y011499D01*
X010557Y011482D01*
X010520Y011469D01*
X010483Y011460D01*
X010445Y011454D01*
X010406Y011452D01*
X010406Y011453D02*
X006632Y011453D01*
X006586Y011455D01*
X006540Y011461D01*
X006495Y011470D01*
X006451Y011483D01*
X006408Y011500D01*
X006367Y011520D01*
X006327Y011544D01*
X006290Y011570D01*
X006255Y011600D01*
X006222Y011633D01*
X006192Y011668D01*
X006166Y011705D01*
X006142Y011745D01*
X006122Y011786D01*
X006105Y011829D01*
X006092Y011873D01*
X006083Y011918D01*
X006077Y011964D01*
X006075Y012010D01*
X006075Y012634D01*
X007145Y012535D02*
X007147Y012575D01*
X007153Y012614D01*
X007162Y012653D01*
X007176Y012690D01*
X007193Y012726D01*
X007213Y012761D01*
X007237Y012793D01*
X007264Y012822D01*
X007293Y012849D01*
X007325Y012873D01*
X007360Y012893D01*
X007396Y012910D01*
X007433Y012924D01*
X007472Y012933D01*
X007511Y012939D01*
X007551Y012941D01*
X007591Y012939D01*
X007630Y012933D01*
X007669Y012924D01*
X007706Y012910D01*
X007742Y012893D01*
X007777Y012873D01*
X007809Y012849D01*
X007838Y012822D01*
X007865Y012793D01*
X007889Y012761D01*
X007909Y012726D01*
X007926Y012690D01*
X007940Y012653D01*
X007949Y012614D01*
X007955Y012575D01*
X007957Y012535D01*
X007955Y012495D01*
X007949Y012456D01*
X007940Y012417D01*
X007926Y012380D01*
X007909Y012344D01*
X007889Y012309D01*
X007865Y012277D01*
X007838Y012248D01*
X007809Y012221D01*
X007777Y012197D01*
X007742Y012177D01*
X007706Y012160D01*
X007669Y012146D01*
X007630Y012137D01*
X007591Y012131D01*
X007551Y012129D01*
X007511Y012131D01*
X007472Y012137D01*
X007433Y012146D01*
X007396Y012160D01*
X007360Y012177D01*
X007325Y012197D01*
X007293Y012221D01*
X007264Y012248D01*
X007237Y012277D01*
X007213Y012309D01*
X007193Y012344D01*
X007176Y012380D01*
X007162Y012417D01*
X007153Y012456D01*
X007147Y012495D01*
X007145Y012535D01*
X006075Y014996D02*
X006075Y015783D01*
X006077Y015822D01*
X006083Y015860D01*
X006092Y015897D01*
X006105Y015934D01*
X006122Y015969D01*
X006141Y016002D01*
X006164Y016033D01*
X006190Y016062D01*
X006219Y016088D01*
X006250Y016111D01*
X006283Y016130D01*
X006318Y016147D01*
X006355Y016160D01*
X006392Y016169D01*
X006430Y016175D01*
X006469Y016177D01*
X005022Y017538D02*
X004022Y018538D01*
X005022Y019538D01*
X005022Y017538D01*
X004992Y017608D02*
X004942Y017668D01*
X004992Y017708D02*
X004992Y017608D01*
X004992Y019398D02*
X004942Y019408D01*
X004962Y019438D01*
X005002Y019468D02*
X004992Y019398D01*
X005630Y025112D02*
X004030Y025112D01*
X004030Y027152D01*
X004630Y027152D01*
X004980Y027152D01*
X005630Y027152D01*
X005630Y025112D01*
X004980Y027152D02*
X004978Y027127D01*
X004973Y027103D01*
X004964Y027079D01*
X004952Y027057D01*
X004937Y027037D01*
X004920Y027020D01*
X004900Y027005D01*
X004878Y026993D01*
X004854Y026984D01*
X004830Y026979D01*
X004805Y026977D01*
X004780Y026979D01*
X004756Y026984D01*
X004732Y026993D01*
X004710Y027005D01*
X004690Y027020D01*
X004673Y027037D01*
X004658Y027057D01*
X004646Y027079D01*
X004637Y027103D01*
X004632Y027127D01*
X004630Y027152D01*
X008880Y027152D02*
X008880Y025112D01*
X010480Y025112D01*
X010480Y027152D01*
X009830Y027152D01*
X009480Y027152D01*
X008880Y027152D01*
X009480Y027152D02*
X009482Y027127D01*
X009487Y027103D01*
X009496Y027079D01*
X009508Y027057D01*
X009523Y027037D01*
X009540Y027020D01*
X009560Y027005D01*
X009582Y026993D01*
X009606Y026984D01*
X009630Y026979D01*
X009655Y026977D01*
X009680Y026979D01*
X009704Y026984D01*
X009728Y026993D01*
X009750Y027005D01*
X009770Y027020D01*
X009787Y027037D01*
X009802Y027057D01*
X009814Y027079D01*
X009823Y027103D01*
X009828Y027127D01*
X009830Y027152D01*
X013980Y027152D02*
X013980Y025112D01*
X015580Y025112D01*
X015580Y027152D01*
X014930Y027152D01*
X014580Y027152D01*
X013980Y027152D01*
X014580Y027152D02*
X014582Y027127D01*
X014587Y027103D01*
X014596Y027079D01*
X014608Y027057D01*
X014623Y027037D01*
X014640Y027020D01*
X014660Y027005D01*
X014682Y026993D01*
X014706Y026984D01*
X014730Y026979D01*
X014755Y026977D01*
X014780Y026979D01*
X014804Y026984D01*
X014828Y026993D01*
X014850Y027005D01*
X014870Y027020D01*
X014887Y027037D01*
X014902Y027057D01*
X014914Y027079D01*
X014923Y027103D01*
X014928Y027127D01*
X014930Y027152D01*
X018880Y027152D02*
X018880Y025112D01*
X020480Y025112D01*
X020480Y027152D01*
X019830Y027152D01*
X019480Y027152D01*
X018880Y027152D01*
X019480Y027152D02*
X019482Y027127D01*
X019487Y027103D01*
X019496Y027079D01*
X019508Y027057D01*
X019523Y027037D01*
X019540Y027020D01*
X019560Y027005D01*
X019582Y026993D01*
X019606Y026984D01*
X019630Y026979D01*
X019655Y026977D01*
X019680Y026979D01*
X019704Y026984D01*
X019728Y026993D01*
X019750Y027005D01*
X019770Y027020D01*
X019787Y027037D01*
X019802Y027057D01*
X019814Y027079D01*
X019823Y027103D01*
X019828Y027127D01*
X019830Y027152D01*
X024130Y027152D02*
X024130Y025112D01*
X025730Y025112D01*
X025730Y027152D01*
X025080Y027152D01*
X024730Y027152D01*
X024130Y027152D01*
X024730Y027152D02*
X024732Y027127D01*
X024737Y027103D01*
X024746Y027079D01*
X024758Y027057D01*
X024773Y027037D01*
X024790Y027020D01*
X024810Y027005D01*
X024832Y026993D01*
X024856Y026984D01*
X024880Y026979D01*
X024905Y026977D01*
X024930Y026979D01*
X024954Y026984D01*
X024978Y026993D01*
X025000Y027005D01*
X025020Y027020D01*
X025037Y027037D01*
X025052Y027057D01*
X025064Y027079D01*
X025073Y027103D01*
X025078Y027127D01*
X025080Y027152D01*
X024211Y033964D02*
X024211Y040500D01*
X028149Y040500D01*
X028149Y033964D01*
X024211Y033964D01*
X023149Y033964D02*
X019211Y033964D01*
X019211Y040500D01*
X023149Y040500D01*
X023149Y033964D01*
X018249Y033964D02*
X014311Y033964D01*
X014311Y040500D01*
X018249Y040500D01*
X018249Y033964D01*
X013149Y033964D02*
X009211Y033964D01*
X009211Y040500D01*
X013149Y040500D01*
X013149Y033964D01*
X008149Y033964D02*
X004211Y033964D01*
X004211Y040500D01*
X008149Y040500D01*
X008149Y033964D01*
X008149Y041405D02*
X004211Y041405D01*
X004211Y047941D01*
X008149Y047941D01*
X008149Y041405D01*
X009211Y041405D02*
X009211Y047941D01*
X013149Y047941D01*
X013149Y041405D01*
X009211Y041405D01*
X014211Y041405D02*
X014211Y047941D01*
X018149Y047941D01*
X018149Y041405D01*
X014211Y041405D01*
X019211Y041405D02*
X019211Y047941D01*
X023149Y047941D01*
X023149Y041405D01*
X019211Y041405D01*
X024211Y041405D02*
X024211Y047941D01*
X028149Y047941D01*
X028149Y041405D01*
X024211Y041405D01*
X023330Y055352D02*
X022730Y055352D01*
X022380Y055352D01*
X021730Y055352D01*
X021730Y057392D01*
X023330Y057392D01*
X023330Y055352D01*
X022730Y055352D02*
X022728Y055377D01*
X022723Y055401D01*
X022714Y055425D01*
X022702Y055447D01*
X022687Y055467D01*
X022670Y055484D01*
X022650Y055499D01*
X022628Y055511D01*
X022604Y055520D01*
X022580Y055525D01*
X022555Y055527D01*
X022530Y055525D01*
X022506Y055520D01*
X022482Y055511D01*
X022460Y055499D01*
X022440Y055484D01*
X022423Y055467D01*
X022408Y055447D01*
X022396Y055425D01*
X022387Y055401D01*
X022382Y055377D01*
X022380Y055352D01*
X018230Y055352D02*
X018230Y057392D01*
X016630Y057392D01*
X016630Y055352D01*
X017280Y055352D01*
X017630Y055352D01*
X018230Y055352D01*
X017630Y055352D02*
X017628Y055377D01*
X017623Y055401D01*
X017614Y055425D01*
X017602Y055447D01*
X017587Y055467D01*
X017570Y055484D01*
X017550Y055499D01*
X017528Y055511D01*
X017504Y055520D01*
X017480Y055525D01*
X017455Y055527D01*
X017430Y055525D01*
X017406Y055520D01*
X017382Y055511D01*
X017360Y055499D01*
X017340Y055484D01*
X017323Y055467D01*
X017308Y055447D01*
X017296Y055425D01*
X017287Y055401D01*
X017282Y055377D01*
X017280Y055352D01*
X013230Y055352D02*
X013230Y057392D01*
X011630Y057392D01*
X011630Y055352D01*
X012280Y055352D01*
X012630Y055352D01*
X013230Y055352D01*
X012630Y055352D02*
X012628Y055377D01*
X012623Y055401D01*
X012614Y055425D01*
X012602Y055447D01*
X012587Y055467D01*
X012570Y055484D01*
X012550Y055499D01*
X012528Y055511D01*
X012504Y055520D01*
X012480Y055525D01*
X012455Y055527D01*
X012430Y055525D01*
X012406Y055520D01*
X012382Y055511D01*
X012360Y055499D01*
X012340Y055484D01*
X012323Y055467D01*
X012308Y055447D01*
X012296Y055425D01*
X012287Y055401D01*
X012282Y055377D01*
X012280Y055352D01*
X008230Y055352D02*
X008230Y057392D01*
X006630Y057392D01*
X006630Y055352D01*
X007280Y055352D01*
X007630Y055352D01*
X008230Y055352D01*
X007630Y055352D02*
X007628Y055377D01*
X007623Y055401D01*
X007614Y055425D01*
X007602Y055447D01*
X007587Y055467D01*
X007570Y055484D01*
X007550Y055499D01*
X007528Y055511D01*
X007504Y055520D01*
X007480Y055525D01*
X007455Y055527D01*
X007430Y055525D01*
X007406Y055520D01*
X007382Y055511D01*
X007360Y055499D01*
X007340Y055484D01*
X007323Y055467D01*
X007308Y055447D01*
X007296Y055425D01*
X007287Y055401D01*
X007282Y055377D01*
X007280Y055352D01*
X026830Y055352D02*
X027480Y055352D01*
X027830Y055352D01*
X028430Y055352D01*
X028430Y057392D01*
X026830Y057392D01*
X026830Y055352D01*
X027480Y055352D02*
X027482Y055377D01*
X027487Y055401D01*
X027496Y055425D01*
X027508Y055447D01*
X027523Y055467D01*
X027540Y055484D01*
X027560Y055499D01*
X027582Y055511D01*
X027606Y055520D01*
X027630Y055525D01*
X027655Y055527D01*
X027680Y055525D01*
X027704Y055520D01*
X027728Y055511D01*
X027750Y055499D01*
X027770Y055484D01*
X027787Y055467D01*
X027802Y055447D01*
X027814Y055425D01*
X027823Y055401D01*
X027828Y055377D01*
X027830Y055352D01*
X030730Y008859D02*
X024430Y008859D01*
X024430Y004430D01*
X030730Y004430D01*
X030730Y008859D01*
X013353Y008199D02*
X012762Y008199D01*
X012762Y006624D02*
X013353Y006624D01*
X010632Y006459D02*
X010632Y005278D01*
X008428Y005278D01*
X008428Y006459D01*
X010632Y006459D01*
X010632Y007246D02*
X010632Y008427D01*
X008428Y008427D01*
X008428Y007246D01*
X010632Y007246D01*
X009806Y006931D02*
X009254Y006931D01*
X009530Y007167D02*
X009530Y006695D01*
X009254Y005002D02*
X009884Y005002D01*
D19*
X022124Y008254D03*
X022953Y008254D03*
X024341Y033352D03*
X019241Y033352D03*
X014341Y033352D03*
X009441Y033352D03*
X004041Y033352D03*
X012919Y054102D03*
X017869Y054002D03*
X022619Y053802D03*
X027919Y053752D03*
X007919Y054552D03*
D20*
X010180Y052610D03*
X005180Y052610D03*
X015180Y052610D03*
X020180Y052610D03*
X025180Y052610D03*
X026180Y029294D03*
X021180Y029294D03*
X016380Y029194D03*
X011180Y029294D03*
X006221Y029121D03*
D21*
X005898Y016839D02*
X005662Y016839D01*
X005662Y016366D02*
X005898Y016366D01*
X004966Y016634D02*
X004966Y016870D01*
X004494Y016870D02*
X004494Y016634D01*
X005084Y015140D02*
X005084Y013720D01*
X003224Y013720D02*
X003224Y015140D01*
X012865Y016405D02*
X012865Y016641D01*
X013337Y016641D02*
X013337Y016405D01*
X021880Y019632D02*
X021880Y020872D01*
X021882Y020895D01*
X021887Y020918D01*
X021896Y020940D01*
X021909Y020960D01*
X021924Y020978D01*
X021942Y020993D01*
X021962Y021006D01*
X021984Y021015D01*
X022007Y021020D01*
X022030Y021022D01*
X025730Y021022D01*
X025753Y021020D01*
X025776Y021015D01*
X025798Y021006D01*
X025818Y020993D01*
X025836Y020978D01*
X025851Y020960D01*
X025864Y020940D01*
X025873Y020918D01*
X025878Y020895D01*
X025880Y020872D01*
X025880Y020452D01*
X025880Y020052D01*
X025880Y019632D01*
X025878Y019609D01*
X025873Y019586D01*
X025864Y019564D01*
X025851Y019544D01*
X025836Y019526D01*
X025818Y019511D01*
X025798Y019498D01*
X025776Y019489D01*
X025753Y019484D01*
X025730Y019482D01*
X022030Y019482D01*
X022007Y019484D01*
X021984Y019489D01*
X021962Y019498D01*
X021942Y019511D01*
X021924Y019526D01*
X021909Y019544D01*
X021896Y019564D01*
X021887Y019586D01*
X021882Y019609D01*
X021880Y019632D01*
X022830Y018592D02*
X024330Y018592D01*
X024580Y018342D01*
X024580Y017842D01*
X024330Y017592D01*
X024580Y017342D01*
X024580Y016842D01*
X024330Y016592D01*
X024580Y016342D01*
X024580Y015842D01*
X024330Y015592D01*
X024580Y015342D01*
X024580Y014842D01*
X024330Y014592D01*
X022830Y014592D01*
X022580Y014842D01*
X022580Y015342D01*
X022830Y015592D01*
X022580Y015842D01*
X022580Y016342D01*
X022830Y016592D01*
X022580Y016842D01*
X022580Y017342D01*
X022830Y017592D01*
X022580Y017842D01*
X022580Y018342D01*
X022830Y018592D01*
X025680Y018202D02*
X025930Y018452D01*
X027430Y018452D01*
X027680Y018202D01*
X027680Y017702D01*
X027430Y017452D01*
X027680Y017202D01*
X027680Y016702D01*
X027430Y016452D01*
X027680Y016202D01*
X027680Y015702D01*
X027430Y015452D01*
X027680Y015202D01*
X027680Y014702D01*
X027430Y014452D01*
X025930Y014452D01*
X025680Y014702D01*
X025680Y015202D01*
X025930Y015452D01*
X025680Y015702D01*
X025680Y016202D01*
X025930Y016452D01*
X025680Y016702D01*
X025680Y017202D01*
X025930Y017452D01*
X025680Y017702D01*
X025680Y018202D01*
X026950Y019472D02*
X030650Y019472D01*
X030673Y019474D01*
X030696Y019479D01*
X030718Y019488D01*
X030738Y019501D01*
X030756Y019516D01*
X030771Y019534D01*
X030784Y019554D01*
X030793Y019576D01*
X030798Y019599D01*
X030800Y019622D01*
X030800Y020042D01*
X030800Y020442D01*
X030800Y020862D01*
X030798Y020885D01*
X030793Y020908D01*
X030784Y020930D01*
X030771Y020950D01*
X030756Y020968D01*
X030738Y020983D01*
X030718Y020996D01*
X030696Y021005D01*
X030673Y021010D01*
X030650Y021012D01*
X026950Y021012D01*
X026927Y021010D01*
X026904Y021005D01*
X026882Y020996D01*
X026862Y020983D01*
X026844Y020968D01*
X026829Y020950D01*
X026816Y020930D01*
X026807Y020908D01*
X026802Y020885D01*
X026800Y020862D01*
X026800Y019622D01*
X026802Y019599D01*
X026807Y019576D01*
X026816Y019554D01*
X026829Y019534D01*
X026844Y019516D01*
X026862Y019501D01*
X026882Y019488D01*
X026904Y019479D01*
X026927Y019474D01*
X026950Y019472D01*
X025880Y020052D02*
X025853Y020054D01*
X025826Y020059D01*
X025800Y020069D01*
X025776Y020081D01*
X025754Y020097D01*
X025734Y020115D01*
X025717Y020137D01*
X025702Y020160D01*
X025692Y020185D01*
X025684Y020211D01*
X025680Y020238D01*
X025680Y020266D01*
X025684Y020293D01*
X025692Y020319D01*
X025702Y020344D01*
X025717Y020367D01*
X025734Y020389D01*
X025754Y020407D01*
X025776Y020423D01*
X025800Y020435D01*
X025826Y020445D01*
X025853Y020450D01*
X025880Y020452D01*
X028680Y018202D02*
X028680Y017702D01*
X028930Y017452D01*
X028680Y017202D01*
X028680Y016702D01*
X028930Y016452D01*
X028680Y016202D01*
X028680Y015702D01*
X028930Y015452D01*
X028680Y015202D01*
X028680Y014702D01*
X028930Y014452D01*
X030430Y014452D01*
X030680Y014702D01*
X030680Y015202D01*
X030430Y015452D01*
X030680Y015702D01*
X030680Y016202D01*
X030430Y016452D01*
X030680Y016702D01*
X030680Y017202D01*
X030430Y017452D01*
X030680Y017702D01*
X030680Y018202D01*
X030430Y018452D01*
X028930Y018452D01*
X028680Y018202D01*
X030800Y020042D02*
X030773Y020044D01*
X030746Y020049D01*
X030720Y020059D01*
X030696Y020071D01*
X030674Y020087D01*
X030654Y020105D01*
X030637Y020127D01*
X030622Y020150D01*
X030612Y020175D01*
X030604Y020201D01*
X030600Y020228D01*
X030600Y020256D01*
X030604Y020283D01*
X030612Y020309D01*
X030622Y020334D01*
X030637Y020357D01*
X030654Y020379D01*
X030674Y020397D01*
X030696Y020413D01*
X030720Y020425D01*
X030746Y020435D01*
X030773Y020440D01*
X030800Y020442D01*
X026683Y011000D02*
X025263Y011000D01*
X025263Y009141D02*
X026683Y009141D01*
X022887Y009984D02*
X022651Y009984D01*
X022651Y010457D02*
X022887Y010457D01*
D22*
X012506Y010910D02*
X012506Y009130D01*
X011006Y009130D02*
X011006Y010910D01*
X005302Y011098D02*
X003522Y011098D01*
X003522Y012598D02*
X005302Y012598D01*
D23*
X010367Y009685D03*
D24*
X021880Y020882D02*
X025880Y020882D01*
X026800Y020872D02*
X030800Y020872D01*
D25*
X004922Y019288D02*
X004922Y017788D01*
X004872Y017838D02*
X004372Y018338D01*
X004172Y018538D01*
X004922Y019288D01*
X004722Y019088D02*
X004722Y017988D01*
X004522Y018188D02*
X004522Y018888D01*
X004372Y018738D02*
X004372Y018338D01*
D26*
X008189Y020989D03*
D27*
X009172Y020989D03*
D28*
X008189Y020990D03*
D29*
X009172Y020990D03*
D30*
X009125Y021057D03*
X009125Y021058D03*
X009125Y021060D03*
X009166Y021170D03*
X009272Y021056D03*
X009271Y021055D03*
X008866Y021000D03*
X008866Y020998D03*
X008811Y021228D03*
X008325Y021176D03*
X008325Y021175D03*
X008277Y021050D03*
X008190Y020991D03*
X008140Y021058D03*
X008140Y021060D03*
X008140Y021061D03*
X008140Y021062D03*
X008181Y021170D03*
X008182Y021171D03*
X007906Y021231D03*
X007592Y021182D03*
X007592Y021181D03*
X007592Y021180D03*
X007566Y021131D03*
D31*
X007542Y021040D03*
X007542Y021038D03*
X007541Y021037D03*
X007541Y021036D03*
X007541Y021035D03*
X007540Y021033D03*
X007540Y021032D03*
X007540Y021031D03*
X007537Y021023D03*
X007537Y021022D03*
X007537Y021021D03*
X007536Y021018D03*
X007536Y021017D03*
X007535Y021015D03*
X007535Y021013D03*
X007791Y021075D03*
X007796Y021082D03*
X007800Y021088D03*
X007802Y021091D03*
X007805Y021095D03*
X007806Y021096D03*
X007807Y021098D03*
X007810Y021102D03*
X007811Y021103D03*
X007812Y021105D03*
X007816Y021110D03*
X007817Y021112D03*
X007820Y021116D03*
X007821Y021117D03*
X007825Y021123D03*
X007827Y021126D03*
X007830Y021130D03*
X007832Y021133D03*
X008725Y021001D03*
X008726Y021003D03*
X008727Y021006D03*
X008730Y021015D03*
X008731Y021017D03*
X008732Y021020D03*
X008735Y021028D03*
X008736Y021031D03*
X008740Y021042D03*
X008741Y021045D03*
X008742Y021047D03*
X008745Y021056D03*
X008746Y021058D03*
X008747Y021061D03*
X008751Y021072D03*
X008752Y021075D03*
X008755Y021083D03*
X008756Y021086D03*
X008760Y021097D03*
X008761Y021100D03*
X008762Y021102D03*
X008765Y021111D03*
X008766Y021113D03*
X008767Y021116D03*
X008771Y021127D03*
X008772Y021130D03*
X008775Y021138D03*
X008776Y021141D03*
X008780Y021152D03*
X008781Y021155D03*
X008910Y021111D03*
X008911Y021113D03*
X008912Y021116D03*
X008916Y021127D03*
X008917Y021130D03*
X008920Y021138D03*
X008921Y021141D03*
X008925Y021152D03*
X008926Y021155D03*
X008927Y021157D03*
X008930Y021166D03*
X008931Y021168D03*
X008932Y021171D03*
X008936Y021182D03*
X008937Y021185D03*
X008940Y021193D03*
X008941Y021196D03*
X008942Y021198D03*
X008945Y021207D03*
X008946Y021210D03*
X008947Y021212D03*
X008950Y021220D03*
X008950Y021221D03*
X008951Y021223D03*
X008952Y021226D03*
X008907Y021102D03*
X008906Y021100D03*
X008905Y021097D03*
X008901Y021086D03*
X008900Y021083D03*
X008897Y021075D03*
X009172Y020991D03*
X009280Y021071D03*
X009281Y021073D03*
X009307Y021156D03*
D32*
X009264Y021046D03*
X009129Y021043D03*
X009181Y021185D03*
X009182Y021186D03*
X008810Y021216D03*
X008810Y021217D03*
X008810Y021218D03*
X008320Y021187D03*
X008197Y021186D03*
X008196Y021185D03*
X008190Y020992D03*
X007902Y021221D03*
X007902Y021222D03*
X010109Y021000D03*
D33*
X009307Y021183D03*
X009172Y021177D03*
X009171Y021176D03*
X009170Y021175D03*
X009126Y021053D03*
X009126Y021052D03*
X009172Y020992D03*
X009269Y021052D03*
X008811Y021225D03*
X008811Y021226D03*
X008324Y021180D03*
X008274Y021047D03*
X008273Y021046D03*
X008272Y021045D03*
X008141Y021053D03*
X007905Y021228D03*
X007547Y021081D03*
D34*
X008150Y021036D03*
X008190Y020993D03*
X008315Y021193D03*
X009135Y021036D03*
D35*
X009130Y021042D03*
X009172Y020993D03*
X009184Y021187D03*
X009303Y021190D03*
X008867Y021013D03*
X008867Y021012D03*
X008810Y021215D03*
X008320Y021188D03*
X008199Y021187D03*
X008145Y021043D03*
X008263Y021038D03*
X007902Y021220D03*
X007589Y021190D03*
X007544Y021085D03*
X010110Y021001D03*
D36*
X010109Y021074D03*
X010110Y021089D03*
X010165Y021074D03*
X010175Y021089D03*
X009742Y021084D03*
X009740Y021079D03*
X009733Y021059D03*
X009729Y021049D03*
X009130Y021104D03*
X008844Y021089D03*
X008843Y021094D03*
X008842Y021099D03*
X008840Y021109D03*
X008833Y021139D03*
X008832Y021144D03*
X008830Y021154D03*
X008578Y021234D03*
X008574Y021224D03*
X008567Y021204D03*
X008565Y021199D03*
X008554Y021169D03*
X008547Y021149D03*
X008545Y021144D03*
X008534Y021114D03*
X008527Y021094D03*
X008525Y021089D03*
X008514Y021059D03*
X008507Y021039D03*
X008505Y021034D03*
X008503Y021029D03*
X008494Y021004D03*
X008325Y021164D03*
X008155Y021129D03*
X008147Y021109D03*
X008144Y021099D03*
X007907Y021094D03*
X007907Y021089D03*
X007907Y021084D03*
X007769Y021044D03*
X007762Y021034D03*
X007755Y021024D03*
X007748Y021014D03*
X007548Y021064D03*
X007533Y020994D03*
X007408Y021049D03*
X007404Y021039D03*
X007397Y021019D03*
X007395Y021014D03*
X007388Y020994D03*
X007415Y021069D03*
X007417Y021074D03*
X007575Y021139D03*
X007584Y021154D03*
D37*
X007586Y021159D03*
X007588Y021164D03*
X007590Y021169D03*
X007548Y021069D03*
X007420Y021084D03*
X007418Y021079D03*
X007413Y021064D03*
X007411Y021059D03*
X007409Y021054D03*
X007402Y021034D03*
X007400Y021029D03*
X007398Y021024D03*
X007393Y021009D03*
X007391Y021004D03*
X007389Y020999D03*
X007733Y020994D03*
X007737Y020999D03*
X007744Y021009D03*
X007904Y020999D03*
X007905Y021024D03*
X007905Y021029D03*
X007905Y021034D03*
X007905Y021039D03*
X007905Y021044D03*
X008140Y021084D03*
X008141Y021089D03*
X008142Y021094D03*
X008145Y021104D03*
X008148Y021114D03*
X008150Y021119D03*
X008152Y021124D03*
X008157Y021134D03*
X008162Y021144D03*
X008165Y021149D03*
X008291Y021069D03*
X008288Y021064D03*
X008325Y021169D03*
X008528Y021099D03*
X008530Y021104D03*
X008532Y021109D03*
X008537Y021124D03*
X008539Y021129D03*
X008541Y021134D03*
X008543Y021139D03*
X008548Y021154D03*
X008550Y021159D03*
X008552Y021164D03*
X008557Y021179D03*
X008559Y021184D03*
X008561Y021189D03*
X008563Y021194D03*
X008568Y021209D03*
X008570Y021214D03*
X008572Y021219D03*
X008523Y021084D03*
X008521Y021079D03*
X008519Y021074D03*
X008517Y021069D03*
X008512Y021054D03*
X008510Y021049D03*
X008508Y021044D03*
X008501Y021024D03*
X008499Y021019D03*
X008497Y021014D03*
X008492Y020999D03*
X008490Y020994D03*
X008865Y020994D03*
X008811Y021234D03*
X009131Y021109D03*
X009133Y021114D03*
X009135Y021119D03*
X009137Y021124D03*
X009139Y021129D03*
X009142Y021134D03*
X009144Y021139D03*
X009147Y021144D03*
X009150Y021149D03*
X009153Y021154D03*
X009128Y021099D03*
X009127Y021094D03*
X009126Y021089D03*
X009125Y021084D03*
X009124Y021079D03*
X009308Y021169D03*
X009725Y021039D03*
X009727Y021044D03*
X009734Y021064D03*
X009736Y021069D03*
X009738Y021074D03*
X009743Y021089D03*
X009745Y021094D03*
X010108Y021069D03*
X010109Y021079D03*
X010109Y021084D03*
X010110Y021094D03*
X010110Y021099D03*
X010111Y021109D03*
X010111Y021114D03*
X010111Y021119D03*
X010112Y021124D03*
X010112Y021129D03*
X010112Y021134D03*
X010113Y021139D03*
X010113Y021144D03*
X010113Y021149D03*
X010114Y021154D03*
X010114Y021159D03*
X010114Y021164D03*
X010115Y021174D03*
X010115Y021179D03*
X010116Y021189D03*
X010116Y021194D03*
X010117Y021204D03*
X010117Y021209D03*
X010118Y021224D03*
X010218Y021154D03*
X010215Y021149D03*
X010208Y021139D03*
X010205Y021134D03*
X010201Y021129D03*
X010198Y021124D03*
X010195Y021119D03*
X010191Y021114D03*
X010188Y021109D03*
X010185Y021104D03*
X010181Y021099D03*
X010178Y021094D03*
X010171Y021084D03*
X010168Y021079D03*
X010161Y021069D03*
X010225Y021164D03*
X010228Y021169D03*
X010235Y021179D03*
X010245Y021194D03*
D38*
X010249Y021199D03*
X010252Y021204D03*
X010259Y021214D03*
X010262Y021219D03*
X010269Y021229D03*
X010272Y021234D03*
X010242Y021189D03*
X010239Y021184D03*
X010232Y021174D03*
X010222Y021159D03*
X010212Y021144D03*
X010115Y021169D03*
X010117Y021199D03*
X010118Y021214D03*
X010118Y021219D03*
X010119Y021229D03*
X010119Y021234D03*
X009309Y021174D03*
X009157Y021159D03*
X009124Y021074D03*
X009124Y021069D03*
X008285Y021059D03*
X008140Y021074D03*
X008140Y021079D03*
X008160Y021139D03*
X008169Y021154D03*
X008172Y021159D03*
X007907Y021234D03*
X007905Y021019D03*
X007905Y021014D03*
X007905Y021009D03*
X007905Y021004D03*
X007904Y020994D03*
X007570Y021134D03*
D39*
X007896Y021204D03*
X008191Y020994D03*
D40*
X007857Y021169D03*
X007850Y021159D03*
X007846Y021154D03*
X007839Y021144D03*
X007836Y021139D03*
X007832Y021134D03*
X007825Y021124D03*
X008722Y020994D03*
X008724Y020999D03*
X008731Y021019D03*
X008735Y021029D03*
X008740Y021044D03*
X008742Y021049D03*
X008744Y021054D03*
X008746Y021059D03*
X008751Y021074D03*
X008755Y021084D03*
X008760Y021099D03*
X008762Y021104D03*
X008764Y021109D03*
X008766Y021114D03*
X008771Y021129D03*
X008775Y021139D03*
X008780Y021154D03*
X008907Y021104D03*
X008909Y021109D03*
X008911Y021114D03*
X008916Y021129D03*
X008920Y021139D03*
X008925Y021154D03*
X008927Y021159D03*
X008929Y021164D03*
X008931Y021169D03*
X008936Y021184D03*
X008940Y021194D03*
X008947Y021214D03*
X008949Y021219D03*
X008951Y021224D03*
X008905Y021099D03*
X008900Y021084D03*
X008896Y021074D03*
X009281Y021074D03*
D41*
X009172Y020994D03*
D42*
X009259Y020994D03*
D43*
X009770Y020994D03*
X009775Y021009D03*
X009781Y021024D03*
X007485Y021094D03*
D44*
X008142Y021049D03*
X008189Y021179D03*
X008866Y021004D03*
X009174Y021179D03*
X009306Y021184D03*
X010107Y020994D03*
D45*
X010109Y021070D03*
X010109Y021071D03*
X010109Y021072D03*
X010109Y021073D03*
X010110Y021087D03*
X010110Y021088D03*
X010163Y021071D03*
X010167Y021077D03*
X010169Y021080D03*
X010173Y021086D03*
X010177Y021092D03*
X010179Y021095D03*
X009745Y021093D03*
X009745Y021092D03*
X009744Y021090D03*
X009743Y021087D03*
X009739Y021076D03*
X009738Y021073D03*
X009737Y021071D03*
X009737Y021070D03*
X009735Y021065D03*
X009734Y021062D03*
X009733Y021060D03*
X009732Y021057D03*
X009730Y021051D03*
X009729Y021048D03*
X009728Y021046D03*
X009727Y021043D03*
X009309Y021166D03*
X009309Y021167D03*
X009309Y021168D03*
X009278Y021067D03*
X009277Y021065D03*
X009138Y021125D03*
X009137Y021123D03*
X009135Y021118D03*
X009134Y021115D03*
X009133Y021113D03*
X009132Y021110D03*
X009129Y021100D03*
X008848Y021073D03*
X008847Y021076D03*
X008847Y021077D03*
X008845Y021085D03*
X008845Y021086D03*
X008844Y021090D03*
X008844Y021091D03*
X008843Y021095D03*
X008842Y021098D03*
X008842Y021100D03*
X008840Y021107D03*
X008840Y021108D03*
X008839Y021112D03*
X008839Y021113D03*
X008838Y021117D03*
X008838Y021118D03*
X008837Y021121D03*
X008837Y021122D03*
X008837Y021123D03*
X008835Y021130D03*
X008835Y021131D03*
X008835Y021132D03*
X008834Y021135D03*
X008834Y021136D03*
X008833Y021140D03*
X008833Y021141D03*
X008832Y021145D03*
X008830Y021153D03*
X008577Y021232D03*
X008575Y021226D03*
X008574Y021223D03*
X008573Y021221D03*
X008572Y021218D03*
X008570Y021213D03*
X008569Y021210D03*
X008568Y021207D03*
X008564Y021196D03*
X008563Y021193D03*
X008562Y021191D03*
X008560Y021185D03*
X008559Y021182D03*
X008558Y021180D03*
X008557Y021177D03*
X008555Y021171D03*
X008553Y021166D03*
X008552Y021163D03*
X008550Y021158D03*
X008549Y021155D03*
X008548Y021152D03*
X008544Y021141D03*
X008543Y021138D03*
X008542Y021136D03*
X008540Y021130D03*
X008539Y021127D03*
X008538Y021125D03*
X008537Y021122D03*
X008535Y021116D03*
X008533Y021111D03*
X008532Y021108D03*
X008530Y021103D03*
X008529Y021100D03*
X008528Y021097D03*
X008524Y021086D03*
X008523Y021083D03*
X008522Y021081D03*
X008520Y021075D03*
X008519Y021072D03*
X008518Y021070D03*
X008517Y021067D03*
X008515Y021061D03*
X008513Y021056D03*
X008512Y021053D03*
X008510Y021048D03*
X008509Y021045D03*
X008508Y021042D03*
X008507Y021040D03*
X008504Y021031D03*
X008503Y021028D03*
X008502Y021026D03*
X008500Y021020D03*
X008499Y021018D03*
X008499Y021017D03*
X008498Y021015D03*
X008497Y021012D03*
X008495Y021007D03*
X008495Y021006D03*
X008493Y021001D03*
X008492Y020998D03*
X008299Y021082D03*
X008298Y021080D03*
X008297Y021078D03*
X008295Y021075D03*
X008294Y021073D03*
X008293Y021072D03*
X008293Y021071D03*
X008292Y021070D03*
X008289Y021065D03*
X008325Y021160D03*
X008325Y021161D03*
X008325Y021162D03*
X008325Y021163D03*
X008325Y021165D03*
X008280Y021238D03*
X008154Y021127D03*
X008152Y021122D03*
X008150Y021117D03*
X008149Y021115D03*
X008148Y021112D03*
X008145Y021103D03*
X008143Y021095D03*
X007907Y021096D03*
X007907Y021097D03*
X007907Y021095D03*
X007907Y021093D03*
X007907Y021092D03*
X007907Y021091D03*
X007907Y021090D03*
X007907Y021088D03*
X007907Y021087D03*
X007907Y021086D03*
X007907Y021085D03*
X007907Y021083D03*
X007907Y021082D03*
X007907Y021081D03*
X007907Y021080D03*
X007779Y021058D03*
X007774Y021051D03*
X007772Y021048D03*
X007770Y021045D03*
X007767Y021041D03*
X007765Y021038D03*
X007764Y021037D03*
X007763Y021035D03*
X007760Y021031D03*
X007759Y021030D03*
X007758Y021028D03*
X007757Y021027D03*
X007754Y021023D03*
X007753Y021021D03*
X007752Y021020D03*
X007750Y021017D03*
X007749Y021016D03*
X007747Y021013D03*
X007745Y021010D03*
X007743Y021007D03*
X007742Y021006D03*
X007740Y021003D03*
X007738Y021000D03*
X007547Y021057D03*
X007547Y021058D03*
X007548Y021062D03*
X007548Y021063D03*
X007548Y021065D03*
X007548Y021066D03*
X007533Y020998D03*
X007533Y020997D03*
X007533Y020996D03*
X007533Y020995D03*
X007404Y021038D03*
X007403Y021036D03*
X007402Y021033D03*
X007400Y021028D03*
X007400Y021027D03*
X007399Y021025D03*
X007398Y021022D03*
X007394Y021011D03*
X007393Y021008D03*
X007392Y021006D03*
X007392Y021005D03*
X007390Y021000D03*
X007389Y020997D03*
X007388Y020995D03*
X007405Y021041D03*
X007407Y021047D03*
X007408Y021050D03*
X007409Y021052D03*
X007410Y021055D03*
X007412Y021060D03*
X007412Y021061D03*
X007413Y021063D03*
X007414Y021066D03*
X007418Y021077D03*
X007419Y021080D03*
X007420Y021082D03*
X007420Y021083D03*
X007572Y021136D03*
X007573Y021137D03*
X007574Y021138D03*
X007577Y021142D03*
X007578Y021143D03*
X007579Y021145D03*
X007580Y021146D03*
X007582Y021150D03*
X007583Y021151D03*
X007583Y021152D03*
X007584Y021153D03*
X007585Y021155D03*
X007585Y021156D03*
X007587Y021160D03*
X007588Y021162D03*
X007588Y021163D03*
X007589Y021165D03*
D46*
X007589Y021166D03*
X007589Y021167D03*
X007589Y021168D03*
X007590Y021170D03*
X007590Y021171D03*
X007587Y021161D03*
X007548Y021072D03*
X007548Y021071D03*
X007548Y021070D03*
X007548Y021068D03*
X007548Y021067D03*
X007422Y021088D03*
X007421Y021087D03*
X007421Y021086D03*
X007419Y021081D03*
X007418Y021078D03*
X007417Y021076D03*
X007417Y021075D03*
X007416Y021073D03*
X007415Y021070D03*
X007414Y021068D03*
X007414Y021067D03*
X007413Y021065D03*
X007412Y021062D03*
X007410Y021057D03*
X007410Y021056D03*
X007409Y021053D03*
X007408Y021051D03*
X007407Y021048D03*
X007406Y021046D03*
X007406Y021045D03*
X007405Y021043D03*
X007405Y021042D03*
X007404Y021040D03*
X007403Y021037D03*
X007402Y021035D03*
X007401Y021032D03*
X007401Y021031D03*
X007399Y021026D03*
X007398Y021023D03*
X007397Y021021D03*
X007397Y021020D03*
X007396Y021018D03*
X007395Y021015D03*
X007394Y021013D03*
X007394Y021012D03*
X007393Y021010D03*
X007392Y021007D03*
X007390Y021002D03*
X007390Y021001D03*
X007389Y020998D03*
X007388Y020996D03*
X007734Y020995D03*
X007735Y020996D03*
X007736Y020998D03*
X007738Y021001D03*
X007739Y021002D03*
X007741Y021005D03*
X007743Y021008D03*
X007746Y021012D03*
X007748Y021015D03*
X007753Y021022D03*
X007905Y021022D03*
X007905Y021023D03*
X007905Y021025D03*
X007905Y021026D03*
X007905Y021027D03*
X007905Y021028D03*
X007905Y021030D03*
X007905Y021031D03*
X007905Y021032D03*
X007905Y021033D03*
X007905Y021035D03*
X007905Y021036D03*
X007905Y021037D03*
X007905Y021038D03*
X007905Y021040D03*
X007905Y021041D03*
X007905Y021042D03*
X007905Y021043D03*
X007905Y021045D03*
X007905Y021046D03*
X007905Y021021D03*
X007904Y020998D03*
X007904Y020997D03*
X007904Y020996D03*
X008140Y021081D03*
X008140Y021082D03*
X008140Y021083D03*
X008140Y021085D03*
X008141Y021087D03*
X008141Y021088D03*
X008141Y021090D03*
X008142Y021091D03*
X008142Y021092D03*
X008142Y021093D03*
X008143Y021096D03*
X008143Y021097D03*
X008143Y021098D03*
X008144Y021100D03*
X008144Y021101D03*
X008144Y021102D03*
X008145Y021105D03*
X008146Y021107D03*
X008146Y021108D03*
X008147Y021110D03*
X008147Y021111D03*
X008148Y021113D03*
X008149Y021116D03*
X008150Y021118D03*
X008151Y021121D03*
X008152Y021123D03*
X008153Y021125D03*
X008153Y021126D03*
X008154Y021128D03*
X008155Y021130D03*
X008156Y021132D03*
X008156Y021133D03*
X008157Y021135D03*
X008158Y021136D03*
X008158Y021137D03*
X008159Y021138D03*
X008160Y021140D03*
X008161Y021142D03*
X008162Y021143D03*
X008163Y021145D03*
X008164Y021147D03*
X008167Y021152D03*
X008169Y021155D03*
X008289Y021066D03*
X008290Y021067D03*
X008287Y021063D03*
X008285Y021060D03*
X008325Y021166D03*
X008325Y021167D03*
X008325Y021168D03*
X008325Y021170D03*
X008529Y021102D03*
X008529Y021101D03*
X008528Y021098D03*
X008527Y021096D03*
X008527Y021095D03*
X008526Y021093D03*
X008525Y021091D03*
X008525Y021090D03*
X008524Y021088D03*
X008524Y021087D03*
X008523Y021085D03*
X008522Y021082D03*
X008521Y021080D03*
X008520Y021077D03*
X008520Y021076D03*
X008519Y021073D03*
X008518Y021071D03*
X008517Y021068D03*
X008516Y021066D03*
X008516Y021065D03*
X008515Y021063D03*
X008515Y021062D03*
X008514Y021060D03*
X008513Y021058D03*
X008513Y021057D03*
X008512Y021055D03*
X008511Y021052D03*
X008509Y021047D03*
X008509Y021046D03*
X008508Y021043D03*
X008507Y021041D03*
X008506Y021038D03*
X008505Y021036D03*
X008505Y021035D03*
X008504Y021033D03*
X008504Y021032D03*
X008503Y021030D03*
X008502Y021027D03*
X008501Y021025D03*
X008500Y021022D03*
X008500Y021021D03*
X008498Y021016D03*
X008497Y021013D03*
X008496Y021011D03*
X008496Y021010D03*
X008495Y021008D03*
X008494Y021005D03*
X008493Y021003D03*
X008493Y021002D03*
X008492Y021000D03*
X008491Y020997D03*
X008531Y021106D03*
X008531Y021107D03*
X008532Y021110D03*
X008533Y021112D03*
X008533Y021113D03*
X008534Y021115D03*
X008535Y021117D03*
X008535Y021118D03*
X008536Y021120D03*
X008536Y021121D03*
X008537Y021123D03*
X008538Y021126D03*
X008539Y021128D03*
X008540Y021131D03*
X008540Y021132D03*
X008541Y021135D03*
X008542Y021137D03*
X008543Y021140D03*
X008544Y021142D03*
X008544Y021143D03*
X008545Y021145D03*
X008545Y021146D03*
X008546Y021148D03*
X008547Y021150D03*
X008547Y021151D03*
X008548Y021153D03*
X008549Y021156D03*
X008549Y021157D03*
X008551Y021161D03*
X008551Y021162D03*
X008552Y021165D03*
X008553Y021167D03*
X008553Y021168D03*
X008554Y021170D03*
X008555Y021172D03*
X008555Y021173D03*
X008556Y021175D03*
X008556Y021176D03*
X008557Y021178D03*
X008558Y021181D03*
X008559Y021183D03*
X008560Y021186D03*
X008560Y021187D03*
X008561Y021190D03*
X008562Y021192D03*
X008563Y021195D03*
X008564Y021197D03*
X008564Y021198D03*
X008565Y021200D03*
X008565Y021201D03*
X008566Y021203D03*
X008567Y021205D03*
X008567Y021206D03*
X008568Y021208D03*
X008569Y021211D03*
X008569Y021212D03*
X008571Y021216D03*
X008571Y021217D03*
X008572Y021220D03*
X008573Y021222D03*
X008574Y021225D03*
X008575Y021227D03*
X008575Y021228D03*
X008576Y021230D03*
X008576Y021231D03*
X008577Y021233D03*
X008811Y021233D03*
X009132Y021112D03*
X009132Y021111D03*
X009131Y021108D03*
X009130Y021106D03*
X009130Y021105D03*
X009129Y021103D03*
X009129Y021102D03*
X009129Y021101D03*
X009128Y021098D03*
X009128Y021097D03*
X009127Y021096D03*
X009127Y021095D03*
X009127Y021093D03*
X009126Y021092D03*
X009126Y021091D03*
X009126Y021090D03*
X009126Y021088D03*
X009125Y021087D03*
X009125Y021086D03*
X009125Y021085D03*
X009125Y021083D03*
X009124Y021078D03*
X009124Y021077D03*
X009124Y021076D03*
X009134Y021116D03*
X009134Y021117D03*
X009135Y021120D03*
X009136Y021121D03*
X009136Y021122D03*
X009138Y021126D03*
X009138Y021127D03*
X009139Y021128D03*
X009140Y021130D03*
X009140Y021131D03*
X009141Y021132D03*
X009141Y021133D03*
X009142Y021135D03*
X009143Y021136D03*
X009143Y021137D03*
X009144Y021138D03*
X009145Y021140D03*
X009145Y021141D03*
X009146Y021142D03*
X009146Y021143D03*
X009148Y021146D03*
X009149Y021148D03*
X009151Y021151D03*
X009274Y021061D03*
X009275Y021062D03*
X009308Y021170D03*
X009308Y021171D03*
X009308Y021172D03*
X009726Y021042D03*
X009726Y021041D03*
X009725Y021038D03*
X009727Y021045D03*
X009728Y021047D03*
X009729Y021050D03*
X009730Y021052D03*
X009730Y021053D03*
X009731Y021055D03*
X009731Y021056D03*
X009732Y021058D03*
X009733Y021061D03*
X009734Y021063D03*
X009735Y021066D03*
X009735Y021067D03*
X009737Y021072D03*
X009738Y021075D03*
X009739Y021077D03*
X009739Y021078D03*
X009740Y021080D03*
X009741Y021083D03*
X009742Y021085D03*
X009742Y021086D03*
X009743Y021088D03*
X009744Y021091D03*
X009746Y021096D03*
X009746Y021097D03*
X010109Y021086D03*
X010109Y021085D03*
X010109Y021083D03*
X010109Y021082D03*
X010109Y021081D03*
X010109Y021080D03*
X010109Y021078D03*
X010109Y021077D03*
X010109Y021076D03*
X010109Y021075D03*
X010108Y021068D03*
X010108Y021067D03*
X010108Y021066D03*
X010110Y021090D03*
X010110Y021091D03*
X010110Y021092D03*
X010110Y021093D03*
X010110Y021095D03*
X010110Y021096D03*
X010110Y021097D03*
X010110Y021098D03*
X010110Y021100D03*
X010110Y021101D03*
X010110Y021102D03*
X010111Y021105D03*
X010111Y021106D03*
X010111Y021107D03*
X010111Y021108D03*
X010111Y021110D03*
X010111Y021111D03*
X010111Y021112D03*
X010111Y021113D03*
X010111Y021115D03*
X010111Y021116D03*
X010111Y021117D03*
X010111Y021118D03*
X010112Y021120D03*
X010112Y021121D03*
X010112Y021122D03*
X010112Y021123D03*
X010112Y021125D03*
X010112Y021126D03*
X010112Y021127D03*
X010112Y021128D03*
X010112Y021130D03*
X010112Y021131D03*
X010112Y021132D03*
X010112Y021133D03*
X010113Y021137D03*
X010113Y021138D03*
X010113Y021140D03*
X010113Y021141D03*
X010113Y021142D03*
X010113Y021143D03*
X010113Y021145D03*
X010113Y021146D03*
X010113Y021147D03*
X010113Y021148D03*
X010113Y021150D03*
X010114Y021155D03*
X010114Y021156D03*
X010114Y021157D03*
X010114Y021158D03*
X010114Y021160D03*
X010114Y021161D03*
X010114Y021162D03*
X010114Y021163D03*
X010114Y021165D03*
X010115Y021170D03*
X010115Y021171D03*
X010115Y021172D03*
X010115Y021173D03*
X010115Y021175D03*
X010115Y021176D03*
X010115Y021177D03*
X010115Y021178D03*
X010115Y021180D03*
X010116Y021187D03*
X010116Y021188D03*
X010116Y021190D03*
X010116Y021191D03*
X010116Y021192D03*
X010116Y021193D03*
X010116Y021195D03*
X010117Y021205D03*
X010117Y021206D03*
X010117Y021207D03*
X010117Y021208D03*
X010117Y021210D03*
X010118Y021220D03*
X010118Y021221D03*
X010118Y021222D03*
X010118Y021223D03*
X010118Y021225D03*
X010220Y021157D03*
X010221Y021158D03*
X010222Y021160D03*
X010223Y021161D03*
X010224Y021163D03*
X010226Y021166D03*
X010227Y021167D03*
X010229Y021170D03*
X010231Y021173D03*
X010233Y021176D03*
X010237Y021182D03*
X010239Y021185D03*
X010241Y021188D03*
X010243Y021191D03*
X010247Y021197D03*
X010249Y021200D03*
X010251Y021203D03*
X010253Y021206D03*
X010219Y021155D03*
X010217Y021152D03*
X010216Y021151D03*
X010214Y021148D03*
X010213Y021146D03*
X010212Y021145D03*
X010211Y021143D03*
X010210Y021142D03*
X010209Y021140D03*
X010207Y021137D03*
X010206Y021136D03*
X010204Y021133D03*
X010203Y021132D03*
X010203Y021131D03*
X010202Y021130D03*
X010201Y021128D03*
X010200Y021127D03*
X010199Y021126D03*
X010199Y021125D03*
X010197Y021123D03*
X010197Y021122D03*
X010196Y021121D03*
X010195Y021120D03*
X010194Y021118D03*
X010193Y021117D03*
X010193Y021116D03*
X010192Y021115D03*
X010191Y021113D03*
X010190Y021112D03*
X010189Y021111D03*
X010189Y021110D03*
X010187Y021108D03*
X010187Y021107D03*
X010186Y021106D03*
X010185Y021105D03*
X010184Y021103D03*
X010183Y021102D03*
X010183Y021101D03*
X010182Y021100D03*
X010181Y021098D03*
X010180Y021097D03*
X010179Y021096D03*
X010177Y021093D03*
X010176Y021091D03*
X010175Y021090D03*
X010174Y021088D03*
X010173Y021087D03*
X010172Y021085D03*
X010170Y021082D03*
X010169Y021081D03*
X010167Y021078D03*
X010166Y021076D03*
X010165Y021075D03*
X010164Y021073D03*
X010163Y021072D03*
X010162Y021070D03*
X010160Y021067D03*
X010159Y021066D03*
D47*
X010113Y021135D03*
X010113Y021136D03*
X010114Y021151D03*
X010114Y021152D03*
X010114Y021153D03*
X010115Y021166D03*
X010115Y021167D03*
X010115Y021168D03*
X010117Y021196D03*
X010117Y021197D03*
X010117Y021198D03*
X010117Y021200D03*
X010117Y021201D03*
X010117Y021202D03*
X010117Y021203D03*
X010118Y021211D03*
X010118Y021212D03*
X010118Y021213D03*
X010118Y021215D03*
X010118Y021216D03*
X010118Y021217D03*
X010118Y021218D03*
X010119Y021226D03*
X010119Y021227D03*
X010119Y021228D03*
X010119Y021230D03*
X010119Y021231D03*
X010119Y021232D03*
X010119Y021233D03*
X010224Y021162D03*
X010228Y021168D03*
X010230Y021171D03*
X010233Y021175D03*
X010234Y021177D03*
X010235Y021178D03*
X010237Y021181D03*
X010238Y021183D03*
X010240Y021186D03*
X010243Y021190D03*
X010244Y021192D03*
X010245Y021193D03*
X010247Y021196D03*
X010248Y021198D03*
X010250Y021201D03*
X010253Y021205D03*
X010254Y021207D03*
X010255Y021208D03*
X010257Y021211D03*
X010258Y021212D03*
X010258Y021213D03*
X010260Y021215D03*
X010260Y021216D03*
X010262Y021218D03*
X010263Y021220D03*
X010264Y021221D03*
X010264Y021222D03*
X010265Y021223D03*
X010267Y021226D03*
X010268Y021227D03*
X010268Y021228D03*
X010270Y021230D03*
X010270Y021231D03*
X010272Y021233D03*
X010220Y021156D03*
X010218Y021153D03*
X010214Y021147D03*
X010210Y021141D03*
X010208Y021138D03*
X009309Y021173D03*
X009274Y021060D03*
X009273Y021058D03*
X009124Y021068D03*
X009124Y021070D03*
X009124Y021071D03*
X009124Y021072D03*
X009124Y021073D03*
X009124Y021075D03*
X009125Y021080D03*
X009125Y021081D03*
X009125Y021082D03*
X009148Y021145D03*
X009149Y021147D03*
X009152Y021152D03*
X009153Y021153D03*
X009154Y021155D03*
X009155Y021156D03*
X009160Y021163D03*
X008325Y021171D03*
X008325Y021172D03*
X008325Y021173D03*
X008287Y021062D03*
X008284Y021058D03*
X008283Y021057D03*
X008140Y021073D03*
X008140Y021075D03*
X008140Y021076D03*
X008140Y021077D03*
X008140Y021078D03*
X008140Y021080D03*
X008164Y021146D03*
X008165Y021148D03*
X008167Y021151D03*
X008168Y021153D03*
X008170Y021156D03*
X008173Y021160D03*
X007905Y021020D03*
X007905Y021018D03*
X007905Y021017D03*
X007905Y021016D03*
X007905Y021015D03*
X007905Y021013D03*
X007905Y021012D03*
X007905Y021011D03*
X007905Y021010D03*
X007905Y021008D03*
X007905Y021007D03*
X007905Y021006D03*
X007905Y021005D03*
X007905Y021003D03*
X007905Y021002D03*
X007905Y021001D03*
X007905Y021000D03*
X007904Y020995D03*
X007569Y021133D03*
D48*
X008191Y020995D03*
X009251Y021035D03*
X010121Y021031D03*
X010121Y021030D03*
D49*
X010161Y021068D03*
X010171Y021083D03*
X010111Y021103D03*
X009746Y021095D03*
X009741Y021082D03*
X009741Y021081D03*
X009736Y021068D03*
X009726Y021040D03*
X009276Y021063D03*
X009131Y021107D03*
X008846Y021082D03*
X008846Y021081D03*
X008846Y021080D03*
X008841Y021103D03*
X008836Y021126D03*
X008836Y021127D03*
X008831Y021148D03*
X008831Y021150D03*
X008571Y021215D03*
X008566Y021202D03*
X008561Y021188D03*
X008551Y021160D03*
X008546Y021147D03*
X008541Y021133D03*
X008531Y021105D03*
X008526Y021092D03*
X008521Y021078D03*
X008511Y021051D03*
X008511Y021050D03*
X008506Y021037D03*
X008501Y021023D03*
X008491Y020996D03*
X008491Y020995D03*
X008296Y021076D03*
X008291Y021068D03*
X008156Y021131D03*
X008151Y021120D03*
X008146Y021106D03*
X007906Y021072D03*
X007906Y021071D03*
X007906Y021070D03*
X007906Y021068D03*
X007906Y021067D03*
X007906Y021066D03*
X007906Y021065D03*
X007906Y021063D03*
X007906Y021062D03*
X007906Y021061D03*
X007906Y021060D03*
X007906Y021058D03*
X007906Y021057D03*
X007906Y021056D03*
X007906Y021055D03*
X007906Y021053D03*
X007906Y021052D03*
X007906Y021051D03*
X007906Y021050D03*
X007906Y021048D03*
X007906Y021047D03*
X007771Y021047D03*
X007766Y021040D03*
X007761Y021033D03*
X007761Y021032D03*
X007756Y021026D03*
X007756Y021025D03*
X007751Y021018D03*
X007746Y021011D03*
X007736Y020997D03*
X007576Y021140D03*
X007576Y021141D03*
X007581Y021148D03*
X007586Y021157D03*
X007586Y021158D03*
X007421Y021085D03*
X007416Y021072D03*
X007416Y021071D03*
X007411Y021058D03*
X007401Y021030D03*
X007396Y021017D03*
X007396Y021016D03*
X007391Y021003D03*
D50*
X007533Y021003D03*
X007533Y021002D03*
X007534Y021008D03*
X007534Y021010D03*
X007538Y021025D03*
X007538Y021026D03*
X007539Y021028D03*
X007543Y021041D03*
X007543Y021042D03*
X007543Y021043D03*
X007544Y021045D03*
X007544Y021046D03*
X007793Y021078D03*
X007798Y021085D03*
X007799Y021086D03*
X007803Y021092D03*
X007804Y021093D03*
X007809Y021100D03*
X007809Y021101D03*
X007813Y021106D03*
X007814Y021107D03*
X007814Y021108D03*
X007818Y021113D03*
X007819Y021115D03*
X007823Y021120D03*
X007824Y021122D03*
X007834Y021136D03*
X007908Y021136D03*
X007908Y021137D03*
X007908Y021138D03*
X007908Y021140D03*
X007908Y021141D03*
X007908Y021142D03*
X007908Y021143D03*
X007908Y021145D03*
X007908Y021146D03*
X007908Y021147D03*
X007908Y021148D03*
X007909Y021160D03*
X007909Y021161D03*
X007909Y021162D03*
X007909Y021163D03*
X007909Y021165D03*
X007909Y021166D03*
X007909Y021167D03*
X007909Y021168D03*
X007909Y021170D03*
X007909Y021171D03*
X007909Y021172D03*
X007909Y021173D03*
X007908Y021135D03*
X007908Y021133D03*
X007908Y021132D03*
X007908Y021131D03*
X007908Y021130D03*
X007908Y021128D03*
X007908Y021127D03*
X007908Y021126D03*
X007908Y021125D03*
X008723Y020995D03*
X008724Y020998D03*
X008729Y021012D03*
X008733Y021023D03*
X008734Y021025D03*
X008734Y021026D03*
X008738Y021036D03*
X008738Y021037D03*
X008743Y021050D03*
X008744Y021053D03*
X008749Y021067D03*
X008753Y021078D03*
X008754Y021080D03*
X008758Y021091D03*
X008763Y021105D03*
X008764Y021108D03*
X008769Y021122D03*
X008773Y021133D03*
X008774Y021135D03*
X008778Y021146D03*
X008908Y021105D03*
X008909Y021108D03*
X008914Y021122D03*
X008918Y021133D03*
X008919Y021135D03*
X008923Y021146D03*
X008928Y021160D03*
X008929Y021163D03*
X008934Y021177D03*
X008938Y021187D03*
X008938Y021188D03*
X008939Y021190D03*
X008943Y021201D03*
X008948Y021215D03*
X008949Y021218D03*
X008954Y021231D03*
X008954Y021232D03*
X008903Y021091D03*
X008899Y021081D03*
X008899Y021080D03*
X008898Y021078D03*
D51*
X008866Y020997D03*
X008866Y020996D03*
X008866Y020995D03*
X008811Y021232D03*
X009151Y021150D03*
X009156Y021157D03*
X009156Y021158D03*
X008286Y021061D03*
X008141Y021086D03*
X008161Y021141D03*
X008166Y021150D03*
X008171Y021157D03*
X007591Y021172D03*
X007591Y021173D03*
X007571Y021135D03*
X010116Y021181D03*
X010116Y021182D03*
X010116Y021183D03*
X010116Y021185D03*
X010116Y021186D03*
X010206Y021135D03*
X010216Y021150D03*
X010226Y021165D03*
X010231Y021172D03*
X010236Y021180D03*
X010241Y021187D03*
X010246Y021195D03*
X010251Y021202D03*
X010256Y021210D03*
X010261Y021217D03*
X010266Y021225D03*
X010271Y021232D03*
D52*
X010117Y021021D03*
X010117Y021020D03*
X009172Y020995D03*
X008868Y021031D03*
X008868Y021032D03*
X008868Y021033D03*
X008808Y021196D03*
D53*
X009260Y020995D03*
D54*
X009770Y020995D03*
X009771Y020996D03*
X009771Y020997D03*
X009771Y020998D03*
X009775Y021007D03*
X009775Y021008D03*
X009776Y021010D03*
X009776Y021011D03*
X009776Y021012D03*
X009780Y021021D03*
X009780Y021022D03*
X009780Y021023D03*
X009781Y021025D03*
X009785Y021035D03*
X009785Y021036D03*
X009786Y021037D03*
X007495Y021121D03*
X007485Y021095D03*
D55*
X007904Y021225D03*
X007904Y021226D03*
X008193Y021182D03*
X008323Y021183D03*
X008143Y021048D03*
X008143Y021047D03*
X009264Y021237D03*
X010108Y020995D03*
D56*
X010124Y021040D03*
X008807Y021175D03*
X008807Y021176D03*
X008807Y021177D03*
X008191Y020996D03*
X007890Y021188D03*
D57*
X007908Y021158D03*
X007908Y021157D03*
X007908Y021156D03*
X007908Y021155D03*
X007908Y021153D03*
X007908Y021152D03*
X007908Y021151D03*
X007908Y021150D03*
X007848Y021156D03*
X007838Y021142D03*
X007833Y021135D03*
X007828Y021128D03*
X007823Y021121D03*
X007538Y021027D03*
X008723Y020997D03*
X008723Y020996D03*
X008728Y021010D03*
X008728Y021011D03*
X008738Y021038D03*
X008743Y021051D03*
X008743Y021052D03*
X008748Y021065D03*
X008748Y021066D03*
X008758Y021092D03*
X008758Y021093D03*
X008763Y021106D03*
X008763Y021107D03*
X008768Y021120D03*
X008768Y021121D03*
X008778Y021147D03*
X008778Y021148D03*
X008908Y021107D03*
X008908Y021106D03*
X008903Y021093D03*
X008903Y021092D03*
X008913Y021120D03*
X008913Y021121D03*
X008923Y021147D03*
X008923Y021148D03*
X008928Y021161D03*
X008928Y021162D03*
X008933Y021175D03*
X008933Y021176D03*
X008943Y021202D03*
X008943Y021203D03*
X008948Y021216D03*
X008948Y021217D03*
X008953Y021230D03*
X009283Y021078D03*
D58*
X009294Y021196D03*
X009173Y020996D03*
X008869Y021040D03*
X008869Y021041D03*
X008808Y021187D03*
X008808Y021188D03*
X007894Y021198D03*
D59*
X009260Y020998D03*
X009260Y020997D03*
X009260Y020996D03*
X009261Y021000D03*
D60*
X009128Y021046D03*
X009127Y021047D03*
X009177Y021182D03*
X009178Y021183D03*
X008279Y021237D03*
X008268Y021042D03*
X008267Y021041D03*
X008143Y021046D03*
X010108Y020997D03*
X010108Y020996D03*
D61*
X010127Y021047D03*
X008807Y021167D03*
X008807Y021168D03*
X008192Y020997D03*
X007888Y021181D03*
D62*
X007892Y021192D03*
X007892Y021193D03*
X008218Y021196D03*
X008808Y021181D03*
X008808Y021180D03*
X008870Y021047D03*
X009173Y020997D03*
X009203Y021196D03*
X009262Y021233D03*
X010122Y021033D03*
D63*
X010130Y021055D03*
X008871Y021067D03*
X008871Y021068D03*
X008806Y021160D03*
X008192Y020998D03*
X007886Y021176D03*
D64*
X007890Y021187D03*
X008807Y021173D03*
X008870Y021055D03*
X008870Y021053D03*
X009173Y020998D03*
X010125Y021041D03*
D65*
X010109Y020998D03*
X009305Y021188D03*
X009265Y021047D03*
X009129Y021045D03*
X008867Y021011D03*
X008867Y021010D03*
X008322Y021185D03*
X008194Y021183D03*
X008144Y021045D03*
X007903Y021223D03*
X007559Y021127D03*
D66*
X007578Y021144D03*
X007547Y021059D03*
X007543Y021044D03*
X007533Y021004D03*
X007532Y020999D03*
X007758Y021029D03*
X007772Y021049D03*
X007779Y021059D03*
X007783Y021064D03*
X007793Y021079D03*
X007797Y021084D03*
X007804Y021094D03*
X007907Y021099D03*
X007907Y021104D03*
X007907Y021109D03*
X007907Y021114D03*
X007907Y021119D03*
X008294Y021074D03*
X008297Y021079D03*
X008299Y021084D03*
X008324Y021159D03*
X008834Y021134D03*
X008837Y021119D03*
X008838Y021114D03*
X008847Y021074D03*
X009307Y021159D03*
X009308Y021164D03*
D67*
X008193Y020999D03*
D68*
X008140Y021059D03*
X008180Y021169D03*
X008276Y021049D03*
X008811Y021229D03*
X008866Y020999D03*
X009125Y021059D03*
X009165Y021169D03*
X007592Y021179D03*
D69*
X009173Y020999D03*
D70*
X009261Y020999D03*
D71*
X009772Y020999D03*
X009774Y021004D03*
X009777Y021014D03*
X009779Y021019D03*
X009783Y021029D03*
X009784Y021034D03*
D72*
X010109Y020999D03*
X008264Y021039D03*
X008144Y021044D03*
D73*
X008298Y021081D03*
X008299Y021083D03*
X008323Y021155D03*
X008324Y021156D03*
X008324Y021157D03*
X008324Y021158D03*
X007907Y021123D03*
X007907Y021122D03*
X007907Y021121D03*
X007907Y021120D03*
X007907Y021118D03*
X007907Y021117D03*
X007907Y021116D03*
X007907Y021115D03*
X007907Y021113D03*
X007907Y021112D03*
X007907Y021111D03*
X007907Y021110D03*
X007907Y021108D03*
X007907Y021107D03*
X007907Y021106D03*
X007907Y021105D03*
X007907Y021103D03*
X007907Y021102D03*
X007907Y021101D03*
X007907Y021100D03*
X007907Y021098D03*
X007799Y021087D03*
X007794Y021080D03*
X007792Y021077D03*
X007789Y021073D03*
X007788Y021072D03*
X007788Y021071D03*
X007787Y021070D03*
X007784Y021066D03*
X007783Y021065D03*
X007782Y021063D03*
X007778Y021057D03*
X007777Y021056D03*
X007774Y021052D03*
X007773Y021050D03*
X007768Y021043D03*
X007767Y021042D03*
X007763Y021036D03*
X007547Y021060D03*
X007547Y021061D03*
X007544Y021048D03*
X007544Y021047D03*
X007534Y021012D03*
X007534Y021011D03*
X007533Y021007D03*
X007533Y021006D03*
X007533Y021005D03*
X007532Y021001D03*
X007532Y021000D03*
X008829Y021155D03*
X008832Y021143D03*
X008832Y021142D03*
X008833Y021138D03*
X008833Y021137D03*
X008834Y021133D03*
X008837Y021120D03*
X008838Y021116D03*
X008838Y021115D03*
X008839Y021111D03*
X008839Y021110D03*
X008842Y021097D03*
X008842Y021096D03*
X008843Y021093D03*
X008843Y021092D03*
X008844Y021088D03*
X008844Y021087D03*
X008847Y021075D03*
X009277Y021066D03*
X009278Y021068D03*
X009279Y021070D03*
X009307Y021157D03*
X009307Y021158D03*
X009307Y021160D03*
X009308Y021161D03*
X009308Y021162D03*
X009308Y021163D03*
X009308Y021165D03*
X009264Y021238D03*
D74*
X008193Y021000D03*
D75*
X007909Y021175D03*
X007859Y021172D03*
X007855Y021166D03*
X007854Y021165D03*
X007852Y021162D03*
X007851Y021161D03*
X007849Y021158D03*
X007847Y021155D03*
X007845Y021152D03*
X007844Y021151D03*
X007842Y021148D03*
X007841Y021147D03*
X007841Y021146D03*
X007840Y021145D03*
X007839Y021143D03*
X007837Y021141D03*
X007836Y021140D03*
X007835Y021138D03*
X007834Y021137D03*
X007831Y021132D03*
X007830Y021131D03*
X007827Y021127D03*
X007826Y021125D03*
X007821Y021118D03*
X007816Y021111D03*
X007539Y021030D03*
X007536Y021020D03*
X008724Y021000D03*
X008725Y021002D03*
X008726Y021005D03*
X008727Y021007D03*
X008727Y021008D03*
X008729Y021013D03*
X008730Y021016D03*
X008731Y021018D03*
X008732Y021021D03*
X008732Y021022D03*
X008734Y021027D03*
X008735Y021030D03*
X008736Y021032D03*
X008736Y021033D03*
X008737Y021035D03*
X008739Y021040D03*
X008739Y021041D03*
X008740Y021043D03*
X008741Y021046D03*
X008742Y021048D03*
X008744Y021055D03*
X008745Y021057D03*
X008746Y021060D03*
X008747Y021062D03*
X008747Y021063D03*
X008749Y021068D03*
X008750Y021070D03*
X008750Y021071D03*
X008751Y021073D03*
X008752Y021076D03*
X008752Y021077D03*
X008754Y021081D03*
X008754Y021082D03*
X008755Y021085D03*
X008756Y021087D03*
X008756Y021088D03*
X008757Y021090D03*
X008759Y021095D03*
X008759Y021096D03*
X008760Y021098D03*
X008761Y021101D03*
X008762Y021103D03*
X008764Y021110D03*
X008765Y021112D03*
X008766Y021115D03*
X008767Y021117D03*
X008767Y021118D03*
X008769Y021123D03*
X008770Y021125D03*
X008770Y021126D03*
X008771Y021128D03*
X008772Y021131D03*
X008772Y021132D03*
X008774Y021136D03*
X008774Y021137D03*
X008775Y021140D03*
X008776Y021142D03*
X008776Y021143D03*
X008777Y021145D03*
X008779Y021150D03*
X008779Y021151D03*
X008780Y021153D03*
X008909Y021110D03*
X008910Y021112D03*
X008911Y021115D03*
X008912Y021117D03*
X008912Y021118D03*
X008914Y021123D03*
X008915Y021125D03*
X008915Y021126D03*
X008916Y021128D03*
X008917Y021131D03*
X008917Y021132D03*
X008919Y021136D03*
X008919Y021137D03*
X008920Y021140D03*
X008921Y021142D03*
X008921Y021143D03*
X008922Y021145D03*
X008924Y021150D03*
X008924Y021151D03*
X008925Y021153D03*
X008926Y021156D03*
X008927Y021158D03*
X008929Y021165D03*
X008930Y021167D03*
X008931Y021170D03*
X008932Y021172D03*
X008932Y021173D03*
X008934Y021178D03*
X008935Y021180D03*
X008935Y021181D03*
X008936Y021183D03*
X008937Y021186D03*
X008939Y021191D03*
X008939Y021192D03*
X008940Y021195D03*
X008941Y021197D03*
X008942Y021200D03*
X008944Y021205D03*
X008944Y021206D03*
X008945Y021208D03*
X008946Y021211D03*
X008947Y021213D03*
X008950Y021222D03*
X008951Y021225D03*
X008952Y021227D03*
X008952Y021228D03*
X008954Y021233D03*
X008907Y021103D03*
X008906Y021101D03*
X008905Y021098D03*
X008904Y021096D03*
X008904Y021095D03*
X008902Y021090D03*
X008901Y021088D03*
X008901Y021087D03*
X008900Y021085D03*
X008899Y021082D03*
X008897Y021077D03*
X008897Y021076D03*
X008896Y021073D03*
X009280Y021072D03*
X009281Y021075D03*
X009282Y021076D03*
X009282Y021077D03*
X009284Y021081D03*
D76*
X009173Y021000D03*
X008277Y021231D03*
X010128Y021052D03*
X010128Y021051D03*
X010129Y021053D03*
D77*
X009784Y021033D03*
X009784Y021032D03*
X009783Y021031D03*
X009783Y021030D03*
X009782Y021028D03*
X009782Y021027D03*
X009782Y021026D03*
X009779Y021020D03*
X009779Y021018D03*
X009778Y021017D03*
X009778Y021016D03*
X009778Y021015D03*
X009777Y021013D03*
X009774Y021006D03*
X009774Y021005D03*
X009773Y021003D03*
X009773Y021002D03*
X009772Y021001D03*
X009772Y021000D03*
X007494Y021120D03*
D78*
X008193Y021001D03*
X009260Y021227D03*
D79*
X009307Y021182D03*
X009307Y021181D03*
X009269Y021053D03*
X009125Y021055D03*
X009125Y021056D03*
X009166Y021171D03*
X009167Y021172D03*
X008866Y021002D03*
X008866Y021001D03*
X008811Y021227D03*
X008324Y021178D03*
X008324Y021177D03*
X008186Y021176D03*
X008185Y021175D03*
X008182Y021172D03*
X008140Y021057D03*
X008140Y021056D03*
X008140Y021055D03*
X008275Y021048D03*
X007905Y021230D03*
X007591Y021183D03*
X007564Y021130D03*
X007547Y021080D03*
D80*
X009173Y021001D03*
D81*
X009262Y021001D03*
X009262Y021002D03*
X009262Y021003D03*
D82*
X009174Y021005D03*
X008193Y021002D03*
D83*
X009174Y021002D03*
X010133Y021063D03*
D84*
X010110Y021002D03*
X009185Y021188D03*
X009130Y021041D03*
X008810Y021213D03*
X008200Y021188D03*
X008146Y021041D03*
D85*
X008194Y021003D03*
D86*
X008141Y021051D03*
X008141Y021052D03*
X008187Y021177D03*
X008190Y021180D03*
X007904Y021227D03*
X007591Y021186D03*
X007591Y021185D03*
X007546Y021082D03*
X008810Y021223D03*
X008866Y021005D03*
X008866Y021003D03*
X009126Y021050D03*
X009126Y021051D03*
X009175Y021180D03*
X009306Y021185D03*
X009267Y021050D03*
D87*
X009173Y021003D03*
D88*
X010111Y021003D03*
X008146Y021042D03*
D89*
X007906Y021049D03*
X007906Y021054D03*
X007906Y021059D03*
X007906Y021064D03*
X007906Y021069D03*
X007751Y021019D03*
X007741Y021004D03*
X007406Y021044D03*
X008496Y021009D03*
X008516Y021064D03*
X008536Y021119D03*
X008556Y021174D03*
X008576Y021229D03*
X008831Y021149D03*
X008841Y021104D03*
X009276Y021064D03*
X009731Y021054D03*
X010111Y021104D03*
D90*
X009259Y021224D03*
X008194Y021004D03*
D91*
X007822Y021119D03*
X007815Y021109D03*
X007811Y021104D03*
X007801Y021089D03*
X007545Y021049D03*
X007542Y021039D03*
X007541Y021034D03*
X007536Y021019D03*
X007535Y021014D03*
X008726Y021004D03*
X008730Y021014D03*
X008737Y021034D03*
X008750Y021069D03*
X008757Y021089D03*
X008770Y021124D03*
X008777Y021144D03*
X008902Y021089D03*
X008915Y021124D03*
X008922Y021144D03*
X008935Y021179D03*
X008942Y021199D03*
X008946Y021209D03*
X008955Y021234D03*
D92*
X009174Y021004D03*
D93*
X009262Y021004D03*
D94*
X010111Y021004D03*
X007901Y021219D03*
D95*
X008194Y021005D03*
X009258Y021223D03*
D96*
X009262Y021005D03*
D97*
X009132Y021040D03*
X008867Y021016D03*
X008810Y021211D03*
X008810Y021212D03*
X008262Y021037D03*
X008147Y021040D03*
X007901Y021217D03*
X007901Y021218D03*
X010112Y021006D03*
X010112Y021005D03*
D98*
X009258Y021222D03*
X008195Y021006D03*
D99*
X008142Y021050D03*
X008270Y021043D03*
X008192Y021181D03*
X008811Y021222D03*
X008867Y021006D03*
X009127Y021048D03*
X009176Y021181D03*
X009306Y021186D03*
X007591Y021187D03*
X007561Y021128D03*
X007546Y021083D03*
D100*
X008275Y021226D03*
X009174Y021006D03*
D101*
X009263Y021006D03*
D102*
X008195Y021007D03*
D103*
X008810Y021220D03*
X008810Y021221D03*
X008866Y021008D03*
X008866Y021007D03*
X009305Y021187D03*
X007590Y021188D03*
D104*
X008275Y021225D03*
X009175Y021007D03*
D105*
X009263Y021007D03*
X009263Y021008D03*
D106*
X009260Y021042D03*
X009261Y021043D03*
X009301Y021192D03*
X008867Y021018D03*
X008867Y021017D03*
X008809Y021210D03*
X007900Y021216D03*
X007555Y021126D03*
X010112Y021007D03*
D107*
X008195Y021008D03*
D108*
X009175Y021008D03*
D109*
X009133Y021038D03*
X009190Y021191D03*
X008868Y021020D03*
X008810Y021208D03*
X008318Y021191D03*
X008279Y021236D03*
X008205Y021191D03*
X008260Y021036D03*
X007900Y021215D03*
X007587Y021192D03*
X010113Y021008D03*
D110*
X009279Y021069D03*
X008944Y021204D03*
X008953Y021229D03*
X008933Y021174D03*
X008924Y021149D03*
X008913Y021119D03*
X008904Y021094D03*
X008779Y021149D03*
X008768Y021119D03*
X008759Y021094D03*
X008748Y021064D03*
X008739Y021039D03*
X008728Y021009D03*
X007908Y021124D03*
X007908Y021129D03*
X007908Y021134D03*
X007908Y021139D03*
X007908Y021144D03*
X007908Y021149D03*
X007909Y021159D03*
X007909Y021164D03*
X007909Y021169D03*
X007909Y021174D03*
X007829Y021129D03*
X007808Y021099D03*
X007539Y021029D03*
X007538Y021024D03*
X007534Y021009D03*
D111*
X008195Y021009D03*
D112*
X008195Y021184D03*
X008867Y021009D03*
X009129Y021044D03*
X009180Y021184D03*
X009304Y021189D03*
X007590Y021189D03*
X007545Y021084D03*
D113*
X009175Y021009D03*
D114*
X009263Y021009D03*
D115*
X008810Y021209D03*
X007900Y021214D03*
X010113Y021009D03*
D116*
X008196Y021010D03*
D117*
X009175Y021010D03*
D118*
X009264Y021010D03*
X009264Y021011D03*
X009265Y021012D03*
X009265Y021013D03*
X009266Y021017D03*
D119*
X010113Y021010D03*
X008148Y021038D03*
D120*
X008196Y021011D03*
X009176Y021017D03*
X009255Y021217D03*
D121*
X009175Y021011D03*
D122*
X009134Y021037D03*
X008868Y021023D03*
X008258Y021035D03*
X007899Y021212D03*
X010114Y021012D03*
X010114Y021011D03*
D123*
X009255Y021216D03*
X008196Y021012D03*
D124*
X009175Y021012D03*
X009257Y021221D03*
D125*
X008271Y021216D03*
X008196Y021013D03*
D126*
X009176Y021013D03*
X009257Y021220D03*
D127*
X009258Y021040D03*
X008868Y021025D03*
X008809Y021202D03*
X008809Y021203D03*
X007898Y021210D03*
X007898Y021211D03*
X010114Y021013D03*
D128*
X008197Y021014D03*
D129*
X008319Y021189D03*
X008867Y021014D03*
X009262Y021044D03*
D130*
X009176Y021014D03*
D131*
X009265Y021014D03*
D132*
X009257Y021039D03*
X009299Y021194D03*
X010115Y021014D03*
X007898Y021209D03*
D133*
X008197Y021015D03*
D134*
X008867Y021015D03*
X009263Y021045D03*
X009302Y021191D03*
X007542Y021086D03*
D135*
X009176Y021015D03*
D136*
X009265Y021015D03*
X009265Y021016D03*
X009266Y021018D03*
X009266Y021020D03*
D137*
X009194Y021193D03*
X008868Y021027D03*
X008868Y021026D03*
X008809Y021201D03*
X008209Y021193D03*
X007585Y021193D03*
X010115Y021015D03*
D138*
X008846Y021078D03*
X008845Y021083D03*
X008841Y021101D03*
X008841Y021102D03*
X008840Y021105D03*
X008840Y021106D03*
X008836Y021125D03*
X008835Y021128D03*
X008831Y021146D03*
X008831Y021147D03*
X008830Y021151D03*
X008830Y021152D03*
X008300Y021086D03*
X008300Y021085D03*
X008296Y021077D03*
X007906Y021078D03*
X007906Y021077D03*
X007906Y021076D03*
X007906Y021075D03*
X007906Y021073D03*
X007806Y021097D03*
X007801Y021090D03*
X007796Y021083D03*
X007795Y021081D03*
X007791Y021076D03*
X007786Y021068D03*
X007785Y021067D03*
X007781Y021062D03*
X007781Y021061D03*
X007780Y021060D03*
X007776Y021055D03*
X007775Y021053D03*
X007770Y021046D03*
X007580Y021147D03*
X007546Y021056D03*
X007546Y021055D03*
X007545Y021053D03*
X007545Y021052D03*
X007545Y021051D03*
X007545Y021050D03*
X007535Y021016D03*
D139*
X008198Y021016D03*
X009254Y021212D03*
D140*
X009256Y021218D03*
X009176Y021016D03*
D141*
X009136Y021035D03*
X008868Y021028D03*
X008809Y021200D03*
X007897Y021207D03*
X007897Y021208D03*
X010115Y021016D03*
D142*
X008198Y021017D03*
D143*
X009256Y021038D03*
X010116Y021018D03*
X010116Y021017D03*
D144*
X008269Y021211D03*
X008198Y021018D03*
D145*
X009177Y021018D03*
D146*
X008198Y021019D03*
D147*
X008147Y021039D03*
X008867Y021019D03*
X009132Y021039D03*
D148*
X009177Y021019D03*
D149*
X009266Y021019D03*
D150*
X010116Y021019D03*
D151*
X009252Y021208D03*
X008199Y021020D03*
D152*
X009177Y021020D03*
X007519Y021233D03*
D153*
X008199Y021021D03*
D154*
X008149Y021037D03*
X007899Y021213D03*
X007540Y021087D03*
X008809Y021205D03*
X008809Y021206D03*
X008809Y021207D03*
X008867Y021022D03*
X008867Y021021D03*
X009259Y021041D03*
X009300Y021193D03*
D155*
X009196Y021021D03*
D156*
X009251Y021206D03*
X008199Y021022D03*
X007481Y021106D03*
D157*
X009196Y021022D03*
D158*
X008809Y021195D03*
X008313Y021195D03*
X008253Y021033D03*
X010118Y021022D03*
D159*
X009251Y021205D03*
X008200Y021023D03*
X007526Y021226D03*
D160*
X009196Y021023D03*
D161*
X008868Y021035D03*
X008808Y021192D03*
X008808Y021193D03*
X010118Y021023D03*
D162*
X009815Y021134D03*
X009808Y021114D03*
X008200Y021024D03*
D163*
X007908Y021154D03*
X007843Y021149D03*
X007818Y021114D03*
X008733Y021024D03*
X008753Y021079D03*
X008773Y021134D03*
X008898Y021079D03*
X008918Y021134D03*
X008938Y021189D03*
X009283Y021079D03*
D164*
X008868Y021024D03*
D165*
X009196Y021024D03*
D166*
X010118Y021024D03*
D167*
X009816Y021137D03*
X009816Y021138D03*
X009815Y021135D03*
X009814Y021133D03*
X009814Y021132D03*
X009813Y021130D03*
X009812Y021127D03*
X009812Y021126D03*
X009810Y021122D03*
X009810Y021121D03*
X009809Y021118D03*
X009808Y021116D03*
X009808Y021115D03*
X009807Y021113D03*
X009806Y021111D03*
X009806Y021110D03*
X009805Y021108D03*
X009805Y021107D03*
X009804Y021105D03*
X009803Y021102D03*
X009802Y021100D03*
X009250Y021203D03*
X008200Y021025D03*
D168*
X009196Y021025D03*
D169*
X009253Y021036D03*
X009199Y021195D03*
X008869Y021038D03*
X008869Y021037D03*
X008869Y021036D03*
X008809Y021191D03*
X008214Y021195D03*
X007895Y021200D03*
X007895Y021201D03*
X010119Y021025D03*
D170*
X008266Y021202D03*
X008201Y021026D03*
X007527Y021222D03*
D171*
X009196Y021027D03*
X009196Y021026D03*
D172*
X010119Y021026D03*
D173*
X009249Y021201D03*
X008265Y021201D03*
X008201Y021027D03*
X007527Y021221D03*
X007484Y021102D03*
D174*
X008156Y021033D03*
X009141Y021033D03*
X010120Y021028D03*
X010120Y021027D03*
D175*
X009249Y021200D03*
X008202Y021028D03*
X007528Y021220D03*
X007490Y021115D03*
D176*
X009195Y021028D03*
D177*
X008202Y021029D03*
X007485Y021099D03*
D178*
X008314Y021194D03*
X008868Y021029D03*
D179*
X009196Y021029D03*
D180*
X010120Y021029D03*
D181*
X009248Y021198D03*
X008202Y021030D03*
X007528Y021218D03*
D182*
X007897Y021206D03*
X008152Y021035D03*
X008279Y021235D03*
X008809Y021198D03*
X008809Y021197D03*
X008868Y021030D03*
X009263Y021235D03*
X009297Y021195D03*
D183*
X009196Y021030D03*
D184*
X009248Y021197D03*
X009842Y021195D03*
X009843Y021197D03*
X009844Y021200D03*
X009845Y021202D03*
X009845Y021203D03*
X009847Y021208D03*
X009848Y021211D03*
X009849Y021213D03*
X009850Y021216D03*
X009850Y021217D03*
X009852Y021222D03*
X009853Y021225D03*
X009854Y021227D03*
X009855Y021230D03*
X008264Y021198D03*
X008203Y021031D03*
X007529Y021217D03*
X007493Y021118D03*
X007485Y021098D03*
D185*
X009195Y021031D03*
D186*
X008264Y021197D03*
X008203Y021032D03*
X007529Y021215D03*
D187*
X009196Y021032D03*
D188*
X008869Y021045D03*
X008869Y021046D03*
X008807Y021182D03*
X010121Y021032D03*
D189*
X009246Y021033D03*
X008870Y021057D03*
X008807Y021170D03*
X008807Y021171D03*
D190*
X008809Y021194D03*
X008869Y021034D03*
X009138Y021034D03*
X008154Y021034D03*
D191*
X008256Y021034D03*
D192*
X008807Y021179D03*
X008869Y021049D03*
X009249Y021034D03*
D193*
X010122Y021034D03*
D194*
X010122Y021035D03*
X010123Y021037D03*
X008869Y021048D03*
X008807Y021178D03*
X008278Y021233D03*
D195*
X010123Y021036D03*
X010124Y021038D03*
D196*
X009254Y021037D03*
X007895Y021202D03*
X007536Y021088D03*
D197*
X007546Y021054D03*
X007581Y021149D03*
X007765Y021039D03*
X007776Y021054D03*
X007786Y021069D03*
X007790Y021074D03*
X007906Y021074D03*
X007906Y021079D03*
X008835Y021129D03*
X008836Y021124D03*
X008845Y021084D03*
X008846Y021079D03*
D198*
X008869Y021039D03*
D199*
X010124Y021039D03*
D200*
X009266Y021048D03*
X008321Y021186D03*
X008266Y021040D03*
D201*
X007893Y021196D03*
X007893Y021197D03*
X008808Y021186D03*
X008869Y021043D03*
X008869Y021042D03*
D202*
X008870Y021056D03*
X008807Y021172D03*
X009261Y021232D03*
X010125Y021043D03*
X010125Y021042D03*
X007889Y021185D03*
X007889Y021186D03*
D203*
X008271Y021044D03*
X009127Y021049D03*
X009267Y021049D03*
D204*
X008869Y021044D03*
X008808Y021184D03*
D205*
X008807Y021169D03*
X010126Y021044D03*
D206*
X010126Y021045D03*
X010126Y021046D03*
X008870Y021058D03*
X008870Y021060D03*
D207*
X008870Y021062D03*
X008870Y021063D03*
X008806Y021165D03*
X008806Y021166D03*
X009261Y021231D03*
X010127Y021048D03*
X007887Y021180D03*
D208*
X008806Y021164D03*
X010127Y021049D03*
D209*
X008870Y021051D03*
X008870Y021052D03*
X008870Y021050D03*
X007891Y021190D03*
D210*
X007887Y021178D03*
X010128Y021050D03*
D211*
X009308Y021178D03*
X009308Y021180D03*
X009164Y021168D03*
X009163Y021167D03*
X008279Y021052D03*
X008278Y021051D03*
X008179Y021168D03*
X007548Y021078D03*
X007548Y021077D03*
D212*
X008188Y021178D03*
X008323Y021181D03*
X008323Y021182D03*
X009173Y021178D03*
X009268Y021051D03*
D213*
X009272Y021057D03*
X009308Y021175D03*
X009308Y021176D03*
X009308Y021177D03*
X009162Y021166D03*
X009159Y021162D03*
X009158Y021161D03*
X009157Y021160D03*
X009124Y021067D03*
X009124Y021066D03*
X009124Y021065D03*
X009124Y021063D03*
X009124Y021062D03*
X009124Y021061D03*
X008282Y021056D03*
X008279Y021053D03*
X008139Y021063D03*
X008139Y021065D03*
X008139Y021066D03*
X008139Y021067D03*
X008139Y021068D03*
X008139Y021070D03*
X008139Y021071D03*
X008139Y021072D03*
X008173Y021161D03*
X008174Y021162D03*
X008177Y021166D03*
X008178Y021167D03*
X007567Y021132D03*
X007548Y021076D03*
X007548Y021075D03*
X007548Y021073D03*
D214*
X007563Y021129D03*
X007592Y021184D03*
X007905Y021229D03*
X008141Y021054D03*
X008324Y021179D03*
X008811Y021224D03*
D215*
X009160Y021164D03*
X008325Y021174D03*
X008280Y021054D03*
X008176Y021164D03*
D216*
X008807Y021174D03*
X008870Y021054D03*
D217*
X009125Y021054D03*
X009169Y021174D03*
X009270Y021054D03*
X008184Y021174D03*
X007547Y021079D03*
D218*
X010130Y021054D03*
D219*
X009161Y021165D03*
X008811Y021230D03*
X008811Y021231D03*
X008281Y021055D03*
X008171Y021158D03*
X008175Y021163D03*
X008176Y021165D03*
X007906Y021232D03*
X007906Y021233D03*
X007591Y021178D03*
X007591Y021177D03*
X007591Y021176D03*
X007591Y021175D03*
D220*
X008806Y021158D03*
X008871Y021070D03*
X010130Y021056D03*
D221*
X010131Y021057D03*
X010131Y021058D03*
X009275Y021122D03*
X009275Y021123D03*
X009274Y021121D03*
X009274Y021120D03*
X009273Y021118D03*
X009273Y021117D03*
X009272Y021116D03*
X009272Y021115D03*
X009271Y021113D03*
X009271Y021112D03*
X009270Y021110D03*
X009269Y021108D03*
X009269Y021107D03*
X009269Y021106D03*
X009268Y021105D03*
X009268Y021103D03*
X009267Y021102D03*
X009267Y021101D03*
X009266Y021098D03*
X009265Y021097D03*
X009265Y021096D03*
X009265Y021095D03*
X009264Y021093D03*
X009264Y021092D03*
X009263Y021091D03*
X009263Y021090D03*
X009262Y021088D03*
X009262Y021087D03*
X009261Y021086D03*
X009261Y021085D03*
X009261Y021230D03*
X008871Y021071D03*
X008806Y021156D03*
X008806Y021157D03*
X008277Y021230D03*
D222*
X008870Y021059D03*
D223*
X009124Y021064D03*
X009273Y021059D03*
X008139Y021064D03*
X008139Y021069D03*
X007548Y021074D03*
D224*
X009262Y021089D03*
X010131Y021059D03*
D225*
X010132Y021060D03*
X010132Y021061D03*
D226*
X008871Y021061D03*
D227*
X010132Y021062D03*
D228*
X008871Y021064D03*
D229*
X008276Y021229D03*
X010133Y021064D03*
D230*
X008871Y021066D03*
X008871Y021065D03*
D231*
X010133Y021065D03*
D232*
X008871Y021069D03*
X008806Y021159D03*
D233*
X008871Y021072D03*
X009266Y021100D03*
X009270Y021111D03*
D234*
X009285Y021083D03*
X009285Y021082D03*
X009284Y021080D03*
X007862Y021175D03*
X007860Y021173D03*
X007859Y021171D03*
X007858Y021170D03*
X007857Y021168D03*
X007856Y021167D03*
X007853Y021163D03*
X007851Y021160D03*
X007849Y021157D03*
X007846Y021153D03*
X007844Y021150D03*
D235*
X007854Y021164D03*
X007861Y021174D03*
X009286Y021084D03*
D236*
X007529Y021209D03*
X007485Y021089D03*
D237*
X007485Y021090D03*
D238*
X007485Y021091D03*
X007485Y021092D03*
D239*
X007486Y021093D03*
X007496Y021122D03*
D240*
X009264Y021094D03*
X009266Y021099D03*
X009268Y021104D03*
X009270Y021109D03*
X009272Y021114D03*
X009273Y021119D03*
D241*
X009841Y021193D03*
X009842Y021196D03*
X009843Y021198D03*
X009844Y021201D03*
X009846Y021207D03*
X009847Y021210D03*
X009848Y021212D03*
X009849Y021215D03*
X009850Y021218D03*
X009851Y021220D03*
X009851Y021221D03*
X009852Y021223D03*
X009853Y021226D03*
X009854Y021228D03*
X009855Y021231D03*
X009855Y021232D03*
X007528Y021216D03*
X007485Y021097D03*
X007485Y021096D03*
D242*
X007485Y021111D03*
X008267Y021205D03*
X009802Y021098D03*
X009803Y021101D03*
X009804Y021103D03*
X009805Y021106D03*
X009807Y021112D03*
X009809Y021117D03*
X009810Y021120D03*
X009812Y021125D03*
X009813Y021128D03*
X009814Y021131D03*
D243*
X009813Y021129D03*
X009811Y021124D03*
X009809Y021119D03*
X009804Y021104D03*
X009802Y021099D03*
X008266Y021204D03*
X007526Y021224D03*
X007483Y021104D03*
D244*
X007485Y021100D03*
X007491Y021116D03*
X008265Y021200D03*
D245*
X007484Y021101D03*
D246*
X007483Y021103D03*
X007487Y021113D03*
X009249Y021202D03*
D247*
X008267Y021206D03*
X007482Y021105D03*
D248*
X007481Y021107D03*
X007481Y021108D03*
X007525Y021228D03*
D249*
X007482Y021109D03*
D250*
X009251Y021204D03*
X009806Y021109D03*
D251*
X007484Y021110D03*
D252*
X007486Y021112D03*
D253*
X007488Y021114D03*
D254*
X007491Y021117D03*
D255*
X007493Y021119D03*
X009843Y021199D03*
X009845Y021204D03*
X009847Y021209D03*
X009854Y021229D03*
X009856Y021234D03*
D256*
X007529Y021211D03*
X007529Y021210D03*
X007497Y021123D03*
D257*
X009811Y021123D03*
X009816Y021136D03*
D258*
X007498Y021124D03*
D259*
X007498Y021125D03*
D260*
X007886Y021177D03*
X008806Y021163D03*
X008806Y021162D03*
X008806Y021161D03*
D261*
X009168Y021173D03*
X008183Y021173D03*
D262*
X007591Y021174D03*
X010116Y021184D03*
X010256Y021209D03*
X010266Y021224D03*
D263*
X007887Y021179D03*
D264*
X009308Y021179D03*
D265*
X007888Y021182D03*
X007888Y021183D03*
D266*
X007893Y021195D03*
X008310Y021196D03*
X008808Y021185D03*
X008808Y021183D03*
D267*
X007889Y021184D03*
D268*
X007903Y021224D03*
X008322Y021184D03*
D269*
X007891Y021189D03*
D270*
X008202Y021189D03*
X009187Y021189D03*
D271*
X008808Y021189D03*
X008278Y021234D03*
D272*
X008203Y021190D03*
X009188Y021190D03*
X009263Y021236D03*
D273*
X008319Y021190D03*
X007588Y021191D03*
D274*
X008808Y021190D03*
D275*
X007891Y021191D03*
D276*
X009841Y021192D03*
X009841Y021191D03*
X009846Y021205D03*
X009846Y021206D03*
X009856Y021233D03*
D277*
X009192Y021192D03*
X008317Y021192D03*
X008207Y021192D03*
D278*
X007527Y021194D03*
D279*
X007892Y021194D03*
D280*
X008211Y021194D03*
X009196Y021194D03*
D281*
X009842Y021194D03*
X009849Y021214D03*
X009853Y021224D03*
D282*
X007528Y021197D03*
X007528Y021196D03*
X007528Y021195D03*
D283*
X007528Y021198D03*
X007528Y021200D03*
D284*
X007528Y021199D03*
D285*
X007894Y021199D03*
X009262Y021234D03*
D286*
X008264Y021199D03*
D287*
X008809Y021199D03*
D288*
X009248Y021199D03*
D289*
X007529Y021201D03*
X007529Y021202D03*
D290*
X007529Y021203D03*
X007529Y021205D03*
D291*
X007896Y021203D03*
D292*
X008266Y021203D03*
D293*
X007529Y021204D03*
D294*
X008809Y021204D03*
D295*
X007896Y021205D03*
D296*
X007529Y021206D03*
D297*
X007529Y021207D03*
X007529Y021208D03*
D298*
X007525Y021227D03*
X008268Y021207D03*
X009252Y021207D03*
D299*
X008268Y021208D03*
D300*
X008268Y021209D03*
D301*
X007524Y021229D03*
X009253Y021209D03*
D302*
X008269Y021210D03*
D303*
X007523Y021230D03*
X009253Y021210D03*
D304*
X009253Y021211D03*
D305*
X007529Y021213D03*
X007529Y021212D03*
D306*
X007522Y021231D03*
X008269Y021212D03*
D307*
X008270Y021213D03*
D308*
X009254Y021213D03*
D309*
X007529Y021214D03*
D310*
X008270Y021214D03*
D311*
X008810Y021214D03*
D312*
X009255Y021214D03*
D313*
X008271Y021215D03*
D314*
X009255Y021215D03*
D315*
X008272Y021217D03*
D316*
X008272Y021218D03*
D317*
X007528Y021219D03*
D318*
X008272Y021219D03*
D319*
X008810Y021219D03*
D320*
X009257Y021219D03*
D321*
X009851Y021219D03*
D322*
X008273Y021220D03*
D323*
X008273Y021221D03*
D324*
X008273Y021222D03*
D325*
X007527Y021223D03*
D326*
X008274Y021223D03*
D327*
X008274Y021224D03*
D328*
X007526Y021225D03*
D329*
X009259Y021225D03*
D330*
X009259Y021226D03*
D331*
X008276Y021227D03*
D332*
X008276Y021228D03*
D333*
X009260Y021228D03*
D334*
X009260Y021229D03*
D335*
X007521Y021232D03*
D336*
X008278Y021232D03*
D337*
X007517Y021234D03*
D338*
X008280Y021239D03*
D339*
X009264Y021239D03*
D340*
X008281Y021240D03*
D341*
X009265Y021240D03*
D342*
X009989Y022675D03*
X009989Y022676D03*
M02*
