G75*
%MOIN*%
%OFA0B0*%
%FSLAX24Y24*%
%IPPOS*%
%LPD*%
%AMOC8*
5,1,8,0,0,1.08239X$1,22.5*
%
%ADD10R,0.0551X0.0433*%
%ADD11R,0.0472X0.0472*%
%ADD12R,0.0197X0.0591*%
%ADD13R,0.0591X0.0197*%
%ADD14C,0.0640*%
%ADD15R,0.0433X0.0551*%
%ADD16R,0.0551X0.0551*%
%ADD17R,0.0450X0.0300*%
%ADD18R,0.0433X0.0394*%
%ADD19R,0.0630X0.1181*%
%ADD20R,0.1900X0.2250*%
%ADD21R,0.0394X0.0433*%
%ADD22R,0.1669X0.1500*%
%ADD23R,0.0240X0.0870*%
%ADD24R,0.0945X0.0945*%
%ADD25R,0.1142X0.2126*%
%ADD26R,0.0315X0.0472*%
%ADD27R,0.0472X0.0315*%
%ADD28R,0.0945X0.0591*%
%ADD29R,0.0709X0.0630*%
%ADD30R,0.0669X0.0709*%
%ADD31R,0.3346X0.3465*%
%ADD32R,0.0787X0.1969*%
%ADD33R,0.0787X0.0472*%
%ADD34C,0.0236*%
%ADD35R,0.0870X0.0240*%
%ADD36R,0.0236X0.0472*%
%ADD37OC8,0.0740*%
%ADD38R,0.0472X0.0217*%
%ADD39R,0.0512X0.0591*%
%ADD40R,0.2000X0.1000*%
%ADD41R,0.0472X0.0354*%
%ADD42R,0.0594X0.0594*%
%ADD43C,0.0594*%
%ADD44R,0.0512X0.0630*%
%ADD45C,0.0100*%
%ADD46C,0.0436*%
%ADD47C,0.0120*%
%ADD48C,0.0160*%
%ADD49C,0.0397*%
%ADD50C,0.0240*%
%ADD51C,0.0400*%
%ADD52C,0.0860*%
%ADD53C,0.0760*%
D10*
X013180Y013709D03*
X013180Y014496D03*
X016480Y008696D03*
X016480Y007909D03*
X022115Y007087D03*
X022115Y006300D03*
X022940Y006289D03*
X022940Y007076D03*
X021360Y016799D03*
X021360Y017586D03*
X020340Y017586D03*
X020340Y016799D03*
D11*
X022124Y008706D03*
X022953Y008706D03*
X022953Y007880D03*
X022124Y007880D03*
X013180Y012039D03*
X013180Y012866D03*
X008693Y016752D03*
X007867Y016752D03*
X003745Y009771D03*
X002919Y009771D03*
X003667Y033352D03*
X004493Y033352D03*
X009067Y033352D03*
X009893Y033352D03*
X013967Y033352D03*
X014793Y033352D03*
X018867Y033352D03*
X019693Y033352D03*
X023967Y033352D03*
X024793Y033352D03*
X022993Y053802D03*
X022167Y053802D03*
X018243Y054002D03*
X017417Y054002D03*
X013293Y054102D03*
X012467Y054102D03*
X008293Y054552D03*
X007467Y054552D03*
X027467Y053752D03*
X028293Y053752D03*
D12*
X017835Y020973D03*
X017520Y020973D03*
X017205Y020973D03*
X016890Y020973D03*
X016575Y020973D03*
X016260Y020973D03*
X015945Y020973D03*
X015630Y020973D03*
X015315Y020973D03*
X015000Y020973D03*
X014686Y020973D03*
X014686Y016406D03*
X015000Y016406D03*
X015315Y016406D03*
X015630Y016406D03*
X015945Y016406D03*
X016260Y016406D03*
X016575Y016406D03*
X016890Y016406D03*
X017205Y016406D03*
X017520Y016406D03*
X017835Y016406D03*
D13*
X018544Y017115D03*
X018544Y017430D03*
X018544Y017744D03*
X018544Y018059D03*
X018544Y018374D03*
X018544Y018689D03*
X018544Y019004D03*
X018544Y019319D03*
X018544Y019634D03*
X018544Y019949D03*
X018544Y020264D03*
X013977Y020264D03*
X013977Y019949D03*
X013977Y019634D03*
X013977Y019319D03*
X013977Y019004D03*
X013977Y018689D03*
X013977Y018374D03*
X013977Y018059D03*
X013977Y017744D03*
X013977Y017430D03*
X013977Y017115D03*
D14*
X003323Y018484D02*
X002683Y018484D01*
X002783Y019484D02*
X003423Y019484D01*
X003323Y020484D02*
X002683Y020484D01*
X002783Y021484D02*
X003423Y021484D01*
X003323Y022484D02*
X002683Y022484D01*
D15*
X005986Y027602D03*
X006774Y027602D03*
X010867Y027809D03*
X011655Y027809D03*
X015917Y027659D03*
X016705Y027659D03*
X020917Y027809D03*
X021705Y027809D03*
X025867Y027709D03*
X026655Y027709D03*
X026274Y033352D03*
X025486Y033352D03*
X021274Y033352D03*
X020486Y033352D03*
X016274Y033352D03*
X015486Y033352D03*
X011874Y033352D03*
X011086Y033352D03*
X006274Y033352D03*
X005486Y033352D03*
X005286Y048552D03*
X006074Y048552D03*
X010336Y048652D03*
X011124Y048652D03*
X015336Y048552D03*
X016124Y048552D03*
X020336Y048552D03*
X021124Y048552D03*
X025486Y048552D03*
X026274Y048552D03*
X025855Y054204D03*
X025067Y054204D03*
X020974Y054402D03*
X020186Y054402D03*
X016474Y054302D03*
X015686Y054302D03*
X010874Y054302D03*
X010086Y054302D03*
X005774Y054352D03*
X004986Y054352D03*
X009736Y016752D03*
X010524Y016752D03*
X005526Y009771D03*
X004738Y009771D03*
D16*
X006428Y010898D03*
X007924Y010898D03*
D17*
X008630Y025352D03*
X008630Y025852D03*
X008630Y026352D03*
X008630Y026852D03*
X010680Y026852D03*
X010680Y026352D03*
X010680Y025852D03*
X010680Y025352D03*
X013730Y025352D03*
X013730Y025852D03*
X013730Y026352D03*
X013730Y026852D03*
X015780Y026852D03*
X015780Y026352D03*
X015780Y025852D03*
X015780Y025352D03*
X018630Y025352D03*
X018630Y025852D03*
X018630Y026352D03*
X018630Y026852D03*
X020680Y026852D03*
X020680Y026352D03*
X020680Y025852D03*
X020680Y025352D03*
X023880Y025352D03*
X023880Y025852D03*
X023880Y026352D03*
X023880Y026852D03*
X025930Y026852D03*
X025930Y026352D03*
X025930Y025852D03*
X025930Y025352D03*
X005830Y025352D03*
X005830Y025852D03*
X005830Y026352D03*
X005830Y026852D03*
X003780Y026852D03*
X003780Y026352D03*
X003780Y025852D03*
X003780Y025352D03*
X006430Y055652D03*
X006430Y056152D03*
X006430Y056652D03*
X006430Y057152D03*
X008480Y057152D03*
X008480Y056652D03*
X008480Y056152D03*
X008480Y055652D03*
X011430Y055652D03*
X011430Y056152D03*
X011430Y056652D03*
X011430Y057152D03*
X013480Y057152D03*
X013480Y056652D03*
X013480Y056152D03*
X013480Y055652D03*
X016430Y055652D03*
X016430Y056152D03*
X016430Y056652D03*
X016430Y057152D03*
X018480Y057152D03*
X018480Y056652D03*
X018480Y056152D03*
X018480Y055652D03*
X021530Y055652D03*
X021530Y056152D03*
X021530Y056652D03*
X021530Y057152D03*
X023580Y057152D03*
X023580Y056652D03*
X023580Y056152D03*
X023580Y055652D03*
X026630Y055652D03*
X026630Y056152D03*
X026630Y056652D03*
X026630Y057152D03*
X028680Y057152D03*
X028680Y056652D03*
X028680Y056152D03*
X028680Y055652D03*
D18*
X013653Y011209D03*
X012984Y011209D03*
X008344Y009830D03*
X007675Y009830D03*
D19*
X007118Y028688D03*
X005323Y028688D03*
X010282Y028862D03*
X012078Y028862D03*
X015482Y028762D03*
X017278Y028762D03*
X020282Y028862D03*
X022078Y028862D03*
X025282Y028862D03*
X027078Y028862D03*
X026078Y053043D03*
X024282Y053043D03*
X021078Y053043D03*
X019282Y053043D03*
X016078Y053043D03*
X014282Y053043D03*
X011078Y053043D03*
X009282Y053043D03*
X006078Y053043D03*
X004282Y053043D03*
D20*
X005180Y050327D03*
X010180Y050327D03*
X015180Y050327D03*
X020180Y050327D03*
X025180Y050327D03*
X026180Y031578D03*
X021180Y031578D03*
X016380Y031478D03*
X011180Y031578D03*
X006221Y031404D03*
D21*
X013029Y010246D03*
X013029Y009576D03*
D22*
X011802Y007411D03*
X014313Y007411D03*
D23*
X004904Y013400D03*
X004404Y013400D03*
X003904Y013400D03*
X003404Y013400D03*
X003404Y015460D03*
X003904Y015460D03*
X004404Y015460D03*
X004904Y015460D03*
D24*
X005278Y011848D03*
X003546Y011848D03*
X011756Y010886D03*
X011756Y009154D03*
D25*
X010386Y013815D03*
X006488Y013815D03*
D26*
X006134Y016602D03*
X005426Y016602D03*
X022415Y010220D03*
X023124Y010220D03*
D27*
X013101Y016169D03*
X013101Y016878D03*
X004730Y017107D03*
X004730Y016398D03*
D28*
X011936Y013930D03*
X011936Y012119D03*
D29*
X009354Y010806D03*
X009354Y009704D03*
D30*
X010367Y009213D03*
X010367Y010827D03*
D31*
X011180Y038452D03*
X011180Y043452D03*
X006180Y043452D03*
X006180Y038452D03*
X016280Y038452D03*
X016180Y043452D03*
X021180Y043452D03*
X021180Y038452D03*
X026180Y038452D03*
X026180Y043452D03*
D32*
X025180Y046689D03*
X027180Y046689D03*
X022180Y046689D03*
X020180Y046689D03*
X017180Y046689D03*
X015180Y046689D03*
X012180Y046689D03*
X010180Y046689D03*
X007180Y046689D03*
X005180Y046689D03*
X005180Y035216D03*
X007180Y035216D03*
X010180Y035216D03*
X012180Y035216D03*
X015280Y035216D03*
X017280Y035216D03*
X020180Y035216D03*
X022180Y035216D03*
X025180Y035216D03*
X027180Y035216D03*
D33*
X011930Y016032D03*
X011930Y014772D03*
D34*
X013876Y010551D02*
X013876Y009253D01*
X013876Y010551D02*
X014584Y010551D01*
X014584Y009253D01*
X013876Y009253D01*
X013876Y009488D02*
X014584Y009488D01*
X014584Y009723D02*
X013876Y009723D01*
X013876Y009958D02*
X014584Y009958D01*
X014584Y010193D02*
X013876Y010193D01*
X013876Y010428D02*
X014584Y010428D01*
X014979Y005906D02*
X013681Y005906D01*
X014979Y005906D02*
X014979Y005198D01*
X013681Y005198D01*
X013681Y005906D01*
X013681Y005433D02*
X014979Y005433D01*
X014979Y005668D02*
X013681Y005668D01*
X013681Y005903D02*
X014979Y005903D01*
X017534Y024803D02*
X017534Y026101D01*
X017534Y024803D02*
X016826Y024803D01*
X016826Y026101D01*
X017534Y026101D01*
X017534Y025038D02*
X016826Y025038D01*
X016826Y025273D02*
X017534Y025273D01*
X017534Y025508D02*
X016826Y025508D01*
X016826Y025743D02*
X017534Y025743D01*
X017534Y025978D02*
X016826Y025978D01*
X012534Y026101D02*
X012534Y024803D01*
X011826Y024803D01*
X011826Y026101D01*
X012534Y026101D01*
X012534Y025038D02*
X011826Y025038D01*
X011826Y025273D02*
X012534Y025273D01*
X012534Y025508D02*
X011826Y025508D01*
X011826Y025743D02*
X012534Y025743D01*
X012534Y025978D02*
X011826Y025978D01*
X007534Y026101D02*
X007534Y024803D01*
X006826Y024803D01*
X006826Y026101D01*
X007534Y026101D01*
X007534Y025038D02*
X006826Y025038D01*
X006826Y025273D02*
X007534Y025273D01*
X007534Y025508D02*
X006826Y025508D01*
X006826Y025743D02*
X007534Y025743D01*
X007534Y025978D02*
X006826Y025978D01*
X003126Y028503D02*
X003126Y029801D01*
X003834Y029801D01*
X003834Y028503D01*
X003126Y028503D01*
X003126Y028738D02*
X003834Y028738D01*
X003834Y028973D02*
X003126Y028973D01*
X003126Y029208D02*
X003834Y029208D01*
X003834Y029443D02*
X003126Y029443D01*
X003126Y029678D02*
X003834Y029678D01*
X022534Y026101D02*
X022534Y024803D01*
X021826Y024803D01*
X021826Y026101D01*
X022534Y026101D01*
X022534Y025038D02*
X021826Y025038D01*
X021826Y025273D02*
X022534Y025273D01*
X022534Y025508D02*
X021826Y025508D01*
X021826Y025743D02*
X022534Y025743D01*
X022534Y025978D02*
X021826Y025978D01*
X027534Y026101D02*
X027534Y024803D01*
X026826Y024803D01*
X026826Y026101D01*
X027534Y026101D01*
X027534Y025038D02*
X026826Y025038D01*
X026826Y025273D02*
X027534Y025273D01*
X027534Y025508D02*
X026826Y025508D01*
X026826Y025743D02*
X027534Y025743D01*
X027534Y025978D02*
X026826Y025978D01*
X025534Y055803D02*
X025534Y057101D01*
X025534Y055803D02*
X024826Y055803D01*
X024826Y057101D01*
X025534Y057101D01*
X025534Y056038D02*
X024826Y056038D01*
X024826Y056273D02*
X025534Y056273D01*
X025534Y056508D02*
X024826Y056508D01*
X024826Y056743D02*
X025534Y056743D01*
X025534Y056978D02*
X024826Y056978D01*
X020534Y057101D02*
X020534Y055803D01*
X019826Y055803D01*
X019826Y057101D01*
X020534Y057101D01*
X020534Y056038D02*
X019826Y056038D01*
X019826Y056273D02*
X020534Y056273D01*
X020534Y056508D02*
X019826Y056508D01*
X019826Y056743D02*
X020534Y056743D01*
X020534Y056978D02*
X019826Y056978D01*
X015534Y057101D02*
X015534Y055803D01*
X014826Y055803D01*
X014826Y057101D01*
X015534Y057101D01*
X015534Y056038D02*
X014826Y056038D01*
X014826Y056273D02*
X015534Y056273D01*
X015534Y056508D02*
X014826Y056508D01*
X014826Y056743D02*
X015534Y056743D01*
X015534Y056978D02*
X014826Y056978D01*
X010534Y057101D02*
X010534Y055803D01*
X009826Y055803D01*
X009826Y057101D01*
X010534Y057101D01*
X010534Y056038D02*
X009826Y056038D01*
X009826Y056273D02*
X010534Y056273D01*
X010534Y056508D02*
X009826Y056508D01*
X009826Y056743D02*
X010534Y056743D01*
X010534Y056978D02*
X009826Y056978D01*
X005534Y057101D02*
X005534Y055803D01*
X004826Y055803D01*
X004826Y057101D01*
X005534Y057101D01*
X005534Y056038D02*
X004826Y056038D01*
X004826Y056273D02*
X005534Y056273D01*
X005534Y056508D02*
X004826Y056508D01*
X004826Y056743D02*
X005534Y056743D01*
X005534Y056978D02*
X004826Y056978D01*
D35*
X024943Y010820D03*
X024943Y010320D03*
X024943Y009820D03*
X024943Y009320D03*
X027003Y009320D03*
X027003Y009820D03*
X027003Y010320D03*
X027003Y010820D03*
D36*
X027050Y019140D03*
X027550Y019140D03*
X028050Y019140D03*
X028550Y019140D03*
X029050Y019140D03*
X029550Y019140D03*
X030050Y019140D03*
X030550Y019140D03*
X030550Y021345D03*
X030050Y021345D03*
X029550Y021345D03*
X029050Y021345D03*
X028550Y021345D03*
X028050Y021345D03*
X027550Y021345D03*
X027050Y021345D03*
X025630Y021355D03*
X025130Y021355D03*
X024630Y021355D03*
X024130Y021355D03*
X023630Y021355D03*
X023130Y021355D03*
X022630Y021355D03*
X022130Y021355D03*
X022130Y019150D03*
X022630Y019150D03*
X023130Y019150D03*
X023630Y019150D03*
X024130Y019150D03*
X024630Y019150D03*
X025130Y019150D03*
X025630Y019150D03*
D37*
X026180Y017952D03*
X026180Y016952D03*
X026180Y015952D03*
X026180Y014952D03*
X027180Y014952D03*
X027180Y015952D03*
X027180Y016952D03*
X027180Y017952D03*
X029180Y017952D03*
X029180Y016952D03*
X029180Y015952D03*
X029180Y014952D03*
X030180Y014952D03*
X030180Y015952D03*
X030180Y016952D03*
X030180Y017952D03*
X024080Y018092D03*
X024080Y017092D03*
X024080Y016092D03*
X024080Y015092D03*
X023080Y015092D03*
X023080Y016092D03*
X023080Y017092D03*
X023080Y018092D03*
D38*
X010327Y017819D03*
X010327Y018567D03*
X009304Y018567D03*
X009304Y018193D03*
X009304Y017819D03*
D39*
X007260Y018104D03*
X006590Y018104D03*
D40*
X009530Y007837D03*
X009530Y005868D03*
D41*
X017370Y005839D03*
X017370Y005339D03*
X017370Y006516D03*
X017370Y007016D03*
X019890Y007016D03*
X019890Y006516D03*
X019890Y005839D03*
X019890Y005339D03*
D42*
X029549Y008052D03*
D43*
X028761Y008052D03*
X027974Y008052D03*
X027186Y008052D03*
X026399Y008052D03*
X025611Y008052D03*
D44*
X023204Y005252D03*
X022456Y005252D03*
D45*
X022070Y005042D02*
X022070Y004884D01*
X022146Y004807D01*
X022766Y004807D01*
X022830Y004872D01*
X022894Y004807D01*
X023514Y004807D01*
X023590Y004884D01*
X023590Y005042D01*
X025867Y005042D01*
X025990Y005165D01*
X026609Y005784D01*
X026609Y007677D01*
X026641Y007690D01*
X026761Y007810D01*
X026782Y007861D01*
X026804Y007818D01*
X026845Y007761D01*
X026895Y007711D01*
X026952Y007670D01*
X027015Y007638D01*
X027082Y007616D01*
X027148Y007606D01*
X027148Y008014D01*
X027225Y008014D01*
X027225Y007606D01*
X027291Y007616D01*
X027358Y007638D01*
X027421Y007670D01*
X027478Y007711D01*
X027527Y007761D01*
X027569Y007818D01*
X027591Y007861D01*
X027612Y007810D01*
X027732Y007690D01*
X027889Y007625D01*
X028059Y007625D01*
X028216Y007690D01*
X028336Y007810D01*
X028367Y007887D01*
X028399Y007810D01*
X028519Y007690D01*
X028676Y007625D01*
X028846Y007625D01*
X029003Y007690D01*
X029121Y007808D01*
X029121Y007701D01*
X029197Y007625D01*
X029900Y007625D01*
X029976Y007701D01*
X029976Y008403D01*
X029900Y008480D01*
X029197Y008480D01*
X029121Y008403D01*
X029121Y008296D01*
X029003Y008414D01*
X028970Y008428D01*
X028970Y010081D01*
X028859Y010192D01*
X028541Y010510D01*
X027552Y010510D01*
X027492Y010570D01*
X026514Y010570D01*
X026438Y010494D01*
X026438Y010147D01*
X026514Y010070D01*
X026438Y009994D01*
X026438Y009647D01*
X026507Y009578D01*
X026476Y009561D01*
X026448Y009533D01*
X026429Y009498D01*
X026418Y009460D01*
X026418Y009330D01*
X026993Y009330D01*
X026993Y009310D01*
X027013Y009310D01*
X027013Y009050D01*
X027458Y009050D01*
X027496Y009061D01*
X027530Y009080D01*
X027558Y009108D01*
X027578Y009143D01*
X027588Y009181D01*
X027588Y009310D01*
X027013Y009310D01*
X027013Y009330D01*
X027588Y009330D01*
X027588Y009460D01*
X027578Y009498D01*
X027558Y009533D01*
X027530Y009561D01*
X027500Y009578D01*
X027552Y009630D01*
X027733Y009630D01*
X027790Y009574D01*
X027790Y008439D01*
X027732Y008414D01*
X027612Y008294D01*
X027591Y008244D01*
X027569Y008287D01*
X027527Y008344D01*
X027478Y008393D01*
X027421Y008435D01*
X027358Y008467D01*
X027291Y008489D01*
X027225Y008499D01*
X027225Y008091D01*
X027148Y008091D01*
X027148Y008499D01*
X027082Y008489D01*
X027015Y008467D01*
X026952Y008435D01*
X026895Y008393D01*
X026845Y008344D01*
X026804Y008287D01*
X026782Y008244D01*
X026761Y008294D01*
X026641Y008414D01*
X026484Y008480D01*
X026314Y008480D01*
X026157Y008414D01*
X026037Y008294D01*
X026005Y008218D01*
X025974Y008294D01*
X025853Y008414D01*
X025696Y008480D01*
X025527Y008480D01*
X025370Y008414D01*
X025249Y008294D01*
X025184Y008137D01*
X025184Y007967D01*
X025249Y007810D01*
X025370Y007690D01*
X025401Y007677D01*
X025401Y006371D01*
X025093Y006062D01*
X023345Y006062D01*
X023345Y006112D01*
X023709Y006112D01*
X023820Y006224D01*
X024020Y006424D01*
X024020Y007874D01*
X024320Y008174D01*
X024320Y009074D01*
X024377Y009130D01*
X024394Y009130D01*
X024454Y009070D01*
X025432Y009070D01*
X025474Y009112D01*
X025759Y009112D01*
X025870Y009224D01*
X026070Y009424D01*
X026070Y010870D01*
X026083Y010857D01*
X026100Y010850D01*
X026100Y010828D01*
X026205Y010722D01*
X026287Y010640D01*
X026444Y010640D01*
X026514Y010570D01*
X027492Y010570D01*
X027568Y010647D01*
X027568Y010994D01*
X027492Y011070D01*
X026623Y011070D01*
X026628Y011083D01*
X026628Y011222D01*
X026575Y011350D01*
X026572Y011352D01*
X031180Y011352D01*
X031180Y004682D01*
X020380Y004682D01*
X020380Y005105D01*
X020443Y005042D01*
X022070Y005042D01*
X022070Y005024D02*
X020380Y005024D01*
X020380Y004925D02*
X022070Y004925D01*
X022127Y004827D02*
X020380Y004827D01*
X020380Y004728D02*
X031180Y004728D01*
X031180Y004827D02*
X023533Y004827D01*
X023590Y004925D02*
X031180Y004925D01*
X031180Y005024D02*
X023590Y005024D01*
X022875Y004827D02*
X022785Y004827D01*
X023345Y006107D02*
X025138Y006107D01*
X025237Y006206D02*
X023802Y006206D01*
X023901Y006304D02*
X025335Y006304D01*
X025401Y006403D02*
X023999Y006403D01*
X024020Y006501D02*
X025401Y006501D01*
X025401Y006600D02*
X024020Y006600D01*
X024020Y006698D02*
X025401Y006698D01*
X025401Y006797D02*
X025088Y006797D01*
X025054Y006763D02*
X025168Y006878D01*
X025230Y007027D01*
X025230Y007188D01*
X025168Y007337D01*
X025054Y007452D01*
X024905Y007513D01*
X024743Y007513D01*
X024594Y007452D01*
X024480Y007337D01*
X024418Y007188D01*
X024418Y007027D01*
X024480Y006878D01*
X024594Y006763D01*
X024743Y006702D01*
X024905Y006702D01*
X025054Y006763D01*
X025176Y006895D02*
X025401Y006895D01*
X025401Y006994D02*
X025216Y006994D01*
X025230Y007092D02*
X025401Y007092D01*
X025401Y007191D02*
X025229Y007191D01*
X025188Y007289D02*
X025401Y007289D01*
X025401Y007388D02*
X025118Y007388D01*
X024970Y007486D02*
X025401Y007486D01*
X025401Y007585D02*
X024020Y007585D01*
X024020Y007683D02*
X025386Y007683D01*
X025278Y007782D02*
X024020Y007782D01*
X024027Y007880D02*
X025220Y007880D01*
X025184Y007979D02*
X024125Y007979D01*
X024224Y008077D02*
X025184Y008077D01*
X025200Y008176D02*
X024320Y008176D01*
X024320Y008274D02*
X025241Y008274D01*
X025328Y008373D02*
X024320Y008373D01*
X024320Y008471D02*
X025507Y008471D01*
X025716Y008471D02*
X026294Y008471D01*
X026115Y008373D02*
X025895Y008373D01*
X025982Y008274D02*
X026029Y008274D01*
X026503Y008471D02*
X027029Y008471D01*
X027148Y008471D02*
X027225Y008471D01*
X027225Y008373D02*
X027148Y008373D01*
X027148Y008274D02*
X027225Y008274D01*
X027225Y008176D02*
X027148Y008176D01*
X027148Y007979D02*
X027225Y007979D01*
X027225Y007880D02*
X027148Y007880D01*
X027148Y007782D02*
X027225Y007782D01*
X027225Y007683D02*
X027148Y007683D01*
X026933Y007683D02*
X026624Y007683D01*
X026609Y007585D02*
X031180Y007585D01*
X031180Y007683D02*
X029958Y007683D01*
X029976Y007782D02*
X031180Y007782D01*
X031180Y007880D02*
X029976Y007880D01*
X029976Y007979D02*
X031180Y007979D01*
X031180Y008077D02*
X029976Y008077D01*
X029976Y008176D02*
X031180Y008176D01*
X031180Y008274D02*
X029976Y008274D01*
X029976Y008373D02*
X031180Y008373D01*
X031180Y008471D02*
X029908Y008471D01*
X029189Y008471D02*
X028970Y008471D01*
X028970Y008570D02*
X031180Y008570D01*
X031180Y008668D02*
X028970Y008668D01*
X028970Y008767D02*
X031180Y008767D01*
X031180Y008865D02*
X028970Y008865D01*
X028970Y008964D02*
X031180Y008964D01*
X031180Y009062D02*
X028970Y009062D01*
X028970Y009161D02*
X031180Y009161D01*
X031180Y009259D02*
X028970Y009259D01*
X028970Y009358D02*
X031180Y009358D01*
X031180Y009456D02*
X028970Y009456D01*
X028970Y009555D02*
X031180Y009555D01*
X031180Y009653D02*
X028970Y009653D01*
X028970Y009752D02*
X031180Y009752D01*
X031180Y009850D02*
X028970Y009850D01*
X028970Y009949D02*
X031180Y009949D01*
X031180Y010047D02*
X028970Y010047D01*
X028905Y010146D02*
X031180Y010146D01*
X031180Y010244D02*
X028807Y010244D01*
X028708Y010343D02*
X031180Y010343D01*
X031180Y010441D02*
X028610Y010441D01*
X028383Y010130D02*
X028590Y009924D01*
X028590Y008444D01*
X028519Y008414D01*
X028399Y008294D01*
X028367Y008218D01*
X028336Y008294D01*
X028216Y008414D01*
X028170Y008433D01*
X028170Y009731D01*
X028059Y009842D01*
X027891Y010010D01*
X027552Y010010D01*
X027492Y010070D01*
X026514Y010070D01*
X027492Y010070D01*
X027552Y010130D01*
X028383Y010130D01*
X028466Y010047D02*
X027515Y010047D01*
X027952Y009949D02*
X028565Y009949D01*
X028590Y009850D02*
X028051Y009850D01*
X028149Y009752D02*
X028590Y009752D01*
X028590Y009653D02*
X028170Y009653D01*
X028170Y009555D02*
X028590Y009555D01*
X028590Y009456D02*
X028170Y009456D01*
X028170Y009358D02*
X028590Y009358D01*
X028590Y009259D02*
X028170Y009259D01*
X028170Y009161D02*
X028590Y009161D01*
X028590Y009062D02*
X028170Y009062D01*
X028170Y008964D02*
X028590Y008964D01*
X028590Y008865D02*
X028170Y008865D01*
X028170Y008767D02*
X028590Y008767D01*
X028590Y008668D02*
X028170Y008668D01*
X028170Y008570D02*
X028590Y008570D01*
X028590Y008471D02*
X028170Y008471D01*
X028257Y008373D02*
X028478Y008373D01*
X028391Y008274D02*
X028344Y008274D01*
X028365Y007880D02*
X028370Y007880D01*
X028427Y007782D02*
X028307Y007782D01*
X028199Y007683D02*
X028536Y007683D01*
X028987Y007683D02*
X029139Y007683D01*
X029121Y007782D02*
X029095Y007782D01*
X029121Y008373D02*
X029045Y008373D01*
X027790Y008471D02*
X027344Y008471D01*
X027498Y008373D02*
X027690Y008373D01*
X027603Y008274D02*
X027575Y008274D01*
X027790Y008570D02*
X024320Y008570D01*
X024320Y008668D02*
X027790Y008668D01*
X027790Y008767D02*
X024320Y008767D01*
X024320Y008865D02*
X027790Y008865D01*
X027790Y008964D02*
X024320Y008964D01*
X024320Y009062D02*
X026507Y009062D01*
X026510Y009061D02*
X026549Y009050D01*
X026993Y009050D01*
X026993Y009310D01*
X026418Y009310D01*
X026418Y009181D01*
X026429Y009143D01*
X026448Y009108D01*
X026476Y009080D01*
X026510Y009061D01*
X026424Y009161D02*
X025807Y009161D01*
X025906Y009259D02*
X026418Y009259D01*
X026418Y009358D02*
X026004Y009358D01*
X026070Y009456D02*
X026418Y009456D01*
X026471Y009555D02*
X026070Y009555D01*
X026070Y009653D02*
X026438Y009653D01*
X026438Y009752D02*
X026070Y009752D01*
X026070Y009850D02*
X026438Y009850D01*
X026438Y009949D02*
X026070Y009949D01*
X026070Y010047D02*
X026491Y010047D01*
X026439Y010146D02*
X026070Y010146D01*
X026070Y010244D02*
X026438Y010244D01*
X026438Y010343D02*
X026070Y010343D01*
X026070Y010441D02*
X026438Y010441D01*
X026484Y010540D02*
X026070Y010540D01*
X026070Y010638D02*
X026447Y010638D01*
X026362Y010820D02*
X026280Y010902D01*
X026280Y011152D01*
X026362Y010820D02*
X027003Y010820D01*
X026628Y011131D02*
X031180Y011131D01*
X031180Y011229D02*
X026625Y011229D01*
X026584Y011328D02*
X031180Y011328D01*
X031180Y011032D02*
X027530Y011032D01*
X027568Y010934D02*
X031180Y010934D01*
X031180Y010835D02*
X027568Y010835D01*
X027568Y010737D02*
X031180Y010737D01*
X031180Y010638D02*
X027560Y010638D01*
X027523Y010540D02*
X031180Y010540D01*
X031180Y007486D02*
X030482Y007486D01*
X030417Y007513D02*
X030255Y007513D01*
X030106Y007452D01*
X029992Y007337D01*
X029930Y007188D01*
X029930Y007027D01*
X029992Y006878D01*
X030106Y006763D01*
X030255Y006702D01*
X030417Y006702D01*
X030566Y006763D01*
X030680Y006878D01*
X030742Y007027D01*
X030742Y007188D01*
X030680Y007337D01*
X030566Y007452D01*
X030417Y007513D01*
X030190Y007486D02*
X026609Y007486D01*
X026609Y007388D02*
X030042Y007388D01*
X029972Y007289D02*
X026609Y007289D01*
X026609Y007191D02*
X029931Y007191D01*
X029930Y007092D02*
X026609Y007092D01*
X026609Y006994D02*
X029944Y006994D01*
X029984Y006895D02*
X026609Y006895D01*
X026609Y006797D02*
X030072Y006797D01*
X030599Y006797D02*
X031180Y006797D01*
X031180Y006895D02*
X030687Y006895D01*
X030728Y006994D02*
X031180Y006994D01*
X031180Y007092D02*
X030742Y007092D01*
X030741Y007191D02*
X031180Y007191D01*
X031180Y007289D02*
X030700Y007289D01*
X030629Y007388D02*
X031180Y007388D01*
X031180Y006698D02*
X026609Y006698D01*
X026609Y006600D02*
X031180Y006600D01*
X031180Y006501D02*
X026609Y006501D01*
X026609Y006403D02*
X031180Y006403D01*
X031180Y006304D02*
X026609Y006304D01*
X026609Y006206D02*
X031180Y006206D01*
X031180Y006107D02*
X026609Y006107D01*
X026609Y006009D02*
X031180Y006009D01*
X031180Y005910D02*
X026609Y005910D01*
X026609Y005812D02*
X031180Y005812D01*
X031180Y005713D02*
X026538Y005713D01*
X026440Y005615D02*
X031180Y005615D01*
X031180Y005516D02*
X026341Y005516D01*
X026243Y005418D02*
X031180Y005418D01*
X031180Y005319D02*
X026144Y005319D01*
X026046Y005221D02*
X031180Y005221D01*
X031180Y005122D02*
X025947Y005122D01*
X024561Y006797D02*
X024020Y006797D01*
X024020Y006895D02*
X024473Y006895D01*
X024432Y006994D02*
X024020Y006994D01*
X024020Y007092D02*
X024418Y007092D01*
X024419Y007191D02*
X024020Y007191D01*
X024020Y007289D02*
X024460Y007289D01*
X024530Y007388D02*
X024020Y007388D01*
X024020Y007486D02*
X024678Y007486D01*
X023590Y008631D02*
X023451Y008492D01*
X023319Y008492D01*
X023319Y008996D01*
X023243Y009073D01*
X023163Y009073D01*
X023163Y009243D01*
X023175Y009255D01*
X023228Y009383D01*
X023228Y009522D01*
X023175Y009650D01*
X023077Y009747D01*
X022949Y009800D01*
X022811Y009800D01*
X022683Y009747D01*
X022585Y009650D01*
X022532Y009522D01*
X022532Y009383D01*
X022585Y009255D01*
X022683Y009157D01*
X022743Y009132D01*
X022743Y009073D01*
X022663Y009073D01*
X022587Y008996D01*
X022587Y008912D01*
X022491Y008912D01*
X022491Y008996D01*
X022415Y009073D01*
X021834Y009073D01*
X021758Y008996D01*
X021758Y008892D01*
X020951Y008892D01*
X020840Y008781D01*
X020640Y008581D01*
X020640Y007281D01*
X020565Y007206D01*
X020380Y007206D01*
X020380Y010011D01*
X020394Y010202D01*
X020434Y010389D01*
X020501Y010568D01*
X020593Y010736D01*
X020708Y010889D01*
X020843Y011025D01*
X020996Y011139D01*
X021164Y011231D01*
X021205Y011246D01*
X021190Y011231D01*
X020990Y011031D01*
X020990Y009700D01*
X020983Y009697D01*
X020885Y009600D01*
X020832Y009472D01*
X020832Y009333D01*
X020885Y009205D01*
X020983Y009107D01*
X021111Y009054D01*
X021249Y009054D01*
X021377Y009107D01*
X021475Y009205D01*
X021528Y009333D01*
X021528Y009472D01*
X021475Y009600D01*
X021377Y009697D01*
X021370Y009700D01*
X021370Y010391D01*
X021385Y010355D01*
X021483Y010257D01*
X021611Y010204D01*
X021749Y010204D01*
X021877Y010257D01*
X021975Y010355D01*
X022028Y010483D01*
X022028Y010622D01*
X022025Y010629D01*
X022027Y010630D01*
X024394Y010630D01*
X024454Y010570D01*
X024378Y010494D01*
X024378Y010147D01*
X024454Y010070D01*
X024378Y009994D01*
X024378Y009992D01*
X024170Y009992D01*
X024170Y010081D01*
X024059Y010192D01*
X023841Y010410D01*
X023411Y010410D01*
X023411Y010511D01*
X023335Y010587D01*
X022912Y010587D01*
X022836Y010511D01*
X022836Y009930D01*
X022912Y009854D01*
X023335Y009854D01*
X023411Y009930D01*
X023411Y010030D01*
X023683Y010030D01*
X023790Y009924D01*
X023790Y009881D01*
X023590Y009681D01*
X023590Y008631D01*
X023590Y008668D02*
X023319Y008668D01*
X023319Y008570D02*
X023529Y008570D01*
X023590Y008767D02*
X023319Y008767D01*
X023319Y008865D02*
X023590Y008865D01*
X023590Y008964D02*
X023319Y008964D01*
X023253Y009062D02*
X023590Y009062D01*
X023590Y009161D02*
X023163Y009161D01*
X023177Y009259D02*
X023590Y009259D01*
X023590Y009358D02*
X023218Y009358D01*
X023228Y009456D02*
X023590Y009456D01*
X023590Y009555D02*
X023214Y009555D01*
X023171Y009653D02*
X023590Y009653D01*
X023661Y009752D02*
X023066Y009752D01*
X022836Y009949D02*
X022718Y009949D01*
X022723Y009965D02*
X022723Y010192D01*
X022444Y010192D01*
X022444Y010249D01*
X022723Y010249D01*
X022723Y010476D01*
X022712Y010515D01*
X022693Y010549D01*
X022665Y010577D01*
X022630Y010596D01*
X022592Y010607D01*
X022444Y010607D01*
X022444Y010249D01*
X022386Y010249D01*
X022386Y010192D01*
X022108Y010192D01*
X022108Y009965D01*
X022118Y009926D01*
X022138Y009892D01*
X022165Y009864D01*
X022200Y009844D01*
X022238Y009834D01*
X022386Y009834D01*
X022386Y010192D01*
X022444Y010192D01*
X022444Y009834D01*
X022592Y009834D01*
X022630Y009844D01*
X022665Y009864D01*
X022693Y009892D01*
X022712Y009926D01*
X022723Y009965D01*
X022723Y010047D02*
X022836Y010047D01*
X022836Y010146D02*
X022723Y010146D01*
X022836Y010244D02*
X022444Y010244D01*
X022386Y010244D02*
X021846Y010244D01*
X021963Y010343D02*
X022108Y010343D01*
X022108Y010249D02*
X022108Y010476D01*
X022118Y010515D01*
X022138Y010549D01*
X022165Y010577D01*
X022200Y010596D01*
X022238Y010607D01*
X022386Y010607D01*
X022386Y010249D01*
X022108Y010249D01*
X022108Y010146D02*
X021370Y010146D01*
X021370Y010244D02*
X021514Y010244D01*
X021397Y010343D02*
X021370Y010343D01*
X021370Y010047D02*
X022108Y010047D01*
X022112Y009949D02*
X021370Y009949D01*
X021370Y009850D02*
X022189Y009850D01*
X022386Y009850D02*
X022444Y009850D01*
X022444Y009949D02*
X022386Y009949D01*
X022386Y010047D02*
X022444Y010047D01*
X022444Y010146D02*
X022386Y010146D01*
X022386Y010343D02*
X022444Y010343D01*
X022444Y010441D02*
X022386Y010441D01*
X022386Y010540D02*
X022444Y010540D01*
X022698Y010540D02*
X022866Y010540D01*
X022836Y010441D02*
X022723Y010441D01*
X022723Y010343D02*
X022836Y010343D01*
X022641Y009850D02*
X023759Y009850D01*
X023765Y009949D02*
X023411Y009949D01*
X023411Y010441D02*
X024378Y010441D01*
X024378Y010343D02*
X023908Y010343D01*
X024007Y010244D02*
X024378Y010244D01*
X024379Y010146D02*
X024105Y010146D01*
X024170Y010047D02*
X024431Y010047D01*
X024454Y010070D02*
X024753Y010070D01*
X024753Y010070D01*
X024454Y010070D01*
X024413Y009612D02*
X024454Y009570D01*
X024394Y009510D01*
X024219Y009510D01*
X024051Y009342D01*
X023970Y009261D01*
X023970Y009524D01*
X024059Y009612D01*
X024413Y009612D01*
X024454Y009570D02*
X025432Y009570D01*
X024454Y009570D01*
X024439Y009555D02*
X024001Y009555D01*
X023970Y009456D02*
X024165Y009456D01*
X024067Y009358D02*
X023970Y009358D01*
X024424Y010540D02*
X023382Y010540D01*
X022694Y009752D02*
X021370Y009752D01*
X021421Y009653D02*
X022589Y009653D01*
X022546Y009555D02*
X021494Y009555D01*
X021528Y009456D02*
X022532Y009456D01*
X022542Y009358D02*
X021528Y009358D01*
X021498Y009259D02*
X022583Y009259D01*
X022679Y009161D02*
X021431Y009161D01*
X021269Y009062D02*
X021824Y009062D01*
X021758Y008964D02*
X020380Y008964D01*
X020380Y009062D02*
X021091Y009062D01*
X020929Y009161D02*
X020380Y009161D01*
X020380Y009259D02*
X020862Y009259D01*
X020832Y009358D02*
X020380Y009358D01*
X020380Y009456D02*
X020832Y009456D01*
X020866Y009555D02*
X020380Y009555D01*
X020380Y009653D02*
X020939Y009653D01*
X020990Y009752D02*
X020380Y009752D01*
X020380Y009850D02*
X020990Y009850D01*
X020990Y009949D02*
X020380Y009949D01*
X020383Y010047D02*
X020990Y010047D01*
X020990Y010146D02*
X020390Y010146D01*
X020403Y010244D02*
X020990Y010244D01*
X020990Y010343D02*
X020424Y010343D01*
X020454Y010441D02*
X020990Y010441D01*
X020990Y010540D02*
X020491Y010540D01*
X020540Y010638D02*
X020990Y010638D01*
X020990Y010737D02*
X020594Y010737D01*
X020667Y010835D02*
X020990Y010835D01*
X020990Y010934D02*
X020752Y010934D01*
X020853Y011032D02*
X020991Y011032D01*
X020985Y011131D02*
X021090Y011131D01*
X021161Y011229D02*
X021188Y011229D01*
X022028Y010540D02*
X022132Y010540D01*
X022108Y010441D02*
X022011Y010441D01*
X022425Y009062D02*
X022653Y009062D01*
X022587Y008964D02*
X022491Y008964D01*
X024454Y010570D02*
X025432Y010570D01*
X025508Y010494D01*
X025508Y010147D01*
X025432Y010070D01*
X025133Y010070D01*
X025133Y010070D01*
X025432Y010070D01*
X025508Y009994D01*
X025508Y009647D01*
X025432Y009570D01*
X025508Y009494D01*
X025508Y009492D01*
X025601Y009492D01*
X025690Y009581D01*
X025690Y010874D01*
X025601Y010962D01*
X025508Y010962D01*
X025508Y010647D01*
X025432Y010570D01*
X024454Y010570D01*
X025463Y010540D02*
X025690Y010540D01*
X025690Y010638D02*
X025500Y010638D01*
X025508Y010737D02*
X025690Y010737D01*
X025690Y010835D02*
X025508Y010835D01*
X025508Y010934D02*
X025630Y010934D01*
X026070Y010835D02*
X026100Y010835D01*
X026070Y010737D02*
X026191Y010737D01*
X025690Y010441D02*
X025508Y010441D01*
X025508Y010343D02*
X025690Y010343D01*
X025690Y010244D02*
X025508Y010244D01*
X025508Y010146D02*
X025690Y010146D01*
X025690Y010047D02*
X025455Y010047D01*
X025508Y009949D02*
X025690Y009949D01*
X025690Y009850D02*
X025508Y009850D01*
X025508Y009752D02*
X025690Y009752D01*
X025690Y009653D02*
X025508Y009653D01*
X025448Y009555D02*
X025664Y009555D01*
X026993Y009259D02*
X027013Y009259D01*
X027013Y009161D02*
X026993Y009161D01*
X026993Y009062D02*
X027013Y009062D01*
X027499Y009062D02*
X027790Y009062D01*
X027790Y009161D02*
X027583Y009161D01*
X027588Y009259D02*
X027790Y009259D01*
X027790Y009358D02*
X027588Y009358D01*
X027588Y009456D02*
X027790Y009456D01*
X027790Y009555D02*
X027536Y009555D01*
X026874Y008373D02*
X026682Y008373D01*
X026769Y008274D02*
X026798Y008274D01*
X026830Y007782D02*
X026733Y007782D01*
X027439Y007683D02*
X027748Y007683D01*
X027640Y007782D02*
X027543Y007782D01*
X028620Y014952D02*
X028380Y015192D01*
X028380Y018352D01*
X028550Y018522D01*
X028550Y019140D01*
X028060Y019130D02*
X028060Y018712D01*
X027940Y018592D01*
X026560Y018592D01*
X026460Y018692D01*
X026460Y019392D01*
X026260Y019592D01*
X023240Y019592D01*
X023130Y019482D01*
X023130Y019150D01*
X023080Y019100D01*
X023080Y018952D01*
X022480Y018352D01*
X022480Y015652D01*
X022180Y015352D01*
X017480Y015352D01*
X017205Y015627D01*
X017205Y016406D01*
X017480Y016352D02*
X017520Y016393D01*
X017520Y016406D01*
X017520Y015712D01*
X017680Y015552D01*
X021980Y015552D01*
X022280Y015852D01*
X022280Y018552D01*
X022680Y018952D01*
X022680Y019100D01*
X022680Y019472D01*
X023000Y019792D01*
X026340Y019792D01*
X026660Y019472D01*
X026660Y018852D01*
X026760Y018772D01*
X027480Y018772D01*
X027560Y018852D01*
X027560Y019130D01*
X027550Y019140D01*
X027560Y019150D01*
X028050Y019140D02*
X028060Y019130D01*
X029050Y019140D02*
X029050Y018662D01*
X028600Y018212D01*
X028600Y016072D01*
X028720Y015952D01*
X029180Y015952D01*
X029180Y016952D02*
X029280Y016952D01*
X029680Y017352D01*
X029680Y018612D01*
X029560Y018732D01*
X029560Y019130D01*
X029550Y019140D01*
X030050Y019140D02*
X030050Y019582D01*
X029780Y019852D01*
X030500Y019792D02*
X030550Y019722D01*
X030550Y019140D01*
X029550Y021345D02*
X029540Y021355D01*
X029540Y022332D01*
X029240Y022612D01*
X022960Y022612D01*
X022620Y022272D01*
X021200Y022272D01*
X021000Y022072D01*
X021000Y021292D01*
X020220Y020532D01*
X020220Y019692D01*
X020200Y019492D01*
X019080Y018372D01*
X018546Y018372D01*
X018544Y018374D01*
X018544Y018059D02*
X018551Y018052D01*
X019280Y018052D01*
X020960Y019712D01*
X020960Y020292D01*
X021440Y020772D01*
X023000Y020772D01*
X023130Y020902D01*
X023130Y021355D01*
X023140Y021365D01*
X023140Y022092D01*
X023440Y022392D01*
X027860Y022392D01*
X028080Y022092D01*
X028080Y021375D01*
X028050Y021345D01*
X026460Y021792D02*
X026460Y020852D01*
X026360Y020752D01*
X026040Y021052D02*
X025660Y020672D01*
X025560Y020672D01*
X025130Y020782D02*
X025020Y020672D01*
X025130Y020782D02*
X025130Y021355D01*
X024630Y021355D02*
X024630Y020722D01*
X024340Y020432D01*
X021560Y020432D01*
X021240Y020112D01*
X021240Y019592D01*
X020150Y018502D01*
X020340Y018312D01*
X020340Y017586D01*
X020340Y016799D02*
X020246Y016799D01*
X019740Y016292D01*
X019480Y015752D02*
X021880Y015752D01*
X022080Y015952D01*
X022080Y019100D01*
X022130Y019150D01*
X022120Y019160D01*
X022120Y019552D01*
X022560Y019992D01*
X026420Y019992D01*
X027050Y019362D01*
X027050Y019140D01*
X026100Y019152D02*
X026070Y019142D01*
X025630Y019150D01*
X025130Y019150D02*
X025130Y018902D01*
X025180Y018852D01*
X025200Y015392D01*
X024900Y015092D01*
X024080Y015092D01*
X024080Y016092D02*
X024780Y016092D01*
X024980Y016292D01*
X024980Y018592D01*
X024630Y018942D01*
X024630Y019150D01*
X024130Y019150D02*
X024130Y018902D01*
X024780Y018252D01*
X024780Y017392D01*
X024480Y017092D01*
X024080Y017092D01*
X024080Y018092D02*
X023630Y018502D01*
X023630Y019150D01*
X022680Y019100D02*
X022630Y019150D01*
X021500Y019072D02*
X021360Y018932D01*
X021360Y017586D01*
X021360Y016799D02*
X020340Y016799D01*
X019180Y017252D02*
X019180Y016052D01*
X019480Y015752D01*
X019180Y017252D02*
X019003Y017430D01*
X018544Y017430D01*
X018556Y017732D02*
X018544Y017744D01*
X018556Y017732D02*
X019380Y017732D01*
X020150Y018502D01*
X019012Y019004D02*
X019920Y019912D01*
X019920Y020812D01*
X020460Y021352D01*
X019740Y021332D02*
X019620Y021212D01*
X019620Y019932D01*
X019007Y019319D01*
X018544Y019319D01*
X018544Y019004D02*
X019012Y019004D01*
X018546Y019002D02*
X018544Y019004D01*
X018577Y018722D02*
X017909Y018722D01*
X018544Y018689D02*
X018577Y018722D01*
X018544Y019634D02*
X018942Y019634D01*
X019300Y019992D01*
X019300Y021412D01*
X019880Y021992D01*
X019380Y022472D02*
X019180Y022272D01*
X018040Y022272D01*
X017920Y022152D01*
X017920Y021812D01*
X017540Y021432D01*
X017540Y020993D01*
X017520Y020973D01*
X017205Y020973D02*
X017205Y021458D01*
X017680Y021932D01*
X017680Y022392D01*
X017840Y022552D01*
X019080Y022552D01*
X019260Y022732D01*
X022060Y022732D01*
X022620Y023292D01*
X023360Y023652D02*
X023780Y024072D01*
X029340Y024072D01*
X029560Y024292D01*
X029560Y027852D01*
X030340Y028652D01*
X030340Y046292D01*
X030080Y046552D01*
X030080Y054632D01*
X030000Y054712D01*
X029560Y054712D01*
X029140Y054292D01*
X028500Y054292D01*
X028320Y054472D01*
X028320Y054872D01*
X028080Y055112D01*
X026220Y055112D01*
X026020Y055312D01*
X026020Y056632D01*
X026630Y056652D02*
X027280Y056652D01*
X027580Y056352D01*
X027140Y055992D02*
X026980Y056152D01*
X026630Y056152D01*
X028080Y057152D02*
X028680Y057152D01*
X028680Y056152D02*
X029380Y056152D01*
X029640Y055892D01*
X029640Y055392D01*
X029680Y055352D01*
X029680Y054152D02*
X029680Y046412D01*
X029940Y046152D01*
X029940Y029332D01*
X028400Y027792D01*
X028400Y025712D01*
X028100Y025412D01*
X027220Y025412D01*
X027180Y025452D01*
X025780Y025852D02*
X025450Y025852D01*
X025310Y025712D01*
X025310Y025452D01*
X025930Y026352D02*
X025940Y026352D01*
X025867Y027709D02*
X025324Y027709D01*
X025230Y027802D01*
X025230Y028092D01*
X025190Y028132D01*
X024440Y028132D01*
X025230Y028092D02*
X025230Y028809D01*
X025282Y028862D01*
X026655Y027709D02*
X027136Y027709D01*
X027180Y027752D01*
X030340Y028652D02*
X030380Y028672D01*
X030380Y023752D02*
X023760Y023752D01*
X022460Y022472D01*
X019380Y022472D01*
X019140Y021872D02*
X019040Y021772D01*
X019040Y020032D01*
X018957Y019949D01*
X018544Y019949D01*
X018547Y019952D01*
X018544Y020264D02*
X018092Y020264D01*
X017580Y019752D01*
X016460Y019752D01*
X016320Y019612D01*
X016320Y019192D01*
X015960Y019672D02*
X016280Y019992D01*
X017540Y019992D01*
X017835Y020287D01*
X017835Y020973D01*
X016890Y020973D02*
X016890Y021463D01*
X017420Y021992D01*
X017420Y022492D01*
X017720Y022792D01*
X018720Y022792D01*
X018900Y022972D01*
X018340Y023212D02*
X017380Y023212D01*
X017180Y023012D01*
X017180Y022052D01*
X016580Y021432D01*
X016580Y020978D01*
X016575Y020973D01*
X015630Y020973D02*
X015630Y021383D01*
X016480Y022232D01*
X016520Y022232D01*
X015740Y022072D02*
X015315Y021568D01*
X015315Y020973D01*
X015000Y020973D02*
X015000Y020973D01*
X015000Y021852D01*
X014686Y020973D02*
X014685Y020972D01*
X014000Y020972D01*
X013780Y020612D02*
X013380Y021012D01*
X013380Y022612D01*
X014040Y023272D01*
X016920Y023272D01*
X017300Y023652D01*
X023360Y023652D01*
X023180Y024032D02*
X023340Y024192D01*
X023340Y025272D01*
X023420Y025352D01*
X023880Y025352D01*
X022180Y027702D02*
X022074Y027809D01*
X021705Y027809D01*
X020917Y027809D02*
X020236Y027809D01*
X019980Y027552D01*
X020280Y028002D02*
X020280Y028859D01*
X020282Y028862D01*
X020280Y028002D02*
X020474Y027809D01*
X020917Y027809D01*
X019080Y027652D02*
X019080Y027402D01*
X019130Y027352D01*
X019080Y027652D02*
X019030Y027702D01*
X020680Y025852D02*
X021200Y025852D01*
X021300Y025752D01*
X023800Y022152D02*
X026100Y022152D01*
X026460Y021792D01*
X026040Y021732D02*
X026040Y021052D01*
X025630Y021355D02*
X025630Y021662D01*
X025580Y021732D01*
X024440Y021732D01*
X024380Y021672D01*
X024380Y020952D01*
X024200Y020772D01*
X023880Y020772D01*
X023630Y021355D02*
X023630Y021982D01*
X023800Y022152D01*
X024130Y021822D02*
X024240Y021932D01*
X025840Y021932D01*
X026040Y021732D01*
X024130Y021822D02*
X024130Y021355D01*
X028620Y014952D02*
X029180Y014952D01*
X020924Y008865D02*
X020380Y008865D01*
X020380Y008767D02*
X020826Y008767D01*
X020727Y008668D02*
X020380Y008668D01*
X020380Y008570D02*
X020640Y008570D01*
X020640Y008471D02*
X020380Y008471D01*
X020380Y008373D02*
X020640Y008373D01*
X020640Y008274D02*
X020380Y008274D01*
X020380Y008176D02*
X020640Y008176D01*
X020640Y008077D02*
X020380Y008077D01*
X020380Y007979D02*
X020640Y007979D01*
X020640Y007880D02*
X020380Y007880D01*
X020380Y007782D02*
X020640Y007782D01*
X020640Y007683D02*
X020380Y007683D01*
X020380Y007585D02*
X020640Y007585D01*
X020640Y007486D02*
X020380Y007486D01*
X020380Y007388D02*
X020640Y007388D01*
X020640Y007289D02*
X020380Y007289D01*
X016480Y008696D02*
X016480Y009302D01*
X014830Y009198D02*
X014830Y009102D01*
X014730Y009002D01*
X013730Y009002D01*
X013580Y009152D01*
X013580Y010052D01*
X013430Y010202D01*
X013356Y010202D01*
X013356Y010516D01*
X013330Y010542D01*
X013330Y010702D01*
X013380Y010752D01*
X013725Y010752D01*
X013665Y010693D01*
X013628Y010601D01*
X013628Y009203D01*
X013665Y009112D01*
X013735Y009042D01*
X013826Y009005D01*
X014634Y009005D01*
X014725Y009042D01*
X014795Y009112D01*
X014830Y009198D01*
X014830Y009161D02*
X014815Y009161D01*
X014790Y009062D02*
X014745Y009062D01*
X014630Y009102D02*
X014530Y009002D01*
X013580Y009002D01*
X013530Y009052D01*
X013530Y009902D01*
X013380Y010052D01*
X012630Y010052D01*
X012230Y010452D01*
X008730Y010452D01*
X008580Y010602D01*
X008580Y011302D01*
X008730Y011452D01*
X013180Y011452D01*
X013280Y011352D01*
X013280Y010902D01*
X013380Y010802D01*
X014480Y010802D01*
X014630Y010652D01*
X014630Y009102D01*
X014590Y009062D02*
X013530Y009062D01*
X013530Y009161D02*
X014630Y009161D01*
X014630Y009259D02*
X013530Y009259D01*
X013580Y009259D02*
X013628Y009259D01*
X013628Y009358D02*
X013580Y009358D01*
X013530Y009358D02*
X014630Y009358D01*
X014630Y009456D02*
X013530Y009456D01*
X013580Y009456D02*
X013628Y009456D01*
X013628Y009555D02*
X013580Y009555D01*
X013530Y009555D02*
X014630Y009555D01*
X014630Y009653D02*
X013530Y009653D01*
X013580Y009653D02*
X013628Y009653D01*
X013628Y009752D02*
X013580Y009752D01*
X013530Y009752D02*
X014630Y009752D01*
X014630Y009850D02*
X013530Y009850D01*
X013580Y009850D02*
X013628Y009850D01*
X013628Y009949D02*
X013580Y009949D01*
X013483Y009949D02*
X014630Y009949D01*
X014630Y010047D02*
X013385Y010047D01*
X013486Y010146D02*
X013628Y010146D01*
X013628Y010244D02*
X013356Y010244D01*
X013356Y010343D02*
X013628Y010343D01*
X013628Y010441D02*
X013356Y010441D01*
X013332Y010540D02*
X013628Y010540D01*
X013643Y010638D02*
X013330Y010638D01*
X013365Y010737D02*
X013710Y010737D01*
X013347Y010835D02*
X008580Y010835D01*
X008580Y010737D02*
X014545Y010737D01*
X014630Y010638D02*
X008580Y010638D01*
X008642Y010540D02*
X014630Y010540D01*
X014630Y010441D02*
X012241Y010441D01*
X012339Y010343D02*
X014630Y010343D01*
X014630Y010244D02*
X012438Y010244D01*
X012536Y010146D02*
X014630Y010146D01*
X014830Y010607D02*
X014798Y010684D01*
X014830Y010652D01*
X014830Y010607D01*
X014830Y010638D02*
X014817Y010638D01*
X013628Y010047D02*
X013580Y010047D01*
X013280Y009702D02*
X013280Y009152D01*
X012980Y008852D01*
X012980Y006702D01*
X012730Y006452D01*
X011330Y006452D01*
X010980Y006802D01*
X010980Y008452D01*
X010730Y008702D01*
X009380Y008702D01*
X008630Y009452D01*
X008130Y009452D01*
X008080Y009502D01*
X008080Y010102D01*
X008130Y010152D01*
X009780Y010152D01*
X010130Y009802D01*
X013180Y009802D01*
X013280Y009702D01*
X013280Y009653D02*
X008080Y009653D01*
X008080Y009555D02*
X013280Y009555D01*
X013280Y009456D02*
X008126Y009456D01*
X008080Y009752D02*
X013230Y009752D01*
X013280Y009358D02*
X008724Y009358D01*
X008823Y009259D02*
X013280Y009259D01*
X013280Y009161D02*
X008921Y009161D01*
X009020Y009062D02*
X013190Y009062D01*
X013092Y008964D02*
X009118Y008964D01*
X009217Y008865D02*
X012993Y008865D01*
X012980Y008767D02*
X009315Y008767D01*
X010082Y009850D02*
X008080Y009850D01*
X008080Y009949D02*
X009983Y009949D01*
X009885Y010047D02*
X008080Y010047D01*
X008124Y010146D02*
X009786Y010146D01*
X008704Y011426D02*
X013206Y011426D01*
X013280Y011328D02*
X008606Y011328D01*
X008580Y011229D02*
X013280Y011229D01*
X013280Y011131D02*
X008580Y011131D01*
X008580Y011032D02*
X013280Y011032D01*
X013280Y010934D02*
X008580Y010934D01*
X007330Y012002D02*
X006930Y011602D01*
X005901Y011602D01*
X005901Y011798D01*
X005328Y011798D01*
X005328Y011898D01*
X005228Y011898D01*
X005228Y012470D01*
X004862Y012470D01*
X004780Y012552D01*
X004780Y012815D01*
X004894Y012815D01*
X004894Y013390D01*
X004914Y013390D01*
X004914Y012815D01*
X005044Y012815D01*
X005082Y012826D01*
X005117Y012845D01*
X005144Y012873D01*
X005164Y012907D01*
X005174Y012946D01*
X005174Y013390D01*
X004914Y013390D01*
X004914Y013410D01*
X005174Y013410D01*
X005174Y013855D01*
X005164Y013893D01*
X005144Y013927D01*
X005119Y013952D01*
X005530Y013952D01*
X005630Y014052D01*
X005630Y015102D01*
X005930Y015402D01*
X005930Y016223D01*
X005957Y016216D01*
X006106Y016216D01*
X006106Y016574D01*
X006163Y016574D01*
X006163Y016216D01*
X006312Y016216D01*
X006350Y016226D01*
X006384Y016246D01*
X006412Y016274D01*
X006430Y016305D01*
X006430Y015152D01*
X006480Y015102D01*
X007080Y015102D01*
X007330Y014852D01*
X007330Y012002D01*
X007330Y012017D02*
X005901Y012017D01*
X005901Y011919D02*
X007247Y011919D01*
X007148Y011820D02*
X005328Y011820D01*
X005328Y011898D02*
X005901Y011898D01*
X005901Y012340D01*
X005891Y012378D01*
X005871Y012413D01*
X005843Y012441D01*
X005809Y012460D01*
X005771Y012470D01*
X005328Y012470D01*
X005328Y011898D01*
X005328Y011919D02*
X005228Y011919D01*
X005228Y012017D02*
X005328Y012017D01*
X005328Y012116D02*
X005228Y012116D01*
X005228Y012214D02*
X005328Y012214D01*
X005328Y012313D02*
X005228Y012313D01*
X005228Y012411D02*
X005328Y012411D01*
X004822Y012510D02*
X007330Y012510D01*
X007330Y012608D02*
X007103Y012608D01*
X007117Y012612D02*
X007151Y012632D01*
X007179Y012660D01*
X007199Y012694D01*
X007209Y012732D01*
X007209Y013765D01*
X006538Y013765D01*
X006538Y012602D01*
X007079Y012602D01*
X007117Y012612D01*
X007202Y012707D02*
X007330Y012707D01*
X007330Y012805D02*
X007209Y012805D01*
X007209Y012904D02*
X007330Y012904D01*
X007330Y013002D02*
X007209Y013002D01*
X007209Y013101D02*
X007330Y013101D01*
X007330Y013199D02*
X007209Y013199D01*
X007209Y013298D02*
X007330Y013298D01*
X007330Y013396D02*
X007209Y013396D01*
X007209Y013495D02*
X007330Y013495D01*
X007330Y013593D02*
X007209Y013593D01*
X007209Y013692D02*
X007330Y013692D01*
X007330Y013790D02*
X006538Y013790D01*
X006538Y013765D02*
X006538Y013865D01*
X006438Y013865D01*
X006438Y013765D01*
X005767Y013765D01*
X005767Y012732D01*
X005778Y012694D01*
X005797Y012660D01*
X005825Y012632D01*
X005860Y012612D01*
X005898Y012602D01*
X006438Y012602D01*
X006438Y013765D01*
X006538Y013765D01*
X006538Y013692D02*
X006438Y013692D01*
X006438Y013790D02*
X005174Y013790D01*
X005174Y013692D02*
X005767Y013692D01*
X005767Y013593D02*
X005174Y013593D01*
X005174Y013495D02*
X005767Y013495D01*
X005767Y013396D02*
X004914Y013396D01*
X004914Y013298D02*
X004894Y013298D01*
X004894Y013199D02*
X004914Y013199D01*
X004914Y013101D02*
X004894Y013101D01*
X004894Y013002D02*
X004914Y013002D01*
X004914Y012904D02*
X004894Y012904D01*
X004780Y012805D02*
X005767Y012805D01*
X005774Y012707D02*
X004780Y012707D01*
X004780Y012608D02*
X005874Y012608D01*
X005872Y012411D02*
X007330Y012411D01*
X007330Y012313D02*
X005901Y012313D01*
X005901Y012214D02*
X007330Y012214D01*
X007330Y012116D02*
X005901Y012116D01*
X005901Y011722D02*
X007050Y011722D01*
X006951Y011623D02*
X005901Y011623D01*
X006438Y012608D02*
X006538Y012608D01*
X006538Y012707D02*
X006438Y012707D01*
X006438Y012805D02*
X006538Y012805D01*
X006538Y012904D02*
X006438Y012904D01*
X006438Y013002D02*
X006538Y013002D01*
X006538Y013101D02*
X006438Y013101D01*
X006438Y013199D02*
X006538Y013199D01*
X006538Y013298D02*
X006438Y013298D01*
X006438Y013396D02*
X006538Y013396D01*
X006538Y013495D02*
X006438Y013495D01*
X006438Y013593D02*
X006538Y013593D01*
X006538Y013865D02*
X007209Y013865D01*
X007209Y014898D01*
X007199Y014936D01*
X007179Y014970D01*
X007151Y014998D01*
X007117Y015018D01*
X007079Y015028D01*
X006538Y015028D01*
X006538Y013865D01*
X006538Y013889D02*
X006438Y013889D01*
X006438Y013865D02*
X006438Y015028D01*
X005898Y015028D01*
X005860Y015018D01*
X005825Y014998D01*
X005797Y014970D01*
X005778Y014936D01*
X005767Y014898D01*
X005767Y013865D01*
X006438Y013865D01*
X006438Y013987D02*
X006538Y013987D01*
X006538Y014086D02*
X006438Y014086D01*
X006438Y014184D02*
X006538Y014184D01*
X006538Y014283D02*
X006438Y014283D01*
X006438Y014381D02*
X006538Y014381D01*
X006538Y014480D02*
X006438Y014480D01*
X006438Y014578D02*
X006538Y014578D01*
X006538Y014677D02*
X006438Y014677D01*
X006438Y014775D02*
X006538Y014775D01*
X006538Y014874D02*
X006438Y014874D01*
X006438Y014972D02*
X006538Y014972D01*
X006430Y015169D02*
X005697Y015169D01*
X005630Y015071D02*
X007111Y015071D01*
X007177Y014972D02*
X007210Y014972D01*
X007209Y014874D02*
X007308Y014874D01*
X007330Y014775D02*
X007209Y014775D01*
X007209Y014677D02*
X007330Y014677D01*
X007330Y014578D02*
X007209Y014578D01*
X007209Y014480D02*
X007330Y014480D01*
X007330Y014381D02*
X007209Y014381D01*
X007209Y014283D02*
X007330Y014283D01*
X007330Y014184D02*
X007209Y014184D01*
X007209Y014086D02*
X007330Y014086D01*
X007330Y013987D02*
X007209Y013987D01*
X007209Y013889D02*
X007330Y013889D01*
X005767Y013889D02*
X005165Y013889D01*
X005565Y013987D02*
X005767Y013987D01*
X005767Y014086D02*
X005630Y014086D01*
X005630Y014184D02*
X005767Y014184D01*
X005767Y014283D02*
X005630Y014283D01*
X005630Y014381D02*
X005767Y014381D01*
X005767Y014480D02*
X005630Y014480D01*
X005630Y014578D02*
X005767Y014578D01*
X005767Y014677D02*
X005630Y014677D01*
X005630Y014775D02*
X005767Y014775D01*
X005767Y014874D02*
X005630Y014874D01*
X005630Y014972D02*
X005800Y014972D01*
X005796Y015268D02*
X006430Y015268D01*
X006430Y015366D02*
X005894Y015366D01*
X005930Y015465D02*
X006430Y015465D01*
X006430Y015563D02*
X005930Y015563D01*
X005930Y015662D02*
X006430Y015662D01*
X006430Y015760D02*
X005930Y015760D01*
X005930Y015859D02*
X006430Y015859D01*
X006430Y015957D02*
X005930Y015957D01*
X005930Y016056D02*
X006430Y016056D01*
X006430Y016154D02*
X005930Y016154D01*
X006106Y016253D02*
X006163Y016253D01*
X006163Y016351D02*
X006106Y016351D01*
X006106Y016450D02*
X006163Y016450D01*
X006163Y016548D02*
X006106Y016548D01*
X006106Y016631D02*
X006106Y016989D01*
X006016Y016989D01*
X006030Y017002D01*
X006380Y017002D01*
X006430Y016952D01*
X006430Y016899D01*
X006412Y016931D01*
X006384Y016959D01*
X006350Y016978D01*
X006312Y016989D01*
X006163Y016989D01*
X006163Y016631D01*
X006106Y016631D01*
X006106Y016647D02*
X006163Y016647D01*
X006163Y016745D02*
X006106Y016745D01*
X006106Y016844D02*
X006163Y016844D01*
X006163Y016942D02*
X006106Y016942D01*
X006400Y016942D02*
X006430Y016942D01*
X006430Y016253D02*
X006391Y016253D01*
X004597Y017704D02*
X004125Y017232D01*
X003062Y017232D01*
X002865Y017429D01*
X002865Y018346D01*
X003003Y018484D01*
X003232Y018256D01*
X004597Y018689D02*
X004597Y017704D01*
X004597Y018689D02*
X004755Y018846D01*
X012983Y018846D01*
X013455Y018374D01*
X013977Y018374D01*
X013990Y018072D02*
X013977Y018059D01*
X013990Y018072D02*
X014680Y018072D01*
X013977Y017744D02*
X013969Y017752D01*
X012820Y017752D01*
X012560Y018032D01*
X012008Y017852D02*
X012511Y017350D01*
X013377Y017350D01*
X013613Y017114D01*
X013976Y017114D01*
X013977Y017115D01*
X013965Y017102D01*
X013101Y016878D02*
X013062Y016838D01*
X012008Y017852D02*
X011860Y017852D01*
X011221Y019791D02*
X010920Y020092D01*
X011221Y019791D02*
X013416Y019791D01*
X013573Y019634D01*
X013977Y019634D01*
X013964Y019332D02*
X013977Y019319D01*
X013976Y019319D01*
X013574Y019319D01*
X013337Y019555D01*
X006133Y019555D01*
X005463Y020224D01*
X004930Y025602D02*
X005180Y025852D01*
X005830Y025852D01*
X005830Y026352D02*
X006380Y026352D01*
X005986Y027602D02*
X005430Y027602D01*
X005330Y027702D01*
X005330Y028681D01*
X005323Y028688D01*
X005459Y028552D01*
X006180Y028552D01*
X006774Y027602D02*
X007130Y027602D01*
X007180Y027552D01*
X008880Y027552D02*
X008930Y027502D01*
X008880Y027552D02*
X008880Y027902D01*
X009880Y027602D02*
X010086Y027809D01*
X010867Y027809D01*
X010424Y027809D01*
X010230Y028002D01*
X010230Y028809D01*
X010282Y028862D01*
X011655Y027809D02*
X012174Y027809D01*
X012180Y027802D01*
X011220Y025852D02*
X010680Y025852D01*
X011220Y025852D02*
X011280Y025792D01*
X013730Y025352D02*
X013730Y024202D01*
X013880Y024052D01*
X015210Y025712D02*
X015350Y025852D01*
X015780Y025852D01*
X015917Y027659D02*
X015136Y027659D01*
X014980Y027502D01*
X015430Y027852D02*
X015430Y028709D01*
X015482Y028762D01*
X015430Y027852D02*
X015624Y027659D01*
X015917Y027659D01*
X016705Y027659D02*
X017086Y027659D01*
X017180Y027752D01*
X014330Y027752D02*
X014280Y027752D01*
X014180Y027852D01*
X014400Y020612D02*
X013780Y020612D01*
X014400Y020612D02*
X014640Y020372D01*
X014837Y020169D01*
X015217Y019789D01*
X015220Y017121D01*
X015306Y017035D01*
X015306Y016415D01*
X015315Y016406D01*
X015000Y016406D02*
X014991Y016396D01*
X014991Y015696D01*
X014794Y015500D01*
X014597Y015500D01*
X015630Y015582D02*
X016040Y015192D01*
X015630Y015582D02*
X015630Y016406D01*
X013180Y014542D02*
X013122Y014600D01*
X013180Y014542D02*
X013180Y014496D01*
X013977Y019319D02*
X013974Y019322D01*
X013645Y009161D02*
X013580Y009161D01*
X013670Y009062D02*
X013715Y009062D01*
X012980Y008668D02*
X010764Y008668D01*
X010862Y008570D02*
X012980Y008570D01*
X012980Y008471D02*
X010961Y008471D01*
X010980Y008373D02*
X012980Y008373D01*
X012980Y008274D02*
X010980Y008274D01*
X010980Y008176D02*
X012980Y008176D01*
X012980Y008077D02*
X010980Y008077D01*
X010980Y007979D02*
X012980Y007979D01*
X012980Y007880D02*
X010980Y007880D01*
X010980Y007782D02*
X012980Y007782D01*
X012980Y007683D02*
X010980Y007683D01*
X010980Y007585D02*
X012980Y007585D01*
X012980Y007486D02*
X010980Y007486D01*
X010980Y007388D02*
X012980Y007388D01*
X012980Y007289D02*
X010980Y007289D01*
X010980Y007191D02*
X012980Y007191D01*
X012980Y007092D02*
X010980Y007092D01*
X010980Y006994D02*
X012980Y006994D01*
X012980Y006895D02*
X010980Y006895D01*
X010985Y006797D02*
X012980Y006797D01*
X012976Y006698D02*
X011084Y006698D01*
X011182Y006600D02*
X012878Y006600D01*
X012779Y006501D02*
X011281Y006501D01*
X005767Y012904D02*
X005162Y012904D01*
X005174Y013002D02*
X005767Y013002D01*
X005767Y013101D02*
X005174Y013101D01*
X005174Y013199D02*
X005767Y013199D01*
X005767Y013298D02*
X005174Y013298D01*
X004480Y011052D02*
X003630Y011052D01*
X003530Y010952D01*
X003530Y010552D01*
X003630Y010452D01*
X004480Y010452D01*
X004630Y010602D01*
X004630Y010902D01*
X004480Y011052D01*
X004500Y011032D02*
X003610Y011032D01*
X003530Y010934D02*
X004598Y010934D01*
X004630Y010835D02*
X003530Y010835D01*
X003530Y010737D02*
X004630Y010737D01*
X004630Y010638D02*
X003530Y010638D01*
X003542Y010540D02*
X004568Y010540D01*
X004330Y026402D02*
X004280Y026452D01*
X004330Y026402D02*
X004980Y026402D01*
X006272Y031352D02*
X006221Y031404D01*
X006272Y031352D02*
X006280Y031352D01*
X006380Y048552D02*
X006074Y048552D01*
X006380Y048552D02*
X006980Y049152D01*
X006980Y053152D01*
X007467Y053639D01*
X007467Y054552D01*
X008293Y054552D02*
X008980Y054552D01*
X009330Y054202D01*
X010086Y054302D02*
X010086Y054926D01*
X010070Y054942D01*
X011430Y056652D02*
X012180Y056652D01*
X012380Y056452D01*
X012880Y057152D02*
X013480Y057152D01*
X014730Y054702D02*
X015130Y054302D01*
X015686Y054302D01*
X016474Y054302D02*
X016474Y054446D01*
X016680Y054652D01*
X017280Y054652D01*
X017417Y054002D02*
X017417Y053489D01*
X017080Y053152D01*
X017080Y049052D01*
X016580Y048552D01*
X016124Y048552D01*
X015336Y048552D02*
X015336Y048696D01*
X015180Y048852D01*
X012080Y049152D02*
X011580Y048652D01*
X011124Y048652D01*
X010336Y048652D02*
X010336Y048696D01*
X010180Y048852D01*
X012080Y049152D02*
X012080Y053852D01*
X012330Y054102D01*
X012467Y054102D01*
X013293Y054102D02*
X014230Y054102D01*
X014280Y054052D01*
X016078Y053250D02*
X016480Y053652D01*
X016480Y054296D01*
X016474Y054302D01*
X016078Y053250D02*
X016078Y053043D01*
X018243Y054002D02*
X019330Y054002D01*
X019380Y054052D01*
X018480Y057152D02*
X017780Y057152D01*
X017180Y056652D02*
X016430Y056652D01*
X021530Y056652D02*
X022060Y056652D01*
X022160Y056752D01*
X022200Y056752D01*
X022880Y057152D02*
X023580Y057152D01*
X026163Y054512D02*
X025855Y054204D01*
X026163Y054512D02*
X026720Y054512D01*
X027467Y053752D02*
X027280Y053566D01*
X027280Y049052D01*
X026780Y048552D01*
X026274Y048552D01*
X025486Y048552D02*
X025180Y048552D01*
X024980Y049459D02*
X024980Y050152D01*
X025180Y050152D01*
X025180Y050327D01*
X023180Y052852D02*
X023180Y053452D01*
X022993Y053639D01*
X022993Y053802D01*
X022167Y053802D02*
X021980Y053616D01*
X021980Y049052D01*
X021480Y048552D01*
X021124Y048552D01*
X020336Y048552D02*
X020280Y048552D01*
X020180Y048652D01*
X028280Y046652D02*
X028293Y046666D01*
X028293Y053752D01*
X028400Y046652D02*
X028614Y046652D01*
X028792Y046475D01*
X008480Y057152D02*
X008080Y057152D01*
X007780Y057452D01*
X007180Y056652D02*
X007380Y056452D01*
X007180Y056652D02*
X006430Y056652D01*
D46*
X007780Y057452D03*
X006780Y054552D03*
X008180Y052952D03*
X011880Y054652D03*
X011980Y056052D03*
X012380Y056452D03*
X012880Y057152D03*
X013580Y052852D03*
X017280Y054652D03*
X016980Y056052D03*
X017180Y056652D03*
X017780Y057152D03*
X021780Y054552D03*
X022080Y056052D03*
X022200Y056752D03*
X022880Y057152D03*
X024280Y054152D03*
X026020Y056632D03*
X028080Y057152D03*
X029680Y055352D03*
X029680Y054152D03*
X030160Y056892D03*
X026720Y054512D03*
X028400Y046652D03*
X023320Y029092D03*
X024440Y028132D03*
X024980Y026352D03*
X025480Y023012D03*
X026360Y020752D03*
X025560Y020672D03*
X025020Y020672D03*
X027260Y020632D03*
X028002Y020030D03*
X029040Y019932D03*
X029780Y019852D03*
X030500Y019792D03*
X030580Y022592D03*
X030380Y023752D03*
X030780Y024632D03*
X028120Y014752D03*
X025120Y014612D03*
X026280Y011152D03*
X024832Y008283D03*
X022880Y009452D03*
X021680Y010552D03*
X020707Y010003D03*
X021180Y009402D03*
X016480Y009302D03*
X016053Y007274D03*
X015897Y005460D03*
X016487Y004952D03*
X012550Y005752D03*
X012000Y005752D03*
X010300Y004952D03*
X010050Y005852D03*
X010250Y006852D03*
X010080Y007852D03*
X009530Y007852D03*
X008930Y007852D03*
X008750Y006852D03*
X008850Y005852D03*
X008750Y004952D03*
X004430Y010852D03*
X003880Y010852D03*
X002700Y010952D03*
X002650Y011902D03*
X002600Y012932D03*
X002826Y013570D03*
X003259Y014633D03*
X002996Y016548D03*
X003587Y017608D03*
X005463Y020224D03*
X005403Y023927D03*
X006380Y026352D03*
X009143Y023927D03*
X010030Y026352D03*
X012760Y020792D03*
X014000Y020972D03*
X015000Y021852D03*
X015740Y022072D03*
X016520Y022232D03*
X014658Y019749D03*
X012560Y018032D03*
X011860Y017852D03*
X010920Y020092D03*
X014088Y015936D03*
X014597Y015500D03*
X016040Y015192D03*
X016480Y013732D03*
X014504Y013139D03*
X014750Y011213D03*
X014239Y011213D03*
X012786Y015106D03*
X009558Y015067D03*
X002976Y023732D03*
X015130Y026352D03*
X020600Y020172D03*
X020200Y019492D03*
X021500Y019072D03*
X021520Y016152D03*
X019740Y016292D03*
X019261Y014793D03*
X021300Y025752D03*
X021280Y026352D03*
X030661Y011134D03*
X030700Y004953D03*
D47*
X028761Y008052D02*
X028780Y008071D01*
X028780Y010002D01*
X028462Y010320D01*
X027003Y010320D01*
X027003Y009820D02*
X027812Y009820D01*
X027980Y009652D01*
X027980Y008059D01*
X027974Y008052D01*
X025880Y009502D02*
X025680Y009302D01*
X024961Y009302D01*
X024943Y009320D01*
X024298Y009320D01*
X024130Y009152D01*
X024130Y008252D01*
X023830Y007952D01*
X023830Y006502D01*
X023630Y006302D01*
X022953Y006302D01*
X022940Y006289D01*
X022940Y006330D01*
X022865Y006405D01*
X022865Y006326D01*
X022826Y006287D01*
X022115Y006300D02*
X021983Y006250D01*
X021480Y006252D01*
X021212Y006637D02*
X021212Y008034D01*
X021480Y008302D01*
X023530Y008302D01*
X023780Y008552D01*
X023780Y009602D01*
X023980Y009802D01*
X023980Y010002D01*
X023762Y010220D01*
X023124Y010220D01*
X023980Y009802D02*
X024925Y009802D01*
X024943Y009820D01*
X024943Y010320D01*
X024943Y010820D02*
X021948Y010820D01*
X021680Y010552D01*
X021180Y010952D02*
X021380Y011152D01*
X025680Y011152D01*
X025880Y010952D01*
X025880Y009502D01*
X022953Y007880D02*
X022940Y007866D01*
X022940Y007076D01*
X022115Y007087D02*
X022115Y007870D01*
X022124Y007880D01*
X022121Y008702D02*
X021030Y008702D01*
X020830Y008502D01*
X020830Y007202D01*
X020644Y007016D01*
X019890Y007016D01*
X019869Y006996D01*
X019890Y006516D02*
X021091Y006516D01*
X021212Y006637D01*
X022121Y008702D02*
X022124Y008706D01*
X021180Y009402D02*
X021180Y010952D01*
X017334Y007052D02*
X017370Y007016D01*
X017334Y007052D02*
X016680Y007052D01*
X016480Y007252D01*
X016480Y007909D01*
X016580Y006552D02*
X016616Y006516D01*
X017370Y006516D01*
X017370Y005839D02*
X016275Y005839D01*
X015897Y005460D01*
X016487Y004952D02*
X016874Y005339D01*
X017370Y005339D01*
X010149Y015263D02*
X010149Y017783D01*
X010184Y017819D01*
X010327Y017819D01*
X009304Y017819D01*
X009289Y017804D01*
X009736Y016752D02*
X008693Y016752D01*
X010524Y016752D02*
X010982Y016752D01*
X011211Y016523D01*
X014568Y016523D01*
X014686Y016406D01*
X014400Y016838D02*
X013062Y016838D01*
X011487Y016838D01*
X011133Y017193D01*
X011133Y018374D01*
X010936Y018570D01*
X010331Y018570D01*
X010327Y018567D01*
X013101Y019082D02*
X004873Y019082D01*
X004282Y019673D01*
X004282Y021208D01*
X004007Y021484D01*
X003103Y021484D01*
X003103Y021484D01*
X003003Y022484D02*
X003027Y022507D01*
X004086Y022507D01*
X004519Y022074D01*
X004519Y019791D01*
X004991Y019319D01*
X013219Y019319D01*
X013534Y019004D01*
X013977Y019004D01*
X013977Y018689D02*
X013494Y018689D01*
X013101Y019082D01*
X013977Y017430D02*
X014360Y017430D01*
X014519Y017271D01*
X014519Y016956D01*
X014400Y016838D01*
X008630Y024052D02*
X008380Y023852D01*
X008630Y024052D02*
X008630Y025352D01*
X008230Y025352D01*
X008130Y025452D01*
X008130Y026752D01*
X008230Y026852D01*
X008630Y026852D01*
X008630Y026352D02*
X009030Y026352D01*
X009230Y026552D01*
X009230Y027302D01*
X009030Y027502D01*
X008930Y027502D01*
X007180Y027502D01*
X008630Y025852D02*
X009030Y025852D01*
X009230Y025652D01*
X009230Y024952D01*
X009330Y024852D01*
X011730Y024852D01*
X012180Y025452D01*
X013230Y025452D02*
X013230Y026752D01*
X013330Y026852D01*
X013730Y026852D01*
X013730Y026352D02*
X014230Y026352D01*
X014330Y026452D01*
X014330Y027752D01*
X014230Y027852D01*
X014180Y027852D01*
X012280Y027852D01*
X012180Y027752D01*
X010680Y026352D02*
X010030Y026352D01*
X007280Y025352D02*
X007180Y025452D01*
X007280Y025352D02*
X007080Y024952D01*
X006780Y024652D01*
X004480Y024652D01*
X004380Y024752D01*
X004380Y025652D01*
X004180Y025852D01*
X003780Y025852D01*
X003780Y025352D02*
X003380Y025352D01*
X003280Y025452D01*
X003280Y026752D01*
X003380Y026852D01*
X003780Y026852D01*
X003780Y026352D02*
X004180Y026352D01*
X004280Y026452D01*
X004380Y026552D01*
X004380Y028852D01*
X004080Y029152D01*
X003480Y029152D01*
X005180Y028852D02*
X005323Y028709D01*
X005323Y028688D01*
X003780Y025352D02*
X003780Y023952D01*
X003680Y023852D01*
X002826Y013570D02*
X003023Y013374D01*
X003378Y013374D01*
X003404Y013400D01*
X013330Y025352D02*
X013230Y025452D01*
X013330Y025352D02*
X013730Y025352D01*
X013730Y025852D02*
X014130Y025852D01*
X014330Y025652D01*
X014330Y024902D01*
X014580Y024752D01*
X016730Y024752D01*
X017180Y025452D01*
X018130Y025452D02*
X018130Y026752D01*
X018230Y026852D01*
X018630Y026852D01*
X018630Y026352D02*
X019130Y026352D01*
X019330Y026552D01*
X019330Y027152D01*
X019130Y027352D01*
X017180Y027352D01*
X015780Y026352D02*
X015130Y026352D01*
X018130Y025452D02*
X018230Y025352D01*
X018630Y025352D01*
X018630Y025852D02*
X019130Y025852D01*
X019330Y025652D01*
X019330Y025052D01*
X019530Y024852D01*
X021730Y024852D01*
X022180Y025452D01*
X022180Y025852D02*
X022380Y026052D01*
X022030Y027152D01*
X022430Y027302D01*
X024130Y027302D01*
X024380Y027102D01*
X024380Y026502D01*
X024180Y026352D01*
X023880Y026352D01*
X023880Y025852D02*
X024480Y025852D01*
X024680Y025652D01*
X024680Y025052D01*
X024880Y024852D01*
X026680Y024852D01*
X027180Y025452D01*
X025930Y025852D02*
X025780Y025852D01*
X025930Y026352D02*
X024980Y026352D01*
X023880Y026852D02*
X023480Y026852D01*
X023280Y026652D01*
X023280Y025552D01*
X023480Y025352D01*
X023880Y025352D01*
X021280Y026352D02*
X020580Y026352D01*
X020680Y026352D02*
X021280Y026352D01*
X023480Y054552D02*
X023480Y055552D01*
X023580Y055652D01*
X023080Y055652D01*
X022880Y055852D01*
X022880Y057152D01*
X021980Y056152D02*
X022080Y056052D01*
X021980Y056152D02*
X021530Y056152D01*
X020180Y056152D02*
X018480Y056152D01*
X018480Y055652D02*
X017980Y055652D01*
X017780Y055852D01*
X017780Y057152D01*
X016980Y056052D02*
X016880Y056052D01*
X016780Y056152D01*
X016430Y056152D01*
X015180Y057552D02*
X015380Y057752D01*
X018980Y057752D01*
X019180Y057552D01*
X019180Y056852D01*
X018980Y056652D01*
X018480Y056652D01*
X018480Y055652D02*
X018480Y054752D01*
X020180Y056452D02*
X020180Y057452D01*
X020380Y057652D01*
X024080Y057652D01*
X024280Y057452D01*
X024280Y056852D01*
X024080Y056652D01*
X023580Y056652D01*
X023580Y056152D02*
X025080Y056152D01*
X025180Y056252D01*
X025180Y056452D02*
X025180Y057452D01*
X025380Y057652D01*
X029080Y057652D01*
X029280Y057452D01*
X029280Y056752D01*
X029180Y056652D01*
X028680Y056652D01*
X028080Y057152D02*
X028080Y055852D01*
X028280Y055652D01*
X028680Y055652D01*
X028680Y055052D01*
X028960Y054772D01*
X015180Y056452D02*
X015180Y057552D01*
X014180Y057652D02*
X014180Y056752D01*
X014080Y056652D01*
X013480Y056652D01*
X013480Y056152D02*
X014880Y056152D01*
X015180Y056452D01*
X014180Y055552D02*
X014080Y055652D01*
X013480Y055652D01*
X012980Y055652D01*
X012880Y055752D01*
X012880Y057152D01*
X013980Y057852D02*
X010380Y057852D01*
X010180Y057652D01*
X010180Y056452D01*
X010180Y056252D02*
X010080Y056152D01*
X008480Y056152D01*
X008480Y055652D02*
X007980Y055652D01*
X007780Y055852D01*
X007780Y057452D01*
X008480Y056652D02*
X009080Y056652D01*
X009180Y056752D01*
X009180Y057652D01*
X008980Y057852D01*
X005380Y057852D01*
X005180Y057652D01*
X005180Y056452D01*
X006430Y056152D02*
X006880Y056152D01*
X006980Y056052D01*
X008480Y055652D02*
X008880Y055252D01*
X008880Y055152D01*
X011430Y056152D02*
X011880Y056152D01*
X011980Y056052D01*
X014180Y055552D02*
X014180Y055452D01*
X014180Y057652D02*
X013980Y057852D01*
D48*
X002130Y024152D02*
X002167Y009420D01*
X002543Y009420D01*
X002538Y009425D01*
X002515Y009466D01*
X002502Y009511D01*
X002502Y009733D01*
X002880Y009733D01*
X002880Y009809D01*
X002502Y009809D01*
X002502Y010031D01*
X002515Y010077D01*
X002538Y010118D01*
X002572Y010152D01*
X002613Y010175D01*
X002659Y010187D01*
X002880Y010187D01*
X002880Y009809D01*
X002957Y009809D01*
X003335Y009809D01*
X003335Y010031D01*
X003323Y010077D01*
X003299Y010118D01*
X003265Y010152D01*
X003224Y010175D01*
X003179Y010187D01*
X002957Y010187D01*
X002957Y009809D01*
X002957Y009733D01*
X003335Y009733D01*
X003335Y009511D01*
X003323Y009466D01*
X003299Y009425D01*
X003294Y009420D01*
X003398Y009420D01*
X003349Y009469D01*
X003349Y010074D01*
X003443Y010167D01*
X004048Y010167D01*
X004142Y010074D01*
X004142Y010011D01*
X004362Y010011D01*
X004362Y010113D01*
X004455Y010207D01*
X005021Y010207D01*
X005115Y010113D01*
X005115Y009429D01*
X005105Y009420D01*
X005159Y009420D01*
X005149Y009429D01*
X005149Y010113D01*
X005243Y010207D01*
X005286Y010207D01*
X005286Y010538D01*
X004840Y010538D01*
X004840Y010515D01*
X004690Y010365D01*
X004567Y010242D01*
X003543Y010242D01*
X003443Y010342D01*
X003320Y010465D01*
X003320Y011039D01*
X003543Y011262D01*
X003626Y011262D01*
X003626Y011768D01*
X003466Y011768D01*
X002894Y011768D01*
X002894Y011352D01*
X002906Y011306D01*
X002930Y011265D01*
X002963Y011232D01*
X003004Y011208D01*
X003050Y011196D01*
X003466Y011196D01*
X003466Y011768D01*
X003466Y011928D01*
X002894Y011928D01*
X002894Y012344D01*
X002906Y012390D01*
X002930Y012431D01*
X002963Y012465D01*
X003004Y012488D01*
X003050Y012500D01*
X003466Y012500D01*
X003466Y011928D01*
X003626Y011928D01*
X003626Y012500D01*
X004042Y012500D01*
X004070Y012493D01*
X004070Y012624D01*
X004124Y012755D01*
X004124Y012815D01*
X004094Y012798D01*
X004048Y012785D01*
X003904Y012785D01*
X003904Y013400D01*
X003904Y013400D01*
X003904Y012785D01*
X003761Y012785D01*
X003715Y012798D01*
X003674Y012821D01*
X003640Y012855D01*
X003640Y012855D01*
X003591Y012805D01*
X003218Y012805D01*
X003124Y012899D01*
X003124Y013154D01*
X002931Y013154D01*
X002893Y013192D01*
X002750Y013192D01*
X002611Y013250D01*
X002158Y013250D01*
X002158Y013092D02*
X003124Y013092D01*
X003124Y012933D02*
X002158Y012933D01*
X002159Y012775D02*
X004124Y012775D01*
X004070Y012616D02*
X002159Y012616D01*
X002160Y012458D02*
X002957Y012458D01*
X002894Y012299D02*
X002160Y012299D01*
X002160Y012141D02*
X002894Y012141D01*
X002894Y011982D02*
X002161Y011982D01*
X002161Y011824D02*
X003466Y011824D01*
X003466Y011982D02*
X003626Y011982D01*
X003626Y012141D02*
X003466Y012141D01*
X003466Y012299D02*
X003626Y012299D01*
X003626Y012458D02*
X003466Y012458D01*
X003904Y012933D02*
X003904Y012933D01*
X003904Y013092D02*
X003904Y013092D01*
X003904Y013250D02*
X003904Y013250D01*
X003904Y013400D02*
X003904Y014015D01*
X003761Y014015D01*
X003715Y014003D01*
X003674Y013979D01*
X003640Y013946D01*
X003640Y013946D01*
X003591Y013995D01*
X003218Y013995D01*
X003124Y013902D01*
X003124Y013806D01*
X003040Y013891D01*
X002901Y013949D01*
X002750Y013949D01*
X002611Y013891D01*
X002505Y013785D01*
X002448Y013646D01*
X002448Y013495D01*
X002505Y013356D01*
X002611Y013250D01*
X002483Y013409D02*
X002157Y013409D01*
X002157Y013567D02*
X002448Y013567D01*
X002481Y013726D02*
X002156Y013726D01*
X002156Y013884D02*
X002605Y013884D01*
X003046Y013884D02*
X003124Y013884D01*
X003184Y014255D02*
X003045Y014313D01*
X002938Y014419D01*
X002881Y014558D01*
X002881Y014709D01*
X002938Y014848D01*
X003045Y014954D01*
X003124Y014987D01*
X003124Y015962D01*
X003218Y016055D01*
X003591Y016055D01*
X003640Y016006D01*
X003640Y016006D01*
X003674Y016039D01*
X003715Y016063D01*
X003761Y016075D01*
X003904Y016075D01*
X003904Y015460D01*
X003904Y015460D01*
X003904Y014845D01*
X003761Y014845D01*
X003715Y014858D01*
X003674Y014881D01*
X003644Y014911D01*
X003644Y014731D01*
X003636Y014711D01*
X003637Y014709D01*
X003637Y014558D01*
X003579Y014419D01*
X003473Y014313D01*
X003334Y014255D01*
X003184Y014255D01*
X002998Y014360D02*
X002155Y014360D01*
X002154Y014518D02*
X002897Y014518D01*
X002881Y014677D02*
X002154Y014677D01*
X002154Y014835D02*
X002933Y014835D01*
X003124Y014994D02*
X002153Y014994D01*
X002153Y015152D02*
X003124Y015152D01*
X003124Y015311D02*
X002152Y015311D01*
X002152Y015469D02*
X003124Y015469D01*
X003124Y015628D02*
X002152Y015628D01*
X002151Y015786D02*
X003124Y015786D01*
X003124Y015945D02*
X002151Y015945D01*
X002150Y016103D02*
X004164Y016103D01*
X004164Y016120D02*
X004164Y016010D01*
X004135Y016039D01*
X004094Y016063D01*
X004048Y016075D01*
X003904Y016075D01*
X003904Y015460D01*
X003904Y014845D01*
X004048Y014845D01*
X004094Y014858D01*
X004135Y014881D01*
X004168Y014915D01*
X004169Y014915D01*
X004218Y014865D01*
X004591Y014865D01*
X004654Y014929D01*
X004718Y014865D01*
X005091Y014865D01*
X005184Y014959D01*
X005184Y015240D01*
X005224Y015257D01*
X005566Y015599D01*
X005633Y015666D01*
X005670Y015755D01*
X005670Y016227D01*
X005720Y016277D01*
X005720Y015489D01*
X005543Y015312D01*
X005420Y015189D01*
X005420Y014162D01*
X004793Y014162D01*
X004693Y014062D01*
X004608Y013978D01*
X004591Y013995D01*
X004218Y013995D01*
X004169Y013946D01*
X004168Y013946D01*
X004135Y013979D01*
X004094Y014003D01*
X004048Y014015D01*
X003904Y014015D01*
X003904Y013400D01*
X003904Y013400D01*
X003904Y013409D02*
X003904Y013409D01*
X003904Y013567D02*
X003904Y013567D01*
X003904Y013726D02*
X003904Y013726D01*
X003904Y013884D02*
X003904Y013884D01*
X003520Y014360D02*
X005420Y014360D01*
X005420Y014518D02*
X003620Y014518D01*
X003637Y014677D02*
X005420Y014677D01*
X005420Y014835D02*
X003644Y014835D01*
X003404Y014779D02*
X003404Y015460D01*
X003904Y015460D02*
X003904Y015460D01*
X003904Y015469D02*
X003904Y015469D01*
X003904Y015311D02*
X003904Y015311D01*
X003904Y015152D02*
X003904Y015152D01*
X003904Y014994D02*
X003904Y014994D01*
X003404Y014779D02*
X003259Y014633D01*
X003904Y015628D02*
X003904Y015628D01*
X003904Y015786D02*
X003904Y015786D01*
X003904Y015945D02*
X003904Y015945D01*
X004164Y016120D02*
X004201Y016208D01*
X004334Y016341D01*
X004334Y016622D01*
X004428Y016716D01*
X005032Y016716D01*
X005108Y016640D01*
X005108Y016837D01*
X005077Y016805D01*
X005036Y016781D01*
X004990Y016769D01*
X004730Y016769D01*
X004730Y017107D01*
X004730Y017444D01*
X004634Y017444D01*
X004807Y017617D01*
X004807Y018602D01*
X004842Y018636D01*
X008907Y018636D01*
X008907Y018392D01*
X008910Y018389D01*
X008900Y018370D01*
X008887Y018324D01*
X008887Y018193D01*
X009304Y018193D01*
X009720Y018193D01*
X009720Y018324D01*
X009708Y018370D01*
X009697Y018389D01*
X009700Y018392D01*
X009700Y018636D01*
X009931Y018636D01*
X009931Y018392D01*
X010025Y018298D01*
X010630Y018298D01*
X010682Y018350D01*
X010845Y018350D01*
X010913Y018282D01*
X010913Y017101D01*
X011042Y016973D01*
X011042Y016972D01*
X010900Y016972D01*
X010900Y017094D01*
X010807Y017188D01*
X010369Y017188D01*
X010369Y017550D01*
X010630Y017550D01*
X010724Y017644D01*
X010724Y017993D01*
X010630Y018087D01*
X010025Y018087D01*
X009977Y018039D01*
X009714Y018039D01*
X009720Y018061D01*
X009720Y018193D01*
X009304Y018193D01*
X009304Y018193D01*
X009304Y018193D01*
X008887Y018193D01*
X008887Y018061D01*
X008892Y018044D01*
X008178Y018044D01*
X007983Y018238D01*
X007916Y018306D01*
X007828Y018342D01*
X007675Y018342D01*
X007675Y018465D01*
X007582Y018559D01*
X006937Y018559D01*
X006934Y018556D01*
X006916Y018567D01*
X006870Y018579D01*
X006638Y018579D01*
X006638Y018152D01*
X006542Y018152D01*
X006542Y018056D01*
X006154Y018056D01*
X006154Y017785D01*
X006167Y017739D01*
X006190Y017698D01*
X006224Y017665D01*
X006265Y017641D01*
X006311Y017629D01*
X006542Y017629D01*
X006542Y018056D01*
X006638Y018056D01*
X006638Y017629D01*
X006870Y017629D01*
X006916Y017641D01*
X006934Y017652D01*
X006937Y017649D01*
X007582Y017649D01*
X007675Y017742D01*
X007675Y017862D01*
X007681Y017862D01*
X007942Y017600D01*
X008031Y017564D01*
X008987Y017564D01*
X009001Y017550D01*
X009606Y017550D01*
X009654Y017599D01*
X009929Y017599D01*
X009929Y017188D01*
X009453Y017188D01*
X009360Y017094D01*
X009360Y016972D01*
X009090Y016972D01*
X009090Y017055D01*
X008996Y017149D01*
X008391Y017149D01*
X008297Y017055D01*
X008297Y016450D01*
X008391Y016356D01*
X008996Y016356D01*
X009090Y016450D01*
X009090Y016532D01*
X009360Y016532D01*
X009360Y016410D01*
X009453Y016317D01*
X009929Y016317D01*
X009929Y015542D01*
X009482Y015542D01*
X009394Y015506D01*
X009327Y015438D01*
X009127Y015238D01*
X009090Y015150D01*
X009090Y012605D01*
X009127Y012516D01*
X009194Y012449D01*
X009194Y012449D01*
X009394Y012249D01*
X009482Y012212D01*
X011128Y012212D01*
X011216Y012249D01*
X011283Y012316D01*
X011284Y012317D01*
X011284Y012187D01*
X011869Y012187D01*
X011869Y012595D01*
X011470Y012595D01*
X011470Y013153D01*
X011479Y013162D01*
X012528Y013162D01*
X012616Y013199D01*
X012683Y013266D01*
X012794Y013377D01*
X012838Y013332D01*
X012940Y013332D01*
X012940Y013262D01*
X012878Y013262D01*
X012784Y013168D01*
X012784Y012563D01*
X012878Y012470D01*
X013482Y012470D01*
X013576Y012563D01*
X013576Y013168D01*
X013482Y013262D01*
X013420Y013262D01*
X013420Y013332D01*
X013522Y013332D01*
X013616Y013426D01*
X013616Y013991D01*
X013522Y014085D01*
X012930Y014085D01*
X012950Y014112D01*
X013328Y014112D01*
X013345Y014120D01*
X013522Y014120D01*
X013616Y014213D01*
X013616Y014349D01*
X013627Y014360D01*
X016096Y014360D01*
X016095Y014360D02*
X016159Y014297D01*
X016291Y014242D01*
X016433Y014242D01*
X016565Y014297D01*
X016666Y014397D01*
X016720Y014529D01*
X016720Y014672D01*
X016666Y014803D01*
X016565Y014904D01*
X016433Y014959D01*
X016341Y014959D01*
X016361Y014978D01*
X016418Y015117D01*
X016418Y015268D01*
X016361Y015407D01*
X016254Y015513D01*
X016115Y015570D01*
X015965Y015570D01*
X015953Y015565D01*
X015840Y015672D01*
X015840Y015951D01*
X016394Y015951D01*
X016407Y015943D01*
X016453Y015931D01*
X016575Y015931D01*
X016575Y016406D01*
X016575Y016881D01*
X016500Y016881D01*
X016500Y016955D01*
X016533Y016969D01*
X016634Y017069D01*
X016688Y017201D01*
X016688Y017344D01*
X016634Y017475D01*
X016533Y017576D01*
X016401Y017631D01*
X016259Y017631D01*
X016127Y017576D01*
X016026Y017475D01*
X015972Y017344D01*
X015972Y017201D01*
X016020Y017083D01*
X016020Y016861D01*
X015516Y016861D01*
X015516Y017122D01*
X015430Y017208D01*
X015427Y019789D01*
X015427Y019876D01*
X015427Y019876D01*
X015427Y019877D01*
X015366Y019938D01*
X014987Y020317D01*
X014850Y020458D01*
X014850Y020459D01*
X014792Y020518D01*
X015624Y020518D01*
X015597Y020506D01*
X015496Y020405D01*
X015442Y020274D01*
X015442Y020131D01*
X015496Y019999D01*
X015597Y019899D01*
X015656Y019874D01*
X015602Y019744D01*
X015602Y019601D01*
X015656Y019469D01*
X015757Y019369D01*
X015889Y019314D01*
X015982Y019314D01*
X015962Y019264D01*
X015962Y019121D01*
X016016Y018989D01*
X016117Y018889D01*
X016249Y018834D01*
X016391Y018834D01*
X016523Y018889D01*
X016624Y018989D01*
X016678Y019121D01*
X016678Y019264D01*
X016624Y019395D01*
X016530Y019489D01*
X016530Y019525D01*
X016547Y019542D01*
X017667Y019542D01*
X018089Y019964D01*
X018089Y019036D01*
X017980Y019081D01*
X017838Y019081D01*
X017706Y019026D01*
X017605Y018925D01*
X017551Y018794D01*
X017551Y018651D01*
X017605Y018519D01*
X017706Y018419D01*
X017838Y018364D01*
X017980Y018364D01*
X018089Y018409D01*
X018089Y016950D01*
X018182Y016856D01*
X018905Y016856D01*
X018970Y016921D01*
X018970Y015965D01*
X019173Y015762D01*
X017767Y015762D01*
X017730Y015799D01*
X017730Y015951D01*
X018000Y015951D01*
X018094Y016044D01*
X018094Y016767D01*
X018000Y016861D01*
X016757Y016861D01*
X016743Y016869D01*
X016697Y016881D01*
X016575Y016881D01*
X016575Y016406D01*
X016575Y016406D01*
X016575Y016406D01*
X016575Y015931D01*
X016697Y015931D01*
X016743Y015943D01*
X016757Y015951D01*
X016995Y015951D01*
X016995Y015540D01*
X017270Y015265D01*
X017393Y015142D01*
X022267Y015142D01*
X022567Y015442D01*
X022690Y015565D01*
X022690Y015705D01*
X022802Y015592D01*
X022530Y015320D01*
X022530Y015112D01*
X023060Y015112D01*
X023060Y015072D01*
X023100Y015072D01*
X023100Y014542D01*
X023308Y014542D01*
X023594Y014829D01*
X023860Y014562D01*
X024300Y014562D01*
X024610Y014873D01*
X024610Y014882D01*
X024987Y014882D01*
X025110Y015005D01*
X025287Y015183D01*
X025288Y015183D01*
X025349Y015244D01*
X025410Y015305D01*
X025410Y015306D01*
X025410Y015307D01*
X025410Y015393D01*
X025410Y015479D01*
X025409Y015480D01*
X025390Y018809D01*
X025446Y018754D01*
X025814Y018754D01*
X025906Y018845D01*
X026029Y018794D01*
X026171Y018794D01*
X026250Y018827D01*
X026250Y018605D01*
X026350Y018505D01*
X026373Y018482D01*
X025960Y018482D01*
X025650Y018172D01*
X025650Y017733D01*
X025930Y017452D01*
X025650Y017172D01*
X025650Y016733D01*
X025930Y016452D01*
X025650Y016172D01*
X025650Y015733D01*
X025930Y015452D01*
X025650Y015172D01*
X025650Y014733D01*
X025918Y014465D01*
X017487Y014452D01*
X017376Y014444D01*
X017269Y014418D01*
X017166Y014375D01*
X017071Y014317D01*
X016987Y014245D01*
X016915Y014161D01*
X016857Y014066D01*
X016815Y013964D01*
X016789Y013856D01*
X016780Y013745D01*
X016780Y009537D01*
X016694Y009623D01*
X016555Y009680D01*
X016405Y009680D01*
X016266Y009623D01*
X016159Y009517D01*
X016102Y009378D01*
X016102Y009227D01*
X016159Y009088D01*
X016175Y009073D01*
X016138Y009073D01*
X016044Y008979D01*
X016044Y008413D01*
X016138Y008320D01*
X016780Y008320D01*
X016780Y008285D01*
X016138Y008285D01*
X016044Y008191D01*
X016044Y007626D01*
X016138Y007532D01*
X016260Y007532D01*
X016260Y007161D01*
X016460Y006961D01*
X016589Y006832D01*
X016780Y006832D01*
X016780Y006059D01*
X016184Y006059D01*
X015964Y005838D01*
X015821Y005838D01*
X015682Y005781D01*
X015670Y005768D01*
X015670Y008300D01*
X015633Y008388D01*
X015566Y008456D01*
X015366Y008656D01*
X015278Y008692D01*
X013432Y008692D01*
X013344Y008656D01*
X013277Y008588D01*
X013190Y008502D01*
X013190Y008765D01*
X013355Y008930D01*
X013370Y008915D01*
X013493Y008792D01*
X014817Y008792D01*
X014917Y008892D01*
X015040Y009015D01*
X015040Y010739D01*
X014940Y010839D01*
X014817Y010962D01*
X014617Y010962D01*
X014567Y011012D01*
X014050Y011012D01*
X014050Y011191D01*
X013672Y011191D01*
X013672Y011228D01*
X014050Y011228D01*
X014050Y011430D01*
X014037Y011476D01*
X014014Y011517D01*
X013980Y011550D01*
X013939Y011574D01*
X013893Y011586D01*
X013672Y011586D01*
X013672Y011228D01*
X013635Y011228D01*
X013635Y011586D01*
X013413Y011586D01*
X013367Y011574D01*
X013360Y011570D01*
X013307Y011623D01*
X013440Y011623D01*
X013486Y011635D01*
X013527Y011659D01*
X013560Y011692D01*
X013584Y011733D01*
X013596Y011779D01*
X013596Y012001D01*
X013218Y012001D01*
X013218Y012077D01*
X013142Y012077D01*
X013142Y012001D01*
X012764Y012001D01*
X012764Y011779D01*
X012776Y011733D01*
X012800Y011692D01*
X012830Y011662D01*
X012489Y011662D01*
X012519Y011680D01*
X012553Y011713D01*
X012576Y011755D01*
X012589Y011800D01*
X012589Y012052D01*
X012004Y012052D01*
X012004Y012187D01*
X011869Y012187D01*
X011869Y012052D01*
X011284Y012052D01*
X011284Y011800D01*
X011296Y011755D01*
X011320Y011713D01*
X011353Y011680D01*
X011384Y011662D01*
X008643Y011662D01*
X008493Y011512D01*
X008370Y011389D01*
X008370Y010515D01*
X008523Y010362D01*
X008237Y010362D01*
X008284Y010475D01*
X008284Y010481D01*
X008360Y010556D01*
X008360Y011240D01*
X008266Y011334D01*
X007582Y011334D01*
X007489Y011240D01*
X007489Y010620D01*
X007476Y010608D01*
X007375Y010506D01*
X007320Y010374D01*
X007320Y010114D01*
X007298Y010093D01*
X007298Y009566D01*
X007392Y009473D01*
X007596Y009473D01*
X007603Y009470D01*
X007746Y009470D01*
X007754Y009473D01*
X007870Y009473D01*
X007870Y009420D01*
X005892Y009420D01*
X005902Y009429D01*
X005902Y010113D01*
X005808Y010207D01*
X005766Y010207D01*
X005766Y010538D01*
X006011Y010538D01*
X006086Y010462D01*
X006770Y010462D01*
X006864Y010556D01*
X006864Y011240D01*
X006770Y011334D01*
X006086Y011334D01*
X006011Y011258D01*
X005860Y011258D01*
X005911Y011309D01*
X005911Y011392D01*
X007017Y011392D01*
X007417Y011792D01*
X007540Y011915D01*
X007540Y014939D01*
X007290Y015189D01*
X007167Y015312D01*
X006640Y015312D01*
X006640Y017039D01*
X006590Y017089D01*
X006467Y017212D01*
X005943Y017212D01*
X005843Y017112D01*
X005720Y016989D01*
X005720Y016928D01*
X005649Y016999D01*
X005202Y016999D01*
X005146Y016943D01*
X005146Y017107D01*
X005146Y017288D01*
X005134Y017334D01*
X005110Y017375D01*
X005077Y017408D01*
X005036Y017432D01*
X004990Y017444D01*
X004730Y017444D01*
X004730Y017107D01*
X004730Y017107D01*
X004730Y017107D01*
X004314Y017107D01*
X004314Y017124D01*
X004212Y017022D01*
X002975Y017022D01*
X002778Y017219D01*
X002655Y017342D01*
X002655Y018004D01*
X002588Y018004D01*
X002411Y018077D01*
X002276Y018212D01*
X002203Y018389D01*
X002203Y018579D01*
X002276Y018756D01*
X002411Y018891D01*
X002588Y018964D01*
X003419Y018964D01*
X003595Y018891D01*
X003730Y018756D01*
X003803Y018579D01*
X003803Y018389D01*
X003730Y018212D01*
X003595Y018077D01*
X003419Y018004D01*
X003075Y018004D01*
X003075Y017516D01*
X003149Y017442D01*
X004038Y017442D01*
X004387Y017791D01*
X004387Y018776D01*
X004510Y018899D01*
X004628Y019016D01*
X004191Y019453D01*
X004062Y019582D01*
X004062Y021117D01*
X003916Y021264D01*
X003851Y021264D01*
X003830Y021212D01*
X003695Y021077D01*
X003519Y021004D01*
X002688Y021004D01*
X002511Y021077D01*
X002376Y021212D01*
X002303Y021389D01*
X002303Y021579D01*
X002376Y021756D01*
X002511Y021891D01*
X002688Y021964D01*
X003519Y021964D01*
X003695Y021891D01*
X003830Y021756D01*
X003852Y021704D01*
X004098Y021704D01*
X004227Y021575D01*
X004299Y021503D01*
X004299Y021983D01*
X003994Y022287D01*
X003761Y022287D01*
X003730Y022212D01*
X003595Y022077D01*
X003419Y022004D01*
X002588Y022004D01*
X002411Y022077D01*
X002276Y022212D01*
X002203Y022389D01*
X002203Y022579D01*
X002276Y022756D01*
X002411Y022891D01*
X002588Y022964D01*
X003419Y022964D01*
X003595Y022891D01*
X003730Y022756D01*
X003742Y022727D01*
X004177Y022727D01*
X004306Y022599D01*
X004739Y022166D01*
X004739Y019882D01*
X005082Y019539D01*
X005852Y019539D01*
X005543Y019848D01*
X005539Y019846D01*
X005388Y019846D01*
X005249Y019903D01*
X005143Y020010D01*
X005085Y020149D01*
X005085Y020299D01*
X005143Y020438D01*
X005249Y020545D01*
X005388Y020602D01*
X005539Y020602D01*
X005678Y020545D01*
X005784Y020438D01*
X005842Y020299D01*
X005842Y020149D01*
X005840Y020145D01*
X006220Y019765D01*
X010723Y019765D01*
X010706Y019772D01*
X010599Y019878D01*
X010542Y020017D01*
X010542Y020168D01*
X010599Y020307D01*
X010706Y020413D01*
X010845Y020470D01*
X010995Y020470D01*
X011134Y020413D01*
X011241Y020307D01*
X011298Y020168D01*
X011298Y020017D01*
X011296Y020013D01*
X011308Y020001D01*
X013503Y020001D01*
X013522Y019983D01*
X013522Y020429D01*
X013594Y020501D01*
X013293Y020802D01*
X013170Y020925D01*
X013170Y022699D01*
X013830Y023359D01*
X013953Y023482D01*
X016833Y023482D01*
X017090Y023739D01*
X017090Y023739D01*
X017213Y023862D01*
X023273Y023862D01*
X023570Y024159D01*
X023578Y024167D01*
X002130Y024152D01*
X002130Y024028D02*
X023439Y024028D01*
X023281Y023870D02*
X002131Y023870D01*
X002131Y023711D02*
X017062Y023711D01*
X016904Y023553D02*
X002132Y023553D01*
X002132Y023394D02*
X013865Y023394D01*
X013707Y023236D02*
X002132Y023236D01*
X002133Y023077D02*
X013548Y023077D01*
X013390Y022919D02*
X003527Y022919D01*
X003725Y022760D02*
X013231Y022760D01*
X013170Y022602D02*
X004302Y022602D01*
X004461Y022443D02*
X013170Y022443D01*
X013170Y022285D02*
X004619Y022285D01*
X004739Y022126D02*
X013170Y022126D01*
X013170Y021968D02*
X004739Y021968D01*
X004739Y021809D02*
X013170Y021809D01*
X013170Y021651D02*
X004739Y021651D01*
X004739Y021492D02*
X013170Y021492D01*
X013170Y021334D02*
X004739Y021334D01*
X004739Y021175D02*
X013170Y021175D01*
X013170Y021017D02*
X004739Y021017D01*
X004739Y020858D02*
X013237Y020858D01*
X013395Y020700D02*
X004739Y020700D01*
X004739Y020541D02*
X005246Y020541D01*
X005120Y020383D02*
X004739Y020383D01*
X004739Y020224D02*
X005085Y020224D01*
X005120Y020066D02*
X004739Y020066D01*
X004739Y019907D02*
X005245Y019907D01*
X005030Y019590D02*
X005800Y019590D01*
X005642Y019749D02*
X004872Y019749D01*
X004371Y019273D02*
X003855Y019273D01*
X003830Y019212D02*
X003903Y019389D01*
X003903Y019579D01*
X003830Y019756D01*
X003695Y019891D01*
X003519Y019964D01*
X002688Y019964D01*
X002511Y019891D01*
X002376Y019756D01*
X002303Y019579D01*
X002303Y019389D01*
X002376Y019212D01*
X002511Y019077D01*
X002688Y019004D01*
X003519Y019004D01*
X003695Y019077D01*
X003830Y019212D01*
X003733Y019115D02*
X004529Y019115D01*
X004568Y018956D02*
X003437Y018956D01*
X003688Y018798D02*
X004410Y018798D01*
X004387Y018639D02*
X003778Y018639D01*
X003803Y018481D02*
X004387Y018481D01*
X004387Y018322D02*
X003776Y018322D01*
X003682Y018164D02*
X004387Y018164D01*
X004387Y018005D02*
X003422Y018005D01*
X003075Y017847D02*
X004387Y017847D01*
X004284Y017688D02*
X003075Y017688D01*
X003075Y017530D02*
X004126Y017530D01*
X004314Y017107D02*
X004314Y016926D01*
X004326Y016880D01*
X004350Y016839D01*
X004383Y016805D01*
X004424Y016781D01*
X004470Y016769D01*
X004730Y016769D01*
X004730Y017107D01*
X005146Y017107D01*
X004730Y017107D01*
X004730Y017107D01*
X004314Y017107D01*
X004314Y017054D02*
X004244Y017054D01*
X004322Y016896D02*
X002148Y016896D01*
X002148Y017054D02*
X002942Y017054D01*
X002784Y017213D02*
X002148Y017213D01*
X002147Y017371D02*
X002655Y017371D01*
X002655Y017530D02*
X002147Y017530D01*
X002146Y017688D02*
X002655Y017688D01*
X002655Y017847D02*
X002146Y017847D01*
X002146Y018005D02*
X002584Y018005D01*
X002324Y018164D02*
X002145Y018164D01*
X002145Y018322D02*
X002230Y018322D01*
X002203Y018481D02*
X002144Y018481D01*
X002144Y018639D02*
X002228Y018639D01*
X002144Y018798D02*
X002318Y018798D01*
X002143Y018956D02*
X002569Y018956D01*
X002473Y019115D02*
X002143Y019115D01*
X002142Y019273D02*
X002351Y019273D01*
X002303Y019432D02*
X002142Y019432D01*
X002142Y019590D02*
X002308Y019590D01*
X002373Y019749D02*
X002141Y019749D01*
X002141Y019907D02*
X002551Y019907D01*
X002566Y019996D02*
X002491Y020021D01*
X002421Y020056D01*
X002357Y020103D01*
X002302Y020158D01*
X002255Y020222D01*
X002220Y020292D01*
X002195Y020367D01*
X002183Y020445D01*
X002183Y020464D01*
X002983Y020464D01*
X002983Y020504D01*
X002183Y020504D01*
X002183Y020523D01*
X002195Y020601D01*
X002220Y020676D01*
X002255Y020746D01*
X002302Y020810D01*
X002357Y020865D01*
X002421Y020912D01*
X002491Y020947D01*
X002566Y020972D01*
X002644Y020984D01*
X002983Y020984D01*
X002983Y020504D01*
X003023Y020504D01*
X003023Y020984D01*
X003362Y020984D01*
X003440Y020972D01*
X003515Y020947D01*
X003585Y020912D01*
X003649Y020865D01*
X003704Y020810D01*
X003751Y020746D01*
X003786Y020676D01*
X003811Y020601D01*
X003823Y020523D01*
X003823Y020504D01*
X003023Y020504D01*
X003023Y020464D01*
X003023Y019984D01*
X003362Y019984D01*
X003440Y019996D01*
X003515Y020021D01*
X003585Y020056D01*
X003649Y020103D01*
X003704Y020158D01*
X003751Y020222D01*
X003786Y020292D01*
X003811Y020367D01*
X003823Y020445D01*
X003823Y020464D01*
X003023Y020464D01*
X002983Y020464D01*
X002983Y019984D01*
X002644Y019984D01*
X002566Y019996D01*
X002408Y020066D02*
X002140Y020066D01*
X002140Y020224D02*
X002254Y020224D01*
X002193Y020383D02*
X002140Y020383D01*
X002139Y020541D02*
X002186Y020541D01*
X002139Y020700D02*
X002232Y020700D01*
X002138Y020858D02*
X002350Y020858D01*
X002138Y021017D02*
X002656Y021017D01*
X002413Y021175D02*
X002138Y021175D01*
X002137Y021334D02*
X002326Y021334D01*
X002303Y021492D02*
X002137Y021492D01*
X002136Y021651D02*
X002333Y021651D01*
X002430Y021809D02*
X002136Y021809D01*
X002136Y021968D02*
X004299Y021968D01*
X004299Y021809D02*
X003776Y021809D01*
X003644Y022126D02*
X004155Y022126D01*
X003997Y022285D02*
X003760Y022285D01*
X004151Y021651D02*
X004299Y021651D01*
X004004Y021175D02*
X003793Y021175D01*
X003550Y021017D02*
X004062Y021017D01*
X004062Y020858D02*
X003656Y020858D01*
X003774Y020700D02*
X004062Y020700D01*
X004062Y020541D02*
X003820Y020541D01*
X003813Y020383D02*
X004062Y020383D01*
X004062Y020224D02*
X003752Y020224D01*
X003598Y020066D02*
X004062Y020066D01*
X004062Y019907D02*
X003655Y019907D01*
X003833Y019749D02*
X004062Y019749D01*
X004062Y019590D02*
X003899Y019590D01*
X003903Y019432D02*
X004212Y019432D01*
X004807Y018481D02*
X006174Y018481D01*
X006167Y018469D02*
X006154Y018423D01*
X006154Y018152D01*
X006542Y018152D01*
X006542Y018579D01*
X006311Y018579D01*
X006265Y018567D01*
X006224Y018543D01*
X006190Y018510D01*
X006167Y018469D01*
X006154Y018322D02*
X004807Y018322D01*
X004807Y018164D02*
X006154Y018164D01*
X006154Y018005D02*
X004807Y018005D01*
X004807Y017847D02*
X006154Y017847D01*
X006200Y017688D02*
X004807Y017688D01*
X004720Y017530D02*
X009929Y017530D01*
X009929Y017371D02*
X005112Y017371D01*
X005146Y017213D02*
X009929Y017213D01*
X010369Y017213D02*
X010913Y017213D01*
X010913Y017371D02*
X010369Y017371D01*
X010369Y017530D02*
X010913Y017530D01*
X010913Y017688D02*
X010724Y017688D01*
X010724Y017847D02*
X010913Y017847D01*
X010913Y018005D02*
X010711Y018005D01*
X010913Y018164D02*
X009720Y018164D01*
X009720Y018322D02*
X010001Y018322D01*
X009931Y018481D02*
X009700Y018481D01*
X009289Y017804D02*
X008078Y017804D01*
X007780Y018102D01*
X007261Y018102D01*
X007260Y018104D01*
X007675Y017847D02*
X007696Y017847D01*
X007621Y017688D02*
X007855Y017688D01*
X008058Y018164D02*
X008887Y018164D01*
X008887Y018322D02*
X007876Y018322D01*
X007660Y018481D02*
X008907Y018481D01*
X009090Y017054D02*
X009360Y017054D01*
X009360Y016420D02*
X009060Y016420D01*
X008327Y016420D02*
X008255Y016420D01*
X008247Y016406D02*
X008271Y016447D01*
X008283Y016492D01*
X008283Y016714D01*
X007905Y016714D01*
X007905Y016790D01*
X008283Y016790D01*
X008283Y017012D01*
X008271Y017058D01*
X008247Y017099D01*
X008213Y017133D01*
X008172Y017156D01*
X008127Y017169D01*
X007905Y017169D01*
X007905Y016790D01*
X007829Y016790D01*
X007828Y016790D02*
X007828Y016714D01*
X007450Y016714D01*
X007450Y016492D01*
X007463Y016447D01*
X007486Y016406D01*
X007520Y016372D01*
X007561Y016348D01*
X007607Y016336D01*
X007829Y016336D01*
X007829Y016714D01*
X007905Y016714D01*
X007905Y016336D01*
X008127Y016336D01*
X008172Y016348D01*
X008213Y016372D01*
X008247Y016406D01*
X008283Y016579D02*
X008297Y016579D01*
X008297Y016737D02*
X007905Y016737D01*
X007828Y016737D02*
X006640Y016737D01*
X006640Y016579D02*
X007450Y016579D01*
X007478Y016420D02*
X006640Y016420D01*
X006640Y016262D02*
X009929Y016262D01*
X009929Y016103D02*
X006640Y016103D01*
X006640Y015945D02*
X009929Y015945D01*
X009929Y015786D02*
X006640Y015786D01*
X006640Y015628D02*
X009929Y015628D01*
X010369Y015628D02*
X011468Y015628D01*
X011467Y015628D02*
X011513Y015616D01*
X011892Y015616D01*
X011892Y015994D01*
X011968Y015994D01*
X011968Y015616D01*
X012347Y015616D01*
X012393Y015628D01*
X012434Y015652D01*
X012468Y015686D01*
X012491Y015727D01*
X012504Y015772D01*
X012504Y015994D01*
X011968Y015994D01*
X011968Y016070D01*
X012504Y016070D01*
X012504Y016292D01*
X012501Y016303D01*
X012685Y016303D01*
X012685Y016169D01*
X013101Y016169D01*
X013101Y016169D01*
X012685Y016169D01*
X012685Y015988D01*
X012697Y015942D01*
X012721Y015901D01*
X012755Y015867D01*
X012796Y015844D01*
X012841Y015831D01*
X013101Y015831D01*
X013101Y016169D01*
X013101Y016169D01*
X013517Y016169D01*
X013517Y016303D01*
X014427Y016303D01*
X014427Y016044D01*
X014521Y015951D01*
X014781Y015951D01*
X014781Y015833D01*
X014673Y015878D01*
X014522Y015878D01*
X014383Y015820D01*
X014277Y015714D01*
X014219Y015575D01*
X014219Y015424D01*
X014277Y015285D01*
X014383Y015179D01*
X014522Y015121D01*
X014673Y015121D01*
X014812Y015179D01*
X014918Y015285D01*
X014947Y015355D01*
X015078Y015486D01*
X015201Y015609D01*
X015201Y015951D01*
X015420Y015951D01*
X015420Y015666D01*
X015418Y015664D01*
X015420Y015579D01*
X015420Y015495D01*
X015423Y015493D01*
X015423Y015490D01*
X015484Y015432D01*
X015543Y015372D01*
X015546Y015372D01*
X015662Y015262D01*
X015662Y015117D01*
X015719Y014978D01*
X015826Y014872D01*
X015902Y014840D01*
X013720Y014840D01*
X013720Y015016D01*
X013723Y015027D01*
X013720Y015063D01*
X013720Y015100D01*
X013716Y015110D01*
X013715Y015122D01*
X013698Y015154D01*
X013683Y015188D01*
X013676Y015196D01*
X013670Y015206D01*
X013642Y015230D01*
X013616Y015256D01*
X013606Y015260D01*
X013342Y015480D01*
X013316Y015506D01*
X013306Y015510D01*
X013297Y015517D01*
X013262Y015528D01*
X013228Y015542D01*
X013217Y015542D01*
X013206Y015546D01*
X013169Y015542D01*
X010369Y015542D01*
X010369Y016317D01*
X010807Y016317D01*
X010900Y016410D01*
X010900Y016523D01*
X010991Y016432D01*
X011120Y016303D01*
X011359Y016303D01*
X011356Y016292D01*
X011356Y016070D01*
X011892Y016070D01*
X011892Y015994D01*
X011356Y015994D01*
X011356Y015772D01*
X011369Y015727D01*
X011392Y015686D01*
X011426Y015652D01*
X011467Y015628D01*
X011356Y015786D02*
X010369Y015786D01*
X010369Y015945D02*
X011356Y015945D01*
X011356Y016103D02*
X010369Y016103D01*
X010369Y016262D02*
X011356Y016262D01*
X011003Y016420D02*
X010900Y016420D01*
X010900Y017054D02*
X010960Y017054D01*
X010873Y018322D02*
X010654Y018322D01*
X010587Y019907D02*
X006077Y019907D01*
X005919Y020066D02*
X010542Y020066D01*
X010565Y020224D02*
X005842Y020224D01*
X005807Y020383D02*
X010676Y020383D01*
X011164Y020383D02*
X013522Y020383D01*
X013522Y020224D02*
X011275Y020224D01*
X011298Y020066D02*
X013522Y020066D01*
X013554Y020541D02*
X005681Y020541D01*
X006542Y018481D02*
X006638Y018481D01*
X006638Y018322D02*
X006542Y018322D01*
X006542Y018164D02*
X006638Y018164D01*
X006638Y018005D02*
X006542Y018005D01*
X006542Y017847D02*
X006638Y017847D01*
X006638Y017688D02*
X006542Y017688D01*
X006625Y017054D02*
X007462Y017054D01*
X007463Y017058D02*
X007450Y017012D01*
X007450Y016790D01*
X007828Y016790D01*
X007829Y016790D02*
X007829Y017169D01*
X007607Y017169D01*
X007561Y017156D01*
X007520Y017133D01*
X007486Y017099D01*
X007463Y017058D01*
X007450Y016896D02*
X006640Y016896D01*
X005785Y017054D02*
X005146Y017054D01*
X005108Y016737D02*
X002149Y016737D01*
X002149Y016579D02*
X004334Y016579D01*
X004334Y016420D02*
X002150Y016420D01*
X002150Y016262D02*
X004254Y016262D01*
X004404Y016072D02*
X004730Y016398D01*
X004404Y016072D02*
X004404Y015460D01*
X004904Y015460D02*
X005088Y015460D01*
X005430Y015802D01*
X005430Y016598D01*
X005426Y016602D01*
X005705Y016262D02*
X005720Y016262D01*
X005720Y016103D02*
X005670Y016103D01*
X005670Y015945D02*
X005720Y015945D01*
X005720Y015786D02*
X005670Y015786D01*
X005720Y015628D02*
X005595Y015628D01*
X005700Y015469D02*
X005436Y015469D01*
X005542Y015311D02*
X005278Y015311D01*
X005184Y015152D02*
X005420Y015152D01*
X005420Y014994D02*
X005184Y014994D01*
X005420Y014201D02*
X002155Y014201D01*
X002156Y014043D02*
X004674Y014043D01*
X006640Y015469D02*
X009358Y015469D01*
X009199Y015311D02*
X007168Y015311D01*
X007327Y015152D02*
X009091Y015152D01*
X009090Y014994D02*
X007485Y014994D01*
X007540Y014835D02*
X009090Y014835D01*
X009090Y014677D02*
X007540Y014677D01*
X007540Y014518D02*
X009090Y014518D01*
X009090Y014360D02*
X007540Y014360D01*
X007540Y014201D02*
X009090Y014201D01*
X009090Y014043D02*
X007540Y014043D01*
X007540Y013884D02*
X009090Y013884D01*
X009090Y013726D02*
X007540Y013726D01*
X007540Y013567D02*
X009090Y013567D01*
X009090Y013409D02*
X007540Y013409D01*
X007540Y013250D02*
X009090Y013250D01*
X009090Y013092D02*
X007540Y013092D01*
X007540Y012933D02*
X009090Y012933D01*
X009090Y012775D02*
X007540Y012775D01*
X007540Y012616D02*
X009090Y012616D01*
X009185Y012458D02*
X007540Y012458D01*
X007540Y012299D02*
X009344Y012299D01*
X009524Y012458D02*
X011086Y012458D01*
X011080Y012452D02*
X009530Y012452D01*
X009330Y012652D01*
X009330Y015102D01*
X009530Y015302D01*
X013180Y015302D01*
X013480Y015052D01*
X013480Y014892D01*
X013479Y014893D01*
X013208Y014893D01*
X013208Y014524D01*
X013152Y014524D01*
X013152Y014468D01*
X012724Y014468D01*
X012724Y014256D01*
X012733Y014223D01*
X012680Y014152D01*
X012680Y013602D01*
X012480Y013402D01*
X011380Y013402D01*
X011230Y013252D01*
X011230Y012602D01*
X011080Y012452D01*
X011026Y012584D02*
X011067Y012608D01*
X011101Y012641D01*
X011125Y012682D01*
X011137Y012728D01*
X011137Y013735D01*
X010466Y013735D01*
X010466Y013895D01*
X011137Y013895D01*
X011137Y014902D01*
X011125Y014947D01*
X011101Y014988D01*
X011067Y015022D01*
X011026Y015046D01*
X010980Y015058D01*
X010466Y015058D01*
X010466Y013895D01*
X010306Y013895D01*
X010306Y015058D01*
X009791Y015058D01*
X009746Y015046D01*
X009705Y015022D01*
X009671Y014988D01*
X009647Y014947D01*
X009635Y014902D01*
X009635Y013895D01*
X010306Y013895D01*
X010306Y013735D01*
X010466Y013735D01*
X010466Y012572D01*
X010980Y012572D01*
X011026Y012584D01*
X011076Y012616D02*
X011230Y012616D01*
X011230Y012775D02*
X011137Y012775D01*
X011137Y012933D02*
X011230Y012933D01*
X011230Y013092D02*
X011137Y013092D01*
X011137Y013250D02*
X011230Y013250D01*
X011137Y013409D02*
X012487Y013409D01*
X012478Y013467D02*
X012519Y013491D01*
X012553Y013525D01*
X012576Y013566D01*
X012589Y013611D01*
X012589Y013863D01*
X012004Y013863D01*
X012004Y013998D01*
X012589Y013998D01*
X012589Y014249D01*
X012576Y014295D01*
X012553Y014336D01*
X012519Y014370D01*
X012478Y014393D01*
X012444Y014402D01*
X012468Y014426D01*
X012491Y014467D01*
X012504Y014513D01*
X012504Y014734D01*
X011968Y014734D01*
X011968Y014356D01*
X012004Y014356D01*
X012004Y013998D01*
X011869Y013998D01*
X011869Y014356D01*
X011892Y014356D01*
X011892Y014734D01*
X011968Y014734D01*
X011968Y014811D01*
X011892Y014811D01*
X011892Y015189D01*
X011513Y015189D01*
X011467Y015176D01*
X011426Y015153D01*
X011392Y015119D01*
X011369Y015078D01*
X011356Y015032D01*
X011356Y014811D01*
X011892Y014811D01*
X011892Y014734D01*
X011356Y014734D01*
X011356Y014513D01*
X011369Y014467D01*
X011392Y014426D01*
X011418Y014400D01*
X011394Y014393D01*
X011353Y014370D01*
X011320Y014336D01*
X011296Y014295D01*
X011284Y014249D01*
X011284Y013998D01*
X011869Y013998D01*
X011869Y013863D01*
X012004Y013863D01*
X012004Y013455D01*
X012432Y013455D01*
X012478Y013467D01*
X012577Y013567D02*
X012645Y013567D01*
X012680Y013726D02*
X012589Y013726D01*
X012680Y013884D02*
X012004Y013884D01*
X011869Y013884D02*
X010466Y013884D01*
X010466Y013726D02*
X010306Y013726D01*
X010306Y013735D02*
X010306Y012572D01*
X009791Y012572D01*
X009746Y012584D01*
X009705Y012608D01*
X009671Y012641D01*
X009647Y012682D01*
X009635Y012728D01*
X009635Y013735D01*
X010306Y013735D01*
X010306Y013884D02*
X009330Y013884D01*
X009330Y013726D02*
X009635Y013726D01*
X009635Y013567D02*
X009330Y013567D01*
X009330Y013409D02*
X009635Y013409D01*
X009635Y013250D02*
X009330Y013250D01*
X009330Y013092D02*
X009635Y013092D01*
X009635Y012933D02*
X009330Y012933D01*
X009330Y012775D02*
X009635Y012775D01*
X009696Y012616D02*
X009366Y012616D01*
X010306Y012616D02*
X010466Y012616D01*
X010466Y012775D02*
X010306Y012775D01*
X010306Y012933D02*
X010466Y012933D01*
X010466Y013092D02*
X010306Y013092D01*
X010306Y013250D02*
X010466Y013250D01*
X010466Y013409D02*
X010306Y013409D01*
X010306Y013567D02*
X010466Y013567D01*
X010466Y014043D02*
X010306Y014043D01*
X010306Y014201D02*
X010466Y014201D01*
X010466Y014360D02*
X010306Y014360D01*
X010306Y014518D02*
X010466Y014518D01*
X010466Y014677D02*
X010306Y014677D01*
X010306Y014835D02*
X010466Y014835D01*
X010466Y014994D02*
X010306Y014994D01*
X009794Y015185D02*
X009676Y015067D01*
X009558Y015067D01*
X009676Y014994D02*
X009330Y014994D01*
X009330Y014835D02*
X009635Y014835D01*
X009635Y014677D02*
X009330Y014677D01*
X009330Y014518D02*
X009635Y014518D01*
X009635Y014360D02*
X009330Y014360D01*
X009330Y014201D02*
X009635Y014201D01*
X009635Y014043D02*
X009330Y014043D01*
X009380Y015152D02*
X011425Y015152D01*
X011356Y014994D02*
X011095Y014994D01*
X011137Y014835D02*
X011356Y014835D01*
X011356Y014677D02*
X011137Y014677D01*
X011137Y014518D02*
X011356Y014518D01*
X011344Y014360D02*
X011137Y014360D01*
X011137Y014201D02*
X011284Y014201D01*
X011284Y014043D02*
X011137Y014043D01*
X011284Y013863D02*
X011284Y013611D01*
X011296Y013566D01*
X011320Y013525D01*
X011353Y013491D01*
X011394Y013467D01*
X011440Y013455D01*
X011869Y013455D01*
X011869Y013863D01*
X011284Y013863D01*
X011284Y013726D02*
X011137Y013726D01*
X011137Y013567D02*
X011296Y013567D01*
X011470Y013092D02*
X012784Y013092D01*
X012784Y012933D02*
X011470Y012933D01*
X011470Y012775D02*
X012784Y012775D01*
X012784Y012616D02*
X011470Y012616D01*
X011284Y012299D02*
X011266Y012299D01*
X011284Y011982D02*
X007540Y011982D01*
X007540Y012141D02*
X011869Y012141D01*
X012004Y012141D02*
X012764Y012141D01*
X012764Y012077D02*
X013142Y012077D01*
X013142Y012455D01*
X012920Y012455D01*
X012874Y012443D01*
X012833Y012419D01*
X012800Y012386D01*
X012776Y012345D01*
X012764Y012299D01*
X012764Y012077D01*
X012764Y011982D02*
X012589Y011982D01*
X012589Y011824D02*
X012764Y011824D01*
X012827Y011665D02*
X012494Y011665D01*
X012589Y012187D02*
X012004Y012187D01*
X012004Y012595D01*
X012432Y012595D01*
X012478Y012582D01*
X012519Y012559D01*
X012553Y012525D01*
X012576Y012484D01*
X012589Y012438D01*
X012589Y012187D01*
X012589Y012299D02*
X012764Y012299D01*
X012583Y012458D02*
X016780Y012458D01*
X016780Y012616D02*
X013576Y012616D01*
X013576Y012775D02*
X016780Y012775D01*
X016780Y012933D02*
X013576Y012933D01*
X013576Y013092D02*
X016780Y013092D01*
X016780Y013250D02*
X013494Y013250D01*
X013599Y013409D02*
X016780Y013409D01*
X016780Y013567D02*
X013616Y013567D01*
X013616Y013726D02*
X016780Y013726D01*
X016796Y013884D02*
X013616Y013884D01*
X013564Y014043D02*
X016847Y014043D01*
X016950Y014201D02*
X013604Y014201D01*
X013627Y014360D02*
X016095Y014360D01*
X016362Y014600D02*
X013122Y014600D01*
X012866Y014600D01*
X012826Y014560D01*
X012724Y014524D02*
X013152Y014524D01*
X013152Y014893D01*
X012881Y014893D01*
X012835Y014880D01*
X012794Y014857D01*
X012760Y014823D01*
X012737Y014782D01*
X012724Y014736D01*
X012724Y014524D01*
X012724Y014677D02*
X012504Y014677D01*
X012504Y014811D02*
X012504Y015032D01*
X012491Y015078D01*
X012468Y015119D01*
X012434Y015153D01*
X012393Y015176D01*
X012347Y015189D01*
X011968Y015189D01*
X011968Y014811D01*
X012504Y014811D01*
X012504Y014835D02*
X012773Y014835D01*
X012504Y014994D02*
X013480Y014994D01*
X013360Y015152D02*
X012435Y015152D01*
X011968Y015152D02*
X011892Y015152D01*
X011892Y014994D02*
X011968Y014994D01*
X011968Y014835D02*
X011892Y014835D01*
X011892Y014677D02*
X011968Y014677D01*
X011968Y014518D02*
X011892Y014518D01*
X011892Y014360D02*
X011968Y014360D01*
X012004Y014201D02*
X011869Y014201D01*
X011869Y014043D02*
X012004Y014043D01*
X012004Y013726D02*
X011869Y013726D01*
X011869Y013567D02*
X012004Y013567D01*
X012667Y013250D02*
X012866Y013250D01*
X013180Y012866D02*
X013180Y013709D01*
X012680Y014043D02*
X012589Y014043D01*
X012589Y014201D02*
X012717Y014201D01*
X012724Y014360D02*
X012529Y014360D01*
X012504Y014518D02*
X013152Y014518D01*
X013152Y014677D02*
X013208Y014677D01*
X013208Y014835D02*
X013152Y014835D01*
X013720Y014994D02*
X015713Y014994D01*
X015662Y015152D02*
X014747Y015152D01*
X014928Y015311D02*
X015611Y015311D01*
X015444Y015469D02*
X015061Y015469D01*
X015201Y015628D02*
X015419Y015628D01*
X015420Y015786D02*
X015201Y015786D01*
X015201Y015945D02*
X015420Y015945D01*
X015840Y015945D02*
X016404Y015945D01*
X016575Y015945D02*
X016575Y015945D01*
X016575Y016103D02*
X016575Y016103D01*
X016575Y016262D02*
X016575Y016262D01*
X016575Y016420D02*
X016575Y016420D01*
X016575Y016579D02*
X016575Y016579D01*
X016575Y016737D02*
X016575Y016737D01*
X016500Y016896D02*
X018142Y016896D01*
X018094Y016737D02*
X018970Y016737D01*
X018970Y016579D02*
X018094Y016579D01*
X018094Y016420D02*
X018970Y016420D01*
X018970Y016262D02*
X018094Y016262D01*
X018094Y016103D02*
X018970Y016103D01*
X018990Y015945D02*
X017730Y015945D01*
X017743Y015786D02*
X019149Y015786D01*
X019390Y016435D02*
X019390Y017339D01*
X019267Y017462D01*
X019207Y017522D01*
X019467Y017522D01*
X019590Y017645D01*
X020130Y018185D01*
X020130Y017963D01*
X019998Y017963D01*
X019904Y017869D01*
X019904Y017303D01*
X019998Y017210D01*
X020682Y017210D01*
X020776Y017303D01*
X020776Y017869D01*
X020682Y017963D01*
X020550Y017963D01*
X020550Y018399D01*
X020447Y018502D01*
X021143Y019198D01*
X021122Y019148D01*
X021122Y018997D01*
X021150Y018929D01*
X021150Y017963D01*
X021018Y017963D01*
X020924Y017869D01*
X020924Y017303D01*
X021018Y017210D01*
X021702Y017210D01*
X021796Y017303D01*
X021796Y017869D01*
X021702Y017963D01*
X021570Y017963D01*
X021570Y018694D01*
X021575Y018694D01*
X021714Y018752D01*
X021821Y018858D01*
X021852Y018934D01*
X021852Y018848D01*
X021870Y018829D01*
X021870Y016039D01*
X021793Y015962D01*
X019931Y015962D01*
X019954Y015972D01*
X020061Y016078D01*
X020118Y016217D01*
X020118Y016368D01*
X020116Y016372D01*
X020167Y016422D01*
X020682Y016422D01*
X020776Y016516D01*
X020776Y016589D01*
X020924Y016589D01*
X020924Y016516D01*
X021018Y016422D01*
X021702Y016422D01*
X021796Y016516D01*
X021796Y017081D01*
X021702Y017175D01*
X021018Y017175D01*
X020924Y017081D01*
X020924Y017009D01*
X020776Y017009D01*
X020776Y017081D01*
X020682Y017175D01*
X019998Y017175D01*
X019904Y017081D01*
X019904Y016754D01*
X019819Y016669D01*
X019815Y016670D01*
X019665Y016670D01*
X019526Y016613D01*
X019419Y016507D01*
X019390Y016435D01*
X019390Y016579D02*
X019492Y016579D01*
X019390Y016737D02*
X019888Y016737D01*
X019904Y016896D02*
X019390Y016896D01*
X019390Y017054D02*
X019904Y017054D01*
X019995Y017213D02*
X019390Y017213D01*
X019358Y017371D02*
X019904Y017371D01*
X019904Y017530D02*
X019475Y017530D01*
X019633Y017688D02*
X019904Y017688D01*
X019904Y017847D02*
X019792Y017847D01*
X019950Y018005D02*
X020130Y018005D01*
X020130Y018164D02*
X020109Y018164D01*
X020550Y018164D02*
X021150Y018164D01*
X021150Y018322D02*
X020550Y018322D01*
X020468Y018481D02*
X021150Y018481D01*
X021150Y018639D02*
X020584Y018639D01*
X020743Y018798D02*
X021150Y018798D01*
X021139Y018956D02*
X020901Y018956D01*
X021060Y019115D02*
X021122Y019115D01*
X021374Y019429D02*
X021450Y019505D01*
X021450Y020025D01*
X021647Y020222D01*
X024427Y020222D01*
X024550Y020345D01*
X024689Y020484D01*
X024699Y020458D01*
X024806Y020352D01*
X024945Y020294D01*
X025095Y020294D01*
X025234Y020352D01*
X025290Y020408D01*
X025346Y020352D01*
X025485Y020294D01*
X025635Y020294D01*
X025774Y020352D01*
X025881Y020458D01*
X025938Y020597D01*
X025938Y020653D01*
X025982Y020697D01*
X025982Y020677D01*
X026039Y020538D01*
X026146Y020432D01*
X026285Y020374D01*
X026435Y020374D01*
X026574Y020432D01*
X026681Y020538D01*
X026738Y020677D01*
X026738Y020828D01*
X026681Y020967D01*
X026670Y020977D01*
X026670Y021879D01*
X026547Y022002D01*
X026367Y022182D01*
X027754Y022182D01*
X027870Y022024D01*
X027870Y021741D01*
X027866Y021741D01*
X027814Y021689D01*
X027812Y021691D01*
X027779Y021725D01*
X027738Y021749D01*
X027692Y021761D01*
X027550Y021761D01*
X027408Y021761D01*
X027362Y021749D01*
X027321Y021725D01*
X027300Y021704D01*
X027279Y021725D01*
X027238Y021749D01*
X027192Y021761D01*
X027050Y021761D01*
X026908Y021761D01*
X026862Y021749D01*
X026821Y021725D01*
X026788Y021691D01*
X026764Y021650D01*
X026752Y021605D01*
X026752Y021345D01*
X027050Y021345D01*
X027050Y021761D01*
X027050Y021345D01*
X027050Y021345D01*
X027348Y021345D01*
X027550Y021345D01*
X027550Y021761D01*
X027550Y021345D01*
X027550Y021345D01*
X027550Y021345D01*
X027050Y021345D01*
X027050Y021345D01*
X027050Y021345D01*
X026752Y021345D01*
X026752Y021085D01*
X026764Y021039D01*
X026788Y020998D01*
X026821Y020964D01*
X026862Y020941D01*
X026908Y020929D01*
X027050Y020929D01*
X027192Y020929D01*
X027238Y020941D01*
X027279Y020964D01*
X027300Y020986D01*
X027321Y020964D01*
X027362Y020941D01*
X027408Y020929D01*
X027550Y020929D01*
X027692Y020929D01*
X027738Y020941D01*
X027779Y020964D01*
X027812Y020998D01*
X027814Y021001D01*
X027866Y020949D01*
X028234Y020949D01*
X028300Y021014D01*
X028366Y020949D01*
X028734Y020949D01*
X028800Y021014D01*
X028866Y020949D01*
X029234Y020949D01*
X029300Y021014D01*
X029366Y020949D01*
X029734Y020949D01*
X029800Y021014D01*
X029866Y020949D01*
X030234Y020949D01*
X030300Y021014D01*
X030366Y020949D01*
X030734Y020949D01*
X030828Y021042D01*
X030828Y021647D01*
X030734Y021741D01*
X030366Y021741D01*
X030300Y021675D01*
X030234Y021741D01*
X029866Y021741D01*
X029800Y021675D01*
X029750Y021725D01*
X029750Y022250D01*
X029753Y022253D01*
X029750Y022336D01*
X029750Y022352D01*
X030285Y022352D01*
X030366Y022272D01*
X030505Y022214D01*
X030655Y022214D01*
X030794Y022272D01*
X030901Y022378D01*
X030958Y022517D01*
X030958Y022668D01*
X030901Y022807D01*
X030794Y022913D01*
X030655Y022970D01*
X030505Y022970D01*
X030366Y022913D01*
X030285Y022832D01*
X029799Y022832D01*
X029483Y023148D01*
X029416Y023216D01*
X029328Y023252D01*
X025775Y023252D01*
X025694Y023333D01*
X025555Y023390D01*
X025405Y023390D01*
X025266Y023333D01*
X025159Y023227D01*
X025102Y023088D01*
X025102Y022937D01*
X025149Y022822D01*
X023115Y022822D01*
X023846Y023542D01*
X030058Y023542D01*
X030059Y023538D01*
X030166Y023432D01*
X030305Y023374D01*
X030455Y023374D01*
X030594Y023432D01*
X030701Y023538D01*
X030758Y023677D01*
X030758Y023828D01*
X030701Y023967D01*
X030594Y024073D01*
X030455Y024130D01*
X030305Y024130D01*
X030166Y024073D01*
X030059Y023967D01*
X030058Y023962D01*
X029527Y023962D01*
X029647Y024082D01*
X029736Y024171D01*
X031180Y024172D01*
X031180Y014472D01*
X030477Y014471D01*
X030730Y014725D01*
X030730Y014932D01*
X030200Y014932D01*
X030200Y014972D01*
X030730Y014972D01*
X030730Y015180D01*
X030458Y015452D01*
X030730Y015725D01*
X030730Y015932D01*
X030200Y015932D01*
X030200Y014972D01*
X030160Y014972D01*
X030160Y015502D01*
X030160Y015932D01*
X030200Y015932D01*
X030200Y015972D01*
X030730Y015972D01*
X030730Y016180D01*
X030458Y016452D01*
X030730Y016725D01*
X030730Y016932D01*
X030200Y016932D01*
X030200Y015972D01*
X030160Y015972D01*
X030160Y016502D01*
X030160Y016932D01*
X030200Y016932D01*
X030200Y016972D01*
X030730Y016972D01*
X030730Y017180D01*
X030458Y017452D01*
X030730Y017725D01*
X030730Y017932D01*
X030200Y017932D01*
X030200Y016972D01*
X030160Y016972D01*
X030160Y017502D01*
X030160Y017932D01*
X030200Y017932D01*
X030200Y017972D01*
X030730Y017972D01*
X030730Y018180D01*
X030408Y018502D01*
X030200Y018502D01*
X030200Y017972D01*
X030160Y017972D01*
X030160Y018502D01*
X029952Y018502D01*
X029890Y018440D01*
X029890Y018699D01*
X029790Y018799D01*
X029800Y018809D01*
X029866Y018744D01*
X030234Y018744D01*
X030300Y018809D01*
X030366Y018744D01*
X030734Y018744D01*
X030828Y018838D01*
X030828Y019442D01*
X030760Y019511D01*
X030760Y019518D01*
X030821Y019578D01*
X030878Y019717D01*
X030878Y019868D01*
X030821Y020007D01*
X030714Y020113D01*
X030575Y020170D01*
X030425Y020170D01*
X030286Y020113D01*
X030179Y020007D01*
X030152Y019941D01*
X030101Y020067D01*
X029994Y020173D01*
X029855Y020230D01*
X029705Y020230D01*
X029566Y020173D01*
X029459Y020067D01*
X029402Y019928D01*
X029402Y019777D01*
X029459Y019638D01*
X029561Y019536D01*
X029366Y019536D01*
X029300Y019471D01*
X029234Y019536D01*
X028866Y019536D01*
X028800Y019471D01*
X028734Y019536D01*
X028366Y019536D01*
X028300Y019471D01*
X028234Y019536D01*
X027866Y019536D01*
X027800Y019471D01*
X027734Y019536D01*
X027366Y019536D01*
X027300Y019471D01*
X027234Y019536D01*
X027173Y019536D01*
X026630Y020079D01*
X026507Y020202D01*
X022473Y020202D01*
X022033Y019762D01*
X021910Y019639D01*
X021910Y019511D01*
X021852Y019452D01*
X021852Y019211D01*
X021821Y019287D01*
X021714Y019393D01*
X021575Y019450D01*
X021425Y019450D01*
X021374Y019429D01*
X021377Y019432D02*
X021380Y019432D01*
X021450Y019590D02*
X021910Y019590D01*
X021852Y019432D02*
X021620Y019432D01*
X021826Y019273D02*
X021852Y019273D01*
X021870Y018798D02*
X021760Y018798D01*
X021870Y018639D02*
X021570Y018639D01*
X021570Y018481D02*
X021870Y018481D01*
X021870Y018322D02*
X021570Y018322D01*
X021570Y018164D02*
X021870Y018164D01*
X021870Y018005D02*
X021570Y018005D01*
X021796Y017847D02*
X021870Y017847D01*
X021870Y017688D02*
X021796Y017688D01*
X021796Y017530D02*
X021870Y017530D01*
X021870Y017371D02*
X021796Y017371D01*
X021870Y017213D02*
X021705Y017213D01*
X021796Y017054D02*
X021870Y017054D01*
X021870Y016896D02*
X021796Y016896D01*
X021796Y016737D02*
X021870Y016737D01*
X021870Y016579D02*
X021796Y016579D01*
X021870Y016420D02*
X020165Y016420D01*
X020118Y016262D02*
X021870Y016262D01*
X021870Y016103D02*
X020071Y016103D01*
X020776Y016579D02*
X020924Y016579D01*
X020924Y017054D02*
X020776Y017054D01*
X020685Y017213D02*
X021015Y017213D01*
X020924Y017371D02*
X020776Y017371D01*
X020776Y017530D02*
X020924Y017530D01*
X020924Y017688D02*
X020776Y017688D01*
X020776Y017847D02*
X020924Y017847D01*
X021150Y018005D02*
X020550Y018005D01*
X020560Y019612D02*
X020521Y019707D01*
X020430Y019797D01*
X020430Y020444D01*
X021085Y021082D01*
X021087Y021082D01*
X021148Y021143D01*
X021209Y021203D01*
X021209Y021204D01*
X021210Y021205D01*
X021210Y021291D01*
X021211Y021377D01*
X021210Y021378D01*
X021210Y021985D01*
X021287Y022062D01*
X022707Y022062D01*
X023047Y022402D01*
X023153Y022402D01*
X022930Y022179D01*
X022930Y022005D01*
X022930Y021735D01*
X022894Y021699D01*
X022892Y021701D01*
X022859Y021735D01*
X022818Y021759D01*
X022772Y021771D01*
X022630Y021771D01*
X022488Y021771D01*
X022442Y021759D01*
X022401Y021735D01*
X022380Y021714D01*
X022359Y021735D01*
X022318Y021759D01*
X022272Y021771D01*
X022130Y021771D01*
X021988Y021771D01*
X021942Y021759D01*
X021901Y021735D01*
X021868Y021701D01*
X021844Y021660D01*
X021832Y021615D01*
X021832Y021355D01*
X022130Y021355D01*
X022130Y021771D01*
X022130Y021355D01*
X022130Y021355D01*
X022428Y021355D01*
X022630Y021355D01*
X022630Y021771D01*
X022630Y021355D01*
X022630Y021355D01*
X022630Y021355D01*
X022130Y021355D01*
X022130Y021355D01*
X022130Y021355D01*
X021832Y021355D01*
X021832Y021095D01*
X021844Y021049D01*
X021868Y021008D01*
X021893Y020982D01*
X021353Y020982D01*
X020750Y020379D01*
X020750Y019800D01*
X020560Y019612D01*
X020478Y019749D02*
X020698Y019749D01*
X020750Y019907D02*
X020430Y019907D01*
X020430Y020066D02*
X020750Y020066D01*
X020750Y020224D02*
X020430Y020224D01*
X020430Y020383D02*
X020754Y020383D01*
X020912Y020541D02*
X020530Y020541D01*
X020693Y020700D02*
X021071Y020700D01*
X021229Y020858D02*
X020856Y020858D01*
X021018Y021017D02*
X021863Y021017D01*
X021832Y021175D02*
X021181Y021175D01*
X021211Y021334D02*
X021832Y021334D01*
X021832Y021492D02*
X021210Y021492D01*
X021210Y021651D02*
X021842Y021651D01*
X022130Y021651D02*
X022130Y021651D01*
X022130Y021492D02*
X022130Y021492D01*
X022630Y021492D02*
X022630Y021492D01*
X022630Y021651D02*
X022630Y021651D01*
X022930Y021809D02*
X021210Y021809D01*
X021210Y021968D02*
X022930Y021968D01*
X022930Y022126D02*
X022771Y022126D01*
X022930Y022285D02*
X023036Y022285D01*
X023213Y022919D02*
X025109Y022919D01*
X025102Y023077D02*
X023374Y023077D01*
X023535Y023236D02*
X025169Y023236D01*
X025480Y023012D02*
X029280Y023012D01*
X029700Y022592D01*
X030580Y022592D01*
X030928Y022443D02*
X031180Y022443D01*
X031180Y022285D02*
X030807Y022285D01*
X030958Y022602D02*
X031180Y022602D01*
X031180Y022760D02*
X030920Y022760D01*
X030780Y022919D02*
X031180Y022919D01*
X031180Y023077D02*
X029554Y023077D01*
X029713Y022919D02*
X030380Y022919D01*
X030504Y023394D02*
X031180Y023394D01*
X031180Y023236D02*
X029367Y023236D01*
X029593Y024028D02*
X030121Y024028D01*
X030256Y023394D02*
X023696Y023394D01*
X026423Y022126D02*
X027795Y022126D01*
X027870Y021968D02*
X026581Y021968D01*
X026670Y021809D02*
X027870Y021809D01*
X027550Y021651D02*
X027550Y021651D01*
X027550Y021492D02*
X027550Y021492D01*
X027550Y021345D02*
X027550Y020929D01*
X027550Y021345D01*
X027550Y021345D01*
X027550Y021334D02*
X027550Y021334D01*
X027550Y021175D02*
X027550Y021175D01*
X027550Y021017D02*
X027550Y021017D01*
X027050Y021017D02*
X027050Y021017D01*
X027050Y020929D02*
X027050Y021345D01*
X027050Y021345D01*
X027050Y020929D01*
X027050Y021175D02*
X027050Y021175D01*
X027050Y021334D02*
X027050Y021334D01*
X027050Y021492D02*
X027050Y021492D01*
X027050Y021651D02*
X027050Y021651D01*
X026764Y021651D02*
X026670Y021651D01*
X026670Y021492D02*
X026752Y021492D01*
X026752Y021334D02*
X026670Y021334D01*
X026670Y021175D02*
X026752Y021175D01*
X026777Y021017D02*
X026670Y021017D01*
X026725Y020858D02*
X031180Y020858D01*
X031180Y020700D02*
X026738Y020700D01*
X026682Y020541D02*
X031180Y020541D01*
X031180Y020383D02*
X026456Y020383D01*
X026264Y020383D02*
X025805Y020383D01*
X025915Y020541D02*
X026038Y020541D01*
X025315Y020383D02*
X025265Y020383D01*
X024775Y020383D02*
X024588Y020383D01*
X024429Y020224D02*
X029690Y020224D01*
X029870Y020224D02*
X031180Y020224D01*
X031180Y020066D02*
X030761Y020066D01*
X030862Y019907D02*
X031180Y019907D01*
X031180Y019749D02*
X030878Y019749D01*
X030826Y019590D02*
X031180Y019590D01*
X031180Y019432D02*
X030828Y019432D01*
X030828Y019273D02*
X031180Y019273D01*
X031180Y019115D02*
X030828Y019115D01*
X030828Y018956D02*
X031180Y018956D01*
X031180Y018798D02*
X030789Y018798D01*
X031180Y018639D02*
X029890Y018639D01*
X029890Y018481D02*
X029931Y018481D01*
X030160Y018481D02*
X030200Y018481D01*
X030200Y018322D02*
X030160Y018322D01*
X030160Y018164D02*
X030200Y018164D01*
X030200Y018005D02*
X030160Y018005D01*
X030160Y017847D02*
X030200Y017847D01*
X030200Y017688D02*
X030160Y017688D01*
X030160Y017530D02*
X030200Y017530D01*
X030200Y017371D02*
X030160Y017371D01*
X030160Y017213D02*
X030200Y017213D01*
X030200Y017054D02*
X030160Y017054D01*
X030160Y016896D02*
X030200Y016896D01*
X030200Y016737D02*
X030160Y016737D01*
X030160Y016579D02*
X030200Y016579D01*
X030200Y016420D02*
X030160Y016420D01*
X030160Y016262D02*
X030200Y016262D01*
X030200Y016103D02*
X030160Y016103D01*
X030200Y015945D02*
X031180Y015945D01*
X031180Y016103D02*
X030730Y016103D01*
X030648Y016262D02*
X031180Y016262D01*
X031180Y016420D02*
X030490Y016420D01*
X030584Y016579D02*
X031180Y016579D01*
X031180Y016737D02*
X030730Y016737D01*
X030730Y016896D02*
X031180Y016896D01*
X031180Y017054D02*
X030730Y017054D01*
X030697Y017213D02*
X031180Y017213D01*
X031180Y017371D02*
X030539Y017371D01*
X030535Y017530D02*
X031180Y017530D01*
X031180Y017688D02*
X030694Y017688D01*
X030730Y017847D02*
X031180Y017847D01*
X031180Y018005D02*
X030730Y018005D01*
X030730Y018164D02*
X031180Y018164D01*
X031180Y018322D02*
X030588Y018322D01*
X030429Y018481D02*
X031180Y018481D01*
X030311Y018798D02*
X030289Y018798D01*
X029811Y018798D02*
X029791Y018798D01*
X029507Y019590D02*
X027119Y019590D01*
X026960Y019749D02*
X029414Y019749D01*
X029402Y019907D02*
X026802Y019907D01*
X026643Y020066D02*
X029459Y020066D01*
X030101Y020066D02*
X030239Y020066D01*
X030803Y021017D02*
X031180Y021017D01*
X031180Y021175D02*
X030828Y021175D01*
X030828Y021334D02*
X031180Y021334D01*
X031180Y021492D02*
X030828Y021492D01*
X030824Y021651D02*
X031180Y021651D01*
X031180Y021809D02*
X029750Y021809D01*
X029750Y021968D02*
X031180Y021968D01*
X031180Y022126D02*
X029750Y022126D01*
X029752Y022285D02*
X030353Y022285D01*
X030707Y023553D02*
X031180Y023553D01*
X031180Y023711D02*
X030758Y023711D01*
X030741Y023870D02*
X031180Y023870D01*
X031180Y024028D02*
X030639Y024028D01*
X030780Y024632D02*
X030680Y024732D01*
X030680Y046492D01*
X030460Y046712D01*
X030460Y056372D01*
X030160Y056672D01*
X030160Y056892D01*
X026080Y054152D02*
X026080Y053352D01*
X026180Y053352D01*
X026180Y053145D01*
X026078Y053043D01*
X026080Y054152D02*
X026028Y054204D01*
X025855Y054204D01*
X025067Y054204D02*
X024332Y054204D01*
X024280Y054152D01*
X021780Y054552D02*
X021530Y054402D01*
X021080Y054402D01*
X021080Y054052D01*
X021078Y054052D01*
X021078Y053043D01*
X021080Y054402D02*
X020974Y054402D01*
X020186Y054402D02*
X019580Y054402D01*
X019380Y054202D01*
X019380Y054052D01*
X019380Y054402D02*
X019380Y054452D01*
X019380Y054402D02*
X019580Y054402D01*
X005286Y048552D02*
X005230Y048552D01*
X005180Y048602D01*
X003480Y033552D02*
X003667Y033366D01*
X003667Y033352D01*
X004493Y033352D02*
X005486Y033352D01*
X006274Y033352D02*
X007180Y033352D01*
X009893Y033352D02*
X011086Y033352D01*
X011874Y033352D02*
X012180Y033352D01*
X013780Y033352D02*
X013967Y033352D01*
X014793Y033352D02*
X015486Y033352D01*
X016274Y033352D02*
X016480Y033352D01*
X018680Y033352D02*
X018867Y033352D01*
X019693Y033352D02*
X020486Y033352D01*
X021274Y033352D02*
X021880Y033352D01*
X021980Y033252D01*
X023780Y033352D02*
X023967Y033352D01*
X024793Y033352D02*
X025486Y033352D01*
X026274Y033352D02*
X026717Y033352D01*
X026817Y033253D01*
X018630Y025352D02*
X018630Y024122D01*
X016970Y023062D02*
X016970Y022137D01*
X016430Y021580D01*
X016370Y021519D01*
X016370Y021517D01*
X016369Y021516D01*
X016370Y021448D01*
X016260Y021448D01*
X016138Y021448D01*
X016092Y021436D01*
X016079Y021428D01*
X015973Y021428D01*
X016412Y021868D01*
X016445Y021854D01*
X016595Y021854D01*
X016734Y021912D01*
X016841Y022018D01*
X016898Y022157D01*
X016898Y022308D01*
X016841Y022447D01*
X016734Y022553D01*
X016595Y022610D01*
X016445Y022610D01*
X016306Y022553D01*
X016199Y022447D01*
X016142Y022308D01*
X016142Y022191D01*
X016112Y022162D01*
X016061Y022287D01*
X015954Y022393D01*
X015815Y022450D01*
X015665Y022450D01*
X015526Y022393D01*
X015419Y022287D01*
X015362Y022148D01*
X015362Y021997D01*
X015375Y021965D01*
X015367Y021955D01*
X015321Y022067D01*
X015214Y022173D01*
X015075Y022230D01*
X014925Y022230D01*
X014786Y022173D01*
X014679Y022067D01*
X014622Y021928D01*
X014622Y021777D01*
X014679Y021638D01*
X014786Y021532D01*
X014790Y021530D01*
X014790Y021428D01*
X014521Y021428D01*
X014427Y021334D01*
X014115Y021334D01*
X014075Y021350D02*
X013925Y021350D01*
X013786Y021293D01*
X013679Y021187D01*
X013628Y021062D01*
X013590Y021099D01*
X013590Y022525D01*
X014127Y023062D01*
X016970Y023062D01*
X016970Y022919D02*
X013984Y022919D01*
X013825Y022760D02*
X016970Y022760D01*
X016970Y022602D02*
X016616Y022602D01*
X016424Y022602D02*
X013667Y022602D01*
X013590Y022443D02*
X015648Y022443D01*
X015832Y022443D02*
X016198Y022443D01*
X016142Y022285D02*
X016061Y022285D01*
X016354Y021809D02*
X016653Y021809D01*
X016790Y021968D02*
X016806Y021968D01*
X016885Y022126D02*
X016959Y022126D01*
X016970Y022285D02*
X016898Y022285D01*
X016842Y022443D02*
X016970Y022443D01*
X016499Y021651D02*
X016196Y021651D01*
X016260Y021448D02*
X016260Y020973D01*
X016260Y020973D01*
X016260Y021448D01*
X016260Y021334D02*
X016260Y021334D01*
X016260Y021175D02*
X016260Y021175D01*
X016260Y021017D02*
X016260Y021017D01*
X016260Y020973D02*
X016260Y020498D01*
X016185Y020498D01*
X016185Y020300D01*
X016158Y020235D01*
X016158Y020168D01*
X016193Y020202D01*
X017453Y020202D01*
X017625Y020374D01*
X017625Y020518D01*
X016442Y020518D01*
X016428Y020510D01*
X016382Y020498D01*
X016260Y020498D01*
X016260Y020973D01*
X016260Y020973D01*
X016260Y020858D02*
X016260Y020858D01*
X016260Y020700D02*
X016260Y020700D01*
X016260Y020541D02*
X016260Y020541D01*
X016185Y020383D02*
X017625Y020383D01*
X017475Y020224D02*
X016158Y020224D01*
X015945Y020348D02*
X015800Y020202D01*
X015945Y020348D02*
X015945Y020973D01*
X016037Y021492D02*
X016369Y021492D01*
X015374Y021968D02*
X015361Y021968D01*
X015362Y022126D02*
X015261Y022126D01*
X015419Y022285D02*
X013590Y022285D01*
X013590Y022126D02*
X014739Y022126D01*
X014639Y021968D02*
X013590Y021968D01*
X013590Y021809D02*
X014622Y021809D01*
X014674Y021651D02*
X013590Y021651D01*
X013590Y021492D02*
X014790Y021492D01*
X014427Y021334D02*
X014427Y021182D01*
X014322Y021182D01*
X014321Y021187D01*
X014214Y021293D01*
X014075Y021350D01*
X013885Y021334D02*
X013590Y021334D01*
X013590Y021175D02*
X013675Y021175D01*
X014432Y020283D02*
X014490Y020225D01*
X014627Y020084D01*
X014627Y020082D01*
X014687Y020022D01*
X014747Y019961D01*
X014749Y019961D01*
X015007Y019702D01*
X015009Y018215D01*
X014984Y018275D01*
X014883Y018376D01*
X014751Y018431D01*
X014609Y018431D01*
X014477Y018376D01*
X014432Y018331D01*
X014432Y018539D01*
X014432Y020283D01*
X014432Y020224D02*
X014491Y020224D01*
X014432Y020066D02*
X014643Y020066D01*
X014802Y019907D02*
X014432Y019907D01*
X014432Y019749D02*
X014960Y019749D01*
X015007Y019590D02*
X014432Y019590D01*
X014432Y019432D02*
X015007Y019432D01*
X015008Y019273D02*
X014432Y019273D01*
X014432Y019115D02*
X015008Y019115D01*
X015008Y018956D02*
X014432Y018956D01*
X014432Y018798D02*
X015008Y018798D01*
X015008Y018639D02*
X014432Y018639D01*
X014432Y018481D02*
X015008Y018481D01*
X015009Y018322D02*
X014937Y018322D01*
X015429Y018322D02*
X018089Y018322D01*
X018089Y018164D02*
X015429Y018164D01*
X015429Y018005D02*
X018089Y018005D01*
X018089Y017847D02*
X015429Y017847D01*
X015429Y017688D02*
X018089Y017688D01*
X018089Y017530D02*
X016579Y017530D01*
X016677Y017371D02*
X018089Y017371D01*
X018089Y017213D02*
X016688Y017213D01*
X016619Y017054D02*
X018089Y017054D01*
X018945Y016896D02*
X018970Y016896D01*
X017644Y018481D02*
X015428Y018481D01*
X015428Y018639D02*
X017555Y018639D01*
X017552Y018798D02*
X015428Y018798D01*
X015428Y018956D02*
X016049Y018956D01*
X015964Y019115D02*
X015428Y019115D01*
X015428Y019273D02*
X015966Y019273D01*
X015694Y019432D02*
X015427Y019432D01*
X015427Y019590D02*
X015606Y019590D01*
X015604Y019749D02*
X015427Y019749D01*
X015396Y019907D02*
X015588Y019907D01*
X015469Y020066D02*
X015237Y020066D01*
X015079Y020224D02*
X015442Y020224D01*
X015487Y020383D02*
X014922Y020383D01*
X016587Y019432D02*
X018089Y019432D01*
X018089Y019590D02*
X017715Y019590D01*
X017874Y019749D02*
X018089Y019749D01*
X018089Y019907D02*
X018032Y019907D01*
X018045Y020474D02*
X018045Y020563D01*
X018094Y020611D01*
X018094Y021334D01*
X018830Y021334D01*
X018830Y021492D02*
X017897Y021492D01*
X017833Y021428D02*
X018130Y021725D01*
X018130Y022062D01*
X018831Y022062D01*
X018782Y021944D01*
X018782Y021801D01*
X018830Y021684D01*
X018830Y020523D01*
X018182Y020523D01*
X018134Y020474D01*
X018045Y020474D01*
X018045Y020541D02*
X018830Y020541D01*
X018830Y020700D02*
X018094Y020700D01*
X018094Y020858D02*
X018830Y020858D01*
X018830Y021017D02*
X018094Y021017D01*
X018094Y021175D02*
X018830Y021175D01*
X018830Y021651D02*
X018056Y021651D01*
X018130Y021809D02*
X018782Y021809D01*
X018792Y021968D02*
X018130Y021968D01*
X018000Y021428D02*
X017833Y021428D01*
X018000Y021428D02*
X018094Y021334D01*
X018089Y019273D02*
X016674Y019273D01*
X016676Y019115D02*
X018089Y019115D01*
X017636Y018956D02*
X016591Y018956D01*
X016081Y017530D02*
X015430Y017530D01*
X015430Y017371D02*
X015983Y017371D01*
X015972Y017213D02*
X015430Y017213D01*
X015516Y017054D02*
X016020Y017054D01*
X016020Y016896D02*
X015516Y016896D01*
X016260Y017203D02*
X016260Y016406D01*
X016747Y015945D02*
X016995Y015945D01*
X016995Y015786D02*
X015840Y015786D01*
X015887Y015628D02*
X016995Y015628D01*
X017066Y015469D02*
X016298Y015469D01*
X016400Y015311D02*
X017224Y015311D01*
X017383Y015152D02*
X016418Y015152D01*
X016367Y014994D02*
X022530Y014994D01*
X022530Y015072D02*
X022530Y014865D01*
X022852Y014542D01*
X023060Y014542D01*
X023060Y015072D01*
X022530Y015072D01*
X022530Y015152D02*
X022277Y015152D01*
X022436Y015311D02*
X022530Y015311D01*
X022594Y015469D02*
X022679Y015469D01*
X022690Y015628D02*
X022767Y015628D01*
X023060Y015628D02*
X023100Y015628D01*
X023100Y015542D02*
X023100Y016072D01*
X023060Y016072D01*
X023060Y015112D01*
X023100Y015112D01*
X023100Y015542D01*
X023100Y015469D02*
X023060Y015469D01*
X023060Y015311D02*
X023100Y015311D01*
X023100Y015152D02*
X023060Y015152D01*
X023060Y014994D02*
X023100Y014994D01*
X023100Y014835D02*
X023060Y014835D01*
X023060Y014677D02*
X023100Y014677D01*
X023442Y014677D02*
X023746Y014677D01*
X024414Y014677D02*
X025706Y014677D01*
X025650Y014835D02*
X024573Y014835D01*
X025099Y014994D02*
X025650Y014994D01*
X025650Y015152D02*
X025257Y015152D01*
X025410Y015311D02*
X025789Y015311D01*
X025913Y015469D02*
X025410Y015469D01*
X025409Y015628D02*
X025755Y015628D01*
X025650Y015786D02*
X025408Y015786D01*
X025407Y015945D02*
X025650Y015945D01*
X025650Y016103D02*
X025406Y016103D01*
X025405Y016262D02*
X025740Y016262D01*
X025899Y016420D02*
X025404Y016420D01*
X025403Y016579D02*
X025804Y016579D01*
X025650Y016737D02*
X025402Y016737D01*
X025401Y016896D02*
X025650Y016896D01*
X025650Y017054D02*
X025400Y017054D01*
X025399Y017213D02*
X025691Y017213D01*
X025850Y017371D02*
X025399Y017371D01*
X025398Y017530D02*
X025853Y017530D01*
X025694Y017688D02*
X025397Y017688D01*
X025396Y017847D02*
X025650Y017847D01*
X025650Y018005D02*
X025395Y018005D01*
X025394Y018164D02*
X025650Y018164D01*
X025801Y018322D02*
X025393Y018322D01*
X025392Y018481D02*
X025959Y018481D01*
X026019Y018798D02*
X025859Y018798D01*
X026181Y018798D02*
X026250Y018798D01*
X026250Y018639D02*
X025391Y018639D01*
X025390Y018798D02*
X025401Y018798D01*
X027160Y017932D02*
X027160Y016972D01*
X027200Y016972D01*
X027730Y016972D01*
X027730Y017180D01*
X027458Y017452D01*
X027730Y017725D01*
X027730Y017932D01*
X027200Y017932D01*
X027200Y017402D01*
X027200Y016972D01*
X027200Y016932D01*
X027200Y016402D01*
X027200Y015972D01*
X027730Y015972D01*
X027730Y016180D01*
X027458Y016452D01*
X027730Y016725D01*
X027730Y016932D01*
X027200Y016932D01*
X027160Y016932D01*
X027160Y015972D01*
X027200Y015972D01*
X027200Y015932D01*
X027200Y015402D01*
X027200Y014972D01*
X027730Y014972D01*
X027730Y015180D01*
X027458Y015452D01*
X027730Y015725D01*
X027730Y015932D01*
X027200Y015932D01*
X027160Y015932D01*
X027160Y014972D01*
X027200Y014972D01*
X027200Y014932D01*
X027730Y014932D01*
X027730Y014725D01*
X027472Y014467D01*
X028914Y014469D01*
X028650Y014733D01*
X028650Y014742D01*
X028533Y014742D01*
X028410Y014865D01*
X028170Y015105D01*
X028170Y018439D01*
X028293Y018562D01*
X028340Y018609D01*
X028340Y018769D01*
X028300Y018809D01*
X028270Y018779D01*
X028270Y018625D01*
X028147Y018502D01*
X028027Y018382D01*
X027528Y018382D01*
X027730Y018180D01*
X027730Y017972D01*
X027200Y017972D01*
X027200Y017932D01*
X027160Y017932D01*
X027160Y017847D02*
X027200Y017847D01*
X027200Y017688D02*
X027160Y017688D01*
X027160Y017530D02*
X027200Y017530D01*
X027200Y017371D02*
X027160Y017371D01*
X027160Y017213D02*
X027200Y017213D01*
X027200Y017054D02*
X027160Y017054D01*
X027160Y016896D02*
X027200Y016896D01*
X027200Y016737D02*
X027160Y016737D01*
X027160Y016579D02*
X027200Y016579D01*
X027200Y016420D02*
X027160Y016420D01*
X027160Y016262D02*
X027200Y016262D01*
X027200Y016103D02*
X027160Y016103D01*
X027200Y015945D02*
X028170Y015945D01*
X028170Y016103D02*
X027730Y016103D01*
X027648Y016262D02*
X028170Y016262D01*
X028170Y016420D02*
X027490Y016420D01*
X027584Y016579D02*
X028170Y016579D01*
X028170Y016737D02*
X027730Y016737D01*
X027730Y016896D02*
X028170Y016896D01*
X028170Y017054D02*
X027730Y017054D01*
X027697Y017213D02*
X028170Y017213D01*
X028170Y017371D02*
X027539Y017371D01*
X027535Y017530D02*
X028170Y017530D01*
X028170Y017688D02*
X027694Y017688D01*
X027730Y017847D02*
X028170Y017847D01*
X028170Y018005D02*
X027730Y018005D01*
X027730Y018164D02*
X028170Y018164D01*
X028170Y018322D02*
X027588Y018322D01*
X028126Y018481D02*
X028212Y018481D01*
X028270Y018639D02*
X028340Y018639D01*
X028311Y018798D02*
X028289Y018798D01*
X028170Y015786D02*
X027730Y015786D01*
X027633Y015628D02*
X028170Y015628D01*
X028170Y015469D02*
X027475Y015469D01*
X027599Y015311D02*
X028170Y015311D01*
X028170Y015152D02*
X027730Y015152D01*
X027730Y014994D02*
X028281Y014994D01*
X028440Y014835D02*
X027730Y014835D01*
X027682Y014677D02*
X028706Y014677D01*
X028864Y014518D02*
X027524Y014518D01*
X027200Y014994D02*
X027160Y014994D01*
X027160Y015152D02*
X027200Y015152D01*
X027200Y015311D02*
X027160Y015311D01*
X027160Y015469D02*
X027200Y015469D01*
X027200Y015628D02*
X027160Y015628D01*
X027160Y015786D02*
X027200Y015786D01*
X025864Y014518D02*
X016716Y014518D01*
X016718Y014677D02*
X022718Y014677D01*
X022559Y014835D02*
X016634Y014835D01*
X016628Y014360D02*
X017141Y014360D01*
X016780Y012299D02*
X013596Y012299D01*
X013584Y012345D01*
X013560Y012386D01*
X013527Y012419D01*
X013486Y012443D01*
X013440Y012455D01*
X013218Y012455D01*
X013218Y012077D01*
X013596Y012077D01*
X013596Y012299D01*
X013596Y012141D02*
X016780Y012141D01*
X016780Y011982D02*
X013596Y011982D01*
X013596Y011824D02*
X016780Y011824D01*
X016780Y011665D02*
X013533Y011665D01*
X013635Y011507D02*
X013672Y011507D01*
X013672Y011348D02*
X013635Y011348D01*
X014050Y011348D02*
X016780Y011348D01*
X016780Y011190D02*
X014050Y011190D01*
X014050Y011031D02*
X016780Y011031D01*
X016780Y010873D02*
X014906Y010873D01*
X015040Y010714D02*
X016780Y010714D01*
X016780Y010556D02*
X015040Y010556D01*
X015040Y010397D02*
X016780Y010397D01*
X016780Y010239D02*
X015040Y010239D01*
X015040Y010080D02*
X016780Y010080D01*
X016780Y009922D02*
X015040Y009922D01*
X015040Y009763D02*
X016780Y009763D01*
X016780Y009605D02*
X016712Y009605D01*
X016248Y009605D02*
X015040Y009605D01*
X015040Y009446D02*
X016130Y009446D01*
X016102Y009288D02*
X015040Y009288D01*
X015040Y009129D02*
X016142Y009129D01*
X016044Y008971D02*
X014996Y008971D01*
X014837Y008812D02*
X016044Y008812D01*
X016044Y008654D02*
X015368Y008654D01*
X015526Y008495D02*
X016044Y008495D01*
X016121Y008337D02*
X015655Y008337D01*
X015670Y008178D02*
X016044Y008178D01*
X016044Y008020D02*
X015670Y008020D01*
X015670Y007861D02*
X016044Y007861D01*
X016044Y007703D02*
X015670Y007703D01*
X015670Y007544D02*
X016126Y007544D01*
X016260Y007386D02*
X015670Y007386D01*
X015670Y007227D02*
X016260Y007227D01*
X016352Y007069D02*
X015670Y007069D01*
X015670Y006910D02*
X016511Y006910D01*
X016780Y006752D02*
X015670Y006752D01*
X015670Y006593D02*
X016780Y006593D01*
X016780Y006435D02*
X015670Y006435D01*
X015670Y006276D02*
X016780Y006276D01*
X016780Y006118D02*
X015670Y006118D01*
X015670Y005959D02*
X016085Y005959D01*
X015731Y005801D02*
X015670Y005801D01*
X015430Y005801D02*
X013230Y005801D01*
X013230Y005959D02*
X015430Y005959D01*
X015430Y006118D02*
X013230Y006118D01*
X013230Y006276D02*
X015430Y006276D01*
X015430Y006435D02*
X013230Y006435D01*
X013230Y006593D02*
X015430Y006593D01*
X015430Y006752D02*
X013230Y006752D01*
X013230Y006910D02*
X015430Y006910D01*
X015430Y007069D02*
X013230Y007069D01*
X013230Y007227D02*
X015430Y007227D01*
X015430Y007386D02*
X013230Y007386D01*
X013230Y007544D02*
X015430Y007544D01*
X015430Y007703D02*
X013230Y007703D01*
X013230Y007861D02*
X015430Y007861D01*
X015430Y008020D02*
X013230Y008020D01*
X013230Y008178D02*
X015430Y008178D01*
X015430Y008252D02*
X015430Y005152D01*
X015130Y004852D01*
X013480Y004852D01*
X013230Y005102D01*
X013230Y008202D01*
X013480Y008452D01*
X015230Y008452D01*
X015430Y008252D01*
X015345Y008337D02*
X013365Y008337D01*
X013342Y008654D02*
X013190Y008654D01*
X013237Y008812D02*
X013473Y008812D01*
X012990Y006415D02*
X012990Y005350D01*
X012990Y005055D01*
X013027Y004966D01*
X013094Y004899D01*
X013281Y004712D01*
X008554Y004712D01*
X008554Y005188D01*
X009450Y005188D01*
X009450Y005788D01*
X009610Y005788D01*
X009610Y005188D01*
X010554Y005188D01*
X010599Y005200D01*
X010641Y005224D01*
X010674Y005258D01*
X010698Y005299D01*
X010710Y005344D01*
X010710Y005788D01*
X009610Y005788D01*
X009610Y005948D01*
X010710Y005948D01*
X010710Y006392D01*
X010698Y006438D01*
X010674Y006479D01*
X010641Y006512D01*
X010599Y006536D01*
X010554Y006548D01*
X009610Y006548D01*
X009610Y005948D01*
X009450Y005948D01*
X008554Y005948D01*
X008554Y005788D01*
X009450Y005788D01*
X009450Y005948D01*
X009450Y006548D01*
X008554Y006548D01*
X008554Y007177D01*
X010596Y007177D01*
X010690Y007270D01*
X010690Y008403D01*
X010601Y008492D01*
X010643Y008492D01*
X010770Y008365D01*
X010770Y006715D01*
X010807Y006678D01*
X010807Y006595D01*
X010901Y006501D01*
X010984Y006501D01*
X011120Y006365D01*
X011243Y006242D01*
X012817Y006242D01*
X012990Y006415D01*
X012990Y006276D02*
X012851Y006276D01*
X012990Y006118D02*
X010710Y006118D01*
X010710Y006276D02*
X011209Y006276D01*
X011050Y006435D02*
X010698Y006435D01*
X010809Y006593D02*
X008554Y006593D01*
X008554Y006752D02*
X010770Y006752D01*
X010770Y006910D02*
X008554Y006910D01*
X008554Y007069D02*
X010770Y007069D01*
X010770Y007227D02*
X010647Y007227D01*
X010690Y007386D02*
X010770Y007386D01*
X010770Y007544D02*
X010690Y007544D01*
X010690Y007703D02*
X010770Y007703D01*
X010770Y007861D02*
X010690Y007861D01*
X010690Y008020D02*
X010770Y008020D01*
X010770Y008178D02*
X010690Y008178D01*
X010690Y008337D02*
X010770Y008337D01*
X009530Y007837D02*
X008946Y007837D01*
X008930Y007852D01*
X009450Y006435D02*
X009610Y006435D01*
X009610Y006276D02*
X009450Y006276D01*
X009450Y006118D02*
X009610Y006118D01*
X009610Y005959D02*
X009450Y005959D01*
X009450Y005801D02*
X008554Y005801D01*
X008554Y005167D02*
X012990Y005167D01*
X012990Y005325D02*
X010705Y005325D01*
X010710Y005484D02*
X012990Y005484D01*
X012990Y005642D02*
X010710Y005642D01*
X010710Y005959D02*
X012990Y005959D01*
X012990Y005801D02*
X009610Y005801D01*
X009610Y005642D02*
X009450Y005642D01*
X009450Y005484D02*
X009610Y005484D01*
X009610Y005325D02*
X009450Y005325D01*
X008554Y005008D02*
X013009Y005008D01*
X013143Y004850D02*
X008554Y004850D01*
X007870Y009446D02*
X005902Y009446D01*
X005902Y009605D02*
X007298Y009605D01*
X007298Y009763D02*
X005902Y009763D01*
X005902Y009922D02*
X007298Y009922D01*
X007298Y010080D02*
X005902Y010080D01*
X005766Y010239D02*
X007320Y010239D01*
X007330Y010397D02*
X005766Y010397D01*
X005286Y010397D02*
X004722Y010397D01*
X004362Y010080D02*
X004135Y010080D01*
X003745Y009771D02*
X004738Y009771D01*
X005115Y009763D02*
X005149Y009763D01*
X005149Y009605D02*
X005115Y009605D01*
X005115Y009446D02*
X005149Y009446D01*
X005149Y009922D02*
X005115Y009922D01*
X005115Y010080D02*
X005149Y010080D01*
X005286Y010239D02*
X002165Y010239D01*
X002165Y010397D02*
X003388Y010397D01*
X003320Y010556D02*
X002165Y010556D01*
X002164Y010714D02*
X003320Y010714D01*
X003320Y010873D02*
X002164Y010873D01*
X002163Y011031D02*
X003320Y011031D01*
X003471Y011190D02*
X002163Y011190D01*
X002162Y011348D02*
X002895Y011348D01*
X002894Y011507D02*
X002162Y011507D01*
X002162Y011665D02*
X002894Y011665D01*
X003466Y011665D02*
X003626Y011665D01*
X003626Y011507D02*
X003466Y011507D01*
X003466Y011348D02*
X003626Y011348D01*
X003356Y010080D02*
X003321Y010080D01*
X003335Y009922D02*
X003349Y009922D01*
X003349Y009763D02*
X002957Y009763D01*
X002880Y009763D02*
X002167Y009763D01*
X002167Y009605D02*
X002502Y009605D01*
X002526Y009446D02*
X002167Y009446D01*
X002166Y009922D02*
X002502Y009922D01*
X002517Y010080D02*
X002166Y010080D01*
X002880Y010080D02*
X002957Y010080D01*
X002957Y009922D02*
X002880Y009922D01*
X003335Y009605D02*
X003349Y009605D01*
X003371Y009446D02*
X003311Y009446D01*
X005526Y009771D02*
X005526Y010852D01*
X005480Y010898D01*
X005911Y011348D02*
X008370Y011348D01*
X008360Y011190D02*
X008370Y011190D01*
X008360Y011031D02*
X008370Y011031D01*
X008360Y010873D02*
X008370Y010873D01*
X008360Y010714D02*
X008370Y010714D01*
X008359Y010556D02*
X008370Y010556D01*
X008252Y010397D02*
X008488Y010397D01*
X008488Y011507D02*
X007132Y011507D01*
X007290Y011665D02*
X011379Y011665D01*
X011284Y011824D02*
X007449Y011824D01*
X007489Y011190D02*
X006864Y011190D01*
X006864Y011031D02*
X007489Y011031D01*
X007489Y010873D02*
X006864Y010873D01*
X006864Y010714D02*
X007489Y010714D01*
X007424Y010556D02*
X006863Y010556D01*
X007829Y016420D02*
X007905Y016420D01*
X007905Y016579D02*
X007829Y016579D01*
X007829Y016896D02*
X007905Y016896D01*
X007905Y017054D02*
X007829Y017054D01*
X008272Y017054D02*
X008297Y017054D01*
X008283Y016896D02*
X008297Y016896D01*
X004730Y016896D02*
X004730Y016896D01*
X004730Y017054D02*
X004730Y017054D01*
X004730Y017107D02*
X004730Y017107D01*
X004730Y017213D02*
X004730Y017213D01*
X004730Y017371D02*
X004730Y017371D01*
X003023Y020066D02*
X002983Y020066D01*
X002983Y020224D02*
X003023Y020224D01*
X003023Y020383D02*
X002983Y020383D01*
X002983Y020541D02*
X003023Y020541D01*
X003023Y020700D02*
X002983Y020700D01*
X002983Y020858D02*
X003023Y020858D01*
X002362Y022126D02*
X002135Y022126D01*
X002135Y022285D02*
X002246Y022285D01*
X002203Y022443D02*
X002134Y022443D01*
X002134Y022602D02*
X002212Y022602D01*
X002281Y022760D02*
X002134Y022760D01*
X002133Y022919D02*
X002479Y022919D01*
X011892Y015945D02*
X011968Y015945D01*
X011968Y015786D02*
X011892Y015786D01*
X011892Y015628D02*
X011968Y015628D01*
X012392Y015628D02*
X014241Y015628D01*
X014219Y015469D02*
X013354Y015469D01*
X013545Y015311D02*
X014266Y015311D01*
X014447Y015152D02*
X013699Y015152D01*
X013407Y015844D02*
X013448Y015867D01*
X013482Y015901D01*
X013505Y015942D01*
X013517Y015988D01*
X013517Y016169D01*
X013101Y016169D01*
X013101Y016169D01*
X013101Y015831D01*
X013361Y015831D01*
X013407Y015844D01*
X013506Y015945D02*
X014781Y015945D01*
X014427Y016103D02*
X013517Y016103D01*
X013517Y016262D02*
X014427Y016262D01*
X014349Y015786D02*
X012504Y015786D01*
X012504Y015945D02*
X012697Y015945D01*
X012685Y016103D02*
X012504Y016103D01*
X012504Y016262D02*
X012685Y016262D01*
X013101Y016103D02*
X013101Y016103D01*
X013101Y015945D02*
X013101Y015945D01*
X016260Y017203D02*
X016330Y017272D01*
X013218Y012299D02*
X013142Y012299D01*
X013142Y012141D02*
X013218Y012141D01*
X014020Y011507D02*
X016780Y011507D01*
X012004Y012299D02*
X011869Y012299D01*
X011869Y012458D02*
X012004Y012458D01*
X013230Y005642D02*
X015430Y005642D01*
X015430Y005484D02*
X013230Y005484D01*
X013230Y005325D02*
X015430Y005325D01*
X015430Y005167D02*
X013230Y005167D01*
X013324Y005008D02*
X015286Y005008D01*
X019890Y005339D02*
X020444Y005339D01*
X020530Y005252D01*
X022456Y005252D01*
X023204Y005252D02*
X025780Y005252D01*
X026399Y005871D01*
X026399Y008052D01*
X025611Y008052D02*
X025611Y006284D01*
X025180Y005852D01*
X019904Y005852D01*
X019890Y005839D01*
X022121Y008702D02*
X022930Y008702D01*
X023080Y008852D01*
X023080Y008833D01*
X022953Y008706D01*
X022953Y009379D01*
X022880Y009452D01*
X023060Y015786D02*
X023100Y015786D01*
X023100Y015945D02*
X023060Y015945D01*
X023060Y016112D02*
X023060Y017072D01*
X023100Y017072D01*
X023100Y016642D01*
X023100Y016112D01*
X023060Y016112D01*
X023060Y016262D02*
X023100Y016262D01*
X023100Y016420D02*
X023060Y016420D01*
X023060Y016579D02*
X023100Y016579D01*
X023100Y016737D02*
X023060Y016737D01*
X023060Y016896D02*
X023100Y016896D01*
X023100Y017054D02*
X023060Y017054D01*
X023060Y017112D02*
X023060Y018072D01*
X023100Y018072D01*
X023100Y017542D01*
X023100Y017112D01*
X023060Y017112D01*
X023060Y017213D02*
X023100Y017213D01*
X023100Y017371D02*
X023060Y017371D01*
X023060Y017530D02*
X023100Y017530D01*
X023100Y017688D02*
X023060Y017688D01*
X023060Y017847D02*
X023100Y017847D01*
X023100Y018005D02*
X023060Y018005D01*
X023060Y018112D02*
X023060Y018635D01*
X023167Y018742D01*
X023178Y018754D01*
X023314Y018754D01*
X023380Y018819D01*
X023420Y018779D01*
X023420Y018584D01*
X023416Y018579D01*
X023418Y018532D01*
X023308Y018642D01*
X023100Y018642D01*
X023100Y018112D01*
X023060Y018112D01*
X023060Y018164D02*
X023100Y018164D01*
X023100Y018322D02*
X023060Y018322D01*
X023060Y018481D02*
X023100Y018481D01*
X023100Y018639D02*
X023064Y018639D01*
X023311Y018639D02*
X023420Y018639D01*
X023401Y018798D02*
X023359Y018798D01*
X022178Y019907D02*
X021450Y019907D01*
X021450Y019749D02*
X022020Y019749D01*
X022337Y020066D02*
X021491Y020066D01*
X017180Y027852D02*
X017180Y027921D01*
X030160Y015786D02*
X030200Y015786D01*
X030200Y015628D02*
X030160Y015628D01*
X030160Y015469D02*
X030200Y015469D01*
X030200Y015311D02*
X030160Y015311D01*
X030160Y015152D02*
X030200Y015152D01*
X030200Y014994D02*
X030160Y014994D01*
X030599Y015311D02*
X031180Y015311D01*
X031180Y015469D02*
X030475Y015469D01*
X030633Y015628D02*
X031180Y015628D01*
X031180Y015786D02*
X030730Y015786D01*
X030730Y015152D02*
X031180Y015152D01*
X031180Y014994D02*
X030730Y014994D01*
X030730Y014835D02*
X031180Y014835D01*
X031180Y014677D02*
X030682Y014677D01*
X030524Y014518D02*
X031180Y014518D01*
D49*
X026130Y018652D03*
X026100Y019152D03*
X023880Y020772D03*
X022620Y023292D03*
X023180Y024032D03*
X025310Y025452D03*
X027070Y023412D03*
X030010Y022042D03*
X030270Y023172D03*
X020460Y021352D03*
X019740Y021332D03*
X019880Y021992D03*
X019140Y021872D03*
X018656Y021356D03*
X018900Y022972D03*
X018340Y023212D03*
X017810Y024042D03*
X015150Y022502D03*
X014110Y023822D03*
X015210Y025712D03*
X014980Y027502D03*
X014330Y027752D03*
X011280Y025792D03*
X009880Y027602D03*
X008880Y027902D03*
X006180Y028552D03*
X004980Y026402D03*
X004930Y025602D03*
X014680Y018072D03*
X016330Y017272D03*
X016370Y018242D03*
X016320Y019192D03*
X015960Y019672D03*
X015800Y020202D03*
X017909Y018722D03*
X018593Y016682D03*
X019650Y017322D03*
X020810Y018262D03*
X016790Y015722D03*
X016362Y014600D03*
X021480Y006252D03*
X026753Y005418D03*
X019980Y027552D03*
X019030Y027702D03*
X019380Y054052D03*
X018480Y054752D03*
X014180Y055452D03*
X008880Y055152D03*
X007380Y056452D03*
X006980Y056052D03*
X023480Y054552D03*
X027140Y055992D03*
X027580Y056352D03*
X028960Y054772D03*
D50*
X019630Y055502D02*
X019480Y055652D01*
X019480Y055752D01*
X011880Y054652D02*
X011480Y054252D01*
X010980Y054252D01*
X011080Y054152D01*
X011080Y053952D01*
X011080Y053045D01*
X011078Y053043D01*
X011080Y053952D02*
X010874Y054159D01*
X010874Y054302D01*
X006780Y054552D02*
X006580Y054352D01*
X005774Y054352D01*
X005774Y054259D01*
X006080Y053952D01*
X006080Y053255D01*
X006078Y053252D01*
X006078Y053355D01*
X005980Y053452D01*
X006078Y053252D02*
X006078Y053043D01*
X004986Y054352D02*
X004986Y054446D01*
X004730Y054702D01*
X005030Y055002D02*
X005180Y054852D01*
X008780Y033352D02*
X009067Y033352D01*
X012944Y015185D02*
X012865Y015106D01*
X012786Y015106D01*
X004404Y013400D02*
X004404Y012552D01*
X004430Y012552D01*
X004430Y010898D02*
X004430Y010852D01*
D51*
X004430Y010898D02*
X004430Y012552D01*
X004430Y010898D02*
X005480Y010898D01*
X006428Y010898D01*
X007680Y010302D02*
X007680Y009835D01*
X007675Y009830D01*
X007680Y010302D02*
X007924Y010546D01*
X007924Y010898D01*
D52*
X007180Y025452D02*
X007180Y027502D01*
X007180Y027552D01*
X007180Y028626D01*
X007118Y028688D01*
X007182Y028752D01*
X008380Y028752D01*
X008780Y029152D01*
X008780Y033352D01*
X008780Y034652D01*
X009280Y035152D01*
X010180Y035216D01*
X012180Y035216D02*
X012180Y033352D01*
X012180Y032752D01*
X011280Y031852D01*
X011280Y031452D01*
X011180Y031552D01*
X011180Y031578D01*
X012078Y028862D02*
X012180Y028759D01*
X012180Y027802D01*
X012180Y027752D01*
X012180Y025452D01*
X012087Y028852D02*
X012078Y028862D01*
X012087Y028852D02*
X013180Y028852D01*
X013780Y029452D01*
X013780Y033352D01*
X013780Y034852D01*
X014144Y035216D01*
X015280Y035216D01*
X015280Y035252D01*
X015180Y035352D01*
X017280Y035216D02*
X017280Y034152D01*
X016480Y033352D01*
X016480Y031852D01*
X016380Y031752D01*
X016355Y031752D01*
X016380Y031478D01*
X017278Y028762D02*
X017180Y028659D01*
X017180Y027852D01*
X017180Y027752D01*
X017180Y027352D01*
X017180Y025452D01*
X017187Y028652D02*
X017278Y028762D01*
X017187Y028652D02*
X018080Y028652D01*
X018680Y029252D01*
X018680Y033352D01*
X018680Y034552D01*
X019244Y035216D01*
X020180Y035216D01*
X022180Y035216D02*
X022180Y033452D01*
X021980Y033252D01*
X021280Y032552D01*
X021280Y031678D01*
X021180Y031578D01*
X022078Y028862D02*
X022180Y028759D01*
X022180Y027702D01*
X022180Y025852D01*
X022180Y025452D01*
X022087Y028852D02*
X022078Y028862D01*
X022087Y028852D02*
X023080Y028852D01*
X023320Y029092D01*
X023660Y029432D01*
X023780Y029552D01*
X023780Y033352D01*
X023780Y034952D01*
X024044Y035216D01*
X025180Y035216D01*
X027180Y033752D02*
X026817Y033253D01*
X026380Y032652D01*
X026380Y031452D01*
X026180Y031252D01*
X026180Y031578D01*
X027180Y033752D02*
X027180Y035216D01*
X029020Y029652D02*
X029020Y046112D01*
X028792Y046475D01*
X028680Y046652D01*
X028400Y046652D01*
X028280Y046652D01*
X027216Y046652D01*
X027180Y046689D01*
X025180Y046689D02*
X025180Y048552D01*
X025180Y050327D01*
X024092Y052852D02*
X023180Y052852D01*
X022780Y052452D01*
X022780Y048552D01*
X022180Y047952D01*
X022180Y046689D01*
X020180Y046689D02*
X020180Y046452D01*
X020180Y046689D02*
X020180Y048652D01*
X020180Y050327D01*
X018992Y052752D02*
X018180Y052752D01*
X017780Y052352D01*
X017780Y048052D01*
X017180Y047452D01*
X017180Y046689D01*
X015180Y046689D02*
X015180Y048852D01*
X015180Y050327D01*
X014092Y052852D02*
X013580Y052852D01*
X013180Y052852D01*
X012780Y052452D01*
X012780Y048452D01*
X012180Y047852D01*
X012180Y046689D01*
X010180Y046689D02*
X010180Y048852D01*
X010180Y050252D01*
X009980Y050452D01*
X010055Y050452D01*
X010180Y050327D01*
X007680Y048352D02*
X007680Y052652D01*
X007980Y052952D01*
X008180Y052952D01*
X009192Y052952D01*
X009282Y053043D01*
X005180Y055152D02*
X005030Y055002D01*
X004730Y054702D01*
X004280Y054252D01*
X004280Y053045D01*
X004282Y053043D01*
X005180Y055152D02*
X005180Y056452D01*
X005180Y050327D02*
X005180Y048602D01*
X005180Y046689D01*
X007180Y046689D02*
X007180Y047852D01*
X007680Y048352D01*
X014092Y052852D02*
X014282Y053043D01*
X018992Y052752D02*
X019282Y053043D01*
X019380Y053141D01*
X019380Y054052D01*
X019380Y054452D01*
X019380Y055252D01*
X019630Y055502D01*
X020180Y056052D01*
X020180Y056152D01*
X020180Y056452D01*
X024280Y054652D02*
X024280Y054152D01*
X024280Y053045D01*
X024282Y053043D01*
X024092Y052852D01*
X024280Y054652D02*
X025180Y055552D01*
X025180Y056252D01*
X025180Y056452D01*
X015180Y046689D02*
X015180Y046452D01*
X007180Y035216D02*
X007180Y033352D01*
X007180Y033052D01*
X006280Y032152D01*
X006280Y031352D01*
X006380Y031252D01*
X003480Y029152D02*
X003480Y033552D01*
X003480Y034752D01*
X003944Y035216D01*
X005180Y035216D01*
X027078Y028862D02*
X027180Y028759D01*
X027180Y027752D01*
X027180Y025452D01*
X027078Y028862D02*
X028229Y028862D01*
X029020Y029652D01*
D53*
X014282Y053043D02*
X014280Y053045D01*
X014280Y054052D01*
X014280Y054252D01*
X014730Y054702D01*
X015180Y055152D01*
X015180Y056452D01*
X010180Y056452D02*
X010180Y056252D01*
X010180Y055052D01*
X010070Y054942D01*
X009330Y054202D01*
X009280Y054152D01*
X009280Y053045D01*
X009282Y053043D01*
M02*
