G75*
%MOIN*%
%OFA0B0*%
%FSLAX24Y24*%
%IPPOS*%
%LPD*%
%AMOC8*
5,1,8,0,0,1.08239X$1,22.5*
%
%ADD10C,0.1880*%
%ADD11R,0.0320X0.0950*%
%ADD12R,0.0297X0.0552*%
%ADD13R,0.0395X0.0552*%
%ADD14R,0.0552X0.0395*%
%ADD15OC8,0.0640*%
%ADD16R,0.1655X0.0671*%
%ADD17R,0.0659X0.0580*%
%ADD18R,0.1025X0.1025*%
%ADD19R,0.1025X0.0671*%
%ADD20R,0.0880X0.0340*%
%ADD21R,0.2442X0.1064*%
%ADD22C,0.1261*%
D10*
X015710Y019493D03*
X029710Y019493D03*
D11*
X015440Y017513D03*
X014940Y017513D03*
X014440Y017513D03*
X013940Y017513D03*
X013940Y015453D03*
X014440Y015453D03*
X014940Y015453D03*
X015440Y015453D03*
D12*
X022795Y018651D03*
X023170Y018651D03*
X023544Y018651D03*
X023544Y019675D03*
X022795Y019675D03*
X026415Y019705D03*
X027164Y019705D03*
X027164Y018681D03*
X026790Y018681D03*
X026415Y018681D03*
D13*
X026465Y020533D03*
X027174Y020533D03*
X023534Y020463D03*
X022825Y020463D03*
X021924Y023223D03*
X021215Y023223D03*
X018544Y024453D03*
X017835Y024453D03*
X017995Y021483D03*
X017494Y021473D03*
X016785Y021473D03*
X018704Y021483D03*
D14*
X016760Y022889D03*
X016760Y023598D03*
X016770Y024129D03*
X016770Y024838D03*
X028670Y017028D03*
X028670Y016319D03*
X033550Y020729D03*
X033550Y021438D03*
D15*
X025160Y024543D03*
X024160Y023543D03*
X023160Y024543D03*
D16*
G36*
X014750Y012342D02*
X015558Y013784D01*
X016142Y013456D01*
X015334Y012014D01*
X014750Y012342D01*
G37*
G36*
X013877Y012831D02*
X014685Y014273D01*
X015269Y013945D01*
X014461Y012503D01*
X013877Y012831D01*
G37*
G36*
X011212Y014152D02*
X012070Y015564D01*
X012642Y015216D01*
X011784Y013804D01*
X011212Y014152D01*
G37*
G36*
X010357Y014671D02*
X011215Y016083D01*
X011787Y015735D01*
X010929Y014323D01*
X010357Y014671D01*
G37*
G36*
X007777Y016100D02*
X008626Y017518D01*
X009201Y017174D01*
X008352Y015756D01*
X007777Y016100D01*
G37*
G36*
X006918Y016613D02*
X007767Y018031D01*
X008342Y017687D01*
X007493Y016269D01*
X006918Y016613D01*
G37*
G36*
X007389Y022713D02*
X008249Y021302D01*
X007677Y020953D01*
X006817Y022364D01*
X007389Y022713D01*
G37*
G36*
X008242Y023234D02*
X009102Y021823D01*
X008530Y021474D01*
X007670Y022885D01*
X008242Y023234D01*
G37*
G36*
X011296Y024920D02*
X012140Y023498D01*
X011564Y023156D01*
X010720Y024578D01*
X011296Y024920D01*
G37*
G36*
X012155Y025431D02*
X012999Y024009D01*
X012423Y023667D01*
X011579Y025089D01*
X012155Y025431D01*
G37*
G36*
X015310Y027132D02*
X016121Y025692D01*
X015538Y025364D01*
X014727Y026804D01*
X015310Y027132D01*
G37*
G36*
X016181Y027623D02*
X016992Y026183D01*
X016409Y025855D01*
X015598Y027295D01*
X016181Y027623D01*
G37*
G36*
X019707Y029022D02*
X019681Y027369D01*
X019013Y027380D01*
X019039Y029033D01*
X019707Y029022D01*
G37*
G36*
X020706Y029006D02*
X020680Y027353D01*
X020012Y027364D01*
X020038Y029017D01*
X020706Y029006D01*
G37*
G36*
X025264Y028968D02*
X025285Y027315D01*
X024616Y027306D01*
X024595Y028959D01*
X025264Y028968D01*
G37*
G36*
X026263Y028980D02*
X026284Y027327D01*
X025615Y027318D01*
X025594Y028971D01*
X026263Y028980D01*
G37*
G36*
X030530Y026891D02*
X029704Y025460D01*
X029124Y025795D01*
X029950Y027226D01*
X030530Y026891D01*
G37*
G36*
X031396Y026391D02*
X030570Y024960D01*
X029990Y025295D01*
X030816Y026726D01*
X031396Y026391D01*
G37*
G36*
X034422Y024694D02*
X033609Y023256D01*
X033026Y023586D01*
X033839Y025024D01*
X034422Y024694D01*
G37*
G36*
X035293Y024201D02*
X034480Y022763D01*
X033897Y023093D01*
X034710Y024531D01*
X035293Y024201D01*
G37*
G36*
X038106Y022699D02*
X037322Y021244D01*
X036732Y021561D01*
X037516Y023016D01*
X038106Y022699D01*
G37*
G36*
X038987Y022225D02*
X038203Y020770D01*
X037613Y021087D01*
X038397Y022542D01*
X038987Y022225D01*
G37*
G36*
X037930Y016274D02*
X037070Y017685D01*
X037642Y018034D01*
X038502Y016623D01*
X037930Y016274D01*
G37*
G36*
X037077Y015753D02*
X036217Y017164D01*
X036789Y017513D01*
X037649Y016102D01*
X037077Y015753D01*
G37*
G36*
X034231Y014070D02*
X033458Y015531D01*
X034051Y015844D01*
X034824Y014383D01*
X034231Y014070D01*
G37*
G36*
X033348Y013602D02*
X032575Y015063D01*
X033168Y015376D01*
X033941Y013915D01*
X033348Y013602D01*
G37*
G36*
X030168Y012162D02*
X029337Y013591D01*
X029916Y013928D01*
X030747Y012499D01*
X030168Y012162D01*
G37*
G36*
X029303Y011659D02*
X028472Y013088D01*
X029051Y013425D01*
X029882Y011996D01*
X029303Y011659D01*
G37*
G36*
X025557Y009817D02*
X025554Y011470D01*
X026223Y011471D01*
X026226Y009818D01*
X025557Y009817D01*
G37*
G36*
X024557Y009815D02*
X024554Y011468D01*
X025223Y011469D01*
X025226Y009816D01*
X024557Y009815D01*
G37*
G36*
X019974Y010066D02*
X019977Y011719D01*
X020646Y011718D01*
X020643Y010065D01*
X019974Y010066D01*
G37*
G36*
X018974Y010068D02*
X018977Y011721D01*
X019646Y011720D01*
X019643Y010067D01*
X018974Y010068D01*
G37*
D17*
X018460Y015647D03*
X018460Y017340D03*
X021760Y018497D03*
X021760Y020190D03*
X025360Y020190D03*
X025360Y018497D03*
D18*
X016840Y017139D03*
X016840Y015407D03*
D19*
X020310Y015588D03*
X020310Y017399D03*
D20*
X020270Y022243D03*
X020270Y022743D03*
X020270Y023243D03*
X020270Y023743D03*
X017850Y023743D03*
X017850Y023243D03*
X017850Y022743D03*
X017850Y022243D03*
D21*
X022791Y016950D03*
X022791Y015257D03*
X026191Y015257D03*
X026191Y016950D03*
D22*
X022060Y013593D03*
X020460Y013543D03*
M02*
