G75*
%MOIN*%
%OFA0B0*%
%FSLAX24Y24*%
%IPPOS*%
%LPD*%
%AMOC8*
5,1,8,0,0,1.08239X$1,22.5*
%
%ADD10C,0.0100*%
D10*
X003400Y001674D02*
X003400Y029361D01*
X003398Y029469D01*
X003392Y029578D01*
X003383Y029686D01*
X003369Y029793D01*
X003352Y029901D01*
X003331Y030007D01*
X003306Y030113D01*
X003277Y030217D01*
X003244Y030321D01*
X003208Y030423D01*
X003169Y030524D01*
X003125Y030623D01*
X003079Y030721D01*
X003028Y030817D01*
X002975Y030912D01*
X002918Y031004D01*
X002857Y031094D01*
X002794Y031182D01*
X002727Y031268D01*
X002658Y031351D01*
X002585Y031432D01*
X002510Y031510D01*
X002432Y031585D01*
X002351Y031658D01*
X002268Y031727D01*
X002182Y031794D01*
X002094Y031857D01*
X002004Y031918D01*
X001912Y031975D01*
X001817Y032028D01*
X001721Y032079D01*
X001623Y032125D01*
X001524Y032169D01*
X001423Y032208D01*
X001321Y032244D01*
X001217Y032277D01*
X001113Y032306D01*
X001007Y032331D01*
X000901Y032352D01*
X000793Y032369D01*
X000686Y032383D01*
X000578Y032392D01*
X000469Y032398D01*
X000361Y032400D01*
X000150Y032400D01*
X000150Y040900D01*
X040150Y040900D01*
X040150Y032400D01*
X039928Y032400D01*
X039820Y032398D01*
X039712Y032392D01*
X039604Y032383D01*
X039497Y032369D01*
X039390Y032352D01*
X039284Y032331D01*
X039179Y032306D01*
X039075Y032277D01*
X038972Y032245D01*
X038870Y032209D01*
X038769Y032170D01*
X038670Y032126D01*
X038573Y032080D01*
X038477Y032030D01*
X038383Y031976D01*
X038291Y031919D01*
X038201Y031859D01*
X038114Y031796D01*
X038028Y031730D01*
X037946Y031660D01*
X037865Y031588D01*
X037787Y031513D01*
X037712Y031435D01*
X037640Y031355D01*
X037571Y031272D01*
X037505Y031187D01*
X037441Y031099D01*
X037381Y031009D01*
X037325Y030917D01*
X037271Y030823D01*
X037221Y030728D01*
X037174Y030630D01*
X037131Y030531D01*
X037092Y030430D01*
X037056Y030328D01*
X037023Y030225D01*
X036995Y030121D01*
X036970Y030016D01*
X036949Y029910D01*
X036932Y029803D01*
X036918Y029696D01*
X036909Y029588D01*
X036903Y029480D01*
X036901Y029372D01*
X036901Y029373D02*
X036910Y001682D01*
X036909Y001681D02*
X036907Y001604D01*
X036901Y001526D01*
X036891Y001449D01*
X036878Y001373D01*
X036860Y001297D01*
X036839Y001223D01*
X036814Y001149D01*
X036785Y001077D01*
X036753Y001007D01*
X036717Y000938D01*
X036677Y000871D01*
X036635Y000806D01*
X036589Y000744D01*
X036540Y000684D01*
X036488Y000626D01*
X036433Y000571D01*
X036375Y000519D01*
X036315Y000470D01*
X036253Y000424D01*
X036188Y000382D01*
X036121Y000342D01*
X036052Y000306D01*
X035982Y000274D01*
X035910Y000245D01*
X035836Y000220D01*
X035762Y000199D01*
X035686Y000181D01*
X035610Y000168D01*
X035533Y000158D01*
X035455Y000152D01*
X035378Y000150D01*
X004924Y000150D01*
X004847Y000152D01*
X004770Y000158D01*
X004693Y000168D01*
X004617Y000181D01*
X004542Y000199D01*
X004468Y000220D01*
X004395Y000245D01*
X004323Y000274D01*
X004253Y000306D01*
X004184Y000341D01*
X004118Y000381D01*
X004053Y000423D01*
X003991Y000469D01*
X003931Y000518D01*
X003874Y000569D01*
X003819Y000624D01*
X003768Y000681D01*
X003719Y000741D01*
X003673Y000803D01*
X003631Y000868D01*
X003591Y000934D01*
X003556Y001003D01*
X003524Y001073D01*
X003495Y001145D01*
X003470Y001218D01*
X003449Y001292D01*
X003431Y001367D01*
X003418Y001443D01*
X003408Y001520D01*
X003402Y001597D01*
X003400Y001674D01*
X010405Y012276D02*
X010248Y012433D01*
X010248Y012866D01*
X010320Y013110D02*
X011120Y013110D01*
X011192Y012866D02*
X011192Y012433D01*
X011035Y012276D01*
X010405Y012276D01*
X009706Y012942D02*
X009706Y013178D01*
X010248Y013654D02*
X010248Y014244D01*
X011192Y014244D01*
X011192Y013654D01*
X011426Y013767D02*
X011426Y013500D01*
X011693Y013767D01*
X011760Y013767D01*
X011827Y013700D01*
X011827Y013566D01*
X011760Y013500D01*
X011760Y013306D02*
X011827Y013239D01*
X011827Y013106D01*
X011760Y013039D01*
X011760Y012846D02*
X011827Y012779D01*
X011827Y012646D01*
X011760Y012579D01*
X011493Y012579D01*
X011426Y012646D01*
X011426Y012779D01*
X011493Y012846D01*
X011426Y013039D02*
X011693Y013306D01*
X011760Y013306D01*
X011426Y013306D02*
X011426Y013039D01*
X009974Y014853D02*
X009907Y014853D01*
X009840Y014919D01*
X009840Y015053D01*
X009773Y015119D01*
X009707Y015119D01*
X009640Y015053D01*
X009640Y014919D01*
X009707Y014853D01*
X009484Y014945D02*
X009484Y015575D01*
X009483Y015575D02*
X009477Y015593D01*
X009468Y015611D01*
X009456Y015626D01*
X009440Y015638D01*
X009423Y015647D01*
X009404Y015653D01*
X009385Y015655D01*
X009365Y015653D01*
X009640Y015773D02*
X009640Y016040D01*
X009640Y015907D02*
X010040Y015907D01*
X009907Y015773D01*
X010040Y015580D02*
X010040Y015446D01*
X010040Y015513D02*
X009707Y015513D01*
X009640Y015446D01*
X009640Y015380D01*
X009707Y015313D01*
X009974Y015119D02*
X010040Y015053D01*
X010040Y014919D01*
X009974Y014853D01*
X009483Y014945D02*
X009478Y014929D01*
X009470Y014913D01*
X009460Y014899D01*
X009448Y014887D01*
X009433Y014877D01*
X009417Y014870D01*
X009400Y014866D01*
X009383Y014865D01*
X009365Y014867D01*
X008815Y014867D02*
X008797Y014865D01*
X008780Y014866D01*
X008763Y014870D01*
X008747Y014877D01*
X008732Y014887D01*
X008720Y014899D01*
X008710Y014913D01*
X008702Y014929D01*
X008697Y014945D01*
X008696Y014945D02*
X008696Y015575D01*
X008697Y015575D02*
X008703Y015593D01*
X008712Y015611D01*
X008724Y015626D01*
X008740Y015638D01*
X008757Y015647D01*
X008776Y015653D01*
X008795Y015655D01*
X008815Y015653D01*
X008862Y013698D02*
X008795Y013631D01*
X008728Y013698D01*
X008662Y013698D01*
X008595Y013631D01*
X008595Y013498D01*
X008662Y013431D01*
X008795Y013564D02*
X008795Y013631D01*
X008862Y013698D02*
X008929Y013698D01*
X008995Y013631D01*
X008995Y013498D01*
X008929Y013431D01*
X008929Y013237D02*
X008995Y013171D01*
X008995Y013037D01*
X008929Y012970D01*
X008929Y012777D02*
X008995Y012710D01*
X008995Y012577D01*
X008929Y012510D01*
X008662Y012510D01*
X008595Y012577D01*
X008595Y012710D01*
X008662Y012777D01*
X008595Y012970D02*
X008862Y013237D01*
X008929Y013237D01*
X009234Y013178D02*
X009234Y012942D01*
X008595Y012970D02*
X008595Y013237D01*
X013675Y011721D02*
X013675Y011588D01*
X013742Y011521D01*
X013875Y011521D02*
X013942Y011654D01*
X013942Y011721D01*
X013875Y011788D01*
X013742Y011788D01*
X013675Y011721D01*
X013875Y011521D02*
X014075Y011521D01*
X014075Y011788D01*
X014009Y011327D02*
X014075Y011261D01*
X014075Y011127D01*
X014009Y011060D01*
X014009Y010867D02*
X013875Y010867D01*
X013808Y010800D01*
X013808Y010600D01*
X013675Y010600D02*
X014075Y010600D01*
X014075Y010800D01*
X014009Y010867D01*
X013808Y010733D02*
X013675Y010867D01*
X013675Y011060D02*
X013942Y011327D01*
X014009Y011327D01*
X014314Y011318D02*
X014314Y011082D01*
X014786Y011082D02*
X014786Y011318D01*
X015372Y010477D02*
X015305Y010410D01*
X015305Y010276D01*
X015372Y010210D01*
X015438Y010210D01*
X015505Y010276D01*
X015505Y010410D01*
X015438Y010477D01*
X015372Y010477D01*
X015505Y010410D02*
X015572Y010477D01*
X015639Y010477D01*
X015705Y010410D01*
X015705Y010276D01*
X015639Y010210D01*
X015572Y010210D01*
X015505Y010276D01*
X015305Y010016D02*
X015305Y009749D01*
X015305Y009883D02*
X015705Y009883D01*
X015572Y009749D01*
X015639Y009556D02*
X015705Y009489D01*
X015705Y009356D01*
X015639Y009289D01*
X015372Y009289D01*
X015305Y009356D01*
X015305Y009489D01*
X015372Y009556D01*
X015944Y009902D02*
X015944Y010138D01*
X016416Y010138D02*
X016416Y009902D01*
X018026Y010185D02*
X018026Y009555D01*
X018183Y009398D01*
X018616Y009398D01*
X018616Y009164D02*
X018616Y008764D01*
X018483Y008764D02*
X018750Y008764D01*
X018943Y008830D02*
X019010Y008764D01*
X019143Y008764D01*
X019210Y008830D01*
X019210Y009097D01*
X019143Y009164D01*
X019010Y009164D01*
X018943Y009097D01*
X018750Y009031D02*
X018616Y009164D01*
X018289Y009097D02*
X018222Y009164D01*
X018089Y009164D01*
X018022Y009097D01*
X018022Y009031D01*
X018289Y008764D01*
X018022Y008764D01*
X018860Y009470D02*
X018860Y010270D01*
X018616Y010342D02*
X018183Y010342D01*
X018026Y010185D01*
X019404Y010342D02*
X019994Y010342D01*
X019994Y009398D01*
X019404Y009398D01*
X019372Y011700D02*
X019305Y011767D01*
X019305Y011900D01*
X019372Y011967D01*
X019305Y012160D02*
X019305Y012427D01*
X019305Y012160D02*
X019572Y012427D01*
X019639Y012427D01*
X019705Y012361D01*
X019705Y012227D01*
X019639Y012160D01*
X019639Y011967D02*
X019705Y011900D01*
X019705Y011767D01*
X019639Y011700D01*
X019372Y011700D01*
X019066Y011932D02*
X019066Y012168D01*
X018594Y012168D02*
X018594Y011932D01*
X017370Y013032D02*
X017370Y013299D01*
X017303Y013365D01*
X017170Y013365D01*
X017103Y013299D01*
X016910Y013232D02*
X016776Y013365D01*
X016776Y012965D01*
X016643Y012965D02*
X016910Y012965D01*
X017103Y013032D02*
X017170Y012965D01*
X017303Y012965D01*
X017370Y013032D01*
X016938Y012726D02*
X016702Y012726D01*
X016449Y013032D02*
X016382Y012965D01*
X016249Y012965D01*
X016182Y013032D01*
X016182Y013299D01*
X016249Y013365D01*
X016382Y013365D01*
X016449Y013299D01*
X016449Y013232D01*
X016382Y013165D01*
X016182Y013165D01*
X016702Y012254D02*
X016938Y012254D01*
X016970Y011950D02*
X016970Y011550D01*
X016703Y011550D01*
X016510Y011750D02*
X016309Y011950D01*
X016309Y011550D01*
X016243Y011750D02*
X016510Y011750D01*
X013675Y011327D02*
X013675Y011060D01*
X015252Y004396D02*
X015488Y004396D01*
X015488Y003924D02*
X015252Y003924D01*
X015186Y003699D02*
X015320Y003565D01*
X015119Y003565D01*
X015053Y003498D01*
X015053Y003432D01*
X015119Y003365D01*
X015253Y003365D01*
X015320Y003432D01*
X015320Y003565D01*
X015186Y003699D02*
X015053Y003765D01*
X015513Y003699D02*
X015580Y003765D01*
X015713Y003765D01*
X015780Y003699D01*
X015780Y003432D01*
X015713Y003365D01*
X015580Y003365D01*
X015513Y003432D01*
X016744Y003439D02*
X016744Y003172D01*
X016810Y003105D01*
X016944Y003105D01*
X017010Y003172D01*
X016744Y003439D01*
X016810Y003505D01*
X016944Y003505D01*
X017010Y003439D01*
X017010Y003172D01*
X017204Y003105D02*
X017471Y003105D01*
X017204Y003372D01*
X017204Y003439D01*
X017271Y003505D01*
X017404Y003505D01*
X017471Y003439D01*
X017664Y003439D02*
X017664Y003305D01*
X017731Y003238D01*
X017931Y003238D01*
X017931Y003105D02*
X017931Y003505D01*
X017731Y003505D01*
X017664Y003439D01*
X017798Y003238D02*
X017664Y003105D01*
X017468Y003744D02*
X017232Y003744D01*
X017232Y004216D02*
X017468Y004216D01*
X027220Y022675D02*
X027354Y022675D01*
X027420Y022742D01*
X027287Y022875D02*
X027220Y022875D01*
X027153Y022808D01*
X027153Y022742D01*
X027220Y022675D01*
X027220Y022875D02*
X027153Y022942D01*
X027153Y023009D01*
X027220Y023075D01*
X027354Y023075D01*
X027420Y023009D01*
X027614Y023009D02*
X027681Y023075D01*
X027814Y023075D01*
X027881Y023009D01*
X027881Y022742D01*
X027814Y022675D01*
X027681Y022675D01*
X027614Y022742D01*
X027628Y023314D02*
X027392Y023314D01*
X027392Y023786D02*
X027628Y023786D01*
X025550Y024060D02*
X025550Y024260D01*
X025484Y024327D01*
X025217Y024327D01*
X025150Y024260D01*
X025150Y024060D01*
X025550Y024060D01*
X025417Y024520D02*
X025550Y024654D01*
X025150Y024654D01*
X025150Y024787D02*
X025150Y024520D01*
X025021Y024004D02*
X024844Y024004D01*
X025021Y024004D02*
X025021Y025816D01*
X024844Y025816D01*
X024844Y025304D02*
X024056Y025304D01*
X024056Y025816D02*
X023879Y025816D01*
X023879Y024004D01*
X024056Y024004D01*
X023580Y024070D02*
X023580Y024270D01*
X023514Y024337D01*
X023247Y024337D01*
X023180Y024270D01*
X023180Y024070D01*
X023580Y024070D01*
X023514Y024530D02*
X023580Y024597D01*
X023580Y024731D01*
X023514Y024797D01*
X023447Y024797D01*
X023180Y024530D01*
X023180Y024797D01*
X022874Y025314D02*
X022086Y025314D01*
X022086Y025826D02*
X021909Y025826D01*
X021909Y024014D01*
X022086Y024014D01*
X022874Y024014D02*
X023051Y024014D01*
X023051Y025826D01*
X022874Y025826D01*
X029950Y035460D02*
X030350Y035460D01*
X030350Y035660D01*
X030284Y035727D01*
X030150Y035727D01*
X030083Y035660D01*
X030083Y035460D01*
X030083Y035593D02*
X029950Y035727D01*
X030017Y035920D02*
X029950Y035987D01*
X029950Y036121D01*
X030017Y036187D01*
X030083Y036187D01*
X030150Y036121D01*
X030150Y036054D01*
X030150Y036121D02*
X030217Y036187D01*
X030284Y036187D01*
X030350Y036121D01*
X030350Y035987D01*
X030284Y035920D01*
X030284Y036381D02*
X030350Y036448D01*
X030350Y036581D01*
X030284Y036648D01*
X030217Y036648D01*
X029950Y036381D01*
X029950Y036648D01*
X029860Y037550D02*
X029860Y037710D01*
X030400Y037720D02*
X030400Y037560D01*
X010231Y031509D02*
X010231Y031242D01*
X010164Y031175D01*
X010031Y031175D01*
X009964Y031242D01*
X009771Y031175D02*
X009504Y031175D01*
X009637Y031175D02*
X009637Y031575D01*
X009771Y031442D01*
X009964Y031509D02*
X010031Y031575D01*
X010164Y031575D01*
X010231Y031509D01*
X009310Y031509D02*
X009244Y031575D01*
X009110Y031575D01*
X009044Y031509D01*
X009310Y031242D01*
X009244Y031175D01*
X009110Y031175D01*
X009044Y031242D01*
X009044Y031509D01*
X009082Y031714D02*
X009318Y031714D01*
X009310Y031509D02*
X009310Y031242D01*
X009318Y032186D02*
X009082Y032186D01*
X007681Y031509D02*
X007681Y031242D01*
X007614Y031175D01*
X007481Y031175D01*
X007414Y031242D01*
X007221Y031175D02*
X006954Y031175D01*
X007087Y031175D02*
X007087Y031575D01*
X007221Y031442D01*
X007414Y031509D02*
X007481Y031575D01*
X007614Y031575D01*
X007681Y031509D01*
X006760Y031375D02*
X006494Y031375D01*
X006560Y031175D02*
X006560Y031575D01*
X006760Y031375D01*
X006768Y031714D02*
X006532Y031714D01*
X006532Y032186D02*
X006768Y032186D01*
X008742Y028157D02*
X008675Y028090D01*
X008675Y027956D01*
X008742Y027890D01*
X008875Y027890D02*
X008942Y028023D01*
X008942Y028090D01*
X008875Y028157D01*
X008742Y028157D01*
X008875Y027890D02*
X009075Y027890D01*
X009075Y028157D01*
X009364Y027818D02*
X009364Y027582D01*
X009075Y027563D02*
X008942Y027429D01*
X009075Y027563D02*
X008675Y027563D01*
X008675Y027696D02*
X008675Y027429D01*
X008742Y027236D02*
X008675Y027169D01*
X008675Y027036D01*
X008742Y026969D01*
X009009Y026969D01*
X009075Y027036D01*
X009075Y027169D01*
X009009Y027236D01*
X009836Y027582D02*
X009836Y027818D01*
M02*
