%
M48
M72
T01C0.0190
T02C0.0197
T03C0.0236
T04C0.0400
T05C0.0551
T06C0.0630
T07C0.1400
%
T01
X17750Y12550
X16150Y18150
X14250Y20250
X21050Y18450
X26400Y23600
X30450Y19900
X30450Y19150
X30450Y18400
X31200Y18400
X31950Y18400
X31950Y19150
X31200Y19150
X31200Y19900
X31950Y19900
X32760Y20000
X33340Y20010
X33330Y19420
X32770Y19410
X32770Y18830
X33340Y18840
X33320Y18220
X32750Y18210
X32730Y17630
X33320Y17640
X33880Y18230
X33900Y18830
X34490Y18820
X34480Y18260
X34510Y19410
X33890Y19420
X33920Y20030
X34530Y20050
X32030Y17430
X31380Y17430
X30580Y17420
X19700Y29750
X8300Y31500
X5800Y31600
T02
X7650Y29750
X8330Y29760
X8950Y28650
X7750Y27800
X5660Y29260
X10720Y27510
X13490Y25610
X11640Y23270
X9250Y22650
X9040Y23380
X8890Y20800
X10310Y18170
X9170Y15960
X9090Y14240
X7300Y15930
X11780Y14360
X12010Y12150
X14560Y12600
X15930Y12650
X16210Y11000
X17610Y9860
X17910Y10800
X18850Y11050
X20800Y10130
X21060Y10700
X21710Y9600
X22260Y6400
X16410Y6650
X14800Y8960
X14550Y10200
X19650Y13620
X18100Y15700
X18550Y16160
X16640Y17360
X16600Y18790
X20360Y21310
X20570Y19400
X21700Y17790
X22040Y13520
X16110Y23070
X18450Y25100
X18400Y25650
X18100Y26200
X18700Y24450
X20270Y23620
X15900Y28540
X19270Y29010
X19400Y33810
X12580Y33520
X10700Y33600
X27000Y31850
X27550Y31850
X30800Y27450
X32000Y27450
X34950Y13290
T03
X25530Y17300
X25070Y16820
X25760Y18170
X23890Y12800
X22240Y11020
X21650Y11040
X22970Y9160
X19420Y14300
X19450Y14900
X19000Y15450
X16000Y12020
X15050Y13280
X14820Y14070
X19530Y19750
X19530Y21540
X20260Y22950
X19150Y23080
X19160Y23710
X21530Y24500
X21530Y26550
X18550Y29350
X17350Y30450
X16950Y30850
X16550Y30450
X16150Y30850
X15750Y30450
X15350Y30850
X14950Y30450
X14950Y31250
X15350Y31650
X15750Y31250
X16150Y31650
X16550Y31250
X16950Y31650
X17350Y31250
X17350Y32050
X16550Y32050
X15750Y32050
X14950Y32050
X12710Y28890
X11480Y28790
X10140Y26600
X9990Y25480
X10270Y24950
X7870Y21720
X13720Y22330
X17750Y26900
X14450Y28350
X9250Y34780
X9590Y36610
X4550Y34250
X24000Y33660
X29650Y30460
X29640Y29900
X29660Y29420
X31390Y27490
X31400Y26850
X30800Y26850
X30800Y26250
X30780Y25670
X31430Y25660
X31400Y26270
X32000Y26250
X32040Y25710
X32010Y26870
X29060Y26690
X28380Y24840
X30000Y33850
X17600Y7750
X17120Y7080
T04
X11080Y1860
X11080Y3640
X13640Y3640
X13640Y1860
X14890Y5660
X15890Y5560
X16890Y5660
X17890Y5560
X18890Y5660
X10590Y11120
X9590Y11220
X8590Y11120
X7590Y11220
T05
X21984Y23115
X23460Y23115
X24936Y23115
X24936Y29139
X24936Y31127
X24936Y33115
X22003Y33115
X22003Y31127
X22003Y29139
T06
X20810Y35860
X19250Y35860
X17690Y35860
X16130Y35860
X14570Y35860
X14570Y37430
X16130Y37430
X17690Y37430
X19250Y37430
X20810Y37430
X20810Y39000
X19250Y39000
X17690Y39000
X16130Y39000
X14570Y39000
X8330Y39000
X6770Y39000
X5210Y39000
X3650Y39000
X2090Y39000
X2090Y37430
X3650Y37430
X5210Y37430
X6770Y37430
X8330Y37430
X8330Y35860
X6770Y35860
X5210Y35860
X3650Y35860
X2090Y35860
X25710Y35860
X27270Y35860
X28830Y35860
X28830Y37430
X27270Y37430
X25710Y37430
X25710Y39000
X27270Y39000
X28830Y39000
X35070Y39000
X36630Y39000
X38190Y39000
X38190Y37430
X36630Y37430
X35070Y37430
X35070Y35860
X36630Y35860
X38190Y35860
T07
X31950Y37150
X11450Y37150
M30
