G75*
%MOIN*%
%OFA0B0*%
%FSLAX24Y24*%
%IPPOS*%
%LPD*%
%AMOC8*
5,1,8,0,0,1.08239X$1,22.5*
%
%ADD10C,0.0160*%
%ADD11R,0.0710X0.0631*%
%ADD12R,0.0552X0.0395*%
%ADD13R,0.0631X0.0710*%
%ADD14R,0.0395X0.0552*%
%ADD15C,0.0720*%
%ADD16C,0.0820*%
%ADD17R,0.0513X0.0474*%
%ADD18R,0.0631X0.0513*%
%ADD19R,0.0820X0.0820*%
%ADD20R,0.0580X0.0330*%
%ADD21C,0.1480*%
%ADD22C,0.1025*%
%ADD23C,0.0907*%
%ADD24R,0.0659X0.0580*%
D10*
X014450Y030250D02*
X014450Y034550D01*
X014650Y034750D01*
X015350Y034750D01*
X015650Y035050D01*
X015650Y036050D01*
X015850Y036250D01*
X016450Y036250D01*
X016650Y036050D01*
X016650Y035050D01*
X016950Y034750D01*
X017650Y034750D01*
X017850Y034550D01*
X017850Y030350D01*
X017550Y030050D01*
X014750Y030050D01*
X014450Y030250D01*
X014453Y030248D02*
X017748Y030248D01*
X017850Y030407D02*
X014450Y030407D01*
X014450Y030565D02*
X017850Y030565D01*
X017850Y030724D02*
X014450Y030724D01*
X014450Y030882D02*
X017850Y030882D01*
X017850Y031041D02*
X014450Y031041D01*
X014450Y031199D02*
X017850Y031199D01*
X017850Y031358D02*
X014450Y031358D01*
X014450Y031516D02*
X017850Y031516D01*
X017850Y031675D02*
X014450Y031675D01*
X014450Y031833D02*
X017850Y031833D01*
X017850Y031992D02*
X014450Y031992D01*
X014450Y032150D02*
X017850Y032150D01*
X017850Y032309D02*
X014450Y032309D01*
X014450Y032467D02*
X017850Y032467D01*
X017850Y032626D02*
X014450Y032626D01*
X014450Y032784D02*
X017850Y032784D01*
X017850Y032943D02*
X014450Y032943D01*
X014450Y033101D02*
X017850Y033101D01*
X017850Y033260D02*
X014450Y033260D01*
X014450Y033418D02*
X017850Y033418D01*
X017850Y033577D02*
X014450Y033577D01*
X014450Y033735D02*
X017850Y033735D01*
X017850Y033894D02*
X014450Y033894D01*
X014450Y034052D02*
X017850Y034052D01*
X017850Y034211D02*
X014450Y034211D01*
X014450Y034369D02*
X017850Y034369D01*
X017850Y034528D02*
X014450Y034528D01*
X014586Y034686D02*
X017714Y034686D01*
X016855Y034845D02*
X015445Y034845D01*
X015603Y035003D02*
X016697Y035003D01*
X016650Y035162D02*
X015650Y035162D01*
X015650Y035320D02*
X016650Y035320D01*
X016650Y035479D02*
X015650Y035479D01*
X015650Y035637D02*
X016650Y035637D01*
X016650Y035796D02*
X015650Y035796D01*
X015650Y035954D02*
X016650Y035954D01*
X016587Y036113D02*
X015713Y036113D01*
X014691Y030090D02*
X017590Y030090D01*
D11*
X010720Y013811D03*
X010720Y012709D03*
D12*
X009470Y012706D03*
X009470Y013414D03*
X014550Y011554D03*
X014550Y010846D03*
X016180Y010374D03*
X016180Y009666D03*
X018830Y011696D03*
X018830Y012404D03*
X009600Y027346D03*
X009600Y028054D03*
D13*
X018459Y009870D03*
X019561Y009870D03*
D14*
X017174Y012490D03*
X016466Y012490D03*
X015724Y004160D03*
X015016Y004160D03*
X016996Y003980D03*
X017704Y003980D03*
X027156Y023550D03*
X027864Y023550D03*
X009554Y031950D03*
X008846Y031950D03*
X007004Y031950D03*
X006296Y031950D03*
D15*
X014890Y005980D02*
X014890Y005340D01*
X015890Y005240D02*
X015890Y005880D01*
X016890Y005980D02*
X016890Y005340D01*
X017890Y005240D02*
X017890Y005880D01*
X018890Y005980D02*
X018890Y005340D01*
D16*
X011080Y001860D03*
X011080Y003640D03*
X013640Y003640D03*
X013640Y001860D03*
X010590Y011120D03*
X009590Y011220D03*
X008590Y011120D03*
D17*
X017435Y011700D03*
X018105Y011700D03*
D18*
X030130Y037236D03*
X030130Y038024D03*
D19*
X007590Y011220D03*
D20*
X009090Y015083D03*
X009090Y015437D03*
D21*
X011450Y037150D03*
X031950Y037150D03*
D22*
X028830Y037430D03*
X027270Y037430D03*
X025710Y037430D03*
X025710Y035860D03*
X027270Y035860D03*
X028830Y035860D03*
X028830Y039000D03*
X027270Y039000D03*
X025710Y039000D03*
X020810Y039000D03*
X019250Y039000D03*
X017690Y039000D03*
X016130Y039000D03*
X014570Y039000D03*
X014570Y037430D03*
X016130Y037430D03*
X017690Y037430D03*
X019250Y037430D03*
X020810Y037430D03*
X020810Y035860D03*
X019250Y035860D03*
X017690Y035860D03*
X016130Y035860D03*
X014570Y035860D03*
X008330Y035860D03*
X006770Y035860D03*
X005210Y035860D03*
X003650Y035860D03*
X002090Y035860D03*
X002090Y037430D03*
X003650Y037430D03*
X005210Y037430D03*
X006770Y037430D03*
X008330Y037430D03*
X008330Y039000D03*
X006770Y039000D03*
X005210Y039000D03*
X003650Y039000D03*
X002090Y039000D03*
X035070Y039000D03*
X036630Y039000D03*
X038190Y039000D03*
X038190Y037430D03*
X036630Y037430D03*
X035070Y037430D03*
X035070Y035860D03*
X036630Y035860D03*
X038190Y035860D03*
D23*
X024936Y033115D03*
X024936Y031127D03*
X024936Y029139D03*
X022003Y029139D03*
X022003Y031127D03*
X022003Y033115D03*
X021984Y023115D03*
X023460Y023115D03*
X024936Y023115D03*
D24*
X024450Y024064D03*
X024450Y025756D03*
X022480Y025766D03*
X022480Y024074D03*
M02*
