G75*
%MOIN*%
%OFA0B0*%
%FSLAX24Y24*%
%IPPOS*%
%LPD*%
%AMOC8*
5,1,8,0,0,1.08239X$1,22.5*
%
%ADD10R,0.0551X0.0433*%
%ADD11R,0.0472X0.0472*%
%ADD12R,0.0197X0.0591*%
%ADD13R,0.0591X0.0197*%
%ADD14C,0.0640*%
%ADD15R,0.0433X0.0551*%
%ADD16R,0.0551X0.0551*%
%ADD17R,0.0450X0.0300*%
%ADD18R,0.0433X0.0394*%
%ADD19R,0.0394X0.0433*%
%ADD20R,0.0630X0.1181*%
%ADD21R,0.1900X0.2250*%
%ADD22R,0.1669X0.1500*%
%ADD23R,0.0240X0.0870*%
%ADD24R,0.1102X0.1496*%
%ADD25R,0.1142X0.2126*%
%ADD26R,0.0315X0.0472*%
%ADD27R,0.0945X0.0591*%
%ADD28R,0.0591X0.0945*%
%ADD29R,0.0709X0.0630*%
%ADD30R,0.0669X0.0709*%
%ADD31R,0.0945X0.0945*%
%ADD32R,0.0800X0.0260*%
%ADD33R,0.3346X0.3465*%
%ADD34R,0.0787X0.1969*%
%ADD35R,0.0787X0.0472*%
%ADD36C,0.0236*%
%ADD37R,0.0870X0.0240*%
%ADD38R,0.0236X0.0472*%
%ADD39OC8,0.0740*%
%ADD40C,0.0594*%
%ADD41R,0.0594X0.0594*%
%ADD42R,0.0472X0.0217*%
%ADD43R,0.0512X0.0591*%
%ADD44C,0.0100*%
%ADD45C,0.0436*%
%ADD46C,0.0120*%
%ADD47C,0.0160*%
%ADD48C,0.0397*%
%ADD49C,0.0240*%
%ADD50C,0.0400*%
%ADD51C,0.0320*%
%ADD52C,0.1000*%
%ADD53C,0.0860*%
%ADD54C,0.0760*%
D10*
X007360Y011859D03*
X007360Y012646D03*
X018360Y012459D03*
X018360Y013246D03*
X024420Y016799D03*
X024420Y017586D03*
X025440Y017586D03*
X025440Y016799D03*
X025800Y010197D03*
X025800Y009410D03*
X028358Y009399D03*
X028358Y010187D03*
D11*
X027408Y010206D03*
X026661Y010206D03*
X026661Y009380D03*
X027408Y009380D03*
X018360Y010789D03*
X018360Y011616D03*
X016295Y016389D03*
X015468Y016389D03*
X007975Y006221D03*
X007148Y006221D03*
X007746Y033352D03*
X008573Y033352D03*
X013146Y033352D03*
X013973Y033352D03*
X018046Y033352D03*
X018873Y033352D03*
X022946Y033352D03*
X023773Y033352D03*
X028046Y033352D03*
X028873Y033352D03*
X027073Y053802D03*
X026246Y053802D03*
X022323Y054002D03*
X021496Y054002D03*
X017373Y054102D03*
X016546Y054102D03*
X012373Y054552D03*
X011546Y054552D03*
X031546Y053752D03*
X032373Y053752D03*
D12*
X021915Y020973D03*
X021600Y020973D03*
X021285Y020973D03*
X020970Y020973D03*
X020655Y020973D03*
X020340Y020973D03*
X020025Y020973D03*
X019710Y020973D03*
X019395Y020973D03*
X019080Y020973D03*
X018765Y020973D03*
X018765Y016406D03*
X019080Y016406D03*
X019395Y016406D03*
X019710Y016406D03*
X020025Y016406D03*
X020340Y016406D03*
X020655Y016406D03*
X020970Y016406D03*
X021285Y016406D03*
X021600Y016406D03*
X021915Y016406D03*
D13*
X022623Y017115D03*
X022623Y017430D03*
X022623Y017744D03*
X022623Y018059D03*
X022623Y018374D03*
X022623Y018689D03*
X022623Y019004D03*
X022623Y019319D03*
X022623Y019634D03*
X022623Y019949D03*
X022623Y020264D03*
X018056Y020264D03*
X018056Y019949D03*
X018056Y019634D03*
X018056Y019319D03*
X018056Y019004D03*
X018056Y018689D03*
X018056Y018374D03*
X018056Y018059D03*
X018056Y017744D03*
X018056Y017430D03*
X018056Y017115D03*
D14*
X007903Y016234D02*
X007263Y016234D01*
X007163Y015234D02*
X007803Y015234D01*
X007803Y017234D02*
X007163Y017234D01*
X007263Y018234D02*
X007903Y018234D01*
X007803Y019234D02*
X007163Y019234D01*
D15*
X010066Y027602D03*
X010853Y027602D03*
X014947Y027809D03*
X015734Y027809D03*
X019997Y027659D03*
X020784Y027659D03*
X024997Y027809D03*
X025784Y027809D03*
X029947Y027709D03*
X030734Y027709D03*
X030353Y033352D03*
X029566Y033352D03*
X025353Y033352D03*
X024566Y033352D03*
X020353Y033352D03*
X019566Y033352D03*
X015953Y033352D03*
X015166Y033352D03*
X010353Y033352D03*
X009566Y033352D03*
X009366Y048552D03*
X010153Y048552D03*
X014416Y048652D03*
X015203Y048652D03*
X019416Y048552D03*
X020203Y048552D03*
X024416Y048552D03*
X025203Y048552D03*
X029566Y048552D03*
X030353Y048552D03*
X029934Y054204D03*
X029147Y054204D03*
X025053Y054402D03*
X024266Y054402D03*
X020553Y054302D03*
X019766Y054302D03*
X014953Y054302D03*
X014166Y054302D03*
X009853Y054352D03*
X009066Y054352D03*
X017244Y016366D03*
X018032Y016366D03*
X009755Y006221D03*
X008968Y006221D03*
D16*
X010358Y007348D03*
X011854Y007348D03*
D17*
X012710Y025352D03*
X012710Y025852D03*
X012710Y026352D03*
X012710Y026852D03*
X014760Y026852D03*
X014760Y026352D03*
X014760Y025852D03*
X014760Y025352D03*
X017810Y025352D03*
X017810Y025852D03*
X017810Y026352D03*
X017810Y026852D03*
X019860Y026852D03*
X019860Y026352D03*
X019860Y025852D03*
X019860Y025352D03*
X022710Y025352D03*
X022710Y025852D03*
X022710Y026352D03*
X022710Y026852D03*
X024760Y026852D03*
X024760Y026352D03*
X024760Y025852D03*
X024760Y025352D03*
X027960Y025352D03*
X027960Y025852D03*
X027960Y026352D03*
X027960Y026852D03*
X030010Y026852D03*
X030010Y026352D03*
X030010Y025852D03*
X030010Y025352D03*
X009910Y025352D03*
X009910Y025852D03*
X009910Y026352D03*
X009910Y026852D03*
X007860Y026852D03*
X007860Y026352D03*
X007860Y025852D03*
X007860Y025352D03*
X010510Y055652D03*
X010510Y056152D03*
X010510Y056652D03*
X010510Y057152D03*
X012560Y057152D03*
X012560Y056652D03*
X012560Y056152D03*
X012560Y055652D03*
X015510Y055652D03*
X015510Y056152D03*
X015510Y056652D03*
X015510Y057152D03*
X017560Y057152D03*
X017560Y056652D03*
X017560Y056152D03*
X017560Y055652D03*
X020510Y055652D03*
X020510Y056152D03*
X020510Y056652D03*
X020510Y057152D03*
X022560Y057152D03*
X022560Y056652D03*
X022560Y056152D03*
X022560Y055652D03*
X025610Y055652D03*
X025610Y056152D03*
X025610Y056652D03*
X025610Y057152D03*
X027660Y057152D03*
X027660Y056652D03*
X027660Y056152D03*
X027660Y055652D03*
X030710Y055652D03*
X030710Y056152D03*
X030710Y056652D03*
X030710Y057152D03*
X032760Y057152D03*
X032760Y056652D03*
X032760Y056152D03*
X032760Y055652D03*
D18*
X013224Y007330D03*
X012554Y007330D03*
D19*
X016959Y008076D03*
X016959Y008746D03*
X017002Y009356D03*
X017002Y010026D03*
D20*
X019562Y028762D03*
X021357Y028762D03*
X024362Y028862D03*
X026157Y028862D03*
X029362Y028862D03*
X031157Y028862D03*
X016157Y028862D03*
X014362Y028862D03*
X011198Y028688D03*
X009402Y028688D03*
X010157Y053043D03*
X008362Y053043D03*
X013362Y053043D03*
X015157Y053043D03*
X018362Y053043D03*
X020157Y053043D03*
X023362Y053043D03*
X025157Y053043D03*
X028362Y053043D03*
X030157Y053043D03*
D21*
X029260Y050327D03*
X024260Y050327D03*
X019260Y050327D03*
X014260Y050327D03*
X009260Y050327D03*
X010300Y031404D03*
X015260Y031578D03*
X020460Y031478D03*
X025260Y031578D03*
X030260Y031578D03*
D22*
X016743Y005961D03*
X014231Y005961D03*
D23*
X009684Y011800D03*
X009184Y011800D03*
X008684Y011800D03*
X008184Y011800D03*
X008184Y013860D03*
X008684Y013860D03*
X009184Y013860D03*
X009684Y013860D03*
D24*
X010698Y009498D03*
X007785Y009498D03*
D25*
X011418Y012815D03*
X015315Y012815D03*
D26*
X010514Y014852D03*
X009805Y014852D03*
X009805Y015652D03*
X010514Y015652D03*
D27*
X017066Y012680D03*
X017066Y010869D03*
D28*
X009450Y007389D03*
X007639Y007389D03*
D29*
X013234Y008304D03*
X013234Y009406D03*
D30*
X014297Y009577D03*
X014297Y007963D03*
D31*
X015635Y007804D03*
X015635Y009536D03*
D32*
X021501Y006851D03*
X021501Y006351D03*
X021501Y005851D03*
X021501Y005351D03*
X023921Y005351D03*
X023921Y005851D03*
X023921Y006351D03*
X023921Y006851D03*
D33*
X025260Y038452D03*
X025260Y043452D03*
X030260Y043452D03*
X030260Y038452D03*
X020360Y038452D03*
X020260Y043452D03*
X015260Y043452D03*
X015260Y038452D03*
X010260Y038452D03*
X010260Y043452D03*
D34*
X011260Y046689D03*
X009260Y046689D03*
X014260Y046689D03*
X016260Y046689D03*
X019260Y046689D03*
X021260Y046689D03*
X024260Y046689D03*
X026260Y046689D03*
X029260Y046689D03*
X031260Y046689D03*
X031260Y035216D03*
X029260Y035216D03*
X026260Y035216D03*
X024260Y035216D03*
X021360Y035216D03*
X019360Y035216D03*
X016260Y035216D03*
X014260Y035216D03*
X011260Y035216D03*
X009260Y035216D03*
D35*
X016860Y014882D03*
X016860Y013622D03*
D36*
X018206Y009851D02*
X018206Y008553D01*
X018206Y009851D02*
X018914Y009851D01*
X018914Y008553D01*
X018206Y008553D01*
X018206Y008788D02*
X018914Y008788D01*
X018914Y009023D02*
X018206Y009023D01*
X018206Y009258D02*
X018914Y009258D01*
X018914Y009493D02*
X018206Y009493D01*
X018206Y009728D02*
X018914Y009728D01*
X018964Y006601D02*
X018964Y005303D01*
X018256Y005303D01*
X018256Y006601D01*
X018964Y006601D01*
X018964Y005538D02*
X018256Y005538D01*
X018256Y005773D02*
X018964Y005773D01*
X018964Y006008D02*
X018256Y006008D01*
X018256Y006243D02*
X018964Y006243D01*
X018964Y006478D02*
X018256Y006478D01*
X016614Y024803D02*
X016614Y026101D01*
X016614Y024803D02*
X015906Y024803D01*
X015906Y026101D01*
X016614Y026101D01*
X016614Y025038D02*
X015906Y025038D01*
X015906Y025273D02*
X016614Y025273D01*
X016614Y025508D02*
X015906Y025508D01*
X015906Y025743D02*
X016614Y025743D01*
X016614Y025978D02*
X015906Y025978D01*
X011614Y026101D02*
X011614Y024803D01*
X010906Y024803D01*
X010906Y026101D01*
X011614Y026101D01*
X011614Y025038D02*
X010906Y025038D01*
X010906Y025273D02*
X011614Y025273D01*
X011614Y025508D02*
X010906Y025508D01*
X010906Y025743D02*
X011614Y025743D01*
X011614Y025978D02*
X010906Y025978D01*
X007206Y028503D02*
X007206Y029801D01*
X007914Y029801D01*
X007914Y028503D01*
X007206Y028503D01*
X007206Y028738D02*
X007914Y028738D01*
X007914Y028973D02*
X007206Y028973D01*
X007206Y029208D02*
X007914Y029208D01*
X007914Y029443D02*
X007206Y029443D01*
X007206Y029678D02*
X007914Y029678D01*
X021614Y026101D02*
X021614Y024803D01*
X020906Y024803D01*
X020906Y026101D01*
X021614Y026101D01*
X021614Y025038D02*
X020906Y025038D01*
X020906Y025273D02*
X021614Y025273D01*
X021614Y025508D02*
X020906Y025508D01*
X020906Y025743D02*
X021614Y025743D01*
X021614Y025978D02*
X020906Y025978D01*
X026614Y026101D02*
X026614Y024803D01*
X025906Y024803D01*
X025906Y026101D01*
X026614Y026101D01*
X026614Y025038D02*
X025906Y025038D01*
X025906Y025273D02*
X026614Y025273D01*
X026614Y025508D02*
X025906Y025508D01*
X025906Y025743D02*
X026614Y025743D01*
X026614Y025978D02*
X025906Y025978D01*
X031614Y026101D02*
X031614Y024803D01*
X030906Y024803D01*
X030906Y026101D01*
X031614Y026101D01*
X031614Y025038D02*
X030906Y025038D01*
X030906Y025273D02*
X031614Y025273D01*
X031614Y025508D02*
X030906Y025508D01*
X030906Y025743D02*
X031614Y025743D01*
X031614Y025978D02*
X030906Y025978D01*
X029614Y055803D02*
X029614Y057101D01*
X029614Y055803D02*
X028906Y055803D01*
X028906Y057101D01*
X029614Y057101D01*
X029614Y056038D02*
X028906Y056038D01*
X028906Y056273D02*
X029614Y056273D01*
X029614Y056508D02*
X028906Y056508D01*
X028906Y056743D02*
X029614Y056743D01*
X029614Y056978D02*
X028906Y056978D01*
X024614Y057101D02*
X024614Y055803D01*
X023906Y055803D01*
X023906Y057101D01*
X024614Y057101D01*
X024614Y056038D02*
X023906Y056038D01*
X023906Y056273D02*
X024614Y056273D01*
X024614Y056508D02*
X023906Y056508D01*
X023906Y056743D02*
X024614Y056743D01*
X024614Y056978D02*
X023906Y056978D01*
X019614Y057101D02*
X019614Y055803D01*
X018906Y055803D01*
X018906Y057101D01*
X019614Y057101D01*
X019614Y056038D02*
X018906Y056038D01*
X018906Y056273D02*
X019614Y056273D01*
X019614Y056508D02*
X018906Y056508D01*
X018906Y056743D02*
X019614Y056743D01*
X019614Y056978D02*
X018906Y056978D01*
X014614Y057101D02*
X014614Y055803D01*
X013906Y055803D01*
X013906Y057101D01*
X014614Y057101D01*
X014614Y056038D02*
X013906Y056038D01*
X013906Y056273D02*
X014614Y056273D01*
X014614Y056508D02*
X013906Y056508D01*
X013906Y056743D02*
X014614Y056743D01*
X014614Y056978D02*
X013906Y056978D01*
X009614Y057101D02*
X009614Y055803D01*
X008906Y055803D01*
X008906Y057101D01*
X009614Y057101D01*
X009614Y056038D02*
X008906Y056038D01*
X008906Y056273D02*
X009614Y056273D01*
X009614Y056508D02*
X008906Y056508D01*
X008906Y056743D02*
X009614Y056743D01*
X009614Y056978D02*
X008906Y056978D01*
D37*
X026080Y007902D03*
X026080Y007402D03*
X026080Y006902D03*
X026080Y006402D03*
X028140Y006402D03*
X028140Y006902D03*
X028140Y007402D03*
X028140Y007902D03*
D38*
X028210Y019150D03*
X028710Y019150D03*
X029210Y019150D03*
X029710Y019150D03*
X031130Y019140D03*
X031630Y019140D03*
X032130Y019140D03*
X032630Y019140D03*
X033130Y019140D03*
X033630Y019140D03*
X034130Y019140D03*
X034630Y019140D03*
X034630Y021345D03*
X034130Y021345D03*
X033630Y021345D03*
X033130Y021345D03*
X032630Y021345D03*
X032130Y021345D03*
X031630Y021345D03*
X031130Y021345D03*
X029710Y021355D03*
X029210Y021355D03*
X028710Y021355D03*
X028210Y021355D03*
X027710Y021355D03*
X027210Y021355D03*
X026710Y021355D03*
X026210Y021355D03*
X026210Y019150D03*
X026710Y019150D03*
X027210Y019150D03*
X027710Y019150D03*
D39*
X028160Y018092D03*
X028160Y017092D03*
X028160Y016092D03*
X028160Y015092D03*
X027160Y015092D03*
X027160Y016092D03*
X027160Y017092D03*
X027160Y018092D03*
X030260Y017952D03*
X030260Y016952D03*
X031260Y016952D03*
X031260Y017952D03*
X033260Y017952D03*
X033260Y016952D03*
X034260Y016952D03*
X034260Y017952D03*
X034260Y015952D03*
X034260Y014952D03*
X033260Y014952D03*
X033260Y015952D03*
X031260Y015952D03*
X031260Y014952D03*
X030260Y014952D03*
X030260Y015952D03*
D40*
X030015Y009862D03*
X030015Y008862D03*
X030015Y007862D03*
X030015Y006862D03*
D41*
X030015Y005862D03*
D42*
X014425Y017133D03*
X014425Y017881D03*
X013401Y017881D03*
X013401Y017507D03*
X013401Y017133D03*
D43*
X013697Y016366D03*
X013027Y016366D03*
X012358Y017862D03*
X011689Y017862D03*
D44*
X012358Y017862D02*
X012358Y017921D01*
X012653Y018216D01*
X014346Y018216D01*
X014425Y018137D01*
X014425Y017882D01*
X015280Y017882D01*
X016310Y016852D01*
X018510Y016852D01*
X018610Y016952D01*
X018610Y017402D01*
X018560Y017452D01*
X018079Y017452D01*
X018056Y017430D01*
X018056Y017744D02*
X018048Y017752D01*
X016900Y017752D01*
X016640Y018032D01*
X016937Y018374D02*
X016860Y018452D01*
X008880Y018452D01*
X008690Y018262D01*
X008690Y015552D01*
X008330Y015192D01*
X007524Y015192D01*
X007483Y015234D01*
X007583Y018234D02*
X008038Y018689D01*
X018056Y018689D01*
X018056Y018374D02*
X016937Y018374D01*
X016380Y017432D02*
X016710Y017102D01*
X018044Y017102D01*
X018056Y017115D01*
X018032Y016366D02*
X018725Y016366D01*
X018765Y016406D01*
X019071Y016396D02*
X019071Y015696D01*
X018874Y015500D01*
X018677Y015500D01*
X019071Y016396D02*
X019080Y016406D01*
X019385Y016415D02*
X019395Y016406D01*
X019385Y016415D02*
X019385Y017035D01*
X019300Y017121D01*
X019300Y019992D01*
X018920Y020372D01*
X018720Y020372D01*
X018480Y020612D01*
X017860Y020612D01*
X017460Y021012D01*
X017460Y022612D01*
X018120Y023272D01*
X021000Y023272D01*
X021380Y023652D01*
X027440Y023652D01*
X027860Y024072D01*
X033420Y024072D01*
X033640Y024292D01*
X033640Y027852D01*
X034420Y028652D01*
X034420Y046292D01*
X034160Y046552D01*
X034160Y054632D01*
X034080Y054712D01*
X033640Y054712D01*
X033220Y054292D01*
X032580Y054292D01*
X032400Y054472D01*
X032400Y054872D01*
X032160Y055112D01*
X030300Y055112D01*
X030100Y055312D01*
X030100Y056632D01*
X030710Y056652D02*
X031360Y056652D01*
X031660Y056352D01*
X031220Y055992D02*
X031060Y056152D01*
X030710Y056152D01*
X030800Y054512D02*
X030242Y054512D01*
X029934Y054204D01*
X031360Y053566D02*
X031546Y053752D01*
X031360Y053566D02*
X031360Y049052D01*
X030860Y048552D01*
X030353Y048552D01*
X029566Y048552D02*
X029260Y048552D01*
X029060Y049459D02*
X029060Y050152D01*
X029260Y050152D01*
X029260Y050327D01*
X027260Y052852D02*
X027260Y053452D01*
X027073Y053639D01*
X027073Y053802D01*
X026246Y053802D02*
X026060Y053616D01*
X026060Y049052D01*
X025560Y048552D01*
X025203Y048552D01*
X024416Y048552D02*
X024360Y048552D01*
X024260Y048652D01*
X021160Y049052D02*
X020660Y048552D01*
X020203Y048552D01*
X019416Y048552D02*
X019416Y048696D01*
X019260Y048852D01*
X021160Y049052D02*
X021160Y053152D01*
X021496Y053489D01*
X021496Y054002D01*
X021360Y054652D02*
X020760Y054652D01*
X020553Y054446D01*
X020553Y054302D01*
X020560Y054296D01*
X020560Y053652D01*
X020157Y053250D01*
X020157Y053043D01*
X019766Y054302D02*
X019210Y054302D01*
X018810Y054702D01*
X018310Y054102D02*
X018360Y054052D01*
X018310Y054102D02*
X017373Y054102D01*
X016546Y054102D02*
X016410Y054102D01*
X016160Y053852D01*
X016160Y049152D01*
X015660Y048652D01*
X015203Y048652D01*
X014416Y048652D02*
X014416Y048696D01*
X014260Y048852D01*
X011060Y049152D02*
X010460Y048552D01*
X010153Y048552D01*
X011060Y049152D02*
X011060Y053152D01*
X011546Y053639D01*
X011546Y054552D01*
X012373Y054552D02*
X013060Y054552D01*
X013410Y054202D01*
X014166Y054302D02*
X014166Y054926D01*
X014150Y054942D01*
X015510Y056652D02*
X016260Y056652D01*
X016460Y056452D01*
X016960Y057152D02*
X017560Y057152D01*
X020510Y056652D02*
X021260Y056652D01*
X021860Y057152D02*
X022560Y057152D01*
X022323Y054002D02*
X023410Y054002D01*
X023460Y054052D01*
X025610Y056652D02*
X026140Y056652D01*
X026240Y056752D01*
X026280Y056752D01*
X026960Y057152D02*
X027660Y057152D01*
X032160Y057152D02*
X032760Y057152D01*
X032760Y056152D02*
X033460Y056152D01*
X033720Y055892D01*
X033720Y055392D01*
X033760Y055352D01*
X033760Y054152D02*
X033760Y046412D01*
X034020Y046152D01*
X034020Y029332D01*
X032480Y027792D01*
X032480Y025712D01*
X032180Y025412D01*
X031300Y025412D01*
X031260Y025452D01*
X029860Y025852D02*
X029530Y025852D01*
X029390Y025712D01*
X029390Y025452D01*
X030010Y026352D02*
X030020Y026352D01*
X029947Y027709D02*
X029403Y027709D01*
X029310Y027802D01*
X029310Y028092D01*
X029270Y028132D01*
X028520Y028132D01*
X029310Y028092D02*
X029310Y028809D01*
X029362Y028862D01*
X030734Y027709D02*
X031216Y027709D01*
X031260Y027752D01*
X034420Y028652D02*
X034460Y028672D01*
X034460Y023752D02*
X027840Y023752D01*
X026540Y022472D01*
X023460Y022472D01*
X023260Y022272D01*
X022120Y022272D01*
X022000Y022152D01*
X022000Y021812D01*
X021620Y021432D01*
X021620Y020993D01*
X021600Y020973D01*
X021915Y020973D02*
X021915Y020287D01*
X021620Y019992D01*
X020360Y019992D01*
X020040Y019672D01*
X020400Y019612D02*
X020400Y019192D01*
X020400Y019612D02*
X020540Y019752D01*
X021660Y019752D01*
X022171Y020264D01*
X022623Y020264D01*
X022626Y019952D02*
X022623Y019949D01*
X023036Y019949D01*
X023120Y020032D01*
X023120Y021772D01*
X023220Y021872D01*
X023380Y021412D02*
X023960Y021992D01*
X023820Y021332D02*
X023700Y021212D01*
X023700Y019932D01*
X023086Y019319D01*
X022623Y019319D01*
X022623Y019004D02*
X023091Y019004D01*
X024000Y019912D01*
X024000Y020812D01*
X024540Y021352D01*
X025080Y021292D02*
X024300Y020532D01*
X024300Y019692D01*
X024280Y019492D01*
X023160Y018372D01*
X022625Y018372D01*
X022623Y018374D01*
X022623Y018059D02*
X022630Y018052D01*
X023360Y018052D01*
X025040Y019712D01*
X025040Y020292D01*
X025520Y020772D01*
X027080Y020772D01*
X027210Y020902D01*
X027210Y021355D01*
X027220Y021365D01*
X027220Y022092D01*
X027520Y022392D01*
X031940Y022392D01*
X032160Y022092D01*
X032160Y021375D01*
X032130Y021345D01*
X033320Y022612D02*
X033620Y022332D01*
X033620Y021355D01*
X033630Y021345D01*
X033320Y022612D02*
X027040Y022612D01*
X026700Y022272D01*
X025280Y022272D01*
X025080Y022072D01*
X025080Y021292D01*
X025640Y020432D02*
X025320Y020112D01*
X025320Y019592D01*
X024230Y018502D01*
X024420Y018312D01*
X024420Y017586D01*
X024230Y018502D02*
X023460Y017732D01*
X022635Y017732D01*
X022623Y017744D01*
X022623Y017430D02*
X023082Y017430D01*
X023260Y017252D01*
X023260Y016052D01*
X023560Y015752D01*
X025960Y015752D01*
X026160Y015952D01*
X026160Y019100D01*
X026210Y019150D01*
X026200Y019160D01*
X026200Y019552D01*
X026640Y019992D01*
X030500Y019992D01*
X031130Y019362D01*
X031130Y019140D01*
X030840Y018772D02*
X030740Y018852D01*
X030740Y019472D01*
X030420Y019792D01*
X027080Y019792D01*
X026760Y019472D01*
X026760Y019100D01*
X026710Y019150D01*
X026760Y019100D02*
X026760Y018952D01*
X026360Y018552D01*
X026360Y015852D01*
X026060Y015552D01*
X021760Y015552D01*
X021600Y015712D01*
X021600Y016406D01*
X021600Y016393D01*
X021560Y016352D01*
X021285Y016406D02*
X021285Y015627D01*
X021560Y015352D01*
X026260Y015352D01*
X026560Y015652D01*
X026560Y018352D01*
X027160Y018952D01*
X027160Y019100D01*
X027210Y019150D01*
X027210Y019482D01*
X027320Y019592D01*
X030340Y019592D01*
X030540Y019392D01*
X030540Y018692D01*
X030640Y018592D01*
X032020Y018592D01*
X032140Y018712D01*
X032140Y019130D01*
X032130Y019140D01*
X031640Y019130D02*
X031630Y019140D01*
X031640Y019150D01*
X031640Y019130D02*
X031640Y018852D01*
X031560Y018772D01*
X030840Y018772D01*
X030180Y019152D02*
X030150Y019142D01*
X029710Y019150D01*
X029210Y019150D02*
X029210Y018902D01*
X029260Y018852D01*
X029280Y015392D01*
X028980Y015092D01*
X028160Y015092D01*
X028160Y016092D02*
X028860Y016092D01*
X029060Y016292D01*
X029060Y018592D01*
X028710Y018942D01*
X028710Y019150D01*
X028210Y019150D02*
X028210Y018902D01*
X028860Y018252D01*
X028860Y017392D01*
X028560Y017092D01*
X028160Y017092D01*
X028160Y018092D02*
X027710Y018502D01*
X027710Y019150D01*
X028420Y020432D02*
X025640Y020432D01*
X025580Y019072D02*
X025440Y018932D01*
X025440Y017586D01*
X025440Y016799D02*
X024420Y016799D01*
X024326Y016799D01*
X023820Y016292D01*
X022623Y018689D02*
X022656Y018722D01*
X022070Y018722D01*
X021980Y018812D01*
X022623Y019004D02*
X022625Y019002D01*
X022623Y019634D02*
X023021Y019634D01*
X023380Y019992D01*
X023380Y021412D01*
X023160Y022552D02*
X023340Y022732D01*
X026140Y022732D01*
X026700Y023292D01*
X027260Y024032D02*
X027420Y024192D01*
X027420Y025272D01*
X027500Y025352D01*
X027960Y025352D01*
X026260Y027702D02*
X026153Y027809D01*
X025784Y027809D01*
X024997Y027809D02*
X024316Y027809D01*
X024060Y027552D01*
X024360Y028002D02*
X024360Y028859D01*
X024362Y028862D01*
X024360Y028002D02*
X024553Y027809D01*
X024997Y027809D01*
X023160Y027652D02*
X023160Y027402D01*
X023210Y027352D01*
X023160Y027652D02*
X023110Y027702D01*
X021260Y027752D02*
X021166Y027659D01*
X020784Y027659D01*
X019997Y027659D02*
X019216Y027659D01*
X019060Y027502D01*
X019510Y027852D02*
X019510Y028709D01*
X019562Y028762D01*
X019510Y027852D02*
X019703Y027659D01*
X019997Y027659D01*
X018410Y027752D02*
X018360Y027752D01*
X018260Y027852D01*
X016260Y027802D02*
X016253Y027809D01*
X015734Y027809D01*
X014947Y027809D02*
X014166Y027809D01*
X013960Y027602D01*
X014310Y028002D02*
X014310Y028809D01*
X014362Y028862D01*
X014310Y028002D02*
X014503Y027809D01*
X014947Y027809D01*
X013010Y027502D02*
X012960Y027552D01*
X012960Y027902D01*
X011260Y027552D02*
X011210Y027602D01*
X010853Y027602D01*
X010066Y027602D02*
X009510Y027602D01*
X009410Y027702D01*
X009410Y028681D01*
X009402Y028688D01*
X009538Y028552D01*
X010260Y028552D01*
X010460Y026352D02*
X009910Y026352D01*
X009910Y025852D02*
X009260Y025852D01*
X009010Y025602D01*
X009060Y026402D02*
X008410Y026402D01*
X008360Y026452D01*
X010352Y031352D02*
X010300Y031404D01*
X010352Y031352D02*
X010360Y031352D01*
X014760Y025852D02*
X015300Y025852D01*
X015360Y025792D01*
X017810Y025352D02*
X017810Y024202D01*
X017960Y024052D01*
X019290Y025712D02*
X019430Y025852D01*
X019860Y025852D01*
X021460Y023212D02*
X021260Y023012D01*
X021260Y022052D01*
X020660Y021432D01*
X020660Y020978D01*
X020655Y020973D01*
X020970Y020973D02*
X020970Y021463D01*
X021500Y021992D01*
X021500Y022492D01*
X021800Y022792D01*
X022800Y022792D01*
X022980Y022972D01*
X023160Y022552D02*
X021920Y022552D01*
X021760Y022392D01*
X021760Y021932D01*
X021285Y021458D01*
X021285Y020973D01*
X020600Y022232D02*
X020560Y022232D01*
X019710Y021383D01*
X019710Y020973D01*
X019395Y020973D02*
X019395Y021568D01*
X019820Y022072D01*
X019080Y021852D02*
X019080Y020973D01*
X019080Y020973D01*
X018765Y020972D02*
X018765Y020973D01*
X018765Y020972D02*
X018080Y020972D01*
X018056Y019634D02*
X015498Y019634D01*
X015220Y019912D01*
X014425Y017882D02*
X014425Y017881D01*
X014425Y017133D02*
X013401Y017133D01*
X013697Y016366D02*
X014386Y016366D01*
X014425Y016405D01*
X014425Y014515D01*
X014779Y014161D01*
X016001Y014161D01*
X016120Y014043D01*
X016120Y013292D01*
X016260Y013152D01*
X016320Y012732D02*
X016300Y012712D01*
X016300Y012592D01*
X016240Y012532D01*
X016240Y012432D01*
X016210Y010052D02*
X016310Y009952D01*
X016310Y009652D01*
X016410Y009552D01*
X017510Y009552D01*
X017810Y010052D01*
X018860Y010052D01*
X018860Y008352D01*
X017710Y008352D01*
X017510Y008602D01*
X016610Y008602D01*
X016510Y008702D01*
X016510Y008902D01*
X016410Y009002D01*
X014960Y009002D01*
X014760Y009202D01*
X013810Y009202D01*
X013660Y009052D01*
X012760Y009052D01*
X012710Y009102D01*
X012710Y009852D01*
X012760Y009902D01*
X013460Y009902D01*
X013610Y010052D01*
X016210Y010052D01*
X016214Y010047D02*
X013605Y010047D01*
X013506Y009949D02*
X016310Y009949D01*
X016310Y009850D02*
X012710Y009850D01*
X012710Y009752D02*
X016310Y009752D01*
X016310Y009653D02*
X012710Y009653D01*
X012710Y009555D02*
X016407Y009555D01*
X016448Y008964D02*
X018860Y008964D01*
X018860Y009062D02*
X014899Y009062D01*
X014801Y009161D02*
X018860Y009161D01*
X018860Y009259D02*
X012710Y009259D01*
X012710Y009161D02*
X013768Y009161D01*
X013670Y009062D02*
X012749Y009062D01*
X012710Y009358D02*
X018860Y009358D01*
X018860Y009456D02*
X012710Y009456D01*
X012860Y008702D02*
X012760Y008602D01*
X012760Y007952D01*
X013010Y007702D01*
X013010Y007052D01*
X013210Y006802D01*
X013210Y005252D01*
X013310Y005052D01*
X015110Y005052D01*
X015210Y005152D01*
X015210Y006902D01*
X015310Y007002D01*
X017210Y007002D01*
X017410Y007202D01*
X017410Y008202D01*
X017310Y008302D01*
X014060Y008302D01*
X013660Y008702D01*
X012860Y008702D01*
X012826Y008668D02*
X013693Y008668D01*
X013792Y008570D02*
X012760Y008570D01*
X012760Y008471D02*
X013890Y008471D01*
X013989Y008373D02*
X012760Y008373D01*
X012760Y008274D02*
X017337Y008274D01*
X017410Y008176D02*
X012760Y008176D01*
X012760Y008077D02*
X017410Y008077D01*
X017410Y007979D02*
X012760Y007979D01*
X012831Y007880D02*
X017410Y007880D01*
X017410Y007782D02*
X012930Y007782D01*
X013010Y007683D02*
X017410Y007683D01*
X017410Y007585D02*
X013010Y007585D01*
X013010Y007486D02*
X017410Y007486D01*
X017410Y007388D02*
X013010Y007388D01*
X013010Y007289D02*
X017410Y007289D01*
X017398Y007191D02*
X013010Y007191D01*
X013010Y007092D02*
X017300Y007092D01*
X017700Y007212D02*
X017820Y007092D01*
X019100Y007092D01*
X020360Y005832D01*
X021483Y005832D01*
X021501Y005851D01*
X021501Y006351D02*
X020381Y006351D01*
X019800Y006932D01*
X019400Y007372D01*
X019220Y007552D01*
X018200Y007552D01*
X018140Y007612D01*
X017820Y008052D02*
X017700Y007932D01*
X017700Y007212D01*
X017820Y008052D02*
X020340Y008052D01*
X018860Y008373D02*
X017693Y008373D01*
X017614Y008471D02*
X018860Y008471D01*
X018860Y008570D02*
X017535Y008570D01*
X017511Y009555D02*
X018860Y009555D01*
X018860Y009653D02*
X017570Y009653D01*
X017629Y009752D02*
X018860Y009752D01*
X018860Y009850D02*
X017688Y009850D01*
X017747Y009949D02*
X018860Y009949D01*
X018860Y010047D02*
X017807Y010047D01*
X018860Y008865D02*
X016510Y008865D01*
X016510Y008767D02*
X018860Y008767D01*
X018860Y008668D02*
X016543Y008668D01*
X015301Y006994D02*
X013056Y006994D01*
X013135Y006895D02*
X015210Y006895D01*
X015210Y006797D02*
X013210Y006797D01*
X013210Y006698D02*
X015210Y006698D01*
X015210Y006600D02*
X013210Y006600D01*
X013210Y006501D02*
X015210Y006501D01*
X015210Y006403D02*
X013210Y006403D01*
X013210Y006304D02*
X015210Y006304D01*
X015210Y006206D02*
X013210Y006206D01*
X013210Y006107D02*
X015210Y006107D01*
X015210Y006009D02*
X013210Y006009D01*
X013210Y005910D02*
X015210Y005910D01*
X015210Y005812D02*
X013210Y005812D01*
X013210Y005713D02*
X015210Y005713D01*
X015210Y005615D02*
X013210Y005615D01*
X013210Y005516D02*
X015210Y005516D01*
X015210Y005418D02*
X013210Y005418D01*
X013210Y005319D02*
X015210Y005319D01*
X015210Y005221D02*
X013225Y005221D01*
X013274Y005122D02*
X015180Y005122D01*
X008968Y006221D02*
X007975Y006221D01*
X007480Y011132D02*
X007340Y011272D01*
X007340Y011812D01*
X007712Y019004D02*
X007483Y019234D01*
X007712Y019004D02*
X018056Y019004D01*
X018056Y019319D02*
X018043Y019332D01*
X010400Y019332D01*
X010360Y019372D01*
X010180Y019572D01*
X014425Y017133D02*
X014425Y016405D01*
X015940Y017852D02*
X016380Y017432D01*
X016295Y016389D02*
X017221Y016389D01*
X017244Y016366D01*
X018056Y018059D02*
X018069Y018072D01*
X018760Y018072D01*
X018056Y019319D02*
X018053Y019322D01*
X019710Y016406D02*
X019710Y015582D01*
X020120Y015192D01*
X024787Y010889D02*
X024923Y011025D01*
X025076Y011139D01*
X025244Y011231D01*
X025423Y011298D01*
X025610Y011339D01*
X025801Y011352D01*
X035030Y011352D01*
X035030Y004682D01*
X030986Y004682D01*
X031361Y005057D01*
X031442Y005138D01*
X031487Y005245D01*
X031487Y009258D01*
X031442Y009365D01*
X030812Y009995D01*
X030731Y010076D01*
X030624Y010120D01*
X030361Y010120D01*
X030257Y010224D01*
X030100Y010289D01*
X029930Y010289D01*
X029773Y010224D01*
X029653Y010104D01*
X029588Y009947D01*
X029588Y009777D01*
X029653Y009620D01*
X029773Y009500D01*
X029930Y009435D01*
X030100Y009435D01*
X030257Y009500D01*
X030298Y009540D01*
X030446Y009540D01*
X030907Y009080D01*
X030907Y005423D01*
X030683Y005199D01*
X025355Y005199D01*
X025353Y005201D01*
X025311Y005303D01*
X025213Y005401D01*
X025085Y005454D01*
X025077Y005454D01*
X024934Y005597D01*
X024828Y005641D01*
X024460Y005641D01*
X024460Y005661D01*
X025077Y005661D01*
X025218Y005802D01*
X025330Y005914D01*
X025330Y006594D01*
X025438Y006702D01*
X025541Y006702D01*
X025591Y006652D01*
X025515Y006576D01*
X025515Y006229D01*
X025591Y006152D01*
X026568Y006152D01*
X026607Y006191D01*
X026673Y006124D01*
X026794Y006074D01*
X026925Y006074D01*
X027046Y006124D01*
X027134Y006212D01*
X027338Y006212D01*
X027450Y006324D01*
X027555Y006429D01*
X027555Y006412D01*
X028130Y006412D01*
X028130Y006392D01*
X028150Y006392D01*
X028150Y006412D01*
X028725Y006412D01*
X028725Y006542D01*
X028714Y006580D01*
X028695Y006614D01*
X028667Y006642D01*
X028636Y006660D01*
X028688Y006712D01*
X029615Y006712D01*
X029653Y006620D01*
X029773Y006500D01*
X029930Y006435D01*
X030100Y006435D01*
X030257Y006500D01*
X030378Y006620D01*
X030443Y006777D01*
X030443Y006947D01*
X030378Y007104D01*
X030257Y007224D01*
X030100Y007289D01*
X029930Y007289D01*
X029773Y007224D01*
X029653Y007104D01*
X029649Y007092D01*
X028688Y007092D01*
X028628Y007152D01*
X028688Y007212D01*
X029083Y007212D01*
X029543Y007672D01*
X029632Y007672D01*
X029653Y007620D01*
X029773Y007500D01*
X029930Y007435D01*
X030100Y007435D01*
X030257Y007500D01*
X030378Y007620D01*
X030443Y007777D01*
X030443Y007947D01*
X030378Y008104D01*
X030257Y008224D01*
X030100Y008289D01*
X029930Y008289D01*
X029773Y008224D01*
X029653Y008104D01*
X029632Y008052D01*
X029386Y008052D01*
X028926Y007592D01*
X028688Y007592D01*
X028628Y007652D01*
X028667Y007691D01*
X028803Y007691D01*
X028926Y007814D01*
X029044Y007932D01*
X029044Y008249D01*
X029129Y008334D01*
X029182Y008462D01*
X029182Y008600D01*
X029129Y008728D01*
X029032Y008826D01*
X028904Y008879D01*
X028765Y008879D01*
X028637Y008826D01*
X028539Y008728D01*
X028486Y008600D01*
X028486Y008462D01*
X028539Y008334D01*
X028624Y008249D01*
X028624Y008152D01*
X027651Y008152D01*
X027600Y008101D01*
X027600Y008574D01*
X027688Y008662D01*
X028288Y008662D01*
X028400Y008774D01*
X028548Y008922D01*
X028548Y009053D01*
X028687Y009053D01*
X028764Y009129D01*
X028764Y009670D01*
X028687Y009746D01*
X028029Y009746D01*
X027952Y009670D01*
X027952Y009129D01*
X028029Y009053D01*
X028141Y009053D01*
X028131Y009042D01*
X027727Y009042D01*
X027774Y009089D01*
X027774Y009670D01*
X027698Y009746D01*
X027117Y009746D01*
X027041Y009670D01*
X027041Y009560D01*
X027028Y009560D01*
X027028Y009670D01*
X026952Y009746D01*
X026371Y009746D01*
X026295Y009670D01*
X026295Y009089D01*
X026371Y009013D01*
X026479Y009013D01*
X026479Y008980D01*
X026393Y008944D01*
X026295Y008846D01*
X026242Y008718D01*
X026242Y008580D01*
X026295Y008452D01*
X026393Y008354D01*
X026521Y008301D01*
X026659Y008301D01*
X026787Y008354D01*
X026885Y008452D01*
X026938Y008580D01*
X026938Y008718D01*
X026885Y008846D01*
X026859Y008873D01*
X026859Y009013D01*
X026952Y009013D01*
X027028Y009089D01*
X027028Y009168D01*
X027041Y009168D01*
X027041Y009089D01*
X027117Y009013D01*
X027502Y009013D01*
X027331Y008842D01*
X027220Y008731D01*
X027220Y006631D01*
X027181Y006592D01*
X027134Y006592D01*
X027046Y006681D01*
X026925Y006731D01*
X026794Y006731D01*
X026673Y006681D01*
X026607Y006614D01*
X026568Y006652D01*
X025591Y006652D01*
X026568Y006652D01*
X026645Y006729D01*
X026645Y007076D01*
X026568Y007152D01*
X026645Y007229D01*
X026645Y007503D01*
X026673Y007474D01*
X026794Y007424D01*
X026925Y007424D01*
X027046Y007474D01*
X027138Y007566D01*
X027188Y007687D01*
X027188Y007818D01*
X027138Y007938D01*
X027046Y008031D01*
X026925Y008081D01*
X026800Y008081D01*
X026788Y008092D01*
X026628Y008092D01*
X026568Y008152D01*
X026098Y008152D01*
X025990Y008260D01*
X025990Y009063D01*
X026130Y009063D01*
X026206Y009139D01*
X026206Y009680D01*
X026130Y009756D01*
X025471Y009756D01*
X025395Y009680D01*
X025395Y009139D01*
X025471Y009063D01*
X025610Y009063D01*
X025610Y008152D01*
X025591Y008152D01*
X025520Y008082D01*
X025520Y008767D01*
X025610Y008767D01*
X025520Y008767D02*
X025284Y009004D01*
X025284Y010421D01*
X025488Y010625D01*
X028834Y010625D01*
X028999Y010460D01*
X028999Y009122D01*
X029314Y008807D01*
X029425Y008695D01*
X029622Y008695D01*
X029653Y008620D01*
X029773Y008500D01*
X029930Y008435D01*
X030100Y008435D01*
X030257Y008500D01*
X030378Y008620D01*
X030443Y008777D01*
X030443Y008947D01*
X030378Y009104D01*
X030257Y009224D01*
X030100Y009289D01*
X029930Y009289D01*
X029773Y009224D01*
X029653Y009104D01*
X029642Y009075D01*
X029582Y009075D01*
X029379Y009279D01*
X029379Y010618D01*
X029267Y010729D01*
X028992Y011005D01*
X025330Y011005D01*
X025219Y010893D01*
X024904Y010578D01*
X024904Y008846D01*
X025015Y008735D01*
X025140Y008610D01*
X025140Y007311D01*
X024460Y006630D01*
X024460Y006660D01*
X024461Y006663D01*
X024471Y006701D01*
X024471Y006836D01*
X024460Y006836D01*
X024460Y006866D01*
X024471Y006866D01*
X024471Y007001D01*
X024461Y007039D01*
X024460Y007042D01*
X024460Y010011D01*
X024473Y010202D01*
X024514Y010389D01*
X024581Y010568D01*
X024672Y010736D01*
X024787Y010889D01*
X024832Y010934D02*
X025260Y010934D01*
X025161Y010835D02*
X024747Y010835D01*
X024673Y010737D02*
X025063Y010737D01*
X024964Y010638D02*
X024619Y010638D01*
X024570Y010540D02*
X024904Y010540D01*
X024904Y010441D02*
X024534Y010441D01*
X024504Y010343D02*
X024904Y010343D01*
X024904Y010244D02*
X024482Y010244D01*
X024469Y010146D02*
X024904Y010146D01*
X024904Y010047D02*
X024462Y010047D01*
X024460Y009949D02*
X024904Y009949D01*
X024904Y009850D02*
X024460Y009850D01*
X024460Y009752D02*
X024904Y009752D01*
X024904Y009653D02*
X024460Y009653D01*
X024460Y009555D02*
X024904Y009555D01*
X024904Y009456D02*
X024460Y009456D01*
X024460Y009358D02*
X024904Y009358D01*
X024904Y009259D02*
X024460Y009259D01*
X024460Y009161D02*
X024904Y009161D01*
X024904Y009062D02*
X024460Y009062D01*
X024460Y008964D02*
X024904Y008964D01*
X024904Y008865D02*
X024460Y008865D01*
X024460Y008767D02*
X024983Y008767D01*
X025082Y008668D02*
X024460Y008668D01*
X024460Y008570D02*
X025140Y008570D01*
X025140Y008471D02*
X024460Y008471D01*
X024460Y008373D02*
X025140Y008373D01*
X025140Y008274D02*
X024460Y008274D01*
X024460Y008176D02*
X025140Y008176D01*
X025140Y008077D02*
X024460Y008077D01*
X024460Y007979D02*
X025140Y007979D01*
X025140Y007880D02*
X024460Y007880D01*
X024460Y007782D02*
X025140Y007782D01*
X025140Y007683D02*
X024460Y007683D01*
X024460Y007585D02*
X025140Y007585D01*
X025140Y007486D02*
X024460Y007486D01*
X024460Y007388D02*
X025140Y007388D01*
X025119Y007289D02*
X024460Y007289D01*
X024460Y007191D02*
X025021Y007191D01*
X024922Y007092D02*
X024460Y007092D01*
X024471Y006994D02*
X024824Y006994D01*
X024725Y006895D02*
X024471Y006895D01*
X024471Y006797D02*
X024627Y006797D01*
X024618Y006851D02*
X024700Y007092D01*
X024618Y006851D02*
X023921Y006851D01*
X024471Y006698D02*
X024528Y006698D01*
X025336Y006600D02*
X025538Y006600D01*
X025545Y006698D02*
X025434Y006698D01*
X025515Y006501D02*
X025330Y006501D01*
X025330Y006403D02*
X025515Y006403D01*
X025515Y006304D02*
X025330Y006304D01*
X025330Y006206D02*
X025537Y006206D01*
X025330Y006107D02*
X026713Y006107D01*
X027006Y006107D02*
X029568Y006107D01*
X029568Y006179D02*
X029568Y005900D01*
X029977Y005900D01*
X029977Y005823D01*
X030054Y005823D01*
X030054Y005415D01*
X030332Y005415D01*
X030370Y005425D01*
X030405Y005445D01*
X030433Y005473D01*
X030452Y005507D01*
X030463Y005545D01*
X030463Y005823D01*
X030054Y005823D01*
X030054Y005900D01*
X030463Y005900D01*
X030463Y006179D01*
X030452Y006217D01*
X030433Y006251D01*
X030405Y006279D01*
X030370Y006299D01*
X030332Y006309D01*
X030054Y006309D01*
X030054Y005900D01*
X029977Y005900D01*
X029977Y006309D01*
X029699Y006309D01*
X029660Y006299D01*
X029626Y006279D01*
X029598Y006251D01*
X029578Y006217D01*
X029568Y006179D01*
X029576Y006206D02*
X028704Y006206D01*
X028695Y006190D02*
X028714Y006224D01*
X028725Y006263D01*
X028725Y006392D01*
X028150Y006392D01*
X028150Y006132D01*
X028594Y006132D01*
X028632Y006143D01*
X028667Y006162D01*
X028695Y006190D01*
X028725Y006304D02*
X029682Y006304D01*
X029772Y006501D02*
X028725Y006501D01*
X028703Y006600D02*
X029673Y006600D01*
X029621Y006698D02*
X028674Y006698D01*
X028688Y007092D02*
X029649Y007092D01*
X029740Y007191D02*
X028667Y007191D01*
X028628Y007152D02*
X027651Y007152D01*
X027600Y007101D01*
X027600Y007204D01*
X027651Y007152D01*
X028628Y007152D01*
X028628Y007652D02*
X027651Y007652D01*
X027600Y007601D01*
X027600Y007704D01*
X027651Y007652D01*
X028628Y007652D01*
X028659Y007683D02*
X029017Y007683D01*
X029116Y007782D02*
X028894Y007782D01*
X028992Y007880D02*
X029214Y007880D01*
X029313Y007979D02*
X029044Y007979D01*
X029044Y008077D02*
X029642Y008077D01*
X029725Y008176D02*
X029044Y008176D01*
X029070Y008274D02*
X029895Y008274D01*
X029842Y008471D02*
X029182Y008471D01*
X029182Y008570D02*
X029703Y008570D01*
X029633Y008668D02*
X029154Y008668D01*
X029091Y008767D02*
X029353Y008767D01*
X029255Y008865D02*
X028937Y008865D01*
X028732Y008865D02*
X028491Y008865D01*
X028548Y008964D02*
X029156Y008964D01*
X029058Y009062D02*
X028697Y009062D01*
X028764Y009161D02*
X028999Y009161D01*
X028999Y009259D02*
X028764Y009259D01*
X028764Y009358D02*
X028999Y009358D01*
X028999Y009456D02*
X028764Y009456D01*
X028764Y009555D02*
X028999Y009555D01*
X028999Y009653D02*
X028764Y009653D01*
X028687Y009840D02*
X028764Y009916D01*
X028764Y010457D01*
X028687Y010533D01*
X028029Y010533D01*
X027952Y010457D01*
X027952Y010386D01*
X027774Y010386D01*
X027774Y010496D01*
X027698Y010573D01*
X027117Y010573D01*
X027041Y010496D01*
X027041Y009916D01*
X027117Y009840D01*
X027698Y009840D01*
X027774Y009916D01*
X027774Y010026D01*
X027952Y010026D01*
X027952Y009916D01*
X028029Y009840D01*
X028687Y009840D01*
X028698Y009850D02*
X028999Y009850D01*
X028999Y009752D02*
X026134Y009752D01*
X026130Y009851D02*
X026206Y009927D01*
X026206Y010017D01*
X026295Y010017D01*
X026295Y009916D01*
X026371Y009840D01*
X026952Y009840D01*
X027028Y009916D01*
X027028Y010496D01*
X026952Y010573D01*
X026371Y010573D01*
X026295Y010496D01*
X026295Y010377D01*
X026206Y010377D01*
X026206Y010468D01*
X026130Y010544D01*
X025471Y010544D01*
X025395Y010468D01*
X025395Y009927D01*
X025471Y009851D01*
X026130Y009851D01*
X026206Y009949D02*
X026295Y009949D01*
X026361Y009850D02*
X025284Y009850D01*
X025284Y009752D02*
X025467Y009752D01*
X025395Y009653D02*
X025284Y009653D01*
X025284Y009555D02*
X025395Y009555D01*
X025395Y009456D02*
X025284Y009456D01*
X025284Y009358D02*
X025395Y009358D01*
X025395Y009259D02*
X025284Y009259D01*
X025284Y009161D02*
X025395Y009161D01*
X025284Y009062D02*
X025610Y009062D01*
X025610Y008964D02*
X025324Y008964D01*
X025422Y008865D02*
X025610Y008865D01*
X025610Y008668D02*
X025520Y008668D01*
X025520Y008570D02*
X025610Y008570D01*
X025610Y008471D02*
X025520Y008471D01*
X025520Y008373D02*
X025610Y008373D01*
X025610Y008274D02*
X025520Y008274D01*
X025520Y008176D02*
X025610Y008176D01*
X025990Y008274D02*
X027220Y008274D01*
X027220Y008176D02*
X026075Y008176D01*
X025990Y008373D02*
X026374Y008373D01*
X026287Y008471D02*
X025990Y008471D01*
X025990Y008570D02*
X026246Y008570D01*
X026242Y008668D02*
X025990Y008668D01*
X025990Y008767D02*
X026262Y008767D01*
X026314Y008865D02*
X025990Y008865D01*
X025990Y008964D02*
X026440Y008964D01*
X026322Y009062D02*
X025990Y009062D01*
X026206Y009161D02*
X026295Y009161D01*
X026295Y009259D02*
X026206Y009259D01*
X026206Y009358D02*
X026295Y009358D01*
X026295Y009456D02*
X026206Y009456D01*
X026206Y009555D02*
X026295Y009555D01*
X026295Y009653D02*
X026206Y009653D01*
X026661Y009380D02*
X027408Y009380D01*
X027774Y009358D02*
X027952Y009358D01*
X027952Y009456D02*
X027774Y009456D01*
X027774Y009555D02*
X027952Y009555D01*
X027952Y009653D02*
X027774Y009653D01*
X027708Y009850D02*
X028018Y009850D01*
X027952Y009949D02*
X027774Y009949D01*
X027408Y010206D02*
X028338Y010206D01*
X028358Y010187D01*
X028764Y010146D02*
X028999Y010146D01*
X028999Y010244D02*
X028764Y010244D01*
X028764Y010343D02*
X028999Y010343D01*
X028999Y010441D02*
X028764Y010441D01*
X028919Y010540D02*
X027730Y010540D01*
X027774Y010441D02*
X027952Y010441D01*
X028764Y010047D02*
X028999Y010047D01*
X028999Y009949D02*
X028764Y009949D01*
X029379Y009949D02*
X029589Y009949D01*
X029588Y009850D02*
X029379Y009850D01*
X029379Y009752D02*
X029599Y009752D01*
X029639Y009653D02*
X029379Y009653D01*
X029379Y009555D02*
X029718Y009555D01*
X029878Y009456D02*
X029379Y009456D01*
X029379Y009358D02*
X030629Y009358D01*
X030727Y009259D02*
X030172Y009259D01*
X030320Y009161D02*
X030826Y009161D01*
X030907Y009062D02*
X030395Y009062D01*
X030435Y008964D02*
X030907Y008964D01*
X030907Y008865D02*
X030443Y008865D01*
X030438Y008767D02*
X030907Y008767D01*
X030907Y008668D02*
X030398Y008668D01*
X030328Y008570D02*
X030907Y008570D01*
X030907Y008471D02*
X030189Y008471D01*
X030136Y008274D02*
X030907Y008274D01*
X030907Y008176D02*
X030305Y008176D01*
X030388Y008077D02*
X030907Y008077D01*
X030907Y007979D02*
X030429Y007979D01*
X030443Y007880D02*
X030907Y007880D01*
X030907Y007782D02*
X030443Y007782D01*
X030404Y007683D02*
X030907Y007683D01*
X030907Y007585D02*
X030343Y007585D01*
X030225Y007486D02*
X030907Y007486D01*
X030907Y007388D02*
X029259Y007388D01*
X029358Y007486D02*
X029805Y007486D01*
X029688Y007585D02*
X029456Y007585D01*
X029161Y007289D02*
X030907Y007289D01*
X030907Y007191D02*
X030290Y007191D01*
X030382Y007092D02*
X030907Y007092D01*
X030907Y006994D02*
X030423Y006994D01*
X030443Y006895D02*
X030907Y006895D01*
X030907Y006797D02*
X030443Y006797D01*
X030410Y006698D02*
X030907Y006698D01*
X030907Y006600D02*
X030358Y006600D01*
X030259Y006501D02*
X030907Y006501D01*
X030907Y006403D02*
X028150Y006403D01*
X028130Y006403D02*
X027529Y006403D01*
X027555Y006392D02*
X027555Y006263D01*
X027565Y006224D01*
X027584Y006190D01*
X027612Y006162D01*
X027647Y006143D01*
X027685Y006132D01*
X028130Y006132D01*
X028130Y006392D01*
X027555Y006392D01*
X027555Y006304D02*
X027430Y006304D01*
X027575Y006206D02*
X027128Y006206D01*
X027126Y006600D02*
X027188Y006600D01*
X027220Y006698D02*
X027003Y006698D01*
X027220Y006797D02*
X026645Y006797D01*
X026645Y006895D02*
X027220Y006895D01*
X027220Y006994D02*
X026645Y006994D01*
X026628Y007092D02*
X027220Y007092D01*
X027220Y007191D02*
X026607Y007191D01*
X026568Y007152D02*
X026270Y007152D01*
X026270Y007152D01*
X026568Y007152D01*
X026645Y007289D02*
X027220Y007289D01*
X027220Y007388D02*
X026645Y007388D01*
X026645Y007486D02*
X026661Y007486D01*
X027058Y007486D02*
X027220Y007486D01*
X027220Y007585D02*
X027146Y007585D01*
X027186Y007683D02*
X027220Y007683D01*
X027220Y007782D02*
X027188Y007782D01*
X027162Y007880D02*
X027220Y007880D01*
X027220Y007979D02*
X027097Y007979D01*
X027220Y008077D02*
X026933Y008077D01*
X026806Y008373D02*
X027220Y008373D01*
X027220Y008471D02*
X026893Y008471D01*
X026934Y008570D02*
X027220Y008570D01*
X027220Y008668D02*
X026938Y008668D01*
X026918Y008767D02*
X027255Y008767D01*
X027354Y008865D02*
X026866Y008865D01*
X026859Y008964D02*
X027452Y008964D01*
X027747Y009062D02*
X028019Y009062D01*
X027952Y009161D02*
X027774Y009161D01*
X027774Y009259D02*
X027952Y009259D01*
X028393Y008767D02*
X028578Y008767D01*
X028514Y008668D02*
X028294Y008668D01*
X028486Y008570D02*
X027600Y008570D01*
X027600Y008471D02*
X028486Y008471D01*
X028523Y008373D02*
X027600Y008373D01*
X027600Y008274D02*
X028599Y008274D01*
X028624Y008176D02*
X027600Y008176D01*
X027600Y007683D02*
X027620Y007683D01*
X027600Y007191D02*
X027612Y007191D01*
X026716Y006698D02*
X026614Y006698D01*
X025330Y006009D02*
X029568Y006009D01*
X029568Y005910D02*
X025326Y005910D01*
X025228Y005812D02*
X029568Y005812D01*
X029568Y005823D02*
X029568Y005545D01*
X029578Y005507D01*
X029598Y005473D01*
X029626Y005445D01*
X029660Y005425D01*
X029699Y005415D01*
X029977Y005415D01*
X029977Y005823D01*
X029568Y005823D01*
X029568Y005713D02*
X025129Y005713D01*
X025015Y005516D02*
X029576Y005516D01*
X029568Y005615D02*
X024891Y005615D01*
X025172Y005418D02*
X029686Y005418D01*
X029977Y005418D02*
X030054Y005418D01*
X030054Y005516D02*
X029977Y005516D01*
X029977Y005615D02*
X030054Y005615D01*
X030054Y005713D02*
X029977Y005713D01*
X029977Y005812D02*
X030054Y005812D01*
X030054Y005910D02*
X029977Y005910D01*
X029977Y006009D02*
X030054Y006009D01*
X030054Y006107D02*
X029977Y006107D01*
X029977Y006206D02*
X030054Y006206D01*
X030054Y006304D02*
X029977Y006304D01*
X030349Y006304D02*
X030907Y006304D01*
X030907Y006206D02*
X030455Y006206D01*
X030463Y006107D02*
X030907Y006107D01*
X030907Y006009D02*
X030463Y006009D01*
X030463Y005910D02*
X030907Y005910D01*
X030907Y005812D02*
X030463Y005812D01*
X030463Y005713D02*
X030907Y005713D01*
X030907Y005615D02*
X030463Y005615D01*
X030455Y005516D02*
X030907Y005516D01*
X030902Y005418D02*
X030345Y005418D01*
X030705Y005221D02*
X025345Y005221D01*
X025294Y005319D02*
X030803Y005319D01*
X031229Y004925D02*
X035030Y004925D01*
X035030Y004827D02*
X031131Y004827D01*
X031032Y004728D02*
X035030Y004728D01*
X035030Y005024D02*
X031328Y005024D01*
X031426Y005122D02*
X035030Y005122D01*
X035030Y005221D02*
X031477Y005221D01*
X031487Y005319D02*
X035030Y005319D01*
X035030Y005418D02*
X031487Y005418D01*
X031487Y005516D02*
X035030Y005516D01*
X035030Y005615D02*
X031487Y005615D01*
X031487Y005713D02*
X035030Y005713D01*
X035030Y005812D02*
X031487Y005812D01*
X031487Y005910D02*
X035030Y005910D01*
X035030Y006009D02*
X031487Y006009D01*
X031487Y006107D02*
X035030Y006107D01*
X035030Y006206D02*
X031487Y006206D01*
X031487Y006304D02*
X035030Y006304D01*
X035030Y006403D02*
X031487Y006403D01*
X031487Y006501D02*
X035030Y006501D01*
X035030Y006600D02*
X031487Y006600D01*
X031487Y006698D02*
X035030Y006698D01*
X035030Y006797D02*
X031487Y006797D01*
X031487Y006895D02*
X035030Y006895D01*
X035030Y006994D02*
X031487Y006994D01*
X031487Y007092D02*
X035030Y007092D01*
X035030Y007191D02*
X031487Y007191D01*
X031487Y007289D02*
X035030Y007289D01*
X035030Y007388D02*
X031487Y007388D01*
X031487Y007486D02*
X035030Y007486D01*
X035030Y007585D02*
X031487Y007585D01*
X031487Y007683D02*
X035030Y007683D01*
X035030Y007782D02*
X031487Y007782D01*
X031487Y007880D02*
X035030Y007880D01*
X035030Y007979D02*
X031487Y007979D01*
X031487Y008077D02*
X035030Y008077D01*
X035030Y008176D02*
X031487Y008176D01*
X031487Y008274D02*
X035030Y008274D01*
X035030Y008373D02*
X031487Y008373D01*
X031487Y008471D02*
X035030Y008471D01*
X035030Y008570D02*
X031487Y008570D01*
X031487Y008668D02*
X035030Y008668D01*
X035030Y008767D02*
X031487Y008767D01*
X031487Y008865D02*
X035030Y008865D01*
X035030Y008964D02*
X031487Y008964D01*
X031487Y009062D02*
X035030Y009062D01*
X035030Y009161D02*
X031487Y009161D01*
X031486Y009259D02*
X035030Y009259D01*
X035030Y009358D02*
X031445Y009358D01*
X031351Y009456D02*
X035030Y009456D01*
X035030Y009555D02*
X031252Y009555D01*
X031154Y009653D02*
X035030Y009653D01*
X035030Y009752D02*
X031055Y009752D01*
X030957Y009850D02*
X035030Y009850D01*
X035030Y009949D02*
X030858Y009949D01*
X030760Y010047D02*
X035030Y010047D01*
X035030Y010146D02*
X030335Y010146D01*
X030208Y010244D02*
X035030Y010244D01*
X035030Y010343D02*
X029379Y010343D01*
X029379Y010441D02*
X035030Y010441D01*
X035030Y010540D02*
X029379Y010540D01*
X029358Y010638D02*
X035030Y010638D01*
X035030Y010737D02*
X029259Y010737D01*
X029161Y010835D02*
X035030Y010835D01*
X035030Y010934D02*
X029062Y010934D01*
X029379Y010244D02*
X029823Y010244D01*
X029695Y010146D02*
X029379Y010146D01*
X029379Y010047D02*
X029630Y010047D01*
X030153Y009456D02*
X030530Y009456D01*
X029859Y009259D02*
X029398Y009259D01*
X029497Y009161D02*
X029710Y009161D01*
X029146Y008373D02*
X030907Y008373D01*
X028150Y006304D02*
X028130Y006304D01*
X028130Y006206D02*
X028150Y006206D01*
X027068Y009062D02*
X027001Y009062D01*
X027028Y009161D02*
X027041Y009161D01*
X027028Y009653D02*
X027041Y009653D01*
X027107Y009850D02*
X026962Y009850D01*
X027028Y009949D02*
X027041Y009949D01*
X027028Y010047D02*
X027041Y010047D01*
X027028Y010146D02*
X027041Y010146D01*
X027028Y010244D02*
X027041Y010244D01*
X027028Y010343D02*
X027041Y010343D01*
X027028Y010441D02*
X027041Y010441D01*
X027085Y010540D02*
X026984Y010540D01*
X026661Y010206D02*
X026652Y010197D01*
X025800Y010197D01*
X025395Y010244D02*
X025284Y010244D01*
X025284Y010146D02*
X025395Y010146D01*
X025395Y010047D02*
X025284Y010047D01*
X025284Y009949D02*
X025395Y009949D01*
X025395Y010343D02*
X025284Y010343D01*
X025305Y010441D02*
X025395Y010441D01*
X025403Y010540D02*
X025467Y010540D01*
X025065Y011131D02*
X035030Y011131D01*
X035030Y011229D02*
X025241Y011229D01*
X025561Y011328D02*
X035030Y011328D01*
X035030Y011032D02*
X024933Y011032D01*
X026134Y010540D02*
X026339Y010540D01*
X026295Y010441D02*
X026206Y010441D01*
X032460Y015192D02*
X032700Y014952D01*
X033260Y014952D01*
X032460Y015192D02*
X032460Y018352D01*
X032630Y018522D01*
X032630Y019140D01*
X033130Y019140D02*
X033130Y018662D01*
X032680Y018212D01*
X032680Y016072D01*
X032800Y015952D01*
X033260Y015952D01*
X033260Y016952D02*
X033360Y016952D01*
X033760Y017352D01*
X033760Y018612D01*
X033640Y018732D01*
X033640Y019130D01*
X033630Y019140D01*
X034130Y019140D02*
X034130Y019582D01*
X033860Y019852D01*
X034580Y019792D02*
X034630Y019722D01*
X034630Y019140D01*
X030540Y020852D02*
X030440Y020752D01*
X030540Y020852D02*
X030540Y021792D01*
X030180Y022152D01*
X027880Y022152D01*
X027710Y021982D01*
X027710Y021355D01*
X028210Y021355D02*
X028210Y021822D01*
X028320Y021932D01*
X029920Y021932D01*
X030120Y021732D01*
X030120Y021052D01*
X029740Y020672D01*
X029640Y020672D01*
X029210Y020782D02*
X029210Y021355D01*
X029710Y021355D02*
X029710Y021662D01*
X029660Y021732D01*
X028520Y021732D01*
X028460Y021672D01*
X028460Y020952D01*
X028280Y020772D01*
X027960Y020772D01*
X028420Y020432D02*
X028710Y020722D01*
X028710Y021355D01*
X029210Y020782D02*
X029100Y020672D01*
X025380Y025752D02*
X025280Y025852D01*
X024760Y025852D01*
X022420Y023212D02*
X021460Y023212D01*
X032360Y046652D02*
X032373Y046666D01*
X032373Y053752D01*
X032480Y046652D02*
X032694Y046652D01*
X032871Y046475D01*
X012560Y057152D02*
X012160Y057152D01*
X011860Y057452D01*
X011260Y056652D02*
X011460Y056452D01*
X011260Y056652D02*
X010510Y056652D01*
D45*
X011860Y057452D03*
X010860Y054552D03*
X012260Y052952D03*
X015960Y054652D03*
X016060Y056052D03*
X016460Y056452D03*
X016960Y057152D03*
X021060Y056052D03*
X021260Y056652D03*
X021860Y057152D03*
X021360Y054652D03*
X017660Y052852D03*
X025860Y054552D03*
X026160Y056052D03*
X026280Y056752D03*
X026960Y057152D03*
X028360Y054152D03*
X030800Y054512D03*
X030100Y056632D03*
X032160Y057152D03*
X033760Y055352D03*
X033760Y054152D03*
X034240Y056892D03*
X032480Y046652D03*
X027400Y029092D03*
X028520Y028132D03*
X029060Y026352D03*
X029560Y023012D03*
X029640Y020672D03*
X029100Y020672D03*
X030440Y020752D03*
X031340Y020632D03*
X032081Y020030D03*
X033120Y019932D03*
X033860Y019852D03*
X034580Y019792D03*
X034660Y022592D03*
X034460Y023752D03*
X034860Y024632D03*
X032200Y014752D03*
X029200Y014612D03*
X030055Y010976D03*
X028834Y008531D03*
X026590Y008649D03*
X024780Y008496D03*
X024780Y007512D03*
X025015Y005106D03*
X029071Y005464D03*
X029071Y006252D03*
X034622Y004992D03*
X034740Y011134D03*
X025600Y016152D03*
X025440Y014852D03*
X023820Y016292D03*
X023341Y014793D03*
X021140Y014832D03*
X020120Y015192D03*
X018677Y015500D03*
X018120Y015112D03*
X017640Y013692D03*
X016240Y012432D03*
X020560Y013732D03*
X016640Y018032D03*
X015940Y017852D03*
X015220Y019912D03*
X016840Y020792D03*
X018080Y020972D03*
X018720Y019872D03*
X019080Y021852D03*
X019820Y022072D03*
X020600Y022232D03*
X024280Y019492D03*
X024680Y020172D03*
X025580Y019072D03*
X025380Y025752D03*
X025360Y026352D03*
X019210Y026352D03*
X014110Y026352D03*
X013223Y023927D03*
X010460Y026352D03*
X009483Y023927D03*
X007056Y023732D03*
X007013Y021764D03*
X010108Y020324D03*
X010180Y019572D03*
X011026Y016948D03*
X007660Y013752D03*
X009420Y012932D03*
X007480Y011132D03*
X006780Y010132D03*
X006780Y009552D03*
X006780Y008952D03*
X006819Y004913D03*
X018140Y007612D03*
X020340Y008052D03*
X020520Y007197D03*
X020300Y005232D03*
X019733Y004874D03*
D46*
X023921Y005851D02*
X024998Y005851D01*
X025140Y005992D01*
X025140Y006672D01*
X025360Y006892D01*
X026070Y006892D01*
X026080Y006902D01*
X026080Y007402D01*
X026080Y007902D02*
X025800Y008181D01*
X025800Y009410D01*
X025094Y008925D02*
X025094Y010500D01*
X025409Y010815D01*
X028913Y010815D01*
X029189Y010539D01*
X029189Y009200D01*
X029504Y008885D01*
X029992Y008885D01*
X030015Y008862D01*
X030015Y007862D02*
X029464Y007862D01*
X029005Y007402D01*
X028140Y007402D01*
X028140Y006902D02*
X029975Y006902D01*
X030015Y006862D01*
X027410Y006552D02*
X027260Y006402D01*
X026860Y006402D01*
X026080Y006402D01*
X025330Y007232D02*
X025330Y008689D01*
X025094Y008925D01*
X026080Y007902D02*
X026710Y007902D01*
X026860Y007752D01*
X026590Y008649D02*
X026669Y008728D01*
X026669Y009358D01*
X027338Y009358D01*
X027360Y009337D01*
X027360Y009252D01*
X027610Y008852D02*
X027410Y008652D01*
X027410Y006552D01*
X025330Y007232D02*
X024450Y006351D01*
X023921Y006351D01*
X027610Y008852D02*
X028210Y008852D01*
X028358Y009001D01*
X028358Y009399D01*
X017660Y012252D02*
X017460Y012052D01*
X016260Y012052D01*
X016160Y011952D01*
X016160Y011652D01*
X016060Y011552D01*
X014660Y011552D01*
X014560Y011652D01*
X014560Y013952D01*
X014760Y014152D01*
X017360Y014152D01*
X017660Y013852D01*
X017660Y013081D01*
X017636Y013104D01*
X017600Y013125D01*
X017559Y013136D01*
X017126Y013136D01*
X017126Y012740D01*
X017006Y012740D01*
X017006Y012620D01*
X017126Y012620D01*
X017126Y012225D01*
X017559Y012225D01*
X017600Y012236D01*
X017636Y012257D01*
X017660Y012280D01*
X017660Y012252D01*
X017655Y012248D02*
X017621Y012248D01*
X017537Y012129D02*
X016046Y012129D01*
X016046Y012011D02*
X016218Y012011D01*
X016160Y011892D02*
X016046Y011892D01*
X016046Y011774D02*
X016160Y011774D01*
X016160Y011655D02*
X016015Y011655D01*
X016014Y011654D02*
X016035Y011690D01*
X016046Y011731D01*
X016046Y012755D01*
X015375Y012755D01*
X015375Y011592D01*
X015907Y011592D01*
X015948Y011603D01*
X015985Y011624D01*
X016014Y011654D01*
X016046Y012248D02*
X016511Y012248D01*
X016495Y012257D02*
X016532Y012236D01*
X016572Y012225D01*
X017006Y012225D01*
X017006Y012620D01*
X016433Y012620D01*
X016433Y012364D01*
X016444Y012323D01*
X016465Y012287D01*
X016495Y012257D01*
X016433Y012366D02*
X016046Y012366D01*
X016046Y012485D02*
X016433Y012485D01*
X016433Y012603D02*
X016046Y012603D01*
X016046Y012722D02*
X017006Y012722D01*
X017006Y012740D02*
X016433Y012740D01*
X016433Y012997D01*
X016444Y013037D01*
X016465Y013074D01*
X016495Y013104D01*
X016532Y013125D01*
X016572Y013136D01*
X017006Y013136D01*
X017006Y012740D01*
X017066Y012680D02*
X016560Y012687D01*
X016433Y012840D02*
X015375Y012840D01*
X015375Y012875D02*
X016046Y012875D01*
X016046Y013899D01*
X016035Y013940D01*
X016014Y013976D01*
X015985Y014006D01*
X015948Y014027D01*
X015907Y014038D01*
X015375Y014038D01*
X015375Y012875D01*
X015255Y012875D01*
X015255Y012755D01*
X014585Y012755D01*
X014585Y011731D01*
X014595Y011690D01*
X014617Y011654D01*
X014646Y011624D01*
X014683Y011603D01*
X014723Y011592D01*
X015255Y011592D01*
X015255Y012755D01*
X015375Y012755D01*
X015375Y012875D01*
X015375Y012959D02*
X015255Y012959D01*
X015255Y012875D02*
X015255Y014038D01*
X014723Y014038D01*
X014683Y014027D01*
X014646Y014006D01*
X014617Y013976D01*
X014595Y013940D01*
X014585Y013899D01*
X014585Y012875D01*
X015255Y012875D01*
X015255Y012840D02*
X014560Y012840D01*
X014560Y012722D02*
X014585Y012722D01*
X014585Y012603D02*
X014560Y012603D01*
X014560Y012485D02*
X014585Y012485D01*
X014585Y012366D02*
X014560Y012366D01*
X014560Y012248D02*
X014585Y012248D01*
X014585Y012129D02*
X014560Y012129D01*
X014560Y012011D02*
X014585Y012011D01*
X014585Y011892D02*
X014560Y011892D01*
X014560Y011774D02*
X014585Y011774D01*
X014560Y011655D02*
X014616Y011655D01*
X015255Y011655D02*
X015375Y011655D01*
X015375Y011774D02*
X015255Y011774D01*
X015255Y011892D02*
X015375Y011892D01*
X015375Y012011D02*
X015255Y012011D01*
X015255Y012129D02*
X015375Y012129D01*
X015375Y012248D02*
X015255Y012248D01*
X015255Y012366D02*
X015375Y012366D01*
X015375Y012485D02*
X015255Y012485D01*
X015255Y012603D02*
X015375Y012603D01*
X015375Y012722D02*
X015255Y012722D01*
X015255Y013077D02*
X015375Y013077D01*
X015375Y013196D02*
X015255Y013196D01*
X015255Y013314D02*
X015375Y013314D01*
X015375Y013433D02*
X015255Y013433D01*
X015255Y013551D02*
X015375Y013551D01*
X015375Y013670D02*
X015255Y013670D01*
X015255Y013788D02*
X015375Y013788D01*
X015375Y013907D02*
X015255Y013907D01*
X015255Y014025D02*
X015375Y014025D01*
X015951Y014025D02*
X017486Y014025D01*
X017381Y013957D02*
X017351Y013987D01*
X017315Y014008D01*
X017274Y014019D01*
X016918Y014019D01*
X016918Y013681D01*
X016801Y013681D01*
X016801Y014019D01*
X016445Y014019D01*
X016404Y014008D01*
X016368Y013987D01*
X016338Y013957D01*
X016317Y013920D01*
X016306Y013880D01*
X016306Y013681D01*
X016801Y013681D01*
X016801Y013564D01*
X016306Y013564D01*
X016306Y013365D01*
X016317Y013324D01*
X016338Y013288D01*
X016368Y013258D01*
X016404Y013237D01*
X016445Y013226D01*
X016801Y013226D01*
X016801Y013564D01*
X016918Y013564D01*
X016918Y013681D01*
X017413Y013681D01*
X017413Y013880D01*
X017402Y013920D01*
X017381Y013957D01*
X017406Y013907D02*
X017605Y013907D01*
X017660Y013788D02*
X017413Y013788D01*
X017413Y013564D02*
X016918Y013564D01*
X016918Y013226D01*
X017274Y013226D01*
X017315Y013237D01*
X017351Y013258D01*
X017381Y013288D01*
X017402Y013324D01*
X017413Y013365D01*
X017413Y013564D01*
X017413Y013551D02*
X017660Y013551D01*
X017660Y013433D02*
X017413Y013433D01*
X017397Y013314D02*
X017660Y013314D01*
X017660Y013196D02*
X016046Y013196D01*
X016046Y013314D02*
X016323Y013314D01*
X016260Y013252D02*
X016260Y013152D01*
X016469Y013077D02*
X016046Y013077D01*
X016046Y012959D02*
X016433Y012959D01*
X016306Y013433D02*
X016046Y013433D01*
X016046Y013551D02*
X016306Y013551D01*
X016306Y013788D02*
X016046Y013788D01*
X016046Y013670D02*
X016801Y013670D01*
X016918Y013670D02*
X017660Y013670D01*
X017368Y014144D02*
X014751Y014144D01*
X014680Y014025D02*
X014633Y014025D01*
X014587Y013907D02*
X014560Y013907D01*
X014560Y013788D02*
X014585Y013788D01*
X014585Y013670D02*
X014560Y013670D01*
X014560Y013551D02*
X014585Y013551D01*
X014585Y013433D02*
X014560Y013433D01*
X014560Y013314D02*
X014585Y013314D01*
X014585Y013196D02*
X014560Y013196D01*
X014560Y013077D02*
X014585Y013077D01*
X014585Y012959D02*
X014560Y012959D01*
X016044Y013907D02*
X016313Y013907D01*
X016801Y013907D02*
X016918Y013907D01*
X016918Y013788D02*
X016801Y013788D01*
X016801Y013551D02*
X016918Y013551D01*
X016918Y013433D02*
X016801Y013433D01*
X016801Y013314D02*
X016918Y013314D01*
X017006Y013077D02*
X017126Y013077D01*
X017126Y012959D02*
X017006Y012959D01*
X017006Y012840D02*
X017126Y012840D01*
X017126Y012603D02*
X017006Y012603D01*
X017006Y012485D02*
X017126Y012485D01*
X017126Y012366D02*
X017006Y012366D01*
X017006Y012248D02*
X017126Y012248D01*
X012160Y012248D02*
X012149Y012248D01*
X012149Y012366D02*
X012160Y012366D01*
X012149Y012485D02*
X012160Y012485D01*
X012149Y012603D02*
X012160Y012603D01*
X012149Y012722D02*
X012160Y012722D01*
X012149Y012755D02*
X012149Y011731D01*
X012138Y011690D01*
X012117Y011654D01*
X012087Y011624D01*
X012050Y011603D01*
X012010Y011592D01*
X011478Y011592D01*
X011478Y012755D01*
X011478Y012875D01*
X012149Y012875D01*
X012149Y013899D01*
X012138Y013940D01*
X012117Y013976D01*
X012087Y014006D01*
X012050Y014027D01*
X012010Y014038D01*
X011478Y014038D01*
X011478Y012875D01*
X011358Y012875D01*
X011358Y014038D01*
X010826Y014038D01*
X010785Y014027D01*
X010749Y014006D01*
X010719Y013976D01*
X010698Y013940D01*
X010687Y013899D01*
X010687Y012875D01*
X011358Y012875D01*
X011358Y012755D01*
X011478Y012755D01*
X012149Y012755D01*
X012160Y012840D02*
X011478Y012840D01*
X011478Y012722D02*
X011358Y012722D01*
X011358Y012755D02*
X011358Y011592D01*
X010826Y011592D01*
X010785Y011603D01*
X010749Y011624D01*
X010719Y011654D01*
X010698Y011690D01*
X010687Y011731D01*
X010687Y012755D01*
X011358Y012755D01*
X011358Y012840D02*
X010360Y012840D01*
X010360Y012722D02*
X010687Y012722D01*
X010687Y012603D02*
X010360Y012603D01*
X010360Y012485D02*
X010687Y012485D01*
X010687Y012366D02*
X010274Y012366D01*
X010360Y012452D02*
X010360Y014456D01*
X010495Y014456D01*
X010495Y014834D01*
X010533Y014834D01*
X010533Y014871D01*
X010831Y014871D01*
X010831Y015110D01*
X010820Y015150D01*
X010819Y015152D01*
X012160Y015152D01*
X012160Y008752D01*
X011860Y008552D01*
X009760Y008552D01*
X009560Y008752D01*
X009560Y011205D01*
X009684Y011205D01*
X009825Y011205D01*
X009866Y011216D01*
X009902Y011237D01*
X009932Y011267D01*
X009953Y011304D01*
X009964Y011344D01*
X009964Y011800D01*
X009684Y011800D01*
X009684Y011205D01*
X009684Y011800D01*
X009684Y011800D01*
X009684Y011800D01*
X009964Y011800D01*
X009964Y012252D01*
X010160Y012252D01*
X010360Y012452D01*
X010687Y012248D02*
X009964Y012248D01*
X009964Y012129D02*
X010687Y012129D01*
X010687Y012011D02*
X009964Y012011D01*
X009964Y011892D02*
X010687Y011892D01*
X010687Y011774D02*
X009964Y011774D01*
X009964Y011655D02*
X010718Y011655D01*
X011358Y011655D02*
X011478Y011655D01*
X011478Y011774D02*
X011358Y011774D01*
X011358Y011892D02*
X011478Y011892D01*
X011478Y012011D02*
X011358Y012011D01*
X011358Y012129D02*
X011478Y012129D01*
X011478Y012248D02*
X011358Y012248D01*
X011358Y012366D02*
X011478Y012366D01*
X011478Y012485D02*
X011358Y012485D01*
X011358Y012603D02*
X011478Y012603D01*
X011478Y012959D02*
X011358Y012959D01*
X011358Y013077D02*
X011478Y013077D01*
X011478Y013196D02*
X011358Y013196D01*
X011358Y013314D02*
X011478Y013314D01*
X011478Y013433D02*
X011358Y013433D01*
X011358Y013551D02*
X011478Y013551D01*
X011478Y013670D02*
X011358Y013670D01*
X011358Y013788D02*
X011478Y013788D01*
X011478Y013907D02*
X011358Y013907D01*
X011358Y014025D02*
X011478Y014025D01*
X012053Y014025D02*
X012160Y014025D01*
X012147Y013907D02*
X012160Y013907D01*
X012149Y013788D02*
X012160Y013788D01*
X012149Y013670D02*
X012160Y013670D01*
X012149Y013551D02*
X012160Y013551D01*
X012149Y013433D02*
X012160Y013433D01*
X012149Y013314D02*
X012160Y013314D01*
X012149Y013196D02*
X012160Y013196D01*
X012149Y013077D02*
X012160Y013077D01*
X012149Y012959D02*
X012160Y012959D01*
X012149Y012129D02*
X012160Y012129D01*
X012149Y012011D02*
X012160Y012011D01*
X012149Y011892D02*
X012160Y011892D01*
X012149Y011774D02*
X012160Y011774D01*
X012160Y011655D02*
X012118Y011655D01*
X012160Y011537D02*
X009964Y011537D01*
X009964Y011418D02*
X012160Y011418D01*
X012160Y011300D02*
X009951Y011300D01*
X009684Y011300D02*
X009684Y011300D01*
X009684Y011418D02*
X009684Y011418D01*
X009684Y011537D02*
X009684Y011537D01*
X009684Y011655D02*
X009684Y011655D01*
X009684Y011774D02*
X009684Y011774D01*
X009560Y011181D02*
X012160Y011181D01*
X012160Y011063D02*
X009560Y011063D01*
X009560Y010944D02*
X012160Y010944D01*
X012160Y010826D02*
X009560Y010826D01*
X009560Y010707D02*
X012160Y010707D01*
X012160Y010589D02*
X009560Y010589D01*
X009560Y010470D02*
X012160Y010470D01*
X012160Y010352D02*
X011370Y010352D01*
X011378Y010344D02*
X011348Y010374D01*
X011311Y010395D01*
X011271Y010406D01*
X010758Y010406D01*
X010758Y009558D01*
X010638Y009558D01*
X010638Y009438D01*
X009987Y009438D01*
X009987Y008729D01*
X009998Y008688D01*
X010019Y008652D01*
X010049Y008622D01*
X010086Y008601D01*
X010126Y008590D01*
X010638Y008590D01*
X010638Y009438D01*
X010758Y009438D01*
X010758Y008590D01*
X011271Y008590D01*
X011311Y008601D01*
X011348Y008622D01*
X011378Y008652D01*
X011399Y008688D01*
X011410Y008729D01*
X011410Y009438D01*
X010758Y009438D01*
X010758Y009558D01*
X011410Y009558D01*
X011410Y010267D01*
X011399Y010308D01*
X011378Y010344D01*
X011410Y010233D02*
X012160Y010233D01*
X012160Y010115D02*
X011410Y010115D01*
X011410Y009996D02*
X012160Y009996D01*
X012160Y009878D02*
X011410Y009878D01*
X011410Y009759D02*
X012160Y009759D01*
X012160Y009641D02*
X011410Y009641D01*
X011410Y009404D02*
X012160Y009404D01*
X012160Y009522D02*
X010758Y009522D01*
X010758Y009404D02*
X010638Y009404D01*
X010638Y009522D02*
X009560Y009522D01*
X009560Y009404D02*
X009987Y009404D01*
X009987Y009285D02*
X009560Y009285D01*
X009560Y009167D02*
X009987Y009167D01*
X009987Y009048D02*
X009560Y009048D01*
X009560Y008930D02*
X009987Y008930D01*
X009987Y008811D02*
X009560Y008811D01*
X009619Y008693D02*
X009997Y008693D01*
X009737Y008574D02*
X011893Y008574D01*
X012070Y008693D02*
X011400Y008693D01*
X011410Y008811D02*
X012160Y008811D01*
X012160Y008930D02*
X011410Y008930D01*
X011410Y009048D02*
X012160Y009048D01*
X012160Y009167D02*
X011410Y009167D01*
X011410Y009285D02*
X012160Y009285D01*
X010758Y009285D02*
X010638Y009285D01*
X010638Y009167D02*
X010758Y009167D01*
X010758Y009048D02*
X010638Y009048D01*
X010638Y008930D02*
X010758Y008930D01*
X010758Y008811D02*
X010638Y008811D01*
X010638Y008693D02*
X010758Y008693D01*
X010638Y009558D02*
X009987Y009558D01*
X009987Y010267D01*
X009998Y010308D01*
X010019Y010344D01*
X010049Y010374D01*
X010086Y010395D01*
X010126Y010406D01*
X010638Y010406D01*
X010638Y009558D01*
X010638Y009641D02*
X010758Y009641D01*
X010758Y009759D02*
X010638Y009759D01*
X010638Y009878D02*
X010758Y009878D01*
X010758Y009996D02*
X010638Y009996D01*
X010638Y010115D02*
X010758Y010115D01*
X010758Y010233D02*
X010638Y010233D01*
X010638Y010352D02*
X010758Y010352D01*
X010027Y010352D02*
X009560Y010352D01*
X009560Y010233D02*
X009987Y010233D01*
X009987Y010115D02*
X009560Y010115D01*
X009560Y009996D02*
X009987Y009996D01*
X009987Y009878D02*
X009560Y009878D01*
X009560Y009759D02*
X009987Y009759D01*
X009987Y009641D02*
X009560Y009641D01*
X010360Y012959D02*
X010687Y012959D01*
X010687Y013077D02*
X010360Y013077D01*
X010360Y013196D02*
X010687Y013196D01*
X010687Y013314D02*
X010360Y013314D01*
X010360Y013433D02*
X010687Y013433D01*
X010687Y013551D02*
X010360Y013551D01*
X010360Y013670D02*
X010687Y013670D01*
X010687Y013788D02*
X010360Y013788D01*
X010360Y013907D02*
X010689Y013907D01*
X010782Y014025D02*
X010360Y014025D01*
X010360Y014144D02*
X012160Y014144D01*
X012160Y014262D02*
X010360Y014262D01*
X010360Y014381D02*
X012160Y014381D01*
X012160Y014499D02*
X010781Y014499D01*
X010770Y014488D02*
X010799Y014518D01*
X010820Y014554D01*
X010831Y014595D01*
X010831Y014834D01*
X010533Y014834D01*
X010533Y014456D01*
X010692Y014456D01*
X010733Y014467D01*
X010770Y014488D01*
X010831Y014618D02*
X012160Y014618D01*
X012160Y014736D02*
X010831Y014736D01*
X010831Y014973D02*
X012160Y014973D01*
X012160Y014855D02*
X010533Y014855D01*
X010533Y014736D02*
X010495Y014736D01*
X010495Y014618D02*
X010533Y014618D01*
X010533Y014499D02*
X010495Y014499D01*
X010831Y015092D02*
X012160Y015092D01*
X009805Y014853D02*
X009785Y014855D01*
X009765Y014854D01*
X009745Y014849D01*
X009727Y014841D01*
X009710Y014830D01*
X009695Y014816D01*
X009683Y014800D01*
X009684Y014800D02*
X009684Y013860D01*
X008184Y013860D02*
X007767Y013860D01*
X007660Y013752D01*
X007760Y023852D02*
X007860Y023952D01*
X007860Y025352D01*
X007460Y025352D01*
X007360Y025452D01*
X007360Y026752D01*
X007460Y026852D01*
X007860Y026852D01*
X007860Y026352D02*
X008260Y026352D01*
X008360Y026452D01*
X008460Y026552D01*
X008460Y028852D01*
X008160Y029152D01*
X007560Y029152D01*
X009260Y028852D02*
X009402Y028709D01*
X009402Y028688D01*
X011260Y027502D02*
X013010Y027502D01*
X013110Y027502D01*
X013310Y027302D01*
X013310Y026552D01*
X013110Y026352D01*
X012710Y026352D01*
X012710Y025852D02*
X013110Y025852D01*
X013310Y025652D01*
X013310Y024952D01*
X013410Y024852D01*
X015810Y024852D01*
X016260Y025452D01*
X017310Y025452D02*
X017310Y026752D01*
X017410Y026852D01*
X017810Y026852D01*
X017810Y026352D02*
X018310Y026352D01*
X018410Y026452D01*
X018410Y027752D01*
X018310Y027852D01*
X018260Y027852D01*
X016360Y027852D01*
X016260Y027752D01*
X014760Y026352D02*
X014110Y026352D01*
X012710Y026852D02*
X012310Y026852D01*
X012210Y026752D01*
X012210Y025452D01*
X012310Y025352D01*
X012710Y025352D01*
X012710Y024052D01*
X012460Y023852D01*
X011160Y024952D02*
X011360Y025352D01*
X011260Y025452D01*
X011160Y024952D02*
X010860Y024652D01*
X008560Y024652D01*
X008460Y024752D01*
X008460Y025652D01*
X008260Y025852D01*
X007860Y025852D01*
X017310Y025452D02*
X017410Y025352D01*
X017810Y025352D01*
X017810Y025852D02*
X018210Y025852D01*
X018410Y025652D01*
X018410Y024902D01*
X018660Y024752D01*
X020810Y024752D01*
X021260Y025452D01*
X022210Y025452D02*
X022310Y025352D01*
X022710Y025352D01*
X022710Y025852D02*
X023210Y025852D01*
X023410Y025652D01*
X023410Y025052D01*
X023610Y024852D01*
X025810Y024852D01*
X026260Y025452D01*
X026260Y025852D02*
X026460Y026052D01*
X026110Y027152D01*
X026510Y027302D01*
X028210Y027302D01*
X028460Y027102D01*
X028460Y026502D01*
X028260Y026352D01*
X027960Y026352D01*
X027960Y025852D02*
X028560Y025852D01*
X028760Y025652D01*
X028760Y025052D01*
X028960Y024852D01*
X030760Y024852D01*
X031260Y025452D01*
X030010Y025852D02*
X029860Y025852D01*
X030010Y026352D02*
X029060Y026352D01*
X027960Y026852D02*
X027560Y026852D01*
X027360Y026652D01*
X027360Y025552D01*
X027560Y025352D01*
X027960Y025352D01*
X025360Y026352D02*
X024660Y026352D01*
X024760Y026352D02*
X025360Y026352D01*
X023410Y026552D02*
X023410Y027152D01*
X023210Y027352D01*
X021260Y027352D01*
X022210Y026752D02*
X022210Y025452D01*
X022710Y026352D02*
X023210Y026352D01*
X023410Y026552D01*
X022710Y026852D02*
X022310Y026852D01*
X022210Y026752D01*
X019860Y026352D02*
X019210Y026352D01*
X022560Y054752D02*
X022560Y055652D01*
X022060Y055652D01*
X021860Y055852D01*
X021860Y057152D01*
X022560Y056652D02*
X023060Y056652D01*
X023260Y056852D01*
X023260Y057552D01*
X023060Y057752D01*
X019460Y057752D01*
X019260Y057552D01*
X019260Y056452D01*
X018960Y056152D01*
X017560Y056152D01*
X017560Y055652D02*
X017060Y055652D01*
X016960Y055752D01*
X016960Y057152D01*
X017560Y056652D02*
X018160Y056652D01*
X018260Y056752D01*
X018260Y057652D01*
X018060Y057852D01*
X014460Y057852D01*
X014260Y057652D01*
X014260Y056452D01*
X014260Y056252D02*
X014160Y056152D01*
X012560Y056152D01*
X012560Y055652D02*
X012060Y055652D01*
X011860Y055852D01*
X011860Y057452D01*
X012560Y056652D02*
X013160Y056652D01*
X013260Y056752D01*
X013260Y057652D01*
X013060Y057852D01*
X009460Y057852D01*
X009260Y057652D01*
X009260Y056452D01*
X010510Y056152D02*
X010960Y056152D01*
X011060Y056052D01*
X012560Y055652D02*
X012960Y055252D01*
X012960Y055152D01*
X015510Y056152D02*
X015960Y056152D01*
X016060Y056052D01*
X017560Y055652D02*
X018160Y055652D01*
X018260Y055552D01*
X018260Y055452D01*
X020510Y056152D02*
X020860Y056152D01*
X020960Y056052D01*
X021060Y056052D01*
X022560Y056152D02*
X024260Y056152D01*
X024260Y056452D02*
X024260Y057452D01*
X024460Y057652D01*
X028160Y057652D01*
X028360Y057452D01*
X028360Y056852D01*
X028160Y056652D01*
X027660Y056652D01*
X027660Y056152D02*
X029160Y056152D01*
X029260Y056252D01*
X029260Y056452D02*
X029260Y057452D01*
X029460Y057652D01*
X033160Y057652D01*
X033360Y057452D01*
X033360Y056752D01*
X033260Y056652D01*
X032760Y056652D01*
X032160Y057152D02*
X032160Y055852D01*
X032360Y055652D01*
X032760Y055652D01*
X032760Y055052D01*
X033040Y054772D01*
X027660Y055652D02*
X027560Y055552D01*
X027560Y054552D01*
X027660Y055652D02*
X027160Y055652D01*
X026960Y055852D01*
X026960Y057152D01*
X026060Y056152D02*
X026160Y056052D01*
X026060Y056152D02*
X025610Y056152D01*
D47*
X006520Y024153D02*
X006520Y004712D01*
X020860Y004712D01*
X020860Y004992D01*
X020594Y004992D01*
X020514Y004912D01*
X020375Y004854D01*
X020224Y004854D01*
X020085Y004912D01*
X019979Y005018D01*
X019921Y005157D01*
X019921Y005308D01*
X019979Y005447D01*
X020085Y005553D01*
X020224Y005610D01*
X020375Y005610D01*
X020514Y005553D01*
X020594Y005472D01*
X020860Y005472D01*
X020860Y005622D01*
X020273Y005622D01*
X020150Y005745D01*
X019242Y006653D01*
X019242Y006150D01*
X019270Y006084D01*
X019270Y005821D01*
X019242Y005755D01*
X019242Y005247D01*
X019200Y005145D01*
X019121Y005067D01*
X019019Y005025D01*
X018200Y005025D01*
X018098Y005067D01*
X018019Y005145D01*
X017977Y005247D01*
X017977Y005301D01*
X017738Y005301D01*
X017738Y005145D01*
X017644Y005051D01*
X015842Y005051D01*
X015748Y005145D01*
X015748Y006778D01*
X015763Y006792D01*
X015420Y006792D01*
X015420Y005065D01*
X015296Y004942D01*
X015196Y004842D01*
X013359Y004842D01*
X013326Y004826D01*
X013275Y004842D01*
X013223Y004842D01*
X013196Y004869D01*
X013161Y004881D01*
X013137Y004928D01*
X013100Y004965D01*
X013100Y005003D01*
X013037Y005128D01*
X013000Y005165D01*
X013000Y005203D01*
X012983Y005236D01*
X013000Y005286D01*
X013000Y006729D01*
X012853Y006912D01*
X012800Y006965D01*
X012800Y006973D01*
X012634Y006973D01*
X012626Y006970D01*
X012483Y006970D01*
X012475Y006973D01*
X012272Y006973D01*
X012264Y006981D01*
X012195Y006912D01*
X011512Y006912D01*
X011418Y007006D01*
X011418Y007690D01*
X011512Y007784D01*
X012195Y007784D01*
X012271Y007708D01*
X012608Y007708D01*
X012660Y007686D01*
X012729Y007686D01*
X012550Y007865D01*
X012550Y008689D01*
X012673Y008812D01*
X012384Y008812D01*
X012380Y008819D02*
X012380Y015243D01*
X012251Y015372D01*
X010846Y015372D01*
X010851Y015392D01*
X010851Y015652D01*
X010514Y015652D01*
X010514Y015652D01*
X010176Y015652D01*
X010176Y015392D01*
X010189Y015347D01*
X010208Y015312D01*
X010140Y015243D01*
X010140Y012543D01*
X010068Y012472D01*
X009568Y012472D01*
X009468Y012372D01*
X009431Y012335D01*
X009370Y012395D01*
X008998Y012395D01*
X008948Y012346D01*
X008914Y012379D01*
X008873Y012403D01*
X008828Y012415D01*
X008684Y012415D01*
X008684Y011800D01*
X008684Y011185D01*
X008824Y011185D01*
X008824Y007356D01*
X008879Y007224D01*
X008994Y007108D01*
X008994Y006850D01*
X009088Y006757D01*
X009395Y006757D01*
X009395Y006580D01*
X009379Y006563D01*
X009379Y005879D01*
X009472Y005786D01*
X010038Y005786D01*
X010132Y005879D01*
X010132Y006563D01*
X010115Y006580D01*
X010115Y006912D01*
X010699Y006912D01*
X010793Y007006D01*
X010793Y007690D01*
X010699Y007784D01*
X010016Y007784D01*
X009940Y007708D01*
X009905Y007708D01*
X009905Y007928D01*
X009811Y008021D01*
X009544Y008021D01*
X009544Y008457D01*
X009668Y008332D01*
X011838Y008332D01*
X011906Y008319D01*
X011926Y008332D01*
X011951Y008332D01*
X012000Y008381D01*
X012226Y008532D01*
X012251Y008532D01*
X012300Y008581D01*
X012357Y008620D01*
X012362Y008644D01*
X012380Y008661D01*
X012380Y008731D01*
X012393Y008799D01*
X012380Y008819D01*
X012380Y008971D02*
X012544Y008971D01*
X012500Y009015D02*
X012623Y008892D01*
X012673Y008842D01*
X012703Y008842D01*
X012673Y008812D01*
X012550Y008654D02*
X012372Y008654D01*
X012550Y008495D02*
X012171Y008495D01*
X011955Y008337D02*
X012550Y008337D01*
X012550Y008178D02*
X009544Y008178D01*
X009544Y008337D02*
X009664Y008337D01*
X009813Y008020D02*
X012550Y008020D01*
X012553Y007861D02*
X009905Y007861D01*
X010115Y006910D02*
X012854Y006910D01*
X012981Y006752D02*
X010115Y006752D01*
X010115Y006593D02*
X013000Y006593D01*
X013000Y006435D02*
X010132Y006435D01*
X010132Y006276D02*
X013000Y006276D01*
X013000Y006118D02*
X010132Y006118D01*
X010132Y005959D02*
X013000Y005959D01*
X013000Y005801D02*
X010053Y005801D01*
X009457Y005801D02*
X009266Y005801D01*
X009251Y005786D02*
X009344Y005879D01*
X009344Y006563D01*
X009251Y006657D01*
X008685Y006657D01*
X008591Y006563D01*
X008591Y006431D01*
X008371Y006431D01*
X008371Y006524D01*
X008277Y006617D01*
X007672Y006617D01*
X007579Y006524D01*
X007579Y005919D01*
X007672Y005825D01*
X008277Y005825D01*
X008371Y005919D01*
X008371Y006011D01*
X008591Y006011D01*
X008591Y005879D01*
X008685Y005786D01*
X009251Y005786D01*
X009344Y005959D02*
X009379Y005959D01*
X009379Y006118D02*
X009344Y006118D01*
X009344Y006276D02*
X009379Y006276D01*
X009379Y006435D02*
X009344Y006435D01*
X009314Y006593D02*
X009395Y006593D01*
X009395Y006752D02*
X008009Y006752D01*
X008003Y006749D02*
X008044Y006772D01*
X008078Y006806D01*
X008102Y006847D01*
X008114Y006893D01*
X008114Y007321D01*
X007706Y007321D01*
X007706Y006737D01*
X007958Y006737D01*
X008003Y006749D01*
X008114Y006910D02*
X008994Y006910D01*
X008994Y007069D02*
X008114Y007069D01*
X008114Y007227D02*
X008877Y007227D01*
X008824Y007386D02*
X007706Y007386D01*
X007706Y007321D02*
X007706Y007457D01*
X007571Y007457D01*
X007571Y008041D01*
X007320Y008041D01*
X007274Y008029D01*
X007233Y008005D01*
X007199Y007972D01*
X007176Y007931D01*
X007163Y007885D01*
X007163Y007457D01*
X007571Y007457D01*
X007571Y007321D01*
X007706Y007321D01*
X007706Y007227D02*
X007571Y007227D01*
X007571Y007321D02*
X007571Y006737D01*
X007320Y006737D01*
X007274Y006749D01*
X007233Y006772D01*
X007199Y006806D01*
X007176Y006847D01*
X007163Y006893D01*
X007163Y007321D01*
X007571Y007321D01*
X007571Y007386D02*
X006520Y007386D01*
X006520Y007544D02*
X007163Y007544D01*
X007163Y007703D02*
X006520Y007703D01*
X006520Y007861D02*
X007163Y007861D01*
X007258Y008020D02*
X006520Y008020D01*
X006520Y008178D02*
X008824Y008178D01*
X008824Y008020D02*
X008019Y008020D01*
X008003Y008029D02*
X007958Y008041D01*
X007706Y008041D01*
X007706Y007457D01*
X008114Y007457D01*
X008114Y007885D01*
X008102Y007931D01*
X008078Y007972D01*
X008044Y008005D01*
X008003Y008029D01*
X008114Y007861D02*
X008824Y007861D01*
X008824Y007703D02*
X008114Y007703D01*
X008114Y007544D02*
X008824Y007544D01*
X008824Y008337D02*
X006520Y008337D01*
X006520Y008495D02*
X008824Y008495D01*
X008824Y008654D02*
X008489Y008654D01*
X008480Y008639D02*
X008504Y008681D01*
X008516Y008726D01*
X008516Y009418D01*
X007865Y009418D01*
X007865Y008570D01*
X008360Y008570D01*
X008406Y008582D01*
X008447Y008606D01*
X008480Y008639D01*
X008516Y008812D02*
X008824Y008812D01*
X008824Y008971D02*
X008516Y008971D01*
X008516Y009129D02*
X008824Y009129D01*
X008824Y009288D02*
X008516Y009288D01*
X008516Y009578D02*
X007865Y009578D01*
X007705Y009578D01*
X007705Y009418D01*
X007054Y009418D01*
X007054Y008726D01*
X007066Y008681D01*
X007090Y008639D01*
X007123Y008606D01*
X007164Y008582D01*
X007210Y008570D01*
X007705Y008570D01*
X007705Y009418D01*
X007865Y009418D01*
X007865Y009578D01*
X007865Y010426D01*
X008360Y010426D01*
X008406Y010414D01*
X008447Y010390D01*
X008480Y010357D01*
X008504Y010316D01*
X008516Y010270D01*
X008516Y009578D01*
X008516Y009605D02*
X008824Y009605D01*
X008824Y009763D02*
X008516Y009763D01*
X008516Y009922D02*
X008824Y009922D01*
X008824Y010080D02*
X008516Y010080D01*
X008516Y010239D02*
X008824Y010239D01*
X008824Y010397D02*
X008434Y010397D01*
X008824Y010556D02*
X006520Y010556D01*
X006520Y010714D02*
X008824Y010714D01*
X008824Y010873D02*
X007755Y010873D01*
X007800Y010918D02*
X007694Y010812D01*
X007555Y010754D01*
X007404Y010754D01*
X007265Y010812D01*
X007159Y010918D01*
X007101Y011057D01*
X007101Y011208D01*
X007130Y011275D01*
X007130Y011482D01*
X007018Y011482D01*
X006924Y011576D01*
X006924Y012141D01*
X006520Y012141D01*
X006520Y012299D02*
X006959Y012299D01*
X006973Y012285D02*
X007014Y012262D01*
X007060Y012250D01*
X007331Y012250D01*
X007331Y012618D01*
X006904Y012618D01*
X006904Y012406D01*
X006916Y012360D01*
X006940Y012319D01*
X006973Y012285D01*
X007018Y012235D02*
X006924Y012141D01*
X007018Y012235D02*
X007701Y012235D01*
X007795Y012141D01*
X007904Y012141D01*
X007904Y012040D02*
X007795Y012040D01*
X007795Y012141D01*
X007904Y012040D02*
X007904Y012302D01*
X007998Y012395D01*
X008370Y012395D01*
X008420Y012346D01*
X008420Y012346D01*
X008453Y012379D01*
X008494Y012403D01*
X008540Y012415D01*
X008684Y012415D01*
X008684Y011800D01*
X008684Y011800D01*
X008684Y011185D01*
X008540Y011185D01*
X008494Y011198D01*
X008453Y011221D01*
X008420Y011255D01*
X008420Y011255D01*
X008370Y011205D01*
X007998Y011205D01*
X007904Y011299D01*
X007904Y011560D01*
X007780Y011560D01*
X007701Y011482D01*
X007623Y011482D01*
X007694Y011453D01*
X007800Y011347D01*
X007858Y011208D01*
X007858Y011057D01*
X007800Y010918D01*
X007847Y011031D02*
X008824Y011031D01*
X008684Y011190D02*
X008684Y011190D01*
X008684Y011348D02*
X008684Y011348D01*
X008684Y011507D02*
X008684Y011507D01*
X008684Y011665D02*
X008684Y011665D01*
X008684Y011800D02*
X008684Y011800D01*
X008684Y011824D02*
X008684Y011824D01*
X008684Y011982D02*
X008684Y011982D01*
X008684Y012141D02*
X008684Y012141D01*
X008684Y012299D02*
X008684Y012299D01*
X008948Y012346D02*
X008948Y012346D01*
X009205Y012612D02*
X009344Y012554D01*
X009495Y012554D01*
X009634Y012612D01*
X009740Y012718D01*
X009798Y012857D01*
X009798Y013008D01*
X009740Y013147D01*
X009634Y013253D01*
X009604Y013265D01*
X009870Y013265D01*
X009964Y013359D01*
X009964Y014362D01*
X009904Y014422D01*
X009904Y014456D01*
X010029Y014456D01*
X010123Y014550D01*
X010123Y015155D01*
X010029Y015249D01*
X009581Y015249D01*
X009488Y015155D01*
X009488Y014915D01*
X009464Y014891D01*
X009464Y014862D01*
X009449Y014837D01*
X009464Y014774D01*
X009464Y014422D01*
X009434Y014392D01*
X009424Y014402D01*
X009424Y015357D01*
X009479Y015412D01*
X009488Y015412D01*
X009488Y015350D01*
X009581Y015256D01*
X010029Y015256D01*
X010123Y015350D01*
X010123Y015955D01*
X010029Y016049D01*
X009581Y016049D01*
X009488Y015955D01*
X009488Y015892D01*
X009332Y015892D01*
X009244Y015856D01*
X008980Y015593D01*
X008944Y015505D01*
X008944Y014410D01*
X008914Y014439D01*
X008873Y014463D01*
X008828Y014475D01*
X008684Y014475D01*
X008684Y013860D01*
X008684Y013245D01*
X008828Y013245D01*
X008873Y013258D01*
X008914Y013281D01*
X008944Y013311D01*
X008944Y013120D01*
X008980Y013032D01*
X009041Y012971D01*
X009041Y012857D01*
X009099Y012718D01*
X009205Y012612D01*
X009201Y012616D02*
X007815Y012616D01*
X007815Y012618D02*
X007815Y012406D01*
X007803Y012360D01*
X007779Y012319D01*
X007746Y012285D01*
X007705Y012262D01*
X007659Y012250D01*
X007388Y012250D01*
X007388Y012618D01*
X007388Y012674D01*
X007815Y012674D01*
X007815Y012886D01*
X007803Y012932D01*
X007779Y012973D01*
X007746Y013007D01*
X007705Y013030D01*
X007659Y013043D01*
X007388Y013043D01*
X007388Y012674D01*
X007331Y012674D01*
X007331Y012618D01*
X007388Y012618D01*
X007815Y012618D01*
X007815Y012775D02*
X009075Y012775D01*
X009041Y012933D02*
X007802Y012933D01*
X007998Y013265D02*
X008370Y013265D01*
X008420Y013315D01*
X008420Y013315D01*
X008453Y013281D01*
X008494Y013258D01*
X008540Y013245D01*
X008684Y013245D01*
X008684Y013860D01*
X008684Y013860D01*
X008684Y013860D01*
X008684Y014475D01*
X008540Y014475D01*
X008494Y014463D01*
X008453Y014439D01*
X008420Y014406D01*
X008420Y014406D01*
X008370Y014455D01*
X007998Y014455D01*
X007904Y014362D01*
X007904Y014080D01*
X007856Y014080D01*
X007735Y014130D01*
X007584Y014130D01*
X007445Y014073D01*
X007339Y013967D01*
X007281Y013828D01*
X007281Y013677D01*
X007339Y013538D01*
X007445Y013432D01*
X007584Y013374D01*
X007735Y013374D01*
X007874Y013432D01*
X007904Y013462D01*
X007904Y013359D01*
X007998Y013265D01*
X007904Y013409D02*
X007818Y013409D01*
X007501Y013409D02*
X006520Y013409D01*
X006520Y013567D02*
X007327Y013567D01*
X007281Y013726D02*
X006520Y013726D01*
X006520Y013884D02*
X007305Y013884D01*
X007415Y014043D02*
X006520Y014043D01*
X006520Y014201D02*
X007904Y014201D01*
X007904Y014360D02*
X006520Y014360D01*
X006520Y014518D02*
X008944Y014518D01*
X008944Y014677D02*
X006520Y014677D01*
X006520Y014835D02*
X006882Y014835D01*
X006891Y014827D02*
X007067Y014754D01*
X007898Y014754D01*
X008074Y014827D01*
X008210Y014962D01*
X008218Y014982D01*
X008416Y014982D01*
X008540Y015105D01*
X008900Y015465D01*
X008900Y018175D01*
X008966Y018242D01*
X011274Y018242D01*
X011265Y018227D01*
X011253Y018181D01*
X011253Y017910D01*
X011641Y017910D01*
X011641Y017814D01*
X011737Y017814D01*
X011737Y017387D01*
X011968Y017387D01*
X012014Y017399D01*
X012033Y017410D01*
X012036Y017407D01*
X012680Y017407D01*
X012774Y017500D01*
X012774Y018006D01*
X013005Y018006D01*
X013005Y017707D01*
X013008Y017704D01*
X012997Y017685D01*
X012985Y017639D01*
X012985Y017507D01*
X012985Y017376D01*
X012997Y017330D01*
X013008Y017311D01*
X013005Y017308D01*
X013005Y016959D01*
X013099Y016865D01*
X013704Y016865D01*
X013762Y016923D01*
X014064Y016923D01*
X014122Y016865D01*
X014215Y016865D01*
X014215Y016576D01*
X014112Y016576D01*
X014112Y016727D01*
X014019Y016821D01*
X013374Y016821D01*
X013371Y016818D01*
X013353Y016829D01*
X013307Y016841D01*
X013075Y016841D01*
X013075Y016414D01*
X012979Y016414D01*
X012979Y016841D01*
X012748Y016841D01*
X012702Y016829D01*
X012661Y016805D01*
X012627Y016772D01*
X012604Y016731D01*
X012591Y016685D01*
X012591Y016414D01*
X012979Y016414D01*
X012979Y016318D01*
X012591Y016318D01*
X012591Y016047D01*
X012604Y016001D01*
X012627Y015960D01*
X012661Y015926D01*
X012702Y015903D01*
X012748Y015890D01*
X012979Y015890D01*
X012979Y016318D01*
X013075Y016318D01*
X013075Y015890D01*
X013307Y015890D01*
X013353Y015903D01*
X013371Y015914D01*
X013374Y015910D01*
X014019Y015910D01*
X014112Y016004D01*
X014112Y016156D01*
X014215Y016156D01*
X014215Y014428D01*
X014470Y014174D01*
X014340Y014043D01*
X012380Y014043D01*
X012380Y014201D02*
X014442Y014201D01*
X014340Y014043D02*
X014340Y011561D01*
X014468Y011432D01*
X014568Y011332D01*
X016151Y011332D01*
X016280Y011461D01*
X016380Y011561D01*
X016380Y011832D01*
X017551Y011832D01*
X017680Y011961D01*
X017880Y012161D01*
X017880Y012966D01*
X017924Y012966D01*
X017924Y012963D01*
X018018Y012870D01*
X018701Y012870D01*
X018795Y012963D01*
X018795Y013529D01*
X018701Y013623D01*
X018018Y013623D01*
X018018Y013623D01*
X018018Y013768D01*
X017960Y013907D01*
X017902Y013965D01*
X017939Y014002D01*
X020257Y014002D01*
X020345Y014039D01*
X020413Y014106D01*
X020793Y014486D01*
X020830Y014575D01*
X020830Y014592D01*
X020845Y014592D01*
X020925Y014512D01*
X021064Y014454D01*
X021215Y014454D01*
X021354Y014512D01*
X021460Y014618D01*
X021518Y014757D01*
X021518Y014908D01*
X021460Y015047D01*
X021354Y015153D01*
X021215Y015210D01*
X021064Y015210D01*
X020925Y015153D01*
X020845Y015072D01*
X020830Y015072D01*
X020830Y015370D01*
X020831Y015375D01*
X020830Y015417D01*
X020830Y015460D01*
X020828Y015465D01*
X020827Y015470D01*
X020809Y015509D01*
X020793Y015548D01*
X020789Y015552D01*
X020787Y015557D01*
X020756Y015586D01*
X020725Y015616D01*
X020721Y015618D01*
X020580Y015747D01*
X020580Y015931D01*
X020655Y015931D01*
X020777Y015931D01*
X020823Y015943D01*
X020836Y015951D01*
X021075Y015951D01*
X021075Y015540D01*
X021350Y015265D01*
X021473Y015142D01*
X026346Y015142D01*
X026646Y015442D01*
X026770Y015565D01*
X026770Y015705D01*
X026882Y015592D01*
X026610Y015320D01*
X026610Y015112D01*
X027140Y015112D01*
X027140Y016072D01*
X027180Y016072D01*
X027180Y015642D01*
X027180Y015112D01*
X027140Y015112D01*
X027140Y015072D01*
X027180Y015072D01*
X027180Y014542D01*
X027387Y014542D01*
X027674Y014829D01*
X027940Y014562D01*
X028379Y014562D01*
X028690Y014873D01*
X028690Y014882D01*
X029066Y014882D01*
X029190Y015005D01*
X029367Y015183D01*
X029368Y015183D01*
X029428Y015244D01*
X029490Y015305D01*
X029490Y015306D01*
X029490Y015307D01*
X029490Y015393D01*
X029490Y015479D01*
X029489Y015480D01*
X029470Y018809D01*
X029525Y018754D01*
X029894Y018754D01*
X029985Y018845D01*
X030108Y018794D01*
X030251Y018794D01*
X030330Y018827D01*
X030330Y018605D01*
X030430Y018505D01*
X030453Y018482D01*
X030040Y018482D01*
X029730Y018172D01*
X029730Y017733D01*
X030010Y017452D01*
X029730Y017172D01*
X029730Y016733D01*
X030010Y016452D01*
X029730Y016172D01*
X029730Y015733D01*
X030010Y015452D01*
X029730Y015172D01*
X029730Y014733D01*
X029998Y014465D01*
X021567Y014452D01*
X021456Y014444D01*
X021348Y014418D01*
X021246Y014375D01*
X021151Y014317D01*
X021067Y014245D01*
X020995Y014161D01*
X020937Y014066D01*
X020894Y013964D01*
X020868Y013856D01*
X020860Y013745D01*
X020860Y006561D01*
X020468Y006561D01*
X019952Y007077D01*
X019610Y007454D01*
X019610Y007459D01*
X019552Y007517D01*
X019496Y007578D01*
X019491Y007578D01*
X019430Y007639D01*
X019306Y007762D01*
X018487Y007762D01*
X018460Y007827D01*
X018444Y007842D01*
X020017Y007842D01*
X020019Y007838D01*
X020125Y007732D01*
X020264Y007674D01*
X020415Y007674D01*
X020554Y007732D01*
X020660Y007838D01*
X020718Y007977D01*
X020718Y008128D01*
X020660Y008267D01*
X020554Y008373D01*
X020415Y008430D01*
X020264Y008430D01*
X020125Y008373D01*
X020019Y008267D01*
X020017Y008262D01*
X019066Y008262D01*
X019070Y008265D01*
X019070Y008316D01*
X019071Y008317D01*
X019150Y008395D01*
X019192Y008497D01*
X019192Y009907D01*
X019150Y010010D01*
X019071Y010088D01*
X019070Y010089D01*
X019070Y010139D01*
X018946Y010262D01*
X017868Y010262D01*
X017843Y010277D01*
X017784Y010262D01*
X017723Y010262D01*
X017702Y010242D01*
X017674Y010235D01*
X017643Y010183D01*
X017600Y010139D01*
X017600Y010111D01*
X017391Y009762D01*
X017373Y009762D01*
X017379Y009785D01*
X017379Y010007D01*
X017021Y010007D01*
X017021Y010044D01*
X017379Y010044D01*
X017379Y010266D01*
X017367Y010312D01*
X017343Y010353D01*
X017310Y010386D01*
X017296Y010394D01*
X017562Y010394D01*
X017608Y010406D01*
X017649Y010430D01*
X017682Y010463D01*
X017706Y010505D01*
X017718Y010550D01*
X017718Y010802D01*
X017133Y010802D01*
X017133Y010422D01*
X017021Y010422D01*
X017021Y010044D01*
X016984Y010044D01*
X016984Y010007D01*
X016626Y010007D01*
X016626Y009785D01*
X016632Y009762D01*
X016520Y009762D01*
X016520Y010039D01*
X016396Y010162D01*
X016296Y010262D01*
X013523Y010262D01*
X013400Y010139D01*
X013373Y010112D01*
X012673Y010112D01*
X012550Y009989D01*
X012500Y009939D01*
X012500Y009015D01*
X012500Y009129D02*
X012380Y009129D01*
X012380Y009288D02*
X012500Y009288D01*
X012500Y009446D02*
X012380Y009446D01*
X012380Y009605D02*
X012500Y009605D01*
X012500Y009763D02*
X012380Y009763D01*
X012380Y009922D02*
X012500Y009922D01*
X012550Y009989D02*
X012550Y009989D01*
X012641Y010080D02*
X012380Y010080D01*
X012380Y010239D02*
X013499Y010239D01*
X012380Y010397D02*
X016557Y010397D01*
X016570Y010394D02*
X016709Y010394D01*
X016695Y010386D01*
X016662Y010353D01*
X016638Y010312D01*
X016626Y010266D01*
X016626Y010044D01*
X016984Y010044D01*
X016984Y010394D01*
X016998Y010394D01*
X016998Y010802D01*
X016413Y010802D01*
X016413Y010550D01*
X016426Y010505D01*
X016449Y010463D01*
X016483Y010430D01*
X016524Y010406D01*
X016570Y010394D01*
X016626Y010239D02*
X016320Y010239D01*
X016478Y010080D02*
X016626Y010080D01*
X016626Y009922D02*
X016520Y009922D01*
X016520Y009763D02*
X016631Y009763D01*
X016984Y010080D02*
X017021Y010080D01*
X017021Y010239D02*
X016984Y010239D01*
X016998Y010397D02*
X017021Y010397D01*
X016998Y010556D02*
X017133Y010556D01*
X017133Y010714D02*
X016998Y010714D01*
X016998Y010802D02*
X017133Y010802D01*
X017133Y010937D01*
X016998Y010937D01*
X016998Y010802D01*
X016998Y010873D02*
X012380Y010873D01*
X012380Y011031D02*
X016413Y011031D01*
X016413Y010937D02*
X016998Y010937D01*
X016998Y011345D01*
X016570Y011345D01*
X016524Y011332D01*
X016483Y011309D01*
X016449Y011275D01*
X016426Y011234D01*
X016413Y011188D01*
X016413Y010937D01*
X016413Y010714D02*
X012380Y010714D01*
X012380Y010556D02*
X016413Y010556D01*
X016414Y011190D02*
X012380Y011190D01*
X012380Y011348D02*
X014552Y011348D01*
X014394Y011507D02*
X012380Y011507D01*
X012380Y011665D02*
X014340Y011665D01*
X014340Y011824D02*
X012380Y011824D01*
X012380Y011982D02*
X014340Y011982D01*
X014340Y012141D02*
X012380Y012141D01*
X012380Y012299D02*
X014340Y012299D01*
X014340Y012458D02*
X012380Y012458D01*
X012380Y012616D02*
X014340Y012616D01*
X014340Y012775D02*
X012380Y012775D01*
X012380Y012933D02*
X014340Y012933D01*
X014340Y013092D02*
X012380Y013092D01*
X012380Y013250D02*
X014340Y013250D01*
X014340Y013409D02*
X012380Y013409D01*
X012380Y013567D02*
X014340Y013567D01*
X014340Y013726D02*
X012380Y013726D01*
X012380Y013884D02*
X014340Y013884D01*
X014283Y014360D02*
X012380Y014360D01*
X012380Y014518D02*
X014215Y014518D01*
X014215Y014677D02*
X012380Y014677D01*
X012380Y014835D02*
X014215Y014835D01*
X014215Y014994D02*
X012380Y014994D01*
X012380Y015152D02*
X014215Y015152D01*
X014215Y015311D02*
X012312Y015311D01*
X012642Y015945D02*
X010843Y015945D01*
X010839Y015958D02*
X010815Y015999D01*
X010782Y016033D01*
X010741Y016056D01*
X010695Y016069D01*
X010514Y016069D01*
X010514Y015652D01*
X010514Y015652D01*
X010851Y015652D01*
X010851Y015912D01*
X010839Y015958D01*
X010851Y015786D02*
X014215Y015786D01*
X014215Y015628D02*
X010851Y015628D01*
X010851Y015469D02*
X014215Y015469D01*
X014635Y015469D02*
X018299Y015469D01*
X018299Y015424D02*
X018356Y015285D01*
X018463Y015179D01*
X018602Y015121D01*
X018752Y015121D01*
X018891Y015179D01*
X018997Y015285D01*
X019026Y015355D01*
X019158Y015486D01*
X019281Y015609D01*
X019281Y015951D01*
X019500Y015951D01*
X019500Y015666D01*
X019498Y015664D01*
X019500Y015579D01*
X019500Y015495D01*
X019502Y015493D01*
X019502Y015490D01*
X019563Y015432D01*
X019623Y015372D01*
X019626Y015372D01*
X019741Y015262D01*
X019741Y015117D01*
X019799Y014978D01*
X019905Y014872D01*
X020044Y014814D01*
X020195Y014814D01*
X020334Y014872D01*
X020350Y014888D01*
X020350Y014722D01*
X020110Y014482D01*
X017792Y014482D01*
X017704Y014446D01*
X017540Y014283D01*
X017451Y014372D01*
X014865Y014372D01*
X014635Y014602D01*
X014635Y016865D01*
X014727Y016865D01*
X014821Y016959D01*
X014821Y017308D01*
X014727Y017402D01*
X014122Y017402D01*
X014064Y017343D01*
X013809Y017343D01*
X013817Y017376D01*
X013817Y017507D01*
X013401Y017507D01*
X012985Y017507D01*
X013401Y017507D01*
X013401Y017507D01*
X013401Y017507D01*
X013817Y017507D01*
X013817Y017639D01*
X013805Y017685D01*
X013794Y017704D01*
X013797Y017707D01*
X013797Y018006D01*
X014029Y018006D01*
X014029Y017707D01*
X014122Y017613D01*
X014727Y017613D01*
X014786Y017672D01*
X015193Y017672D01*
X016080Y016785D01*
X015992Y016785D01*
X015898Y016691D01*
X015898Y016086D01*
X015992Y015993D01*
X016597Y015993D01*
X016691Y016086D01*
X016691Y016179D01*
X016868Y016179D01*
X016868Y016024D01*
X016961Y015930D01*
X017527Y015930D01*
X017621Y016024D01*
X017621Y016642D01*
X017655Y016642D01*
X017655Y016024D01*
X017749Y015930D01*
X018314Y015930D01*
X018408Y016024D01*
X018408Y016156D01*
X018507Y016156D01*
X018507Y016044D01*
X018600Y015951D01*
X018861Y015951D01*
X018861Y015833D01*
X018752Y015878D01*
X018602Y015878D01*
X018463Y015820D01*
X018356Y015714D01*
X018299Y015575D01*
X018299Y015424D01*
X018346Y015311D02*
X014635Y015311D01*
X014635Y015152D02*
X016289Y015152D01*
X016286Y015142D02*
X016286Y014920D01*
X016821Y014920D01*
X016821Y014844D01*
X016286Y014844D01*
X016286Y014622D01*
X016298Y014577D01*
X016322Y014536D01*
X016355Y014502D01*
X016396Y014478D01*
X016442Y014466D01*
X016821Y014466D01*
X016821Y014844D01*
X016898Y014844D01*
X016898Y014920D01*
X017433Y014920D01*
X017433Y015142D01*
X017421Y015188D01*
X017397Y015229D01*
X017364Y015263D01*
X017323Y015286D01*
X017277Y015299D01*
X016898Y015299D01*
X016898Y014920D01*
X016821Y014920D01*
X016821Y015299D01*
X016442Y015299D01*
X016396Y015286D01*
X016355Y015263D01*
X016322Y015229D01*
X016298Y015188D01*
X016286Y015142D01*
X016286Y014994D02*
X014635Y014994D01*
X014635Y014835D02*
X016286Y014835D01*
X016286Y014677D02*
X014635Y014677D01*
X014719Y014518D02*
X016339Y014518D01*
X016821Y014518D02*
X016898Y014518D01*
X016898Y014466D02*
X017277Y014466D01*
X017323Y014478D01*
X017364Y014502D01*
X017397Y014536D01*
X017421Y014577D01*
X017433Y014622D01*
X017433Y014844D01*
X016898Y014844D01*
X016898Y014466D01*
X016898Y014677D02*
X016821Y014677D01*
X016821Y014835D02*
X016898Y014835D01*
X016898Y014994D02*
X016821Y014994D01*
X016821Y015152D02*
X016898Y015152D01*
X017430Y015152D02*
X018527Y015152D01*
X018827Y015152D02*
X019741Y015152D01*
X019792Y014994D02*
X017433Y014994D01*
X017433Y014835D02*
X019993Y014835D01*
X020246Y014835D02*
X020350Y014835D01*
X020305Y014677D02*
X017433Y014677D01*
X017380Y014518D02*
X020146Y014518D01*
X020210Y014242D02*
X017840Y014242D01*
X017540Y013942D01*
X017640Y013692D02*
X017640Y013612D01*
X017560Y013532D01*
X018018Y013726D02*
X020860Y013726D01*
X020860Y013567D02*
X018757Y013567D01*
X018795Y013409D02*
X020860Y013409D01*
X020860Y013250D02*
X018795Y013250D01*
X018795Y013092D02*
X020860Y013092D01*
X020860Y012933D02*
X018765Y012933D01*
X018701Y012835D02*
X018018Y012835D01*
X017924Y012741D01*
X017924Y012176D01*
X018018Y012082D01*
X018080Y012082D01*
X018080Y012012D01*
X018057Y012012D01*
X017963Y011918D01*
X017963Y011313D01*
X018057Y011220D01*
X018662Y011220D01*
X018756Y011313D01*
X018756Y011918D01*
X018662Y012012D01*
X018640Y012012D01*
X018640Y012082D01*
X018701Y012082D01*
X018795Y012176D01*
X018795Y012741D01*
X018701Y012835D01*
X018762Y012775D02*
X020860Y012775D01*
X020860Y012616D02*
X018795Y012616D01*
X018795Y012458D02*
X020860Y012458D01*
X020860Y012299D02*
X018795Y012299D01*
X018760Y012141D02*
X020860Y012141D01*
X020860Y011982D02*
X018692Y011982D01*
X018756Y011824D02*
X020860Y011824D01*
X020860Y011665D02*
X018756Y011665D01*
X018756Y011507D02*
X020860Y011507D01*
X020860Y011348D02*
X018756Y011348D01*
X018665Y011193D02*
X018619Y011205D01*
X018398Y011205D01*
X018398Y010827D01*
X018776Y010827D01*
X018776Y011049D01*
X018763Y011095D01*
X018740Y011136D01*
X018706Y011169D01*
X018665Y011193D01*
X018670Y011190D02*
X020860Y011190D01*
X020860Y011031D02*
X018776Y011031D01*
X018776Y010873D02*
X020860Y010873D01*
X020860Y010714D02*
X018776Y010714D01*
X018776Y010751D02*
X018398Y010751D01*
X018398Y010827D01*
X018321Y010827D01*
X018321Y010751D01*
X017943Y010751D01*
X017943Y010529D01*
X017956Y010483D01*
X017979Y010442D01*
X018013Y010409D01*
X018054Y010385D01*
X018100Y010373D01*
X018321Y010373D01*
X018321Y010751D01*
X018398Y010751D01*
X018398Y010373D01*
X018619Y010373D01*
X018665Y010385D01*
X018706Y010409D01*
X018740Y010442D01*
X018763Y010483D01*
X018776Y010529D01*
X018776Y010751D01*
X018776Y010556D02*
X020860Y010556D01*
X020860Y010397D02*
X018687Y010397D01*
X018398Y010397D02*
X018321Y010397D01*
X018321Y010556D02*
X018398Y010556D01*
X018398Y010714D02*
X018321Y010714D01*
X018321Y010827D02*
X017943Y010827D01*
X017943Y011049D01*
X017956Y011095D01*
X017979Y011136D01*
X018013Y011169D01*
X018054Y011193D01*
X018100Y011205D01*
X018321Y011205D01*
X018321Y010827D01*
X018321Y010873D02*
X018398Y010873D01*
X018398Y011031D02*
X018321Y011031D01*
X018321Y011190D02*
X018398Y011190D01*
X018049Y011190D02*
X017718Y011190D01*
X017718Y011188D02*
X017706Y011234D01*
X017682Y011275D01*
X017649Y011309D01*
X017608Y011332D01*
X017562Y011345D01*
X017133Y011345D01*
X017133Y010937D01*
X017718Y010937D01*
X017718Y011188D01*
X017718Y011031D02*
X017943Y011031D01*
X017943Y010873D02*
X017133Y010873D01*
X017133Y011031D02*
X016998Y011031D01*
X016998Y011190D02*
X017133Y011190D01*
X017718Y010714D02*
X017943Y010714D01*
X017943Y010556D02*
X017718Y010556D01*
X017575Y010397D02*
X018032Y010397D01*
X017690Y010239D02*
X017379Y010239D01*
X017379Y010080D02*
X017581Y010080D01*
X017486Y009922D02*
X017379Y009922D01*
X017373Y009763D02*
X017391Y009763D01*
X018970Y010239D02*
X020860Y010239D01*
X020860Y010080D02*
X019079Y010080D01*
X019186Y009922D02*
X020860Y009922D01*
X020860Y009763D02*
X019192Y009763D01*
X019192Y009605D02*
X020860Y009605D01*
X020860Y009446D02*
X019192Y009446D01*
X019192Y009288D02*
X020860Y009288D01*
X020860Y009129D02*
X019192Y009129D01*
X019192Y008971D02*
X020860Y008971D01*
X020860Y008812D02*
X019192Y008812D01*
X019192Y008654D02*
X020860Y008654D01*
X020860Y008495D02*
X019191Y008495D01*
X019091Y008337D02*
X020089Y008337D01*
X020590Y008337D02*
X020860Y008337D01*
X020860Y008178D02*
X020697Y008178D01*
X020718Y008020D02*
X020860Y008020D01*
X020860Y007861D02*
X020670Y007861D01*
X020484Y007703D02*
X020860Y007703D01*
X020860Y007544D02*
X019527Y007544D01*
X019671Y007386D02*
X020860Y007386D01*
X020860Y007227D02*
X019815Y007227D01*
X019960Y007069D02*
X020860Y007069D01*
X020860Y006910D02*
X020118Y006910D01*
X020277Y006752D02*
X020860Y006752D01*
X020781Y006851D02*
X020660Y006972D01*
X020600Y006992D02*
X020741Y006851D01*
X021501Y006851D01*
X020781Y006851D01*
X020860Y006593D02*
X020435Y006593D01*
X019935Y005959D02*
X019270Y005959D01*
X019261Y005801D02*
X020094Y005801D01*
X020252Y005642D02*
X019242Y005642D01*
X019242Y005484D02*
X020016Y005484D01*
X019929Y005325D02*
X019242Y005325D01*
X019209Y005167D02*
X019921Y005167D01*
X019989Y005008D02*
X015363Y005008D01*
X015420Y005167D02*
X015748Y005167D01*
X015748Y005325D02*
X015420Y005325D01*
X015420Y005484D02*
X015748Y005484D01*
X015748Y005642D02*
X015420Y005642D01*
X015420Y005801D02*
X015748Y005801D01*
X015748Y005959D02*
X015420Y005959D01*
X015420Y006118D02*
X015748Y006118D01*
X015748Y006276D02*
X015420Y006276D01*
X015420Y006435D02*
X015748Y006435D01*
X015748Y006593D02*
X015420Y006593D01*
X015420Y006752D02*
X015748Y006752D01*
X015204Y004850D02*
X020860Y004850D01*
X020860Y005484D02*
X020583Y005484D01*
X020300Y005232D02*
X021383Y005232D01*
X021501Y005351D01*
X019777Y006118D02*
X019255Y006118D01*
X019242Y006276D02*
X019618Y006276D01*
X019460Y006435D02*
X019242Y006435D01*
X019242Y006593D02*
X019301Y006593D01*
X019366Y007703D02*
X020195Y007703D01*
X018010Y005167D02*
X017738Y005167D01*
X013215Y004850D02*
X006520Y004850D01*
X006520Y005008D02*
X013097Y005008D01*
X013000Y005167D02*
X006520Y005167D01*
X006520Y005325D02*
X013000Y005325D01*
X013000Y005484D02*
X006520Y005484D01*
X006520Y005642D02*
X013000Y005642D01*
X012712Y007703D02*
X012620Y007703D01*
X011431Y007703D02*
X010780Y007703D01*
X010793Y007544D02*
X011418Y007544D01*
X011418Y007386D02*
X010793Y007386D01*
X010793Y007227D02*
X011418Y007227D01*
X011418Y007069D02*
X010793Y007069D01*
X008622Y006593D02*
X008301Y006593D01*
X008371Y006435D02*
X008591Y006435D01*
X008591Y005959D02*
X008371Y005959D01*
X008670Y005801D02*
X006520Y005801D01*
X006520Y005959D02*
X006732Y005959D01*
X006732Y005961D02*
X006744Y005916D01*
X006768Y005875D01*
X006801Y005841D01*
X006842Y005817D01*
X006888Y005805D01*
X007110Y005805D01*
X007110Y006183D01*
X007186Y006183D01*
X007186Y005805D01*
X007408Y005805D01*
X007454Y005817D01*
X007495Y005841D01*
X007528Y005875D01*
X007552Y005916D01*
X007564Y005961D01*
X007564Y006183D01*
X007186Y006183D01*
X007186Y006259D01*
X007564Y006259D01*
X007564Y006481D01*
X007552Y006527D01*
X007528Y006568D01*
X007495Y006602D01*
X007454Y006625D01*
X007408Y006637D01*
X007186Y006637D01*
X007186Y006259D01*
X007110Y006259D01*
X007110Y006183D01*
X006732Y006183D01*
X006732Y005961D01*
X006732Y006118D02*
X006520Y006118D01*
X006520Y006276D02*
X006732Y006276D01*
X006732Y006259D02*
X006732Y006481D01*
X006744Y006527D01*
X006768Y006568D01*
X006801Y006602D01*
X006842Y006625D01*
X006888Y006637D01*
X007110Y006637D01*
X007110Y006259D01*
X006732Y006259D01*
X006732Y006435D02*
X006520Y006435D01*
X006520Y006593D02*
X006793Y006593D01*
X006520Y006752D02*
X007269Y006752D01*
X007186Y006593D02*
X007110Y006593D01*
X007110Y006435D02*
X007186Y006435D01*
X007186Y006276D02*
X007110Y006276D01*
X007110Y006118D02*
X007186Y006118D01*
X007186Y005959D02*
X007110Y005959D01*
X007564Y005959D02*
X007579Y005959D01*
X007564Y006118D02*
X007579Y006118D01*
X007564Y006276D02*
X007579Y006276D01*
X007564Y006435D02*
X007579Y006435D01*
X007648Y006593D02*
X007503Y006593D01*
X007571Y006752D02*
X007706Y006752D01*
X007706Y006910D02*
X007571Y006910D01*
X007571Y007069D02*
X007706Y007069D01*
X007706Y007544D02*
X007571Y007544D01*
X007571Y007703D02*
X007706Y007703D01*
X007706Y007861D02*
X007571Y007861D01*
X007571Y008020D02*
X007706Y008020D01*
X007705Y008654D02*
X007865Y008654D01*
X007865Y008812D02*
X007705Y008812D01*
X007705Y008971D02*
X007865Y008971D01*
X007865Y009129D02*
X007705Y009129D01*
X007705Y009288D02*
X007865Y009288D01*
X007865Y009446D02*
X008824Y009446D01*
X007865Y009605D02*
X007705Y009605D01*
X007705Y009578D02*
X007705Y010426D01*
X007210Y010426D01*
X007164Y010414D01*
X007123Y010390D01*
X007090Y010357D01*
X007066Y010316D01*
X007054Y010270D01*
X007054Y009578D01*
X007705Y009578D01*
X007705Y009446D02*
X006520Y009446D01*
X006520Y009288D02*
X007054Y009288D01*
X007054Y009129D02*
X006520Y009129D01*
X006520Y008971D02*
X007054Y008971D01*
X007054Y008812D02*
X006520Y008812D01*
X006520Y008654D02*
X007082Y008654D01*
X007054Y009605D02*
X006520Y009605D01*
X006520Y009763D02*
X007054Y009763D01*
X007054Y009922D02*
X006520Y009922D01*
X006520Y010080D02*
X007054Y010080D01*
X007054Y010239D02*
X006520Y010239D01*
X006520Y010397D02*
X007136Y010397D01*
X007204Y010873D02*
X006520Y010873D01*
X006520Y011031D02*
X007112Y011031D01*
X007101Y011190D02*
X006520Y011190D01*
X006520Y011348D02*
X007130Y011348D01*
X006993Y011507D02*
X006520Y011507D01*
X006520Y011665D02*
X006924Y011665D01*
X006924Y011824D02*
X006520Y011824D01*
X006520Y011982D02*
X006924Y011982D01*
X007340Y011812D02*
X007352Y011800D01*
X008184Y011800D01*
X007472Y011800D01*
X007440Y011832D01*
X007418Y011800D02*
X007360Y011859D01*
X007418Y011800D02*
X008184Y011800D01*
X007904Y011507D02*
X007726Y011507D01*
X007798Y011348D02*
X007904Y011348D01*
X007858Y011190D02*
X008523Y011190D01*
X007865Y010397D02*
X007705Y010397D01*
X007705Y010239D02*
X007865Y010239D01*
X007865Y010080D02*
X007705Y010080D01*
X007705Y009922D02*
X007865Y009922D01*
X007865Y009763D02*
X007705Y009763D01*
X007760Y012299D02*
X007904Y012299D01*
X007815Y012458D02*
X009554Y012458D01*
X009638Y012616D02*
X010140Y012616D01*
X010140Y012775D02*
X009764Y012775D01*
X009798Y012933D02*
X010140Y012933D01*
X010140Y013092D02*
X009763Y013092D01*
X009636Y013250D02*
X010140Y013250D01*
X010140Y013409D02*
X009964Y013409D01*
X009964Y013567D02*
X010140Y013567D01*
X010140Y013726D02*
X009964Y013726D01*
X009964Y013884D02*
X010140Y013884D01*
X010140Y014043D02*
X009964Y014043D01*
X009964Y014201D02*
X010140Y014201D01*
X010140Y014360D02*
X009964Y014360D01*
X010091Y014518D02*
X010140Y014518D01*
X010123Y014677D02*
X010140Y014677D01*
X010123Y014835D02*
X010140Y014835D01*
X010123Y014994D02*
X010140Y014994D01*
X010123Y015152D02*
X010140Y015152D01*
X010084Y015311D02*
X010207Y015311D01*
X010176Y015469D02*
X010123Y015469D01*
X010123Y015628D02*
X010176Y015628D01*
X010176Y015652D02*
X010514Y015652D01*
X010514Y015652D01*
X010514Y016069D01*
X010333Y016069D01*
X010287Y016056D01*
X010246Y016033D01*
X010212Y015999D01*
X010189Y015958D01*
X010176Y015912D01*
X010176Y015652D01*
X010176Y015786D02*
X010123Y015786D01*
X010123Y015945D02*
X010185Y015945D01*
X010514Y015945D02*
X010514Y015945D01*
X010514Y015786D02*
X010514Y015786D01*
X009805Y015652D02*
X009380Y015652D01*
X009184Y015457D01*
X009184Y013860D01*
X009184Y013168D01*
X009420Y012932D01*
X008956Y013092D02*
X006520Y013092D01*
X006520Y013250D02*
X008521Y013250D01*
X008684Y013250D02*
X008684Y013250D01*
X008684Y013409D02*
X008684Y013409D01*
X008684Y013567D02*
X008684Y013567D01*
X008684Y013726D02*
X008684Y013726D01*
X008684Y013884D02*
X008684Y013884D01*
X008684Y014043D02*
X008684Y014043D01*
X008684Y014201D02*
X008684Y014201D01*
X008684Y014360D02*
X008684Y014360D01*
X008944Y014835D02*
X008083Y014835D01*
X008428Y014994D02*
X008944Y014994D01*
X008944Y015152D02*
X008587Y015152D01*
X008745Y015311D02*
X008944Y015311D01*
X008944Y015469D02*
X008900Y015469D01*
X008900Y015628D02*
X009016Y015628D01*
X008900Y015786D02*
X009174Y015786D01*
X008900Y015945D02*
X009488Y015945D01*
X008900Y016103D02*
X012591Y016103D01*
X012591Y016262D02*
X008900Y016262D01*
X008900Y016420D02*
X012591Y016420D01*
X012591Y016579D02*
X008900Y016579D01*
X008900Y016737D02*
X012608Y016737D01*
X012979Y016737D02*
X013075Y016737D01*
X013075Y016579D02*
X012979Y016579D01*
X012979Y016420D02*
X013075Y016420D01*
X013075Y016262D02*
X012979Y016262D01*
X012979Y016103D02*
X013075Y016103D01*
X013075Y015945D02*
X012979Y015945D01*
X013068Y016896D02*
X008900Y016896D01*
X008900Y017054D02*
X013005Y017054D01*
X013005Y017213D02*
X008900Y017213D01*
X008900Y017371D02*
X012986Y017371D01*
X012985Y017530D02*
X012774Y017530D01*
X012774Y017688D02*
X012999Y017688D01*
X013005Y017847D02*
X012774Y017847D01*
X012774Y018005D02*
X013005Y018005D01*
X013797Y018005D02*
X014029Y018005D01*
X014029Y017847D02*
X013797Y017847D01*
X013803Y017688D02*
X014047Y017688D01*
X013817Y017530D02*
X015335Y017530D01*
X015493Y017371D02*
X014758Y017371D01*
X014821Y017213D02*
X015652Y017213D01*
X015810Y017054D02*
X014821Y017054D01*
X014758Y016896D02*
X015969Y016896D01*
X015944Y016737D02*
X015846Y016737D01*
X015848Y016736D02*
X015815Y016769D01*
X015773Y016793D01*
X015728Y016805D01*
X015506Y016805D01*
X015506Y016427D01*
X015884Y016427D01*
X015884Y016649D01*
X015872Y016695D01*
X015848Y016736D01*
X015884Y016579D02*
X015898Y016579D01*
X015898Y016420D02*
X015506Y016420D01*
X015506Y016427D02*
X015506Y016351D01*
X015884Y016351D01*
X015884Y016129D01*
X015872Y016083D01*
X015848Y016042D01*
X015815Y016009D01*
X015773Y015985D01*
X015728Y015973D01*
X015506Y015973D01*
X015506Y016351D01*
X015430Y016351D01*
X015430Y015973D01*
X015208Y015973D01*
X015162Y015985D01*
X015121Y016009D01*
X015088Y016042D01*
X015064Y016083D01*
X015052Y016129D01*
X015052Y016351D01*
X015430Y016351D01*
X015430Y016427D01*
X015430Y016805D01*
X015208Y016805D01*
X015162Y016793D01*
X015121Y016769D01*
X015088Y016736D01*
X015064Y016695D01*
X015052Y016649D01*
X015052Y016427D01*
X015430Y016427D01*
X015506Y016427D01*
X015430Y016420D02*
X014635Y016420D01*
X014635Y016262D02*
X015052Y016262D01*
X015058Y016103D02*
X014635Y016103D01*
X014635Y015945D02*
X016947Y015945D01*
X016868Y016103D02*
X016691Y016103D01*
X017542Y015945D02*
X017734Y015945D01*
X017655Y016103D02*
X017621Y016103D01*
X017621Y016262D02*
X017655Y016262D01*
X017655Y016420D02*
X017621Y016420D01*
X017621Y016579D02*
X017655Y016579D01*
X018329Y015945D02*
X018861Y015945D01*
X018507Y016103D02*
X018408Y016103D01*
X018429Y015786D02*
X014635Y015786D01*
X014635Y015628D02*
X018321Y015628D01*
X019008Y015311D02*
X019690Y015311D01*
X019524Y015469D02*
X019140Y015469D01*
X019281Y015628D02*
X019499Y015628D01*
X019500Y015786D02*
X019281Y015786D01*
X019281Y015945D02*
X019500Y015945D01*
X020340Y015642D02*
X020590Y015412D01*
X020590Y014872D01*
X020630Y014832D01*
X021140Y014832D01*
X021518Y014835D02*
X026639Y014835D01*
X026610Y014865D02*
X026932Y014542D01*
X027140Y014542D01*
X027140Y015072D01*
X026610Y015072D01*
X026610Y014865D01*
X026610Y014994D02*
X021482Y014994D01*
X021462Y015152D02*
X021354Y015152D01*
X021304Y015311D02*
X020830Y015311D01*
X020827Y015469D02*
X021145Y015469D01*
X021075Y015628D02*
X020710Y015628D01*
X020580Y015786D02*
X021075Y015786D01*
X021075Y015945D02*
X020826Y015945D01*
X020655Y015945D02*
X020655Y015945D01*
X020655Y015931D02*
X020655Y016406D01*
X020655Y016406D01*
X020655Y016881D01*
X020777Y016881D01*
X020823Y016869D01*
X020836Y016861D01*
X022079Y016861D01*
X022173Y016767D01*
X022173Y016044D01*
X022079Y015951D01*
X021810Y015951D01*
X021810Y015799D01*
X021846Y015762D01*
X023253Y015762D01*
X023050Y015965D01*
X023050Y016921D01*
X022985Y016856D01*
X022262Y016856D01*
X022168Y016950D01*
X022168Y018502D01*
X022051Y018454D01*
X021908Y018454D01*
X021776Y018509D01*
X021676Y018609D01*
X021621Y018741D01*
X021621Y018884D01*
X021676Y019015D01*
X021776Y019116D01*
X021908Y019171D01*
X022051Y019171D01*
X022168Y019122D01*
X022168Y019964D01*
X021870Y019665D01*
X021746Y019542D01*
X020626Y019542D01*
X020610Y019525D01*
X020610Y019489D01*
X020703Y019395D01*
X020758Y019264D01*
X020758Y019121D01*
X020703Y018989D01*
X020603Y018889D01*
X020471Y018834D01*
X020328Y018834D01*
X020196Y018889D01*
X020096Y018989D01*
X020041Y019121D01*
X020041Y019264D01*
X020062Y019314D01*
X019968Y019314D01*
X019836Y019369D01*
X019736Y019469D01*
X019681Y019601D01*
X019681Y019744D01*
X019735Y019874D01*
X019676Y019899D01*
X019576Y019999D01*
X019521Y020131D01*
X019521Y020274D01*
X019576Y020405D01*
X019676Y020506D01*
X019704Y020518D01*
X019071Y020518D01*
X019130Y020459D01*
X019510Y020079D01*
X019510Y017208D01*
X019595Y017122D01*
X019595Y016861D01*
X020100Y016861D01*
X020100Y017083D01*
X020051Y017201D01*
X020051Y017344D01*
X020106Y017475D01*
X020206Y017576D01*
X020338Y017631D01*
X020481Y017631D01*
X020613Y017576D01*
X020713Y017475D01*
X020768Y017344D01*
X020768Y017201D01*
X020713Y017069D01*
X020613Y016969D01*
X020580Y016955D01*
X020580Y016881D01*
X020655Y016881D01*
X020655Y016406D01*
X020655Y015931D01*
X020655Y016103D02*
X020655Y016103D01*
X020655Y016262D02*
X020655Y016262D01*
X020655Y016406D02*
X020655Y016406D01*
X020655Y016420D02*
X020655Y016420D01*
X020655Y016579D02*
X020655Y016579D01*
X020655Y016737D02*
X020655Y016737D01*
X020580Y016896D02*
X022222Y016896D01*
X022173Y016737D02*
X023050Y016737D01*
X023050Y016579D02*
X022173Y016579D01*
X022173Y016420D02*
X023050Y016420D01*
X023050Y016262D02*
X022173Y016262D01*
X022173Y016103D02*
X023050Y016103D01*
X023070Y015945D02*
X021810Y015945D01*
X021822Y015786D02*
X023228Y015786D01*
X023470Y016435D02*
X023470Y017339D01*
X023346Y017462D01*
X023286Y017522D01*
X023546Y017522D01*
X023670Y017645D01*
X024210Y018185D01*
X024210Y017963D01*
X024078Y017963D01*
X023984Y017869D01*
X023984Y017303D01*
X024078Y017210D01*
X024761Y017210D01*
X024855Y017303D01*
X024855Y017869D01*
X024761Y017963D01*
X024630Y017963D01*
X024630Y018399D01*
X024526Y018502D01*
X025222Y019198D01*
X025201Y019148D01*
X025201Y018997D01*
X025230Y018929D01*
X025230Y017963D01*
X025098Y017963D01*
X025004Y017869D01*
X025004Y017303D01*
X025098Y017210D01*
X025781Y017210D01*
X025875Y017303D01*
X025875Y017869D01*
X025781Y017963D01*
X025650Y017963D01*
X025650Y018694D01*
X025655Y018694D01*
X025794Y018752D01*
X025900Y018858D01*
X025931Y018934D01*
X025931Y018848D01*
X025950Y018829D01*
X025950Y016039D01*
X025873Y015962D01*
X024011Y015962D01*
X024034Y015972D01*
X024140Y016078D01*
X024198Y016217D01*
X024198Y016368D01*
X024196Y016372D01*
X024246Y016422D01*
X024761Y016422D01*
X024855Y016516D01*
X024855Y016589D01*
X025004Y016589D01*
X025004Y016516D01*
X025098Y016422D01*
X025781Y016422D01*
X025875Y016516D01*
X025875Y017081D01*
X025781Y017175D01*
X025098Y017175D01*
X025004Y017081D01*
X025004Y017009D01*
X024855Y017009D01*
X024855Y017081D01*
X024761Y017175D01*
X024078Y017175D01*
X023984Y017081D01*
X023984Y016754D01*
X023899Y016669D01*
X023895Y016670D01*
X023744Y016670D01*
X023605Y016613D01*
X023499Y016507D01*
X023470Y016435D01*
X023470Y016579D02*
X023571Y016579D01*
X023470Y016737D02*
X023968Y016737D01*
X023984Y016896D02*
X023470Y016896D01*
X023470Y017054D02*
X023984Y017054D01*
X024074Y017213D02*
X023470Y017213D01*
X023437Y017371D02*
X023984Y017371D01*
X023984Y017530D02*
X023554Y017530D01*
X023713Y017688D02*
X023984Y017688D01*
X023984Y017847D02*
X023871Y017847D01*
X024030Y018005D02*
X024210Y018005D01*
X024210Y018164D02*
X024188Y018164D01*
X024630Y018164D02*
X025230Y018164D01*
X025230Y018322D02*
X024630Y018322D01*
X024548Y018481D02*
X025230Y018481D01*
X025230Y018639D02*
X024664Y018639D01*
X024822Y018798D02*
X025230Y018798D01*
X025218Y018956D02*
X024981Y018956D01*
X025139Y019115D02*
X025201Y019115D01*
X025454Y019429D02*
X025530Y019505D01*
X025530Y020025D01*
X025726Y020222D01*
X028506Y020222D01*
X028768Y020484D01*
X028779Y020458D01*
X028885Y020352D01*
X029024Y020294D01*
X029175Y020294D01*
X029314Y020352D01*
X029370Y020408D01*
X029425Y020352D01*
X029564Y020294D01*
X029715Y020294D01*
X029854Y020352D01*
X029960Y020458D01*
X030018Y020597D01*
X030018Y020653D01*
X030061Y020697D01*
X030061Y020677D01*
X030119Y020538D01*
X030225Y020432D01*
X030364Y020374D01*
X030515Y020374D01*
X030654Y020432D01*
X030760Y020538D01*
X030818Y020677D01*
X030818Y020828D01*
X030760Y020967D01*
X030750Y020977D01*
X030750Y021879D01*
X030626Y022002D01*
X030446Y022182D01*
X031833Y022182D01*
X031950Y022024D01*
X031950Y021741D01*
X031945Y021741D01*
X031893Y021689D01*
X031892Y021691D01*
X031858Y021725D01*
X031817Y021749D01*
X031771Y021761D01*
X031630Y021761D01*
X031630Y021345D01*
X031630Y021345D01*
X031630Y021761D01*
X031488Y021761D01*
X031442Y021749D01*
X031401Y021725D01*
X031380Y021704D01*
X031358Y021725D01*
X031317Y021749D01*
X031271Y021761D01*
X031130Y021761D01*
X031130Y021345D01*
X031428Y021345D01*
X031630Y021345D01*
X031630Y020929D01*
X031771Y020929D01*
X031817Y020941D01*
X031858Y020964D01*
X031892Y020998D01*
X031893Y021001D01*
X031945Y020949D01*
X032314Y020949D01*
X032380Y021014D01*
X032445Y020949D01*
X032814Y020949D01*
X032880Y021014D01*
X032945Y020949D01*
X033314Y020949D01*
X033380Y021014D01*
X033445Y020949D01*
X033814Y020949D01*
X033880Y021014D01*
X033945Y020949D01*
X034314Y020949D01*
X034380Y021014D01*
X034445Y020949D01*
X034814Y020949D01*
X034908Y021042D01*
X034908Y021647D01*
X034814Y021741D01*
X034445Y021741D01*
X034380Y021675D01*
X034314Y021741D01*
X033945Y021741D01*
X033880Y021675D01*
X033830Y021725D01*
X033830Y022250D01*
X033832Y022253D01*
X033830Y022336D01*
X033830Y022352D01*
X034365Y022352D01*
X034445Y022272D01*
X034584Y022214D01*
X034735Y022214D01*
X034874Y022272D01*
X034980Y022378D01*
X035000Y022425D01*
X035000Y014472D01*
X034556Y014471D01*
X034810Y014725D01*
X034810Y014932D01*
X034280Y014932D01*
X034280Y014972D01*
X034810Y014972D01*
X034810Y015180D01*
X034537Y015452D01*
X034810Y015725D01*
X034810Y015932D01*
X034280Y015932D01*
X034280Y015972D01*
X034810Y015972D01*
X034810Y016180D01*
X034537Y016452D01*
X034810Y016725D01*
X034810Y016932D01*
X034280Y016932D01*
X034280Y016972D01*
X034810Y016972D01*
X034810Y017180D01*
X034537Y017452D01*
X034810Y017725D01*
X034810Y017932D01*
X034280Y017932D01*
X034280Y017972D01*
X034810Y017972D01*
X034810Y018180D01*
X034487Y018502D01*
X034280Y018502D01*
X034280Y017972D01*
X034240Y017972D01*
X034240Y018502D01*
X034032Y018502D01*
X033970Y018440D01*
X033970Y018699D01*
X033869Y018799D01*
X033880Y018809D01*
X033945Y018744D01*
X034314Y018744D01*
X034380Y018809D01*
X034445Y018744D01*
X034814Y018744D01*
X034908Y018838D01*
X034908Y019442D01*
X034840Y019511D01*
X034840Y019518D01*
X034900Y019578D01*
X034958Y019717D01*
X034958Y019868D01*
X034900Y020007D01*
X034794Y020113D01*
X034655Y020170D01*
X034504Y020170D01*
X034365Y020113D01*
X034259Y020007D01*
X034232Y019941D01*
X034180Y020067D01*
X034074Y020173D01*
X033935Y020230D01*
X033784Y020230D01*
X033645Y020173D01*
X033539Y020067D01*
X033481Y019928D01*
X033481Y019777D01*
X033539Y019638D01*
X033641Y019536D01*
X033445Y019536D01*
X033380Y019471D01*
X033314Y019536D01*
X032945Y019536D01*
X032880Y019471D01*
X032814Y019536D01*
X032445Y019536D01*
X032380Y019471D01*
X032314Y019536D01*
X031945Y019536D01*
X031880Y019471D01*
X031814Y019536D01*
X031445Y019536D01*
X031380Y019471D01*
X031314Y019536D01*
X031253Y019536D01*
X030710Y020079D01*
X030586Y020202D01*
X026553Y020202D01*
X026113Y019762D01*
X025990Y019639D01*
X025990Y019511D01*
X025931Y019452D01*
X025931Y019211D01*
X025900Y019287D01*
X025794Y019393D01*
X025655Y019450D01*
X025504Y019450D01*
X025454Y019429D01*
X025456Y019432D02*
X025460Y019432D01*
X025530Y019590D02*
X025990Y019590D01*
X025931Y019432D02*
X025700Y019432D01*
X025905Y019273D02*
X025931Y019273D01*
X025950Y018798D02*
X025840Y018798D01*
X025950Y018639D02*
X025650Y018639D01*
X025650Y018481D02*
X025950Y018481D01*
X025950Y018322D02*
X025650Y018322D01*
X025650Y018164D02*
X025950Y018164D01*
X025950Y018005D02*
X025650Y018005D01*
X025875Y017847D02*
X025950Y017847D01*
X025950Y017688D02*
X025875Y017688D01*
X025875Y017530D02*
X025950Y017530D01*
X025950Y017371D02*
X025875Y017371D01*
X025950Y017213D02*
X025785Y017213D01*
X025875Y017054D02*
X025950Y017054D01*
X025950Y016896D02*
X025875Y016896D01*
X025875Y016737D02*
X025950Y016737D01*
X025950Y016579D02*
X025875Y016579D01*
X025950Y016420D02*
X024245Y016420D01*
X024198Y016262D02*
X025950Y016262D01*
X025950Y016103D02*
X024151Y016103D01*
X024855Y016579D02*
X025004Y016579D01*
X025004Y017054D02*
X024855Y017054D01*
X024765Y017213D02*
X025094Y017213D01*
X025004Y017371D02*
X024855Y017371D01*
X024855Y017530D02*
X025004Y017530D01*
X025004Y017688D02*
X024855Y017688D01*
X024855Y017847D02*
X025004Y017847D01*
X025230Y018005D02*
X024630Y018005D01*
X024639Y019612D02*
X024600Y019707D01*
X024510Y019797D01*
X024510Y020444D01*
X025165Y021082D01*
X025166Y021082D01*
X025227Y021143D01*
X025288Y021203D01*
X025288Y021204D01*
X025290Y021205D01*
X025290Y021291D01*
X025291Y021377D01*
X025290Y021378D01*
X025290Y021985D01*
X025366Y022062D01*
X026786Y022062D01*
X027126Y022402D01*
X027233Y022402D01*
X027010Y022179D01*
X027010Y022005D01*
X027010Y021735D01*
X026973Y021699D01*
X026972Y021701D01*
X026938Y021735D01*
X026897Y021759D01*
X026851Y021771D01*
X026710Y021771D01*
X026710Y021355D01*
X026710Y021355D01*
X026710Y021771D01*
X026568Y021771D01*
X026522Y021759D01*
X026481Y021735D01*
X026460Y021714D01*
X026438Y021735D01*
X026397Y021759D01*
X026351Y021771D01*
X026210Y021771D01*
X026210Y021355D01*
X026508Y021355D01*
X026710Y021355D01*
X026710Y021355D01*
X026210Y021355D01*
X026210Y021355D01*
X026210Y021355D01*
X026210Y021771D01*
X026068Y021771D01*
X026022Y021759D01*
X025981Y021735D01*
X025947Y021701D01*
X025924Y021660D01*
X025911Y021615D01*
X025911Y021355D01*
X026210Y021355D01*
X026210Y021355D01*
X025911Y021355D01*
X025911Y021095D01*
X025924Y021049D01*
X025947Y021008D01*
X025973Y020982D01*
X025433Y020982D01*
X024953Y020502D01*
X024830Y020379D01*
X024830Y019800D01*
X024639Y019612D01*
X024558Y019749D02*
X024778Y019749D01*
X024830Y019907D02*
X024510Y019907D01*
X024510Y020066D02*
X024830Y020066D01*
X024830Y020224D02*
X024510Y020224D01*
X024510Y020383D02*
X024833Y020383D01*
X024992Y020541D02*
X024610Y020541D01*
X024772Y020700D02*
X025150Y020700D01*
X025309Y020858D02*
X024935Y020858D01*
X025098Y021017D02*
X025942Y021017D01*
X025911Y021175D02*
X025260Y021175D01*
X025290Y021334D02*
X025911Y021334D01*
X025911Y021492D02*
X025290Y021492D01*
X025290Y021651D02*
X025921Y021651D01*
X026210Y021651D02*
X026210Y021651D01*
X026210Y021492D02*
X026210Y021492D01*
X026710Y021492D02*
X026710Y021492D01*
X026710Y021651D02*
X026710Y021651D01*
X027010Y021809D02*
X025290Y021809D01*
X025290Y021968D02*
X027010Y021968D01*
X027010Y022126D02*
X026851Y022126D01*
X027009Y022285D02*
X027115Y022285D01*
X027194Y022822D02*
X027926Y023542D01*
X034137Y023542D01*
X034139Y023538D01*
X034245Y023432D01*
X034384Y023374D01*
X034535Y023374D01*
X034674Y023432D01*
X034780Y023538D01*
X034838Y023677D01*
X034838Y023828D01*
X034780Y023967D01*
X034674Y024073D01*
X034535Y024130D01*
X034384Y024130D01*
X034245Y024073D01*
X034139Y023967D01*
X034137Y023962D01*
X033606Y023962D01*
X033726Y024082D01*
X033816Y024171D01*
X035000Y024172D01*
X035000Y022760D01*
X034999Y022760D01*
X035000Y022760D02*
X034980Y022807D01*
X034874Y022913D01*
X034735Y022970D01*
X034584Y022970D01*
X034445Y022913D01*
X034365Y022832D01*
X033879Y022832D01*
X033563Y023148D01*
X033495Y023216D01*
X033407Y023252D01*
X029854Y023252D01*
X029774Y023333D01*
X029635Y023390D01*
X029484Y023390D01*
X029345Y023333D01*
X029239Y023227D01*
X029181Y023088D01*
X029181Y022937D01*
X029229Y022822D01*
X027194Y022822D01*
X027292Y022919D02*
X029189Y022919D01*
X029181Y023077D02*
X027453Y023077D01*
X027614Y023236D02*
X029248Y023236D01*
X029560Y023012D02*
X033360Y023012D01*
X033780Y022592D01*
X034660Y022592D01*
X034887Y022285D02*
X035000Y022285D01*
X035000Y022126D02*
X033830Y022126D01*
X033830Y021968D02*
X035000Y021968D01*
X035000Y021809D02*
X033830Y021809D01*
X033831Y022285D02*
X034432Y022285D01*
X034460Y022919D02*
X033792Y022919D01*
X033634Y023077D02*
X035000Y023077D01*
X035000Y022919D02*
X034859Y022919D01*
X035000Y023236D02*
X033447Y023236D01*
X033673Y024028D02*
X034201Y024028D01*
X034718Y024028D02*
X035000Y024028D01*
X035000Y023870D02*
X034820Y023870D01*
X034838Y023711D02*
X035000Y023711D01*
X035000Y023553D02*
X034786Y023553D01*
X034583Y023394D02*
X035000Y023394D01*
X034336Y023394D02*
X027775Y023394D01*
X027353Y023862D02*
X021293Y023862D01*
X021170Y023739D01*
X020913Y023482D01*
X018033Y023482D01*
X017910Y023359D01*
X017373Y022822D01*
X017373Y022822D01*
X017250Y022699D01*
X017250Y020925D01*
X017373Y020802D01*
X017674Y020501D01*
X017601Y020429D01*
X017601Y019844D01*
X015598Y019844D01*
X015598Y019988D01*
X015540Y020127D01*
X015434Y020233D01*
X015295Y020290D01*
X015144Y020290D01*
X015005Y020233D01*
X014899Y020127D01*
X014841Y019988D01*
X014841Y019837D01*
X014899Y019698D01*
X015005Y019592D01*
X015125Y019542D01*
X010558Y019542D01*
X010558Y019648D01*
X010500Y019787D01*
X010394Y019893D01*
X010255Y019950D01*
X010104Y019950D01*
X009965Y019893D01*
X009859Y019787D01*
X009801Y019648D01*
X009801Y019497D01*
X009859Y019358D01*
X009965Y019252D01*
X010056Y019214D01*
X008283Y019214D01*
X008283Y019329D01*
X008210Y019506D01*
X008074Y019641D01*
X007898Y019714D01*
X007067Y019714D01*
X006891Y019641D01*
X006756Y019506D01*
X006683Y019329D01*
X006683Y019139D01*
X006756Y018962D01*
X006891Y018827D01*
X007067Y018754D01*
X007806Y018754D01*
X007766Y018714D01*
X007167Y018714D01*
X006991Y018641D01*
X006856Y018506D01*
X006783Y018329D01*
X006783Y018139D01*
X006856Y017962D01*
X006991Y017827D01*
X007167Y017754D01*
X007998Y017754D01*
X008174Y017827D01*
X008310Y017962D01*
X008383Y018139D01*
X008383Y018329D01*
X008321Y018479D01*
X008610Y018479D01*
X008603Y018472D01*
X008480Y018349D01*
X008480Y015639D01*
X008250Y015409D01*
X008210Y015506D01*
X008074Y015641D01*
X007898Y015714D01*
X007067Y015714D01*
X006891Y015641D01*
X006756Y015506D01*
X006683Y015329D01*
X006683Y015139D01*
X006756Y014962D01*
X006891Y014827D01*
X006742Y014994D02*
X006520Y014994D01*
X006520Y015152D02*
X006683Y015152D01*
X006683Y015311D02*
X006520Y015311D01*
X006520Y015469D02*
X006741Y015469D01*
X006878Y015628D02*
X006520Y015628D01*
X006520Y015786D02*
X007089Y015786D01*
X007167Y015754D02*
X006991Y015827D01*
X006856Y015962D01*
X006783Y016139D01*
X006783Y016329D01*
X006856Y016506D01*
X006991Y016641D01*
X007167Y016714D01*
X007998Y016714D01*
X008174Y016641D01*
X008310Y016506D01*
X008383Y016329D01*
X008383Y016139D01*
X008310Y015962D01*
X008174Y015827D01*
X007998Y015754D01*
X007167Y015754D01*
X006873Y015945D02*
X006520Y015945D01*
X006520Y016103D02*
X006797Y016103D01*
X006783Y016262D02*
X006520Y016262D01*
X006520Y016420D02*
X006820Y016420D01*
X006929Y016579D02*
X006520Y016579D01*
X006520Y016737D02*
X007102Y016737D01*
X007123Y016734D02*
X007463Y016734D01*
X007463Y017214D01*
X007503Y017214D01*
X007503Y017254D01*
X008303Y017254D01*
X008303Y017273D01*
X008290Y017351D01*
X008266Y017426D01*
X008230Y017496D01*
X008184Y017560D01*
X008128Y017615D01*
X008065Y017662D01*
X007995Y017697D01*
X007920Y017722D01*
X007842Y017734D01*
X007503Y017734D01*
X007503Y017254D01*
X007463Y017254D01*
X007463Y017734D01*
X007123Y017734D01*
X007046Y017722D01*
X006971Y017697D01*
X006901Y017662D01*
X006837Y017615D01*
X006781Y017560D01*
X006735Y017496D01*
X006699Y017426D01*
X006675Y017351D01*
X006663Y017273D01*
X006663Y017254D01*
X007463Y017254D01*
X007463Y017214D01*
X006663Y017214D01*
X006663Y017195D01*
X006675Y017117D01*
X006699Y017042D01*
X006735Y016972D01*
X006781Y016908D01*
X006837Y016853D01*
X006901Y016806D01*
X006971Y016771D01*
X007046Y016746D01*
X007123Y016734D01*
X007463Y016737D02*
X007503Y016737D01*
X007503Y016734D02*
X007842Y016734D01*
X007920Y016746D01*
X007995Y016771D01*
X008065Y016806D01*
X008128Y016853D01*
X008184Y016908D01*
X008230Y016972D01*
X008266Y017042D01*
X008290Y017117D01*
X008303Y017195D01*
X008303Y017214D01*
X007503Y017214D01*
X007503Y016734D01*
X007503Y016896D02*
X007463Y016896D01*
X007463Y017054D02*
X007503Y017054D01*
X007503Y017213D02*
X007463Y017213D01*
X007463Y017371D02*
X007503Y017371D01*
X007503Y017530D02*
X007463Y017530D01*
X007463Y017688D02*
X007503Y017688D01*
X008012Y017688D02*
X008480Y017688D01*
X008480Y017530D02*
X008206Y017530D01*
X008284Y017371D02*
X008480Y017371D01*
X008480Y017213D02*
X008303Y017213D01*
X008270Y017054D02*
X008480Y017054D01*
X008480Y016896D02*
X008172Y016896D01*
X008237Y016579D02*
X008480Y016579D01*
X008480Y016737D02*
X007863Y016737D01*
X008345Y016420D02*
X008480Y016420D01*
X008480Y016262D02*
X008383Y016262D01*
X008368Y016103D02*
X008480Y016103D01*
X008480Y015945D02*
X008292Y015945D01*
X008480Y015786D02*
X008076Y015786D01*
X008088Y015628D02*
X008468Y015628D01*
X008310Y015469D02*
X008225Y015469D01*
X009424Y015311D02*
X009527Y015311D01*
X009488Y015152D02*
X009424Y015152D01*
X009424Y014994D02*
X009488Y014994D01*
X009449Y014835D02*
X009424Y014835D01*
X009424Y014677D02*
X009464Y014677D01*
X009464Y014518D02*
X009424Y014518D01*
X008944Y013250D02*
X008847Y013250D01*
X007388Y012933D02*
X007331Y012933D01*
X007331Y013043D02*
X007060Y013043D01*
X007014Y013030D01*
X006973Y013007D01*
X006940Y012973D01*
X006916Y012932D01*
X006904Y012886D01*
X006904Y012674D01*
X007331Y012674D01*
X007331Y013043D01*
X007331Y012775D02*
X007388Y012775D01*
X007388Y012616D02*
X007331Y012616D01*
X007331Y012458D02*
X007388Y012458D01*
X007388Y012299D02*
X007331Y012299D01*
X006904Y012458D02*
X006520Y012458D01*
X006520Y012616D02*
X006904Y012616D01*
X006904Y012775D02*
X006520Y012775D01*
X006520Y012933D02*
X006917Y012933D01*
X006794Y016896D02*
X006520Y016896D01*
X006520Y017054D02*
X006695Y017054D01*
X006663Y017213D02*
X006520Y017213D01*
X006520Y017371D02*
X006681Y017371D01*
X006760Y017530D02*
X006520Y017530D01*
X006520Y017688D02*
X006953Y017688D01*
X006971Y017847D02*
X006520Y017847D01*
X006520Y018005D02*
X006838Y018005D01*
X006783Y018164D02*
X006520Y018164D01*
X006520Y018322D02*
X006783Y018322D01*
X006845Y018481D02*
X006520Y018481D01*
X006520Y018639D02*
X006989Y018639D01*
X006961Y018798D02*
X006520Y018798D01*
X006520Y018956D02*
X006761Y018956D01*
X006692Y019115D02*
X006520Y019115D01*
X006520Y019273D02*
X006683Y019273D01*
X006725Y019432D02*
X006520Y019432D01*
X006520Y019590D02*
X006840Y019590D01*
X006520Y019749D02*
X009843Y019749D01*
X009801Y019590D02*
X008125Y019590D01*
X008240Y019432D02*
X009828Y019432D01*
X009944Y019273D02*
X008283Y019273D01*
X008383Y018322D02*
X008480Y018322D01*
X008480Y018164D02*
X008383Y018164D01*
X008327Y018005D02*
X008480Y018005D01*
X008480Y017847D02*
X008194Y017847D01*
X008900Y017847D02*
X011641Y017847D01*
X011641Y017814D02*
X011253Y017814D01*
X011253Y017543D01*
X011265Y017497D01*
X011289Y017456D01*
X011322Y017422D01*
X011363Y017399D01*
X011409Y017387D01*
X011641Y017387D01*
X011641Y017814D01*
X011641Y017688D02*
X011737Y017688D01*
X011737Y017530D02*
X011641Y017530D01*
X011256Y017530D02*
X008900Y017530D01*
X008900Y017688D02*
X011253Y017688D01*
X011253Y018005D02*
X008900Y018005D01*
X008900Y018164D02*
X011253Y018164D01*
X010558Y019590D02*
X015009Y019590D01*
X014878Y019749D02*
X010516Y019749D01*
X010359Y019907D02*
X014841Y019907D01*
X014874Y020066D02*
X006520Y020066D01*
X006520Y020224D02*
X014997Y020224D01*
X015442Y020224D02*
X017601Y020224D01*
X017601Y020066D02*
X015565Y020066D01*
X015598Y019907D02*
X017601Y019907D01*
X017601Y020383D02*
X006520Y020383D01*
X006520Y020541D02*
X017633Y020541D01*
X017475Y020700D02*
X006520Y020700D01*
X006520Y020858D02*
X017316Y020858D01*
X017250Y021017D02*
X006520Y021017D01*
X006520Y021175D02*
X017250Y021175D01*
X017250Y021334D02*
X006520Y021334D01*
X006520Y021492D02*
X017250Y021492D01*
X017250Y021651D02*
X006520Y021651D01*
X006520Y021809D02*
X017250Y021809D01*
X017250Y021968D02*
X006520Y021968D01*
X006520Y022126D02*
X017250Y022126D01*
X017250Y022285D02*
X006520Y022285D01*
X006520Y022443D02*
X017250Y022443D01*
X017250Y022602D02*
X006520Y022602D01*
X006520Y022760D02*
X017311Y022760D01*
X017469Y022919D02*
X006520Y022919D01*
X006520Y023077D02*
X017628Y023077D01*
X017786Y023236D02*
X006520Y023236D01*
X006520Y023394D02*
X017945Y023394D01*
X017910Y023359D02*
X017910Y023359D01*
X018206Y023062D02*
X021050Y023062D01*
X021050Y022137D01*
X020510Y021580D01*
X020450Y021519D01*
X020450Y021517D01*
X020448Y021516D01*
X020449Y021448D01*
X020340Y021448D01*
X020340Y020973D01*
X020340Y020973D01*
X020340Y021448D01*
X020218Y021448D01*
X020172Y021436D01*
X020159Y021428D01*
X020052Y021428D01*
X020492Y021868D01*
X020524Y021854D01*
X020675Y021854D01*
X020814Y021912D01*
X020920Y022018D01*
X020978Y022157D01*
X020978Y022308D01*
X020920Y022447D01*
X020814Y022553D01*
X020675Y022610D01*
X020524Y022610D01*
X020385Y022553D01*
X020279Y022447D01*
X020221Y022308D01*
X020221Y022191D01*
X020192Y022162D01*
X020140Y022287D01*
X020034Y022393D01*
X019895Y022450D01*
X019744Y022450D01*
X019605Y022393D01*
X019499Y022287D01*
X019441Y022148D01*
X019441Y021997D01*
X019455Y021965D01*
X019446Y021955D01*
X019400Y022067D01*
X019294Y022173D01*
X019155Y022230D01*
X019004Y022230D01*
X018865Y022173D01*
X018759Y022067D01*
X018701Y021928D01*
X018701Y021777D01*
X018759Y021638D01*
X018865Y021532D01*
X018870Y021530D01*
X018870Y021428D01*
X018600Y021428D01*
X018507Y021334D01*
X018195Y021334D01*
X018155Y021350D02*
X018004Y021350D01*
X017865Y021293D01*
X017759Y021187D01*
X017707Y021062D01*
X017670Y021099D01*
X017670Y022525D01*
X018206Y023062D01*
X018063Y022919D02*
X021050Y022919D01*
X021050Y022760D02*
X017905Y022760D01*
X017746Y022602D02*
X020504Y022602D01*
X020695Y022602D02*
X021050Y022602D01*
X021050Y022443D02*
X020921Y022443D01*
X020978Y022285D02*
X021050Y022285D01*
X021039Y022126D02*
X020965Y022126D01*
X020886Y021968D02*
X020870Y021968D01*
X020732Y021809D02*
X020434Y021809D01*
X020579Y021651D02*
X020275Y021651D01*
X020117Y021492D02*
X020449Y021492D01*
X020340Y021334D02*
X020340Y021334D01*
X020340Y021175D02*
X020340Y021175D01*
X020340Y021017D02*
X020340Y021017D01*
X020340Y020973D02*
X020340Y020498D01*
X020462Y020498D01*
X020508Y020510D01*
X020521Y020518D01*
X021705Y020518D01*
X021705Y020374D01*
X021533Y020202D01*
X020273Y020202D01*
X020238Y020168D01*
X020238Y020235D01*
X020265Y020300D01*
X020265Y020498D01*
X020340Y020498D01*
X020340Y020973D01*
X020340Y020973D01*
X020340Y020858D02*
X020340Y020858D01*
X020340Y020700D02*
X020340Y020700D01*
X020340Y020541D02*
X020340Y020541D01*
X020265Y020383D02*
X021705Y020383D01*
X021555Y020224D02*
X020238Y020224D01*
X020025Y020348D02*
X019880Y020202D01*
X020025Y020348D02*
X020025Y020973D01*
X019566Y020383D02*
X019206Y020383D01*
X019364Y020224D02*
X019521Y020224D01*
X019510Y020066D02*
X019548Y020066D01*
X019510Y019907D02*
X019668Y019907D01*
X019683Y019749D02*
X019510Y019749D01*
X019510Y019590D02*
X019685Y019590D01*
X019773Y019432D02*
X019510Y019432D01*
X019510Y019273D02*
X020045Y019273D01*
X020044Y019115D02*
X019510Y019115D01*
X019510Y018956D02*
X020129Y018956D01*
X020670Y018956D02*
X021651Y018956D01*
X021621Y018798D02*
X019510Y018798D01*
X019510Y018639D02*
X021663Y018639D01*
X021843Y018481D02*
X019510Y018481D01*
X019510Y018322D02*
X022168Y018322D01*
X022168Y018164D02*
X019510Y018164D01*
X019510Y018005D02*
X022168Y018005D01*
X022168Y017847D02*
X019510Y017847D01*
X019510Y017688D02*
X022168Y017688D01*
X022168Y017530D02*
X020659Y017530D01*
X020756Y017371D02*
X022168Y017371D01*
X022168Y017213D02*
X020768Y017213D01*
X020698Y017054D02*
X022168Y017054D01*
X023025Y016896D02*
X023050Y016896D01*
X022168Y018481D02*
X022116Y018481D01*
X021775Y019115D02*
X020755Y019115D01*
X020754Y019273D02*
X022168Y019273D01*
X022168Y019432D02*
X020667Y019432D01*
X021795Y019590D02*
X022168Y019590D01*
X022168Y019749D02*
X021953Y019749D01*
X022112Y019907D02*
X022168Y019907D01*
X020221Y022285D02*
X020141Y022285D01*
X020278Y022443D02*
X019912Y022443D01*
X019727Y022443D02*
X017670Y022443D01*
X017670Y022285D02*
X019498Y022285D01*
X019441Y022126D02*
X019340Y022126D01*
X019441Y021968D02*
X019454Y021968D01*
X018819Y022126D02*
X017670Y022126D01*
X017670Y021968D02*
X018718Y021968D01*
X018701Y021809D02*
X017670Y021809D01*
X017670Y021651D02*
X018754Y021651D01*
X018870Y021492D02*
X017670Y021492D01*
X017670Y021334D02*
X017964Y021334D01*
X018155Y021350D02*
X018294Y021293D01*
X018400Y021187D01*
X018402Y021182D01*
X018507Y021182D01*
X018507Y021334D01*
X017754Y021175D02*
X017670Y021175D01*
X018512Y020283D02*
X018633Y020162D01*
X018833Y020162D01*
X019090Y019905D01*
X019090Y018212D01*
X019063Y018275D01*
X018963Y018376D01*
X018831Y018431D01*
X018688Y018431D01*
X018556Y018376D01*
X018512Y018331D01*
X018512Y018525D01*
X018512Y020283D01*
X018512Y020224D02*
X018570Y020224D01*
X018512Y020066D02*
X018929Y020066D01*
X019087Y019907D02*
X018512Y019907D01*
X018512Y019749D02*
X019090Y019749D01*
X019090Y019590D02*
X018512Y019590D01*
X018512Y019432D02*
X019090Y019432D01*
X019090Y019273D02*
X018512Y019273D01*
X018512Y019115D02*
X019090Y019115D01*
X019090Y018956D02*
X018512Y018956D01*
X018512Y018798D02*
X019090Y018798D01*
X019090Y018639D02*
X018512Y018639D01*
X018512Y018481D02*
X019090Y018481D01*
X019090Y018322D02*
X019016Y018322D01*
X019510Y017530D02*
X020160Y017530D01*
X020063Y017371D02*
X019510Y017371D01*
X019510Y017213D02*
X020051Y017213D01*
X020100Y017054D02*
X019595Y017054D01*
X019595Y016896D02*
X020100Y016896D01*
X020340Y017203D02*
X020340Y016406D01*
X020340Y015642D01*
X020830Y015152D02*
X020925Y015152D01*
X020590Y014872D02*
X020590Y014622D01*
X020210Y014242D01*
X020349Y014043D02*
X020927Y014043D01*
X020875Y013884D02*
X017969Y013884D01*
X017618Y014360D02*
X017463Y014360D01*
X017880Y012933D02*
X017954Y012933D01*
X017957Y012775D02*
X017880Y012775D01*
X017880Y012616D02*
X017924Y012616D01*
X017924Y012458D02*
X017880Y012458D01*
X017880Y012299D02*
X017924Y012299D01*
X017959Y012141D02*
X017859Y012141D01*
X017701Y011982D02*
X018027Y011982D01*
X017963Y011824D02*
X016380Y011824D01*
X016380Y011665D02*
X017963Y011665D01*
X017963Y011507D02*
X016325Y011507D01*
X016167Y011348D02*
X017963Y011348D01*
X020508Y014201D02*
X021029Y014201D01*
X021220Y014360D02*
X020666Y014360D01*
X020806Y014518D02*
X020919Y014518D01*
X021360Y014518D02*
X029944Y014518D01*
X029785Y014677D02*
X028494Y014677D01*
X028652Y014835D02*
X029730Y014835D01*
X029730Y014994D02*
X029178Y014994D01*
X029337Y015152D02*
X029730Y015152D01*
X029869Y015311D02*
X029490Y015311D01*
X029490Y015469D02*
X029993Y015469D01*
X029834Y015628D02*
X029488Y015628D01*
X029487Y015786D02*
X029730Y015786D01*
X029730Y015945D02*
X029486Y015945D01*
X029485Y016103D02*
X029730Y016103D01*
X029820Y016262D02*
X029484Y016262D01*
X029484Y016420D02*
X029978Y016420D01*
X029883Y016579D02*
X029483Y016579D01*
X029482Y016737D02*
X029730Y016737D01*
X029730Y016896D02*
X029481Y016896D01*
X029480Y017054D02*
X029730Y017054D01*
X029771Y017213D02*
X029479Y017213D01*
X029478Y017371D02*
X029929Y017371D01*
X029932Y017530D02*
X029477Y017530D01*
X029476Y017688D02*
X029774Y017688D01*
X029730Y017847D02*
X029475Y017847D01*
X029474Y018005D02*
X029730Y018005D01*
X029730Y018164D02*
X029473Y018164D01*
X029473Y018322D02*
X029880Y018322D01*
X030039Y018481D02*
X029472Y018481D01*
X029471Y018639D02*
X030330Y018639D01*
X030330Y018798D02*
X030260Y018798D01*
X030099Y018798D02*
X029938Y018798D01*
X029481Y018798D02*
X029470Y018798D01*
X029394Y020383D02*
X029345Y020383D01*
X028854Y020383D02*
X028667Y020383D01*
X028509Y020224D02*
X033770Y020224D01*
X033949Y020224D02*
X035000Y020224D01*
X035000Y020066D02*
X034841Y020066D01*
X034941Y019907D02*
X035000Y019907D01*
X035000Y019749D02*
X034958Y019749D01*
X035000Y019590D02*
X034905Y019590D01*
X034908Y019432D02*
X035000Y019432D01*
X035000Y019273D02*
X034908Y019273D01*
X034908Y019115D02*
X035000Y019115D01*
X035000Y018956D02*
X034908Y018956D01*
X034868Y018798D02*
X035000Y018798D01*
X035000Y018639D02*
X033970Y018639D01*
X033970Y018481D02*
X034010Y018481D01*
X034240Y018481D02*
X034280Y018481D01*
X034280Y018322D02*
X034240Y018322D01*
X034240Y018164D02*
X034280Y018164D01*
X034280Y018005D02*
X034240Y018005D01*
X034240Y017932D02*
X034280Y017932D01*
X034280Y016972D01*
X034240Y016972D01*
X034240Y017502D01*
X034240Y017932D01*
X034240Y017847D02*
X034280Y017847D01*
X034280Y017688D02*
X034240Y017688D01*
X034240Y017530D02*
X034280Y017530D01*
X034280Y017371D02*
X034240Y017371D01*
X034240Y017213D02*
X034280Y017213D01*
X034280Y017054D02*
X034240Y017054D01*
X034240Y016932D02*
X034280Y016932D01*
X034280Y015972D01*
X034240Y015972D01*
X034240Y016502D01*
X034240Y016932D01*
X034240Y016896D02*
X034280Y016896D01*
X034280Y016737D02*
X034240Y016737D01*
X034240Y016579D02*
X034280Y016579D01*
X034280Y016420D02*
X034240Y016420D01*
X034240Y016262D02*
X034280Y016262D01*
X034280Y016103D02*
X034240Y016103D01*
X034280Y015945D02*
X035000Y015945D01*
X035000Y016103D02*
X034810Y016103D01*
X034728Y016262D02*
X035000Y016262D01*
X035000Y016420D02*
X034569Y016420D01*
X034664Y016579D02*
X035000Y016579D01*
X035000Y016737D02*
X034810Y016737D01*
X034810Y016896D02*
X035000Y016896D01*
X035000Y017054D02*
X034810Y017054D01*
X034777Y017213D02*
X035000Y017213D01*
X035000Y017371D02*
X034618Y017371D01*
X034615Y017530D02*
X035000Y017530D01*
X035000Y017688D02*
X034773Y017688D01*
X034810Y017847D02*
X035000Y017847D01*
X035000Y018005D02*
X034810Y018005D01*
X034810Y018164D02*
X035000Y018164D01*
X035000Y018322D02*
X034667Y018322D01*
X034509Y018481D02*
X035000Y018481D01*
X034391Y018798D02*
X034368Y018798D01*
X033891Y018798D02*
X033871Y018798D01*
X033587Y019590D02*
X031198Y019590D01*
X031040Y019749D02*
X033493Y019749D01*
X033481Y019907D02*
X030881Y019907D01*
X030723Y020066D02*
X033539Y020066D01*
X034180Y020066D02*
X034318Y020066D01*
X035000Y020383D02*
X030536Y020383D01*
X030343Y020383D02*
X029885Y020383D01*
X029995Y020541D02*
X030118Y020541D01*
X030761Y020541D02*
X035000Y020541D01*
X035000Y020700D02*
X030818Y020700D01*
X030805Y020858D02*
X035000Y020858D01*
X035000Y021017D02*
X034882Y021017D01*
X034908Y021175D02*
X035000Y021175D01*
X035000Y021334D02*
X034908Y021334D01*
X034908Y021492D02*
X035000Y021492D01*
X035000Y021651D02*
X034904Y021651D01*
X032380Y018809D02*
X032420Y018769D01*
X032420Y018609D01*
X032373Y018562D01*
X032250Y018439D01*
X032250Y015105D01*
X032490Y014865D01*
X032613Y014742D01*
X032730Y014742D01*
X032730Y014733D01*
X032993Y014469D01*
X031552Y014467D01*
X031810Y014725D01*
X031810Y014932D01*
X031280Y014932D01*
X031280Y014972D01*
X031810Y014972D01*
X031810Y015180D01*
X031537Y015452D01*
X031810Y015725D01*
X031810Y015932D01*
X031280Y015932D01*
X031280Y015972D01*
X031810Y015972D01*
X031810Y016180D01*
X031537Y016452D01*
X031810Y016725D01*
X031810Y016932D01*
X031280Y016932D01*
X031280Y016972D01*
X031810Y016972D01*
X031810Y017180D01*
X031537Y017452D01*
X031810Y017725D01*
X031810Y017932D01*
X031280Y017932D01*
X031280Y017972D01*
X031810Y017972D01*
X031810Y018180D01*
X031607Y018382D01*
X032106Y018382D01*
X032226Y018502D01*
X032350Y018625D01*
X032350Y018779D01*
X032380Y018809D01*
X032391Y018798D02*
X032368Y018798D01*
X032350Y018639D02*
X032420Y018639D01*
X032291Y018481D02*
X032205Y018481D01*
X032250Y018322D02*
X031667Y018322D01*
X031810Y018164D02*
X032250Y018164D01*
X032250Y018005D02*
X031810Y018005D01*
X031810Y017847D02*
X032250Y017847D01*
X032250Y017688D02*
X031773Y017688D01*
X031615Y017530D02*
X032250Y017530D01*
X032250Y017371D02*
X031618Y017371D01*
X031777Y017213D02*
X032250Y017213D01*
X032250Y017054D02*
X031810Y017054D01*
X031810Y016896D02*
X032250Y016896D01*
X032250Y016737D02*
X031810Y016737D01*
X031664Y016579D02*
X032250Y016579D01*
X032250Y016420D02*
X031569Y016420D01*
X031728Y016262D02*
X032250Y016262D01*
X032250Y016103D02*
X031810Y016103D01*
X031810Y015786D02*
X032250Y015786D01*
X032250Y015628D02*
X031713Y015628D01*
X031554Y015469D02*
X032250Y015469D01*
X032250Y015311D02*
X031679Y015311D01*
X031810Y015152D02*
X032250Y015152D01*
X032361Y014994D02*
X031810Y014994D01*
X031810Y014835D02*
X032519Y014835D01*
X032785Y014677D02*
X031762Y014677D01*
X031603Y014518D02*
X032944Y014518D01*
X034240Y014972D02*
X034240Y015502D01*
X034240Y015932D01*
X034280Y015932D01*
X034280Y014972D01*
X034240Y014972D01*
X034240Y014994D02*
X034280Y014994D01*
X034280Y015152D02*
X034240Y015152D01*
X034240Y015311D02*
X034280Y015311D01*
X034280Y015469D02*
X034240Y015469D01*
X034240Y015628D02*
X034280Y015628D01*
X034280Y015786D02*
X034240Y015786D01*
X034554Y015469D02*
X035000Y015469D01*
X035000Y015311D02*
X034679Y015311D01*
X034810Y015152D02*
X035000Y015152D01*
X035000Y014994D02*
X034810Y014994D01*
X034810Y014835D02*
X035000Y014835D01*
X035000Y014677D02*
X034762Y014677D01*
X034603Y014518D02*
X035000Y014518D01*
X035000Y015628D02*
X034713Y015628D01*
X034810Y015786D02*
X035000Y015786D01*
X032250Y015945D02*
X031280Y015945D01*
X031280Y015932D02*
X031280Y015402D01*
X031280Y014972D01*
X031240Y014972D01*
X031240Y015932D01*
X031280Y015932D01*
X031280Y015972D02*
X031240Y015972D01*
X031240Y016932D01*
X031280Y016932D01*
X031280Y016402D01*
X031280Y015972D01*
X031280Y016103D02*
X031240Y016103D01*
X031240Y016262D02*
X031280Y016262D01*
X031280Y016420D02*
X031240Y016420D01*
X031240Y016579D02*
X031280Y016579D01*
X031280Y016737D02*
X031240Y016737D01*
X031240Y016896D02*
X031280Y016896D01*
X031280Y016972D02*
X031240Y016972D01*
X031240Y017932D01*
X031280Y017932D01*
X031280Y017402D01*
X031280Y016972D01*
X031280Y017054D02*
X031240Y017054D01*
X031240Y017213D02*
X031280Y017213D01*
X031280Y017371D02*
X031240Y017371D01*
X031240Y017530D02*
X031280Y017530D01*
X031280Y017688D02*
X031240Y017688D01*
X031240Y017847D02*
X031280Y017847D01*
X031240Y015786D02*
X031280Y015786D01*
X031280Y015628D02*
X031240Y015628D01*
X031240Y015469D02*
X031280Y015469D01*
X031280Y015311D02*
X031240Y015311D01*
X031240Y015152D02*
X031280Y015152D01*
X031280Y014994D02*
X031240Y014994D01*
X027825Y014677D02*
X027522Y014677D01*
X027180Y014677D02*
X027140Y014677D01*
X027140Y014835D02*
X027180Y014835D01*
X027180Y014994D02*
X027140Y014994D01*
X027140Y015152D02*
X027180Y015152D01*
X027180Y015311D02*
X027140Y015311D01*
X027140Y015469D02*
X027180Y015469D01*
X027180Y015628D02*
X027140Y015628D01*
X027140Y015786D02*
X027180Y015786D01*
X027180Y015945D02*
X027140Y015945D01*
X027140Y016112D02*
X027140Y017072D01*
X027180Y017072D01*
X027180Y016542D01*
X027180Y016112D01*
X027140Y016112D01*
X027140Y016262D02*
X027180Y016262D01*
X027180Y016420D02*
X027140Y016420D01*
X027140Y016579D02*
X027180Y016579D01*
X027180Y016737D02*
X027140Y016737D01*
X027140Y016896D02*
X027180Y016896D01*
X027180Y017054D02*
X027140Y017054D01*
X027140Y017112D02*
X027140Y018072D01*
X027180Y018072D01*
X027180Y017542D01*
X027180Y017112D01*
X027140Y017112D01*
X027140Y017213D02*
X027180Y017213D01*
X027180Y017371D02*
X027140Y017371D01*
X027140Y017530D02*
X027180Y017530D01*
X027180Y017688D02*
X027140Y017688D01*
X027140Y017847D02*
X027180Y017847D01*
X027180Y018005D02*
X027140Y018005D01*
X027140Y018112D02*
X027140Y018635D01*
X027246Y018742D01*
X027258Y018754D01*
X027394Y018754D01*
X027460Y018819D01*
X027500Y018779D01*
X027500Y018584D01*
X027496Y018579D01*
X027498Y018532D01*
X027387Y018642D01*
X027180Y018642D01*
X027180Y018112D01*
X027140Y018112D01*
X027140Y018164D02*
X027180Y018164D01*
X027180Y018322D02*
X027140Y018322D01*
X027140Y018481D02*
X027180Y018481D01*
X027180Y018639D02*
X027144Y018639D01*
X027390Y018639D02*
X027500Y018639D01*
X027481Y018798D02*
X027438Y018798D01*
X026258Y019907D02*
X025530Y019907D01*
X025530Y019749D02*
X026099Y019749D01*
X026416Y020066D02*
X025570Y020066D01*
X027353Y023862D02*
X027650Y024159D01*
X027657Y024167D01*
X006520Y024153D01*
X006520Y024028D02*
X027519Y024028D01*
X027360Y023870D02*
X006520Y023870D01*
X006520Y023711D02*
X021142Y023711D01*
X020983Y023553D02*
X006520Y023553D01*
X006520Y019907D02*
X010000Y019907D01*
X013816Y017371D02*
X014092Y017371D01*
X014092Y016896D02*
X013734Y016896D01*
X014102Y016737D02*
X014215Y016737D01*
X014215Y016579D02*
X014112Y016579D01*
X014112Y016103D02*
X014215Y016103D01*
X014215Y015945D02*
X014053Y015945D01*
X014635Y016579D02*
X015052Y016579D01*
X015089Y016737D02*
X014635Y016737D01*
X015430Y016737D02*
X015506Y016737D01*
X015506Y016579D02*
X015430Y016579D01*
X015430Y016262D02*
X015506Y016262D01*
X015506Y016103D02*
X015430Y016103D01*
X015877Y016103D02*
X015898Y016103D01*
X015884Y016262D02*
X015898Y016262D01*
X020340Y017203D02*
X020410Y017272D01*
X021484Y014677D02*
X026797Y014677D01*
X026610Y015152D02*
X026357Y015152D01*
X026515Y015311D02*
X026610Y015311D01*
X026674Y015469D02*
X026759Y015469D01*
X026770Y015628D02*
X026846Y015628D01*
X030750Y021017D02*
X030856Y021017D01*
X030867Y020998D02*
X030901Y020964D01*
X030942Y020941D01*
X030988Y020929D01*
X031130Y020929D01*
X031271Y020929D01*
X031317Y020941D01*
X031358Y020964D01*
X031380Y020986D01*
X031401Y020964D01*
X031442Y020941D01*
X031488Y020929D01*
X031630Y020929D01*
X031630Y021345D01*
X031630Y021345D01*
X031630Y021345D01*
X031130Y021345D01*
X031130Y021345D01*
X031130Y021345D01*
X031130Y021761D01*
X030988Y021761D01*
X030942Y021749D01*
X030901Y021725D01*
X030867Y021691D01*
X030844Y021650D01*
X030831Y021605D01*
X030831Y021345D01*
X031130Y021345D01*
X031130Y020929D01*
X031130Y021345D01*
X031130Y021345D01*
X031130Y021345D01*
X030831Y021345D01*
X030831Y021085D01*
X030844Y021039D01*
X030867Y020998D01*
X030831Y021175D02*
X030750Y021175D01*
X030750Y021334D02*
X030831Y021334D01*
X030831Y021492D02*
X030750Y021492D01*
X030750Y021651D02*
X030844Y021651D01*
X030750Y021809D02*
X031950Y021809D01*
X031950Y021968D02*
X030661Y021968D01*
X030502Y022126D02*
X031874Y022126D01*
X031630Y021651D02*
X031630Y021651D01*
X031630Y021492D02*
X031630Y021492D01*
X031630Y021334D02*
X031630Y021334D01*
X031630Y021175D02*
X031630Y021175D01*
X031630Y021017D02*
X031630Y021017D01*
X031130Y021017D02*
X031130Y021017D01*
X031130Y021175D02*
X031130Y021175D01*
X031130Y021334D02*
X031130Y021334D01*
X031130Y021492D02*
X031130Y021492D01*
X031130Y021651D02*
X031130Y021651D01*
X034760Y024732D02*
X034860Y024632D01*
X034760Y024732D02*
X034760Y046492D01*
X034540Y046712D01*
X034540Y056372D01*
X034240Y056672D01*
X034240Y056892D01*
X030160Y054152D02*
X030160Y053352D01*
X030260Y053352D01*
X030260Y053145D01*
X030157Y053043D01*
X030160Y054152D02*
X030108Y054204D01*
X029934Y054204D01*
X029147Y054204D02*
X028411Y054204D01*
X028360Y054152D01*
X025860Y054552D02*
X025610Y054402D01*
X025160Y054402D01*
X025160Y054052D01*
X025157Y054052D01*
X025157Y053043D01*
X025160Y054402D02*
X025053Y054402D01*
X024266Y054402D02*
X023660Y054402D01*
X023460Y054202D01*
X023460Y054052D01*
X023460Y054402D02*
X023460Y054452D01*
X023460Y054402D02*
X023660Y054402D01*
X009366Y048552D02*
X009310Y048552D01*
X009260Y048602D01*
X007560Y033552D02*
X007746Y033366D01*
X007746Y033352D01*
X008573Y033352D02*
X009566Y033352D01*
X010353Y033352D02*
X011260Y033352D01*
X013973Y033352D02*
X015166Y033352D01*
X015953Y033352D02*
X016260Y033352D01*
X017860Y033352D02*
X018046Y033352D01*
X018873Y033352D02*
X019566Y033352D01*
X020353Y033352D02*
X020560Y033352D01*
X022760Y033352D02*
X022946Y033352D01*
X023773Y033352D02*
X024566Y033352D01*
X025353Y033352D02*
X025960Y033352D01*
X026060Y033252D01*
X027860Y033352D02*
X028046Y033352D01*
X028873Y033352D02*
X029566Y033352D01*
X030353Y033352D02*
X030797Y033352D01*
X030896Y033253D01*
X022710Y025352D02*
X022710Y024122D01*
X021260Y027852D02*
X021260Y027921D01*
X026661Y009380D02*
X026661Y009354D01*
X026660Y009352D01*
X027360Y009252D02*
X027408Y009300D01*
X027408Y009380D01*
X028140Y007902D02*
X028141Y007901D01*
X028716Y007901D01*
X028834Y008019D01*
X028834Y008531D01*
X007163Y007227D02*
X006520Y007227D01*
X006520Y007069D02*
X007163Y007069D01*
X007163Y006910D02*
X006520Y006910D01*
D48*
X016260Y013152D03*
X020410Y017272D03*
X020450Y018242D03*
X020400Y019192D03*
X020040Y019672D03*
X019880Y020202D03*
X021330Y019402D03*
X021980Y018812D03*
X023730Y017322D03*
X024890Y018262D03*
X024540Y021352D03*
X023960Y021992D03*
X023820Y021332D03*
X023220Y021872D03*
X022980Y022972D03*
X022420Y023212D03*
X021890Y024042D03*
X019230Y022502D03*
X018190Y023822D03*
X019290Y025712D03*
X019060Y027502D03*
X018410Y027752D03*
X015360Y025792D03*
X013960Y027602D03*
X012960Y027902D03*
X010260Y028552D03*
X009060Y026402D03*
X009010Y025602D03*
X018760Y018072D03*
X020870Y015722D03*
X026700Y023292D03*
X027260Y024032D03*
X029390Y025452D03*
X031150Y023412D03*
X034350Y023172D03*
X034090Y022042D03*
X030180Y019152D03*
X030210Y018652D03*
X027960Y020772D03*
X024060Y027552D03*
X023110Y027702D03*
X026860Y007752D03*
X026860Y006402D03*
X023460Y054052D03*
X022560Y054752D03*
X018260Y055452D03*
X012960Y055152D03*
X011460Y056452D03*
X011060Y056052D03*
X027560Y054552D03*
X031220Y055992D03*
X031660Y056352D03*
X033040Y054772D03*
D49*
X023710Y055502D02*
X023560Y055652D01*
X023560Y055752D01*
X015960Y054652D02*
X015560Y054252D01*
X015060Y054252D01*
X015160Y054152D01*
X015160Y053952D01*
X015160Y053045D01*
X015157Y053043D01*
X015160Y053952D02*
X014953Y054159D01*
X014953Y054302D01*
X010860Y054552D02*
X010660Y054352D01*
X009853Y054352D01*
X009853Y054259D01*
X010160Y053952D01*
X010160Y053255D01*
X010157Y053252D01*
X010157Y053355D01*
X010060Y053452D01*
X010157Y053252D02*
X010157Y053043D01*
X009066Y054352D02*
X009066Y054446D01*
X008810Y054702D01*
X009110Y055002D02*
X009260Y054852D01*
X012860Y033352D02*
X013146Y033352D01*
X016130Y014012D02*
X016140Y014012D01*
X017360Y013252D02*
X017366Y013246D01*
X018360Y013246D01*
X018360Y012459D02*
X018360Y011616D01*
X025015Y005106D02*
X025094Y005106D01*
X025291Y004909D01*
D50*
X012554Y007330D02*
X012536Y007348D01*
X011854Y007348D01*
X010358Y007348D02*
X009755Y007348D01*
X009623Y007216D01*
X009450Y007389D01*
X009460Y007379D01*
X009460Y007152D01*
X009184Y007428D01*
X009184Y011800D01*
X009623Y007216D02*
X009755Y007083D01*
X009755Y006221D01*
D51*
X023921Y005351D02*
X024770Y005351D01*
X025015Y005106D01*
X025212Y004909D01*
X025291Y004909D01*
X030803Y004909D01*
X031197Y005303D01*
X031197Y009200D01*
X030567Y009830D01*
X030047Y009830D01*
X030015Y009862D01*
D52*
X018610Y005952D02*
X018600Y005961D01*
X016743Y005961D01*
D53*
X016260Y025452D02*
X016260Y027752D01*
X016260Y027802D01*
X016260Y028759D01*
X016157Y028862D01*
X016167Y028852D01*
X017260Y028852D01*
X017860Y029452D01*
X017860Y033352D01*
X017860Y034852D01*
X018223Y035216D01*
X019360Y035216D01*
X019360Y035252D01*
X019260Y035352D01*
X020560Y033352D02*
X020560Y031852D01*
X020460Y031752D01*
X020434Y031752D01*
X020460Y031478D01*
X020560Y033352D02*
X021360Y034152D01*
X021360Y035216D01*
X022760Y034552D02*
X022760Y033352D01*
X022760Y029252D01*
X022160Y028652D01*
X021267Y028652D01*
X021357Y028762D01*
X021260Y028659D01*
X021260Y027852D01*
X021260Y027752D01*
X021260Y027352D01*
X021260Y025452D01*
X026260Y025452D02*
X026260Y025852D01*
X026260Y027702D01*
X026260Y028759D01*
X026157Y028862D01*
X026167Y028852D01*
X027160Y028852D01*
X027400Y029092D01*
X027740Y029432D01*
X027860Y029552D01*
X027860Y033352D01*
X027860Y034952D01*
X028123Y035216D01*
X029260Y035216D01*
X031260Y033752D02*
X030896Y033253D01*
X030460Y032652D01*
X030460Y031452D01*
X030260Y031252D01*
X030260Y031578D01*
X031260Y033752D02*
X031260Y035216D01*
X026260Y035216D02*
X026260Y033452D01*
X026060Y033252D01*
X025360Y032552D01*
X025360Y031678D01*
X025260Y031578D01*
X022760Y034552D02*
X023323Y035216D01*
X024260Y035216D01*
X031157Y028862D02*
X031260Y028759D01*
X031260Y027752D01*
X031260Y025452D01*
X031157Y028862D02*
X032309Y028862D01*
X033100Y029652D01*
X033100Y046112D01*
X032871Y046475D01*
X032760Y046652D01*
X032480Y046652D01*
X032360Y046652D01*
X031296Y046652D01*
X031260Y046689D01*
X029260Y046689D02*
X029260Y048552D01*
X029260Y050327D01*
X028171Y052852D02*
X027260Y052852D01*
X026860Y052452D01*
X026860Y048552D01*
X026260Y047952D01*
X026260Y046689D01*
X024260Y046689D02*
X024260Y046452D01*
X024260Y046689D02*
X024260Y048652D01*
X024260Y050327D01*
X023071Y052752D02*
X022260Y052752D01*
X021860Y052352D01*
X021860Y048052D01*
X021260Y047452D01*
X021260Y046689D01*
X019260Y046689D02*
X019260Y046452D01*
X019260Y046689D02*
X019260Y048852D01*
X019260Y050327D01*
X018171Y052852D02*
X017660Y052852D01*
X017260Y052852D01*
X016860Y052452D01*
X016860Y048452D01*
X016260Y047852D01*
X016260Y046689D01*
X014260Y046689D02*
X014260Y048852D01*
X014260Y050252D01*
X014060Y050452D01*
X014134Y050452D01*
X014260Y050327D01*
X013271Y052952D02*
X012260Y052952D01*
X012060Y052952D01*
X011760Y052652D01*
X011760Y048352D01*
X011260Y047852D01*
X011260Y046689D01*
X009260Y046689D02*
X009260Y048602D01*
X009260Y050327D01*
X008362Y053043D02*
X008360Y053045D01*
X008360Y054252D01*
X008810Y054702D01*
X009110Y055002D01*
X009260Y055152D01*
X009260Y056452D01*
X013271Y052952D02*
X013362Y053043D01*
X018171Y052852D02*
X018362Y053043D01*
X023071Y052752D02*
X023362Y053043D01*
X023460Y053141D01*
X023460Y054052D01*
X023460Y054452D01*
X023460Y055252D01*
X023710Y055502D01*
X024260Y056052D01*
X024260Y056152D01*
X024260Y056452D01*
X028171Y052852D02*
X028362Y053043D01*
X028360Y053045D01*
X028360Y054152D01*
X028360Y054652D01*
X029260Y055552D01*
X029260Y056252D01*
X029260Y056452D01*
X016260Y035216D02*
X016260Y033352D01*
X016260Y032752D01*
X015360Y031852D01*
X015360Y031452D01*
X015260Y031552D01*
X015260Y031578D01*
X012860Y033352D02*
X012860Y029152D01*
X012460Y028752D01*
X011262Y028752D01*
X011198Y028688D01*
X011260Y028626D01*
X011260Y027552D01*
X011260Y027502D01*
X011260Y025452D01*
X007560Y029152D02*
X007560Y033552D01*
X007560Y034752D01*
X008023Y035216D01*
X009260Y035216D01*
X011260Y035216D02*
X011260Y033352D01*
X011260Y033052D01*
X010360Y032152D01*
X010360Y031352D01*
X010460Y031252D01*
X012860Y033352D02*
X012860Y034652D01*
X013360Y035152D01*
X014260Y035216D01*
D54*
X013362Y053043D02*
X013360Y053045D01*
X013360Y054152D01*
X013410Y054202D01*
X014150Y054942D01*
X014260Y055052D01*
X014260Y056252D01*
X014260Y056452D01*
X018360Y054252D02*
X018360Y054052D01*
X018360Y053045D01*
X018362Y053043D01*
X018360Y054252D02*
X018810Y054702D01*
X019260Y055152D01*
X019260Y056452D01*
M02*
