G75*
%MOIN*%
%OFA0B0*%
%FSLAX24Y24*%
%IPPOS*%
%LPD*%
%AMOC8*
5,1,8,0,0,1.08239X$1,22.5*
%
%ADD10C,0.0100*%
D10*
X003400Y001674D02*
X003400Y029361D01*
X003398Y029469D01*
X003392Y029578D01*
X003383Y029686D01*
X003369Y029793D01*
X003352Y029901D01*
X003331Y030007D01*
X003306Y030113D01*
X003277Y030217D01*
X003244Y030321D01*
X003208Y030423D01*
X003169Y030524D01*
X003125Y030623D01*
X003079Y030721D01*
X003028Y030817D01*
X002975Y030912D01*
X002918Y031004D01*
X002857Y031094D01*
X002794Y031182D01*
X002727Y031268D01*
X002658Y031351D01*
X002585Y031432D01*
X002510Y031510D01*
X002432Y031585D01*
X002351Y031658D01*
X002268Y031727D01*
X002182Y031794D01*
X002094Y031857D01*
X002004Y031918D01*
X001912Y031975D01*
X001817Y032028D01*
X001721Y032079D01*
X001623Y032125D01*
X001524Y032169D01*
X001423Y032208D01*
X001321Y032244D01*
X001217Y032277D01*
X001113Y032306D01*
X001007Y032331D01*
X000901Y032352D01*
X000793Y032369D01*
X000686Y032383D01*
X000578Y032392D01*
X000469Y032398D01*
X000361Y032400D01*
X000150Y032400D01*
X000150Y040900D01*
X040150Y040900D01*
X040150Y032400D01*
X039928Y032400D01*
X039820Y032398D01*
X039712Y032392D01*
X039604Y032383D01*
X039497Y032369D01*
X039390Y032352D01*
X039284Y032331D01*
X039179Y032306D01*
X039075Y032277D01*
X038972Y032245D01*
X038870Y032209D01*
X038769Y032170D01*
X038670Y032126D01*
X038573Y032080D01*
X038477Y032030D01*
X038383Y031976D01*
X038291Y031919D01*
X038201Y031859D01*
X038114Y031796D01*
X038028Y031730D01*
X037946Y031660D01*
X037865Y031588D01*
X037787Y031513D01*
X037712Y031435D01*
X037640Y031355D01*
X037571Y031272D01*
X037505Y031187D01*
X037441Y031099D01*
X037381Y031009D01*
X037325Y030917D01*
X037271Y030823D01*
X037221Y030728D01*
X037174Y030630D01*
X037131Y030531D01*
X037092Y030430D01*
X037056Y030328D01*
X037023Y030225D01*
X036995Y030121D01*
X036970Y030016D01*
X036949Y029910D01*
X036932Y029803D01*
X036918Y029696D01*
X036909Y029588D01*
X036903Y029480D01*
X036901Y029372D01*
X036901Y029373D02*
X036910Y001682D01*
X036909Y001681D02*
X036907Y001604D01*
X036901Y001526D01*
X036891Y001449D01*
X036878Y001373D01*
X036860Y001297D01*
X036839Y001223D01*
X036814Y001149D01*
X036785Y001077D01*
X036753Y001007D01*
X036717Y000938D01*
X036677Y000871D01*
X036635Y000806D01*
X036589Y000744D01*
X036540Y000684D01*
X036488Y000626D01*
X036433Y000571D01*
X036375Y000519D01*
X036315Y000470D01*
X036253Y000424D01*
X036188Y000382D01*
X036121Y000342D01*
X036052Y000306D01*
X035982Y000274D01*
X035910Y000245D01*
X035836Y000220D01*
X035762Y000199D01*
X035686Y000181D01*
X035610Y000168D01*
X035533Y000158D01*
X035455Y000152D01*
X035378Y000150D01*
X004924Y000150D01*
X004847Y000152D01*
X004770Y000158D01*
X004693Y000168D01*
X004617Y000181D01*
X004542Y000199D01*
X004468Y000220D01*
X004395Y000245D01*
X004323Y000274D01*
X004253Y000306D01*
X004184Y000341D01*
X004118Y000381D01*
X004053Y000423D01*
X003991Y000469D01*
X003931Y000518D01*
X003874Y000569D01*
X003819Y000624D01*
X003768Y000681D01*
X003719Y000741D01*
X003673Y000803D01*
X003631Y000868D01*
X003591Y000934D01*
X003556Y001003D01*
X003524Y001073D01*
X003495Y001145D01*
X003470Y001218D01*
X003449Y001292D01*
X003431Y001367D01*
X003418Y001443D01*
X003408Y001520D01*
X003402Y001597D01*
X003400Y001674D01*
X007354Y004135D02*
X007620Y004135D01*
X007487Y004135D02*
X007487Y004535D01*
X007620Y004402D01*
X007814Y004135D02*
X008081Y004135D01*
X007947Y004135D02*
X007947Y004535D01*
X008081Y004402D01*
X008274Y004469D02*
X008341Y004535D01*
X008474Y004535D01*
X008541Y004469D01*
X008541Y004202D01*
X008474Y004135D01*
X008341Y004135D01*
X008274Y004202D01*
X008118Y004674D02*
X007882Y004674D01*
X007882Y005146D02*
X008118Y005146D01*
X008118Y005774D02*
X007882Y005774D01*
X007882Y006246D02*
X008118Y006246D01*
X008087Y006445D02*
X008087Y006845D01*
X008221Y006712D01*
X008414Y006779D02*
X008481Y006845D01*
X008614Y006845D01*
X008681Y006779D01*
X008681Y006512D01*
X008614Y006445D01*
X008481Y006445D01*
X008414Y006512D01*
X008221Y006445D02*
X007954Y006445D01*
X007760Y006512D02*
X007694Y006445D01*
X007560Y006445D01*
X007494Y006512D01*
X007494Y006578D01*
X007560Y006645D01*
X007627Y006645D01*
X007560Y006645D02*
X007494Y006712D01*
X007494Y006779D01*
X007560Y006845D01*
X007694Y006845D01*
X007760Y006779D01*
X009085Y005847D02*
X009085Y005580D01*
X009352Y005847D01*
X009419Y005847D01*
X009485Y005781D01*
X009485Y005647D01*
X009419Y005580D01*
X009419Y005387D02*
X009485Y005320D01*
X009485Y005187D01*
X009419Y005120D01*
X009152Y005120D01*
X009085Y005187D01*
X009085Y005320D01*
X009152Y005387D01*
X009664Y005392D02*
X009664Y005628D01*
X010136Y005628D02*
X010136Y005392D01*
X013122Y008784D02*
X013358Y008784D01*
X013358Y009256D02*
X013122Y009256D01*
X013141Y009395D02*
X013141Y009795D01*
X013341Y009595D01*
X013074Y009595D01*
X012880Y009662D02*
X012747Y009795D01*
X012747Y009395D01*
X012880Y009395D02*
X012614Y009395D01*
X013534Y009395D02*
X013668Y009528D01*
X013601Y009528D02*
X013801Y009528D01*
X013801Y009395D02*
X013801Y009795D01*
X013601Y009795D01*
X013534Y009729D01*
X013534Y009595D01*
X013601Y009528D01*
X014540Y012710D02*
X014540Y013210D01*
X014500Y013620D02*
X014590Y013620D01*
X014580Y013970D02*
X014490Y013970D01*
X014402Y014314D02*
X014638Y014314D01*
X014638Y014786D02*
X014402Y014786D01*
X014373Y015505D02*
X014640Y015505D01*
X014506Y015505D02*
X014506Y015905D01*
X014640Y015772D01*
X014833Y015839D02*
X014900Y015905D01*
X015033Y015905D01*
X015100Y015839D01*
X015100Y015572D01*
X015033Y015505D01*
X014900Y015505D01*
X014833Y015572D01*
X014179Y015572D02*
X014112Y015505D01*
X013979Y015505D01*
X013912Y015572D01*
X013912Y015839D01*
X013979Y015905D01*
X014112Y015905D01*
X014179Y015839D01*
X014179Y015772D01*
X014112Y015705D01*
X013912Y015705D01*
X013482Y015474D02*
X012538Y015474D01*
X012538Y014884D01*
X012297Y014750D02*
X012230Y014817D01*
X012163Y014817D01*
X012096Y014750D01*
X012096Y014616D01*
X012163Y014550D01*
X012230Y014550D01*
X012297Y014616D01*
X012297Y014750D01*
X012096Y014750D02*
X012030Y014817D01*
X011963Y014817D01*
X011896Y014750D01*
X011896Y014616D01*
X011963Y014550D01*
X012030Y014550D01*
X012096Y014616D01*
X011963Y014356D02*
X011896Y014289D01*
X011896Y014156D01*
X011963Y014089D01*
X012230Y014089D01*
X012297Y014156D01*
X012297Y014289D01*
X012230Y014356D01*
X012610Y014340D02*
X013410Y014340D01*
X013482Y014096D02*
X013482Y013663D01*
X013325Y013506D01*
X012695Y013506D01*
X012538Y013663D01*
X012538Y014096D01*
X012747Y013150D02*
X012747Y012750D01*
X012880Y012750D02*
X012614Y012750D01*
X012880Y013017D02*
X012747Y013150D01*
X013074Y013084D02*
X013141Y013150D01*
X013274Y013150D01*
X013341Y013084D01*
X013534Y013084D02*
X013601Y013150D01*
X013734Y013150D01*
X013801Y013084D01*
X013801Y012817D01*
X013734Y012750D01*
X013601Y012750D01*
X013534Y012817D01*
X013341Y012750D02*
X013074Y013017D01*
X013074Y013084D01*
X013074Y012750D02*
X013341Y012750D01*
X013482Y014884D02*
X013482Y015474D01*
X015343Y013874D02*
X015343Y013807D01*
X015410Y013740D01*
X015343Y013673D01*
X015343Y013607D01*
X015410Y013540D01*
X015544Y013540D01*
X015610Y013607D01*
X015477Y013740D02*
X015410Y013740D01*
X015343Y013874D02*
X015410Y013940D01*
X015544Y013940D01*
X015610Y013874D01*
X015804Y013540D02*
X016071Y013540D01*
X016071Y013940D01*
X016424Y014332D02*
X016424Y014568D01*
X016896Y014568D02*
X016896Y014332D01*
X017095Y014350D02*
X017095Y014617D01*
X017095Y014484D02*
X017495Y014484D01*
X017362Y014350D01*
X017429Y014157D02*
X017495Y014090D01*
X017495Y013957D01*
X017429Y013890D01*
X017162Y013890D01*
X017095Y013957D01*
X017095Y014090D01*
X017162Y014157D01*
X017162Y014811D02*
X017228Y014811D01*
X017295Y014878D01*
X017295Y015011D01*
X017228Y015078D01*
X017162Y015078D01*
X017095Y015011D01*
X017095Y014878D01*
X017162Y014811D01*
X017295Y014878D02*
X017362Y014811D01*
X017429Y014811D01*
X017495Y014878D01*
X017495Y015011D01*
X017429Y015078D01*
X017362Y015078D01*
X017295Y015011D01*
X015580Y017660D02*
X015580Y018060D01*
X015380Y018060D01*
X015313Y017994D01*
X015313Y017860D01*
X015380Y017793D01*
X015580Y017793D01*
X015447Y017793D02*
X015313Y017660D01*
X015120Y017660D02*
X014853Y017927D01*
X014853Y017994D01*
X014919Y018060D01*
X015053Y018060D01*
X015120Y017994D01*
X015030Y018290D02*
X014800Y018290D01*
X014592Y018060D02*
X014459Y018060D01*
X014392Y017994D01*
X014392Y017927D01*
X014459Y017860D01*
X014592Y017860D01*
X014659Y017927D01*
X014659Y017994D01*
X014592Y018060D01*
X014592Y017860D02*
X014659Y017793D01*
X014659Y017727D01*
X014592Y017660D01*
X014459Y017660D01*
X014392Y017727D01*
X014392Y017793D01*
X014459Y017860D01*
X014853Y017660D02*
X015120Y017660D01*
X015020Y018790D02*
X014790Y018790D01*
X014790Y019070D02*
X015020Y019070D01*
X015010Y019570D02*
X014780Y019570D01*
X014763Y019830D02*
X015030Y019830D01*
X014763Y020097D01*
X014763Y020164D01*
X014829Y020230D01*
X014963Y020230D01*
X015030Y020164D01*
X015223Y020164D02*
X015223Y020030D01*
X015290Y019963D01*
X015490Y019963D01*
X015490Y019830D02*
X015490Y020230D01*
X015290Y020230D01*
X015223Y020164D01*
X015357Y019963D02*
X015223Y019830D01*
X014569Y019830D02*
X014569Y019897D01*
X014302Y020164D01*
X014302Y020230D01*
X014569Y020230D01*
X017119Y021171D02*
X018301Y021171D01*
X018301Y021289D01*
X017119Y021289D01*
X017119Y021171D01*
X018597Y021203D02*
X018997Y021203D01*
X018597Y021470D01*
X018997Y021470D01*
X018930Y021663D02*
X018997Y021730D01*
X018997Y021864D01*
X018930Y021930D01*
X018864Y021930D01*
X018597Y021663D01*
X018597Y021930D01*
X018597Y021009D02*
X018730Y020876D01*
X018730Y020943D02*
X018730Y020743D01*
X018597Y020743D02*
X018997Y020743D01*
X018997Y020943D01*
X018930Y021009D01*
X018797Y021009D01*
X018730Y020943D01*
X020237Y023179D02*
X020170Y023246D01*
X020170Y023379D01*
X020237Y023446D01*
X020237Y023639D02*
X020170Y023706D01*
X020170Y023839D01*
X020237Y023906D01*
X020303Y023906D01*
X020370Y023839D01*
X020370Y023773D01*
X020370Y023839D02*
X020437Y023906D01*
X020504Y023906D01*
X020570Y023839D01*
X020570Y023706D01*
X020504Y023639D01*
X020504Y023446D02*
X020570Y023379D01*
X020570Y023246D01*
X020504Y023179D01*
X020237Y023179D01*
X020237Y024100D02*
X020170Y024166D01*
X020170Y024300D01*
X020237Y024367D01*
X020303Y024367D01*
X020370Y024300D01*
X020370Y024233D01*
X020370Y024300D02*
X020437Y024367D01*
X020504Y024367D01*
X020570Y024300D01*
X020570Y024166D01*
X020504Y024100D01*
X020650Y024610D02*
X019900Y024610D01*
X019800Y024710D01*
X019800Y025110D01*
X019530Y025058D02*
X019464Y024991D01*
X019530Y025058D02*
X019530Y025191D01*
X019464Y025258D01*
X019397Y025258D01*
X019130Y024991D01*
X019130Y025258D01*
X019130Y024797D02*
X019130Y024530D01*
X019397Y024797D01*
X019464Y024797D01*
X019530Y024731D01*
X019530Y024597D01*
X019464Y024530D01*
X019464Y024337D02*
X019330Y024337D01*
X019263Y024270D01*
X019263Y024070D01*
X019130Y024070D02*
X019530Y024070D01*
X019530Y024270D01*
X019464Y024337D01*
X019263Y024203D02*
X019130Y024337D01*
X020650Y024610D02*
X020800Y024760D01*
X020800Y025060D01*
X020928Y025530D02*
X020928Y026790D01*
X020750Y026660D02*
X019850Y026660D01*
X019850Y025910D01*
X019520Y025990D02*
X019520Y026220D01*
X019020Y026210D02*
X019020Y025980D01*
X019641Y027159D02*
X019956Y027159D01*
X019956Y027395D01*
X019956Y028025D02*
X019956Y028261D01*
X019641Y028261D01*
X019600Y028430D02*
X019333Y028430D01*
X019466Y028430D02*
X019466Y028830D01*
X019600Y028697D01*
X019793Y028764D02*
X019793Y028497D01*
X019860Y028430D01*
X019993Y028430D01*
X020060Y028497D01*
X020060Y028764D01*
X019993Y028830D01*
X019860Y028830D01*
X019793Y028764D01*
X019927Y028563D02*
X019793Y028430D01*
X019880Y029000D02*
X019650Y029000D01*
X019640Y029500D02*
X019870Y029500D01*
X019871Y029780D02*
X019604Y029780D01*
X019410Y029847D02*
X019144Y030114D01*
X019144Y029847D01*
X019210Y029780D01*
X019344Y029780D01*
X019410Y029847D01*
X019410Y030114D01*
X019344Y030180D01*
X019210Y030180D01*
X019144Y030114D01*
X019604Y030114D02*
X019671Y030180D01*
X019804Y030180D01*
X019871Y030114D01*
X020064Y030114D02*
X020064Y029980D01*
X020131Y029913D01*
X020331Y029913D01*
X020331Y029780D02*
X020331Y030180D01*
X020131Y030180D01*
X020064Y030114D01*
X020198Y029913D02*
X020064Y029780D01*
X019871Y029780D02*
X019604Y030047D01*
X019604Y030114D01*
X019780Y030990D02*
X020530Y030990D01*
X019780Y030990D02*
X019780Y031890D01*
X020530Y031890D01*
X019640Y032087D02*
X019573Y032020D01*
X019440Y032020D01*
X019373Y032087D01*
X019373Y032354D01*
X019440Y032420D01*
X019573Y032420D01*
X019640Y032354D01*
X019640Y032087D01*
X019507Y032153D02*
X019373Y032020D01*
X019180Y032087D02*
X019113Y032020D01*
X018979Y032020D01*
X018913Y032087D01*
X018913Y032153D01*
X018979Y032220D01*
X019180Y032220D01*
X019180Y032087D01*
X019180Y032220D02*
X019046Y032354D01*
X018913Y032420D01*
X018649Y033091D02*
X018649Y033406D01*
X018885Y033406D01*
X018251Y033416D02*
X018251Y033101D01*
X018251Y033416D02*
X018015Y033416D01*
X017385Y033416D02*
X017149Y033416D01*
X017149Y033101D01*
X017343Y032370D02*
X017343Y032304D01*
X017610Y032037D01*
X017610Y031970D01*
X017803Y031970D02*
X017937Y032103D01*
X018003Y031970D02*
X018070Y032037D01*
X018070Y032304D01*
X018003Y032370D01*
X017870Y032370D01*
X017803Y032304D01*
X017803Y032037D01*
X017870Y031970D01*
X018003Y031970D01*
X018055Y031426D02*
X018291Y031426D01*
X018291Y031111D01*
X017425Y031426D02*
X017189Y031426D01*
X017189Y031111D01*
X016890Y031214D02*
X016823Y031280D01*
X016690Y031280D01*
X016623Y031214D01*
X016623Y030947D01*
X016690Y030880D01*
X016823Y030880D01*
X016890Y030947D01*
X016890Y031214D01*
X016757Y031013D02*
X016623Y030880D01*
X016430Y030947D02*
X016363Y030880D01*
X016229Y030880D01*
X016163Y030947D01*
X016163Y031080D01*
X016229Y031147D01*
X016296Y031147D01*
X016430Y031080D01*
X016430Y031280D01*
X016163Y031280D01*
X015290Y032117D02*
X015223Y032050D01*
X015090Y032050D01*
X015023Y032117D01*
X015023Y032384D01*
X015090Y032450D01*
X015223Y032450D01*
X015290Y032384D01*
X015290Y032117D01*
X015157Y032183D02*
X015023Y032050D01*
X014830Y032117D02*
X014763Y032050D01*
X014629Y032050D01*
X014563Y032117D01*
X014563Y032183D01*
X014629Y032250D01*
X014696Y032250D01*
X014629Y032250D02*
X014563Y032317D01*
X014563Y032384D01*
X014629Y032450D01*
X014763Y032450D01*
X014830Y032384D01*
X014389Y033161D02*
X014389Y033476D01*
X014625Y033476D01*
X015255Y033476D02*
X015491Y033476D01*
X015491Y033161D01*
X017343Y032370D02*
X017610Y032370D01*
X019515Y033406D02*
X019751Y033406D01*
X019751Y033091D01*
X021380Y031940D02*
X021680Y031940D01*
X021830Y031790D01*
X021830Y031040D01*
X021730Y030940D01*
X021330Y030940D01*
X022049Y031310D02*
X022049Y031710D01*
X022249Y031510D01*
X021982Y031510D01*
X022443Y031443D02*
X022443Y031377D01*
X022509Y031310D01*
X022643Y031310D01*
X022710Y031377D01*
X022576Y031510D02*
X022509Y031510D01*
X022443Y031443D01*
X022509Y031510D02*
X022443Y031577D01*
X022443Y031644D01*
X022509Y031710D01*
X022643Y031710D01*
X022710Y031644D01*
X022903Y031644D02*
X022970Y031710D01*
X023103Y031710D01*
X023170Y031644D01*
X023170Y031377D01*
X023103Y031310D01*
X022970Y031310D01*
X022903Y031377D01*
X019139Y028764D02*
X019139Y028497D01*
X018872Y028764D01*
X018872Y028497D01*
X018939Y028430D01*
X019072Y028430D01*
X019139Y028497D01*
X019139Y028764D02*
X019072Y028830D01*
X018939Y028830D01*
X018872Y028764D01*
X018291Y029091D02*
X018291Y029406D01*
X018055Y029406D01*
X017425Y029406D02*
X017189Y029406D01*
X017189Y029091D01*
X016930Y029044D02*
X016863Y029110D01*
X016730Y029110D01*
X016663Y029044D01*
X016663Y028777D01*
X016730Y028710D01*
X016863Y028710D01*
X016930Y028777D01*
X016930Y029044D01*
X016797Y028843D02*
X016663Y028710D01*
X016470Y028777D02*
X016470Y028843D01*
X016403Y028910D01*
X016269Y028910D01*
X016203Y028843D01*
X016203Y028777D01*
X016269Y028710D01*
X016403Y028710D01*
X016470Y028777D01*
X016403Y028910D02*
X016470Y028977D01*
X016470Y029044D01*
X016403Y029110D01*
X016269Y029110D01*
X016203Y029044D01*
X016203Y028977D01*
X016269Y028910D01*
X016347Y028000D02*
X016347Y027600D01*
X016214Y027600D02*
X016481Y027600D01*
X016674Y027600D02*
X016808Y027733D01*
X016741Y027733D02*
X016941Y027733D01*
X016941Y027600D02*
X016941Y028000D01*
X016741Y028000D01*
X016674Y027934D01*
X016674Y027800D01*
X016741Y027733D01*
X016481Y027867D02*
X016347Y028000D01*
X016020Y028000D02*
X015754Y028000D01*
X015754Y027934D01*
X016020Y027667D01*
X016020Y027600D01*
X017630Y027570D02*
X017860Y027570D01*
X017850Y028070D02*
X017620Y028070D01*
X020750Y026660D02*
X020750Y025910D01*
X021952Y025530D02*
X021952Y026790D01*
X022217Y026746D02*
X022217Y026613D01*
X022284Y026546D01*
X022417Y026546D02*
X022484Y026679D01*
X022484Y026746D01*
X022417Y026813D01*
X022284Y026813D01*
X022217Y026746D01*
X022417Y026546D02*
X022617Y026546D01*
X022617Y026813D01*
X022550Y026352D02*
X022484Y026352D01*
X022417Y026286D01*
X022350Y026352D01*
X022284Y026352D01*
X022217Y026286D01*
X022217Y026152D01*
X022284Y026085D01*
X022417Y026219D02*
X022417Y026286D01*
X022550Y026352D02*
X022617Y026286D01*
X022617Y026152D01*
X022550Y026085D01*
X022550Y025892D02*
X022617Y025825D01*
X022617Y025692D01*
X022550Y025625D01*
X022284Y025625D01*
X022217Y025692D01*
X022217Y025825D01*
X022284Y025892D01*
X013564Y029353D02*
X013564Y029754D01*
X013364Y029754D01*
X013297Y029687D01*
X013297Y029553D01*
X013364Y029487D01*
X013564Y029487D01*
X013430Y029487D02*
X013297Y029353D01*
X013103Y029353D02*
X013103Y029754D01*
X012836Y029353D01*
X012836Y029754D01*
X012643Y029553D02*
X012376Y029553D01*
X012443Y029353D02*
X012443Y029754D01*
X012643Y029553D01*
X011987Y029500D02*
X011787Y029500D01*
X011721Y029567D01*
X011721Y029700D01*
X011787Y029767D01*
X011987Y029767D01*
X011987Y029367D01*
X011854Y029500D02*
X011721Y029367D01*
X011527Y029367D02*
X011527Y029767D01*
X011260Y029367D01*
X011260Y029767D01*
X011067Y029700D02*
X011000Y029767D01*
X010866Y029767D01*
X010800Y029700D01*
X010800Y029634D01*
X010866Y029567D01*
X010800Y029500D01*
X010800Y029433D01*
X010866Y029367D01*
X011000Y029367D01*
X011067Y029433D01*
X010933Y029567D02*
X010866Y029567D01*
X010759Y030461D02*
X010759Y030579D01*
X011941Y030579D01*
X011941Y030461D01*
X010759Y030461D01*
X012269Y030481D02*
X012269Y030599D01*
X013451Y030599D01*
X013451Y030481D01*
X012269Y030481D01*
X008555Y029441D02*
X008489Y029507D01*
X008422Y029507D01*
X008355Y029441D01*
X008288Y029507D01*
X008222Y029507D01*
X008155Y029441D01*
X008155Y029307D01*
X008222Y029240D01*
X008355Y029374D02*
X008355Y029441D01*
X008555Y029441D02*
X008555Y029307D01*
X008489Y029240D01*
X008489Y029047D02*
X008355Y029047D01*
X008288Y028980D01*
X008288Y028780D01*
X008155Y028780D02*
X008555Y028780D01*
X008555Y028980D01*
X008489Y029047D01*
X008288Y028913D02*
X008155Y029047D01*
X007966Y029002D02*
X007966Y029238D01*
X007494Y029238D02*
X007494Y029002D01*
X007460Y027910D02*
X007660Y027710D01*
X007393Y027710D01*
X007460Y027510D02*
X007460Y027910D01*
X007854Y027844D02*
X007921Y027910D01*
X008121Y027910D01*
X008121Y027510D01*
X007921Y027510D01*
X007854Y027577D01*
X007854Y027844D01*
X008026Y027194D02*
X008026Y026406D01*
X008696Y026288D02*
X008696Y026229D01*
X006884Y026229D01*
X006884Y026288D01*
X007253Y025712D02*
X007686Y025712D01*
X007930Y025640D02*
X007930Y024840D01*
X007686Y024768D02*
X007253Y024768D01*
X007096Y024925D01*
X007096Y025555D01*
X007253Y025712D01*
X006866Y024988D02*
X006866Y024752D01*
X006394Y024752D02*
X006394Y024988D01*
X006283Y024155D02*
X006550Y024155D01*
X006550Y023955D01*
X006416Y024022D01*
X006349Y024022D01*
X006283Y023955D01*
X006283Y023822D01*
X006349Y023755D01*
X006483Y023755D01*
X006550Y023822D01*
X006743Y023822D02*
X006810Y023755D01*
X006943Y023755D01*
X007010Y023822D01*
X007010Y024089D01*
X006943Y024155D01*
X006810Y024155D01*
X006743Y024089D01*
X006730Y023437D02*
X006730Y023170D01*
X006730Y023304D02*
X007130Y023304D01*
X006997Y023170D01*
X007064Y022977D02*
X006797Y022977D01*
X006730Y022910D01*
X006730Y022777D01*
X006797Y022710D01*
X007064Y022710D01*
X007130Y022777D01*
X007130Y022910D01*
X007064Y022977D01*
X006863Y022843D02*
X006730Y022977D01*
X006501Y023011D02*
X006501Y023326D01*
X006265Y023326D01*
X005635Y023326D02*
X005399Y023326D01*
X005399Y023011D01*
X005832Y022236D02*
X006068Y022236D01*
X006068Y021764D02*
X005832Y021764D01*
X006054Y021038D02*
X006054Y020802D01*
X006526Y020802D02*
X006526Y021038D01*
X006880Y021385D02*
X006880Y021785D01*
X007080Y021585D01*
X006813Y021585D01*
X007274Y021585D02*
X007341Y021518D01*
X007541Y021518D01*
X007541Y021385D02*
X007541Y021785D01*
X007341Y021785D01*
X007274Y021719D01*
X007274Y021585D01*
X007407Y021518D02*
X007274Y021385D01*
X006459Y020197D02*
X006392Y020197D01*
X006125Y019930D01*
X006125Y020197D01*
X006459Y020197D02*
X006525Y020131D01*
X006525Y019997D01*
X006459Y019930D01*
X006459Y019737D02*
X006325Y019737D01*
X006258Y019670D01*
X006258Y019470D01*
X006125Y019470D02*
X006525Y019470D01*
X006525Y019670D01*
X006459Y019737D01*
X006258Y019603D02*
X006125Y019737D01*
X007214Y014858D02*
X007214Y014622D01*
X007352Y014087D02*
X007285Y014020D01*
X007285Y013886D01*
X007352Y013820D01*
X007619Y014087D01*
X007352Y014087D01*
X007619Y014087D02*
X007685Y014020D01*
X007685Y013886D01*
X007619Y013820D01*
X007352Y013820D01*
X007485Y013626D02*
X007485Y013359D01*
X007685Y013559D01*
X007285Y013559D01*
X007285Y013166D02*
X007418Y013032D01*
X007418Y013099D02*
X007418Y012899D01*
X007285Y012899D02*
X007685Y012899D01*
X007685Y013099D01*
X007619Y013166D01*
X007485Y013166D01*
X007418Y013099D01*
X007686Y014622D02*
X007686Y014858D01*
X008474Y024768D02*
X009064Y024768D01*
X009064Y025712D01*
X008474Y025712D01*
X009243Y025286D02*
X009510Y025286D01*
X009310Y025487D01*
X009310Y025086D01*
X009704Y025153D02*
X009771Y025086D01*
X009904Y025086D01*
X009971Y025153D01*
X009971Y025420D01*
X009904Y025487D01*
X009771Y025487D01*
X009704Y025420D01*
X008696Y027312D02*
X008696Y027371D01*
X006884Y027371D01*
X006884Y027312D01*
X006864Y030932D02*
X006864Y031168D01*
X007336Y031168D02*
X007336Y030932D01*
X007814Y030962D02*
X007814Y031198D01*
X008286Y031198D02*
X008286Y030962D01*
X008245Y031740D02*
X007845Y031740D01*
X007978Y031740D02*
X007978Y031940D01*
X008045Y032007D01*
X008179Y032007D01*
X008245Y031940D01*
X008245Y031740D01*
X007978Y031873D02*
X007845Y032007D01*
X007845Y032200D02*
X007912Y032200D01*
X008179Y032467D01*
X008245Y032467D01*
X008245Y032200D01*
X007165Y032314D02*
X006765Y032314D01*
X006765Y032447D02*
X006765Y032180D01*
X006765Y031987D02*
X006898Y031853D01*
X006898Y031920D02*
X006898Y031720D01*
X006765Y031720D02*
X007165Y031720D01*
X007165Y031920D01*
X007099Y031987D01*
X006965Y031987D01*
X006898Y031920D01*
X007032Y032180D02*
X007165Y032314D01*
X029740Y036620D02*
X029740Y036850D01*
X030240Y036860D02*
X030240Y036630D01*
X030190Y037619D02*
X029790Y037619D01*
X029923Y037619D02*
X029923Y037819D01*
X029990Y037886D01*
X030124Y037886D01*
X030190Y037819D01*
X030190Y037619D01*
X029923Y037752D02*
X029790Y037886D01*
X029857Y038079D02*
X029790Y038146D01*
X029790Y038279D01*
X029857Y038346D01*
X029923Y038346D01*
X029990Y038279D01*
X029990Y038213D01*
X029990Y038279D02*
X030057Y038346D01*
X030124Y038346D01*
X030190Y038279D01*
X030190Y038146D01*
X030124Y038079D01*
X030124Y038540D02*
X030190Y038606D01*
X030190Y038740D01*
X030124Y038807D01*
X030057Y038807D01*
X029790Y038540D01*
X029790Y038807D01*
M02*
