G75*
%MOIN*%
%OFA0B0*%
%FSLAX24Y24*%
%IPPOS*%
%LPD*%
%AMOC8*
5,1,8,0,0,1.08239X$1,22.5*
%
%ADD10C,0.0050*%
%ADD11C,0.0000*%
D10*
X003400Y001674D02*
X003400Y029361D01*
X003398Y029469D01*
X003392Y029578D01*
X003383Y029686D01*
X003369Y029793D01*
X003352Y029901D01*
X003331Y030007D01*
X003306Y030113D01*
X003277Y030217D01*
X003244Y030321D01*
X003208Y030423D01*
X003169Y030524D01*
X003125Y030623D01*
X003079Y030721D01*
X003028Y030817D01*
X002975Y030912D01*
X002918Y031004D01*
X002857Y031094D01*
X002794Y031182D01*
X002727Y031268D01*
X002658Y031351D01*
X002585Y031432D01*
X002510Y031510D01*
X002432Y031585D01*
X002351Y031658D01*
X002268Y031727D01*
X002182Y031794D01*
X002094Y031857D01*
X002004Y031918D01*
X001912Y031975D01*
X001817Y032028D01*
X001721Y032079D01*
X001623Y032125D01*
X001524Y032169D01*
X001423Y032208D01*
X001321Y032244D01*
X001217Y032277D01*
X001113Y032306D01*
X001007Y032331D01*
X000901Y032352D01*
X000793Y032369D01*
X000686Y032383D01*
X000578Y032392D01*
X000469Y032398D01*
X000361Y032400D01*
X000150Y032400D01*
X000150Y040900D01*
X040150Y040900D01*
X040150Y032400D01*
X039928Y032400D01*
X039820Y032398D01*
X039712Y032392D01*
X039604Y032383D01*
X039497Y032369D01*
X039390Y032352D01*
X039284Y032331D01*
X039179Y032306D01*
X039075Y032277D01*
X038972Y032245D01*
X038870Y032209D01*
X038769Y032170D01*
X038670Y032126D01*
X038573Y032080D01*
X038477Y032030D01*
X038383Y031976D01*
X038291Y031919D01*
X038201Y031859D01*
X038114Y031796D01*
X038028Y031730D01*
X037946Y031660D01*
X037865Y031588D01*
X037787Y031513D01*
X037712Y031435D01*
X037640Y031355D01*
X037571Y031272D01*
X037505Y031187D01*
X037441Y031099D01*
X037381Y031009D01*
X037325Y030917D01*
X037271Y030823D01*
X037221Y030728D01*
X037174Y030630D01*
X037131Y030531D01*
X037092Y030430D01*
X037056Y030328D01*
X037023Y030225D01*
X036995Y030121D01*
X036970Y030016D01*
X036949Y029910D01*
X036932Y029803D01*
X036918Y029696D01*
X036909Y029588D01*
X036903Y029480D01*
X036901Y029372D01*
X036901Y029373D02*
X036910Y001682D01*
X036909Y001681D02*
X036907Y001604D01*
X036901Y001526D01*
X036891Y001449D01*
X036878Y001373D01*
X036860Y001297D01*
X036839Y001223D01*
X036814Y001149D01*
X036785Y001077D01*
X036753Y001007D01*
X036717Y000938D01*
X036677Y000871D01*
X036635Y000806D01*
X036589Y000744D01*
X036540Y000684D01*
X036488Y000626D01*
X036433Y000571D01*
X036375Y000519D01*
X036315Y000470D01*
X036253Y000424D01*
X036188Y000382D01*
X036121Y000342D01*
X036052Y000306D01*
X035982Y000274D01*
X035910Y000245D01*
X035836Y000220D01*
X035762Y000199D01*
X035686Y000181D01*
X035610Y000168D01*
X035533Y000158D01*
X035455Y000152D01*
X035378Y000150D01*
X004924Y000150D01*
X004847Y000152D01*
X004770Y000158D01*
X004693Y000168D01*
X004617Y000181D01*
X004542Y000199D01*
X004468Y000220D01*
X004395Y000245D01*
X004323Y000274D01*
X004253Y000306D01*
X004184Y000341D01*
X004118Y000381D01*
X004053Y000423D01*
X003991Y000469D01*
X003931Y000518D01*
X003874Y000569D01*
X003819Y000624D01*
X003768Y000681D01*
X003719Y000741D01*
X003673Y000803D01*
X003631Y000868D01*
X003591Y000934D01*
X003556Y001003D01*
X003524Y001073D01*
X003495Y001145D01*
X003470Y001218D01*
X003449Y001292D01*
X003431Y001367D01*
X003418Y001443D01*
X003408Y001520D01*
X003402Y001597D01*
X003400Y001674D01*
D11*
X010750Y037150D02*
X010752Y037202D01*
X010758Y037254D01*
X010768Y037306D01*
X010781Y037356D01*
X010798Y037406D01*
X010819Y037454D01*
X010844Y037500D01*
X010872Y037544D01*
X010903Y037586D01*
X010937Y037626D01*
X010974Y037663D01*
X011014Y037697D01*
X011056Y037728D01*
X011100Y037756D01*
X011146Y037781D01*
X011194Y037802D01*
X011244Y037819D01*
X011294Y037832D01*
X011346Y037842D01*
X011398Y037848D01*
X011450Y037850D01*
X011502Y037848D01*
X011554Y037842D01*
X011606Y037832D01*
X011656Y037819D01*
X011706Y037802D01*
X011754Y037781D01*
X011800Y037756D01*
X011844Y037728D01*
X011886Y037697D01*
X011926Y037663D01*
X011963Y037626D01*
X011997Y037586D01*
X012028Y037544D01*
X012056Y037500D01*
X012081Y037454D01*
X012102Y037406D01*
X012119Y037356D01*
X012132Y037306D01*
X012142Y037254D01*
X012148Y037202D01*
X012150Y037150D01*
X012148Y037098D01*
X012142Y037046D01*
X012132Y036994D01*
X012119Y036944D01*
X012102Y036894D01*
X012081Y036846D01*
X012056Y036800D01*
X012028Y036756D01*
X011997Y036714D01*
X011963Y036674D01*
X011926Y036637D01*
X011886Y036603D01*
X011844Y036572D01*
X011800Y036544D01*
X011754Y036519D01*
X011706Y036498D01*
X011656Y036481D01*
X011606Y036468D01*
X011554Y036458D01*
X011502Y036452D01*
X011450Y036450D01*
X011398Y036452D01*
X011346Y036458D01*
X011294Y036468D01*
X011244Y036481D01*
X011194Y036498D01*
X011146Y036519D01*
X011100Y036544D01*
X011056Y036572D01*
X011014Y036603D01*
X010974Y036637D01*
X010937Y036674D01*
X010903Y036714D01*
X010872Y036756D01*
X010844Y036800D01*
X010819Y036846D01*
X010798Y036894D01*
X010781Y036944D01*
X010768Y036994D01*
X010758Y037046D01*
X010752Y037098D01*
X010750Y037150D01*
X031250Y037150D02*
X031252Y037202D01*
X031258Y037254D01*
X031268Y037306D01*
X031281Y037356D01*
X031298Y037406D01*
X031319Y037454D01*
X031344Y037500D01*
X031372Y037544D01*
X031403Y037586D01*
X031437Y037626D01*
X031474Y037663D01*
X031514Y037697D01*
X031556Y037728D01*
X031600Y037756D01*
X031646Y037781D01*
X031694Y037802D01*
X031744Y037819D01*
X031794Y037832D01*
X031846Y037842D01*
X031898Y037848D01*
X031950Y037850D01*
X032002Y037848D01*
X032054Y037842D01*
X032106Y037832D01*
X032156Y037819D01*
X032206Y037802D01*
X032254Y037781D01*
X032300Y037756D01*
X032344Y037728D01*
X032386Y037697D01*
X032426Y037663D01*
X032463Y037626D01*
X032497Y037586D01*
X032528Y037544D01*
X032556Y037500D01*
X032581Y037454D01*
X032602Y037406D01*
X032619Y037356D01*
X032632Y037306D01*
X032642Y037254D01*
X032648Y037202D01*
X032650Y037150D01*
X032648Y037098D01*
X032642Y037046D01*
X032632Y036994D01*
X032619Y036944D01*
X032602Y036894D01*
X032581Y036846D01*
X032556Y036800D01*
X032528Y036756D01*
X032497Y036714D01*
X032463Y036674D01*
X032426Y036637D01*
X032386Y036603D01*
X032344Y036572D01*
X032300Y036544D01*
X032254Y036519D01*
X032206Y036498D01*
X032156Y036481D01*
X032106Y036468D01*
X032054Y036458D01*
X032002Y036452D01*
X031950Y036450D01*
X031898Y036452D01*
X031846Y036458D01*
X031794Y036468D01*
X031744Y036481D01*
X031694Y036498D01*
X031646Y036519D01*
X031600Y036544D01*
X031556Y036572D01*
X031514Y036603D01*
X031474Y036637D01*
X031437Y036674D01*
X031403Y036714D01*
X031372Y036756D01*
X031344Y036800D01*
X031319Y036846D01*
X031298Y036894D01*
X031281Y036944D01*
X031268Y036994D01*
X031258Y037046D01*
X031252Y037098D01*
X031250Y037150D01*
M02*
