G75*
%MOIN*%
%OFA0B0*%
%FSLAX24Y24*%
%IPPOS*%
%LPD*%
%AMOC8*
5,1,8,0,0,1.08239X$1,22.5*
%
%ADD10R,0.0059X0.0118*%
%ADD11R,0.0118X0.0118*%
%ADD12C,0.0100*%
%ADD13R,0.0079X0.0079*%
%ADD14R,0.0300X0.0340*%
%ADD15R,0.0118X0.0059*%
%ADD16R,0.0070X0.0003*%
%ADD17R,0.0065X0.0003*%
%ADD18R,0.0105X0.0003*%
%ADD19R,0.0095X0.0003*%
%ADD20R,0.0133X0.0003*%
%ADD21R,0.0118X0.0003*%
%ADD22R,0.0150X0.0003*%
%ADD23R,0.0138X0.0003*%
%ADD24R,0.0170X0.0003*%
%ADD25R,0.0153X0.0003*%
%ADD26R,0.0123X0.0003*%
%ADD27R,0.0125X0.0003*%
%ADD28R,0.0127X0.0003*%
%ADD29R,0.0182X0.0003*%
%ADD30R,0.0115X0.0003*%
%ADD31R,0.0168X0.0003*%
%ADD32R,0.0080X0.0003*%
%ADD33R,0.0430X0.0003*%
%ADD34R,0.0140X0.0003*%
%ADD35R,0.0198X0.0003*%
%ADD36R,0.0180X0.0003*%
%ADD37R,0.0077X0.0003*%
%ADD38R,0.0143X0.0003*%
%ADD39R,0.0210X0.0003*%
%ADD40R,0.0193X0.0003*%
%ADD41R,0.0145X0.0003*%
%ADD42R,0.0222X0.0003*%
%ADD43R,0.0203X0.0003*%
%ADD44R,0.0233X0.0003*%
%ADD45R,0.0213X0.0003*%
%ADD46R,0.0147X0.0003*%
%ADD47R,0.0120X0.0003*%
%ADD48R,0.0243X0.0003*%
%ADD49R,0.0083X0.0003*%
%ADD50R,0.0253X0.0003*%
%ADD51R,0.0230X0.0003*%
%ADD52R,0.0262X0.0003*%
%ADD53R,0.0135X0.0003*%
%ADD54R,0.0240X0.0003*%
%ADD55R,0.0270X0.0003*%
%ADD56R,0.0248X0.0003*%
%ADD57R,0.0155X0.0003*%
%ADD58R,0.0278X0.0003*%
%ADD59R,0.0255X0.0003*%
%ADD60R,0.0288X0.0003*%
%ADD61R,0.0085X0.0003*%
%ADD62R,0.0295X0.0003*%
%ADD63R,0.0158X0.0003*%
%ADD64R,0.0302X0.0003*%
%ADD65R,0.0275X0.0003*%
%ADD66R,0.0308X0.0003*%
%ADD67R,0.0283X0.0003*%
%ADD68R,0.0160X0.0003*%
%ADD69R,0.0315X0.0003*%
%ADD70R,0.0163X0.0003*%
%ADD71R,0.0320X0.0003*%
%ADD72R,0.0293X0.0003*%
%ADD73R,0.0328X0.0003*%
%ADD74R,0.0300X0.0003*%
%ADD75R,0.0088X0.0003*%
%ADD76R,0.0165X0.0003*%
%ADD77R,0.0335X0.0003*%
%ADD78R,0.0305X0.0003*%
%ADD79R,0.0340X0.0003*%
%ADD80R,0.0310X0.0003*%
%ADD81R,0.0345X0.0003*%
%ADD82R,0.0318X0.0003*%
%ADD83R,0.0350X0.0003*%
%ADD84R,0.0323X0.0003*%
%ADD85R,0.0173X0.0003*%
%ADD86R,0.0355X0.0003*%
%ADD87R,0.0325X0.0003*%
%ADD88R,0.0090X0.0003*%
%ADD89R,0.0362X0.0003*%
%ADD90R,0.0330X0.0003*%
%ADD91R,0.0175X0.0003*%
%ADD92R,0.0367X0.0003*%
%ADD93R,0.0177X0.0003*%
%ADD94R,0.0370X0.0003*%
%ADD95R,0.0343X0.0003*%
%ADD96R,0.0375X0.0003*%
%ADD97R,0.0380X0.0003*%
%ADD98R,0.0385X0.0003*%
%ADD99R,0.0445X0.0003*%
%ADD100R,0.0390X0.0003*%
%ADD101R,0.0447X0.0003*%
%ADD102R,0.0393X0.0003*%
%ADD103R,0.0450X0.0003*%
%ADD104R,0.0185X0.0003*%
%ADD105R,0.0398X0.0003*%
%ADD106R,0.0452X0.0003*%
%ADD107R,0.0400X0.0003*%
%ADD108R,0.0187X0.0003*%
%ADD109R,0.0408X0.0003*%
%ADD110R,0.0457X0.0003*%
%ADD111R,0.0190X0.0003*%
%ADD112R,0.0410X0.0003*%
%ADD113R,0.0413X0.0003*%
%ADD114R,0.0460X0.0003*%
%ADD115R,0.0418X0.0003*%
%ADD116R,0.0462X0.0003*%
%ADD117R,0.0195X0.0003*%
%ADD118R,0.0420X0.0003*%
%ADD119R,0.0423X0.0003*%
%ADD120R,0.0465X0.0003*%
%ADD121R,0.0428X0.0003*%
%ADD122R,0.0468X0.0003*%
%ADD123R,0.0200X0.0003*%
%ADD124R,0.0217X0.0003*%
%ADD125R,0.0205X0.0003*%
%ADD126R,0.0208X0.0003*%
%ADD127R,0.0215X0.0003*%
%ADD128R,0.0220X0.0003*%
%ADD129R,0.0225X0.0003*%
%ADD130R,0.0227X0.0003*%
%ADD131R,0.0130X0.0003*%
%ADD132R,0.0235X0.0003*%
%ADD133R,0.0238X0.0003*%
%ADD134R,0.0245X0.0003*%
%ADD135R,0.0250X0.0003*%
%ADD136R,0.0113X0.0003*%
%ADD137R,0.0440X0.0003*%
%ADD138R,0.0435X0.0003*%
%ADD139R,0.0432X0.0003*%
%ADD140R,0.0425X0.0003*%
%ADD141R,0.0415X0.0003*%
%ADD142R,0.0405X0.0003*%
%ADD143R,0.0395X0.0003*%
%ADD144R,0.0382X0.0003*%
%ADD145R,0.0403X0.0003*%
%ADD146R,0.0437X0.0003*%
%ADD147R,0.0455X0.0003*%
%ADD148R,0.0442X0.0003*%
%ADD149R,0.0388X0.0003*%
%ADD150R,0.0377X0.0003*%
%ADD151R,0.0372X0.0003*%
%ADD152R,0.0365X0.0003*%
%ADD153R,0.0360X0.0003*%
%ADD154R,0.0357X0.0003*%
%ADD155R,0.0352X0.0003*%
%ADD156R,0.0348X0.0003*%
%ADD157R,0.0338X0.0003*%
%ADD158R,0.0333X0.0003*%
%ADD159R,0.0313X0.0003*%
%ADD160R,0.0297X0.0003*%
%ADD161R,0.0290X0.0003*%
%ADD162R,0.0273X0.0003*%
%ADD163R,0.0267X0.0003*%
%ADD164R,0.0257X0.0003*%
%ADD165R,0.0057X0.0003*%
%ADD166R,0.0055X0.0003*%
%ADD167R,0.0005X0.0003*%
%ADD168C,0.0240*%
%ADD169C,0.0256*%
%ADD170R,0.0200X0.0050*%
%ADD171C,0.0080*%
D10*
X030064Y031391D03*
X030536Y031391D03*
X032364Y014091D03*
X032836Y014091D03*
X034334Y014081D03*
X034806Y014081D03*
D11*
X034570Y014081D03*
X032600Y014091D03*
X019459Y011360D03*
X030300Y031391D03*
D12*
X003400Y029361D02*
X003400Y001674D01*
X003402Y001597D01*
X003408Y001520D01*
X003418Y001443D01*
X003431Y001367D01*
X003449Y001292D01*
X003470Y001218D01*
X003495Y001145D01*
X003524Y001073D01*
X003556Y001003D01*
X003591Y000934D01*
X003631Y000868D01*
X003673Y000803D01*
X003719Y000741D01*
X003768Y000681D01*
X003819Y000624D01*
X003874Y000569D01*
X003931Y000518D01*
X003991Y000469D01*
X004053Y000423D01*
X004118Y000381D01*
X004184Y000341D01*
X004253Y000306D01*
X004323Y000274D01*
X004395Y000245D01*
X004468Y000220D01*
X004542Y000199D01*
X004617Y000181D01*
X004693Y000168D01*
X004770Y000158D01*
X004847Y000152D01*
X004924Y000150D01*
X005150Y000150D01*
X005150Y034150D01*
X035150Y034150D01*
X035150Y000150D01*
X005150Y000150D01*
X005628Y001126D02*
X005628Y001716D01*
X005700Y002260D02*
X006500Y002260D01*
X006572Y002504D02*
X006572Y002937D01*
X006415Y003094D01*
X005785Y003094D01*
X005628Y002937D01*
X005628Y002504D01*
X005600Y003510D02*
X005600Y004010D01*
X006100Y004010D01*
X006100Y007010D01*
X005600Y007010D01*
X005600Y007510D01*
X007800Y007510D01*
X007800Y003510D01*
X005600Y003510D01*
X005600Y004010D02*
X005600Y007010D01*
X006003Y009340D02*
X006070Y009407D01*
X006070Y009473D01*
X006003Y009540D01*
X005670Y009540D01*
X005670Y009473D02*
X005670Y009607D01*
X005670Y009800D02*
X005670Y010001D01*
X005736Y010067D01*
X005870Y010067D01*
X005937Y010001D01*
X005937Y009800D01*
X006070Y009800D02*
X005670Y009800D01*
X005736Y010261D02*
X005803Y010261D01*
X005870Y010328D01*
X005870Y010528D01*
X006003Y010528D02*
X005736Y010528D01*
X005670Y010461D01*
X005670Y010328D01*
X005736Y010261D01*
X006003Y010261D02*
X006070Y010328D01*
X006070Y010461D01*
X006003Y010528D01*
X006190Y010790D02*
X005800Y010790D01*
X005690Y010900D01*
X006190Y010890D02*
X006190Y010790D01*
X006580Y010790D01*
X006690Y010900D01*
X007216Y010287D02*
X007150Y010220D01*
X007150Y010086D01*
X007216Y010020D01*
X007216Y009826D02*
X007150Y009759D01*
X007150Y009626D01*
X007216Y009559D01*
X007283Y009559D01*
X007350Y009626D01*
X007350Y009759D01*
X007417Y009826D01*
X007483Y009826D01*
X007550Y009759D01*
X007550Y009626D01*
X007483Y009559D01*
X007920Y009617D02*
X007920Y010410D01*
X007550Y010287D02*
X007550Y010020D01*
X007283Y010287D01*
X007216Y010287D01*
X008270Y011210D02*
X009970Y011210D01*
X010320Y010410D02*
X010320Y009605D01*
X009970Y008810D02*
X008270Y008810D01*
X009099Y008490D02*
X009366Y008490D01*
X009232Y008490D02*
X009232Y008090D01*
X009559Y008090D02*
X009826Y008490D01*
X010020Y008424D02*
X010086Y008490D01*
X010220Y008490D01*
X010286Y008424D01*
X010286Y008357D01*
X010020Y008090D01*
X010286Y008090D01*
X009826Y008090D02*
X009559Y008490D01*
X010860Y008530D02*
X010860Y008130D01*
X010860Y008263D02*
X011060Y008263D01*
X011127Y008330D01*
X011127Y008464D01*
X011060Y008530D01*
X010860Y008530D01*
X010993Y008263D02*
X011127Y008130D01*
X011320Y008130D02*
X011587Y008130D01*
X011454Y008130D02*
X011454Y008530D01*
X011320Y008397D01*
X011290Y007940D02*
X011510Y007940D01*
X011781Y008197D02*
X011848Y008130D01*
X011981Y008130D01*
X012048Y008197D01*
X012048Y008330D01*
X011981Y008397D01*
X011914Y008397D01*
X011781Y008330D01*
X011781Y008530D01*
X012048Y008530D01*
X011875Y009286D02*
X011245Y009286D01*
X011245Y009287D02*
X011229Y009292D01*
X011213Y009300D01*
X011199Y009310D01*
X011187Y009322D01*
X011177Y009337D01*
X011170Y009353D01*
X011166Y009370D01*
X011165Y009387D01*
X011167Y009405D01*
X011167Y009955D02*
X011165Y009973D01*
X011166Y009990D01*
X011170Y010007D01*
X011177Y010023D01*
X011187Y010038D01*
X011199Y010050D01*
X011213Y010060D01*
X011229Y010068D01*
X011245Y010073D01*
X011245Y010074D02*
X011875Y010074D01*
X011875Y010073D02*
X011893Y010067D01*
X011911Y010058D01*
X011926Y010046D01*
X011938Y010030D01*
X011947Y010013D01*
X011953Y009994D01*
X011955Y009975D01*
X011953Y009955D01*
X012150Y010109D02*
X012150Y009771D01*
X011953Y009405D02*
X011955Y009385D01*
X011953Y009366D01*
X011947Y009347D01*
X011938Y009330D01*
X011926Y009314D01*
X011911Y009302D01*
X011893Y009293D01*
X011875Y009287D01*
X012604Y010259D02*
X012816Y010259D01*
X013270Y010109D02*
X013270Y009771D01*
X013500Y009676D02*
X013833Y009676D01*
X013900Y009609D01*
X013900Y009476D01*
X013833Y009409D01*
X013500Y009409D01*
X013566Y009870D02*
X013633Y009870D01*
X013700Y009936D01*
X013700Y010137D01*
X013833Y010137D02*
X013566Y010137D01*
X013500Y010070D01*
X013500Y009936D01*
X013566Y009870D01*
X013833Y009870D02*
X013900Y009936D01*
X013900Y010070D01*
X013833Y010137D01*
X013528Y011660D02*
X013370Y011818D01*
X013370Y015282D01*
X013528Y015440D01*
X016992Y015440D01*
X017150Y015282D01*
X017150Y011818D01*
X016992Y011660D01*
X013528Y011660D01*
X011680Y011544D02*
X011680Y011277D01*
X011680Y011411D02*
X011280Y011411D01*
X011413Y011277D01*
X011280Y011084D02*
X011280Y010950D01*
X011280Y011017D02*
X011613Y011017D01*
X011680Y010950D01*
X011680Y010883D01*
X011613Y010817D01*
X011613Y010623D02*
X011680Y010556D01*
X011680Y010423D01*
X011613Y010356D01*
X011480Y010423D02*
X011480Y010556D01*
X011547Y010623D01*
X011613Y010623D01*
X011480Y010423D02*
X011413Y010356D01*
X011346Y010356D01*
X011280Y010423D01*
X011280Y010556D01*
X011346Y010623D01*
X008420Y010010D02*
X008422Y010062D01*
X008428Y010114D01*
X008438Y010166D01*
X008451Y010216D01*
X008468Y010266D01*
X008489Y010314D01*
X008514Y010360D01*
X008542Y010404D01*
X008573Y010446D01*
X008607Y010486D01*
X008644Y010523D01*
X008684Y010557D01*
X008726Y010588D01*
X008770Y010616D01*
X008816Y010641D01*
X008864Y010662D01*
X008914Y010679D01*
X008964Y010692D01*
X009016Y010702D01*
X009068Y010708D01*
X009120Y010710D01*
X009172Y010708D01*
X009224Y010702D01*
X009276Y010692D01*
X009326Y010679D01*
X009376Y010662D01*
X009424Y010641D01*
X009470Y010616D01*
X009514Y010588D01*
X009556Y010557D01*
X009596Y010523D01*
X009633Y010486D01*
X009667Y010446D01*
X009698Y010404D01*
X009726Y010360D01*
X009751Y010314D01*
X009772Y010266D01*
X009789Y010216D01*
X009802Y010166D01*
X009812Y010114D01*
X009818Y010062D01*
X009820Y010010D01*
X009818Y009958D01*
X009812Y009906D01*
X009802Y009854D01*
X009789Y009804D01*
X009772Y009754D01*
X009751Y009706D01*
X009726Y009660D01*
X009698Y009616D01*
X009667Y009574D01*
X009633Y009534D01*
X009596Y009497D01*
X009556Y009463D01*
X009514Y009432D01*
X009470Y009404D01*
X009424Y009379D01*
X009376Y009358D01*
X009326Y009341D01*
X009276Y009328D01*
X009224Y009318D01*
X009172Y009312D01*
X009120Y009310D01*
X009068Y009312D01*
X009016Y009318D01*
X008964Y009328D01*
X008914Y009341D01*
X008864Y009358D01*
X008816Y009379D01*
X008770Y009404D01*
X008726Y009432D01*
X008684Y009463D01*
X008644Y009497D01*
X008607Y009534D01*
X008573Y009574D01*
X008542Y009616D01*
X008514Y009660D01*
X008489Y009706D01*
X008468Y009754D01*
X008451Y009804D01*
X008438Y009854D01*
X008428Y009906D01*
X008422Y009958D01*
X008420Y010010D01*
X006190Y011690D02*
X006190Y011890D01*
X006190Y012690D02*
X006190Y012890D01*
X006190Y013690D02*
X006190Y013890D01*
X006190Y014690D02*
X006190Y014890D01*
X006190Y015690D02*
X006190Y015790D01*
X005800Y015790D01*
X005690Y015680D01*
X006190Y015790D02*
X006580Y015790D01*
X006690Y015680D01*
X006856Y016230D02*
X006790Y016297D01*
X006790Y016430D01*
X006856Y016497D01*
X006856Y016690D02*
X006790Y016757D01*
X006790Y016891D01*
X006856Y016957D01*
X006923Y016957D01*
X007190Y016690D01*
X007190Y016957D01*
X007190Y017151D02*
X006923Y017418D01*
X006856Y017418D01*
X006790Y017351D01*
X006790Y017218D01*
X006856Y017151D01*
X007190Y017151D02*
X007190Y017418D01*
X006820Y017865D02*
X006686Y017865D01*
X006620Y017932D01*
X006886Y018199D01*
X006886Y017932D01*
X006820Y017865D01*
X006620Y017932D02*
X006620Y018199D01*
X006686Y018265D01*
X006820Y018265D01*
X006886Y018199D01*
X006468Y018464D02*
X006232Y018464D01*
X006293Y018265D02*
X006293Y017865D01*
X006426Y017865D02*
X006159Y017865D01*
X005966Y017865D02*
X005832Y017998D01*
X005899Y017998D02*
X005699Y017998D01*
X005699Y017865D02*
X005699Y018265D01*
X005899Y018265D01*
X005966Y018199D01*
X005966Y018065D01*
X005899Y017998D01*
X006159Y018132D02*
X006293Y018265D01*
X006232Y018936D02*
X006468Y018936D01*
X006901Y019811D02*
X006901Y020126D01*
X006665Y020126D01*
X006072Y020530D02*
X005805Y020530D01*
X006006Y020730D01*
X006006Y020330D01*
X006035Y020126D02*
X005799Y020126D01*
X005799Y019811D01*
X005612Y020330D02*
X005478Y020463D01*
X005412Y020330D02*
X005345Y020397D01*
X005345Y020664D01*
X005412Y020730D01*
X005545Y020730D01*
X005612Y020664D01*
X005612Y020397D01*
X005545Y020330D01*
X005412Y020330D01*
X006114Y021232D02*
X006114Y021468D01*
X006586Y021468D02*
X006586Y021232D01*
X006716Y022025D02*
X006450Y022025D01*
X006716Y022292D01*
X006716Y022359D01*
X006650Y022425D01*
X006516Y022425D01*
X006450Y022359D01*
X006123Y022425D02*
X006123Y022025D01*
X006256Y022025D02*
X005989Y022025D01*
X005796Y022025D02*
X005662Y022158D01*
X005729Y022158D02*
X005529Y022158D01*
X005529Y022025D02*
X005529Y022425D01*
X005729Y022425D01*
X005796Y022359D01*
X005796Y022225D01*
X005729Y022158D01*
X005989Y022292D02*
X006123Y022425D01*
X006127Y023001D02*
X006090Y023001D01*
X006090Y023639D01*
X006127Y023639D01*
X006444Y023639D02*
X006481Y023639D01*
X006819Y023639D02*
X006856Y023639D01*
X007005Y023438D02*
X007007Y023450D01*
X007012Y023461D01*
X007021Y023470D01*
X007032Y023475D01*
X007044Y023477D01*
X007056Y023475D01*
X007067Y023470D01*
X007076Y023461D01*
X007081Y023450D01*
X007083Y023438D01*
X007081Y023426D01*
X007076Y023415D01*
X007067Y023406D01*
X007056Y023401D01*
X007044Y023399D01*
X007032Y023401D01*
X007021Y023406D01*
X007012Y023415D01*
X007007Y023426D01*
X007005Y023438D01*
X007173Y023639D02*
X007210Y023639D01*
X007210Y023001D01*
X007173Y023001D01*
X006856Y023001D02*
X006444Y023001D01*
X006449Y024470D02*
X006316Y024470D01*
X006249Y024537D01*
X006249Y024870D01*
X006516Y024870D02*
X006516Y024537D01*
X006449Y024470D01*
X006709Y024470D02*
X006976Y024470D01*
X006843Y024470D02*
X006843Y024870D01*
X006709Y024737D01*
X006754Y025149D02*
X006754Y026251D01*
X008446Y026251D01*
X008446Y025149D01*
X006754Y025149D01*
X007170Y024870D02*
X007436Y024870D01*
X007436Y024804D01*
X007170Y024537D01*
X007170Y024470D01*
X007740Y023639D02*
X007777Y023639D01*
X007740Y023639D02*
X007740Y023001D01*
X007777Y023001D01*
X008094Y023001D02*
X008506Y023001D01*
X008823Y023001D02*
X008860Y023001D01*
X008860Y023639D01*
X008823Y023639D01*
X008655Y023438D02*
X008657Y023450D01*
X008662Y023461D01*
X008671Y023470D01*
X008682Y023475D01*
X008694Y023477D01*
X008706Y023475D01*
X008717Y023470D01*
X008726Y023461D01*
X008731Y023450D01*
X008733Y023438D01*
X008731Y023426D01*
X008726Y023415D01*
X008717Y023406D01*
X008706Y023401D01*
X008694Y023399D01*
X008682Y023401D01*
X008671Y023406D01*
X008662Y023415D01*
X008657Y023426D01*
X008655Y023438D01*
X008506Y023639D02*
X008469Y023639D01*
X008131Y023639D02*
X008094Y023639D01*
X008017Y022470D02*
X008017Y022137D01*
X007950Y022070D01*
X007817Y022070D01*
X007750Y022137D01*
X007750Y022470D01*
X008210Y022337D02*
X008344Y022470D01*
X008344Y022070D01*
X008477Y022070D02*
X008210Y022070D01*
X008671Y022137D02*
X008671Y022270D01*
X008871Y022270D01*
X008938Y022203D01*
X008938Y022137D01*
X008871Y022070D01*
X008738Y022070D01*
X008671Y022137D01*
X008671Y022270D02*
X008804Y022404D01*
X008938Y022470D01*
X009053Y021645D02*
X009053Y021245D01*
X009186Y021245D02*
X008919Y021245D01*
X008726Y021245D02*
X008592Y021378D01*
X008659Y021378D02*
X008459Y021378D01*
X008459Y021245D02*
X008459Y021645D01*
X008659Y021645D01*
X008726Y021579D01*
X008726Y021445D01*
X008659Y021378D01*
X008919Y021512D02*
X009053Y021645D01*
X009380Y021512D02*
X009513Y021645D01*
X009513Y021245D01*
X009380Y021245D02*
X009646Y021245D01*
X009626Y020940D02*
X009760Y020940D01*
X009826Y020874D01*
X009560Y020607D01*
X009626Y020540D01*
X009760Y020540D01*
X009826Y020607D01*
X009826Y020874D01*
X009626Y020940D02*
X009560Y020874D01*
X009560Y020607D01*
X009366Y020607D02*
X009299Y020540D01*
X009166Y020540D01*
X009099Y020607D01*
X009233Y020740D02*
X009299Y020740D01*
X009366Y020673D01*
X009366Y020607D01*
X009299Y020740D02*
X009366Y020807D01*
X009366Y020874D01*
X009299Y020940D01*
X009166Y020940D01*
X009099Y020874D01*
X008906Y020874D02*
X008906Y020740D01*
X008839Y020673D01*
X008639Y020673D01*
X008639Y020540D02*
X008639Y020940D01*
X008839Y020940D01*
X008906Y020874D01*
X008772Y020673D02*
X008906Y020540D01*
X008913Y020182D02*
X008846Y020182D01*
X008780Y020116D01*
X008780Y019982D01*
X008846Y019915D01*
X008846Y019722D02*
X009113Y019722D01*
X009180Y019655D01*
X009180Y019522D01*
X009113Y019455D01*
X008846Y019455D01*
X008780Y019522D01*
X008780Y019655D01*
X008846Y019722D01*
X009047Y019588D02*
X009180Y019722D01*
X009180Y019915D02*
X008913Y020182D01*
X009180Y020182D02*
X009180Y019915D01*
X009470Y020054D02*
X009870Y020054D01*
X009870Y019921D02*
X009870Y020188D01*
X009603Y019921D02*
X009470Y020054D01*
X009536Y019727D02*
X009603Y019727D01*
X009670Y019661D01*
X009737Y019727D01*
X009803Y019727D01*
X009870Y019661D01*
X009870Y019527D01*
X009803Y019460D01*
X009670Y019594D02*
X009670Y019661D01*
X009536Y019727D02*
X009470Y019661D01*
X009470Y019527D01*
X009536Y019460D01*
X009536Y019267D02*
X009670Y019267D01*
X009737Y019200D01*
X009737Y019000D01*
X009870Y019000D02*
X009470Y019000D01*
X009470Y019200D01*
X009536Y019267D01*
X009737Y019133D02*
X009870Y019267D01*
X010120Y019450D02*
X010120Y019670D01*
X010580Y019670D02*
X010580Y019450D01*
X011350Y019490D02*
X011350Y019357D01*
X011416Y019290D01*
X011683Y019290D01*
X011750Y019357D01*
X011750Y019490D01*
X011683Y019557D01*
X011750Y019750D02*
X011750Y020017D01*
X011750Y019884D02*
X011350Y019884D01*
X011483Y019750D01*
X011416Y019557D02*
X011350Y019490D01*
X011960Y020000D02*
X012430Y020000D01*
X011750Y020278D02*
X011683Y020211D01*
X011750Y020278D02*
X011750Y020411D01*
X011683Y020478D01*
X011550Y020478D01*
X011483Y020411D01*
X011483Y020344D01*
X011550Y020211D01*
X011350Y020211D01*
X011350Y020478D01*
X010800Y020580D02*
X010580Y020580D01*
X010580Y021040D02*
X010800Y021040D01*
X011380Y021227D02*
X011446Y021160D01*
X011713Y021160D01*
X011780Y021227D01*
X011780Y021360D01*
X011713Y021427D01*
X011780Y021620D02*
X011780Y021887D01*
X011780Y021754D02*
X011380Y021754D01*
X011513Y021620D01*
X011446Y021427D02*
X011380Y021360D01*
X011380Y021227D01*
X011970Y021690D02*
X012440Y021690D01*
X011780Y022148D02*
X011713Y022081D01*
X011446Y022348D01*
X011713Y022348D01*
X011780Y022281D01*
X011780Y022148D01*
X011713Y022081D02*
X011446Y022081D01*
X011380Y022148D01*
X011380Y022281D01*
X011446Y022348D01*
X011241Y022146D02*
X011241Y021831D01*
X011241Y022146D02*
X011005Y022146D01*
X010777Y022427D02*
X010777Y022694D01*
X010711Y022760D01*
X010577Y022760D01*
X010510Y022694D01*
X010510Y022627D01*
X010577Y022560D01*
X010777Y022560D01*
X010777Y022427D02*
X010711Y022360D01*
X010577Y022360D01*
X010510Y022427D01*
X010317Y022427D02*
X010317Y022694D01*
X010250Y022760D01*
X010117Y022760D01*
X010050Y022694D01*
X010050Y022427D01*
X010117Y022360D01*
X010250Y022360D01*
X010317Y022427D01*
X010317Y022360D02*
X010183Y022493D01*
X010139Y022146D02*
X010139Y021831D01*
X010139Y022146D02*
X010375Y022146D01*
X010821Y023104D02*
X014759Y023104D01*
X014759Y028616D01*
X010821Y028616D01*
X010821Y023104D01*
X013180Y022650D02*
X013180Y022317D01*
X013247Y022250D01*
X013380Y022250D01*
X013447Y022317D01*
X013447Y022650D01*
X013640Y022517D02*
X013774Y022650D01*
X013774Y022250D01*
X013907Y022250D02*
X013640Y022250D01*
X013470Y022020D02*
X013470Y019900D01*
X013325Y019885D02*
X014655Y019885D01*
X014655Y022035D01*
X013325Y022035D01*
X013325Y019885D01*
X013590Y021830D02*
X013592Y021850D01*
X013598Y021868D01*
X013607Y021886D01*
X013619Y021901D01*
X013634Y021913D01*
X013652Y021922D01*
X013670Y021928D01*
X013690Y021930D01*
X013710Y021928D01*
X013728Y021922D01*
X013746Y021913D01*
X013761Y021901D01*
X013773Y021886D01*
X013782Y021868D01*
X013788Y021850D01*
X013790Y021830D01*
X013788Y021810D01*
X013782Y021792D01*
X013773Y021774D01*
X013761Y021759D01*
X013746Y021747D01*
X013728Y021738D01*
X013710Y021732D01*
X013690Y021730D01*
X013670Y021732D01*
X013652Y021738D01*
X013634Y021747D01*
X013619Y021759D01*
X013607Y021774D01*
X013598Y021792D01*
X013592Y021810D01*
X013590Y021830D01*
X014101Y022450D02*
X014368Y022450D01*
X014301Y022250D02*
X014301Y022650D01*
X014101Y022450D01*
X015520Y023180D02*
X015520Y033530D01*
X022120Y033530D01*
X022120Y023180D01*
X015520Y023180D01*
X015660Y022090D02*
X016130Y022090D01*
X016400Y021874D02*
X016400Y021607D01*
X016467Y021540D01*
X016600Y021540D01*
X016667Y021607D01*
X016860Y021540D02*
X017127Y021540D01*
X016994Y021540D02*
X016994Y021940D01*
X016860Y021807D01*
X016667Y021874D02*
X016600Y021940D01*
X016467Y021940D01*
X016400Y021874D01*
X017321Y021874D02*
X017388Y021940D01*
X017521Y021940D01*
X017588Y021874D01*
X017588Y021807D01*
X017321Y021540D01*
X017588Y021540D01*
X018433Y022117D02*
X018433Y022517D01*
X018633Y022517D01*
X018699Y022450D01*
X018699Y022317D01*
X018633Y022250D01*
X018433Y022250D01*
X018566Y022250D02*
X018699Y022117D01*
X018893Y022117D02*
X018893Y022517D01*
X019160Y022117D01*
X019160Y022517D01*
X019353Y022384D02*
X019487Y022517D01*
X019487Y022117D01*
X019620Y022117D02*
X019353Y022117D01*
X019089Y021921D02*
X018971Y021921D01*
X018971Y020739D01*
X019089Y020739D01*
X019089Y021921D01*
X016950Y020641D02*
X016883Y020641D01*
X016616Y020908D01*
X016550Y020908D01*
X016550Y020641D01*
X016330Y020410D02*
X015860Y020410D01*
X016550Y020314D02*
X016950Y020314D01*
X016950Y020447D02*
X016950Y020180D01*
X016883Y019987D02*
X016950Y019920D01*
X016950Y019787D01*
X016883Y019720D01*
X016616Y019720D01*
X016550Y019787D01*
X016550Y019920D01*
X016616Y019987D01*
X016683Y020180D02*
X016550Y020314D01*
X016600Y019530D02*
X016400Y019530D01*
X016400Y019130D01*
X016400Y019263D02*
X016600Y019263D01*
X016667Y019330D01*
X016667Y019464D01*
X016600Y019530D01*
X016860Y019530D02*
X017127Y019130D01*
X017147Y018870D02*
X016880Y018470D01*
X017147Y018470D02*
X016880Y018870D01*
X016687Y018870D02*
X016420Y018870D01*
X016553Y018870D02*
X016553Y018470D01*
X016667Y019130D02*
X016533Y019263D01*
X016860Y019130D02*
X017127Y019530D01*
X019357Y016945D02*
X019290Y016879D01*
X019290Y016612D01*
X019357Y016545D01*
X019490Y016545D01*
X019557Y016612D01*
X019750Y016545D02*
X020017Y016812D01*
X020017Y016879D01*
X019951Y016945D01*
X019817Y016945D01*
X019750Y016879D01*
X019557Y016879D02*
X019490Y016945D01*
X019357Y016945D01*
X019750Y016545D02*
X020017Y016545D01*
X019988Y016316D02*
X019752Y016316D01*
X019752Y015844D02*
X019988Y015844D01*
X020058Y015424D02*
X019822Y015424D01*
X019310Y014676D02*
X019310Y014204D01*
X019030Y014237D02*
X019030Y013970D01*
X019030Y014104D02*
X018630Y014104D01*
X018763Y013970D01*
X018696Y013777D02*
X018630Y013777D01*
X018696Y013777D02*
X018830Y013643D01*
X019030Y013643D01*
X018830Y013643D02*
X018696Y013510D01*
X018630Y013510D01*
X019476Y012465D02*
X019409Y012399D01*
X019409Y012132D01*
X019476Y012065D01*
X019609Y012065D01*
X019676Y012132D01*
X019869Y012065D02*
X020136Y012332D01*
X020136Y012399D01*
X020069Y012465D01*
X019936Y012465D01*
X019869Y012399D01*
X019676Y012399D02*
X019609Y012465D01*
X019476Y012465D01*
X019812Y012664D02*
X020048Y012664D01*
X020330Y012399D02*
X020396Y012465D01*
X020530Y012465D01*
X020596Y012399D01*
X020596Y012332D01*
X020530Y012265D01*
X020596Y012198D01*
X020596Y012132D01*
X020530Y012065D01*
X020396Y012065D01*
X020330Y012132D01*
X020463Y012265D02*
X020530Y012265D01*
X020136Y012065D02*
X019869Y012065D01*
X019812Y013136D02*
X020048Y013136D01*
X020058Y013456D02*
X019822Y013456D01*
X020570Y014204D02*
X020570Y014676D01*
X020411Y016545D02*
X020411Y016945D01*
X020211Y016745D01*
X020478Y016745D01*
X023725Y021020D02*
X024125Y021287D01*
X023725Y021287D01*
X023725Y021480D02*
X023725Y021747D01*
X023725Y021614D02*
X024125Y021614D01*
X024314Y021648D02*
X024314Y021412D01*
X024125Y021020D02*
X023725Y021020D01*
X023791Y021941D02*
X023725Y022008D01*
X023725Y022141D01*
X023791Y022208D01*
X023791Y021941D02*
X024058Y021941D01*
X024125Y022008D01*
X024125Y022141D01*
X024058Y022208D01*
X024002Y022540D02*
X024002Y022740D01*
X023935Y022807D01*
X023801Y022807D01*
X023735Y022740D01*
X023735Y022540D01*
X024135Y022540D01*
X024002Y022673D02*
X024135Y022807D01*
X024314Y022888D02*
X024314Y022652D01*
X024068Y023000D02*
X024002Y023000D01*
X023935Y023067D01*
X023935Y023201D01*
X024002Y023267D01*
X024068Y023267D01*
X024135Y023201D01*
X024135Y023067D01*
X024068Y023000D01*
X023935Y023067D02*
X023868Y023000D01*
X023801Y023000D01*
X023735Y023067D01*
X023735Y023201D01*
X023801Y023267D01*
X023868Y023267D01*
X023935Y023201D01*
X024786Y022888D02*
X024786Y022652D01*
X025565Y022020D02*
X025765Y021820D01*
X025765Y022087D01*
X025965Y022020D02*
X025565Y022020D01*
X025446Y021648D02*
X025446Y021412D01*
X025565Y021493D02*
X025965Y021493D01*
X025965Y021626D02*
X025965Y021359D01*
X025898Y021166D02*
X025965Y021099D01*
X025965Y020966D01*
X025898Y020899D01*
X025631Y020899D01*
X025565Y020966D01*
X025565Y021099D01*
X025631Y021166D01*
X025698Y021359D02*
X025565Y021493D01*
X024974Y021412D02*
X024974Y021648D01*
X024786Y021648D02*
X024786Y021412D01*
X025820Y022479D02*
X025820Y022679D01*
X025886Y022746D01*
X026020Y022746D01*
X026087Y022679D01*
X026087Y022479D01*
X026220Y022479D02*
X025820Y022479D01*
X026087Y022612D02*
X026220Y022746D01*
X026220Y022939D02*
X025820Y023206D01*
X025953Y023400D02*
X025820Y023533D01*
X026220Y023533D01*
X026220Y023400D02*
X026220Y023667D01*
X026220Y023206D02*
X025820Y022939D01*
X026410Y021560D02*
X026410Y021340D01*
X026870Y021340D02*
X026870Y021560D01*
X027350Y021560D02*
X027350Y021340D01*
X027496Y020627D02*
X027563Y020627D01*
X027630Y020560D01*
X027630Y020426D01*
X027563Y020360D01*
X027496Y020360D01*
X027430Y020426D01*
X027430Y020560D01*
X027496Y020627D01*
X027630Y020560D02*
X027697Y020627D01*
X027763Y020627D01*
X027830Y020560D01*
X027830Y020426D01*
X027763Y020360D01*
X027697Y020360D01*
X027630Y020426D01*
X027830Y020166D02*
X027830Y019899D01*
X027830Y020033D02*
X027430Y020033D01*
X027563Y019899D01*
X027496Y019706D02*
X027630Y019706D01*
X027697Y019639D01*
X027697Y019439D01*
X027830Y019439D02*
X027430Y019439D01*
X027430Y019639D01*
X027496Y019706D01*
X027697Y019572D02*
X027830Y019706D01*
X026840Y019839D02*
X026440Y019839D01*
X026440Y020039D01*
X026506Y020106D01*
X026640Y020106D01*
X026707Y020039D01*
X026707Y019839D01*
X026707Y019973D02*
X026840Y020106D01*
X026773Y020300D02*
X026840Y020366D01*
X026840Y020500D01*
X026773Y020567D01*
X026640Y020567D01*
X026573Y020500D01*
X026573Y020433D01*
X026640Y020300D01*
X026440Y020300D01*
X026440Y020567D01*
X027810Y021340D02*
X027810Y021560D01*
X028000Y022440D02*
X028000Y022707D01*
X028000Y022573D02*
X028400Y022573D01*
X028400Y022900D02*
X028000Y023167D01*
X028133Y023361D02*
X028000Y023494D01*
X028400Y023494D01*
X028400Y023361D02*
X028400Y023628D01*
X028400Y023167D02*
X028000Y022900D01*
X029579Y022110D02*
X029579Y021777D01*
X029646Y021710D01*
X029779Y021710D01*
X029846Y021777D01*
X029846Y022110D01*
X030039Y021977D02*
X030173Y022110D01*
X030173Y021710D01*
X030306Y021710D02*
X030039Y021710D01*
X030096Y021400D02*
X030029Y021334D01*
X030029Y021067D01*
X030096Y021000D01*
X030229Y021000D01*
X030296Y021067D01*
X030490Y021000D02*
X030756Y021000D01*
X030623Y021000D02*
X030623Y021400D01*
X030490Y021267D01*
X030296Y021334D02*
X030229Y021400D01*
X030096Y021400D01*
X029856Y021400D02*
X029722Y021400D01*
X029789Y021400D02*
X029789Y021000D01*
X029722Y021000D02*
X029856Y021000D01*
X030500Y021710D02*
X030766Y021977D01*
X030766Y022044D01*
X030700Y022110D01*
X030566Y022110D01*
X030500Y022044D01*
X030500Y021710D02*
X030766Y021710D01*
X031040Y022380D02*
X031040Y024960D01*
X033400Y024960D01*
X033406Y025305D02*
X033272Y025438D01*
X033339Y025438D02*
X033139Y025438D01*
X033139Y025305D02*
X033139Y025705D01*
X033339Y025705D01*
X033406Y025639D01*
X033406Y025505D01*
X033339Y025438D01*
X033599Y025305D02*
X033866Y025305D01*
X033733Y025305D02*
X033733Y025705D01*
X033599Y025572D01*
X034060Y025505D02*
X034326Y025505D01*
X034260Y025305D02*
X034260Y025705D01*
X034060Y025505D01*
X034282Y025864D02*
X034518Y025864D01*
X034518Y026336D02*
X034282Y026336D01*
X034282Y026564D02*
X034518Y026564D01*
X034518Y027036D02*
X034282Y027036D01*
X034313Y027205D02*
X034313Y027605D01*
X034179Y027472D01*
X033986Y027539D02*
X033986Y027405D01*
X033919Y027338D01*
X033719Y027338D01*
X033719Y027205D02*
X033719Y027605D01*
X033919Y027605D01*
X033986Y027539D01*
X033852Y027338D02*
X033986Y027205D01*
X034179Y027205D02*
X034446Y027205D01*
X034640Y027272D02*
X034706Y027205D01*
X034840Y027205D01*
X034906Y027272D01*
X034906Y027338D01*
X034840Y027405D01*
X034773Y027405D01*
X034840Y027405D02*
X034906Y027472D01*
X034906Y027539D01*
X034840Y027605D01*
X034706Y027605D01*
X034640Y027539D01*
X034920Y028580D02*
X031080Y028580D01*
X031057Y028582D01*
X031034Y028587D01*
X031012Y028596D01*
X030992Y028609D01*
X030974Y028624D01*
X030959Y028642D01*
X030946Y028662D01*
X030937Y028684D01*
X030932Y028707D01*
X030930Y028730D01*
X030930Y029550D01*
X030930Y030550D01*
X030930Y031370D01*
X030932Y031393D01*
X030937Y031416D01*
X030946Y031438D01*
X030959Y031458D01*
X030974Y031476D01*
X030992Y031491D01*
X031012Y031504D01*
X031034Y031513D01*
X031057Y031518D01*
X031080Y031520D01*
X034920Y031520D01*
X034943Y031518D01*
X034966Y031513D01*
X034988Y031504D01*
X035008Y031491D01*
X035026Y031476D01*
X035041Y031458D01*
X035054Y031438D01*
X035063Y031416D01*
X035068Y031393D01*
X035070Y031370D01*
X035070Y028730D01*
X035060Y028720D02*
X030950Y028720D01*
X030650Y028908D02*
X030250Y028908D01*
X030650Y028908D02*
X030650Y029175D01*
X030650Y029369D02*
X030650Y029636D01*
X030650Y029829D02*
X030650Y030029D01*
X030583Y030096D01*
X030316Y030096D01*
X030250Y030029D01*
X030250Y029829D01*
X030650Y029829D01*
X030930Y029550D02*
X030974Y029552D01*
X031017Y029558D01*
X031059Y029567D01*
X031101Y029580D01*
X031141Y029597D01*
X031180Y029617D01*
X031217Y029640D01*
X031251Y029667D01*
X031284Y029696D01*
X031313Y029729D01*
X031340Y029763D01*
X031363Y029800D01*
X031383Y029839D01*
X031400Y029879D01*
X031413Y029921D01*
X031422Y029963D01*
X031428Y030006D01*
X031430Y030050D01*
X031428Y030094D01*
X031422Y030137D01*
X031413Y030179D01*
X031400Y030221D01*
X031383Y030261D01*
X031363Y030300D01*
X031340Y030337D01*
X031313Y030371D01*
X031284Y030404D01*
X031251Y030433D01*
X031217Y030460D01*
X031180Y030483D01*
X031141Y030503D01*
X031101Y030520D01*
X031059Y030533D01*
X031017Y030542D01*
X030974Y030548D01*
X030930Y030550D01*
X030650Y030557D02*
X030650Y030290D01*
X030383Y030557D01*
X030316Y030557D01*
X030250Y030490D01*
X030250Y030356D01*
X030316Y030290D01*
X030250Y029636D02*
X030250Y029369D01*
X030650Y029369D01*
X030450Y029369D02*
X030450Y029502D01*
X030556Y028300D02*
X030690Y028300D01*
X030757Y028234D01*
X030757Y028167D01*
X030690Y028100D01*
X030556Y028100D01*
X030490Y028167D01*
X030490Y028234D01*
X030556Y028300D01*
X030556Y028100D02*
X030490Y028033D01*
X030490Y027967D01*
X030556Y027900D01*
X030690Y027900D01*
X030757Y027967D01*
X030757Y028033D01*
X030690Y028100D01*
X030296Y027967D02*
X030229Y027900D01*
X030096Y027900D01*
X030029Y027967D01*
X030029Y028300D01*
X030296Y028300D02*
X030296Y027967D01*
X030814Y026972D02*
X030747Y026906D01*
X030747Y026639D01*
X030814Y026572D01*
X030947Y026572D01*
X031014Y026639D01*
X031207Y026639D02*
X031207Y026705D01*
X031274Y026772D01*
X031408Y026772D01*
X031474Y026705D01*
X031474Y026639D01*
X031408Y026572D01*
X031274Y026572D01*
X031207Y026639D01*
X031274Y026772D02*
X031207Y026839D01*
X031207Y026906D01*
X031274Y026972D01*
X031408Y026972D01*
X031474Y026906D01*
X031474Y026839D01*
X031408Y026772D01*
X031668Y026639D02*
X031935Y026906D01*
X031935Y026639D01*
X031868Y026572D01*
X031735Y026572D01*
X031668Y026639D01*
X031668Y026906D01*
X031735Y026972D01*
X031868Y026972D01*
X031935Y026906D01*
X031652Y026343D02*
X030902Y026343D01*
X030902Y025443D01*
X031652Y025443D01*
X032502Y025393D02*
X032802Y025393D01*
X032952Y025543D01*
X032952Y026293D01*
X032852Y026393D01*
X032452Y026393D01*
X033214Y026332D02*
X033214Y026568D01*
X033686Y026568D02*
X033686Y026332D01*
X035359Y026259D02*
X035359Y025992D01*
X035426Y025925D01*
X035559Y025925D01*
X035626Y025992D01*
X035819Y025925D02*
X036086Y025925D01*
X035953Y025925D02*
X035953Y026325D01*
X035819Y026192D01*
X035626Y026259D02*
X035559Y026325D01*
X035426Y026325D01*
X035359Y026259D01*
X036280Y026125D02*
X036480Y026125D01*
X036546Y026058D01*
X036546Y025992D01*
X036480Y025925D01*
X036346Y025925D01*
X036280Y025992D01*
X036280Y026125D01*
X036413Y026259D01*
X036546Y026325D01*
X034920Y028580D02*
X034943Y028582D01*
X034966Y028587D01*
X034988Y028596D01*
X035008Y028609D01*
X035026Y028624D01*
X035041Y028642D01*
X035054Y028662D01*
X035063Y028684D01*
X035068Y028707D01*
X035070Y028730D01*
X036901Y029373D02*
X036910Y001682D01*
X036909Y001681D02*
X036907Y001604D01*
X036901Y001526D01*
X036891Y001449D01*
X036878Y001373D01*
X036860Y001297D01*
X036839Y001223D01*
X036814Y001149D01*
X036785Y001077D01*
X036753Y001007D01*
X036717Y000938D01*
X036677Y000871D01*
X036635Y000806D01*
X036589Y000744D01*
X036540Y000684D01*
X036488Y000626D01*
X036433Y000571D01*
X036375Y000519D01*
X036315Y000470D01*
X036253Y000424D01*
X036188Y000382D01*
X036121Y000342D01*
X036052Y000306D01*
X035982Y000274D01*
X035910Y000245D01*
X035836Y000220D01*
X035762Y000199D01*
X035686Y000181D01*
X035610Y000168D01*
X035533Y000158D01*
X035455Y000152D01*
X035378Y000150D01*
X035150Y000150D01*
X034590Y011879D02*
X034590Y012146D01*
X034723Y012012D02*
X034456Y012012D01*
X034456Y012339D02*
X034523Y012339D01*
X034590Y012406D01*
X034590Y012606D01*
X034723Y012606D02*
X034456Y012606D01*
X034390Y012539D01*
X034390Y012406D01*
X034456Y012339D01*
X034723Y012339D02*
X034790Y012406D01*
X034790Y012539D01*
X034723Y012606D01*
X034657Y012800D02*
X034790Y012933D01*
X034657Y013067D01*
X034390Y013067D01*
X034390Y012800D02*
X034657Y012800D01*
X033800Y012933D02*
X033667Y013067D01*
X033400Y013067D01*
X033400Y012800D02*
X033667Y012800D01*
X033800Y012933D01*
X033733Y012606D02*
X033800Y012539D01*
X033800Y012406D01*
X033733Y012339D01*
X033600Y012339D02*
X033533Y012473D01*
X033533Y012539D01*
X033600Y012606D01*
X033733Y012606D01*
X033600Y012339D02*
X033400Y012339D01*
X033400Y012606D01*
X033600Y012146D02*
X033600Y011879D01*
X033466Y012012D02*
X033733Y012012D01*
X032753Y011992D02*
X032486Y011992D01*
X032620Y011859D02*
X032620Y012126D01*
X032753Y012319D02*
X032820Y012386D01*
X032820Y012519D01*
X032753Y012586D01*
X032687Y012586D01*
X032620Y012519D01*
X032620Y012453D01*
X032620Y012519D02*
X032553Y012586D01*
X032486Y012586D01*
X032420Y012519D01*
X032420Y012386D01*
X032486Y012319D01*
X032420Y012780D02*
X032687Y012780D01*
X032820Y012913D01*
X032687Y013047D01*
X032420Y013047D01*
X032882Y014850D02*
X032882Y015050D01*
X032782Y014950D02*
X032982Y014950D01*
X032820Y015730D02*
X032820Y015950D01*
X032360Y015950D02*
X032360Y015730D01*
X031904Y016340D02*
X032038Y016607D01*
X031771Y016607D02*
X031904Y016340D01*
X031577Y016407D02*
X031577Y016540D01*
X031511Y016607D01*
X031444Y016607D01*
X031310Y016540D01*
X031310Y016740D01*
X031577Y016740D01*
X031577Y016407D02*
X031511Y016340D01*
X031377Y016340D01*
X031310Y016407D01*
X031117Y016540D02*
X030850Y016540D01*
X030983Y016674D02*
X030983Y016407D01*
X030450Y016660D02*
X030450Y015910D01*
X029550Y015910D01*
X029550Y016660D01*
X029260Y016560D02*
X029193Y016627D01*
X029260Y016560D02*
X029260Y016427D01*
X029193Y016360D01*
X028926Y016360D01*
X028860Y016427D01*
X028860Y016560D01*
X028926Y016627D01*
X028926Y016820D02*
X028860Y016887D01*
X028860Y017021D01*
X028926Y017087D01*
X028993Y017087D01*
X029060Y017021D01*
X029127Y017087D01*
X029193Y017087D01*
X029260Y017021D01*
X029260Y016887D01*
X029193Y016820D01*
X029060Y016954D02*
X029060Y017021D01*
X028926Y017281D02*
X028860Y017348D01*
X028860Y017481D01*
X028926Y017548D01*
X028993Y017548D01*
X029260Y017281D01*
X029260Y017548D01*
X029500Y017460D02*
X029500Y017860D01*
X029600Y017960D01*
X030350Y017960D01*
X030500Y017810D01*
X030500Y017510D01*
X031030Y018220D02*
X031030Y020800D01*
X033390Y020800D01*
X033400Y022380D02*
X031040Y022380D01*
X028040Y024790D02*
X028040Y026210D01*
X027173Y027459D02*
X026906Y027459D01*
X026840Y027526D01*
X026840Y027659D01*
X026906Y027726D01*
X027040Y027919D02*
X026840Y028119D01*
X027240Y028119D01*
X027040Y028186D02*
X027040Y027919D01*
X027173Y027726D02*
X027240Y027659D01*
X027240Y027526D01*
X027173Y027459D01*
X027173Y028380D02*
X026906Y028647D01*
X027173Y028647D01*
X027240Y028580D01*
X027240Y028446D01*
X027173Y028380D01*
X026906Y028380D01*
X026840Y028446D01*
X026840Y028580D01*
X026906Y028647D01*
X026928Y028990D02*
X026995Y029057D01*
X026995Y029190D01*
X026928Y029257D01*
X026995Y029450D02*
X026728Y029717D01*
X026661Y029717D01*
X026595Y029651D01*
X026595Y029517D01*
X026661Y029450D01*
X026661Y029257D02*
X026595Y029190D01*
X026595Y029057D01*
X026661Y028990D01*
X026928Y028990D01*
X026995Y029450D02*
X026995Y029717D01*
X026928Y029911D02*
X026661Y030178D01*
X026928Y030178D01*
X026995Y030111D01*
X026995Y029978D01*
X026928Y029911D01*
X026661Y029911D01*
X026595Y029978D01*
X026595Y030111D01*
X026661Y030178D01*
X026436Y029568D02*
X026436Y029332D01*
X025964Y029332D02*
X025964Y029568D01*
X025680Y029610D02*
X025680Y028190D01*
X025478Y027166D02*
X025242Y027166D01*
X025242Y026694D02*
X025478Y026694D01*
X026180Y026210D02*
X026180Y024790D01*
X026343Y025110D02*
X026345Y025125D01*
X026351Y025138D01*
X026360Y025150D01*
X026371Y025159D01*
X026385Y025165D01*
X026400Y025167D01*
X026415Y025165D01*
X026428Y025159D01*
X026440Y025150D01*
X026449Y025139D01*
X026455Y025125D01*
X026457Y025110D01*
X026455Y025095D01*
X026449Y025082D01*
X026440Y025070D01*
X026429Y025061D01*
X026415Y025055D01*
X026400Y025053D01*
X026385Y025055D01*
X026372Y025061D01*
X026360Y025070D01*
X026351Y025081D01*
X026345Y025095D01*
X026343Y025110D01*
X025907Y025320D02*
X025640Y025320D01*
X025907Y025587D01*
X025907Y025654D01*
X025840Y025720D01*
X025706Y025720D01*
X025640Y025654D01*
X025446Y025720D02*
X025446Y025387D01*
X025379Y025320D01*
X025246Y025320D01*
X025179Y025387D01*
X025179Y025720D01*
X024510Y026715D02*
X024576Y026782D01*
X024576Y027049D01*
X024510Y027115D01*
X024376Y027115D01*
X024310Y027049D01*
X024310Y026982D01*
X024376Y026915D01*
X024576Y026915D01*
X024510Y026715D02*
X024376Y026715D01*
X024310Y026782D01*
X024116Y026715D02*
X023849Y026715D01*
X024116Y026982D01*
X024116Y027049D01*
X024049Y027115D01*
X023916Y027115D01*
X023849Y027049D01*
X023656Y027049D02*
X023589Y027115D01*
X023456Y027115D01*
X023389Y027049D01*
X023389Y026782D01*
X023456Y026715D01*
X023589Y026715D01*
X023656Y026782D01*
X023820Y028190D02*
X023820Y029610D01*
X023610Y029518D02*
X023610Y029251D01*
X023610Y029384D02*
X023210Y029384D01*
X023343Y029251D01*
X023610Y029057D02*
X023610Y028790D01*
X023610Y028924D02*
X023210Y028924D01*
X023343Y028790D01*
X023210Y028597D02*
X023543Y028597D01*
X023610Y028530D01*
X023610Y028397D01*
X023543Y028330D01*
X023210Y028330D01*
X023983Y028510D02*
X023985Y028525D01*
X023991Y028538D01*
X024000Y028550D01*
X024011Y028559D01*
X024025Y028565D01*
X024040Y028567D01*
X024055Y028565D01*
X024068Y028559D01*
X024080Y028550D01*
X024089Y028539D01*
X024095Y028525D01*
X024097Y028510D01*
X024095Y028495D01*
X024089Y028482D01*
X024080Y028470D01*
X024069Y028461D01*
X024055Y028455D01*
X024040Y028453D01*
X024025Y028455D01*
X024012Y028461D01*
X024000Y028470D01*
X023991Y028481D01*
X023985Y028495D01*
X023983Y028510D01*
X024068Y030770D02*
X024001Y030837D01*
X024268Y031104D01*
X024268Y030837D01*
X024201Y030770D01*
X024068Y030770D01*
X024001Y030837D02*
X024001Y031104D01*
X024068Y031170D01*
X024201Y031170D01*
X024268Y031104D01*
X024440Y031231D02*
X024440Y031569D01*
X024894Y031719D02*
X025106Y031719D01*
X025560Y031569D02*
X025560Y031231D01*
X026460Y031363D02*
X026593Y031230D01*
X026726Y031363D01*
X026726Y031630D01*
X026920Y031496D02*
X027053Y031630D01*
X027053Y031230D01*
X026920Y031230D02*
X027187Y031230D01*
X027167Y031930D02*
X026900Y031930D01*
X027167Y032197D01*
X027167Y032264D01*
X027101Y032330D01*
X026967Y032330D01*
X026900Y032264D01*
X026707Y032264D02*
X026640Y032330D01*
X026440Y032330D01*
X026440Y031930D01*
X026640Y031930D01*
X026707Y031997D01*
X026707Y032264D01*
X026377Y032612D02*
X026377Y032879D01*
X026311Y032945D01*
X026177Y032945D01*
X026110Y032879D01*
X026110Y032812D01*
X026177Y032745D01*
X026377Y032745D01*
X026377Y032612D02*
X026311Y032545D01*
X026177Y032545D01*
X026110Y032612D01*
X025917Y032612D02*
X025850Y032545D01*
X025717Y032545D01*
X025650Y032612D01*
X025650Y032879D01*
X025717Y032945D01*
X025850Y032945D01*
X025917Y032879D01*
X026696Y032984D02*
X027096Y032984D01*
X027096Y033251D01*
X027096Y033445D02*
X026829Y033712D01*
X026762Y033712D01*
X026696Y033645D01*
X026696Y033511D01*
X026762Y033445D01*
X027096Y033445D02*
X027096Y033712D01*
X027750Y033440D02*
X027860Y033440D01*
X027860Y033050D02*
X027750Y033050D01*
X027957Y032335D02*
X027445Y032335D01*
X027445Y032295D01*
X027445Y031981D02*
X027445Y031941D01*
X027957Y031941D01*
X027957Y032138D01*
X027996Y032099D01*
X027996Y031941D01*
X027957Y031941D01*
X027996Y031941D02*
X028233Y031941D01*
X028233Y031981D01*
X027996Y032099D02*
X027996Y032335D01*
X028233Y032335D01*
X028233Y032295D01*
X027996Y032335D02*
X027957Y032335D01*
X027957Y032138D01*
X027940Y031630D02*
X027830Y031630D01*
X027830Y031250D02*
X027940Y031250D01*
X028660Y031170D02*
X028660Y030380D01*
X029260Y030390D02*
X029260Y031180D01*
X029428Y032172D02*
X029829Y032172D01*
X029829Y032439D01*
X029829Y032633D02*
X029829Y032900D01*
X029829Y032766D02*
X029428Y032766D01*
X029562Y032633D01*
X029170Y032680D02*
X029170Y032570D01*
X028740Y032570D02*
X028740Y032680D01*
X028749Y033505D02*
X028749Y033905D01*
X028949Y033905D01*
X029016Y033839D01*
X029016Y033705D01*
X028949Y033638D01*
X028749Y033638D01*
X028882Y033638D02*
X029016Y033505D01*
X029209Y033505D02*
X029476Y033772D01*
X029476Y033839D01*
X029409Y033905D01*
X029276Y033905D01*
X029209Y033839D01*
X029209Y033505D02*
X029476Y033505D01*
X029670Y033505D02*
X029936Y033505D01*
X029803Y033505D02*
X029803Y033905D01*
X029670Y033772D01*
X030064Y033118D02*
X030064Y032882D01*
X030536Y032882D02*
X030536Y033118D01*
X030582Y032350D02*
X030582Y032150D01*
X030482Y032250D02*
X030682Y032250D01*
X028343Y029908D02*
X028343Y029641D01*
X028343Y029774D02*
X027942Y029774D01*
X028076Y029641D01*
X028009Y029447D02*
X027942Y029380D01*
X027942Y029180D01*
X028343Y029180D01*
X028343Y029380D01*
X028276Y029447D01*
X028009Y029447D01*
X026460Y031363D02*
X026460Y031630D01*
X025118Y032464D02*
X024882Y032464D01*
X024882Y032936D02*
X025118Y032936D01*
X025118Y033164D02*
X024882Y033164D01*
X024882Y033636D02*
X025118Y033636D01*
X024267Y033608D02*
X024200Y033675D01*
X024000Y033675D01*
X024000Y033542D01*
X024066Y033475D01*
X024200Y033475D01*
X024267Y033542D01*
X024267Y033608D01*
X024133Y033809D02*
X024000Y033675D01*
X024133Y033809D02*
X024267Y033875D01*
X023806Y033809D02*
X023806Y033675D01*
X023739Y033608D01*
X023539Y033608D01*
X023539Y033475D02*
X023539Y033875D01*
X023739Y033875D01*
X023806Y033809D01*
X023673Y033608D02*
X023806Y033475D01*
X023555Y032677D02*
X023555Y032410D01*
X023555Y032544D02*
X023155Y032544D01*
X023288Y032410D01*
X023221Y032217D02*
X023155Y032150D01*
X023155Y032017D01*
X023221Y031950D01*
X023488Y031950D01*
X023555Y032017D01*
X023555Y032150D01*
X023488Y032217D01*
X023724Y032152D02*
X023724Y032388D01*
X024196Y032388D02*
X024196Y032152D01*
X023674Y031170D02*
X023674Y030770D01*
X023807Y030770D02*
X023540Y030770D01*
X023347Y030837D02*
X023347Y031170D01*
X023540Y031037D02*
X023674Y031170D01*
X023347Y030837D02*
X023280Y030770D01*
X023147Y030770D01*
X023080Y030837D01*
X023080Y031170D01*
X022793Y032559D02*
X022460Y032559D01*
X022460Y032826D02*
X022793Y032826D01*
X022860Y032759D01*
X022860Y032626D01*
X022793Y032559D01*
X022793Y033020D02*
X022860Y033086D01*
X022860Y033220D01*
X022793Y033287D01*
X022660Y033287D01*
X022593Y033220D01*
X022593Y033153D01*
X022660Y033020D01*
X022460Y033020D01*
X022460Y033287D01*
X014629Y029388D02*
X014629Y028988D01*
X014496Y028988D02*
X014762Y028988D01*
X014496Y029255D02*
X014629Y029388D01*
X014302Y029388D02*
X014035Y029121D01*
X014102Y029188D02*
X014302Y028988D01*
X014035Y028988D02*
X014035Y029388D01*
X012846Y029500D02*
X012846Y033340D01*
X012847Y033340D02*
X012842Y033364D01*
X012834Y033387D01*
X012823Y033408D01*
X012809Y033428D01*
X012792Y033446D01*
X012773Y033461D01*
X012752Y033474D01*
X012730Y033483D01*
X012706Y033489D01*
X012682Y033491D01*
X012657Y033490D01*
X012652Y033490D02*
X012320Y033490D01*
X012320Y033470D02*
X012318Y033440D01*
X012313Y033410D01*
X012304Y033381D01*
X012291Y033354D01*
X012276Y033328D01*
X012257Y033304D01*
X012236Y033283D01*
X012212Y033264D01*
X012186Y033249D01*
X012159Y033236D01*
X012130Y033227D01*
X012100Y033222D01*
X012070Y033220D01*
X012040Y033222D01*
X012010Y033227D01*
X011981Y033236D01*
X011954Y033249D01*
X011928Y033264D01*
X011904Y033283D01*
X011883Y033304D01*
X011864Y033328D01*
X011849Y033354D01*
X011836Y033381D01*
X011827Y033410D01*
X011822Y033440D01*
X011820Y033470D01*
X011820Y033490D02*
X011424Y033490D01*
X011424Y033491D02*
X011404Y033486D01*
X011385Y033478D01*
X011367Y033467D01*
X011351Y033454D01*
X011338Y033438D01*
X011327Y033421D01*
X011319Y033402D01*
X011314Y033382D01*
X011312Y033361D01*
X011313Y033340D01*
X011314Y033340D02*
X011314Y029461D01*
X011313Y029460D02*
X011318Y029440D01*
X011326Y029421D01*
X011337Y029403D01*
X011350Y029387D01*
X011366Y029374D01*
X011383Y029363D01*
X011402Y029355D01*
X011422Y029350D01*
X011443Y029348D01*
X011464Y029349D01*
X011464Y029350D02*
X012696Y029350D01*
X012719Y029352D01*
X012742Y029357D01*
X012764Y029366D01*
X012784Y029379D01*
X012802Y029394D01*
X012817Y029412D01*
X012830Y029432D01*
X012839Y029454D01*
X012844Y029477D01*
X012846Y029500D01*
X009669Y026994D02*
X009669Y032506D01*
X005731Y032506D01*
X005731Y026994D01*
X009669Y026994D01*
X009368Y026761D02*
X009368Y026694D01*
X009101Y026427D01*
X009101Y026360D01*
X008908Y026427D02*
X008908Y026761D01*
X009101Y026761D02*
X009368Y026761D01*
X008908Y026427D02*
X008841Y026360D01*
X008708Y026360D01*
X008641Y026427D01*
X008641Y026761D01*
X008286Y021468D02*
X008286Y021232D01*
X007814Y021232D02*
X007814Y021468D01*
X007735Y020126D02*
X007499Y020126D01*
X007499Y019811D01*
X008365Y020126D02*
X008601Y020126D01*
X008601Y019811D01*
X008168Y018936D02*
X007932Y018936D01*
X007932Y018464D02*
X008168Y018464D01*
X008210Y018285D02*
X008076Y018285D01*
X008010Y018219D01*
X008010Y018152D01*
X008076Y018085D01*
X008277Y018085D01*
X008277Y017952D02*
X008277Y018219D01*
X008210Y018285D01*
X008277Y017952D02*
X008210Y017885D01*
X008076Y017885D01*
X008010Y017952D01*
X007816Y017885D02*
X007683Y018018D01*
X007749Y018018D02*
X007549Y018018D01*
X007549Y017885D02*
X007549Y018285D01*
X007749Y018285D01*
X007816Y018219D01*
X007816Y018085D01*
X007749Y018018D01*
X007123Y016497D02*
X007190Y016430D01*
X007190Y016297D01*
X007123Y016230D01*
X006856Y016230D01*
X006490Y016820D02*
X006020Y016820D01*
X007170Y015280D02*
X008170Y014280D01*
X008170Y016280D01*
X007170Y015280D01*
X008090Y014410D02*
X008140Y014350D01*
X008140Y014450D01*
X008140Y016140D02*
X008090Y016150D01*
X008110Y016180D01*
X008150Y016210D02*
X008140Y016140D01*
X012540Y015930D02*
X012540Y015597D01*
X012607Y015530D01*
X012740Y015530D01*
X012807Y015597D01*
X012807Y015930D01*
X013000Y015797D02*
X013134Y015930D01*
X013134Y015530D01*
X013267Y015530D02*
X013000Y015530D01*
X013574Y015125D02*
X013576Y015145D01*
X013581Y015165D01*
X013591Y015183D01*
X013603Y015200D01*
X013618Y015214D01*
X013636Y015224D01*
X013655Y015232D01*
X013675Y015236D01*
X013695Y015236D01*
X013715Y015232D01*
X013734Y015224D01*
X013752Y015214D01*
X013767Y015200D01*
X013779Y015183D01*
X013789Y015165D01*
X013794Y015145D01*
X013796Y015125D01*
X013794Y015105D01*
X013789Y015085D01*
X013779Y015067D01*
X013767Y015050D01*
X013752Y015036D01*
X013734Y015026D01*
X013715Y015018D01*
X013695Y015014D01*
X013675Y015014D01*
X013655Y015018D01*
X013636Y015026D01*
X013618Y015036D01*
X013603Y015050D01*
X013591Y015067D01*
X013581Y015085D01*
X013576Y015105D01*
X013574Y015125D01*
X017139Y010895D02*
X017339Y010895D01*
X017406Y010829D01*
X017406Y010695D01*
X017339Y010628D01*
X017139Y010628D01*
X017139Y010495D02*
X017139Y010895D01*
X017272Y010628D02*
X017406Y010495D01*
X017599Y010562D02*
X017666Y010495D01*
X017799Y010495D01*
X017866Y010562D01*
X017866Y010628D01*
X017799Y010695D01*
X017733Y010695D01*
X017799Y010695D02*
X017866Y010762D01*
X017866Y010829D01*
X017799Y010895D01*
X017666Y010895D01*
X017599Y010829D01*
X017792Y011124D02*
X018028Y011124D01*
X018126Y010895D02*
X018060Y010829D01*
X018060Y010762D01*
X018126Y010695D01*
X018326Y010695D01*
X018326Y010562D02*
X018326Y010829D01*
X018260Y010895D01*
X018126Y010895D01*
X018060Y010562D02*
X018126Y010495D01*
X018260Y010495D01*
X018326Y010562D01*
X018800Y010550D02*
X018800Y010950D01*
X018800Y010550D02*
X019067Y010550D01*
X019260Y010550D02*
X019527Y010550D01*
X019721Y010550D02*
X019921Y010550D01*
X019988Y010617D01*
X019988Y010884D01*
X019921Y010950D01*
X019721Y010950D01*
X019721Y010550D01*
X019394Y010750D02*
X019260Y010750D01*
X019260Y010950D02*
X019260Y010550D01*
X019260Y010950D02*
X019527Y010950D01*
X020181Y010950D02*
X020448Y010950D01*
X020448Y010884D01*
X020181Y010617D01*
X020181Y010550D01*
X018700Y011642D02*
X018500Y011642D01*
X018600Y011542D02*
X018600Y011742D01*
X018028Y011596D02*
X017792Y011596D01*
X015560Y007120D02*
X015426Y007120D01*
X015360Y007054D01*
X015360Y006987D01*
X015426Y006920D01*
X015626Y006920D01*
X015626Y006787D02*
X015626Y007054D01*
X015560Y007120D01*
X015626Y006787D02*
X015560Y006720D01*
X015426Y006720D01*
X015360Y006787D01*
X015166Y006720D02*
X014899Y006720D01*
X015166Y006987D01*
X015166Y007054D01*
X015099Y007120D01*
X014966Y007120D01*
X014899Y007054D01*
X014706Y007054D02*
X014706Y006920D01*
X014639Y006853D01*
X014439Y006853D01*
X014439Y006720D02*
X014439Y007120D01*
X014639Y007120D01*
X014706Y007054D01*
X014572Y006853D02*
X014706Y006720D01*
X014295Y005742D02*
X014118Y005742D01*
X013882Y005742D01*
X013705Y005742D01*
X013705Y004679D01*
X014295Y004679D01*
X014295Y005742D01*
X014118Y005742D02*
X014116Y005722D01*
X014111Y005702D01*
X014102Y005683D01*
X014090Y005666D01*
X014076Y005652D01*
X014059Y005640D01*
X014040Y005631D01*
X014020Y005626D01*
X014000Y005624D01*
X013980Y005626D01*
X013960Y005631D01*
X013941Y005640D01*
X013924Y005652D01*
X013910Y005666D01*
X013898Y005683D01*
X013889Y005702D01*
X013884Y005722D01*
X013882Y005742D01*
X013802Y005466D02*
X013804Y005486D01*
X013810Y005504D01*
X013819Y005522D01*
X013831Y005537D01*
X013846Y005549D01*
X013864Y005558D01*
X013882Y005564D01*
X013902Y005566D01*
X013922Y005564D01*
X013940Y005558D01*
X013958Y005549D01*
X013973Y005537D01*
X013985Y005522D01*
X013994Y005504D01*
X014000Y005486D01*
X014002Y005466D01*
X014000Y005446D01*
X013994Y005428D01*
X013985Y005410D01*
X013973Y005395D01*
X013958Y005383D01*
X013940Y005374D01*
X013922Y005368D01*
X013902Y005366D01*
X013882Y005368D01*
X013864Y005374D01*
X013846Y005383D01*
X013831Y005395D01*
X013819Y005410D01*
X013810Y005428D01*
X013804Y005446D01*
X013802Y005466D01*
X013834Y004380D02*
X013767Y004314D01*
X013834Y004380D02*
X013967Y004380D01*
X014034Y004314D01*
X014034Y004247D01*
X013767Y003980D01*
X014034Y003980D01*
X013507Y004047D02*
X013507Y004380D01*
X013440Y004380D02*
X013574Y004380D01*
X013507Y004047D02*
X013440Y003980D01*
X013373Y003980D01*
X013307Y004047D01*
X013113Y004047D02*
X013113Y004113D01*
X013046Y004180D01*
X012913Y004180D01*
X012846Y004247D01*
X012846Y004314D01*
X012913Y004380D01*
X013046Y004380D01*
X013113Y004314D01*
X013113Y004047D02*
X013046Y003980D01*
X012913Y003980D01*
X012846Y004047D01*
X012593Y003935D02*
X012595Y003915D01*
X012593Y003896D01*
X012587Y003877D01*
X012578Y003860D01*
X012566Y003844D01*
X012551Y003832D01*
X012533Y003823D01*
X012515Y003817D01*
X012515Y003816D02*
X011885Y003816D01*
X011885Y003817D02*
X011869Y003822D01*
X011853Y003830D01*
X011839Y003840D01*
X011827Y003852D01*
X011817Y003867D01*
X011810Y003883D01*
X011806Y003900D01*
X011805Y003917D01*
X011807Y003935D01*
X011807Y004485D02*
X011805Y004503D01*
X011806Y004520D01*
X011810Y004537D01*
X011817Y004553D01*
X011827Y004568D01*
X011839Y004580D01*
X011853Y004590D01*
X011869Y004598D01*
X011885Y004603D01*
X011885Y004604D02*
X012515Y004604D01*
X012515Y004603D02*
X012533Y004597D01*
X012551Y004588D01*
X012566Y004576D01*
X012578Y004560D01*
X012587Y004543D01*
X012593Y004524D01*
X012595Y004505D01*
X012593Y004485D01*
X012153Y004860D02*
X012220Y004927D01*
X012220Y005060D01*
X012153Y005127D01*
X011820Y005127D01*
X011953Y005320D02*
X011820Y005454D01*
X012220Y005454D01*
X012220Y005587D02*
X012220Y005320D01*
X012153Y004860D02*
X011820Y004860D01*
X011575Y004745D02*
X011575Y006075D01*
X009425Y006075D01*
X009425Y004745D01*
X011575Y004745D01*
X011270Y005710D02*
X011272Y005730D01*
X011278Y005748D01*
X011287Y005766D01*
X011299Y005781D01*
X011314Y005793D01*
X011332Y005802D01*
X011350Y005808D01*
X011370Y005810D01*
X011390Y005808D01*
X011408Y005802D01*
X011426Y005793D01*
X011441Y005781D01*
X011453Y005766D01*
X011462Y005748D01*
X011468Y005730D01*
X011470Y005710D01*
X011468Y005690D01*
X011462Y005672D01*
X011453Y005654D01*
X011441Y005639D01*
X011426Y005627D01*
X011408Y005618D01*
X011390Y005612D01*
X011370Y005610D01*
X011350Y005612D01*
X011332Y005618D01*
X011314Y005627D01*
X011299Y005639D01*
X011287Y005654D01*
X011278Y005672D01*
X011272Y005690D01*
X011270Y005710D01*
X011560Y005930D02*
X009440Y005930D01*
X009241Y006445D02*
X009108Y006445D01*
X009041Y006512D01*
X009174Y006645D02*
X009241Y006645D01*
X009308Y006578D01*
X009308Y006512D01*
X009241Y006445D01*
X009241Y006645D02*
X009308Y006712D01*
X009308Y006779D01*
X009241Y006845D01*
X009108Y006845D01*
X009041Y006779D01*
X008847Y006845D02*
X008580Y006845D01*
X008580Y006645D01*
X008714Y006712D01*
X008781Y006712D01*
X008847Y006645D01*
X008847Y006512D01*
X008781Y006445D01*
X008647Y006445D01*
X008580Y006512D01*
X008387Y006445D02*
X008253Y006578D01*
X008320Y006578D02*
X008120Y006578D01*
X008120Y006445D02*
X008120Y006845D01*
X008320Y006845D01*
X008387Y006779D01*
X008387Y006645D01*
X008320Y006578D01*
X008482Y006246D02*
X008718Y006246D01*
X008718Y005774D02*
X008482Y005774D01*
X008382Y005146D02*
X008618Y005146D01*
X008618Y004674D02*
X008382Y004674D01*
X008270Y004475D02*
X008337Y004409D01*
X008337Y004275D01*
X008270Y004208D01*
X008070Y004208D01*
X008070Y004075D02*
X008070Y004475D01*
X008270Y004475D01*
X008530Y004475D02*
X008530Y004275D01*
X008664Y004342D01*
X008731Y004342D01*
X008797Y004275D01*
X008797Y004142D01*
X008731Y004075D01*
X008597Y004075D01*
X008530Y004142D01*
X008337Y004075D02*
X008203Y004208D01*
X008530Y004475D02*
X008797Y004475D01*
X008991Y004409D02*
X009058Y004475D01*
X009191Y004475D01*
X009258Y004409D01*
X009258Y004342D01*
X008991Y004075D01*
X009258Y004075D01*
X008920Y003550D02*
X008700Y003550D01*
X008700Y003090D02*
X008920Y003090D01*
X008834Y002870D02*
X008834Y002470D01*
X008967Y002470D02*
X008700Y002470D01*
X008507Y002470D02*
X008373Y002603D01*
X008440Y002603D02*
X008240Y002603D01*
X008240Y002470D02*
X008240Y002870D01*
X008440Y002870D01*
X008507Y002804D01*
X008507Y002670D01*
X008440Y002603D01*
X008700Y002737D02*
X008834Y002870D01*
X009161Y002670D02*
X009361Y002670D01*
X009428Y002603D01*
X009428Y002537D01*
X009361Y002470D01*
X009228Y002470D01*
X009161Y002537D01*
X009161Y002670D01*
X009294Y002804D01*
X009428Y002870D01*
X009810Y002900D02*
X010010Y002900D01*
X010077Y002834D01*
X010077Y002700D01*
X010010Y002633D01*
X009810Y002633D01*
X009810Y002500D02*
X009810Y002900D01*
X009943Y002633D02*
X010077Y002500D01*
X010270Y002500D02*
X010537Y002900D01*
X010731Y002834D02*
X010798Y002900D01*
X010931Y002900D01*
X010998Y002834D01*
X010998Y002767D01*
X010731Y002500D01*
X010998Y002500D01*
X010537Y002500D02*
X010270Y002900D01*
X008045Y002560D02*
X008045Y002426D01*
X007978Y002360D01*
X007845Y002360D01*
X007845Y002560D01*
X007912Y002627D01*
X007978Y002627D01*
X008045Y002560D01*
X007845Y002360D02*
X007711Y002493D01*
X007645Y002627D01*
X007436Y002428D02*
X007436Y002192D01*
X007645Y002099D02*
X007645Y001966D01*
X007711Y001899D01*
X007978Y001899D01*
X008045Y001966D01*
X008045Y002099D01*
X007978Y002166D01*
X007711Y002166D02*
X007645Y002099D01*
X006964Y002192D02*
X006964Y002428D01*
X006572Y001716D02*
X006572Y001126D01*
X005628Y001126D01*
X006889Y001243D02*
X006956Y001176D01*
X007089Y001176D01*
X007156Y001243D01*
X007350Y001243D02*
X007416Y001176D01*
X007550Y001176D01*
X007617Y001243D01*
X007617Y001310D01*
X007550Y001376D01*
X007483Y001376D01*
X007550Y001376D02*
X007617Y001443D01*
X007617Y001510D01*
X007550Y001577D01*
X007416Y001577D01*
X007350Y001510D01*
X007156Y001510D02*
X007089Y001577D01*
X006956Y001577D01*
X006889Y001510D01*
X006889Y001243D01*
X011820Y005781D02*
X012020Y005781D01*
X011953Y005914D01*
X011953Y005981D01*
X012020Y006048D01*
X012153Y006048D01*
X012220Y005981D01*
X012220Y005848D01*
X012153Y005781D01*
X011820Y005781D02*
X011820Y006048D01*
X011510Y007480D02*
X011290Y007480D01*
X026446Y014202D02*
X028414Y014202D01*
X028414Y015383D01*
X028414Y016957D02*
X028414Y017745D01*
X028021Y018139D01*
X026839Y018139D01*
X026446Y017745D01*
X026446Y016957D01*
X026446Y015383D02*
X026446Y014202D01*
X028177Y018290D02*
X028310Y018290D01*
X028377Y018357D01*
X028570Y018357D02*
X028570Y018290D01*
X028570Y018357D02*
X028837Y018624D01*
X028837Y018690D01*
X028570Y018690D01*
X028377Y018624D02*
X028310Y018690D01*
X028177Y018690D01*
X028110Y018624D01*
X028110Y018357D01*
X028177Y018290D01*
X031030Y018220D02*
X033390Y018220D01*
X033376Y017787D02*
X033310Y017720D01*
X033310Y017586D01*
X033376Y017520D01*
X033443Y017520D01*
X033510Y017586D01*
X033510Y017787D01*
X033643Y017787D02*
X033376Y017787D01*
X033643Y017787D02*
X033710Y017720D01*
X033710Y017586D01*
X033643Y017520D01*
X033710Y017326D02*
X033710Y017059D01*
X033710Y017193D02*
X033310Y017193D01*
X033443Y017059D01*
X033376Y016866D02*
X033510Y016866D01*
X033577Y016799D01*
X033577Y016599D01*
X033710Y016599D02*
X033310Y016599D01*
X033310Y016799D01*
X033376Y016866D01*
X033577Y016732D02*
X033710Y016866D01*
X034010Y016820D02*
X034076Y016887D01*
X034210Y016887D01*
X034277Y016820D01*
X034277Y016620D01*
X034410Y016620D02*
X034010Y016620D01*
X034010Y016820D01*
X034277Y016753D02*
X034410Y016887D01*
X034210Y017080D02*
X034210Y017347D01*
X034410Y017281D02*
X034010Y017281D01*
X034210Y017080D01*
X034343Y017541D02*
X034410Y017608D01*
X034410Y017741D01*
X034343Y017808D01*
X034277Y017808D01*
X034210Y017741D01*
X034210Y017674D01*
X034210Y017741D02*
X034143Y017808D01*
X034076Y017808D01*
X034010Y017741D01*
X034010Y017608D01*
X034076Y017541D01*
X032776Y017732D02*
X032376Y017732D01*
X032576Y017532D01*
X032576Y017799D01*
X032509Y017338D02*
X032442Y017338D01*
X032376Y017271D01*
X032376Y017138D01*
X032442Y017071D01*
X032442Y016878D02*
X032576Y016878D01*
X032643Y016811D01*
X032643Y016611D01*
X032776Y016611D02*
X032376Y016611D01*
X032376Y016811D01*
X032442Y016878D01*
X032643Y016744D02*
X032776Y016878D01*
X032776Y017071D02*
X032509Y017338D01*
X032776Y017338D02*
X032776Y017071D01*
X033290Y015900D02*
X033290Y015790D01*
X033850Y015780D02*
X033850Y015900D01*
X034340Y015950D02*
X034340Y015730D01*
X034800Y015730D02*
X034800Y015950D01*
X034852Y015040D02*
X034852Y014840D01*
X034752Y014940D02*
X034952Y014940D01*
X031014Y026906D02*
X030947Y026972D01*
X030814Y026972D01*
X036901Y029372D02*
X036903Y029480D01*
X036909Y029588D01*
X036918Y029696D01*
X036932Y029803D01*
X036949Y029910D01*
X036970Y030016D01*
X036995Y030121D01*
X037023Y030225D01*
X037056Y030328D01*
X037092Y030430D01*
X037131Y030531D01*
X037174Y030630D01*
X037221Y030728D01*
X037271Y030823D01*
X037325Y030917D01*
X037381Y031009D01*
X037441Y031099D01*
X037505Y031187D01*
X037571Y031272D01*
X037640Y031355D01*
X037712Y031435D01*
X037787Y031513D01*
X037865Y031588D01*
X037946Y031660D01*
X038028Y031730D01*
X038114Y031796D01*
X038201Y031859D01*
X038291Y031919D01*
X038383Y031976D01*
X038477Y032030D01*
X038573Y032080D01*
X038670Y032126D01*
X038769Y032170D01*
X038870Y032209D01*
X038972Y032245D01*
X039075Y032277D01*
X039179Y032306D01*
X039284Y032331D01*
X039390Y032352D01*
X039497Y032369D01*
X039604Y032383D01*
X039712Y032392D01*
X039820Y032398D01*
X039928Y032400D01*
X040150Y032400D01*
X040150Y040900D01*
X000150Y040900D01*
X000150Y032400D01*
X000361Y032400D01*
X000469Y032398D01*
X000578Y032392D01*
X000686Y032383D01*
X000793Y032369D01*
X000901Y032352D01*
X001007Y032331D01*
X001113Y032306D01*
X001217Y032277D01*
X001321Y032244D01*
X001423Y032208D01*
X001524Y032169D01*
X001623Y032125D01*
X001721Y032079D01*
X001817Y032028D01*
X001912Y031975D01*
X002004Y031918D01*
X002094Y031857D01*
X002182Y031794D01*
X002268Y031727D01*
X002351Y031658D01*
X002432Y031585D01*
X002510Y031510D01*
X002585Y031432D01*
X002658Y031351D01*
X002727Y031268D01*
X002794Y031182D01*
X002857Y031094D01*
X002918Y031004D01*
X002975Y030912D01*
X003028Y030817D01*
X003079Y030721D01*
X003125Y030623D01*
X003169Y030524D01*
X003208Y030423D01*
X003244Y030321D01*
X003277Y030217D01*
X003306Y030113D01*
X003331Y030007D01*
X003352Y029901D01*
X003369Y029793D01*
X003383Y029686D01*
X003392Y029578D01*
X003398Y029469D01*
X003400Y029361D01*
X008855Y032748D02*
X008855Y033148D01*
X008922Y032948D02*
X009122Y032748D01*
X009316Y032815D02*
X009382Y032748D01*
X009516Y032748D01*
X009582Y032815D01*
X009582Y032881D01*
X009516Y032948D01*
X009449Y032948D01*
X009516Y032948D02*
X009582Y033015D01*
X009582Y033081D01*
X009516Y033148D01*
X009382Y033148D01*
X009316Y033081D01*
X009122Y033148D02*
X008855Y032881D01*
X013030Y033577D02*
X013097Y033510D01*
X013230Y033510D01*
X013297Y033577D01*
X013297Y033910D01*
X013030Y033910D02*
X013030Y033577D01*
X013490Y033577D02*
X013490Y033710D01*
X013691Y033710D01*
X013757Y033643D01*
X013757Y033577D01*
X013691Y033510D01*
X013557Y033510D01*
X013490Y033577D01*
X013490Y033710D02*
X013624Y033844D01*
X013757Y033910D01*
D13*
X026640Y023039D03*
X027590Y023039D03*
X033570Y014101D03*
X014891Y018550D03*
X014861Y019340D03*
X009811Y007710D03*
X010439Y003310D03*
D14*
X030840Y019510D03*
X030850Y023670D03*
D15*
X019459Y011596D03*
X019459Y011124D03*
D16*
X027751Y001528D03*
D17*
X030209Y001528D03*
D18*
X027751Y001530D03*
D19*
X027979Y002153D03*
X030209Y001530D03*
X030439Y002153D03*
D20*
X030548Y002005D03*
X030548Y002003D03*
X030548Y002000D03*
X030458Y001695D03*
X030455Y001693D03*
X030090Y001698D03*
X030090Y001700D03*
X030090Y001703D03*
X030090Y001705D03*
X030185Y001973D03*
X030188Y001975D03*
X030190Y001978D03*
X030193Y001980D03*
X029443Y001555D03*
X029443Y001553D03*
X029443Y001550D03*
X029305Y002125D03*
X029305Y002128D03*
X028090Y001995D03*
X028090Y001993D03*
X027975Y001685D03*
X027973Y001683D03*
X027970Y001680D03*
X027968Y001678D03*
X027753Y001533D03*
X027628Y001700D03*
X027628Y001703D03*
X027628Y001705D03*
X027628Y001708D03*
X027628Y001710D03*
X027725Y001975D03*
X027728Y001978D03*
X027730Y001980D03*
X027733Y001983D03*
X027043Y002133D03*
X026258Y002010D03*
X026258Y002008D03*
X026258Y002005D03*
X026258Y002003D03*
X026193Y001883D03*
X026148Y001750D03*
X026148Y001748D03*
D21*
X026140Y001678D03*
X026138Y001670D03*
X026138Y001668D03*
X026135Y001663D03*
X026135Y001660D03*
X026135Y001658D03*
X026133Y001655D03*
X026133Y001653D03*
X026133Y001650D03*
X026130Y001648D03*
X026130Y001645D03*
X026130Y001643D03*
X026130Y001640D03*
X026128Y001638D03*
X026128Y001635D03*
X026128Y001633D03*
X026125Y001628D03*
X026125Y001625D03*
X026123Y001620D03*
X026123Y001618D03*
X026123Y001615D03*
X026120Y001613D03*
X026120Y001610D03*
X026120Y001608D03*
X026118Y001603D03*
X026118Y001600D03*
X026118Y001598D03*
X026115Y001593D03*
X026115Y001590D03*
X026115Y001588D03*
X026113Y001580D03*
X026113Y001578D03*
X026113Y001575D03*
X026110Y001563D03*
X026110Y001560D03*
X026755Y001743D03*
X026760Y001750D03*
X026768Y001760D03*
X026773Y001768D03*
X026775Y001770D03*
X026778Y001775D03*
X026780Y001778D03*
X026783Y001783D03*
X026785Y001785D03*
X026788Y001788D03*
X026790Y001793D03*
X026793Y001795D03*
X026795Y001800D03*
X026798Y001803D03*
X026800Y001805D03*
X026800Y001808D03*
X026803Y001810D03*
X026805Y001813D03*
X026805Y001815D03*
X026808Y001818D03*
X026810Y001820D03*
X026813Y001823D03*
X026813Y001825D03*
X026815Y001828D03*
X026818Y001830D03*
X026820Y001835D03*
X026823Y001838D03*
X026825Y001843D03*
X026828Y001845D03*
X026830Y001848D03*
X026833Y001853D03*
X026835Y001855D03*
X026838Y001860D03*
X026840Y001863D03*
X026845Y001870D03*
X026850Y001878D03*
X026853Y001880D03*
X026858Y001888D03*
X026863Y001895D03*
X027048Y001895D03*
X027048Y001893D03*
X027048Y001890D03*
X027048Y001888D03*
X027048Y001885D03*
X027048Y001883D03*
X027048Y001880D03*
X027048Y001878D03*
X027048Y001875D03*
X027048Y001873D03*
X027048Y001870D03*
X027048Y001868D03*
X027048Y001865D03*
X027048Y001898D03*
X027048Y001900D03*
X027048Y001903D03*
X027048Y001905D03*
X027048Y001908D03*
X027048Y001910D03*
X027048Y001913D03*
X027048Y001915D03*
X027048Y001918D03*
X027048Y001920D03*
X027048Y001923D03*
X027048Y001925D03*
X027048Y001928D03*
X027050Y001953D03*
X027050Y001955D03*
X027050Y001958D03*
X027050Y001960D03*
X027050Y001963D03*
X027050Y001965D03*
X027050Y001968D03*
X027050Y001970D03*
X027050Y001973D03*
X027050Y001975D03*
X027050Y001978D03*
X027050Y001980D03*
X027050Y001983D03*
X027050Y001985D03*
X027050Y001988D03*
X027050Y001990D03*
X029085Y001543D03*
X029088Y001550D03*
X029090Y001558D03*
X029093Y001563D03*
X029093Y001565D03*
X029095Y001570D03*
X029098Y001578D03*
X029100Y001585D03*
X029103Y001590D03*
X029103Y001593D03*
X029105Y001598D03*
X029108Y001605D03*
X029110Y001613D03*
X029113Y001618D03*
X029113Y001620D03*
X029115Y001625D03*
X029118Y001633D03*
X029120Y001640D03*
X029123Y001645D03*
X029123Y001648D03*
X029125Y001653D03*
X029128Y001660D03*
X029130Y001668D03*
X029133Y001673D03*
X029135Y001680D03*
X029138Y001688D03*
X029140Y001695D03*
X029143Y001700D03*
X029145Y001708D03*
X029148Y001715D03*
X029150Y001723D03*
X029153Y001728D03*
X029155Y001735D03*
X029158Y001743D03*
X029160Y001750D03*
X029163Y001755D03*
X029165Y001763D03*
X029168Y001770D03*
X029170Y001778D03*
X029173Y001783D03*
X029175Y001790D03*
X029178Y001798D03*
X029180Y001805D03*
X029183Y001810D03*
X029185Y001818D03*
X029188Y001825D03*
X029190Y001833D03*
X029193Y001838D03*
X029195Y001845D03*
X029198Y001853D03*
X029200Y001860D03*
X029203Y001865D03*
X029205Y001873D03*
X029208Y001880D03*
X029210Y001888D03*
X029213Y001893D03*
X029215Y001900D03*
X029218Y001908D03*
X029220Y001915D03*
X029223Y001920D03*
X029225Y001928D03*
X029228Y001935D03*
X029230Y001943D03*
X029553Y001833D03*
X029555Y001838D03*
X029558Y001845D03*
X029560Y001853D03*
X029563Y001860D03*
X029565Y001865D03*
X029568Y001873D03*
X029570Y001880D03*
X029573Y001888D03*
X029575Y001893D03*
X029578Y001900D03*
X029580Y001908D03*
X029583Y001915D03*
X029585Y001920D03*
X029588Y001928D03*
X029590Y001935D03*
X029593Y001943D03*
X029595Y001948D03*
X029598Y001955D03*
X029600Y001963D03*
X029603Y001970D03*
X029605Y001975D03*
X029608Y001983D03*
X029610Y001990D03*
X029613Y001998D03*
X029615Y002003D03*
X029618Y002010D03*
X029620Y002018D03*
X029623Y002023D03*
X029623Y002025D03*
X029625Y002030D03*
X029628Y002038D03*
X029630Y002045D03*
X029633Y002050D03*
X029633Y002053D03*
X029635Y002058D03*
X029638Y002065D03*
X029640Y002073D03*
X029643Y002078D03*
X029643Y002080D03*
X029645Y002085D03*
X029648Y002093D03*
X029650Y002100D03*
X029653Y002105D03*
X029653Y002108D03*
X029655Y002113D03*
X029658Y002120D03*
X029660Y002128D03*
X029663Y002133D03*
X029663Y002135D03*
X029665Y002140D03*
X029550Y001825D03*
X029548Y001818D03*
X029545Y001810D03*
X029543Y001805D03*
X029540Y001798D03*
X029538Y001790D03*
X029535Y001783D03*
X029533Y001778D03*
X029530Y001770D03*
X029528Y001763D03*
X029525Y001758D03*
X029525Y001755D03*
X029523Y001750D03*
X029520Y001743D03*
X030208Y001533D03*
X030475Y001728D03*
X030478Y001733D03*
X030480Y001738D03*
X030545Y001945D03*
D22*
X030439Y001670D03*
X030101Y001663D03*
X030231Y002018D03*
X030234Y002020D03*
X029304Y002095D03*
X029304Y002098D03*
X029304Y002100D03*
X028079Y002023D03*
X027771Y002020D03*
X027769Y002018D03*
X027639Y001665D03*
X027754Y001535D03*
X027939Y001653D03*
X027034Y002108D03*
X027034Y002110D03*
X032551Y001555D03*
X032551Y001553D03*
D23*
X030545Y002013D03*
X030208Y001998D03*
X030205Y001995D03*
X030203Y001993D03*
X030093Y001688D03*
X030093Y001685D03*
X030208Y001535D03*
X030450Y001685D03*
X029305Y002115D03*
X029305Y002118D03*
X029305Y002120D03*
X028088Y002005D03*
X028088Y002003D03*
X027963Y001673D03*
X027960Y001670D03*
X027958Y001668D03*
X027630Y001688D03*
X027630Y001690D03*
X027040Y002125D03*
X027040Y002128D03*
X026258Y002015D03*
X026185Y001878D03*
X026145Y001758D03*
D24*
X027024Y002080D03*
X027024Y002083D03*
X027654Y001645D03*
X027754Y001538D03*
X028066Y002038D03*
X029301Y002060D03*
X029301Y002063D03*
X029301Y002065D03*
X029449Y001618D03*
X030116Y001645D03*
X030424Y001655D03*
X032564Y001588D03*
D25*
X032555Y001563D03*
X032553Y001558D03*
X030535Y002030D03*
X030238Y002023D03*
X030103Y001660D03*
X030208Y001538D03*
X029445Y001585D03*
X029445Y001588D03*
X029303Y002090D03*
X029303Y002093D03*
X028078Y002025D03*
X027775Y002023D03*
X027640Y001663D03*
X027643Y001660D03*
X027935Y001650D03*
X027033Y002105D03*
X026250Y002030D03*
X026138Y001768D03*
D26*
X026148Y001720D03*
X026148Y001718D03*
X026148Y001715D03*
X026148Y001713D03*
X026148Y001710D03*
X026145Y001700D03*
X026145Y001698D03*
X026110Y001550D03*
X026110Y001548D03*
X026110Y001545D03*
X026110Y001543D03*
X026110Y001540D03*
X025788Y001650D03*
X025788Y001653D03*
X025790Y001658D03*
X025793Y001665D03*
X025795Y001673D03*
X025798Y001678D03*
X025798Y001680D03*
X025800Y001685D03*
X025803Y001693D03*
X025805Y001700D03*
X025808Y001705D03*
X025808Y001708D03*
X025810Y001713D03*
X025813Y001720D03*
X025815Y001728D03*
X025818Y001733D03*
X025818Y001735D03*
X025820Y001740D03*
X025823Y001748D03*
X025825Y001755D03*
X025828Y001760D03*
X025828Y001763D03*
X025830Y001768D03*
X025785Y001645D03*
X025783Y001638D03*
X025780Y001630D03*
X025778Y001625D03*
X025778Y001623D03*
X025775Y001618D03*
X025773Y001610D03*
X025770Y001603D03*
X025768Y001598D03*
X025768Y001595D03*
X025765Y001590D03*
X025763Y001583D03*
X025760Y001575D03*
X025758Y001570D03*
X025758Y001568D03*
X025755Y001563D03*
X025753Y001555D03*
X025750Y001548D03*
X025748Y001543D03*
X025748Y001540D03*
X026208Y001895D03*
X026210Y001898D03*
X026213Y001900D03*
X026215Y001903D03*
X026218Y001905D03*
X026218Y001908D03*
X026220Y001910D03*
X026223Y001913D03*
X026225Y001918D03*
X026228Y001920D03*
X026230Y001925D03*
X026233Y001930D03*
X026235Y001933D03*
X026235Y001935D03*
X026238Y001938D03*
X026238Y001940D03*
X026240Y001943D03*
X026240Y001945D03*
X026243Y001948D03*
X026243Y001950D03*
X026245Y001955D03*
X026248Y001960D03*
X026248Y001963D03*
X026250Y001968D03*
X026693Y001655D03*
X026695Y001658D03*
X026700Y001665D03*
X026703Y001668D03*
X026705Y001673D03*
X026708Y001675D03*
X026713Y001683D03*
X026725Y001700D03*
X026690Y001650D03*
X026688Y001648D03*
X026685Y001643D03*
X026683Y001640D03*
X026680Y001638D03*
X026680Y001635D03*
X026678Y001633D03*
X026675Y001630D03*
X026673Y001625D03*
X026670Y001623D03*
X026668Y001620D03*
X026668Y001618D03*
X026665Y001615D03*
X026663Y001613D03*
X026660Y001608D03*
X026658Y001605D03*
X026655Y001603D03*
X026655Y001600D03*
X026653Y001598D03*
X026650Y001595D03*
X026648Y001590D03*
X026645Y001588D03*
X026643Y001583D03*
X026640Y001580D03*
X026635Y001573D03*
X026633Y001570D03*
X026630Y001565D03*
X026628Y001563D03*
X026623Y001555D03*
X026618Y001548D03*
X027043Y001673D03*
X027043Y001675D03*
X027043Y001678D03*
X027043Y001680D03*
X027043Y001683D03*
X027043Y001685D03*
X027043Y001688D03*
X027043Y001690D03*
X027043Y001693D03*
X027043Y001695D03*
X027043Y001698D03*
X027043Y001700D03*
X027043Y001703D03*
X027043Y001705D03*
X027043Y001708D03*
X027043Y001710D03*
X027043Y001713D03*
X027043Y001715D03*
X027043Y001718D03*
X027043Y001720D03*
X027043Y001723D03*
X027043Y001725D03*
X027043Y001728D03*
X027043Y001730D03*
X027043Y001733D03*
X027043Y001735D03*
X027045Y001755D03*
X027045Y001758D03*
X027045Y001760D03*
X027045Y001763D03*
X027045Y001765D03*
X027045Y001768D03*
X027045Y001770D03*
X027045Y001773D03*
X027045Y001775D03*
X027045Y001778D03*
X027045Y001780D03*
X027045Y001783D03*
X027045Y001785D03*
X027045Y001788D03*
X027045Y001790D03*
X027045Y001793D03*
X027045Y001795D03*
X027045Y001798D03*
X027635Y001793D03*
X027638Y001803D03*
X027640Y001813D03*
X027643Y001820D03*
X027645Y001828D03*
X027648Y001835D03*
X027650Y001843D03*
X027653Y001848D03*
X027655Y001855D03*
X027658Y001860D03*
X027663Y001873D03*
X027665Y001878D03*
X027668Y001883D03*
X028000Y001718D03*
X028005Y001725D03*
X028008Y001730D03*
X028010Y001733D03*
X028010Y001735D03*
X028013Y001738D03*
X028015Y001743D03*
X028018Y001745D03*
X028020Y001750D03*
X028023Y001755D03*
X028025Y001760D03*
X028090Y001955D03*
X028090Y001958D03*
X028090Y001960D03*
X028090Y001963D03*
X028090Y001965D03*
X028090Y001968D03*
X027978Y002150D03*
X028613Y001840D03*
X028615Y001845D03*
X028618Y001853D03*
X028620Y001860D03*
X028623Y001868D03*
X028625Y001873D03*
X028628Y001880D03*
X028630Y001888D03*
X028633Y001895D03*
X028635Y001900D03*
X028638Y001908D03*
X028640Y001915D03*
X028643Y001923D03*
X028645Y001928D03*
X028648Y001935D03*
X028650Y001943D03*
X028653Y001950D03*
X028655Y001955D03*
X028658Y001963D03*
X028660Y001970D03*
X028663Y001978D03*
X028665Y001983D03*
X028668Y001990D03*
X028670Y001998D03*
X028673Y002005D03*
X028675Y002010D03*
X028678Y002018D03*
X028680Y002025D03*
X028683Y002033D03*
X028685Y002038D03*
X028688Y002045D03*
X028690Y002053D03*
X028693Y002060D03*
X028695Y002065D03*
X028698Y002073D03*
X028700Y002080D03*
X028703Y002088D03*
X028705Y002093D03*
X028708Y002100D03*
X028710Y002108D03*
X028713Y002113D03*
X028713Y002115D03*
X028715Y002120D03*
X028718Y002128D03*
X028720Y002135D03*
X028723Y002140D03*
X028610Y001833D03*
X028608Y001825D03*
X028605Y001818D03*
X028603Y001813D03*
X028600Y001805D03*
X028598Y001798D03*
X028595Y001790D03*
X028593Y001785D03*
X028590Y001778D03*
X028588Y001770D03*
X028585Y001763D03*
X028583Y001758D03*
X028580Y001750D03*
X028578Y001743D03*
X028575Y001735D03*
X028573Y001730D03*
X028570Y001723D03*
X028568Y001715D03*
X028565Y001708D03*
X028563Y001703D03*
X028560Y001695D03*
X028558Y001688D03*
X028555Y001683D03*
X028555Y001680D03*
X028553Y001675D03*
X028550Y001668D03*
X028548Y001660D03*
X028545Y001655D03*
X028545Y001653D03*
X028543Y001648D03*
X028540Y001640D03*
X028538Y001633D03*
X028535Y001628D03*
X028535Y001625D03*
X028533Y001620D03*
X028530Y001613D03*
X028528Y001605D03*
X028525Y001600D03*
X028525Y001598D03*
X028523Y001593D03*
X028520Y001585D03*
X028518Y001578D03*
X028515Y001573D03*
X028515Y001570D03*
X028513Y001565D03*
X028510Y001558D03*
X028508Y001550D03*
X028505Y001545D03*
X028505Y001543D03*
X029393Y001755D03*
X029393Y001758D03*
X029393Y001760D03*
X029390Y001768D03*
X029390Y001770D03*
X029388Y001778D03*
X029388Y001780D03*
X029388Y001783D03*
X029385Y001790D03*
X029385Y001793D03*
X029383Y001800D03*
X029383Y001803D03*
X029383Y001805D03*
X029380Y001813D03*
X029380Y001815D03*
X029378Y001823D03*
X029378Y001825D03*
X029378Y001828D03*
X029375Y001835D03*
X029375Y001838D03*
X029373Y001848D03*
X029373Y001850D03*
X029370Y001858D03*
X029370Y001860D03*
X029370Y001863D03*
X029368Y001870D03*
X029368Y001873D03*
X029365Y001880D03*
X029365Y001883D03*
X029365Y001885D03*
X029363Y001893D03*
X029363Y001895D03*
X029360Y001903D03*
X029360Y001905D03*
X029360Y001908D03*
X029358Y001915D03*
X029358Y001918D03*
X029355Y001925D03*
X029355Y001928D03*
X029355Y001930D03*
X029353Y001938D03*
X029353Y001940D03*
X029395Y001748D03*
X029395Y001745D03*
X029398Y001738D03*
X030100Y001805D03*
X030103Y001815D03*
X030105Y001823D03*
X030108Y001830D03*
X030110Y001838D03*
X030113Y001843D03*
X030115Y001850D03*
X030120Y001863D03*
X030123Y001868D03*
X030468Y001715D03*
X030468Y001713D03*
X030470Y001718D03*
X030473Y001723D03*
X030550Y001970D03*
X030550Y001973D03*
X030550Y001975D03*
X031593Y001655D03*
X031595Y001663D03*
X031598Y001670D03*
X031600Y001675D03*
X031600Y001678D03*
X031603Y001683D03*
X031605Y001690D03*
X031608Y001698D03*
X031610Y001703D03*
X031610Y001705D03*
X031613Y001710D03*
X031615Y001718D03*
X031618Y001725D03*
X031620Y001730D03*
X031620Y001733D03*
X031623Y001738D03*
X031625Y001745D03*
X031628Y001753D03*
X031630Y001758D03*
X031630Y001760D03*
X031633Y001765D03*
X031635Y001773D03*
X031638Y001780D03*
X031640Y001785D03*
X031640Y001788D03*
X031643Y001793D03*
X032550Y001740D03*
X032550Y001738D03*
X032550Y001735D03*
X032550Y001733D03*
X032550Y001730D03*
X032553Y001773D03*
X032553Y001775D03*
X032553Y001778D03*
X032555Y001813D03*
X032555Y001815D03*
X032685Y001733D03*
X032690Y001740D03*
X032695Y001748D03*
X032700Y001755D03*
X032705Y001763D03*
X032710Y001770D03*
X032715Y001778D03*
X032720Y001785D03*
X032725Y001793D03*
X032680Y001725D03*
D27*
X032679Y001723D03*
X032676Y001720D03*
X032681Y001728D03*
X032684Y001730D03*
X032686Y001735D03*
X032689Y001738D03*
X032691Y001743D03*
X032694Y001745D03*
X032696Y001750D03*
X032699Y001753D03*
X032701Y001758D03*
X032704Y001760D03*
X032706Y001765D03*
X032709Y001768D03*
X032711Y001773D03*
X032714Y001775D03*
X032716Y001780D03*
X032719Y001783D03*
X032721Y001788D03*
X032724Y001790D03*
X032726Y001795D03*
X032729Y001798D03*
X032731Y001800D03*
X032731Y001803D03*
X032734Y001805D03*
X032736Y001808D03*
X032736Y001810D03*
X032739Y001813D03*
X032741Y001815D03*
X032741Y001818D03*
X032744Y001820D03*
X032746Y001823D03*
X032746Y001825D03*
X032749Y001828D03*
X032751Y001830D03*
X032751Y001833D03*
X032754Y001835D03*
X032756Y001838D03*
X032756Y001840D03*
X032759Y001843D03*
X032761Y001845D03*
X032761Y001848D03*
X032764Y001850D03*
X032766Y001853D03*
X032766Y001855D03*
X032769Y001858D03*
X032771Y001860D03*
X032771Y001863D03*
X032774Y001865D03*
X032776Y001868D03*
X032776Y001870D03*
X032779Y001873D03*
X032781Y001875D03*
X032781Y001878D03*
X032784Y001880D03*
X032786Y001883D03*
X032786Y001885D03*
X032789Y001888D03*
X032791Y001890D03*
X032794Y001895D03*
X032796Y001898D03*
X032799Y001903D03*
X032801Y001905D03*
X032804Y001910D03*
X032806Y001913D03*
X032809Y001918D03*
X032811Y001920D03*
X032814Y001925D03*
X032816Y001928D03*
X032819Y001933D03*
X032821Y001935D03*
X032824Y001940D03*
X032826Y001943D03*
X032829Y001948D03*
X032831Y001950D03*
X032834Y001955D03*
X032836Y001958D03*
X032839Y001963D03*
X032841Y001965D03*
X032844Y001970D03*
X032846Y001973D03*
X032849Y001978D03*
X032851Y001980D03*
X032856Y001988D03*
X032861Y001995D03*
X032866Y002003D03*
X032871Y002010D03*
X032876Y002018D03*
X032881Y002025D03*
X032886Y002033D03*
X032891Y002040D03*
X032896Y002048D03*
X032901Y002055D03*
X032906Y002063D03*
X032911Y002070D03*
X032574Y002105D03*
X032574Y002108D03*
X032574Y002110D03*
X032574Y002113D03*
X032574Y002115D03*
X032574Y002118D03*
X032571Y002080D03*
X032571Y002078D03*
X032571Y002075D03*
X032571Y002073D03*
X032571Y002070D03*
X032571Y002068D03*
X032571Y002065D03*
X032569Y002043D03*
X032569Y002040D03*
X032569Y002038D03*
X032569Y002035D03*
X032569Y002033D03*
X032569Y002030D03*
X032569Y002028D03*
X032569Y002025D03*
X032569Y002023D03*
X032566Y002005D03*
X032566Y002003D03*
X032566Y002000D03*
X032566Y001998D03*
X032566Y001995D03*
X032566Y001993D03*
X032566Y001990D03*
X032566Y001988D03*
X032566Y001985D03*
X032566Y001983D03*
X032566Y001980D03*
X032564Y001968D03*
X032564Y001965D03*
X032564Y001963D03*
X032564Y001960D03*
X032564Y001958D03*
X032564Y001955D03*
X032564Y001953D03*
X032564Y001950D03*
X032564Y001948D03*
X032564Y001945D03*
X032564Y001943D03*
X032564Y001940D03*
X032561Y001930D03*
X032561Y001928D03*
X032561Y001925D03*
X032561Y001923D03*
X032561Y001920D03*
X032561Y001918D03*
X032561Y001915D03*
X032561Y001913D03*
X032561Y001910D03*
X032561Y001908D03*
X032561Y001905D03*
X032561Y001903D03*
X032561Y001900D03*
X032561Y001898D03*
X032559Y001890D03*
X032559Y001888D03*
X032559Y001885D03*
X032559Y001883D03*
X032559Y001880D03*
X032559Y001878D03*
X032559Y001875D03*
X032559Y001873D03*
X032559Y001870D03*
X032559Y001868D03*
X032559Y001865D03*
X032559Y001863D03*
X032559Y001860D03*
X032559Y001858D03*
X032559Y001855D03*
X032556Y001853D03*
X032556Y001850D03*
X032556Y001848D03*
X032556Y001845D03*
X032556Y001843D03*
X032556Y001840D03*
X032556Y001838D03*
X032556Y001835D03*
X032556Y001833D03*
X032556Y001830D03*
X032556Y001828D03*
X032556Y001825D03*
X032556Y001823D03*
X032556Y001820D03*
X032556Y001818D03*
X032554Y001810D03*
X032554Y001808D03*
X032554Y001805D03*
X032554Y001803D03*
X032554Y001800D03*
X032554Y001798D03*
X032554Y001795D03*
X032554Y001793D03*
X032554Y001790D03*
X032554Y001788D03*
X032554Y001785D03*
X032554Y001783D03*
X032554Y001780D03*
X032551Y001770D03*
X032551Y001768D03*
X032551Y001765D03*
X032551Y001763D03*
X032551Y001760D03*
X032551Y001758D03*
X032551Y001755D03*
X032551Y001753D03*
X032551Y001750D03*
X032551Y001748D03*
X032551Y001745D03*
X032551Y001743D03*
X032549Y001728D03*
X032549Y001725D03*
X032549Y001723D03*
X032549Y001720D03*
X031644Y001795D03*
X031644Y001798D03*
X031641Y001790D03*
X031639Y001783D03*
X031636Y001778D03*
X031636Y001775D03*
X031634Y001770D03*
X031634Y001768D03*
X031631Y001763D03*
X031629Y001755D03*
X031626Y001750D03*
X031626Y001748D03*
X031624Y001743D03*
X031624Y001740D03*
X031621Y001735D03*
X031619Y001728D03*
X031616Y001723D03*
X031616Y001720D03*
X031614Y001715D03*
X031614Y001713D03*
X031611Y001708D03*
X031609Y001700D03*
X031606Y001695D03*
X031606Y001693D03*
X031604Y001688D03*
X031604Y001685D03*
X031601Y001680D03*
X031599Y001673D03*
X031596Y001668D03*
X031596Y001665D03*
X031594Y001660D03*
X031594Y001658D03*
X031591Y001653D03*
X031591Y001650D03*
X030549Y001978D03*
X030549Y001980D03*
X030549Y001983D03*
X030549Y001985D03*
X030466Y001710D03*
X030464Y001708D03*
X030099Y001798D03*
X030099Y001800D03*
X030099Y001803D03*
X030101Y001808D03*
X030101Y001810D03*
X030101Y001813D03*
X030104Y001818D03*
X030104Y001820D03*
X030106Y001825D03*
X030106Y001828D03*
X030109Y001833D03*
X030109Y001835D03*
X030111Y001840D03*
X030114Y001845D03*
X030114Y001848D03*
X030116Y001853D03*
X030116Y001855D03*
X030119Y001858D03*
X030119Y001860D03*
X030121Y001865D03*
X030124Y001870D03*
X030124Y001873D03*
X030126Y001875D03*
X030126Y001878D03*
X030129Y001880D03*
X030129Y001883D03*
X030131Y001885D03*
X030131Y001888D03*
X030134Y001890D03*
X030134Y001893D03*
X030136Y001895D03*
X030136Y001898D03*
X030139Y001900D03*
X030139Y001903D03*
X030141Y001905D03*
X030141Y001908D03*
X030144Y001910D03*
X030144Y001913D03*
X030146Y001915D03*
X030149Y001920D03*
X030151Y001925D03*
X030154Y001928D03*
X030156Y001933D03*
X030161Y001940D03*
X030096Y001795D03*
X030096Y001793D03*
X030096Y001790D03*
X030096Y001788D03*
X030094Y001785D03*
X030094Y001783D03*
X030094Y001780D03*
X030094Y001778D03*
X030094Y001775D03*
X030091Y001773D03*
X030091Y001770D03*
X030091Y001768D03*
X030091Y001765D03*
X030091Y001763D03*
X030089Y001753D03*
X030089Y001750D03*
X030089Y001748D03*
X030089Y001745D03*
X029441Y001540D03*
X029306Y002138D03*
X029306Y002140D03*
X028721Y002138D03*
X028719Y002133D03*
X028719Y002130D03*
X028716Y002125D03*
X028716Y002123D03*
X028714Y002118D03*
X028711Y002110D03*
X028709Y002105D03*
X028709Y002103D03*
X028706Y002098D03*
X028706Y002095D03*
X028704Y002090D03*
X028701Y002085D03*
X028701Y002083D03*
X028699Y002078D03*
X028699Y002075D03*
X028696Y002070D03*
X028696Y002068D03*
X028694Y002063D03*
X028691Y002058D03*
X028691Y002055D03*
X028689Y002050D03*
X028689Y002048D03*
X028686Y002043D03*
X028686Y002040D03*
X028684Y002035D03*
X028681Y002030D03*
X028681Y002028D03*
X028679Y002023D03*
X028679Y002020D03*
X028676Y002015D03*
X028676Y002013D03*
X028674Y002008D03*
X028671Y002003D03*
X028671Y002000D03*
X028669Y001995D03*
X028669Y001993D03*
X028666Y001988D03*
X028666Y001985D03*
X028664Y001980D03*
X028661Y001975D03*
X028661Y001973D03*
X028659Y001968D03*
X028659Y001965D03*
X028656Y001960D03*
X028656Y001958D03*
X028654Y001953D03*
X028651Y001948D03*
X028651Y001945D03*
X028649Y001940D03*
X028649Y001938D03*
X028646Y001933D03*
X028646Y001930D03*
X028644Y001925D03*
X028641Y001920D03*
X028641Y001918D03*
X028639Y001913D03*
X028639Y001910D03*
X028636Y001905D03*
X028636Y001903D03*
X028634Y001898D03*
X028631Y001893D03*
X028631Y001890D03*
X028629Y001885D03*
X028629Y001883D03*
X028626Y001878D03*
X028626Y001875D03*
X028624Y001870D03*
X028621Y001865D03*
X028621Y001863D03*
X028619Y001858D03*
X028619Y001855D03*
X028616Y001850D03*
X028616Y001848D03*
X028614Y001843D03*
X028611Y001838D03*
X028611Y001835D03*
X028609Y001830D03*
X028609Y001828D03*
X028606Y001823D03*
X028606Y001820D03*
X028604Y001815D03*
X028601Y001810D03*
X028601Y001808D03*
X028599Y001803D03*
X028599Y001800D03*
X028596Y001795D03*
X028596Y001793D03*
X028594Y001788D03*
X028591Y001783D03*
X028591Y001780D03*
X028589Y001775D03*
X028589Y001773D03*
X028586Y001768D03*
X028586Y001765D03*
X028584Y001760D03*
X028581Y001755D03*
X028581Y001753D03*
X028579Y001748D03*
X028579Y001745D03*
X028576Y001740D03*
X028576Y001738D03*
X028574Y001733D03*
X028571Y001728D03*
X028571Y001725D03*
X028569Y001720D03*
X028569Y001718D03*
X028566Y001713D03*
X028566Y001710D03*
X028564Y001705D03*
X028561Y001700D03*
X028561Y001698D03*
X028559Y001693D03*
X028559Y001690D03*
X028556Y001685D03*
X028554Y001678D03*
X028551Y001673D03*
X028551Y001670D03*
X028549Y001665D03*
X028549Y001663D03*
X028546Y001658D03*
X028544Y001650D03*
X028541Y001645D03*
X028541Y001643D03*
X028539Y001638D03*
X028539Y001635D03*
X028536Y001630D03*
X028534Y001623D03*
X028531Y001618D03*
X028531Y001615D03*
X028529Y001610D03*
X028529Y001608D03*
X028526Y001603D03*
X028524Y001595D03*
X028521Y001590D03*
X028521Y001588D03*
X028519Y001583D03*
X028519Y001580D03*
X028516Y001575D03*
X028514Y001568D03*
X028511Y001563D03*
X028511Y001560D03*
X028509Y001555D03*
X028509Y001553D03*
X028506Y001548D03*
X028504Y001540D03*
X028006Y001728D03*
X028004Y001723D03*
X028001Y001720D03*
X027999Y001715D03*
X027996Y001713D03*
X027991Y001705D03*
X028091Y001970D03*
X028091Y001973D03*
X028091Y001975D03*
X028091Y001978D03*
X028091Y001980D03*
X027701Y001943D03*
X027696Y001935D03*
X027691Y001928D03*
X027689Y001923D03*
X027686Y001918D03*
X027684Y001915D03*
X027684Y001913D03*
X027681Y001910D03*
X027679Y001905D03*
X027676Y001900D03*
X027674Y001898D03*
X027674Y001895D03*
X027671Y001893D03*
X027671Y001890D03*
X027669Y001888D03*
X027669Y001885D03*
X027666Y001880D03*
X027664Y001875D03*
X027661Y001870D03*
X027661Y001868D03*
X027659Y001865D03*
X027659Y001863D03*
X027656Y001858D03*
X027654Y001853D03*
X027654Y001850D03*
X027651Y001845D03*
X027649Y001840D03*
X027649Y001838D03*
X027646Y001833D03*
X027646Y001830D03*
X027644Y001825D03*
X027644Y001823D03*
X027641Y001818D03*
X027641Y001815D03*
X027639Y001810D03*
X027639Y001808D03*
X027639Y001805D03*
X027636Y001800D03*
X027636Y001798D03*
X027636Y001795D03*
X027634Y001790D03*
X027634Y001788D03*
X027634Y001785D03*
X027634Y001783D03*
X027631Y001780D03*
X027631Y001778D03*
X027631Y001775D03*
X027631Y001773D03*
X027629Y001768D03*
X027629Y001765D03*
X027629Y001763D03*
X027629Y001760D03*
X027629Y001758D03*
X027041Y001670D03*
X027041Y001668D03*
X027041Y001665D03*
X027041Y001663D03*
X027041Y001660D03*
X027041Y001658D03*
X027041Y001655D03*
X027041Y001653D03*
X027041Y001650D03*
X027041Y001648D03*
X027041Y001645D03*
X027041Y001643D03*
X027041Y001640D03*
X027041Y001638D03*
X027041Y001635D03*
X027041Y001633D03*
X027041Y001630D03*
X027041Y001628D03*
X027041Y001625D03*
X027041Y001623D03*
X027041Y001620D03*
X027041Y001618D03*
X027041Y001615D03*
X027041Y001613D03*
X027041Y001610D03*
X027041Y001608D03*
X027039Y001553D03*
X027039Y001550D03*
X027039Y001548D03*
X027039Y001545D03*
X026661Y001610D03*
X026649Y001593D03*
X026644Y001585D03*
X026639Y001578D03*
X026636Y001575D03*
X026631Y001568D03*
X026626Y001560D03*
X026624Y001558D03*
X026621Y001553D03*
X026619Y001550D03*
X026616Y001545D03*
X026614Y001543D03*
X026611Y001540D03*
X026244Y001953D03*
X026246Y001958D03*
X026249Y001965D03*
X026251Y001970D03*
X026251Y001973D03*
X026251Y001975D03*
X026254Y001978D03*
X026254Y001980D03*
X026254Y001983D03*
X026149Y001735D03*
X026149Y001733D03*
X026149Y001730D03*
X026149Y001728D03*
X026149Y001725D03*
X026149Y001723D03*
X025834Y001775D03*
X025831Y001773D03*
X025831Y001770D03*
X025829Y001765D03*
X025826Y001758D03*
X025824Y001753D03*
X025824Y001750D03*
X025821Y001745D03*
X025821Y001743D03*
X025819Y001738D03*
X025816Y001730D03*
X025814Y001725D03*
X025814Y001723D03*
X025811Y001718D03*
X025811Y001715D03*
X025809Y001710D03*
X025806Y001703D03*
X025804Y001698D03*
X025804Y001695D03*
X025801Y001690D03*
X025801Y001688D03*
X025799Y001683D03*
X025796Y001675D03*
X025794Y001670D03*
X025794Y001668D03*
X025791Y001663D03*
X025791Y001660D03*
X025789Y001655D03*
X025786Y001648D03*
X025784Y001643D03*
X025784Y001640D03*
X025781Y001635D03*
X025781Y001633D03*
X025779Y001628D03*
X025776Y001620D03*
X025774Y001615D03*
X025774Y001613D03*
X025771Y001608D03*
X025771Y001605D03*
X025769Y001600D03*
X025766Y001593D03*
X025764Y001588D03*
X025764Y001585D03*
X025761Y001580D03*
X025761Y001578D03*
X025759Y001573D03*
X025756Y001565D03*
X025754Y001560D03*
X025754Y001558D03*
X025751Y001553D03*
X025751Y001550D03*
X025749Y001545D03*
D28*
X026200Y001888D03*
X026203Y001890D03*
X026205Y001893D03*
X026255Y001985D03*
X026255Y001988D03*
X026255Y001990D03*
X027045Y002140D03*
X027678Y001903D03*
X027680Y001908D03*
X027688Y001920D03*
X027690Y001925D03*
X027693Y001930D03*
X027695Y001933D03*
X027698Y001938D03*
X027700Y001940D03*
X027703Y001945D03*
X027705Y001948D03*
X027708Y001953D03*
X027710Y001955D03*
X027630Y001770D03*
X027628Y001755D03*
X027628Y001753D03*
X027628Y001750D03*
X027628Y001748D03*
X027628Y001745D03*
X027628Y001743D03*
X027628Y001740D03*
X027628Y001738D03*
X027985Y001698D03*
X027988Y001700D03*
X027990Y001703D03*
X027993Y001708D03*
X027995Y001710D03*
X028090Y001983D03*
X028090Y001985D03*
X028090Y001988D03*
X027040Y001605D03*
X027040Y001603D03*
X027040Y001600D03*
X027040Y001598D03*
X027040Y001595D03*
X027040Y001593D03*
X027040Y001590D03*
X027040Y001588D03*
X027040Y001585D03*
X027040Y001583D03*
X027040Y001580D03*
X027040Y001578D03*
X027040Y001575D03*
X027040Y001573D03*
X027040Y001570D03*
X027040Y001568D03*
X027040Y001565D03*
X027040Y001563D03*
X027040Y001560D03*
X027040Y001558D03*
X027040Y001555D03*
X027038Y001543D03*
X027038Y001540D03*
X029305Y002135D03*
X029443Y001548D03*
X029443Y001545D03*
X029443Y001543D03*
X030088Y001725D03*
X030088Y001728D03*
X030088Y001730D03*
X030088Y001733D03*
X030088Y001735D03*
X030088Y001738D03*
X030088Y001740D03*
X030088Y001743D03*
X030090Y001755D03*
X030090Y001758D03*
X030090Y001760D03*
X030148Y001918D03*
X030150Y001923D03*
X030155Y001930D03*
X030158Y001935D03*
X030160Y001938D03*
X030163Y001943D03*
X030165Y001945D03*
X030168Y001948D03*
X030168Y001950D03*
X030170Y001953D03*
X030178Y001963D03*
X030550Y001988D03*
X030550Y001990D03*
X030463Y001705D03*
X030460Y001700D03*
X032560Y001893D03*
X032560Y001895D03*
X032563Y001933D03*
X032563Y001935D03*
X032563Y001938D03*
X032565Y001970D03*
X032565Y001973D03*
X032565Y001975D03*
X032565Y001978D03*
X032568Y002008D03*
X032568Y002010D03*
X032568Y002013D03*
X032568Y002015D03*
X032568Y002018D03*
X032568Y002020D03*
X032570Y002045D03*
X032570Y002048D03*
X032570Y002050D03*
X032570Y002053D03*
X032570Y002055D03*
X032570Y002058D03*
X032570Y002060D03*
X032570Y002063D03*
X032573Y002083D03*
X032573Y002085D03*
X032573Y002088D03*
X032573Y002090D03*
X032573Y002093D03*
X032573Y002095D03*
X032573Y002098D03*
X032573Y002100D03*
X032573Y002103D03*
X032575Y002120D03*
X032575Y002123D03*
X032575Y002125D03*
X032575Y002128D03*
X032575Y002130D03*
X032575Y002133D03*
X032575Y002135D03*
X032575Y002138D03*
X032575Y002140D03*
X032838Y001960D03*
X032843Y001968D03*
X032848Y001975D03*
X032853Y001983D03*
X032855Y001985D03*
X032858Y001990D03*
X032860Y001993D03*
X032863Y001998D03*
X032865Y002000D03*
X032868Y002005D03*
X032870Y002008D03*
X032873Y002013D03*
X032875Y002015D03*
X032878Y002020D03*
X032880Y002023D03*
X032883Y002028D03*
X032885Y002030D03*
X032888Y002035D03*
X032890Y002038D03*
X032893Y002043D03*
X032895Y002045D03*
X032898Y002050D03*
X032900Y002053D03*
X032903Y002058D03*
X032905Y002060D03*
X032908Y002065D03*
X032910Y002068D03*
X032913Y002073D03*
X032915Y002075D03*
X032918Y002078D03*
X032918Y002080D03*
X032920Y002083D03*
X032923Y002085D03*
X032923Y002088D03*
X032925Y002090D03*
X032928Y002093D03*
X032928Y002095D03*
X032930Y002098D03*
X032933Y002100D03*
X032933Y002103D03*
X032935Y002105D03*
X032938Y002108D03*
X032938Y002110D03*
X032940Y002113D03*
X032943Y002115D03*
X032943Y002118D03*
X032945Y002120D03*
X032948Y002123D03*
X032948Y002125D03*
X032950Y002128D03*
X032953Y002130D03*
X032953Y002133D03*
X032955Y002135D03*
X032958Y002138D03*
X032958Y002140D03*
X032833Y001953D03*
X032828Y001945D03*
X032823Y001938D03*
X032818Y001930D03*
X032813Y001923D03*
X032808Y001915D03*
X032803Y001908D03*
X032798Y001900D03*
X032793Y001893D03*
D29*
X032573Y001610D03*
X030123Y001640D03*
X029450Y001640D03*
X029300Y002040D03*
X029300Y002043D03*
X028060Y002043D03*
X027910Y001638D03*
X027755Y001540D03*
X027663Y001640D03*
X027018Y002063D03*
X027018Y002065D03*
D30*
X027051Y001993D03*
X027049Y001950D03*
X027049Y001948D03*
X027049Y001945D03*
X027049Y001943D03*
X027049Y001940D03*
X027049Y001938D03*
X027049Y001935D03*
X027049Y001933D03*
X027049Y001930D03*
X026926Y001985D03*
X026921Y001978D03*
X026916Y001970D03*
X026914Y001968D03*
X026909Y001960D03*
X026906Y001958D03*
X026904Y001953D03*
X026901Y001950D03*
X026899Y001945D03*
X026896Y001943D03*
X026894Y001940D03*
X026891Y001935D03*
X026889Y001933D03*
X026886Y001928D03*
X026884Y001925D03*
X026881Y001923D03*
X026881Y001920D03*
X026879Y001918D03*
X026876Y001915D03*
X026876Y001913D03*
X026874Y001910D03*
X026871Y001908D03*
X026869Y001905D03*
X026869Y001903D03*
X026866Y001900D03*
X026864Y001898D03*
X026861Y001893D03*
X026859Y001890D03*
X026856Y001885D03*
X026854Y001883D03*
X026849Y001875D03*
X026846Y001873D03*
X026844Y001868D03*
X026841Y001865D03*
X026836Y001858D03*
X026831Y001850D03*
X026824Y001840D03*
X026819Y001833D03*
X026126Y001630D03*
X026124Y001623D03*
X026119Y001605D03*
X029084Y001540D03*
X029086Y001545D03*
X029086Y001548D03*
X029089Y001553D03*
X029089Y001555D03*
X029091Y001560D03*
X029094Y001568D03*
X029096Y001573D03*
X029096Y001575D03*
X029099Y001580D03*
X029099Y001583D03*
X029101Y001588D03*
X029104Y001595D03*
X029106Y001600D03*
X029106Y001603D03*
X029109Y001608D03*
X029109Y001610D03*
X029111Y001615D03*
X029114Y001623D03*
X029116Y001628D03*
X029116Y001630D03*
X029119Y001635D03*
X029119Y001638D03*
X029121Y001643D03*
X029124Y001650D03*
X029126Y001655D03*
X029126Y001658D03*
X029129Y001663D03*
X029129Y001665D03*
X029131Y001670D03*
X029134Y001675D03*
X029134Y001678D03*
X029136Y001683D03*
X029136Y001685D03*
X029139Y001690D03*
X029139Y001693D03*
X029141Y001698D03*
X029144Y001703D03*
X029144Y001705D03*
X029146Y001710D03*
X029146Y001713D03*
X029149Y001718D03*
X029149Y001720D03*
X029151Y001725D03*
X029154Y001730D03*
X029154Y001733D03*
X029156Y001738D03*
X029156Y001740D03*
X029159Y001745D03*
X029159Y001748D03*
X029161Y001753D03*
X029164Y001758D03*
X029164Y001760D03*
X029166Y001765D03*
X029166Y001768D03*
X029169Y001773D03*
X029169Y001775D03*
X029171Y001780D03*
X029174Y001785D03*
X029174Y001788D03*
X029176Y001793D03*
X029176Y001795D03*
X029179Y001800D03*
X029179Y001803D03*
X029181Y001808D03*
X029184Y001813D03*
X029184Y001815D03*
X029186Y001820D03*
X029186Y001823D03*
X029189Y001828D03*
X029189Y001830D03*
X029191Y001835D03*
X029194Y001840D03*
X029194Y001843D03*
X029196Y001848D03*
X029196Y001850D03*
X029199Y001855D03*
X029199Y001858D03*
X029201Y001863D03*
X029204Y001868D03*
X029204Y001870D03*
X029206Y001875D03*
X029206Y001878D03*
X029209Y001883D03*
X029209Y001885D03*
X029211Y001890D03*
X029214Y001895D03*
X029214Y001898D03*
X029216Y001903D03*
X029216Y001905D03*
X029219Y001910D03*
X029219Y001913D03*
X029221Y001918D03*
X029224Y001923D03*
X029224Y001925D03*
X029226Y001930D03*
X029226Y001933D03*
X029229Y001938D03*
X029229Y001940D03*
X029551Y001830D03*
X029551Y001828D03*
X029549Y001823D03*
X029549Y001820D03*
X029546Y001815D03*
X029546Y001813D03*
X029544Y001808D03*
X029541Y001803D03*
X029541Y001800D03*
X029539Y001795D03*
X029539Y001793D03*
X029536Y001788D03*
X029536Y001785D03*
X029534Y001780D03*
X029531Y001775D03*
X029531Y001773D03*
X029529Y001768D03*
X029529Y001765D03*
X029526Y001760D03*
X029524Y001753D03*
X029521Y001748D03*
X029521Y001745D03*
X029519Y001740D03*
X029519Y001738D03*
X029554Y001835D03*
X029556Y001840D03*
X029556Y001843D03*
X029559Y001848D03*
X029559Y001850D03*
X029561Y001855D03*
X029561Y001858D03*
X029564Y001863D03*
X029566Y001868D03*
X029566Y001870D03*
X029569Y001875D03*
X029569Y001878D03*
X029571Y001883D03*
X029571Y001885D03*
X029574Y001890D03*
X029576Y001895D03*
X029576Y001898D03*
X029579Y001903D03*
X029579Y001905D03*
X029581Y001910D03*
X029581Y001913D03*
X029584Y001918D03*
X029586Y001923D03*
X029586Y001925D03*
X029589Y001930D03*
X029589Y001933D03*
X029591Y001938D03*
X029591Y001940D03*
X029594Y001945D03*
X029596Y001950D03*
X029596Y001953D03*
X029599Y001958D03*
X029599Y001960D03*
X029601Y001965D03*
X029601Y001968D03*
X029604Y001973D03*
X029606Y001978D03*
X029606Y001980D03*
X029609Y001985D03*
X029609Y001988D03*
X029611Y001993D03*
X029611Y001995D03*
X029614Y002000D03*
X029616Y002005D03*
X029616Y002008D03*
X029619Y002013D03*
X029619Y002015D03*
X029621Y002020D03*
X029624Y002028D03*
X029626Y002033D03*
X029626Y002035D03*
X029629Y002040D03*
X029629Y002043D03*
X029631Y002048D03*
X029634Y002055D03*
X029636Y002060D03*
X029636Y002063D03*
X029639Y002068D03*
X029639Y002070D03*
X029641Y002075D03*
X029644Y002083D03*
X029646Y002088D03*
X029646Y002090D03*
X029649Y002095D03*
X029649Y002098D03*
X029651Y002103D03*
X029654Y002110D03*
X029656Y002115D03*
X029656Y002118D03*
X029659Y002123D03*
X029659Y002125D03*
X029661Y002130D03*
X029664Y002138D03*
X030481Y001743D03*
X030481Y001740D03*
X030479Y001735D03*
X030484Y001745D03*
X030484Y001748D03*
X030486Y001750D03*
X030486Y001753D03*
X030489Y001758D03*
D31*
X030208Y001540D03*
X030113Y001648D03*
X030258Y002035D03*
X029448Y001615D03*
X029448Y001613D03*
X028070Y002035D03*
X027795Y002035D03*
X027923Y001643D03*
X027025Y002085D03*
X032563Y001585D03*
X032563Y001583D03*
D32*
X030431Y001555D03*
X030429Y001550D03*
X030429Y001548D03*
X030429Y001545D03*
X030426Y001540D03*
D33*
X031704Y001540D03*
X031704Y001543D03*
X031706Y001545D03*
X031706Y001548D03*
X031706Y001550D03*
X031709Y001553D03*
X031709Y001555D03*
X031709Y001558D03*
X031711Y001560D03*
X031711Y001563D03*
X031714Y001565D03*
X031714Y001568D03*
X031714Y001570D03*
X031716Y001573D03*
X031716Y001575D03*
X031716Y001578D03*
X031719Y001580D03*
X031719Y001583D03*
X031719Y001585D03*
X031721Y001588D03*
X031721Y001590D03*
X031724Y001593D03*
X031724Y001595D03*
X031724Y001598D03*
X031726Y001600D03*
X031726Y001603D03*
X031726Y001605D03*
X031729Y001608D03*
X031729Y001610D03*
X031729Y001613D03*
X031731Y001615D03*
X031731Y001618D03*
X031734Y001620D03*
X031734Y001623D03*
X031734Y001625D03*
X031736Y001628D03*
X031736Y001630D03*
X031736Y001633D03*
X031739Y001635D03*
X031739Y001638D03*
X031739Y001640D03*
X031741Y001643D03*
X031741Y001645D03*
X031744Y001648D03*
X026016Y001858D03*
X026014Y001855D03*
X025991Y001793D03*
X025991Y001790D03*
D34*
X026144Y001760D03*
X026256Y002018D03*
X026256Y002020D03*
X027039Y002123D03*
X027746Y001998D03*
X027749Y002000D03*
X027751Y002003D03*
X027754Y002005D03*
X028086Y002008D03*
X028086Y002010D03*
X027631Y001685D03*
X027631Y001683D03*
X027634Y001678D03*
X029304Y002113D03*
X029444Y001568D03*
X029444Y001565D03*
X029444Y001563D03*
X030094Y001680D03*
X030094Y001683D03*
X030211Y002000D03*
X030214Y002003D03*
X030216Y002005D03*
X030544Y002015D03*
X030544Y002018D03*
X030449Y001683D03*
X030446Y001680D03*
X032546Y001540D03*
D35*
X032580Y001630D03*
X032580Y001633D03*
X030405Y001643D03*
X029450Y001665D03*
X029298Y002013D03*
X029298Y002015D03*
X029298Y002018D03*
X028053Y002045D03*
X027755Y001543D03*
X027010Y002043D03*
D36*
X027019Y002068D03*
X029299Y002045D03*
X029449Y001638D03*
X029449Y001635D03*
X029449Y001633D03*
X030209Y001543D03*
X032569Y001603D03*
X032571Y001605D03*
X032571Y001608D03*
D37*
X030428Y001543D03*
D38*
X030445Y001678D03*
X030095Y001678D03*
X030095Y001675D03*
X030218Y002008D03*
X030438Y002148D03*
X030543Y002020D03*
X029445Y001570D03*
X029305Y002110D03*
X028085Y002013D03*
X027760Y002010D03*
X027758Y002008D03*
X027633Y001680D03*
X027635Y001675D03*
X027635Y001673D03*
X027953Y001663D03*
X027955Y001665D03*
X027038Y002118D03*
X027038Y002120D03*
X026255Y002023D03*
X026180Y001875D03*
X026143Y001763D03*
X032548Y001543D03*
D39*
X032589Y001653D03*
X032589Y001655D03*
X029296Y001993D03*
X029296Y001995D03*
X029296Y001998D03*
X027756Y001545D03*
X027004Y002025D03*
D40*
X027013Y002050D03*
X027668Y001638D03*
X029298Y002023D03*
X029298Y002025D03*
X029450Y001658D03*
X029450Y001655D03*
X029450Y001653D03*
X030130Y001638D03*
X030210Y001545D03*
X030513Y002045D03*
X032578Y001625D03*
X032578Y001623D03*
D41*
X032549Y001548D03*
X032549Y001545D03*
X030541Y002023D03*
X030224Y002013D03*
X030221Y002010D03*
X030096Y001673D03*
X030099Y001670D03*
X029444Y001575D03*
X029444Y001573D03*
X029304Y002103D03*
X029304Y002105D03*
X029304Y002108D03*
X028084Y002015D03*
X027976Y002148D03*
X027949Y001660D03*
X027946Y001658D03*
X027636Y001670D03*
X027036Y002115D03*
X026254Y002025D03*
D42*
X026998Y002008D03*
X027758Y001548D03*
X029295Y001973D03*
X029295Y001975D03*
X029455Y001708D03*
X030210Y001553D03*
X032595Y001673D03*
D43*
X032583Y001640D03*
X032583Y001638D03*
X030433Y002138D03*
X030285Y002045D03*
X030210Y001548D03*
X029453Y001673D03*
X029298Y002005D03*
X029298Y002008D03*
X027823Y002045D03*
X027008Y002038D03*
X027008Y002035D03*
D44*
X026993Y001995D03*
X027758Y001550D03*
X029293Y001955D03*
X029455Y001725D03*
X029455Y001723D03*
X032603Y001693D03*
X032603Y001690D03*
D45*
X032590Y001658D03*
X030210Y001550D03*
X029453Y001688D03*
X029453Y001690D03*
X029453Y001693D03*
X029295Y001988D03*
X029295Y001990D03*
X027003Y002023D03*
D46*
X027035Y002113D03*
X027763Y002013D03*
X027765Y002015D03*
X028080Y002020D03*
X028083Y002018D03*
X027943Y001655D03*
X027638Y001668D03*
X026253Y002028D03*
X026175Y001873D03*
X026140Y001765D03*
X029445Y001583D03*
X029445Y001580D03*
X029445Y001578D03*
X030100Y001665D03*
X030100Y001668D03*
X030440Y001673D03*
X030443Y001675D03*
X030540Y002025D03*
X030538Y002028D03*
X030228Y002015D03*
X032550Y001550D03*
D47*
X030549Y001958D03*
X030549Y001960D03*
X030549Y001963D03*
X030549Y001965D03*
X030549Y001968D03*
X030546Y001955D03*
X030546Y001953D03*
X030546Y001950D03*
X030546Y001948D03*
X030439Y002150D03*
X030476Y001730D03*
X030474Y001725D03*
X030471Y001720D03*
X029396Y001740D03*
X029396Y001743D03*
X029394Y001750D03*
X029394Y001753D03*
X029391Y001763D03*
X029391Y001765D03*
X029389Y001773D03*
X029389Y001775D03*
X029386Y001785D03*
X029386Y001788D03*
X029384Y001795D03*
X029384Y001798D03*
X029381Y001808D03*
X029381Y001810D03*
X029379Y001818D03*
X029379Y001820D03*
X029376Y001830D03*
X029376Y001833D03*
X029374Y001840D03*
X029374Y001843D03*
X029374Y001845D03*
X029371Y001853D03*
X029371Y001855D03*
X029369Y001865D03*
X029369Y001868D03*
X029366Y001875D03*
X029366Y001878D03*
X029364Y001888D03*
X029364Y001890D03*
X029361Y001898D03*
X029361Y001900D03*
X029359Y001910D03*
X029359Y001913D03*
X029356Y001920D03*
X029356Y001923D03*
X029354Y001933D03*
X029354Y001935D03*
X029351Y001943D03*
X028089Y001945D03*
X028089Y001948D03*
X028089Y001950D03*
X028089Y001953D03*
X028086Y001943D03*
X028029Y001770D03*
X028029Y001768D03*
X028026Y001765D03*
X028026Y001763D03*
X028024Y001758D03*
X028021Y001753D03*
X028019Y001748D03*
X028014Y001740D03*
X027046Y001800D03*
X027046Y001803D03*
X027046Y001805D03*
X027046Y001808D03*
X027046Y001810D03*
X027046Y001813D03*
X027046Y001815D03*
X027046Y001818D03*
X027046Y001820D03*
X027046Y001823D03*
X027046Y001825D03*
X027046Y001828D03*
X027046Y001830D03*
X027046Y001833D03*
X027046Y001835D03*
X027046Y001838D03*
X027046Y001840D03*
X027046Y001843D03*
X027046Y001845D03*
X027046Y001848D03*
X027046Y001850D03*
X027046Y001853D03*
X027046Y001855D03*
X027046Y001858D03*
X027046Y001860D03*
X027046Y001863D03*
X027044Y001753D03*
X027044Y001750D03*
X027044Y001748D03*
X027044Y001745D03*
X027044Y001743D03*
X027044Y001740D03*
X027044Y001738D03*
X026794Y001798D03*
X026789Y001790D03*
X026781Y001780D03*
X026776Y001773D03*
X026771Y001765D03*
X026769Y001763D03*
X026766Y001758D03*
X026764Y001755D03*
X026761Y001753D03*
X026759Y001748D03*
X026756Y001745D03*
X026754Y001740D03*
X026751Y001738D03*
X026749Y001735D03*
X026749Y001733D03*
X026746Y001730D03*
X026744Y001728D03*
X026744Y001725D03*
X026741Y001723D03*
X026739Y001720D03*
X026736Y001718D03*
X026736Y001715D03*
X026734Y001713D03*
X026731Y001710D03*
X026731Y001708D03*
X026729Y001705D03*
X026726Y001703D03*
X026724Y001698D03*
X026721Y001695D03*
X026719Y001693D03*
X026719Y001690D03*
X026716Y001688D03*
X026714Y001685D03*
X026711Y001680D03*
X026709Y001678D03*
X026704Y001670D03*
X026699Y001663D03*
X026696Y001660D03*
X026691Y001653D03*
X026686Y001645D03*
X026674Y001628D03*
X026229Y001923D03*
X026231Y001928D03*
X026224Y001915D03*
X026146Y001708D03*
X026146Y001705D03*
X026146Y001703D03*
X026144Y001695D03*
X026144Y001693D03*
X026144Y001690D03*
X026141Y001688D03*
X026141Y001685D03*
X026141Y001683D03*
X026141Y001680D03*
X026139Y001675D03*
X026139Y001673D03*
X026136Y001665D03*
X026116Y001595D03*
X026114Y001585D03*
X026114Y001583D03*
X026111Y001573D03*
X026111Y001570D03*
X026111Y001568D03*
X026111Y001565D03*
X026109Y001558D03*
X026109Y001555D03*
X026109Y001553D03*
D48*
X027760Y001553D03*
X032608Y001705D03*
X032608Y001708D03*
D49*
X030435Y001570D03*
X030433Y001563D03*
X030433Y001560D03*
X030433Y001558D03*
X030430Y001553D03*
D50*
X027760Y001555D03*
D51*
X027971Y002133D03*
X026994Y001998D03*
X029294Y001963D03*
X029294Y001960D03*
X029294Y001958D03*
X030211Y001555D03*
X032599Y001683D03*
X032599Y001685D03*
X032601Y001688D03*
D52*
X030428Y002123D03*
X030213Y001565D03*
X027760Y001558D03*
D53*
X027629Y001693D03*
X027629Y001695D03*
X027629Y001698D03*
X027734Y001985D03*
X027736Y001988D03*
X027739Y001990D03*
X027741Y001993D03*
X027744Y001995D03*
X028089Y001998D03*
X028089Y002000D03*
X027966Y001675D03*
X027041Y002130D03*
X026256Y002013D03*
X026189Y001880D03*
X026146Y001755D03*
X026146Y001753D03*
X029306Y002123D03*
X029444Y001560D03*
X029444Y001558D03*
X030091Y001690D03*
X030091Y001693D03*
X030091Y001695D03*
X030194Y001983D03*
X030196Y001985D03*
X030199Y001988D03*
X030201Y001990D03*
X030546Y002008D03*
X030546Y002010D03*
X030454Y001690D03*
X030451Y001688D03*
D54*
X030434Y001778D03*
X030444Y001805D03*
X030454Y001833D03*
X030211Y001558D03*
X029456Y001735D03*
X032606Y001703D03*
D55*
X030214Y001568D03*
X027761Y001560D03*
D56*
X030213Y001560D03*
X032610Y001713D03*
D57*
X032556Y001565D03*
X032554Y001560D03*
X030534Y002033D03*
X030241Y002025D03*
X030104Y001658D03*
X030434Y001665D03*
X030436Y001668D03*
X029446Y001593D03*
X029446Y001590D03*
X029304Y002088D03*
X028076Y002028D03*
X027779Y002025D03*
X027644Y001658D03*
X027031Y002103D03*
X026134Y001770D03*
D58*
X027763Y001563D03*
D59*
X030211Y001563D03*
X030429Y002125D03*
D60*
X030425Y002115D03*
X030215Y001575D03*
X027763Y001565D03*
D61*
X030434Y001568D03*
X030434Y001565D03*
X030436Y001573D03*
X030436Y001575D03*
X030436Y001578D03*
D62*
X030424Y002113D03*
X027764Y001568D03*
D63*
X027645Y001655D03*
X027933Y001648D03*
X028075Y002030D03*
X027783Y002028D03*
X027030Y002098D03*
X027030Y002100D03*
X026248Y002033D03*
X029303Y002083D03*
X029303Y002085D03*
X029445Y001595D03*
X030108Y001655D03*
X030245Y002028D03*
X032558Y001570D03*
X032558Y001568D03*
D64*
X030423Y002110D03*
X027765Y001570D03*
D65*
X027966Y002120D03*
X030214Y001570D03*
D66*
X027765Y001573D03*
D67*
X027965Y002118D03*
X030215Y001573D03*
X030425Y002118D03*
D68*
X030436Y002145D03*
X030531Y002035D03*
X030249Y002030D03*
X030109Y001653D03*
X030429Y001660D03*
X030431Y001663D03*
X029446Y001603D03*
X029446Y001600D03*
X029446Y001598D03*
X029301Y002080D03*
X027786Y002030D03*
X027646Y001653D03*
X027029Y002095D03*
X026166Y001870D03*
X032559Y001573D03*
D69*
X027766Y001575D03*
D70*
X027928Y001645D03*
X027790Y002033D03*
X027975Y002145D03*
X028073Y002033D03*
X027028Y002090D03*
X027028Y002093D03*
X026245Y002035D03*
X029303Y002075D03*
X029303Y002078D03*
X029448Y001605D03*
X030110Y001650D03*
X030253Y002033D03*
X032560Y001578D03*
X032560Y001575D03*
D71*
X027766Y001578D03*
D72*
X030215Y001578D03*
D73*
X027768Y001580D03*
D74*
X030216Y001580D03*
D75*
X030438Y001580D03*
X030438Y001583D03*
X030440Y001585D03*
X030440Y001588D03*
X030440Y001590D03*
X030443Y001598D03*
D76*
X030426Y001658D03*
X030529Y002038D03*
X029446Y001610D03*
X029446Y001608D03*
X029301Y002068D03*
X029301Y002070D03*
X029301Y002073D03*
X027651Y001648D03*
X027649Y001650D03*
X027026Y002088D03*
X026129Y001773D03*
X032561Y001580D03*
D77*
X030416Y002098D03*
X030219Y001598D03*
X027769Y001583D03*
D78*
X027961Y002110D03*
X030216Y001583D03*
D79*
X030416Y002095D03*
X027769Y001585D03*
D80*
X030216Y001585D03*
X030421Y002108D03*
D81*
X030221Y001603D03*
X027956Y002095D03*
X027769Y001588D03*
D82*
X027960Y002105D03*
X030218Y001588D03*
X030420Y002105D03*
D83*
X030221Y001605D03*
X027771Y001590D03*
X026076Y002138D03*
D84*
X030218Y001590D03*
X030420Y002103D03*
D85*
X030525Y002040D03*
X030263Y002038D03*
X030420Y001653D03*
X029448Y001623D03*
X029448Y001620D03*
X029300Y002058D03*
X027918Y001640D03*
X027800Y002038D03*
X027023Y002078D03*
X026240Y002038D03*
X032565Y001593D03*
X032565Y001590D03*
D86*
X027954Y002090D03*
X027771Y001593D03*
D87*
X027959Y002103D03*
X030219Y001593D03*
D88*
X030441Y001593D03*
X030441Y001595D03*
X030444Y001600D03*
X030444Y001603D03*
X030444Y001605D03*
D89*
X030413Y002085D03*
X027773Y001595D03*
D90*
X030219Y001595D03*
X030419Y002100D03*
D91*
X030119Y001643D03*
X029449Y001628D03*
X029449Y001625D03*
X029301Y002055D03*
X028064Y002040D03*
X027021Y002073D03*
X027021Y002075D03*
X032566Y001595D03*
D92*
X027773Y001598D03*
D93*
X027658Y001643D03*
X027805Y002040D03*
X027975Y002143D03*
X027020Y002070D03*
X029300Y002053D03*
X029300Y002050D03*
X029300Y002048D03*
X029448Y001630D03*
X030268Y002040D03*
X030435Y002143D03*
X030520Y002043D03*
X030418Y001650D03*
X032568Y001600D03*
X032568Y001598D03*
D94*
X027951Y002083D03*
X027774Y001600D03*
D95*
X030220Y001600D03*
D96*
X027951Y002080D03*
X027774Y001603D03*
D97*
X027776Y001605D03*
X027949Y002078D03*
X030409Y002075D03*
D98*
X027949Y002075D03*
X027776Y001608D03*
D99*
X026101Y002070D03*
X030269Y001608D03*
D100*
X030406Y002070D03*
X027776Y001610D03*
X025984Y001828D03*
X025981Y001820D03*
D101*
X026100Y002063D03*
X026100Y002065D03*
X026100Y002068D03*
X030268Y001610D03*
D102*
X030405Y002068D03*
X027778Y001613D03*
X026093Y002120D03*
X025988Y001830D03*
D103*
X030269Y001613D03*
D104*
X030414Y001648D03*
X029449Y001643D03*
X029299Y002035D03*
X029299Y002038D03*
X027016Y002060D03*
X026119Y001775D03*
X032574Y001615D03*
X032574Y001613D03*
D105*
X031818Y001895D03*
X031815Y001890D03*
X031813Y001883D03*
X031810Y001875D03*
X031808Y001868D03*
X031805Y001863D03*
X031803Y001855D03*
X031800Y001848D03*
X031798Y001840D03*
X031795Y001835D03*
X031793Y001828D03*
X031790Y001820D03*
X031788Y001813D03*
X031785Y001808D03*
X031783Y001800D03*
X030405Y002065D03*
X027945Y002068D03*
X027778Y001615D03*
X025990Y001833D03*
D106*
X026100Y002058D03*
X026100Y002060D03*
X030268Y001618D03*
X030268Y001615D03*
D107*
X030404Y002063D03*
X031784Y001805D03*
X031784Y001803D03*
X031786Y001810D03*
X031789Y001815D03*
X031789Y001818D03*
X031791Y001823D03*
X031791Y001825D03*
X031794Y001830D03*
X031794Y001833D03*
X031796Y001838D03*
X031799Y001843D03*
X031799Y001845D03*
X031801Y001850D03*
X031801Y001853D03*
X031804Y001858D03*
X031804Y001860D03*
X031806Y001865D03*
X031809Y001870D03*
X031809Y001873D03*
X031811Y001878D03*
X031811Y001880D03*
X031814Y001885D03*
X031814Y001888D03*
X031816Y001893D03*
X031819Y001898D03*
X031819Y001900D03*
X027944Y002065D03*
X027779Y001618D03*
X026094Y002115D03*
X025986Y001815D03*
D108*
X027015Y002055D03*
X027015Y002058D03*
X027813Y002043D03*
X029300Y002033D03*
X029450Y001650D03*
X029450Y001648D03*
X029450Y001645D03*
X030275Y002043D03*
X030410Y001645D03*
X032575Y001618D03*
D109*
X027943Y002060D03*
X027780Y001620D03*
X026095Y002110D03*
D110*
X026098Y002048D03*
X026098Y002045D03*
X026098Y002043D03*
X030268Y001623D03*
X030268Y001620D03*
D111*
X030434Y002140D03*
X029299Y002030D03*
X029299Y002028D03*
X027974Y002140D03*
X027014Y002053D03*
X032576Y001620D03*
D112*
X030401Y002058D03*
X027941Y002058D03*
X027781Y001623D03*
X026096Y002108D03*
X025999Y001840D03*
X025989Y001810D03*
D113*
X026003Y001843D03*
X026098Y002105D03*
X027783Y001625D03*
X030400Y002055D03*
D114*
X030266Y001625D03*
X026096Y002040D03*
D115*
X026098Y002103D03*
X026005Y001845D03*
X025990Y001805D03*
X025990Y001803D03*
X027783Y001628D03*
X027940Y002055D03*
D116*
X030268Y001630D03*
X030268Y001628D03*
D117*
X029451Y001660D03*
X029451Y001663D03*
X029299Y002020D03*
X027011Y002045D03*
X027011Y002048D03*
X032579Y001628D03*
D118*
X030399Y002050D03*
X027939Y002053D03*
X027784Y001630D03*
X026099Y002100D03*
X026006Y001848D03*
D119*
X026010Y001850D03*
X025990Y001800D03*
X026100Y002098D03*
X027785Y001633D03*
X027938Y002050D03*
X030398Y002048D03*
X031880Y002035D03*
X031880Y002033D03*
X031883Y002040D03*
X031883Y002043D03*
X031885Y002048D03*
X031888Y002055D03*
X031890Y002060D03*
X031890Y002063D03*
X031893Y002068D03*
X031893Y002070D03*
X031895Y002075D03*
X031898Y002083D03*
X031900Y002088D03*
X031900Y002090D03*
X031903Y002095D03*
X031903Y002098D03*
X031905Y002103D03*
X031908Y002110D03*
X031910Y002115D03*
X031910Y002118D03*
X031913Y002123D03*
X031915Y002130D03*
X031918Y002138D03*
D120*
X030266Y001633D03*
D121*
X027938Y002048D03*
X027785Y001635D03*
X026100Y002090D03*
X026100Y002093D03*
D122*
X030268Y001635D03*
D123*
X029451Y001668D03*
X029451Y001670D03*
X029296Y002010D03*
X027009Y002040D03*
X032581Y001635D03*
D124*
X032593Y001665D03*
X030393Y001638D03*
X029453Y001698D03*
X029295Y001978D03*
X029295Y001980D03*
X029295Y001983D03*
X027973Y002135D03*
X027000Y002015D03*
D125*
X027006Y002033D03*
X027974Y002138D03*
X029296Y002003D03*
X029296Y002000D03*
X029451Y001678D03*
X029451Y001675D03*
X030401Y001640D03*
X032584Y001643D03*
X032586Y001648D03*
D126*
X032588Y001650D03*
X032585Y001645D03*
X029453Y001680D03*
X029453Y001683D03*
X029453Y001685D03*
X027005Y002028D03*
X027005Y002030D03*
D127*
X027001Y002020D03*
X027001Y002018D03*
X029296Y001985D03*
X029454Y001695D03*
X030431Y002135D03*
X032591Y001663D03*
X032591Y001660D03*
D128*
X032594Y001668D03*
X032594Y001670D03*
X029454Y001700D03*
X029454Y001703D03*
X029454Y001705D03*
X026999Y002010D03*
X026999Y002013D03*
D129*
X026996Y002005D03*
X029294Y001970D03*
X029294Y001968D03*
X029294Y001965D03*
X029454Y001713D03*
X029454Y001710D03*
X030431Y002133D03*
X032596Y001678D03*
X032596Y001675D03*
D130*
X032598Y001680D03*
X029455Y001715D03*
X029455Y001718D03*
X029455Y001720D03*
X026995Y002000D03*
X026995Y002003D03*
D131*
X027044Y002135D03*
X027044Y002138D03*
X027706Y001950D03*
X027711Y001958D03*
X027714Y001960D03*
X027716Y001963D03*
X027719Y001965D03*
X027719Y001968D03*
X027721Y001970D03*
X027724Y001973D03*
X027626Y001735D03*
X027626Y001733D03*
X027626Y001730D03*
X027626Y001728D03*
X027626Y001725D03*
X027626Y001723D03*
X027626Y001720D03*
X027626Y001718D03*
X027626Y001715D03*
X027626Y001713D03*
X027976Y001688D03*
X027979Y001690D03*
X027981Y001693D03*
X027984Y001695D03*
X028091Y001990D03*
X029306Y002130D03*
X029306Y002133D03*
X030171Y001955D03*
X030174Y001958D03*
X030176Y001960D03*
X030179Y001965D03*
X030181Y001968D03*
X030184Y001970D03*
X030089Y001723D03*
X030089Y001720D03*
X030089Y001718D03*
X030089Y001715D03*
X030089Y001713D03*
X030089Y001710D03*
X030089Y001708D03*
X030459Y001698D03*
X030461Y001703D03*
X030549Y001993D03*
X030549Y001995D03*
X030549Y001998D03*
X026256Y002000D03*
X026256Y001998D03*
X026256Y001995D03*
X026256Y001993D03*
X026196Y001885D03*
X026149Y001745D03*
X026149Y001743D03*
X026149Y001740D03*
X026149Y001738D03*
D132*
X029294Y001950D03*
X029294Y001953D03*
X029456Y001730D03*
X029456Y001728D03*
X032604Y001695D03*
D133*
X032605Y001698D03*
X032605Y001700D03*
X030465Y001860D03*
X030465Y001863D03*
X030463Y001858D03*
X030463Y001855D03*
X030460Y001853D03*
X030460Y001850D03*
X030460Y001848D03*
X030458Y001845D03*
X030458Y001843D03*
X030458Y001840D03*
X030455Y001838D03*
X030455Y001835D03*
X030453Y001830D03*
X030453Y001828D03*
X030450Y001825D03*
X030450Y001823D03*
X030450Y001820D03*
X030448Y001818D03*
X030448Y001815D03*
X030448Y001813D03*
X030445Y001810D03*
X030445Y001808D03*
X030443Y001803D03*
X030443Y001800D03*
X030440Y001798D03*
X030440Y001795D03*
X030440Y001793D03*
X030438Y001790D03*
X030438Y001788D03*
X030438Y001785D03*
X030435Y001783D03*
X030435Y001780D03*
X030433Y001775D03*
X030433Y001773D03*
X030430Y001770D03*
X030430Y001768D03*
X030430Y002130D03*
X029455Y001733D03*
X029293Y001945D03*
X029293Y001948D03*
X027970Y002130D03*
D134*
X030429Y002128D03*
X032609Y001710D03*
D135*
X032611Y001715D03*
X032611Y001718D03*
X027969Y002128D03*
D136*
X026933Y001993D03*
X026930Y001990D03*
X026928Y001988D03*
X026925Y001983D03*
X026923Y001980D03*
X026920Y001975D03*
X026918Y001973D03*
X026913Y001965D03*
X026910Y001963D03*
X026905Y001955D03*
X026900Y001948D03*
X026893Y001938D03*
X026888Y001930D03*
X030488Y001755D03*
X030490Y001760D03*
X030490Y001763D03*
X030493Y001765D03*
D137*
X026101Y002078D03*
X026024Y001868D03*
X025991Y001780D03*
X025991Y001778D03*
D138*
X025991Y001783D03*
X025991Y001785D03*
D139*
X025993Y001788D03*
X026018Y001860D03*
X026100Y002085D03*
X026100Y002088D03*
D140*
X026099Y002095D03*
X026011Y001853D03*
X025991Y001798D03*
X025991Y001795D03*
X031881Y002038D03*
X031884Y002045D03*
X031886Y002050D03*
X031886Y002053D03*
X031889Y002058D03*
X031891Y002065D03*
X031894Y002073D03*
X031896Y002078D03*
X031896Y002080D03*
X031899Y002085D03*
X031901Y002093D03*
X031904Y002100D03*
X031906Y002105D03*
X031906Y002108D03*
X031909Y002113D03*
X031911Y002120D03*
X031914Y002125D03*
X031914Y002128D03*
X031916Y002133D03*
X031916Y002135D03*
X031919Y002140D03*
D141*
X030399Y002053D03*
X025989Y001808D03*
D142*
X025986Y001813D03*
X025996Y001838D03*
X027944Y002063D03*
X030401Y002060D03*
D143*
X027946Y002070D03*
X026094Y002118D03*
X025984Y001818D03*
D144*
X025980Y001823D03*
X025980Y001825D03*
X026090Y002125D03*
D145*
X026095Y002113D03*
X025993Y001835D03*
D146*
X026020Y001863D03*
X026023Y001865D03*
X026100Y002080D03*
X026100Y002083D03*
D147*
X026099Y002055D03*
X026099Y002053D03*
X026099Y002050D03*
D148*
X026100Y002073D03*
X026100Y002075D03*
D149*
X026090Y002123D03*
X027948Y002073D03*
X030408Y002073D03*
D150*
X030410Y002078D03*
X026088Y002128D03*
D151*
X026085Y002130D03*
X030410Y002080D03*
D152*
X030411Y002083D03*
X027951Y002085D03*
X026084Y002133D03*
D153*
X027954Y002088D03*
D154*
X026080Y002135D03*
X030413Y002088D03*
D155*
X030415Y002090D03*
D156*
X030415Y002093D03*
X027955Y002093D03*
D157*
X027958Y002098D03*
D158*
X027958Y002100D03*
X026070Y002140D03*
D159*
X027960Y002108D03*
D160*
X027963Y002113D03*
D161*
X027964Y002115D03*
D162*
X030425Y002120D03*
D163*
X027968Y002123D03*
D164*
X027968Y002125D03*
D165*
X027980Y002155D03*
D166*
X030441Y002155D03*
D167*
X032251Y005743D03*
X032251Y005745D03*
D168*
X008070Y014530D02*
X008070Y016030D01*
X007320Y015280D01*
X007520Y015080D01*
X008020Y014580D01*
X007870Y014730D02*
X007870Y015830D01*
X007670Y015630D02*
X007670Y014930D01*
X007520Y015080D02*
X007520Y015480D01*
D169*
X006960Y025956D03*
D170*
X031250Y028555D03*
X031750Y028555D03*
X032250Y028555D03*
X032750Y028555D03*
X033250Y028555D03*
X033750Y028555D03*
X034250Y028555D03*
X034750Y028555D03*
X034750Y031545D03*
X034250Y031545D03*
X033750Y031545D03*
X033250Y031545D03*
X032750Y031545D03*
X032250Y031545D03*
X031750Y031545D03*
X031250Y031545D03*
D171*
X019870Y009667D02*
X019870Y009474D01*
X019773Y009377D01*
X019676Y009474D02*
X019580Y009377D01*
X019676Y009474D02*
X019676Y009667D01*
X019359Y009474D02*
X019262Y009571D01*
X019069Y009571D01*
X018972Y009474D01*
X018972Y009377D01*
X019069Y009280D01*
X019262Y009280D01*
X019359Y009184D01*
X019359Y009087D01*
X019262Y008990D01*
X019069Y008990D01*
X018972Y009087D01*
X018751Y009087D02*
X018654Y008990D01*
X018461Y008990D01*
X018364Y009087D01*
X018364Y009474D01*
X018461Y009571D01*
X018654Y009571D01*
X018751Y009474D01*
X018143Y009571D02*
X018143Y008990D01*
X017756Y008990D02*
X017756Y009571D01*
X017950Y009377D01*
X018143Y009571D01*
X017540Y009667D02*
X017540Y009474D01*
X017443Y009377D01*
X017347Y009474D02*
X017250Y009377D01*
X017347Y009474D02*
X017347Y009667D01*
X017250Y008581D02*
X017443Y008387D01*
X017637Y008581D01*
X017637Y008000D01*
X017858Y008097D02*
X017858Y008290D01*
X017954Y008387D01*
X018148Y008387D01*
X018245Y008290D01*
X018245Y008097D01*
X018148Y008000D01*
X017954Y008000D01*
X017858Y008097D01*
X018465Y008387D02*
X018659Y008387D01*
X018562Y008484D02*
X018562Y008097D01*
X018659Y008000D01*
X018871Y008097D02*
X018967Y008000D01*
X019161Y008000D01*
X019258Y008097D01*
X019258Y008290D01*
X019161Y008387D01*
X018967Y008387D01*
X018871Y008290D01*
X018871Y008097D01*
X019478Y008194D02*
X019672Y008387D01*
X019769Y008387D01*
X019478Y008387D02*
X019478Y008000D01*
X020592Y008097D02*
X020689Y008000D01*
X020883Y008000D01*
X020979Y008097D01*
X021200Y008097D02*
X021297Y008000D01*
X021490Y008000D01*
X021587Y008097D01*
X021587Y008290D01*
X021490Y008387D01*
X021297Y008387D01*
X021200Y008290D01*
X021200Y008097D01*
X020979Y008484D02*
X020883Y008581D01*
X020689Y008581D01*
X020592Y008484D01*
X020592Y008097D01*
X021808Y008000D02*
X021808Y008387D01*
X022098Y008387D01*
X022195Y008290D01*
X022195Y008000D01*
X022512Y008097D02*
X022609Y008000D01*
X022512Y008097D02*
X022512Y008484D01*
X022416Y008387D02*
X022609Y008387D01*
X022821Y008387D02*
X022821Y008000D01*
X022821Y008194D02*
X023014Y008387D01*
X023111Y008387D01*
X023327Y008290D02*
X023327Y008097D01*
X023424Y008000D01*
X023617Y008000D01*
X023714Y008097D01*
X023714Y008290D01*
X023617Y008387D01*
X023424Y008387D01*
X023327Y008290D01*
X023935Y008000D02*
X024128Y008000D01*
X024032Y008000D02*
X024032Y008581D01*
X023935Y008581D01*
X024948Y008484D02*
X024948Y008387D01*
X025045Y008290D01*
X025238Y008290D01*
X025335Y008194D01*
X025335Y008097D01*
X025238Y008000D01*
X025045Y008000D01*
X024948Y008097D01*
X024948Y008484D02*
X025045Y008581D01*
X025238Y008581D01*
X025335Y008484D01*
X025555Y008387D02*
X025555Y008097D01*
X025652Y008000D01*
X025942Y008000D01*
X025942Y007903D02*
X025846Y007807D01*
X025749Y007807D01*
X025942Y007903D02*
X025942Y008387D01*
X026163Y008290D02*
X026260Y008387D01*
X026550Y008387D01*
X026453Y008194D02*
X026260Y008194D01*
X026163Y008290D01*
X026163Y008000D02*
X026453Y008000D01*
X026550Y008097D01*
X026453Y008194D01*
X026771Y008387D02*
X026964Y008387D01*
X026868Y008484D02*
X026868Y008097D01*
X026964Y008000D01*
X027176Y008097D02*
X027176Y008290D01*
X027273Y008387D01*
X027466Y008387D01*
X027563Y008290D01*
X027563Y008194D01*
X027176Y008194D01*
X027176Y008097D02*
X027273Y008000D01*
X027466Y008000D01*
X027784Y008000D02*
X027784Y008387D01*
X027881Y008387D01*
X027977Y008290D01*
X028074Y008387D01*
X028171Y008290D01*
X028171Y008000D01*
X027977Y008000D02*
X027977Y008290D01*
X017250Y008000D02*
X017250Y008581D01*
M02*
