%
M48
M72
T01C0.0197
T02C0.0236
T03C0.0400
T04C0.0433
T05C0.0472
T06C0.0591
T07C0.0630
T08C0.1400
%
T01
X5550Y650
X13820Y12120
X15170Y12230
X15890Y12320
X15520Y12940
X16710Y13450
X15430Y14520
X16220Y15160
X16520Y16430
X15995Y16655
X15425Y16765
X14750Y16510
X14220Y16470
X14440Y15170
X16730Y21200
X21240Y19920
X24010Y17200
X24380Y17700
X23630Y15420
X25900Y24790
X27220Y25490
X27610Y25160
X27620Y25830
X10450Y29850
X8300Y24500
X7500Y22800
X7150Y22100
X7150Y20900
X7230Y19100
X5500Y19100
X5650Y23950
X34900Y600
T02
X26550Y10230
X25840Y10270
X25150Y10750
X25840Y11660
X27190Y10340
X29600Y11380
X27970Y13630
X26740Y16240
X27280Y18790
X26560Y19380
X25510Y20170
X24970Y20490
X25260Y22420
X24970Y23790
X24900Y26190
X25530Y26220
X27750Y27370
X25650Y28650
X25100Y28930
X24170Y29130
X26180Y30650
X27550Y30750
X26030Y32190
X26030Y33500
X27550Y33850
X27450Y34400
X27500Y32650
X29860Y29370
X31750Y29150
X32050Y29550
X32350Y29150
X32650Y29550
X32950Y29150
X33250Y29550
X33550Y29150
X33850Y29550
X34250Y29150
X34150Y30000
X33850Y30450
X33550Y30000
X33250Y30450
X32950Y30000
X32650Y30450
X32350Y30000
X32050Y30450
X31750Y30000
X31750Y30900
X32350Y30900
X32950Y30900
X33550Y30900
X34150Y30900
X32560Y27260
X32340Y26720
X31820Y27340
X31180Y27300
X30010Y25990
X29830Y25310
X30440Y25300
X30400Y23900
X29820Y23890
X31900Y24550
X32450Y24550
X33000Y24550
X33600Y24550
X34420Y24550
X34420Y23780
X34410Y22760
X34390Y22130
X34360Y21500
X33730Y21510
X33120Y21490
X33100Y22120
X33730Y22130
X33550Y22750
X32950Y22750
X32400Y22750
X31850Y22750
X31930Y22110
X32510Y22120
X32520Y21480
X31920Y21500
X31950Y20300
X32550Y20300
X33100Y20300
X33650Y20300
X33400Y19550
X32850Y19550
X32300Y19550
X32450Y18700
X31900Y18700
X33000Y18700
X33700Y18750
X34730Y17860
X31860Y14910
X30050Y19600
X29180Y20870
X32100Y23700
X32700Y23700
X33300Y23700
X34770Y25440
X24160Y33110
X21730Y33790
X20360Y32470
X19870Y33420
X18490Y31800
X19310Y30710
X18410Y29790
X20490Y28490
X18000Y26280
X17510Y26690
X16200Y26460
X16610Y25270
X15530Y24870
X15160Y23530
X14750Y22480
X14360Y21230
X14030Y20620
X13230Y19110
X12160Y18780
X12580Y17980
X11620Y17940
X10780Y18130
X11070Y19320
X11040Y20070
X9200Y23270
X7520Y24290
X5670Y26160
X6880Y28130
X8540Y28220
X7990Y30210
X7380Y30160
X7490Y32570
X7080Y33760
X5670Y32720
X10220Y31550
X10340Y32150
X10400Y33270
X11550Y32680
X11920Y31620
X12570Y32640
X12330Y33850
X13010Y34950
X12670Y35750
X14150Y33440
X13770Y32160
X13780Y31630
X13920Y30280
X14020Y28630
X13440Y28640
X12960Y27770
X11900Y27440
X12990Y25940
X12970Y25070
X11900Y25290
X11930Y24320
X11930Y23570
X16020Y19290
X16060Y18540
X17040Y18140
X17620Y18410
X17970Y19030
X18240Y19790
X18715Y20225
X20540Y20580
X20560Y21670
X20240Y22260
X19580Y23630
X18580Y25130
X16780Y22270
X20500Y18700
X21490Y21170
X23850Y16660
X23740Y16020
X24030Y14560
X23880Y13700
X22000Y13080
X21370Y12960
X23800Y10360
X18700Y12800
X18240Y13235
X18790Y15620
X18250Y16000
X21150Y16090
X16540Y10310
X16050Y10640
X15530Y10360
X15120Y7800
X12100Y6410
X10500Y7060
X10800Y5210
X7600Y3210
X14670Y4360
X15360Y4030
X13000Y11250
X11580Y12240
X11710Y13330
X11030Y13320
X9690Y14000
X9450Y14530
X9130Y14020
X9540Y13320
X8230Y12070
X8300Y11530
X9940Y11680
X8610Y15240
X10540Y16330
X12430Y16260
X5560Y19900
X5450Y21300
X12370Y28940
X16070Y29550
X17020Y31980
X16730Y33780
X15950Y33760
T03
X6240Y15290
X6140Y14290
X6240Y13290
X6140Y12290
X6240Y11290
X7840Y10900
X7840Y9120
X6650Y7010
X6550Y6010
X6650Y5010
X6550Y4010
X10400Y9120
X10400Y10900
T04
X11290Y23860
X11290Y24860
X11290Y25860
X11290Y26860
X11290Y27860
X9200Y27750
X9200Y28750
X9200Y29750
X9200Y30750
X9200Y31750
X6200Y31750
X6200Y30750
X6200Y29750
X6200Y28750
X6200Y27750
X14290Y27860
X14290Y26860
X14290Y25860
X14290Y24860
X14290Y23860
T05
X9330Y24420
X5740Y24690
X6250Y33450
X7800Y33450
X31140Y17340
X33760Y10580
T06
X21320Y23980
X21320Y27730
X21320Y28980
X21320Y30230
X21320Y32730
X16320Y32730
X16320Y23980
T07
X16130Y35860
X17690Y35860
X19250Y35860
X20810Y35860
X20810Y37430
X19250Y37430
X17690Y37430
X16130Y37430
X14570Y37430
X14570Y35860
X14570Y39000
X16130Y39000
X17690Y39000
X19250Y39000
X20810Y39000
X25710Y39000
X27270Y39000
X28830Y39000
X28830Y37430
X27270Y37430
X25710Y37430
X25710Y35860
X27270Y35860
X28830Y35860
X35070Y35860
X36630Y35860
X38190Y35860
X38190Y37430
X36630Y37430
X35070Y37430
X35070Y39000
X36630Y39000
X38190Y39000
X8330Y39000
X6770Y39000
X5210Y39000
X3650Y39000
X2090Y39000
X2090Y37430
X3650Y37430
X5210Y37430
X6770Y37430
X8330Y37430
X8330Y35860
X6770Y35860
X5210Y35860
X3650Y35860
X2090Y35860
T08
X11450Y37150
X31950Y37150
M30
