G75*
%MOIN*%
%OFA0B0*%
%FSLAX24Y24*%
%IPPOS*%
%LPD*%
%AMOC8*
5,1,8,0,0,1.08239X$1,22.5*
%
%ADD10C,0.1380*%
%ADD11R,0.0710X0.0789*%
%ADD12OC8,0.0640*%
%ADD13C,0.1346*%
%ADD14C,0.0634*%
D10*
X002680Y008180D03*
X034680Y008180D03*
D11*
X025341Y009910D03*
X024239Y009910D03*
X013191Y006420D03*
X012089Y006420D03*
X018459Y003400D03*
X019561Y003400D03*
D12*
X007680Y001980D03*
X008680Y001980D03*
X010680Y001980D03*
X011680Y001980D03*
X013680Y001980D03*
X014680Y001980D03*
X016680Y001980D03*
X017680Y001980D03*
X019880Y001980D03*
X020880Y001980D03*
X022680Y001980D03*
X023680Y001980D03*
X025780Y001980D03*
X026780Y001980D03*
X028780Y001980D03*
X029780Y001980D03*
X029660Y005030D03*
X028660Y005030D03*
X026750Y005060D03*
X025750Y005060D03*
X023560Y005080D03*
X022560Y005080D03*
X020810Y005080D03*
X019810Y005080D03*
X017590Y005010D03*
X016590Y005010D03*
X014780Y004990D03*
X013780Y004990D03*
X011700Y005030D03*
X010700Y005030D03*
X008700Y005020D03*
X007700Y005020D03*
X007630Y007980D03*
X008630Y007980D03*
X010680Y007980D03*
X011680Y007980D03*
X013680Y008010D03*
X014680Y008010D03*
X016540Y008060D03*
X017540Y008060D03*
X019800Y007900D03*
X020800Y007900D03*
X022740Y007910D03*
X023740Y007910D03*
X025800Y007910D03*
X026800Y007910D03*
X028640Y007940D03*
X029640Y007940D03*
X015860Y011280D03*
X014860Y010280D03*
X013860Y011280D03*
D13*
X030380Y011080D03*
X030380Y012780D03*
D14*
X028580Y009680D03*
M02*
