G75*
%MOIN*%
%OFA0B0*%
%FSLAX24Y24*%
%IPPOS*%
%LPD*%
%AMOC8*
5,1,8,0,0,1.08239X$1,22.5*
%
%ADD10C,0.0100*%
%ADD11C,0.0160*%
D10*
X005180Y000180D02*
X032180Y000180D01*
X019281Y004067D02*
X019214Y004000D01*
X019081Y004000D01*
X019014Y004067D01*
X018820Y004000D02*
X018553Y004000D01*
X018687Y004000D02*
X018687Y004400D01*
X018820Y004267D01*
X019014Y004334D02*
X019081Y004400D01*
X019214Y004400D01*
X019281Y004334D01*
X019281Y004067D01*
X012990Y005587D02*
X012923Y005520D01*
X012790Y005520D01*
X012723Y005587D01*
X012530Y005587D02*
X012463Y005520D01*
X012329Y005520D01*
X012263Y005587D01*
X012263Y005653D01*
X012329Y005720D01*
X012396Y005720D01*
X012329Y005720D02*
X012263Y005787D01*
X012263Y005854D01*
X012329Y005920D01*
X012463Y005920D01*
X012530Y005854D01*
X012723Y005854D02*
X012790Y005920D01*
X012923Y005920D01*
X012990Y005854D01*
X012990Y005587D01*
X024433Y009077D02*
X024500Y009010D01*
X024634Y009010D01*
X024700Y009077D01*
X024700Y009210D02*
X024567Y009277D01*
X024500Y009277D01*
X024433Y009210D01*
X024433Y009077D01*
X024700Y009210D02*
X024700Y009410D01*
X024433Y009410D01*
X024894Y009344D02*
X024961Y009410D01*
X025094Y009410D01*
X025161Y009344D01*
X025161Y009077D01*
X025094Y009010D01*
X024961Y009010D01*
X024894Y009077D01*
X032180Y017180D02*
X006280Y017180D01*
D11*
X000180Y005180D02*
X005180Y000180D01*
X000180Y005180D02*
X000180Y012180D01*
X006280Y017180D01*
X032180Y017180D02*
X037180Y011680D01*
X037180Y005180D01*
X032180Y000180D01*
M02*
