G75*
%MOIN*%
%OFA0B0*%
%FSLAX24Y24*%
%IPPOS*%
%LPD*%
%AMOC8*
5,1,8,0,0,1.08239X$1,22.5*
%
%ADD10C,0.0100*%
%ADD11C,0.0120*%
%ADD12C,0.0160*%
D10*
X005180Y000180D02*
X032180Y000180D01*
X030280Y001230D02*
X030280Y002730D01*
X028280Y001980D02*
X028282Y002043D01*
X028288Y002105D01*
X028298Y002167D01*
X028311Y002229D01*
X028329Y002289D01*
X028350Y002348D01*
X028375Y002406D01*
X028404Y002462D01*
X028436Y002516D01*
X028471Y002568D01*
X028509Y002617D01*
X028551Y002665D01*
X028595Y002709D01*
X028643Y002751D01*
X028692Y002789D01*
X028744Y002824D01*
X028798Y002856D01*
X028854Y002885D01*
X028912Y002910D01*
X028971Y002931D01*
X029031Y002949D01*
X029093Y002962D01*
X029155Y002972D01*
X029217Y002978D01*
X029280Y002980D01*
X029343Y002978D01*
X029405Y002972D01*
X029467Y002962D01*
X029529Y002949D01*
X029589Y002931D01*
X029648Y002910D01*
X029706Y002885D01*
X029762Y002856D01*
X029816Y002824D01*
X029868Y002789D01*
X029917Y002751D01*
X029965Y002709D01*
X030009Y002665D01*
X030051Y002617D01*
X030089Y002568D01*
X030124Y002516D01*
X030156Y002462D01*
X030185Y002406D01*
X030210Y002348D01*
X030231Y002289D01*
X030249Y002229D01*
X030262Y002167D01*
X030272Y002105D01*
X030278Y002043D01*
X030280Y001980D01*
X030278Y001917D01*
X030272Y001855D01*
X030262Y001793D01*
X030249Y001731D01*
X030231Y001671D01*
X030210Y001612D01*
X030185Y001554D01*
X030156Y001498D01*
X030124Y001444D01*
X030089Y001392D01*
X030051Y001343D01*
X030009Y001295D01*
X029965Y001251D01*
X029917Y001209D01*
X029868Y001171D01*
X029816Y001136D01*
X029762Y001104D01*
X029706Y001075D01*
X029648Y001050D01*
X029589Y001029D01*
X029529Y001011D01*
X029467Y000998D01*
X029405Y000988D01*
X029343Y000982D01*
X029280Y000980D01*
X029217Y000982D01*
X029155Y000988D01*
X029093Y000998D01*
X029031Y001011D01*
X028971Y001029D01*
X028912Y001050D01*
X028854Y001075D01*
X028798Y001104D01*
X028744Y001136D01*
X028692Y001171D01*
X028643Y001209D01*
X028595Y001251D01*
X028551Y001295D01*
X028509Y001343D01*
X028471Y001392D01*
X028436Y001444D01*
X028404Y001498D01*
X028375Y001554D01*
X028350Y001612D01*
X028329Y001671D01*
X028311Y001731D01*
X028298Y001793D01*
X028288Y001855D01*
X028282Y001917D01*
X028280Y001980D01*
X030280Y002730D02*
X030237Y002784D01*
X030191Y002836D01*
X030142Y002885D01*
X030090Y002932D01*
X030036Y002975D01*
X029980Y003016D01*
X029921Y003053D01*
X029861Y003087D01*
X029798Y003117D01*
X029735Y003144D01*
X029669Y003168D01*
X029603Y003188D01*
X029535Y003204D01*
X029467Y003216D01*
X029398Y003224D01*
X029329Y003229D01*
X029259Y003230D01*
X029190Y003227D01*
X029121Y003220D01*
X029053Y003209D01*
X028985Y003195D01*
X028918Y003176D01*
X028852Y003154D01*
X028787Y003129D01*
X028724Y003100D01*
X028663Y003067D01*
X028604Y003031D01*
X028547Y002992D01*
X028491Y002950D01*
X028439Y002905D01*
X028389Y002857D01*
X028342Y002806D01*
X028297Y002752D01*
X028256Y002697D01*
X028218Y002639D01*
X028183Y002579D01*
X028151Y002517D01*
X028123Y002454D01*
X028099Y002389D01*
X028078Y002323D01*
X028061Y002255D01*
X028047Y002187D01*
X028038Y002118D01*
X028032Y002049D01*
X028030Y001980D01*
X028032Y001911D01*
X028038Y001842D01*
X028047Y001773D01*
X028061Y001705D01*
X028078Y001637D01*
X028099Y001571D01*
X028123Y001506D01*
X028151Y001443D01*
X028183Y001381D01*
X028218Y001321D01*
X028256Y001263D01*
X028297Y001208D01*
X028342Y001154D01*
X028389Y001103D01*
X028439Y001055D01*
X028491Y001010D01*
X028547Y000968D01*
X028604Y000929D01*
X028663Y000893D01*
X028724Y000860D01*
X028787Y000831D01*
X028852Y000806D01*
X028918Y000784D01*
X028985Y000765D01*
X029053Y000751D01*
X029121Y000740D01*
X029190Y000733D01*
X029259Y000730D01*
X029329Y000731D01*
X029398Y000736D01*
X029467Y000744D01*
X029535Y000756D01*
X029603Y000772D01*
X029669Y000792D01*
X029735Y000816D01*
X029798Y000843D01*
X029861Y000873D01*
X029921Y000907D01*
X029980Y000944D01*
X030036Y000985D01*
X030090Y001028D01*
X030142Y001075D01*
X030191Y001124D01*
X030237Y001176D01*
X030280Y001230D01*
X027280Y001230D02*
X027280Y002730D01*
X025280Y001980D02*
X025282Y002043D01*
X025288Y002105D01*
X025298Y002167D01*
X025311Y002229D01*
X025329Y002289D01*
X025350Y002348D01*
X025375Y002406D01*
X025404Y002462D01*
X025436Y002516D01*
X025471Y002568D01*
X025509Y002617D01*
X025551Y002665D01*
X025595Y002709D01*
X025643Y002751D01*
X025692Y002789D01*
X025744Y002824D01*
X025798Y002856D01*
X025854Y002885D01*
X025912Y002910D01*
X025971Y002931D01*
X026031Y002949D01*
X026093Y002962D01*
X026155Y002972D01*
X026217Y002978D01*
X026280Y002980D01*
X026343Y002978D01*
X026405Y002972D01*
X026467Y002962D01*
X026529Y002949D01*
X026589Y002931D01*
X026648Y002910D01*
X026706Y002885D01*
X026762Y002856D01*
X026816Y002824D01*
X026868Y002789D01*
X026917Y002751D01*
X026965Y002709D01*
X027009Y002665D01*
X027051Y002617D01*
X027089Y002568D01*
X027124Y002516D01*
X027156Y002462D01*
X027185Y002406D01*
X027210Y002348D01*
X027231Y002289D01*
X027249Y002229D01*
X027262Y002167D01*
X027272Y002105D01*
X027278Y002043D01*
X027280Y001980D01*
X027278Y001917D01*
X027272Y001855D01*
X027262Y001793D01*
X027249Y001731D01*
X027231Y001671D01*
X027210Y001612D01*
X027185Y001554D01*
X027156Y001498D01*
X027124Y001444D01*
X027089Y001392D01*
X027051Y001343D01*
X027009Y001295D01*
X026965Y001251D01*
X026917Y001209D01*
X026868Y001171D01*
X026816Y001136D01*
X026762Y001104D01*
X026706Y001075D01*
X026648Y001050D01*
X026589Y001029D01*
X026529Y001011D01*
X026467Y000998D01*
X026405Y000988D01*
X026343Y000982D01*
X026280Y000980D01*
X026217Y000982D01*
X026155Y000988D01*
X026093Y000998D01*
X026031Y001011D01*
X025971Y001029D01*
X025912Y001050D01*
X025854Y001075D01*
X025798Y001104D01*
X025744Y001136D01*
X025692Y001171D01*
X025643Y001209D01*
X025595Y001251D01*
X025551Y001295D01*
X025509Y001343D01*
X025471Y001392D01*
X025436Y001444D01*
X025404Y001498D01*
X025375Y001554D01*
X025350Y001612D01*
X025329Y001671D01*
X025311Y001731D01*
X025298Y001793D01*
X025288Y001855D01*
X025282Y001917D01*
X025280Y001980D01*
X027280Y002730D02*
X027237Y002784D01*
X027191Y002836D01*
X027142Y002885D01*
X027090Y002932D01*
X027036Y002975D01*
X026980Y003016D01*
X026921Y003053D01*
X026861Y003087D01*
X026798Y003117D01*
X026735Y003144D01*
X026669Y003168D01*
X026603Y003188D01*
X026535Y003204D01*
X026467Y003216D01*
X026398Y003224D01*
X026329Y003229D01*
X026259Y003230D01*
X026190Y003227D01*
X026121Y003220D01*
X026053Y003209D01*
X025985Y003195D01*
X025918Y003176D01*
X025852Y003154D01*
X025787Y003129D01*
X025724Y003100D01*
X025663Y003067D01*
X025604Y003031D01*
X025547Y002992D01*
X025491Y002950D01*
X025439Y002905D01*
X025389Y002857D01*
X025342Y002806D01*
X025297Y002752D01*
X025256Y002697D01*
X025218Y002639D01*
X025183Y002579D01*
X025151Y002517D01*
X025123Y002454D01*
X025099Y002389D01*
X025078Y002323D01*
X025061Y002255D01*
X025047Y002187D01*
X025038Y002118D01*
X025032Y002049D01*
X025030Y001980D01*
X025032Y001911D01*
X025038Y001842D01*
X025047Y001773D01*
X025061Y001705D01*
X025078Y001637D01*
X025099Y001571D01*
X025123Y001506D01*
X025151Y001443D01*
X025183Y001381D01*
X025218Y001321D01*
X025256Y001263D01*
X025297Y001208D01*
X025342Y001154D01*
X025389Y001103D01*
X025439Y001055D01*
X025491Y001010D01*
X025547Y000968D01*
X025604Y000929D01*
X025663Y000893D01*
X025724Y000860D01*
X025787Y000831D01*
X025852Y000806D01*
X025918Y000784D01*
X025985Y000765D01*
X026053Y000751D01*
X026121Y000740D01*
X026190Y000733D01*
X026259Y000730D01*
X026329Y000731D01*
X026398Y000736D01*
X026467Y000744D01*
X026535Y000756D01*
X026603Y000772D01*
X026669Y000792D01*
X026735Y000816D01*
X026798Y000843D01*
X026861Y000873D01*
X026921Y000907D01*
X026980Y000944D01*
X027036Y000985D01*
X027090Y001028D01*
X027142Y001075D01*
X027191Y001124D01*
X027237Y001176D01*
X027280Y001230D01*
X024180Y001230D02*
X024180Y002730D01*
X022180Y001980D02*
X022182Y002043D01*
X022188Y002105D01*
X022198Y002167D01*
X022211Y002229D01*
X022229Y002289D01*
X022250Y002348D01*
X022275Y002406D01*
X022304Y002462D01*
X022336Y002516D01*
X022371Y002568D01*
X022409Y002617D01*
X022451Y002665D01*
X022495Y002709D01*
X022543Y002751D01*
X022592Y002789D01*
X022644Y002824D01*
X022698Y002856D01*
X022754Y002885D01*
X022812Y002910D01*
X022871Y002931D01*
X022931Y002949D01*
X022993Y002962D01*
X023055Y002972D01*
X023117Y002978D01*
X023180Y002980D01*
X023243Y002978D01*
X023305Y002972D01*
X023367Y002962D01*
X023429Y002949D01*
X023489Y002931D01*
X023548Y002910D01*
X023606Y002885D01*
X023662Y002856D01*
X023716Y002824D01*
X023768Y002789D01*
X023817Y002751D01*
X023865Y002709D01*
X023909Y002665D01*
X023951Y002617D01*
X023989Y002568D01*
X024024Y002516D01*
X024056Y002462D01*
X024085Y002406D01*
X024110Y002348D01*
X024131Y002289D01*
X024149Y002229D01*
X024162Y002167D01*
X024172Y002105D01*
X024178Y002043D01*
X024180Y001980D01*
X024178Y001917D01*
X024172Y001855D01*
X024162Y001793D01*
X024149Y001731D01*
X024131Y001671D01*
X024110Y001612D01*
X024085Y001554D01*
X024056Y001498D01*
X024024Y001444D01*
X023989Y001392D01*
X023951Y001343D01*
X023909Y001295D01*
X023865Y001251D01*
X023817Y001209D01*
X023768Y001171D01*
X023716Y001136D01*
X023662Y001104D01*
X023606Y001075D01*
X023548Y001050D01*
X023489Y001029D01*
X023429Y001011D01*
X023367Y000998D01*
X023305Y000988D01*
X023243Y000982D01*
X023180Y000980D01*
X023117Y000982D01*
X023055Y000988D01*
X022993Y000998D01*
X022931Y001011D01*
X022871Y001029D01*
X022812Y001050D01*
X022754Y001075D01*
X022698Y001104D01*
X022644Y001136D01*
X022592Y001171D01*
X022543Y001209D01*
X022495Y001251D01*
X022451Y001295D01*
X022409Y001343D01*
X022371Y001392D01*
X022336Y001444D01*
X022304Y001498D01*
X022275Y001554D01*
X022250Y001612D01*
X022229Y001671D01*
X022211Y001731D01*
X022198Y001793D01*
X022188Y001855D01*
X022182Y001917D01*
X022180Y001980D01*
X024180Y002730D02*
X024137Y002784D01*
X024091Y002836D01*
X024042Y002885D01*
X023990Y002932D01*
X023936Y002975D01*
X023880Y003016D01*
X023821Y003053D01*
X023761Y003087D01*
X023698Y003117D01*
X023635Y003144D01*
X023569Y003168D01*
X023503Y003188D01*
X023435Y003204D01*
X023367Y003216D01*
X023298Y003224D01*
X023229Y003229D01*
X023159Y003230D01*
X023090Y003227D01*
X023021Y003220D01*
X022953Y003209D01*
X022885Y003195D01*
X022818Y003176D01*
X022752Y003154D01*
X022687Y003129D01*
X022624Y003100D01*
X022563Y003067D01*
X022504Y003031D01*
X022447Y002992D01*
X022391Y002950D01*
X022339Y002905D01*
X022289Y002857D01*
X022242Y002806D01*
X022197Y002752D01*
X022156Y002697D01*
X022118Y002639D01*
X022083Y002579D01*
X022051Y002517D01*
X022023Y002454D01*
X021999Y002389D01*
X021978Y002323D01*
X021961Y002255D01*
X021947Y002187D01*
X021938Y002118D01*
X021932Y002049D01*
X021930Y001980D01*
X021932Y001911D01*
X021938Y001842D01*
X021947Y001773D01*
X021961Y001705D01*
X021978Y001637D01*
X021999Y001571D01*
X022023Y001506D01*
X022051Y001443D01*
X022083Y001381D01*
X022118Y001321D01*
X022156Y001263D01*
X022197Y001208D01*
X022242Y001154D01*
X022289Y001103D01*
X022339Y001055D01*
X022391Y001010D01*
X022447Y000968D01*
X022504Y000929D01*
X022563Y000893D01*
X022624Y000860D01*
X022687Y000831D01*
X022752Y000806D01*
X022818Y000784D01*
X022885Y000765D01*
X022953Y000751D01*
X023021Y000740D01*
X023090Y000733D01*
X023159Y000730D01*
X023229Y000731D01*
X023298Y000736D01*
X023367Y000744D01*
X023435Y000756D01*
X023503Y000772D01*
X023569Y000792D01*
X023635Y000816D01*
X023698Y000843D01*
X023761Y000873D01*
X023821Y000907D01*
X023880Y000944D01*
X023936Y000985D01*
X023990Y001028D01*
X024042Y001075D01*
X024091Y001124D01*
X024137Y001176D01*
X024180Y001230D01*
X021380Y001230D02*
X021380Y002730D01*
X019380Y001980D02*
X019382Y002043D01*
X019388Y002105D01*
X019398Y002167D01*
X019411Y002229D01*
X019429Y002289D01*
X019450Y002348D01*
X019475Y002406D01*
X019504Y002462D01*
X019536Y002516D01*
X019571Y002568D01*
X019609Y002617D01*
X019651Y002665D01*
X019695Y002709D01*
X019743Y002751D01*
X019792Y002789D01*
X019844Y002824D01*
X019898Y002856D01*
X019954Y002885D01*
X020012Y002910D01*
X020071Y002931D01*
X020131Y002949D01*
X020193Y002962D01*
X020255Y002972D01*
X020317Y002978D01*
X020380Y002980D01*
X020443Y002978D01*
X020505Y002972D01*
X020567Y002962D01*
X020629Y002949D01*
X020689Y002931D01*
X020748Y002910D01*
X020806Y002885D01*
X020862Y002856D01*
X020916Y002824D01*
X020968Y002789D01*
X021017Y002751D01*
X021065Y002709D01*
X021109Y002665D01*
X021151Y002617D01*
X021189Y002568D01*
X021224Y002516D01*
X021256Y002462D01*
X021285Y002406D01*
X021310Y002348D01*
X021331Y002289D01*
X021349Y002229D01*
X021362Y002167D01*
X021372Y002105D01*
X021378Y002043D01*
X021380Y001980D01*
X021378Y001917D01*
X021372Y001855D01*
X021362Y001793D01*
X021349Y001731D01*
X021331Y001671D01*
X021310Y001612D01*
X021285Y001554D01*
X021256Y001498D01*
X021224Y001444D01*
X021189Y001392D01*
X021151Y001343D01*
X021109Y001295D01*
X021065Y001251D01*
X021017Y001209D01*
X020968Y001171D01*
X020916Y001136D01*
X020862Y001104D01*
X020806Y001075D01*
X020748Y001050D01*
X020689Y001029D01*
X020629Y001011D01*
X020567Y000998D01*
X020505Y000988D01*
X020443Y000982D01*
X020380Y000980D01*
X020317Y000982D01*
X020255Y000988D01*
X020193Y000998D01*
X020131Y001011D01*
X020071Y001029D01*
X020012Y001050D01*
X019954Y001075D01*
X019898Y001104D01*
X019844Y001136D01*
X019792Y001171D01*
X019743Y001209D01*
X019695Y001251D01*
X019651Y001295D01*
X019609Y001343D01*
X019571Y001392D01*
X019536Y001444D01*
X019504Y001498D01*
X019475Y001554D01*
X019450Y001612D01*
X019429Y001671D01*
X019411Y001731D01*
X019398Y001793D01*
X019388Y001855D01*
X019382Y001917D01*
X019380Y001980D01*
X021380Y002730D02*
X021337Y002784D01*
X021291Y002836D01*
X021242Y002885D01*
X021190Y002932D01*
X021136Y002975D01*
X021080Y003016D01*
X021021Y003053D01*
X020961Y003087D01*
X020898Y003117D01*
X020835Y003144D01*
X020769Y003168D01*
X020703Y003188D01*
X020635Y003204D01*
X020567Y003216D01*
X020498Y003224D01*
X020429Y003229D01*
X020359Y003230D01*
X020290Y003227D01*
X020221Y003220D01*
X020153Y003209D01*
X020085Y003195D01*
X020018Y003176D01*
X019952Y003154D01*
X019887Y003129D01*
X019824Y003100D01*
X019763Y003067D01*
X019704Y003031D01*
X019647Y002992D01*
X019591Y002950D01*
X019539Y002905D01*
X019489Y002857D01*
X019442Y002806D01*
X019397Y002752D01*
X019356Y002697D01*
X019318Y002639D01*
X019283Y002579D01*
X019251Y002517D01*
X019223Y002454D01*
X019199Y002389D01*
X019178Y002323D01*
X019161Y002255D01*
X019147Y002187D01*
X019138Y002118D01*
X019132Y002049D01*
X019130Y001980D01*
X019132Y001911D01*
X019138Y001842D01*
X019147Y001773D01*
X019161Y001705D01*
X019178Y001637D01*
X019199Y001571D01*
X019223Y001506D01*
X019251Y001443D01*
X019283Y001381D01*
X019318Y001321D01*
X019356Y001263D01*
X019397Y001208D01*
X019442Y001154D01*
X019489Y001103D01*
X019539Y001055D01*
X019591Y001010D01*
X019647Y000968D01*
X019704Y000929D01*
X019763Y000893D01*
X019824Y000860D01*
X019887Y000831D01*
X019952Y000806D01*
X020018Y000784D01*
X020085Y000765D01*
X020153Y000751D01*
X020221Y000740D01*
X020290Y000733D01*
X020359Y000730D01*
X020429Y000731D01*
X020498Y000736D01*
X020567Y000744D01*
X020635Y000756D01*
X020703Y000772D01*
X020769Y000792D01*
X020835Y000816D01*
X020898Y000843D01*
X020961Y000873D01*
X021021Y000907D01*
X021080Y000944D01*
X021136Y000985D01*
X021190Y001028D01*
X021242Y001075D01*
X021291Y001124D01*
X021337Y001176D01*
X021380Y001230D01*
X016180Y001980D02*
X016182Y002043D01*
X016188Y002105D01*
X016198Y002167D01*
X016211Y002229D01*
X016229Y002289D01*
X016250Y002348D01*
X016275Y002406D01*
X016304Y002462D01*
X016336Y002516D01*
X016371Y002568D01*
X016409Y002617D01*
X016451Y002665D01*
X016495Y002709D01*
X016543Y002751D01*
X016592Y002789D01*
X016644Y002824D01*
X016698Y002856D01*
X016754Y002885D01*
X016812Y002910D01*
X016871Y002931D01*
X016931Y002949D01*
X016993Y002962D01*
X017055Y002972D01*
X017117Y002978D01*
X017180Y002980D01*
X017243Y002978D01*
X017305Y002972D01*
X017367Y002962D01*
X017429Y002949D01*
X017489Y002931D01*
X017548Y002910D01*
X017606Y002885D01*
X017662Y002856D01*
X017716Y002824D01*
X017768Y002789D01*
X017817Y002751D01*
X017865Y002709D01*
X017909Y002665D01*
X017951Y002617D01*
X017989Y002568D01*
X018024Y002516D01*
X018056Y002462D01*
X018085Y002406D01*
X018110Y002348D01*
X018131Y002289D01*
X018149Y002229D01*
X018162Y002167D01*
X018172Y002105D01*
X018178Y002043D01*
X018180Y001980D01*
X018178Y001917D01*
X018172Y001855D01*
X018162Y001793D01*
X018149Y001731D01*
X018131Y001671D01*
X018110Y001612D01*
X018085Y001554D01*
X018056Y001498D01*
X018024Y001444D01*
X017989Y001392D01*
X017951Y001343D01*
X017909Y001295D01*
X017865Y001251D01*
X017817Y001209D01*
X017768Y001171D01*
X017716Y001136D01*
X017662Y001104D01*
X017606Y001075D01*
X017548Y001050D01*
X017489Y001029D01*
X017429Y001011D01*
X017367Y000998D01*
X017305Y000988D01*
X017243Y000982D01*
X017180Y000980D01*
X017117Y000982D01*
X017055Y000988D01*
X016993Y000998D01*
X016931Y001011D01*
X016871Y001029D01*
X016812Y001050D01*
X016754Y001075D01*
X016698Y001104D01*
X016644Y001136D01*
X016592Y001171D01*
X016543Y001209D01*
X016495Y001251D01*
X016451Y001295D01*
X016409Y001343D01*
X016371Y001392D01*
X016336Y001444D01*
X016304Y001498D01*
X016275Y001554D01*
X016250Y001612D01*
X016229Y001671D01*
X016211Y001731D01*
X016198Y001793D01*
X016188Y001855D01*
X016182Y001917D01*
X016180Y001980D01*
X016180Y001230D02*
X016223Y001176D01*
X016269Y001124D01*
X016318Y001075D01*
X016370Y001028D01*
X016424Y000985D01*
X016480Y000944D01*
X016539Y000907D01*
X016599Y000873D01*
X016662Y000843D01*
X016725Y000816D01*
X016791Y000792D01*
X016857Y000772D01*
X016925Y000756D01*
X016993Y000744D01*
X017062Y000736D01*
X017131Y000731D01*
X017201Y000730D01*
X017270Y000733D01*
X017339Y000740D01*
X017407Y000751D01*
X017475Y000765D01*
X017542Y000784D01*
X017608Y000806D01*
X017673Y000831D01*
X017736Y000860D01*
X017797Y000893D01*
X017856Y000929D01*
X017913Y000968D01*
X017969Y001010D01*
X018021Y001055D01*
X018071Y001103D01*
X018118Y001154D01*
X018163Y001208D01*
X018204Y001263D01*
X018242Y001321D01*
X018277Y001381D01*
X018309Y001443D01*
X018337Y001506D01*
X018361Y001571D01*
X018382Y001637D01*
X018399Y001705D01*
X018413Y001773D01*
X018422Y001842D01*
X018428Y001911D01*
X018430Y001980D01*
X018428Y002049D01*
X018422Y002118D01*
X018413Y002187D01*
X018399Y002255D01*
X018382Y002323D01*
X018361Y002389D01*
X018337Y002454D01*
X018309Y002517D01*
X018277Y002579D01*
X018242Y002639D01*
X018204Y002697D01*
X018163Y002752D01*
X018118Y002806D01*
X018071Y002857D01*
X018021Y002905D01*
X017969Y002950D01*
X017913Y002992D01*
X017856Y003031D01*
X017797Y003067D01*
X017736Y003100D01*
X017673Y003129D01*
X017608Y003154D01*
X017542Y003176D01*
X017475Y003195D01*
X017407Y003209D01*
X017339Y003220D01*
X017270Y003227D01*
X017201Y003230D01*
X017131Y003229D01*
X017062Y003224D01*
X016993Y003216D01*
X016925Y003204D01*
X016857Y003188D01*
X016791Y003168D01*
X016725Y003144D01*
X016662Y003117D01*
X016599Y003087D01*
X016539Y003053D01*
X016480Y003016D01*
X016424Y002975D01*
X016370Y002932D01*
X016318Y002885D01*
X016269Y002836D01*
X016223Y002784D01*
X016180Y002730D01*
X016180Y001230D01*
X013180Y001980D02*
X013182Y002043D01*
X013188Y002105D01*
X013198Y002167D01*
X013211Y002229D01*
X013229Y002289D01*
X013250Y002348D01*
X013275Y002406D01*
X013304Y002462D01*
X013336Y002516D01*
X013371Y002568D01*
X013409Y002617D01*
X013451Y002665D01*
X013495Y002709D01*
X013543Y002751D01*
X013592Y002789D01*
X013644Y002824D01*
X013698Y002856D01*
X013754Y002885D01*
X013812Y002910D01*
X013871Y002931D01*
X013931Y002949D01*
X013993Y002962D01*
X014055Y002972D01*
X014117Y002978D01*
X014180Y002980D01*
X014243Y002978D01*
X014305Y002972D01*
X014367Y002962D01*
X014429Y002949D01*
X014489Y002931D01*
X014548Y002910D01*
X014606Y002885D01*
X014662Y002856D01*
X014716Y002824D01*
X014768Y002789D01*
X014817Y002751D01*
X014865Y002709D01*
X014909Y002665D01*
X014951Y002617D01*
X014989Y002568D01*
X015024Y002516D01*
X015056Y002462D01*
X015085Y002406D01*
X015110Y002348D01*
X015131Y002289D01*
X015149Y002229D01*
X015162Y002167D01*
X015172Y002105D01*
X015178Y002043D01*
X015180Y001980D01*
X015178Y001917D01*
X015172Y001855D01*
X015162Y001793D01*
X015149Y001731D01*
X015131Y001671D01*
X015110Y001612D01*
X015085Y001554D01*
X015056Y001498D01*
X015024Y001444D01*
X014989Y001392D01*
X014951Y001343D01*
X014909Y001295D01*
X014865Y001251D01*
X014817Y001209D01*
X014768Y001171D01*
X014716Y001136D01*
X014662Y001104D01*
X014606Y001075D01*
X014548Y001050D01*
X014489Y001029D01*
X014429Y001011D01*
X014367Y000998D01*
X014305Y000988D01*
X014243Y000982D01*
X014180Y000980D01*
X014117Y000982D01*
X014055Y000988D01*
X013993Y000998D01*
X013931Y001011D01*
X013871Y001029D01*
X013812Y001050D01*
X013754Y001075D01*
X013698Y001104D01*
X013644Y001136D01*
X013592Y001171D01*
X013543Y001209D01*
X013495Y001251D01*
X013451Y001295D01*
X013409Y001343D01*
X013371Y001392D01*
X013336Y001444D01*
X013304Y001498D01*
X013275Y001554D01*
X013250Y001612D01*
X013229Y001671D01*
X013211Y001731D01*
X013198Y001793D01*
X013188Y001855D01*
X013182Y001917D01*
X013180Y001980D01*
X013180Y001230D02*
X013223Y001176D01*
X013269Y001124D01*
X013318Y001075D01*
X013370Y001028D01*
X013424Y000985D01*
X013480Y000944D01*
X013539Y000907D01*
X013599Y000873D01*
X013662Y000843D01*
X013725Y000816D01*
X013791Y000792D01*
X013857Y000772D01*
X013925Y000756D01*
X013993Y000744D01*
X014062Y000736D01*
X014131Y000731D01*
X014201Y000730D01*
X014270Y000733D01*
X014339Y000740D01*
X014407Y000751D01*
X014475Y000765D01*
X014542Y000784D01*
X014608Y000806D01*
X014673Y000831D01*
X014736Y000860D01*
X014797Y000893D01*
X014856Y000929D01*
X014913Y000968D01*
X014969Y001010D01*
X015021Y001055D01*
X015071Y001103D01*
X015118Y001154D01*
X015163Y001208D01*
X015204Y001263D01*
X015242Y001321D01*
X015277Y001381D01*
X015309Y001443D01*
X015337Y001506D01*
X015361Y001571D01*
X015382Y001637D01*
X015399Y001705D01*
X015413Y001773D01*
X015422Y001842D01*
X015428Y001911D01*
X015430Y001980D01*
X015428Y002049D01*
X015422Y002118D01*
X015413Y002187D01*
X015399Y002255D01*
X015382Y002323D01*
X015361Y002389D01*
X015337Y002454D01*
X015309Y002517D01*
X015277Y002579D01*
X015242Y002639D01*
X015204Y002697D01*
X015163Y002752D01*
X015118Y002806D01*
X015071Y002857D01*
X015021Y002905D01*
X014969Y002950D01*
X014913Y002992D01*
X014856Y003031D01*
X014797Y003067D01*
X014736Y003100D01*
X014673Y003129D01*
X014608Y003154D01*
X014542Y003176D01*
X014475Y003195D01*
X014407Y003209D01*
X014339Y003220D01*
X014270Y003227D01*
X014201Y003230D01*
X014131Y003229D01*
X014062Y003224D01*
X013993Y003216D01*
X013925Y003204D01*
X013857Y003188D01*
X013791Y003168D01*
X013725Y003144D01*
X013662Y003117D01*
X013599Y003087D01*
X013539Y003053D01*
X013480Y003016D01*
X013424Y002975D01*
X013370Y002932D01*
X013318Y002885D01*
X013269Y002836D01*
X013223Y002784D01*
X013180Y002730D01*
X013180Y001230D01*
X010180Y001980D02*
X010182Y002043D01*
X010188Y002105D01*
X010198Y002167D01*
X010211Y002229D01*
X010229Y002289D01*
X010250Y002348D01*
X010275Y002406D01*
X010304Y002462D01*
X010336Y002516D01*
X010371Y002568D01*
X010409Y002617D01*
X010451Y002665D01*
X010495Y002709D01*
X010543Y002751D01*
X010592Y002789D01*
X010644Y002824D01*
X010698Y002856D01*
X010754Y002885D01*
X010812Y002910D01*
X010871Y002931D01*
X010931Y002949D01*
X010993Y002962D01*
X011055Y002972D01*
X011117Y002978D01*
X011180Y002980D01*
X011243Y002978D01*
X011305Y002972D01*
X011367Y002962D01*
X011429Y002949D01*
X011489Y002931D01*
X011548Y002910D01*
X011606Y002885D01*
X011662Y002856D01*
X011716Y002824D01*
X011768Y002789D01*
X011817Y002751D01*
X011865Y002709D01*
X011909Y002665D01*
X011951Y002617D01*
X011989Y002568D01*
X012024Y002516D01*
X012056Y002462D01*
X012085Y002406D01*
X012110Y002348D01*
X012131Y002289D01*
X012149Y002229D01*
X012162Y002167D01*
X012172Y002105D01*
X012178Y002043D01*
X012180Y001980D01*
X012178Y001917D01*
X012172Y001855D01*
X012162Y001793D01*
X012149Y001731D01*
X012131Y001671D01*
X012110Y001612D01*
X012085Y001554D01*
X012056Y001498D01*
X012024Y001444D01*
X011989Y001392D01*
X011951Y001343D01*
X011909Y001295D01*
X011865Y001251D01*
X011817Y001209D01*
X011768Y001171D01*
X011716Y001136D01*
X011662Y001104D01*
X011606Y001075D01*
X011548Y001050D01*
X011489Y001029D01*
X011429Y001011D01*
X011367Y000998D01*
X011305Y000988D01*
X011243Y000982D01*
X011180Y000980D01*
X011117Y000982D01*
X011055Y000988D01*
X010993Y000998D01*
X010931Y001011D01*
X010871Y001029D01*
X010812Y001050D01*
X010754Y001075D01*
X010698Y001104D01*
X010644Y001136D01*
X010592Y001171D01*
X010543Y001209D01*
X010495Y001251D01*
X010451Y001295D01*
X010409Y001343D01*
X010371Y001392D01*
X010336Y001444D01*
X010304Y001498D01*
X010275Y001554D01*
X010250Y001612D01*
X010229Y001671D01*
X010211Y001731D01*
X010198Y001793D01*
X010188Y001855D01*
X010182Y001917D01*
X010180Y001980D01*
X010180Y001230D02*
X010223Y001176D01*
X010269Y001124D01*
X010318Y001075D01*
X010370Y001028D01*
X010424Y000985D01*
X010480Y000944D01*
X010539Y000907D01*
X010599Y000873D01*
X010662Y000843D01*
X010725Y000816D01*
X010791Y000792D01*
X010857Y000772D01*
X010925Y000756D01*
X010993Y000744D01*
X011062Y000736D01*
X011131Y000731D01*
X011201Y000730D01*
X011270Y000733D01*
X011339Y000740D01*
X011407Y000751D01*
X011475Y000765D01*
X011542Y000784D01*
X011608Y000806D01*
X011673Y000831D01*
X011736Y000860D01*
X011797Y000893D01*
X011856Y000929D01*
X011913Y000968D01*
X011969Y001010D01*
X012021Y001055D01*
X012071Y001103D01*
X012118Y001154D01*
X012163Y001208D01*
X012204Y001263D01*
X012242Y001321D01*
X012277Y001381D01*
X012309Y001443D01*
X012337Y001506D01*
X012361Y001571D01*
X012382Y001637D01*
X012399Y001705D01*
X012413Y001773D01*
X012422Y001842D01*
X012428Y001911D01*
X012430Y001980D01*
X012428Y002049D01*
X012422Y002118D01*
X012413Y002187D01*
X012399Y002255D01*
X012382Y002323D01*
X012361Y002389D01*
X012337Y002454D01*
X012309Y002517D01*
X012277Y002579D01*
X012242Y002639D01*
X012204Y002697D01*
X012163Y002752D01*
X012118Y002806D01*
X012071Y002857D01*
X012021Y002905D01*
X011969Y002950D01*
X011913Y002992D01*
X011856Y003031D01*
X011797Y003067D01*
X011736Y003100D01*
X011673Y003129D01*
X011608Y003154D01*
X011542Y003176D01*
X011475Y003195D01*
X011407Y003209D01*
X011339Y003220D01*
X011270Y003227D01*
X011201Y003230D01*
X011131Y003229D01*
X011062Y003224D01*
X010993Y003216D01*
X010925Y003204D01*
X010857Y003188D01*
X010791Y003168D01*
X010725Y003144D01*
X010662Y003117D01*
X010599Y003087D01*
X010539Y003053D01*
X010480Y003016D01*
X010424Y002975D01*
X010370Y002932D01*
X010318Y002885D01*
X010269Y002836D01*
X010223Y002784D01*
X010180Y002730D01*
X010180Y001230D01*
X007180Y001980D02*
X007182Y002043D01*
X007188Y002105D01*
X007198Y002167D01*
X007211Y002229D01*
X007229Y002289D01*
X007250Y002348D01*
X007275Y002406D01*
X007304Y002462D01*
X007336Y002516D01*
X007371Y002568D01*
X007409Y002617D01*
X007451Y002665D01*
X007495Y002709D01*
X007543Y002751D01*
X007592Y002789D01*
X007644Y002824D01*
X007698Y002856D01*
X007754Y002885D01*
X007812Y002910D01*
X007871Y002931D01*
X007931Y002949D01*
X007993Y002962D01*
X008055Y002972D01*
X008117Y002978D01*
X008180Y002980D01*
X008243Y002978D01*
X008305Y002972D01*
X008367Y002962D01*
X008429Y002949D01*
X008489Y002931D01*
X008548Y002910D01*
X008606Y002885D01*
X008662Y002856D01*
X008716Y002824D01*
X008768Y002789D01*
X008817Y002751D01*
X008865Y002709D01*
X008909Y002665D01*
X008951Y002617D01*
X008989Y002568D01*
X009024Y002516D01*
X009056Y002462D01*
X009085Y002406D01*
X009110Y002348D01*
X009131Y002289D01*
X009149Y002229D01*
X009162Y002167D01*
X009172Y002105D01*
X009178Y002043D01*
X009180Y001980D01*
X009178Y001917D01*
X009172Y001855D01*
X009162Y001793D01*
X009149Y001731D01*
X009131Y001671D01*
X009110Y001612D01*
X009085Y001554D01*
X009056Y001498D01*
X009024Y001444D01*
X008989Y001392D01*
X008951Y001343D01*
X008909Y001295D01*
X008865Y001251D01*
X008817Y001209D01*
X008768Y001171D01*
X008716Y001136D01*
X008662Y001104D01*
X008606Y001075D01*
X008548Y001050D01*
X008489Y001029D01*
X008429Y001011D01*
X008367Y000998D01*
X008305Y000988D01*
X008243Y000982D01*
X008180Y000980D01*
X008117Y000982D01*
X008055Y000988D01*
X007993Y000998D01*
X007931Y001011D01*
X007871Y001029D01*
X007812Y001050D01*
X007754Y001075D01*
X007698Y001104D01*
X007644Y001136D01*
X007592Y001171D01*
X007543Y001209D01*
X007495Y001251D01*
X007451Y001295D01*
X007409Y001343D01*
X007371Y001392D01*
X007336Y001444D01*
X007304Y001498D01*
X007275Y001554D01*
X007250Y001612D01*
X007229Y001671D01*
X007211Y001731D01*
X007198Y001793D01*
X007188Y001855D01*
X007182Y001917D01*
X007180Y001980D01*
X007180Y001230D02*
X007223Y001176D01*
X007269Y001124D01*
X007318Y001075D01*
X007370Y001028D01*
X007424Y000985D01*
X007480Y000944D01*
X007539Y000907D01*
X007599Y000873D01*
X007662Y000843D01*
X007725Y000816D01*
X007791Y000792D01*
X007857Y000772D01*
X007925Y000756D01*
X007993Y000744D01*
X008062Y000736D01*
X008131Y000731D01*
X008201Y000730D01*
X008270Y000733D01*
X008339Y000740D01*
X008407Y000751D01*
X008475Y000765D01*
X008542Y000784D01*
X008608Y000806D01*
X008673Y000831D01*
X008736Y000860D01*
X008797Y000893D01*
X008856Y000929D01*
X008913Y000968D01*
X008969Y001010D01*
X009021Y001055D01*
X009071Y001103D01*
X009118Y001154D01*
X009163Y001208D01*
X009204Y001263D01*
X009242Y001321D01*
X009277Y001381D01*
X009309Y001443D01*
X009337Y001506D01*
X009361Y001571D01*
X009382Y001637D01*
X009399Y001705D01*
X009413Y001773D01*
X009422Y001842D01*
X009428Y001911D01*
X009430Y001980D01*
X009428Y002049D01*
X009422Y002118D01*
X009413Y002187D01*
X009399Y002255D01*
X009382Y002323D01*
X009361Y002389D01*
X009337Y002454D01*
X009309Y002517D01*
X009277Y002579D01*
X009242Y002639D01*
X009204Y002697D01*
X009163Y002752D01*
X009118Y002806D01*
X009071Y002857D01*
X009021Y002905D01*
X008969Y002950D01*
X008913Y002992D01*
X008856Y003031D01*
X008797Y003067D01*
X008736Y003100D01*
X008673Y003129D01*
X008608Y003154D01*
X008542Y003176D01*
X008475Y003195D01*
X008407Y003209D01*
X008339Y003220D01*
X008270Y003227D01*
X008201Y003230D01*
X008131Y003229D01*
X008062Y003224D01*
X007993Y003216D01*
X007925Y003204D01*
X007857Y003188D01*
X007791Y003168D01*
X007725Y003144D01*
X007662Y003117D01*
X007599Y003087D01*
X007539Y003053D01*
X007480Y003016D01*
X007424Y002975D01*
X007370Y002932D01*
X007318Y002885D01*
X007269Y002836D01*
X007223Y002784D01*
X007180Y002730D01*
X007180Y001230D01*
X007200Y004270D02*
X007200Y005770D01*
X007200Y005020D02*
X007202Y005083D01*
X007208Y005145D01*
X007218Y005207D01*
X007231Y005269D01*
X007249Y005329D01*
X007270Y005388D01*
X007295Y005446D01*
X007324Y005502D01*
X007356Y005556D01*
X007391Y005608D01*
X007429Y005657D01*
X007471Y005705D01*
X007515Y005749D01*
X007563Y005791D01*
X007612Y005829D01*
X007664Y005864D01*
X007718Y005896D01*
X007774Y005925D01*
X007832Y005950D01*
X007891Y005971D01*
X007951Y005989D01*
X008013Y006002D01*
X008075Y006012D01*
X008137Y006018D01*
X008200Y006020D01*
X008263Y006018D01*
X008325Y006012D01*
X008387Y006002D01*
X008449Y005989D01*
X008509Y005971D01*
X008568Y005950D01*
X008626Y005925D01*
X008682Y005896D01*
X008736Y005864D01*
X008788Y005829D01*
X008837Y005791D01*
X008885Y005749D01*
X008929Y005705D01*
X008971Y005657D01*
X009009Y005608D01*
X009044Y005556D01*
X009076Y005502D01*
X009105Y005446D01*
X009130Y005388D01*
X009151Y005329D01*
X009169Y005269D01*
X009182Y005207D01*
X009192Y005145D01*
X009198Y005083D01*
X009200Y005020D01*
X009198Y004957D01*
X009192Y004895D01*
X009182Y004833D01*
X009169Y004771D01*
X009151Y004711D01*
X009130Y004652D01*
X009105Y004594D01*
X009076Y004538D01*
X009044Y004484D01*
X009009Y004432D01*
X008971Y004383D01*
X008929Y004335D01*
X008885Y004291D01*
X008837Y004249D01*
X008788Y004211D01*
X008736Y004176D01*
X008682Y004144D01*
X008626Y004115D01*
X008568Y004090D01*
X008509Y004069D01*
X008449Y004051D01*
X008387Y004038D01*
X008325Y004028D01*
X008263Y004022D01*
X008200Y004020D01*
X008137Y004022D01*
X008075Y004028D01*
X008013Y004038D01*
X007951Y004051D01*
X007891Y004069D01*
X007832Y004090D01*
X007774Y004115D01*
X007718Y004144D01*
X007664Y004176D01*
X007612Y004211D01*
X007563Y004249D01*
X007515Y004291D01*
X007471Y004335D01*
X007429Y004383D01*
X007391Y004432D01*
X007356Y004484D01*
X007324Y004538D01*
X007295Y004594D01*
X007270Y004652D01*
X007249Y004711D01*
X007231Y004771D01*
X007218Y004833D01*
X007208Y004895D01*
X007202Y004957D01*
X007200Y005020D01*
X007200Y004270D02*
X007243Y004216D01*
X007289Y004164D01*
X007338Y004115D01*
X007390Y004068D01*
X007444Y004025D01*
X007500Y003984D01*
X007559Y003947D01*
X007619Y003913D01*
X007682Y003883D01*
X007745Y003856D01*
X007811Y003832D01*
X007877Y003812D01*
X007945Y003796D01*
X008013Y003784D01*
X008082Y003776D01*
X008151Y003771D01*
X008221Y003770D01*
X008290Y003773D01*
X008359Y003780D01*
X008427Y003791D01*
X008495Y003805D01*
X008562Y003824D01*
X008628Y003846D01*
X008693Y003871D01*
X008756Y003900D01*
X008817Y003933D01*
X008876Y003969D01*
X008933Y004008D01*
X008989Y004050D01*
X009041Y004095D01*
X009091Y004143D01*
X009138Y004194D01*
X009183Y004248D01*
X009224Y004303D01*
X009262Y004361D01*
X009297Y004421D01*
X009329Y004483D01*
X009357Y004546D01*
X009381Y004611D01*
X009402Y004677D01*
X009419Y004745D01*
X009433Y004813D01*
X009442Y004882D01*
X009448Y004951D01*
X009450Y005020D01*
X009448Y005089D01*
X009442Y005158D01*
X009433Y005227D01*
X009419Y005295D01*
X009402Y005363D01*
X009381Y005429D01*
X009357Y005494D01*
X009329Y005557D01*
X009297Y005619D01*
X009262Y005679D01*
X009224Y005737D01*
X009183Y005792D01*
X009138Y005846D01*
X009091Y005897D01*
X009041Y005945D01*
X008989Y005990D01*
X008933Y006032D01*
X008876Y006071D01*
X008817Y006107D01*
X008756Y006140D01*
X008693Y006169D01*
X008628Y006194D01*
X008562Y006216D01*
X008495Y006235D01*
X008427Y006249D01*
X008359Y006260D01*
X008290Y006267D01*
X008221Y006270D01*
X008151Y006269D01*
X008082Y006264D01*
X008013Y006256D01*
X007945Y006244D01*
X007877Y006228D01*
X007811Y006208D01*
X007745Y006184D01*
X007682Y006157D01*
X007619Y006127D01*
X007559Y006093D01*
X007500Y006056D01*
X007444Y006015D01*
X007390Y005972D01*
X007338Y005925D01*
X007289Y005876D01*
X007243Y005824D01*
X007200Y005770D01*
X009130Y007230D02*
X009130Y008730D01*
X007130Y007980D02*
X007132Y008043D01*
X007138Y008105D01*
X007148Y008167D01*
X007161Y008229D01*
X007179Y008289D01*
X007200Y008348D01*
X007225Y008406D01*
X007254Y008462D01*
X007286Y008516D01*
X007321Y008568D01*
X007359Y008617D01*
X007401Y008665D01*
X007445Y008709D01*
X007493Y008751D01*
X007542Y008789D01*
X007594Y008824D01*
X007648Y008856D01*
X007704Y008885D01*
X007762Y008910D01*
X007821Y008931D01*
X007881Y008949D01*
X007943Y008962D01*
X008005Y008972D01*
X008067Y008978D01*
X008130Y008980D01*
X008193Y008978D01*
X008255Y008972D01*
X008317Y008962D01*
X008379Y008949D01*
X008439Y008931D01*
X008498Y008910D01*
X008556Y008885D01*
X008612Y008856D01*
X008666Y008824D01*
X008718Y008789D01*
X008767Y008751D01*
X008815Y008709D01*
X008859Y008665D01*
X008901Y008617D01*
X008939Y008568D01*
X008974Y008516D01*
X009006Y008462D01*
X009035Y008406D01*
X009060Y008348D01*
X009081Y008289D01*
X009099Y008229D01*
X009112Y008167D01*
X009122Y008105D01*
X009128Y008043D01*
X009130Y007980D01*
X009128Y007917D01*
X009122Y007855D01*
X009112Y007793D01*
X009099Y007731D01*
X009081Y007671D01*
X009060Y007612D01*
X009035Y007554D01*
X009006Y007498D01*
X008974Y007444D01*
X008939Y007392D01*
X008901Y007343D01*
X008859Y007295D01*
X008815Y007251D01*
X008767Y007209D01*
X008718Y007171D01*
X008666Y007136D01*
X008612Y007104D01*
X008556Y007075D01*
X008498Y007050D01*
X008439Y007029D01*
X008379Y007011D01*
X008317Y006998D01*
X008255Y006988D01*
X008193Y006982D01*
X008130Y006980D01*
X008067Y006982D01*
X008005Y006988D01*
X007943Y006998D01*
X007881Y007011D01*
X007821Y007029D01*
X007762Y007050D01*
X007704Y007075D01*
X007648Y007104D01*
X007594Y007136D01*
X007542Y007171D01*
X007493Y007209D01*
X007445Y007251D01*
X007401Y007295D01*
X007359Y007343D01*
X007321Y007392D01*
X007286Y007444D01*
X007254Y007498D01*
X007225Y007554D01*
X007200Y007612D01*
X007179Y007671D01*
X007161Y007731D01*
X007148Y007793D01*
X007138Y007855D01*
X007132Y007917D01*
X007130Y007980D01*
X009130Y008730D02*
X009087Y008784D01*
X009041Y008836D01*
X008992Y008885D01*
X008940Y008932D01*
X008886Y008975D01*
X008830Y009016D01*
X008771Y009053D01*
X008711Y009087D01*
X008648Y009117D01*
X008585Y009144D01*
X008519Y009168D01*
X008453Y009188D01*
X008385Y009204D01*
X008317Y009216D01*
X008248Y009224D01*
X008179Y009229D01*
X008109Y009230D01*
X008040Y009227D01*
X007971Y009220D01*
X007903Y009209D01*
X007835Y009195D01*
X007768Y009176D01*
X007702Y009154D01*
X007637Y009129D01*
X007574Y009100D01*
X007513Y009067D01*
X007454Y009031D01*
X007397Y008992D01*
X007341Y008950D01*
X007289Y008905D01*
X007239Y008857D01*
X007192Y008806D01*
X007147Y008752D01*
X007106Y008697D01*
X007068Y008639D01*
X007033Y008579D01*
X007001Y008517D01*
X006973Y008454D01*
X006949Y008389D01*
X006928Y008323D01*
X006911Y008255D01*
X006897Y008187D01*
X006888Y008118D01*
X006882Y008049D01*
X006880Y007980D01*
X006882Y007911D01*
X006888Y007842D01*
X006897Y007773D01*
X006911Y007705D01*
X006928Y007637D01*
X006949Y007571D01*
X006973Y007506D01*
X007001Y007443D01*
X007033Y007381D01*
X007068Y007321D01*
X007106Y007263D01*
X007147Y007208D01*
X007192Y007154D01*
X007239Y007103D01*
X007289Y007055D01*
X007341Y007010D01*
X007397Y006968D01*
X007454Y006929D01*
X007513Y006893D01*
X007574Y006860D01*
X007637Y006831D01*
X007702Y006806D01*
X007768Y006784D01*
X007835Y006765D01*
X007903Y006751D01*
X007971Y006740D01*
X008040Y006733D01*
X008109Y006730D01*
X008179Y006731D01*
X008248Y006736D01*
X008317Y006744D01*
X008385Y006756D01*
X008453Y006772D01*
X008519Y006792D01*
X008585Y006816D01*
X008648Y006843D01*
X008711Y006873D01*
X008771Y006907D01*
X008830Y006944D01*
X008886Y006985D01*
X008940Y007028D01*
X008992Y007075D01*
X009041Y007124D01*
X009087Y007176D01*
X009130Y007230D01*
X012180Y007230D02*
X012137Y007176D01*
X012091Y007124D01*
X012042Y007075D01*
X011990Y007028D01*
X011936Y006985D01*
X011880Y006944D01*
X011821Y006907D01*
X011761Y006873D01*
X011698Y006843D01*
X011635Y006816D01*
X011569Y006792D01*
X011503Y006772D01*
X011435Y006756D01*
X011367Y006744D01*
X011298Y006736D01*
X011229Y006731D01*
X011159Y006730D01*
X011090Y006733D01*
X011021Y006740D01*
X010953Y006751D01*
X010885Y006765D01*
X010818Y006784D01*
X010752Y006806D01*
X010687Y006831D01*
X010624Y006860D01*
X010563Y006893D01*
X010504Y006929D01*
X010447Y006968D01*
X010391Y007010D01*
X010339Y007055D01*
X010289Y007103D01*
X010242Y007154D01*
X010197Y007208D01*
X010156Y007263D01*
X010118Y007321D01*
X010083Y007381D01*
X010051Y007443D01*
X010023Y007506D01*
X009999Y007571D01*
X009978Y007637D01*
X009961Y007705D01*
X009947Y007773D01*
X009938Y007842D01*
X009932Y007911D01*
X009930Y007980D01*
X009932Y008049D01*
X009938Y008118D01*
X009947Y008187D01*
X009961Y008255D01*
X009978Y008323D01*
X009999Y008389D01*
X010023Y008454D01*
X010051Y008517D01*
X010083Y008579D01*
X010118Y008639D01*
X010156Y008697D01*
X010197Y008752D01*
X010242Y008806D01*
X010289Y008857D01*
X010339Y008905D01*
X010391Y008950D01*
X010447Y008992D01*
X010504Y009031D01*
X010563Y009067D01*
X010624Y009100D01*
X010687Y009129D01*
X010752Y009154D01*
X010818Y009176D01*
X010885Y009195D01*
X010953Y009209D01*
X011021Y009220D01*
X011090Y009227D01*
X011159Y009230D01*
X011229Y009229D01*
X011298Y009224D01*
X011367Y009216D01*
X011435Y009204D01*
X011503Y009188D01*
X011569Y009168D01*
X011635Y009144D01*
X011698Y009117D01*
X011761Y009087D01*
X011821Y009053D01*
X011880Y009016D01*
X011936Y008975D01*
X011990Y008932D01*
X012042Y008885D01*
X012091Y008836D01*
X012137Y008784D01*
X012180Y008730D01*
X012180Y007230D01*
X010180Y007980D02*
X010182Y008043D01*
X010188Y008105D01*
X010198Y008167D01*
X010211Y008229D01*
X010229Y008289D01*
X010250Y008348D01*
X010275Y008406D01*
X010304Y008462D01*
X010336Y008516D01*
X010371Y008568D01*
X010409Y008617D01*
X010451Y008665D01*
X010495Y008709D01*
X010543Y008751D01*
X010592Y008789D01*
X010644Y008824D01*
X010698Y008856D01*
X010754Y008885D01*
X010812Y008910D01*
X010871Y008931D01*
X010931Y008949D01*
X010993Y008962D01*
X011055Y008972D01*
X011117Y008978D01*
X011180Y008980D01*
X011243Y008978D01*
X011305Y008972D01*
X011367Y008962D01*
X011429Y008949D01*
X011489Y008931D01*
X011548Y008910D01*
X011606Y008885D01*
X011662Y008856D01*
X011716Y008824D01*
X011768Y008789D01*
X011817Y008751D01*
X011865Y008709D01*
X011909Y008665D01*
X011951Y008617D01*
X011989Y008568D01*
X012024Y008516D01*
X012056Y008462D01*
X012085Y008406D01*
X012110Y008348D01*
X012131Y008289D01*
X012149Y008229D01*
X012162Y008167D01*
X012172Y008105D01*
X012178Y008043D01*
X012180Y007980D01*
X012178Y007917D01*
X012172Y007855D01*
X012162Y007793D01*
X012149Y007731D01*
X012131Y007671D01*
X012110Y007612D01*
X012085Y007554D01*
X012056Y007498D01*
X012024Y007444D01*
X011989Y007392D01*
X011951Y007343D01*
X011909Y007295D01*
X011865Y007251D01*
X011817Y007209D01*
X011768Y007171D01*
X011716Y007136D01*
X011662Y007104D01*
X011606Y007075D01*
X011548Y007050D01*
X011489Y007029D01*
X011429Y007011D01*
X011367Y006998D01*
X011305Y006988D01*
X011243Y006982D01*
X011180Y006980D01*
X011117Y006982D01*
X011055Y006988D01*
X010993Y006998D01*
X010931Y007011D01*
X010871Y007029D01*
X010812Y007050D01*
X010754Y007075D01*
X010698Y007104D01*
X010644Y007136D01*
X010592Y007171D01*
X010543Y007209D01*
X010495Y007251D01*
X010451Y007295D01*
X010409Y007343D01*
X010371Y007392D01*
X010336Y007444D01*
X010304Y007498D01*
X010275Y007554D01*
X010250Y007612D01*
X010229Y007671D01*
X010211Y007731D01*
X010198Y007793D01*
X010188Y007855D01*
X010182Y007917D01*
X010180Y007980D01*
X015180Y007260D02*
X015137Y007206D01*
X015091Y007154D01*
X015042Y007105D01*
X014990Y007058D01*
X014936Y007015D01*
X014880Y006974D01*
X014821Y006937D01*
X014761Y006903D01*
X014698Y006873D01*
X014635Y006846D01*
X014569Y006822D01*
X014503Y006802D01*
X014435Y006786D01*
X014367Y006774D01*
X014298Y006766D01*
X014229Y006761D01*
X014159Y006760D01*
X014090Y006763D01*
X014021Y006770D01*
X013953Y006781D01*
X013885Y006795D01*
X013818Y006814D01*
X013752Y006836D01*
X013687Y006861D01*
X013624Y006890D01*
X013563Y006923D01*
X013504Y006959D01*
X013447Y006998D01*
X013391Y007040D01*
X013339Y007085D01*
X013289Y007133D01*
X013242Y007184D01*
X013197Y007238D01*
X013156Y007293D01*
X013118Y007351D01*
X013083Y007411D01*
X013051Y007473D01*
X013023Y007536D01*
X012999Y007601D01*
X012978Y007667D01*
X012961Y007735D01*
X012947Y007803D01*
X012938Y007872D01*
X012932Y007941D01*
X012930Y008010D01*
X012932Y008079D01*
X012938Y008148D01*
X012947Y008217D01*
X012961Y008285D01*
X012978Y008353D01*
X012999Y008419D01*
X013023Y008484D01*
X013051Y008547D01*
X013083Y008609D01*
X013118Y008669D01*
X013156Y008727D01*
X013197Y008782D01*
X013242Y008836D01*
X013289Y008887D01*
X013339Y008935D01*
X013391Y008980D01*
X013447Y009022D01*
X013504Y009061D01*
X013563Y009097D01*
X013624Y009130D01*
X013687Y009159D01*
X013752Y009184D01*
X013818Y009206D01*
X013885Y009225D01*
X013953Y009239D01*
X014021Y009250D01*
X014090Y009257D01*
X014159Y009260D01*
X014229Y009259D01*
X014298Y009254D01*
X014367Y009246D01*
X014435Y009234D01*
X014503Y009218D01*
X014569Y009198D01*
X014635Y009174D01*
X014698Y009147D01*
X014761Y009117D01*
X014821Y009083D01*
X014880Y009046D01*
X014936Y009005D01*
X014990Y008962D01*
X015042Y008915D01*
X015091Y008866D01*
X015137Y008814D01*
X015180Y008760D01*
X015180Y007260D01*
X013180Y008010D02*
X013182Y008073D01*
X013188Y008135D01*
X013198Y008197D01*
X013211Y008259D01*
X013229Y008319D01*
X013250Y008378D01*
X013275Y008436D01*
X013304Y008492D01*
X013336Y008546D01*
X013371Y008598D01*
X013409Y008647D01*
X013451Y008695D01*
X013495Y008739D01*
X013543Y008781D01*
X013592Y008819D01*
X013644Y008854D01*
X013698Y008886D01*
X013754Y008915D01*
X013812Y008940D01*
X013871Y008961D01*
X013931Y008979D01*
X013993Y008992D01*
X014055Y009002D01*
X014117Y009008D01*
X014180Y009010D01*
X014243Y009008D01*
X014305Y009002D01*
X014367Y008992D01*
X014429Y008979D01*
X014489Y008961D01*
X014548Y008940D01*
X014606Y008915D01*
X014662Y008886D01*
X014716Y008854D01*
X014768Y008819D01*
X014817Y008781D01*
X014865Y008739D01*
X014909Y008695D01*
X014951Y008647D01*
X014989Y008598D01*
X015024Y008546D01*
X015056Y008492D01*
X015085Y008436D01*
X015110Y008378D01*
X015131Y008319D01*
X015149Y008259D01*
X015162Y008197D01*
X015172Y008135D01*
X015178Y008073D01*
X015180Y008010D01*
X015178Y007947D01*
X015172Y007885D01*
X015162Y007823D01*
X015149Y007761D01*
X015131Y007701D01*
X015110Y007642D01*
X015085Y007584D01*
X015056Y007528D01*
X015024Y007474D01*
X014989Y007422D01*
X014951Y007373D01*
X014909Y007325D01*
X014865Y007281D01*
X014817Y007239D01*
X014768Y007201D01*
X014716Y007166D01*
X014662Y007134D01*
X014606Y007105D01*
X014548Y007080D01*
X014489Y007059D01*
X014429Y007041D01*
X014367Y007028D01*
X014305Y007018D01*
X014243Y007012D01*
X014180Y007010D01*
X014117Y007012D01*
X014055Y007018D01*
X013993Y007028D01*
X013931Y007041D01*
X013871Y007059D01*
X013812Y007080D01*
X013754Y007105D01*
X013698Y007134D01*
X013644Y007166D01*
X013592Y007201D01*
X013543Y007239D01*
X013495Y007281D01*
X013451Y007325D01*
X013409Y007373D01*
X013371Y007422D01*
X013336Y007474D01*
X013304Y007528D01*
X013275Y007584D01*
X013250Y007642D01*
X013229Y007701D01*
X013211Y007761D01*
X013198Y007823D01*
X013188Y007885D01*
X013182Y007947D01*
X013180Y008010D01*
X018040Y007310D02*
X017997Y007256D01*
X017951Y007204D01*
X017902Y007155D01*
X017850Y007108D01*
X017796Y007065D01*
X017740Y007024D01*
X017681Y006987D01*
X017621Y006953D01*
X017558Y006923D01*
X017495Y006896D01*
X017429Y006872D01*
X017363Y006852D01*
X017295Y006836D01*
X017227Y006824D01*
X017158Y006816D01*
X017089Y006811D01*
X017019Y006810D01*
X016950Y006813D01*
X016881Y006820D01*
X016813Y006831D01*
X016745Y006845D01*
X016678Y006864D01*
X016612Y006886D01*
X016547Y006911D01*
X016484Y006940D01*
X016423Y006973D01*
X016364Y007009D01*
X016307Y007048D01*
X016251Y007090D01*
X016199Y007135D01*
X016149Y007183D01*
X016102Y007234D01*
X016057Y007288D01*
X016016Y007343D01*
X015978Y007401D01*
X015943Y007461D01*
X015911Y007523D01*
X015883Y007586D01*
X015859Y007651D01*
X015838Y007717D01*
X015821Y007785D01*
X015807Y007853D01*
X015798Y007922D01*
X015792Y007991D01*
X015790Y008060D01*
X015792Y008129D01*
X015798Y008198D01*
X015807Y008267D01*
X015821Y008335D01*
X015838Y008403D01*
X015859Y008469D01*
X015883Y008534D01*
X015911Y008597D01*
X015943Y008659D01*
X015978Y008719D01*
X016016Y008777D01*
X016057Y008832D01*
X016102Y008886D01*
X016149Y008937D01*
X016199Y008985D01*
X016251Y009030D01*
X016307Y009072D01*
X016364Y009111D01*
X016423Y009147D01*
X016484Y009180D01*
X016547Y009209D01*
X016612Y009234D01*
X016678Y009256D01*
X016745Y009275D01*
X016813Y009289D01*
X016881Y009300D01*
X016950Y009307D01*
X017019Y009310D01*
X017089Y009309D01*
X017158Y009304D01*
X017227Y009296D01*
X017295Y009284D01*
X017363Y009268D01*
X017429Y009248D01*
X017495Y009224D01*
X017558Y009197D01*
X017621Y009167D01*
X017681Y009133D01*
X017740Y009096D01*
X017796Y009055D01*
X017850Y009012D01*
X017902Y008965D01*
X017951Y008916D01*
X017997Y008864D01*
X018040Y008810D01*
X018040Y007310D01*
X016040Y008060D02*
X016042Y008123D01*
X016048Y008185D01*
X016058Y008247D01*
X016071Y008309D01*
X016089Y008369D01*
X016110Y008428D01*
X016135Y008486D01*
X016164Y008542D01*
X016196Y008596D01*
X016231Y008648D01*
X016269Y008697D01*
X016311Y008745D01*
X016355Y008789D01*
X016403Y008831D01*
X016452Y008869D01*
X016504Y008904D01*
X016558Y008936D01*
X016614Y008965D01*
X016672Y008990D01*
X016731Y009011D01*
X016791Y009029D01*
X016853Y009042D01*
X016915Y009052D01*
X016977Y009058D01*
X017040Y009060D01*
X017103Y009058D01*
X017165Y009052D01*
X017227Y009042D01*
X017289Y009029D01*
X017349Y009011D01*
X017408Y008990D01*
X017466Y008965D01*
X017522Y008936D01*
X017576Y008904D01*
X017628Y008869D01*
X017677Y008831D01*
X017725Y008789D01*
X017769Y008745D01*
X017811Y008697D01*
X017849Y008648D01*
X017884Y008596D01*
X017916Y008542D01*
X017945Y008486D01*
X017970Y008428D01*
X017991Y008369D01*
X018009Y008309D01*
X018022Y008247D01*
X018032Y008185D01*
X018038Y008123D01*
X018040Y008060D01*
X018038Y007997D01*
X018032Y007935D01*
X018022Y007873D01*
X018009Y007811D01*
X017991Y007751D01*
X017970Y007692D01*
X017945Y007634D01*
X017916Y007578D01*
X017884Y007524D01*
X017849Y007472D01*
X017811Y007423D01*
X017769Y007375D01*
X017725Y007331D01*
X017677Y007289D01*
X017628Y007251D01*
X017576Y007216D01*
X017522Y007184D01*
X017466Y007155D01*
X017408Y007130D01*
X017349Y007109D01*
X017289Y007091D01*
X017227Y007078D01*
X017165Y007068D01*
X017103Y007062D01*
X017040Y007060D01*
X016977Y007062D01*
X016915Y007068D01*
X016853Y007078D01*
X016791Y007091D01*
X016731Y007109D01*
X016672Y007130D01*
X016614Y007155D01*
X016558Y007184D01*
X016504Y007216D01*
X016452Y007251D01*
X016403Y007289D01*
X016355Y007331D01*
X016311Y007375D01*
X016269Y007423D01*
X016231Y007472D01*
X016196Y007524D01*
X016164Y007578D01*
X016135Y007634D01*
X016110Y007692D01*
X016089Y007751D01*
X016071Y007811D01*
X016058Y007873D01*
X016048Y007935D01*
X016042Y007997D01*
X016040Y008060D01*
X016110Y009930D02*
X013610Y009930D01*
X013510Y010030D01*
X013510Y011380D01*
X014260Y011280D02*
X014260Y010980D01*
X014560Y010980D01*
X014710Y010830D01*
X014710Y010680D01*
X014710Y010380D01*
X015010Y010380D01*
X015010Y010680D01*
X015010Y010830D01*
X015160Y010980D01*
X015460Y010980D01*
X015460Y011280D01*
X015160Y011280D01*
X015010Y011430D01*
X015010Y011580D01*
X015010Y011880D01*
X014710Y011880D01*
X014710Y011580D01*
X014710Y011430D01*
X014560Y011280D01*
X014260Y011280D01*
X014710Y011580D02*
X015010Y011580D01*
X015701Y012040D02*
X015894Y012040D01*
X015798Y012040D02*
X015798Y012330D01*
X015701Y012233D01*
X015860Y012480D02*
X015260Y012480D01*
X015110Y012630D02*
X015860Y012630D01*
X015860Y012480D01*
X015860Y012630D02*
X016110Y012630D01*
X016210Y012530D01*
X016210Y011880D01*
X016430Y012000D02*
X016630Y011800D01*
X016630Y012067D01*
X016830Y012000D02*
X016430Y012000D01*
X016496Y011606D02*
X016430Y011539D01*
X016430Y011339D01*
X016830Y011339D01*
X016697Y011339D02*
X016697Y011539D01*
X016630Y011606D01*
X016496Y011606D01*
X016697Y011473D02*
X016830Y011606D01*
X016210Y011380D02*
X016210Y010030D01*
X016110Y009930D01*
X015010Y010680D02*
X014710Y010680D01*
X013510Y011880D02*
X013510Y012530D01*
X013610Y012630D01*
X013860Y012630D01*
X014610Y012630D01*
X014460Y012480D02*
X013860Y012480D01*
X013860Y012630D01*
X013746Y012330D02*
X013794Y012282D01*
X013794Y012233D01*
X013746Y012185D01*
X013794Y012137D01*
X013794Y012088D01*
X013746Y012040D01*
X013649Y012040D01*
X013601Y012088D01*
X013698Y012185D02*
X013746Y012185D01*
X013746Y012330D02*
X013649Y012330D01*
X013601Y012282D01*
X012316Y012270D02*
X012316Y012003D01*
X011916Y012003D01*
X011982Y012463D02*
X011916Y012530D01*
X011916Y012663D01*
X011982Y012730D01*
X012049Y012730D01*
X012316Y012463D01*
X012316Y012730D01*
X010401Y013404D02*
X010224Y013404D01*
X010401Y013404D02*
X010401Y015216D01*
X010224Y015216D01*
X009436Y015216D02*
X009259Y015216D01*
X009259Y013404D01*
X009436Y013404D01*
X009030Y013760D02*
X008630Y013760D01*
X008630Y013960D01*
X008696Y014027D01*
X008963Y014027D01*
X009030Y013960D01*
X009030Y013760D01*
X009030Y014220D02*
X008763Y014487D01*
X008696Y014487D01*
X008630Y014421D01*
X008630Y014287D01*
X008696Y014220D01*
X009030Y014220D02*
X009030Y014487D01*
X009436Y014704D02*
X010224Y014704D01*
X011184Y014269D02*
X011396Y014269D01*
X011850Y014119D02*
X011850Y013781D01*
X012110Y014190D02*
X012443Y014190D01*
X012510Y014257D01*
X012510Y014390D01*
X012443Y014457D01*
X012110Y014457D01*
X012176Y014650D02*
X012110Y014717D01*
X012110Y014851D01*
X012176Y014917D01*
X012243Y014917D01*
X012510Y014650D01*
X012510Y014917D01*
X011548Y014954D02*
X011312Y014954D01*
X011312Y015426D02*
X011548Y015426D01*
X011440Y015665D02*
X011707Y015932D01*
X011707Y015999D01*
X011641Y016065D01*
X011507Y016065D01*
X011440Y015999D01*
X011247Y015999D02*
X011247Y015865D01*
X011180Y015798D01*
X010980Y015798D01*
X010980Y015665D02*
X010980Y016065D01*
X011180Y016065D01*
X011247Y015999D01*
X011113Y015798D02*
X011247Y015665D01*
X011440Y015665D02*
X011707Y015665D01*
X014090Y015796D02*
X014156Y015730D01*
X014090Y015796D02*
X014090Y015930D01*
X014156Y015997D01*
X014223Y015997D01*
X014490Y015730D01*
X014490Y015997D01*
X014423Y015536D02*
X014490Y015469D01*
X014490Y015336D01*
X014423Y015269D01*
X014156Y015269D01*
X014090Y015336D01*
X014090Y015469D01*
X014156Y015536D01*
X015100Y015080D02*
X015100Y013660D01*
X015263Y013980D02*
X015265Y013995D01*
X015271Y014008D01*
X015280Y014020D01*
X015291Y014029D01*
X015305Y014035D01*
X015320Y014037D01*
X015335Y014035D01*
X015348Y014029D01*
X015360Y014020D01*
X015369Y014009D01*
X015375Y013995D01*
X015377Y013980D01*
X015375Y013965D01*
X015369Y013952D01*
X015360Y013940D01*
X015349Y013931D01*
X015335Y013925D01*
X015320Y013923D01*
X015305Y013925D01*
X015292Y013931D01*
X015280Y013940D01*
X015271Y013951D01*
X015265Y013965D01*
X015263Y013980D01*
X014167Y014040D02*
X014167Y013907D01*
X014100Y013840D01*
X013966Y013840D01*
X013900Y013907D01*
X013900Y014040D02*
X014033Y014107D01*
X014100Y014107D01*
X014167Y014040D01*
X013900Y014040D02*
X013900Y014240D01*
X014167Y014240D01*
X013706Y014174D02*
X013706Y014040D01*
X013639Y013973D01*
X013439Y013973D01*
X013439Y013840D02*
X013439Y014240D01*
X013639Y014240D01*
X013706Y014174D01*
X013573Y013973D02*
X013706Y013840D01*
X010730Y013781D02*
X010730Y014119D01*
X015359Y016207D02*
X015426Y016140D01*
X015559Y016140D01*
X015626Y016207D01*
X015626Y016540D01*
X015359Y016540D02*
X015359Y016207D01*
X015820Y016340D02*
X016087Y016340D01*
X016020Y016140D02*
X016020Y016540D01*
X015820Y016340D01*
X017880Y015157D02*
X017880Y014890D01*
X017880Y015024D02*
X017480Y015024D01*
X017613Y014890D01*
X017546Y014697D02*
X017480Y014630D01*
X017480Y014430D01*
X017880Y014430D01*
X017880Y014630D01*
X017813Y014697D01*
X017546Y014697D01*
X018109Y015086D02*
X018286Y015086D01*
X018109Y015086D02*
X018109Y013274D01*
X018286Y013274D01*
X019074Y013274D02*
X019251Y013274D01*
X019251Y015086D01*
X019074Y015086D01*
X019852Y015054D02*
X020088Y015054D01*
X020870Y015170D02*
X020870Y014837D01*
X020937Y014770D01*
X021070Y014770D01*
X021137Y014837D01*
X021137Y015170D01*
X021330Y015037D02*
X021464Y015170D01*
X021464Y014770D01*
X021597Y014770D02*
X021330Y014770D01*
X020276Y014289D02*
X020064Y014289D01*
X019610Y014139D02*
X019610Y013801D01*
X020730Y013801D02*
X020730Y014139D01*
X019074Y014574D02*
X018286Y014574D01*
X016960Y015080D02*
X016960Y013660D01*
X019852Y015526D02*
X020088Y015526D01*
X020180Y015665D02*
X020447Y015665D01*
X020314Y015665D02*
X020314Y016065D01*
X020180Y015932D01*
X019987Y015999D02*
X019987Y015865D01*
X019920Y015798D01*
X019720Y015798D01*
X019720Y015665D02*
X019720Y016065D01*
X019920Y016065D01*
X019987Y015999D01*
X019853Y015798D02*
X019987Y015665D01*
X023549Y013750D02*
X023549Y013417D01*
X023616Y013350D01*
X023749Y013350D01*
X023816Y013417D01*
X023816Y013750D01*
X024010Y013684D02*
X024076Y013750D01*
X024210Y013750D01*
X024277Y013684D01*
X024277Y013617D01*
X024210Y013550D01*
X024277Y013483D01*
X024277Y013417D01*
X024210Y013350D01*
X024076Y013350D01*
X024010Y013417D01*
X024143Y013550D02*
X024210Y013550D01*
X024981Y013250D02*
X025319Y013250D01*
X024831Y012796D02*
X024831Y012584D01*
X024006Y012572D02*
X024006Y012808D01*
X023534Y012808D02*
X023534Y012572D01*
X023195Y012840D02*
X022795Y012840D01*
X022795Y013040D01*
X022861Y013107D01*
X022995Y013107D01*
X023062Y013040D01*
X023062Y012840D01*
X023062Y012973D02*
X023195Y013107D01*
X023128Y013300D02*
X023195Y013367D01*
X023195Y013501D01*
X023128Y013567D01*
X023062Y013567D01*
X022995Y013501D01*
X022995Y013434D01*
X022995Y013501D02*
X022928Y013567D01*
X022861Y013567D01*
X022795Y013501D01*
X022795Y013367D01*
X022861Y013300D01*
X021356Y012790D02*
X021356Y012523D01*
X021356Y012657D02*
X020956Y012657D01*
X021089Y012523D01*
X021356Y012330D02*
X021356Y012063D01*
X020956Y012063D01*
X023614Y011801D02*
X023614Y011624D01*
X023614Y011801D02*
X025426Y011801D01*
X025426Y011624D01*
X025319Y012130D02*
X024981Y012130D01*
X024126Y011624D02*
X024126Y010836D01*
X023614Y010836D02*
X023614Y010659D01*
X025426Y010659D01*
X025426Y010836D01*
X024977Y010364D02*
X024910Y010430D01*
X024776Y010430D01*
X024710Y010364D01*
X024843Y010230D02*
X024910Y010230D01*
X024977Y010163D01*
X024977Y010097D01*
X024910Y010030D01*
X024776Y010030D01*
X024710Y010097D01*
X024516Y010097D02*
X024449Y010030D01*
X024249Y010030D01*
X024249Y010430D01*
X024449Y010430D01*
X024516Y010364D01*
X024516Y010097D01*
X024910Y010230D02*
X024977Y010297D01*
X024977Y010364D01*
X026226Y010336D02*
X026493Y010336D01*
X026687Y010403D02*
X026753Y010336D01*
X026887Y010336D01*
X026954Y010403D01*
X026954Y010469D01*
X026887Y010536D01*
X026820Y010536D01*
X026887Y010536D02*
X026954Y010603D01*
X026954Y010670D01*
X026887Y010736D01*
X026753Y010736D01*
X026687Y010670D01*
X026226Y010736D02*
X026226Y010336D01*
X027300Y008660D02*
X027300Y007160D01*
X025300Y007910D02*
X025302Y007973D01*
X025308Y008035D01*
X025318Y008097D01*
X025331Y008159D01*
X025349Y008219D01*
X025370Y008278D01*
X025395Y008336D01*
X025424Y008392D01*
X025456Y008446D01*
X025491Y008498D01*
X025529Y008547D01*
X025571Y008595D01*
X025615Y008639D01*
X025663Y008681D01*
X025712Y008719D01*
X025764Y008754D01*
X025818Y008786D01*
X025874Y008815D01*
X025932Y008840D01*
X025991Y008861D01*
X026051Y008879D01*
X026113Y008892D01*
X026175Y008902D01*
X026237Y008908D01*
X026300Y008910D01*
X026363Y008908D01*
X026425Y008902D01*
X026487Y008892D01*
X026549Y008879D01*
X026609Y008861D01*
X026668Y008840D01*
X026726Y008815D01*
X026782Y008786D01*
X026836Y008754D01*
X026888Y008719D01*
X026937Y008681D01*
X026985Y008639D01*
X027029Y008595D01*
X027071Y008547D01*
X027109Y008498D01*
X027144Y008446D01*
X027176Y008392D01*
X027205Y008336D01*
X027230Y008278D01*
X027251Y008219D01*
X027269Y008159D01*
X027282Y008097D01*
X027292Y008035D01*
X027298Y007973D01*
X027300Y007910D01*
X027298Y007847D01*
X027292Y007785D01*
X027282Y007723D01*
X027269Y007661D01*
X027251Y007601D01*
X027230Y007542D01*
X027205Y007484D01*
X027176Y007428D01*
X027144Y007374D01*
X027109Y007322D01*
X027071Y007273D01*
X027029Y007225D01*
X026985Y007181D01*
X026937Y007139D01*
X026888Y007101D01*
X026836Y007066D01*
X026782Y007034D01*
X026726Y007005D01*
X026668Y006980D01*
X026609Y006959D01*
X026549Y006941D01*
X026487Y006928D01*
X026425Y006918D01*
X026363Y006912D01*
X026300Y006910D01*
X026237Y006912D01*
X026175Y006918D01*
X026113Y006928D01*
X026051Y006941D01*
X025991Y006959D01*
X025932Y006980D01*
X025874Y007005D01*
X025818Y007034D01*
X025764Y007066D01*
X025712Y007101D01*
X025663Y007139D01*
X025615Y007181D01*
X025571Y007225D01*
X025529Y007273D01*
X025491Y007322D01*
X025456Y007374D01*
X025424Y007428D01*
X025395Y007484D01*
X025370Y007542D01*
X025349Y007601D01*
X025331Y007661D01*
X025318Y007723D01*
X025308Y007785D01*
X025302Y007847D01*
X025300Y007910D01*
X027300Y008660D02*
X027257Y008714D01*
X027211Y008766D01*
X027162Y008815D01*
X027110Y008862D01*
X027056Y008905D01*
X027000Y008946D01*
X026941Y008983D01*
X026881Y009017D01*
X026818Y009047D01*
X026755Y009074D01*
X026689Y009098D01*
X026623Y009118D01*
X026555Y009134D01*
X026487Y009146D01*
X026418Y009154D01*
X026349Y009159D01*
X026279Y009160D01*
X026210Y009157D01*
X026141Y009150D01*
X026073Y009139D01*
X026005Y009125D01*
X025938Y009106D01*
X025872Y009084D01*
X025807Y009059D01*
X025744Y009030D01*
X025683Y008997D01*
X025624Y008961D01*
X025567Y008922D01*
X025511Y008880D01*
X025459Y008835D01*
X025409Y008787D01*
X025362Y008736D01*
X025317Y008682D01*
X025276Y008627D01*
X025238Y008569D01*
X025203Y008509D01*
X025171Y008447D01*
X025143Y008384D01*
X025119Y008319D01*
X025098Y008253D01*
X025081Y008185D01*
X025067Y008117D01*
X025058Y008048D01*
X025052Y007979D01*
X025050Y007910D01*
X025052Y007841D01*
X025058Y007772D01*
X025067Y007703D01*
X025081Y007635D01*
X025098Y007567D01*
X025119Y007501D01*
X025143Y007436D01*
X025171Y007373D01*
X025203Y007311D01*
X025238Y007251D01*
X025276Y007193D01*
X025317Y007138D01*
X025362Y007084D01*
X025409Y007033D01*
X025459Y006985D01*
X025511Y006940D01*
X025567Y006898D01*
X025624Y006859D01*
X025683Y006823D01*
X025744Y006790D01*
X025807Y006761D01*
X025872Y006736D01*
X025938Y006714D01*
X026005Y006695D01*
X026073Y006681D01*
X026141Y006670D01*
X026210Y006663D01*
X026279Y006660D01*
X026349Y006661D01*
X026418Y006666D01*
X026487Y006674D01*
X026555Y006686D01*
X026623Y006702D01*
X026689Y006722D01*
X026755Y006746D01*
X026818Y006773D01*
X026881Y006803D01*
X026941Y006837D01*
X027000Y006874D01*
X027056Y006915D01*
X027110Y006958D01*
X027162Y007005D01*
X027211Y007054D01*
X027257Y007106D01*
X027300Y007160D01*
X030140Y007190D02*
X030097Y007136D01*
X030051Y007084D01*
X030002Y007035D01*
X029950Y006988D01*
X029896Y006945D01*
X029840Y006904D01*
X029781Y006867D01*
X029721Y006833D01*
X029658Y006803D01*
X029595Y006776D01*
X029529Y006752D01*
X029463Y006732D01*
X029395Y006716D01*
X029327Y006704D01*
X029258Y006696D01*
X029189Y006691D01*
X029119Y006690D01*
X029050Y006693D01*
X028981Y006700D01*
X028913Y006711D01*
X028845Y006725D01*
X028778Y006744D01*
X028712Y006766D01*
X028647Y006791D01*
X028584Y006820D01*
X028523Y006853D01*
X028464Y006889D01*
X028407Y006928D01*
X028351Y006970D01*
X028299Y007015D01*
X028249Y007063D01*
X028202Y007114D01*
X028157Y007168D01*
X028116Y007223D01*
X028078Y007281D01*
X028043Y007341D01*
X028011Y007403D01*
X027983Y007466D01*
X027959Y007531D01*
X027938Y007597D01*
X027921Y007665D01*
X027907Y007733D01*
X027898Y007802D01*
X027892Y007871D01*
X027890Y007940D01*
X027892Y008009D01*
X027898Y008078D01*
X027907Y008147D01*
X027921Y008215D01*
X027938Y008283D01*
X027959Y008349D01*
X027983Y008414D01*
X028011Y008477D01*
X028043Y008539D01*
X028078Y008599D01*
X028116Y008657D01*
X028157Y008712D01*
X028202Y008766D01*
X028249Y008817D01*
X028299Y008865D01*
X028351Y008910D01*
X028407Y008952D01*
X028464Y008991D01*
X028523Y009027D01*
X028584Y009060D01*
X028647Y009089D01*
X028712Y009114D01*
X028778Y009136D01*
X028845Y009155D01*
X028913Y009169D01*
X028981Y009180D01*
X029050Y009187D01*
X029119Y009190D01*
X029189Y009189D01*
X029258Y009184D01*
X029327Y009176D01*
X029395Y009164D01*
X029463Y009148D01*
X029529Y009128D01*
X029595Y009104D01*
X029658Y009077D01*
X029721Y009047D01*
X029781Y009013D01*
X029840Y008976D01*
X029896Y008935D01*
X029950Y008892D01*
X030002Y008845D01*
X030051Y008796D01*
X030097Y008744D01*
X030140Y008690D01*
X030140Y007190D01*
X028140Y007940D02*
X028142Y008003D01*
X028148Y008065D01*
X028158Y008127D01*
X028171Y008189D01*
X028189Y008249D01*
X028210Y008308D01*
X028235Y008366D01*
X028264Y008422D01*
X028296Y008476D01*
X028331Y008528D01*
X028369Y008577D01*
X028411Y008625D01*
X028455Y008669D01*
X028503Y008711D01*
X028552Y008749D01*
X028604Y008784D01*
X028658Y008816D01*
X028714Y008845D01*
X028772Y008870D01*
X028831Y008891D01*
X028891Y008909D01*
X028953Y008922D01*
X029015Y008932D01*
X029077Y008938D01*
X029140Y008940D01*
X029203Y008938D01*
X029265Y008932D01*
X029327Y008922D01*
X029389Y008909D01*
X029449Y008891D01*
X029508Y008870D01*
X029566Y008845D01*
X029622Y008816D01*
X029676Y008784D01*
X029728Y008749D01*
X029777Y008711D01*
X029825Y008669D01*
X029869Y008625D01*
X029911Y008577D01*
X029949Y008528D01*
X029984Y008476D01*
X030016Y008422D01*
X030045Y008366D01*
X030070Y008308D01*
X030091Y008249D01*
X030109Y008189D01*
X030122Y008127D01*
X030132Y008065D01*
X030138Y008003D01*
X030140Y007940D01*
X030138Y007877D01*
X030132Y007815D01*
X030122Y007753D01*
X030109Y007691D01*
X030091Y007631D01*
X030070Y007572D01*
X030045Y007514D01*
X030016Y007458D01*
X029984Y007404D01*
X029949Y007352D01*
X029911Y007303D01*
X029869Y007255D01*
X029825Y007211D01*
X029777Y007169D01*
X029728Y007131D01*
X029676Y007096D01*
X029622Y007064D01*
X029566Y007035D01*
X029508Y007010D01*
X029449Y006989D01*
X029389Y006971D01*
X029327Y006958D01*
X029265Y006948D01*
X029203Y006942D01*
X029140Y006940D01*
X029077Y006942D01*
X029015Y006948D01*
X028953Y006958D01*
X028891Y006971D01*
X028831Y006989D01*
X028772Y007010D01*
X028714Y007035D01*
X028658Y007064D01*
X028604Y007096D01*
X028552Y007131D01*
X028503Y007169D01*
X028455Y007211D01*
X028411Y007255D01*
X028369Y007303D01*
X028331Y007352D01*
X028296Y007404D01*
X028264Y007458D01*
X028235Y007514D01*
X028210Y007572D01*
X028189Y007631D01*
X028171Y007691D01*
X028158Y007753D01*
X028148Y007815D01*
X028142Y007877D01*
X028140Y007940D01*
X024240Y008660D02*
X024240Y007160D01*
X022240Y007910D02*
X022242Y007973D01*
X022248Y008035D01*
X022258Y008097D01*
X022271Y008159D01*
X022289Y008219D01*
X022310Y008278D01*
X022335Y008336D01*
X022364Y008392D01*
X022396Y008446D01*
X022431Y008498D01*
X022469Y008547D01*
X022511Y008595D01*
X022555Y008639D01*
X022603Y008681D01*
X022652Y008719D01*
X022704Y008754D01*
X022758Y008786D01*
X022814Y008815D01*
X022872Y008840D01*
X022931Y008861D01*
X022991Y008879D01*
X023053Y008892D01*
X023115Y008902D01*
X023177Y008908D01*
X023240Y008910D01*
X023303Y008908D01*
X023365Y008902D01*
X023427Y008892D01*
X023489Y008879D01*
X023549Y008861D01*
X023608Y008840D01*
X023666Y008815D01*
X023722Y008786D01*
X023776Y008754D01*
X023828Y008719D01*
X023877Y008681D01*
X023925Y008639D01*
X023969Y008595D01*
X024011Y008547D01*
X024049Y008498D01*
X024084Y008446D01*
X024116Y008392D01*
X024145Y008336D01*
X024170Y008278D01*
X024191Y008219D01*
X024209Y008159D01*
X024222Y008097D01*
X024232Y008035D01*
X024238Y007973D01*
X024240Y007910D01*
X024238Y007847D01*
X024232Y007785D01*
X024222Y007723D01*
X024209Y007661D01*
X024191Y007601D01*
X024170Y007542D01*
X024145Y007484D01*
X024116Y007428D01*
X024084Y007374D01*
X024049Y007322D01*
X024011Y007273D01*
X023969Y007225D01*
X023925Y007181D01*
X023877Y007139D01*
X023828Y007101D01*
X023776Y007066D01*
X023722Y007034D01*
X023666Y007005D01*
X023608Y006980D01*
X023549Y006959D01*
X023489Y006941D01*
X023427Y006928D01*
X023365Y006918D01*
X023303Y006912D01*
X023240Y006910D01*
X023177Y006912D01*
X023115Y006918D01*
X023053Y006928D01*
X022991Y006941D01*
X022931Y006959D01*
X022872Y006980D01*
X022814Y007005D01*
X022758Y007034D01*
X022704Y007066D01*
X022652Y007101D01*
X022603Y007139D01*
X022555Y007181D01*
X022511Y007225D01*
X022469Y007273D01*
X022431Y007322D01*
X022396Y007374D01*
X022364Y007428D01*
X022335Y007484D01*
X022310Y007542D01*
X022289Y007601D01*
X022271Y007661D01*
X022258Y007723D01*
X022248Y007785D01*
X022242Y007847D01*
X022240Y007910D01*
X024240Y008660D02*
X024197Y008714D01*
X024151Y008766D01*
X024102Y008815D01*
X024050Y008862D01*
X023996Y008905D01*
X023940Y008946D01*
X023881Y008983D01*
X023821Y009017D01*
X023758Y009047D01*
X023695Y009074D01*
X023629Y009098D01*
X023563Y009118D01*
X023495Y009134D01*
X023427Y009146D01*
X023358Y009154D01*
X023289Y009159D01*
X023219Y009160D01*
X023150Y009157D01*
X023081Y009150D01*
X023013Y009139D01*
X022945Y009125D01*
X022878Y009106D01*
X022812Y009084D01*
X022747Y009059D01*
X022684Y009030D01*
X022623Y008997D01*
X022564Y008961D01*
X022507Y008922D01*
X022451Y008880D01*
X022399Y008835D01*
X022349Y008787D01*
X022302Y008736D01*
X022257Y008682D01*
X022216Y008627D01*
X022178Y008569D01*
X022143Y008509D01*
X022111Y008447D01*
X022083Y008384D01*
X022059Y008319D01*
X022038Y008253D01*
X022021Y008185D01*
X022007Y008117D01*
X021998Y008048D01*
X021992Y007979D01*
X021990Y007910D01*
X021992Y007841D01*
X021998Y007772D01*
X022007Y007703D01*
X022021Y007635D01*
X022038Y007567D01*
X022059Y007501D01*
X022083Y007436D01*
X022111Y007373D01*
X022143Y007311D01*
X022178Y007251D01*
X022216Y007193D01*
X022257Y007138D01*
X022302Y007084D01*
X022349Y007033D01*
X022399Y006985D01*
X022451Y006940D01*
X022507Y006898D01*
X022564Y006859D01*
X022623Y006823D01*
X022684Y006790D01*
X022747Y006761D01*
X022812Y006736D01*
X022878Y006714D01*
X022945Y006695D01*
X023013Y006681D01*
X023081Y006670D01*
X023150Y006663D01*
X023219Y006660D01*
X023289Y006661D01*
X023358Y006666D01*
X023427Y006674D01*
X023495Y006686D01*
X023563Y006702D01*
X023629Y006722D01*
X023695Y006746D01*
X023758Y006773D01*
X023821Y006803D01*
X023881Y006837D01*
X023940Y006874D01*
X023996Y006915D01*
X024050Y006958D01*
X024102Y007005D01*
X024151Y007054D01*
X024197Y007106D01*
X024240Y007160D01*
X021300Y007150D02*
X021300Y008650D01*
X019300Y007900D02*
X019302Y007963D01*
X019308Y008025D01*
X019318Y008087D01*
X019331Y008149D01*
X019349Y008209D01*
X019370Y008268D01*
X019395Y008326D01*
X019424Y008382D01*
X019456Y008436D01*
X019491Y008488D01*
X019529Y008537D01*
X019571Y008585D01*
X019615Y008629D01*
X019663Y008671D01*
X019712Y008709D01*
X019764Y008744D01*
X019818Y008776D01*
X019874Y008805D01*
X019932Y008830D01*
X019991Y008851D01*
X020051Y008869D01*
X020113Y008882D01*
X020175Y008892D01*
X020237Y008898D01*
X020300Y008900D01*
X020363Y008898D01*
X020425Y008892D01*
X020487Y008882D01*
X020549Y008869D01*
X020609Y008851D01*
X020668Y008830D01*
X020726Y008805D01*
X020782Y008776D01*
X020836Y008744D01*
X020888Y008709D01*
X020937Y008671D01*
X020985Y008629D01*
X021029Y008585D01*
X021071Y008537D01*
X021109Y008488D01*
X021144Y008436D01*
X021176Y008382D01*
X021205Y008326D01*
X021230Y008268D01*
X021251Y008209D01*
X021269Y008149D01*
X021282Y008087D01*
X021292Y008025D01*
X021298Y007963D01*
X021300Y007900D01*
X021298Y007837D01*
X021292Y007775D01*
X021282Y007713D01*
X021269Y007651D01*
X021251Y007591D01*
X021230Y007532D01*
X021205Y007474D01*
X021176Y007418D01*
X021144Y007364D01*
X021109Y007312D01*
X021071Y007263D01*
X021029Y007215D01*
X020985Y007171D01*
X020937Y007129D01*
X020888Y007091D01*
X020836Y007056D01*
X020782Y007024D01*
X020726Y006995D01*
X020668Y006970D01*
X020609Y006949D01*
X020549Y006931D01*
X020487Y006918D01*
X020425Y006908D01*
X020363Y006902D01*
X020300Y006900D01*
X020237Y006902D01*
X020175Y006908D01*
X020113Y006918D01*
X020051Y006931D01*
X019991Y006949D01*
X019932Y006970D01*
X019874Y006995D01*
X019818Y007024D01*
X019764Y007056D01*
X019712Y007091D01*
X019663Y007129D01*
X019615Y007171D01*
X019571Y007215D01*
X019529Y007263D01*
X019491Y007312D01*
X019456Y007364D01*
X019424Y007418D01*
X019395Y007474D01*
X019370Y007532D01*
X019349Y007591D01*
X019331Y007651D01*
X019318Y007713D01*
X019308Y007775D01*
X019302Y007837D01*
X019300Y007900D01*
X021300Y008650D02*
X021257Y008704D01*
X021211Y008756D01*
X021162Y008805D01*
X021110Y008852D01*
X021056Y008895D01*
X021000Y008936D01*
X020941Y008973D01*
X020881Y009007D01*
X020818Y009037D01*
X020755Y009064D01*
X020689Y009088D01*
X020623Y009108D01*
X020555Y009124D01*
X020487Y009136D01*
X020418Y009144D01*
X020349Y009149D01*
X020279Y009150D01*
X020210Y009147D01*
X020141Y009140D01*
X020073Y009129D01*
X020005Y009115D01*
X019938Y009096D01*
X019872Y009074D01*
X019807Y009049D01*
X019744Y009020D01*
X019683Y008987D01*
X019624Y008951D01*
X019567Y008912D01*
X019511Y008870D01*
X019459Y008825D01*
X019409Y008777D01*
X019362Y008726D01*
X019317Y008672D01*
X019276Y008617D01*
X019238Y008559D01*
X019203Y008499D01*
X019171Y008437D01*
X019143Y008374D01*
X019119Y008309D01*
X019098Y008243D01*
X019081Y008175D01*
X019067Y008107D01*
X019058Y008038D01*
X019052Y007969D01*
X019050Y007900D01*
X019052Y007831D01*
X019058Y007762D01*
X019067Y007693D01*
X019081Y007625D01*
X019098Y007557D01*
X019119Y007491D01*
X019143Y007426D01*
X019171Y007363D01*
X019203Y007301D01*
X019238Y007241D01*
X019276Y007183D01*
X019317Y007128D01*
X019362Y007074D01*
X019409Y007023D01*
X019459Y006975D01*
X019511Y006930D01*
X019567Y006888D01*
X019624Y006849D01*
X019683Y006813D01*
X019744Y006780D01*
X019807Y006751D01*
X019872Y006726D01*
X019938Y006704D01*
X020005Y006685D01*
X020073Y006671D01*
X020141Y006660D01*
X020210Y006653D01*
X020279Y006650D01*
X020349Y006651D01*
X020418Y006656D01*
X020487Y006664D01*
X020555Y006676D01*
X020623Y006692D01*
X020689Y006712D01*
X020755Y006736D01*
X020818Y006763D01*
X020881Y006793D01*
X020941Y006827D01*
X021000Y006864D01*
X021056Y006905D01*
X021110Y006948D01*
X021162Y006995D01*
X021211Y007044D01*
X021257Y007096D01*
X021300Y007150D01*
X022060Y005830D02*
X022060Y004330D01*
X022060Y005080D02*
X022062Y005143D01*
X022068Y005205D01*
X022078Y005267D01*
X022091Y005329D01*
X022109Y005389D01*
X022130Y005448D01*
X022155Y005506D01*
X022184Y005562D01*
X022216Y005616D01*
X022251Y005668D01*
X022289Y005717D01*
X022331Y005765D01*
X022375Y005809D01*
X022423Y005851D01*
X022472Y005889D01*
X022524Y005924D01*
X022578Y005956D01*
X022634Y005985D01*
X022692Y006010D01*
X022751Y006031D01*
X022811Y006049D01*
X022873Y006062D01*
X022935Y006072D01*
X022997Y006078D01*
X023060Y006080D01*
X023123Y006078D01*
X023185Y006072D01*
X023247Y006062D01*
X023309Y006049D01*
X023369Y006031D01*
X023428Y006010D01*
X023486Y005985D01*
X023542Y005956D01*
X023596Y005924D01*
X023648Y005889D01*
X023697Y005851D01*
X023745Y005809D01*
X023789Y005765D01*
X023831Y005717D01*
X023869Y005668D01*
X023904Y005616D01*
X023936Y005562D01*
X023965Y005506D01*
X023990Y005448D01*
X024011Y005389D01*
X024029Y005329D01*
X024042Y005267D01*
X024052Y005205D01*
X024058Y005143D01*
X024060Y005080D01*
X024058Y005017D01*
X024052Y004955D01*
X024042Y004893D01*
X024029Y004831D01*
X024011Y004771D01*
X023990Y004712D01*
X023965Y004654D01*
X023936Y004598D01*
X023904Y004544D01*
X023869Y004492D01*
X023831Y004443D01*
X023789Y004395D01*
X023745Y004351D01*
X023697Y004309D01*
X023648Y004271D01*
X023596Y004236D01*
X023542Y004204D01*
X023486Y004175D01*
X023428Y004150D01*
X023369Y004129D01*
X023309Y004111D01*
X023247Y004098D01*
X023185Y004088D01*
X023123Y004082D01*
X023060Y004080D01*
X022997Y004082D01*
X022935Y004088D01*
X022873Y004098D01*
X022811Y004111D01*
X022751Y004129D01*
X022692Y004150D01*
X022634Y004175D01*
X022578Y004204D01*
X022524Y004236D01*
X022472Y004271D01*
X022423Y004309D01*
X022375Y004351D01*
X022331Y004395D01*
X022289Y004443D01*
X022251Y004492D01*
X022216Y004544D01*
X022184Y004598D01*
X022155Y004654D01*
X022130Y004712D01*
X022109Y004771D01*
X022091Y004831D01*
X022078Y004893D01*
X022068Y004955D01*
X022062Y005017D01*
X022060Y005080D01*
X022060Y004330D02*
X022103Y004276D01*
X022149Y004224D01*
X022198Y004175D01*
X022250Y004128D01*
X022304Y004085D01*
X022360Y004044D01*
X022419Y004007D01*
X022479Y003973D01*
X022542Y003943D01*
X022605Y003916D01*
X022671Y003892D01*
X022737Y003872D01*
X022805Y003856D01*
X022873Y003844D01*
X022942Y003836D01*
X023011Y003831D01*
X023081Y003830D01*
X023150Y003833D01*
X023219Y003840D01*
X023287Y003851D01*
X023355Y003865D01*
X023422Y003884D01*
X023488Y003906D01*
X023553Y003931D01*
X023616Y003960D01*
X023677Y003993D01*
X023736Y004029D01*
X023793Y004068D01*
X023849Y004110D01*
X023901Y004155D01*
X023951Y004203D01*
X023998Y004254D01*
X024043Y004308D01*
X024084Y004363D01*
X024122Y004421D01*
X024157Y004481D01*
X024189Y004543D01*
X024217Y004606D01*
X024241Y004671D01*
X024262Y004737D01*
X024279Y004805D01*
X024293Y004873D01*
X024302Y004942D01*
X024308Y005011D01*
X024310Y005080D01*
X024308Y005149D01*
X024302Y005218D01*
X024293Y005287D01*
X024279Y005355D01*
X024262Y005423D01*
X024241Y005489D01*
X024217Y005554D01*
X024189Y005617D01*
X024157Y005679D01*
X024122Y005739D01*
X024084Y005797D01*
X024043Y005852D01*
X023998Y005906D01*
X023951Y005957D01*
X023901Y006005D01*
X023849Y006050D01*
X023793Y006092D01*
X023736Y006131D01*
X023677Y006167D01*
X023616Y006200D01*
X023553Y006229D01*
X023488Y006254D01*
X023422Y006276D01*
X023355Y006295D01*
X023287Y006309D01*
X023219Y006320D01*
X023150Y006327D01*
X023081Y006330D01*
X023011Y006329D01*
X022942Y006324D01*
X022873Y006316D01*
X022805Y006304D01*
X022737Y006288D01*
X022671Y006268D01*
X022605Y006244D01*
X022542Y006217D01*
X022479Y006187D01*
X022419Y006153D01*
X022360Y006116D01*
X022304Y006075D01*
X022250Y006032D01*
X022198Y005985D01*
X022149Y005936D01*
X022103Y005884D01*
X022060Y005830D01*
X019310Y005080D02*
X019312Y005143D01*
X019318Y005205D01*
X019328Y005267D01*
X019341Y005329D01*
X019359Y005389D01*
X019380Y005448D01*
X019405Y005506D01*
X019434Y005562D01*
X019466Y005616D01*
X019501Y005668D01*
X019539Y005717D01*
X019581Y005765D01*
X019625Y005809D01*
X019673Y005851D01*
X019722Y005889D01*
X019774Y005924D01*
X019828Y005956D01*
X019884Y005985D01*
X019942Y006010D01*
X020001Y006031D01*
X020061Y006049D01*
X020123Y006062D01*
X020185Y006072D01*
X020247Y006078D01*
X020310Y006080D01*
X020373Y006078D01*
X020435Y006072D01*
X020497Y006062D01*
X020559Y006049D01*
X020619Y006031D01*
X020678Y006010D01*
X020736Y005985D01*
X020792Y005956D01*
X020846Y005924D01*
X020898Y005889D01*
X020947Y005851D01*
X020995Y005809D01*
X021039Y005765D01*
X021081Y005717D01*
X021119Y005668D01*
X021154Y005616D01*
X021186Y005562D01*
X021215Y005506D01*
X021240Y005448D01*
X021261Y005389D01*
X021279Y005329D01*
X021292Y005267D01*
X021302Y005205D01*
X021308Y005143D01*
X021310Y005080D01*
X021308Y005017D01*
X021302Y004955D01*
X021292Y004893D01*
X021279Y004831D01*
X021261Y004771D01*
X021240Y004712D01*
X021215Y004654D01*
X021186Y004598D01*
X021154Y004544D01*
X021119Y004492D01*
X021081Y004443D01*
X021039Y004395D01*
X020995Y004351D01*
X020947Y004309D01*
X020898Y004271D01*
X020846Y004236D01*
X020792Y004204D01*
X020736Y004175D01*
X020678Y004150D01*
X020619Y004129D01*
X020559Y004111D01*
X020497Y004098D01*
X020435Y004088D01*
X020373Y004082D01*
X020310Y004080D01*
X020247Y004082D01*
X020185Y004088D01*
X020123Y004098D01*
X020061Y004111D01*
X020001Y004129D01*
X019942Y004150D01*
X019884Y004175D01*
X019828Y004204D01*
X019774Y004236D01*
X019722Y004271D01*
X019673Y004309D01*
X019625Y004351D01*
X019581Y004395D01*
X019539Y004443D01*
X019501Y004492D01*
X019466Y004544D01*
X019434Y004598D01*
X019405Y004654D01*
X019380Y004712D01*
X019359Y004771D01*
X019341Y004831D01*
X019328Y004893D01*
X019318Y004955D01*
X019312Y005017D01*
X019310Y005080D01*
X019310Y004330D02*
X019353Y004276D01*
X019399Y004224D01*
X019448Y004175D01*
X019500Y004128D01*
X019554Y004085D01*
X019610Y004044D01*
X019669Y004007D01*
X019729Y003973D01*
X019792Y003943D01*
X019855Y003916D01*
X019921Y003892D01*
X019987Y003872D01*
X020055Y003856D01*
X020123Y003844D01*
X020192Y003836D01*
X020261Y003831D01*
X020331Y003830D01*
X020400Y003833D01*
X020469Y003840D01*
X020537Y003851D01*
X020605Y003865D01*
X020672Y003884D01*
X020738Y003906D01*
X020803Y003931D01*
X020866Y003960D01*
X020927Y003993D01*
X020986Y004029D01*
X021043Y004068D01*
X021099Y004110D01*
X021151Y004155D01*
X021201Y004203D01*
X021248Y004254D01*
X021293Y004308D01*
X021334Y004363D01*
X021372Y004421D01*
X021407Y004481D01*
X021439Y004543D01*
X021467Y004606D01*
X021491Y004671D01*
X021512Y004737D01*
X021529Y004805D01*
X021543Y004873D01*
X021552Y004942D01*
X021558Y005011D01*
X021560Y005080D01*
X021558Y005149D01*
X021552Y005218D01*
X021543Y005287D01*
X021529Y005355D01*
X021512Y005423D01*
X021491Y005489D01*
X021467Y005554D01*
X021439Y005617D01*
X021407Y005679D01*
X021372Y005739D01*
X021334Y005797D01*
X021293Y005852D01*
X021248Y005906D01*
X021201Y005957D01*
X021151Y006005D01*
X021099Y006050D01*
X021043Y006092D01*
X020986Y006131D01*
X020927Y006167D01*
X020866Y006200D01*
X020803Y006229D01*
X020738Y006254D01*
X020672Y006276D01*
X020605Y006295D01*
X020537Y006309D01*
X020469Y006320D01*
X020400Y006327D01*
X020331Y006330D01*
X020261Y006329D01*
X020192Y006324D01*
X020123Y006316D01*
X020055Y006304D01*
X019987Y006288D01*
X019921Y006268D01*
X019855Y006244D01*
X019792Y006217D01*
X019729Y006187D01*
X019669Y006153D01*
X019610Y006116D01*
X019554Y006075D01*
X019500Y006032D01*
X019448Y005985D01*
X019399Y005936D01*
X019353Y005884D01*
X019310Y005830D01*
X019310Y004330D01*
X016090Y005010D02*
X016092Y005073D01*
X016098Y005135D01*
X016108Y005197D01*
X016121Y005259D01*
X016139Y005319D01*
X016160Y005378D01*
X016185Y005436D01*
X016214Y005492D01*
X016246Y005546D01*
X016281Y005598D01*
X016319Y005647D01*
X016361Y005695D01*
X016405Y005739D01*
X016453Y005781D01*
X016502Y005819D01*
X016554Y005854D01*
X016608Y005886D01*
X016664Y005915D01*
X016722Y005940D01*
X016781Y005961D01*
X016841Y005979D01*
X016903Y005992D01*
X016965Y006002D01*
X017027Y006008D01*
X017090Y006010D01*
X017153Y006008D01*
X017215Y006002D01*
X017277Y005992D01*
X017339Y005979D01*
X017399Y005961D01*
X017458Y005940D01*
X017516Y005915D01*
X017572Y005886D01*
X017626Y005854D01*
X017678Y005819D01*
X017727Y005781D01*
X017775Y005739D01*
X017819Y005695D01*
X017861Y005647D01*
X017899Y005598D01*
X017934Y005546D01*
X017966Y005492D01*
X017995Y005436D01*
X018020Y005378D01*
X018041Y005319D01*
X018059Y005259D01*
X018072Y005197D01*
X018082Y005135D01*
X018088Y005073D01*
X018090Y005010D01*
X018088Y004947D01*
X018082Y004885D01*
X018072Y004823D01*
X018059Y004761D01*
X018041Y004701D01*
X018020Y004642D01*
X017995Y004584D01*
X017966Y004528D01*
X017934Y004474D01*
X017899Y004422D01*
X017861Y004373D01*
X017819Y004325D01*
X017775Y004281D01*
X017727Y004239D01*
X017678Y004201D01*
X017626Y004166D01*
X017572Y004134D01*
X017516Y004105D01*
X017458Y004080D01*
X017399Y004059D01*
X017339Y004041D01*
X017277Y004028D01*
X017215Y004018D01*
X017153Y004012D01*
X017090Y004010D01*
X017027Y004012D01*
X016965Y004018D01*
X016903Y004028D01*
X016841Y004041D01*
X016781Y004059D01*
X016722Y004080D01*
X016664Y004105D01*
X016608Y004134D01*
X016554Y004166D01*
X016502Y004201D01*
X016453Y004239D01*
X016405Y004281D01*
X016361Y004325D01*
X016319Y004373D01*
X016281Y004422D01*
X016246Y004474D01*
X016214Y004528D01*
X016185Y004584D01*
X016160Y004642D01*
X016139Y004701D01*
X016121Y004761D01*
X016108Y004823D01*
X016098Y004885D01*
X016092Y004947D01*
X016090Y005010D01*
X016090Y004260D02*
X016133Y004206D01*
X016179Y004154D01*
X016228Y004105D01*
X016280Y004058D01*
X016334Y004015D01*
X016390Y003974D01*
X016449Y003937D01*
X016509Y003903D01*
X016572Y003873D01*
X016635Y003846D01*
X016701Y003822D01*
X016767Y003802D01*
X016835Y003786D01*
X016903Y003774D01*
X016972Y003766D01*
X017041Y003761D01*
X017111Y003760D01*
X017180Y003763D01*
X017249Y003770D01*
X017317Y003781D01*
X017385Y003795D01*
X017452Y003814D01*
X017518Y003836D01*
X017583Y003861D01*
X017646Y003890D01*
X017707Y003923D01*
X017766Y003959D01*
X017823Y003998D01*
X017879Y004040D01*
X017931Y004085D01*
X017981Y004133D01*
X018028Y004184D01*
X018073Y004238D01*
X018114Y004293D01*
X018152Y004351D01*
X018187Y004411D01*
X018219Y004473D01*
X018247Y004536D01*
X018271Y004601D01*
X018292Y004667D01*
X018309Y004735D01*
X018323Y004803D01*
X018332Y004872D01*
X018338Y004941D01*
X018340Y005010D01*
X018338Y005079D01*
X018332Y005148D01*
X018323Y005217D01*
X018309Y005285D01*
X018292Y005353D01*
X018271Y005419D01*
X018247Y005484D01*
X018219Y005547D01*
X018187Y005609D01*
X018152Y005669D01*
X018114Y005727D01*
X018073Y005782D01*
X018028Y005836D01*
X017981Y005887D01*
X017931Y005935D01*
X017879Y005980D01*
X017823Y006022D01*
X017766Y006061D01*
X017707Y006097D01*
X017646Y006130D01*
X017583Y006159D01*
X017518Y006184D01*
X017452Y006206D01*
X017385Y006225D01*
X017317Y006239D01*
X017249Y006250D01*
X017180Y006257D01*
X017111Y006260D01*
X017041Y006259D01*
X016972Y006254D01*
X016903Y006246D01*
X016835Y006234D01*
X016767Y006218D01*
X016701Y006198D01*
X016635Y006174D01*
X016572Y006147D01*
X016509Y006117D01*
X016449Y006083D01*
X016390Y006046D01*
X016334Y006005D01*
X016280Y005962D01*
X016228Y005915D01*
X016179Y005866D01*
X016133Y005814D01*
X016090Y005760D01*
X016090Y004260D01*
X013280Y004990D02*
X013282Y005053D01*
X013288Y005115D01*
X013298Y005177D01*
X013311Y005239D01*
X013329Y005299D01*
X013350Y005358D01*
X013375Y005416D01*
X013404Y005472D01*
X013436Y005526D01*
X013471Y005578D01*
X013509Y005627D01*
X013551Y005675D01*
X013595Y005719D01*
X013643Y005761D01*
X013692Y005799D01*
X013744Y005834D01*
X013798Y005866D01*
X013854Y005895D01*
X013912Y005920D01*
X013971Y005941D01*
X014031Y005959D01*
X014093Y005972D01*
X014155Y005982D01*
X014217Y005988D01*
X014280Y005990D01*
X014343Y005988D01*
X014405Y005982D01*
X014467Y005972D01*
X014529Y005959D01*
X014589Y005941D01*
X014648Y005920D01*
X014706Y005895D01*
X014762Y005866D01*
X014816Y005834D01*
X014868Y005799D01*
X014917Y005761D01*
X014965Y005719D01*
X015009Y005675D01*
X015051Y005627D01*
X015089Y005578D01*
X015124Y005526D01*
X015156Y005472D01*
X015185Y005416D01*
X015210Y005358D01*
X015231Y005299D01*
X015249Y005239D01*
X015262Y005177D01*
X015272Y005115D01*
X015278Y005053D01*
X015280Y004990D01*
X015278Y004927D01*
X015272Y004865D01*
X015262Y004803D01*
X015249Y004741D01*
X015231Y004681D01*
X015210Y004622D01*
X015185Y004564D01*
X015156Y004508D01*
X015124Y004454D01*
X015089Y004402D01*
X015051Y004353D01*
X015009Y004305D01*
X014965Y004261D01*
X014917Y004219D01*
X014868Y004181D01*
X014816Y004146D01*
X014762Y004114D01*
X014706Y004085D01*
X014648Y004060D01*
X014589Y004039D01*
X014529Y004021D01*
X014467Y004008D01*
X014405Y003998D01*
X014343Y003992D01*
X014280Y003990D01*
X014217Y003992D01*
X014155Y003998D01*
X014093Y004008D01*
X014031Y004021D01*
X013971Y004039D01*
X013912Y004060D01*
X013854Y004085D01*
X013798Y004114D01*
X013744Y004146D01*
X013692Y004181D01*
X013643Y004219D01*
X013595Y004261D01*
X013551Y004305D01*
X013509Y004353D01*
X013471Y004402D01*
X013436Y004454D01*
X013404Y004508D01*
X013375Y004564D01*
X013350Y004622D01*
X013329Y004681D01*
X013311Y004741D01*
X013298Y004803D01*
X013288Y004865D01*
X013282Y004927D01*
X013280Y004990D01*
X013280Y004240D02*
X013323Y004186D01*
X013369Y004134D01*
X013418Y004085D01*
X013470Y004038D01*
X013524Y003995D01*
X013580Y003954D01*
X013639Y003917D01*
X013699Y003883D01*
X013762Y003853D01*
X013825Y003826D01*
X013891Y003802D01*
X013957Y003782D01*
X014025Y003766D01*
X014093Y003754D01*
X014162Y003746D01*
X014231Y003741D01*
X014301Y003740D01*
X014370Y003743D01*
X014439Y003750D01*
X014507Y003761D01*
X014575Y003775D01*
X014642Y003794D01*
X014708Y003816D01*
X014773Y003841D01*
X014836Y003870D01*
X014897Y003903D01*
X014956Y003939D01*
X015013Y003978D01*
X015069Y004020D01*
X015121Y004065D01*
X015171Y004113D01*
X015218Y004164D01*
X015263Y004218D01*
X015304Y004273D01*
X015342Y004331D01*
X015377Y004391D01*
X015409Y004453D01*
X015437Y004516D01*
X015461Y004581D01*
X015482Y004647D01*
X015499Y004715D01*
X015513Y004783D01*
X015522Y004852D01*
X015528Y004921D01*
X015530Y004990D01*
X015528Y005059D01*
X015522Y005128D01*
X015513Y005197D01*
X015499Y005265D01*
X015482Y005333D01*
X015461Y005399D01*
X015437Y005464D01*
X015409Y005527D01*
X015377Y005589D01*
X015342Y005649D01*
X015304Y005707D01*
X015263Y005762D01*
X015218Y005816D01*
X015171Y005867D01*
X015121Y005915D01*
X015069Y005960D01*
X015013Y006002D01*
X014956Y006041D01*
X014897Y006077D01*
X014836Y006110D01*
X014773Y006139D01*
X014708Y006164D01*
X014642Y006186D01*
X014575Y006205D01*
X014507Y006219D01*
X014439Y006230D01*
X014370Y006237D01*
X014301Y006240D01*
X014231Y006239D01*
X014162Y006234D01*
X014093Y006226D01*
X014025Y006214D01*
X013957Y006198D01*
X013891Y006178D01*
X013825Y006154D01*
X013762Y006127D01*
X013699Y006097D01*
X013639Y006063D01*
X013580Y006026D01*
X013524Y005985D01*
X013470Y005942D01*
X013418Y005895D01*
X013369Y005846D01*
X013323Y005794D01*
X013280Y005740D01*
X013280Y004240D01*
X010200Y005030D02*
X010202Y005093D01*
X010208Y005155D01*
X010218Y005217D01*
X010231Y005279D01*
X010249Y005339D01*
X010270Y005398D01*
X010295Y005456D01*
X010324Y005512D01*
X010356Y005566D01*
X010391Y005618D01*
X010429Y005667D01*
X010471Y005715D01*
X010515Y005759D01*
X010563Y005801D01*
X010612Y005839D01*
X010664Y005874D01*
X010718Y005906D01*
X010774Y005935D01*
X010832Y005960D01*
X010891Y005981D01*
X010951Y005999D01*
X011013Y006012D01*
X011075Y006022D01*
X011137Y006028D01*
X011200Y006030D01*
X011263Y006028D01*
X011325Y006022D01*
X011387Y006012D01*
X011449Y005999D01*
X011509Y005981D01*
X011568Y005960D01*
X011626Y005935D01*
X011682Y005906D01*
X011736Y005874D01*
X011788Y005839D01*
X011837Y005801D01*
X011885Y005759D01*
X011929Y005715D01*
X011971Y005667D01*
X012009Y005618D01*
X012044Y005566D01*
X012076Y005512D01*
X012105Y005456D01*
X012130Y005398D01*
X012151Y005339D01*
X012169Y005279D01*
X012182Y005217D01*
X012192Y005155D01*
X012198Y005093D01*
X012200Y005030D01*
X012198Y004967D01*
X012192Y004905D01*
X012182Y004843D01*
X012169Y004781D01*
X012151Y004721D01*
X012130Y004662D01*
X012105Y004604D01*
X012076Y004548D01*
X012044Y004494D01*
X012009Y004442D01*
X011971Y004393D01*
X011929Y004345D01*
X011885Y004301D01*
X011837Y004259D01*
X011788Y004221D01*
X011736Y004186D01*
X011682Y004154D01*
X011626Y004125D01*
X011568Y004100D01*
X011509Y004079D01*
X011449Y004061D01*
X011387Y004048D01*
X011325Y004038D01*
X011263Y004032D01*
X011200Y004030D01*
X011137Y004032D01*
X011075Y004038D01*
X011013Y004048D01*
X010951Y004061D01*
X010891Y004079D01*
X010832Y004100D01*
X010774Y004125D01*
X010718Y004154D01*
X010664Y004186D01*
X010612Y004221D01*
X010563Y004259D01*
X010515Y004301D01*
X010471Y004345D01*
X010429Y004393D01*
X010391Y004442D01*
X010356Y004494D01*
X010324Y004548D01*
X010295Y004604D01*
X010270Y004662D01*
X010249Y004721D01*
X010231Y004781D01*
X010218Y004843D01*
X010208Y004905D01*
X010202Y004967D01*
X010200Y005030D01*
X010200Y004280D02*
X010243Y004226D01*
X010289Y004174D01*
X010338Y004125D01*
X010390Y004078D01*
X010444Y004035D01*
X010500Y003994D01*
X010559Y003957D01*
X010619Y003923D01*
X010682Y003893D01*
X010745Y003866D01*
X010811Y003842D01*
X010877Y003822D01*
X010945Y003806D01*
X011013Y003794D01*
X011082Y003786D01*
X011151Y003781D01*
X011221Y003780D01*
X011290Y003783D01*
X011359Y003790D01*
X011427Y003801D01*
X011495Y003815D01*
X011562Y003834D01*
X011628Y003856D01*
X011693Y003881D01*
X011756Y003910D01*
X011817Y003943D01*
X011876Y003979D01*
X011933Y004018D01*
X011989Y004060D01*
X012041Y004105D01*
X012091Y004153D01*
X012138Y004204D01*
X012183Y004258D01*
X012224Y004313D01*
X012262Y004371D01*
X012297Y004431D01*
X012329Y004493D01*
X012357Y004556D01*
X012381Y004621D01*
X012402Y004687D01*
X012419Y004755D01*
X012433Y004823D01*
X012442Y004892D01*
X012448Y004961D01*
X012450Y005030D01*
X012448Y005099D01*
X012442Y005168D01*
X012433Y005237D01*
X012419Y005305D01*
X012402Y005373D01*
X012381Y005439D01*
X012357Y005504D01*
X012329Y005567D01*
X012297Y005629D01*
X012262Y005689D01*
X012224Y005747D01*
X012183Y005802D01*
X012138Y005856D01*
X012091Y005907D01*
X012041Y005955D01*
X011989Y006000D01*
X011933Y006042D01*
X011876Y006081D01*
X011817Y006117D01*
X011756Y006150D01*
X011693Y006179D01*
X011628Y006204D01*
X011562Y006226D01*
X011495Y006245D01*
X011427Y006259D01*
X011359Y006270D01*
X011290Y006277D01*
X011221Y006280D01*
X011151Y006279D01*
X011082Y006274D01*
X011013Y006266D01*
X010945Y006254D01*
X010877Y006238D01*
X010811Y006218D01*
X010745Y006194D01*
X010682Y006167D01*
X010619Y006137D01*
X010559Y006103D01*
X010500Y006066D01*
X010444Y006025D01*
X010390Y005982D01*
X010338Y005935D01*
X010289Y005886D01*
X010243Y005834D01*
X010200Y005780D01*
X010200Y004280D01*
X025250Y004310D02*
X025250Y005810D01*
X025250Y005060D02*
X025252Y005123D01*
X025258Y005185D01*
X025268Y005247D01*
X025281Y005309D01*
X025299Y005369D01*
X025320Y005428D01*
X025345Y005486D01*
X025374Y005542D01*
X025406Y005596D01*
X025441Y005648D01*
X025479Y005697D01*
X025521Y005745D01*
X025565Y005789D01*
X025613Y005831D01*
X025662Y005869D01*
X025714Y005904D01*
X025768Y005936D01*
X025824Y005965D01*
X025882Y005990D01*
X025941Y006011D01*
X026001Y006029D01*
X026063Y006042D01*
X026125Y006052D01*
X026187Y006058D01*
X026250Y006060D01*
X026313Y006058D01*
X026375Y006052D01*
X026437Y006042D01*
X026499Y006029D01*
X026559Y006011D01*
X026618Y005990D01*
X026676Y005965D01*
X026732Y005936D01*
X026786Y005904D01*
X026838Y005869D01*
X026887Y005831D01*
X026935Y005789D01*
X026979Y005745D01*
X027021Y005697D01*
X027059Y005648D01*
X027094Y005596D01*
X027126Y005542D01*
X027155Y005486D01*
X027180Y005428D01*
X027201Y005369D01*
X027219Y005309D01*
X027232Y005247D01*
X027242Y005185D01*
X027248Y005123D01*
X027250Y005060D01*
X027248Y004997D01*
X027242Y004935D01*
X027232Y004873D01*
X027219Y004811D01*
X027201Y004751D01*
X027180Y004692D01*
X027155Y004634D01*
X027126Y004578D01*
X027094Y004524D01*
X027059Y004472D01*
X027021Y004423D01*
X026979Y004375D01*
X026935Y004331D01*
X026887Y004289D01*
X026838Y004251D01*
X026786Y004216D01*
X026732Y004184D01*
X026676Y004155D01*
X026618Y004130D01*
X026559Y004109D01*
X026499Y004091D01*
X026437Y004078D01*
X026375Y004068D01*
X026313Y004062D01*
X026250Y004060D01*
X026187Y004062D01*
X026125Y004068D01*
X026063Y004078D01*
X026001Y004091D01*
X025941Y004109D01*
X025882Y004130D01*
X025824Y004155D01*
X025768Y004184D01*
X025714Y004216D01*
X025662Y004251D01*
X025613Y004289D01*
X025565Y004331D01*
X025521Y004375D01*
X025479Y004423D01*
X025441Y004472D01*
X025406Y004524D01*
X025374Y004578D01*
X025345Y004634D01*
X025320Y004692D01*
X025299Y004751D01*
X025281Y004811D01*
X025268Y004873D01*
X025258Y004935D01*
X025252Y004997D01*
X025250Y005060D01*
X025250Y004310D02*
X025293Y004256D01*
X025339Y004204D01*
X025388Y004155D01*
X025440Y004108D01*
X025494Y004065D01*
X025550Y004024D01*
X025609Y003987D01*
X025669Y003953D01*
X025732Y003923D01*
X025795Y003896D01*
X025861Y003872D01*
X025927Y003852D01*
X025995Y003836D01*
X026063Y003824D01*
X026132Y003816D01*
X026201Y003811D01*
X026271Y003810D01*
X026340Y003813D01*
X026409Y003820D01*
X026477Y003831D01*
X026545Y003845D01*
X026612Y003864D01*
X026678Y003886D01*
X026743Y003911D01*
X026806Y003940D01*
X026867Y003973D01*
X026926Y004009D01*
X026983Y004048D01*
X027039Y004090D01*
X027091Y004135D01*
X027141Y004183D01*
X027188Y004234D01*
X027233Y004288D01*
X027274Y004343D01*
X027312Y004401D01*
X027347Y004461D01*
X027379Y004523D01*
X027407Y004586D01*
X027431Y004651D01*
X027452Y004717D01*
X027469Y004785D01*
X027483Y004853D01*
X027492Y004922D01*
X027498Y004991D01*
X027500Y005060D01*
X027498Y005129D01*
X027492Y005198D01*
X027483Y005267D01*
X027469Y005335D01*
X027452Y005403D01*
X027431Y005469D01*
X027407Y005534D01*
X027379Y005597D01*
X027347Y005659D01*
X027312Y005719D01*
X027274Y005777D01*
X027233Y005832D01*
X027188Y005886D01*
X027141Y005937D01*
X027091Y005985D01*
X027039Y006030D01*
X026983Y006072D01*
X026926Y006111D01*
X026867Y006147D01*
X026806Y006180D01*
X026743Y006209D01*
X026678Y006234D01*
X026612Y006256D01*
X026545Y006275D01*
X026477Y006289D01*
X026409Y006300D01*
X026340Y006307D01*
X026271Y006310D01*
X026201Y006309D01*
X026132Y006304D01*
X026063Y006296D01*
X025995Y006284D01*
X025927Y006268D01*
X025861Y006248D01*
X025795Y006224D01*
X025732Y006197D01*
X025669Y006167D01*
X025609Y006133D01*
X025550Y006096D01*
X025494Y006055D01*
X025440Y006012D01*
X025388Y005965D01*
X025339Y005916D01*
X025293Y005864D01*
X025250Y005810D01*
X028160Y005780D02*
X028160Y004280D01*
X028160Y005030D02*
X028162Y005093D01*
X028168Y005155D01*
X028178Y005217D01*
X028191Y005279D01*
X028209Y005339D01*
X028230Y005398D01*
X028255Y005456D01*
X028284Y005512D01*
X028316Y005566D01*
X028351Y005618D01*
X028389Y005667D01*
X028431Y005715D01*
X028475Y005759D01*
X028523Y005801D01*
X028572Y005839D01*
X028624Y005874D01*
X028678Y005906D01*
X028734Y005935D01*
X028792Y005960D01*
X028851Y005981D01*
X028911Y005999D01*
X028973Y006012D01*
X029035Y006022D01*
X029097Y006028D01*
X029160Y006030D01*
X029223Y006028D01*
X029285Y006022D01*
X029347Y006012D01*
X029409Y005999D01*
X029469Y005981D01*
X029528Y005960D01*
X029586Y005935D01*
X029642Y005906D01*
X029696Y005874D01*
X029748Y005839D01*
X029797Y005801D01*
X029845Y005759D01*
X029889Y005715D01*
X029931Y005667D01*
X029969Y005618D01*
X030004Y005566D01*
X030036Y005512D01*
X030065Y005456D01*
X030090Y005398D01*
X030111Y005339D01*
X030129Y005279D01*
X030142Y005217D01*
X030152Y005155D01*
X030158Y005093D01*
X030160Y005030D01*
X030158Y004967D01*
X030152Y004905D01*
X030142Y004843D01*
X030129Y004781D01*
X030111Y004721D01*
X030090Y004662D01*
X030065Y004604D01*
X030036Y004548D01*
X030004Y004494D01*
X029969Y004442D01*
X029931Y004393D01*
X029889Y004345D01*
X029845Y004301D01*
X029797Y004259D01*
X029748Y004221D01*
X029696Y004186D01*
X029642Y004154D01*
X029586Y004125D01*
X029528Y004100D01*
X029469Y004079D01*
X029409Y004061D01*
X029347Y004048D01*
X029285Y004038D01*
X029223Y004032D01*
X029160Y004030D01*
X029097Y004032D01*
X029035Y004038D01*
X028973Y004048D01*
X028911Y004061D01*
X028851Y004079D01*
X028792Y004100D01*
X028734Y004125D01*
X028678Y004154D01*
X028624Y004186D01*
X028572Y004221D01*
X028523Y004259D01*
X028475Y004301D01*
X028431Y004345D01*
X028389Y004393D01*
X028351Y004442D01*
X028316Y004494D01*
X028284Y004548D01*
X028255Y004604D01*
X028230Y004662D01*
X028209Y004721D01*
X028191Y004781D01*
X028178Y004843D01*
X028168Y004905D01*
X028162Y004967D01*
X028160Y005030D01*
X028160Y004280D02*
X028203Y004226D01*
X028249Y004174D01*
X028298Y004125D01*
X028350Y004078D01*
X028404Y004035D01*
X028460Y003994D01*
X028519Y003957D01*
X028579Y003923D01*
X028642Y003893D01*
X028705Y003866D01*
X028771Y003842D01*
X028837Y003822D01*
X028905Y003806D01*
X028973Y003794D01*
X029042Y003786D01*
X029111Y003781D01*
X029181Y003780D01*
X029250Y003783D01*
X029319Y003790D01*
X029387Y003801D01*
X029455Y003815D01*
X029522Y003834D01*
X029588Y003856D01*
X029653Y003881D01*
X029716Y003910D01*
X029777Y003943D01*
X029836Y003979D01*
X029893Y004018D01*
X029949Y004060D01*
X030001Y004105D01*
X030051Y004153D01*
X030098Y004204D01*
X030143Y004258D01*
X030184Y004313D01*
X030222Y004371D01*
X030257Y004431D01*
X030289Y004493D01*
X030317Y004556D01*
X030341Y004621D01*
X030362Y004687D01*
X030379Y004755D01*
X030393Y004823D01*
X030402Y004892D01*
X030408Y004961D01*
X030410Y005030D01*
X030408Y005099D01*
X030402Y005168D01*
X030393Y005237D01*
X030379Y005305D01*
X030362Y005373D01*
X030341Y005439D01*
X030317Y005504D01*
X030289Y005567D01*
X030257Y005629D01*
X030222Y005689D01*
X030184Y005747D01*
X030143Y005802D01*
X030098Y005856D01*
X030051Y005907D01*
X030001Y005955D01*
X029949Y006000D01*
X029893Y006042D01*
X029836Y006081D01*
X029777Y006117D01*
X029716Y006150D01*
X029653Y006179D01*
X029588Y006204D01*
X029522Y006226D01*
X029455Y006245D01*
X029387Y006259D01*
X029319Y006270D01*
X029250Y006277D01*
X029181Y006280D01*
X029111Y006279D01*
X029042Y006274D01*
X028973Y006266D01*
X028905Y006254D01*
X028837Y006238D01*
X028771Y006218D01*
X028705Y006194D01*
X028642Y006167D01*
X028579Y006137D01*
X028519Y006103D01*
X028460Y006066D01*
X028404Y006025D01*
X028350Y005982D01*
X028298Y005935D01*
X028249Y005886D01*
X028203Y005834D01*
X028160Y005780D01*
X031430Y010130D02*
X031430Y010397D01*
X031563Y010263D02*
X031296Y010263D01*
X031296Y010590D02*
X031230Y010657D01*
X031230Y010791D01*
X031296Y010857D01*
X031363Y010857D01*
X031630Y010590D01*
X031630Y010857D01*
X031430Y011051D02*
X031430Y011318D01*
X031497Y011511D02*
X031230Y011511D01*
X031497Y011511D02*
X031630Y011645D01*
X031497Y011778D01*
X031230Y011778D01*
X031230Y011251D02*
X031430Y011051D01*
X031630Y011251D02*
X031230Y011251D01*
X031296Y012330D02*
X031563Y012330D01*
X031630Y012397D01*
X031630Y012530D01*
X031563Y012597D01*
X031430Y012597D01*
X031430Y012463D01*
X031296Y012330D02*
X031230Y012397D01*
X031230Y012530D01*
X031296Y012597D01*
X031230Y012790D02*
X031630Y013057D01*
X031230Y013057D01*
X031230Y013251D02*
X031230Y013451D01*
X031296Y013518D01*
X031563Y013518D01*
X031630Y013451D01*
X031630Y013251D01*
X031230Y013251D01*
X031230Y012790D02*
X031630Y012790D01*
X029210Y013920D02*
X029210Y016282D01*
X028974Y016519D01*
X028186Y016519D01*
X027950Y016282D01*
X027950Y013920D01*
X029210Y013920D01*
X029540Y014390D02*
X029540Y014590D01*
X029606Y014657D01*
X029873Y014657D01*
X029940Y014590D01*
X029940Y014390D01*
X029540Y014390D01*
X030169Y014334D02*
X030169Y016146D01*
X030346Y016146D01*
X031134Y016146D02*
X031311Y016146D01*
X031311Y014334D01*
X031134Y014334D01*
X030346Y014334D02*
X030169Y014334D01*
X029873Y014850D02*
X029940Y014917D01*
X029940Y015051D01*
X029873Y015117D01*
X029740Y015117D01*
X029673Y015051D01*
X029673Y014984D01*
X029740Y014850D01*
X029540Y014850D01*
X029540Y015117D01*
X030346Y015634D02*
X031134Y015634D01*
X032180Y017180D02*
X006280Y017180D01*
X024180Y015141D02*
X024380Y014940D01*
X024380Y015207D01*
X024580Y015141D02*
X024180Y015141D01*
X024246Y014747D02*
X024180Y014680D01*
X024180Y014480D01*
X024580Y014480D01*
X024580Y014680D01*
X024513Y014747D01*
X024246Y014747D01*
X025030Y014290D02*
X025030Y016070D01*
X025386Y015467D02*
X026174Y015467D01*
X025780Y015467D02*
X025386Y014927D01*
X026174Y014927D01*
X025780Y015467D01*
X026530Y016070D02*
X026530Y014290D01*
X027130Y014397D02*
X027130Y014530D01*
X027196Y014597D01*
X027130Y014790D02*
X027130Y015057D01*
X027196Y015057D01*
X027463Y014790D01*
X027530Y014790D01*
X027463Y014597D02*
X027530Y014530D01*
X027530Y014397D01*
X027463Y014330D01*
X027196Y014330D01*
X027130Y014397D01*
D11*
X015950Y011130D02*
X015800Y011130D01*
X015610Y010480D02*
X015710Y010380D01*
X014860Y010210D02*
X014860Y010060D01*
X014160Y010480D02*
X014060Y010380D01*
X013920Y011130D02*
X013770Y011130D01*
D12*
X005180Y000180D02*
X000180Y005180D01*
X000180Y012180D01*
X006280Y017180D01*
X009180Y011880D02*
X009180Y011380D01*
X011580Y011380D02*
X011580Y011880D01*
X018280Y011880D02*
X018280Y011380D01*
X020580Y011380D02*
X020580Y011880D01*
X027280Y011080D02*
X027780Y011080D01*
X027780Y013380D02*
X027280Y013380D01*
X032180Y017180D02*
X037180Y011680D01*
X037180Y005180D01*
X032180Y000180D01*
M02*
