G75*
%MOIN*%
%OFA0B0*%
%FSLAX24Y24*%
%IPPOS*%
%LPD*%
%AMOC8*
5,1,8,0,0,1.08239X$1,22.5*
%
%ADD10R,0.0217X0.0472*%
%ADD11R,0.0315X0.0472*%
%ADD12R,0.0709X0.0630*%
%ADD13R,0.2362X0.0984*%
%ADD14R,0.0579X0.0500*%
%ADD15OC8,0.0560*%
%ADD16R,0.0472X0.0217*%
%ADD17R,0.0472X0.0315*%
%ADD18R,0.0984X0.2362*%
%ADD19R,0.0500X0.0579*%
%ADD20R,0.0240X0.0870*%
%ADD21R,0.0512X0.0591*%
%ADD22R,0.0945X0.0945*%
%ADD23R,0.0945X0.0591*%
%ADD24C,0.0160*%
%ADD25C,0.1266*%
%ADD26C,0.0436*%
%ADD27C,0.0240*%
%ADD28C,0.0400*%
%ADD29C,0.0100*%
%ADD30C,0.0554*%
D10*
X010916Y013438D03*
X011290Y013438D03*
X011664Y013438D03*
X011664Y014462D03*
X010916Y014462D03*
X019796Y014482D03*
X020544Y014482D03*
X020544Y013458D03*
X020170Y013458D03*
X019796Y013458D03*
D11*
X019616Y015290D03*
X020324Y015290D03*
X011684Y015190D03*
X010976Y015190D03*
D12*
X013490Y014889D03*
X013490Y015991D03*
D13*
X010391Y012486D03*
X010391Y010793D03*
X019431Y010753D03*
X019431Y012446D03*
D14*
X018680Y013334D03*
X018680Y015026D03*
X009830Y015156D03*
X009830Y013464D03*
X030740Y014394D03*
X030740Y016086D03*
D15*
X015860Y011280D03*
X014860Y010280D03*
X013860Y011280D03*
X013680Y008010D03*
X014680Y008010D03*
X016540Y008060D03*
X017540Y008060D03*
X019800Y007900D03*
X020800Y007900D03*
X022740Y007910D03*
X023740Y007910D03*
X025800Y007910D03*
X026800Y007910D03*
X028640Y007940D03*
X029640Y007940D03*
X026750Y005060D03*
X025750Y005060D03*
X023560Y005080D03*
X022560Y005080D03*
X020810Y005080D03*
X019810Y005080D03*
X017590Y005010D03*
X016590Y005010D03*
X014780Y004990D03*
X013780Y004990D03*
X011700Y005030D03*
X010700Y005030D03*
X008700Y005020D03*
X007700Y005020D03*
X007630Y007980D03*
X008630Y007980D03*
X010680Y007980D03*
X011680Y007980D03*
X011680Y001980D03*
X010680Y001980D03*
X008680Y001980D03*
X007680Y001980D03*
X013680Y001980D03*
X014680Y001980D03*
X016680Y001980D03*
X017680Y001980D03*
X019880Y001980D03*
X020880Y001980D03*
X022680Y001980D03*
X023680Y001980D03*
X025780Y001980D03*
X026780Y001980D03*
X028780Y001980D03*
X029780Y001980D03*
X029660Y005030D03*
X028660Y005030D03*
D16*
X025662Y012316D03*
X025662Y012690D03*
X025662Y013064D03*
X024638Y013064D03*
X024638Y012316D03*
D17*
X023770Y012336D03*
X023770Y013044D03*
D18*
X026664Y012211D03*
X028357Y012211D03*
D19*
X025366Y011230D03*
X023674Y011230D03*
D20*
X016780Y013340D03*
X016280Y013340D03*
X015780Y013340D03*
X015280Y013340D03*
X015280Y015400D03*
X015780Y015400D03*
X016280Y015400D03*
X016780Y015400D03*
D21*
X014445Y013390D03*
X013775Y013390D03*
D22*
X025780Y014314D03*
X025780Y016046D03*
D23*
X028580Y016086D03*
X028580Y014274D03*
D24*
X006280Y001180D02*
X006280Y000360D01*
X007470Y000360D01*
X007440Y000432D01*
X007440Y001598D01*
X007240Y001798D01*
X007240Y002162D01*
X007498Y002420D01*
X007862Y002420D01*
X008120Y002162D01*
X008120Y001798D01*
X007920Y001598D01*
X007920Y000720D01*
X028640Y000720D01*
X028640Y001540D01*
X028598Y001540D01*
X028340Y001798D01*
X028340Y002162D01*
X028598Y002420D01*
X028962Y002420D01*
X029220Y002162D01*
X029220Y001798D01*
X029120Y001698D01*
X029120Y000432D01*
X029090Y000360D01*
X031992Y000360D01*
X032180Y000548D01*
X032180Y010934D01*
X032116Y010870D01*
X032028Y010834D01*
X031932Y010834D01*
X031917Y010840D01*
X031139Y010840D01*
X031052Y010631D01*
X030829Y010408D01*
X030538Y010287D01*
X030222Y010287D01*
X029931Y010408D01*
X029708Y010631D01*
X029587Y010922D01*
X029587Y011238D01*
X029708Y011529D01*
X029931Y011752D01*
X030222Y011873D01*
X030538Y011873D01*
X030829Y011752D01*
X031052Y011529D01*
X031139Y011320D01*
X031740Y011320D01*
X031740Y015840D01*
X031189Y015840D01*
X031189Y015770D01*
X031096Y015676D01*
X030384Y015676D01*
X030291Y015770D01*
X030291Y015846D01*
X029212Y015846D01*
X029212Y015724D01*
X029119Y015630D01*
X028041Y015630D01*
X027948Y015724D01*
X027948Y015806D01*
X026412Y015806D01*
X026412Y015507D01*
X026319Y015414D01*
X025241Y015414D01*
X025148Y015507D01*
X025148Y015840D01*
X025120Y015840D01*
X025120Y014175D01*
X025128Y014167D01*
X025128Y014234D01*
X025700Y014234D01*
X025700Y014394D01*
X025700Y014966D01*
X025284Y014966D01*
X025238Y014954D01*
X025197Y014930D01*
X025164Y014897D01*
X025140Y014856D01*
X025128Y014810D01*
X025128Y014394D01*
X025700Y014394D01*
X025860Y014394D01*
X025860Y014966D01*
X026276Y014966D01*
X026322Y014954D01*
X026363Y014930D01*
X026396Y014897D01*
X026420Y014856D01*
X026432Y014810D01*
X026432Y014394D01*
X025860Y014394D01*
X025860Y014234D01*
X026432Y014234D01*
X026432Y013818D01*
X026420Y013772D01*
X026396Y013731D01*
X026363Y013697D01*
X026322Y013674D01*
X026276Y013661D01*
X025860Y013661D01*
X025860Y014234D01*
X025700Y014234D01*
X025700Y013661D01*
X025404Y013661D01*
X025471Y013594D01*
X025733Y013332D01*
X025964Y013332D01*
X026012Y013285D01*
X026012Y013458D01*
X026105Y013552D01*
X027222Y013552D01*
X027316Y013458D01*
X027316Y010964D01*
X027222Y010870D01*
X026105Y010870D01*
X026012Y010964D01*
X026012Y012076D01*
X025993Y012076D01*
X025964Y012048D01*
X025902Y012048D01*
X025902Y011478D01*
X025865Y011389D01*
X025798Y011322D01*
X025776Y011301D01*
X025776Y010874D01*
X025683Y010781D01*
X025050Y010781D01*
X024956Y010874D01*
X024956Y011586D01*
X025050Y011679D01*
X025422Y011679D01*
X025422Y012048D01*
X025359Y012048D01*
X025266Y012141D01*
X025266Y012491D01*
X025269Y012494D01*
X025258Y012512D01*
X025246Y012558D01*
X025246Y012690D01*
X025662Y012690D01*
X025662Y012690D01*
X025246Y012690D01*
X025246Y012822D01*
X025258Y012868D01*
X025269Y012886D01*
X025266Y012889D01*
X025266Y013121D01*
X025168Y013218D01*
X025034Y013218D01*
X025034Y012889D01*
X024941Y012796D01*
X024336Y012796D01*
X024307Y012824D01*
X024166Y012824D01*
X024166Y012821D01*
X024072Y012727D01*
X023468Y012727D01*
X023424Y012770D01*
X023190Y012770D01*
X023190Y012577D01*
X023194Y012575D01*
X023301Y012469D01*
X023358Y012330D01*
X023358Y012179D01*
X023301Y012040D01*
X023194Y011934D01*
X023055Y011876D01*
X022905Y011876D01*
X022766Y011934D01*
X022659Y012040D01*
X022602Y012179D01*
X022602Y012330D01*
X022659Y012469D01*
X022766Y012575D01*
X022770Y012577D01*
X022770Y013067D01*
X022893Y013190D01*
X023374Y013190D01*
X023374Y013218D01*
X021453Y013218D01*
X021394Y013159D01*
X021255Y013102D01*
X021105Y013102D01*
X020966Y013159D01*
X020907Y013218D01*
X020812Y013218D01*
X020812Y013156D01*
X020719Y013062D01*
X020715Y013062D01*
X020772Y013005D01*
X020772Y011888D01*
X020678Y011794D01*
X018184Y011794D01*
X018160Y011818D01*
X018160Y011382D01*
X018184Y011406D01*
X020678Y011406D01*
X020772Y011312D01*
X020772Y010195D01*
X020678Y010101D01*
X019711Y010101D01*
X019711Y009875D01*
X019668Y009772D01*
X019160Y009264D01*
X019160Y004197D01*
X019677Y003680D01*
X020716Y003680D01*
X020819Y003637D01*
X021039Y003417D01*
X021117Y003339D01*
X021160Y003236D01*
X021160Y002322D01*
X021320Y002162D01*
X021320Y001798D01*
X021062Y001540D01*
X020698Y001540D01*
X020440Y001798D01*
X020440Y002162D01*
X020600Y002322D01*
X020600Y003064D01*
X020544Y003120D01*
X019505Y003120D01*
X019403Y003163D01*
X019324Y003241D01*
X018643Y003923D01*
X018600Y004025D01*
X018600Y009436D01*
X018643Y009539D01*
X018721Y009617D01*
X019151Y010047D01*
X019151Y010101D01*
X018184Y010101D01*
X018160Y010125D01*
X018160Y009696D01*
X018517Y009339D01*
X018560Y009236D01*
X018560Y002524D01*
X018517Y002421D01*
X018439Y002343D01*
X018120Y002024D01*
X018120Y001798D01*
X017862Y001540D01*
X017498Y001540D01*
X017240Y001798D01*
X017240Y002162D01*
X017498Y002420D01*
X017724Y002420D01*
X018000Y002696D01*
X018000Y004798D01*
X017772Y004570D01*
X017408Y004570D01*
X017150Y004828D01*
X017150Y005192D01*
X017300Y005342D01*
X017300Y007678D01*
X017100Y007878D01*
X017100Y008242D01*
X017358Y008500D01*
X017722Y008500D01*
X017980Y008242D01*
X017980Y007878D01*
X017780Y007678D01*
X017780Y005442D01*
X018000Y005222D01*
X018000Y009064D01*
X017721Y009343D01*
X017643Y009421D01*
X017600Y009524D01*
X017600Y013695D01*
X017559Y013736D01*
X017502Y013875D01*
X017502Y014025D01*
X017559Y014164D01*
X017666Y014271D01*
X017805Y014328D01*
X017955Y014328D01*
X018094Y014271D01*
X018201Y014164D01*
X018258Y014025D01*
X018258Y013875D01*
X018201Y013736D01*
X018160Y013695D01*
X018160Y013075D01*
X018184Y013098D01*
X018231Y013098D01*
X018231Y013650D01*
X018324Y013744D01*
X019036Y013744D01*
X019129Y013650D01*
X019129Y013574D01*
X019528Y013574D01*
X019528Y013761D01*
X019621Y013854D01*
X019971Y013854D01*
X019974Y013851D01*
X019992Y013862D01*
X020038Y013874D01*
X020170Y013874D01*
X020170Y013458D01*
X020170Y013458D01*
X020170Y013874D01*
X020302Y013874D01*
X020348Y013862D01*
X020366Y013851D01*
X020369Y013854D01*
X020719Y013854D01*
X020812Y013761D01*
X020812Y013698D01*
X020863Y013698D01*
X020907Y013742D01*
X020866Y013759D01*
X020759Y013866D01*
X020702Y014005D01*
X020702Y014086D01*
X020369Y014086D01*
X020276Y014179D01*
X020276Y014784D01*
X020304Y014813D01*
X020304Y014894D01*
X020101Y014894D01*
X020036Y014958D01*
X020036Y014813D01*
X020064Y014784D01*
X020064Y014179D01*
X019971Y014086D01*
X019621Y014086D01*
X019528Y014179D01*
X019528Y014784D01*
X019556Y014813D01*
X019556Y014894D01*
X019392Y014894D01*
X019298Y014988D01*
X019298Y015050D01*
X019129Y015050D01*
X019129Y014710D01*
X019036Y014616D01*
X018324Y014616D01*
X018231Y014710D01*
X018231Y015343D01*
X018324Y015436D01*
X018340Y015436D01*
X018340Y016340D01*
X017020Y016340D01*
X017020Y015941D01*
X017060Y015901D01*
X017060Y014899D01*
X016966Y014805D01*
X016594Y014805D01*
X016544Y014855D01*
X016544Y014854D01*
X016511Y014821D01*
X016469Y014797D01*
X016424Y014785D01*
X016280Y014785D01*
X016280Y015400D01*
X016280Y015400D01*
X016280Y016015D01*
X016424Y016015D01*
X016469Y016003D01*
X016511Y015979D01*
X016540Y015950D01*
X016540Y016340D01*
X015520Y016340D01*
X015520Y015950D01*
X015549Y015979D01*
X015591Y016003D01*
X015636Y016015D01*
X015780Y016015D01*
X015780Y015400D01*
X015780Y015400D01*
X016080Y015400D01*
X016280Y015400D01*
X016280Y015400D01*
X016280Y016015D01*
X016136Y016015D01*
X016091Y016003D01*
X016049Y015979D01*
X016030Y015960D01*
X016011Y015979D01*
X015969Y016003D01*
X015924Y016015D01*
X015780Y016015D01*
X015780Y015400D01*
X015780Y015400D01*
X015780Y014785D01*
X015924Y014785D01*
X015969Y014797D01*
X016011Y014821D01*
X016030Y014840D01*
X016049Y014821D01*
X016091Y014797D01*
X016136Y014785D01*
X016280Y014785D01*
X016280Y015400D01*
X016280Y015400D01*
X015780Y015400D01*
X015780Y015400D01*
X015780Y014785D01*
X015636Y014785D01*
X015591Y014797D01*
X015549Y014821D01*
X015516Y014854D01*
X015516Y014855D01*
X015466Y014805D01*
X015094Y014805D01*
X015000Y014899D01*
X015000Y015901D01*
X015040Y015941D01*
X015040Y016340D01*
X014004Y016340D01*
X014004Y015610D01*
X013911Y015516D01*
X013069Y015516D01*
X012976Y015610D01*
X012976Y016340D01*
X011879Y016340D01*
X011216Y015676D01*
X011216Y015570D01*
X011293Y015492D01*
X011293Y014888D01*
X011199Y014794D01*
X011155Y014794D01*
X011184Y014764D01*
X011184Y014159D01*
X011091Y014066D01*
X010741Y014066D01*
X010648Y014159D01*
X010648Y014395D01*
X010640Y014414D01*
X010640Y014916D01*
X010279Y014916D01*
X010279Y014840D01*
X010186Y014746D01*
X009474Y014746D01*
X009381Y014840D01*
X009381Y015473D01*
X009474Y015566D01*
X010186Y015566D01*
X010279Y015473D01*
X010279Y015396D01*
X010658Y015396D01*
X010658Y015492D01*
X010736Y015570D01*
X010736Y015823D01*
X010772Y015912D01*
X011577Y016716D01*
X011610Y016749D01*
X011643Y016783D01*
X011643Y016783D01*
X011644Y016783D01*
X011687Y016801D01*
X011731Y016820D01*
X011731Y016820D01*
X011732Y016820D01*
X011779Y016820D01*
X013464Y016831D01*
X013508Y016833D01*
X013511Y016831D01*
X013515Y016831D01*
X013543Y016820D01*
X025428Y016820D01*
X025516Y016783D01*
X025621Y016679D01*
X026319Y016679D01*
X026412Y016585D01*
X026412Y016286D01*
X027948Y016286D01*
X027948Y016447D01*
X028041Y016541D01*
X029119Y016541D01*
X029212Y016447D01*
X029212Y016326D01*
X030291Y016326D01*
X030291Y016403D01*
X030384Y016496D01*
X031096Y016496D01*
X031189Y016403D01*
X031189Y016320D01*
X032028Y016320D01*
X032116Y016283D01*
X032180Y016219D01*
X032180Y016793D01*
X031992Y017000D01*
X006471Y017000D01*
X006378Y016924D01*
X006280Y001180D01*
X006280Y001131D02*
X007440Y001131D01*
X007440Y000973D02*
X006280Y000973D01*
X006280Y000814D02*
X007440Y000814D01*
X007440Y000656D02*
X006280Y000656D01*
X006280Y000497D02*
X007440Y000497D01*
X007680Y000480D02*
X028880Y000480D01*
X028880Y001980D01*
X028780Y001980D01*
X028980Y002780D02*
X029035Y002778D01*
X029089Y002773D01*
X029143Y002763D01*
X029196Y002750D01*
X029248Y002734D01*
X029299Y002714D01*
X029348Y002690D01*
X029396Y002664D01*
X029441Y002634D01*
X029485Y002601D01*
X029526Y002565D01*
X029565Y002526D01*
X029601Y002485D01*
X029634Y002441D01*
X029664Y002396D01*
X029690Y002348D01*
X029714Y002299D01*
X029734Y002248D01*
X029750Y002196D01*
X029763Y002143D01*
X029773Y002089D01*
X029778Y002035D01*
X029780Y001980D01*
X029451Y002273D02*
X029340Y002162D01*
X029340Y001798D01*
X029598Y001540D01*
X029962Y001540D01*
X030220Y001798D01*
X030220Y002162D01*
X029962Y002420D01*
X029931Y002420D01*
X029918Y002458D01*
X029725Y002725D01*
X029458Y002918D01*
X029145Y003020D01*
X028519Y003020D01*
X028512Y003023D01*
X028472Y003020D01*
X028432Y003020D01*
X028425Y003017D01*
X028307Y003009D01*
X028016Y002892D01*
X028016Y002892D01*
X027774Y002691D01*
X027607Y002425D01*
X027530Y002121D01*
X027530Y002121D01*
X027540Y001972D01*
X027540Y001794D01*
X027531Y001735D01*
X027482Y001615D01*
X027398Y001517D01*
X027288Y001450D01*
X027163Y001419D01*
X027129Y001419D01*
X027128Y001420D01*
X027089Y001420D01*
X027051Y001423D01*
X027042Y001420D01*
X026380Y001420D01*
X026310Y001427D01*
X026180Y001481D01*
X026081Y001580D01*
X026058Y001635D01*
X026220Y001798D01*
X026220Y002162D01*
X025962Y002420D01*
X025804Y002420D01*
X026343Y002439D01*
X026377Y002425D01*
X026479Y002347D01*
X026496Y002318D01*
X026340Y002162D01*
X026340Y001798D01*
X026598Y001540D01*
X026962Y001540D01*
X027220Y001798D01*
X027220Y002162D01*
X027017Y002366D01*
X027013Y002392D01*
X026853Y002672D01*
X026599Y002869D01*
X026599Y002869D01*
X026454Y002909D01*
X026419Y002922D01*
X026408Y002921D01*
X026397Y002924D01*
X026361Y002919D01*
X023528Y002822D01*
X023426Y002868D01*
X023091Y002879D01*
X023091Y002879D01*
X022776Y002761D01*
X022531Y002532D01*
X022480Y002419D01*
X022477Y002416D01*
X022464Y002387D01*
X022240Y002162D01*
X022240Y001798D01*
X022498Y001540D01*
X022862Y001540D01*
X023120Y001798D01*
X023120Y002162D01*
X022989Y002293D01*
X023038Y002339D01*
X023171Y002389D01*
X023313Y002385D01*
X023363Y002368D01*
X023388Y002358D01*
X023421Y002343D01*
X023240Y002162D01*
X023240Y001798D01*
X023440Y001598D01*
X023440Y001320D01*
X020120Y001320D01*
X020120Y001598D01*
X020320Y001798D01*
X020320Y002162D01*
X020062Y002420D01*
X019698Y002420D01*
X019440Y002162D01*
X019440Y001798D01*
X019640Y001598D01*
X019640Y001032D01*
X019677Y000944D01*
X019744Y000877D01*
X019832Y000840D01*
X023728Y000840D01*
X023816Y000877D01*
X023883Y000944D01*
X023920Y001032D01*
X023920Y001598D01*
X024120Y001798D01*
X024120Y002162D01*
X023927Y002355D01*
X025590Y002413D01*
X025340Y002162D01*
X025340Y001798D01*
X025551Y001587D01*
X025668Y001304D01*
X025904Y001068D01*
X025904Y001068D01*
X026213Y000940D01*
X027071Y000940D01*
X027202Y000930D01*
X027202Y000930D01*
X027477Y000996D01*
X027718Y001144D01*
X027901Y001360D01*
X028008Y001621D01*
X028016Y001723D01*
X028020Y001732D01*
X028020Y001771D01*
X028023Y001809D01*
X028020Y001818D01*
X028020Y001941D01*
X028023Y001948D01*
X028020Y001988D01*
X028020Y002028D01*
X028020Y002076D01*
X028060Y002231D01*
X028145Y002367D01*
X028268Y002469D01*
X028417Y002529D01*
X028492Y002540D01*
X028980Y002540D01*
X029068Y002533D01*
X029234Y002479D01*
X029376Y002376D01*
X029451Y002273D01*
X029418Y002241D02*
X029142Y002241D01*
X029220Y002082D02*
X029340Y002082D01*
X029340Y001924D02*
X029220Y001924D01*
X029187Y001765D02*
X029373Y001765D01*
X029531Y001607D02*
X029120Y001607D01*
X029120Y001448D02*
X032180Y001448D01*
X032180Y001290D02*
X029120Y001290D01*
X029120Y001131D02*
X032180Y001131D01*
X032180Y000973D02*
X029120Y000973D01*
X029120Y000814D02*
X032180Y000814D01*
X032180Y000656D02*
X029120Y000656D01*
X029120Y000497D02*
X032129Y000497D01*
X032180Y001607D02*
X030029Y001607D01*
X030187Y001765D02*
X032180Y001765D01*
X032180Y001924D02*
X030220Y001924D01*
X030220Y002082D02*
X032180Y002082D01*
X032180Y002241D02*
X030142Y002241D01*
X029983Y002399D02*
X032180Y002399D01*
X032180Y002558D02*
X029846Y002558D01*
X029918Y002458D02*
X029918Y002458D01*
X029731Y002716D02*
X032180Y002716D01*
X032180Y002875D02*
X029518Y002875D01*
X029458Y002918D02*
X029458Y002918D01*
X029725Y002725D02*
X029725Y002725D01*
X029344Y002399D02*
X028983Y002399D01*
X028577Y002399D02*
X028183Y002399D01*
X028065Y002241D02*
X028418Y002241D01*
X028340Y002082D02*
X028022Y002082D01*
X028020Y002028D02*
X028020Y002028D01*
X028020Y001924D02*
X028340Y001924D01*
X028373Y001765D02*
X028020Y001765D01*
X028008Y001621D02*
X028008Y001621D01*
X028003Y001607D02*
X028531Y001607D01*
X028640Y001448D02*
X027937Y001448D01*
X027901Y001360D02*
X027901Y001360D01*
X027841Y001290D02*
X028640Y001290D01*
X028640Y001131D02*
X027696Y001131D01*
X027718Y001144D02*
X027718Y001144D01*
X027477Y000996D02*
X027477Y000996D01*
X027379Y000973D02*
X028640Y000973D01*
X028640Y000814D02*
X007920Y000814D01*
X007920Y000973D02*
X019665Y000973D01*
X019640Y001131D02*
X007920Y001131D01*
X007920Y001290D02*
X019640Y001290D01*
X019640Y001448D02*
X007920Y001448D01*
X007929Y001607D02*
X008431Y001607D01*
X008498Y001540D02*
X008862Y001540D01*
X009062Y001740D01*
X010298Y001740D01*
X010498Y001540D01*
X010862Y001540D01*
X011120Y001798D01*
X011120Y002162D01*
X010862Y002420D01*
X010498Y002420D01*
X010298Y002220D01*
X009062Y002220D01*
X008862Y002420D01*
X008498Y002420D01*
X008240Y002162D01*
X008240Y001798D01*
X008498Y001540D01*
X008929Y001607D02*
X010431Y001607D01*
X010680Y001980D02*
X008680Y001980D01*
X008240Y001924D02*
X008120Y001924D01*
X008120Y002082D02*
X008240Y002082D01*
X008318Y002241D02*
X008042Y002241D01*
X007883Y002399D02*
X008477Y002399D01*
X008883Y002399D02*
X010477Y002399D01*
X010318Y002241D02*
X009042Y002241D01*
X008273Y001765D02*
X008087Y001765D01*
X007680Y001980D02*
X007680Y000480D01*
X007440Y001290D02*
X006281Y001290D01*
X006282Y001448D02*
X007440Y001448D01*
X007431Y001607D02*
X006283Y001607D01*
X006284Y001765D02*
X007273Y001765D01*
X007240Y001924D02*
X006285Y001924D01*
X006286Y002082D02*
X007240Y002082D01*
X007318Y002241D02*
X006287Y002241D01*
X006288Y002399D02*
X007477Y002399D01*
X006289Y002558D02*
X017862Y002558D01*
X018000Y002716D02*
X006290Y002716D01*
X006291Y002875D02*
X018000Y002875D01*
X018000Y003033D02*
X006292Y003033D01*
X006293Y003192D02*
X018000Y003192D01*
X018000Y003350D02*
X006294Y003350D01*
X006295Y003509D02*
X018000Y003509D01*
X018000Y003667D02*
X006296Y003667D01*
X006297Y003826D02*
X018000Y003826D01*
X018000Y003984D02*
X006298Y003984D01*
X006299Y004143D02*
X018000Y004143D01*
X018000Y004301D02*
X006300Y004301D01*
X006300Y004460D02*
X018000Y004460D01*
X018000Y004618D02*
X017820Y004618D01*
X017979Y004777D02*
X018000Y004777D01*
X017590Y005010D02*
X017540Y005010D01*
X017540Y008060D01*
X017100Y008105D02*
X016980Y008105D01*
X016980Y008242D02*
X016980Y007878D01*
X016722Y007620D01*
X016358Y007620D01*
X016208Y007770D01*
X015062Y007770D01*
X014862Y007570D01*
X014498Y007570D01*
X014240Y007828D01*
X014240Y008192D01*
X014498Y008450D01*
X014862Y008450D01*
X015062Y008250D01*
X016108Y008250D01*
X016358Y008500D01*
X016722Y008500D01*
X016980Y008242D01*
X016959Y008264D02*
X017121Y008264D01*
X017280Y008422D02*
X016800Y008422D01*
X016280Y008422D02*
X014890Y008422D01*
X015049Y008264D02*
X016121Y008264D01*
X016540Y008060D02*
X016540Y008010D01*
X014680Y008010D01*
X014240Y007947D02*
X014120Y007947D01*
X014120Y007828D02*
X014120Y008192D01*
X013862Y008450D01*
X013649Y008450D01*
X013420Y008679D01*
X013420Y012968D01*
X013453Y012935D01*
X013620Y012935D01*
X013620Y011662D01*
X013420Y011462D01*
X013420Y011098D01*
X013678Y010840D01*
X014042Y010840D01*
X014300Y011098D01*
X014300Y011462D01*
X014100Y011662D01*
X014100Y012937D01*
X014110Y012947D01*
X014122Y012935D01*
X014767Y012935D01*
X014861Y013028D01*
X014861Y013150D01*
X015000Y013150D01*
X015000Y012839D01*
X015094Y012745D01*
X015466Y012745D01*
X015516Y012795D01*
X015516Y012794D01*
X015549Y012761D01*
X015591Y012737D01*
X015636Y012725D01*
X015780Y012725D01*
X015924Y012725D01*
X015969Y012737D01*
X016011Y012761D01*
X016044Y012794D01*
X016044Y012795D01*
X016094Y012745D01*
X016466Y012745D01*
X016530Y012809D01*
X016594Y012745D01*
X016966Y012745D01*
X017060Y012839D01*
X017060Y013841D01*
X016966Y013935D01*
X016594Y013935D01*
X016530Y013871D01*
X016466Y013935D01*
X016094Y013935D01*
X016044Y013885D01*
X016044Y013886D01*
X016011Y013919D01*
X015969Y013943D01*
X015924Y013955D01*
X015780Y013955D01*
X015780Y013340D01*
X015780Y011360D01*
X015860Y011280D01*
X016320Y011280D01*
X016320Y011471D01*
X016051Y011740D01*
X015860Y011740D01*
X015860Y011280D01*
X015860Y011280D01*
X015860Y011280D01*
X016320Y011280D01*
X016320Y011089D01*
X016051Y010820D01*
X015860Y010820D01*
X015860Y011280D01*
X015860Y011280D01*
X015860Y011280D01*
X015400Y011280D01*
X015400Y011471D01*
X015669Y011740D01*
X015860Y011740D01*
X015860Y011280D01*
X015860Y010820D01*
X015669Y010820D01*
X015400Y011089D01*
X015400Y011280D01*
X015860Y011280D01*
X015860Y011275D02*
X015860Y011275D01*
X015860Y011117D02*
X015860Y011117D01*
X015860Y010958D02*
X015860Y010958D01*
X016189Y010958D02*
X017600Y010958D01*
X017600Y010800D02*
X013420Y010800D01*
X013420Y010958D02*
X013560Y010958D01*
X013420Y011117D02*
X013420Y011117D01*
X013420Y011275D02*
X013420Y011275D01*
X013420Y011434D02*
X013420Y011434D01*
X013420Y011592D02*
X013550Y011592D01*
X013620Y011751D02*
X013420Y011751D01*
X013420Y011909D02*
X013620Y011909D01*
X013620Y012068D02*
X013420Y012068D01*
X013420Y012226D02*
X013620Y012226D01*
X013620Y012385D02*
X013420Y012385D01*
X013420Y012543D02*
X013620Y012543D01*
X013620Y012702D02*
X013420Y012702D01*
X013420Y012860D02*
X013620Y012860D01*
X013359Y013126D02*
X013316Y013170D01*
X011932Y014553D01*
X011932Y014764D01*
X011924Y014772D01*
X011924Y014810D01*
X012002Y014888D01*
X012002Y015492D01*
X011908Y015586D01*
X011461Y015586D01*
X011367Y015492D01*
X011367Y014888D01*
X011443Y014811D01*
X011396Y014764D01*
X011396Y014159D01*
X011489Y014066D01*
X011741Y014066D01*
X011965Y013842D01*
X011870Y013802D01*
X011839Y013834D01*
X011489Y013834D01*
X011486Y013831D01*
X011468Y013842D01*
X011422Y013854D01*
X011290Y013854D01*
X011158Y013854D01*
X011112Y013842D01*
X011094Y013831D01*
X011091Y013834D01*
X010741Y013834D01*
X010648Y013741D01*
X010648Y013704D01*
X010279Y013704D01*
X010279Y013780D01*
X010186Y013874D01*
X009474Y013874D01*
X009381Y013780D01*
X009381Y013147D01*
X009389Y013138D01*
X009144Y013138D01*
X009050Y013045D01*
X009050Y011928D01*
X009144Y011834D01*
X011638Y011834D01*
X011732Y011928D01*
X011732Y013042D01*
X011839Y013042D01*
X011930Y013133D01*
X012005Y013102D01*
X012155Y013102D01*
X012294Y013159D01*
X012401Y013266D01*
X012442Y013365D01*
X012940Y012867D01*
X012940Y008532D01*
X012977Y008444D01*
X013044Y008377D01*
X013240Y008181D01*
X013240Y007828D01*
X013498Y007570D01*
X013862Y007570D01*
X014120Y007828D01*
X014080Y007788D02*
X014280Y007788D01*
X014438Y007630D02*
X013922Y007630D01*
X013438Y007630D02*
X011952Y007630D01*
X011862Y007540D02*
X012120Y007798D01*
X012120Y008162D01*
X012040Y008242D01*
X012040Y009576D01*
X011985Y009708D01*
X011884Y009810D01*
X011552Y010141D01*
X011638Y010141D01*
X011732Y010235D01*
X011732Y011352D01*
X011638Y011446D01*
X009144Y011446D01*
X009050Y011352D01*
X009050Y010235D01*
X009144Y010141D01*
X010534Y010141D01*
X011320Y009355D01*
X011320Y008242D01*
X011240Y008162D01*
X011240Y007798D01*
X011498Y007540D01*
X011862Y007540D01*
X012110Y007788D02*
X013280Y007788D01*
X013240Y007947D02*
X012120Y007947D01*
X012120Y008105D02*
X013240Y008105D01*
X013157Y008264D02*
X012040Y008264D01*
X012040Y008422D02*
X012999Y008422D01*
X013044Y008377D02*
X013044Y008377D01*
X012940Y008581D02*
X012040Y008581D01*
X012040Y008739D02*
X012940Y008739D01*
X012940Y008898D02*
X012040Y008898D01*
X012040Y009056D02*
X012940Y009056D01*
X012940Y009215D02*
X012040Y009215D01*
X012040Y009373D02*
X012940Y009373D01*
X012940Y009532D02*
X012040Y009532D01*
X011993Y009690D02*
X012940Y009690D01*
X012940Y009849D02*
X011845Y009849D01*
X011687Y010007D02*
X012940Y010007D01*
X012940Y010166D02*
X011663Y010166D01*
X011732Y010324D02*
X012940Y010324D01*
X012940Y010483D02*
X011732Y010483D01*
X011732Y010641D02*
X012940Y010641D01*
X012940Y010800D02*
X011732Y010800D01*
X011732Y010958D02*
X012940Y010958D01*
X012940Y011117D02*
X011732Y011117D01*
X011732Y011275D02*
X012940Y011275D01*
X012940Y011434D02*
X011650Y011434D01*
X011713Y011909D02*
X012940Y011909D01*
X012940Y011751D02*
X006346Y011751D01*
X006347Y011909D02*
X009069Y011909D01*
X009050Y012068D02*
X006348Y012068D01*
X006349Y012226D02*
X009050Y012226D01*
X009050Y012385D02*
X006350Y012385D01*
X006351Y012543D02*
X009050Y012543D01*
X009050Y012702D02*
X006352Y012702D01*
X006353Y012860D02*
X009050Y012860D01*
X009050Y013019D02*
X006354Y013019D01*
X006355Y013177D02*
X009381Y013177D01*
X009381Y013336D02*
X006356Y013336D01*
X006357Y013494D02*
X009381Y013494D01*
X009381Y013653D02*
X006358Y013653D01*
X006359Y013811D02*
X009412Y013811D01*
X009830Y013464D02*
X010916Y013464D01*
X010916Y013438D01*
X010916Y012486D01*
X010391Y012486D01*
X011732Y012543D02*
X012940Y012543D01*
X012940Y012385D02*
X011732Y012385D01*
X011732Y012226D02*
X012940Y012226D01*
X012940Y012068D02*
X011732Y012068D01*
X012940Y011592D02*
X006345Y011592D01*
X006344Y011434D02*
X009132Y011434D01*
X009050Y011275D02*
X006343Y011275D01*
X006342Y011117D02*
X009050Y011117D01*
X009050Y010958D02*
X006341Y010958D01*
X006340Y010800D02*
X009050Y010800D01*
X009050Y010641D02*
X006339Y010641D01*
X006338Y010483D02*
X009050Y010483D01*
X009050Y010324D02*
X006337Y010324D01*
X006336Y010166D02*
X009119Y010166D01*
X010668Y010007D02*
X006335Y010007D01*
X006334Y009849D02*
X010827Y009849D01*
X010985Y009690D02*
X006333Y009690D01*
X006332Y009532D02*
X011144Y009532D01*
X011302Y009373D02*
X006331Y009373D01*
X006330Y009215D02*
X011320Y009215D01*
X011320Y009056D02*
X006329Y009056D01*
X006328Y008898D02*
X011320Y008898D01*
X011320Y008739D02*
X006327Y008739D01*
X006326Y008581D02*
X011320Y008581D01*
X011320Y008422D02*
X006325Y008422D01*
X006324Y008264D02*
X007291Y008264D01*
X007190Y008162D02*
X007190Y007798D01*
X007390Y007598D01*
X007390Y005332D01*
X007260Y005202D01*
X007260Y004838D01*
X007518Y004580D01*
X007882Y004580D01*
X008140Y004838D01*
X008140Y005202D01*
X007882Y005460D01*
X007870Y005460D01*
X007870Y007598D01*
X008070Y007798D01*
X008070Y008162D01*
X007812Y008420D01*
X007448Y008420D01*
X007190Y008162D01*
X007190Y008105D02*
X006323Y008105D01*
X006322Y007947D02*
X007190Y007947D01*
X007200Y007788D02*
X006321Y007788D01*
X006320Y007630D02*
X007358Y007630D01*
X007390Y007471D02*
X006319Y007471D01*
X006318Y007313D02*
X007390Y007313D01*
X007390Y007154D02*
X006317Y007154D01*
X006316Y006996D02*
X007390Y006996D01*
X007390Y006837D02*
X006315Y006837D01*
X006314Y006679D02*
X007390Y006679D01*
X007390Y006520D02*
X006313Y006520D01*
X006312Y006362D02*
X007390Y006362D01*
X007390Y006203D02*
X006311Y006203D01*
X006310Y006045D02*
X007390Y006045D01*
X007390Y005886D02*
X006309Y005886D01*
X006308Y005728D02*
X007390Y005728D01*
X007390Y005569D02*
X006307Y005569D01*
X006306Y005411D02*
X007390Y005411D01*
X007310Y005252D02*
X006305Y005252D01*
X006304Y005094D02*
X007260Y005094D01*
X007260Y004935D02*
X006303Y004935D01*
X006302Y004777D02*
X007321Y004777D01*
X007480Y004618D02*
X006301Y004618D01*
X007630Y005020D02*
X007700Y005020D01*
X007630Y005020D02*
X007630Y007980D01*
X008070Y007947D02*
X008190Y007947D01*
X008190Y007798D02*
X008448Y007540D01*
X008812Y007540D01*
X009012Y007740D01*
X010298Y007740D01*
X010498Y007540D01*
X010862Y007540D01*
X011120Y007798D01*
X011120Y008162D01*
X010862Y008420D01*
X010498Y008420D01*
X010298Y008220D01*
X009012Y008220D01*
X008812Y008420D01*
X008448Y008420D01*
X008190Y008162D01*
X008190Y007798D01*
X008200Y007788D02*
X008060Y007788D01*
X007902Y007630D02*
X008358Y007630D01*
X007870Y007471D02*
X017300Y007471D01*
X017300Y007313D02*
X007870Y007313D01*
X007870Y007154D02*
X017300Y007154D01*
X017300Y006996D02*
X007870Y006996D01*
X007870Y006837D02*
X017300Y006837D01*
X017300Y006679D02*
X007870Y006679D01*
X007870Y006520D02*
X017300Y006520D01*
X017300Y006362D02*
X007870Y006362D01*
X007870Y006203D02*
X017300Y006203D01*
X017300Y006045D02*
X007870Y006045D01*
X007870Y005886D02*
X017300Y005886D01*
X017300Y005728D02*
X007870Y005728D01*
X007870Y005569D02*
X017300Y005569D01*
X017300Y005411D02*
X016812Y005411D01*
X016772Y005450D02*
X016408Y005450D01*
X016188Y005230D01*
X015162Y005230D01*
X014962Y005430D01*
X014598Y005430D01*
X014340Y005172D01*
X014340Y004808D01*
X014598Y004550D01*
X014962Y004550D01*
X015162Y004750D01*
X016228Y004750D01*
X016408Y004570D01*
X016772Y004570D01*
X017030Y004828D01*
X017030Y005192D01*
X016772Y005450D01*
X016970Y005252D02*
X017210Y005252D01*
X017150Y005094D02*
X017030Y005094D01*
X017030Y004935D02*
X017150Y004935D01*
X017201Y004777D02*
X016979Y004777D01*
X016820Y004618D02*
X017360Y004618D01*
X016590Y004990D02*
X014780Y004990D01*
X014340Y004935D02*
X014220Y004935D01*
X014220Y004808D02*
X014220Y005172D01*
X013962Y005430D01*
X013598Y005430D01*
X013398Y005230D01*
X012122Y005230D01*
X011882Y005470D01*
X011518Y005470D01*
X011260Y005212D01*
X011260Y004848D01*
X011518Y004590D01*
X011882Y004590D01*
X012042Y004750D01*
X013398Y004750D01*
X013598Y004550D01*
X013962Y004550D01*
X014220Y004808D01*
X014189Y004777D02*
X014371Y004777D01*
X014530Y004618D02*
X014030Y004618D01*
X013530Y004618D02*
X011910Y004618D01*
X011490Y004618D02*
X010910Y004618D01*
X010882Y004590D02*
X011140Y004848D01*
X011140Y005212D01*
X010882Y005470D01*
X010518Y005470D01*
X010308Y005260D01*
X009082Y005260D01*
X008882Y005460D01*
X008518Y005460D01*
X008260Y005202D01*
X008260Y004838D01*
X008518Y004580D01*
X008882Y004580D01*
X009082Y004780D01*
X010328Y004780D01*
X010518Y004590D01*
X010882Y004590D01*
X011069Y004777D02*
X011331Y004777D01*
X011260Y004935D02*
X011140Y004935D01*
X011140Y005094D02*
X011260Y005094D01*
X011300Y005252D02*
X011100Y005252D01*
X010942Y005411D02*
X011458Y005411D01*
X011942Y005411D02*
X013578Y005411D01*
X013420Y005252D02*
X012100Y005252D01*
X011700Y005030D02*
X011700Y004990D01*
X013780Y004990D01*
X014140Y005252D02*
X014420Y005252D01*
X014340Y005094D02*
X014220Y005094D01*
X013982Y005411D02*
X014578Y005411D01*
X014982Y005411D02*
X016368Y005411D01*
X016210Y005252D02*
X015140Y005252D01*
X015030Y004618D02*
X016360Y004618D01*
X016590Y004990D02*
X016590Y005010D01*
X017812Y005411D02*
X018000Y005411D01*
X018000Y005569D02*
X017780Y005569D01*
X017780Y005728D02*
X018000Y005728D01*
X018000Y005886D02*
X017780Y005886D01*
X017780Y006045D02*
X018000Y006045D01*
X018000Y006203D02*
X017780Y006203D01*
X017780Y006362D02*
X018000Y006362D01*
X018000Y006520D02*
X017780Y006520D01*
X017780Y006679D02*
X018000Y006679D01*
X018000Y006837D02*
X017780Y006837D01*
X017780Y006996D02*
X018000Y006996D01*
X018000Y007154D02*
X017780Y007154D01*
X017780Y007313D02*
X018000Y007313D01*
X018000Y007471D02*
X017780Y007471D01*
X017780Y007630D02*
X018000Y007630D01*
X018000Y007788D02*
X017890Y007788D01*
X017980Y007947D02*
X018000Y007947D01*
X018000Y008105D02*
X017980Y008105D01*
X017959Y008264D02*
X018000Y008264D01*
X018000Y008422D02*
X017800Y008422D01*
X018000Y008581D02*
X013519Y008581D01*
X013420Y008739D02*
X018000Y008739D01*
X018000Y008898D02*
X013420Y008898D01*
X013420Y009056D02*
X018000Y009056D01*
X017850Y009215D02*
X013420Y009215D01*
X013420Y009373D02*
X017691Y009373D01*
X017600Y009532D02*
X013420Y009532D01*
X013420Y009690D02*
X017600Y009690D01*
X017600Y009849D02*
X015051Y009849D01*
X015042Y009840D02*
X015300Y010098D01*
X015300Y010462D01*
X015042Y010720D01*
X014678Y010720D01*
X014420Y010462D01*
X014420Y010098D01*
X014678Y009840D01*
X015042Y009840D01*
X015209Y010007D02*
X017600Y010007D01*
X017600Y010166D02*
X015300Y010166D01*
X015300Y010324D02*
X017600Y010324D01*
X017600Y010483D02*
X015280Y010483D01*
X015121Y010641D02*
X017600Y010641D01*
X017600Y011117D02*
X016320Y011117D01*
X016320Y011275D02*
X017600Y011275D01*
X017600Y011434D02*
X016320Y011434D01*
X016199Y011592D02*
X017600Y011592D01*
X017600Y011751D02*
X014100Y011751D01*
X014100Y011909D02*
X017600Y011909D01*
X017600Y012068D02*
X014100Y012068D01*
X014100Y012226D02*
X017600Y012226D01*
X017600Y012385D02*
X014100Y012385D01*
X014100Y012543D02*
X017600Y012543D01*
X017600Y012702D02*
X014100Y012702D01*
X014100Y012860D02*
X015000Y012860D01*
X015000Y013019D02*
X014851Y013019D01*
X015280Y013340D02*
X015280Y013390D01*
X014445Y013390D01*
X014861Y013630D02*
X014861Y013752D01*
X014767Y013845D01*
X014122Y013845D01*
X014110Y013833D01*
X014098Y013845D01*
X013453Y013845D01*
X013359Y013752D01*
X013359Y013126D01*
X013359Y013177D02*
X013309Y013177D01*
X013359Y013336D02*
X013150Y013336D01*
X012992Y013494D02*
X013359Y013494D01*
X013359Y013653D02*
X012833Y013653D01*
X012675Y013811D02*
X013419Y013811D01*
X013775Y013390D02*
X013860Y013390D01*
X013860Y011280D01*
X014300Y011275D02*
X015400Y011275D01*
X015400Y011117D02*
X014300Y011117D01*
X014160Y010958D02*
X015531Y010958D01*
X015400Y011434D02*
X014300Y011434D01*
X014170Y011592D02*
X015521Y011592D01*
X015860Y011592D02*
X015860Y011592D01*
X015860Y011434D02*
X015860Y011434D01*
X014599Y010641D02*
X013420Y010641D01*
X013420Y010483D02*
X014440Y010483D01*
X014420Y010324D02*
X013420Y010324D01*
X013420Y010166D02*
X014420Y010166D01*
X014511Y010007D02*
X013420Y010007D01*
X013420Y009849D02*
X014669Y009849D01*
X013180Y008580D02*
X013580Y008180D01*
X013680Y008180D01*
X013680Y008010D01*
X014049Y008264D02*
X014311Y008264D01*
X014240Y008105D02*
X014120Y008105D01*
X013890Y008422D02*
X014470Y008422D01*
X013180Y008580D02*
X013180Y012966D01*
X011684Y014462D01*
X011684Y015190D01*
X011367Y015238D02*
X011293Y015238D01*
X011293Y015396D02*
X011367Y015396D01*
X011429Y015555D02*
X011231Y015555D01*
X011252Y015713D02*
X012976Y015713D01*
X012976Y015872D02*
X011411Y015872D01*
X011569Y016030D02*
X012976Y016030D01*
X012976Y016189D02*
X011728Y016189D01*
X011780Y016580D02*
X013469Y016591D01*
X013490Y015991D01*
X014004Y016030D02*
X015040Y016030D01*
X015040Y016189D02*
X014004Y016189D01*
X014004Y015872D02*
X015000Y015872D01*
X015000Y015713D02*
X014004Y015713D01*
X013949Y015555D02*
X015000Y015555D01*
X015000Y015396D02*
X012002Y015396D01*
X012002Y015238D02*
X012958Y015238D01*
X012956Y015227D02*
X012956Y014966D01*
X013413Y014966D01*
X013413Y015384D01*
X013112Y015384D01*
X013066Y015372D01*
X013025Y015348D01*
X012992Y015314D01*
X012968Y015273D01*
X012956Y015227D01*
X012956Y015079D02*
X012002Y015079D01*
X012002Y014921D02*
X013413Y014921D01*
X013413Y014966D02*
X013413Y014811D01*
X013567Y014811D01*
X013567Y014394D01*
X013868Y014394D01*
X013914Y014406D01*
X013955Y014430D01*
X013988Y014463D01*
X014012Y014504D01*
X014024Y014550D01*
X014024Y014811D01*
X013567Y014811D01*
X013567Y014966D01*
X013413Y014966D01*
X013413Y015079D02*
X013567Y015079D01*
X013567Y014966D02*
X013567Y015384D01*
X013868Y015384D01*
X013914Y015372D01*
X013955Y015348D01*
X013988Y015314D01*
X014012Y015273D01*
X014024Y015227D01*
X014024Y014966D01*
X013567Y014966D01*
X013567Y014921D02*
X015000Y014921D01*
X015000Y015079D02*
X014024Y015079D01*
X014022Y015238D02*
X015000Y015238D01*
X015280Y015400D02*
X015280Y016580D01*
X016780Y016580D01*
X016780Y015400D01*
X017060Y015396D02*
X018284Y015396D01*
X018231Y015238D02*
X017060Y015238D01*
X017060Y015079D02*
X018231Y015079D01*
X018231Y014921D02*
X017060Y014921D01*
X016280Y014921D02*
X016280Y014921D01*
X016280Y015079D02*
X016280Y015079D01*
X016280Y015238D02*
X016280Y015238D01*
X016280Y015396D02*
X016280Y015396D01*
X016280Y015555D02*
X016280Y015555D01*
X016280Y015713D02*
X016280Y015713D01*
X016280Y015872D02*
X016280Y015872D01*
X016540Y016030D02*
X015520Y016030D01*
X015520Y016189D02*
X016540Y016189D01*
X017020Y016189D02*
X018340Y016189D01*
X018340Y016030D02*
X017020Y016030D01*
X017060Y015872D02*
X018340Y015872D01*
X018340Y015713D02*
X017060Y015713D01*
X017060Y015555D02*
X018340Y015555D01*
X018820Y015555D02*
X019298Y015555D01*
X019298Y015530D02*
X018896Y015530D01*
X018820Y015499D01*
X018820Y016340D01*
X025148Y016340D01*
X025148Y016320D01*
X024932Y016320D01*
X024844Y016283D01*
X024777Y016216D01*
X024677Y016116D01*
X024640Y016028D01*
X024640Y014175D01*
X024559Y014094D01*
X024502Y013955D01*
X024502Y013805D01*
X024546Y013698D01*
X021497Y013698D01*
X021394Y013801D01*
X021353Y013818D01*
X021401Y013866D01*
X021458Y014005D01*
X021458Y014155D01*
X021401Y014294D01*
X021320Y014375D01*
X021320Y014428D01*
X021283Y014516D01*
X021216Y014583D01*
X021128Y014620D01*
X020812Y014620D01*
X020812Y014784D01*
X020784Y014813D01*
X020784Y015118D01*
X020747Y015206D01*
X020680Y015274D01*
X020642Y015312D01*
X020642Y015592D01*
X020548Y015686D01*
X020101Y015686D01*
X020007Y015592D01*
X020007Y015228D01*
X019999Y015246D01*
X019933Y015312D01*
X019933Y015592D01*
X019839Y015686D01*
X019392Y015686D01*
X019298Y015592D01*
X019298Y015530D01*
X019616Y015290D02*
X018944Y015290D01*
X018680Y015026D01*
X018580Y015026D01*
X018580Y016580D01*
X025380Y016580D01*
X025780Y016180D01*
X025780Y016046D01*
X025780Y015980D01*
X025680Y015880D01*
X025480Y016080D01*
X024980Y016080D01*
X024880Y015980D01*
X024880Y013880D01*
X024508Y013970D02*
X021444Y013970D01*
X021458Y014128D02*
X024593Y014128D01*
X024640Y014287D02*
X021404Y014287D01*
X021313Y014445D02*
X024640Y014445D01*
X024640Y014604D02*
X021168Y014604D01*
X020812Y014762D02*
X024640Y014762D01*
X024640Y014921D02*
X020784Y014921D01*
X020784Y015079D02*
X024640Y015079D01*
X024640Y015238D02*
X020716Y015238D01*
X020642Y015396D02*
X024640Y015396D01*
X024640Y015555D02*
X020642Y015555D01*
X020324Y015290D02*
X020544Y015070D01*
X020544Y014482D01*
X020580Y014480D01*
X020580Y014380D01*
X021080Y014380D01*
X021080Y014080D01*
X020716Y013970D02*
X018258Y013970D01*
X018232Y013811D02*
X019578Y013811D01*
X019528Y013653D02*
X019127Y013653D01*
X019796Y013458D02*
X019796Y013334D01*
X018680Y013334D01*
X018231Y013336D02*
X018160Y013336D01*
X018160Y013494D02*
X018231Y013494D01*
X018233Y013653D02*
X018160Y013653D01*
X017600Y013653D02*
X017060Y013653D01*
X017060Y013811D02*
X017528Y013811D01*
X017502Y013970D02*
X012516Y013970D01*
X012358Y014128D02*
X017544Y014128D01*
X017704Y014287D02*
X012199Y014287D01*
X012041Y014445D02*
X013010Y014445D01*
X013025Y014430D02*
X013066Y014406D01*
X013112Y014394D01*
X013413Y014394D01*
X013413Y014811D01*
X012956Y014811D01*
X012956Y014550D01*
X012968Y014504D01*
X012992Y014463D01*
X013025Y014430D01*
X012956Y014604D02*
X011932Y014604D01*
X011932Y014762D02*
X012956Y014762D01*
X013413Y014762D02*
X013567Y014762D01*
X013567Y014604D02*
X013413Y014604D01*
X013413Y014445D02*
X013567Y014445D01*
X013970Y014445D02*
X019528Y014445D01*
X019528Y014287D02*
X018056Y014287D01*
X018216Y014128D02*
X019579Y014128D01*
X020013Y014128D02*
X020327Y014128D01*
X020276Y014287D02*
X020064Y014287D01*
X020064Y014445D02*
X020276Y014445D01*
X020276Y014604D02*
X020064Y014604D01*
X020064Y014762D02*
X020276Y014762D01*
X020074Y014921D02*
X020036Y014921D01*
X019528Y014762D02*
X019129Y014762D01*
X019129Y014921D02*
X019365Y014921D01*
X019528Y014604D02*
X014024Y014604D01*
X014024Y014762D02*
X018231Y014762D01*
X019616Y015290D02*
X019796Y015110D01*
X019796Y014482D01*
X020170Y013811D02*
X020170Y013811D01*
X020170Y013653D02*
X020170Y013653D01*
X020170Y013494D02*
X020170Y013494D01*
X019796Y013458D02*
X019796Y012446D01*
X019431Y012446D01*
X020772Y012385D02*
X022625Y012385D01*
X022602Y012226D02*
X020772Y012226D01*
X020772Y012068D02*
X022648Y012068D01*
X022826Y011909D02*
X020772Y011909D01*
X020772Y011275D02*
X023264Y011275D01*
X023264Y011117D02*
X020772Y011117D01*
X020772Y010958D02*
X023264Y010958D01*
X023264Y010874D02*
X023357Y010781D01*
X023990Y010781D01*
X024084Y010874D01*
X024084Y011552D01*
X024205Y011502D01*
X024355Y011502D01*
X024494Y011559D01*
X024601Y011666D01*
X024658Y011805D01*
X024658Y011955D01*
X024620Y012048D01*
X024941Y012048D01*
X025034Y012141D01*
X025034Y012491D01*
X024941Y012584D01*
X024336Y012584D01*
X024307Y012556D01*
X024166Y012556D01*
X024166Y012559D01*
X024072Y012653D01*
X023468Y012653D01*
X023374Y012559D01*
X023374Y012112D01*
X023468Y012018D01*
X023530Y012018D01*
X023530Y011679D01*
X023357Y011679D01*
X023264Y011586D01*
X023264Y010874D01*
X023338Y010800D02*
X020772Y010800D01*
X020772Y010641D02*
X028077Y010641D01*
X028077Y010631D02*
X026663Y009935D01*
X026619Y009916D01*
X026613Y009910D01*
X026606Y009907D01*
X026575Y009870D01*
X026541Y009836D01*
X026538Y009829D01*
X026533Y009823D01*
X026517Y009777D01*
X026499Y009733D01*
X026499Y009725D01*
X026497Y009717D01*
X026500Y009669D01*
X026516Y008248D01*
X026360Y008092D01*
X026360Y007728D01*
X026618Y007470D01*
X026982Y007470D01*
X027240Y007728D01*
X027240Y008092D01*
X027076Y008256D01*
X027062Y009507D01*
X028472Y010201D01*
X028515Y010219D01*
X028522Y010226D01*
X028530Y010230D01*
X028561Y010265D01*
X028594Y010298D01*
X028598Y010307D01*
X028604Y010314D01*
X028619Y010358D01*
X028637Y010401D01*
X028637Y010410D01*
X028640Y010419D01*
X028637Y010466D01*
X028637Y010870D01*
X028915Y010870D01*
X029009Y010964D01*
X029009Y013458D01*
X028915Y013552D01*
X027798Y013552D01*
X027704Y013458D01*
X027704Y010964D01*
X027798Y010870D01*
X028077Y010870D01*
X028077Y010631D01*
X028077Y010800D02*
X025702Y010800D01*
X025776Y010958D02*
X026017Y010958D01*
X026012Y011117D02*
X025776Y011117D01*
X025776Y011275D02*
X026012Y011275D01*
X026012Y011434D02*
X025884Y011434D01*
X025902Y011592D02*
X026012Y011592D01*
X026012Y011751D02*
X025902Y011751D01*
X025902Y011909D02*
X026012Y011909D01*
X026012Y012068D02*
X025984Y012068D01*
X025662Y012316D02*
X026664Y012316D01*
X026664Y012211D01*
X027316Y012226D02*
X027704Y012226D01*
X027704Y012068D02*
X027316Y012068D01*
X027316Y011909D02*
X027704Y011909D01*
X027704Y011751D02*
X027316Y011751D01*
X027316Y011592D02*
X027704Y011592D01*
X027704Y011434D02*
X027316Y011434D01*
X027316Y011275D02*
X027704Y011275D01*
X027704Y011117D02*
X027316Y011117D01*
X027310Y010958D02*
X027710Y010958D01*
X028637Y010800D02*
X029638Y010800D01*
X029587Y010958D02*
X029003Y010958D01*
X029009Y011117D02*
X029587Y011117D01*
X029602Y011275D02*
X029009Y011275D01*
X029009Y011434D02*
X029668Y011434D01*
X029770Y011592D02*
X029009Y011592D01*
X029009Y011751D02*
X029929Y011751D01*
X030831Y011751D02*
X031740Y011751D01*
X031740Y011909D02*
X029009Y011909D01*
X029009Y012068D02*
X031740Y012068D01*
X031740Y012226D02*
X029009Y012226D01*
X029009Y012385D02*
X031740Y012385D01*
X031740Y012543D02*
X029009Y012543D01*
X029009Y012702D02*
X031740Y012702D01*
X031740Y012860D02*
X029009Y012860D01*
X029009Y013019D02*
X031740Y013019D01*
X031740Y013177D02*
X029009Y013177D01*
X029009Y013336D02*
X031740Y013336D01*
X031740Y013494D02*
X028973Y013494D01*
X029076Y013799D02*
X028648Y013799D01*
X028648Y014207D01*
X028648Y014342D01*
X029232Y014342D01*
X029232Y014593D01*
X029220Y014639D01*
X029196Y014680D01*
X029163Y014714D01*
X029122Y014737D01*
X029076Y014750D01*
X028648Y014750D01*
X028648Y014342D01*
X028512Y014342D01*
X028512Y014207D01*
X027928Y014207D01*
X027928Y013956D01*
X027940Y013910D01*
X027964Y013869D01*
X027997Y013835D01*
X028038Y013811D01*
X028084Y013799D01*
X028512Y013799D01*
X028512Y014207D01*
X028648Y014207D01*
X029232Y014207D01*
X029232Y013956D01*
X029220Y013910D01*
X029196Y013869D01*
X029163Y013835D01*
X029122Y013811D01*
X029076Y013799D01*
X029120Y013811D02*
X031740Y013811D01*
X031740Y013653D02*
X025413Y013653D01*
X025571Y013494D02*
X026047Y013494D01*
X026012Y013336D02*
X025730Y013336D01*
X025662Y013064D02*
X025268Y013458D01*
X020980Y013458D01*
X021180Y013480D01*
X020980Y013458D02*
X020544Y013458D01*
X020544Y013438D01*
X020812Y013177D02*
X020948Y013177D01*
X020758Y013019D02*
X022770Y013019D01*
X022770Y012860D02*
X020772Y012860D01*
X020772Y012702D02*
X022770Y012702D01*
X022734Y012543D02*
X020772Y012543D01*
X021412Y013177D02*
X022880Y013177D01*
X023190Y012702D02*
X025246Y012702D01*
X025256Y012860D02*
X025005Y012860D01*
X025034Y013019D02*
X025266Y013019D01*
X025209Y013177D02*
X025034Y013177D01*
X024638Y013064D02*
X023790Y013064D01*
X023770Y013044D01*
X023374Y012543D02*
X023226Y012543D01*
X023335Y012385D02*
X023374Y012385D01*
X023358Y012226D02*
X023374Y012226D01*
X023418Y012068D02*
X023312Y012068D01*
X023134Y011909D02*
X023530Y011909D01*
X023530Y011751D02*
X018160Y011751D01*
X018160Y011592D02*
X023270Y011592D01*
X023264Y011434D02*
X018160Y011434D01*
X020772Y010483D02*
X027776Y010483D01*
X027454Y010324D02*
X020772Y010324D01*
X020743Y010166D02*
X027132Y010166D01*
X026810Y010007D02*
X019711Y010007D01*
X019700Y009849D02*
X026553Y009849D01*
X026499Y009690D02*
X019586Y009690D01*
X019427Y009532D02*
X026502Y009532D01*
X026503Y009373D02*
X019269Y009373D01*
X019160Y009215D02*
X026505Y009215D01*
X026507Y009056D02*
X019160Y009056D01*
X019160Y008898D02*
X026509Y008898D01*
X026511Y008739D02*
X019160Y008739D01*
X019160Y008581D02*
X026512Y008581D01*
X026514Y008422D02*
X019160Y008422D01*
X019160Y008264D02*
X019541Y008264D01*
X019618Y008340D02*
X019360Y008082D01*
X019360Y007718D01*
X019570Y007508D01*
X019570Y005462D01*
X019370Y005262D01*
X019370Y004898D01*
X019628Y004640D01*
X019992Y004640D01*
X020250Y004898D01*
X020250Y005262D01*
X020050Y005462D01*
X020050Y007528D01*
X020240Y007718D01*
X020240Y008082D01*
X019982Y008340D01*
X019618Y008340D01*
X020059Y008264D02*
X020541Y008264D01*
X020618Y008340D02*
X020360Y008082D01*
X020360Y007718D01*
X020618Y007460D01*
X020982Y007460D01*
X021192Y007670D01*
X022358Y007670D01*
X022558Y007470D01*
X022922Y007470D01*
X023180Y007728D01*
X023180Y008092D01*
X022922Y008350D01*
X022558Y008350D01*
X022358Y008150D01*
X021172Y008150D01*
X020982Y008340D01*
X020618Y008340D01*
X021059Y008264D02*
X022471Y008264D01*
X023009Y008264D02*
X023471Y008264D01*
X023558Y008350D02*
X023300Y008092D01*
X023300Y007728D01*
X023558Y007470D01*
X023922Y007470D01*
X024122Y007670D01*
X025418Y007670D01*
X025618Y007470D01*
X025982Y007470D01*
X026240Y007728D01*
X026240Y008092D01*
X025982Y008350D01*
X025618Y008350D01*
X025418Y008150D01*
X024122Y008150D01*
X023922Y008350D01*
X023558Y008350D01*
X024009Y008264D02*
X025531Y008264D01*
X026069Y008264D02*
X026516Y008264D01*
X026373Y008105D02*
X026227Y008105D01*
X026240Y007947D02*
X026360Y007947D01*
X026360Y007788D02*
X026240Y007788D01*
X026142Y007630D02*
X026458Y007630D01*
X026617Y007471D02*
X025983Y007471D01*
X025617Y007471D02*
X023923Y007471D01*
X024082Y007630D02*
X025458Y007630D01*
X025800Y007910D02*
X023740Y007910D01*
X023300Y007947D02*
X023180Y007947D01*
X023167Y008105D02*
X023313Y008105D01*
X023300Y007788D02*
X023180Y007788D01*
X023082Y007630D02*
X023398Y007630D01*
X023557Y007471D02*
X022923Y007471D01*
X022557Y007471D02*
X020993Y007471D01*
X021152Y007630D02*
X022398Y007630D01*
X022740Y007910D02*
X020800Y007910D01*
X020800Y007900D01*
X020360Y007947D02*
X020240Y007947D01*
X020240Y007788D02*
X020360Y007788D01*
X020448Y007630D02*
X020152Y007630D01*
X020050Y007471D02*
X020607Y007471D01*
X020050Y007313D02*
X029400Y007313D01*
X029400Y007471D02*
X026983Y007471D01*
X027142Y007630D02*
X028328Y007630D01*
X028200Y007758D02*
X028458Y007500D01*
X028822Y007500D01*
X029080Y007758D01*
X029080Y008122D01*
X028890Y008312D01*
X028890Y008567D01*
X028790Y008667D01*
X028790Y009294D01*
X028828Y009309D01*
X028951Y009432D01*
X029017Y009593D01*
X029017Y009767D01*
X028951Y009928D01*
X028828Y010051D01*
X028667Y010117D01*
X028493Y010117D01*
X028332Y010051D01*
X028209Y009928D01*
X028143Y009767D01*
X028143Y009593D01*
X028209Y009432D01*
X028332Y009309D01*
X028370Y009294D01*
X028370Y008393D01*
X028420Y008343D01*
X028200Y008122D01*
X028200Y007758D01*
X028200Y007788D02*
X027240Y007788D01*
X027240Y007947D02*
X028200Y007947D01*
X028200Y008105D02*
X027227Y008105D01*
X027076Y008264D02*
X028341Y008264D01*
X028370Y008422D02*
X027074Y008422D01*
X027072Y008581D02*
X028370Y008581D01*
X028370Y008739D02*
X027071Y008739D01*
X027069Y008898D02*
X028370Y008898D01*
X028370Y009056D02*
X027067Y009056D01*
X027065Y009215D02*
X028370Y009215D01*
X028269Y009373D02*
X027063Y009373D01*
X027112Y009532D02*
X028168Y009532D01*
X028143Y009690D02*
X027434Y009690D01*
X027756Y009849D02*
X028177Y009849D01*
X028078Y010007D02*
X028289Y010007D01*
X028399Y010166D02*
X032180Y010166D01*
X032180Y010324D02*
X030627Y010324D01*
X030904Y010483D02*
X032180Y010483D01*
X032180Y010641D02*
X031057Y010641D01*
X031122Y010800D02*
X032180Y010800D01*
X031980Y011074D02*
X031980Y011080D01*
X030380Y011080D01*
X031092Y011434D02*
X031740Y011434D01*
X031740Y011592D02*
X030990Y011592D01*
X031980Y011080D02*
X031980Y016080D01*
X030740Y016080D01*
X030740Y016086D01*
X028580Y016086D01*
X028580Y016086D01*
X028541Y016046D01*
X025780Y016046D01*
X026412Y016347D02*
X027948Y016347D01*
X028006Y016506D02*
X026412Y016506D01*
X026333Y016664D02*
X032180Y016664D01*
X032180Y016506D02*
X029154Y016506D01*
X029212Y016347D02*
X030291Y016347D01*
X031189Y016347D02*
X032180Y016347D01*
X032154Y016823D02*
X013537Y016823D01*
X012161Y016823D02*
X006378Y016823D01*
X006377Y016664D02*
X011525Y016664D01*
X011366Y016506D02*
X006376Y016506D01*
X006375Y016347D02*
X011208Y016347D01*
X011049Y016189D02*
X006374Y016189D01*
X006373Y016030D02*
X010891Y016030D01*
X010756Y015872D02*
X006372Y015872D01*
X006371Y015713D02*
X010736Y015713D01*
X010720Y015555D02*
X010198Y015555D01*
X009830Y015156D02*
X010880Y015156D01*
X010880Y014462D01*
X010916Y014462D01*
X011184Y014445D02*
X011396Y014445D01*
X011396Y014287D02*
X011184Y014287D01*
X011153Y014128D02*
X011427Y014128D01*
X011837Y013970D02*
X006360Y013970D01*
X006361Y014128D02*
X010679Y014128D01*
X010648Y014287D02*
X006362Y014287D01*
X006363Y014445D02*
X010640Y014445D01*
X010640Y014604D02*
X006364Y014604D01*
X006365Y014762D02*
X009459Y014762D01*
X009381Y014921D02*
X006366Y014921D01*
X006367Y015079D02*
X009381Y015079D01*
X009381Y015238D02*
X006368Y015238D01*
X006369Y015396D02*
X009381Y015396D01*
X009462Y015555D02*
X006370Y015555D01*
X006447Y016981D02*
X032010Y016981D01*
X031740Y015713D02*
X031132Y015713D01*
X031740Y015555D02*
X026412Y015555D01*
X026412Y015713D02*
X027958Y015713D01*
X029202Y015713D02*
X030348Y015713D01*
X031740Y015396D02*
X025120Y015396D01*
X025120Y015238D02*
X031740Y015238D01*
X031740Y015079D02*
X025120Y015079D01*
X025120Y014921D02*
X025187Y014921D01*
X025128Y014762D02*
X025120Y014762D01*
X025120Y014604D02*
X025128Y014604D01*
X025120Y014445D02*
X025128Y014445D01*
X025120Y014287D02*
X025700Y014287D01*
X025780Y014314D02*
X028541Y014314D01*
X028580Y014274D01*
X028580Y014394D01*
X030740Y014394D01*
X030785Y014349D02*
X030785Y014439D01*
X030695Y014439D01*
X030695Y014824D01*
X030427Y014824D01*
X030381Y014811D01*
X030340Y014788D01*
X030307Y014754D01*
X030283Y014713D01*
X030271Y014667D01*
X030271Y014439D01*
X030695Y014439D01*
X030695Y014349D01*
X030271Y014349D01*
X030271Y014120D01*
X030283Y014074D01*
X030307Y014033D01*
X030340Y014000D01*
X030381Y013976D01*
X030427Y013964D01*
X030695Y013964D01*
X030695Y014349D01*
X030785Y014349D01*
X031209Y014349D01*
X031209Y014120D01*
X031197Y014074D01*
X031173Y014033D01*
X031140Y014000D01*
X031099Y013976D01*
X031053Y013964D01*
X030785Y013964D01*
X030785Y014349D01*
X030785Y014287D02*
X030695Y014287D01*
X030695Y014445D02*
X030785Y014445D01*
X030785Y014439D02*
X030785Y014824D01*
X031053Y014824D01*
X031099Y014811D01*
X031140Y014788D01*
X031173Y014754D01*
X031197Y014713D01*
X031209Y014667D01*
X031209Y014439D01*
X030785Y014439D01*
X030785Y014604D02*
X030695Y014604D01*
X030695Y014762D02*
X030785Y014762D01*
X031165Y014762D02*
X031740Y014762D01*
X031740Y014604D02*
X031209Y014604D01*
X031209Y014445D02*
X031740Y014445D01*
X031740Y014287D02*
X031209Y014287D01*
X031209Y014128D02*
X031740Y014128D01*
X031740Y013970D02*
X031075Y013970D01*
X030785Y013970D02*
X030695Y013970D01*
X030695Y014128D02*
X030785Y014128D01*
X030405Y013970D02*
X029232Y013970D01*
X029232Y014128D02*
X030271Y014128D01*
X030271Y014287D02*
X028648Y014287D01*
X028512Y014287D02*
X025860Y014287D01*
X025860Y014445D02*
X025700Y014445D01*
X025700Y014604D02*
X025860Y014604D01*
X025860Y014762D02*
X025700Y014762D01*
X025700Y014921D02*
X025860Y014921D01*
X026373Y014921D02*
X031740Y014921D01*
X030315Y014762D02*
X026432Y014762D01*
X026432Y014604D02*
X027930Y014604D01*
X027928Y014593D02*
X027928Y014342D01*
X028512Y014342D01*
X028512Y014750D01*
X028084Y014750D01*
X028038Y014737D01*
X027997Y014714D01*
X027964Y014680D01*
X027940Y014639D01*
X027928Y014593D01*
X027928Y014445D02*
X026432Y014445D01*
X026432Y014128D02*
X027928Y014128D01*
X027928Y013970D02*
X026432Y013970D01*
X026431Y013811D02*
X028040Y013811D01*
X028512Y013811D02*
X028648Y013811D01*
X028648Y013970D02*
X028512Y013970D01*
X028512Y014128D02*
X028648Y014128D01*
X028648Y014445D02*
X028512Y014445D01*
X028512Y014604D02*
X028648Y014604D01*
X029230Y014604D02*
X030271Y014604D01*
X030271Y014445D02*
X029232Y014445D01*
X027740Y013494D02*
X027280Y013494D01*
X027316Y013336D02*
X027704Y013336D01*
X027704Y013177D02*
X027316Y013177D01*
X027316Y013019D02*
X027704Y013019D01*
X027704Y012860D02*
X027316Y012860D01*
X027316Y012702D02*
X027704Y012702D01*
X027704Y012543D02*
X027316Y012543D01*
X027316Y012385D02*
X027704Y012385D01*
X025662Y012316D02*
X025662Y011525D01*
X025366Y011230D01*
X024956Y011275D02*
X024084Y011275D01*
X024084Y011117D02*
X024956Y011117D01*
X024956Y010958D02*
X024084Y010958D01*
X024009Y010800D02*
X025031Y010800D01*
X024956Y011434D02*
X024084Y011434D01*
X023770Y011326D02*
X023674Y011230D01*
X023770Y011326D02*
X023770Y012336D01*
X023790Y012316D01*
X024280Y012316D01*
X024280Y011880D01*
X024636Y011751D02*
X025422Y011751D01*
X025422Y011909D02*
X024658Y011909D01*
X024960Y012068D02*
X025340Y012068D01*
X025266Y012226D02*
X025034Y012226D01*
X025034Y012385D02*
X025266Y012385D01*
X025250Y012543D02*
X024982Y012543D01*
X024638Y012316D02*
X024280Y012316D01*
X024527Y011592D02*
X024963Y011592D01*
X028637Y010641D02*
X029703Y010641D01*
X029856Y010483D02*
X028637Y010483D01*
X028607Y010324D02*
X030133Y010324D01*
X028983Y009849D02*
X032180Y009849D01*
X032180Y010007D02*
X028871Y010007D01*
X029017Y009690D02*
X032180Y009690D01*
X032180Y009532D02*
X028992Y009532D01*
X028891Y009373D02*
X032180Y009373D01*
X032180Y009215D02*
X028790Y009215D01*
X028790Y009056D02*
X032180Y009056D01*
X032180Y008898D02*
X028790Y008898D01*
X028790Y008739D02*
X032180Y008739D01*
X032180Y008581D02*
X028876Y008581D01*
X028890Y008422D02*
X032180Y008422D01*
X032180Y008264D02*
X029939Y008264D01*
X029822Y008380D02*
X029458Y008380D01*
X029200Y008122D01*
X029200Y007758D01*
X029400Y007558D01*
X029400Y005392D01*
X029220Y005212D01*
X029220Y004848D01*
X029478Y004590D01*
X029842Y004590D01*
X030100Y004848D01*
X030100Y005212D01*
X029880Y005432D01*
X029880Y007558D01*
X030080Y007758D01*
X030080Y008122D01*
X029822Y008380D01*
X029341Y008264D02*
X028939Y008264D01*
X029080Y008105D02*
X029200Y008105D01*
X029200Y007947D02*
X029080Y007947D01*
X029080Y007788D02*
X029200Y007788D01*
X029328Y007630D02*
X028952Y007630D01*
X029400Y007154D02*
X020050Y007154D01*
X020050Y006996D02*
X029400Y006996D01*
X029400Y006837D02*
X020050Y006837D01*
X020050Y006679D02*
X029400Y006679D01*
X029400Y006520D02*
X020050Y006520D01*
X020050Y006362D02*
X029400Y006362D01*
X029400Y006203D02*
X020050Y006203D01*
X020050Y006045D02*
X029400Y006045D01*
X029400Y005886D02*
X020050Y005886D01*
X020050Y005728D02*
X029400Y005728D01*
X029400Y005569D02*
X020050Y005569D01*
X020102Y005411D02*
X020518Y005411D01*
X020628Y005520D02*
X020370Y005262D01*
X020370Y004898D01*
X020628Y004640D01*
X020992Y004640D01*
X021192Y004840D01*
X022178Y004840D01*
X022378Y004640D01*
X022742Y004640D01*
X023000Y004898D01*
X023000Y005262D01*
X022742Y005520D01*
X022378Y005520D01*
X022178Y005320D01*
X021192Y005320D01*
X020992Y005520D01*
X020628Y005520D01*
X020370Y005252D02*
X020250Y005252D01*
X020250Y005094D02*
X020370Y005094D01*
X020370Y004935D02*
X020250Y004935D01*
X020129Y004777D02*
X020491Y004777D01*
X020810Y005080D02*
X022560Y005080D01*
X023000Y005094D02*
X023120Y005094D01*
X023120Y005252D02*
X023000Y005252D01*
X023120Y005262D02*
X023120Y004898D01*
X023378Y004640D01*
X023742Y004640D01*
X023922Y004820D01*
X025368Y004820D01*
X025568Y004620D01*
X025932Y004620D01*
X026190Y004878D01*
X026190Y005242D01*
X025932Y005500D01*
X025568Y005500D01*
X025368Y005300D01*
X023962Y005300D01*
X023742Y005520D01*
X023378Y005520D01*
X023120Y005262D01*
X023268Y005411D02*
X022852Y005411D01*
X022268Y005411D02*
X021102Y005411D01*
X019810Y005080D02*
X019810Y007900D01*
X019800Y007900D01*
X019360Y007947D02*
X019160Y007947D01*
X019160Y008105D02*
X019383Y008105D01*
X019360Y007788D02*
X019160Y007788D01*
X019160Y007630D02*
X019448Y007630D01*
X019570Y007471D02*
X019160Y007471D01*
X019160Y007313D02*
X019570Y007313D01*
X019570Y007154D02*
X019160Y007154D01*
X019160Y006996D02*
X019570Y006996D01*
X019570Y006837D02*
X019160Y006837D01*
X019160Y006679D02*
X019570Y006679D01*
X019570Y006520D02*
X019160Y006520D01*
X019160Y006362D02*
X019570Y006362D01*
X019570Y006203D02*
X019160Y006203D01*
X019160Y006045D02*
X019570Y006045D01*
X019570Y005886D02*
X019160Y005886D01*
X019160Y005728D02*
X019570Y005728D01*
X019570Y005569D02*
X019160Y005569D01*
X019160Y005411D02*
X019518Y005411D01*
X019370Y005252D02*
X019160Y005252D01*
X019160Y005094D02*
X019370Y005094D01*
X019370Y004935D02*
X019160Y004935D01*
X019160Y004777D02*
X019491Y004777D01*
X019160Y004618D02*
X028450Y004618D01*
X028478Y004590D02*
X028842Y004590D01*
X029100Y004848D01*
X029100Y005212D01*
X028842Y005470D01*
X028478Y005470D01*
X028308Y005300D01*
X027132Y005300D01*
X026932Y005500D01*
X026568Y005500D01*
X026310Y005242D01*
X026310Y004878D01*
X026568Y004620D01*
X026932Y004620D01*
X027132Y004820D01*
X028248Y004820D01*
X028478Y004590D01*
X028291Y004777D02*
X027089Y004777D01*
X026750Y005060D02*
X028660Y005060D01*
X028660Y005030D01*
X029100Y005094D02*
X029220Y005094D01*
X029220Y004935D02*
X029100Y004935D01*
X029029Y004777D02*
X029291Y004777D01*
X029450Y004618D02*
X028870Y004618D01*
X029640Y005030D02*
X029660Y005030D01*
X029640Y005030D02*
X029640Y007940D01*
X030080Y007947D02*
X032180Y007947D01*
X032180Y008105D02*
X030080Y008105D01*
X030080Y007788D02*
X032180Y007788D01*
X032180Y007630D02*
X029952Y007630D01*
X029880Y007471D02*
X032180Y007471D01*
X032180Y007313D02*
X029880Y007313D01*
X029880Y007154D02*
X032180Y007154D01*
X032180Y006996D02*
X029880Y006996D01*
X029880Y006837D02*
X032180Y006837D01*
X032180Y006679D02*
X029880Y006679D01*
X029880Y006520D02*
X032180Y006520D01*
X032180Y006362D02*
X029880Y006362D01*
X029880Y006203D02*
X032180Y006203D01*
X032180Y006045D02*
X029880Y006045D01*
X029880Y005886D02*
X032180Y005886D01*
X032180Y005728D02*
X029880Y005728D01*
X029880Y005569D02*
X032180Y005569D01*
X032180Y005411D02*
X029902Y005411D01*
X030060Y005252D02*
X032180Y005252D01*
X032180Y005094D02*
X030100Y005094D01*
X030100Y004935D02*
X032180Y004935D01*
X032180Y004777D02*
X030029Y004777D01*
X029870Y004618D02*
X032180Y004618D01*
X032180Y004460D02*
X019160Y004460D01*
X019160Y004301D02*
X032180Y004301D01*
X032180Y004143D02*
X019215Y004143D01*
X019373Y003984D02*
X032180Y003984D01*
X032180Y003826D02*
X019532Y003826D01*
X019057Y003509D02*
X018560Y003509D01*
X018560Y003667D02*
X018898Y003667D01*
X018740Y003826D02*
X018560Y003826D01*
X018560Y003984D02*
X018617Y003984D01*
X018600Y004143D02*
X018560Y004143D01*
X018560Y004301D02*
X018600Y004301D01*
X018600Y004460D02*
X018560Y004460D01*
X018560Y004618D02*
X018600Y004618D01*
X018600Y004777D02*
X018560Y004777D01*
X018560Y004935D02*
X018600Y004935D01*
X018600Y005094D02*
X018560Y005094D01*
X018560Y005252D02*
X018600Y005252D01*
X018600Y005411D02*
X018560Y005411D01*
X018560Y005569D02*
X018600Y005569D01*
X018600Y005728D02*
X018560Y005728D01*
X018560Y005886D02*
X018600Y005886D01*
X018600Y006045D02*
X018560Y006045D01*
X018560Y006203D02*
X018600Y006203D01*
X018600Y006362D02*
X018560Y006362D01*
X018560Y006520D02*
X018600Y006520D01*
X018600Y006679D02*
X018560Y006679D01*
X018560Y006837D02*
X018600Y006837D01*
X018600Y006996D02*
X018560Y006996D01*
X018560Y007154D02*
X018600Y007154D01*
X018600Y007313D02*
X018560Y007313D01*
X018560Y007471D02*
X018600Y007471D01*
X018600Y007630D02*
X018560Y007630D01*
X018560Y007788D02*
X018600Y007788D01*
X018600Y007947D02*
X018560Y007947D01*
X018560Y008105D02*
X018600Y008105D01*
X018600Y008264D02*
X018560Y008264D01*
X018560Y008422D02*
X018600Y008422D01*
X018600Y008581D02*
X018560Y008581D01*
X018560Y008739D02*
X018600Y008739D01*
X018600Y008898D02*
X018560Y008898D01*
X018560Y009056D02*
X018600Y009056D01*
X018600Y009215D02*
X018560Y009215D01*
X018600Y009373D02*
X018483Y009373D01*
X018640Y009532D02*
X018324Y009532D01*
X018166Y009690D02*
X018794Y009690D01*
X018953Y009849D02*
X018160Y009849D01*
X018160Y010007D02*
X019111Y010007D01*
X020217Y008105D02*
X020383Y008105D01*
X017300Y007630D02*
X016732Y007630D01*
X016890Y007788D02*
X017190Y007788D01*
X017100Y007947D02*
X016980Y007947D01*
X016348Y007630D02*
X014922Y007630D01*
X011408Y007630D02*
X010952Y007630D01*
X011110Y007788D02*
X011250Y007788D01*
X011240Y007947D02*
X011120Y007947D01*
X011120Y008105D02*
X011240Y008105D01*
X011320Y008264D02*
X011019Y008264D01*
X010680Y007980D02*
X008630Y007980D01*
X008969Y008264D02*
X010341Y008264D01*
X010408Y007630D02*
X008902Y007630D01*
X008190Y008105D02*
X008070Y008105D01*
X007969Y008264D02*
X008291Y008264D01*
X008468Y005411D02*
X007932Y005411D01*
X008090Y005252D02*
X008310Y005252D01*
X008260Y005094D02*
X008140Y005094D01*
X008140Y004935D02*
X008260Y004935D01*
X008321Y004777D02*
X008079Y004777D01*
X007920Y004618D02*
X008480Y004618D01*
X008920Y004618D02*
X010490Y004618D01*
X010331Y004777D02*
X009079Y004777D01*
X008700Y005020D02*
X010700Y005020D01*
X010700Y005030D01*
X010458Y005411D02*
X008932Y005411D01*
X010883Y002399D02*
X011477Y002399D01*
X011498Y002420D02*
X011240Y002162D01*
X011240Y001798D01*
X011498Y001540D01*
X011862Y001540D01*
X012062Y001740D01*
X013298Y001740D01*
X013498Y001540D01*
X013862Y001540D01*
X014120Y001798D01*
X014120Y002162D01*
X013862Y002420D01*
X013498Y002420D01*
X013298Y002220D01*
X012062Y002220D01*
X011862Y002420D01*
X011498Y002420D01*
X011318Y002241D02*
X011042Y002241D01*
X011120Y002082D02*
X011240Y002082D01*
X011240Y001924D02*
X011120Y001924D01*
X011087Y001765D02*
X011273Y001765D01*
X011431Y001607D02*
X010929Y001607D01*
X011680Y001980D02*
X013680Y001980D01*
X014120Y001924D02*
X014240Y001924D01*
X014240Y001798D02*
X014498Y001540D01*
X014862Y001540D01*
X015062Y001740D01*
X016298Y001740D01*
X016498Y001540D01*
X016862Y001540D01*
X017120Y001798D01*
X017120Y002162D01*
X016862Y002420D01*
X016498Y002420D01*
X016298Y002220D01*
X015062Y002220D01*
X014862Y002420D01*
X014498Y002420D01*
X014240Y002162D01*
X014240Y001798D01*
X014273Y001765D02*
X014087Y001765D01*
X013929Y001607D02*
X014431Y001607D01*
X014929Y001607D02*
X016431Y001607D01*
X016680Y001980D02*
X014680Y001980D01*
X015042Y002241D02*
X016318Y002241D01*
X016477Y002399D02*
X014883Y002399D01*
X014477Y002399D02*
X013883Y002399D01*
X014042Y002241D02*
X014318Y002241D01*
X014240Y002082D02*
X014120Y002082D01*
X013477Y002399D02*
X011883Y002399D01*
X012042Y002241D02*
X013318Y002241D01*
X013431Y001607D02*
X011929Y001607D01*
X016929Y001607D02*
X017431Y001607D01*
X017273Y001765D02*
X017087Y001765D01*
X017120Y001924D02*
X017240Y001924D01*
X017240Y002082D02*
X017120Y002082D01*
X017042Y002241D02*
X017318Y002241D01*
X017477Y002399D02*
X016883Y002399D01*
X018120Y001924D02*
X019440Y001924D01*
X019440Y002082D02*
X018178Y002082D01*
X018336Y002241D02*
X019518Y002241D01*
X019677Y002399D02*
X018495Y002399D01*
X018560Y002558D02*
X020600Y002558D01*
X020600Y002716D02*
X018560Y002716D01*
X018560Y002875D02*
X020600Y002875D01*
X020600Y003033D02*
X018560Y003033D01*
X018560Y003192D02*
X019374Y003192D01*
X019215Y003350D02*
X018560Y003350D01*
X020083Y002399D02*
X020600Y002399D01*
X020518Y002241D02*
X020242Y002241D01*
X020320Y002082D02*
X020440Y002082D01*
X020440Y001924D02*
X020320Y001924D01*
X020287Y001765D02*
X020473Y001765D01*
X020631Y001607D02*
X020129Y001607D01*
X020120Y001448D02*
X023440Y001448D01*
X023431Y001607D02*
X022929Y001607D01*
X023087Y001765D02*
X023273Y001765D01*
X023240Y001924D02*
X023120Y001924D01*
X022680Y002280D02*
X022701Y002322D01*
X022726Y002363D01*
X022754Y002401D01*
X022784Y002438D01*
X022818Y002471D01*
X022854Y002502D01*
X022892Y002530D01*
X022932Y002555D01*
X022974Y002577D01*
X023018Y002596D01*
X023063Y002610D01*
X023109Y002622D01*
X023156Y002629D01*
X023203Y002633D01*
X023250Y002634D01*
X023298Y002630D01*
X023345Y002623D01*
X023391Y002612D01*
X023436Y002598D01*
X023480Y002580D01*
X026380Y002680D01*
X026579Y002875D02*
X027994Y002875D01*
X027804Y002716D02*
X026796Y002716D01*
X026853Y002672D02*
X026853Y002672D01*
X026853Y002672D01*
X026919Y002558D02*
X027690Y002558D01*
X027607Y002425D02*
X027607Y002425D01*
X027600Y002399D02*
X027009Y002399D01*
X027013Y002392D02*
X027013Y002392D01*
X027142Y002241D02*
X027560Y002241D01*
X027533Y002082D02*
X027220Y002082D01*
X027220Y001924D02*
X027540Y001924D01*
X027535Y001765D02*
X027187Y001765D01*
X027780Y001780D02*
X027775Y001732D01*
X027765Y001684D01*
X027753Y001637D01*
X027736Y001591D01*
X027717Y001546D01*
X027694Y001503D01*
X027668Y001462D01*
X027639Y001422D01*
X027607Y001386D01*
X027573Y001351D01*
X027536Y001319D01*
X027496Y001291D01*
X027455Y001265D01*
X027412Y001242D01*
X027367Y001223D01*
X027321Y001207D01*
X027274Y001194D01*
X027226Y001185D01*
X027177Y001180D01*
X027129Y001178D01*
X027080Y001180D01*
X026380Y001180D01*
X026134Y000973D02*
X023895Y000973D01*
X023920Y001131D02*
X025841Y001131D01*
X025683Y001290D02*
X023920Y001290D01*
X023920Y001448D02*
X025608Y001448D01*
X025668Y001304D02*
X025668Y001304D01*
X025531Y001607D02*
X023929Y001607D01*
X024087Y001765D02*
X025373Y001765D01*
X025340Y001924D02*
X024120Y001924D01*
X024120Y002082D02*
X025340Y002082D01*
X025418Y002241D02*
X024042Y002241D01*
X023680Y001980D02*
X023680Y001080D01*
X019880Y001080D01*
X019880Y001980D01*
X019473Y001765D02*
X018087Y001765D01*
X017929Y001607D02*
X019631Y001607D01*
X021129Y001607D02*
X022431Y001607D01*
X022273Y001765D02*
X021287Y001765D01*
X021320Y001924D02*
X022240Y001924D01*
X022240Y002082D02*
X021320Y002082D01*
X021242Y002241D02*
X022318Y002241D01*
X022470Y002399D02*
X021160Y002399D01*
X021160Y002558D02*
X022558Y002558D01*
X022531Y002532D02*
X022531Y002532D01*
X022728Y002716D02*
X021160Y002716D01*
X021160Y002875D02*
X023078Y002875D01*
X023234Y002875D02*
X025057Y002875D01*
X025195Y002399D02*
X025577Y002399D01*
X025983Y002399D02*
X026411Y002399D01*
X026418Y002241D02*
X026142Y002241D01*
X026380Y002680D02*
X026423Y002666D01*
X026464Y002650D01*
X026504Y002630D01*
X026543Y002607D01*
X026579Y002581D01*
X026613Y002552D01*
X026645Y002521D01*
X026675Y002487D01*
X026701Y002451D01*
X026725Y002413D01*
X026746Y002373D01*
X026763Y002332D01*
X026777Y002289D01*
X026788Y002246D01*
X026795Y002202D01*
X026799Y002157D01*
X026800Y002113D01*
X026797Y002068D01*
X026790Y002024D01*
X026780Y001980D01*
X026340Y001924D02*
X026220Y001924D01*
X026220Y002082D02*
X026340Y002082D01*
X025780Y001780D02*
X025782Y001733D01*
X025787Y001686D01*
X025797Y001640D01*
X025809Y001595D01*
X025826Y001550D01*
X025845Y001508D01*
X025868Y001467D01*
X025895Y001427D01*
X025924Y001390D01*
X025956Y001356D01*
X025990Y001324D01*
X026027Y001295D01*
X026067Y001268D01*
X026108Y001245D01*
X026150Y001226D01*
X026195Y001209D01*
X026240Y001197D01*
X026286Y001187D01*
X026333Y001182D01*
X026380Y001180D01*
X026259Y001448D02*
X027281Y001448D01*
X027474Y001607D02*
X027029Y001607D01*
X026531Y001607D02*
X026070Y001607D01*
X026187Y001765D02*
X026373Y001765D01*
X025780Y001780D02*
X025780Y001980D01*
X027780Y001980D02*
X027780Y001780D01*
X027780Y001980D02*
X027778Y002034D01*
X027780Y002087D01*
X027786Y002141D01*
X027796Y002193D01*
X027809Y002245D01*
X027827Y002296D01*
X027847Y002346D01*
X027872Y002394D01*
X027899Y002440D01*
X027930Y002484D01*
X027964Y002525D01*
X028001Y002564D01*
X028040Y002601D01*
X028082Y002634D01*
X028126Y002665D01*
X028173Y002692D01*
X028221Y002716D01*
X028271Y002736D01*
X028322Y002753D01*
X028374Y002766D01*
X028427Y002775D01*
X028480Y002780D01*
X028980Y002780D01*
X028307Y003009D02*
X028307Y003009D01*
X027774Y002691D02*
X027774Y002691D01*
X027774Y002691D01*
X026411Y004777D02*
X026089Y004777D01*
X026190Y004935D02*
X026310Y004935D01*
X026310Y005094D02*
X026190Y005094D01*
X026180Y005252D02*
X026320Y005252D01*
X026478Y005411D02*
X026022Y005411D01*
X025478Y005411D02*
X023852Y005411D01*
X023560Y005080D02*
X023560Y005060D01*
X025750Y005060D01*
X025411Y004777D02*
X023879Y004777D01*
X023241Y004777D02*
X022879Y004777D01*
X023000Y004935D02*
X023120Y004935D01*
X022241Y004777D02*
X021129Y004777D01*
X020747Y003667D02*
X032180Y003667D01*
X032180Y003509D02*
X020947Y003509D01*
X021106Y003350D02*
X032180Y003350D01*
X032180Y003192D02*
X021160Y003192D01*
X021160Y003033D02*
X032180Y003033D01*
X029260Y005252D02*
X029060Y005252D01*
X028902Y005411D02*
X029400Y005411D01*
X028418Y005411D02*
X027022Y005411D01*
X023426Y002868D02*
X023426Y002868D01*
X022776Y002761D02*
X022776Y002761D01*
X022680Y002280D02*
X022680Y001980D01*
X023042Y002241D02*
X023318Y002241D01*
X023240Y002082D02*
X023120Y002082D01*
X018000Y005252D02*
X017970Y005252D01*
X015780Y012725D02*
X015780Y013340D01*
X015780Y013340D01*
X015780Y013955D01*
X015636Y013955D01*
X015591Y013943D01*
X015549Y013919D01*
X015516Y013886D01*
X015516Y013885D01*
X015466Y013935D01*
X015094Y013935D01*
X015000Y013841D01*
X015000Y013630D01*
X014861Y013630D01*
X014861Y013653D02*
X015000Y013653D01*
X015000Y013811D02*
X014801Y013811D01*
X015780Y013811D02*
X015780Y013811D01*
X015780Y013653D02*
X015780Y013653D01*
X015780Y013494D02*
X015780Y013494D01*
X015780Y013340D02*
X015780Y013340D01*
X015780Y012725D01*
X015780Y012860D02*
X015780Y012860D01*
X015780Y013019D02*
X015780Y013019D01*
X015780Y013177D02*
X015780Y013177D01*
X015780Y013336D02*
X015780Y013336D01*
X017060Y013336D02*
X017600Y013336D01*
X017600Y013494D02*
X017060Y013494D01*
X017060Y013177D02*
X017600Y013177D01*
X017600Y013019D02*
X017060Y013019D01*
X017060Y012860D02*
X017600Y012860D01*
X018160Y013177D02*
X018231Y013177D01*
X020762Y013811D02*
X020814Y013811D01*
X021369Y013811D02*
X024502Y013811D01*
X025700Y013811D02*
X025860Y013811D01*
X025860Y013970D02*
X025700Y013970D01*
X025700Y014128D02*
X025860Y014128D01*
X025148Y015555D02*
X025120Y015555D01*
X025120Y015713D02*
X025148Y015713D01*
X024640Y015713D02*
X018820Y015713D01*
X018820Y015872D02*
X024640Y015872D01*
X024641Y016030D02*
X018820Y016030D01*
X018820Y016189D02*
X024749Y016189D01*
X020007Y015555D02*
X019933Y015555D01*
X019933Y015396D02*
X020007Y015396D01*
X020003Y015238D02*
X020007Y015238D01*
X018580Y016580D02*
X016780Y016580D01*
X015780Y015872D02*
X015780Y015872D01*
X015780Y015713D02*
X015780Y015713D01*
X015780Y015555D02*
X015780Y015555D01*
X015780Y015396D02*
X015780Y015396D01*
X015780Y015238D02*
X015780Y015238D01*
X015780Y015079D02*
X015780Y015079D01*
X015780Y014921D02*
X015780Y014921D01*
X013567Y015238D02*
X013413Y015238D01*
X013031Y015555D02*
X011940Y015555D01*
X011042Y015156D02*
X010880Y015156D01*
X010976Y015156D02*
X010976Y015190D01*
X010976Y015776D01*
X011780Y016580D01*
X015280Y016580D01*
X011367Y015079D02*
X011293Y015079D01*
X011293Y014921D02*
X011367Y014921D01*
X011396Y014762D02*
X011184Y014762D01*
X011184Y014604D02*
X011396Y014604D01*
X011664Y014462D02*
X011684Y014462D01*
X010640Y014762D02*
X010201Y014762D01*
X010976Y015190D02*
X011042Y015156D01*
X011290Y013854D02*
X011290Y013438D01*
X011290Y013438D01*
X011290Y013854D01*
X011290Y013811D02*
X011290Y013811D01*
X011290Y013653D02*
X011290Y013653D01*
X011290Y013494D02*
X011290Y013494D01*
X011664Y013438D02*
X011680Y013480D01*
X012080Y013480D01*
X012429Y013336D02*
X012471Y013336D01*
X012312Y013177D02*
X012630Y013177D01*
X012788Y013019D02*
X011732Y013019D01*
X011732Y012860D02*
X012940Y012860D01*
X012940Y012702D02*
X011732Y012702D01*
X011862Y013811D02*
X011891Y013811D01*
X010718Y013811D02*
X010248Y013811D01*
D25*
X030380Y012780D03*
X030380Y011080D03*
D26*
X024880Y013880D03*
X022980Y012254D03*
X024280Y011880D03*
X021180Y013480D03*
X021080Y014080D03*
X022080Y015580D03*
X017880Y013950D03*
X012080Y013480D03*
D27*
X017880Y013950D02*
X017880Y009580D01*
X018280Y009180D01*
X018280Y002580D01*
X017680Y001980D01*
X019561Y003400D02*
X020660Y003400D01*
X020880Y003180D01*
X020880Y001980D01*
X019561Y003400D02*
X018880Y004081D01*
X018880Y009380D01*
X019431Y009931D01*
X019431Y010753D01*
X026780Y009680D02*
X026800Y007910D01*
X026780Y009680D02*
X028357Y010457D01*
X028357Y012211D01*
D28*
X011680Y009504D02*
X011680Y007980D01*
X011680Y009504D02*
X010391Y010793D01*
D29*
X022980Y012254D02*
X022980Y012980D01*
X023706Y012980D01*
X023770Y013044D01*
X028580Y009680D02*
X028580Y008480D01*
X028680Y008480D01*
X028680Y007980D01*
X028640Y007940D01*
D30*
X028580Y009680D03*
M02*
