G75*
%MOIN*%
%OFA0B0*%
%FSLAX24Y24*%
%IPPOS*%
%LPD*%
%AMOC8*
5,1,8,0,0,1.08239X$1,22.5*
%
%ADD10C,0.1380*%
%ADD11R,0.0297X0.0552*%
%ADD12R,0.0395X0.0552*%
%ADD13R,0.0789X0.0710*%
%ADD14R,0.2442X0.1064*%
%ADD15R,0.0659X0.0580*%
%ADD16OC8,0.0640*%
%ADD17R,0.0552X0.0297*%
%ADD18R,0.0552X0.0395*%
%ADD19R,0.1064X0.2442*%
%ADD20R,0.0580X0.0659*%
%ADD21R,0.0320X0.0950*%
%ADD22R,0.0592X0.0671*%
%ADD23R,0.1025X0.1025*%
%ADD24R,0.1025X0.0671*%
%ADD25C,0.1346*%
%ADD26C,0.0634*%
D10*
X002680Y008180D03*
X034680Y008180D03*
D11*
X020544Y013458D03*
X020170Y013458D03*
X019796Y013458D03*
X019796Y014482D03*
X020544Y014482D03*
X011664Y014462D03*
X010916Y014462D03*
X010916Y013438D03*
X011290Y013438D03*
X011664Y013438D03*
D12*
X011684Y015190D03*
X010976Y015190D03*
X019616Y015290D03*
X020324Y015290D03*
D13*
X013490Y014889D03*
X013490Y015991D03*
D14*
X010391Y012486D03*
X010391Y010793D03*
X019431Y010753D03*
X019431Y012446D03*
D15*
X018680Y013334D03*
X018680Y015026D03*
X009830Y015156D03*
X009830Y013464D03*
X030740Y014394D03*
X030740Y016086D03*
D16*
X007680Y001980D03*
X008680Y001980D03*
X010680Y001980D03*
X011680Y001980D03*
X013680Y001980D03*
X014680Y001980D03*
X016680Y001980D03*
X017680Y001980D03*
X019880Y001980D03*
X020880Y001980D03*
X022680Y001980D03*
X023680Y001980D03*
X025780Y001980D03*
X026780Y001980D03*
X028780Y001980D03*
X029780Y001980D03*
X029660Y005030D03*
X028660Y005030D03*
X026750Y005060D03*
X025750Y005060D03*
X023560Y005080D03*
X022560Y005080D03*
X020810Y005080D03*
X019810Y005080D03*
X017590Y005010D03*
X016590Y005010D03*
X014780Y004990D03*
X013780Y004990D03*
X011700Y005030D03*
X010700Y005030D03*
X008700Y005020D03*
X007700Y005020D03*
X007630Y007980D03*
X008630Y007980D03*
X010680Y007980D03*
X011680Y007980D03*
X013680Y008010D03*
X014680Y008010D03*
X016540Y008060D03*
X017540Y008060D03*
X019800Y007900D03*
X020800Y007900D03*
X022740Y007910D03*
X023740Y007910D03*
X025800Y007910D03*
X026800Y007910D03*
X028640Y007940D03*
X029640Y007940D03*
X015860Y011280D03*
X014860Y010280D03*
X013860Y011280D03*
D17*
X024638Y012316D03*
X025662Y012316D03*
X025662Y012690D03*
X025662Y013064D03*
X024638Y013064D03*
D18*
X023770Y013044D03*
X023770Y012336D03*
D19*
X026664Y012211D03*
X028357Y012211D03*
D20*
X025366Y011230D03*
X023674Y011230D03*
D21*
X016780Y013340D03*
X016280Y013340D03*
X015780Y013340D03*
X015280Y013340D03*
X015280Y015400D03*
X015780Y015400D03*
X016280Y015400D03*
X016780Y015400D03*
D22*
X014445Y013390D03*
X013775Y013390D03*
D23*
X025780Y014314D03*
X025780Y016046D03*
D24*
X028580Y016086D03*
X028580Y014274D03*
D25*
X030380Y012780D03*
X030380Y011080D03*
D26*
X028580Y009680D03*
M02*
