G75*
%MOIN*%
%OFA0B0*%
%FSLAX24Y24*%
%IPPOS*%
%LPD*%
%AMOC8*
5,1,8,0,0,1.08239X$1,22.5*
%
%ADD10C,0.0100*%
%ADD11C,0.0098*%
%ADD12R,0.0059X0.0118*%
%ADD13R,0.0118X0.0118*%
%ADD14R,0.0270X0.0010*%
%ADD15R,0.0500X0.0010*%
%ADD16R,0.0680X0.0010*%
%ADD17R,0.0370X0.0010*%
%ADD18R,0.0340X0.0010*%
%ADD19R,0.0280X0.0010*%
%ADD20R,0.0240X0.0010*%
%ADD21R,0.0220X0.0010*%
%ADD22R,0.0210X0.0010*%
%ADD23R,0.0190X0.0010*%
%ADD24R,0.0180X0.0010*%
%ADD25R,0.0160X0.0010*%
%ADD26R,0.0150X0.0010*%
%ADD27R,0.0140X0.0010*%
%ADD28R,0.0130X0.0010*%
%ADD29R,0.0120X0.0010*%
%ADD30R,0.0110X0.0010*%
%ADD31R,0.0100X0.0010*%
%ADD32R,0.0090X0.0010*%
%ADD33R,0.0080X0.0010*%
%ADD34R,0.0070X0.0010*%
%ADD35R,0.0060X0.0010*%
%ADD36R,0.0050X0.0010*%
%ADD37R,0.0040X0.0010*%
%ADD38R,0.0030X0.0010*%
%ADD39R,0.0350X0.0010*%
%ADD40R,0.0520X0.0010*%
%ADD41R,0.0660X0.0010*%
%ADD42R,0.0410X0.0010*%
%ADD43R,0.0320X0.0010*%
%ADD44R,0.0250X0.0010*%
%ADD45R,0.0200X0.0010*%
%ADD46R,0.0260X0.0010*%
%ADD47R,0.0310X0.0010*%
%ADD48R,0.0230X0.0010*%
%ADD49R,0.0170X0.0010*%
%ADD50R,0.0020X0.0010*%
%ADD51R,0.0010X0.0010*%
%ADD52R,0.0330X0.0010*%
%ADD53C,0.0240*%
%ADD54R,0.0028X0.0001*%
%ADD55R,0.0026X0.0001*%
%ADD56R,0.0042X0.0001*%
%ADD57R,0.0038X0.0001*%
%ADD58R,0.0053X0.0001*%
%ADD59R,0.0047X0.0001*%
%ADD60R,0.0060X0.0001*%
%ADD61R,0.0055X0.0001*%
%ADD62R,0.0068X0.0001*%
%ADD63R,0.0061X0.0001*%
%ADD64R,0.0049X0.0001*%
%ADD65R,0.0050X0.0001*%
%ADD66R,0.0051X0.0001*%
%ADD67R,0.0073X0.0001*%
%ADD68R,0.0046X0.0001*%
%ADD69R,0.0067X0.0001*%
%ADD70R,0.0032X0.0001*%
%ADD71R,0.0172X0.0001*%
%ADD72R,0.0056X0.0001*%
%ADD73R,0.0049X0.0001*%
%ADD74R,0.0050X0.0001*%
%ADD75R,0.0051X0.0001*%
%ADD76R,0.0079X0.0001*%
%ADD77R,0.0049X0.0001*%
%ADD78R,0.0047X0.0001*%
%ADD79R,0.0051X0.0001*%
%ADD80R,0.0072X0.0001*%
%ADD81R,0.0031X0.0001*%
%ADD82R,0.0172X0.0001*%
%ADD83R,0.0057X0.0001*%
%ADD84R,0.0084X0.0001*%
%ADD85R,0.0046X0.0001*%
%ADD86R,0.0077X0.0001*%
%ADD87R,0.0032X0.0001*%
%ADD88R,0.0058X0.0001*%
%ADD89R,0.0089X0.0001*%
%ADD90R,0.0081X0.0001*%
%ADD91R,0.0093X0.0001*%
%ADD92R,0.0085X0.0001*%
%ADD93R,0.0059X0.0001*%
%ADD94R,0.0048X0.0001*%
%ADD95R,0.0097X0.0001*%
%ADD96R,0.0053X0.0001*%
%ADD97R,0.0089X0.0001*%
%ADD98R,0.0033X0.0001*%
%ADD99R,0.0172X0.0001*%
%ADD100R,0.0060X0.0001*%
%ADD101R,0.0048X0.0001*%
%ADD102R,0.0101X0.0001*%
%ADD103R,0.0046X0.0001*%
%ADD104R,0.0092X0.0001*%
%ADD105R,0.0172X0.0001*%
%ADD106R,0.0105X0.0001*%
%ADD107R,0.0054X0.0001*%
%ADD108R,0.0096X0.0001*%
%ADD109R,0.0033X0.0001*%
%ADD110R,0.0108X0.0001*%
%ADD111R,0.0099X0.0001*%
%ADD112R,0.0062X0.0001*%
%ADD113R,0.0111X0.0001*%
%ADD114R,0.0056X0.0001*%
%ADD115R,0.0102X0.0001*%
%ADD116R,0.0061X0.0001*%
%ADD117R,0.0049X0.0001*%
%ADD118R,0.0115X0.0001*%
%ADD119R,0.0047X0.0001*%
%ADD120R,0.0105X0.0001*%
%ADD121R,0.0034X0.0001*%
%ADD122R,0.0062X0.0001*%
%ADD123R,0.0118X0.0001*%
%ADD124R,0.0034X0.0001*%
%ADD125R,0.0063X0.0001*%
%ADD126R,0.0121X0.0001*%
%ADD127R,0.0057X0.0001*%
%ADD128R,0.0110X0.0001*%
%ADD129R,0.0033X0.0001*%
%ADD130R,0.0123X0.0001*%
%ADD131R,0.0058X0.0001*%
%ADD132R,0.0113X0.0001*%
%ADD133R,0.0034X0.0001*%
%ADD134R,0.0064X0.0001*%
%ADD135R,0.0126X0.0001*%
%ADD136R,0.0115X0.0001*%
%ADD137R,0.0065X0.0001*%
%ADD138R,0.0047X0.0001*%
%ADD139R,0.0128X0.0001*%
%ADD140R,0.0059X0.0001*%
%ADD141R,0.0117X0.0001*%
%ADD142R,0.0034X0.0001*%
%ADD143R,0.0065X0.0001*%
%ADD144R,0.0131X0.0001*%
%ADD145R,0.0120X0.0001*%
%ADD146R,0.0035X0.0001*%
%ADD147R,0.0066X0.0001*%
%ADD148R,0.0134X0.0001*%
%ADD149R,0.0122X0.0001*%
%ADD150R,0.0067X0.0001*%
%ADD151R,0.0136X0.0001*%
%ADD152R,0.0124X0.0001*%
%ADD153R,0.0138X0.0001*%
%ADD154R,0.0127X0.0001*%
%ADD155R,0.0068X0.0001*%
%ADD156R,0.0140X0.0001*%
%ADD157R,0.0062X0.0001*%
%ADD158R,0.0129X0.0001*%
%ADD159R,0.0035X0.0001*%
%ADD160R,0.0069X0.0001*%
%ADD161R,0.0142X0.0001*%
%ADD162R,0.0062X0.0001*%
%ADD163R,0.0130X0.0001*%
%ADD164R,0.0036X0.0001*%
%ADD165R,0.0069X0.0001*%
%ADD166R,0.0048X0.0001*%
%ADD167R,0.0145X0.0001*%
%ADD168R,0.0132X0.0001*%
%ADD169R,0.0070X0.0001*%
%ADD170R,0.0147X0.0001*%
%ADD171R,0.0071X0.0001*%
%ADD172R,0.0148X0.0001*%
%ADD173R,0.0137X0.0001*%
%ADD174R,0.0150X0.0001*%
%ADD175R,0.0064X0.0001*%
%ADD176R,0.0138X0.0001*%
%ADD177R,0.0036X0.0001*%
%ADD178R,0.0072X0.0001*%
%ADD179R,0.0152X0.0001*%
%ADD180R,0.0140X0.0001*%
%ADD181R,0.0154X0.0001*%
%ADD182R,0.0066X0.0001*%
%ADD183R,0.0178X0.0001*%
%ADD184R,0.0156X0.0001*%
%ADD185R,0.0179X0.0001*%
%ADD186R,0.0073X0.0001*%
%ADD187R,0.0157X0.0001*%
%ADD188R,0.0180X0.0001*%
%ADD189R,0.0074X0.0001*%
%ADD190R,0.0159X0.0001*%
%ADD191R,0.0046X0.0001*%
%ADD192R,0.0067X0.0001*%
%ADD193R,0.0181X0.0001*%
%ADD194R,0.0074X0.0001*%
%ADD195R,0.0160X0.0001*%
%ADD196R,0.0181X0.0001*%
%ADD197R,0.0075X0.0001*%
%ADD198R,0.0163X0.0001*%
%ADD199R,0.0183X0.0001*%
%ADD200R,0.0076X0.0001*%
%ADD201R,0.0164X0.0001*%
%ADD202R,0.0077X0.0001*%
%ADD203R,0.0165X0.0001*%
%ADD204R,0.0184X0.0001*%
%ADD205R,0.0167X0.0001*%
%ADD206R,0.0070X0.0001*%
%ADD207R,0.0185X0.0001*%
%ADD208R,0.0078X0.0001*%
%ADD209R,0.0168X0.0001*%
%ADD210R,0.0071X0.0001*%
%ADD211R,0.0185X0.0001*%
%ADD212R,0.0169X0.0001*%
%ADD213R,0.0186X0.0001*%
%ADD214R,0.0171X0.0001*%
%ADD215R,0.0187X0.0001*%
%ADD216R,0.0080X0.0001*%
%ADD217R,0.0087X0.0001*%
%ADD218R,0.0073X0.0001*%
%ADD219R,0.0069X0.0001*%
%ADD220R,0.0082X0.0001*%
%ADD221R,0.0081X0.0001*%
%ADD222R,0.0082X0.0001*%
%ADD223R,0.0083X0.0001*%
%ADD224R,0.0074X0.0001*%
%ADD225R,0.0048X0.0001*%
%ADD226R,0.0077X0.0001*%
%ADD227R,0.0084X0.0001*%
%ADD228R,0.0059X0.0001*%
%ADD229R,0.0078X0.0001*%
%ADD230R,0.0086X0.0001*%
%ADD231R,0.0057X0.0001*%
%ADD232R,0.0079X0.0001*%
%ADD233R,0.0087X0.0001*%
%ADD234R,0.0088X0.0001*%
%ADD235R,0.0090X0.0001*%
%ADD236R,0.0090X0.0001*%
%ADD237R,0.0083X0.0001*%
%ADD238R,0.0091X0.0001*%
%ADD239R,0.0053X0.0001*%
%ADD240R,0.0056X0.0001*%
%ADD241R,0.0052X0.0001*%
%ADD242R,0.0055X0.0001*%
%ADD243R,0.0052X0.0001*%
%ADD244R,0.0085X0.0001*%
%ADD245R,0.0054X0.0001*%
%ADD246R,0.0093X0.0001*%
%ADD247R,0.0052X0.0001*%
%ADD248R,0.0094X0.0001*%
%ADD249R,0.0095X0.0001*%
%ADD250R,0.0088X0.0001*%
%ADD251R,0.0052X0.0001*%
%ADD252R,0.0096X0.0001*%
%ADD253R,0.0097X0.0001*%
%ADD254R,0.0089X0.0001*%
%ADD255R,0.0098X0.0001*%
%ADD256R,0.0091X0.0001*%
%ADD257R,0.0100X0.0001*%
%ADD258R,0.0091X0.0001*%
%ADD259R,0.0100X0.0001*%
%ADD260R,0.0094X0.0001*%
%ADD261R,0.0096X0.0001*%
%ADD262R,0.0045X0.0001*%
%ADD263R,0.0045X0.0001*%
%ADD264R,0.0176X0.0001*%
%ADD265R,0.0176X0.0001*%
%ADD266R,0.0174X0.0001*%
%ADD267R,0.0173X0.0001*%
%ADD268R,0.0095X0.0001*%
%ADD269R,0.0170X0.0001*%
%ADD270R,0.0159X0.0001*%
%ADD271R,0.0160X0.0001*%
%ADD272R,0.0167X0.0001*%
%ADD273R,0.0166X0.0001*%
%ADD274R,0.0162X0.0001*%
%ADD275R,0.0158X0.0001*%
%ADD276R,0.0153X0.0001*%
%ADD277R,0.0156X0.0001*%
%ADD278R,0.0159X0.0001*%
%ADD279R,0.0157X0.0001*%
%ADD280R,0.0161X0.0001*%
%ADD281R,0.0164X0.0001*%
%ADD282R,0.0168X0.0001*%
%ADD283R,0.0170X0.0001*%
%ADD284R,0.0175X0.0001*%
%ADD285R,0.0159X0.0001*%
%ADD286R,0.0175X0.0001*%
%ADD287R,0.0176X0.0001*%
%ADD288R,0.0092X0.0001*%
%ADD289R,0.0054X0.0001*%
%ADD290R,0.0051X0.0001*%
%ADD291R,0.0091X0.0001*%
%ADD292R,0.0053X0.0001*%
%ADD293R,0.0088X0.0001*%
%ADD294R,0.0079X0.0001*%
%ADD295R,0.0087X0.0001*%
%ADD296R,0.0058X0.0001*%
%ADD297R,0.0083X0.0001*%
%ADD298R,0.0063X0.0001*%
%ADD299R,0.0076X0.0001*%
%ADD300R,0.0064X0.0001*%
%ADD301R,0.0063X0.0001*%
%ADD302R,0.0076X0.0001*%
%ADD303R,0.0082X0.0001*%
%ADD304R,0.0169X0.0001*%
%ADD305R,0.0067X0.0001*%
%ADD306R,0.0184X0.0001*%
%ADD307R,0.0080X0.0001*%
%ADD308R,0.0071X0.0001*%
%ADD309R,0.0169X0.0001*%
%ADD310R,0.0183X0.0001*%
%ADD311R,0.0182X0.0001*%
%ADD312R,0.0182X0.0001*%
%ADD313R,0.0076X0.0001*%
%ADD314R,0.0168X0.0001*%
%ADD315R,0.0071X0.0001*%
%ADD316R,0.0166X0.0001*%
%ADD317R,0.0181X0.0001*%
%ADD318R,0.0179X0.0001*%
%ADD319R,0.0073X0.0001*%
%ADD320R,0.0162X0.0001*%
%ADD321R,0.0179X0.0001*%
%ADD322R,0.0068X0.0001*%
%ADD323R,0.0072X0.0001*%
%ADD324R,0.0178X0.0001*%
%ADD325R,0.0177X0.0001*%
%ADD326R,0.0155X0.0001*%
%ADD327R,0.0154X0.0001*%
%ADD328R,0.0152X0.0001*%
%ADD329R,0.0151X0.0001*%
%ADD330R,0.0150X0.0001*%
%ADD331R,0.0149X0.0001*%
%ADD332R,0.0146X0.0001*%
%ADD333R,0.0173X0.0001*%
%ADD334R,0.0146X0.0001*%
%ADD335R,0.0144X0.0001*%
%ADD336R,0.0143X0.0001*%
%ADD337R,0.0171X0.0001*%
%ADD338R,0.0142X0.0001*%
%ADD339R,0.0061X0.0001*%
%ADD340R,0.0141X0.0001*%
%ADD341R,0.0139X0.0001*%
%ADD342R,0.0139X0.0001*%
%ADD343R,0.0135X0.0001*%
%ADD344R,0.0133X0.0001*%
%ADD345R,0.0167X0.0001*%
%ADD346R,0.0130X0.0001*%
%ADD347R,0.0058X0.0001*%
%ADD348R,0.0129X0.0001*%
%ADD349R,0.0169X0.0001*%
%ADD350R,0.0127X0.0001*%
%ADD351R,0.0125X0.0001*%
%ADD352R,0.0122X0.0001*%
%ADD353R,0.0161X0.0001*%
%ADD354R,0.0119X0.0001*%
%ADD355R,0.0116X0.0001*%
%ADD356R,0.0158X0.0001*%
%ADD357R,0.0113X0.0001*%
%ADD358R,0.0109X0.0001*%
%ADD359R,0.0107X0.0001*%
%ADD360R,0.0103X0.0001*%
%ADD361R,0.0102X0.0001*%
%ADD362R,0.0098X0.0001*%
%ADD363R,0.0143X0.0001*%
%ADD364R,0.0087X0.0001*%
%ADD365R,0.0133X0.0001*%
%ADD366R,0.0038X0.0001*%
%ADD367R,0.0038X0.0001*%
%ADD368R,0.0023X0.0001*%
%ADD369R,0.0022X0.0001*%
%ADD370R,0.0002X0.0001*%
D10*
X002546Y002993D02*
X002546Y022993D01*
X042546Y022993D01*
X042546Y002993D01*
X002546Y002993D01*
X004846Y002943D02*
X005346Y002943D01*
X005346Y003443D01*
X007346Y003443D01*
X007346Y002943D01*
X005346Y002943D01*
X004846Y002943D02*
X004846Y005143D01*
X007846Y005143D01*
X007846Y002943D01*
X007346Y002943D01*
X005606Y005363D02*
X004186Y005363D01*
X005229Y005583D02*
X005231Y005598D01*
X005237Y005611D01*
X005246Y005623D01*
X005257Y005632D01*
X005271Y005638D01*
X005286Y005640D01*
X005301Y005638D01*
X005314Y005632D01*
X005326Y005623D01*
X005335Y005612D01*
X005341Y005598D01*
X005343Y005583D01*
X005341Y005568D01*
X005335Y005555D01*
X005326Y005543D01*
X005315Y005534D01*
X005301Y005528D01*
X005286Y005526D01*
X005271Y005528D01*
X005258Y005534D01*
X005246Y005543D01*
X005237Y005554D01*
X005231Y005568D01*
X005229Y005583D01*
X005606Y007223D02*
X004186Y007223D01*
X003485Y007343D02*
X003318Y007343D01*
X003402Y007343D02*
X003402Y007594D01*
X003318Y007510D01*
X003163Y007594D02*
X002996Y007427D01*
X003038Y007468D02*
X003163Y007343D01*
X002996Y007343D02*
X002996Y007594D01*
X002746Y007893D02*
X014746Y007893D01*
X014746Y013893D01*
X002746Y013893D01*
X002746Y007893D01*
X005725Y007605D02*
X005725Y007396D01*
X005767Y007354D01*
X005850Y007354D01*
X005892Y007396D01*
X005892Y007605D01*
X006047Y007479D02*
X006214Y007479D01*
X006172Y007354D02*
X006172Y007605D01*
X006047Y007479D01*
X010608Y006805D02*
X010608Y006555D01*
X010608Y006638D02*
X010733Y006638D01*
X010775Y006680D01*
X010775Y006763D01*
X010733Y006805D01*
X010608Y006805D01*
X010691Y006638D02*
X010775Y006555D01*
X011014Y006555D02*
X011014Y006805D01*
X011097Y006805D02*
X010930Y006805D01*
X010988Y007037D02*
X011224Y007037D01*
X011253Y006805D02*
X011253Y006680D01*
X011336Y006721D01*
X011378Y006721D01*
X011419Y006680D01*
X011419Y006596D01*
X011378Y006555D01*
X011294Y006555D01*
X011253Y006596D01*
X011253Y006805D02*
X011419Y006805D01*
X012338Y006860D02*
X012574Y006860D01*
X012574Y007037D02*
X012338Y007037D01*
X012338Y007510D02*
X012574Y007510D01*
X013359Y007404D02*
X013359Y007153D01*
X013359Y007237D02*
X013484Y007237D01*
X013526Y007278D01*
X013526Y007362D01*
X013484Y007404D01*
X013359Y007404D01*
X013443Y007237D02*
X013526Y007153D01*
X013682Y007153D02*
X013682Y007404D01*
X013807Y007404D01*
X013848Y007362D01*
X013848Y007320D01*
X013807Y007278D01*
X013682Y007278D01*
X013682Y007153D02*
X013807Y007153D01*
X013848Y007195D01*
X013848Y007237D01*
X013807Y007278D01*
X014004Y007278D02*
X014087Y007320D01*
X014129Y007320D01*
X014171Y007278D01*
X014171Y007195D01*
X014129Y007153D01*
X014046Y007153D01*
X014004Y007195D01*
X014004Y007278D02*
X014004Y007404D01*
X014171Y007404D01*
X013852Y006809D02*
X013894Y006767D01*
X013894Y006725D01*
X013852Y006683D01*
X013769Y006683D01*
X013727Y006725D01*
X013727Y006767D01*
X013769Y006809D01*
X013852Y006809D01*
X013852Y006683D02*
X013894Y006642D01*
X013894Y006600D01*
X013852Y006558D01*
X013769Y006558D01*
X013727Y006600D01*
X013727Y006642D01*
X013769Y006683D01*
X013572Y006600D02*
X013530Y006558D01*
X013447Y006558D01*
X013405Y006600D01*
X013405Y006767D01*
X013447Y006809D01*
X013530Y006809D01*
X013572Y006767D01*
X012574Y006387D02*
X012338Y006387D01*
X011224Y007510D02*
X010988Y007510D01*
X015936Y010119D02*
X015936Y010244D01*
X015978Y010286D01*
X016061Y010286D01*
X016103Y010244D01*
X016103Y010119D01*
X016103Y010202D02*
X016186Y010286D01*
X016186Y010441D02*
X016019Y010608D01*
X015978Y010608D01*
X015936Y010566D01*
X015936Y010483D01*
X015978Y010441D01*
X016186Y010441D02*
X016186Y010608D01*
X016636Y010554D02*
X016886Y010554D01*
X016886Y010471D02*
X016886Y010638D01*
X016719Y010471D02*
X016636Y010554D01*
X016678Y010316D02*
X016636Y010274D01*
X016636Y010149D01*
X016886Y010149D01*
X016803Y010149D02*
X016803Y010274D01*
X016761Y010316D01*
X016678Y010316D01*
X016803Y010232D02*
X016886Y010316D01*
X016186Y010119D02*
X015936Y010119D01*
X019186Y010628D02*
X019186Y010712D01*
X019228Y010753D01*
X019394Y010753D01*
X019436Y010712D01*
X019436Y010628D01*
X019394Y010586D01*
X019228Y010586D01*
X019186Y010628D01*
X019353Y010670D02*
X019436Y010753D01*
X019436Y010909D02*
X019186Y010909D01*
X019186Y011076D01*
X019311Y010992D02*
X019311Y010909D01*
X019436Y010909D02*
X019436Y011076D01*
X019436Y011231D02*
X019394Y011231D01*
X019228Y011398D01*
X019186Y011398D01*
X019186Y011231D01*
X020017Y011358D02*
X020017Y011594D01*
X020332Y011594D01*
X020346Y011878D02*
X020346Y012129D01*
X020471Y012129D01*
X020513Y012087D01*
X020513Y012003D01*
X020471Y011962D01*
X020346Y011962D01*
X020430Y011962D02*
X020513Y011878D01*
X020668Y011878D02*
X020668Y011920D01*
X020835Y012087D01*
X020835Y012129D01*
X020668Y012129D01*
X020688Y012368D02*
X020688Y012410D01*
X020855Y012577D01*
X020855Y012619D01*
X020688Y012619D01*
X020533Y012577D02*
X020533Y012493D01*
X020491Y012452D01*
X020366Y012452D01*
X020450Y012452D02*
X020533Y012368D01*
X020366Y012368D02*
X020366Y012619D01*
X020491Y012619D01*
X020533Y012577D01*
X020728Y012807D02*
X020964Y012807D01*
X021052Y012619D02*
X021011Y012577D01*
X021011Y012410D01*
X021052Y012368D01*
X021136Y012368D01*
X021178Y012410D01*
X021178Y012577D02*
X021136Y012619D01*
X021052Y012619D01*
X021032Y012129D02*
X020991Y012087D01*
X020991Y011920D01*
X021032Y011878D01*
X021116Y011878D01*
X021158Y011920D01*
X021313Y011878D02*
X021480Y011878D01*
X021396Y011878D02*
X021396Y012129D01*
X021313Y012045D01*
X021158Y012087D02*
X021116Y012129D01*
X021032Y012129D01*
X020032Y012125D02*
X020032Y012361D01*
X019560Y012361D02*
X019560Y012125D01*
X021160Y011161D02*
X021160Y010925D01*
X021632Y010925D02*
X021632Y011161D01*
X021906Y010874D02*
X021989Y010958D01*
X022156Y010958D01*
X022031Y010958D02*
X022031Y010791D01*
X021989Y010791D02*
X021906Y010874D01*
X021989Y010791D02*
X022156Y010791D01*
X021948Y010636D02*
X022114Y010469D01*
X022156Y010469D01*
X022156Y010313D02*
X022073Y010230D01*
X022073Y010272D02*
X022073Y010146D01*
X022156Y010146D02*
X021906Y010146D01*
X021906Y010272D01*
X021948Y010313D01*
X022031Y010313D01*
X022073Y010272D01*
X021906Y010469D02*
X021906Y010636D01*
X021948Y010636D01*
X022626Y010665D02*
X022626Y010748D01*
X022668Y010790D01*
X022834Y010790D01*
X022876Y010748D01*
X022876Y010665D01*
X022834Y010623D01*
X022668Y010623D01*
X022626Y010665D01*
X022793Y010707D02*
X022876Y010790D01*
X022876Y010946D02*
X022626Y010946D01*
X022626Y011112D01*
X022751Y011029D02*
X022751Y010946D01*
X022876Y010946D02*
X022876Y011112D01*
X022834Y011268D02*
X022876Y011310D01*
X022876Y011393D01*
X022834Y011435D01*
X022793Y011435D01*
X022751Y011393D01*
X022751Y011268D01*
X022834Y011268D01*
X022751Y011268D02*
X022668Y011351D01*
X022626Y011435D01*
X023417Y011358D02*
X023417Y011594D01*
X023732Y011594D01*
X023686Y011978D02*
X023686Y012229D01*
X023811Y012229D01*
X023853Y012187D01*
X023853Y012103D01*
X023811Y012062D01*
X023686Y012062D01*
X023770Y012062D02*
X023853Y011978D01*
X024008Y012020D02*
X024008Y012103D01*
X024134Y012103D01*
X024175Y012062D01*
X024175Y012020D01*
X024134Y011978D01*
X024050Y011978D01*
X024008Y012020D01*
X024008Y012103D02*
X024092Y012187D01*
X024175Y012229D01*
X024331Y012187D02*
X024331Y012020D01*
X024372Y011978D01*
X024456Y011978D01*
X024498Y012020D01*
X024653Y011978D02*
X024820Y011978D01*
X024736Y011978D02*
X024736Y012229D01*
X024653Y012145D01*
X024498Y012187D02*
X024456Y012229D01*
X024372Y012229D01*
X024331Y012187D01*
X024352Y012458D02*
X024436Y012458D01*
X024478Y012500D01*
X024352Y012458D02*
X024311Y012500D01*
X024311Y012667D01*
X024352Y012709D01*
X024436Y012709D01*
X024478Y012667D01*
X024155Y012709D02*
X024072Y012667D01*
X023988Y012583D01*
X024114Y012583D01*
X024155Y012542D01*
X024155Y012500D01*
X024114Y012458D01*
X024030Y012458D01*
X023988Y012500D01*
X023988Y012583D01*
X023833Y012583D02*
X023791Y012542D01*
X023666Y012542D01*
X023750Y012542D02*
X023833Y012458D01*
X023833Y012583D02*
X023833Y012667D01*
X023791Y012709D01*
X023666Y012709D01*
X023666Y012458D01*
X023382Y012361D02*
X023382Y012125D01*
X022910Y012125D02*
X022910Y012361D01*
X023878Y012907D02*
X024114Y012907D01*
X024114Y013380D02*
X023878Y013380D01*
X023124Y013771D02*
X023124Y013938D01*
X023082Y013980D01*
X022999Y013980D01*
X022957Y013938D01*
X022957Y013896D01*
X022999Y013855D01*
X023124Y013855D01*
X023124Y013771D02*
X023082Y013730D01*
X022999Y013730D01*
X022957Y013771D01*
X022802Y013771D02*
X022802Y013938D01*
X022760Y013980D01*
X022635Y013980D01*
X022635Y013730D01*
X022760Y013730D01*
X022802Y013771D01*
X022965Y014488D02*
X022923Y014530D01*
X022923Y014613D01*
X022965Y014655D01*
X023131Y014655D01*
X023173Y014613D01*
X023173Y014530D01*
X023131Y014488D01*
X022965Y014488D01*
X023090Y014572D02*
X023173Y014655D01*
X023173Y014811D02*
X023173Y014936D01*
X023131Y014977D01*
X023090Y014977D01*
X023048Y014936D01*
X023048Y014811D01*
X023048Y014936D02*
X023006Y014977D01*
X022965Y014977D01*
X022923Y014936D01*
X022923Y014811D01*
X023173Y014811D01*
X023695Y014897D02*
X023695Y015212D01*
X023931Y015212D01*
X024561Y015212D02*
X024797Y015212D01*
X024797Y014897D01*
X026243Y014891D02*
X026243Y015016D01*
X026285Y015057D01*
X026326Y015057D01*
X026368Y015016D01*
X026368Y014891D01*
X026368Y015016D02*
X026410Y015057D01*
X026451Y015057D01*
X026493Y015016D01*
X026493Y014891D01*
X026243Y014891D01*
X026285Y014735D02*
X026451Y014735D01*
X026493Y014693D01*
X026493Y014610D01*
X026451Y014568D01*
X026285Y014568D01*
X026243Y014610D01*
X026243Y014693D01*
X026285Y014735D01*
X026410Y014652D02*
X026493Y014735D01*
X026995Y014957D02*
X026995Y015272D01*
X027231Y015272D01*
X026493Y015255D02*
X026493Y015338D01*
X026451Y015380D01*
X026368Y015380D01*
X026326Y015338D01*
X026326Y015296D01*
X026368Y015213D01*
X026243Y015213D01*
X026243Y015380D01*
X026451Y015213D02*
X026493Y015255D01*
X027861Y015272D02*
X028097Y015272D01*
X028097Y014957D01*
X029233Y014307D02*
X029358Y014307D01*
X029400Y014266D01*
X029400Y014099D01*
X029358Y014057D01*
X029233Y014057D01*
X029233Y014307D01*
X029555Y014182D02*
X029555Y014099D01*
X029597Y014057D01*
X029680Y014057D01*
X029722Y014099D01*
X029722Y014140D01*
X029680Y014182D01*
X029555Y014182D01*
X029639Y014266D01*
X029722Y014307D01*
X029654Y014743D02*
X029696Y014785D01*
X029696Y014868D01*
X029654Y014910D01*
X029487Y014910D01*
X029445Y014868D01*
X029445Y014785D01*
X029487Y014743D01*
X029654Y014743D01*
X029612Y014827D02*
X029696Y014910D01*
X029696Y015065D02*
X029445Y015065D01*
X029445Y015191D01*
X029487Y015232D01*
X029529Y015232D01*
X029570Y015191D01*
X029570Y015065D01*
X029696Y015065D02*
X029696Y015191D01*
X029654Y015232D01*
X029612Y015232D01*
X029570Y015191D01*
X029570Y015388D02*
X029570Y015555D01*
X029445Y015513D02*
X029696Y015513D01*
X029570Y015388D02*
X029445Y015513D01*
X030301Y015549D02*
X030301Y015234D01*
X030301Y015549D02*
X030537Y015549D01*
X031167Y015549D02*
X031404Y015549D01*
X031404Y015234D01*
X032637Y015220D02*
X032679Y015262D01*
X032721Y015262D01*
X032762Y015220D01*
X032762Y015095D01*
X032637Y015095D02*
X032637Y015220D01*
X032637Y015095D02*
X032887Y015095D01*
X032887Y015220D01*
X032846Y015262D01*
X032804Y015262D01*
X032762Y015220D01*
X032679Y015417D02*
X032637Y015459D01*
X032637Y015542D01*
X032679Y015584D01*
X032721Y015584D01*
X032762Y015542D01*
X032804Y015584D01*
X032846Y015584D01*
X032887Y015542D01*
X032887Y015459D01*
X032846Y015417D01*
X032762Y015501D02*
X032762Y015542D01*
X033471Y015576D02*
X033471Y015261D01*
X032887Y014939D02*
X032804Y014856D01*
X032887Y014814D02*
X032846Y014773D01*
X032679Y014773D01*
X032637Y014814D01*
X032637Y014898D01*
X032679Y014939D01*
X032846Y014939D01*
X032887Y014898D01*
X032887Y014814D01*
X032844Y014260D02*
X032677Y014260D01*
X032677Y014135D01*
X032760Y014176D01*
X032802Y014176D01*
X032844Y014135D01*
X032844Y014051D01*
X032802Y014010D01*
X032719Y014010D01*
X032677Y014051D01*
X032522Y014051D02*
X032522Y014218D01*
X032480Y014260D01*
X032355Y014260D01*
X032355Y014010D01*
X032480Y014010D01*
X032522Y014051D01*
X033424Y013567D02*
X033660Y013567D01*
X033660Y013094D02*
X033424Y013094D01*
X033846Y012744D02*
X033971Y012744D01*
X034013Y012702D01*
X034013Y012618D01*
X033971Y012577D01*
X033846Y012577D01*
X033930Y012577D02*
X034013Y012493D01*
X034168Y012535D02*
X034210Y012493D01*
X034294Y012493D01*
X034335Y012535D01*
X034335Y012577D01*
X034294Y012618D01*
X034252Y012618D01*
X034294Y012618D02*
X034335Y012660D01*
X034335Y012702D01*
X034294Y012744D01*
X034210Y012744D01*
X034168Y012702D01*
X034491Y012702D02*
X034491Y012535D01*
X034532Y012493D01*
X034616Y012493D01*
X034658Y012535D01*
X034658Y012702D02*
X034616Y012744D01*
X034532Y012744D01*
X034491Y012702D01*
X033846Y012744D02*
X033846Y012493D01*
X033846Y012194D02*
X033971Y012194D01*
X034013Y012152D01*
X034013Y012068D01*
X033971Y012027D01*
X033846Y012027D01*
X033930Y012027D02*
X034013Y011943D01*
X034168Y011985D02*
X034210Y011943D01*
X034294Y011943D01*
X034335Y011985D01*
X034335Y012027D01*
X034294Y012068D01*
X034252Y012068D01*
X034294Y012068D02*
X034335Y012110D01*
X034335Y012152D01*
X034294Y012194D01*
X034210Y012194D01*
X034168Y012152D01*
X034491Y012152D02*
X034491Y011985D01*
X034532Y011943D01*
X034616Y011943D01*
X034658Y011985D01*
X034813Y011943D02*
X034980Y011943D01*
X034896Y011943D02*
X034896Y012194D01*
X034813Y012110D01*
X034658Y012152D02*
X034616Y012194D01*
X034532Y012194D01*
X034491Y012152D01*
X033846Y012194D02*
X033846Y011943D01*
X033502Y012145D02*
X033502Y012381D01*
X033030Y012381D02*
X033030Y012145D01*
X033430Y011556D02*
X033745Y011556D01*
X033430Y011556D02*
X033430Y011319D01*
X032896Y011322D02*
X032896Y011238D01*
X032855Y011196D01*
X032771Y011280D02*
X032771Y011322D01*
X032813Y011363D01*
X032855Y011363D01*
X032896Y011322D01*
X032771Y011322D02*
X032730Y011363D01*
X032688Y011363D01*
X032646Y011322D01*
X032646Y011238D01*
X032688Y011196D01*
X032646Y011041D02*
X032646Y010874D01*
X032896Y010874D01*
X032896Y011041D01*
X032771Y010958D02*
X032771Y010874D01*
X032688Y010719D02*
X032855Y010719D01*
X032896Y010677D01*
X032896Y010594D01*
X032855Y010552D01*
X032688Y010552D01*
X032646Y010594D01*
X032646Y010677D01*
X032688Y010719D01*
X032813Y010635D02*
X032896Y010719D01*
X033430Y010689D02*
X033430Y010453D01*
X033745Y010453D01*
X034516Y010866D02*
X034516Y011102D01*
X034989Y011102D02*
X034989Y010866D01*
X035196Y010940D02*
X035196Y011024D01*
X035238Y011066D01*
X035279Y011066D01*
X035321Y011024D01*
X035363Y011066D01*
X035404Y011066D01*
X035446Y011024D01*
X035446Y010940D01*
X035404Y010899D01*
X035321Y010982D02*
X035321Y011024D01*
X035238Y010899D02*
X035196Y010940D01*
X035238Y010743D02*
X035321Y010743D01*
X035363Y010702D01*
X035363Y010576D01*
X035446Y010576D02*
X035196Y010576D01*
X035196Y010702D01*
X035238Y010743D01*
X035363Y010660D02*
X035446Y010743D01*
X035796Y010702D02*
X035838Y010743D01*
X036004Y010743D01*
X036046Y010702D01*
X036046Y010618D01*
X036004Y010576D01*
X035838Y010576D01*
X035796Y010618D01*
X035796Y010702D01*
X035963Y010660D02*
X036046Y010743D01*
X036046Y010899D02*
X035796Y010899D01*
X035796Y011066D01*
X035921Y010982D02*
X035921Y010899D01*
X036046Y010899D02*
X036046Y011066D01*
X036046Y011221D02*
X035879Y011388D01*
X035838Y011388D01*
X035796Y011346D01*
X035796Y011263D01*
X035838Y011221D01*
X036046Y011221D02*
X036046Y011388D01*
X036586Y011308D02*
X036586Y011544D01*
X036901Y011544D01*
X037660Y011111D02*
X037660Y010875D01*
X038132Y010875D02*
X038132Y011111D01*
X038296Y011024D02*
X038296Y010940D01*
X038338Y010899D01*
X038296Y011024D02*
X038338Y011066D01*
X038379Y011066D01*
X038546Y010899D01*
X038546Y011066D01*
X038546Y011221D02*
X038379Y011221D01*
X038296Y011304D01*
X038379Y011388D01*
X038546Y011388D01*
X038421Y011388D02*
X038421Y011221D01*
X038796Y011304D02*
X039046Y011304D01*
X039046Y011221D02*
X039046Y011388D01*
X038879Y011221D02*
X038796Y011304D01*
X038796Y011066D02*
X038796Y010899D01*
X039046Y010899D01*
X039046Y011066D01*
X038921Y010982D02*
X038921Y010899D01*
X038838Y010743D02*
X039004Y010743D01*
X039046Y010702D01*
X039046Y010618D01*
X039004Y010576D01*
X038838Y010576D01*
X038796Y010618D01*
X038796Y010702D01*
X038838Y010743D01*
X038963Y010660D02*
X039046Y010743D01*
X038546Y010743D02*
X038463Y010660D01*
X038463Y010702D02*
X038463Y010576D01*
X038546Y010576D02*
X038296Y010576D01*
X038296Y010702D01*
X038338Y010743D01*
X038421Y010743D01*
X038463Y010702D01*
X039556Y010660D02*
X039556Y010424D01*
X039871Y010424D01*
X040752Y010887D02*
X040752Y011123D01*
X041225Y011123D02*
X041225Y010887D01*
X041446Y010494D02*
X041571Y010494D01*
X041613Y010452D01*
X041613Y010368D01*
X041571Y010327D01*
X041446Y010327D01*
X041530Y010327D02*
X041613Y010243D01*
X041768Y010243D02*
X041935Y010243D01*
X041852Y010243D02*
X041852Y010494D01*
X041768Y010410D01*
X042091Y010410D02*
X042174Y010494D01*
X042258Y010410D01*
X042258Y010243D01*
X042258Y010368D02*
X042091Y010368D01*
X042091Y010410D02*
X042091Y010243D01*
X041446Y010243D02*
X041446Y010494D01*
X040969Y009844D02*
X040969Y009593D01*
X041052Y009593D02*
X040885Y009593D01*
X040730Y009593D02*
X040563Y009593D01*
X040563Y009844D01*
X040408Y009593D02*
X040241Y009593D01*
X040241Y009844D01*
X040085Y009844D02*
X039918Y009844D01*
X039918Y009593D01*
X040085Y009593D01*
X040002Y009718D02*
X039918Y009718D01*
X039763Y009635D02*
X039721Y009593D01*
X039638Y009593D01*
X039596Y009635D01*
X039596Y009802D01*
X039638Y009844D01*
X039721Y009844D01*
X039763Y009802D01*
X039714Y009330D02*
X039478Y009330D01*
X039478Y008857D02*
X039714Y008857D01*
X039602Y008644D02*
X039602Y008393D01*
X039768Y008393D01*
X039924Y008393D02*
X040091Y008393D01*
X040007Y008393D02*
X040007Y008644D01*
X039924Y008560D01*
X039446Y008602D02*
X039446Y008518D01*
X039404Y008477D01*
X039279Y008477D01*
X039279Y008393D02*
X039279Y008644D01*
X039404Y008644D01*
X039446Y008602D01*
X039363Y008477D02*
X039446Y008393D01*
X039335Y007840D02*
X039135Y007840D01*
X039135Y007439D01*
X039335Y007439D01*
X039401Y007506D01*
X039401Y007573D01*
X039335Y007639D01*
X039135Y007639D01*
X039335Y007639D02*
X039401Y007706D01*
X039401Y007773D01*
X039335Y007840D01*
X039595Y007840D02*
X039728Y007706D01*
X039862Y007840D01*
X039862Y007439D01*
X040055Y007506D02*
X040122Y007439D01*
X040255Y007439D01*
X040322Y007506D01*
X040322Y007573D01*
X040255Y007639D01*
X040122Y007639D01*
X040055Y007706D01*
X040055Y007773D01*
X040122Y007840D01*
X040255Y007840D01*
X040322Y007773D01*
X040516Y007639D02*
X040783Y007639D01*
X040976Y007439D02*
X040976Y007840D01*
X040976Y007439D02*
X041243Y007439D01*
X041436Y007573D02*
X041436Y007840D01*
X041436Y007573D02*
X041570Y007439D01*
X041703Y007573D01*
X041703Y007840D01*
X041185Y006623D02*
X041052Y006623D01*
X040985Y006556D01*
X040985Y006290D01*
X041052Y006223D01*
X041185Y006223D01*
X041252Y006290D01*
X041252Y006556D02*
X041185Y006623D01*
X040791Y006223D02*
X040524Y006223D01*
X040524Y006623D01*
X040064Y006623D02*
X040064Y006223D01*
X040331Y006223D01*
X039430Y006223D02*
X039363Y006223D01*
X039363Y006290D01*
X039430Y006290D01*
X039430Y006223D01*
X039297Y006089D01*
X038970Y006223D02*
X038970Y006623D01*
X039103Y006623D02*
X038836Y006623D01*
X038643Y006623D02*
X038376Y006623D01*
X038376Y006223D01*
X038376Y006423D02*
X038509Y006423D01*
X038182Y006290D02*
X038116Y006223D01*
X037916Y006223D01*
X037916Y006623D01*
X038116Y006623D01*
X038182Y006556D01*
X038182Y006290D01*
X037182Y006732D02*
X037182Y004291D01*
X025741Y004291D01*
X025741Y006732D01*
X037182Y006732D01*
X037293Y007439D02*
X037493Y007439D01*
X037560Y007506D01*
X037560Y007573D01*
X037493Y007639D01*
X037293Y007639D01*
X037293Y007439D02*
X037293Y007840D01*
X037493Y007840D01*
X037560Y007773D01*
X037560Y007706D01*
X037493Y007639D01*
X037753Y007439D02*
X037753Y007840D01*
X037887Y007706D01*
X038020Y007840D01*
X038020Y007439D01*
X038214Y007506D02*
X038280Y007439D01*
X038414Y007439D01*
X038481Y007506D01*
X038481Y007573D01*
X038414Y007639D01*
X038280Y007639D01*
X038214Y007706D01*
X038214Y007773D01*
X038280Y007840D01*
X038414Y007840D01*
X038481Y007773D01*
X039595Y007840D02*
X039595Y007439D01*
X041036Y009024D02*
X040977Y009083D01*
X041046Y009152D01*
X041105Y009093D01*
X041036Y009024D01*
X040885Y009760D02*
X040969Y009844D01*
X039556Y011290D02*
X039556Y011527D01*
X039871Y011527D01*
X039692Y012185D02*
X039692Y012421D01*
X040006Y012494D02*
X040006Y012243D01*
X040006Y012327D02*
X040131Y012327D01*
X040173Y012368D01*
X040173Y012452D01*
X040131Y012494D01*
X040006Y012494D01*
X040090Y012327D02*
X040173Y012243D01*
X040328Y012243D02*
X040495Y012243D01*
X040412Y012243D02*
X040412Y012494D01*
X040328Y012410D01*
X040328Y012713D02*
X040495Y012713D01*
X040412Y012713D02*
X040412Y012964D01*
X040328Y012880D01*
X040173Y012838D02*
X040131Y012797D01*
X040006Y012797D01*
X040090Y012797D02*
X040173Y012713D01*
X040173Y012838D02*
X040173Y012922D01*
X040131Y012964D01*
X040006Y012964D01*
X040006Y012713D01*
X039987Y013117D02*
X039751Y013117D01*
X039751Y013589D02*
X039987Y013589D01*
X040651Y012922D02*
X040692Y012964D01*
X040776Y012964D01*
X040818Y012922D01*
X040818Y012755D02*
X040776Y012713D01*
X040692Y012713D01*
X040651Y012755D01*
X040651Y012922D01*
X040692Y012494D02*
X040651Y012452D01*
X040651Y012285D01*
X040692Y012243D01*
X040776Y012243D01*
X040818Y012285D01*
X040973Y012243D02*
X041140Y012243D01*
X041056Y012243D02*
X041056Y012494D01*
X040973Y012410D01*
X040818Y012452D02*
X040776Y012494D01*
X040692Y012494D01*
X039220Y012421D02*
X039220Y012185D01*
X037980Y012093D02*
X037813Y012093D01*
X037896Y012093D02*
X037896Y012344D01*
X037813Y012260D01*
X037658Y012302D02*
X037616Y012344D01*
X037532Y012344D01*
X037491Y012302D01*
X037491Y012135D01*
X037532Y012093D01*
X037616Y012093D01*
X037658Y012135D01*
X037335Y012093D02*
X037168Y012093D01*
X037335Y012260D01*
X037335Y012302D01*
X037294Y012344D01*
X037210Y012344D01*
X037168Y012302D01*
X037013Y012302D02*
X037013Y012218D01*
X036971Y012177D01*
X036846Y012177D01*
X036930Y012177D02*
X037013Y012093D01*
X036846Y012093D02*
X036846Y012344D01*
X036971Y012344D01*
X037013Y012302D01*
X037038Y012641D02*
X036955Y012724D01*
X036996Y012724D02*
X036871Y012724D01*
X036871Y012641D02*
X036871Y012891D01*
X036996Y012891D01*
X037038Y012849D01*
X037038Y012766D01*
X036996Y012724D01*
X037194Y012641D02*
X037360Y012807D01*
X037360Y012849D01*
X037319Y012891D01*
X037235Y012891D01*
X037194Y012849D01*
X037194Y012641D02*
X037360Y012641D01*
X037516Y012682D02*
X037558Y012641D01*
X037641Y012641D01*
X037683Y012682D01*
X037516Y012682D02*
X037516Y012849D01*
X037558Y012891D01*
X037641Y012891D01*
X037683Y012849D01*
X036881Y013093D02*
X036644Y013093D01*
X036644Y013566D02*
X036881Y013566D01*
X036662Y012381D02*
X036662Y012145D01*
X036190Y012145D02*
X036190Y012381D01*
X035446Y011388D02*
X035279Y011388D01*
X035196Y011304D01*
X035279Y011221D01*
X035446Y011221D01*
X035321Y011221D02*
X035321Y011388D01*
X036586Y010678D02*
X036586Y010441D01*
X036901Y010441D01*
X036835Y009794D02*
X036668Y009794D01*
X036668Y009543D01*
X036835Y009543D01*
X036752Y009668D02*
X036668Y009668D01*
X036513Y009585D02*
X036471Y009543D01*
X036388Y009543D01*
X036346Y009585D01*
X036346Y009752D01*
X036388Y009794D01*
X036471Y009794D01*
X036513Y009752D01*
X036991Y009794D02*
X036991Y009543D01*
X037158Y009543D01*
X037313Y009543D02*
X037480Y009543D01*
X037635Y009543D02*
X037802Y009710D01*
X037802Y009752D01*
X037760Y009794D01*
X037677Y009794D01*
X037635Y009752D01*
X037635Y009543D02*
X037802Y009543D01*
X037313Y009543D02*
X037313Y009794D01*
X036514Y009330D02*
X036278Y009330D01*
X036278Y008857D02*
X036514Y008857D01*
X036616Y008654D02*
X036574Y008612D01*
X036616Y008654D02*
X036699Y008654D01*
X036741Y008612D01*
X036741Y008570D01*
X036574Y008403D01*
X036741Y008403D01*
X036418Y008403D02*
X036252Y008403D01*
X036252Y008654D01*
X036096Y008612D02*
X036096Y008528D01*
X036054Y008487D01*
X035929Y008487D01*
X035929Y008403D02*
X035929Y008654D01*
X036054Y008654D01*
X036096Y008612D01*
X036013Y008487D02*
X036096Y008403D01*
X036833Y007773D02*
X036833Y007706D01*
X036899Y007639D01*
X037033Y007639D01*
X037099Y007573D01*
X037099Y007506D01*
X037033Y007439D01*
X036899Y007439D01*
X036833Y007506D01*
X036833Y007773D02*
X036899Y007840D01*
X037033Y007840D01*
X037099Y007773D01*
X037886Y009024D02*
X037827Y009083D01*
X037896Y009152D01*
X037955Y009093D01*
X037886Y009024D01*
X034755Y009043D02*
X034686Y008974D01*
X034627Y009033D01*
X034696Y009102D01*
X034755Y009043D01*
X034657Y009507D02*
X034573Y009507D01*
X034532Y009549D01*
X034615Y009632D02*
X034657Y009632D01*
X034698Y009590D01*
X034698Y009549D01*
X034657Y009507D01*
X034657Y009632D02*
X034698Y009674D01*
X034698Y009716D01*
X034657Y009757D01*
X034573Y009757D01*
X034532Y009716D01*
X034376Y009507D02*
X034209Y009507D01*
X034209Y009757D01*
X034054Y009507D02*
X033887Y009507D01*
X033887Y009757D01*
X033732Y009757D02*
X033565Y009757D01*
X033565Y009507D01*
X033732Y009507D01*
X033648Y009632D02*
X033565Y009632D01*
X033409Y009549D02*
X033368Y009507D01*
X033284Y009507D01*
X033242Y009549D01*
X033242Y009716D01*
X033284Y009757D01*
X033368Y009757D01*
X033409Y009716D01*
X033364Y009280D02*
X033128Y009280D01*
X033128Y008807D02*
X033364Y008807D01*
X033516Y008644D02*
X033599Y008644D01*
X033641Y008602D01*
X033641Y008560D01*
X033599Y008518D01*
X033641Y008477D01*
X033641Y008435D01*
X033599Y008393D01*
X033516Y008393D01*
X033474Y008435D01*
X033557Y008518D02*
X033599Y008518D01*
X033474Y008602D02*
X033516Y008644D01*
X033318Y008393D02*
X033152Y008393D01*
X033152Y008644D01*
X032996Y008602D02*
X032996Y008518D01*
X032954Y008477D01*
X032829Y008477D01*
X032829Y008393D02*
X032829Y008644D01*
X032954Y008644D01*
X032996Y008602D01*
X032913Y008477D02*
X032996Y008393D01*
X031655Y009043D02*
X031586Y008974D01*
X031527Y009033D01*
X031596Y009102D01*
X031655Y009043D01*
X031560Y009493D02*
X031560Y009744D01*
X031435Y009618D01*
X031602Y009618D01*
X031280Y009493D02*
X031113Y009493D01*
X031113Y009744D01*
X030958Y009493D02*
X030791Y009493D01*
X030791Y009744D01*
X030635Y009744D02*
X030468Y009744D01*
X030468Y009493D01*
X030635Y009493D01*
X030552Y009618D02*
X030468Y009618D01*
X030313Y009535D02*
X030271Y009493D01*
X030188Y009493D01*
X030146Y009535D01*
X030146Y009702D01*
X030188Y009744D01*
X030271Y009744D01*
X030313Y009702D01*
X030214Y009280D02*
X029978Y009280D01*
X029978Y008807D02*
X030214Y008807D01*
X030249Y008634D02*
X030124Y008508D01*
X030291Y008508D01*
X030249Y008383D02*
X030249Y008634D01*
X029968Y008383D02*
X029802Y008383D01*
X029802Y008634D01*
X029646Y008592D02*
X029646Y008508D01*
X029604Y008467D01*
X029479Y008467D01*
X029479Y008383D02*
X029479Y008634D01*
X029604Y008634D01*
X029646Y008592D01*
X029563Y008467D02*
X029646Y008383D01*
X028305Y008993D02*
X028246Y009052D01*
X028177Y008983D01*
X028236Y008924D01*
X028305Y008993D01*
X028020Y009537D02*
X027936Y009537D01*
X027895Y009579D01*
X027895Y009662D02*
X027978Y009704D01*
X028020Y009704D01*
X028062Y009662D01*
X028062Y009579D01*
X028020Y009537D01*
X027895Y009662D02*
X027895Y009787D01*
X028062Y009787D01*
X027739Y009537D02*
X027572Y009537D01*
X027572Y009787D01*
X027417Y009537D02*
X027250Y009537D01*
X027250Y009787D01*
X027095Y009787D02*
X026928Y009787D01*
X026928Y009537D01*
X027095Y009537D01*
X027011Y009662D02*
X026928Y009662D01*
X026772Y009579D02*
X026731Y009537D01*
X026647Y009537D01*
X026606Y009579D01*
X026606Y009746D01*
X026647Y009787D01*
X026731Y009787D01*
X026772Y009746D01*
X026678Y009230D02*
X026914Y009230D01*
X026914Y008757D02*
X026678Y008757D01*
X026824Y008619D02*
X026824Y008493D01*
X026907Y008535D01*
X026949Y008535D01*
X026991Y008493D01*
X026991Y008410D01*
X026949Y008368D01*
X026866Y008368D01*
X026824Y008410D01*
X026668Y008368D02*
X026502Y008368D01*
X026502Y008619D01*
X026346Y008577D02*
X026346Y008493D01*
X026304Y008452D01*
X026179Y008452D01*
X026179Y008368D02*
X026179Y008619D01*
X026304Y008619D01*
X026346Y008577D01*
X026263Y008452D02*
X026346Y008368D01*
X026824Y008619D02*
X026991Y008619D01*
X025105Y008993D02*
X025036Y008924D01*
X024977Y008983D01*
X025046Y009052D01*
X025105Y008993D01*
X024670Y009537D02*
X024712Y009579D01*
X024712Y009620D01*
X024670Y009662D01*
X024545Y009662D01*
X024545Y009579D01*
X024586Y009537D01*
X024670Y009537D01*
X024545Y009662D02*
X024628Y009746D01*
X024712Y009787D01*
X024389Y009537D02*
X024222Y009537D01*
X024222Y009787D01*
X024067Y009537D02*
X023900Y009537D01*
X023900Y009787D01*
X023745Y009787D02*
X023578Y009787D01*
X023578Y009537D01*
X023745Y009537D01*
X023661Y009662D02*
X023578Y009662D01*
X023422Y009579D02*
X023381Y009537D01*
X023297Y009537D01*
X023256Y009579D01*
X023256Y009746D01*
X023297Y009787D01*
X023381Y009787D01*
X023422Y009746D01*
X023428Y009230D02*
X023664Y009230D01*
X023664Y008757D02*
X023428Y008757D01*
X023252Y008619D02*
X023252Y008368D01*
X023418Y008368D01*
X023574Y008410D02*
X023616Y008368D01*
X023699Y008368D01*
X023741Y008410D01*
X023741Y008452D01*
X023699Y008493D01*
X023574Y008493D01*
X023574Y008410D01*
X023574Y008493D02*
X023657Y008577D01*
X023741Y008619D01*
X023096Y008577D02*
X023096Y008493D01*
X023054Y008452D01*
X022929Y008452D01*
X022929Y008368D02*
X022929Y008619D01*
X023054Y008619D01*
X023096Y008577D01*
X023013Y008452D02*
X023096Y008368D01*
X021755Y008993D02*
X021686Y008924D01*
X021627Y008983D01*
X021696Y009052D01*
X021755Y008993D01*
X021335Y009543D02*
X021335Y009585D01*
X021502Y009752D01*
X021502Y009794D01*
X021335Y009794D01*
X021180Y009543D02*
X021013Y009543D01*
X021013Y009794D01*
X020858Y009543D02*
X020691Y009543D01*
X020691Y009794D01*
X020535Y009794D02*
X020368Y009794D01*
X020368Y009543D01*
X020535Y009543D01*
X020452Y009668D02*
X020368Y009668D01*
X020213Y009585D02*
X020171Y009543D01*
X020088Y009543D01*
X020046Y009585D01*
X020046Y009752D01*
X020088Y009794D01*
X020171Y009794D01*
X020213Y009752D01*
X020264Y009230D02*
X020028Y009230D01*
X020028Y008757D02*
X020264Y008757D01*
X020341Y008619D02*
X020341Y008577D01*
X020174Y008410D01*
X020174Y008368D01*
X020018Y008368D02*
X019852Y008368D01*
X019852Y008619D01*
X019696Y008577D02*
X019696Y008493D01*
X019654Y008452D01*
X019529Y008452D01*
X019529Y008368D02*
X019529Y008619D01*
X019654Y008619D01*
X019696Y008577D01*
X019613Y008452D02*
X019696Y008368D01*
X020174Y008619D02*
X020341Y008619D01*
X020332Y010492D02*
X020017Y010492D01*
X020017Y010728D01*
X023417Y010728D02*
X023417Y010492D01*
X023732Y010492D01*
X024560Y010925D02*
X024560Y011161D01*
X025032Y011161D02*
X025032Y010925D01*
X025356Y010818D02*
X025398Y010860D01*
X025481Y010860D01*
X025523Y010818D01*
X025523Y010693D01*
X025606Y010693D02*
X025356Y010693D01*
X025356Y010818D01*
X025523Y010777D02*
X025606Y010860D01*
X025564Y011016D02*
X025606Y011057D01*
X025606Y011141D01*
X025564Y011182D01*
X025523Y011182D01*
X025481Y011141D01*
X025481Y011016D01*
X025564Y011016D01*
X025481Y011016D02*
X025398Y011099D01*
X025356Y011182D01*
X025439Y011338D02*
X025356Y011421D01*
X025439Y011505D01*
X025606Y011505D01*
X025481Y011505D02*
X025481Y011338D01*
X025439Y011338D02*
X025606Y011338D01*
X025996Y011318D02*
X025996Y011485D01*
X026079Y011443D02*
X026121Y011485D01*
X026204Y011485D01*
X026246Y011443D01*
X026246Y011360D01*
X026204Y011318D01*
X026121Y011318D02*
X026079Y011401D01*
X026079Y011443D01*
X026121Y011318D02*
X025996Y011318D01*
X025996Y011162D02*
X025996Y010996D01*
X026246Y010996D01*
X026246Y011162D01*
X026121Y011079D02*
X026121Y010996D01*
X026038Y010840D02*
X026204Y010840D01*
X026246Y010798D01*
X026246Y010715D01*
X026204Y010673D01*
X026038Y010673D01*
X025996Y010715D01*
X025996Y010798D01*
X026038Y010840D01*
X026163Y010757D02*
X026246Y010840D01*
X026767Y010728D02*
X026767Y010492D01*
X027082Y010492D01*
X027960Y010925D02*
X027960Y011161D01*
X028432Y011161D02*
X028432Y010925D01*
X028726Y010916D02*
X028851Y010916D01*
X028809Y010999D01*
X028809Y011041D01*
X028851Y011082D01*
X028934Y011082D01*
X028976Y011041D01*
X028976Y010957D01*
X028934Y010916D01*
X028976Y010760D02*
X028893Y010677D01*
X028893Y010718D02*
X028893Y010593D01*
X028976Y010593D02*
X028726Y010593D01*
X028726Y010718D01*
X028768Y010760D01*
X028851Y010760D01*
X028893Y010718D01*
X028726Y010916D02*
X028726Y011082D01*
X028809Y011238D02*
X028726Y011321D01*
X028809Y011405D01*
X028976Y011405D01*
X028851Y011405D02*
X028851Y011238D01*
X028809Y011238D02*
X028976Y011238D01*
X029396Y011366D02*
X029521Y011241D01*
X029521Y011408D01*
X029646Y011366D02*
X029396Y011366D01*
X029396Y011086D02*
X029396Y010919D01*
X029646Y010919D01*
X029646Y011086D01*
X029521Y011002D02*
X029521Y010919D01*
X029438Y010763D02*
X029604Y010763D01*
X029646Y010722D01*
X029646Y010638D01*
X029604Y010596D01*
X029438Y010596D01*
X029396Y010638D01*
X029396Y010722D01*
X029438Y010763D01*
X029563Y010680D02*
X029646Y010763D01*
X030230Y010664D02*
X030230Y010428D01*
X030545Y010428D01*
X031366Y010901D02*
X031366Y011137D01*
X031839Y011137D02*
X031839Y010901D01*
X032051Y011040D02*
X032176Y010915D01*
X032176Y011082D01*
X032301Y011040D02*
X032051Y011040D01*
X032135Y011237D02*
X032051Y011321D01*
X032135Y011404D01*
X032301Y011404D01*
X032176Y011404D02*
X032176Y011237D01*
X032135Y011237D02*
X032301Y011237D01*
X032301Y010760D02*
X032218Y010676D01*
X032218Y010718D02*
X032218Y010593D01*
X032301Y010593D02*
X032051Y010593D01*
X032051Y010718D01*
X032093Y010760D01*
X032176Y010760D01*
X032218Y010718D01*
X030545Y011530D02*
X030230Y011530D01*
X030230Y011294D01*
X030586Y011983D02*
X030586Y012234D01*
X030711Y012234D01*
X030753Y012192D01*
X030753Y012108D01*
X030711Y012067D01*
X030586Y012067D01*
X030670Y012067D02*
X030753Y011983D01*
X030908Y012108D02*
X031075Y012108D01*
X031034Y011983D02*
X031034Y012234D01*
X030908Y012108D01*
X031231Y012025D02*
X031272Y011983D01*
X031356Y011983D01*
X031398Y012025D01*
X031553Y011983D02*
X031720Y011983D01*
X031636Y011983D02*
X031636Y012234D01*
X031553Y012150D01*
X031398Y012192D02*
X031356Y012234D01*
X031272Y012234D01*
X031231Y012192D01*
X031231Y012025D01*
X030322Y012175D02*
X030322Y012411D01*
X030616Y012583D02*
X030616Y012834D01*
X030741Y012834D01*
X030783Y012792D01*
X030783Y012708D01*
X030741Y012667D01*
X030616Y012667D01*
X030700Y012667D02*
X030783Y012583D01*
X030938Y012708D02*
X031105Y012708D01*
X031064Y012583D02*
X031064Y012834D01*
X030938Y012708D01*
X031261Y012792D02*
X031261Y012625D01*
X031302Y012583D01*
X031386Y012583D01*
X031428Y012625D01*
X031428Y012792D02*
X031386Y012834D01*
X031302Y012834D01*
X031261Y012792D01*
X030528Y013098D02*
X030292Y013098D01*
X030292Y013570D02*
X030528Y013570D01*
X029850Y012411D02*
X029850Y012175D01*
X028160Y011988D02*
X027993Y011988D01*
X028076Y011988D02*
X028076Y012239D01*
X027993Y012155D01*
X027838Y012197D02*
X027796Y012239D01*
X027712Y012239D01*
X027671Y012197D01*
X027671Y012030D01*
X027712Y011988D01*
X027796Y011988D01*
X027838Y012030D01*
X027515Y012030D02*
X027515Y012113D01*
X027474Y012155D01*
X027432Y012155D01*
X027348Y012113D01*
X027348Y012239D01*
X027515Y012239D01*
X027515Y012030D02*
X027474Y011988D01*
X027390Y011988D01*
X027348Y012030D01*
X027193Y011988D02*
X027110Y012072D01*
X027151Y012072D02*
X027026Y012072D01*
X027026Y011988D02*
X027026Y012239D01*
X027151Y012239D01*
X027193Y012197D01*
X027193Y012113D01*
X027151Y012072D01*
X026792Y012175D02*
X026792Y012411D01*
X026969Y012448D02*
X026969Y012699D01*
X027094Y012699D01*
X027136Y012657D01*
X027136Y012573D01*
X027094Y012532D01*
X026969Y012532D01*
X027053Y012532D02*
X027136Y012448D01*
X027292Y012490D02*
X027333Y012448D01*
X027417Y012448D01*
X027458Y012490D01*
X027458Y012573D01*
X027417Y012615D01*
X027375Y012615D01*
X027292Y012573D01*
X027292Y012699D01*
X027458Y012699D01*
X027614Y012657D02*
X027614Y012490D01*
X027656Y012448D01*
X027739Y012448D01*
X027781Y012490D01*
X027781Y012657D02*
X027739Y012699D01*
X027656Y012699D01*
X027614Y012657D01*
X027414Y012947D02*
X027178Y012947D01*
X027178Y013420D02*
X027414Y013420D01*
X026374Y013851D02*
X026374Y013893D01*
X026332Y013935D01*
X026249Y013935D01*
X026207Y013976D01*
X026207Y014018D01*
X026249Y014060D01*
X026332Y014060D01*
X026374Y014018D01*
X026374Y013976D01*
X026332Y013935D01*
X026249Y013935D02*
X026207Y013893D01*
X026207Y013851D01*
X026249Y013810D01*
X026332Y013810D01*
X026374Y013851D01*
X026052Y013851D02*
X026052Y014018D01*
X026010Y014060D01*
X025885Y014060D01*
X025885Y013810D01*
X026010Y013810D01*
X026052Y013851D01*
X026320Y012411D02*
X026320Y012175D01*
X026767Y011594D02*
X027082Y011594D01*
X026767Y011594D02*
X026767Y011358D01*
X020964Y013280D02*
X020728Y013280D01*
X019744Y013711D02*
X019702Y013670D01*
X019619Y013670D01*
X019577Y013711D01*
X019744Y013878D01*
X019744Y013711D01*
X019577Y013711D02*
X019577Y013878D01*
X019619Y013920D01*
X019702Y013920D01*
X019744Y013878D01*
X019422Y013670D02*
X019255Y013670D01*
X019338Y013670D02*
X019338Y013920D01*
X019255Y013836D01*
X019099Y013878D02*
X019058Y013920D01*
X018932Y013920D01*
X018932Y013670D01*
X019058Y013670D01*
X019099Y013711D01*
X019099Y013878D01*
X017226Y014103D02*
X017226Y014270D01*
X017226Y014426D02*
X016976Y014426D01*
X016976Y014592D01*
X017101Y014509D02*
X017101Y014426D01*
X017226Y014426D02*
X017226Y014592D01*
X017226Y014748D02*
X017226Y014873D01*
X017184Y014915D01*
X017018Y014915D01*
X016976Y014873D01*
X016976Y014748D01*
X017226Y014748D01*
X017226Y015070D02*
X017059Y015237D01*
X017018Y015237D01*
X016976Y015195D01*
X016976Y015112D01*
X017018Y015070D01*
X017226Y015070D02*
X017226Y015237D01*
X015856Y015175D02*
X015856Y015092D01*
X015814Y015050D01*
X015731Y015134D02*
X015731Y015175D01*
X015773Y015217D01*
X015814Y015217D01*
X015856Y015175D01*
X015731Y015175D02*
X015689Y015217D01*
X015648Y015217D01*
X015606Y015175D01*
X015606Y015092D01*
X015648Y015050D01*
X015648Y014895D02*
X015606Y014853D01*
X015606Y014728D01*
X015856Y014728D01*
X015856Y014853D01*
X015814Y014895D01*
X015648Y014895D01*
X015606Y014572D02*
X015606Y014406D01*
X015856Y014406D01*
X015856Y014572D01*
X015731Y014489D02*
X015731Y014406D01*
X015856Y014250D02*
X015856Y014083D01*
X015606Y014083D01*
X016976Y014103D02*
X017226Y014103D01*
X016396Y012584D02*
X016396Y012383D01*
X016296Y012483D02*
X016496Y012483D01*
X015686Y012463D02*
X015486Y012463D01*
X015586Y012363D02*
X015586Y012564D01*
X012256Y014943D02*
X012006Y014693D01*
X011506Y014693D01*
X011256Y014943D01*
X011006Y014693D01*
X010506Y014693D01*
X010256Y014943D01*
X010006Y014693D01*
X009506Y014693D01*
X009256Y014943D01*
X009006Y014693D01*
X008506Y014693D01*
X008256Y014943D01*
X008256Y016443D01*
X008506Y016693D01*
X009006Y016693D01*
X009256Y016443D01*
X009506Y016693D01*
X010006Y016693D01*
X010256Y016443D01*
X010506Y016693D01*
X011006Y016693D01*
X011256Y016443D01*
X011506Y016693D01*
X012006Y016693D01*
X012256Y016443D01*
X012256Y014943D01*
X009611Y014337D02*
X009569Y014379D01*
X009486Y014379D01*
X009444Y014337D01*
X009288Y014295D02*
X009205Y014379D01*
X009122Y014295D01*
X009122Y014128D01*
X009122Y014253D02*
X009288Y014253D01*
X009288Y014295D02*
X009288Y014128D01*
X009444Y014128D02*
X009611Y014295D01*
X009611Y014337D01*
X009611Y014128D02*
X009444Y014128D01*
X008966Y014128D02*
X008799Y014128D01*
X008966Y014295D01*
X008966Y014337D01*
X008924Y014379D01*
X008841Y014379D01*
X008799Y014337D01*
X008644Y014337D02*
X008644Y014253D01*
X008602Y014212D01*
X008477Y014212D01*
X008560Y014212D02*
X008644Y014128D01*
X008477Y014128D02*
X008477Y014379D01*
X008602Y014379D01*
X008644Y014337D01*
X007642Y014655D02*
X007642Y014891D01*
X007170Y014891D02*
X007170Y014655D01*
X006352Y014242D02*
X006037Y014242D01*
X006037Y014478D01*
X005145Y014478D02*
X005145Y014242D01*
X004830Y014242D01*
X004042Y014665D02*
X004042Y014901D01*
X003570Y014901D02*
X003570Y014665D01*
X003271Y014676D02*
X003104Y014843D01*
X003063Y014843D01*
X003021Y014802D01*
X003021Y014718D01*
X003063Y014676D01*
X003063Y014521D02*
X003146Y014521D01*
X003188Y014479D01*
X003188Y014354D01*
X003271Y014354D02*
X003021Y014354D01*
X003021Y014479D01*
X003063Y014521D01*
X003188Y014438D02*
X003271Y014521D01*
X003271Y014676D02*
X003271Y014843D01*
X003271Y014999D02*
X003104Y014999D01*
X003021Y015082D01*
X003104Y015166D01*
X003271Y015166D01*
X003146Y015166D02*
X003146Y014999D01*
X003104Y015321D02*
X003021Y015404D01*
X003271Y015404D01*
X003271Y015321D02*
X003271Y015488D01*
X004290Y015686D02*
X004332Y015645D01*
X004415Y015645D01*
X004457Y015686D01*
X004457Y015853D01*
X004415Y015895D01*
X004332Y015895D01*
X004290Y015853D01*
X004290Y015686D01*
X004373Y015728D02*
X004457Y015645D01*
X004612Y015645D02*
X004779Y015645D01*
X004696Y015770D02*
X004612Y015770D01*
X004612Y015895D02*
X004612Y015645D01*
X004612Y015895D02*
X004779Y015895D01*
X004935Y015853D02*
X004935Y015811D01*
X004976Y015770D01*
X005060Y015770D01*
X005101Y015728D01*
X005101Y015686D01*
X005060Y015645D01*
X004976Y015645D01*
X004935Y015686D01*
X004935Y015728D01*
X004976Y015770D01*
X005060Y015770D02*
X005101Y015811D01*
X005101Y015853D01*
X005060Y015895D01*
X004976Y015895D01*
X004935Y015853D01*
X004830Y015344D02*
X005145Y015344D01*
X005145Y015108D01*
X006037Y015108D02*
X006037Y015344D01*
X006352Y015344D01*
X006367Y015599D02*
X006283Y015682D01*
X006242Y015599D02*
X006200Y015641D01*
X006200Y015807D01*
X006242Y015849D01*
X006325Y015849D01*
X006367Y015807D01*
X006367Y015641D01*
X006325Y015599D01*
X006242Y015599D01*
X006522Y015599D02*
X006522Y015849D01*
X006689Y015849D01*
X006606Y015724D02*
X006522Y015724D01*
X006522Y015599D02*
X006689Y015599D01*
X006845Y015641D02*
X006886Y015599D01*
X006970Y015599D01*
X007011Y015641D01*
X007011Y015807D01*
X006970Y015849D01*
X006886Y015849D01*
X006845Y015807D01*
X006845Y015766D01*
X006886Y015724D01*
X007011Y015724D01*
X007106Y016123D02*
X005866Y016123D01*
X005856Y016123D02*
X005856Y020123D01*
X005866Y020123D02*
X006286Y020123D01*
X006686Y020123D01*
X007106Y020123D01*
X007129Y020121D01*
X007152Y020116D01*
X007174Y020107D01*
X007194Y020094D01*
X007212Y020079D01*
X007227Y020061D01*
X007240Y020041D01*
X007249Y020019D01*
X007254Y019996D01*
X007256Y019973D01*
X007256Y016273D01*
X007254Y016250D01*
X007249Y016227D01*
X007240Y016205D01*
X007227Y016185D01*
X007212Y016167D01*
X007194Y016152D01*
X007174Y016139D01*
X007152Y016130D01*
X007129Y016125D01*
X007106Y016123D01*
X005866Y016123D02*
X005843Y016125D01*
X005820Y016130D01*
X005798Y016139D01*
X005778Y016152D01*
X005760Y016167D01*
X005745Y016185D01*
X005732Y016205D01*
X005723Y016227D01*
X005718Y016250D01*
X005716Y016273D01*
X005716Y019973D01*
X005718Y019996D01*
X005723Y020019D01*
X005732Y020041D01*
X005745Y020061D01*
X005760Y020079D01*
X005778Y020094D01*
X005798Y020107D01*
X005820Y020116D01*
X005843Y020121D01*
X005866Y020123D01*
X006286Y020123D02*
X006288Y020096D01*
X006293Y020069D01*
X006303Y020043D01*
X006315Y020019D01*
X006331Y019997D01*
X006349Y019977D01*
X006371Y019960D01*
X006394Y019945D01*
X006419Y019935D01*
X006445Y019927D01*
X006472Y019923D01*
X006500Y019923D01*
X006527Y019927D01*
X006553Y019935D01*
X006578Y019945D01*
X006601Y019960D01*
X006623Y019977D01*
X006641Y019997D01*
X006657Y020019D01*
X006669Y020043D01*
X006679Y020069D01*
X006684Y020096D01*
X006686Y020123D01*
X006816Y020363D02*
X004816Y020363D01*
X005816Y021363D01*
X006816Y020363D01*
X006746Y020383D02*
X006676Y020393D01*
X006686Y020443D01*
X006716Y020423D01*
X007305Y020423D02*
X007347Y020381D01*
X007430Y020381D01*
X007472Y020423D01*
X007472Y020632D01*
X007627Y020590D02*
X007669Y020632D01*
X007752Y020632D01*
X007794Y020590D01*
X007794Y020548D01*
X007627Y020381D01*
X007794Y020381D01*
X007305Y020423D02*
X007305Y020632D01*
X009696Y021533D02*
X009806Y021643D01*
X009806Y022033D01*
X009806Y022423D01*
X009696Y022533D01*
X010060Y022484D02*
X010143Y022484D01*
X010101Y022484D02*
X010101Y022275D01*
X010060Y022233D01*
X010018Y022233D01*
X009976Y022275D01*
X009806Y022033D02*
X009706Y022033D01*
X010298Y022233D02*
X010298Y022484D01*
X010424Y022484D01*
X010465Y022442D01*
X010465Y022358D01*
X010424Y022317D01*
X010298Y022317D01*
X010621Y022358D02*
X010704Y022400D01*
X010746Y022400D01*
X010788Y022358D01*
X010788Y022275D01*
X010746Y022233D01*
X010662Y022233D01*
X010621Y022275D01*
X010621Y022358D02*
X010621Y022484D01*
X010788Y022484D01*
X011828Y021993D02*
X012028Y021993D01*
X011928Y021893D02*
X011928Y022094D01*
X011969Y022133D02*
X011969Y022384D01*
X012094Y022384D01*
X012136Y022342D01*
X012136Y022258D01*
X012094Y022217D01*
X011969Y022217D01*
X012053Y022217D02*
X012136Y022133D01*
X012292Y022133D02*
X012458Y022133D01*
X012375Y022133D02*
X012375Y022384D01*
X012292Y022300D01*
X012614Y022342D02*
X012614Y022175D01*
X012781Y022342D01*
X012781Y022175D01*
X012739Y022133D01*
X012656Y022133D01*
X012614Y022175D01*
X012614Y022342D02*
X012656Y022384D01*
X012739Y022384D01*
X012781Y022342D01*
X011116Y021817D02*
X011116Y021650D01*
X011116Y021734D02*
X010866Y021734D01*
X010949Y021650D01*
X010908Y021495D02*
X010866Y021453D01*
X010866Y021328D01*
X011116Y021328D01*
X011116Y021453D01*
X011074Y021495D01*
X010908Y021495D01*
X010866Y021172D02*
X010866Y021006D01*
X011116Y021006D01*
X011116Y021172D01*
X010991Y021089D02*
X010991Y021006D01*
X011116Y020850D02*
X011116Y020683D01*
X010866Y020683D01*
X012786Y020246D02*
X012944Y020403D01*
X016408Y020403D01*
X016566Y020246D01*
X016566Y016781D01*
X016408Y016624D01*
X012944Y016624D01*
X012786Y016781D01*
X012786Y020246D01*
X008906Y022033D02*
X008706Y022033D01*
X007906Y022033D02*
X007706Y022033D01*
X006906Y022033D02*
X006706Y022033D01*
X005906Y022033D02*
X005706Y022033D01*
X004906Y022033D02*
X004806Y022033D01*
X004806Y021643D01*
X004916Y021533D01*
X004806Y022033D02*
X004806Y022423D01*
X004916Y022533D01*
X004557Y020824D02*
X004599Y020782D01*
X004599Y020741D01*
X004557Y020699D01*
X004474Y020699D01*
X004432Y020741D01*
X004432Y020782D01*
X004474Y020824D01*
X004557Y020824D01*
X004557Y020699D02*
X004599Y020657D01*
X004599Y020616D01*
X004557Y020574D01*
X004474Y020574D01*
X004432Y020616D01*
X004432Y020657D01*
X004474Y020699D01*
X004276Y020699D02*
X004110Y020699D01*
X003954Y020699D02*
X003954Y020616D01*
X003913Y020574D01*
X003829Y020574D01*
X003787Y020616D01*
X003787Y020699D02*
X003871Y020741D01*
X003913Y020741D01*
X003954Y020699D01*
X003954Y020824D02*
X003787Y020824D01*
X003787Y020699D01*
X003632Y020616D02*
X003632Y020782D01*
X003590Y020824D01*
X003465Y020824D01*
X003465Y020574D01*
X003590Y020574D01*
X003632Y020616D01*
X003310Y020824D02*
X003143Y020824D01*
X003226Y020824D02*
X003226Y020574D01*
X002987Y020574D02*
X002904Y020657D01*
X002946Y020657D02*
X002821Y020657D01*
X002821Y020574D02*
X002821Y020824D01*
X002946Y020824D01*
X002987Y020782D01*
X002987Y020699D01*
X002946Y020657D01*
X003026Y020233D02*
X004526Y020233D01*
X004776Y019983D01*
X004776Y019483D01*
X004526Y019233D01*
X004776Y018983D01*
X004776Y018483D01*
X004526Y018233D01*
X004776Y017983D01*
X004776Y017483D01*
X004526Y017233D01*
X004776Y016983D01*
X004776Y016483D01*
X004526Y016233D01*
X003026Y016233D01*
X002776Y016483D01*
X002776Y016983D01*
X003026Y017233D01*
X002776Y017483D01*
X002776Y017983D01*
X003026Y018233D01*
X002776Y018483D01*
X002776Y018983D01*
X003026Y019233D01*
X002776Y019483D01*
X002776Y019983D01*
X003026Y020233D01*
X004886Y020393D02*
X004946Y020443D01*
X004986Y020393D02*
X004886Y020393D01*
X009096Y017364D02*
X009221Y017364D01*
X009263Y017322D01*
X009263Y017238D01*
X009221Y017197D01*
X009096Y017197D01*
X009180Y017197D02*
X009263Y017113D01*
X009096Y017113D02*
X009096Y017364D01*
X009418Y017364D02*
X009585Y017364D01*
X009502Y017364D02*
X009502Y017113D01*
X009741Y017113D02*
X009866Y017113D01*
X009908Y017155D01*
X009908Y017322D01*
X009866Y017364D01*
X009741Y017364D01*
X009741Y017113D01*
X010063Y017113D02*
X010230Y017113D01*
X010146Y017113D02*
X010146Y017364D01*
X010063Y017280D01*
X010385Y017238D02*
X010552Y017238D01*
X010708Y017238D02*
X010833Y017364D01*
X010833Y017113D01*
X010874Y017238D02*
X010708Y017238D01*
X016140Y016939D02*
X016142Y016959D01*
X016147Y016979D01*
X016157Y016997D01*
X016169Y017014D01*
X016184Y017028D01*
X016202Y017038D01*
X016221Y017046D01*
X016241Y017050D01*
X016261Y017050D01*
X016281Y017046D01*
X016300Y017038D01*
X016318Y017028D01*
X016333Y017014D01*
X016345Y016997D01*
X016355Y016979D01*
X016360Y016959D01*
X016362Y016939D01*
X016360Y016919D01*
X016355Y016899D01*
X016345Y016881D01*
X016333Y016864D01*
X016318Y016850D01*
X016300Y016840D01*
X016281Y016832D01*
X016261Y016828D01*
X016241Y016828D01*
X016221Y016832D01*
X016202Y016840D01*
X016184Y016850D01*
X016169Y016864D01*
X016157Y016881D01*
X016147Y016899D01*
X016142Y016919D01*
X016140Y016939D01*
X016705Y016576D02*
X016705Y016368D01*
X016747Y016326D01*
X016830Y016326D01*
X016872Y016368D01*
X016872Y016576D01*
X017028Y016534D02*
X017028Y016493D01*
X017069Y016451D01*
X017153Y016451D01*
X017194Y016409D01*
X017194Y016368D01*
X017153Y016326D01*
X017069Y016326D01*
X017028Y016368D01*
X017028Y016409D01*
X017069Y016451D01*
X017153Y016451D02*
X017194Y016493D01*
X017194Y016534D01*
X017153Y016576D01*
X017069Y016576D01*
X017028Y016534D01*
X019996Y017693D02*
X022036Y017693D01*
X022036Y019293D01*
X019996Y019293D01*
X019996Y018643D01*
X019996Y018293D01*
X019996Y017693D01*
X019996Y018293D02*
X020021Y018295D01*
X020045Y018300D01*
X020069Y018309D01*
X020091Y018321D01*
X020111Y018336D01*
X020128Y018353D01*
X020143Y018373D01*
X020155Y018395D01*
X020164Y018419D01*
X020169Y018443D01*
X020171Y018468D01*
X020169Y018493D01*
X020164Y018517D01*
X020155Y018541D01*
X020143Y018563D01*
X020128Y018583D01*
X020111Y018600D01*
X020091Y018615D01*
X020069Y018627D01*
X020045Y018636D01*
X020021Y018641D01*
X019996Y018643D01*
X023146Y018643D02*
X023146Y018293D01*
X023146Y017693D01*
X025186Y017693D01*
X025186Y019293D01*
X023146Y019293D01*
X023146Y018643D01*
X023171Y018641D01*
X023195Y018636D01*
X023219Y018627D01*
X023241Y018615D01*
X023261Y018600D01*
X023278Y018583D01*
X023293Y018563D01*
X023305Y018541D01*
X023314Y018517D01*
X023319Y018493D01*
X023321Y018468D01*
X023319Y018443D01*
X023314Y018419D01*
X023305Y018395D01*
X023293Y018373D01*
X023278Y018353D01*
X023261Y018336D01*
X023241Y018321D01*
X023219Y018309D01*
X023195Y018300D01*
X023171Y018295D01*
X023146Y018293D01*
X026546Y018293D02*
X026546Y017693D01*
X028586Y017693D01*
X028586Y019293D01*
X026546Y019293D01*
X026546Y018643D01*
X026546Y018293D01*
X026571Y018295D01*
X026595Y018300D01*
X026619Y018309D01*
X026641Y018321D01*
X026661Y018336D01*
X026678Y018353D01*
X026693Y018373D01*
X026705Y018395D01*
X026714Y018419D01*
X026719Y018443D01*
X026721Y018468D01*
X026719Y018493D01*
X026714Y018517D01*
X026705Y018541D01*
X026693Y018563D01*
X026678Y018583D01*
X026661Y018600D01*
X026641Y018615D01*
X026619Y018627D01*
X026595Y018636D01*
X026571Y018641D01*
X026546Y018643D01*
X029846Y018643D02*
X029846Y018293D01*
X029846Y017693D01*
X031886Y017693D01*
X031886Y019293D01*
X029846Y019293D01*
X029846Y018643D01*
X029871Y018641D01*
X029895Y018636D01*
X029919Y018627D01*
X029941Y018615D01*
X029961Y018600D01*
X029978Y018583D01*
X029993Y018563D01*
X030005Y018541D01*
X030014Y018517D01*
X030019Y018493D01*
X030021Y018468D01*
X030019Y018443D01*
X030014Y018419D01*
X030005Y018395D01*
X029993Y018373D01*
X029978Y018353D01*
X029961Y018336D01*
X029941Y018321D01*
X029919Y018309D01*
X029895Y018300D01*
X029871Y018295D01*
X029846Y018293D01*
X032946Y018293D02*
X032946Y017693D01*
X034986Y017693D01*
X034986Y019293D01*
X032946Y019293D01*
X032946Y018643D01*
X032946Y018293D01*
X032971Y018295D01*
X032995Y018300D01*
X033019Y018309D01*
X033041Y018321D01*
X033061Y018336D01*
X033078Y018353D01*
X033093Y018373D01*
X033105Y018395D01*
X033114Y018419D01*
X033119Y018443D01*
X033121Y018468D01*
X033119Y018493D01*
X033114Y018517D01*
X033105Y018541D01*
X033093Y018563D01*
X033078Y018583D01*
X033061Y018600D01*
X033041Y018615D01*
X033019Y018627D01*
X032995Y018636D01*
X032971Y018641D01*
X032946Y018643D01*
X036096Y018643D02*
X036096Y018293D01*
X036096Y017693D01*
X038136Y017693D01*
X038136Y019293D01*
X036096Y019293D01*
X036096Y018643D01*
X036121Y018641D01*
X036145Y018636D01*
X036169Y018627D01*
X036191Y018615D01*
X036211Y018600D01*
X036228Y018583D01*
X036243Y018563D01*
X036255Y018541D01*
X036264Y018517D01*
X036269Y018493D01*
X036271Y018468D01*
X036269Y018443D01*
X036264Y018419D01*
X036255Y018395D01*
X036243Y018373D01*
X036228Y018353D01*
X036211Y018336D01*
X036191Y018321D01*
X036169Y018309D01*
X036145Y018300D01*
X036121Y018295D01*
X036096Y018293D01*
X039296Y018293D02*
X039296Y017693D01*
X041336Y017693D01*
X041336Y019293D01*
X039296Y019293D01*
X039296Y018643D01*
X039296Y018293D01*
X039321Y018295D01*
X039345Y018300D01*
X039369Y018309D01*
X039391Y018321D01*
X039411Y018336D01*
X039428Y018353D01*
X039443Y018373D01*
X039455Y018395D01*
X039464Y018419D01*
X039469Y018443D01*
X039471Y018468D01*
X039469Y018493D01*
X039464Y018517D01*
X039455Y018541D01*
X039443Y018563D01*
X039428Y018583D01*
X039411Y018600D01*
X039391Y018615D01*
X039369Y018627D01*
X039345Y018636D01*
X039321Y018641D01*
X039296Y018643D01*
X039219Y015654D02*
X039219Y015487D01*
X039219Y015571D02*
X038968Y015571D01*
X039052Y015487D01*
X039052Y015332D02*
X039094Y015290D01*
X039094Y015165D01*
X039219Y015165D02*
X039219Y015290D01*
X039177Y015332D01*
X039135Y015332D01*
X039094Y015290D01*
X039052Y015332D02*
X039010Y015332D01*
X038968Y015290D01*
X038968Y015165D01*
X039219Y015165D01*
X039219Y015009D02*
X039135Y014926D01*
X039177Y015009D02*
X039219Y014968D01*
X039219Y014884D01*
X039177Y014843D01*
X039010Y014843D01*
X038968Y014884D01*
X038968Y014968D01*
X039010Y015009D01*
X039177Y015009D01*
X039698Y015243D02*
X039698Y015558D01*
X039935Y015558D01*
X040565Y015558D02*
X040801Y015558D01*
X040801Y015243D01*
X041633Y014347D02*
X041758Y014347D01*
X041800Y014306D01*
X041800Y014139D01*
X041758Y014097D01*
X041633Y014097D01*
X041633Y014347D01*
X041955Y014306D02*
X041997Y014347D01*
X042080Y014347D01*
X042122Y014306D01*
X042122Y014264D01*
X042080Y014222D01*
X042122Y014180D01*
X042122Y014139D01*
X042080Y014097D01*
X041997Y014097D01*
X041955Y014139D01*
X042039Y014222D02*
X042080Y014222D01*
X038372Y014742D02*
X038205Y014742D01*
X038330Y014867D01*
X038330Y014617D01*
X038050Y014659D02*
X038050Y014826D01*
X038008Y014867D01*
X037883Y014867D01*
X037883Y014617D01*
X038008Y014617D01*
X038050Y014659D01*
X037723Y015220D02*
X037723Y015535D01*
X037487Y015535D01*
X036857Y015535D02*
X036621Y015535D01*
X036621Y015220D01*
X036047Y015212D02*
X036047Y015087D01*
X035797Y015087D01*
X035797Y015212D01*
X035838Y015254D01*
X035880Y015254D01*
X035922Y015212D01*
X035922Y015087D01*
X035922Y015212D02*
X035963Y015254D01*
X036005Y015254D01*
X036047Y015212D01*
X036047Y015409D02*
X035880Y015576D01*
X035838Y015576D01*
X035797Y015534D01*
X035797Y015451D01*
X035838Y015409D01*
X036047Y015409D02*
X036047Y015576D01*
X036047Y014931D02*
X035963Y014848D01*
X036005Y014765D02*
X035838Y014765D01*
X035797Y014806D01*
X035797Y014890D01*
X035838Y014931D01*
X036005Y014931D01*
X036047Y014890D01*
X036047Y014806D01*
X036005Y014765D01*
X034573Y015261D02*
X034573Y015576D01*
X034337Y015576D01*
X033707Y015576D02*
X033471Y015576D01*
X023173Y015258D02*
X023131Y015300D01*
X023090Y015300D01*
X023048Y015258D01*
X023048Y015133D01*
X023131Y015133D01*
X023173Y015175D01*
X023173Y015258D01*
X023048Y015133D02*
X022965Y015216D01*
X022923Y015300D01*
X021597Y015152D02*
X021597Y014837D01*
X021597Y015152D02*
X021361Y015152D01*
X021416Y015626D02*
X021416Y015668D01*
X021583Y015835D01*
X021583Y015877D01*
X021416Y015877D01*
X021260Y015835D02*
X021260Y015793D01*
X021219Y015752D01*
X021093Y015752D01*
X021093Y015877D02*
X021219Y015877D01*
X021260Y015835D01*
X021219Y015752D02*
X021260Y015710D01*
X021260Y015668D01*
X021219Y015626D01*
X021093Y015626D01*
X021093Y015877D01*
X020938Y015835D02*
X020938Y015668D01*
X020896Y015626D01*
X020813Y015626D01*
X020771Y015668D01*
X020771Y015835D01*
X020813Y015877D01*
X020896Y015877D01*
X020938Y015835D01*
X020855Y015710D02*
X020938Y015626D01*
X020731Y015152D02*
X020495Y015152D01*
X020495Y014837D01*
X020644Y020813D02*
X020578Y020880D01*
X020578Y021013D01*
X020644Y021080D01*
X020778Y021080D01*
X020844Y021013D01*
X020844Y020880D01*
X020778Y020813D01*
X020644Y020813D01*
X020317Y020880D02*
X020317Y021214D01*
X020251Y021214D02*
X020384Y021214D01*
X020317Y020880D02*
X020251Y020813D01*
X020184Y020813D01*
X020117Y020880D01*
X019493Y020880D02*
X019493Y020813D01*
X019427Y020813D01*
X019427Y020880D01*
X019493Y020880D01*
X019233Y020813D02*
X019100Y020947D01*
X019166Y020947D02*
X018966Y020947D01*
X018966Y020813D02*
X018966Y021214D01*
X019166Y021214D01*
X019233Y021147D01*
X019233Y021013D01*
X019166Y020947D01*
X019160Y022013D02*
X019160Y022414D01*
X019293Y022414D02*
X019026Y022414D01*
X019487Y022080D02*
X019553Y022080D01*
X019553Y022013D01*
X019487Y022013D01*
X019487Y022080D01*
X020177Y022147D02*
X020311Y022013D01*
X020444Y022147D01*
X020444Y022414D01*
X020177Y022414D02*
X020177Y022147D01*
X020638Y022213D02*
X020704Y022280D01*
X020838Y022280D01*
X020904Y022213D01*
X020904Y022080D01*
X020838Y022013D01*
X020704Y022013D01*
X020638Y022080D01*
X020638Y022213D01*
X021038Y021214D02*
X021038Y020813D01*
X021038Y021013D02*
X021105Y021080D01*
X021238Y021080D01*
X021305Y021013D01*
X021305Y020813D01*
X021498Y020813D02*
X021498Y021080D01*
X021699Y021080D01*
X021765Y021013D01*
X021765Y020813D01*
X021959Y020813D02*
X022159Y020813D01*
X022226Y020880D01*
X022159Y020947D01*
X022025Y020947D01*
X021959Y021013D01*
X022025Y021080D01*
X022226Y021080D01*
X022419Y021013D02*
X022486Y021080D01*
X022619Y021080D01*
X022686Y021013D01*
X022686Y020880D01*
X022619Y020813D01*
X022486Y020813D01*
X022419Y020880D01*
X022419Y021013D01*
X022880Y021080D02*
X022880Y020813D01*
X023146Y020813D02*
X023146Y021013D01*
X023080Y021080D01*
X022880Y021080D01*
X025492Y007245D02*
X025576Y007245D01*
X025534Y007245D02*
X025534Y007036D01*
X025492Y006994D01*
X025450Y006994D01*
X025409Y007036D01*
X025731Y006994D02*
X025731Y007245D01*
X025856Y007245D01*
X025898Y007203D01*
X025898Y007120D01*
X025856Y007078D01*
X025731Y007078D01*
X026053Y007161D02*
X026137Y007245D01*
X026137Y006994D01*
X026220Y006994D02*
X026053Y006994D01*
X023585Y006184D02*
X023418Y006184D01*
X023418Y006058D01*
X023502Y006100D01*
X023544Y006100D01*
X023585Y006058D01*
X023585Y005975D01*
X023544Y005933D01*
X023460Y005933D01*
X023418Y005975D01*
X023263Y005975D02*
X023221Y005933D01*
X023138Y005933D01*
X023096Y005975D01*
X023096Y006142D01*
X023138Y006184D01*
X023221Y006184D01*
X023263Y006142D01*
X023884Y005528D02*
X024671Y005528D01*
X025065Y005134D01*
X025065Y003953D01*
X024671Y003559D01*
X023884Y003559D01*
X022309Y003559D02*
X021128Y003559D01*
X021128Y005528D01*
X022309Y005528D01*
X020869Y005420D02*
X020869Y004987D01*
X020796Y004743D02*
X019996Y004743D01*
X019924Y004987D02*
X019924Y005420D01*
X020081Y005578D01*
X020711Y005578D01*
X020869Y005420D01*
X020469Y005900D02*
X020511Y005941D01*
X020511Y005983D01*
X020469Y006025D01*
X020344Y006025D01*
X020344Y005941D01*
X020386Y005900D01*
X020469Y005900D01*
X020344Y006025D02*
X020427Y006108D01*
X020511Y006150D01*
X020188Y006108D02*
X020147Y006150D01*
X020063Y006150D01*
X020022Y006108D01*
X020022Y005941D01*
X020063Y005900D01*
X020147Y005900D01*
X020188Y005941D01*
X019924Y004200D02*
X019924Y003609D01*
X020869Y003609D01*
X020869Y004200D01*
X025741Y004291D02*
X025741Y003976D01*
X037182Y003976D01*
X037182Y004291D01*
X036463Y003653D02*
X036196Y003653D01*
X035333Y003623D02*
X035067Y003623D01*
X035200Y003757D02*
X035200Y003490D01*
X034873Y003423D02*
X034606Y003423D01*
X034740Y003423D02*
X034740Y003824D01*
X034606Y003690D01*
X033953Y003593D02*
X033687Y003593D01*
X033820Y003727D02*
X033820Y003460D01*
X033493Y003393D02*
X033226Y003393D01*
X033493Y003660D01*
X033493Y003727D01*
X033426Y003794D01*
X033293Y003794D01*
X033226Y003727D01*
X032673Y003573D02*
X032407Y003573D01*
X032540Y003707D02*
X032540Y003440D01*
X032213Y003440D02*
X032213Y003507D01*
X032146Y003573D01*
X032080Y003573D01*
X032146Y003573D02*
X032213Y003640D01*
X032213Y003707D01*
X032146Y003774D01*
X032013Y003774D01*
X031946Y003707D01*
X031283Y003573D02*
X031017Y003573D01*
X031150Y003707D02*
X031150Y003440D01*
X030823Y003573D02*
X030556Y003573D01*
X030756Y003774D01*
X030756Y003373D01*
X031946Y003440D02*
X032013Y003373D01*
X032146Y003373D01*
X032213Y003440D01*
X029883Y003573D02*
X029617Y003573D01*
X029750Y003707D02*
X029750Y003440D01*
X029423Y003440D02*
X029423Y003573D01*
X029356Y003640D01*
X029290Y003640D01*
X029156Y003573D01*
X029156Y003774D01*
X029423Y003774D01*
X029423Y003440D02*
X029356Y003373D01*
X029223Y003373D01*
X029156Y003440D01*
X028423Y003553D02*
X028157Y003553D01*
X028290Y003687D02*
X028290Y003420D01*
X027963Y003420D02*
X027963Y003487D01*
X027896Y003553D01*
X027696Y003553D01*
X027696Y003420D01*
X027763Y003353D01*
X027896Y003353D01*
X027963Y003420D01*
X027830Y003687D02*
X027696Y003553D01*
X027830Y003687D02*
X027963Y003754D01*
X027073Y003533D02*
X026807Y003533D01*
X026940Y003667D02*
X026940Y003400D01*
X026613Y003667D02*
X026346Y003400D01*
X026346Y003333D01*
X026613Y003667D02*
X026613Y003734D01*
X026346Y003734D01*
X038102Y005125D02*
X038144Y005084D01*
X038227Y005084D01*
X038269Y005125D01*
X038269Y005167D01*
X038227Y005209D01*
X038144Y005209D01*
X038102Y005251D01*
X038102Y005292D01*
X038144Y005334D01*
X038227Y005334D01*
X038269Y005292D01*
X038424Y005334D02*
X038424Y005084D01*
X038549Y005084D01*
X038591Y005125D01*
X038591Y005167D01*
X038549Y005209D01*
X038424Y005209D01*
X038424Y005334D02*
X038549Y005334D01*
X038591Y005292D01*
X038591Y005251D01*
X038549Y005209D01*
X038747Y005334D02*
X038830Y005251D01*
X038913Y005334D01*
X038913Y005084D01*
X039069Y005125D02*
X039111Y005084D01*
X039194Y005084D01*
X039236Y005125D01*
X039236Y005167D01*
X039194Y005209D01*
X039111Y005209D01*
X039069Y005251D01*
X039069Y005292D01*
X039111Y005334D01*
X039194Y005334D01*
X039236Y005292D01*
X038747Y005334D02*
X038747Y005084D01*
X039713Y005251D02*
X039797Y005084D01*
X039880Y005251D01*
X040036Y005209D02*
X040119Y005251D01*
X040161Y005251D01*
X040203Y005209D01*
X040203Y005125D01*
X040161Y005084D01*
X040077Y005084D01*
X040036Y005125D01*
X040036Y005209D02*
X040036Y005334D01*
X040203Y005334D01*
D11*
X040938Y009251D03*
X037788Y009251D03*
X034588Y009201D03*
X031488Y009201D03*
X028138Y009151D03*
X024938Y009151D03*
X021588Y009151D03*
D12*
X016982Y013342D03*
X016510Y013342D03*
X016172Y013322D03*
X015700Y013322D03*
X011882Y021134D03*
X011410Y021134D03*
D13*
X011646Y021134D03*
X015936Y013322D03*
X016746Y013342D03*
D14*
X039076Y019853D03*
D15*
X039081Y019863D03*
D16*
X039081Y019873D03*
D17*
X038846Y019883D03*
D18*
X039311Y019883D03*
D19*
X039301Y020183D03*
X038691Y020203D03*
X038731Y019893D03*
X038541Y022723D03*
D20*
X038861Y021803D03*
X039421Y019893D03*
D21*
X039491Y019903D03*
X038651Y019903D03*
X038571Y020223D03*
X038611Y020443D03*
X039151Y021833D03*
X039041Y022813D03*
D22*
X039696Y022683D03*
X038256Y022613D03*
X040356Y021943D03*
X039446Y021213D03*
X039386Y020193D03*
X038586Y019913D03*
X038526Y020233D03*
D23*
X038526Y019923D03*
X039446Y020203D03*
X039556Y019913D03*
X039636Y020473D03*
X040076Y020973D03*
X038266Y022623D03*
X039256Y022813D03*
D24*
X039561Y022303D03*
X039721Y022233D03*
X040101Y022383D03*
X038831Y021793D03*
X040181Y020993D03*
X039501Y020213D03*
X039611Y019923D03*
X038471Y019933D03*
X038441Y020253D03*
D25*
X038401Y020263D03*
X038421Y019943D03*
X039551Y020223D03*
X039601Y020233D03*
X039661Y019933D03*
X039391Y022433D03*
X038851Y022513D03*
D26*
X038496Y022323D03*
X038646Y021803D03*
X039546Y022323D03*
X039706Y022243D03*
X040086Y022403D03*
X039806Y021373D03*
X039676Y021353D03*
X040276Y021013D03*
X040286Y020793D03*
X040246Y020783D03*
X040206Y020773D03*
X040146Y020403D03*
X039726Y020263D03*
X039686Y020253D03*
X039646Y020243D03*
X039626Y020463D03*
X039706Y019943D03*
X038616Y020433D03*
X038366Y020273D03*
X038156Y020353D03*
X038376Y019953D03*
D27*
X038331Y019963D03*
X038341Y020283D03*
X039431Y021203D03*
X040161Y020763D03*
X040331Y020803D03*
X039801Y020283D03*
X039791Y019963D03*
X039751Y019953D03*
X040361Y021953D03*
X040131Y022113D03*
X039691Y022693D03*
X038531Y022743D03*
X038501Y022333D03*
D28*
X038386Y022253D03*
X038656Y022393D03*
X038856Y022523D03*
X039246Y022823D03*
X039966Y021963D03*
X040316Y021023D03*
X040366Y020813D03*
X040086Y020743D03*
X040046Y020963D03*
X040146Y020413D03*
X039836Y020293D03*
X039766Y020273D03*
X039826Y019973D03*
X038296Y019973D03*
X038236Y020833D03*
X038206Y021403D03*
D29*
X038461Y021743D03*
X038471Y021753D03*
X038481Y021763D03*
X038921Y021813D03*
X039141Y021813D03*
X039681Y021343D03*
X039921Y021463D03*
X039921Y021473D03*
X039921Y021483D03*
X039961Y021953D03*
X040121Y022103D03*
X040261Y022173D03*
X040431Y022213D03*
X039891Y022593D03*
X039581Y022663D03*
X039351Y022793D03*
X038641Y022713D03*
X038071Y022523D03*
X038061Y022513D03*
X038391Y022263D03*
X038241Y020823D03*
X038161Y020363D03*
X038311Y020293D03*
X038261Y019983D03*
X039861Y019983D03*
X039901Y019993D03*
X039871Y020303D03*
X039901Y020313D03*
X039931Y020323D03*
X040401Y020823D03*
D30*
X040436Y020833D03*
X039736Y020493D03*
X039966Y020333D03*
X039986Y020343D03*
X039936Y020003D03*
X038506Y020463D03*
X038286Y020303D03*
X038266Y020313D03*
X038226Y019993D03*
X038246Y020813D03*
X038216Y021393D03*
X038576Y021813D03*
X038646Y021793D03*
X038396Y022273D03*
X038666Y022403D03*
X038076Y022533D03*
X038436Y022713D03*
X038966Y022803D03*
X039046Y022833D03*
X039316Y022413D03*
X039686Y022253D03*
X040116Y022093D03*
X040586Y022173D03*
X039606Y021363D03*
X039346Y021223D03*
D31*
X039821Y021363D03*
X039981Y021783D03*
X040461Y021923D03*
X039771Y022223D03*
X039881Y022603D03*
X039791Y022663D03*
X039381Y022783D03*
X038741Y021823D03*
X040351Y021033D03*
X040141Y020423D03*
X040011Y020353D03*
X039991Y020023D03*
X039961Y020013D03*
X039261Y020453D03*
X038241Y020323D03*
X038201Y020003D03*
D32*
X038176Y020013D03*
X038226Y020333D03*
X038206Y020343D03*
X038166Y020373D03*
X038476Y020473D03*
X039016Y020453D03*
X039076Y020143D03*
X039766Y020503D03*
X040036Y020363D03*
X040056Y020373D03*
X040066Y020733D03*
X040466Y020843D03*
X039686Y021333D03*
X039436Y021193D03*
X039336Y021233D03*
X039016Y021863D03*
X038786Y021813D03*
X038406Y022283D03*
X038676Y022413D03*
X038856Y022533D03*
X038766Y022663D03*
X038676Y022703D03*
X039396Y022443D03*
X039566Y022653D03*
X039876Y022613D03*
X039956Y021943D03*
X040256Y021923D03*
X040016Y020033D03*
D33*
X040041Y020043D03*
X040061Y020053D03*
X040071Y020383D03*
X040091Y020393D03*
X039811Y020523D03*
X039791Y020513D03*
X040491Y020853D03*
X040401Y021053D03*
X040381Y021043D03*
X039591Y021373D03*
X039511Y021223D03*
X039931Y021703D03*
X039971Y021773D03*
X040231Y021913D03*
X040241Y022163D03*
X040491Y021913D03*
X040611Y022163D03*
X039431Y022763D03*
X039411Y022773D03*
X039161Y022793D03*
X038931Y022793D03*
X038701Y022693D03*
X038791Y022503D03*
X038091Y022543D03*
X038291Y022203D03*
X038281Y022193D03*
X038561Y021823D03*
X038741Y021833D03*
X038851Y021783D03*
X039211Y021843D03*
X039291Y022403D03*
X038401Y021363D03*
X038231Y021383D03*
X038171Y021413D03*
X038451Y020483D03*
X038151Y020023D03*
X038111Y020043D03*
D34*
X038126Y020033D03*
X038106Y020343D03*
X038216Y020963D03*
X038406Y021373D03*
X038426Y021443D03*
X038556Y021833D03*
X038696Y021813D03*
X038946Y021823D03*
X039016Y021873D03*
X039066Y021843D03*
X039336Y021593D03*
X039336Y021583D03*
X039336Y021573D03*
X039586Y021383D03*
X039766Y021383D03*
X039826Y021353D03*
X039936Y021693D03*
X039926Y021713D03*
X039926Y021723D03*
X040076Y021833D03*
X040096Y021843D03*
X040126Y021863D03*
X040146Y021873D03*
X040166Y021883D03*
X040186Y021893D03*
X040206Y021903D03*
X040506Y021903D03*
X040526Y021893D03*
X040636Y022153D03*
X039456Y022413D03*
X039266Y022393D03*
X038766Y022653D03*
X038906Y022783D03*
X038406Y022703D03*
X038176Y022603D03*
X038526Y022313D03*
X038016Y021953D03*
X039326Y021243D03*
X040506Y020863D03*
X040526Y020873D03*
X040546Y020883D03*
X039836Y020533D03*
X039286Y020463D03*
X040076Y020063D03*
X040096Y020073D03*
D35*
X040111Y020083D03*
X040141Y020103D03*
X040201Y020393D03*
X039881Y020563D03*
X039851Y020543D03*
X040561Y020893D03*
X040581Y020903D03*
X040591Y020913D03*
X040621Y020933D03*
X040681Y020983D03*
X040451Y021083D03*
X040431Y021073D03*
X040421Y021063D03*
X039901Y021453D03*
X039941Y021673D03*
X039941Y021683D03*
X039931Y021733D03*
X039951Y021753D03*
X039961Y021763D03*
X040011Y021793D03*
X040031Y021803D03*
X040041Y021813D03*
X040061Y021823D03*
X040111Y021853D03*
X039941Y021933D03*
X040181Y022123D03*
X040221Y022153D03*
X040541Y021883D03*
X040681Y022123D03*
X040671Y022133D03*
X040651Y022143D03*
X039931Y022583D03*
X039861Y022623D03*
X039821Y022653D03*
X039561Y022643D03*
X039481Y022733D03*
X039471Y022743D03*
X039451Y022753D03*
X038891Y022773D03*
X038771Y022643D03*
X038721Y022683D03*
X038771Y022493D03*
X038611Y022383D03*
X038481Y022343D03*
X038301Y022213D03*
X038261Y022183D03*
X038001Y022253D03*
X037991Y022263D03*
X038151Y022593D03*
X038261Y022643D03*
X038391Y022693D03*
X039251Y022383D03*
X039021Y021883D03*
X038961Y021833D03*
X038741Y021843D03*
X038651Y021783D03*
X038431Y021563D03*
X038411Y021383D03*
X038231Y020973D03*
X038201Y020953D03*
X038311Y020913D03*
X038321Y020923D03*
X038401Y020513D03*
X038411Y020503D03*
X038431Y020493D03*
X038711Y020463D03*
X038991Y020463D03*
X038091Y020053D03*
X039521Y021233D03*
X039331Y021563D03*
X039331Y021603D03*
X039801Y022213D03*
X038011Y021963D03*
D36*
X038026Y021943D03*
X038046Y021733D03*
X038056Y021723D03*
X038106Y021463D03*
X038136Y021433D03*
X038146Y021423D03*
X038366Y021273D03*
X038416Y021393D03*
X038416Y021423D03*
X038416Y021433D03*
X038436Y021453D03*
X038426Y021553D03*
X038436Y021573D03*
X038546Y021843D03*
X038736Y021853D03*
X038976Y021843D03*
X038986Y021853D03*
X039016Y021893D03*
X039296Y021633D03*
X039306Y021623D03*
X039316Y021613D03*
X039296Y021523D03*
X039296Y021273D03*
X039306Y021263D03*
X039316Y021253D03*
X039526Y021243D03*
X039576Y021393D03*
X039736Y021363D03*
X039766Y021393D03*
X039866Y021383D03*
X039956Y021493D03*
X039956Y021503D03*
X039946Y021643D03*
X039946Y021653D03*
X039946Y021663D03*
X039936Y021743D03*
X039826Y021913D03*
X039836Y021923D03*
X039836Y021933D03*
X039916Y021973D03*
X040016Y021973D03*
X040026Y021983D03*
X040036Y021993D03*
X040046Y022003D03*
X040086Y022123D03*
X040196Y022133D03*
X040166Y022373D03*
X040036Y022373D03*
X039966Y022553D03*
X039956Y022563D03*
X039946Y022573D03*
X039836Y022643D03*
X039516Y022703D03*
X039506Y022713D03*
X039496Y022723D03*
X038916Y022503D03*
X038756Y022483D03*
X038746Y022473D03*
X038736Y022463D03*
X038596Y022373D03*
X038586Y022363D03*
X038776Y022633D03*
X038736Y022673D03*
X038816Y022703D03*
X038856Y022743D03*
X038866Y022753D03*
X038876Y022763D03*
X038376Y022683D03*
X038366Y022673D03*
X038336Y022603D03*
X038136Y022583D03*
X038016Y022503D03*
X038006Y022493D03*
X038006Y022243D03*
X038216Y022143D03*
X038246Y022173D03*
X039226Y022363D03*
X039236Y022373D03*
X039476Y022403D03*
X039626Y022293D03*
X039816Y022203D03*
X040556Y021873D03*
X040566Y021863D03*
X040726Y022083D03*
X040716Y022093D03*
X040706Y022103D03*
X040696Y022113D03*
X040496Y021123D03*
X040486Y021113D03*
X040476Y021103D03*
X040466Y021093D03*
X040606Y020923D03*
X040636Y020943D03*
X040646Y020953D03*
X040656Y020963D03*
X040666Y020973D03*
X040696Y020993D03*
X040706Y021003D03*
X040766Y021073D03*
X040006Y020953D03*
X040046Y020723D03*
X039896Y020573D03*
X039866Y020553D03*
X039316Y020483D03*
X039306Y020473D03*
X039136Y020413D03*
X038976Y020473D03*
X038276Y020843D03*
X038306Y020903D03*
X038236Y020983D03*
X038186Y020943D03*
X038086Y020333D03*
X038076Y020323D03*
X038066Y020073D03*
X038076Y020063D03*
X040126Y020093D03*
X040156Y020113D03*
X040166Y020123D03*
X040176Y020133D03*
D37*
X040181Y020143D03*
X040191Y020153D03*
X040201Y020163D03*
X040201Y020173D03*
X040211Y020183D03*
X040221Y020203D03*
X040231Y020223D03*
X040231Y020233D03*
X040241Y020273D03*
X040241Y020283D03*
X040241Y020293D03*
X040241Y020303D03*
X040241Y020313D03*
X040231Y020353D03*
X040221Y020373D03*
X040211Y020383D03*
X040121Y020433D03*
X040111Y020463D03*
X040111Y020473D03*
X040101Y020493D03*
X040101Y020503D03*
X040091Y020533D03*
X040081Y020563D03*
X040081Y020573D03*
X040071Y020603D03*
X040071Y020613D03*
X040061Y020643D03*
X040061Y020653D03*
X040051Y020683D03*
X040051Y020693D03*
X040031Y020773D03*
X040031Y020783D03*
X040021Y020823D03*
X040021Y020833D03*
X040021Y020843D03*
X040011Y020873D03*
X040011Y020883D03*
X040011Y020893D03*
X040011Y020903D03*
X040011Y020913D03*
X040001Y020933D03*
X040001Y020943D03*
X039991Y021053D03*
X039991Y021063D03*
X039991Y021073D03*
X039991Y021083D03*
X039991Y021093D03*
X039981Y021193D03*
X039981Y021203D03*
X039981Y021213D03*
X039981Y021223D03*
X039981Y021233D03*
X039971Y021343D03*
X039971Y021353D03*
X039971Y021363D03*
X039971Y021373D03*
X039971Y021383D03*
X039881Y021403D03*
X039881Y021413D03*
X039871Y021393D03*
X039891Y021443D03*
X039961Y021513D03*
X039961Y021523D03*
X039961Y021533D03*
X039961Y021543D03*
X039951Y021603D03*
X039951Y021613D03*
X039951Y021623D03*
X039951Y021633D03*
X039951Y021793D03*
X039951Y021853D03*
X039951Y021863D03*
X039951Y021873D03*
X039941Y021913D03*
X039941Y021923D03*
X039851Y021943D03*
X039851Y022013D03*
X039841Y022033D03*
X039841Y022043D03*
X039831Y022053D03*
X039821Y022063D03*
X039831Y022083D03*
X039841Y022103D03*
X039851Y022143D03*
X039841Y022173D03*
X039841Y022183D03*
X039831Y022193D03*
X039641Y022283D03*
X039491Y022293D03*
X039491Y022333D03*
X039491Y022373D03*
X039491Y022383D03*
X039481Y022393D03*
X039541Y022623D03*
X039551Y022633D03*
X039531Y022683D03*
X039521Y022693D03*
X039841Y022633D03*
X039971Y022543D03*
X039981Y022533D03*
X039991Y022523D03*
X039991Y022513D03*
X040001Y022503D03*
X040001Y022493D03*
X040011Y022483D03*
X040011Y022473D03*
X040021Y022443D03*
X040181Y022363D03*
X040181Y022353D03*
X040191Y022343D03*
X040191Y022333D03*
X040201Y022323D03*
X040211Y022303D03*
X040211Y022293D03*
X040221Y022273D03*
X040221Y022263D03*
X040201Y022143D03*
X040081Y022133D03*
X040081Y022083D03*
X040071Y022063D03*
X040071Y022053D03*
X040061Y022033D03*
X040051Y022013D03*
X040581Y021853D03*
X040591Y021843D03*
X040591Y021833D03*
X040601Y021823D03*
X040611Y021803D03*
X040621Y021783D03*
X040631Y021753D03*
X040631Y021743D03*
X040641Y021713D03*
X040641Y021703D03*
X040651Y021663D03*
X040651Y021653D03*
X040651Y021643D03*
X040661Y021543D03*
X040661Y021533D03*
X040661Y021523D03*
X040661Y021513D03*
X040661Y021503D03*
X040651Y021403D03*
X040651Y021393D03*
X040641Y021353D03*
X040641Y021343D03*
X040631Y021313D03*
X040631Y021303D03*
X040621Y021283D03*
X040621Y021273D03*
X040611Y021253D03*
X040601Y021233D03*
X040591Y021223D03*
X040591Y021213D03*
X040581Y021203D03*
X040571Y021193D03*
X040561Y021183D03*
X040551Y021173D03*
X040541Y021163D03*
X040531Y021153D03*
X040521Y021143D03*
X040511Y021133D03*
X040711Y021013D03*
X040721Y021023D03*
X040731Y021033D03*
X040741Y021043D03*
X040751Y021053D03*
X040761Y021063D03*
X040771Y021083D03*
X040781Y021093D03*
X040791Y021103D03*
X040791Y021113D03*
X040801Y021123D03*
X040811Y021133D03*
X040811Y021143D03*
X040821Y021153D03*
X040821Y021163D03*
X040831Y021173D03*
X040831Y021183D03*
X040841Y021193D03*
X040841Y021203D03*
X040851Y021223D03*
X040851Y021233D03*
X040861Y021253D03*
X040861Y021263D03*
X040871Y021293D03*
X040871Y021303D03*
X040881Y021343D03*
X040881Y021353D03*
X040881Y021363D03*
X040891Y021413D03*
X040891Y021423D03*
X040891Y021433D03*
X040891Y021443D03*
X040891Y021453D03*
X040891Y021463D03*
X040891Y021583D03*
X040891Y021593D03*
X040891Y021603D03*
X040891Y021613D03*
X040891Y021623D03*
X040891Y021633D03*
X040881Y021693D03*
X040881Y021703D03*
X040871Y021753D03*
X040871Y021763D03*
X040861Y021793D03*
X040861Y021803D03*
X040851Y021833D03*
X040851Y021843D03*
X040841Y021863D03*
X040841Y021873D03*
X040831Y021893D03*
X040831Y021903D03*
X040821Y021913D03*
X040821Y021923D03*
X040811Y021943D03*
X040801Y021963D03*
X040791Y021983D03*
X040781Y022003D03*
X040771Y022013D03*
X040771Y022023D03*
X040761Y022033D03*
X040751Y022043D03*
X040751Y022053D03*
X040741Y022063D03*
X040731Y022073D03*
X039831Y021343D03*
X039761Y021403D03*
X039761Y021413D03*
X039571Y021413D03*
X039571Y021403D03*
X039561Y021323D03*
X039561Y021313D03*
X039551Y021293D03*
X039551Y021283D03*
X039541Y021263D03*
X039531Y021253D03*
X039311Y021153D03*
X039311Y021143D03*
X039311Y021133D03*
X039311Y021123D03*
X039311Y021113D03*
X039311Y021103D03*
X039311Y021093D03*
X039321Y020963D03*
X039321Y020953D03*
X039321Y020943D03*
X039321Y020933D03*
X039321Y020923D03*
X039321Y020913D03*
X039331Y020783D03*
X039331Y020773D03*
X039331Y020763D03*
X039331Y020753D03*
X039331Y020743D03*
X039331Y020733D03*
X039331Y020723D03*
X039331Y020713D03*
X039331Y020563D03*
X039331Y020553D03*
X039331Y020543D03*
X039331Y020533D03*
X039331Y020523D03*
X039321Y020493D03*
X039531Y020543D03*
X039531Y020553D03*
X039531Y020563D03*
X039531Y020573D03*
X039541Y020503D03*
X039551Y020493D03*
X039621Y020453D03*
X039901Y020583D03*
X039911Y020593D03*
X039911Y020603D03*
X039911Y020613D03*
X039911Y020643D03*
X039911Y020653D03*
X039911Y020663D03*
X039911Y020673D03*
X039901Y020723D03*
X039901Y020733D03*
X039891Y020773D03*
X039891Y020783D03*
X039881Y020833D03*
X039881Y020843D03*
X039871Y020883D03*
X039871Y020893D03*
X039861Y020933D03*
X039861Y020943D03*
X039851Y021003D03*
X039851Y021013D03*
X039841Y021113D03*
X039841Y021123D03*
X039841Y021133D03*
X039841Y021143D03*
X039841Y021153D03*
X039841Y021163D03*
X039841Y021173D03*
X039841Y021183D03*
X039841Y021193D03*
X039841Y021203D03*
X039531Y020883D03*
X039531Y020873D03*
X039531Y020863D03*
X039531Y020853D03*
X039531Y020843D03*
X039531Y020833D03*
X039531Y020823D03*
X039531Y020813D03*
X039531Y020803D03*
X039531Y020793D03*
X039531Y020783D03*
X039531Y020773D03*
X039531Y020763D03*
X038971Y020873D03*
X038971Y020883D03*
X038971Y020893D03*
X038971Y020903D03*
X038971Y020913D03*
X038971Y020923D03*
X038971Y020933D03*
X038971Y020943D03*
X038971Y020953D03*
X038971Y020963D03*
X038731Y020963D03*
X038731Y020953D03*
X038731Y020943D03*
X038731Y020933D03*
X038731Y020923D03*
X038731Y020913D03*
X038731Y020903D03*
X038731Y020973D03*
X038731Y020983D03*
X038741Y020703D03*
X038741Y020693D03*
X038741Y020683D03*
X038741Y020673D03*
X038741Y020663D03*
X038741Y020653D03*
X038741Y020643D03*
X038741Y020633D03*
X038741Y020623D03*
X038741Y020613D03*
X038741Y020603D03*
X038741Y020593D03*
X038741Y020583D03*
X038741Y020573D03*
X038741Y020563D03*
X038731Y020493D03*
X038721Y020473D03*
X038971Y020483D03*
X038391Y020523D03*
X038381Y020543D03*
X038381Y020553D03*
X038381Y020563D03*
X038381Y020573D03*
X038381Y020583D03*
X038391Y020633D03*
X038391Y020643D03*
X038401Y020693D03*
X038401Y020703D03*
X038411Y020743D03*
X038411Y020753D03*
X038421Y020793D03*
X038421Y020803D03*
X038431Y020843D03*
X038431Y020853D03*
X038431Y020863D03*
X038441Y020923D03*
X038441Y020933D03*
X038441Y020943D03*
X038441Y020953D03*
X038441Y020963D03*
X038441Y020973D03*
X038441Y020983D03*
X038441Y020993D03*
X038441Y021003D03*
X038441Y021013D03*
X038441Y021023D03*
X038341Y020993D03*
X038341Y020963D03*
X038341Y020953D03*
X038331Y021023D03*
X038321Y021043D03*
X038321Y021053D03*
X038321Y021063D03*
X038321Y021073D03*
X038321Y021083D03*
X038331Y021123D03*
X038331Y021133D03*
X038331Y021143D03*
X038341Y021173D03*
X038341Y021183D03*
X038351Y021203D03*
X038351Y021213D03*
X038351Y021223D03*
X038361Y021263D03*
X038371Y021283D03*
X038381Y021293D03*
X038381Y021343D03*
X038381Y021353D03*
X038421Y021403D03*
X038421Y021413D03*
X038451Y021463D03*
X038451Y021513D03*
X038451Y021523D03*
X038441Y021533D03*
X038431Y021543D03*
X038441Y021613D03*
X038441Y021623D03*
X038431Y021643D03*
X038431Y021653D03*
X038421Y021673D03*
X038421Y021683D03*
X038411Y021713D03*
X038411Y021723D03*
X038421Y021733D03*
X038531Y021773D03*
X038531Y021783D03*
X038541Y021853D03*
X038541Y021863D03*
X038761Y021783D03*
X038761Y021773D03*
X038761Y021763D03*
X038761Y021753D03*
X038761Y021743D03*
X038761Y021733D03*
X038761Y021723D03*
X038751Y021623D03*
X038751Y021613D03*
X038751Y021603D03*
X038751Y021593D03*
X038741Y021503D03*
X038741Y021493D03*
X038741Y021483D03*
X038741Y021473D03*
X038731Y021383D03*
X038731Y021373D03*
X038731Y021363D03*
X038731Y021353D03*
X038971Y021353D03*
X038971Y021363D03*
X038971Y021373D03*
X038971Y021383D03*
X038971Y021393D03*
X038971Y021403D03*
X038971Y021413D03*
X038961Y021583D03*
X038961Y021593D03*
X038961Y021603D03*
X038961Y021613D03*
X038961Y021623D03*
X038961Y021633D03*
X038961Y021643D03*
X038961Y021653D03*
X038961Y021663D03*
X038961Y021673D03*
X038961Y021683D03*
X038961Y021693D03*
X038961Y021703D03*
X038961Y021713D03*
X038961Y021723D03*
X038961Y021733D03*
X038961Y021743D03*
X038961Y021753D03*
X039051Y021853D03*
X039021Y021903D03*
X039021Y021913D03*
X039021Y021923D03*
X039021Y021933D03*
X039231Y021813D03*
X039241Y021753D03*
X039241Y021743D03*
X039251Y021713D03*
X039261Y021693D03*
X039261Y021683D03*
X039271Y021673D03*
X039271Y021663D03*
X039281Y021653D03*
X039291Y021643D03*
X039321Y021553D03*
X039311Y021543D03*
X039301Y021533D03*
X039291Y021513D03*
X039281Y021503D03*
X039281Y021493D03*
X039271Y021483D03*
X039271Y021473D03*
X039261Y021453D03*
X039251Y021413D03*
X039251Y021403D03*
X039251Y021393D03*
X039251Y021383D03*
X039251Y021373D03*
X039261Y021333D03*
X039271Y021313D03*
X039271Y021303D03*
X039281Y021293D03*
X039291Y021283D03*
X038431Y021253D03*
X038431Y021243D03*
X038431Y021233D03*
X038431Y021223D03*
X038431Y021213D03*
X038431Y021203D03*
X038431Y021193D03*
X038431Y021183D03*
X038431Y021173D03*
X038251Y021173D03*
X038251Y021183D03*
X038251Y021193D03*
X038261Y021233D03*
X038261Y021243D03*
X038261Y021333D03*
X038261Y021343D03*
X038261Y021353D03*
X038261Y021363D03*
X038261Y021373D03*
X038251Y021413D03*
X038121Y021443D03*
X038111Y021453D03*
X038101Y021473D03*
X038091Y021483D03*
X038091Y021493D03*
X038081Y021503D03*
X038081Y021513D03*
X038071Y021533D03*
X038061Y021563D03*
X038061Y021573D03*
X038051Y021633D03*
X038051Y021643D03*
X038051Y021653D03*
X038051Y021663D03*
X038061Y021703D03*
X038061Y021713D03*
X038031Y021743D03*
X038031Y021753D03*
X038021Y021763D03*
X038021Y021773D03*
X038011Y021803D03*
X038011Y021893D03*
X038011Y021903D03*
X038021Y021923D03*
X038021Y021933D03*
X037991Y021973D03*
X037981Y021993D03*
X037971Y022033D03*
X037971Y022043D03*
X037971Y022053D03*
X037971Y022063D03*
X037971Y022093D03*
X037971Y022103D03*
X037971Y022113D03*
X037971Y022123D03*
X037981Y022173D03*
X037991Y022193D03*
X037991Y022203D03*
X038001Y022223D03*
X038011Y022233D03*
X037981Y022273D03*
X037971Y022283D03*
X037961Y022303D03*
X037961Y022313D03*
X037961Y022323D03*
X037961Y022383D03*
X037961Y022393D03*
X037961Y022403D03*
X037971Y022423D03*
X037971Y022433D03*
X037981Y022453D03*
X037981Y022463D03*
X037991Y022473D03*
X038001Y022483D03*
X038121Y022563D03*
X038131Y022573D03*
X038351Y022643D03*
X038351Y022653D03*
X038361Y022663D03*
X038441Y022313D03*
X038431Y022303D03*
X038431Y022293D03*
X038531Y022303D03*
X038561Y022343D03*
X038571Y022353D03*
X038711Y022423D03*
X038721Y022443D03*
X038731Y022453D03*
X038771Y022613D03*
X038771Y022623D03*
X038801Y022673D03*
X038801Y022683D03*
X038811Y022693D03*
X038821Y022713D03*
X038831Y022723D03*
X038841Y022733D03*
X038921Y022493D03*
X039201Y022343D03*
X039201Y022333D03*
X039191Y022323D03*
X039191Y022313D03*
X039211Y022353D03*
X039161Y022783D03*
X038331Y022243D03*
X038321Y022233D03*
X038321Y022223D03*
X038231Y022163D03*
X038221Y022153D03*
X038211Y022133D03*
X038201Y022123D03*
X038201Y022113D03*
X038191Y022093D03*
X038191Y022083D03*
X038191Y022033D03*
X038241Y021143D03*
X038231Y021103D03*
X038231Y021093D03*
X038231Y021083D03*
X038231Y021073D03*
X038221Y021033D03*
X038221Y021023D03*
X038221Y021013D03*
X038231Y020993D03*
X038181Y020933D03*
X038171Y020923D03*
X038171Y020863D03*
X038181Y020843D03*
X038291Y020863D03*
X038301Y020893D03*
X038271Y020763D03*
X038271Y020753D03*
X038261Y020713D03*
X038261Y020703D03*
X038251Y020673D03*
X038251Y020663D03*
X038241Y020633D03*
X038241Y020623D03*
X038231Y020593D03*
X038231Y020583D03*
X038221Y020553D03*
X038221Y020543D03*
X038211Y020513D03*
X038211Y020503D03*
X038201Y020463D03*
X038201Y020453D03*
X038191Y020393D03*
X038191Y020383D03*
X038071Y020313D03*
X038061Y020303D03*
X038051Y020293D03*
X038051Y020283D03*
X038041Y020263D03*
X038031Y020233D03*
X038031Y020223D03*
X038031Y020213D03*
X038031Y020163D03*
X038031Y020153D03*
X038041Y020123D03*
X038041Y020113D03*
X038051Y020103D03*
X038051Y020093D03*
X038061Y020083D03*
D38*
X038036Y020133D03*
X038036Y020143D03*
X038026Y020173D03*
X038026Y020183D03*
X038026Y020193D03*
X038026Y020203D03*
X038036Y020243D03*
X038036Y020253D03*
X038046Y020273D03*
X038196Y020403D03*
X038196Y020413D03*
X038196Y020423D03*
X038196Y020433D03*
X038196Y020443D03*
X038206Y020473D03*
X038206Y020483D03*
X038206Y020493D03*
X038216Y020523D03*
X038216Y020533D03*
X038226Y020563D03*
X038226Y020573D03*
X038236Y020603D03*
X038236Y020613D03*
X038246Y020643D03*
X038246Y020653D03*
X038256Y020683D03*
X038256Y020693D03*
X038266Y020723D03*
X038266Y020733D03*
X038266Y020743D03*
X038276Y020773D03*
X038276Y020783D03*
X038276Y020793D03*
X038276Y020803D03*
X038286Y020853D03*
X038296Y020873D03*
X038296Y020883D03*
X038336Y020933D03*
X038336Y020943D03*
X038346Y020973D03*
X038346Y020983D03*
X038336Y021003D03*
X038336Y021013D03*
X038326Y021033D03*
X038326Y021093D03*
X038326Y021103D03*
X038326Y021113D03*
X038336Y021153D03*
X038336Y021163D03*
X038346Y021193D03*
X038356Y021233D03*
X038356Y021243D03*
X038356Y021253D03*
X038386Y021303D03*
X038386Y021313D03*
X038386Y021323D03*
X038386Y021333D03*
X038426Y021333D03*
X038426Y021323D03*
X038426Y021313D03*
X038426Y021303D03*
X038426Y021293D03*
X038426Y021283D03*
X038426Y021273D03*
X038426Y021263D03*
X038426Y021343D03*
X038426Y021353D03*
X038456Y021473D03*
X038456Y021483D03*
X038456Y021493D03*
X038456Y021503D03*
X038446Y021583D03*
X038446Y021593D03*
X038446Y021603D03*
X038436Y021633D03*
X038426Y021663D03*
X038416Y021693D03*
X038416Y021703D03*
X038486Y021733D03*
X038536Y021793D03*
X038536Y021803D03*
X038736Y021863D03*
X038756Y021713D03*
X038756Y021703D03*
X038756Y021693D03*
X038756Y021683D03*
X038756Y021673D03*
X038756Y021663D03*
X038756Y021653D03*
X038756Y021643D03*
X038756Y021633D03*
X038746Y021583D03*
X038746Y021573D03*
X038746Y021563D03*
X038746Y021553D03*
X038746Y021543D03*
X038746Y021533D03*
X038746Y021523D03*
X038746Y021513D03*
X038736Y021463D03*
X038736Y021453D03*
X038736Y021443D03*
X038736Y021433D03*
X038736Y021423D03*
X038736Y021413D03*
X038736Y021403D03*
X038736Y021393D03*
X038726Y021343D03*
X038726Y021333D03*
X038726Y021323D03*
X038726Y021313D03*
X038726Y021303D03*
X038726Y021293D03*
X038726Y021283D03*
X038726Y021273D03*
X038726Y021263D03*
X038726Y021253D03*
X038726Y021243D03*
X038726Y021233D03*
X038726Y021223D03*
X038726Y021213D03*
X038726Y021203D03*
X038726Y021193D03*
X038726Y021183D03*
X038726Y021173D03*
X038726Y021163D03*
X038726Y021153D03*
X038726Y021143D03*
X038726Y021133D03*
X038726Y021123D03*
X038726Y021113D03*
X038726Y021103D03*
X038726Y021093D03*
X038726Y021083D03*
X038726Y021073D03*
X038726Y021063D03*
X038726Y021053D03*
X038726Y021043D03*
X038726Y021033D03*
X038726Y021023D03*
X038726Y021013D03*
X038726Y021003D03*
X038726Y020993D03*
X038736Y020893D03*
X038736Y020883D03*
X038736Y020873D03*
X038736Y020863D03*
X038736Y020853D03*
X038736Y020843D03*
X038736Y020833D03*
X038736Y020823D03*
X038736Y020813D03*
X038736Y020803D03*
X038736Y020793D03*
X038736Y020783D03*
X038736Y020773D03*
X038736Y020763D03*
X038736Y020753D03*
X038736Y020743D03*
X038736Y020733D03*
X038736Y020723D03*
X038736Y020713D03*
X038736Y020553D03*
X038736Y020543D03*
X038736Y020533D03*
X038736Y020523D03*
X038736Y020513D03*
X038736Y020503D03*
X038726Y020483D03*
X038966Y020493D03*
X038966Y020503D03*
X038966Y020513D03*
X038966Y020523D03*
X038966Y020533D03*
X038966Y020543D03*
X038966Y020553D03*
X038966Y020563D03*
X038966Y020573D03*
X038966Y020583D03*
X038966Y020593D03*
X038966Y020603D03*
X038966Y020613D03*
X038966Y020623D03*
X038966Y020633D03*
X038966Y020643D03*
X038966Y020653D03*
X038966Y020663D03*
X038966Y020673D03*
X038966Y020683D03*
X038966Y020693D03*
X038966Y020703D03*
X038966Y020713D03*
X038966Y020723D03*
X038966Y020733D03*
X038966Y020743D03*
X038966Y020753D03*
X038966Y020763D03*
X038966Y020773D03*
X038966Y020783D03*
X038966Y020793D03*
X038966Y020803D03*
X038966Y020813D03*
X038966Y020823D03*
X038966Y020833D03*
X038966Y020843D03*
X038966Y020853D03*
X038966Y020863D03*
X038976Y020973D03*
X038976Y020983D03*
X038976Y020993D03*
X038976Y021003D03*
X038976Y021013D03*
X038976Y021023D03*
X038976Y021033D03*
X038976Y021043D03*
X038976Y021053D03*
X038976Y021063D03*
X038976Y021073D03*
X038976Y021083D03*
X038976Y021093D03*
X038976Y021103D03*
X038976Y021113D03*
X038976Y021123D03*
X038976Y021133D03*
X038976Y021143D03*
X038976Y021153D03*
X038976Y021163D03*
X038976Y021173D03*
X038976Y021183D03*
X038976Y021193D03*
X038976Y021203D03*
X038976Y021213D03*
X038976Y021223D03*
X038976Y021233D03*
X038976Y021243D03*
X038976Y021253D03*
X038976Y021263D03*
X038976Y021273D03*
X038976Y021283D03*
X038976Y021293D03*
X038976Y021303D03*
X038976Y021313D03*
X038976Y021323D03*
X038976Y021333D03*
X038976Y021343D03*
X038966Y021423D03*
X038966Y021433D03*
X038966Y021443D03*
X038966Y021453D03*
X038966Y021463D03*
X038966Y021473D03*
X038966Y021483D03*
X038966Y021493D03*
X038966Y021503D03*
X038966Y021513D03*
X038966Y021523D03*
X038966Y021533D03*
X038966Y021543D03*
X038966Y021553D03*
X038966Y021563D03*
X038966Y021573D03*
X038966Y021763D03*
X038966Y021773D03*
X038966Y021783D03*
X038966Y021793D03*
X039016Y021943D03*
X039236Y021803D03*
X039236Y021793D03*
X039236Y021783D03*
X039236Y021773D03*
X039236Y021763D03*
X039246Y021733D03*
X039246Y021723D03*
X039256Y021703D03*
X039266Y021463D03*
X039256Y021443D03*
X039256Y021433D03*
X039256Y021423D03*
X039256Y021363D03*
X039256Y021353D03*
X039256Y021343D03*
X039266Y021323D03*
X039306Y021213D03*
X039306Y021203D03*
X039306Y021193D03*
X039306Y021183D03*
X039306Y021173D03*
X039306Y021163D03*
X039316Y021083D03*
X039316Y021073D03*
X039316Y021063D03*
X039316Y021053D03*
X039316Y021043D03*
X039316Y021033D03*
X039316Y021023D03*
X039316Y021013D03*
X039316Y021003D03*
X039316Y020993D03*
X039316Y020983D03*
X039316Y020973D03*
X039326Y020903D03*
X039326Y020893D03*
X039326Y020883D03*
X039326Y020873D03*
X039326Y020863D03*
X039326Y020853D03*
X039326Y020843D03*
X039326Y020833D03*
X039326Y020823D03*
X039326Y020813D03*
X039326Y020803D03*
X039326Y020793D03*
X039336Y020703D03*
X039336Y020693D03*
X039336Y020683D03*
X039336Y020673D03*
X039336Y020663D03*
X039336Y020653D03*
X039336Y020643D03*
X039336Y020633D03*
X039336Y020623D03*
X039336Y020613D03*
X039336Y020603D03*
X039336Y020593D03*
X039336Y020583D03*
X039336Y020573D03*
X039326Y020513D03*
X039326Y020503D03*
X039536Y020513D03*
X039536Y020523D03*
X039536Y020533D03*
X039526Y020583D03*
X039526Y020593D03*
X039526Y020603D03*
X039526Y020613D03*
X039526Y020623D03*
X039526Y020633D03*
X039526Y020643D03*
X039526Y020653D03*
X039526Y020663D03*
X039526Y020673D03*
X039526Y020683D03*
X039526Y020693D03*
X039526Y020703D03*
X039526Y020713D03*
X039526Y020723D03*
X039526Y020733D03*
X039526Y020743D03*
X039526Y020753D03*
X039536Y020893D03*
X039536Y020903D03*
X039536Y020913D03*
X039536Y020923D03*
X039536Y020933D03*
X039536Y020943D03*
X039536Y020953D03*
X039536Y020963D03*
X039536Y020973D03*
X039536Y020983D03*
X039536Y020993D03*
X039536Y021003D03*
X039536Y021013D03*
X039536Y021023D03*
X039536Y021033D03*
X039536Y021043D03*
X039536Y021053D03*
X039536Y021063D03*
X039536Y021073D03*
X039536Y021083D03*
X039536Y021093D03*
X039536Y021103D03*
X039536Y021113D03*
X039536Y021123D03*
X039536Y021133D03*
X039536Y021143D03*
X039536Y021153D03*
X039536Y021163D03*
X039536Y021173D03*
X039536Y021183D03*
X039536Y021193D03*
X039536Y021203D03*
X039546Y021273D03*
X039556Y021303D03*
X039566Y021333D03*
X039566Y021343D03*
X039566Y021353D03*
X039756Y021423D03*
X039836Y021333D03*
X039836Y021323D03*
X039836Y021313D03*
X039836Y021303D03*
X039836Y021293D03*
X039836Y021283D03*
X039836Y021273D03*
X039836Y021263D03*
X039836Y021253D03*
X039836Y021243D03*
X039836Y021233D03*
X039836Y021223D03*
X039836Y021213D03*
X039846Y021103D03*
X039846Y021093D03*
X039846Y021083D03*
X039846Y021073D03*
X039846Y021063D03*
X039846Y021053D03*
X039846Y021043D03*
X039846Y021033D03*
X039846Y021023D03*
X039856Y020993D03*
X039856Y020983D03*
X039856Y020973D03*
X039856Y020963D03*
X039856Y020953D03*
X039866Y020923D03*
X039866Y020913D03*
X039866Y020903D03*
X039876Y020873D03*
X039876Y020863D03*
X039876Y020853D03*
X039886Y020823D03*
X039886Y020813D03*
X039886Y020803D03*
X039886Y020793D03*
X039896Y020763D03*
X039896Y020753D03*
X039896Y020743D03*
X039906Y020713D03*
X039906Y020703D03*
X039906Y020693D03*
X039906Y020683D03*
X039916Y020633D03*
X039916Y020623D03*
X040056Y020663D03*
X040056Y020673D03*
X040046Y020703D03*
X040046Y020713D03*
X040036Y020763D03*
X040026Y020793D03*
X040026Y020803D03*
X040026Y020813D03*
X040016Y020853D03*
X040016Y020863D03*
X040006Y020923D03*
X039996Y020993D03*
X039996Y021003D03*
X039996Y021013D03*
X039996Y021023D03*
X039996Y021033D03*
X039996Y021043D03*
X039986Y021103D03*
X039986Y021113D03*
X039986Y021123D03*
X039986Y021133D03*
X039986Y021143D03*
X039986Y021153D03*
X039986Y021163D03*
X039986Y021173D03*
X039986Y021183D03*
X039976Y021243D03*
X039976Y021253D03*
X039976Y021263D03*
X039976Y021273D03*
X039976Y021283D03*
X039976Y021293D03*
X039976Y021303D03*
X039976Y021313D03*
X039976Y021323D03*
X039976Y021333D03*
X039966Y021393D03*
X039966Y021403D03*
X039966Y021413D03*
X039966Y021423D03*
X039966Y021433D03*
X039966Y021443D03*
X039966Y021453D03*
X039886Y021433D03*
X039886Y021423D03*
X039956Y021553D03*
X039956Y021563D03*
X039956Y021573D03*
X039956Y021583D03*
X039956Y021593D03*
X039956Y021803D03*
X039956Y021813D03*
X039956Y021823D03*
X039956Y021833D03*
X039956Y021843D03*
X039946Y021883D03*
X039946Y021893D03*
X039946Y021903D03*
X039916Y021983D03*
X039856Y021983D03*
X039856Y021973D03*
X039856Y021963D03*
X039856Y021953D03*
X039856Y021993D03*
X039856Y022003D03*
X039846Y022023D03*
X039826Y022073D03*
X039836Y022093D03*
X039846Y022113D03*
X039846Y022123D03*
X039846Y022133D03*
X039846Y022153D03*
X039846Y022163D03*
X039646Y022263D03*
X039646Y022273D03*
X039496Y022343D03*
X039496Y022353D03*
X039496Y022363D03*
X039546Y022613D03*
X039536Y022673D03*
X039166Y022773D03*
X038926Y022483D03*
X038926Y022473D03*
X038926Y022463D03*
X038926Y022453D03*
X038716Y022433D03*
X038706Y022383D03*
X039186Y022303D03*
X040016Y022453D03*
X040016Y022463D03*
X040026Y022433D03*
X040026Y022423D03*
X040026Y022413D03*
X040206Y022313D03*
X040216Y022283D03*
X040226Y022253D03*
X040226Y022243D03*
X040226Y022233D03*
X040226Y022223D03*
X040226Y022213D03*
X040226Y022203D03*
X040226Y022193D03*
X040076Y022143D03*
X040076Y022073D03*
X040066Y022043D03*
X040056Y022023D03*
X040606Y021813D03*
X040616Y021793D03*
X040626Y021773D03*
X040626Y021763D03*
X040636Y021733D03*
X040636Y021723D03*
X040646Y021693D03*
X040646Y021683D03*
X040646Y021673D03*
X040656Y021633D03*
X040656Y021623D03*
X040656Y021613D03*
X040656Y021603D03*
X040656Y021593D03*
X040656Y021583D03*
X040656Y021573D03*
X040656Y021563D03*
X040656Y021553D03*
X040656Y021493D03*
X040656Y021483D03*
X040656Y021473D03*
X040656Y021463D03*
X040656Y021453D03*
X040656Y021443D03*
X040656Y021433D03*
X040656Y021423D03*
X040656Y021413D03*
X040646Y021383D03*
X040646Y021373D03*
X040646Y021363D03*
X040636Y021333D03*
X040636Y021323D03*
X040626Y021293D03*
X040616Y021263D03*
X040606Y021243D03*
X040846Y021213D03*
X040856Y021243D03*
X040866Y021273D03*
X040866Y021283D03*
X040876Y021313D03*
X040876Y021323D03*
X040876Y021333D03*
X040886Y021373D03*
X040886Y021383D03*
X040886Y021393D03*
X040886Y021403D03*
X040896Y021473D03*
X040896Y021483D03*
X040896Y021493D03*
X040896Y021503D03*
X040896Y021513D03*
X040896Y021523D03*
X040896Y021533D03*
X040896Y021543D03*
X040896Y021553D03*
X040896Y021563D03*
X040896Y021573D03*
X040886Y021643D03*
X040886Y021653D03*
X040886Y021663D03*
X040886Y021673D03*
X040886Y021683D03*
X040876Y021713D03*
X040876Y021723D03*
X040876Y021733D03*
X040876Y021743D03*
X040866Y021773D03*
X040866Y021783D03*
X040856Y021813D03*
X040856Y021823D03*
X040846Y021853D03*
X040836Y021883D03*
X040816Y021933D03*
X040806Y021953D03*
X040796Y021973D03*
X040786Y021993D03*
X038436Y021163D03*
X038436Y021153D03*
X038436Y021143D03*
X038436Y021133D03*
X038436Y021123D03*
X038436Y021113D03*
X038436Y021103D03*
X038436Y021093D03*
X038436Y021083D03*
X038436Y021073D03*
X038436Y021063D03*
X038436Y021053D03*
X038436Y021043D03*
X038436Y021033D03*
X038436Y020913D03*
X038436Y020903D03*
X038436Y020893D03*
X038436Y020883D03*
X038436Y020873D03*
X038426Y020833D03*
X038426Y020823D03*
X038426Y020813D03*
X038416Y020783D03*
X038416Y020773D03*
X038416Y020763D03*
X038406Y020733D03*
X038406Y020723D03*
X038406Y020713D03*
X038396Y020683D03*
X038396Y020673D03*
X038396Y020663D03*
X038396Y020653D03*
X038386Y020623D03*
X038386Y020613D03*
X038386Y020603D03*
X038386Y020593D03*
X038386Y020533D03*
X038176Y020853D03*
X038166Y020873D03*
X038166Y020883D03*
X038166Y020893D03*
X038166Y020903D03*
X038166Y020913D03*
X038226Y021003D03*
X038226Y021043D03*
X038226Y021053D03*
X038226Y021063D03*
X038236Y021113D03*
X038236Y021123D03*
X038236Y021133D03*
X038246Y021153D03*
X038246Y021163D03*
X038256Y021203D03*
X038256Y021213D03*
X038256Y021223D03*
X038266Y021253D03*
X038266Y021263D03*
X038266Y021273D03*
X038266Y021283D03*
X038266Y021293D03*
X038266Y021303D03*
X038266Y021313D03*
X038266Y021323D03*
X038076Y021523D03*
X038066Y021543D03*
X038066Y021553D03*
X038056Y021583D03*
X038056Y021593D03*
X038056Y021603D03*
X038056Y021613D03*
X038056Y021623D03*
X038056Y021673D03*
X038056Y021683D03*
X038056Y021693D03*
X038016Y021783D03*
X038016Y021793D03*
X038006Y021813D03*
X038006Y021823D03*
X038006Y021833D03*
X038006Y021843D03*
X038006Y021853D03*
X038006Y021863D03*
X038006Y021873D03*
X038006Y021883D03*
X038016Y021913D03*
X037986Y021983D03*
X037976Y022003D03*
X037976Y022013D03*
X037976Y022023D03*
X037966Y022073D03*
X037966Y022083D03*
X037976Y022133D03*
X037976Y022143D03*
X037976Y022153D03*
X037976Y022163D03*
X037986Y022183D03*
X037996Y022213D03*
X037966Y022293D03*
X037956Y022333D03*
X037956Y022343D03*
X037956Y022353D03*
X037956Y022363D03*
X037956Y022373D03*
X037966Y022413D03*
X037976Y022443D03*
X038116Y022553D03*
X038196Y022103D03*
X038186Y022073D03*
X038186Y022063D03*
X038186Y022053D03*
X038186Y022043D03*
X040066Y020633D03*
X040066Y020623D03*
X040076Y020593D03*
X040076Y020583D03*
X040086Y020553D03*
X040086Y020543D03*
X040096Y020523D03*
X040096Y020513D03*
X040106Y020483D03*
X040116Y020453D03*
X040116Y020443D03*
X040226Y020363D03*
X040236Y020343D03*
X040236Y020333D03*
X040236Y020323D03*
X040236Y020263D03*
X040236Y020253D03*
X040236Y020243D03*
X040226Y020213D03*
X040216Y020193D03*
D39*
X039066Y020153D03*
D40*
X039051Y020163D03*
D41*
X039051Y020173D03*
D42*
X038856Y020183D03*
X040406Y022183D03*
D43*
X038751Y020193D03*
D44*
X038626Y020213D03*
X040106Y020983D03*
X040426Y022203D03*
X039696Y022673D03*
D45*
X039381Y022423D03*
X039161Y021823D03*
X039131Y020423D03*
X038481Y020243D03*
D46*
X038601Y020453D03*
X039141Y020433D03*
X040361Y021933D03*
D47*
X039226Y022803D03*
X039136Y020443D03*
D48*
X039646Y020483D03*
X038536Y022733D03*
D49*
X038276Y022633D03*
X039046Y022823D03*
X039556Y022313D03*
X040096Y022393D03*
X040236Y021003D03*
X040106Y020753D03*
D50*
X039571Y021423D03*
X038741Y021873D03*
X038541Y021873D03*
X038191Y022023D03*
X038341Y022593D03*
X038771Y022603D03*
X038921Y022443D03*
X040031Y022363D03*
X040351Y021963D03*
X038231Y020803D03*
D51*
X039826Y021903D03*
X038536Y022293D03*
D52*
X040426Y022193D03*
D53*
X006566Y020463D02*
X005816Y021213D01*
X005616Y021013D01*
X005116Y020513D01*
X005066Y020463D02*
X006566Y020463D01*
X006366Y020663D02*
X005266Y020663D01*
X005466Y020863D02*
X006166Y020863D01*
X006016Y021013D02*
X005616Y021013D01*
D54*
X031605Y020328D03*
D55*
X032588Y020328D03*
D56*
X031605Y020329D03*
D57*
X032588Y020329D03*
D58*
X032540Y020396D03*
X032540Y020397D03*
X032540Y020399D03*
X032581Y020509D03*
X032687Y020395D03*
X032686Y020394D03*
X032281Y020339D03*
X032281Y020337D03*
X032226Y020567D03*
X031740Y020515D03*
X031740Y020514D03*
X031692Y020389D03*
X031605Y020330D03*
X031555Y020397D03*
X031555Y020399D03*
X031555Y020400D03*
X031555Y020401D03*
X031596Y020509D03*
X031597Y020510D03*
X031321Y020570D03*
X031007Y020521D03*
X031007Y020520D03*
X031007Y020519D03*
X030981Y020470D03*
D59*
X030957Y020379D03*
X030957Y020377D03*
X030956Y020376D03*
X030956Y020375D03*
X030956Y020374D03*
X030955Y020372D03*
X030955Y020371D03*
X030955Y020370D03*
X030952Y020362D03*
X030952Y020361D03*
X030952Y020360D03*
X030951Y020357D03*
X030951Y020356D03*
X030950Y020354D03*
X030950Y020352D03*
X031206Y020414D03*
X031211Y020421D03*
X031215Y020427D03*
X031217Y020430D03*
X031220Y020434D03*
X031221Y020435D03*
X031222Y020437D03*
X031225Y020441D03*
X031226Y020442D03*
X031227Y020444D03*
X031231Y020449D03*
X031232Y020451D03*
X031235Y020455D03*
X031236Y020456D03*
X031240Y020462D03*
X031242Y020465D03*
X031245Y020469D03*
X031247Y020472D03*
X032140Y020340D03*
X032141Y020342D03*
X032142Y020345D03*
X032145Y020354D03*
X032146Y020356D03*
X032147Y020359D03*
X032150Y020367D03*
X032151Y020370D03*
X032155Y020381D03*
X032156Y020384D03*
X032157Y020386D03*
X032160Y020395D03*
X032161Y020397D03*
X032162Y020400D03*
X032166Y020411D03*
X032167Y020414D03*
X032170Y020422D03*
X032171Y020425D03*
X032175Y020436D03*
X032176Y020439D03*
X032177Y020441D03*
X032180Y020450D03*
X032181Y020452D03*
X032182Y020455D03*
X032186Y020466D03*
X032187Y020469D03*
X032190Y020477D03*
X032191Y020480D03*
X032195Y020491D03*
X032196Y020494D03*
X032325Y020450D03*
X032326Y020452D03*
X032327Y020455D03*
X032331Y020466D03*
X032332Y020469D03*
X032335Y020477D03*
X032336Y020480D03*
X032340Y020491D03*
X032341Y020494D03*
X032342Y020496D03*
X032345Y020505D03*
X032346Y020507D03*
X032347Y020510D03*
X032351Y020521D03*
X032352Y020524D03*
X032355Y020532D03*
X032356Y020535D03*
X032357Y020537D03*
X032360Y020546D03*
X032361Y020549D03*
X032362Y020551D03*
X032365Y020559D03*
X032365Y020560D03*
X032366Y020562D03*
X032367Y020565D03*
X032322Y020441D03*
X032321Y020439D03*
X032320Y020436D03*
X032316Y020425D03*
X032315Y020422D03*
X032312Y020414D03*
X032587Y020330D03*
X032695Y020410D03*
X032696Y020412D03*
X032722Y020495D03*
D60*
X032680Y020385D03*
X032545Y020382D03*
X032597Y020524D03*
X032598Y020525D03*
X032226Y020555D03*
X032226Y020556D03*
X032226Y020557D03*
X031736Y020526D03*
X031613Y020525D03*
X031612Y020524D03*
X031606Y020331D03*
X031318Y020560D03*
X031318Y020561D03*
X033525Y020339D03*
D61*
X032722Y020522D03*
X032587Y020516D03*
X032586Y020515D03*
X032585Y020514D03*
X032541Y020392D03*
X032541Y020391D03*
X032587Y020331D03*
X032684Y020391D03*
X032226Y020564D03*
X032226Y020565D03*
X031739Y020519D03*
X031689Y020386D03*
X031688Y020385D03*
X031687Y020384D03*
X031556Y020392D03*
X031320Y020567D03*
X030962Y020420D03*
D62*
X031566Y020375D03*
X031606Y020332D03*
X031731Y020532D03*
X032551Y020375D03*
D63*
X032545Y020381D03*
X032587Y020332D03*
X032599Y020526D03*
X032718Y020529D03*
X032282Y020352D03*
X032282Y020351D03*
X032225Y020554D03*
X031735Y020527D03*
X031614Y020526D03*
X031560Y020382D03*
X031678Y020377D03*
X031317Y020559D03*
X031004Y020529D03*
X030959Y020424D03*
X033525Y020340D03*
D64*
X033524Y020413D03*
X033525Y020428D03*
X033580Y020413D03*
X033590Y020428D03*
X033157Y020423D03*
X033155Y020418D03*
X033148Y020398D03*
X033144Y020388D03*
X032545Y020443D03*
X032259Y020428D03*
X032258Y020433D03*
X032257Y020438D03*
X032255Y020448D03*
X032248Y020478D03*
X032247Y020483D03*
X032245Y020493D03*
X031993Y020573D03*
X031989Y020563D03*
X031982Y020543D03*
X031980Y020538D03*
X031969Y020508D03*
X031962Y020488D03*
X031960Y020483D03*
X031949Y020453D03*
X031942Y020433D03*
X031940Y020428D03*
X031929Y020398D03*
X031922Y020378D03*
X031920Y020373D03*
X031918Y020368D03*
X031909Y020343D03*
X031740Y020503D03*
X031570Y020468D03*
X031562Y020448D03*
X031559Y020438D03*
X031322Y020433D03*
X031322Y020428D03*
X031322Y020423D03*
X031184Y020383D03*
X031177Y020373D03*
X031170Y020363D03*
X031163Y020353D03*
X030963Y020403D03*
X030948Y020333D03*
X030823Y020388D03*
X030819Y020378D03*
X030812Y020358D03*
X030810Y020353D03*
X030803Y020333D03*
X030830Y020408D03*
X030832Y020413D03*
X030990Y020478D03*
X030999Y020493D03*
D65*
X031002Y020498D03*
X031004Y020503D03*
X031006Y020508D03*
X030964Y020408D03*
X030836Y020423D03*
X030834Y020418D03*
X030829Y020403D03*
X030827Y020398D03*
X030825Y020393D03*
X030818Y020373D03*
X030816Y020368D03*
X030814Y020363D03*
X030809Y020348D03*
X030807Y020343D03*
X030805Y020338D03*
X031149Y020333D03*
X031153Y020338D03*
X031160Y020348D03*
X031320Y020338D03*
X031321Y020363D03*
X031321Y020368D03*
X031321Y020373D03*
X031321Y020378D03*
X031321Y020383D03*
X031556Y020423D03*
X031557Y020428D03*
X031558Y020433D03*
X031561Y020443D03*
X031564Y020453D03*
X031566Y020458D03*
X031568Y020463D03*
X031573Y020473D03*
X031578Y020483D03*
X031581Y020488D03*
X031707Y020408D03*
X031704Y020403D03*
X031741Y020508D03*
X031944Y020438D03*
X031946Y020443D03*
X031948Y020448D03*
X031953Y020463D03*
X031955Y020468D03*
X031957Y020473D03*
X031959Y020478D03*
X031964Y020493D03*
X031966Y020498D03*
X031968Y020503D03*
X031973Y020518D03*
X031975Y020523D03*
X031977Y020528D03*
X031979Y020533D03*
X031984Y020548D03*
X031986Y020553D03*
X031988Y020558D03*
X031939Y020423D03*
X031937Y020418D03*
X031935Y020413D03*
X031933Y020408D03*
X031928Y020393D03*
X031926Y020388D03*
X031924Y020383D03*
X031917Y020363D03*
X031915Y020358D03*
X031913Y020353D03*
X031908Y020338D03*
X031906Y020333D03*
X032281Y020333D03*
X032227Y020573D03*
X032547Y020448D03*
X032549Y020453D03*
X032551Y020458D03*
X032553Y020463D03*
X032555Y020468D03*
X032558Y020473D03*
X032560Y020478D03*
X032563Y020483D03*
X032566Y020488D03*
X032569Y020493D03*
X032544Y020438D03*
X032543Y020433D03*
X032542Y020428D03*
X032541Y020423D03*
X032540Y020418D03*
X032724Y020508D03*
X033141Y020378D03*
X033143Y020383D03*
X033150Y020403D03*
X033152Y020408D03*
X033154Y020413D03*
X033159Y020428D03*
X033161Y020433D03*
X033524Y020408D03*
X033525Y020418D03*
X033525Y020423D03*
X033526Y020433D03*
X033526Y020438D03*
X033527Y020448D03*
X033527Y020453D03*
X033527Y020458D03*
X033528Y020463D03*
X033528Y020468D03*
X033528Y020473D03*
X033529Y020478D03*
X033529Y020483D03*
X033529Y020488D03*
X033530Y020493D03*
X033530Y020498D03*
X033530Y020503D03*
X033531Y020513D03*
X033531Y020518D03*
X033532Y020528D03*
X033532Y020533D03*
X033533Y020543D03*
X033533Y020548D03*
X033534Y020563D03*
X033634Y020493D03*
X033631Y020488D03*
X033624Y020478D03*
X033621Y020473D03*
X033617Y020468D03*
X033614Y020463D03*
X033611Y020458D03*
X033607Y020453D03*
X033604Y020448D03*
X033601Y020443D03*
X033597Y020438D03*
X033594Y020433D03*
X033587Y020423D03*
X033584Y020418D03*
X033577Y020408D03*
X033641Y020503D03*
X033644Y020508D03*
X033651Y020518D03*
X033661Y020533D03*
D66*
X033657Y020528D03*
X033654Y020523D03*
X033647Y020513D03*
X033637Y020498D03*
X033627Y020483D03*
X033664Y020538D03*
X033667Y020543D03*
X033674Y020553D03*
X033677Y020558D03*
X033684Y020568D03*
X033687Y020573D03*
X033534Y020573D03*
X033534Y020568D03*
X033533Y020558D03*
X033533Y020553D03*
X033532Y020538D03*
X033530Y020508D03*
X032724Y020513D03*
X032572Y020498D03*
X032539Y020413D03*
X032539Y020408D03*
X031700Y020398D03*
X031555Y020413D03*
X031555Y020418D03*
X031575Y020478D03*
X031584Y020493D03*
X031587Y020498D03*
X031322Y020573D03*
X031320Y020358D03*
X031320Y020353D03*
X031320Y020348D03*
X031320Y020343D03*
X031319Y020333D03*
X030985Y020473D03*
D67*
X031311Y020543D03*
X031606Y020333D03*
D68*
X031273Y020508D03*
X031266Y020498D03*
X031262Y020493D03*
X031255Y020483D03*
X031252Y020478D03*
X031248Y020473D03*
X031241Y020463D03*
X032138Y020333D03*
X032140Y020338D03*
X032147Y020358D03*
X032151Y020368D03*
X032156Y020383D03*
X032158Y020388D03*
X032160Y020393D03*
X032162Y020398D03*
X032167Y020413D03*
X032171Y020423D03*
X032176Y020438D03*
X032178Y020443D03*
X032180Y020448D03*
X032182Y020453D03*
X032187Y020468D03*
X032191Y020478D03*
X032196Y020493D03*
X032323Y020443D03*
X032321Y020438D03*
X032325Y020448D03*
X032327Y020453D03*
X032332Y020468D03*
X032336Y020478D03*
X032341Y020493D03*
X032343Y020498D03*
X032345Y020503D03*
X032347Y020508D03*
X032352Y020523D03*
X032356Y020533D03*
X032363Y020553D03*
X032365Y020558D03*
X032367Y020563D03*
X032316Y020423D03*
X032312Y020413D03*
X032697Y020413D03*
D69*
X032587Y020333D03*
D70*
X032675Y020333D03*
D71*
X033186Y020333D03*
X033191Y020348D03*
X033197Y020363D03*
X030901Y020433D03*
D72*
X031558Y020388D03*
X031605Y020518D03*
X032282Y020343D03*
X032590Y020518D03*
X032722Y020523D03*
X033523Y020333D03*
D73*
X033524Y020409D03*
X033524Y020410D03*
X033524Y020411D03*
X033524Y020412D03*
X033525Y020426D03*
X033525Y020427D03*
X033578Y020410D03*
X033582Y020416D03*
X033584Y020419D03*
X033588Y020425D03*
X033592Y020431D03*
X033594Y020434D03*
X033160Y020432D03*
X033160Y020431D03*
X033159Y020429D03*
X033158Y020426D03*
X033154Y020415D03*
X033153Y020412D03*
X033152Y020410D03*
X033152Y020409D03*
X033150Y020404D03*
X033149Y020401D03*
X033148Y020399D03*
X033147Y020396D03*
X033145Y020390D03*
X033144Y020387D03*
X033143Y020385D03*
X033142Y020382D03*
X032724Y020505D03*
X032724Y020506D03*
X032724Y020507D03*
X032693Y020406D03*
X032692Y020404D03*
X032553Y020464D03*
X032552Y020462D03*
X032550Y020457D03*
X032549Y020454D03*
X032548Y020452D03*
X032547Y020449D03*
X032544Y020439D03*
X032263Y020412D03*
X032262Y020415D03*
X032262Y020416D03*
X032260Y020424D03*
X032260Y020425D03*
X032259Y020429D03*
X032259Y020430D03*
X032258Y020434D03*
X032257Y020437D03*
X032257Y020439D03*
X032255Y020446D03*
X032255Y020447D03*
X032254Y020451D03*
X032254Y020452D03*
X032253Y020456D03*
X032253Y020457D03*
X032252Y020460D03*
X032252Y020461D03*
X032252Y020462D03*
X032250Y020469D03*
X032250Y020470D03*
X032250Y020471D03*
X032249Y020474D03*
X032249Y020475D03*
X032248Y020479D03*
X032248Y020480D03*
X032247Y020484D03*
X032245Y020492D03*
X031992Y020571D03*
X031990Y020565D03*
X031989Y020562D03*
X031988Y020560D03*
X031987Y020557D03*
X031985Y020552D03*
X031984Y020549D03*
X031983Y020546D03*
X031979Y020535D03*
X031978Y020532D03*
X031977Y020530D03*
X031975Y020524D03*
X031974Y020521D03*
X031973Y020519D03*
X031972Y020516D03*
X031970Y020510D03*
X031968Y020505D03*
X031967Y020502D03*
X031965Y020497D03*
X031964Y020494D03*
X031963Y020491D03*
X031959Y020480D03*
X031958Y020477D03*
X031957Y020475D03*
X031955Y020469D03*
X031954Y020466D03*
X031953Y020464D03*
X031952Y020461D03*
X031950Y020455D03*
X031948Y020450D03*
X031947Y020447D03*
X031945Y020442D03*
X031944Y020439D03*
X031943Y020436D03*
X031939Y020425D03*
X031938Y020422D03*
X031937Y020420D03*
X031935Y020414D03*
X031934Y020411D03*
X031933Y020409D03*
X031932Y020406D03*
X031930Y020400D03*
X031928Y020395D03*
X031927Y020392D03*
X031925Y020387D03*
X031924Y020384D03*
X031923Y020381D03*
X031922Y020379D03*
X031919Y020370D03*
X031918Y020367D03*
X031917Y020365D03*
X031915Y020359D03*
X031914Y020357D03*
X031914Y020356D03*
X031913Y020354D03*
X031912Y020351D03*
X031910Y020346D03*
X031910Y020345D03*
X031908Y020340D03*
X031907Y020337D03*
X031714Y020421D03*
X031713Y020419D03*
X031712Y020417D03*
X031710Y020414D03*
X031709Y020412D03*
X031708Y020411D03*
X031708Y020410D03*
X031707Y020409D03*
X031704Y020404D03*
X031740Y020499D03*
X031740Y020500D03*
X031740Y020501D03*
X031740Y020502D03*
X031740Y020504D03*
X031695Y020577D03*
X031569Y020466D03*
X031567Y020461D03*
X031565Y020456D03*
X031564Y020454D03*
X031563Y020451D03*
X031560Y020442D03*
X031558Y020434D03*
X031322Y020434D03*
X031322Y020435D03*
X031322Y020436D03*
X031322Y020432D03*
X031322Y020431D03*
X031322Y020430D03*
X031322Y020429D03*
X031322Y020427D03*
X031322Y020426D03*
X031322Y020425D03*
X031322Y020424D03*
X031322Y020422D03*
X031322Y020421D03*
X031322Y020420D03*
X031322Y020419D03*
X031194Y020397D03*
X031189Y020390D03*
X031187Y020387D03*
X031185Y020384D03*
X031182Y020380D03*
X031180Y020377D03*
X031179Y020376D03*
X031178Y020374D03*
X031175Y020370D03*
X031174Y020369D03*
X031173Y020367D03*
X031172Y020366D03*
X031169Y020362D03*
X031168Y020360D03*
X031167Y020359D03*
X031165Y020356D03*
X031164Y020355D03*
X031162Y020352D03*
X031160Y020349D03*
X031158Y020346D03*
X031157Y020345D03*
X031155Y020342D03*
X031153Y020339D03*
X030962Y020396D03*
X030962Y020397D03*
X030963Y020401D03*
X030963Y020402D03*
X030963Y020404D03*
X030963Y020405D03*
X030948Y020337D03*
X030948Y020336D03*
X030948Y020335D03*
X030948Y020334D03*
X030819Y020377D03*
X030818Y020375D03*
X030817Y020372D03*
X030815Y020367D03*
X030815Y020366D03*
X030814Y020364D03*
X030813Y020361D03*
X030809Y020350D03*
X030808Y020347D03*
X030807Y020345D03*
X030807Y020344D03*
X030805Y020339D03*
X030804Y020336D03*
X030803Y020334D03*
X030820Y020380D03*
X030822Y020386D03*
X030823Y020389D03*
X030824Y020391D03*
X030825Y020394D03*
X030827Y020399D03*
X030827Y020400D03*
X030828Y020402D03*
X030829Y020405D03*
X030833Y020416D03*
X030834Y020419D03*
X030835Y020421D03*
X030835Y020422D03*
X030987Y020475D03*
X030988Y020476D03*
X030989Y020477D03*
X030992Y020481D03*
X030993Y020482D03*
X030994Y020484D03*
X030995Y020485D03*
X030997Y020489D03*
X030998Y020490D03*
X030998Y020491D03*
X030999Y020492D03*
X031000Y020494D03*
X031000Y020495D03*
X031002Y020499D03*
X031003Y020501D03*
X031003Y020502D03*
X031004Y020504D03*
D74*
X031005Y020505D03*
X031005Y020506D03*
X031005Y020507D03*
X031006Y020509D03*
X031006Y020510D03*
X031003Y020500D03*
X030964Y020411D03*
X030964Y020410D03*
X030964Y020409D03*
X030964Y020407D03*
X030964Y020406D03*
X030838Y020427D03*
X030837Y020426D03*
X030837Y020425D03*
X030835Y020420D03*
X030834Y020417D03*
X030833Y020415D03*
X030833Y020414D03*
X030832Y020412D03*
X030831Y020409D03*
X030830Y020407D03*
X030830Y020406D03*
X030829Y020404D03*
X030828Y020401D03*
X030826Y020396D03*
X030826Y020395D03*
X030825Y020392D03*
X030824Y020390D03*
X030823Y020387D03*
X030822Y020385D03*
X030822Y020384D03*
X030821Y020382D03*
X030821Y020381D03*
X030820Y020379D03*
X030819Y020376D03*
X030818Y020374D03*
X030817Y020371D03*
X030817Y020370D03*
X030815Y020365D03*
X030814Y020362D03*
X030813Y020360D03*
X030813Y020359D03*
X030812Y020357D03*
X030811Y020354D03*
X030810Y020352D03*
X030810Y020351D03*
X030809Y020349D03*
X030808Y020346D03*
X030806Y020341D03*
X030806Y020340D03*
X030805Y020337D03*
X030804Y020335D03*
X031150Y020334D03*
X031151Y020335D03*
X031152Y020337D03*
X031154Y020340D03*
X031155Y020341D03*
X031157Y020344D03*
X031159Y020347D03*
X031162Y020351D03*
X031164Y020354D03*
X031169Y020361D03*
X031321Y020361D03*
X031321Y020360D03*
X031321Y020362D03*
X031321Y020364D03*
X031321Y020365D03*
X031321Y020366D03*
X031321Y020367D03*
X031321Y020369D03*
X031321Y020370D03*
X031321Y020371D03*
X031321Y020372D03*
X031321Y020374D03*
X031321Y020375D03*
X031321Y020376D03*
X031321Y020377D03*
X031321Y020379D03*
X031321Y020380D03*
X031321Y020381D03*
X031321Y020382D03*
X031321Y020384D03*
X031321Y020385D03*
X031320Y020337D03*
X031320Y020336D03*
X031320Y020335D03*
X031556Y020420D03*
X031556Y020421D03*
X031556Y020422D03*
X031556Y020424D03*
X031557Y020426D03*
X031557Y020427D03*
X031557Y020429D03*
X031558Y020430D03*
X031558Y020431D03*
X031558Y020432D03*
X031559Y020435D03*
X031559Y020436D03*
X031559Y020437D03*
X031560Y020439D03*
X031560Y020440D03*
X031560Y020441D03*
X031561Y020444D03*
X031562Y020446D03*
X031562Y020447D03*
X031563Y020449D03*
X031563Y020450D03*
X031564Y020452D03*
X031565Y020455D03*
X031566Y020457D03*
X031567Y020460D03*
X031568Y020462D03*
X031569Y020464D03*
X031569Y020465D03*
X031570Y020467D03*
X031571Y020469D03*
X031572Y020471D03*
X031572Y020472D03*
X031573Y020474D03*
X031574Y020475D03*
X031574Y020476D03*
X031575Y020477D03*
X031576Y020479D03*
X031577Y020481D03*
X031578Y020482D03*
X031579Y020484D03*
X031580Y020486D03*
X031583Y020491D03*
X031585Y020494D03*
X031705Y020405D03*
X031706Y020406D03*
X031703Y020402D03*
X031701Y020399D03*
X031741Y020505D03*
X031741Y020506D03*
X031741Y020507D03*
X031741Y020509D03*
X031941Y020430D03*
X031941Y020429D03*
X031940Y020427D03*
X031940Y020426D03*
X031939Y020424D03*
X031938Y020421D03*
X031937Y020419D03*
X031936Y020416D03*
X031936Y020415D03*
X031935Y020412D03*
X031934Y020410D03*
X031933Y020407D03*
X031932Y020405D03*
X031932Y020404D03*
X031931Y020402D03*
X031931Y020401D03*
X031930Y020399D03*
X031929Y020397D03*
X031929Y020396D03*
X031928Y020394D03*
X031927Y020391D03*
X031925Y020386D03*
X031925Y020385D03*
X031924Y020382D03*
X031923Y020380D03*
X031922Y020377D03*
X031921Y020375D03*
X031921Y020374D03*
X031920Y020372D03*
X031920Y020371D03*
X031919Y020369D03*
X031918Y020366D03*
X031917Y020364D03*
X031916Y020361D03*
X031916Y020360D03*
X031914Y020355D03*
X031913Y020352D03*
X031912Y020350D03*
X031912Y020349D03*
X031911Y020347D03*
X031910Y020344D03*
X031909Y020342D03*
X031909Y020341D03*
X031908Y020339D03*
X031907Y020336D03*
X031942Y020432D03*
X031943Y020434D03*
X031943Y020435D03*
X031944Y020437D03*
X031945Y020440D03*
X031945Y020441D03*
X031947Y020445D03*
X031947Y020446D03*
X031948Y020449D03*
X031949Y020451D03*
X031949Y020452D03*
X031950Y020454D03*
X031951Y020456D03*
X031951Y020457D03*
X031952Y020459D03*
X031952Y020460D03*
X031953Y020462D03*
X031954Y020465D03*
X031955Y020467D03*
X031956Y020470D03*
X031956Y020471D03*
X031957Y020474D03*
X031958Y020476D03*
X031959Y020479D03*
X031960Y020481D03*
X031960Y020482D03*
X031961Y020484D03*
X031961Y020485D03*
X031962Y020487D03*
X031963Y020489D03*
X031963Y020490D03*
X031964Y020492D03*
X031965Y020495D03*
X031965Y020496D03*
X031967Y020500D03*
X031967Y020501D03*
X031968Y020504D03*
X031969Y020506D03*
X031969Y020507D03*
X031970Y020509D03*
X031971Y020511D03*
X031971Y020512D03*
X031972Y020514D03*
X031972Y020515D03*
X031973Y020517D03*
X031974Y020520D03*
X031975Y020522D03*
X031976Y020525D03*
X031976Y020526D03*
X031977Y020529D03*
X031978Y020531D03*
X031979Y020534D03*
X031980Y020536D03*
X031980Y020537D03*
X031981Y020539D03*
X031981Y020540D03*
X031982Y020542D03*
X031983Y020544D03*
X031983Y020545D03*
X031984Y020547D03*
X031985Y020550D03*
X031985Y020551D03*
X031987Y020555D03*
X031987Y020556D03*
X031988Y020559D03*
X031989Y020561D03*
X031990Y020564D03*
X031991Y020566D03*
X031991Y020567D03*
X031992Y020569D03*
X031992Y020570D03*
X031993Y020572D03*
X032227Y020572D03*
X032548Y020451D03*
X032548Y020450D03*
X032547Y020447D03*
X032546Y020445D03*
X032546Y020444D03*
X032545Y020442D03*
X032545Y020441D03*
X032545Y020440D03*
X032544Y020437D03*
X032544Y020436D03*
X032543Y020435D03*
X032543Y020434D03*
X032543Y020432D03*
X032542Y020431D03*
X032542Y020430D03*
X032542Y020429D03*
X032542Y020427D03*
X032541Y020426D03*
X032541Y020425D03*
X032541Y020424D03*
X032541Y020422D03*
X032540Y020417D03*
X032540Y020416D03*
X032540Y020415D03*
X032550Y020455D03*
X032550Y020456D03*
X032551Y020459D03*
X032552Y020460D03*
X032552Y020461D03*
X032554Y020465D03*
X032554Y020466D03*
X032555Y020467D03*
X032556Y020469D03*
X032556Y020470D03*
X032557Y020471D03*
X032557Y020472D03*
X032558Y020474D03*
X032559Y020475D03*
X032559Y020476D03*
X032560Y020477D03*
X032561Y020479D03*
X032561Y020480D03*
X032562Y020481D03*
X032562Y020482D03*
X032564Y020485D03*
X032565Y020487D03*
X032567Y020490D03*
X032690Y020400D03*
X032691Y020401D03*
X032724Y020509D03*
X032724Y020510D03*
X032724Y020511D03*
X033142Y020381D03*
X033142Y020380D03*
X033141Y020377D03*
X033143Y020384D03*
X033144Y020386D03*
X033145Y020389D03*
X033146Y020391D03*
X033146Y020392D03*
X033147Y020394D03*
X033147Y020395D03*
X033148Y020397D03*
X033149Y020400D03*
X033150Y020402D03*
X033151Y020405D03*
X033151Y020406D03*
X033153Y020411D03*
X033154Y020414D03*
X033155Y020416D03*
X033155Y020417D03*
X033156Y020419D03*
X033157Y020422D03*
X033158Y020424D03*
X033158Y020425D03*
X033159Y020427D03*
X033160Y020430D03*
X033162Y020435D03*
X033162Y020436D03*
X033524Y020407D03*
X033524Y020406D03*
X033524Y020405D03*
X033525Y020414D03*
X033525Y020415D03*
X033525Y020416D03*
X033525Y020417D03*
X033525Y020419D03*
X033525Y020420D03*
X033525Y020421D03*
X033525Y020422D03*
X033525Y020424D03*
X033525Y020425D03*
X033526Y020429D03*
X033526Y020430D03*
X033526Y020431D03*
X033526Y020432D03*
X033526Y020434D03*
X033526Y020435D03*
X033526Y020436D03*
X033526Y020437D03*
X033526Y020439D03*
X033526Y020440D03*
X033526Y020441D03*
X033527Y020444D03*
X033527Y020445D03*
X033527Y020446D03*
X033527Y020447D03*
X033527Y020449D03*
X033527Y020450D03*
X033527Y020451D03*
X033527Y020452D03*
X033527Y020454D03*
X033527Y020455D03*
X033527Y020456D03*
X033527Y020457D03*
X033528Y020459D03*
X033528Y020460D03*
X033528Y020461D03*
X033528Y020462D03*
X033528Y020464D03*
X033528Y020465D03*
X033528Y020466D03*
X033528Y020467D03*
X033528Y020469D03*
X033528Y020470D03*
X033528Y020471D03*
X033528Y020472D03*
X033529Y020476D03*
X033529Y020477D03*
X033529Y020479D03*
X033529Y020480D03*
X033529Y020481D03*
X033529Y020482D03*
X033529Y020484D03*
X033529Y020485D03*
X033529Y020486D03*
X033529Y020487D03*
X033529Y020489D03*
X033530Y020494D03*
X033530Y020495D03*
X033530Y020496D03*
X033530Y020497D03*
X033530Y020499D03*
X033530Y020500D03*
X033530Y020501D03*
X033530Y020502D03*
X033530Y020504D03*
X033531Y020509D03*
X033531Y020510D03*
X033531Y020511D03*
X033531Y020512D03*
X033531Y020514D03*
X033531Y020515D03*
X033531Y020516D03*
X033531Y020517D03*
X033531Y020519D03*
X033532Y020526D03*
X033532Y020527D03*
X033532Y020529D03*
X033532Y020530D03*
X033532Y020531D03*
X033532Y020532D03*
X033532Y020534D03*
X033533Y020544D03*
X033533Y020545D03*
X033533Y020546D03*
X033533Y020547D03*
X033533Y020549D03*
X033534Y020559D03*
X033534Y020560D03*
X033534Y020561D03*
X033534Y020562D03*
X033534Y020564D03*
X033636Y020496D03*
X033637Y020497D03*
X033638Y020499D03*
X033639Y020500D03*
X033640Y020502D03*
X033642Y020505D03*
X033643Y020506D03*
X033645Y020509D03*
X033647Y020512D03*
X033649Y020515D03*
X033653Y020521D03*
X033655Y020524D03*
X033657Y020527D03*
X033659Y020530D03*
X033663Y020536D03*
X033665Y020539D03*
X033667Y020542D03*
X033669Y020545D03*
X033635Y020494D03*
X033633Y020491D03*
X033632Y020490D03*
X033630Y020487D03*
X033629Y020485D03*
X033628Y020484D03*
X033627Y020482D03*
X033626Y020481D03*
X033625Y020479D03*
X033623Y020476D03*
X033622Y020475D03*
X033620Y020472D03*
X033619Y020471D03*
X033619Y020470D03*
X033618Y020469D03*
X033617Y020467D03*
X033616Y020466D03*
X033615Y020465D03*
X033615Y020464D03*
X033613Y020462D03*
X033613Y020461D03*
X033612Y020460D03*
X033611Y020459D03*
X033610Y020457D03*
X033609Y020456D03*
X033609Y020455D03*
X033608Y020454D03*
X033607Y020452D03*
X033606Y020451D03*
X033605Y020450D03*
X033605Y020449D03*
X033603Y020447D03*
X033603Y020446D03*
X033602Y020445D03*
X033601Y020444D03*
X033600Y020442D03*
X033599Y020441D03*
X033599Y020440D03*
X033598Y020439D03*
X033597Y020437D03*
X033596Y020436D03*
X033595Y020435D03*
X033593Y020432D03*
X033592Y020430D03*
X033591Y020429D03*
X033590Y020427D03*
X033589Y020426D03*
X033588Y020424D03*
X033586Y020421D03*
X033585Y020420D03*
X033583Y020417D03*
X033582Y020415D03*
X033581Y020414D03*
X033580Y020412D03*
X033579Y020411D03*
X033578Y020409D03*
X033576Y020406D03*
X033575Y020405D03*
D75*
X033528Y020474D03*
X033528Y020475D03*
X033529Y020490D03*
X033529Y020491D03*
X033529Y020492D03*
X033530Y020505D03*
X033530Y020506D03*
X033530Y020507D03*
X033532Y020535D03*
X033532Y020536D03*
X033532Y020537D03*
X033532Y020539D03*
X033532Y020540D03*
X033532Y020541D03*
X033532Y020542D03*
X033533Y020550D03*
X033533Y020551D03*
X033533Y020552D03*
X033533Y020554D03*
X033533Y020555D03*
X033533Y020556D03*
X033533Y020557D03*
X033534Y020565D03*
X033534Y020566D03*
X033534Y020567D03*
X033534Y020569D03*
X033534Y020570D03*
X033534Y020571D03*
X033534Y020572D03*
X033639Y020501D03*
X033635Y020495D03*
X033633Y020492D03*
X033629Y020486D03*
X033625Y020480D03*
X033623Y020477D03*
X033643Y020507D03*
X033645Y020510D03*
X033648Y020514D03*
X033649Y020516D03*
X033650Y020517D03*
X033652Y020520D03*
X033653Y020522D03*
X033655Y020525D03*
X033658Y020529D03*
X033659Y020531D03*
X033660Y020532D03*
X033662Y020535D03*
X033663Y020537D03*
X033665Y020540D03*
X033668Y020544D03*
X033669Y020546D03*
X033670Y020547D03*
X033672Y020550D03*
X033673Y020551D03*
X033673Y020552D03*
X033675Y020554D03*
X033675Y020555D03*
X033677Y020557D03*
X033678Y020559D03*
X033679Y020560D03*
X033679Y020561D03*
X033680Y020562D03*
X033682Y020565D03*
X033683Y020566D03*
X033683Y020567D03*
X033685Y020569D03*
X033685Y020570D03*
X033687Y020572D03*
X032724Y020512D03*
X032689Y020399D03*
X032688Y020397D03*
X032539Y020407D03*
X032539Y020409D03*
X032539Y020410D03*
X032539Y020411D03*
X032539Y020412D03*
X032539Y020414D03*
X032540Y020419D03*
X032540Y020420D03*
X032540Y020421D03*
X032563Y020484D03*
X032564Y020486D03*
X032567Y020491D03*
X032568Y020492D03*
X032569Y020494D03*
X032570Y020495D03*
X032575Y020502D03*
X031740Y020510D03*
X031740Y020511D03*
X031740Y020512D03*
X031702Y020401D03*
X031699Y020397D03*
X031698Y020396D03*
X031555Y020412D03*
X031555Y020414D03*
X031555Y020415D03*
X031555Y020416D03*
X031555Y020417D03*
X031555Y020419D03*
X031579Y020485D03*
X031580Y020487D03*
X031582Y020490D03*
X031583Y020492D03*
X031585Y020495D03*
X031588Y020499D03*
X031320Y020359D03*
X031320Y020357D03*
X031320Y020356D03*
X031320Y020355D03*
X031320Y020354D03*
X031320Y020352D03*
X031320Y020351D03*
X031320Y020350D03*
X031320Y020349D03*
X031320Y020347D03*
X031320Y020346D03*
X031320Y020345D03*
X031320Y020344D03*
X031320Y020342D03*
X031320Y020341D03*
X031320Y020340D03*
X031320Y020339D03*
X031319Y020334D03*
X030984Y020472D03*
D76*
X031606Y020334D03*
X032666Y020374D03*
X033536Y020370D03*
X033536Y020369D03*
D77*
X033576Y020407D03*
X033586Y020422D03*
X033526Y020442D03*
X033161Y020434D03*
X033156Y020421D03*
X033156Y020420D03*
X033151Y020407D03*
X033141Y020379D03*
X032691Y020402D03*
X032546Y020446D03*
X032261Y020421D03*
X032261Y020420D03*
X032261Y020419D03*
X032256Y020442D03*
X032251Y020465D03*
X032251Y020466D03*
X032246Y020487D03*
X032246Y020489D03*
X031986Y020554D03*
X031981Y020541D03*
X031976Y020527D03*
X031966Y020499D03*
X031961Y020486D03*
X031956Y020472D03*
X031946Y020444D03*
X031941Y020431D03*
X031936Y020417D03*
X031926Y020390D03*
X031926Y020389D03*
X031921Y020376D03*
X031916Y020362D03*
X031906Y020335D03*
X031906Y020334D03*
X031711Y020415D03*
X031706Y020407D03*
X031571Y020470D03*
X031566Y020459D03*
X031561Y020445D03*
X031321Y020411D03*
X031321Y020410D03*
X031321Y020409D03*
X031321Y020407D03*
X031321Y020406D03*
X031321Y020405D03*
X031321Y020404D03*
X031321Y020402D03*
X031321Y020401D03*
X031321Y020400D03*
X031321Y020399D03*
X031321Y020397D03*
X031321Y020396D03*
X031321Y020395D03*
X031321Y020394D03*
X031321Y020392D03*
X031321Y020391D03*
X031321Y020390D03*
X031321Y020389D03*
X031321Y020387D03*
X031321Y020386D03*
X031186Y020386D03*
X031181Y020379D03*
X031176Y020372D03*
X031176Y020371D03*
X031171Y020365D03*
X031171Y020364D03*
X031166Y020357D03*
X031161Y020350D03*
X031151Y020336D03*
X030991Y020479D03*
X030991Y020480D03*
X030996Y020487D03*
X031001Y020496D03*
X031001Y020497D03*
X030836Y020424D03*
X030831Y020411D03*
X030831Y020410D03*
X030826Y020397D03*
X030816Y020369D03*
X030811Y020356D03*
X030811Y020355D03*
X030806Y020342D03*
D78*
X030948Y020342D03*
X030948Y020341D03*
X030949Y020347D03*
X030949Y020349D03*
X030953Y020364D03*
X030953Y020365D03*
X030954Y020367D03*
X030958Y020380D03*
X030958Y020381D03*
X030958Y020382D03*
X030959Y020384D03*
X030959Y020385D03*
X031208Y020417D03*
X031213Y020424D03*
X031214Y020425D03*
X031218Y020431D03*
X031219Y020432D03*
X031224Y020439D03*
X031224Y020440D03*
X031228Y020445D03*
X031229Y020446D03*
X031229Y020447D03*
X031233Y020452D03*
X031234Y020454D03*
X031238Y020459D03*
X031239Y020461D03*
X031249Y020475D03*
X031323Y020475D03*
X031323Y020474D03*
X031323Y020472D03*
X031323Y020471D03*
X031323Y020470D03*
X031323Y020469D03*
X031323Y020467D03*
X031323Y020466D03*
X031323Y020465D03*
X031323Y020464D03*
X031323Y020476D03*
X031323Y020477D03*
X031323Y020479D03*
X031323Y020480D03*
X031323Y020481D03*
X031323Y020482D03*
X031323Y020484D03*
X031323Y020485D03*
X031323Y020486D03*
X031323Y020487D03*
X031324Y020499D03*
X031324Y020500D03*
X031324Y020501D03*
X031324Y020502D03*
X031324Y020504D03*
X031324Y020505D03*
X031324Y020506D03*
X031324Y020507D03*
X031324Y020509D03*
X031324Y020510D03*
X031324Y020511D03*
X031324Y020512D03*
X032138Y020334D03*
X032139Y020337D03*
X032144Y020351D03*
X032148Y020362D03*
X032149Y020364D03*
X032149Y020365D03*
X032153Y020375D03*
X032153Y020376D03*
X032158Y020389D03*
X032159Y020392D03*
X032164Y020406D03*
X032168Y020417D03*
X032169Y020419D03*
X032173Y020430D03*
X032178Y020444D03*
X032179Y020447D03*
X032184Y020461D03*
X032188Y020472D03*
X032189Y020474D03*
X032193Y020485D03*
X032323Y020444D03*
X032324Y020447D03*
X032329Y020461D03*
X032333Y020472D03*
X032334Y020474D03*
X032338Y020485D03*
X032343Y020499D03*
X032344Y020502D03*
X032349Y020516D03*
X032353Y020526D03*
X032353Y020527D03*
X032354Y020529D03*
X032358Y020540D03*
X032363Y020554D03*
X032364Y020557D03*
X032369Y020570D03*
X032369Y020571D03*
X032318Y020430D03*
X032314Y020420D03*
X032314Y020419D03*
X032313Y020417D03*
D79*
X032281Y020336D03*
X032281Y020335D03*
X032281Y020334D03*
X032226Y020571D03*
X032566Y020489D03*
X032571Y020496D03*
X032571Y020497D03*
X031701Y020400D03*
X031556Y020425D03*
X031576Y020480D03*
X031581Y020489D03*
X031586Y020496D03*
X031006Y020511D03*
X031006Y020512D03*
X030986Y020474D03*
X033531Y020520D03*
X033531Y020521D03*
X033531Y020522D03*
X033531Y020524D03*
X033531Y020525D03*
X033621Y020474D03*
X033631Y020489D03*
X033641Y020504D03*
X033646Y020511D03*
X033651Y020519D03*
X033656Y020526D03*
X033661Y020534D03*
X033666Y020541D03*
X033671Y020549D03*
X033676Y020556D03*
X033681Y020564D03*
X033686Y020571D03*
D80*
X033533Y020360D03*
X033533Y020359D03*
X032588Y020334D03*
X032284Y020370D03*
X032284Y020371D03*
X032284Y020372D03*
X032224Y020535D03*
D81*
X032675Y020334D03*
D82*
X033186Y020334D03*
X033187Y020335D03*
X033187Y020336D03*
X033187Y020337D03*
X033191Y020346D03*
X033191Y020347D03*
X033192Y020349D03*
X033192Y020350D03*
X033192Y020351D03*
X033196Y020360D03*
X033196Y020361D03*
X033196Y020362D03*
X033197Y020364D03*
X033201Y020374D03*
X033201Y020375D03*
X033202Y020376D03*
X030911Y020460D03*
X030901Y020434D03*
D83*
X031319Y020564D03*
X031319Y020565D03*
X031608Y020521D03*
X031738Y020522D03*
X031558Y020387D03*
X031558Y020386D03*
X032679Y020576D03*
X033523Y020334D03*
D84*
X033540Y020379D03*
X032223Y020514D03*
X032223Y020515D03*
X032223Y020516D03*
X031607Y020335D03*
X031306Y020527D03*
D85*
X031324Y020497D03*
X031324Y020496D03*
X031324Y020495D03*
X031324Y020494D03*
X031324Y020492D03*
X031324Y020491D03*
X031324Y020490D03*
X031324Y020489D03*
X031264Y020495D03*
X031254Y020481D03*
X031249Y020474D03*
X031244Y020467D03*
X031239Y020460D03*
X030954Y020366D03*
X032139Y020336D03*
X032139Y020335D03*
X032144Y020349D03*
X032144Y020350D03*
X032154Y020377D03*
X032159Y020390D03*
X032159Y020391D03*
X032164Y020404D03*
X032164Y020405D03*
X032174Y020431D03*
X032174Y020432D03*
X032179Y020445D03*
X032179Y020446D03*
X032184Y020459D03*
X032184Y020460D03*
X032194Y020486D03*
X032194Y020487D03*
X032324Y020446D03*
X032324Y020445D03*
X032319Y020432D03*
X032319Y020431D03*
X032329Y020459D03*
X032329Y020460D03*
X032339Y020486D03*
X032339Y020487D03*
X032344Y020500D03*
X032344Y020501D03*
X032349Y020514D03*
X032349Y020515D03*
X032359Y020541D03*
X032359Y020542D03*
X032364Y020555D03*
X032364Y020556D03*
X032369Y020569D03*
X032699Y020417D03*
D86*
X032709Y020535D03*
X032588Y020335D03*
X032284Y020379D03*
X032284Y020380D03*
X032223Y020526D03*
X032223Y020527D03*
X031309Y020537D03*
D87*
X032676Y020337D03*
X032676Y020336D03*
X032676Y020335D03*
X032677Y020339D03*
D88*
X032544Y020385D03*
X032543Y020386D03*
X032593Y020521D03*
X032594Y020522D03*
X031695Y020576D03*
X031684Y020381D03*
X031683Y020380D03*
X031559Y020385D03*
X033524Y020336D03*
X033524Y020335D03*
D89*
X033542Y020386D03*
X032222Y020506D03*
X032222Y020507D03*
X031607Y020336D03*
X031303Y020520D03*
D90*
X031307Y020531D03*
X031307Y020532D03*
X031633Y020535D03*
X032223Y020520D03*
X032223Y020519D03*
X032285Y020386D03*
X032588Y020336D03*
X032618Y020535D03*
X032677Y020572D03*
X033537Y020372D03*
D91*
X033545Y020394D03*
X032286Y020406D03*
X032286Y020407D03*
X032221Y020499D03*
X031607Y020337D03*
X031301Y020515D03*
D92*
X031305Y020526D03*
X032222Y020512D03*
X032285Y020394D03*
X032285Y020392D03*
X032588Y020337D03*
X033540Y020380D03*
D93*
X033524Y020337D03*
X032720Y020527D03*
X032680Y020386D03*
X032544Y020384D03*
X032282Y020350D03*
X032282Y020349D03*
X031737Y020524D03*
X031609Y020522D03*
X031559Y020384D03*
X031318Y020562D03*
X030974Y020466D03*
D94*
X030994Y020483D03*
X030963Y020398D03*
X030959Y020383D03*
X030949Y020343D03*
X030948Y020338D03*
X031174Y020368D03*
X031188Y020388D03*
X031195Y020398D03*
X031199Y020403D03*
X031209Y020418D03*
X031213Y020423D03*
X031220Y020433D03*
X031323Y020438D03*
X031323Y020443D03*
X031323Y020448D03*
X031323Y020453D03*
X031323Y020458D03*
X031710Y020413D03*
X031713Y020418D03*
X031715Y020423D03*
X031740Y020498D03*
X032250Y020473D03*
X032253Y020458D03*
X032254Y020453D03*
X032263Y020413D03*
X032723Y020498D03*
X032724Y020503D03*
D95*
X031608Y020338D03*
D96*
X031555Y020398D03*
X031595Y020508D03*
X031691Y020388D03*
X032226Y020568D03*
X032281Y020338D03*
X032540Y020398D03*
X032580Y020508D03*
X031007Y020518D03*
D97*
X032588Y020338D03*
D98*
X032676Y020338D03*
D99*
X033188Y020338D03*
X033190Y020343D03*
X033193Y020353D03*
X033195Y020358D03*
X033199Y020368D03*
X033200Y020373D03*
D100*
X033525Y020338D03*
X031680Y020378D03*
X031560Y020383D03*
D101*
X031714Y020420D03*
X031715Y020422D03*
X031739Y020494D03*
X031740Y020495D03*
X031740Y020496D03*
X031740Y020497D03*
X031323Y020462D03*
X031323Y020461D03*
X031323Y020460D03*
X031323Y020459D03*
X031323Y020457D03*
X031323Y020456D03*
X031323Y020455D03*
X031323Y020454D03*
X031323Y020452D03*
X031323Y020451D03*
X031323Y020450D03*
X031323Y020449D03*
X031323Y020447D03*
X031323Y020446D03*
X031323Y020445D03*
X031323Y020444D03*
X031323Y020442D03*
X031323Y020441D03*
X031323Y020440D03*
X031323Y020439D03*
X031323Y020437D03*
X031215Y020426D03*
X031210Y020419D03*
X031208Y020416D03*
X031205Y020412D03*
X031204Y020411D03*
X031204Y020410D03*
X031203Y020409D03*
X031200Y020405D03*
X031199Y020404D03*
X031198Y020402D03*
X031194Y020396D03*
X031193Y020395D03*
X031190Y020391D03*
X031189Y020389D03*
X031184Y020382D03*
X031183Y020381D03*
X031179Y020375D03*
X030963Y020399D03*
X030963Y020400D03*
X030960Y020387D03*
X030960Y020386D03*
X030950Y020351D03*
X030950Y020350D03*
X030949Y020346D03*
X030949Y020345D03*
X030949Y020344D03*
X030948Y020340D03*
X030948Y020339D03*
X032245Y020494D03*
X032248Y020482D03*
X032248Y020481D03*
X032249Y020477D03*
X032249Y020476D03*
X032250Y020472D03*
X032253Y020459D03*
X032254Y020455D03*
X032254Y020454D03*
X032255Y020450D03*
X032255Y020449D03*
X032258Y020436D03*
X032258Y020435D03*
X032259Y020432D03*
X032259Y020431D03*
X032260Y020427D03*
X032260Y020426D03*
X032263Y020414D03*
X032693Y020405D03*
X032694Y020407D03*
X032695Y020409D03*
X032723Y020496D03*
X032723Y020497D03*
X032723Y020499D03*
X032724Y020500D03*
X032724Y020501D03*
X032724Y020502D03*
X032724Y020504D03*
X032680Y020577D03*
D102*
X031608Y020339D03*
D103*
X031325Y020514D03*
X031275Y020511D03*
X031271Y020505D03*
X031270Y020504D03*
X031268Y020501D03*
X031267Y020500D03*
X031265Y020497D03*
X031263Y020494D03*
X031261Y020491D03*
X031260Y020490D03*
X031258Y020487D03*
X031257Y020486D03*
X031257Y020485D03*
X031256Y020484D03*
X031255Y020482D03*
X031253Y020480D03*
X031252Y020479D03*
X031251Y020477D03*
X031250Y020476D03*
X031247Y020471D03*
X031246Y020470D03*
X031243Y020466D03*
X031242Y020464D03*
X031237Y020457D03*
X031232Y020450D03*
X030955Y020369D03*
X030952Y020359D03*
X032140Y020339D03*
X032141Y020341D03*
X032142Y020344D03*
X032143Y020346D03*
X032143Y020347D03*
X032145Y020352D03*
X032146Y020355D03*
X032147Y020357D03*
X032148Y020360D03*
X032148Y020361D03*
X032150Y020366D03*
X032151Y020369D03*
X032152Y020371D03*
X032152Y020372D03*
X032153Y020374D03*
X032155Y020379D03*
X032155Y020380D03*
X032156Y020382D03*
X032157Y020385D03*
X032158Y020387D03*
X032160Y020394D03*
X032161Y020396D03*
X032162Y020399D03*
X032163Y020401D03*
X032163Y020402D03*
X032165Y020407D03*
X032166Y020409D03*
X032166Y020410D03*
X032167Y020412D03*
X032168Y020415D03*
X032168Y020416D03*
X032170Y020420D03*
X032170Y020421D03*
X032171Y020424D03*
X032172Y020426D03*
X032172Y020427D03*
X032173Y020429D03*
X032175Y020434D03*
X032175Y020435D03*
X032176Y020437D03*
X032177Y020440D03*
X032178Y020442D03*
X032180Y020449D03*
X032181Y020451D03*
X032182Y020454D03*
X032183Y020456D03*
X032183Y020457D03*
X032185Y020462D03*
X032186Y020464D03*
X032186Y020465D03*
X032187Y020467D03*
X032188Y020470D03*
X032188Y020471D03*
X032190Y020475D03*
X032190Y020476D03*
X032191Y020479D03*
X032192Y020481D03*
X032192Y020482D03*
X032193Y020484D03*
X032195Y020489D03*
X032195Y020490D03*
X032196Y020492D03*
X032325Y020449D03*
X032326Y020451D03*
X032327Y020454D03*
X032328Y020456D03*
X032328Y020457D03*
X032330Y020462D03*
X032331Y020464D03*
X032331Y020465D03*
X032332Y020467D03*
X032333Y020470D03*
X032333Y020471D03*
X032335Y020475D03*
X032335Y020476D03*
X032336Y020479D03*
X032337Y020481D03*
X032337Y020482D03*
X032338Y020484D03*
X032340Y020489D03*
X032340Y020490D03*
X032341Y020492D03*
X032342Y020495D03*
X032343Y020497D03*
X032345Y020504D03*
X032346Y020506D03*
X032347Y020509D03*
X032348Y020511D03*
X032348Y020512D03*
X032350Y020517D03*
X032351Y020519D03*
X032351Y020520D03*
X032352Y020522D03*
X032353Y020525D03*
X032355Y020530D03*
X032355Y020531D03*
X032356Y020534D03*
X032357Y020536D03*
X032358Y020539D03*
X032360Y020544D03*
X032360Y020545D03*
X032361Y020547D03*
X032362Y020550D03*
X032363Y020552D03*
X032366Y020561D03*
X032367Y020564D03*
X032368Y020566D03*
X032368Y020567D03*
X032370Y020572D03*
X032323Y020442D03*
X032322Y020440D03*
X032321Y020437D03*
X032320Y020435D03*
X032320Y020434D03*
X032318Y020429D03*
X032317Y020427D03*
X032317Y020426D03*
X032316Y020424D03*
X032315Y020421D03*
X032313Y020416D03*
X032313Y020415D03*
X032312Y020412D03*
X032696Y020411D03*
X032697Y020414D03*
X032698Y020415D03*
X032698Y020416D03*
X032700Y020420D03*
D104*
X032589Y020339D03*
X031693Y020570D03*
X033544Y020391D03*
X033544Y020390D03*
X033545Y020392D03*
D105*
X033200Y020372D03*
X033200Y020371D03*
X033199Y020370D03*
X033199Y020369D03*
X033198Y020367D03*
X033198Y020366D03*
X033198Y020365D03*
X033195Y020359D03*
X033195Y020357D03*
X033194Y020356D03*
X033194Y020355D03*
X033194Y020354D03*
X033193Y020352D03*
X033190Y020345D03*
X033190Y020344D03*
X033189Y020342D03*
X033189Y020341D03*
X033188Y020340D03*
X033188Y020339D03*
X030910Y020459D03*
D106*
X031608Y020340D03*
X032675Y020566D03*
D107*
X032723Y020521D03*
X032723Y020520D03*
X032685Y020392D03*
X032541Y020394D03*
X032541Y020395D03*
X032582Y020510D03*
X032583Y020511D03*
X032282Y020341D03*
X032282Y020340D03*
X032227Y020566D03*
X031740Y020517D03*
X031740Y020516D03*
X031691Y020387D03*
X031556Y020394D03*
X031556Y020395D03*
X031556Y020396D03*
X031598Y020511D03*
X031601Y020514D03*
X031602Y020515D03*
X031321Y020569D03*
X031007Y020522D03*
X030980Y020469D03*
X030963Y020419D03*
D108*
X032589Y020340D03*
D109*
X032677Y020340D03*
X032677Y020341D03*
X032677Y020342D03*
D110*
X032590Y020344D03*
X031609Y020341D03*
D111*
X032589Y020341D03*
X033548Y020402D03*
D112*
X033526Y020341D03*
X032601Y020527D03*
X032546Y020380D03*
X032226Y020552D03*
X031616Y020527D03*
X031562Y020380D03*
D113*
X031609Y020342D03*
D114*
X031557Y020390D03*
X031557Y020391D03*
X031603Y020516D03*
X031606Y020519D03*
X031320Y020566D03*
X031007Y020525D03*
X031007Y020524D03*
X030962Y020421D03*
X032226Y020562D03*
X032282Y020344D03*
X032282Y020342D03*
X032542Y020389D03*
X032542Y020390D03*
X032591Y020519D03*
X032722Y020524D03*
X032683Y020389D03*
D115*
X032589Y020342D03*
D116*
X033526Y020342D03*
X031561Y020381D03*
D117*
X031321Y020388D03*
X031321Y020393D03*
X031321Y020398D03*
X031321Y020403D03*
X031321Y020408D03*
X031166Y020358D03*
X031156Y020343D03*
X030821Y020383D03*
X031911Y020348D03*
X031931Y020403D03*
X031951Y020458D03*
X031971Y020513D03*
X031991Y020568D03*
X032246Y020488D03*
X032256Y020443D03*
X032691Y020403D03*
X033146Y020393D03*
X033526Y020443D03*
D118*
X032674Y020563D03*
X031609Y020343D03*
D119*
X031237Y020458D03*
X031230Y020448D03*
X031226Y020443D03*
X031216Y020428D03*
X030960Y020388D03*
X030957Y020378D03*
X030956Y020373D03*
X030951Y020358D03*
X030950Y020353D03*
X032141Y020343D03*
X032145Y020353D03*
X032152Y020373D03*
X032165Y020408D03*
X032172Y020428D03*
X032185Y020463D03*
X032192Y020483D03*
X032317Y020428D03*
X032330Y020463D03*
X032337Y020483D03*
X032350Y020518D03*
X032357Y020538D03*
X032361Y020548D03*
X032370Y020573D03*
D120*
X032589Y020343D03*
D121*
X032678Y020343D03*
D122*
X033527Y020343D03*
X031317Y020558D03*
D123*
X031610Y020344D03*
X032674Y020562D03*
D124*
X032678Y020344D03*
D125*
X032547Y020379D03*
X032282Y020355D03*
X032225Y020550D03*
X032225Y020551D03*
X031677Y020376D03*
X031562Y020379D03*
X031316Y020556D03*
X031316Y020557D03*
X033527Y020345D03*
X033527Y020344D03*
D126*
X032673Y020561D03*
X031610Y020345D03*
D127*
X031557Y020389D03*
X031685Y020382D03*
X031607Y020520D03*
X032226Y020561D03*
X032282Y020345D03*
X032542Y020387D03*
X032591Y020520D03*
X032721Y020525D03*
X031006Y020526D03*
X030976Y020467D03*
X030961Y020422D03*
D128*
X031691Y020565D03*
X032590Y020345D03*
D129*
X032678Y020345D03*
D130*
X031610Y020346D03*
D131*
X032226Y020559D03*
X032226Y020560D03*
X032282Y020347D03*
X032282Y020346D03*
X032721Y020526D03*
X031006Y020527D03*
D132*
X031690Y020564D03*
X032590Y020346D03*
D133*
X032679Y020346D03*
X032679Y020347D03*
D134*
X032676Y020381D03*
X032677Y020382D03*
X032717Y020531D03*
X032283Y020357D03*
X032283Y020356D03*
X032225Y020549D03*
X031316Y020555D03*
X030971Y020465D03*
X033528Y020346D03*
D135*
X031611Y020347D03*
D136*
X032590Y020347D03*
D137*
X032548Y020377D03*
X032605Y020530D03*
X032283Y020359D03*
X032225Y020547D03*
X031733Y020530D03*
X031694Y020575D03*
X031620Y020530D03*
X031675Y020375D03*
X031315Y020554D03*
X031002Y020531D03*
X033528Y020347D03*
D138*
X032694Y020408D03*
X032359Y020543D03*
X032368Y020568D03*
X032348Y020513D03*
X032339Y020488D03*
X032328Y020458D03*
X032319Y020433D03*
X032194Y020488D03*
X032183Y020458D03*
X032174Y020433D03*
X032163Y020403D03*
X032154Y020378D03*
X032143Y020348D03*
X031323Y020463D03*
X031323Y020468D03*
X031323Y020473D03*
X031323Y020478D03*
X031323Y020483D03*
X031323Y020488D03*
X031324Y020498D03*
X031324Y020503D03*
X031324Y020508D03*
X031324Y020513D03*
X031244Y020468D03*
X031223Y020438D03*
X030954Y020368D03*
X030953Y020363D03*
X030949Y020348D03*
D139*
X031611Y020348D03*
D140*
X031610Y020523D03*
X032282Y020348D03*
X032544Y020383D03*
X032595Y020523D03*
X032719Y020528D03*
X031005Y020528D03*
X030960Y020423D03*
D141*
X032590Y020348D03*
D142*
X032679Y020348D03*
D143*
X032225Y020548D03*
X031315Y020553D03*
X033528Y020348D03*
D144*
X031611Y020349D03*
D145*
X032591Y020349D03*
D146*
X032679Y020349D03*
X032679Y020350D03*
X032680Y020351D03*
X032680Y020352D03*
X032681Y020356D03*
D147*
X033529Y020349D03*
X031564Y020377D03*
D148*
X031612Y020350D03*
X032592Y020356D03*
X032671Y020556D03*
D149*
X032591Y020350D03*
D150*
X032549Y020376D03*
X032283Y020362D03*
X031673Y020374D03*
X031314Y020551D03*
X033529Y020351D03*
X033529Y020350D03*
D151*
X032671Y020555D03*
X031612Y020351D03*
D152*
X032591Y020351D03*
X032673Y020560D03*
D153*
X031687Y020555D03*
X031612Y020352D03*
D154*
X032591Y020352D03*
X032672Y020559D03*
D155*
X032674Y020379D03*
X032284Y020364D03*
X032225Y020541D03*
X032225Y020542D03*
X031314Y020549D03*
X031314Y020550D03*
X033530Y020352D03*
D156*
X031613Y020353D03*
D157*
X031735Y020528D03*
X032283Y020353D03*
X032678Y020383D03*
D158*
X032591Y020353D03*
D159*
X032680Y020353D03*
D160*
X032672Y020378D03*
X032714Y020533D03*
X033530Y020353D03*
X031313Y020548D03*
D161*
X031613Y020354D03*
D162*
X032283Y020354D03*
X032679Y020384D03*
X032718Y020530D03*
X030958Y020425D03*
D163*
X032592Y020354D03*
D164*
X032681Y020354D03*
X032681Y020355D03*
X032682Y020357D03*
X032682Y020359D03*
D165*
X032609Y020532D03*
X032283Y020366D03*
X032283Y020365D03*
X032224Y020540D03*
X031624Y020532D03*
X031000Y020532D03*
X033530Y020354D03*
D166*
X032262Y020417D03*
X032261Y020422D03*
X032257Y020440D03*
X032257Y020441D03*
X032256Y020444D03*
X032256Y020445D03*
X032252Y020464D03*
X032251Y020467D03*
X032247Y020485D03*
X032247Y020486D03*
X032246Y020490D03*
X032246Y020491D03*
X031716Y020425D03*
X031716Y020424D03*
X031712Y020416D03*
X031322Y020416D03*
X031322Y020415D03*
X031322Y020414D03*
X031322Y020412D03*
X031322Y020417D03*
X031222Y020436D03*
X031217Y020429D03*
X031212Y020422D03*
X031211Y020420D03*
X031207Y020415D03*
X031202Y020407D03*
X031201Y020406D03*
X031197Y020401D03*
X031197Y020400D03*
X031196Y020399D03*
X031192Y020394D03*
X031191Y020392D03*
X031186Y020385D03*
X030996Y020486D03*
X030962Y020395D03*
X030962Y020394D03*
X030961Y020392D03*
X030961Y020391D03*
X030961Y020390D03*
X030961Y020389D03*
X030951Y020355D03*
D167*
X031613Y020355D03*
X032669Y020551D03*
D168*
X032672Y020557D03*
X032592Y020355D03*
D169*
X032552Y020374D03*
X032284Y020367D03*
X032225Y020539D03*
X031313Y020546D03*
X031313Y020547D03*
X033531Y020355D03*
D170*
X031613Y020356D03*
D171*
X032671Y020377D03*
X033531Y020357D03*
X033531Y020356D03*
D172*
X031685Y020550D03*
X031614Y020357D03*
D173*
X032592Y020357D03*
D174*
X031614Y020358D03*
D175*
X031563Y020378D03*
X032283Y020358D03*
X032548Y020378D03*
D176*
X032593Y020358D03*
D177*
X032682Y020358D03*
D178*
X033532Y020358D03*
D179*
X032668Y020547D03*
X031615Y020359D03*
D180*
X030935Y020572D03*
X032593Y020359D03*
D181*
X031615Y020360D03*
D182*
X031565Y020376D03*
X031315Y020552D03*
X030956Y020426D03*
X032225Y020544D03*
X032225Y020545D03*
X032225Y020546D03*
X032283Y020361D03*
X032283Y020360D03*
X032675Y020380D03*
X032716Y020532D03*
D183*
X032612Y020360D03*
D184*
X032667Y020545D03*
X031615Y020361D03*
X030897Y020445D03*
D185*
X032611Y020361D03*
D186*
X032224Y020534D03*
X031728Y020534D03*
X031668Y020372D03*
X033533Y020361D03*
D187*
X032666Y020544D03*
X031615Y020362D03*
X030941Y020565D03*
D188*
X032612Y020362D03*
D189*
X032284Y020374D03*
X032224Y020531D03*
X032224Y020532D03*
X033534Y020362D03*
D190*
X033230Y020473D03*
X033223Y020453D03*
X031615Y020363D03*
D191*
X031324Y020493D03*
X031259Y020488D03*
X031234Y020453D03*
X032149Y020363D03*
X032169Y020418D03*
X032189Y020473D03*
X032314Y020418D03*
X032334Y020473D03*
X032354Y020528D03*
X032699Y020418D03*
D192*
X032283Y020363D03*
D193*
X032611Y020363D03*
D194*
X033534Y020363D03*
D195*
X033232Y020476D03*
X033232Y020477D03*
X033231Y020474D03*
X033230Y020472D03*
X033230Y020471D03*
X033229Y020469D03*
X033228Y020466D03*
X033228Y020465D03*
X033226Y020461D03*
X033226Y020460D03*
X033225Y020457D03*
X033224Y020455D03*
X033224Y020454D03*
X033223Y020452D03*
X033222Y020450D03*
X033222Y020449D03*
X033221Y020447D03*
X033221Y020446D03*
X033220Y020444D03*
X033219Y020441D03*
X033218Y020439D03*
X032666Y020542D03*
X031616Y020364D03*
D196*
X032611Y020364D03*
D197*
X032668Y020375D03*
X032614Y020534D03*
X032284Y020377D03*
X032284Y020376D03*
X032284Y020375D03*
X032224Y020530D03*
X031629Y020534D03*
X031310Y020539D03*
X031310Y020540D03*
X033534Y020364D03*
D198*
X031681Y020541D03*
X031616Y020365D03*
X030942Y020561D03*
D199*
X032611Y020366D03*
X032611Y020365D03*
D200*
X033535Y020365D03*
D201*
X032665Y020540D03*
X031681Y020540D03*
X031617Y020366D03*
X030943Y020560D03*
X030900Y020441D03*
D202*
X031571Y020372D03*
X032556Y020372D03*
X033535Y020367D03*
X033535Y020366D03*
D203*
X032664Y020539D03*
X031617Y020367D03*
X030943Y020559D03*
X030905Y020454D03*
D204*
X032611Y020367D03*
D205*
X031617Y020368D03*
X030900Y020438D03*
D206*
X031730Y020533D03*
X032284Y020368D03*
D207*
X032611Y020368D03*
D208*
X033536Y020368D03*
D209*
X032664Y020537D03*
X031618Y020369D03*
X030944Y020557D03*
D210*
X031312Y020545D03*
X031567Y020374D03*
X031694Y020574D03*
X032224Y020537D03*
X032224Y020536D03*
X032283Y020369D03*
X032678Y020574D03*
X032712Y020534D03*
D211*
X032611Y020369D03*
D212*
X032663Y020536D03*
X033257Y020534D03*
X033258Y020536D03*
X033259Y020539D03*
X033260Y020541D03*
X033260Y020542D03*
X033262Y020547D03*
X033263Y020550D03*
X033264Y020552D03*
X033265Y020555D03*
X033265Y020556D03*
X033267Y020561D03*
X033268Y020564D03*
X033269Y020566D03*
X033270Y020569D03*
X031679Y020537D03*
X031618Y020370D03*
X030944Y020556D03*
X030908Y020457D03*
X030900Y020437D03*
D213*
X032611Y020370D03*
D214*
X031679Y020536D03*
X031618Y020371D03*
X030944Y020554D03*
D215*
X032611Y020371D03*
D216*
X032285Y020384D03*
X032285Y020385D03*
X032223Y020521D03*
X033537Y020371D03*
D217*
X032661Y020372D03*
X032285Y020396D03*
X032222Y020509D03*
X032222Y020510D03*
D218*
X032224Y020533D03*
X032284Y020373D03*
X032553Y020373D03*
X031569Y020373D03*
D219*
X031671Y020373D03*
D220*
X032223Y020518D03*
X032285Y020388D03*
X032665Y020373D03*
D221*
X033537Y020373D03*
D222*
X033538Y020374D03*
X033539Y020376D03*
X032285Y020387D03*
X032223Y020517D03*
X031694Y020572D03*
D223*
X033538Y020375D03*
X033539Y020377D03*
D224*
X032670Y020376D03*
X031311Y020541D03*
X030952Y020427D03*
D225*
X030962Y020393D03*
X030997Y020488D03*
X031181Y020378D03*
X031192Y020393D03*
X031202Y020408D03*
X031206Y020413D03*
X031322Y020413D03*
X031322Y020418D03*
X032251Y020468D03*
X032252Y020463D03*
X032261Y020423D03*
X032262Y020418D03*
D226*
X032284Y020378D03*
D227*
X033540Y020378D03*
D228*
X032681Y020387D03*
X031736Y020525D03*
X031681Y020379D03*
D229*
X031309Y020535D03*
X031309Y020536D03*
X032224Y020525D03*
X032285Y020382D03*
X032285Y020381D03*
D230*
X032286Y020395D03*
X032223Y020511D03*
X032677Y020571D03*
X033541Y020382D03*
X033541Y020381D03*
X031305Y020524D03*
X031305Y020525D03*
D231*
X031686Y020383D03*
X032542Y020388D03*
X032682Y020388D03*
D232*
X032284Y020383D03*
X032223Y020523D03*
D233*
X032222Y020508D03*
X033541Y020383D03*
D234*
X033542Y020384D03*
X033542Y020385D03*
X032286Y020397D03*
X032286Y020399D03*
D235*
X032286Y020401D03*
X032286Y020402D03*
X032222Y020504D03*
X032222Y020505D03*
X032677Y020570D03*
X033543Y020387D03*
X031303Y020519D03*
D236*
X032222Y020503D03*
X033543Y020388D03*
D237*
X032285Y020389D03*
X032285Y020390D03*
X032285Y020391D03*
X031306Y020529D03*
D238*
X031302Y020517D03*
X033543Y020389D03*
D239*
X032723Y020517D03*
X032723Y020519D03*
X032579Y020507D03*
X032578Y020506D03*
X031694Y020391D03*
X031693Y020390D03*
X031594Y020507D03*
X030963Y020417D03*
X030963Y020416D03*
D240*
X031604Y020517D03*
X031739Y020520D03*
X031739Y020521D03*
X032589Y020517D03*
X032684Y020390D03*
D241*
X032688Y020396D03*
X032724Y020514D03*
X032724Y020515D03*
X032724Y020516D03*
X032578Y020505D03*
X032575Y020501D03*
X032574Y020500D03*
X032573Y020499D03*
X032540Y020406D03*
X032540Y020405D03*
X032540Y020404D03*
X032540Y020402D03*
X032540Y020401D03*
X032540Y020400D03*
X031698Y020395D03*
X031695Y020392D03*
X031555Y020402D03*
X031555Y020404D03*
X031555Y020405D03*
X031555Y020406D03*
X031555Y020407D03*
X031555Y020409D03*
X031555Y020410D03*
X031555Y020411D03*
X031589Y020500D03*
X031590Y020501D03*
X031593Y020505D03*
X031594Y020506D03*
X030983Y020471D03*
X030964Y020415D03*
X030964Y020414D03*
X030964Y020412D03*
D242*
X030978Y020468D03*
X031007Y020523D03*
X031320Y020568D03*
X031556Y020393D03*
X031739Y020518D03*
X032226Y020563D03*
D243*
X032576Y020503D03*
X031741Y020513D03*
X031696Y020393D03*
X031592Y020503D03*
D244*
X032222Y020513D03*
X032285Y020393D03*
D245*
X032541Y020393D03*
X032585Y020513D03*
X032686Y020393D03*
X031600Y020513D03*
X030963Y020418D03*
D246*
X033545Y020393D03*
D247*
X032577Y020504D03*
X032227Y020569D03*
X032227Y020570D03*
X031697Y020394D03*
X031587Y020497D03*
X031591Y020502D03*
X031592Y020504D03*
X031322Y020571D03*
X031322Y020572D03*
X031007Y020517D03*
X031007Y020516D03*
X031007Y020515D03*
X031007Y020514D03*
D248*
X032222Y020497D03*
X032287Y020409D03*
X033546Y020395D03*
D249*
X033546Y020396D03*
X033546Y020397D03*
X032690Y020461D03*
X032689Y020460D03*
X032689Y020459D03*
X032688Y020457D03*
X032688Y020456D03*
X032687Y020455D03*
X032687Y020454D03*
X032686Y020452D03*
X032686Y020451D03*
X032685Y020449D03*
X032684Y020447D03*
X032684Y020446D03*
X032684Y020445D03*
X032683Y020444D03*
X032683Y020442D03*
X032682Y020441D03*
X032682Y020440D03*
X032681Y020437D03*
X032680Y020436D03*
X032680Y020435D03*
X032680Y020434D03*
X032679Y020432D03*
X032679Y020431D03*
X032678Y020430D03*
X032678Y020429D03*
X032677Y020427D03*
X032677Y020426D03*
X032676Y020425D03*
X032676Y020424D03*
X032690Y020462D03*
X032676Y020569D03*
X032286Y020410D03*
X032221Y020495D03*
X032221Y020496D03*
X031692Y020569D03*
D250*
X032286Y020398D03*
D251*
X032540Y020403D03*
X032689Y020398D03*
X031555Y020403D03*
X031555Y020408D03*
X030964Y020413D03*
D252*
X032678Y020428D03*
X033547Y020398D03*
D253*
X033547Y020399D03*
X033547Y020400D03*
D254*
X032286Y020400D03*
D255*
X033548Y020401D03*
D256*
X032286Y020403D03*
D257*
X031692Y020568D03*
X033549Y020403D03*
D258*
X032286Y020404D03*
X032286Y020405D03*
D259*
X033549Y020404D03*
D260*
X032287Y020408D03*
X032222Y020498D03*
D261*
X032287Y020411D03*
X032682Y020439D03*
X032686Y020450D03*
D262*
X032700Y020422D03*
X032700Y020421D03*
X032699Y020419D03*
X031277Y020514D03*
X031275Y020512D03*
X031274Y020510D03*
X031273Y020509D03*
X031272Y020507D03*
X031271Y020506D03*
X031268Y020502D03*
X031266Y020499D03*
X031264Y020496D03*
X031261Y020492D03*
X031259Y020489D03*
D263*
X031269Y020503D03*
X031276Y020513D03*
X032701Y020423D03*
D264*
X030945Y020548D03*
X030901Y020428D03*
D265*
X030901Y020429D03*
D266*
X030901Y020430D03*
X030901Y020431D03*
D267*
X030901Y020432D03*
X030911Y020461D03*
D268*
X032679Y020433D03*
X032681Y020438D03*
X032683Y020443D03*
X032685Y020448D03*
X032687Y020453D03*
X032688Y020458D03*
D269*
X033257Y020532D03*
X033258Y020535D03*
X033259Y020537D03*
X033260Y020540D03*
X033262Y020546D03*
X033263Y020549D03*
X033264Y020551D03*
X033265Y020554D03*
X033266Y020557D03*
X033267Y020559D03*
X033267Y020560D03*
X033268Y020562D03*
X033269Y020565D03*
X033270Y020567D03*
X033271Y020570D03*
X033271Y020571D03*
X030944Y020555D03*
X030901Y020436D03*
X030901Y020435D03*
D270*
X030900Y020450D03*
X031682Y020544D03*
X033217Y020437D03*
X033218Y020440D03*
X033219Y020442D03*
X033220Y020445D03*
X033222Y020451D03*
X033224Y020456D03*
X033225Y020459D03*
X033227Y020464D03*
X033228Y020467D03*
X033229Y020470D03*
D271*
X033229Y020468D03*
X033227Y020463D03*
X033225Y020458D03*
X033220Y020443D03*
X033218Y020438D03*
X031682Y020543D03*
X030942Y020563D03*
X030899Y020443D03*
D272*
X030900Y020439D03*
X030906Y020455D03*
X031680Y020539D03*
D273*
X030900Y020440D03*
D274*
X030899Y020442D03*
X030903Y020452D03*
X032665Y020541D03*
D275*
X031683Y020545D03*
X030898Y020444D03*
D276*
X030896Y020446D03*
X030896Y020447D03*
X030940Y020567D03*
D277*
X030898Y020448D03*
D278*
X032666Y020543D03*
X033221Y020448D03*
D279*
X030899Y020449D03*
D280*
X030901Y020451D03*
D281*
X030904Y020453D03*
D282*
X030907Y020456D03*
D283*
X030909Y020458D03*
X033259Y020538D03*
X033261Y020543D03*
X033263Y020548D03*
X033270Y020568D03*
X033272Y020573D03*
D284*
X030944Y020550D03*
X030944Y020549D03*
X030912Y020462D03*
D285*
X033226Y020462D03*
X033231Y020475D03*
D286*
X030913Y020463D03*
D287*
X030914Y020464D03*
D288*
X031302Y020516D03*
X032222Y020502D03*
X032222Y020501D03*
X032222Y020500D03*
D289*
X032584Y020512D03*
X031599Y020512D03*
D290*
X031006Y020513D03*
X033531Y020523D03*
X033671Y020548D03*
X033681Y020563D03*
D291*
X031302Y020518D03*
D292*
X032723Y020518D03*
D293*
X031304Y020521D03*
X031304Y020522D03*
D294*
X031308Y020534D03*
X031725Y020535D03*
X032223Y020524D03*
X032223Y020522D03*
D295*
X031304Y020523D03*
D296*
X031319Y020563D03*
X031738Y020523D03*
D297*
X031306Y020528D03*
D298*
X031617Y020528D03*
X032602Y020528D03*
D299*
X032224Y020528D03*
X031694Y020573D03*
D300*
X031619Y020529D03*
X032604Y020529D03*
X032679Y020575D03*
D301*
X031734Y020529D03*
X031003Y020530D03*
D302*
X032224Y020529D03*
D303*
X031307Y020530D03*
D304*
X033256Y020531D03*
X033256Y020530D03*
X033261Y020544D03*
X033261Y020545D03*
X033271Y020572D03*
D305*
X032607Y020531D03*
X031732Y020531D03*
X031622Y020531D03*
D306*
X030943Y020533D03*
D307*
X031308Y020533D03*
D308*
X031626Y020533D03*
X032611Y020533D03*
D309*
X033257Y020533D03*
X033264Y020553D03*
X033268Y020563D03*
D310*
X030943Y020536D03*
X030943Y020535D03*
X030943Y020534D03*
D311*
X030944Y020537D03*
X030944Y020539D03*
D312*
X030944Y020538D03*
D313*
X031310Y020538D03*
X032678Y020573D03*
D314*
X031680Y020538D03*
D315*
X032224Y020538D03*
D316*
X032664Y020538D03*
D317*
X030944Y020540D03*
X030944Y020541D03*
D318*
X030944Y020542D03*
X030944Y020544D03*
D319*
X031311Y020542D03*
D320*
X031682Y020542D03*
D321*
X030944Y020543D03*
D322*
X032225Y020543D03*
D323*
X031312Y020544D03*
D324*
X030945Y020545D03*
D325*
X030944Y020546D03*
X030944Y020547D03*
D326*
X030940Y020566D03*
X031683Y020546D03*
X032667Y020546D03*
D327*
X031684Y020547D03*
D328*
X031684Y020548D03*
D329*
X030939Y020568D03*
X032668Y020548D03*
D330*
X031685Y020549D03*
D331*
X030938Y020569D03*
X032668Y020549D03*
D332*
X032669Y020550D03*
D333*
X030944Y020551D03*
X030944Y020552D03*
D334*
X030938Y020570D03*
X031685Y020551D03*
D335*
X031686Y020552D03*
D336*
X032669Y020552D03*
D337*
X030944Y020553D03*
D338*
X031686Y020553D03*
D339*
X032225Y020553D03*
D340*
X032670Y020553D03*
D341*
X031686Y020554D03*
D342*
X032670Y020554D03*
D343*
X031687Y020556D03*
D344*
X031687Y020557D03*
D345*
X030943Y020558D03*
D346*
X031688Y020558D03*
D347*
X032226Y020558D03*
D348*
X032672Y020558D03*
D349*
X033266Y020558D03*
D350*
X031688Y020559D03*
D351*
X031688Y020560D03*
D352*
X031689Y020561D03*
D353*
X030942Y020562D03*
D354*
X031689Y020562D03*
D355*
X031690Y020563D03*
D356*
X030942Y020564D03*
D357*
X032674Y020564D03*
D358*
X032674Y020565D03*
D359*
X031691Y020566D03*
D360*
X031691Y020567D03*
D361*
X032676Y020567D03*
D362*
X032676Y020568D03*
D363*
X030936Y020571D03*
D364*
X031693Y020571D03*
D365*
X030932Y020573D03*
D366*
X031696Y020578D03*
D367*
X032680Y020578D03*
D368*
X031696Y020579D03*
D369*
X032681Y020579D03*
D370*
X033405Y022014D03*
X033405Y022015D03*
M02*
