G75*
%MOIN*%
%OFA0B0*%
%FSLAX24Y24*%
%IPPOS*%
%LPD*%
%AMOC8*
5,1,8,0,0,1.08239X$1,22.5*
%
%ADD10C,0.0000*%
D10*
X002546Y002993D02*
X002546Y022993D01*
X042546Y022993D01*
X042546Y002993D01*
X002546Y002993D01*
X002995Y003993D02*
X002997Y004040D01*
X003003Y004086D01*
X003013Y004132D01*
X003026Y004177D01*
X003044Y004220D01*
X003065Y004262D01*
X003089Y004302D01*
X003117Y004339D01*
X003148Y004374D01*
X003182Y004407D01*
X003218Y004436D01*
X003257Y004462D01*
X003298Y004485D01*
X003341Y004504D01*
X003385Y004520D01*
X003430Y004532D01*
X003476Y004540D01*
X003523Y004544D01*
X003569Y004544D01*
X003616Y004540D01*
X003662Y004532D01*
X003707Y004520D01*
X003751Y004504D01*
X003794Y004485D01*
X003835Y004462D01*
X003874Y004436D01*
X003910Y004407D01*
X003944Y004374D01*
X003975Y004339D01*
X004003Y004302D01*
X004027Y004262D01*
X004048Y004220D01*
X004066Y004177D01*
X004079Y004132D01*
X004089Y004086D01*
X004095Y004040D01*
X004097Y003993D01*
X004095Y003946D01*
X004089Y003900D01*
X004079Y003854D01*
X004066Y003809D01*
X004048Y003766D01*
X004027Y003724D01*
X004003Y003684D01*
X003975Y003647D01*
X003944Y003612D01*
X003910Y003579D01*
X003874Y003550D01*
X003835Y003524D01*
X003794Y003501D01*
X003751Y003482D01*
X003707Y003466D01*
X003662Y003454D01*
X003616Y003446D01*
X003569Y003442D01*
X003523Y003442D01*
X003476Y003446D01*
X003430Y003454D01*
X003385Y003466D01*
X003341Y003482D01*
X003298Y003501D01*
X003257Y003524D01*
X003218Y003550D01*
X003182Y003579D01*
X003148Y003612D01*
X003117Y003647D01*
X003089Y003684D01*
X003065Y003724D01*
X003044Y003766D01*
X003026Y003809D01*
X003013Y003854D01*
X003003Y003900D01*
X002997Y003946D01*
X002995Y003993D01*
X002995Y021993D02*
X002997Y022040D01*
X003003Y022086D01*
X003013Y022132D01*
X003026Y022177D01*
X003044Y022220D01*
X003065Y022262D01*
X003089Y022302D01*
X003117Y022339D01*
X003148Y022374D01*
X003182Y022407D01*
X003218Y022436D01*
X003257Y022462D01*
X003298Y022485D01*
X003341Y022504D01*
X003385Y022520D01*
X003430Y022532D01*
X003476Y022540D01*
X003523Y022544D01*
X003569Y022544D01*
X003616Y022540D01*
X003662Y022532D01*
X003707Y022520D01*
X003751Y022504D01*
X003794Y022485D01*
X003835Y022462D01*
X003874Y022436D01*
X003910Y022407D01*
X003944Y022374D01*
X003975Y022339D01*
X004003Y022302D01*
X004027Y022262D01*
X004048Y022220D01*
X004066Y022177D01*
X004079Y022132D01*
X004089Y022086D01*
X004095Y022040D01*
X004097Y021993D01*
X004095Y021946D01*
X004089Y021900D01*
X004079Y021854D01*
X004066Y021809D01*
X004048Y021766D01*
X004027Y021724D01*
X004003Y021684D01*
X003975Y021647D01*
X003944Y021612D01*
X003910Y021579D01*
X003874Y021550D01*
X003835Y021524D01*
X003794Y021501D01*
X003751Y021482D01*
X003707Y021466D01*
X003662Y021454D01*
X003616Y021446D01*
X003569Y021442D01*
X003523Y021442D01*
X003476Y021446D01*
X003430Y021454D01*
X003385Y021466D01*
X003341Y021482D01*
X003298Y021501D01*
X003257Y021524D01*
X003218Y021550D01*
X003182Y021579D01*
X003148Y021612D01*
X003117Y021647D01*
X003089Y021684D01*
X003065Y021724D01*
X003044Y021766D01*
X003026Y021809D01*
X003013Y021854D01*
X003003Y021900D01*
X002997Y021946D01*
X002995Y021993D01*
X040995Y021993D02*
X040997Y022040D01*
X041003Y022086D01*
X041013Y022132D01*
X041026Y022177D01*
X041044Y022220D01*
X041065Y022262D01*
X041089Y022302D01*
X041117Y022339D01*
X041148Y022374D01*
X041182Y022407D01*
X041218Y022436D01*
X041257Y022462D01*
X041298Y022485D01*
X041341Y022504D01*
X041385Y022520D01*
X041430Y022532D01*
X041476Y022540D01*
X041523Y022544D01*
X041569Y022544D01*
X041616Y022540D01*
X041662Y022532D01*
X041707Y022520D01*
X041751Y022504D01*
X041794Y022485D01*
X041835Y022462D01*
X041874Y022436D01*
X041910Y022407D01*
X041944Y022374D01*
X041975Y022339D01*
X042003Y022302D01*
X042027Y022262D01*
X042048Y022220D01*
X042066Y022177D01*
X042079Y022132D01*
X042089Y022086D01*
X042095Y022040D01*
X042097Y021993D01*
X042095Y021946D01*
X042089Y021900D01*
X042079Y021854D01*
X042066Y021809D01*
X042048Y021766D01*
X042027Y021724D01*
X042003Y021684D01*
X041975Y021647D01*
X041944Y021612D01*
X041910Y021579D01*
X041874Y021550D01*
X041835Y021524D01*
X041794Y021501D01*
X041751Y021482D01*
X041707Y021466D01*
X041662Y021454D01*
X041616Y021446D01*
X041569Y021442D01*
X041523Y021442D01*
X041476Y021446D01*
X041430Y021454D01*
X041385Y021466D01*
X041341Y021482D01*
X041298Y021501D01*
X041257Y021524D01*
X041218Y021550D01*
X041182Y021579D01*
X041148Y021612D01*
X041117Y021647D01*
X041089Y021684D01*
X041065Y021724D01*
X041044Y021766D01*
X041026Y021809D01*
X041013Y021854D01*
X041003Y021900D01*
X040997Y021946D01*
X040995Y021993D01*
X040995Y003993D02*
X040997Y004040D01*
X041003Y004086D01*
X041013Y004132D01*
X041026Y004177D01*
X041044Y004220D01*
X041065Y004262D01*
X041089Y004302D01*
X041117Y004339D01*
X041148Y004374D01*
X041182Y004407D01*
X041218Y004436D01*
X041257Y004462D01*
X041298Y004485D01*
X041341Y004504D01*
X041385Y004520D01*
X041430Y004532D01*
X041476Y004540D01*
X041523Y004544D01*
X041569Y004544D01*
X041616Y004540D01*
X041662Y004532D01*
X041707Y004520D01*
X041751Y004504D01*
X041794Y004485D01*
X041835Y004462D01*
X041874Y004436D01*
X041910Y004407D01*
X041944Y004374D01*
X041975Y004339D01*
X042003Y004302D01*
X042027Y004262D01*
X042048Y004220D01*
X042066Y004177D01*
X042079Y004132D01*
X042089Y004086D01*
X042095Y004040D01*
X042097Y003993D01*
X042095Y003946D01*
X042089Y003900D01*
X042079Y003854D01*
X042066Y003809D01*
X042048Y003766D01*
X042027Y003724D01*
X042003Y003684D01*
X041975Y003647D01*
X041944Y003612D01*
X041910Y003579D01*
X041874Y003550D01*
X041835Y003524D01*
X041794Y003501D01*
X041751Y003482D01*
X041707Y003466D01*
X041662Y003454D01*
X041616Y003446D01*
X041569Y003442D01*
X041523Y003442D01*
X041476Y003446D01*
X041430Y003454D01*
X041385Y003466D01*
X041341Y003482D01*
X041298Y003501D01*
X041257Y003524D01*
X041218Y003550D01*
X041182Y003579D01*
X041148Y003612D01*
X041117Y003647D01*
X041089Y003684D01*
X041065Y003724D01*
X041044Y003766D01*
X041026Y003809D01*
X041013Y003854D01*
X041003Y003900D01*
X040997Y003946D01*
X040995Y003993D01*
M02*
