%
M48
M72
T01C0.0197
T02C0.0236
T03C0.0400
T04C0.0472
T05C0.0591
T06C0.1102
T07C0.1260
%
T01
X3966Y5043
X10466Y10283
X14596Y10913
X15526Y10373
X15196Y13533
X16346Y14813
X20356Y15383
X21616Y15383
X21636Y16243
X20386Y16243
X23616Y16313
X24926Y16353
X26096Y15973
X26926Y16393
X26906Y15513
X28216Y15533
X28216Y16393
X24926Y15473
X23616Y15483
X31796Y12583
X34736Y13503
X35216Y11753
X35946Y9943
X35396Y16893
X35946Y17043
X41746Y17043
X42046Y18443
X17886Y20213
X17086Y21063
X13016Y21713
X9996Y20893
X10016Y19363
X11266Y18243
X11596Y17763
X13156Y18643
X6896Y17503
X5586Y15243
X4006Y13923
X3486Y13923
X17186Y7083
T02
X16586Y7883
X19696Y9893
X22046Y11443
X21796Y13143
X24946Y13143
X25296Y11893
X28346Y13193
X28746Y11793
X29546Y9893
X32696Y9943
X32466Y12733
X31646Y13433
X31496Y15523
X31516Y16423
X32496Y16843
X33336Y16433
X34696Y16433
X34696Y15513
X33346Y15513
X35736Y14053
X37816Y13393
X38816Y14173
X39646Y15553
X39646Y16413
X40956Y16423
X40946Y15553
X37846Y15553
X36496Y15543
X36486Y16473
X37846Y16473
X38746Y17443
X39790Y18899
X41646Y17893
X36896Y18940
X35346Y17493
X33806Y18741
X32446Y17443
X30496Y17993
X29296Y17443
X30176Y16433
X29296Y15993
X30196Y15533
X26296Y17093
X25696Y16793
X25546Y17443
X25656Y19043
X22625Y19056
X20296Y18043
X19515Y18820
X22546Y17443
X22796Y15893
X19546Y17043
X16096Y18743
X15246Y19843
X14546Y19793
X13856Y19773
X13346Y19293
X15946Y20043
X15306Y17203
X14806Y16923
X13746Y17043
X12546Y16483
X8026Y14293
X4366Y15793
X6976Y16313
X6846Y16913
X6096Y18943
X6866Y18983
X17246Y11743
X22846Y9893
X26196Y9893
X19396Y5243
X18896Y5243
X18896Y4693
X19396Y4693
X19396Y4143
X18896Y4143
X18896Y3643
X19396Y3643
X22696Y4693
X22946Y4243
X38296Y11833
X41096Y11863
X41796Y11003
X38996Y9943
X41006Y13473
X30796Y18793
X29042Y19043
T03
X6346Y3893
X5346Y3993
X7346Y3993
X8756Y15193
X9756Y15193
X10756Y15193
X11756Y15193
X11756Y16193
X10756Y16193
X9756Y16193
X8756Y16193
X4276Y16733
X3276Y16733
X3276Y17733
X4276Y17733
X4276Y18733
X3276Y18733
X3276Y19733
X4276Y19733
X6306Y21983
X5306Y22083
X7306Y22083
X8306Y21983
X9306Y22083
T04
X26646Y5393
X28024Y5393
X29402Y5393
X30780Y5393
X32158Y5393
X33536Y5393
X34914Y5393
X36292Y5393
T05
X13746Y8893
X9746Y8893
X3746Y8893
X3746Y10893
X3746Y12893
X11746Y12893
T06
X3546Y3993
X3546Y21993
X41546Y21993
X41546Y3993
T07
X15546Y4993
X12546Y4993
X9546Y4993
M30
