G75*
%MOIN*%
%OFA0B0*%
%FSLAX24Y24*%
%IPPOS*%
%LPD*%
%AMOC8*
5,1,8,0,0,1.08239X$1,22.5*
%
%ADD10C,0.0100*%
%ADD11R,0.0540X0.0020*%
%ADD12R,0.1000X0.0020*%
%ADD13R,0.1360X0.0020*%
%ADD14R,0.0740X0.0020*%
%ADD15R,0.0680X0.0020*%
%ADD16R,0.0560X0.0020*%
%ADD17R,0.0480X0.0020*%
%ADD18R,0.0440X0.0020*%
%ADD19R,0.0420X0.0020*%
%ADD20R,0.0380X0.0020*%
%ADD21R,0.0360X0.0020*%
%ADD22R,0.0320X0.0020*%
%ADD23R,0.0300X0.0020*%
%ADD24R,0.0280X0.0020*%
%ADD25R,0.0260X0.0020*%
%ADD26R,0.0240X0.0020*%
%ADD27R,0.0220X0.0020*%
%ADD28R,0.0200X0.0020*%
%ADD29R,0.0180X0.0020*%
%ADD30R,0.0160X0.0020*%
%ADD31R,0.0140X0.0020*%
%ADD32R,0.0120X0.0020*%
%ADD33R,0.0100X0.0020*%
%ADD34R,0.0080X0.0020*%
%ADD35R,0.0060X0.0020*%
%ADD36R,0.0700X0.0020*%
%ADD37R,0.1040X0.0020*%
%ADD38R,0.1320X0.0020*%
%ADD39R,0.0820X0.0020*%
%ADD40R,0.0640X0.0020*%
%ADD41R,0.0500X0.0020*%
%ADD42R,0.0400X0.0020*%
%ADD43R,0.0520X0.0020*%
%ADD44R,0.0620X0.0020*%
%ADD45R,0.0460X0.0020*%
%ADD46R,0.0340X0.0020*%
%ADD47R,0.0040X0.0020*%
%ADD48R,0.0020X0.0020*%
%ADD49R,0.0660X0.0020*%
D10*
X000500Y000200D02*
X000500Y039200D01*
X027600Y039200D01*
X027600Y038300D01*
X027602Y038261D01*
X027608Y038222D01*
X027617Y038184D01*
X027630Y038147D01*
X027647Y038111D01*
X027667Y038078D01*
X027691Y038046D01*
X027717Y038017D01*
X027746Y037991D01*
X027778Y037967D01*
X027811Y037947D01*
X027847Y037930D01*
X027884Y037917D01*
X027922Y037908D01*
X027961Y037902D01*
X028000Y037900D01*
X028039Y037902D01*
X028078Y037908D01*
X028116Y037917D01*
X028153Y037930D01*
X028189Y037947D01*
X028222Y037967D01*
X028254Y037991D01*
X028283Y038017D01*
X028309Y038046D01*
X028333Y038078D01*
X028353Y038111D01*
X028370Y038147D01*
X028383Y038184D01*
X028392Y038222D01*
X028398Y038261D01*
X028400Y038300D01*
X028400Y039200D01*
X031000Y039200D01*
X031000Y000200D01*
X028400Y000200D01*
X028400Y001200D01*
X028398Y001239D01*
X028392Y001278D01*
X028383Y001316D01*
X028370Y001353D01*
X028353Y001389D01*
X028333Y001422D01*
X028309Y001454D01*
X028283Y001483D01*
X028254Y001509D01*
X028222Y001533D01*
X028189Y001553D01*
X028153Y001570D01*
X028116Y001583D01*
X028078Y001592D01*
X028039Y001598D01*
X028000Y001600D01*
X027961Y001598D01*
X027922Y001592D01*
X027884Y001583D01*
X027847Y001570D01*
X027811Y001553D01*
X027778Y001533D01*
X027746Y001509D01*
X027717Y001483D01*
X027691Y001454D01*
X027667Y001422D01*
X027647Y001389D01*
X027630Y001353D01*
X027617Y001316D01*
X027608Y001278D01*
X027602Y001239D01*
X027600Y001200D01*
X027600Y000200D01*
X000500Y000200D01*
X017122Y022009D02*
X017055Y022076D01*
X017055Y022209D01*
X017122Y022276D01*
X017055Y022469D02*
X017055Y022736D01*
X017055Y022603D02*
X017455Y022603D01*
X017322Y022469D01*
X017389Y022276D02*
X017455Y022209D01*
X017455Y022076D01*
X017389Y022009D01*
X017122Y022009D01*
X017055Y022930D02*
X017055Y023196D01*
X017055Y023063D02*
X017455Y023063D01*
X017322Y022930D01*
X016525Y022989D02*
X016525Y022856D01*
X016459Y022789D01*
X016192Y022789D01*
X016125Y022856D01*
X016125Y022989D01*
X016192Y023056D01*
X016192Y023250D02*
X016125Y023316D01*
X016125Y023450D01*
X016192Y023517D01*
X016459Y023517D01*
X016525Y023450D01*
X016525Y023316D01*
X016459Y023250D01*
X016392Y023250D01*
X016325Y023316D01*
X016325Y023517D01*
X016459Y023056D02*
X016525Y022989D01*
X016566Y024152D02*
X016566Y024388D01*
X016984Y024312D02*
X016984Y024548D01*
X017456Y024548D02*
X017456Y024312D01*
X017666Y024762D02*
X017666Y023818D01*
X018256Y023818D01*
X018390Y023647D02*
X018590Y023446D01*
X018323Y023446D01*
X018390Y023246D02*
X018390Y023647D01*
X018784Y023580D02*
X018851Y023647D01*
X018984Y023647D01*
X019051Y023580D01*
X019051Y023313D01*
X018984Y023246D01*
X018851Y023246D01*
X018784Y023313D01*
X019044Y023818D02*
X019477Y023818D01*
X019634Y023975D01*
X019634Y024605D01*
X019477Y024762D01*
X019044Y024762D01*
X018800Y024690D02*
X018800Y023890D01*
X018256Y024762D02*
X017666Y024762D01*
X017661Y025435D02*
X017594Y025502D01*
X017661Y025435D02*
X017794Y025435D01*
X017861Y025502D01*
X017861Y025769D01*
X017794Y025835D01*
X017661Y025835D01*
X017594Y025769D01*
X017401Y025702D02*
X017267Y025835D01*
X017267Y025435D01*
X017134Y025435D02*
X017401Y025435D01*
X016940Y025502D02*
X016940Y025769D01*
X016874Y025835D01*
X016740Y025835D01*
X016674Y025769D01*
X016940Y025502D01*
X016874Y025435D01*
X016740Y025435D01*
X016674Y025502D01*
X016674Y025769D01*
X017022Y026004D02*
X017258Y026004D01*
X017258Y026476D02*
X017022Y026476D01*
X017913Y027422D02*
X017980Y027355D01*
X018114Y027355D01*
X018180Y027422D01*
X018047Y027555D02*
X017980Y027555D01*
X017913Y027488D01*
X017913Y027422D01*
X017980Y027555D02*
X017913Y027622D01*
X017913Y027689D01*
X017980Y027755D01*
X018114Y027755D01*
X018180Y027689D01*
X018374Y027689D02*
X018441Y027755D01*
X018574Y027755D01*
X018641Y027689D01*
X018641Y027422D01*
X018574Y027355D01*
X018441Y027355D01*
X018374Y027422D01*
X018388Y027166D02*
X018152Y027166D01*
X018152Y026694D02*
X018388Y026694D01*
X019134Y026358D02*
X019134Y026122D01*
X019606Y026122D02*
X019606Y026358D01*
X019815Y026417D02*
X019815Y026150D01*
X020082Y026417D01*
X020149Y026417D01*
X020215Y026351D01*
X020215Y026217D01*
X020149Y026150D01*
X020149Y025957D02*
X020215Y025890D01*
X020215Y025757D01*
X020149Y025690D01*
X019882Y025690D01*
X019815Y025757D01*
X019815Y025890D01*
X019882Y025957D01*
X019882Y026611D02*
X019815Y026678D01*
X019815Y026811D01*
X019882Y026878D01*
X019948Y026878D01*
X020015Y026811D01*
X020015Y026744D01*
X020015Y026811D02*
X020082Y026878D01*
X020149Y026878D01*
X020215Y026811D01*
X020215Y026678D01*
X020149Y026611D01*
X016094Y024388D02*
X016094Y024152D01*
X009655Y029582D02*
X009589Y029515D01*
X009322Y029515D01*
X009255Y029582D01*
X009255Y029715D01*
X009322Y029782D01*
X009255Y029975D02*
X009522Y030242D01*
X009589Y030242D01*
X009655Y030176D01*
X009655Y030042D01*
X009589Y029975D01*
X009589Y029782D02*
X009655Y029715D01*
X009655Y029582D01*
X009255Y029975D02*
X009255Y030242D01*
X009255Y030436D02*
X009522Y030703D01*
X009589Y030703D01*
X009655Y030636D01*
X009655Y030503D01*
X009589Y030436D01*
X009255Y030436D02*
X009255Y030703D01*
X009036Y030203D02*
X009036Y029967D01*
X008564Y029967D02*
X008564Y030203D01*
X007709Y031730D02*
X007442Y031730D01*
X007375Y031797D01*
X007375Y031930D01*
X007442Y031997D01*
X007375Y032190D02*
X007375Y032457D01*
X007375Y032324D02*
X007775Y032324D01*
X007642Y032190D01*
X007709Y031997D02*
X007775Y031930D01*
X007775Y031797D01*
X007709Y031730D01*
X007974Y032162D02*
X007974Y032398D01*
X007709Y032651D02*
X007775Y032718D01*
X007775Y032851D01*
X007709Y032918D01*
X007642Y032918D01*
X007575Y032851D01*
X007508Y032918D01*
X007442Y032918D01*
X007375Y032851D01*
X007375Y032718D01*
X007442Y032651D01*
X007575Y032784D02*
X007575Y032851D01*
X008446Y032398D02*
X008446Y032162D01*
X008842Y027707D02*
X008775Y027641D01*
X008775Y027507D01*
X008842Y027440D01*
X008975Y027440D02*
X009042Y027574D01*
X009042Y027641D01*
X008975Y027707D01*
X008842Y027707D01*
X008975Y027440D02*
X009175Y027440D01*
X009175Y027707D01*
X009109Y027247D02*
X009175Y027180D01*
X009175Y027047D01*
X009109Y026980D01*
X008842Y026980D01*
X008775Y027047D01*
X008775Y027180D01*
X008842Y027247D01*
X008596Y027242D02*
X008596Y027478D01*
X008124Y027478D02*
X008124Y027242D01*
X026513Y028345D02*
X026780Y028345D01*
X026513Y028612D01*
X026513Y028679D01*
X026579Y028745D01*
X026713Y028745D01*
X026780Y028679D01*
X026973Y028679D02*
X027040Y028745D01*
X027173Y028745D01*
X027240Y028679D01*
X027240Y028412D01*
X027173Y028345D01*
X027040Y028345D01*
X026973Y028412D01*
X028299Y028368D02*
X028299Y028132D01*
X028771Y028132D02*
X028771Y028368D01*
X028730Y028965D02*
X028730Y029165D01*
X028664Y029232D01*
X028530Y029232D01*
X028463Y029165D01*
X028463Y028965D01*
X028330Y028965D02*
X028730Y028965D01*
X028463Y029098D02*
X028330Y029232D01*
X028330Y029425D02*
X028330Y029692D01*
X028330Y029559D02*
X028730Y029559D01*
X028597Y029425D01*
X028530Y029886D02*
X028597Y030019D01*
X028597Y030086D01*
X028530Y030153D01*
X028397Y030153D01*
X028330Y030086D01*
X028330Y029953D01*
X028397Y029886D01*
X028530Y029886D02*
X028730Y029886D01*
X028730Y030153D01*
X028058Y033714D02*
X027822Y033714D01*
X027822Y034186D02*
X028058Y034186D01*
X027990Y034365D02*
X027723Y034632D01*
X027723Y034699D01*
X027789Y034765D01*
X027923Y034765D01*
X027990Y034699D01*
X028183Y034699D02*
X028183Y034565D01*
X028250Y034498D01*
X028450Y034498D01*
X028450Y034365D02*
X028450Y034765D01*
X028250Y034765D01*
X028183Y034699D01*
X028317Y034498D02*
X028183Y034365D01*
X027990Y034365D02*
X027723Y034365D01*
X027529Y034432D02*
X027462Y034365D01*
X027329Y034365D01*
X027262Y034432D01*
X027262Y034565D01*
X027329Y034632D01*
X027396Y034632D01*
X027529Y034565D01*
X027529Y034765D01*
X027262Y034765D01*
X027272Y009395D02*
X027272Y009329D01*
X027539Y009062D01*
X027539Y008995D01*
X027733Y008995D02*
X028000Y008995D01*
X027866Y008995D02*
X027866Y009395D01*
X028000Y009262D01*
X028193Y009329D02*
X028260Y009395D01*
X028393Y009395D01*
X028460Y009329D01*
X028460Y009062D01*
X028393Y008995D01*
X028260Y008995D01*
X028193Y009062D01*
X028188Y008796D02*
X027952Y008796D01*
X027952Y008324D02*
X028188Y008324D01*
X028314Y008022D02*
X028747Y008022D01*
X028904Y007865D01*
X028904Y007235D01*
X028747Y007078D01*
X028314Y007078D01*
X028070Y007150D02*
X028070Y007950D01*
X027526Y008022D02*
X026936Y008022D01*
X026936Y007078D01*
X027526Y007078D01*
X029123Y007443D02*
X029190Y007376D01*
X029324Y007376D01*
X029390Y007443D01*
X029390Y007510D01*
X029324Y007576D01*
X029190Y007576D01*
X029123Y007510D01*
X029123Y007443D01*
X029190Y007576D02*
X029123Y007643D01*
X029123Y007710D01*
X029190Y007777D01*
X029324Y007777D01*
X029390Y007710D01*
X029390Y007643D01*
X029324Y007576D01*
X029584Y007443D02*
X029651Y007376D01*
X029784Y007376D01*
X029851Y007443D01*
X029851Y007710D01*
X029784Y007777D01*
X029651Y007777D01*
X029584Y007710D01*
X027539Y009395D02*
X027272Y009395D01*
D11*
X010140Y003210D03*
D12*
X010130Y003230D03*
D13*
X010130Y003250D03*
D14*
X010600Y003270D03*
D15*
X009670Y003270D03*
D16*
X009690Y003870D03*
X010910Y003910D03*
X010830Y003290D03*
X011210Y008950D03*
D17*
X010570Y007110D03*
X009450Y003290D03*
D18*
X009310Y003310D03*
X010990Y003310D03*
X011150Y003950D03*
X011070Y004390D03*
X009990Y007170D03*
X010210Y009130D03*
D19*
X008900Y008870D03*
X007580Y007390D03*
X009400Y005930D03*
X009520Y003890D03*
X011120Y003330D03*
X011240Y003970D03*
X011780Y008730D03*
D20*
X011760Y008750D03*
X009780Y009130D03*
X008140Y005450D03*
X009020Y004450D03*
X009400Y003910D03*
X009180Y003330D03*
X011240Y003350D03*
D21*
X011350Y003370D03*
X011410Y004010D03*
X009290Y003930D03*
X009070Y003350D03*
X007930Y005490D03*
X008850Y007970D03*
X009170Y008110D03*
X008090Y008270D03*
X010630Y007090D03*
D22*
X010590Y008530D03*
X009510Y008370D03*
X009090Y003970D03*
X009190Y003950D03*
X008970Y003370D03*
X011450Y003390D03*
X011490Y004030D03*
D23*
X011560Y004050D03*
X011060Y004370D03*
X011540Y003410D03*
X011980Y004210D03*
X011000Y007110D03*
X011300Y008150D03*
X009200Y008150D03*
X008880Y007990D03*
X008120Y008310D03*
X008680Y006250D03*
X008940Y006210D03*
X007880Y005050D03*
X007800Y005070D03*
X007720Y005090D03*
X007740Y005530D03*
X008000Y004310D03*
X008840Y004030D03*
X008920Y004010D03*
X009000Y003990D03*
X009040Y004430D03*
X008880Y003390D03*
D24*
X008790Y003410D03*
X008710Y003430D03*
X008690Y004070D03*
X007970Y005030D03*
X007630Y005110D03*
X009430Y005910D03*
X008030Y007730D03*
X007570Y007410D03*
X008910Y008890D03*
X011230Y008990D03*
X011290Y008170D03*
X011610Y004070D03*
X011630Y003430D03*
D25*
X011700Y003450D03*
X011820Y005170D03*
X011880Y006310D03*
X011520Y008010D03*
X010980Y008290D03*
X010580Y008550D03*
X009800Y009150D03*
X008360Y007430D03*
X007660Y005550D03*
X007560Y005130D03*
X008120Y004990D03*
X008200Y005430D03*
X008000Y004330D03*
X008620Y004090D03*
X008760Y004050D03*
X008640Y003450D03*
D26*
X008570Y003470D03*
X008490Y003490D03*
X008550Y004110D03*
X008490Y004130D03*
X008430Y004150D03*
X007490Y005150D03*
X008450Y006430D03*
X008450Y006450D03*
X008450Y006470D03*
X008930Y006190D03*
X008370Y007410D03*
X008050Y007710D03*
X007770Y007850D03*
X007430Y007930D03*
X008510Y008690D03*
X009130Y008830D03*
X009590Y009090D03*
X011010Y008930D03*
X011510Y008030D03*
X012150Y008550D03*
X012170Y008530D03*
X011330Y007030D03*
X011350Y007010D03*
X011370Y006990D03*
X010450Y007130D03*
X010010Y007130D03*
X011810Y005150D03*
X011970Y004230D03*
X011670Y004090D03*
X011770Y003470D03*
D27*
X011840Y003490D03*
X011720Y004110D03*
X011760Y004130D03*
X011280Y004430D03*
X011800Y005130D03*
X011860Y006290D03*
X011140Y007130D03*
X011000Y007090D03*
X011500Y008050D03*
X010960Y008310D03*
X011420Y008930D03*
X012140Y008570D03*
X010360Y009110D03*
X010200Y009170D03*
X009660Y008330D03*
X008920Y008010D03*
X008060Y007690D03*
X007120Y007850D03*
X009080Y006230D03*
X009600Y005950D03*
X008820Y004490D03*
X008360Y004170D03*
X008320Y004190D03*
X008420Y003510D03*
X007420Y005170D03*
D28*
X007590Y005570D03*
X008650Y006230D03*
X008330Y007070D03*
X008750Y007950D03*
X008530Y008710D03*
X008710Y008830D03*
X009530Y009070D03*
X010810Y007150D03*
X009770Y004410D03*
X008270Y004210D03*
X008010Y004350D03*
X008310Y003550D03*
X008370Y003530D03*
X007370Y007350D03*
X011810Y004150D03*
X011890Y003510D03*
D29*
X011940Y003530D03*
X011840Y004170D03*
X011880Y004190D03*
X011960Y004250D03*
X011340Y004450D03*
X010260Y004410D03*
X010140Y003790D03*
X008760Y004510D03*
X008220Y004230D03*
X008180Y004250D03*
X008160Y004970D03*
X007360Y005190D03*
X008260Y003570D03*
X009420Y005890D03*
X009620Y005970D03*
X008920Y006170D03*
X008380Y007390D03*
X007780Y007350D03*
X008540Y008730D03*
X009160Y008810D03*
X009500Y008390D03*
X010260Y007230D03*
X010720Y007130D03*
X011480Y008070D03*
X010940Y008330D03*
X010580Y008570D03*
X010760Y008830D03*
X010940Y008910D03*
D30*
X010890Y008890D03*
X010710Y008510D03*
X010430Y009090D03*
X009970Y009090D03*
X009470Y009050D03*
X009430Y009030D03*
X009710Y008310D03*
X009870Y007190D03*
X010590Y007070D03*
X010810Y007170D03*
X011170Y007150D03*
X011730Y007890D03*
X011710Y007910D03*
X012110Y008590D03*
X011950Y006330D03*
X011830Y006270D03*
X011490Y006230D03*
X011390Y004470D03*
X011990Y003550D03*
X012070Y003590D03*
X009270Y005950D03*
X009110Y006250D03*
X008430Y006910D03*
X008350Y007050D03*
X007830Y007330D03*
X007810Y007830D03*
X007310Y007330D03*
X007070Y007830D03*
X007490Y005610D03*
X007530Y005590D03*
X007310Y005210D03*
X008110Y004290D03*
X008150Y004270D03*
X008670Y004550D03*
X008710Y004530D03*
X008210Y003590D03*
X008170Y003610D03*
D31*
X008140Y003630D03*
X008100Y003650D03*
X008620Y004570D03*
X009720Y004430D03*
X009640Y005990D03*
X009620Y006650D03*
X009620Y006670D03*
X009620Y006690D03*
X009120Y006270D03*
X008760Y006270D03*
X008640Y006210D03*
X008420Y006890D03*
X008440Y006930D03*
X008440Y006950D03*
X008140Y007170D03*
X008100Y007190D03*
X008040Y007230D03*
X008000Y007250D03*
X007960Y007270D03*
X007920Y007290D03*
X007880Y007310D03*
X007280Y007310D03*
X007240Y007290D03*
X007020Y007810D03*
X007200Y005270D03*
X007240Y005250D03*
X007280Y005230D03*
X009380Y008330D03*
X009760Y008290D03*
X010480Y009070D03*
X010760Y008810D03*
X011240Y008130D03*
X011480Y008910D03*
X011940Y008710D03*
X012260Y007410D03*
X011440Y006390D03*
X011480Y006250D03*
X011860Y005430D03*
X012080Y004190D03*
X012040Y003570D03*
X010900Y007130D03*
X011180Y007170D03*
X010400Y007150D03*
X010260Y007250D03*
X010160Y007190D03*
D32*
X010250Y007270D03*
X010370Y007170D03*
X010810Y007190D03*
X010990Y007070D03*
X011430Y006630D03*
X011470Y006270D03*
X011830Y005450D03*
X011890Y005410D03*
X011670Y005330D03*
X011650Y005350D03*
X011490Y004530D03*
X011470Y004510D03*
X011430Y004490D03*
X010870Y004430D03*
X010310Y004430D03*
X009250Y005970D03*
X009630Y006630D03*
X009630Y006710D03*
X008690Y007930D03*
X008410Y007370D03*
X008210Y007130D03*
X008230Y007110D03*
X008270Y007090D03*
X008370Y007030D03*
X008390Y007010D03*
X008430Y006970D03*
X008410Y006870D03*
X008410Y006850D03*
X008170Y007150D03*
X008070Y007210D03*
X007930Y007750D03*
X007850Y007810D03*
X007210Y007270D03*
X006930Y007750D03*
X006950Y007770D03*
X006990Y007790D03*
X008430Y008670D03*
X008570Y008750D03*
X008650Y008810D03*
X009170Y008790D03*
X009330Y008970D03*
X009350Y008990D03*
X009390Y009010D03*
X009790Y008270D03*
X010510Y009050D03*
X010750Y008790D03*
X010850Y008870D03*
X010750Y008490D03*
X011070Y008270D03*
X011330Y008190D03*
X011690Y007930D03*
X011770Y007870D03*
X012290Y008010D03*
X012310Y008030D03*
X011990Y008690D03*
X011770Y008790D03*
X011510Y008890D03*
X012270Y007430D03*
X012110Y003610D03*
X008590Y004590D03*
X008530Y004630D03*
X007890Y004290D03*
X008010Y003710D03*
X008070Y003670D03*
X007170Y005290D03*
X007130Y005310D03*
X007110Y005330D03*
X007050Y005370D03*
X006930Y005470D03*
X007390Y005670D03*
X007430Y005650D03*
X007450Y005630D03*
X008490Y006410D03*
D33*
X008380Y006490D03*
X008380Y006510D03*
X008400Y006790D03*
X008400Y006810D03*
X008400Y006830D03*
X008420Y006990D03*
X008640Y007330D03*
X008620Y007350D03*
X008620Y007370D03*
X008460Y007450D03*
X008260Y007450D03*
X008240Y007470D03*
X008220Y007490D03*
X008200Y007510D03*
X008120Y007750D03*
X007900Y007770D03*
X007960Y008250D03*
X008220Y008250D03*
X008360Y008610D03*
X008380Y008630D03*
X008400Y008650D03*
X008620Y008790D03*
X009040Y008090D03*
X009340Y008310D03*
X009820Y008250D03*
X009840Y008230D03*
X010460Y008510D03*
X010780Y008470D03*
X010800Y008450D03*
X010820Y008430D03*
X011100Y008250D03*
X011120Y008230D03*
X010740Y008770D03*
X010820Y008850D03*
X010660Y008910D03*
X010580Y008990D03*
X010560Y009010D03*
X010540Y009030D03*
X011540Y008870D03*
X011560Y008850D03*
X011620Y008710D03*
X012020Y008670D03*
X012260Y008510D03*
X012280Y008490D03*
X012280Y007990D03*
X011860Y007790D03*
X011800Y007850D03*
X012240Y007390D03*
X012200Y006970D03*
X012180Y006950D03*
X012080Y006430D03*
X012020Y006370D03*
X012000Y006350D03*
X011560Y006050D03*
X011460Y006290D03*
X011460Y006350D03*
X011460Y006370D03*
X011420Y006410D03*
X011440Y006610D03*
X011420Y006650D03*
X011200Y007190D03*
X010820Y007210D03*
X010340Y007190D03*
X010320Y007210D03*
X010260Y007290D03*
X009700Y006770D03*
X009680Y006750D03*
X009660Y006730D03*
X009700Y006550D03*
X009700Y006050D03*
X009680Y006030D03*
X009660Y006010D03*
X009240Y005990D03*
X009140Y006290D03*
X008820Y006230D03*
X008760Y006290D03*
X008560Y006270D03*
X008280Y005410D03*
X008200Y004950D03*
X008500Y004650D03*
X008560Y004610D03*
X007940Y003770D03*
X007960Y003750D03*
X007980Y003730D03*
X008040Y003690D03*
X007080Y005350D03*
X007020Y005390D03*
X007000Y005410D03*
X006980Y005430D03*
X006960Y005450D03*
X006900Y005490D03*
X006880Y005510D03*
X006760Y005650D03*
X007300Y005750D03*
X007320Y005730D03*
X007340Y005710D03*
X007360Y005690D03*
X007160Y007230D03*
X007180Y007250D03*
X006840Y007670D03*
X006860Y007690D03*
X006880Y007710D03*
X006900Y007730D03*
X008660Y007910D03*
X009260Y008910D03*
X009280Y008930D03*
X009300Y008950D03*
X011820Y005470D03*
X011920Y005390D03*
X011680Y005310D03*
X011740Y005190D03*
X012120Y004170D03*
X012140Y004150D03*
X012160Y003650D03*
X012140Y003630D03*
X010340Y004450D03*
X010020Y004330D03*
X009680Y004450D03*
X009660Y004470D03*
D34*
X009650Y004490D03*
X009630Y004550D03*
X009630Y004570D03*
X009630Y004590D03*
X009630Y004610D03*
X009630Y004630D03*
X009630Y004930D03*
X009630Y004950D03*
X009630Y004970D03*
X009630Y004990D03*
X009630Y005010D03*
X009630Y005030D03*
X009630Y005050D03*
X009630Y005070D03*
X009650Y005330D03*
X009650Y005350D03*
X009650Y005370D03*
X009650Y005390D03*
X009650Y005410D03*
X009650Y005430D03*
X009670Y005690D03*
X009670Y005710D03*
X009670Y005730D03*
X009670Y005750D03*
X009670Y005770D03*
X009670Y005790D03*
X009670Y005810D03*
X009710Y006070D03*
X009730Y006090D03*
X009750Y006110D03*
X009750Y006130D03*
X009770Y006170D03*
X009790Y006250D03*
X009790Y006270D03*
X009790Y006290D03*
X009790Y006310D03*
X009790Y006330D03*
X009770Y006410D03*
X009750Y006450D03*
X009750Y006470D03*
X009730Y006490D03*
X009730Y006510D03*
X009710Y006530D03*
X009690Y006570D03*
X009670Y006590D03*
X009650Y006610D03*
X009710Y006790D03*
X009730Y006810D03*
X009750Y006830D03*
X009750Y006850D03*
X009770Y006870D03*
X009770Y006890D03*
X009790Y006930D03*
X009810Y006990D03*
X009810Y007010D03*
X009830Y007130D03*
X010190Y007210D03*
X010250Y007310D03*
X010250Y007330D03*
X010250Y007350D03*
X010250Y007370D03*
X010370Y007010D03*
X010370Y006990D03*
X010370Y006970D03*
X010370Y006950D03*
X010370Y006930D03*
X010370Y006910D03*
X010370Y006890D03*
X010370Y006870D03*
X010370Y006850D03*
X010370Y006830D03*
X010370Y006810D03*
X010370Y006790D03*
X010370Y006770D03*
X010370Y006750D03*
X010370Y006730D03*
X010370Y006710D03*
X010370Y006690D03*
X010370Y006670D03*
X010350Y006330D03*
X010350Y006310D03*
X010350Y006290D03*
X010350Y006270D03*
X010350Y006250D03*
X010350Y006230D03*
X010350Y006210D03*
X010830Y006210D03*
X010830Y006230D03*
X010830Y006250D03*
X010830Y006270D03*
X010810Y006450D03*
X010810Y006470D03*
X010810Y006490D03*
X010810Y006510D03*
X010790Y006690D03*
X010790Y006710D03*
X010790Y006730D03*
X010790Y006750D03*
X010770Y006950D03*
X010770Y006970D03*
X010770Y006990D03*
X010770Y007010D03*
X010770Y007030D03*
X010770Y007050D03*
X010770Y007070D03*
X011230Y007070D03*
X011230Y007050D03*
X011210Y007210D03*
X011210Y007230D03*
X011450Y006970D03*
X011470Y006950D03*
X011470Y006930D03*
X011450Y006870D03*
X011450Y006850D03*
X011430Y006810D03*
X011430Y006790D03*
X011410Y006750D03*
X011410Y006730D03*
X011430Y006590D03*
X011410Y006570D03*
X011390Y006550D03*
X011390Y006530D03*
X011390Y006430D03*
X011450Y006330D03*
X011450Y006310D03*
X011530Y006210D03*
X011530Y006190D03*
X011530Y006090D03*
X011550Y006070D03*
X011570Y006030D03*
X011590Y005950D03*
X011590Y005930D03*
X011590Y005910D03*
X011610Y005870D03*
X011610Y005850D03*
X011630Y005790D03*
X011630Y005770D03*
X011630Y005750D03*
X011650Y005670D03*
X011650Y005650D03*
X011650Y005630D03*
X011650Y005610D03*
X011650Y005590D03*
X011630Y005550D03*
X011610Y005490D03*
X011610Y005430D03*
X011610Y005410D03*
X011690Y005290D03*
X011710Y005230D03*
X011750Y005030D03*
X011750Y005010D03*
X011770Y004930D03*
X011770Y004910D03*
X011790Y004850D03*
X011790Y004830D03*
X011810Y004770D03*
X011810Y004750D03*
X011830Y004690D03*
X011830Y004670D03*
X011850Y004610D03*
X011850Y004590D03*
X011870Y004530D03*
X011870Y004510D03*
X011890Y004430D03*
X011890Y004410D03*
X011910Y004290D03*
X011910Y004270D03*
X012150Y004130D03*
X012170Y004110D03*
X012190Y004090D03*
X012190Y004070D03*
X012210Y004030D03*
X012230Y003970D03*
X012230Y003950D03*
X012230Y003930D03*
X012230Y003830D03*
X012230Y003810D03*
X012210Y003750D03*
X012210Y003730D03*
X012190Y003710D03*
X012190Y003690D03*
X012170Y003670D03*
X011510Y004550D03*
X011530Y004590D03*
X011530Y004610D03*
X011530Y004630D03*
X011530Y004650D03*
X011530Y004670D03*
X011510Y004770D03*
X011510Y004790D03*
X011490Y004890D03*
X011490Y004910D03*
X011470Y004990D03*
X011470Y005010D03*
X011450Y005090D03*
X011450Y005110D03*
X011430Y005190D03*
X011430Y005210D03*
X011430Y005230D03*
X011410Y005350D03*
X011410Y005370D03*
X011410Y005390D03*
X011410Y005410D03*
X011410Y005430D03*
X011410Y005450D03*
X011410Y005470D03*
X011410Y005490D03*
X011410Y005510D03*
X011410Y005530D03*
X011410Y005550D03*
X011430Y005850D03*
X011430Y005870D03*
X011430Y005890D03*
X011430Y005910D03*
X011430Y005930D03*
X011430Y005950D03*
X011430Y005970D03*
X011430Y005990D03*
X011430Y006010D03*
X011770Y005990D03*
X011770Y005970D03*
X011790Y005890D03*
X011790Y005870D03*
X011790Y005850D03*
X011810Y005790D03*
X011830Y005710D03*
X011830Y005690D03*
X011830Y005670D03*
X011830Y005650D03*
X011850Y005570D03*
X011850Y005550D03*
X011850Y005530D03*
X011830Y005490D03*
X011930Y005370D03*
X011950Y005350D03*
X011950Y005230D03*
X011930Y005190D03*
X011770Y006170D03*
X011770Y006190D03*
X011770Y006210D03*
X011770Y006230D03*
X011770Y006250D03*
X011790Y006330D03*
X012050Y006390D03*
X012070Y006410D03*
X012090Y006450D03*
X012110Y006470D03*
X012110Y006490D03*
X012130Y006510D03*
X012130Y006530D03*
X012150Y006570D03*
X012170Y006630D03*
X012170Y006650D03*
X012190Y006770D03*
X012190Y006790D03*
X012190Y006810D03*
X012190Y006830D03*
X012170Y006910D03*
X012170Y006930D03*
X012230Y006990D03*
X012230Y007010D03*
X012250Y007030D03*
X012250Y007050D03*
X012270Y007110D03*
X012270Y007290D03*
X012270Y007310D03*
X012250Y007350D03*
X012250Y007370D03*
X012310Y007450D03*
X012330Y007490D03*
X012350Y007570D03*
X012350Y007590D03*
X012350Y007610D03*
X012350Y007630D03*
X012350Y007690D03*
X012350Y007710D03*
X012350Y007730D03*
X012350Y007750D03*
X012330Y007850D03*
X012310Y007890D03*
X012310Y007910D03*
X012290Y007950D03*
X012270Y007970D03*
X012330Y008050D03*
X012350Y008070D03*
X012370Y008110D03*
X012370Y008130D03*
X012370Y008150D03*
X012370Y008270D03*
X012370Y008290D03*
X012370Y008310D03*
X012350Y008350D03*
X012350Y008370D03*
X012330Y008410D03*
X012330Y008430D03*
X012310Y008450D03*
X012290Y008470D03*
X012050Y008630D03*
X012030Y008650D03*
X011590Y008790D03*
X011590Y008810D03*
X011570Y008830D03*
X011410Y008130D03*
X011430Y008110D03*
X011430Y008090D03*
X011230Y008110D03*
X011170Y008190D03*
X011150Y008210D03*
X010870Y008350D03*
X010850Y008390D03*
X010830Y008410D03*
X010750Y008730D03*
X010750Y008750D03*
X010690Y008850D03*
X010690Y008870D03*
X010670Y008890D03*
X010650Y008930D03*
X010630Y008950D03*
X010610Y008970D03*
X010450Y008490D03*
X009970Y009070D03*
X009250Y008890D03*
X009230Y008870D03*
X009190Y008770D03*
X009210Y008750D03*
X009330Y008290D03*
X009310Y008270D03*
X009310Y008250D03*
X009310Y008170D03*
X009310Y008090D03*
X009010Y008070D03*
X008630Y007890D03*
X008610Y007870D03*
X008610Y007850D03*
X008590Y007790D03*
X008610Y007710D03*
X008630Y007670D03*
X008650Y007630D03*
X008630Y007610D03*
X008610Y007590D03*
X008610Y007570D03*
X008590Y007530D03*
X008590Y007390D03*
X008410Y007350D03*
X008410Y007330D03*
X008390Y007250D03*
X008390Y007230D03*
X008390Y007210D03*
X008390Y007090D03*
X008390Y006770D03*
X008390Y006750D03*
X008390Y006730D03*
X008390Y006710D03*
X008370Y006590D03*
X008370Y006570D03*
X008370Y006550D03*
X008370Y006530D03*
X008510Y006390D03*
X008530Y006330D03*
X008530Y006310D03*
X008550Y006290D03*
X008630Y006190D03*
X008770Y006310D03*
X008770Y006330D03*
X009150Y006330D03*
X009150Y006310D03*
X009170Y006150D03*
X009170Y006130D03*
X009190Y006090D03*
X009190Y006070D03*
X009210Y006030D03*
X009230Y006010D03*
X008610Y005910D03*
X008610Y005890D03*
X008610Y005870D03*
X008610Y005850D03*
X008610Y005830D03*
X008610Y005810D03*
X008610Y005790D03*
X008610Y005770D03*
X008610Y005750D03*
X008610Y005730D03*
X008590Y005530D03*
X008590Y005510D03*
X008570Y005390D03*
X008570Y005370D03*
X008550Y005290D03*
X008550Y005270D03*
X008530Y005190D03*
X008530Y005170D03*
X008510Y005070D03*
X008510Y005050D03*
X008490Y004970D03*
X008490Y004950D03*
X008470Y004850D03*
X008470Y004830D03*
X008470Y004810D03*
X008470Y004790D03*
X008470Y004730D03*
X008470Y004710D03*
X008470Y004690D03*
X008490Y004670D03*
X008170Y004790D03*
X008170Y004810D03*
X008190Y004870D03*
X008190Y004890D03*
X008150Y004730D03*
X008150Y004710D03*
X008130Y004650D03*
X008130Y004630D03*
X008110Y004570D03*
X008090Y004510D03*
X008090Y004490D03*
X008070Y004450D03*
X008070Y004430D03*
X008050Y004370D03*
X007870Y004270D03*
X007850Y004250D03*
X007830Y004210D03*
X007810Y004130D03*
X007810Y004110D03*
X007810Y004090D03*
X007810Y004070D03*
X007810Y004050D03*
X007830Y003970D03*
X007830Y003950D03*
X007850Y003910D03*
X007870Y003870D03*
X007890Y003850D03*
X007890Y003830D03*
X007910Y003810D03*
X007930Y003790D03*
X008230Y005050D03*
X008230Y005070D03*
X008250Y005150D03*
X008250Y005170D03*
X008250Y005190D03*
X008270Y005250D03*
X008270Y005270D03*
X008270Y005290D03*
X008270Y005310D03*
X008270Y005330D03*
X008290Y005370D03*
X008290Y005390D03*
X008310Y005610D03*
X008310Y005630D03*
X008310Y005650D03*
X008310Y005670D03*
X008310Y005690D03*
X008330Y005890D03*
X008330Y005910D03*
X008330Y005930D03*
X008330Y005950D03*
X008330Y005970D03*
X008350Y006190D03*
X008350Y006210D03*
X008350Y006230D03*
X008350Y006250D03*
X008350Y006270D03*
X009230Y005270D03*
X009230Y005250D03*
X009230Y005230D03*
X009230Y005210D03*
X009230Y005190D03*
X009230Y005170D03*
X009230Y005150D03*
X009230Y005130D03*
X009230Y005110D03*
X009230Y005090D03*
X009230Y005070D03*
X009230Y005050D03*
X009230Y005030D03*
X009230Y004650D03*
X009230Y004630D03*
X009230Y004610D03*
X009230Y004590D03*
X009210Y004510D03*
X009190Y004490D03*
X009050Y004410D03*
X010350Y004470D03*
X010830Y004490D03*
X010850Y004450D03*
X010810Y004630D03*
X010810Y004650D03*
X010810Y004670D03*
X010810Y004690D03*
X010810Y004710D03*
X010810Y004730D03*
X010810Y004750D03*
X010810Y004770D03*
X010810Y004790D03*
X010810Y004810D03*
X010810Y004830D03*
X010810Y004850D03*
X010810Y004870D03*
X010810Y004890D03*
X010810Y004910D03*
X010830Y005310D03*
X010830Y005330D03*
X010830Y005350D03*
X010830Y005370D03*
X010830Y005390D03*
X010830Y005410D03*
X010830Y005430D03*
X010830Y005450D03*
X010830Y005470D03*
X010350Y005430D03*
X010350Y005410D03*
X010350Y005390D03*
X010350Y005370D03*
X010350Y005350D03*
X010350Y005330D03*
X010350Y005310D03*
X010350Y005290D03*
X010350Y005270D03*
X010350Y005250D03*
X011910Y007570D03*
X011910Y007670D03*
X011910Y007690D03*
X011890Y007730D03*
X011890Y007750D03*
X011870Y007770D03*
X011850Y007810D03*
X011830Y007830D03*
X011650Y007950D03*
X011650Y007970D03*
X011630Y007990D03*
X009910Y008130D03*
X009910Y008150D03*
X009890Y008170D03*
X009890Y008190D03*
X009870Y008210D03*
X008610Y008770D03*
X008350Y008590D03*
X008330Y008570D03*
X008310Y008550D03*
X008310Y008530D03*
X008290Y008510D03*
X008290Y008490D03*
X008270Y008470D03*
X008270Y008450D03*
X008250Y008390D03*
X007930Y008230D03*
X007930Y008210D03*
X007910Y008190D03*
X007910Y008170D03*
X007890Y008150D03*
X007870Y008110D03*
X007870Y008090D03*
X007850Y008050D03*
X007850Y008030D03*
X007890Y007790D03*
X008130Y007770D03*
X008130Y007670D03*
X008150Y007630D03*
X008150Y007610D03*
X008170Y007570D03*
X008190Y007530D03*
X007130Y007210D03*
X007110Y007190D03*
X007110Y007170D03*
X007090Y007150D03*
X007070Y007110D03*
X007050Y007070D03*
X007030Y007010D03*
X007030Y006990D03*
X007010Y006930D03*
X007010Y006910D03*
X006990Y006830D03*
X006990Y006810D03*
X006990Y006790D03*
X006970Y006590D03*
X006970Y006570D03*
X006970Y006550D03*
X006970Y006530D03*
X006970Y006510D03*
X006990Y006310D03*
X006990Y006290D03*
X007010Y006210D03*
X007010Y006190D03*
X007030Y006130D03*
X007030Y006110D03*
X007050Y006070D03*
X007050Y006050D03*
X007070Y006010D03*
X007090Y005970D03*
X007110Y005950D03*
X007110Y005930D03*
X007130Y005910D03*
X007150Y005890D03*
X007170Y005870D03*
X007190Y005850D03*
X007210Y005830D03*
X007230Y005810D03*
X007250Y005790D03*
X007270Y005770D03*
X006870Y005530D03*
X006850Y005550D03*
X006830Y005570D03*
X006810Y005590D03*
X006790Y005610D03*
X006770Y005630D03*
X006750Y005670D03*
X006730Y005690D03*
X006710Y005710D03*
X006710Y005730D03*
X006690Y005750D03*
X006670Y005770D03*
X006670Y005790D03*
X006650Y005810D03*
X006650Y005830D03*
X006630Y005850D03*
X006630Y005870D03*
X006610Y005890D03*
X006610Y005910D03*
X006590Y005950D03*
X006590Y005970D03*
X006570Y006010D03*
X006570Y006030D03*
X006550Y006090D03*
X006550Y006110D03*
X006530Y006190D03*
X006530Y006210D03*
X006530Y006230D03*
X006510Y006330D03*
X006510Y006350D03*
X006510Y006370D03*
X006510Y006390D03*
X006510Y006410D03*
X006510Y006430D03*
X006510Y006670D03*
X006510Y006690D03*
X006510Y006710D03*
X006510Y006730D03*
X006510Y006750D03*
X006510Y006770D03*
X006530Y006890D03*
X006530Y006910D03*
X006550Y007010D03*
X006550Y007030D03*
X006570Y007090D03*
X006570Y007110D03*
X006590Y007170D03*
X006590Y007190D03*
X006610Y007230D03*
X006610Y007250D03*
X006630Y007290D03*
X006630Y007310D03*
X006650Y007330D03*
X006650Y007350D03*
X006670Y007390D03*
X006690Y007430D03*
X006710Y007470D03*
X006730Y007510D03*
X006750Y007530D03*
X006750Y007550D03*
X006770Y007570D03*
X006790Y007590D03*
X006790Y007610D03*
X006810Y007630D03*
X006830Y007650D03*
D35*
X006720Y007490D03*
X006700Y007450D03*
X006680Y007410D03*
X006660Y007370D03*
X006620Y007270D03*
X006600Y007210D03*
X006580Y007150D03*
X006580Y007130D03*
X006560Y007070D03*
X006560Y007050D03*
X006540Y006990D03*
X006540Y006970D03*
X006540Y006950D03*
X006540Y006930D03*
X006520Y006870D03*
X006520Y006850D03*
X006520Y006830D03*
X006520Y006810D03*
X006520Y006790D03*
X006500Y006650D03*
X006500Y006630D03*
X006500Y006610D03*
X006500Y006590D03*
X006500Y006570D03*
X006500Y006550D03*
X006500Y006530D03*
X006500Y006510D03*
X006500Y006490D03*
X006500Y006470D03*
X006500Y006450D03*
X006520Y006310D03*
X006520Y006290D03*
X006520Y006270D03*
X006520Y006250D03*
X006540Y006170D03*
X006540Y006150D03*
X006540Y006130D03*
X006560Y006070D03*
X006560Y006050D03*
X006580Y005990D03*
X006600Y005930D03*
X007040Y006090D03*
X007020Y006150D03*
X007020Y006170D03*
X007000Y006230D03*
X007000Y006250D03*
X007000Y006270D03*
X006980Y006330D03*
X006980Y006350D03*
X006980Y006370D03*
X006980Y006390D03*
X006980Y006410D03*
X006980Y006430D03*
X006980Y006450D03*
X006980Y006470D03*
X006980Y006490D03*
X006980Y006610D03*
X006980Y006630D03*
X006980Y006650D03*
X006980Y006670D03*
X006980Y006690D03*
X006980Y006710D03*
X006980Y006730D03*
X006980Y006750D03*
X006980Y006770D03*
X007000Y006850D03*
X007000Y006870D03*
X007000Y006890D03*
X007020Y006950D03*
X007020Y006970D03*
X007040Y007030D03*
X007040Y007050D03*
X007060Y007090D03*
X007080Y007130D03*
X007840Y007890D03*
X007840Y007910D03*
X007840Y007930D03*
X007840Y007950D03*
X007840Y007970D03*
X007840Y007990D03*
X007840Y008010D03*
X007860Y008070D03*
X007880Y008130D03*
X008240Y008330D03*
X008240Y008350D03*
X008240Y008370D03*
X008260Y008410D03*
X008260Y008430D03*
X008140Y007790D03*
X008140Y007650D03*
X008160Y007590D03*
X008180Y007550D03*
X008460Y007470D03*
X008580Y007470D03*
X008580Y007490D03*
X008580Y007510D03*
X008600Y007550D03*
X008580Y007450D03*
X008580Y007430D03*
X008580Y007410D03*
X008400Y007310D03*
X008400Y007290D03*
X008400Y007270D03*
X008380Y007190D03*
X008380Y007170D03*
X008380Y007150D03*
X008380Y007130D03*
X008380Y007110D03*
X008380Y006690D03*
X008380Y006670D03*
X008380Y006650D03*
X008380Y006630D03*
X008380Y006610D03*
X008360Y006410D03*
X008360Y006390D03*
X008360Y006370D03*
X008360Y006350D03*
X008360Y006330D03*
X008360Y006310D03*
X008360Y006290D03*
X008340Y006170D03*
X008340Y006150D03*
X008340Y006130D03*
X008340Y006110D03*
X008340Y006090D03*
X008340Y006070D03*
X008340Y006050D03*
X008340Y006030D03*
X008340Y006010D03*
X008340Y005990D03*
X008320Y005870D03*
X008320Y005850D03*
X008320Y005830D03*
X008320Y005810D03*
X008320Y005790D03*
X008320Y005770D03*
X008320Y005750D03*
X008320Y005730D03*
X008320Y005710D03*
X008300Y005590D03*
X008300Y005570D03*
X008300Y005550D03*
X008300Y005530D03*
X008300Y005510D03*
X008300Y005490D03*
X008280Y005350D03*
X008260Y005230D03*
X008260Y005210D03*
X008240Y005130D03*
X008240Y005110D03*
X008240Y005090D03*
X008220Y005030D03*
X008200Y004930D03*
X008200Y004910D03*
X008180Y004850D03*
X008180Y004830D03*
X008160Y004770D03*
X008160Y004750D03*
X008140Y004690D03*
X008140Y004670D03*
X008120Y004610D03*
X008120Y004590D03*
X008100Y004550D03*
X008100Y004530D03*
X008080Y004470D03*
X008060Y004410D03*
X008060Y004390D03*
X007840Y004230D03*
X007820Y004190D03*
X007820Y004170D03*
X007820Y004150D03*
X007820Y004030D03*
X007820Y004010D03*
X007820Y003990D03*
X007840Y003930D03*
X007860Y003890D03*
X008460Y004750D03*
X008460Y004770D03*
X008480Y004870D03*
X008480Y004890D03*
X008480Y004910D03*
X008480Y004930D03*
X008500Y004990D03*
X008500Y005010D03*
X008500Y005030D03*
X008520Y005090D03*
X008520Y005110D03*
X008520Y005130D03*
X008520Y005150D03*
X008540Y005210D03*
X008540Y005230D03*
X008540Y005250D03*
X008560Y005310D03*
X008560Y005330D03*
X008560Y005350D03*
X008580Y005410D03*
X008580Y005430D03*
X008580Y005450D03*
X008580Y005470D03*
X008580Y005490D03*
X008600Y005550D03*
X008600Y005570D03*
X008600Y005590D03*
X008600Y005610D03*
X008600Y005630D03*
X008600Y005650D03*
X008600Y005670D03*
X008600Y005690D03*
X008600Y005710D03*
X008620Y005930D03*
X008620Y005950D03*
X008620Y005970D03*
X008620Y005990D03*
X008620Y006010D03*
X008620Y006030D03*
X008620Y006050D03*
X008620Y006070D03*
X008620Y006090D03*
X008620Y006110D03*
X008620Y006130D03*
X008620Y006150D03*
X008620Y006170D03*
X008520Y006350D03*
X008520Y006370D03*
X008780Y006350D03*
X009160Y006210D03*
X009160Y006190D03*
X009160Y006170D03*
X009180Y006110D03*
X009200Y006050D03*
X009220Y005910D03*
X009220Y005890D03*
X009220Y005870D03*
X009220Y005850D03*
X009220Y005830D03*
X009220Y005810D03*
X009220Y005790D03*
X009220Y005770D03*
X009220Y005750D03*
X009220Y005730D03*
X009220Y005710D03*
X009220Y005690D03*
X009220Y005670D03*
X009220Y005650D03*
X009220Y005630D03*
X009220Y005610D03*
X009220Y005590D03*
X009220Y005570D03*
X009220Y005550D03*
X009220Y005530D03*
X009220Y005510D03*
X009220Y005490D03*
X009220Y005470D03*
X009220Y005450D03*
X009220Y005430D03*
X009220Y005410D03*
X009220Y005390D03*
X009220Y005370D03*
X009220Y005350D03*
X009220Y005330D03*
X009220Y005310D03*
X009220Y005290D03*
X009240Y005010D03*
X009240Y004990D03*
X009240Y004970D03*
X009240Y004950D03*
X009240Y004930D03*
X009240Y004910D03*
X009240Y004890D03*
X009240Y004870D03*
X009240Y004850D03*
X009240Y004830D03*
X009240Y004810D03*
X009240Y004790D03*
X009240Y004770D03*
X009240Y004750D03*
X009240Y004730D03*
X009240Y004710D03*
X009240Y004690D03*
X009240Y004670D03*
X009220Y004570D03*
X009220Y004550D03*
X009220Y004530D03*
X009620Y004650D03*
X009620Y004670D03*
X009620Y004690D03*
X009620Y004710D03*
X009620Y004730D03*
X009620Y004750D03*
X009620Y004770D03*
X009620Y004790D03*
X009620Y004810D03*
X009620Y004830D03*
X009620Y004850D03*
X009620Y004870D03*
X009620Y004890D03*
X009620Y004910D03*
X009640Y005090D03*
X009640Y005110D03*
X009640Y005130D03*
X009640Y005150D03*
X009640Y005170D03*
X009640Y005190D03*
X009640Y005210D03*
X009640Y005230D03*
X009640Y005250D03*
X009640Y005270D03*
X009640Y005290D03*
X009640Y005310D03*
X009660Y005450D03*
X009660Y005470D03*
X009660Y005490D03*
X009660Y005510D03*
X009660Y005530D03*
X009660Y005550D03*
X009660Y005570D03*
X009660Y005590D03*
X009660Y005610D03*
X009660Y005630D03*
X009660Y005650D03*
X009660Y005670D03*
X009680Y005830D03*
X009680Y005850D03*
X009680Y005870D03*
X009680Y005890D03*
X009680Y005910D03*
X009680Y005930D03*
X009760Y006150D03*
X009780Y006190D03*
X009780Y006210D03*
X009780Y006230D03*
X009780Y006350D03*
X009780Y006370D03*
X009780Y006390D03*
X009760Y006430D03*
X009780Y006910D03*
X009800Y006950D03*
X009800Y006970D03*
X009820Y007030D03*
X009820Y007050D03*
X009820Y007070D03*
X009820Y007090D03*
X009820Y007110D03*
X010260Y007390D03*
X010360Y007090D03*
X010360Y007070D03*
X010360Y007050D03*
X010360Y007030D03*
X010360Y006650D03*
X010360Y006630D03*
X010360Y006610D03*
X010360Y006590D03*
X010360Y006570D03*
X010360Y006550D03*
X010360Y006530D03*
X010360Y006510D03*
X010360Y006490D03*
X010360Y006470D03*
X010360Y006450D03*
X010360Y006430D03*
X010360Y006410D03*
X010360Y006390D03*
X010360Y006370D03*
X010360Y006350D03*
X010340Y006190D03*
X010340Y006170D03*
X010340Y006150D03*
X010340Y006130D03*
X010340Y006110D03*
X010340Y006090D03*
X010340Y006070D03*
X010340Y006050D03*
X010340Y006030D03*
X010340Y006010D03*
X010340Y005990D03*
X010340Y005970D03*
X010340Y005950D03*
X010340Y005930D03*
X010340Y005910D03*
X010340Y005890D03*
X010340Y005870D03*
X010340Y005850D03*
X010340Y005830D03*
X010340Y005810D03*
X010340Y005790D03*
X010340Y005770D03*
X010340Y005750D03*
X010340Y005730D03*
X010340Y005710D03*
X010340Y005690D03*
X010340Y005670D03*
X010340Y005650D03*
X010340Y005630D03*
X010340Y005610D03*
X010340Y005590D03*
X010340Y005570D03*
X010340Y005550D03*
X010340Y005530D03*
X010340Y005510D03*
X010340Y005490D03*
X010340Y005470D03*
X010340Y005450D03*
X010360Y005230D03*
X010360Y005210D03*
X010360Y005190D03*
X010360Y005170D03*
X010360Y005150D03*
X010360Y005130D03*
X010360Y005110D03*
X010360Y005090D03*
X010360Y005070D03*
X010360Y005050D03*
X010360Y005030D03*
X010360Y005010D03*
X010360Y004990D03*
X010360Y004970D03*
X010360Y004950D03*
X010360Y004930D03*
X010360Y004910D03*
X010360Y004890D03*
X010360Y004870D03*
X010360Y004850D03*
X010360Y004830D03*
X010360Y004810D03*
X010360Y004790D03*
X010360Y004770D03*
X010360Y004750D03*
X010360Y004730D03*
X010360Y004710D03*
X010360Y004690D03*
X010360Y004670D03*
X010360Y004650D03*
X010360Y004630D03*
X010360Y004610D03*
X010360Y004590D03*
X010360Y004570D03*
X010360Y004550D03*
X010360Y004530D03*
X010360Y004510D03*
X010360Y004490D03*
X010820Y004510D03*
X010820Y004530D03*
X010820Y004550D03*
X010820Y004570D03*
X010820Y004590D03*
X010820Y004610D03*
X010840Y004470D03*
X010820Y004930D03*
X010820Y004950D03*
X010820Y004970D03*
X010820Y004990D03*
X010820Y005010D03*
X010820Y005030D03*
X010820Y005050D03*
X010820Y005070D03*
X010820Y005090D03*
X010820Y005110D03*
X010820Y005130D03*
X010820Y005150D03*
X010820Y005170D03*
X010820Y005190D03*
X010820Y005210D03*
X010820Y005230D03*
X010820Y005250D03*
X010820Y005270D03*
X010820Y005290D03*
X010840Y005490D03*
X010840Y005510D03*
X010840Y005530D03*
X010840Y005550D03*
X010840Y005570D03*
X010840Y005590D03*
X010840Y005610D03*
X010840Y005630D03*
X010840Y005650D03*
X010840Y005670D03*
X010840Y005690D03*
X010840Y005710D03*
X010840Y005730D03*
X010840Y005750D03*
X010840Y005770D03*
X010840Y005790D03*
X010840Y005810D03*
X010840Y005830D03*
X010840Y005850D03*
X010840Y005870D03*
X010840Y005890D03*
X010840Y005910D03*
X010840Y005930D03*
X010840Y005950D03*
X010840Y005970D03*
X010840Y005990D03*
X010840Y006010D03*
X010840Y006030D03*
X010840Y006050D03*
X010840Y006070D03*
X010840Y006090D03*
X010840Y006110D03*
X010840Y006130D03*
X010840Y006150D03*
X010840Y006170D03*
X010840Y006190D03*
X010820Y006290D03*
X010820Y006310D03*
X010820Y006330D03*
X010820Y006350D03*
X010820Y006370D03*
X010820Y006390D03*
X010820Y006410D03*
X010820Y006430D03*
X010800Y006530D03*
X010800Y006550D03*
X010800Y006570D03*
X010800Y006590D03*
X010800Y006610D03*
X010800Y006630D03*
X010800Y006650D03*
X010800Y006670D03*
X010780Y006770D03*
X010780Y006790D03*
X010780Y006810D03*
X010780Y006830D03*
X010780Y006850D03*
X010780Y006870D03*
X010780Y006890D03*
X010780Y006910D03*
X010780Y006930D03*
X010820Y007230D03*
X011220Y007110D03*
X011220Y007090D03*
X011320Y006970D03*
X011460Y006910D03*
X011460Y006890D03*
X011440Y006830D03*
X011420Y006770D03*
X011400Y006710D03*
X011400Y006690D03*
X011400Y006670D03*
X011380Y006510D03*
X011380Y006490D03*
X011380Y006470D03*
X011380Y006450D03*
X011440Y006210D03*
X011440Y006190D03*
X011440Y006170D03*
X011440Y006150D03*
X011440Y006130D03*
X011440Y006110D03*
X011440Y006090D03*
X011440Y006070D03*
X011440Y006050D03*
X011440Y006030D03*
X011520Y006110D03*
X011520Y006130D03*
X011520Y006150D03*
X011520Y006170D03*
X011580Y006010D03*
X011580Y005990D03*
X011580Y005970D03*
X011600Y005890D03*
X011620Y005830D03*
X011620Y005810D03*
X011640Y005730D03*
X011640Y005710D03*
X011640Y005690D03*
X011640Y005570D03*
X011620Y005530D03*
X011620Y005510D03*
X011600Y005470D03*
X011600Y005450D03*
X011620Y005390D03*
X011620Y005370D03*
X011700Y005270D03*
X011700Y005250D03*
X011720Y005210D03*
X011740Y005110D03*
X011740Y005090D03*
X011740Y005070D03*
X011740Y005050D03*
X011760Y004990D03*
X011760Y004970D03*
X011760Y004950D03*
X011780Y004890D03*
X011780Y004870D03*
X011800Y004810D03*
X011800Y004790D03*
X011820Y004730D03*
X011820Y004710D03*
X011840Y004650D03*
X011840Y004630D03*
X011860Y004570D03*
X011860Y004550D03*
X011880Y004490D03*
X011880Y004470D03*
X011880Y004450D03*
X011900Y004390D03*
X011900Y004370D03*
X011900Y004350D03*
X011900Y004330D03*
X011900Y004310D03*
X012200Y004050D03*
X012220Y004010D03*
X012220Y003990D03*
X012240Y003910D03*
X012240Y003890D03*
X012240Y003870D03*
X012240Y003850D03*
X012220Y003790D03*
X012220Y003770D03*
X011520Y004570D03*
X011520Y004690D03*
X011520Y004710D03*
X011520Y004730D03*
X011520Y004750D03*
X011500Y004810D03*
X011500Y004830D03*
X011500Y004850D03*
X011500Y004870D03*
X011480Y004930D03*
X011480Y004950D03*
X011480Y004970D03*
X011460Y005030D03*
X011460Y005050D03*
X011460Y005070D03*
X011440Y005130D03*
X011440Y005150D03*
X011440Y005170D03*
X011420Y005250D03*
X011420Y005270D03*
X011420Y005290D03*
X011420Y005310D03*
X011420Y005330D03*
X011420Y005570D03*
X011420Y005590D03*
X011420Y005610D03*
X011420Y005630D03*
X011420Y005650D03*
X011420Y005670D03*
X011420Y005690D03*
X011420Y005710D03*
X011420Y005730D03*
X011420Y005750D03*
X011420Y005770D03*
X011420Y005790D03*
X011420Y005810D03*
X011420Y005830D03*
X011780Y005910D03*
X011780Y005930D03*
X011780Y005950D03*
X011760Y006010D03*
X011760Y006030D03*
X011760Y006050D03*
X011760Y006070D03*
X011760Y006090D03*
X011760Y006110D03*
X011760Y006130D03*
X011760Y006150D03*
X011800Y005830D03*
X011800Y005810D03*
X011820Y005770D03*
X011820Y005750D03*
X011820Y005730D03*
X011840Y005630D03*
X011840Y005610D03*
X011840Y005590D03*
X011840Y005510D03*
X011960Y005330D03*
X011960Y005310D03*
X011960Y005290D03*
X011960Y005270D03*
X011960Y005250D03*
X011940Y005210D03*
X012140Y006550D03*
X012160Y006590D03*
X012160Y006610D03*
X012180Y006670D03*
X012180Y006690D03*
X012180Y006710D03*
X012180Y006730D03*
X012180Y006750D03*
X012180Y006850D03*
X012180Y006870D03*
X012180Y006890D03*
X012260Y007070D03*
X012260Y007090D03*
X012280Y007130D03*
X012280Y007150D03*
X012280Y007170D03*
X012280Y007190D03*
X012280Y007210D03*
X012280Y007230D03*
X012280Y007250D03*
X012280Y007270D03*
X012260Y007330D03*
X012320Y007470D03*
X012340Y007510D03*
X012340Y007530D03*
X012340Y007550D03*
X012360Y007650D03*
X012360Y007670D03*
X012340Y007770D03*
X012340Y007790D03*
X012340Y007810D03*
X012340Y007830D03*
X012320Y007870D03*
X012300Y007930D03*
X012360Y008090D03*
X012380Y008170D03*
X012380Y008190D03*
X012380Y008210D03*
X012380Y008230D03*
X012380Y008250D03*
X012360Y008330D03*
X012340Y008390D03*
X012060Y008610D03*
X011900Y007710D03*
X011920Y007650D03*
X011920Y007630D03*
X011920Y007610D03*
X011920Y007590D03*
X010880Y008270D03*
X010860Y008370D03*
X010440Y008410D03*
X010440Y008430D03*
X010440Y008450D03*
X010440Y008470D03*
X009960Y009050D03*
X009920Y008110D03*
X009300Y008190D03*
X009300Y008210D03*
X009300Y008230D03*
X009000Y008050D03*
X009000Y008030D03*
X008600Y007830D03*
X008600Y007810D03*
X008600Y007770D03*
X008600Y007750D03*
X008600Y007730D03*
X008620Y007690D03*
X008640Y007650D03*
X009200Y008730D03*
X009220Y008850D03*
X007060Y006030D03*
X007080Y005990D03*
X009640Y004530D03*
X009640Y004510D03*
D36*
X010160Y003810D03*
D37*
X010190Y003830D03*
D38*
X010190Y003850D03*
D39*
X010580Y003870D03*
X007480Y007870D03*
D40*
X010790Y003890D03*
D41*
X011040Y003930D03*
X008080Y005470D03*
X007440Y007910D03*
X008900Y008850D03*
D42*
X009530Y008350D03*
X009970Y007150D03*
X010030Y004350D03*
X011330Y003990D03*
D43*
X011090Y004410D03*
X010010Y004370D03*
X007570Y007370D03*
D44*
X009840Y009110D03*
X010020Y004390D03*
D45*
X009000Y004470D03*
X011220Y008970D03*
D46*
X011740Y008770D03*
X010200Y009150D03*
X009180Y008130D03*
X008100Y008290D03*
X007820Y005510D03*
X008080Y005010D03*
D47*
X009150Y006350D03*
X007590Y007430D03*
X008230Y008230D03*
X010450Y008390D03*
X010750Y008710D03*
X011610Y008690D03*
X011910Y007550D03*
X011210Y007250D03*
X010810Y007250D03*
X011830Y005110D03*
D48*
X011220Y008090D03*
X008640Y007310D03*
D49*
X007440Y007890D03*
M02*
