G75*
%MOIN*%
%OFA0B0*%
%FSLAX24Y24*%
%IPPOS*%
%LPD*%
%AMOC8*
5,1,8,0,0,1.08239X$1,22.5*
%
%ADD10C,0.0050*%
D10*
X000500Y000200D02*
X000500Y039200D01*
X027600Y039200D01*
X027600Y038300D01*
X027602Y038261D01*
X027608Y038222D01*
X027617Y038184D01*
X027630Y038147D01*
X027647Y038111D01*
X027667Y038078D01*
X027691Y038046D01*
X027717Y038017D01*
X027746Y037991D01*
X027778Y037967D01*
X027811Y037947D01*
X027847Y037930D01*
X027884Y037917D01*
X027922Y037908D01*
X027961Y037902D01*
X028000Y037900D01*
X028039Y037902D01*
X028078Y037908D01*
X028116Y037917D01*
X028153Y037930D01*
X028189Y037947D01*
X028222Y037967D01*
X028254Y037991D01*
X028283Y038017D01*
X028309Y038046D01*
X028333Y038078D01*
X028353Y038111D01*
X028370Y038147D01*
X028383Y038184D01*
X028392Y038222D01*
X028398Y038261D01*
X028400Y038300D01*
X028400Y039200D01*
X031000Y039200D01*
X031000Y000200D01*
X028400Y000200D01*
X028400Y001200D01*
X028398Y001239D01*
X028392Y001278D01*
X028383Y001316D01*
X028370Y001353D01*
X028353Y001389D01*
X028333Y001422D01*
X028309Y001454D01*
X028283Y001483D01*
X028254Y001509D01*
X028222Y001533D01*
X028189Y001553D01*
X028153Y001570D01*
X028116Y001583D01*
X028078Y001592D01*
X028039Y001598D01*
X028000Y001600D01*
X027961Y001598D01*
X027922Y001592D01*
X027884Y001583D01*
X027847Y001570D01*
X027811Y001553D01*
X027778Y001533D01*
X027746Y001509D01*
X027717Y001483D01*
X027691Y001454D01*
X027667Y001422D01*
X027647Y001389D01*
X027630Y001353D01*
X027617Y001316D01*
X027608Y001278D01*
X027602Y001239D01*
X027600Y001200D01*
X027600Y000200D01*
X000500Y000200D01*
M02*
