%
M48
M72
T01C0.0197
T02C0.0236
T03C0.0315
T04C0.0400
T05C0.0472
%
T01
X24070Y6590
X25720Y5540
T02
X1220Y1000
X7005Y10255
X6990Y13065
X7935Y13140
X6065Y13775
X7000Y16980
X8815Y18290
X9210Y16765
X11160Y15595
X14970Y17625
X16355Y18020
X16840Y16575
X20715Y19520
X21980Y21700
X22370Y22375
X21470Y22735
X21335Y23365
X21975Y24640
X22235Y25165
X23550Y27165
X24150Y26340
X24785Y25600
X24735Y24695
X24800Y23765
X24770Y22845
X24805Y22150
X24730Y21445
X24150Y19780
X24290Y15995
X22835Y14490
X24170Y13635
X20890Y15385
X18120Y21930
X17230Y23610
X17860Y25090
X18470Y26090
X18890Y25010
X19370Y25390
X17440Y26940
X16605Y26920
X16220Y26340
X16320Y25140
X14770Y25165
X13960Y25200
X12945Y26425
X11295Y24610
X9170Y22435
X8525Y21895
X6945Y25725
X8200Y26275
X6665Y28505
X6250Y29470
X6145Y30490
X6480Y31025
X8040Y29480
X8630Y29035
X8235Y31425
X6270Y34440
X6270Y35040
X6440Y37830
X7485Y37865
X11360Y37740
X12160Y37750
X12140Y36260
X11340Y36260
X13970Y35940
X13970Y35240
X14770Y35240
X14770Y35940
X14770Y36740
X15570Y36740
X15570Y35940
X15470Y35240
X16470Y35440
X16470Y36240
X16470Y37040
X16470Y37840
X17270Y37840
X17270Y37040
X17270Y36240
X17270Y35440
X18070Y35440
X18070Y36240
X18070Y37040
X18070Y37840
X18870Y37840
X18870Y37040
X18870Y36240
X18870Y35440
X19670Y35440
X19670Y36240
X19670Y37040
X19670Y37840
X20470Y37840
X20470Y37040
X21170Y37040
X21170Y37840
X21970Y37840
X21970Y37040
X21970Y36240
X21970Y35440
X21170Y35440
X20470Y35440
X20470Y36240
X21170Y36240
X20560Y33665
X18845Y31835
X18705Y30590
X17765Y30430
X16805Y32325
X17265Y33135
X17850Y33545
X15980Y32320
X15620Y30445
X16040Y28165
X16675Y28150
X14570Y27430
X13550Y32435
X13970Y36740
X14170Y37840
X14770Y37840
X15470Y37840
X21630Y30070
X23475Y32065
X25870Y33000
X27540Y33270
X26000Y29895
X25720Y27895
X27935Y29415
X30195Y25600
X30170Y24695
X30250Y23730
X30165Y22845
X30220Y21820
X30180Y20950
X30240Y19900
X27910Y17780
X27380Y17430
X30030Y12930
X29790Y8385
X28570Y6140
X28620Y5140
X28580Y2390
X30350Y860
X26620Y1940
X25720Y4790
X24770Y4940
X23670Y3990
X26320Y7190
X14900Y8565
X14825Y21810
X19690Y28575
X21300Y27450
X23760Y37360
X30170Y38470
T03
X29670Y35074
X29670Y33106
X23553Y17191
X22766Y17191
X21979Y17191
X21191Y17191
X20404Y17191
X19616Y17191
X18829Y17191
X18041Y17191
X17254Y17191
X16467Y17191
X16467Y8529
X17254Y8529
X18041Y8529
X18829Y8529
X19616Y8529
X20404Y8529
X21191Y8529
X21979Y8529
X22766Y8529
X23553Y8529
X29136Y15133
X29136Y15920
X29136Y16707
X29924Y16707
X29924Y15920
X29924Y15133
T04
X29560Y6660
X29460Y5660
X29560Y4660
X29460Y3660
X11080Y26770
X11080Y27870
X11050Y29120
X11050Y30220
X11030Y31490
X11030Y32590
X29670Y31770
X29770Y30770
X29670Y29770
X29770Y28770
X29670Y27770
T05
X28686Y32712
X28686Y35468
X29530Y17731
X29530Y14109
M30
