G75*
%MOIN*%
%OFA0B0*%
%FSLAX24Y24*%
%IPPOS*%
%LPD*%
%AMOC8*
5,1,8,0,0,1.08239X$1,22.5*
%
%ADD10R,0.0118X0.0059*%
%ADD11R,0.0118X0.0118*%
%ADD12C,0.0100*%
%ADD13C,0.0320*%
%ADD14R,0.0079X0.0079*%
%ADD15R,0.0118X0.0059*%
%ADD16R,0.0118X0.0118*%
%ADD17C,0.0240*%
%ADD18R,0.0070X0.0003*%
%ADD19R,0.0065X0.0003*%
%ADD20R,0.0105X0.0003*%
%ADD21R,0.0095X0.0003*%
%ADD22R,0.0133X0.0003*%
%ADD23R,0.0118X0.0003*%
%ADD24R,0.0150X0.0003*%
%ADD25R,0.0138X0.0003*%
%ADD26R,0.0170X0.0003*%
%ADD27R,0.0153X0.0003*%
%ADD28R,0.0123X0.0003*%
%ADD29R,0.0125X0.0003*%
%ADD30R,0.0127X0.0003*%
%ADD31R,0.0182X0.0003*%
%ADD32R,0.0115X0.0003*%
%ADD33R,0.0168X0.0003*%
%ADD34R,0.0080X0.0003*%
%ADD35R,0.0430X0.0003*%
%ADD36R,0.0140X0.0003*%
%ADD37R,0.0198X0.0003*%
%ADD38R,0.0180X0.0003*%
%ADD39R,0.0077X0.0003*%
%ADD40R,0.0143X0.0003*%
%ADD41R,0.0210X0.0003*%
%ADD42R,0.0193X0.0003*%
%ADD43R,0.0145X0.0003*%
%ADD44R,0.0222X0.0003*%
%ADD45R,0.0203X0.0003*%
%ADD46R,0.0233X0.0003*%
%ADD47R,0.0213X0.0003*%
%ADD48R,0.0147X0.0003*%
%ADD49R,0.0120X0.0003*%
%ADD50R,0.0243X0.0003*%
%ADD51R,0.0083X0.0003*%
%ADD52R,0.0253X0.0003*%
%ADD53R,0.0230X0.0003*%
%ADD54R,0.0262X0.0003*%
%ADD55R,0.0135X0.0003*%
%ADD56R,0.0240X0.0003*%
%ADD57R,0.0270X0.0003*%
%ADD58R,0.0248X0.0003*%
%ADD59R,0.0155X0.0003*%
%ADD60R,0.0278X0.0003*%
%ADD61R,0.0255X0.0003*%
%ADD62R,0.0288X0.0003*%
%ADD63R,0.0085X0.0003*%
%ADD64R,0.0295X0.0003*%
%ADD65R,0.0158X0.0003*%
%ADD66R,0.0302X0.0003*%
%ADD67R,0.0275X0.0003*%
%ADD68R,0.0308X0.0003*%
%ADD69R,0.0283X0.0003*%
%ADD70R,0.0160X0.0003*%
%ADD71R,0.0315X0.0003*%
%ADD72R,0.0163X0.0003*%
%ADD73R,0.0320X0.0003*%
%ADD74R,0.0293X0.0003*%
%ADD75R,0.0328X0.0003*%
%ADD76R,0.0300X0.0003*%
%ADD77R,0.0088X0.0003*%
%ADD78R,0.0165X0.0003*%
%ADD79R,0.0335X0.0003*%
%ADD80R,0.0305X0.0003*%
%ADD81R,0.0340X0.0003*%
%ADD82R,0.0310X0.0003*%
%ADD83R,0.0345X0.0003*%
%ADD84R,0.0318X0.0003*%
%ADD85R,0.0350X0.0003*%
%ADD86R,0.0323X0.0003*%
%ADD87R,0.0173X0.0003*%
%ADD88R,0.0355X0.0003*%
%ADD89R,0.0325X0.0003*%
%ADD90R,0.0090X0.0003*%
%ADD91R,0.0362X0.0003*%
%ADD92R,0.0330X0.0003*%
%ADD93R,0.0175X0.0003*%
%ADD94R,0.0367X0.0003*%
%ADD95R,0.0177X0.0003*%
%ADD96R,0.0370X0.0003*%
%ADD97R,0.0343X0.0003*%
%ADD98R,0.0375X0.0003*%
%ADD99R,0.0380X0.0003*%
%ADD100R,0.0385X0.0003*%
%ADD101R,0.0445X0.0003*%
%ADD102R,0.0390X0.0003*%
%ADD103R,0.0447X0.0003*%
%ADD104R,0.0393X0.0003*%
%ADD105R,0.0450X0.0003*%
%ADD106R,0.0185X0.0003*%
%ADD107R,0.0398X0.0003*%
%ADD108R,0.0452X0.0003*%
%ADD109R,0.0400X0.0003*%
%ADD110R,0.0187X0.0003*%
%ADD111R,0.0408X0.0003*%
%ADD112R,0.0457X0.0003*%
%ADD113R,0.0190X0.0003*%
%ADD114R,0.0410X0.0003*%
%ADD115R,0.0413X0.0003*%
%ADD116R,0.0460X0.0003*%
%ADD117R,0.0418X0.0003*%
%ADD118R,0.0462X0.0003*%
%ADD119R,0.0195X0.0003*%
%ADD120R,0.0420X0.0003*%
%ADD121R,0.0423X0.0003*%
%ADD122R,0.0465X0.0003*%
%ADD123R,0.0428X0.0003*%
%ADD124R,0.0468X0.0003*%
%ADD125R,0.0200X0.0003*%
%ADD126R,0.0217X0.0003*%
%ADD127R,0.0205X0.0003*%
%ADD128R,0.0208X0.0003*%
%ADD129R,0.0215X0.0003*%
%ADD130R,0.0220X0.0003*%
%ADD131R,0.0225X0.0003*%
%ADD132R,0.0227X0.0003*%
%ADD133R,0.0130X0.0003*%
%ADD134R,0.0235X0.0003*%
%ADD135R,0.0238X0.0003*%
%ADD136R,0.0245X0.0003*%
%ADD137R,0.0250X0.0003*%
%ADD138R,0.0113X0.0003*%
%ADD139R,0.0440X0.0003*%
%ADD140R,0.0435X0.0003*%
%ADD141R,0.0432X0.0003*%
%ADD142R,0.0425X0.0003*%
%ADD143R,0.0415X0.0003*%
%ADD144R,0.0405X0.0003*%
%ADD145R,0.0395X0.0003*%
%ADD146R,0.0382X0.0003*%
%ADD147R,0.0403X0.0003*%
%ADD148R,0.0437X0.0003*%
%ADD149R,0.0455X0.0003*%
%ADD150R,0.0442X0.0003*%
%ADD151R,0.0388X0.0003*%
%ADD152R,0.0377X0.0003*%
%ADD153R,0.0372X0.0003*%
%ADD154R,0.0365X0.0003*%
%ADD155R,0.0360X0.0003*%
%ADD156R,0.0357X0.0003*%
%ADD157R,0.0352X0.0003*%
%ADD158R,0.0348X0.0003*%
%ADD159R,0.0338X0.0003*%
%ADD160R,0.0333X0.0003*%
%ADD161R,0.0313X0.0003*%
%ADD162R,0.0297X0.0003*%
%ADD163R,0.0290X0.0003*%
%ADD164R,0.0273X0.0003*%
%ADD165R,0.0267X0.0003*%
%ADD166R,0.0257X0.0003*%
%ADD167R,0.0057X0.0003*%
%ADD168R,0.0055X0.0003*%
%ADD169R,0.0005X0.0003*%
%ADD170R,0.0300X0.0340*%
D10*
X025049Y034594D03*
X025049Y035066D03*
X029669Y036264D03*
X029669Y036736D03*
X029269Y026676D03*
X029269Y026204D03*
X029159Y023946D03*
X029159Y023474D03*
X029169Y023106D03*
X029169Y022634D03*
X029209Y022036D03*
X029209Y021564D03*
X029179Y021176D03*
X029179Y020704D03*
X029219Y020206D03*
X029219Y019734D03*
X029239Y019296D03*
X029239Y018824D03*
D11*
X029239Y019060D03*
X029219Y019970D03*
X029179Y020940D03*
X029209Y021800D03*
X029169Y022870D03*
X029159Y023710D03*
X029269Y026440D03*
X025049Y034830D03*
X029669Y036500D03*
D12*
X000500Y039200D02*
X000500Y000200D01*
X027600Y000200D01*
X027600Y001200D01*
X027602Y001239D01*
X027608Y001278D01*
X027617Y001316D01*
X027630Y001353D01*
X027647Y001389D01*
X027667Y001422D01*
X027691Y001454D01*
X027717Y001483D01*
X027746Y001509D01*
X027778Y001533D01*
X027811Y001553D01*
X027847Y001570D01*
X027884Y001583D01*
X027922Y001592D01*
X027961Y001598D01*
X028000Y001600D01*
X028039Y001598D01*
X028078Y001592D01*
X028116Y001583D01*
X028153Y001570D01*
X028189Y001553D01*
X028222Y001533D01*
X028254Y001509D01*
X028283Y001483D01*
X028309Y001454D01*
X028333Y001422D01*
X028353Y001389D01*
X028370Y001353D01*
X028383Y001316D01*
X028392Y001278D01*
X028398Y001239D01*
X028400Y001200D01*
X028400Y000200D01*
X031000Y000200D01*
X031000Y039200D01*
X028400Y039200D01*
X028400Y038300D01*
X028398Y038261D01*
X028392Y038222D01*
X028383Y038184D01*
X028370Y038147D01*
X028353Y038111D01*
X028333Y038078D01*
X028309Y038046D01*
X028283Y038017D01*
X028254Y037991D01*
X028222Y037967D01*
X028189Y037947D01*
X028153Y037930D01*
X028116Y037917D01*
X028078Y037908D01*
X028039Y037902D01*
X028000Y037900D01*
X027961Y037902D01*
X027922Y037908D01*
X027884Y037917D01*
X027847Y037930D01*
X027811Y037947D01*
X027778Y037967D01*
X027746Y037991D01*
X027717Y038017D01*
X027691Y038046D01*
X027667Y038078D01*
X027647Y038111D01*
X027630Y038147D01*
X027617Y038184D01*
X027608Y038222D01*
X027602Y038261D01*
X027600Y038300D01*
X027600Y039200D01*
X000500Y039200D01*
X006551Y037434D02*
X006551Y035466D01*
X007733Y035466D01*
X008137Y037000D02*
X008270Y037000D01*
X008337Y037067D01*
X008530Y037067D02*
X008530Y037000D01*
X008530Y037067D02*
X008797Y037334D01*
X008797Y037400D01*
X008530Y037400D01*
X008337Y037334D02*
X008270Y037400D01*
X008137Y037400D01*
X008070Y037334D01*
X008070Y037067D01*
X008137Y037000D01*
X007733Y037434D02*
X006551Y037434D01*
X009307Y037434D02*
X010095Y037434D01*
X010489Y037041D01*
X010489Y035859D01*
X010095Y035466D01*
X009307Y035466D01*
X009216Y033600D02*
X009216Y033267D01*
X009149Y033200D01*
X009016Y033200D01*
X008949Y033267D01*
X008949Y033600D01*
X009410Y033534D02*
X009476Y033600D01*
X009610Y033600D01*
X009677Y033534D01*
X009677Y033467D01*
X009610Y033400D01*
X009677Y033333D01*
X009677Y033267D01*
X009610Y033200D01*
X009476Y033200D01*
X009410Y033267D01*
X009543Y033400D02*
X009610Y033400D01*
X008970Y033000D02*
X007550Y033000D01*
X008593Y031360D02*
X008595Y031375D01*
X008601Y031388D01*
X008610Y031400D01*
X008621Y031409D01*
X008635Y031415D01*
X008650Y031417D01*
X008665Y031415D01*
X008678Y031409D01*
X008690Y031400D01*
X008699Y031389D01*
X008705Y031375D01*
X008707Y031360D01*
X008705Y031345D01*
X008699Y031332D01*
X008690Y031320D01*
X008679Y031311D01*
X008665Y031305D01*
X008650Y031303D01*
X008635Y031305D01*
X008622Y031311D01*
X008610Y031320D01*
X008601Y031331D01*
X008595Y031345D01*
X008593Y031360D01*
X008970Y031140D02*
X007550Y031140D01*
X007760Y030740D02*
X009000Y030740D01*
X009010Y030740D02*
X009010Y028740D01*
X009000Y028740D02*
X008580Y028740D01*
X008180Y028740D01*
X007760Y028740D01*
X007737Y028742D01*
X007714Y028747D01*
X007692Y028756D01*
X007672Y028769D01*
X007654Y028784D01*
X007639Y028802D01*
X007626Y028822D01*
X007617Y028844D01*
X007612Y028867D01*
X007610Y028890D01*
X007610Y030590D01*
X007612Y030613D01*
X007617Y030636D01*
X007626Y030658D01*
X007639Y030678D01*
X007654Y030696D01*
X007672Y030711D01*
X007692Y030724D01*
X007714Y030733D01*
X007737Y030738D01*
X007760Y030740D01*
X009000Y030740D02*
X009023Y030738D01*
X009046Y030733D01*
X009068Y030724D01*
X009088Y030711D01*
X009106Y030696D01*
X009121Y030678D01*
X009134Y030658D01*
X009143Y030636D01*
X009148Y030613D01*
X009150Y030590D01*
X009150Y028890D01*
X009148Y028867D01*
X009143Y028844D01*
X009134Y028822D01*
X009121Y028802D01*
X009106Y028784D01*
X009088Y028769D01*
X009068Y028756D01*
X009046Y028747D01*
X009023Y028742D01*
X009000Y028740D01*
X009359Y028720D02*
X009359Y028387D01*
X009426Y028320D01*
X009559Y028320D01*
X009626Y028387D01*
X009626Y028720D01*
X009820Y028654D02*
X009886Y028720D01*
X010020Y028720D01*
X010087Y028654D01*
X010087Y028587D01*
X009820Y028320D01*
X010087Y028320D01*
X010580Y028210D02*
X010690Y028320D01*
X011080Y028320D01*
X011470Y028320D01*
X011580Y028210D01*
X011440Y028670D02*
X011050Y028670D01*
X010660Y028670D01*
X010550Y028780D01*
X011050Y028770D02*
X011050Y028670D01*
X011080Y028320D02*
X011080Y028220D01*
X011440Y028670D02*
X011550Y028780D01*
X011960Y028947D02*
X011960Y029081D01*
X011960Y029014D02*
X012293Y029014D01*
X012360Y028947D01*
X012360Y028881D01*
X012293Y028814D01*
X012227Y029274D02*
X012227Y029474D01*
X012160Y029541D01*
X012026Y029541D01*
X011960Y029474D01*
X011960Y029274D01*
X012360Y029274D01*
X012360Y029735D02*
X012093Y030001D01*
X012026Y030001D01*
X011960Y029935D01*
X011960Y029801D01*
X012026Y029735D01*
X012360Y029735D02*
X012360Y030001D01*
X013310Y030167D02*
X013377Y030234D01*
X013377Y030367D01*
X013510Y030367D02*
X013510Y030234D01*
X013443Y030167D01*
X013694Y030100D02*
X013827Y030100D01*
X013694Y029900D02*
X013961Y029900D01*
X014154Y029967D02*
X014221Y029900D01*
X014354Y029900D01*
X014421Y029967D01*
X014614Y029967D02*
X014681Y029900D01*
X014815Y029900D01*
X014881Y029967D01*
X014881Y030300D01*
X015075Y030167D02*
X015142Y030234D01*
X015142Y030367D01*
X015275Y030367D02*
X015275Y030234D01*
X015208Y030167D01*
X015135Y029494D02*
X015135Y029227D01*
X015202Y029160D01*
X015375Y029160D02*
X015375Y029427D01*
X015508Y029427D02*
X015375Y029293D01*
X015508Y029427D02*
X015575Y029427D01*
X015759Y029360D02*
X015759Y029227D01*
X015825Y029160D01*
X015959Y029160D01*
X016026Y029227D01*
X016026Y029360D01*
X015959Y029427D01*
X015825Y029427D01*
X015759Y029360D01*
X016219Y029427D02*
X016419Y029427D01*
X016486Y029360D01*
X016486Y029160D01*
X016679Y029160D02*
X016813Y029160D01*
X016746Y029160D02*
X016746Y029427D01*
X016679Y029427D01*
X016746Y029560D02*
X016746Y029627D01*
X016986Y029360D02*
X016986Y029227D01*
X017053Y029160D01*
X017253Y029160D01*
X017253Y029427D02*
X017053Y029427D01*
X016986Y029360D01*
X016219Y029427D02*
X016219Y029160D01*
X015202Y029427D02*
X015068Y029427D01*
X014875Y029427D02*
X014674Y029427D01*
X014608Y029360D01*
X014608Y029227D01*
X014674Y029160D01*
X014875Y029160D01*
X014414Y029293D02*
X014147Y029293D01*
X014147Y029227D02*
X014147Y029360D01*
X014214Y029427D01*
X014347Y029427D01*
X014414Y029360D01*
X014414Y029293D01*
X014347Y029160D02*
X014214Y029160D01*
X014147Y029227D01*
X013974Y029160D02*
X013840Y029160D01*
X013907Y029160D02*
X013907Y029560D01*
X013840Y029560D01*
X013647Y029560D02*
X013380Y029560D01*
X013380Y029160D01*
X013647Y029160D01*
X013513Y029360D02*
X013380Y029360D01*
X013694Y029900D02*
X013694Y030300D01*
X013961Y030300D01*
X014154Y030234D02*
X014154Y029967D01*
X014154Y030234D02*
X014221Y030300D01*
X014354Y030300D01*
X014421Y030234D01*
X014614Y030300D02*
X014614Y029967D01*
X012405Y031321D02*
X012405Y031387D01*
X012338Y031454D01*
X012005Y031454D01*
X012005Y031387D02*
X012005Y031521D01*
X012005Y031714D02*
X012005Y031914D01*
X012071Y031981D01*
X012205Y031981D01*
X012272Y031914D01*
X012272Y031714D01*
X012405Y031714D02*
X012005Y031714D01*
X012071Y032175D02*
X012005Y032241D01*
X012005Y032375D01*
X012071Y032441D01*
X012138Y032441D01*
X012205Y032375D01*
X012272Y032441D01*
X012338Y032441D01*
X012405Y032375D01*
X012405Y032241D01*
X012338Y032175D01*
X012205Y032308D02*
X012205Y032375D01*
X011530Y032930D02*
X011420Y033040D01*
X011030Y033040D01*
X010640Y033040D01*
X010530Y032930D01*
X011030Y032940D02*
X011030Y033040D01*
X011030Y032190D02*
X011030Y031890D01*
X011530Y031150D02*
X011420Y031040D01*
X011030Y031040D01*
X010640Y031040D01*
X010530Y031150D01*
X010660Y030670D02*
X010550Y030560D01*
X010660Y030670D02*
X011050Y030670D01*
X011440Y030670D01*
X011550Y030560D01*
X011050Y030570D02*
X011050Y030670D01*
X011030Y031040D02*
X011030Y031140D01*
X011050Y029820D02*
X011050Y029520D01*
X012338Y031254D02*
X012405Y031321D01*
X012886Y033436D02*
X013019Y033436D01*
X013086Y033503D01*
X013279Y033436D02*
X013546Y033436D01*
X013413Y033436D02*
X013413Y033837D01*
X013279Y033703D01*
X013086Y033770D02*
X013019Y033837D01*
X012886Y033837D01*
X012819Y033770D01*
X012819Y033503D01*
X012886Y033436D01*
X013740Y033436D02*
X014006Y033703D01*
X014006Y033770D01*
X013940Y033837D01*
X013806Y033837D01*
X013740Y033770D01*
X013740Y033436D02*
X014006Y033436D01*
X014376Y033060D02*
X014376Y034300D01*
X015046Y034300D01*
X015310Y034840D02*
X012950Y034840D01*
X012950Y037420D01*
X015310Y037420D01*
X013577Y037747D02*
X013577Y038014D01*
X013511Y038080D01*
X013377Y038080D01*
X013310Y038014D01*
X013310Y037947D01*
X013377Y037880D01*
X013577Y037880D01*
X013577Y037747D02*
X013511Y037680D01*
X013377Y037680D01*
X013310Y037747D01*
X013117Y037747D02*
X013117Y038080D01*
X012850Y038080D02*
X012850Y037747D01*
X012917Y037680D01*
X013050Y037680D01*
X013117Y037747D01*
X015640Y034206D02*
X015640Y033184D01*
X015794Y033080D02*
X016266Y033080D01*
X016424Y033218D01*
X016424Y034182D01*
X016266Y034300D01*
X015794Y034300D01*
X015046Y033060D02*
X014376Y033060D01*
X017907Y029494D02*
X017907Y029227D01*
X017974Y029160D01*
X018107Y029160D01*
X018174Y029227D01*
X018368Y029227D02*
X018434Y029160D01*
X018568Y029160D01*
X018634Y029227D01*
X018634Y029360D01*
X018568Y029427D01*
X018434Y029427D01*
X018368Y029360D01*
X018368Y029227D01*
X018174Y029494D02*
X018107Y029560D01*
X017974Y029560D01*
X017907Y029494D01*
X018828Y029427D02*
X019028Y029427D01*
X019095Y029360D01*
X019095Y029160D01*
X018828Y029160D02*
X018828Y029427D01*
X019288Y029427D02*
X019422Y029427D01*
X019355Y029494D02*
X019355Y029227D01*
X019422Y029160D01*
X019595Y029160D02*
X019595Y029427D01*
X019595Y029293D02*
X019729Y029427D01*
X019795Y029427D01*
X019979Y029360D02*
X019979Y029227D01*
X020046Y029160D01*
X020179Y029160D01*
X020246Y029227D01*
X020246Y029360D01*
X020179Y029427D01*
X020046Y029427D01*
X019979Y029360D01*
X020439Y029160D02*
X020573Y029160D01*
X020506Y029160D02*
X020506Y029560D01*
X020439Y029560D01*
X021207Y029560D02*
X021207Y029227D01*
X021273Y029160D01*
X021407Y029160D01*
X021474Y029227D01*
X021474Y029560D01*
X021667Y029427D02*
X021867Y029427D01*
X021934Y029360D01*
X021934Y029160D01*
X022127Y029160D02*
X022261Y029160D01*
X022194Y029160D02*
X022194Y029427D01*
X022127Y029427D01*
X022194Y029560D02*
X022194Y029627D01*
X022434Y029427D02*
X022568Y029427D01*
X022501Y029494D02*
X022501Y029227D01*
X022568Y029160D01*
X021667Y029160D02*
X021667Y029427D01*
X020568Y027639D02*
X020301Y027639D01*
X020107Y027639D02*
X020107Y027306D01*
X020040Y027239D01*
X019907Y027239D01*
X019840Y027306D01*
X019840Y027639D01*
X019414Y027348D02*
X019808Y026954D01*
X019267Y026990D02*
X019134Y026990D01*
X019201Y026990D02*
X019201Y026657D01*
X019134Y026590D01*
X019067Y026590D01*
X019000Y026657D01*
X018807Y026590D02*
X018673Y026723D01*
X018740Y026723D02*
X018540Y026723D01*
X018540Y026590D02*
X018540Y026990D01*
X018740Y026990D01*
X018807Y026924D01*
X018807Y026790D01*
X018740Y026723D01*
X020301Y027239D02*
X020301Y027306D01*
X020568Y027573D01*
X020568Y027639D01*
X023606Y024982D02*
X023606Y024582D01*
X023606Y024715D02*
X023806Y024715D01*
X023873Y024782D01*
X023873Y024916D01*
X023806Y024982D01*
X023606Y024982D01*
X023739Y024715D02*
X023873Y024582D01*
X024066Y024582D02*
X024333Y024849D01*
X024333Y024916D01*
X024266Y024982D01*
X024133Y024982D01*
X024066Y024916D01*
X024066Y024582D02*
X024333Y024582D01*
X024301Y023965D02*
X024100Y023765D01*
X024367Y023765D01*
X024301Y023565D02*
X024301Y023965D01*
X023907Y023899D02*
X023907Y023765D01*
X023840Y023698D01*
X023640Y023698D01*
X023640Y023565D02*
X023640Y023965D01*
X023840Y023965D01*
X023907Y023899D01*
X023773Y023698D02*
X023907Y023565D01*
X023809Y022975D02*
X023609Y022975D01*
X023609Y022575D01*
X023609Y022708D02*
X023809Y022708D01*
X023876Y022775D01*
X023876Y022909D01*
X023809Y022975D01*
X024070Y022975D02*
X024070Y022775D01*
X024203Y022842D01*
X024270Y022842D01*
X024337Y022775D01*
X024337Y022642D01*
X024270Y022575D01*
X024136Y022575D01*
X024070Y022642D01*
X023876Y022575D02*
X023743Y022708D01*
X024070Y022975D02*
X024337Y022975D01*
X024307Y021995D02*
X024174Y021929D01*
X024040Y021795D01*
X024241Y021795D01*
X024307Y021728D01*
X024307Y021662D01*
X024241Y021595D01*
X024107Y021595D01*
X024040Y021662D01*
X024040Y021795D01*
X023847Y021795D02*
X023847Y021929D01*
X023780Y021995D01*
X023580Y021995D01*
X023580Y021595D01*
X023580Y021728D02*
X023780Y021728D01*
X023847Y021795D01*
X023713Y021728D02*
X023847Y021595D01*
X023770Y021235D02*
X023570Y021235D01*
X023570Y020835D01*
X023570Y020968D02*
X023770Y020968D01*
X023837Y021035D01*
X023837Y021169D01*
X023770Y021235D01*
X024030Y021169D02*
X024030Y021102D01*
X024097Y021035D01*
X024231Y021035D01*
X024297Y020968D01*
X024297Y020902D01*
X024231Y020835D01*
X024097Y020835D01*
X024030Y020902D01*
X024030Y020968D01*
X024097Y021035D01*
X024231Y021035D02*
X024297Y021102D01*
X024297Y021169D01*
X024231Y021235D01*
X024097Y021235D01*
X024030Y021169D01*
X023703Y020968D02*
X023837Y020835D01*
X024000Y020565D02*
X024200Y020565D01*
X024267Y020499D01*
X024267Y020365D01*
X024200Y020298D01*
X024000Y020298D01*
X024000Y020165D02*
X024000Y020565D01*
X024133Y020298D02*
X024267Y020165D01*
X024460Y020165D02*
X024727Y020165D01*
X024594Y020165D02*
X024594Y020565D01*
X024460Y020432D01*
X024921Y020499D02*
X024988Y020565D01*
X025121Y020565D01*
X025188Y020499D01*
X025188Y020432D01*
X025121Y020365D01*
X025188Y020298D01*
X025188Y020232D01*
X025121Y020165D01*
X024988Y020165D01*
X024921Y020232D01*
X025054Y020365D02*
X025121Y020365D01*
X025832Y020216D02*
X026068Y020216D01*
X026088Y020664D02*
X025852Y020664D01*
X025852Y021136D02*
X026088Y021136D01*
X026098Y021554D02*
X025862Y021554D01*
X025862Y022026D02*
X026098Y022026D01*
X026078Y022624D02*
X025842Y022624D01*
X025842Y023096D02*
X026078Y023096D01*
X026078Y023474D02*
X025842Y023474D01*
X025842Y023946D02*
X026078Y023946D01*
X026084Y024491D02*
X025848Y024491D01*
X025848Y024963D02*
X026084Y024963D01*
X026094Y025361D02*
X025858Y025361D01*
X025858Y025833D02*
X026094Y025833D01*
X026088Y026204D02*
X025852Y026204D01*
X025852Y026676D02*
X026088Y026676D01*
X026106Y026845D02*
X025839Y026845D01*
X025973Y026845D02*
X025973Y027245D01*
X025839Y027112D01*
X025646Y027179D02*
X025646Y027045D01*
X025579Y026978D01*
X025379Y026978D01*
X025379Y026845D02*
X025379Y027245D01*
X025579Y027245D01*
X025646Y027179D01*
X025512Y026978D02*
X025646Y026845D01*
X026300Y027045D02*
X026566Y027045D01*
X026500Y026845D02*
X026500Y027245D01*
X026300Y027045D01*
X026680Y026570D02*
X026680Y026170D01*
X026947Y026170D01*
X027140Y026170D02*
X027140Y026570D01*
X027407Y026570D01*
X027601Y026570D02*
X027801Y026570D01*
X027868Y026504D01*
X027868Y026237D01*
X027801Y026170D01*
X027601Y026170D01*
X027601Y026570D01*
X027805Y026830D02*
X027805Y028830D01*
X028805Y027830D01*
X027805Y026830D01*
X027825Y026900D02*
X027835Y026970D01*
X027885Y026960D01*
X027865Y026930D01*
X028128Y026570D02*
X028061Y026504D01*
X028128Y026570D02*
X028261Y026570D01*
X028328Y026504D01*
X028328Y026437D01*
X028061Y026170D01*
X028328Y026170D01*
X028304Y025975D02*
X028304Y025775D01*
X028204Y025875D02*
X028404Y025875D01*
X027838Y025783D02*
X027838Y025383D01*
X027705Y025383D02*
X027972Y025383D01*
X027705Y025650D02*
X027838Y025783D01*
X027511Y025783D02*
X027245Y025383D01*
X027051Y025383D02*
X026918Y025517D01*
X026984Y025517D02*
X026784Y025517D01*
X026784Y025383D02*
X026784Y025783D01*
X026984Y025783D01*
X027051Y025717D01*
X027051Y025583D01*
X026984Y025517D01*
X027245Y025783D02*
X027511Y025383D01*
X027521Y024963D02*
X027255Y024563D01*
X027521Y024563D02*
X027255Y024963D01*
X027061Y024963D02*
X026794Y024963D01*
X026928Y024963D02*
X026928Y024563D01*
X026980Y023880D02*
X027047Y023814D01*
X027047Y023680D01*
X026980Y023613D01*
X026780Y023613D01*
X026780Y023480D02*
X026780Y023880D01*
X026980Y023880D01*
X027240Y023880D02*
X027507Y023480D01*
X027701Y023480D02*
X027968Y023747D01*
X027968Y023814D01*
X027901Y023880D01*
X027768Y023880D01*
X027701Y023814D01*
X027507Y023880D02*
X027240Y023480D01*
X027047Y023480D02*
X026913Y023613D01*
X026923Y023080D02*
X026923Y022680D01*
X027250Y022680D02*
X027517Y023080D01*
X027711Y023014D02*
X027778Y023080D01*
X027911Y023080D01*
X027978Y023014D01*
X027978Y022947D01*
X027711Y022680D01*
X027978Y022680D01*
X027517Y022680D02*
X027250Y023080D01*
X027057Y023080D02*
X026790Y023080D01*
X027701Y023480D02*
X027968Y023480D01*
X028210Y023152D02*
X028410Y023152D01*
X028310Y023052D02*
X028310Y023252D01*
X028300Y023892D02*
X028300Y024092D01*
X028200Y023992D02*
X028400Y023992D01*
X027982Y024563D02*
X027715Y024563D01*
X027848Y024563D02*
X027848Y024963D01*
X027715Y024830D01*
X028214Y025015D02*
X028414Y025015D01*
X028314Y024915D02*
X028314Y025115D01*
X027407Y026170D02*
X027140Y026170D01*
X027140Y026370D02*
X027274Y026370D01*
X028310Y026722D02*
X028510Y026722D01*
X028410Y026622D02*
X028410Y026822D01*
X029220Y027380D02*
X029330Y027270D01*
X029720Y027270D01*
X030110Y027270D01*
X030220Y027380D01*
X029720Y027370D02*
X029720Y027270D01*
X029720Y028170D02*
X029720Y028370D01*
X029720Y029170D02*
X029720Y029370D01*
X029720Y030170D02*
X029720Y030370D01*
X029720Y031170D02*
X029720Y031370D01*
X029720Y032170D02*
X029720Y032270D01*
X029330Y032270D01*
X029220Y032160D01*
X029276Y032653D02*
X030457Y032653D01*
X030457Y035527D01*
X029276Y035527D01*
X028883Y034877D02*
X028883Y033303D01*
X028303Y033830D02*
X028370Y033897D01*
X028370Y034030D01*
X028303Y034097D01*
X028237Y034097D01*
X028170Y034030D01*
X028170Y033897D01*
X028103Y033830D01*
X028036Y033830D01*
X027970Y033897D01*
X027970Y034030D01*
X028036Y034097D01*
X028036Y034290D02*
X027970Y034357D01*
X027970Y034491D01*
X028036Y034557D01*
X028103Y034557D01*
X028370Y034290D01*
X028370Y034557D01*
X027450Y036260D02*
X027280Y036260D01*
X027280Y036760D02*
X027450Y036760D01*
X027419Y037050D02*
X027419Y037450D01*
X027219Y037250D01*
X027486Y037250D01*
X027680Y037117D02*
X027746Y037050D01*
X027880Y037050D01*
X027946Y037117D01*
X027946Y037183D01*
X027880Y037250D01*
X027813Y037250D01*
X027880Y037250D02*
X027946Y037317D01*
X027946Y037384D01*
X027880Y037450D01*
X027746Y037450D01*
X027680Y037384D01*
X027026Y037384D02*
X027026Y037250D01*
X026959Y037183D01*
X026759Y037183D01*
X026759Y037050D02*
X026759Y037450D01*
X026959Y037450D01*
X027026Y037384D01*
X026892Y037183D02*
X027026Y037050D01*
X025608Y035734D02*
X025608Y035667D01*
X025541Y035600D01*
X025608Y035533D01*
X025608Y035467D01*
X025541Y035400D01*
X025408Y035400D01*
X025341Y035467D01*
X025474Y035600D02*
X025541Y035600D01*
X025608Y035734D02*
X025541Y035800D01*
X025408Y035800D01*
X025341Y035734D01*
X025147Y035800D02*
X025147Y035533D01*
X025014Y035400D01*
X024880Y035533D01*
X024880Y035800D01*
X024687Y035734D02*
X024687Y035667D01*
X024620Y035600D01*
X024687Y035533D01*
X024687Y035467D01*
X024620Y035400D01*
X024487Y035400D01*
X024420Y035467D01*
X024553Y035600D02*
X024620Y035600D01*
X024687Y035734D02*
X024620Y035800D01*
X024487Y035800D01*
X024420Y035734D01*
X024190Y035212D02*
X024190Y035012D01*
X024090Y035112D02*
X024290Y035112D01*
X023883Y035405D02*
X023616Y035405D01*
X023749Y035405D02*
X023749Y035805D01*
X023616Y035672D01*
X023422Y035405D02*
X023155Y035405D01*
X023289Y035405D02*
X023289Y035805D01*
X023155Y035672D01*
X022962Y035739D02*
X022962Y035605D01*
X022895Y035538D01*
X022695Y035538D01*
X022695Y035405D02*
X022695Y035805D01*
X022895Y035805D01*
X022962Y035739D01*
X022828Y035538D02*
X022962Y035405D01*
X023090Y035090D02*
X023260Y035090D01*
X023250Y034580D02*
X023080Y034580D01*
X027835Y028760D02*
X027885Y028700D01*
X027835Y028660D02*
X027835Y028760D01*
X028315Y030355D02*
X028315Y030488D01*
X028315Y030422D02*
X028715Y030422D01*
X028715Y030488D02*
X028715Y030355D01*
X028648Y030662D02*
X028715Y030729D01*
X028715Y030862D01*
X028648Y030929D01*
X028648Y031122D02*
X028715Y031189D01*
X028715Y031322D01*
X028648Y031389D01*
X028582Y031389D01*
X028515Y031322D01*
X028515Y031189D01*
X028448Y031122D01*
X028381Y031122D01*
X028315Y031189D01*
X028315Y031322D01*
X028381Y031389D01*
X028315Y031583D02*
X028315Y031783D01*
X028381Y031850D01*
X028515Y031850D01*
X028582Y031783D01*
X028582Y031583D01*
X028715Y031583D02*
X028315Y031583D01*
X028381Y030929D02*
X028315Y030862D01*
X028315Y030729D01*
X028381Y030662D01*
X028648Y030662D01*
X029720Y032270D02*
X030110Y032270D01*
X030220Y032160D01*
X028810Y036682D02*
X028810Y036882D01*
X028710Y036782D02*
X028910Y036782D01*
X029223Y036980D02*
X029357Y037113D01*
X029357Y037380D01*
X029550Y037380D02*
X029684Y037380D01*
X029617Y037380D02*
X029617Y036980D01*
X029550Y036980D02*
X029684Y036980D01*
X029857Y036980D02*
X029857Y037380D01*
X030124Y036980D01*
X030124Y037380D01*
X029223Y036980D02*
X029090Y037113D01*
X029090Y037380D01*
X024280Y025832D02*
X024280Y025432D01*
X024413Y025432D02*
X024146Y025432D01*
X023953Y025432D02*
X023819Y025565D01*
X023886Y025565D02*
X023686Y025565D01*
X023686Y025432D02*
X023686Y025832D01*
X023886Y025832D01*
X023953Y025766D01*
X023953Y025632D01*
X023886Y025565D01*
X024146Y025699D02*
X024280Y025832D01*
X026810Y022000D02*
X027010Y022000D01*
X027077Y021934D01*
X027077Y021800D01*
X027010Y021733D01*
X026810Y021733D01*
X026810Y021600D02*
X026810Y022000D01*
X026943Y021733D02*
X027077Y021600D01*
X027270Y021600D02*
X027537Y022000D01*
X027731Y021934D02*
X027798Y022000D01*
X027931Y022000D01*
X027998Y021934D01*
X027998Y021867D01*
X027931Y021800D01*
X027998Y021733D01*
X027998Y021667D01*
X027931Y021600D01*
X027798Y021600D01*
X027731Y021667D01*
X027864Y021800D02*
X027931Y021800D01*
X028250Y022082D02*
X028450Y022082D01*
X028350Y021982D02*
X028350Y022182D01*
X028320Y021322D02*
X028320Y021122D01*
X028220Y021222D02*
X028420Y021222D01*
X028038Y021084D02*
X028038Y021017D01*
X027971Y020950D01*
X028038Y020883D01*
X028038Y020817D01*
X027971Y020750D01*
X027838Y020750D01*
X027771Y020817D01*
X027904Y020950D02*
X027971Y020950D01*
X028038Y021084D02*
X027971Y021150D01*
X027838Y021150D01*
X027771Y021084D01*
X027577Y021150D02*
X027310Y020750D01*
X027577Y020750D02*
X027310Y021150D01*
X027117Y021150D02*
X026850Y021150D01*
X026983Y021150D02*
X026983Y020750D01*
X027003Y020180D02*
X027003Y019780D01*
X027330Y019780D02*
X027597Y020180D01*
X027330Y020180D02*
X027597Y019780D01*
X027791Y019980D02*
X028058Y019980D01*
X027991Y019780D02*
X027991Y020180D01*
X027791Y019980D01*
X028260Y020252D02*
X028460Y020252D01*
X028360Y020152D02*
X028360Y020352D01*
X028380Y019442D02*
X028380Y019242D01*
X028280Y019342D02*
X028480Y019342D01*
X028118Y019090D02*
X027851Y019090D01*
X028051Y019290D01*
X028051Y018890D01*
X027657Y018890D02*
X027390Y019290D01*
X027197Y019224D02*
X027197Y019090D01*
X027130Y019023D01*
X026930Y019023D01*
X026930Y018890D02*
X026930Y019290D01*
X027130Y019290D01*
X027197Y019224D01*
X027063Y019023D02*
X027197Y018890D01*
X027390Y018890D02*
X027657Y019290D01*
X027137Y020180D02*
X026870Y020180D01*
X026068Y019744D02*
X025832Y019744D01*
X025832Y019306D02*
X026068Y019306D01*
X026068Y018834D02*
X025832Y018834D01*
X025874Y018685D02*
X025874Y018285D01*
X026007Y018285D02*
X025740Y018285D01*
X025547Y018285D02*
X025413Y018418D01*
X025480Y018418D02*
X025280Y018418D01*
X025280Y018285D02*
X025280Y018685D01*
X025480Y018685D01*
X025547Y018619D01*
X025547Y018485D01*
X025480Y018418D01*
X025740Y018552D02*
X025874Y018685D01*
X026201Y018619D02*
X026268Y018685D01*
X026401Y018685D01*
X026468Y018619D01*
X026468Y018552D01*
X026201Y018285D01*
X026468Y018285D01*
X025510Y017860D02*
X025510Y007860D01*
X025581Y006950D02*
X025581Y006750D01*
X025714Y006817D01*
X025781Y006817D01*
X025848Y006750D01*
X025848Y006617D01*
X025781Y006550D01*
X025648Y006550D01*
X025581Y006617D01*
X025387Y006550D02*
X025120Y006550D01*
X025254Y006550D02*
X025254Y006950D01*
X025120Y006817D01*
X024927Y006950D02*
X024927Y006617D01*
X024860Y006550D01*
X024727Y006550D01*
X024660Y006617D01*
X024660Y006950D01*
X025581Y006950D02*
X025848Y006950D01*
X026789Y006985D02*
X026789Y006585D01*
X026789Y006718D02*
X026989Y006718D01*
X027056Y006785D01*
X027056Y006919D01*
X026989Y006985D01*
X026789Y006985D01*
X026836Y007145D02*
X026969Y007145D01*
X027036Y007212D01*
X027229Y007145D02*
X027496Y007145D01*
X027363Y007145D02*
X027363Y007545D01*
X027229Y007412D01*
X027036Y007479D02*
X026969Y007545D01*
X026836Y007545D01*
X026769Y007479D01*
X026769Y007212D01*
X026836Y007145D01*
X026922Y006718D02*
X027056Y006585D01*
X027249Y006652D02*
X027316Y006585D01*
X027449Y006585D01*
X027516Y006652D01*
X027516Y006785D01*
X027449Y006852D01*
X027383Y006852D01*
X027249Y006785D01*
X027249Y006985D01*
X027516Y006985D01*
X027710Y006919D02*
X027776Y006985D01*
X027910Y006985D01*
X027976Y006919D01*
X027976Y006852D01*
X027710Y006585D01*
X027976Y006585D01*
X027448Y006426D02*
X027212Y006426D01*
X027212Y005954D02*
X027448Y005954D01*
X027458Y005736D02*
X027222Y005736D01*
X027222Y005264D02*
X027458Y005264D01*
X027458Y004986D02*
X027222Y004986D01*
X027222Y004514D02*
X027458Y004514D01*
X027458Y004136D02*
X027222Y004136D01*
X027222Y003664D02*
X027458Y003664D01*
X027516Y003455D02*
X027249Y003455D01*
X027249Y003255D01*
X027383Y003322D01*
X027449Y003322D01*
X027516Y003255D01*
X027516Y003122D01*
X027449Y003055D01*
X027316Y003055D01*
X027249Y003122D01*
X027056Y003055D02*
X026922Y003188D01*
X026989Y003188D02*
X026789Y003188D01*
X026789Y003055D02*
X026789Y003455D01*
X026989Y003455D01*
X027056Y003389D01*
X027056Y003255D01*
X026989Y003188D01*
X026959Y002855D02*
X026826Y002855D01*
X026759Y002789D01*
X026759Y002522D01*
X026826Y002455D01*
X026959Y002455D01*
X027026Y002522D01*
X027219Y002455D02*
X027486Y002455D01*
X027353Y002455D02*
X027353Y002855D01*
X027219Y002722D01*
X027026Y002789D02*
X026959Y002855D01*
X027680Y002789D02*
X027680Y002722D01*
X027746Y002655D01*
X027946Y002655D01*
X027946Y002522D02*
X027946Y002789D01*
X027880Y002855D01*
X027746Y002855D01*
X027680Y002789D01*
X027680Y002522D02*
X027746Y002455D01*
X027880Y002455D01*
X027946Y002522D01*
X027910Y003055D02*
X027776Y003055D01*
X027710Y003122D01*
X027843Y003255D02*
X027910Y003255D01*
X027976Y003188D01*
X027976Y003122D01*
X027910Y003055D01*
X027910Y003255D02*
X027976Y003322D01*
X027976Y003389D01*
X027910Y003455D01*
X027776Y003455D01*
X027710Y003389D01*
X028310Y003160D02*
X028310Y007160D01*
X030510Y007160D01*
X030510Y006660D01*
X030010Y006660D01*
X030010Y003660D01*
X030510Y003660D01*
X030510Y003160D01*
X028310Y003160D01*
X026088Y002740D02*
X025821Y002740D01*
X025821Y002540D01*
X025954Y002607D01*
X026021Y002607D01*
X026088Y002540D01*
X026088Y002407D01*
X026021Y002340D01*
X025888Y002340D01*
X025821Y002407D01*
X025627Y002340D02*
X025360Y002740D01*
X025167Y002740D02*
X024900Y002740D01*
X025033Y002740D02*
X025033Y002340D01*
X025360Y002340D02*
X025627Y002740D01*
X025737Y001310D02*
X025470Y000910D01*
X025277Y000910D02*
X025143Y001043D01*
X025210Y001043D02*
X025010Y001043D01*
X025010Y000910D02*
X025010Y001310D01*
X025210Y001310D01*
X025277Y001244D01*
X025277Y001110D01*
X025210Y001043D01*
X025470Y001310D02*
X025737Y000910D01*
X025931Y000977D02*
X025998Y000910D01*
X026131Y000910D01*
X026198Y000977D01*
X026198Y001110D01*
X026131Y001177D01*
X026064Y001177D01*
X025931Y001110D01*
X025931Y001310D01*
X026198Y001310D01*
X024126Y001134D02*
X024060Y001200D01*
X023926Y001200D01*
X023860Y001134D01*
X023860Y001067D01*
X023926Y001000D01*
X024126Y001000D01*
X024126Y000867D02*
X024126Y001134D01*
X024126Y000867D02*
X024060Y000800D01*
X023926Y000800D01*
X023860Y000867D01*
X023666Y000800D02*
X023399Y000800D01*
X023533Y000800D02*
X023533Y001200D01*
X023399Y001067D01*
X023206Y001134D02*
X023206Y001000D01*
X023139Y000933D01*
X022939Y000933D01*
X022939Y000800D02*
X022939Y001200D01*
X023139Y001200D01*
X023206Y001134D01*
X023072Y000933D02*
X023206Y000800D01*
X023480Y001490D02*
X023650Y001490D01*
X023650Y001990D02*
X023480Y001990D01*
X023490Y002390D02*
X023660Y002390D01*
X023660Y002900D02*
X023490Y002900D01*
X023469Y003110D02*
X023736Y003110D01*
X023603Y003110D02*
X023603Y003510D01*
X023469Y003377D01*
X023276Y003444D02*
X023276Y003310D01*
X023209Y003243D01*
X023009Y003243D01*
X023009Y003110D02*
X023009Y003510D01*
X023209Y003510D01*
X023276Y003444D01*
X023142Y003243D02*
X023276Y003110D01*
X023930Y003177D02*
X023930Y003243D01*
X023996Y003310D01*
X024130Y003310D01*
X024196Y003243D01*
X024196Y003177D01*
X024130Y003110D01*
X023996Y003110D01*
X023930Y003177D01*
X023996Y003310D02*
X023930Y003377D01*
X023930Y003444D01*
X023996Y003510D01*
X024130Y003510D01*
X024196Y003444D01*
X024196Y003377D01*
X024130Y003310D01*
X024195Y004395D02*
X024195Y005725D01*
X026345Y005725D01*
X026345Y004395D01*
X024195Y004395D01*
X024210Y004540D02*
X026330Y004540D01*
X024300Y004760D02*
X024302Y004780D01*
X024308Y004798D01*
X024317Y004816D01*
X024329Y004831D01*
X024344Y004843D01*
X024362Y004852D01*
X024380Y004858D01*
X024400Y004860D01*
X024420Y004858D01*
X024438Y004852D01*
X024456Y004843D01*
X024471Y004831D01*
X024483Y004816D01*
X024492Y004798D01*
X024498Y004780D01*
X024500Y004760D01*
X024498Y004740D01*
X024492Y004722D01*
X024483Y004704D01*
X024471Y004689D01*
X024456Y004677D01*
X024438Y004668D01*
X024420Y004662D01*
X024400Y004660D01*
X024380Y004662D01*
X024362Y004668D01*
X024344Y004677D01*
X024329Y004689D01*
X024317Y004704D01*
X024308Y004722D01*
X024302Y004740D01*
X024300Y004760D01*
X023725Y005716D02*
X023095Y005716D01*
X023095Y005717D02*
X023079Y005722D01*
X023063Y005730D01*
X023049Y005740D01*
X023037Y005752D01*
X023027Y005767D01*
X023020Y005783D01*
X023016Y005800D01*
X023015Y005817D01*
X023017Y005835D01*
X022804Y005920D02*
X022537Y005920D01*
X022804Y006187D01*
X022804Y006254D01*
X022737Y006320D01*
X022604Y006320D01*
X022537Y006254D01*
X022344Y006320D02*
X022210Y006320D01*
X022277Y006320D02*
X022277Y005987D01*
X022210Y005920D01*
X022143Y005920D01*
X022077Y005987D01*
X021883Y005987D02*
X021816Y005920D01*
X021683Y005920D01*
X021616Y005987D01*
X021683Y006120D02*
X021816Y006120D01*
X021883Y006053D01*
X021883Y005987D01*
X021683Y006120D02*
X021616Y006187D01*
X021616Y006254D01*
X021683Y006320D01*
X021816Y006320D01*
X021883Y006254D01*
X022485Y005421D02*
X023075Y005421D01*
X023075Y004359D01*
X022898Y004359D01*
X022662Y004359D01*
X022485Y004359D01*
X022485Y005421D01*
X022778Y004634D02*
X022780Y004654D01*
X022786Y004672D01*
X022795Y004690D01*
X022807Y004705D01*
X022822Y004717D01*
X022840Y004726D01*
X022858Y004732D01*
X022878Y004734D01*
X022898Y004732D01*
X022916Y004726D01*
X022934Y004717D01*
X022949Y004705D01*
X022961Y004690D01*
X022970Y004672D01*
X022976Y004654D01*
X022978Y004634D01*
X022976Y004614D01*
X022970Y004596D01*
X022961Y004578D01*
X022949Y004563D01*
X022934Y004551D01*
X022916Y004542D01*
X022898Y004536D01*
X022878Y004534D01*
X022858Y004536D01*
X022840Y004542D01*
X022822Y004551D01*
X022807Y004563D01*
X022795Y004578D01*
X022786Y004596D01*
X022780Y004614D01*
X022778Y004634D01*
X022662Y004359D02*
X022664Y004379D01*
X022669Y004399D01*
X022678Y004418D01*
X022690Y004435D01*
X022704Y004449D01*
X022721Y004461D01*
X022740Y004470D01*
X022760Y004475D01*
X022780Y004477D01*
X022800Y004475D01*
X022820Y004470D01*
X022839Y004461D01*
X022856Y004449D01*
X022870Y004435D01*
X022882Y004418D01*
X022891Y004399D01*
X022896Y004379D01*
X022898Y004359D01*
X022778Y004136D02*
X022542Y004136D01*
X022542Y003664D02*
X022778Y003664D01*
X021907Y003752D02*
X021907Y003818D01*
X021840Y003885D01*
X021640Y003885D01*
X021640Y003752D01*
X021706Y003685D01*
X021840Y003685D01*
X021907Y003752D01*
X021773Y004019D02*
X021640Y003885D01*
X021773Y004019D02*
X021907Y004085D01*
X021446Y004019D02*
X021379Y004085D01*
X021246Y004085D01*
X021179Y004019D01*
X021179Y003752D01*
X021246Y003685D01*
X021379Y003685D01*
X021446Y003752D01*
X021790Y002900D02*
X021960Y002900D01*
X021950Y002390D02*
X021780Y002390D01*
X021827Y002110D02*
X021760Y002044D01*
X021827Y002110D02*
X021961Y002110D01*
X022027Y002044D01*
X022027Y001977D01*
X021760Y001710D01*
X022027Y001710D01*
X022221Y001777D02*
X022288Y001710D01*
X022421Y001710D01*
X022488Y001777D01*
X022488Y002044D01*
X022421Y002110D01*
X022288Y002110D01*
X022221Y002044D01*
X022221Y001977D01*
X022288Y001910D01*
X022488Y001910D01*
X021567Y001910D02*
X021500Y001843D01*
X021300Y001843D01*
X021300Y001710D02*
X021300Y002110D01*
X021500Y002110D01*
X021567Y002044D01*
X021567Y001910D01*
X021433Y001843D02*
X021567Y001710D01*
X023725Y005717D02*
X023743Y005723D01*
X023761Y005732D01*
X023776Y005744D01*
X023788Y005760D01*
X023797Y005777D01*
X023803Y005796D01*
X023805Y005815D01*
X023803Y005835D01*
X023803Y006385D02*
X023805Y006405D01*
X023803Y006424D01*
X023797Y006443D01*
X023788Y006460D01*
X023776Y006476D01*
X023761Y006488D01*
X023743Y006497D01*
X023725Y006503D01*
X023725Y006504D02*
X023095Y006504D01*
X023095Y006503D02*
X023079Y006498D01*
X023063Y006490D01*
X023049Y006480D01*
X023037Y006468D01*
X023027Y006453D01*
X023020Y006437D01*
X023016Y006420D01*
X023015Y006403D01*
X023017Y006385D01*
X027690Y007212D02*
X027690Y007278D01*
X027756Y007345D01*
X027890Y007345D01*
X027956Y007278D01*
X027956Y007212D01*
X027890Y007145D01*
X027756Y007145D01*
X027690Y007212D01*
X027756Y007345D02*
X027690Y007412D01*
X027690Y007479D01*
X027756Y007545D01*
X027890Y007545D01*
X027956Y007479D01*
X027956Y007412D01*
X027890Y007345D01*
X030370Y007610D02*
X030371Y007610D01*
X030370Y007610D01*
X030370Y014545D01*
X030372Y014553D02*
X030372Y018110D01*
X030372Y018110D01*
X013505Y018110D01*
X013501Y007614D01*
X013503Y007614D02*
X030370Y007610D01*
X030510Y006660D02*
X030510Y003660D01*
X023386Y015345D02*
X023120Y015345D01*
X023253Y015345D02*
X023253Y015745D01*
X023120Y015612D01*
X022926Y015612D02*
X022659Y015345D01*
X022926Y015345D01*
X022926Y015612D02*
X022926Y015679D01*
X022859Y015745D01*
X022726Y015745D01*
X022659Y015679D01*
X022466Y015679D02*
X022466Y015545D01*
X022399Y015478D01*
X022199Y015478D01*
X022199Y015345D02*
X022199Y015745D01*
X022399Y015745D01*
X022466Y015679D01*
X022332Y015478D02*
X022466Y015345D01*
X022712Y015954D02*
X022948Y015954D01*
X022948Y016426D02*
X022712Y016426D01*
X024060Y016910D02*
X024327Y016910D01*
X024193Y016910D02*
X024193Y017310D01*
X024060Y017177D01*
X023766Y018350D02*
X023294Y018350D01*
X023140Y018454D02*
X023140Y019476D01*
X023294Y019570D02*
X023766Y019570D01*
X023924Y019452D01*
X023924Y018488D01*
X023766Y018350D01*
X022546Y018330D02*
X021876Y018330D01*
X021876Y019570D01*
X022546Y019570D01*
X022320Y019905D02*
X022186Y019905D01*
X022120Y019972D01*
X022386Y020239D01*
X022386Y019972D01*
X022320Y019905D01*
X022120Y019972D02*
X022120Y020239D01*
X022186Y020305D01*
X022320Y020305D01*
X022386Y020239D01*
X021926Y020239D02*
X021926Y020172D01*
X021659Y019905D01*
X021926Y019905D01*
X021926Y020239D02*
X021859Y020305D01*
X021726Y020305D01*
X021659Y020239D01*
X021466Y020239D02*
X021399Y020305D01*
X021266Y020305D01*
X021199Y020239D01*
X021199Y019972D01*
X021266Y019905D01*
X021399Y019905D01*
X021466Y019972D01*
X021654Y019546D02*
X021654Y019280D01*
X021654Y019413D02*
X021253Y019413D01*
X021387Y019280D01*
X021387Y019086D02*
X021320Y019086D01*
X021253Y019019D01*
X021253Y018886D01*
X021320Y018819D01*
X021320Y018626D02*
X021253Y018559D01*
X021253Y018426D01*
X021320Y018359D01*
X021587Y018359D01*
X021654Y018426D01*
X021654Y018559D01*
X021587Y018626D01*
X021654Y018819D02*
X021387Y019086D01*
X021654Y019086D02*
X021654Y018819D01*
X023062Y019854D02*
X023298Y019854D01*
X023298Y020326D02*
X023062Y020326D01*
X019808Y023332D02*
X019414Y023332D01*
X019808Y023332D02*
X019808Y023726D01*
X019123Y021531D02*
X019057Y021531D01*
X018990Y021465D01*
X018990Y021265D01*
X019123Y021265D01*
X019190Y021331D01*
X019190Y021465D01*
X019123Y021531D01*
X018990Y021265D02*
X018856Y021398D01*
X018790Y021531D01*
X018571Y021173D02*
X018571Y020937D01*
X018790Y020938D02*
X019190Y020938D01*
X019190Y021071D02*
X019190Y020804D01*
X019123Y020611D02*
X019190Y020544D01*
X019190Y020411D01*
X019123Y020344D01*
X018856Y020344D01*
X018790Y020411D01*
X018790Y020544D01*
X018856Y020611D01*
X018923Y020804D02*
X018790Y020938D01*
X018099Y020937D02*
X018099Y021173D01*
X017604Y021078D02*
X017604Y020842D01*
X016856Y020330D02*
X016384Y020330D01*
X015636Y020842D02*
X015636Y021078D01*
X015131Y020988D02*
X015131Y020752D01*
X014659Y020752D02*
X014659Y020988D01*
X014410Y020984D02*
X014010Y020984D01*
X014143Y020850D01*
X014076Y020657D02*
X014010Y020590D01*
X014010Y020457D01*
X014076Y020390D01*
X014343Y020390D01*
X014410Y020457D01*
X014410Y020590D01*
X014343Y020657D01*
X014410Y020850D02*
X014410Y021117D01*
X014343Y021311D02*
X014410Y021378D01*
X014410Y021511D01*
X014343Y021578D01*
X014210Y021578D01*
X014143Y021511D01*
X014143Y021444D01*
X014210Y021311D01*
X014010Y021311D01*
X014010Y021578D01*
X015595Y022269D02*
X015728Y022135D01*
X015728Y021935D01*
X015728Y022135D02*
X015862Y022269D01*
X015862Y022335D01*
X016055Y022202D02*
X016189Y022335D01*
X016189Y021935D01*
X016322Y021935D02*
X016055Y021935D01*
X016384Y021590D02*
X016856Y021590D01*
X015595Y022269D02*
X015595Y022335D01*
X015792Y023332D02*
X015792Y023726D01*
X015792Y023332D02*
X016186Y023332D01*
X015792Y026954D02*
X015792Y027348D01*
X016186Y027348D01*
X012385Y027515D02*
X012385Y027781D01*
X012385Y027648D02*
X011985Y027648D01*
X012118Y027515D01*
X012051Y027321D02*
X012185Y027321D01*
X012252Y027254D01*
X012252Y027054D01*
X012385Y027054D02*
X011985Y027054D01*
X011985Y027254D01*
X012051Y027321D01*
X011985Y026861D02*
X011985Y026727D01*
X011985Y026794D02*
X012318Y026794D01*
X012385Y026727D01*
X012385Y026661D01*
X012318Y026594D01*
X011580Y026430D02*
X011470Y026320D01*
X011080Y026320D01*
X010690Y026320D01*
X010580Y026430D01*
X011080Y026420D02*
X011080Y026320D01*
X011080Y027170D02*
X011080Y027470D01*
X009333Y026170D02*
X009333Y025770D01*
X009200Y025770D02*
X009467Y025770D01*
X009200Y026037D02*
X009333Y026170D01*
X009006Y026170D02*
X009006Y025837D01*
X008939Y025770D01*
X008806Y025770D01*
X008739Y025837D01*
X008739Y026170D01*
X009070Y026380D02*
X007650Y026380D01*
X008693Y026600D02*
X008695Y026615D01*
X008701Y026628D01*
X008710Y026640D01*
X008721Y026649D01*
X008735Y026655D01*
X008750Y026657D01*
X008765Y026655D01*
X008778Y026649D01*
X008790Y026640D01*
X008799Y026629D01*
X008805Y026615D01*
X008807Y026600D01*
X008805Y026585D01*
X008799Y026572D01*
X008790Y026560D01*
X008779Y026551D01*
X008765Y026545D01*
X008750Y026543D01*
X008735Y026545D01*
X008722Y026551D01*
X008710Y026560D01*
X008701Y026571D01*
X008695Y026585D01*
X008693Y026600D01*
X008739Y025380D02*
X008739Y025047D01*
X008806Y024980D01*
X008939Y024980D01*
X009006Y025047D01*
X009006Y025380D01*
X009200Y025380D02*
X009200Y025180D01*
X009333Y025247D01*
X009400Y025247D01*
X009467Y025180D01*
X009467Y025047D01*
X009400Y024980D01*
X009266Y024980D01*
X009200Y025047D01*
X009200Y025380D02*
X009467Y025380D01*
X008630Y024840D02*
X007210Y024840D01*
X008253Y023200D02*
X008255Y023215D01*
X008261Y023228D01*
X008270Y023240D01*
X008281Y023249D01*
X008295Y023255D01*
X008310Y023257D01*
X008325Y023255D01*
X008338Y023249D01*
X008350Y023240D01*
X008359Y023229D01*
X008365Y023215D01*
X008367Y023200D01*
X008365Y023185D01*
X008359Y023172D01*
X008350Y023160D01*
X008339Y023151D01*
X008325Y023145D01*
X008310Y023143D01*
X008295Y023145D01*
X008282Y023151D01*
X008270Y023160D01*
X008261Y023171D01*
X008255Y023185D01*
X008253Y023200D01*
X008630Y022980D02*
X007210Y022980D01*
X007083Y022660D02*
X007083Y022260D01*
X006950Y022260D02*
X007217Y022260D01*
X006950Y022527D02*
X007083Y022660D01*
X006756Y022594D02*
X006689Y022660D01*
X006556Y022660D01*
X006489Y022594D01*
X006489Y022327D01*
X006556Y022260D01*
X006689Y022260D01*
X006756Y022327D01*
X007817Y022209D02*
X008053Y022209D01*
X008053Y022681D02*
X007817Y022681D01*
X007781Y020963D02*
X007781Y020727D01*
X008194Y020732D02*
X008194Y020968D01*
X008666Y020968D02*
X008666Y020732D01*
X009184Y020942D02*
X009184Y021275D01*
X009451Y021275D02*
X009451Y020942D01*
X009384Y020875D01*
X009251Y020875D01*
X009184Y020942D01*
X009645Y020942D02*
X009645Y021008D01*
X009711Y021075D01*
X009845Y021075D01*
X009912Y021008D01*
X009912Y020942D01*
X009845Y020875D01*
X009711Y020875D01*
X009645Y020942D01*
X009711Y021075D02*
X009645Y021142D01*
X009645Y021209D01*
X009711Y021275D01*
X009845Y021275D01*
X009912Y021209D01*
X009912Y021142D01*
X009845Y021075D01*
X009695Y020665D02*
X011115Y020665D01*
X010738Y019025D02*
X010740Y019040D01*
X010746Y019053D01*
X010755Y019065D01*
X010766Y019074D01*
X010780Y019080D01*
X010795Y019082D01*
X010810Y019080D01*
X010823Y019074D01*
X010835Y019065D01*
X010844Y019054D01*
X010850Y019040D01*
X010852Y019025D01*
X010850Y019010D01*
X010844Y018997D01*
X010835Y018985D01*
X010824Y018976D01*
X010810Y018970D01*
X010795Y018968D01*
X010780Y018970D01*
X010767Y018976D01*
X010755Y018985D01*
X010746Y018996D01*
X010740Y019010D01*
X010738Y019025D01*
X011115Y018805D02*
X009695Y018805D01*
X009617Y018606D02*
X009853Y018606D01*
X009853Y018134D02*
X009617Y018134D01*
X010579Y018192D02*
X010646Y018125D01*
X010779Y018125D01*
X010846Y018192D01*
X011039Y018125D02*
X011306Y018125D01*
X011173Y018125D02*
X011173Y018525D01*
X011039Y018392D01*
X010846Y018459D02*
X010779Y018525D01*
X010646Y018525D01*
X010579Y018459D01*
X010579Y018192D01*
X011500Y018325D02*
X011766Y018325D01*
X011700Y018125D02*
X011700Y018525D01*
X011500Y018325D01*
X013504Y018110D02*
X013505Y018110D01*
X009903Y014512D02*
X009769Y014445D01*
X009636Y014311D01*
X009836Y014311D01*
X009903Y014245D01*
X009903Y014178D01*
X009836Y014111D01*
X009703Y014111D01*
X009636Y014178D01*
X009636Y014311D01*
X009442Y014111D02*
X009175Y014111D01*
X009309Y014111D02*
X009309Y014512D01*
X009175Y014378D01*
X008982Y014311D02*
X008915Y014245D01*
X008715Y014245D01*
X008849Y014245D02*
X008982Y014111D01*
X008982Y014311D02*
X008982Y014445D01*
X008915Y014512D01*
X008715Y014512D01*
X008715Y014111D01*
X008068Y013930D02*
X007832Y013930D01*
X007832Y014402D02*
X008068Y014402D01*
X007270Y014960D02*
X007100Y014960D01*
X007100Y015470D02*
X007270Y015470D01*
X007306Y015700D02*
X007440Y015700D01*
X007507Y015767D01*
X007507Y016034D01*
X007440Y016100D01*
X007306Y016100D01*
X007240Y016034D01*
X007240Y015967D01*
X007306Y015900D01*
X007507Y015900D01*
X007306Y015700D02*
X007240Y015767D01*
X007046Y015700D02*
X006913Y015833D01*
X006979Y015833D02*
X006779Y015833D01*
X006779Y015700D02*
X006779Y016100D01*
X006979Y016100D01*
X007046Y016034D01*
X007046Y015900D01*
X006979Y015833D01*
X008294Y015818D02*
X008494Y015818D01*
X008561Y015885D01*
X008561Y016019D01*
X008494Y016085D01*
X008294Y016085D01*
X008294Y015685D01*
X008427Y015818D02*
X008561Y015685D01*
X008754Y015685D02*
X009021Y015685D01*
X008888Y015685D02*
X008888Y016085D01*
X008754Y015952D01*
X009215Y016019D02*
X009281Y016085D01*
X009415Y016085D01*
X009481Y016019D01*
X009215Y015752D01*
X009281Y015685D01*
X009415Y015685D01*
X009481Y015752D01*
X009481Y016019D01*
X009215Y016019D02*
X009215Y015752D01*
X009040Y015470D02*
X008870Y015470D01*
X008870Y014960D02*
X009040Y014960D01*
X008995Y012765D02*
X009195Y012765D01*
X009262Y012699D01*
X009262Y012565D01*
X009195Y012498D01*
X008995Y012498D01*
X008995Y012365D02*
X008995Y012765D01*
X009128Y012498D02*
X009262Y012365D01*
X009340Y012180D02*
X009170Y012180D01*
X009455Y012432D02*
X009522Y012365D01*
X009656Y012365D01*
X009722Y012432D01*
X009722Y012498D01*
X009656Y012565D01*
X009589Y012565D01*
X009656Y012565D02*
X009722Y012632D01*
X009722Y012699D01*
X009656Y012765D01*
X009522Y012765D01*
X009455Y012699D01*
X009330Y011660D02*
X009160Y011660D01*
X009151Y010225D02*
X009285Y010225D01*
X009351Y010159D01*
X009351Y010092D01*
X009285Y010025D01*
X009351Y009958D01*
X009351Y009892D01*
X009285Y009825D01*
X009151Y009825D01*
X009085Y009892D01*
X009218Y010025D02*
X009285Y010025D01*
X009085Y010159D02*
X009151Y010225D01*
X008891Y010159D02*
X008891Y009892D01*
X008824Y009825D01*
X008624Y009825D01*
X008624Y010225D01*
X008824Y010225D01*
X008891Y010159D01*
X008431Y010225D02*
X008164Y010225D01*
X008164Y009825D01*
X008431Y009825D01*
X008297Y010025D02*
X008164Y010025D01*
X007970Y009825D02*
X007703Y009825D01*
X007703Y010225D01*
X009860Y010260D02*
X009860Y009860D01*
X009860Y009993D02*
X010060Y009993D01*
X010127Y010060D01*
X010127Y010194D01*
X010060Y010260D01*
X009860Y010260D01*
X009993Y009993D02*
X010127Y009860D01*
X010320Y009860D02*
X010587Y009860D01*
X010454Y009860D02*
X010454Y010260D01*
X010320Y010127D01*
X010320Y010540D02*
X010490Y010540D01*
X010781Y010260D02*
X011048Y010260D01*
X011048Y010194D01*
X010781Y009927D01*
X010781Y009860D01*
X010500Y011040D02*
X010330Y011040D01*
X007700Y018975D02*
X007300Y018975D01*
X007300Y019175D01*
X007366Y019242D01*
X007500Y019242D01*
X007567Y019175D01*
X007567Y018975D01*
X007567Y019108D02*
X007700Y019242D01*
X007700Y019435D02*
X007433Y019702D01*
X007366Y019702D01*
X007300Y019636D01*
X007300Y019502D01*
X007366Y019435D01*
X007700Y019435D02*
X007700Y019702D01*
X007633Y019896D02*
X007366Y020163D01*
X007633Y020163D01*
X007700Y020096D01*
X007700Y019963D01*
X007633Y019896D01*
X007366Y019896D01*
X007300Y019963D01*
X007300Y020096D01*
X007366Y020163D01*
X007309Y020727D02*
X007309Y020963D01*
X008155Y020177D02*
X008221Y020177D01*
X008488Y019910D01*
X008555Y019910D01*
X008555Y019717D02*
X008422Y019583D01*
X008422Y019650D02*
X008422Y019450D01*
X008555Y019450D02*
X008155Y019450D01*
X008155Y019650D01*
X008221Y019717D01*
X008355Y019717D01*
X008422Y019650D01*
X008155Y019910D02*
X008155Y020177D01*
X007650Y028240D02*
X009070Y028240D01*
X008580Y028740D02*
X008578Y028767D01*
X008573Y028794D01*
X008563Y028820D01*
X008551Y028844D01*
X008535Y028866D01*
X008517Y028886D01*
X008495Y028903D01*
X008472Y028918D01*
X008447Y028928D01*
X008421Y028936D01*
X008394Y028940D01*
X008366Y028940D01*
X008339Y028936D01*
X008313Y028928D01*
X008288Y028918D01*
X008265Y028903D01*
X008243Y028886D01*
X008225Y028866D01*
X008209Y028844D01*
X008197Y028820D01*
X008187Y028794D01*
X008182Y028767D01*
X008180Y028740D01*
X019510Y013860D02*
X019510Y013360D01*
X020010Y013360D01*
X020010Y013860D01*
X019510Y013860D01*
X018510Y014360D02*
X018443Y014331D01*
X018378Y014298D01*
X018315Y014263D01*
X018253Y014223D01*
X018194Y014181D01*
X018138Y014135D01*
X018083Y014086D01*
X018032Y014035D01*
X017983Y013981D01*
X017938Y013924D01*
X017895Y013865D01*
X017856Y013803D01*
X017820Y013740D01*
X017788Y013675D01*
X017759Y013608D01*
X017734Y013539D01*
X017713Y013470D01*
X017695Y013399D01*
X017682Y013328D01*
X017672Y013255D01*
X017666Y013183D01*
X017664Y013110D01*
X017666Y013037D01*
X017672Y012965D01*
X017682Y012892D01*
X017695Y012821D01*
X017713Y012750D01*
X017734Y012681D01*
X017759Y012612D01*
X017788Y012545D01*
X017820Y012480D01*
X017856Y012417D01*
X017895Y012355D01*
X017938Y012296D01*
X017983Y012239D01*
X018032Y012185D01*
X018083Y012134D01*
X018138Y012085D01*
X018194Y012039D01*
X018253Y011997D01*
X018315Y011957D01*
X018378Y011922D01*
X018443Y011889D01*
X018510Y011860D01*
X019510Y012360D02*
X020010Y012360D01*
X020010Y012860D01*
X019510Y012860D01*
X019510Y012360D01*
X027537Y021600D02*
X027270Y022000D01*
D13*
X000882Y037200D02*
X000884Y037266D01*
X000890Y037332D01*
X000900Y037398D01*
X000913Y037463D01*
X000931Y037527D01*
X000952Y037589D01*
X000977Y037651D01*
X001005Y037711D01*
X001037Y037769D01*
X001073Y037825D01*
X001111Y037878D01*
X001153Y037930D01*
X001198Y037979D01*
X001245Y038025D01*
X001296Y038068D01*
X001348Y038108D01*
X001403Y038145D01*
X001460Y038179D01*
X001519Y038209D01*
X001580Y038236D01*
X001642Y038259D01*
X001705Y038278D01*
X001770Y038294D01*
X001835Y038306D01*
X001901Y038314D01*
X001967Y038318D01*
X002033Y038318D01*
X002099Y038314D01*
X002165Y038306D01*
X002230Y038294D01*
X002295Y038278D01*
X002358Y038259D01*
X002420Y038236D01*
X002481Y038209D01*
X002540Y038179D01*
X002597Y038145D01*
X002652Y038108D01*
X002704Y038068D01*
X002755Y038025D01*
X002802Y037979D01*
X002847Y037930D01*
X002889Y037878D01*
X002927Y037825D01*
X002963Y037769D01*
X002995Y037711D01*
X003023Y037651D01*
X003048Y037589D01*
X003069Y037527D01*
X003087Y037463D01*
X003100Y037398D01*
X003110Y037332D01*
X003116Y037266D01*
X003118Y037200D01*
X003116Y037134D01*
X003110Y037068D01*
X003100Y037002D01*
X003087Y036937D01*
X003069Y036873D01*
X003048Y036811D01*
X003023Y036749D01*
X002995Y036689D01*
X002963Y036631D01*
X002927Y036575D01*
X002889Y036522D01*
X002847Y036470D01*
X002802Y036421D01*
X002755Y036375D01*
X002704Y036332D01*
X002652Y036292D01*
X002597Y036255D01*
X002540Y036221D01*
X002481Y036191D01*
X002420Y036164D01*
X002358Y036141D01*
X002295Y036122D01*
X002230Y036106D01*
X002165Y036094D01*
X002099Y036086D01*
X002033Y036082D01*
X001967Y036082D01*
X001901Y036086D01*
X001835Y036094D01*
X001770Y036106D01*
X001705Y036122D01*
X001642Y036141D01*
X001580Y036164D01*
X001519Y036191D01*
X001460Y036221D01*
X001403Y036255D01*
X001348Y036292D01*
X001296Y036332D01*
X001245Y036375D01*
X001198Y036421D01*
X001153Y036470D01*
X001111Y036522D01*
X001073Y036575D01*
X001037Y036631D01*
X001005Y036689D01*
X000977Y036749D01*
X000952Y036811D01*
X000931Y036873D01*
X000913Y036937D01*
X000900Y037002D01*
X000890Y037068D01*
X000884Y037134D01*
X000882Y037200D01*
D14*
X008476Y010795D03*
X025539Y003180D03*
X025509Y001740D03*
D15*
X029173Y024497D03*
X029173Y024969D03*
X029163Y025357D03*
X029163Y025829D03*
D16*
X029163Y025593D03*
X029173Y024733D03*
D17*
X027905Y027080D02*
X028655Y027830D01*
X028455Y028030D01*
X027955Y028530D01*
X027905Y028580D02*
X027905Y027080D01*
X028105Y027280D02*
X028105Y028380D01*
X028305Y028180D02*
X028305Y027480D01*
X028455Y027630D02*
X028455Y028030D01*
D18*
X011801Y002798D03*
D19*
X014259Y002798D03*
D20*
X011801Y002800D03*
D21*
X012029Y003423D03*
X014259Y002800D03*
X014489Y003423D03*
D22*
X014598Y003275D03*
X014598Y003273D03*
X014598Y003270D03*
X014508Y002965D03*
X014505Y002963D03*
X014140Y002968D03*
X014140Y002970D03*
X014140Y002973D03*
X014140Y002975D03*
X014235Y003243D03*
X014238Y003245D03*
X014240Y003248D03*
X014243Y003250D03*
X013493Y002825D03*
X013493Y002823D03*
X013493Y002820D03*
X013355Y003395D03*
X013355Y003398D03*
X012140Y003265D03*
X012140Y003263D03*
X012025Y002955D03*
X012023Y002953D03*
X012020Y002950D03*
X012018Y002948D03*
X011803Y002803D03*
X011678Y002970D03*
X011678Y002973D03*
X011678Y002975D03*
X011678Y002978D03*
X011678Y002980D03*
X011775Y003245D03*
X011778Y003248D03*
X011780Y003250D03*
X011783Y003253D03*
X011093Y003403D03*
X010308Y003280D03*
X010308Y003278D03*
X010308Y003275D03*
X010308Y003273D03*
X010243Y003153D03*
X010198Y003020D03*
X010198Y003018D03*
D23*
X010190Y002948D03*
X010188Y002940D03*
X010188Y002938D03*
X010185Y002933D03*
X010185Y002930D03*
X010185Y002928D03*
X010183Y002925D03*
X010183Y002923D03*
X010183Y002920D03*
X010180Y002918D03*
X010180Y002915D03*
X010180Y002913D03*
X010180Y002910D03*
X010178Y002908D03*
X010178Y002905D03*
X010178Y002903D03*
X010175Y002898D03*
X010175Y002895D03*
X010173Y002890D03*
X010173Y002888D03*
X010173Y002885D03*
X010170Y002883D03*
X010170Y002880D03*
X010170Y002878D03*
X010168Y002873D03*
X010168Y002870D03*
X010168Y002868D03*
X010165Y002863D03*
X010165Y002860D03*
X010165Y002858D03*
X010163Y002850D03*
X010163Y002848D03*
X010163Y002845D03*
X010160Y002833D03*
X010160Y002830D03*
X010805Y003013D03*
X010810Y003020D03*
X010818Y003030D03*
X010823Y003038D03*
X010825Y003040D03*
X010828Y003045D03*
X010830Y003048D03*
X010833Y003053D03*
X010835Y003055D03*
X010838Y003058D03*
X010840Y003063D03*
X010843Y003065D03*
X010845Y003070D03*
X010848Y003073D03*
X010850Y003075D03*
X010850Y003078D03*
X010853Y003080D03*
X010855Y003083D03*
X010855Y003085D03*
X010858Y003088D03*
X010860Y003090D03*
X010863Y003093D03*
X010863Y003095D03*
X010865Y003098D03*
X010868Y003100D03*
X010870Y003105D03*
X010873Y003108D03*
X010875Y003113D03*
X010878Y003115D03*
X010880Y003118D03*
X010883Y003123D03*
X010885Y003125D03*
X010888Y003130D03*
X010890Y003133D03*
X010895Y003140D03*
X010900Y003148D03*
X010903Y003150D03*
X010908Y003158D03*
X010913Y003165D03*
X011098Y003165D03*
X011098Y003168D03*
X011098Y003170D03*
X011098Y003173D03*
X011098Y003175D03*
X011098Y003178D03*
X011098Y003180D03*
X011098Y003183D03*
X011098Y003185D03*
X011098Y003188D03*
X011098Y003190D03*
X011098Y003193D03*
X011098Y003195D03*
X011098Y003198D03*
X011100Y003223D03*
X011100Y003225D03*
X011100Y003228D03*
X011100Y003230D03*
X011100Y003233D03*
X011100Y003235D03*
X011100Y003238D03*
X011100Y003240D03*
X011100Y003243D03*
X011100Y003245D03*
X011100Y003248D03*
X011100Y003250D03*
X011100Y003253D03*
X011100Y003255D03*
X011100Y003258D03*
X011100Y003260D03*
X011098Y003163D03*
X011098Y003160D03*
X011098Y003158D03*
X011098Y003155D03*
X011098Y003153D03*
X011098Y003150D03*
X011098Y003148D03*
X011098Y003145D03*
X011098Y003143D03*
X011098Y003140D03*
X011098Y003138D03*
X011098Y003135D03*
X013135Y002813D03*
X013138Y002820D03*
X013140Y002828D03*
X013143Y002833D03*
X013143Y002835D03*
X013145Y002840D03*
X013148Y002848D03*
X013150Y002855D03*
X013153Y002860D03*
X013153Y002863D03*
X013155Y002868D03*
X013158Y002875D03*
X013160Y002883D03*
X013163Y002888D03*
X013163Y002890D03*
X013165Y002895D03*
X013168Y002903D03*
X013170Y002910D03*
X013173Y002915D03*
X013173Y002918D03*
X013175Y002923D03*
X013178Y002930D03*
X013180Y002938D03*
X013183Y002943D03*
X013185Y002950D03*
X013188Y002958D03*
X013190Y002965D03*
X013193Y002970D03*
X013195Y002978D03*
X013198Y002985D03*
X013200Y002993D03*
X013203Y002998D03*
X013205Y003005D03*
X013208Y003013D03*
X013210Y003020D03*
X013213Y003025D03*
X013215Y003033D03*
X013218Y003040D03*
X013220Y003048D03*
X013223Y003053D03*
X013225Y003060D03*
X013228Y003068D03*
X013230Y003075D03*
X013233Y003080D03*
X013235Y003088D03*
X013238Y003095D03*
X013240Y003103D03*
X013243Y003108D03*
X013245Y003115D03*
X013248Y003123D03*
X013250Y003130D03*
X013253Y003135D03*
X013255Y003143D03*
X013258Y003150D03*
X013260Y003158D03*
X013263Y003163D03*
X013265Y003170D03*
X013268Y003178D03*
X013270Y003185D03*
X013273Y003190D03*
X013275Y003198D03*
X013278Y003205D03*
X013280Y003213D03*
X013603Y003103D03*
X013605Y003108D03*
X013608Y003115D03*
X013610Y003123D03*
X013613Y003130D03*
X013615Y003135D03*
X013618Y003143D03*
X013620Y003150D03*
X013623Y003158D03*
X013625Y003163D03*
X013628Y003170D03*
X013630Y003178D03*
X013633Y003185D03*
X013635Y003190D03*
X013638Y003198D03*
X013640Y003205D03*
X013643Y003213D03*
X013645Y003218D03*
X013648Y003225D03*
X013650Y003233D03*
X013653Y003240D03*
X013655Y003245D03*
X013658Y003253D03*
X013660Y003260D03*
X013663Y003268D03*
X013665Y003273D03*
X013668Y003280D03*
X013670Y003288D03*
X013673Y003293D03*
X013673Y003295D03*
X013675Y003300D03*
X013678Y003308D03*
X013680Y003315D03*
X013683Y003320D03*
X013683Y003323D03*
X013685Y003328D03*
X013688Y003335D03*
X013690Y003343D03*
X013693Y003348D03*
X013693Y003350D03*
X013695Y003355D03*
X013698Y003363D03*
X013700Y003370D03*
X013703Y003375D03*
X013703Y003378D03*
X013705Y003383D03*
X013708Y003390D03*
X013710Y003398D03*
X013713Y003403D03*
X013713Y003405D03*
X013715Y003410D03*
X013600Y003095D03*
X013598Y003088D03*
X013595Y003080D03*
X013593Y003075D03*
X013590Y003068D03*
X013588Y003060D03*
X013585Y003053D03*
X013583Y003048D03*
X013580Y003040D03*
X013578Y003033D03*
X013575Y003028D03*
X013575Y003025D03*
X013573Y003020D03*
X013570Y003013D03*
X014258Y002803D03*
X014525Y002998D03*
X014528Y003003D03*
X014530Y003008D03*
X014595Y003215D03*
D24*
X014489Y002940D03*
X014151Y002933D03*
X014281Y003288D03*
X014284Y003290D03*
X013354Y003365D03*
X013354Y003368D03*
X013354Y003370D03*
X012129Y003293D03*
X011821Y003290D03*
X011819Y003288D03*
X011689Y002935D03*
X011804Y002805D03*
X011989Y002923D03*
X011084Y003378D03*
X011084Y003380D03*
X016601Y002825D03*
X016601Y002823D03*
D25*
X014595Y003283D03*
X014258Y003268D03*
X014255Y003265D03*
X014253Y003263D03*
X014143Y002958D03*
X014143Y002955D03*
X014258Y002805D03*
X014500Y002955D03*
X013355Y003385D03*
X013355Y003388D03*
X013355Y003390D03*
X012138Y003275D03*
X012138Y003273D03*
X012013Y002943D03*
X012010Y002940D03*
X012008Y002938D03*
X011680Y002958D03*
X011680Y002960D03*
X011090Y003395D03*
X011090Y003398D03*
X010308Y003285D03*
X010235Y003148D03*
X010195Y003028D03*
D26*
X011074Y003350D03*
X011074Y003353D03*
X011704Y002915D03*
X011804Y002808D03*
X012116Y003308D03*
X013351Y003330D03*
X013351Y003333D03*
X013351Y003335D03*
X013499Y002888D03*
X014166Y002915D03*
X014474Y002925D03*
X016614Y002858D03*
D27*
X016605Y002833D03*
X016603Y002828D03*
X014585Y003300D03*
X014288Y003293D03*
X014153Y002930D03*
X014258Y002808D03*
X013495Y002855D03*
X013495Y002858D03*
X013353Y003360D03*
X013353Y003363D03*
X012128Y003295D03*
X011825Y003293D03*
X011690Y002933D03*
X011693Y002930D03*
X011985Y002920D03*
X011083Y003375D03*
X010300Y003300D03*
X010188Y003038D03*
D28*
X010198Y002990D03*
X010198Y002988D03*
X010198Y002985D03*
X010198Y002983D03*
X010198Y002980D03*
X010195Y002970D03*
X010195Y002968D03*
X010160Y002820D03*
X010160Y002818D03*
X010160Y002815D03*
X010160Y002813D03*
X010160Y002810D03*
X009838Y002920D03*
X009838Y002923D03*
X009840Y002928D03*
X009843Y002935D03*
X009845Y002943D03*
X009848Y002948D03*
X009848Y002950D03*
X009850Y002955D03*
X009853Y002963D03*
X009855Y002970D03*
X009858Y002975D03*
X009858Y002978D03*
X009860Y002983D03*
X009863Y002990D03*
X009865Y002998D03*
X009868Y003003D03*
X009868Y003005D03*
X009870Y003010D03*
X009873Y003018D03*
X009875Y003025D03*
X009878Y003030D03*
X009878Y003033D03*
X009880Y003038D03*
X009835Y002915D03*
X009833Y002908D03*
X009830Y002900D03*
X009828Y002895D03*
X009828Y002893D03*
X009825Y002888D03*
X009823Y002880D03*
X009820Y002873D03*
X009818Y002868D03*
X009818Y002865D03*
X009815Y002860D03*
X009813Y002853D03*
X009810Y002845D03*
X009808Y002840D03*
X009808Y002838D03*
X009805Y002833D03*
X009803Y002825D03*
X009800Y002818D03*
X009798Y002813D03*
X009798Y002810D03*
X010258Y003165D03*
X010260Y003168D03*
X010263Y003170D03*
X010265Y003173D03*
X010268Y003175D03*
X010268Y003178D03*
X010270Y003180D03*
X010273Y003183D03*
X010275Y003188D03*
X010278Y003190D03*
X010280Y003195D03*
X010283Y003200D03*
X010285Y003203D03*
X010285Y003205D03*
X010288Y003208D03*
X010288Y003210D03*
X010290Y003213D03*
X010290Y003215D03*
X010293Y003218D03*
X010293Y003220D03*
X010295Y003225D03*
X010298Y003230D03*
X010298Y003233D03*
X010300Y003238D03*
X010743Y002925D03*
X010745Y002928D03*
X010750Y002935D03*
X010753Y002938D03*
X010755Y002943D03*
X010758Y002945D03*
X010763Y002953D03*
X010775Y002970D03*
X010740Y002920D03*
X010738Y002918D03*
X010735Y002913D03*
X010733Y002910D03*
X010730Y002908D03*
X010730Y002905D03*
X010728Y002903D03*
X010725Y002900D03*
X010723Y002895D03*
X010720Y002893D03*
X010718Y002890D03*
X010718Y002888D03*
X010715Y002885D03*
X010713Y002883D03*
X010710Y002878D03*
X010708Y002875D03*
X010705Y002873D03*
X010705Y002870D03*
X010703Y002868D03*
X010700Y002865D03*
X010698Y002860D03*
X010695Y002858D03*
X010693Y002853D03*
X010690Y002850D03*
X010685Y002843D03*
X010683Y002840D03*
X010680Y002835D03*
X010678Y002833D03*
X010673Y002825D03*
X010668Y002818D03*
X011093Y002943D03*
X011093Y002945D03*
X011093Y002948D03*
X011093Y002950D03*
X011093Y002953D03*
X011093Y002955D03*
X011093Y002958D03*
X011093Y002960D03*
X011093Y002963D03*
X011093Y002965D03*
X011093Y002968D03*
X011093Y002970D03*
X011093Y002973D03*
X011093Y002975D03*
X011093Y002978D03*
X011093Y002980D03*
X011093Y002983D03*
X011093Y002985D03*
X011093Y002988D03*
X011093Y002990D03*
X011093Y002993D03*
X011093Y002995D03*
X011093Y002998D03*
X011093Y003000D03*
X011093Y003003D03*
X011093Y003005D03*
X011095Y003025D03*
X011095Y003028D03*
X011095Y003030D03*
X011095Y003033D03*
X011095Y003035D03*
X011095Y003038D03*
X011095Y003040D03*
X011095Y003043D03*
X011095Y003045D03*
X011095Y003048D03*
X011095Y003050D03*
X011095Y003053D03*
X011095Y003055D03*
X011095Y003058D03*
X011095Y003060D03*
X011095Y003063D03*
X011095Y003065D03*
X011095Y003068D03*
X011685Y003063D03*
X011688Y003073D03*
X011690Y003083D03*
X011693Y003090D03*
X011695Y003098D03*
X011698Y003105D03*
X011700Y003113D03*
X011703Y003118D03*
X011705Y003125D03*
X011708Y003130D03*
X011713Y003143D03*
X011715Y003148D03*
X011718Y003153D03*
X012050Y002988D03*
X012055Y002995D03*
X012058Y003000D03*
X012060Y003003D03*
X012060Y003005D03*
X012063Y003008D03*
X012065Y003013D03*
X012068Y003015D03*
X012070Y003020D03*
X012073Y003025D03*
X012075Y003030D03*
X012140Y003225D03*
X012140Y003228D03*
X012140Y003230D03*
X012140Y003233D03*
X012140Y003235D03*
X012140Y003238D03*
X012028Y003420D03*
X012663Y003110D03*
X012665Y003115D03*
X012668Y003123D03*
X012670Y003130D03*
X012673Y003138D03*
X012675Y003143D03*
X012678Y003150D03*
X012680Y003158D03*
X012683Y003165D03*
X012685Y003170D03*
X012688Y003178D03*
X012690Y003185D03*
X012693Y003193D03*
X012695Y003198D03*
X012698Y003205D03*
X012700Y003213D03*
X012703Y003220D03*
X012705Y003225D03*
X012708Y003233D03*
X012710Y003240D03*
X012713Y003248D03*
X012715Y003253D03*
X012718Y003260D03*
X012720Y003268D03*
X012723Y003275D03*
X012725Y003280D03*
X012728Y003288D03*
X012730Y003295D03*
X012733Y003303D03*
X012735Y003308D03*
X012738Y003315D03*
X012740Y003323D03*
X012743Y003330D03*
X012745Y003335D03*
X012748Y003343D03*
X012750Y003350D03*
X012753Y003358D03*
X012755Y003363D03*
X012758Y003370D03*
X012760Y003378D03*
X012763Y003383D03*
X012763Y003385D03*
X012765Y003390D03*
X012768Y003398D03*
X012770Y003405D03*
X012773Y003410D03*
X012660Y003103D03*
X012658Y003095D03*
X012655Y003088D03*
X012653Y003083D03*
X012650Y003075D03*
X012648Y003068D03*
X012645Y003060D03*
X012643Y003055D03*
X012640Y003048D03*
X012638Y003040D03*
X012635Y003033D03*
X012633Y003028D03*
X012630Y003020D03*
X012628Y003013D03*
X012625Y003005D03*
X012623Y003000D03*
X012620Y002993D03*
X012618Y002985D03*
X012615Y002978D03*
X012613Y002973D03*
X012610Y002965D03*
X012608Y002958D03*
X012605Y002953D03*
X012605Y002950D03*
X012603Y002945D03*
X012600Y002938D03*
X012598Y002930D03*
X012595Y002925D03*
X012595Y002923D03*
X012593Y002918D03*
X012590Y002910D03*
X012588Y002903D03*
X012585Y002898D03*
X012585Y002895D03*
X012583Y002890D03*
X012580Y002883D03*
X012578Y002875D03*
X012575Y002870D03*
X012575Y002868D03*
X012573Y002863D03*
X012570Y002855D03*
X012568Y002848D03*
X012565Y002843D03*
X012565Y002840D03*
X012563Y002835D03*
X012560Y002828D03*
X012558Y002820D03*
X012555Y002815D03*
X012555Y002813D03*
X013443Y003025D03*
X013443Y003028D03*
X013443Y003030D03*
X013440Y003038D03*
X013440Y003040D03*
X013438Y003048D03*
X013438Y003050D03*
X013438Y003053D03*
X013435Y003060D03*
X013435Y003063D03*
X013433Y003070D03*
X013433Y003073D03*
X013433Y003075D03*
X013430Y003083D03*
X013430Y003085D03*
X013428Y003093D03*
X013428Y003095D03*
X013428Y003098D03*
X013425Y003105D03*
X013425Y003108D03*
X013423Y003118D03*
X013423Y003120D03*
X013420Y003128D03*
X013420Y003130D03*
X013420Y003133D03*
X013418Y003140D03*
X013418Y003143D03*
X013415Y003150D03*
X013415Y003153D03*
X013415Y003155D03*
X013413Y003163D03*
X013413Y003165D03*
X013410Y003173D03*
X013410Y003175D03*
X013410Y003178D03*
X013408Y003185D03*
X013408Y003188D03*
X013405Y003195D03*
X013405Y003198D03*
X013405Y003200D03*
X013403Y003208D03*
X013403Y003210D03*
X013445Y003018D03*
X013445Y003015D03*
X013448Y003008D03*
X014150Y003075D03*
X014153Y003085D03*
X014155Y003093D03*
X014158Y003100D03*
X014160Y003108D03*
X014163Y003113D03*
X014165Y003120D03*
X014170Y003133D03*
X014173Y003138D03*
X014518Y002985D03*
X014518Y002983D03*
X014520Y002988D03*
X014523Y002993D03*
X014600Y003240D03*
X014600Y003243D03*
X014600Y003245D03*
X015643Y002925D03*
X015645Y002933D03*
X015648Y002940D03*
X015650Y002945D03*
X015650Y002948D03*
X015653Y002953D03*
X015655Y002960D03*
X015658Y002968D03*
X015660Y002973D03*
X015660Y002975D03*
X015663Y002980D03*
X015665Y002988D03*
X015668Y002995D03*
X015670Y003000D03*
X015670Y003003D03*
X015673Y003008D03*
X015675Y003015D03*
X015678Y003023D03*
X015680Y003028D03*
X015680Y003030D03*
X015683Y003035D03*
X015685Y003043D03*
X015688Y003050D03*
X015690Y003055D03*
X015690Y003058D03*
X015693Y003063D03*
X016600Y003010D03*
X016600Y003008D03*
X016600Y003005D03*
X016600Y003003D03*
X016600Y003000D03*
X016603Y003043D03*
X016603Y003045D03*
X016603Y003048D03*
X016605Y003083D03*
X016605Y003085D03*
X016735Y003003D03*
X016740Y003010D03*
X016745Y003018D03*
X016750Y003025D03*
X016755Y003033D03*
X016760Y003040D03*
X016765Y003048D03*
X016770Y003055D03*
X016775Y003063D03*
X016730Y002995D03*
D29*
X016731Y002998D03*
X016734Y003000D03*
X016736Y003005D03*
X016739Y003008D03*
X016741Y003013D03*
X016744Y003015D03*
X016746Y003020D03*
X016749Y003023D03*
X016751Y003028D03*
X016754Y003030D03*
X016756Y003035D03*
X016759Y003038D03*
X016761Y003043D03*
X016764Y003045D03*
X016766Y003050D03*
X016769Y003053D03*
X016771Y003058D03*
X016774Y003060D03*
X016776Y003065D03*
X016779Y003068D03*
X016781Y003070D03*
X016781Y003073D03*
X016784Y003075D03*
X016786Y003078D03*
X016786Y003080D03*
X016789Y003083D03*
X016791Y003085D03*
X016791Y003088D03*
X016794Y003090D03*
X016796Y003093D03*
X016796Y003095D03*
X016799Y003098D03*
X016801Y003100D03*
X016801Y003103D03*
X016804Y003105D03*
X016806Y003108D03*
X016806Y003110D03*
X016809Y003113D03*
X016811Y003115D03*
X016811Y003118D03*
X016814Y003120D03*
X016816Y003123D03*
X016816Y003125D03*
X016819Y003128D03*
X016821Y003130D03*
X016821Y003133D03*
X016824Y003135D03*
X016826Y003138D03*
X016826Y003140D03*
X016829Y003143D03*
X016831Y003145D03*
X016831Y003148D03*
X016834Y003150D03*
X016836Y003153D03*
X016836Y003155D03*
X016839Y003158D03*
X016841Y003160D03*
X016844Y003165D03*
X016846Y003168D03*
X016849Y003173D03*
X016851Y003175D03*
X016854Y003180D03*
X016856Y003183D03*
X016859Y003188D03*
X016861Y003190D03*
X016864Y003195D03*
X016866Y003198D03*
X016869Y003203D03*
X016871Y003205D03*
X016874Y003210D03*
X016876Y003213D03*
X016879Y003218D03*
X016881Y003220D03*
X016884Y003225D03*
X016886Y003228D03*
X016889Y003233D03*
X016891Y003235D03*
X016894Y003240D03*
X016896Y003243D03*
X016899Y003248D03*
X016901Y003250D03*
X016906Y003258D03*
X016911Y003265D03*
X016916Y003273D03*
X016921Y003280D03*
X016926Y003288D03*
X016931Y003295D03*
X016936Y003303D03*
X016941Y003310D03*
X016946Y003318D03*
X016951Y003325D03*
X016956Y003333D03*
X016961Y003340D03*
X016624Y003375D03*
X016624Y003378D03*
X016624Y003380D03*
X016624Y003383D03*
X016624Y003385D03*
X016624Y003388D03*
X016621Y003350D03*
X016621Y003348D03*
X016621Y003345D03*
X016621Y003343D03*
X016621Y003340D03*
X016621Y003338D03*
X016621Y003335D03*
X016619Y003313D03*
X016619Y003310D03*
X016619Y003308D03*
X016619Y003305D03*
X016619Y003303D03*
X016619Y003300D03*
X016619Y003298D03*
X016619Y003295D03*
X016619Y003293D03*
X016616Y003275D03*
X016616Y003273D03*
X016616Y003270D03*
X016616Y003268D03*
X016616Y003265D03*
X016616Y003263D03*
X016616Y003260D03*
X016616Y003258D03*
X016616Y003255D03*
X016616Y003253D03*
X016616Y003250D03*
X016614Y003238D03*
X016614Y003235D03*
X016614Y003233D03*
X016614Y003230D03*
X016614Y003228D03*
X016614Y003225D03*
X016614Y003223D03*
X016614Y003220D03*
X016614Y003218D03*
X016614Y003215D03*
X016614Y003213D03*
X016614Y003210D03*
X016611Y003200D03*
X016611Y003198D03*
X016611Y003195D03*
X016611Y003193D03*
X016611Y003190D03*
X016611Y003188D03*
X016611Y003185D03*
X016611Y003183D03*
X016611Y003180D03*
X016611Y003178D03*
X016611Y003175D03*
X016611Y003173D03*
X016611Y003170D03*
X016611Y003168D03*
X016609Y003160D03*
X016609Y003158D03*
X016609Y003155D03*
X016609Y003153D03*
X016609Y003150D03*
X016609Y003148D03*
X016609Y003145D03*
X016609Y003143D03*
X016609Y003140D03*
X016609Y003138D03*
X016609Y003135D03*
X016609Y003133D03*
X016609Y003130D03*
X016609Y003128D03*
X016609Y003125D03*
X016606Y003123D03*
X016606Y003120D03*
X016606Y003118D03*
X016606Y003115D03*
X016606Y003113D03*
X016606Y003110D03*
X016606Y003108D03*
X016606Y003105D03*
X016606Y003103D03*
X016606Y003100D03*
X016606Y003098D03*
X016606Y003095D03*
X016606Y003093D03*
X016606Y003090D03*
X016606Y003088D03*
X016604Y003080D03*
X016604Y003078D03*
X016604Y003075D03*
X016604Y003073D03*
X016604Y003070D03*
X016604Y003068D03*
X016604Y003065D03*
X016604Y003063D03*
X016604Y003060D03*
X016604Y003058D03*
X016604Y003055D03*
X016604Y003053D03*
X016604Y003050D03*
X016601Y003040D03*
X016601Y003038D03*
X016601Y003035D03*
X016601Y003033D03*
X016601Y003030D03*
X016601Y003028D03*
X016601Y003025D03*
X016601Y003023D03*
X016601Y003020D03*
X016601Y003018D03*
X016601Y003015D03*
X016601Y003013D03*
X016599Y002998D03*
X016599Y002995D03*
X016599Y002993D03*
X016599Y002990D03*
X016726Y002990D03*
X016729Y002993D03*
X015694Y003065D03*
X015694Y003068D03*
X015691Y003060D03*
X015689Y003053D03*
X015686Y003048D03*
X015686Y003045D03*
X015684Y003040D03*
X015684Y003038D03*
X015681Y003033D03*
X015679Y003025D03*
X015676Y003020D03*
X015676Y003018D03*
X015674Y003013D03*
X015674Y003010D03*
X015671Y003005D03*
X015669Y002998D03*
X015666Y002993D03*
X015666Y002990D03*
X015664Y002985D03*
X015664Y002983D03*
X015661Y002978D03*
X015659Y002970D03*
X015656Y002965D03*
X015656Y002963D03*
X015654Y002958D03*
X015654Y002955D03*
X015651Y002950D03*
X015649Y002943D03*
X015646Y002938D03*
X015646Y002935D03*
X015644Y002930D03*
X015644Y002928D03*
X015641Y002923D03*
X015641Y002920D03*
X014599Y003248D03*
X014599Y003250D03*
X014599Y003253D03*
X014599Y003255D03*
X014516Y002980D03*
X014514Y002978D03*
X014149Y003068D03*
X014149Y003070D03*
X014149Y003073D03*
X014151Y003078D03*
X014151Y003080D03*
X014151Y003083D03*
X014154Y003088D03*
X014154Y003090D03*
X014156Y003095D03*
X014156Y003098D03*
X014159Y003103D03*
X014159Y003105D03*
X014161Y003110D03*
X014164Y003115D03*
X014164Y003118D03*
X014166Y003123D03*
X014166Y003125D03*
X014169Y003128D03*
X014169Y003130D03*
X014171Y003135D03*
X014174Y003140D03*
X014174Y003143D03*
X014176Y003145D03*
X014176Y003148D03*
X014179Y003150D03*
X014179Y003153D03*
X014181Y003155D03*
X014181Y003158D03*
X014184Y003160D03*
X014184Y003163D03*
X014186Y003165D03*
X014186Y003168D03*
X014189Y003170D03*
X014189Y003173D03*
X014191Y003175D03*
X014191Y003178D03*
X014194Y003180D03*
X014194Y003183D03*
X014196Y003185D03*
X014199Y003190D03*
X014201Y003195D03*
X014204Y003198D03*
X014206Y003203D03*
X014211Y003210D03*
X014146Y003065D03*
X014146Y003063D03*
X014146Y003060D03*
X014146Y003058D03*
X014144Y003055D03*
X014144Y003053D03*
X014144Y003050D03*
X014144Y003048D03*
X014144Y003045D03*
X014141Y003043D03*
X014141Y003040D03*
X014141Y003038D03*
X014141Y003035D03*
X014141Y003033D03*
X014139Y003023D03*
X014139Y003020D03*
X014139Y003018D03*
X014139Y003015D03*
X013491Y002810D03*
X013356Y003408D03*
X013356Y003410D03*
X012771Y003408D03*
X012769Y003403D03*
X012769Y003400D03*
X012766Y003395D03*
X012766Y003393D03*
X012764Y003388D03*
X012761Y003380D03*
X012759Y003375D03*
X012759Y003373D03*
X012756Y003368D03*
X012756Y003365D03*
X012754Y003360D03*
X012751Y003355D03*
X012751Y003353D03*
X012749Y003348D03*
X012749Y003345D03*
X012746Y003340D03*
X012746Y003338D03*
X012744Y003333D03*
X012741Y003328D03*
X012741Y003325D03*
X012739Y003320D03*
X012739Y003318D03*
X012736Y003313D03*
X012736Y003310D03*
X012734Y003305D03*
X012731Y003300D03*
X012731Y003298D03*
X012729Y003293D03*
X012729Y003290D03*
X012726Y003285D03*
X012726Y003283D03*
X012724Y003278D03*
X012721Y003273D03*
X012721Y003270D03*
X012719Y003265D03*
X012719Y003263D03*
X012716Y003258D03*
X012716Y003255D03*
X012714Y003250D03*
X012711Y003245D03*
X012711Y003243D03*
X012709Y003238D03*
X012709Y003235D03*
X012706Y003230D03*
X012706Y003228D03*
X012704Y003223D03*
X012701Y003218D03*
X012701Y003215D03*
X012699Y003210D03*
X012699Y003208D03*
X012696Y003203D03*
X012696Y003200D03*
X012694Y003195D03*
X012691Y003190D03*
X012691Y003188D03*
X012689Y003183D03*
X012689Y003180D03*
X012686Y003175D03*
X012686Y003173D03*
X012684Y003168D03*
X012681Y003163D03*
X012681Y003160D03*
X012679Y003155D03*
X012679Y003153D03*
X012676Y003148D03*
X012676Y003145D03*
X012674Y003140D03*
X012671Y003135D03*
X012671Y003133D03*
X012669Y003128D03*
X012669Y003125D03*
X012666Y003120D03*
X012666Y003118D03*
X012664Y003113D03*
X012661Y003108D03*
X012661Y003105D03*
X012659Y003100D03*
X012659Y003098D03*
X012656Y003093D03*
X012656Y003090D03*
X012654Y003085D03*
X012651Y003080D03*
X012651Y003078D03*
X012649Y003073D03*
X012649Y003070D03*
X012646Y003065D03*
X012646Y003063D03*
X012644Y003058D03*
X012641Y003053D03*
X012641Y003050D03*
X012639Y003045D03*
X012639Y003043D03*
X012636Y003038D03*
X012636Y003035D03*
X012634Y003030D03*
X012631Y003025D03*
X012631Y003023D03*
X012629Y003018D03*
X012629Y003015D03*
X012626Y003010D03*
X012626Y003008D03*
X012624Y003003D03*
X012621Y002998D03*
X012621Y002995D03*
X012619Y002990D03*
X012619Y002988D03*
X012616Y002983D03*
X012616Y002980D03*
X012614Y002975D03*
X012611Y002970D03*
X012611Y002968D03*
X012609Y002963D03*
X012609Y002960D03*
X012606Y002955D03*
X012604Y002948D03*
X012601Y002943D03*
X012601Y002940D03*
X012599Y002935D03*
X012599Y002933D03*
X012596Y002928D03*
X012594Y002920D03*
X012591Y002915D03*
X012591Y002913D03*
X012589Y002908D03*
X012589Y002905D03*
X012586Y002900D03*
X012584Y002893D03*
X012581Y002888D03*
X012581Y002885D03*
X012579Y002880D03*
X012579Y002878D03*
X012576Y002873D03*
X012574Y002865D03*
X012571Y002860D03*
X012571Y002858D03*
X012569Y002853D03*
X012569Y002850D03*
X012566Y002845D03*
X012564Y002838D03*
X012561Y002833D03*
X012561Y002830D03*
X012559Y002825D03*
X012559Y002823D03*
X012556Y002818D03*
X012554Y002810D03*
X012056Y002998D03*
X012054Y002993D03*
X012051Y002990D03*
X012049Y002985D03*
X012046Y002983D03*
X012041Y002975D03*
X012141Y003240D03*
X012141Y003243D03*
X012141Y003245D03*
X012141Y003248D03*
X012141Y003250D03*
X011751Y003213D03*
X011746Y003205D03*
X011741Y003198D03*
X011739Y003193D03*
X011736Y003188D03*
X011734Y003185D03*
X011734Y003183D03*
X011731Y003180D03*
X011729Y003175D03*
X011726Y003170D03*
X011724Y003168D03*
X011724Y003165D03*
X011721Y003163D03*
X011721Y003160D03*
X011719Y003158D03*
X011719Y003155D03*
X011716Y003150D03*
X011714Y003145D03*
X011711Y003140D03*
X011711Y003138D03*
X011709Y003135D03*
X011709Y003133D03*
X011706Y003128D03*
X011704Y003123D03*
X011704Y003120D03*
X011701Y003115D03*
X011699Y003110D03*
X011699Y003108D03*
X011696Y003103D03*
X011696Y003100D03*
X011694Y003095D03*
X011694Y003093D03*
X011691Y003088D03*
X011691Y003085D03*
X011689Y003080D03*
X011689Y003078D03*
X011689Y003075D03*
X011686Y003070D03*
X011686Y003068D03*
X011686Y003065D03*
X011684Y003060D03*
X011684Y003058D03*
X011684Y003055D03*
X011684Y003053D03*
X011681Y003050D03*
X011681Y003048D03*
X011681Y003045D03*
X011681Y003043D03*
X011679Y003038D03*
X011679Y003035D03*
X011679Y003033D03*
X011679Y003030D03*
X011679Y003028D03*
X011091Y002940D03*
X011091Y002938D03*
X011091Y002935D03*
X011091Y002933D03*
X011091Y002930D03*
X011091Y002928D03*
X011091Y002925D03*
X011091Y002923D03*
X011091Y002920D03*
X011091Y002918D03*
X011091Y002915D03*
X011091Y002913D03*
X011091Y002910D03*
X011091Y002908D03*
X011091Y002905D03*
X011091Y002903D03*
X011091Y002900D03*
X011091Y002898D03*
X011091Y002895D03*
X011091Y002893D03*
X011091Y002890D03*
X011091Y002888D03*
X011091Y002885D03*
X011091Y002883D03*
X011091Y002880D03*
X011091Y002878D03*
X011089Y002823D03*
X011089Y002820D03*
X011089Y002818D03*
X011089Y002815D03*
X010711Y002880D03*
X010699Y002863D03*
X010694Y002855D03*
X010689Y002848D03*
X010686Y002845D03*
X010681Y002838D03*
X010676Y002830D03*
X010674Y002828D03*
X010671Y002823D03*
X010669Y002820D03*
X010666Y002815D03*
X010664Y002813D03*
X010661Y002810D03*
X010294Y003223D03*
X010296Y003228D03*
X010299Y003235D03*
X010301Y003240D03*
X010301Y003243D03*
X010301Y003245D03*
X010304Y003248D03*
X010304Y003250D03*
X010304Y003253D03*
X010199Y003005D03*
X010199Y003003D03*
X010199Y003000D03*
X010199Y002998D03*
X010199Y002995D03*
X010199Y002993D03*
X009884Y003045D03*
X009881Y003043D03*
X009881Y003040D03*
X009879Y003035D03*
X009876Y003028D03*
X009874Y003023D03*
X009874Y003020D03*
X009871Y003015D03*
X009871Y003013D03*
X009869Y003008D03*
X009866Y003000D03*
X009864Y002995D03*
X009864Y002993D03*
X009861Y002988D03*
X009861Y002985D03*
X009859Y002980D03*
X009856Y002973D03*
X009854Y002968D03*
X009854Y002965D03*
X009851Y002960D03*
X009851Y002958D03*
X009849Y002953D03*
X009846Y002945D03*
X009844Y002940D03*
X009844Y002938D03*
X009841Y002933D03*
X009841Y002930D03*
X009839Y002925D03*
X009836Y002918D03*
X009834Y002913D03*
X009834Y002910D03*
X009831Y002905D03*
X009831Y002903D03*
X009829Y002898D03*
X009826Y002890D03*
X009824Y002885D03*
X009824Y002883D03*
X009821Y002878D03*
X009821Y002875D03*
X009819Y002870D03*
X009816Y002863D03*
X009814Y002858D03*
X009814Y002855D03*
X009811Y002850D03*
X009811Y002848D03*
X009809Y002843D03*
X009806Y002835D03*
X009804Y002830D03*
X009804Y002828D03*
X009801Y002823D03*
X009801Y002820D03*
X009799Y002815D03*
D30*
X010250Y003158D03*
X010253Y003160D03*
X010255Y003163D03*
X010305Y003255D03*
X010305Y003258D03*
X010305Y003260D03*
X011095Y003410D03*
X011090Y002875D03*
X011090Y002873D03*
X011090Y002870D03*
X011090Y002868D03*
X011090Y002865D03*
X011090Y002863D03*
X011090Y002860D03*
X011090Y002858D03*
X011090Y002855D03*
X011090Y002853D03*
X011090Y002850D03*
X011090Y002848D03*
X011090Y002845D03*
X011090Y002843D03*
X011090Y002840D03*
X011090Y002838D03*
X011090Y002835D03*
X011090Y002833D03*
X011090Y002830D03*
X011090Y002828D03*
X011090Y002825D03*
X011088Y002813D03*
X011088Y002810D03*
X011678Y003008D03*
X011678Y003010D03*
X011678Y003013D03*
X011678Y003015D03*
X011678Y003018D03*
X011678Y003020D03*
X011678Y003023D03*
X011678Y003025D03*
X011680Y003040D03*
X011728Y003173D03*
X011730Y003178D03*
X011738Y003190D03*
X011740Y003195D03*
X011743Y003200D03*
X011745Y003203D03*
X011748Y003208D03*
X011750Y003210D03*
X011753Y003215D03*
X011755Y003218D03*
X011758Y003223D03*
X011760Y003225D03*
X012043Y002978D03*
X012045Y002980D03*
X012040Y002973D03*
X012038Y002970D03*
X012035Y002968D03*
X012140Y003253D03*
X012140Y003255D03*
X012140Y003258D03*
X013355Y003405D03*
X013493Y002818D03*
X013493Y002815D03*
X013493Y002813D03*
X014138Y002995D03*
X014138Y002998D03*
X014138Y003000D03*
X014138Y003003D03*
X014138Y003005D03*
X014138Y003008D03*
X014138Y003010D03*
X014138Y003013D03*
X014140Y003025D03*
X014140Y003028D03*
X014140Y003030D03*
X014198Y003188D03*
X014200Y003193D03*
X014205Y003200D03*
X014208Y003205D03*
X014210Y003208D03*
X014213Y003213D03*
X014215Y003215D03*
X014218Y003218D03*
X014218Y003220D03*
X014220Y003223D03*
X014228Y003233D03*
X014600Y003258D03*
X014600Y003260D03*
X014513Y002975D03*
X014510Y002970D03*
X016610Y003163D03*
X016610Y003165D03*
X016613Y003203D03*
X016613Y003205D03*
X016613Y003208D03*
X016615Y003240D03*
X016615Y003243D03*
X016615Y003245D03*
X016615Y003248D03*
X016618Y003278D03*
X016618Y003280D03*
X016618Y003283D03*
X016618Y003285D03*
X016618Y003288D03*
X016618Y003290D03*
X016620Y003315D03*
X016620Y003318D03*
X016620Y003320D03*
X016620Y003323D03*
X016620Y003325D03*
X016620Y003328D03*
X016620Y003330D03*
X016620Y003333D03*
X016623Y003353D03*
X016623Y003355D03*
X016623Y003358D03*
X016623Y003360D03*
X016623Y003363D03*
X016623Y003365D03*
X016623Y003368D03*
X016623Y003370D03*
X016623Y003373D03*
X016625Y003390D03*
X016625Y003393D03*
X016625Y003395D03*
X016625Y003398D03*
X016625Y003400D03*
X016625Y003403D03*
X016625Y003405D03*
X016625Y003408D03*
X016625Y003410D03*
X016888Y003230D03*
X016893Y003238D03*
X016898Y003245D03*
X016903Y003253D03*
X016905Y003255D03*
X016908Y003260D03*
X016910Y003263D03*
X016913Y003268D03*
X016915Y003270D03*
X016918Y003275D03*
X016920Y003278D03*
X016923Y003283D03*
X016925Y003285D03*
X016928Y003290D03*
X016930Y003293D03*
X016933Y003298D03*
X016935Y003300D03*
X016938Y003305D03*
X016940Y003308D03*
X016943Y003313D03*
X016945Y003315D03*
X016948Y003320D03*
X016950Y003323D03*
X016953Y003328D03*
X016955Y003330D03*
X016958Y003335D03*
X016960Y003338D03*
X016963Y003343D03*
X016965Y003345D03*
X016968Y003348D03*
X016968Y003350D03*
X016970Y003353D03*
X016973Y003355D03*
X016973Y003358D03*
X016975Y003360D03*
X016978Y003363D03*
X016978Y003365D03*
X016980Y003368D03*
X016983Y003370D03*
X016983Y003373D03*
X016985Y003375D03*
X016988Y003378D03*
X016988Y003380D03*
X016990Y003383D03*
X016993Y003385D03*
X016993Y003388D03*
X016995Y003390D03*
X016998Y003393D03*
X016998Y003395D03*
X017000Y003398D03*
X017003Y003400D03*
X017003Y003403D03*
X017005Y003405D03*
X017008Y003408D03*
X017008Y003410D03*
X016883Y003223D03*
X016878Y003215D03*
X016873Y003208D03*
X016868Y003200D03*
X016863Y003193D03*
X016858Y003185D03*
X016853Y003178D03*
X016848Y003170D03*
X016843Y003163D03*
D31*
X016623Y002880D03*
X014173Y002910D03*
X013500Y002910D03*
X013350Y003310D03*
X013350Y003313D03*
X012110Y003313D03*
X011960Y002908D03*
X011805Y002810D03*
X011713Y002910D03*
X011068Y003333D03*
X011068Y003335D03*
D32*
X011101Y003263D03*
X011099Y003220D03*
X011099Y003218D03*
X011099Y003215D03*
X011099Y003213D03*
X011099Y003210D03*
X011099Y003208D03*
X011099Y003205D03*
X011099Y003203D03*
X011099Y003200D03*
X010976Y003255D03*
X010971Y003248D03*
X010966Y003240D03*
X010964Y003238D03*
X010959Y003230D03*
X010956Y003228D03*
X010954Y003223D03*
X010951Y003220D03*
X010949Y003215D03*
X010946Y003213D03*
X010944Y003210D03*
X010941Y003205D03*
X010939Y003203D03*
X010936Y003198D03*
X010934Y003195D03*
X010931Y003193D03*
X010931Y003190D03*
X010929Y003188D03*
X010926Y003185D03*
X010926Y003183D03*
X010924Y003180D03*
X010921Y003178D03*
X010919Y003175D03*
X010919Y003173D03*
X010916Y003170D03*
X010914Y003168D03*
X010911Y003163D03*
X010909Y003160D03*
X010906Y003155D03*
X010904Y003153D03*
X010899Y003145D03*
X010896Y003143D03*
X010894Y003138D03*
X010891Y003135D03*
X010886Y003128D03*
X010881Y003120D03*
X010874Y003110D03*
X010869Y003103D03*
X010176Y002900D03*
X010174Y002893D03*
X010169Y002875D03*
X013134Y002810D03*
X013136Y002815D03*
X013136Y002818D03*
X013139Y002823D03*
X013139Y002825D03*
X013141Y002830D03*
X013144Y002838D03*
X013146Y002843D03*
X013146Y002845D03*
X013149Y002850D03*
X013149Y002853D03*
X013151Y002858D03*
X013154Y002865D03*
X013156Y002870D03*
X013156Y002873D03*
X013159Y002878D03*
X013159Y002880D03*
X013161Y002885D03*
X013164Y002893D03*
X013166Y002898D03*
X013166Y002900D03*
X013169Y002905D03*
X013169Y002908D03*
X013171Y002913D03*
X013174Y002920D03*
X013176Y002925D03*
X013176Y002928D03*
X013179Y002933D03*
X013179Y002935D03*
X013181Y002940D03*
X013184Y002945D03*
X013184Y002948D03*
X013186Y002953D03*
X013186Y002955D03*
X013189Y002960D03*
X013189Y002963D03*
X013191Y002968D03*
X013194Y002973D03*
X013194Y002975D03*
X013196Y002980D03*
X013196Y002983D03*
X013199Y002988D03*
X013199Y002990D03*
X013201Y002995D03*
X013204Y003000D03*
X013204Y003003D03*
X013206Y003008D03*
X013206Y003010D03*
X013209Y003015D03*
X013209Y003018D03*
X013211Y003023D03*
X013214Y003028D03*
X013214Y003030D03*
X013216Y003035D03*
X013216Y003038D03*
X013219Y003043D03*
X013219Y003045D03*
X013221Y003050D03*
X013224Y003055D03*
X013224Y003058D03*
X013226Y003063D03*
X013226Y003065D03*
X013229Y003070D03*
X013229Y003073D03*
X013231Y003078D03*
X013234Y003083D03*
X013234Y003085D03*
X013236Y003090D03*
X013236Y003093D03*
X013239Y003098D03*
X013239Y003100D03*
X013241Y003105D03*
X013244Y003110D03*
X013244Y003113D03*
X013246Y003118D03*
X013246Y003120D03*
X013249Y003125D03*
X013249Y003128D03*
X013251Y003133D03*
X013254Y003138D03*
X013254Y003140D03*
X013256Y003145D03*
X013256Y003148D03*
X013259Y003153D03*
X013259Y003155D03*
X013261Y003160D03*
X013264Y003165D03*
X013264Y003168D03*
X013266Y003173D03*
X013266Y003175D03*
X013269Y003180D03*
X013269Y003183D03*
X013271Y003188D03*
X013274Y003193D03*
X013274Y003195D03*
X013276Y003200D03*
X013276Y003203D03*
X013279Y003208D03*
X013279Y003210D03*
X013601Y003100D03*
X013601Y003098D03*
X013599Y003093D03*
X013599Y003090D03*
X013596Y003085D03*
X013596Y003083D03*
X013594Y003078D03*
X013591Y003073D03*
X013591Y003070D03*
X013589Y003065D03*
X013589Y003063D03*
X013586Y003058D03*
X013586Y003055D03*
X013584Y003050D03*
X013581Y003045D03*
X013581Y003043D03*
X013579Y003038D03*
X013579Y003035D03*
X013576Y003030D03*
X013574Y003023D03*
X013571Y003018D03*
X013571Y003015D03*
X013569Y003010D03*
X013569Y003008D03*
X013604Y003105D03*
X013606Y003110D03*
X013606Y003113D03*
X013609Y003118D03*
X013609Y003120D03*
X013611Y003125D03*
X013611Y003128D03*
X013614Y003133D03*
X013616Y003138D03*
X013616Y003140D03*
X013619Y003145D03*
X013619Y003148D03*
X013621Y003153D03*
X013621Y003155D03*
X013624Y003160D03*
X013626Y003165D03*
X013626Y003168D03*
X013629Y003173D03*
X013629Y003175D03*
X013631Y003180D03*
X013631Y003183D03*
X013634Y003188D03*
X013636Y003193D03*
X013636Y003195D03*
X013639Y003200D03*
X013639Y003203D03*
X013641Y003208D03*
X013641Y003210D03*
X013644Y003215D03*
X013646Y003220D03*
X013646Y003223D03*
X013649Y003228D03*
X013649Y003230D03*
X013651Y003235D03*
X013651Y003238D03*
X013654Y003243D03*
X013656Y003248D03*
X013656Y003250D03*
X013659Y003255D03*
X013659Y003258D03*
X013661Y003263D03*
X013661Y003265D03*
X013664Y003270D03*
X013666Y003275D03*
X013666Y003278D03*
X013669Y003283D03*
X013669Y003285D03*
X013671Y003290D03*
X013674Y003298D03*
X013676Y003303D03*
X013676Y003305D03*
X013679Y003310D03*
X013679Y003313D03*
X013681Y003318D03*
X013684Y003325D03*
X013686Y003330D03*
X013686Y003333D03*
X013689Y003338D03*
X013689Y003340D03*
X013691Y003345D03*
X013694Y003353D03*
X013696Y003358D03*
X013696Y003360D03*
X013699Y003365D03*
X013699Y003368D03*
X013701Y003373D03*
X013704Y003380D03*
X013706Y003385D03*
X013706Y003388D03*
X013709Y003393D03*
X013709Y003395D03*
X013711Y003400D03*
X013714Y003408D03*
X014531Y003013D03*
X014531Y003010D03*
X014529Y003005D03*
X014534Y003015D03*
X014534Y003018D03*
X014536Y003020D03*
X014536Y003023D03*
X014539Y003028D03*
D33*
X014258Y002810D03*
X014163Y002918D03*
X014308Y003305D03*
X013498Y002885D03*
X013498Y002883D03*
X012120Y003305D03*
X011845Y003305D03*
X011973Y002913D03*
X011075Y003355D03*
X016613Y002855D03*
X016613Y002853D03*
D34*
X014481Y002825D03*
X014479Y002820D03*
X014479Y002818D03*
X014479Y002815D03*
X014476Y002810D03*
D35*
X015754Y002810D03*
X015754Y002813D03*
X015756Y002815D03*
X015756Y002818D03*
X015756Y002820D03*
X015759Y002823D03*
X015759Y002825D03*
X015759Y002828D03*
X015761Y002830D03*
X015761Y002833D03*
X015764Y002835D03*
X015764Y002838D03*
X015764Y002840D03*
X015766Y002843D03*
X015766Y002845D03*
X015766Y002848D03*
X015769Y002850D03*
X015769Y002853D03*
X015769Y002855D03*
X015771Y002858D03*
X015771Y002860D03*
X015774Y002863D03*
X015774Y002865D03*
X015774Y002868D03*
X015776Y002870D03*
X015776Y002873D03*
X015776Y002875D03*
X015779Y002878D03*
X015779Y002880D03*
X015779Y002883D03*
X015781Y002885D03*
X015781Y002888D03*
X015784Y002890D03*
X015784Y002893D03*
X015784Y002895D03*
X015786Y002898D03*
X015786Y002900D03*
X015786Y002903D03*
X015789Y002905D03*
X015789Y002908D03*
X015789Y002910D03*
X015791Y002913D03*
X015791Y002915D03*
X015794Y002918D03*
X010066Y003128D03*
X010064Y003125D03*
X010041Y003063D03*
X010041Y003060D03*
D36*
X010194Y003030D03*
X010306Y003288D03*
X010306Y003290D03*
X011089Y003393D03*
X011796Y003268D03*
X011799Y003270D03*
X011801Y003273D03*
X011804Y003275D03*
X012136Y003278D03*
X012136Y003280D03*
X011681Y002955D03*
X011681Y002953D03*
X011684Y002948D03*
X013354Y003383D03*
X013494Y002838D03*
X013494Y002835D03*
X013494Y002833D03*
X014144Y002950D03*
X014144Y002953D03*
X014261Y003270D03*
X014264Y003273D03*
X014266Y003275D03*
X014594Y003285D03*
X014594Y003288D03*
X014499Y002953D03*
X014496Y002950D03*
X016596Y002810D03*
D37*
X016630Y002900D03*
X016630Y002903D03*
X014455Y002913D03*
X013500Y002935D03*
X013348Y003283D03*
X013348Y003285D03*
X013348Y003288D03*
X012103Y003315D03*
X011805Y002813D03*
X011060Y003313D03*
D38*
X011069Y003338D03*
X013349Y003315D03*
X013499Y002908D03*
X013499Y002905D03*
X013499Y002903D03*
X014259Y002813D03*
X016619Y002873D03*
X016621Y002875D03*
X016621Y002878D03*
D39*
X014478Y002813D03*
D40*
X014495Y002948D03*
X014145Y002948D03*
X014145Y002945D03*
X014268Y003278D03*
X014488Y003418D03*
X014593Y003290D03*
X013495Y002840D03*
X013355Y003380D03*
X012135Y003283D03*
X011810Y003280D03*
X011808Y003278D03*
X011683Y002950D03*
X011685Y002945D03*
X011685Y002943D03*
X012003Y002933D03*
X012005Y002935D03*
X011088Y003388D03*
X011088Y003390D03*
X010305Y003293D03*
X010230Y003145D03*
X010193Y003033D03*
X016598Y002813D03*
D41*
X016639Y002923D03*
X016639Y002925D03*
X013346Y003263D03*
X013346Y003265D03*
X013346Y003268D03*
X011806Y002815D03*
X011054Y003295D03*
D42*
X011063Y003320D03*
X011718Y002908D03*
X013348Y003293D03*
X013348Y003295D03*
X013500Y002928D03*
X013500Y002925D03*
X013500Y002923D03*
X014180Y002908D03*
X014260Y002815D03*
X014563Y003315D03*
X016628Y002895D03*
X016628Y002893D03*
D43*
X016599Y002818D03*
X016599Y002815D03*
X014591Y003293D03*
X014274Y003283D03*
X014271Y003280D03*
X014146Y002943D03*
X014149Y002940D03*
X013494Y002845D03*
X013494Y002843D03*
X013354Y003373D03*
X013354Y003375D03*
X013354Y003378D03*
X012134Y003285D03*
X012026Y003418D03*
X011999Y002930D03*
X011996Y002928D03*
X011686Y002940D03*
X011086Y003385D03*
X010304Y003295D03*
D44*
X011048Y003278D03*
X011808Y002818D03*
X013345Y003243D03*
X013345Y003245D03*
X013505Y002978D03*
X014260Y002823D03*
X016645Y002943D03*
D45*
X016633Y002910D03*
X016633Y002908D03*
X014483Y003408D03*
X014335Y003315D03*
X014260Y002818D03*
X013503Y002943D03*
X013348Y003275D03*
X013348Y003278D03*
X011873Y003315D03*
X011058Y003308D03*
X011058Y003305D03*
D46*
X011043Y003265D03*
X011808Y002820D03*
X013343Y003225D03*
X013505Y002995D03*
X013505Y002993D03*
X016653Y002963D03*
X016653Y002960D03*
D47*
X016640Y002928D03*
X014260Y002820D03*
X013503Y002958D03*
X013503Y002960D03*
X013503Y002963D03*
X013345Y003258D03*
X013345Y003260D03*
X011053Y003293D03*
D48*
X011085Y003383D03*
X011813Y003283D03*
X011815Y003285D03*
X012130Y003290D03*
X012133Y003288D03*
X011993Y002925D03*
X011688Y002938D03*
X010303Y003298D03*
X010225Y003143D03*
X010190Y003035D03*
X013495Y002853D03*
X013495Y002850D03*
X013495Y002848D03*
X014150Y002935D03*
X014150Y002938D03*
X014490Y002943D03*
X014493Y002945D03*
X014590Y003295D03*
X014588Y003298D03*
X014278Y003285D03*
X016600Y002820D03*
D49*
X014599Y003228D03*
X014599Y003230D03*
X014599Y003233D03*
X014599Y003235D03*
X014599Y003238D03*
X014596Y003225D03*
X014596Y003223D03*
X014596Y003220D03*
X014596Y003218D03*
X014489Y003420D03*
X014526Y003000D03*
X014524Y002995D03*
X014521Y002990D03*
X013446Y003010D03*
X013446Y003013D03*
X013444Y003020D03*
X013444Y003023D03*
X013441Y003033D03*
X013441Y003035D03*
X013439Y003043D03*
X013439Y003045D03*
X013436Y003055D03*
X013436Y003058D03*
X013434Y003065D03*
X013434Y003068D03*
X013431Y003078D03*
X013431Y003080D03*
X013429Y003088D03*
X013429Y003090D03*
X013426Y003100D03*
X013426Y003103D03*
X013424Y003110D03*
X013424Y003113D03*
X013424Y003115D03*
X013421Y003123D03*
X013421Y003125D03*
X013419Y003135D03*
X013419Y003138D03*
X013416Y003145D03*
X013416Y003148D03*
X013414Y003158D03*
X013414Y003160D03*
X013411Y003168D03*
X013411Y003170D03*
X013409Y003180D03*
X013409Y003183D03*
X013406Y003190D03*
X013406Y003193D03*
X013404Y003203D03*
X013404Y003205D03*
X013401Y003213D03*
X012139Y003215D03*
X012139Y003218D03*
X012139Y003220D03*
X012139Y003223D03*
X012136Y003213D03*
X012079Y003040D03*
X012079Y003038D03*
X012076Y003035D03*
X012076Y003033D03*
X012074Y003028D03*
X012071Y003023D03*
X012069Y003018D03*
X012064Y003010D03*
X011096Y003070D03*
X011096Y003073D03*
X011096Y003075D03*
X011096Y003078D03*
X011096Y003080D03*
X011096Y003083D03*
X011096Y003085D03*
X011096Y003088D03*
X011096Y003090D03*
X011096Y003093D03*
X011096Y003095D03*
X011096Y003098D03*
X011096Y003100D03*
X011096Y003103D03*
X011096Y003105D03*
X011096Y003108D03*
X011096Y003110D03*
X011096Y003113D03*
X011096Y003115D03*
X011096Y003118D03*
X011096Y003120D03*
X011096Y003123D03*
X011096Y003125D03*
X011096Y003128D03*
X011096Y003130D03*
X011096Y003133D03*
X011094Y003023D03*
X011094Y003020D03*
X011094Y003018D03*
X011094Y003015D03*
X011094Y003013D03*
X011094Y003010D03*
X011094Y003008D03*
X010844Y003068D03*
X010839Y003060D03*
X010831Y003050D03*
X010826Y003043D03*
X010821Y003035D03*
X010819Y003033D03*
X010816Y003028D03*
X010814Y003025D03*
X010811Y003023D03*
X010809Y003018D03*
X010806Y003015D03*
X010804Y003010D03*
X010801Y003008D03*
X010799Y003005D03*
X010799Y003003D03*
X010796Y003000D03*
X010794Y002998D03*
X010794Y002995D03*
X010791Y002993D03*
X010789Y002990D03*
X010786Y002988D03*
X010786Y002985D03*
X010784Y002983D03*
X010781Y002980D03*
X010781Y002978D03*
X010779Y002975D03*
X010776Y002973D03*
X010774Y002968D03*
X010771Y002965D03*
X010769Y002963D03*
X010769Y002960D03*
X010766Y002958D03*
X010764Y002955D03*
X010761Y002950D03*
X010759Y002948D03*
X010754Y002940D03*
X010749Y002933D03*
X010746Y002930D03*
X010741Y002923D03*
X010736Y002915D03*
X010724Y002898D03*
X010279Y003193D03*
X010281Y003198D03*
X010274Y003185D03*
X010196Y002978D03*
X010196Y002975D03*
X010196Y002973D03*
X010194Y002965D03*
X010194Y002963D03*
X010194Y002960D03*
X010191Y002958D03*
X010191Y002955D03*
X010191Y002953D03*
X010191Y002950D03*
X010189Y002945D03*
X010189Y002943D03*
X010186Y002935D03*
X010166Y002865D03*
X010164Y002855D03*
X010164Y002853D03*
X010161Y002843D03*
X010161Y002840D03*
X010161Y002838D03*
X010161Y002835D03*
X010159Y002828D03*
X010159Y002825D03*
X010159Y002823D03*
D50*
X011810Y002823D03*
X016658Y002975D03*
X016658Y002978D03*
D51*
X014485Y002840D03*
X014483Y002833D03*
X014483Y002830D03*
X014483Y002828D03*
X014480Y002823D03*
D52*
X011810Y002825D03*
D53*
X012021Y003403D03*
X011044Y003268D03*
X013344Y003233D03*
X013344Y003230D03*
X013344Y003228D03*
X014261Y002825D03*
X016649Y002953D03*
X016649Y002955D03*
X016651Y002958D03*
D54*
X014478Y003393D03*
X014263Y002835D03*
X011810Y002828D03*
D55*
X011679Y002963D03*
X011679Y002965D03*
X011679Y002968D03*
X011784Y003255D03*
X011786Y003258D03*
X011789Y003260D03*
X011791Y003263D03*
X011794Y003265D03*
X012139Y003268D03*
X012139Y003270D03*
X012016Y002945D03*
X011091Y003400D03*
X010306Y003283D03*
X010239Y003150D03*
X010196Y003025D03*
X010196Y003023D03*
X013356Y003393D03*
X013494Y002830D03*
X013494Y002828D03*
X014141Y002960D03*
X014141Y002963D03*
X014141Y002965D03*
X014244Y003253D03*
X014246Y003255D03*
X014249Y003258D03*
X014251Y003260D03*
X014596Y003278D03*
X014596Y003280D03*
X014504Y002960D03*
X014501Y002958D03*
D56*
X014484Y003048D03*
X014494Y003075D03*
X014504Y003103D03*
X014261Y002828D03*
X013506Y003005D03*
X016656Y002973D03*
D57*
X014264Y002838D03*
X011811Y002830D03*
D58*
X014263Y002830D03*
X016660Y002983D03*
D59*
X016606Y002835D03*
X016604Y002830D03*
X014584Y003303D03*
X014291Y003295D03*
X014154Y002928D03*
X014484Y002935D03*
X014486Y002938D03*
X013496Y002863D03*
X013496Y002860D03*
X013354Y003358D03*
X012126Y003298D03*
X011829Y003295D03*
X011694Y002928D03*
X011081Y003373D03*
X010184Y003040D03*
D60*
X011813Y002833D03*
D61*
X014261Y002833D03*
X014479Y003395D03*
D62*
X014475Y003385D03*
X014265Y002845D03*
X011813Y002835D03*
D63*
X014484Y002838D03*
X014484Y002835D03*
X014486Y002843D03*
X014486Y002845D03*
X014486Y002848D03*
D64*
X014474Y003383D03*
X011814Y002838D03*
D65*
X011695Y002925D03*
X011983Y002918D03*
X012125Y003300D03*
X011833Y003298D03*
X011080Y003368D03*
X011080Y003370D03*
X010298Y003303D03*
X013353Y003353D03*
X013353Y003355D03*
X013495Y002865D03*
X014158Y002925D03*
X014295Y003298D03*
X016608Y002840D03*
X016608Y002838D03*
D66*
X014473Y003380D03*
X011815Y002840D03*
D67*
X012016Y003390D03*
X014264Y002840D03*
D68*
X011815Y002843D03*
D69*
X012015Y003388D03*
X014265Y002843D03*
X014475Y003388D03*
D70*
X014486Y003415D03*
X014581Y003305D03*
X014299Y003300D03*
X014159Y002923D03*
X014479Y002930D03*
X014481Y002933D03*
X013496Y002873D03*
X013496Y002870D03*
X013496Y002868D03*
X013351Y003350D03*
X011836Y003300D03*
X011696Y002923D03*
X011079Y003365D03*
X010216Y003140D03*
X016609Y002843D03*
D71*
X011816Y002845D03*
D72*
X011978Y002915D03*
X011840Y003303D03*
X012025Y003415D03*
X012123Y003303D03*
X011078Y003360D03*
X011078Y003363D03*
X010295Y003305D03*
X013353Y003345D03*
X013353Y003348D03*
X013498Y002875D03*
X014160Y002920D03*
X014303Y003303D03*
X016610Y002848D03*
X016610Y002845D03*
D73*
X011816Y002848D03*
D74*
X014265Y002848D03*
D75*
X011818Y002850D03*
D76*
X014266Y002850D03*
D77*
X014488Y002850D03*
X014488Y002853D03*
X014490Y002855D03*
X014490Y002858D03*
X014490Y002860D03*
X014493Y002868D03*
D78*
X014476Y002928D03*
X014579Y003308D03*
X013496Y002880D03*
X013496Y002878D03*
X013351Y003338D03*
X013351Y003340D03*
X013351Y003343D03*
X011701Y002918D03*
X011699Y002920D03*
X011076Y003358D03*
X010179Y003043D03*
X016611Y002850D03*
D79*
X014466Y003368D03*
X014269Y002868D03*
X011819Y002853D03*
D80*
X012011Y003380D03*
X014266Y002853D03*
D81*
X014466Y003365D03*
X011819Y002855D03*
D82*
X014266Y002855D03*
X014471Y003378D03*
D83*
X014271Y002873D03*
X012006Y003365D03*
X011819Y002858D03*
D84*
X012010Y003375D03*
X014268Y002858D03*
X014470Y003375D03*
D85*
X014271Y002875D03*
X011821Y002860D03*
X010126Y003408D03*
D86*
X014268Y002860D03*
X014470Y003373D03*
D87*
X014575Y003310D03*
X014313Y003308D03*
X014470Y002923D03*
X013498Y002893D03*
X013498Y002890D03*
X013350Y003328D03*
X011968Y002910D03*
X011850Y003308D03*
X011073Y003348D03*
X010290Y003308D03*
X016615Y002863D03*
X016615Y002860D03*
D88*
X012004Y003360D03*
X011821Y002863D03*
D89*
X012009Y003373D03*
X014269Y002863D03*
D90*
X014491Y002863D03*
X014491Y002865D03*
X014494Y002870D03*
X014494Y002873D03*
X014494Y002875D03*
D91*
X014463Y003355D03*
X011823Y002865D03*
D92*
X014269Y002865D03*
X014469Y003370D03*
D93*
X014169Y002913D03*
X013499Y002898D03*
X013499Y002895D03*
X013351Y003325D03*
X012114Y003310D03*
X011071Y003343D03*
X011071Y003345D03*
X016616Y002865D03*
D94*
X011823Y002868D03*
D95*
X011708Y002913D03*
X011855Y003310D03*
X012025Y003413D03*
X011070Y003340D03*
X013350Y003323D03*
X013350Y003320D03*
X013350Y003318D03*
X013498Y002900D03*
X014318Y003310D03*
X014485Y003413D03*
X014570Y003313D03*
X014468Y002920D03*
X016618Y002870D03*
X016618Y002868D03*
D96*
X012001Y003353D03*
X011824Y002870D03*
D97*
X014270Y002870D03*
D98*
X012001Y003350D03*
X011824Y002873D03*
D99*
X011826Y002875D03*
X011999Y003348D03*
X014459Y003345D03*
D100*
X011999Y003345D03*
X011826Y002878D03*
D101*
X010151Y003340D03*
X014319Y002878D03*
D102*
X014456Y003340D03*
X011826Y002880D03*
X010034Y003098D03*
X010031Y003090D03*
D103*
X010150Y003333D03*
X010150Y003335D03*
X010150Y003338D03*
X014318Y002880D03*
D104*
X014455Y003338D03*
X011828Y002883D03*
X010143Y003390D03*
X010038Y003100D03*
D105*
X014319Y002883D03*
D106*
X014464Y002918D03*
X013499Y002913D03*
X013349Y003305D03*
X013349Y003308D03*
X011066Y003330D03*
X010169Y003045D03*
X016624Y002885D03*
X016624Y002883D03*
D107*
X015868Y003165D03*
X015865Y003160D03*
X015863Y003153D03*
X015860Y003145D03*
X015858Y003138D03*
X015855Y003133D03*
X015853Y003125D03*
X015850Y003118D03*
X015848Y003110D03*
X015845Y003105D03*
X015843Y003098D03*
X015840Y003090D03*
X015838Y003083D03*
X015835Y003078D03*
X015833Y003070D03*
X014455Y003335D03*
X011995Y003338D03*
X011828Y002885D03*
X010040Y003103D03*
D108*
X010150Y003328D03*
X010150Y003330D03*
X014318Y002888D03*
X014318Y002885D03*
D109*
X014454Y003333D03*
X015834Y003075D03*
X015834Y003073D03*
X015836Y003080D03*
X015839Y003085D03*
X015839Y003088D03*
X015841Y003093D03*
X015841Y003095D03*
X015844Y003100D03*
X015844Y003103D03*
X015846Y003108D03*
X015849Y003113D03*
X015849Y003115D03*
X015851Y003120D03*
X015851Y003123D03*
X015854Y003128D03*
X015854Y003130D03*
X015856Y003135D03*
X015859Y003140D03*
X015859Y003143D03*
X015861Y003148D03*
X015861Y003150D03*
X015864Y003155D03*
X015864Y003158D03*
X015866Y003163D03*
X015869Y003168D03*
X015869Y003170D03*
X011994Y003335D03*
X011829Y002888D03*
X010144Y003385D03*
X010036Y003085D03*
D110*
X011065Y003325D03*
X011065Y003328D03*
X011863Y003313D03*
X013350Y003303D03*
X013500Y002920D03*
X013500Y002918D03*
X013500Y002915D03*
X014325Y003313D03*
X014460Y002915D03*
X016625Y002888D03*
D111*
X011993Y003330D03*
X011830Y002890D03*
X010145Y003380D03*
D112*
X010148Y003318D03*
X010148Y003315D03*
X010148Y003313D03*
X014318Y002893D03*
X014318Y002890D03*
D113*
X014484Y003410D03*
X013349Y003300D03*
X013349Y003298D03*
X012024Y003410D03*
X011064Y003323D03*
X016626Y002890D03*
D114*
X014451Y003328D03*
X011991Y003328D03*
X011831Y002893D03*
X010146Y003378D03*
X010049Y003110D03*
X010039Y003080D03*
D115*
X010053Y003113D03*
X010148Y003375D03*
X011833Y002895D03*
X014450Y003325D03*
D116*
X014316Y002895D03*
X010146Y003310D03*
D117*
X010148Y003373D03*
X010055Y003115D03*
X010040Y003075D03*
X010040Y003073D03*
X011833Y002898D03*
X011990Y003325D03*
D118*
X014318Y002900D03*
X014318Y002898D03*
D119*
X013501Y002930D03*
X013501Y002933D03*
X013349Y003290D03*
X011061Y003315D03*
X011061Y003318D03*
X016629Y002898D03*
D120*
X014449Y003320D03*
X011989Y003323D03*
X011834Y002900D03*
X010149Y003370D03*
X010056Y003118D03*
D121*
X010060Y003120D03*
X010040Y003070D03*
X010150Y003368D03*
X011835Y002903D03*
X011988Y003320D03*
X014448Y003318D03*
X015930Y003305D03*
X015930Y003303D03*
X015933Y003310D03*
X015933Y003313D03*
X015935Y003318D03*
X015938Y003325D03*
X015940Y003330D03*
X015940Y003333D03*
X015943Y003338D03*
X015943Y003340D03*
X015945Y003345D03*
X015948Y003353D03*
X015950Y003358D03*
X015950Y003360D03*
X015953Y003365D03*
X015953Y003368D03*
X015955Y003373D03*
X015958Y003380D03*
X015960Y003385D03*
X015960Y003388D03*
X015963Y003393D03*
X015965Y003400D03*
X015968Y003408D03*
D122*
X014316Y002903D03*
D123*
X011988Y003318D03*
X011835Y002905D03*
X010150Y003360D03*
X010150Y003363D03*
D124*
X014318Y002905D03*
D125*
X013501Y002938D03*
X013501Y002940D03*
X013346Y003280D03*
X011059Y003310D03*
X016631Y002905D03*
D126*
X016643Y002935D03*
X014443Y002908D03*
X013503Y002968D03*
X013345Y003248D03*
X013345Y003250D03*
X013345Y003253D03*
X012023Y003405D03*
X011050Y003285D03*
D127*
X011056Y003303D03*
X012024Y003408D03*
X013346Y003273D03*
X013346Y003270D03*
X013501Y002948D03*
X013501Y002945D03*
X014451Y002910D03*
X016634Y002913D03*
X016636Y002918D03*
D128*
X016638Y002920D03*
X016635Y002915D03*
X013503Y002950D03*
X013503Y002953D03*
X013503Y002955D03*
X011055Y003298D03*
X011055Y003300D03*
D129*
X011051Y003290D03*
X011051Y003288D03*
X013346Y003255D03*
X013504Y002965D03*
X014481Y003405D03*
X016641Y002933D03*
X016641Y002930D03*
D130*
X016644Y002938D03*
X016644Y002940D03*
X013504Y002970D03*
X013504Y002973D03*
X013504Y002975D03*
X011049Y003280D03*
X011049Y003283D03*
D131*
X011046Y003275D03*
X013344Y003240D03*
X013344Y003238D03*
X013344Y003235D03*
X013504Y002983D03*
X013504Y002980D03*
X014481Y003403D03*
X016646Y002948D03*
X016646Y002945D03*
D132*
X016648Y002950D03*
X013505Y002985D03*
X013505Y002988D03*
X013505Y002990D03*
X011045Y003270D03*
X011045Y003273D03*
D133*
X011094Y003405D03*
X011094Y003408D03*
X011756Y003220D03*
X011761Y003228D03*
X011764Y003230D03*
X011766Y003233D03*
X011769Y003235D03*
X011769Y003238D03*
X011771Y003240D03*
X011774Y003243D03*
X011676Y003005D03*
X011676Y003003D03*
X011676Y003000D03*
X011676Y002998D03*
X011676Y002995D03*
X011676Y002993D03*
X011676Y002990D03*
X011676Y002988D03*
X011676Y002985D03*
X011676Y002983D03*
X012026Y002958D03*
X012029Y002960D03*
X012031Y002963D03*
X012034Y002965D03*
X012141Y003260D03*
X013356Y003400D03*
X013356Y003403D03*
X014221Y003225D03*
X014224Y003228D03*
X014226Y003230D03*
X014229Y003235D03*
X014231Y003238D03*
X014234Y003240D03*
X014139Y002993D03*
X014139Y002990D03*
X014139Y002988D03*
X014139Y002985D03*
X014139Y002983D03*
X014139Y002980D03*
X014139Y002978D03*
X014509Y002968D03*
X014511Y002973D03*
X014599Y003263D03*
X014599Y003265D03*
X014599Y003268D03*
X010306Y003270D03*
X010306Y003268D03*
X010306Y003265D03*
X010306Y003263D03*
X010246Y003155D03*
X010199Y003015D03*
X010199Y003013D03*
X010199Y003010D03*
X010199Y003008D03*
D134*
X013344Y003220D03*
X013344Y003223D03*
X013506Y003000D03*
X013506Y002998D03*
X016654Y002965D03*
D135*
X016655Y002968D03*
X016655Y002970D03*
X014515Y003130D03*
X014515Y003133D03*
X014513Y003128D03*
X014513Y003125D03*
X014510Y003123D03*
X014510Y003120D03*
X014510Y003118D03*
X014508Y003115D03*
X014508Y003113D03*
X014508Y003110D03*
X014505Y003108D03*
X014505Y003105D03*
X014503Y003100D03*
X014503Y003098D03*
X014500Y003095D03*
X014500Y003093D03*
X014500Y003090D03*
X014498Y003088D03*
X014498Y003085D03*
X014498Y003083D03*
X014495Y003080D03*
X014495Y003078D03*
X014493Y003073D03*
X014493Y003070D03*
X014490Y003068D03*
X014490Y003065D03*
X014490Y003063D03*
X014488Y003060D03*
X014488Y003058D03*
X014488Y003055D03*
X014485Y003053D03*
X014485Y003050D03*
X014483Y003045D03*
X014483Y003043D03*
X014480Y003040D03*
X014480Y003038D03*
X014480Y003400D03*
X013505Y003003D03*
X013343Y003215D03*
X013343Y003218D03*
X012020Y003400D03*
D136*
X014479Y003398D03*
X016659Y002980D03*
D137*
X016661Y002985D03*
X016661Y002988D03*
X012019Y003398D03*
D138*
X010983Y003263D03*
X010980Y003260D03*
X010978Y003258D03*
X010975Y003253D03*
X010973Y003250D03*
X010970Y003245D03*
X010968Y003243D03*
X010963Y003235D03*
X010960Y003233D03*
X010955Y003225D03*
X010950Y003218D03*
X010943Y003208D03*
X010938Y003200D03*
X014538Y003025D03*
X014540Y003030D03*
X014540Y003033D03*
X014543Y003035D03*
D139*
X010151Y003348D03*
X010074Y003138D03*
X010041Y003050D03*
X010041Y003048D03*
D140*
X010041Y003053D03*
X010041Y003055D03*
D141*
X010043Y003058D03*
X010068Y003130D03*
X010150Y003355D03*
X010150Y003358D03*
D142*
X010149Y003365D03*
X010061Y003123D03*
X010041Y003068D03*
X010041Y003065D03*
X015931Y003308D03*
X015934Y003315D03*
X015936Y003320D03*
X015936Y003323D03*
X015939Y003328D03*
X015941Y003335D03*
X015944Y003343D03*
X015946Y003348D03*
X015946Y003350D03*
X015949Y003355D03*
X015951Y003363D03*
X015954Y003370D03*
X015956Y003375D03*
X015956Y003378D03*
X015959Y003383D03*
X015961Y003390D03*
X015964Y003395D03*
X015964Y003398D03*
X015966Y003403D03*
X015966Y003405D03*
X015969Y003410D03*
D143*
X014449Y003323D03*
X010039Y003078D03*
D144*
X010036Y003083D03*
X010046Y003108D03*
X011994Y003333D03*
X014451Y003330D03*
D145*
X011996Y003340D03*
X010144Y003388D03*
X010034Y003088D03*
D146*
X010030Y003093D03*
X010030Y003095D03*
X010140Y003395D03*
D147*
X010145Y003383D03*
X010043Y003105D03*
D148*
X010070Y003133D03*
X010073Y003135D03*
X010150Y003350D03*
X010150Y003353D03*
D149*
X010149Y003325D03*
X010149Y003323D03*
X010149Y003320D03*
D150*
X010150Y003343D03*
X010150Y003345D03*
D151*
X010140Y003393D03*
X011998Y003343D03*
X014458Y003343D03*
D152*
X014460Y003348D03*
X010138Y003398D03*
D153*
X010135Y003400D03*
X014460Y003350D03*
D154*
X014461Y003353D03*
X012001Y003355D03*
X010134Y003403D03*
D155*
X012004Y003358D03*
D156*
X010130Y003405D03*
X014463Y003358D03*
D157*
X014465Y003360D03*
D158*
X014465Y003363D03*
X012005Y003363D03*
D159*
X012008Y003368D03*
D160*
X012008Y003370D03*
X010120Y003410D03*
D161*
X012010Y003378D03*
D162*
X012013Y003383D03*
D163*
X012014Y003385D03*
D164*
X014475Y003390D03*
D165*
X012018Y003393D03*
D166*
X012018Y003395D03*
D167*
X012030Y003425D03*
D168*
X014491Y003425D03*
D169*
X016301Y007013D03*
X016301Y007015D03*
D170*
X012760Y036130D03*
M02*
