G75*
%MOIN*%
%OFA0B0*%
%FSLAX24Y24*%
%IPPOS*%
%LPD*%
%AMOC8*
5,1,8,0,0,1.08239X$1,22.5*
%
%ADD10R,0.0315X0.0472*%
%ADD11R,0.0472X0.0472*%
%ADD12C,0.0640*%
%ADD13R,0.0433X0.0551*%
%ADD14R,0.0870X0.0240*%
%ADD15R,0.0748X0.0433*%
%ADD16R,0.0472X0.0315*%
%ADD17C,0.0866*%
%ADD18C,0.0669*%
%ADD19R,0.0087X0.0394*%
%ADD20R,0.0394X0.0087*%
%ADD21R,0.0800X0.0260*%
%ADD22R,0.5000X0.0700*%
%ADD23C,0.0555*%
%ADD24R,0.1004X0.1063*%
%ADD25R,0.1181X0.0630*%
%ADD26R,0.2441X0.2283*%
%ADD27R,0.0472X0.0984*%
%ADD28R,0.0630X0.0118*%
%ADD29R,0.0740X0.0740*%
%ADD30C,0.0740*%
%ADD31R,0.0165X0.0450*%
%ADD32R,0.0250X0.0500*%
%ADD33C,0.0712*%
%ADD34C,0.0100*%
%ADD35C,0.0080*%
%ADD36C,0.0160*%
%ADD37C,0.0436*%
%ADD38C,0.0320*%
%ADD39C,0.0240*%
%ADD40C,0.0120*%
%ADD41C,0.0397*%
D10*
X007596Y014166D03*
X008304Y014166D03*
X009381Y018370D03*
X010089Y018370D03*
X008289Y022445D03*
X007581Y022445D03*
X022476Y016190D03*
X023184Y016190D03*
X025596Y019070D03*
X026304Y019070D03*
X026304Y019980D03*
X025596Y019980D03*
X025616Y020900D03*
X026324Y020900D03*
X026334Y021790D03*
X025626Y021790D03*
X025606Y022860D03*
X026314Y022860D03*
X026314Y023710D03*
X025606Y023710D03*
X025611Y024727D03*
X026320Y024727D03*
X026330Y025597D03*
X025621Y025597D03*
X025616Y026440D03*
X026324Y026440D03*
X023534Y020090D03*
X022826Y020090D03*
X026976Y006190D03*
X026986Y005500D03*
X027694Y005500D03*
X027684Y006190D03*
X027694Y004750D03*
X026986Y004750D03*
X026986Y003900D03*
X027694Y003900D03*
X023014Y003900D03*
X022306Y003900D03*
D11*
X025087Y003180D03*
X025913Y003180D03*
X025883Y001740D03*
X025057Y001740D03*
X028767Y019060D03*
X029593Y019060D03*
X029573Y019970D03*
X029533Y020940D03*
X029563Y021800D03*
X028737Y021800D03*
X028707Y020940D03*
X028747Y019970D03*
X028697Y022870D03*
X028687Y023710D03*
X028701Y024733D03*
X028691Y025593D03*
X028797Y026440D03*
X029623Y026440D03*
X029518Y025593D03*
X029528Y024733D03*
X029513Y023710D03*
X029523Y022870D03*
X025403Y034830D03*
X024577Y034830D03*
X029197Y036500D03*
X030023Y036500D03*
X008928Y010795D03*
X008102Y010795D03*
D12*
X010760Y026770D02*
X011400Y026770D01*
X011400Y027870D02*
X010760Y027870D01*
X010730Y029120D02*
X011370Y029120D01*
X011370Y030220D02*
X010730Y030220D01*
X010710Y031490D02*
X011350Y031490D01*
X011350Y032590D02*
X010710Y032590D01*
X029350Y031770D02*
X029990Y031770D01*
X030090Y030770D02*
X029450Y030770D01*
X029350Y029770D02*
X029990Y029770D01*
X030090Y028770D02*
X029450Y028770D01*
X029350Y027770D02*
X029990Y027770D01*
D13*
X023559Y034830D03*
X022771Y034830D03*
X026966Y036510D03*
X027754Y036510D03*
X009349Y015210D03*
X008561Y015210D03*
X007579Y015210D03*
X006791Y015210D03*
X008851Y011915D03*
X009639Y011915D03*
X010016Y010790D03*
X010804Y010790D03*
X021476Y002640D03*
X022264Y002640D03*
X023176Y002640D03*
X023176Y001740D03*
X023964Y001740D03*
X023964Y002640D03*
D14*
X011435Y018985D03*
X011435Y019485D03*
X011435Y019985D03*
X011435Y020485D03*
X009375Y020485D03*
X009375Y019985D03*
X009375Y019485D03*
X009375Y018985D03*
X008950Y023160D03*
X008950Y023660D03*
X008950Y024160D03*
X008950Y024660D03*
X009390Y026560D03*
X009390Y027060D03*
X009390Y027560D03*
X009390Y028060D03*
X007330Y028060D03*
X007330Y027560D03*
X007330Y027060D03*
X007330Y026560D03*
X006890Y024660D03*
X006890Y024160D03*
X006890Y023660D03*
X006890Y023160D03*
X007230Y031320D03*
X007230Y031820D03*
X007230Y032320D03*
X007230Y032820D03*
X009290Y032820D03*
X009290Y032320D03*
X009290Y031820D03*
X009290Y031320D03*
D15*
X015892Y021413D03*
X015892Y020507D03*
X017348Y020507D03*
X017348Y021413D03*
D16*
X018335Y021409D03*
X018335Y020701D03*
X014895Y020516D03*
X014895Y021224D03*
X008430Y021204D03*
X008430Y020496D03*
X007545Y020491D03*
X007545Y021199D03*
D17*
X028686Y032712D03*
X028686Y035468D03*
D18*
X029670Y035074D03*
X029670Y033106D03*
D19*
X019276Y027604D03*
X019080Y027604D03*
X018883Y027604D03*
X018686Y027604D03*
X018489Y027604D03*
X018292Y027604D03*
X018095Y027604D03*
X017898Y027604D03*
X017702Y027604D03*
X017505Y027604D03*
X017308Y027604D03*
X017111Y027604D03*
X016914Y027604D03*
X016717Y027604D03*
X016520Y027604D03*
X016324Y027604D03*
X016324Y023076D03*
X016520Y023076D03*
X016717Y023076D03*
X016914Y023076D03*
X017111Y023076D03*
X017308Y023076D03*
X017505Y023076D03*
X017702Y023076D03*
X017898Y023076D03*
X018095Y023076D03*
X018292Y023076D03*
X018489Y023076D03*
X018686Y023076D03*
X018883Y023076D03*
X019080Y023076D03*
X019276Y023076D03*
D20*
X020064Y023864D03*
X020064Y024060D03*
X020064Y024257D03*
X020064Y024454D03*
X020064Y024651D03*
X020064Y024848D03*
X020064Y025045D03*
X020064Y025242D03*
X020064Y025438D03*
X020064Y025635D03*
X020064Y025832D03*
X020064Y026029D03*
X020064Y026226D03*
X020064Y026423D03*
X020064Y026620D03*
X020064Y026816D03*
X015536Y026816D03*
X015536Y026620D03*
X015536Y026423D03*
X015536Y026226D03*
X015536Y026029D03*
X015536Y025832D03*
X015536Y025635D03*
X015536Y025438D03*
X015536Y025242D03*
X015536Y025045D03*
X015536Y024848D03*
X015536Y024651D03*
X015536Y024454D03*
X015536Y024257D03*
X015536Y024060D03*
X015536Y023864D03*
D21*
X009590Y028990D03*
X009590Y029490D03*
X009590Y029990D03*
X009590Y030490D03*
X007170Y030490D03*
X007170Y029990D03*
X007170Y029490D03*
X007170Y028990D03*
D22*
X003100Y029200D03*
X003100Y028200D03*
X003100Y027200D03*
X003100Y026200D03*
X003100Y025200D03*
X003100Y024200D03*
X003100Y023200D03*
X003100Y022200D03*
X003100Y021200D03*
X003100Y020200D03*
X003100Y019200D03*
X003100Y018200D03*
X003100Y017200D03*
X003100Y016200D03*
X003100Y015200D03*
X003100Y014200D03*
X003100Y013200D03*
X003100Y012200D03*
X003100Y011200D03*
X003100Y010200D03*
X003100Y009200D03*
X003100Y008200D03*
X003100Y007200D03*
X003100Y006200D03*
X003100Y005200D03*
X003100Y004200D03*
X003100Y030200D03*
X003100Y031200D03*
X003100Y032200D03*
X003100Y033200D03*
X003100Y034200D03*
X003100Y035200D03*
D23*
X016467Y017191D03*
X017254Y017191D03*
X018041Y017191D03*
X018829Y017191D03*
X019616Y017191D03*
X020404Y017191D03*
X021191Y017191D03*
X021979Y017191D03*
X022766Y017191D03*
X023553Y017191D03*
X029136Y016707D03*
X029136Y015920D03*
X029136Y015133D03*
X029924Y015133D03*
X029924Y015920D03*
X029924Y016707D03*
X023553Y008529D03*
X022766Y008529D03*
X021979Y008529D03*
X021191Y008529D03*
X020404Y008529D03*
X019616Y008529D03*
X018829Y008529D03*
X018041Y008529D03*
X017254Y008529D03*
X016467Y008529D03*
D24*
X009768Y036450D03*
X007272Y036450D03*
D25*
X011910Y037028D03*
X011910Y035232D03*
D26*
X014737Y036130D03*
D27*
X014750Y033690D03*
X016050Y033690D03*
X022250Y018960D03*
X023550Y018960D03*
D28*
X023449Y005276D03*
X023449Y005020D03*
X023449Y004760D03*
X023449Y004504D03*
X022107Y004504D03*
X022111Y004760D03*
X022111Y005018D03*
X022115Y005272D03*
D29*
X029460Y003660D03*
D30*
X029560Y004660D03*
X029460Y005660D03*
X029560Y006660D03*
D31*
X026145Y006100D03*
X025895Y006100D03*
X025645Y006100D03*
X025395Y006100D03*
X025145Y006100D03*
X024895Y006100D03*
X024645Y006100D03*
X024395Y006100D03*
X024395Y004020D03*
X024645Y004020D03*
X024895Y004020D03*
X025145Y004020D03*
X025395Y004020D03*
X025645Y004020D03*
X025895Y004020D03*
X026145Y004020D03*
D32*
X023587Y006110D03*
X023233Y006110D03*
D33*
X029530Y014109D03*
X029530Y017731D03*
D34*
X029401Y017230D02*
X029924Y016707D01*
X029401Y017230D02*
X028150Y017230D01*
X027350Y016430D01*
X027350Y008680D01*
X026570Y007900D01*
X022240Y007900D01*
X021440Y007100D01*
X021440Y005180D01*
X021602Y005018D01*
X022111Y005018D01*
X022115Y005272D02*
X022115Y007075D01*
X022660Y007620D01*
X026630Y007620D01*
X027610Y008600D01*
X027610Y016180D01*
X028160Y016730D01*
X029114Y016730D01*
X029136Y016707D01*
X029981Y015190D02*
X029924Y015133D01*
X029981Y015190D02*
X030360Y015190D01*
X030410Y015240D01*
X030410Y018800D01*
X030150Y019060D01*
X029593Y019060D01*
X028767Y019060D02*
X026314Y019060D01*
X026304Y019070D01*
X025596Y019070D02*
X025596Y019980D01*
X026304Y019980D02*
X028737Y019980D01*
X028747Y019970D01*
X028707Y020940D02*
X026364Y020940D01*
X026324Y020900D01*
X026334Y021790D02*
X026344Y021800D01*
X028737Y021800D01*
X029563Y021800D02*
X030200Y021800D01*
X030220Y021820D01*
X030180Y020950D02*
X030170Y020940D01*
X029533Y020940D01*
X029573Y019970D02*
X030170Y019970D01*
X030240Y019900D01*
X030165Y022845D02*
X030140Y022870D01*
X029523Y022870D01*
X029513Y023710D02*
X030230Y023710D01*
X030250Y023730D01*
X030188Y025593D02*
X029518Y025593D01*
X030188Y025593D02*
X030195Y025600D01*
X028797Y026440D02*
X026324Y026440D01*
X025616Y026440D02*
X025520Y026440D01*
X025025Y026935D01*
X023780Y026935D01*
X023550Y027165D01*
X022995Y026515D02*
X022995Y028645D01*
X022660Y028980D01*
X019127Y028980D01*
X019082Y028935D01*
X019090Y028927D01*
X019090Y028560D01*
X019460Y028210D01*
X020180Y028210D01*
X020460Y027930D01*
X020460Y026280D01*
X020406Y026226D01*
X020489Y026029D02*
X020650Y026190D01*
X020650Y028655D01*
X020610Y028695D01*
X019770Y028695D01*
X019690Y028575D01*
X019260Y028100D02*
X019500Y027880D01*
X019500Y026030D01*
X019700Y025830D01*
X019450Y025440D02*
X019400Y025390D01*
X019370Y025390D01*
X019520Y025010D02*
X018890Y025010D01*
X019520Y025010D02*
X019750Y025240D01*
X020766Y024454D02*
X020900Y024320D01*
X020900Y021420D01*
X021250Y021070D01*
X024470Y021070D01*
X024880Y020660D01*
X024880Y018140D01*
X025050Y017970D01*
X027720Y017970D01*
X027910Y017780D01*
X027380Y017430D02*
X027090Y017720D01*
X024970Y017720D01*
X024650Y018040D01*
X024650Y020570D01*
X024400Y020820D01*
X021220Y020820D01*
X020690Y021350D01*
X020690Y024180D01*
X020613Y024257D01*
X021335Y023365D02*
X021735Y023765D01*
X024800Y023765D01*
X024770Y022845D02*
X021580Y022845D01*
X021470Y022735D01*
X022370Y022375D02*
X022595Y022150D01*
X024805Y022150D01*
X024730Y021445D02*
X022235Y021445D01*
X021980Y021700D01*
X021975Y024640D02*
X021807Y024848D01*
X022115Y025045D02*
X022235Y025165D01*
X022755Y026420D02*
X022755Y028430D01*
X022490Y028695D01*
X020610Y028695D01*
X019260Y028100D02*
X018700Y028100D01*
X018265Y028535D01*
X018265Y030690D01*
X018030Y030925D01*
X008770Y030925D01*
X008655Y031040D01*
X008655Y031735D01*
X008740Y031820D01*
X009290Y031820D01*
X009290Y032320D01*
X009290Y032820D02*
X010800Y032820D01*
X011030Y032590D01*
X011805Y032590D01*
X012065Y032330D01*
X012065Y031870D01*
X012215Y031720D01*
X018740Y031720D01*
X018845Y031835D01*
X018410Y031490D02*
X019085Y030810D01*
X019082Y028935D01*
X018095Y028155D02*
X017945Y028305D01*
X017945Y030250D01*
X017765Y030430D01*
X018410Y031490D02*
X011030Y031490D01*
X010860Y031320D01*
X009290Y031320D01*
X008235Y031425D02*
X008130Y031320D01*
X008130Y030640D01*
X008735Y030035D01*
X008735Y029140D01*
X008630Y029035D01*
X008265Y028670D01*
X008265Y026635D01*
X008190Y026560D01*
X008200Y026550D01*
X008200Y026275D01*
X008190Y026560D02*
X007330Y026560D01*
X007330Y027060D02*
X007320Y027070D01*
X006300Y027070D01*
X006000Y027370D01*
X006000Y028100D01*
X005900Y028200D01*
X003100Y028200D01*
X003100Y029200D02*
X005890Y029200D01*
X006260Y028830D01*
X006260Y027870D01*
X006570Y027560D01*
X007330Y027560D01*
X007150Y028970D02*
X006560Y028970D01*
X006250Y029280D01*
X006250Y029470D01*
X006740Y029990D02*
X007170Y029990D01*
X006740Y029990D02*
X006240Y030490D01*
X006145Y030490D01*
X006480Y030645D02*
X006480Y031025D01*
X006480Y030645D02*
X006655Y030485D01*
X007170Y030490D01*
X007230Y031320D02*
X008130Y031320D01*
X007230Y031820D02*
X007220Y031810D01*
X006380Y031810D01*
X005990Y032200D01*
X003100Y032200D01*
X003100Y033200D02*
X006060Y033200D01*
X006450Y032810D01*
X006450Y032410D01*
X006530Y032330D01*
X007220Y032330D01*
X007230Y032320D01*
X007170Y029490D02*
X007180Y029480D01*
X008040Y029480D01*
X008630Y029035D02*
X008685Y028980D01*
X009580Y028980D01*
X009590Y028990D01*
X009590Y029490D02*
X010680Y029490D01*
X011050Y029120D01*
X010820Y029990D02*
X011050Y030220D01*
X010820Y029990D02*
X009590Y029990D01*
X009390Y028060D02*
X010890Y028060D01*
X011080Y027870D01*
X011080Y026770D02*
X010870Y026560D01*
X009390Y026560D01*
X009390Y027060D02*
X008785Y027060D01*
X008655Y026930D01*
X008665Y026230D01*
X008825Y026070D01*
X013375Y026065D01*
X013840Y025635D01*
X014088Y025832D02*
X013520Y026400D01*
X012970Y026400D01*
X012945Y026425D01*
X013510Y026775D02*
X014260Y026035D01*
X013960Y025200D02*
X013960Y024805D01*
X014120Y024645D01*
X015120Y025240D02*
X015122Y025242D01*
X015536Y025242D01*
X015827Y025242D01*
X015900Y025315D01*
X015900Y026125D01*
X015800Y026225D01*
X015537Y026225D01*
X015536Y026226D01*
X015234Y026226D01*
X015220Y026240D01*
X015270Y026240D01*
X016137Y026423D02*
X016220Y026340D01*
X016320Y025140D02*
X016225Y025045D01*
X017230Y023610D02*
X017308Y023502D01*
X017308Y023076D01*
X017898Y023076D02*
X017898Y023628D01*
X018010Y023740D01*
X018100Y023740D01*
X018120Y023760D01*
X017898Y023076D02*
X017898Y022752D01*
X017910Y022740D01*
X018292Y022368D02*
X018465Y022195D01*
X019030Y022195D01*
X019225Y022000D01*
X019225Y019895D01*
X018855Y019525D01*
X013680Y019525D01*
X013365Y019210D01*
X013365Y017675D01*
X012770Y017080D01*
X010150Y017080D01*
X009940Y016870D01*
X009940Y014500D01*
X009606Y014166D01*
X008304Y014166D01*
X008561Y015210D02*
X008561Y017036D01*
X009050Y017525D01*
X012625Y017525D01*
X013005Y017905D01*
X013005Y021860D01*
X013375Y022230D01*
X015905Y022230D01*
X016325Y022650D01*
X016660Y021820D02*
X016610Y021770D01*
X016610Y020720D01*
X016430Y020540D01*
X015924Y020540D01*
X015892Y020507D01*
X015883Y020516D01*
X014895Y020516D01*
X013950Y019230D02*
X018970Y019230D01*
X019505Y019765D01*
X019505Y022050D01*
X019115Y022440D01*
X018640Y022440D01*
X018490Y022590D01*
X017702Y022107D02*
X017355Y021760D01*
X017355Y021419D01*
X017348Y021413D01*
X018332Y021413D01*
X018335Y021409D01*
X017505Y022275D02*
X017050Y021820D01*
X016660Y021820D01*
X014270Y019010D02*
X014105Y018845D01*
X014105Y017615D01*
X012860Y016370D01*
X010930Y016370D01*
X010799Y016239D01*
X010799Y012254D01*
X010645Y012100D01*
X010804Y011941D01*
X010804Y010790D01*
X010440Y011895D02*
X009659Y011895D01*
X009639Y011915D01*
X010440Y011895D02*
X010645Y012100D01*
X009805Y013595D02*
X010455Y014245D01*
X010455Y016520D01*
X010680Y016745D01*
X012820Y016745D01*
X013690Y017615D01*
X013690Y018970D01*
X013950Y019230D01*
X014270Y019010D02*
X019065Y019010D01*
X023910Y025600D02*
X022995Y026515D01*
X022755Y026420D02*
X024480Y024695D01*
X024735Y024695D01*
X024785Y025600D02*
X023910Y025600D01*
X026330Y025597D02*
X026334Y025593D01*
X028691Y025593D01*
X028701Y024733D02*
X028695Y024727D01*
X026320Y024727D01*
X026314Y023710D02*
X028687Y023710D01*
X028697Y022870D02*
X026324Y022870D01*
X026314Y022860D01*
X029670Y027770D02*
X029355Y028085D01*
X028055Y028085D01*
X027935Y028205D01*
X027935Y029415D01*
X028630Y030670D02*
X028105Y031195D01*
X020840Y031195D01*
X019710Y032325D01*
X016805Y032325D01*
X016125Y032720D02*
X019665Y032720D01*
X020940Y031445D01*
X028220Y031445D01*
X028500Y031725D01*
X029625Y031725D01*
X029670Y031770D01*
X029770Y030770D02*
X029670Y030670D01*
X028630Y030670D01*
X027425Y032445D02*
X027595Y032615D01*
X027595Y033215D01*
X027540Y033270D01*
X027425Y032445D02*
X020905Y032445D01*
X019810Y033545D01*
X017850Y033545D01*
X017275Y033125D02*
X017265Y033135D01*
X017275Y033125D02*
X019775Y033125D01*
X020855Y032060D01*
X023475Y032065D01*
X023559Y034830D02*
X024577Y034830D01*
X022771Y034830D02*
X022260Y034830D01*
X021960Y034825D01*
X025950Y036850D02*
X025950Y038400D01*
X025730Y038620D01*
X010650Y038620D01*
X009740Y037710D01*
X009740Y036478D01*
X009768Y036450D01*
X015980Y032575D02*
X015980Y032320D01*
X015980Y032575D02*
X016125Y032720D01*
X016040Y028165D02*
X016210Y027995D01*
X016215Y027995D01*
X016324Y027886D01*
X016520Y027995D02*
X016675Y028150D01*
X017505Y027005D02*
X017440Y026940D01*
X017790Y027230D02*
X017702Y027318D01*
X013510Y026775D02*
X011080Y026770D01*
X009390Y027060D02*
X009390Y027560D01*
X007170Y028990D02*
X007150Y028970D01*
X008200Y024165D02*
X008205Y024160D01*
X007665Y022529D02*
X007581Y022445D01*
X007544Y021200D02*
X007545Y021199D01*
X008425Y021199D01*
X008430Y021204D01*
X008430Y020496D02*
X009165Y020496D01*
X009364Y020496D01*
X009375Y020485D01*
X009375Y019985D02*
X007760Y019985D01*
X007545Y020200D01*
X007545Y020491D01*
X006520Y013595D02*
X009805Y013595D01*
X008841Y011925D02*
X008851Y011915D01*
X008841Y011925D02*
X006920Y011925D01*
X006195Y011200D01*
X003100Y011200D01*
X003100Y012200D02*
X006075Y012200D01*
X006340Y012465D01*
X006340Y013415D01*
X006520Y013595D01*
X022107Y004504D02*
X022121Y004490D01*
X022620Y004490D01*
X022720Y004590D01*
X022720Y006990D01*
X022920Y007190D01*
X025470Y007190D01*
X025645Y007015D01*
X025645Y006100D01*
X026145Y006100D02*
X026145Y005665D01*
X026270Y005540D01*
X026916Y005540D01*
X026986Y005500D01*
X027694Y005500D02*
X027684Y006190D01*
X027694Y005500D02*
X029280Y005500D01*
X029460Y005660D01*
X029560Y004660D02*
X027784Y004660D01*
X027694Y004750D01*
X027694Y003900D01*
X026976Y004740D02*
X026986Y004750D01*
X026976Y004740D02*
X026370Y004740D01*
X026145Y004515D01*
X026145Y004020D01*
X025895Y004020D02*
X025895Y003562D01*
X025913Y003180D01*
X025145Y004020D02*
X025170Y004045D01*
X025170Y005190D01*
X024720Y005640D01*
X023070Y005640D01*
X022970Y005540D01*
X022970Y004840D01*
X023050Y004760D01*
X023449Y004760D01*
X023587Y006110D02*
X024385Y006110D01*
X024395Y006100D01*
X024895Y006100D02*
X024895Y006365D01*
X024670Y006590D01*
X024070Y006590D01*
X025883Y001740D02*
X026470Y001740D01*
X026620Y001890D01*
X026620Y001940D01*
X028970Y012930D02*
X028660Y013240D01*
X028660Y014656D01*
X029136Y015133D01*
X028970Y012930D02*
X030030Y012930D01*
X029197Y036500D02*
X027764Y036500D01*
X027754Y036510D01*
X026966Y036510D02*
X026290Y036510D01*
X025950Y036850D01*
D35*
X018095Y028155D02*
X018095Y027604D01*
X017702Y027604D02*
X017702Y027318D01*
X017505Y027604D02*
X017505Y027005D01*
X016520Y027604D02*
X016520Y027995D01*
X016324Y027886D02*
X016324Y027604D01*
X016137Y026423D02*
X015536Y026423D01*
X015535Y026030D02*
X015536Y026029D01*
X015535Y026030D02*
X014260Y026035D01*
X014088Y025832D02*
X015536Y025832D01*
X015536Y025635D02*
X015536Y025635D01*
X013840Y025635D01*
X014120Y024645D02*
X015530Y024645D01*
X015536Y024651D01*
X015534Y024260D02*
X015536Y024257D01*
X015534Y024260D02*
X013260Y024260D01*
X013005Y024005D01*
X010350Y024005D01*
X009695Y024660D01*
X008950Y024660D01*
X010325Y022640D02*
X010070Y022385D01*
X010070Y020635D01*
X009920Y020485D01*
X009176Y020485D01*
X009165Y020496D01*
X009375Y019985D02*
X009380Y019980D01*
X010000Y019980D01*
X010270Y020250D01*
X010270Y022220D01*
X010490Y022440D01*
X012925Y022440D01*
X013300Y022815D01*
X013300Y023675D01*
X013489Y023864D01*
X015536Y023864D01*
X015536Y024060D02*
X013405Y024060D01*
X013110Y023765D01*
X013110Y022890D01*
X012860Y022640D01*
X010325Y022640D01*
X014350Y018625D02*
X014350Y017100D01*
X013185Y015935D01*
X011500Y015935D01*
X011160Y015595D01*
X014350Y018625D02*
X014515Y018790D01*
X019330Y018790D01*
X019915Y019375D01*
X019915Y023585D01*
X020161Y023864D01*
X020064Y023864D01*
X020064Y024060D02*
X020064Y024060D01*
X020390Y024060D01*
X020430Y024020D01*
X020430Y023630D01*
X020190Y023390D01*
X020190Y019280D01*
X019470Y018560D01*
X015860Y018560D01*
X015610Y018310D01*
X015610Y016580D01*
X016000Y016190D01*
X021870Y016190D01*
X021870Y010190D01*
X021180Y009500D01*
X019870Y009500D01*
X019620Y009250D01*
X019620Y008533D01*
X019616Y008529D01*
X022835Y014490D02*
X022835Y014500D01*
X022835Y017132D01*
X022835Y017122D02*
X022766Y017191D01*
X022835Y017122D02*
X022835Y014500D01*
X023184Y016190D02*
X023310Y016190D01*
X023560Y016440D01*
X023560Y017184D01*
X023553Y017191D01*
X022476Y016190D02*
X021870Y016190D01*
X019065Y019010D02*
X019730Y019675D01*
X019730Y022125D01*
X019220Y022635D01*
X018795Y022635D01*
X018685Y022745D01*
X018685Y023075D01*
X018686Y023076D01*
X018490Y023075D02*
X018489Y023076D01*
X018490Y023075D02*
X018490Y022590D01*
X018292Y022368D02*
X018292Y023076D01*
X017702Y023076D02*
X017702Y022107D01*
X017505Y022275D02*
X017505Y023076D01*
X016325Y023065D02*
X016325Y022650D01*
X016325Y023065D02*
X016324Y023076D01*
X016225Y025045D02*
X015536Y025045D01*
X019450Y025440D02*
X020062Y025440D01*
X020064Y025438D01*
X020064Y025242D02*
X020062Y025240D01*
X019750Y025240D01*
X020064Y025045D02*
X022115Y025045D01*
X021807Y024848D02*
X020064Y024848D01*
X020064Y024454D02*
X020766Y024454D01*
X020613Y024257D02*
X020064Y024257D01*
X020062Y025830D02*
X019700Y025830D01*
X020062Y025830D02*
X020064Y025832D01*
X020064Y026029D02*
X020489Y026029D01*
X020406Y026226D02*
X020064Y026226D01*
X006065Y013775D02*
X006065Y013495D01*
X005785Y013215D01*
X003115Y013215D01*
X003100Y013200D01*
D36*
X000705Y003670D02*
X000705Y000405D01*
X027395Y000405D01*
X027395Y001338D01*
X027515Y001587D01*
X027515Y001587D01*
X027515Y001587D01*
X027731Y001759D01*
X027731Y001759D01*
X028000Y001821D01*
X028000Y001821D01*
X028269Y001759D01*
X028269Y001759D01*
X028485Y001587D01*
X028485Y001587D01*
X028605Y001338D01*
X028605Y000405D01*
X030795Y000405D01*
X030795Y038995D01*
X028605Y038995D01*
X028605Y038162D01*
X028485Y037913D01*
X028485Y037913D01*
X028269Y037741D01*
X028269Y037741D01*
X028000Y037679D01*
X028000Y037679D01*
X027731Y037741D01*
X027731Y037741D01*
X027515Y037913D01*
X027515Y037913D01*
X027395Y038162D01*
X027395Y038995D01*
X000705Y038995D01*
X000705Y035710D01*
X005666Y035710D01*
X005760Y035616D01*
X005760Y035580D01*
X008371Y035580D01*
X008530Y035739D01*
X008530Y036688D01*
X008567Y036776D01*
X008967Y037176D01*
X009034Y037243D01*
X009122Y037280D01*
X009530Y037280D01*
X009530Y037797D01*
X009653Y037920D01*
X010563Y038830D01*
X025817Y038830D01*
X025940Y038707D01*
X026160Y038487D01*
X026160Y036937D01*
X026377Y036720D01*
X026590Y036720D01*
X026590Y036852D01*
X026683Y036946D01*
X027249Y036946D01*
X027343Y036852D01*
X027343Y036168D01*
X027249Y036074D01*
X026683Y036074D01*
X026590Y036168D01*
X026590Y036300D01*
X026203Y036300D01*
X025863Y036640D01*
X025740Y036763D01*
X025740Y038313D01*
X025643Y038410D01*
X022339Y038410D01*
X022372Y038378D01*
X022373Y038377D01*
X022373Y038376D01*
X022391Y038333D01*
X022410Y038290D01*
X022410Y038289D01*
X022410Y038288D01*
X022410Y038241D01*
X022435Y035212D01*
X022488Y035266D01*
X023054Y035266D01*
X023148Y035172D01*
X023148Y034488D01*
X023054Y034394D01*
X022488Y034394D01*
X022407Y034476D01*
X022405Y034471D01*
X022404Y034470D01*
X022403Y034468D01*
X022370Y034436D01*
X022338Y034403D01*
X022336Y034402D01*
X022335Y034401D01*
X022292Y034383D01*
X022250Y034365D01*
X022248Y034365D01*
X022247Y034365D01*
X022201Y034365D01*
X022154Y034365D01*
X022153Y034365D01*
X016370Y034387D01*
X016370Y034325D01*
X016446Y034248D01*
X016446Y033132D01*
X016352Y033038D01*
X015747Y033038D01*
X015653Y033132D01*
X015653Y034248D01*
X015730Y034325D01*
X015730Y034390D01*
X013069Y034400D01*
X013022Y034400D01*
X013022Y034400D01*
X013021Y034400D01*
X012978Y034418D01*
X012934Y034437D01*
X012934Y034437D01*
X012933Y034437D01*
X012910Y034461D01*
X012910Y034092D01*
X012873Y034004D01*
X012673Y033804D01*
X012606Y033737D01*
X012518Y033700D01*
X005676Y033700D01*
X005676Y033700D01*
X005760Y033616D01*
X005760Y033410D01*
X006147Y033410D01*
X006615Y032942D01*
X006615Y032964D01*
X006627Y033009D01*
X006651Y033051D01*
X006684Y033084D01*
X006726Y033108D01*
X006771Y033120D01*
X007230Y033120D01*
X007230Y032820D01*
X007230Y032820D01*
X007845Y032820D01*
X007845Y032964D01*
X007833Y033009D01*
X007809Y033051D01*
X007776Y033084D01*
X007734Y033108D01*
X007689Y033120D01*
X007230Y033120D01*
X007230Y032820D01*
X007230Y032820D01*
X007845Y032820D01*
X007845Y032676D01*
X007833Y032631D01*
X007809Y032589D01*
X007776Y032556D01*
X007775Y032556D01*
X007825Y032506D01*
X007825Y032134D01*
X007761Y032070D01*
X007825Y032006D01*
X007825Y031634D01*
X007761Y031570D01*
X007801Y031530D01*
X007869Y031530D01*
X007914Y031639D01*
X008021Y031746D01*
X008160Y031803D01*
X008310Y031803D01*
X008445Y031747D01*
X008445Y031822D01*
X008568Y031945D01*
X008653Y032030D01*
X008719Y032030D01*
X008759Y032070D01*
X008695Y032134D01*
X008695Y032506D01*
X008759Y032570D01*
X008695Y032634D01*
X008695Y033006D01*
X008789Y033100D01*
X009791Y033100D01*
X009861Y033030D01*
X010518Y033030D01*
X010615Y033070D01*
X011445Y033070D01*
X011622Y032997D01*
X011757Y032862D01*
X011783Y032800D01*
X011892Y032800D01*
X012152Y032540D01*
X012275Y032417D01*
X012275Y031957D01*
X012302Y031930D01*
X018475Y031930D01*
X018524Y032049D01*
X018590Y032115D01*
X017127Y032115D01*
X017126Y032111D01*
X017019Y032004D01*
X016880Y031947D01*
X016730Y031947D01*
X016591Y032004D01*
X016484Y032111D01*
X016427Y032250D01*
X016427Y032400D01*
X016472Y032510D01*
X016311Y032510D01*
X016358Y032395D01*
X016358Y032245D01*
X016301Y032106D01*
X016194Y031999D01*
X016055Y031942D01*
X015905Y031942D01*
X015766Y031999D01*
X015659Y032106D01*
X015602Y032245D01*
X015602Y032395D01*
X015659Y032534D01*
X012158Y032534D01*
X012275Y032376D02*
X015602Y032376D01*
X015613Y032217D02*
X012275Y032217D01*
X012275Y032059D02*
X015707Y032059D01*
X015659Y032534D02*
X015766Y032641D01*
X015770Y032642D01*
X015770Y032662D01*
X015915Y032807D01*
X016038Y032930D01*
X016941Y032930D01*
X016887Y033060D01*
X016887Y033210D01*
X016944Y033349D01*
X017051Y033456D01*
X017190Y033513D01*
X017340Y033513D01*
X017478Y033456D01*
X017472Y033470D01*
X017472Y033620D01*
X017529Y033759D01*
X017636Y033866D01*
X017775Y033923D01*
X017925Y033923D01*
X018064Y033866D01*
X018171Y033759D01*
X018172Y033755D01*
X019723Y033755D01*
X019723Y033755D01*
X019810Y033755D01*
X019897Y033755D01*
X019897Y033755D01*
X019897Y033755D01*
X019958Y033693D01*
X020020Y033632D01*
X020020Y033632D01*
X020992Y032655D01*
X027338Y032655D01*
X027385Y032702D01*
X027385Y032925D01*
X027326Y032949D01*
X027219Y033056D01*
X027162Y033195D01*
X027162Y033345D01*
X027219Y033484D01*
X027326Y033591D01*
X027465Y033648D01*
X027615Y033648D01*
X027754Y033591D01*
X027861Y033484D01*
X027918Y033345D01*
X027918Y033195D01*
X027861Y033056D01*
X027805Y033000D01*
X027805Y032528D01*
X027682Y032405D01*
X027512Y032235D01*
X023814Y032235D01*
X023853Y032140D01*
X023853Y031990D01*
X023796Y031851D01*
X023689Y031744D01*
X023550Y031687D01*
X023400Y031687D01*
X023261Y031744D01*
X023154Y031851D01*
X023153Y031854D01*
X020856Y031850D01*
X020832Y031850D01*
X021027Y031655D01*
X028133Y031655D01*
X028290Y031812D01*
X028413Y031935D01*
X028899Y031935D01*
X028943Y032042D01*
X029078Y032177D01*
X029255Y032250D01*
X030085Y032250D01*
X030262Y032177D01*
X030397Y032042D01*
X030470Y031865D01*
X030470Y031675D01*
X030397Y031498D01*
X030262Y031363D01*
X030085Y031290D01*
X029255Y031290D01*
X029078Y031363D01*
X028943Y031498D01*
X028936Y031515D01*
X028587Y031515D01*
X028334Y031262D01*
X028717Y030880D01*
X028976Y030880D01*
X029043Y031042D01*
X029178Y031177D01*
X029355Y031250D01*
X030185Y031250D01*
X030362Y031177D01*
X030497Y031042D01*
X030570Y030865D01*
X030570Y030675D01*
X030497Y030498D01*
X030362Y030363D01*
X030185Y030290D01*
X029355Y030290D01*
X029178Y030363D01*
X029081Y030460D01*
X028543Y030460D01*
X028018Y030985D01*
X020753Y030985D01*
X020630Y031108D01*
X019623Y032115D01*
X019100Y032115D01*
X019166Y032049D01*
X019223Y031910D01*
X019223Y031760D01*
X019166Y031621D01*
X019059Y031514D01*
X018920Y031457D01*
X018770Y031457D01*
X018717Y031479D01*
X019234Y030958D01*
X019295Y030897D01*
X019295Y030896D01*
X019295Y030896D01*
X019295Y030809D01*
X019292Y029190D01*
X022747Y029190D01*
X022870Y029067D01*
X023205Y028732D01*
X023205Y027320D01*
X023229Y027379D01*
X023336Y027486D01*
X023475Y027543D01*
X023625Y027543D01*
X023764Y027486D01*
X023871Y027379D01*
X023928Y027240D01*
X023928Y027145D01*
X025112Y027145D01*
X025235Y027022D01*
X025421Y026836D01*
X025839Y026836D01*
X025933Y026742D01*
X025933Y026138D01*
X025839Y026044D01*
X025526Y026044D01*
X025576Y025993D01*
X025845Y025993D01*
X025939Y025899D01*
X025939Y025294D01*
X025851Y025207D01*
X025851Y025107D01*
X025929Y025029D01*
X025929Y024424D01*
X025846Y024341D01*
X025846Y024090D01*
X025923Y024012D01*
X025923Y023408D01*
X025846Y023330D01*
X025846Y023240D01*
X025923Y023162D01*
X025923Y022558D01*
X025866Y022500D01*
X025866Y022170D01*
X025943Y022092D01*
X025943Y021488D01*
X025856Y021400D01*
X025856Y021280D01*
X025933Y021202D01*
X025933Y020598D01*
X025839Y020504D01*
X025836Y020504D01*
X025836Y020360D01*
X025913Y020282D01*
X025913Y019678D01*
X025819Y019584D01*
X025806Y019584D01*
X025806Y019466D01*
X025819Y019466D01*
X025913Y019372D01*
X025913Y018768D01*
X025819Y018674D01*
X025372Y018674D01*
X025278Y018768D01*
X025278Y019372D01*
X025372Y019466D01*
X025386Y019466D01*
X025386Y019584D01*
X025372Y019584D01*
X025278Y019678D01*
X025278Y020282D01*
X025356Y020360D01*
X025356Y020540D01*
X025298Y020598D01*
X025298Y021202D01*
X025376Y021280D01*
X025376Y021420D01*
X025308Y021488D01*
X025308Y022092D01*
X025386Y022170D01*
X025386Y022464D01*
X025382Y022464D01*
X025288Y022558D01*
X025288Y023162D01*
X025366Y023240D01*
X025366Y023330D01*
X025288Y023408D01*
X025288Y024012D01*
X025366Y024090D01*
X025366Y024353D01*
X025294Y024424D01*
X025294Y025029D01*
X025371Y025107D01*
X025371Y025227D01*
X025304Y025294D01*
X025304Y025587D01*
X025126Y025764D01*
X025163Y025675D01*
X025163Y025525D01*
X025106Y025386D01*
X024999Y025279D01*
X024860Y025222D01*
X024710Y025222D01*
X024571Y025279D01*
X024464Y025386D01*
X024463Y025390D01*
X024082Y025390D01*
X024489Y024983D01*
X024521Y025016D01*
X024660Y025073D01*
X024810Y025073D01*
X024949Y025016D01*
X025056Y024909D01*
X025113Y024770D01*
X025113Y024620D01*
X025056Y024481D01*
X024949Y024374D01*
X024810Y024317D01*
X024660Y024317D01*
X024521Y024374D01*
X024414Y024481D01*
X024413Y024485D01*
X024393Y024485D01*
X022668Y026210D01*
X022545Y026333D01*
X022545Y028343D01*
X022403Y028485D01*
X020860Y028485D01*
X020860Y026103D01*
X020737Y025980D01*
X020576Y025819D01*
X020421Y025819D01*
X020421Y025245D01*
X021859Y025245D01*
X021914Y025379D01*
X022021Y025486D01*
X022160Y025543D01*
X022310Y025543D01*
X022449Y025486D01*
X022556Y025379D01*
X022613Y025240D01*
X022613Y025090D01*
X022556Y024951D01*
X022449Y024844D01*
X022321Y024792D01*
X022353Y024715D01*
X022353Y024565D01*
X022296Y024426D01*
X022189Y024319D01*
X022050Y024262D01*
X021900Y024262D01*
X021761Y024319D01*
X021654Y024426D01*
X021597Y024565D01*
X021597Y024648D01*
X020869Y024648D01*
X020987Y024530D01*
X021110Y024407D01*
X021110Y023675D01*
X021121Y023686D01*
X021260Y023743D01*
X021410Y023743D01*
X021414Y023741D01*
X021648Y023975D01*
X024478Y023975D01*
X021110Y023975D01*
X021110Y023817D02*
X021490Y023817D01*
X021767Y023500D02*
X024531Y023500D01*
X024479Y023551D02*
X024586Y023444D01*
X024725Y023387D01*
X024875Y023387D01*
X025014Y023444D01*
X025121Y023551D01*
X025178Y023690D01*
X025178Y023840D01*
X025121Y023979D01*
X025014Y024086D01*
X024875Y024143D01*
X024725Y024143D01*
X024586Y024086D01*
X024479Y023979D01*
X024478Y023975D01*
X024702Y024134D02*
X021110Y024134D01*
X021110Y024292D02*
X021827Y024292D01*
X021644Y024451D02*
X021066Y024451D01*
X020908Y024609D02*
X021597Y024609D01*
X022123Y024292D02*
X025366Y024292D01*
X025366Y024134D02*
X024898Y024134D01*
X025122Y023975D02*
X025288Y023975D01*
X025288Y023817D02*
X025178Y023817D01*
X025165Y023658D02*
X025288Y023658D01*
X025288Y023500D02*
X025069Y023500D01*
X025355Y023341D02*
X021713Y023341D01*
X021713Y023290D02*
X021713Y023440D01*
X021711Y023444D01*
X021822Y023555D01*
X024478Y023555D01*
X024479Y023551D01*
X024597Y023183D02*
X021669Y023183D01*
X021656Y023151D02*
X021713Y023290D01*
X021656Y023151D02*
X021597Y023092D01*
X021684Y023056D01*
X021685Y023055D01*
X024448Y023055D01*
X024449Y023059D01*
X024556Y023166D01*
X024695Y023223D01*
X024845Y023223D01*
X024984Y023166D01*
X025091Y023059D01*
X025148Y022920D01*
X025148Y022770D01*
X025091Y022631D01*
X024984Y022524D01*
X024937Y022505D01*
X025019Y022471D01*
X025126Y022364D01*
X025183Y022225D01*
X025183Y022075D01*
X025126Y021936D01*
X025019Y021829D01*
X024905Y021782D01*
X024944Y021766D01*
X025051Y021659D01*
X025108Y021520D01*
X025108Y021370D01*
X025051Y021231D01*
X024944Y021124D01*
X024805Y021067D01*
X024770Y021067D01*
X024967Y020870D01*
X024967Y020870D01*
X025090Y020747D01*
X025090Y018227D01*
X025137Y018180D01*
X027807Y018180D01*
X027831Y018156D01*
X027835Y018158D01*
X027985Y018158D01*
X028124Y018101D01*
X028231Y017994D01*
X028288Y017855D01*
X028288Y017705D01*
X028231Y017566D01*
X028124Y017459D01*
X028077Y017440D01*
X029092Y017440D01*
X029014Y017628D01*
X029014Y017834D01*
X029092Y018023D01*
X029238Y018169D01*
X029427Y018247D01*
X029633Y018247D01*
X029822Y018169D01*
X029968Y018023D01*
X030046Y017834D01*
X030046Y017628D01*
X029968Y017439D01*
X029822Y017293D01*
X029690Y017238D01*
X029799Y017129D01*
X029837Y017145D01*
X030011Y017145D01*
X030172Y017078D01*
X030200Y017050D01*
X030200Y018713D01*
X030063Y018850D01*
X029990Y018850D01*
X029990Y018758D01*
X029896Y018664D01*
X029291Y018664D01*
X029197Y018758D01*
X029197Y019362D01*
X029291Y019456D01*
X029896Y019456D01*
X029990Y019362D01*
X029990Y019270D01*
X030237Y019270D01*
X030497Y019010D01*
X030620Y018887D01*
X030620Y015153D01*
X030570Y015103D01*
X030447Y014980D01*
X030334Y014980D01*
X030295Y014885D01*
X030172Y014762D01*
X030011Y014695D01*
X029837Y014695D01*
X029676Y014762D01*
X029553Y014885D01*
X029530Y014940D01*
X029507Y014885D01*
X029384Y014762D01*
X029223Y014695D01*
X029049Y014695D01*
X029011Y014711D01*
X028870Y014569D01*
X028870Y013327D01*
X029057Y013140D01*
X029708Y013140D01*
X029709Y013144D01*
X029816Y013251D01*
X029955Y013308D01*
X030105Y013308D01*
X030244Y013251D01*
X030351Y013144D01*
X030408Y013005D01*
X030408Y012855D01*
X030351Y012716D01*
X030244Y012609D01*
X030105Y012552D01*
X029955Y012552D01*
X029816Y012609D01*
X029709Y012716D01*
X029708Y012720D01*
X028883Y012720D01*
X028573Y013030D01*
X028450Y013153D01*
X028450Y014743D01*
X028714Y015008D01*
X028699Y015046D01*
X028699Y015220D01*
X028765Y015380D01*
X028888Y015503D01*
X028944Y015526D01*
X028888Y015549D01*
X028765Y015672D01*
X028699Y015833D01*
X028699Y016007D01*
X028765Y016168D01*
X028888Y016291D01*
X028944Y016314D01*
X028888Y016337D01*
X028765Y016460D01*
X028740Y016520D01*
X028247Y016520D01*
X027820Y016093D01*
X027820Y008513D01*
X027697Y008390D01*
X026717Y007410D01*
X022747Y007410D01*
X022325Y006988D01*
X022325Y005491D01*
X022496Y005491D01*
X022510Y005477D01*
X022510Y007077D01*
X022633Y007200D01*
X022833Y007400D01*
X025557Y007400D01*
X025680Y007277D01*
X025855Y007102D01*
X025855Y006485D01*
X026294Y006485D01*
X026387Y006391D01*
X026387Y005809D01*
X026355Y005776D01*
X026355Y005752D01*
X026357Y005750D01*
X026668Y005750D01*
X026668Y005802D01*
X026692Y005826D01*
X026674Y005843D01*
X026650Y005884D01*
X026638Y005930D01*
X026638Y006190D01*
X026976Y006190D01*
X027313Y006190D01*
X027313Y006450D01*
X027301Y006496D01*
X027277Y006537D01*
X027244Y006570D01*
X027203Y006594D01*
X027157Y006606D01*
X026976Y006606D01*
X026976Y006190D01*
X026976Y006190D01*
X027313Y006190D01*
X027313Y005930D01*
X027301Y005884D01*
X027277Y005843D01*
X027270Y005836D01*
X027303Y005802D01*
X027303Y005198D01*
X027231Y005125D01*
X027303Y005052D01*
X027303Y004448D01*
X027209Y004354D01*
X026762Y004354D01*
X026668Y004448D01*
X026668Y004530D01*
X026457Y004530D01*
X026355Y004428D01*
X026355Y004344D01*
X026387Y004311D01*
X026387Y003729D01*
X026294Y003635D01*
X026105Y003635D01*
X026105Y003576D01*
X026216Y003576D01*
X026310Y003482D01*
X026310Y002878D01*
X026216Y002784D01*
X025611Y002784D01*
X025517Y002878D01*
X025517Y003482D01*
X025611Y003576D01*
X025684Y003576D01*
X025681Y003635D01*
X025560Y003635D01*
X025547Y003627D01*
X025501Y003615D01*
X025395Y003615D01*
X025395Y004020D01*
X025395Y004020D01*
X025395Y004425D01*
X025501Y004425D01*
X025547Y004413D01*
X025560Y004405D01*
X025935Y004405D01*
X025935Y004602D01*
X026160Y004827D01*
X026283Y004950D01*
X026668Y004950D01*
X026668Y005052D01*
X026741Y005125D01*
X026668Y005198D01*
X026668Y005330D01*
X026183Y005330D01*
X026068Y005445D01*
X026024Y005337D01*
X025923Y005236D01*
X025791Y005182D01*
X025649Y005182D01*
X025517Y005236D01*
X025416Y005337D01*
X025362Y005469D01*
X025362Y005483D01*
X025340Y005495D01*
X025304Y005495D01*
X025262Y005537D01*
X025210Y005564D01*
X025200Y005599D01*
X025175Y005624D01*
X025175Y005683D01*
X025171Y005695D01*
X025145Y005695D01*
X025145Y006100D01*
X025145Y006100D01*
X025145Y006505D01*
X025251Y006505D01*
X025297Y006493D01*
X025310Y006485D01*
X025435Y006485D01*
X025435Y006928D01*
X025383Y006980D01*
X023007Y006980D01*
X022930Y006903D01*
X022930Y006392D01*
X022940Y006429D01*
X022964Y006471D01*
X022997Y006504D01*
X023038Y006528D01*
X023084Y006540D01*
X023233Y006540D01*
X023233Y006110D01*
X023233Y006110D01*
X023233Y006540D01*
X023382Y006540D01*
X023427Y006528D01*
X023441Y006520D01*
X023712Y006520D01*
X023712Y006661D01*
X023766Y006793D01*
X023867Y006894D01*
X023999Y006948D01*
X024141Y006948D01*
X024273Y006894D01*
X024367Y006800D01*
X024757Y006800D01*
X024880Y006677D01*
X025052Y006505D01*
X025145Y006505D01*
X025145Y006100D01*
X025145Y006100D01*
X025145Y005695D01*
X025039Y005695D01*
X024993Y005707D01*
X024980Y005715D01*
X024942Y005715D01*
X025257Y005400D01*
X025380Y005277D01*
X025380Y004425D01*
X025395Y004425D01*
X025395Y004020D01*
X025395Y004020D01*
X025395Y003615D01*
X025289Y003615D01*
X025243Y003627D01*
X025230Y003635D01*
X025090Y003635D01*
X025090Y003576D01*
X025389Y003576D01*
X025483Y003482D01*
X025483Y002878D01*
X025389Y002784D01*
X025290Y002784D01*
X025290Y002649D01*
X025161Y002520D01*
X025061Y002420D01*
X024340Y002420D01*
X024340Y002298D01*
X024247Y002204D01*
X023681Y002204D01*
X023587Y002298D01*
X023587Y002982D01*
X023681Y003076D01*
X024247Y003076D01*
X024340Y002982D01*
X024340Y002860D01*
X024708Y002860D01*
X024690Y002878D01*
X024690Y003320D01*
X024437Y003320D01*
X024210Y003169D01*
X024161Y003120D01*
X024137Y003120D01*
X024116Y003106D01*
X024048Y003120D01*
X022890Y003120D01*
X022890Y003072D01*
X022893Y003076D01*
X023459Y003076D01*
X023553Y002982D01*
X023553Y002298D01*
X023459Y002204D01*
X023396Y002204D01*
X023396Y002176D01*
X023459Y002176D01*
X023553Y002082D01*
X023553Y001398D01*
X023459Y001304D01*
X022893Y001304D01*
X022800Y001398D01*
X022800Y002082D01*
X022893Y002176D01*
X022956Y002176D01*
X022956Y002204D01*
X022893Y002204D01*
X022800Y002298D01*
X022800Y002420D01*
X022640Y002420D01*
X022640Y002298D01*
X022547Y002204D01*
X021981Y002204D01*
X021887Y002298D01*
X021887Y002982D01*
X021981Y003076D01*
X022450Y003076D01*
X022450Y003120D01*
X022379Y003120D01*
X022250Y003249D01*
X022086Y003413D01*
X022086Y003504D01*
X022082Y003504D01*
X021988Y003598D01*
X021988Y003906D01*
X021887Y004008D01*
X021887Y004285D01*
X021726Y004285D01*
X021632Y004379D01*
X021632Y004520D01*
X021161Y004520D01*
X021090Y004449D01*
X021090Y003031D01*
X021120Y003002D01*
X021193Y003076D01*
X021759Y003076D01*
X021853Y002982D01*
X021853Y002298D01*
X021759Y002204D01*
X021193Y002204D01*
X021100Y002298D01*
X021100Y002420D01*
X021079Y002420D01*
X020779Y002720D01*
X020650Y002849D01*
X020650Y004631D01*
X020850Y004831D01*
X020979Y004960D01*
X021363Y004960D01*
X021353Y004970D01*
X021230Y005093D01*
X021230Y007187D01*
X022030Y007987D01*
X022153Y008110D01*
X022635Y008110D01*
X022518Y008158D01*
X022395Y008281D01*
X022372Y008337D01*
X022349Y008281D01*
X022226Y008158D01*
X022066Y008092D01*
X021891Y008092D01*
X021731Y008158D01*
X021608Y008281D01*
X021585Y008337D01*
X021562Y008281D01*
X021439Y008158D01*
X021278Y008092D01*
X021104Y008092D01*
X020943Y008158D01*
X020820Y008281D01*
X020797Y008337D01*
X020775Y008281D01*
X020652Y008158D01*
X020491Y008092D01*
X020317Y008092D01*
X020156Y008158D01*
X020033Y008281D01*
X020010Y008337D01*
X019987Y008281D01*
X019864Y008158D01*
X019703Y008092D01*
X019529Y008092D01*
X019368Y008158D01*
X019245Y008281D01*
X019223Y008337D01*
X019200Y008281D01*
X019077Y008158D01*
X018916Y008092D01*
X018742Y008092D01*
X018581Y008158D01*
X018458Y008281D01*
X018435Y008337D01*
X018412Y008281D01*
X018289Y008158D01*
X018129Y008092D01*
X017954Y008092D01*
X017794Y008158D01*
X017671Y008281D01*
X017648Y008337D01*
X017625Y008281D01*
X017502Y008158D01*
X017341Y008092D01*
X017167Y008092D01*
X017006Y008158D01*
X016883Y008281D01*
X016860Y008337D01*
X016838Y008281D01*
X016715Y008158D01*
X016554Y008092D01*
X016380Y008092D01*
X016219Y008158D01*
X016096Y008281D01*
X016029Y008442D01*
X005760Y008442D01*
X005760Y008284D02*
X016095Y008284D01*
X016029Y008442D02*
X016029Y008616D01*
X016096Y008777D01*
X016219Y008900D01*
X016380Y008967D01*
X016554Y008967D01*
X016715Y008900D01*
X016838Y008777D01*
X016860Y008722D01*
X016883Y008777D01*
X017006Y008900D01*
X017167Y008967D01*
X017341Y008967D01*
X017502Y008900D01*
X017625Y008777D01*
X017648Y008722D01*
X017671Y008777D01*
X017794Y008900D01*
X017954Y008967D01*
X018129Y008967D01*
X018289Y008900D01*
X018412Y008777D01*
X018435Y008722D01*
X018458Y008777D01*
X018581Y008900D01*
X018742Y008967D01*
X018916Y008967D01*
X019077Y008900D01*
X019200Y008777D01*
X019223Y008722D01*
X019245Y008777D01*
X019368Y008900D01*
X019420Y008922D01*
X019420Y009333D01*
X019537Y009450D01*
X019787Y009700D01*
X021097Y009700D01*
X021670Y010273D01*
X021670Y015990D01*
X015917Y015990D01*
X015527Y016380D01*
X015527Y016380D01*
X015410Y016497D01*
X015410Y018227D01*
X015410Y018393D01*
X015607Y018590D01*
X014598Y018590D01*
X014550Y018542D01*
X014550Y017017D01*
X013385Y015852D01*
X013268Y015735D01*
X011583Y015735D01*
X011532Y015684D01*
X011538Y015670D01*
X011538Y015520D01*
X011481Y015381D01*
X011374Y015274D01*
X011235Y015217D01*
X011085Y015217D01*
X011009Y015248D01*
X011009Y012167D01*
X010942Y012100D01*
X011014Y012028D01*
X011014Y011226D01*
X011087Y011226D01*
X011180Y011132D01*
X011180Y010448D01*
X011087Y010354D01*
X010521Y010354D01*
X010427Y010448D01*
X010427Y011132D01*
X010521Y011226D01*
X010594Y011226D01*
X010594Y011752D01*
X010527Y011685D01*
X010015Y011685D01*
X010015Y011573D01*
X009922Y011479D01*
X009356Y011479D01*
X009262Y011573D01*
X009262Y012257D01*
X009356Y012351D01*
X009922Y012351D01*
X010015Y012257D01*
X010015Y012105D01*
X010353Y012105D01*
X010435Y012187D01*
X010558Y012310D01*
X010589Y012341D01*
X010589Y014082D01*
X010542Y014035D01*
X009892Y013385D01*
X006607Y013385D01*
X006550Y013328D01*
X006550Y012378D01*
X006427Y012255D01*
X006162Y011990D01*
X005760Y011990D01*
X005760Y011784D01*
X005676Y011700D01*
X005760Y011616D01*
X005760Y011410D01*
X006108Y011410D01*
X006710Y012012D01*
X006833Y012135D01*
X008475Y012135D01*
X008475Y012257D01*
X008568Y012351D01*
X009134Y012351D01*
X009228Y012257D01*
X009228Y011573D01*
X009134Y011479D01*
X008568Y011479D01*
X008475Y011573D01*
X008475Y011715D01*
X007007Y011715D01*
X006282Y010990D01*
X005760Y010990D01*
X005760Y010784D01*
X005676Y010700D01*
X005760Y010616D01*
X005760Y009784D01*
X005676Y009700D01*
X005760Y009616D01*
X005760Y008784D01*
X005676Y008700D01*
X005760Y008616D01*
X005760Y007784D01*
X005676Y007700D01*
X005760Y007616D01*
X005760Y006784D01*
X005676Y006700D01*
X005760Y006616D01*
X005760Y005784D01*
X005685Y005709D01*
X005711Y005694D01*
X005744Y005661D01*
X005768Y005619D01*
X005780Y005574D01*
X005780Y005280D01*
X003180Y005280D01*
X003180Y005120D01*
X005780Y005120D01*
X005780Y004826D01*
X005768Y004781D01*
X005744Y004739D01*
X005711Y004706D01*
X005700Y004700D01*
X005711Y004694D01*
X005744Y004661D01*
X005768Y004619D01*
X005780Y004574D01*
X005780Y004280D01*
X003180Y004280D01*
X003020Y004280D01*
X003020Y004730D01*
X003020Y005120D01*
X003180Y005120D01*
X003180Y004280D01*
X003180Y004120D01*
X005780Y004120D01*
X005780Y003826D01*
X005768Y003781D01*
X005744Y003739D01*
X005711Y003706D01*
X005669Y003682D01*
X005624Y003670D01*
X003180Y003670D01*
X003180Y004120D01*
X003020Y004120D01*
X003020Y003670D01*
X000705Y003670D01*
X000705Y003529D02*
X020650Y003529D01*
X020650Y003687D02*
X005678Y003687D01*
X005780Y003846D02*
X020650Y003846D01*
X020650Y004004D02*
X005780Y004004D01*
X005780Y004321D02*
X020650Y004321D01*
X020650Y004163D02*
X003180Y004163D01*
X003180Y004321D02*
X003020Y004321D01*
X003020Y004480D02*
X003180Y004480D01*
X003180Y004638D02*
X003020Y004638D01*
X003020Y004797D02*
X003180Y004797D01*
X003180Y004955D02*
X003020Y004955D01*
X003020Y005114D02*
X003180Y005114D01*
X003180Y005272D02*
X021230Y005272D01*
X021230Y005114D02*
X005780Y005114D01*
X005780Y004955D02*
X020974Y004955D01*
X020815Y004797D02*
X005772Y004797D01*
X005757Y004638D02*
X020657Y004638D01*
X020650Y004480D02*
X005780Y004480D01*
X005780Y005431D02*
X021230Y005431D01*
X021230Y005589D02*
X005776Y005589D01*
X005724Y005748D02*
X021230Y005748D01*
X021230Y005906D02*
X005760Y005906D01*
X005760Y006065D02*
X021230Y006065D01*
X021230Y006223D02*
X005760Y006223D01*
X005760Y006382D02*
X021230Y006382D01*
X021230Y006540D02*
X005760Y006540D01*
X005678Y006699D02*
X021230Y006699D01*
X021230Y006857D02*
X005760Y006857D01*
X005760Y007016D02*
X021230Y007016D01*
X021230Y007174D02*
X005760Y007174D01*
X005760Y007333D02*
X021376Y007333D01*
X021534Y007491D02*
X005760Y007491D01*
X005727Y007650D02*
X021693Y007650D01*
X021851Y007808D02*
X005760Y007808D01*
X005760Y007967D02*
X022010Y007967D01*
X022146Y008125D02*
X022599Y008125D01*
X022394Y008284D02*
X022350Y008284D01*
X022372Y008722D02*
X022349Y008777D01*
X022226Y008900D01*
X022066Y008967D01*
X021891Y008967D01*
X021731Y008900D01*
X021608Y008777D01*
X021585Y008722D01*
X021562Y008777D01*
X021439Y008900D01*
X021278Y008967D01*
X021104Y008967D01*
X020943Y008900D01*
X020820Y008777D01*
X020797Y008722D01*
X020775Y008777D01*
X020652Y008900D01*
X020491Y008967D01*
X020317Y008967D01*
X020156Y008900D01*
X020033Y008777D01*
X020010Y008722D01*
X019987Y008777D01*
X019864Y008900D01*
X019820Y008918D01*
X019820Y009167D01*
X019953Y009300D01*
X021263Y009300D01*
X021380Y009417D01*
X022070Y010107D01*
X022070Y015990D01*
X022158Y015990D01*
X022158Y015888D01*
X022252Y015794D01*
X022635Y015794D01*
X022635Y014816D01*
X022621Y014811D01*
X022514Y014704D01*
X022457Y014565D01*
X022457Y014415D01*
X022514Y014276D01*
X022621Y014169D01*
X022760Y014112D01*
X022910Y014112D01*
X023049Y014169D01*
X023156Y014276D01*
X023213Y014415D01*
X023213Y014565D01*
X023156Y014704D01*
X023049Y014811D01*
X023035Y014816D01*
X023035Y015794D01*
X023408Y015794D01*
X023502Y015888D01*
X023502Y016099D01*
X023643Y016240D01*
X023760Y016357D01*
X023760Y016803D01*
X023801Y016820D01*
X023924Y016943D01*
X023991Y017104D01*
X023991Y017278D01*
X023924Y017439D01*
X023830Y017533D01*
X023830Y018308D01*
X023852Y018308D01*
X023946Y018402D01*
X023946Y019380D01*
X024086Y019380D01*
X024139Y019402D01*
X024225Y019402D01*
X024364Y019459D01*
X024440Y019535D01*
X024440Y017953D01*
X024760Y017633D01*
X024883Y017510D01*
X027003Y017510D01*
X027004Y017509D01*
X027002Y017505D01*
X027002Y017355D01*
X027059Y017216D01*
X027166Y017109D01*
X027305Y017052D01*
X027455Y017052D01*
X027594Y017109D01*
X027701Y017216D01*
X027758Y017355D01*
X027758Y017434D01*
X027835Y017402D01*
X027985Y017402D01*
X028053Y017430D01*
X027940Y017317D01*
X027140Y016517D01*
X027140Y008767D01*
X026483Y008110D01*
X023684Y008110D01*
X023801Y008158D01*
X023924Y008281D01*
X023991Y008442D01*
X026815Y008442D01*
X026657Y008284D02*
X023925Y008284D01*
X023991Y008442D02*
X023991Y008616D01*
X023924Y008777D01*
X023801Y008900D01*
X023640Y008967D01*
X023466Y008967D01*
X023305Y008900D01*
X023182Y008777D01*
X023160Y008722D01*
X023137Y008777D01*
X023014Y008900D01*
X022853Y008967D01*
X022679Y008967D01*
X022518Y008900D01*
X022395Y008777D01*
X022372Y008722D01*
X022357Y008759D02*
X022388Y008759D01*
X022560Y008918D02*
X022184Y008918D01*
X021773Y008918D02*
X021397Y008918D01*
X021569Y008759D02*
X021600Y008759D01*
X021607Y008284D02*
X021563Y008284D01*
X021358Y008125D02*
X021811Y008125D01*
X021024Y008125D02*
X020571Y008125D01*
X020775Y008284D02*
X020819Y008284D01*
X020813Y008759D02*
X020782Y008759D01*
X020610Y008918D02*
X020985Y008918D01*
X021356Y009393D02*
X027140Y009393D01*
X027140Y009235D02*
X019887Y009235D01*
X019820Y009076D02*
X027140Y009076D01*
X027140Y008918D02*
X023759Y008918D01*
X023932Y008759D02*
X027132Y008759D01*
X026974Y008601D02*
X023991Y008601D01*
X023720Y008125D02*
X026498Y008125D01*
X026956Y007650D02*
X030795Y007650D01*
X030795Y007808D02*
X027115Y007808D01*
X027273Y007967D02*
X030795Y007967D01*
X030795Y008125D02*
X027432Y008125D01*
X027590Y008284D02*
X030795Y008284D01*
X030795Y008442D02*
X027749Y008442D01*
X027820Y008601D02*
X030795Y008601D01*
X030795Y008759D02*
X027820Y008759D01*
X027820Y008918D02*
X030795Y008918D01*
X030795Y009076D02*
X027820Y009076D01*
X027820Y009235D02*
X030795Y009235D01*
X030795Y009393D02*
X027820Y009393D01*
X027820Y009552D02*
X030795Y009552D01*
X030795Y009710D02*
X027820Y009710D01*
X027820Y009869D02*
X030795Y009869D01*
X030795Y010027D02*
X027820Y010027D01*
X027820Y010186D02*
X030795Y010186D01*
X030795Y010344D02*
X027820Y010344D01*
X027820Y010503D02*
X030795Y010503D01*
X030795Y010661D02*
X027820Y010661D01*
X027820Y010820D02*
X030795Y010820D01*
X030795Y010978D02*
X027820Y010978D01*
X027820Y011137D02*
X030795Y011137D01*
X030795Y011295D02*
X027820Y011295D01*
X027820Y011454D02*
X030795Y011454D01*
X030795Y011612D02*
X027820Y011612D01*
X027820Y011771D02*
X030795Y011771D01*
X030795Y011929D02*
X027820Y011929D01*
X027820Y012088D02*
X030795Y012088D01*
X030795Y012246D02*
X027820Y012246D01*
X027820Y012405D02*
X030795Y012405D01*
X030795Y012563D02*
X030132Y012563D01*
X029928Y012563D02*
X027820Y012563D01*
X027820Y012722D02*
X028881Y012722D01*
X028723Y012880D02*
X027820Y012880D01*
X027820Y013039D02*
X028564Y013039D01*
X028450Y013197D02*
X027820Y013197D01*
X027820Y013356D02*
X028450Y013356D01*
X028450Y013514D02*
X027820Y013514D01*
X027820Y013673D02*
X028450Y013673D01*
X028450Y013831D02*
X027820Y013831D01*
X027820Y013990D02*
X028450Y013990D01*
X028450Y014148D02*
X027820Y014148D01*
X027820Y014307D02*
X028450Y014307D01*
X028450Y014465D02*
X027820Y014465D01*
X027820Y014624D02*
X028450Y014624D01*
X028489Y014782D02*
X027820Y014782D01*
X027820Y014941D02*
X028647Y014941D01*
X028699Y015099D02*
X027820Y015099D01*
X027820Y015258D02*
X028715Y015258D01*
X028801Y015416D02*
X027820Y015416D01*
X027820Y015575D02*
X028863Y015575D01*
X028740Y015733D02*
X027820Y015733D01*
X027820Y015892D02*
X028699Y015892D01*
X028717Y016050D02*
X027820Y016050D01*
X027936Y016209D02*
X028806Y016209D01*
X028858Y016367D02*
X028094Y016367D01*
X027466Y016843D02*
X023824Y016843D01*
X023760Y016684D02*
X027307Y016684D01*
X027149Y016526D02*
X023760Y016526D01*
X023760Y016367D02*
X027140Y016367D01*
X027140Y016209D02*
X023611Y016209D01*
X023502Y016050D02*
X027140Y016050D01*
X027140Y015892D02*
X023502Y015892D01*
X023035Y015733D02*
X027140Y015733D01*
X027140Y015575D02*
X023035Y015575D01*
X023035Y015416D02*
X027140Y015416D01*
X027140Y015258D02*
X023035Y015258D01*
X023035Y015099D02*
X027140Y015099D01*
X027140Y014941D02*
X023035Y014941D01*
X023078Y014782D02*
X027140Y014782D01*
X027140Y014624D02*
X023189Y014624D01*
X023213Y014465D02*
X027140Y014465D01*
X027140Y014307D02*
X023168Y014307D01*
X022997Y014148D02*
X027140Y014148D01*
X027140Y013990D02*
X022070Y013990D01*
X022070Y014148D02*
X022673Y014148D01*
X022502Y014307D02*
X022070Y014307D01*
X022070Y014465D02*
X022457Y014465D01*
X022481Y014624D02*
X022070Y014624D01*
X022070Y014782D02*
X022592Y014782D01*
X022635Y014941D02*
X022070Y014941D01*
X022070Y015099D02*
X022635Y015099D01*
X022635Y015258D02*
X022070Y015258D01*
X022070Y015416D02*
X022635Y015416D01*
X022635Y015575D02*
X022070Y015575D01*
X022070Y015733D02*
X022635Y015733D01*
X022158Y015892D02*
X022070Y015892D01*
X021670Y015892D02*
X013424Y015892D01*
X013583Y016050D02*
X015857Y016050D01*
X015699Y016209D02*
X013741Y016209D01*
X013900Y016367D02*
X015540Y016367D01*
X015410Y016526D02*
X014058Y016526D01*
X014217Y016684D02*
X015410Y016684D01*
X015410Y016843D02*
X014375Y016843D01*
X014534Y017001D02*
X015410Y017001D01*
X015410Y017160D02*
X014550Y017160D01*
X014550Y017318D02*
X015410Y017318D01*
X015410Y017477D02*
X014550Y017477D01*
X014550Y017635D02*
X015410Y017635D01*
X015410Y017794D02*
X014550Y017794D01*
X014550Y017952D02*
X015410Y017952D01*
X015410Y018111D02*
X014550Y018111D01*
X014550Y018269D02*
X015410Y018269D01*
X015445Y018428D02*
X014550Y018428D01*
X014594Y018586D02*
X015603Y018586D01*
X015852Y018269D02*
X023270Y018269D01*
X023270Y018308D02*
X023270Y017526D01*
X023182Y017439D01*
X023160Y017383D01*
X023137Y017439D01*
X023014Y017562D01*
X022853Y017628D01*
X022679Y017628D01*
X022518Y017562D01*
X022395Y017439D01*
X022372Y017383D01*
X022349Y017439D01*
X022226Y017562D01*
X022066Y017628D01*
X021891Y017628D01*
X021731Y017562D01*
X021608Y017439D01*
X021585Y017383D01*
X021562Y017439D01*
X021439Y017562D01*
X021278Y017628D01*
X021104Y017628D01*
X020943Y017562D01*
X020820Y017439D01*
X020797Y017383D01*
X020775Y017439D01*
X020652Y017562D01*
X020491Y017628D01*
X020317Y017628D01*
X020156Y017562D01*
X020033Y017439D01*
X020010Y017383D01*
X019987Y017439D01*
X019864Y017562D01*
X019703Y017628D01*
X019529Y017628D01*
X019368Y017562D01*
X019245Y017439D01*
X019223Y017383D01*
X019200Y017439D01*
X019077Y017562D01*
X018916Y017628D01*
X018742Y017628D01*
X018581Y017562D01*
X018458Y017439D01*
X018435Y017383D01*
X018412Y017439D01*
X018289Y017562D01*
X018129Y017628D01*
X017954Y017628D01*
X017794Y017562D01*
X017671Y017439D01*
X017648Y017383D01*
X017625Y017439D01*
X017502Y017562D01*
X017341Y017628D01*
X017167Y017628D01*
X017006Y017562D01*
X016883Y017439D01*
X016870Y017407D01*
X016858Y017430D01*
X016816Y017489D01*
X016765Y017540D01*
X016706Y017582D01*
X016642Y017615D01*
X016574Y017637D01*
X016503Y017648D01*
X016467Y017648D01*
X016467Y017191D01*
X016467Y017191D01*
X016467Y017648D01*
X016431Y017648D01*
X016360Y017637D01*
X016291Y017615D01*
X016227Y017582D01*
X016169Y017540D01*
X016118Y017489D01*
X016075Y017430D01*
X016043Y017366D01*
X016020Y017298D01*
X016009Y017227D01*
X016009Y017191D01*
X016467Y017191D01*
X016467Y016733D01*
X016503Y016733D01*
X016574Y016744D01*
X016642Y016767D01*
X016706Y016799D01*
X016765Y016842D01*
X016816Y016893D01*
X016858Y016951D01*
X016870Y016975D01*
X016883Y016943D01*
X017006Y016820D01*
X017167Y016753D01*
X017341Y016753D01*
X017502Y016820D01*
X017625Y016943D01*
X017648Y016998D01*
X017671Y016943D01*
X017794Y016820D01*
X017954Y016753D01*
X018129Y016753D01*
X018289Y016820D01*
X018412Y016943D01*
X018435Y016998D01*
X018458Y016943D01*
X018581Y016820D01*
X018742Y016753D01*
X018916Y016753D01*
X019077Y016820D01*
X019200Y016943D01*
X019223Y016998D01*
X019245Y016943D01*
X019368Y016820D01*
X019529Y016753D01*
X019703Y016753D01*
X019864Y016820D01*
X019987Y016943D01*
X020010Y016998D01*
X020033Y016943D01*
X020156Y016820D01*
X020317Y016753D01*
X020491Y016753D01*
X020652Y016820D01*
X020775Y016943D01*
X020797Y016998D01*
X020820Y016943D01*
X020943Y016820D01*
X021104Y016753D01*
X021278Y016753D01*
X021439Y016820D01*
X021562Y016943D01*
X021585Y016998D01*
X021608Y016943D01*
X021731Y016820D01*
X021891Y016753D01*
X022066Y016753D01*
X022226Y016820D01*
X022349Y016943D01*
X022372Y016998D01*
X022395Y016943D01*
X022518Y016820D01*
X022635Y016771D01*
X022635Y016586D01*
X022252Y016586D01*
X022158Y016492D01*
X022158Y016390D01*
X016083Y016390D01*
X015810Y016663D01*
X015810Y018227D01*
X015943Y018360D01*
X019553Y018360D01*
X020273Y019080D01*
X020390Y019197D01*
X020390Y023307D01*
X020480Y023397D01*
X020480Y021437D01*
X020480Y021263D01*
X021010Y020733D01*
X021133Y020610D01*
X024313Y020610D01*
X024440Y020483D01*
X024440Y020025D01*
X024364Y020101D01*
X024225Y020158D01*
X024075Y020158D01*
X023936Y020101D01*
X023852Y020017D01*
X023852Y020392D01*
X023758Y020486D01*
X023311Y020486D01*
X023217Y020392D01*
X023217Y019788D01*
X023270Y019735D01*
X023270Y019612D01*
X023247Y019612D01*
X023153Y019518D01*
X023153Y018402D01*
X023247Y018308D01*
X023270Y018308D01*
X023153Y018428D02*
X022662Y018428D01*
X022667Y018444D02*
X022667Y018922D01*
X022289Y018922D01*
X022289Y018998D01*
X022667Y018998D01*
X022667Y019476D01*
X022654Y019522D01*
X022631Y019563D01*
X022597Y019596D01*
X022556Y019620D01*
X022510Y019632D01*
X022289Y019632D01*
X022289Y018998D01*
X022212Y018998D01*
X022212Y018922D01*
X021834Y018922D01*
X021834Y018444D01*
X021846Y018398D01*
X021870Y018357D01*
X021904Y018324D01*
X021945Y018300D01*
X021990Y018288D01*
X022212Y018288D01*
X022212Y018922D01*
X022289Y018922D01*
X022289Y018288D01*
X022510Y018288D01*
X022556Y018300D01*
X022597Y018324D01*
X022631Y018357D01*
X022654Y018398D01*
X022667Y018444D01*
X022667Y018586D02*
X023153Y018586D01*
X023153Y018745D02*
X022667Y018745D01*
X022667Y018903D02*
X023153Y018903D01*
X023153Y019062D02*
X022667Y019062D01*
X022667Y019220D02*
X023153Y019220D01*
X023153Y019379D02*
X022667Y019379D01*
X022645Y019537D02*
X023172Y019537D01*
X023270Y019696D02*
X023069Y019696D01*
X023053Y019686D02*
X023094Y019710D01*
X023127Y019743D01*
X023151Y019784D01*
X023163Y019830D01*
X023163Y020090D01*
X023163Y020350D01*
X023151Y020396D01*
X023127Y020437D01*
X023094Y020470D01*
X023053Y020494D01*
X023007Y020506D01*
X022826Y020506D01*
X022826Y020090D01*
X023163Y020090D01*
X022826Y020090D01*
X022826Y020090D01*
X022826Y020090D01*
X022826Y019674D01*
X023007Y019674D01*
X023053Y019686D01*
X023163Y019854D02*
X023217Y019854D01*
X023217Y020013D02*
X023163Y020013D01*
X023163Y020171D02*
X023217Y020171D01*
X023217Y020330D02*
X023163Y020330D01*
X023063Y020488D02*
X024435Y020488D01*
X024440Y020330D02*
X023852Y020330D01*
X023852Y020171D02*
X024440Y020171D01*
X024440Y019379D02*
X023946Y019379D01*
X023946Y019220D02*
X024440Y019220D01*
X024440Y019062D02*
X023946Y019062D01*
X023946Y018903D02*
X024440Y018903D01*
X024440Y018745D02*
X023946Y018745D01*
X023946Y018586D02*
X024440Y018586D01*
X024440Y018428D02*
X023946Y018428D01*
X023830Y018269D02*
X024440Y018269D01*
X024440Y018111D02*
X023830Y018111D01*
X023830Y017952D02*
X024441Y017952D01*
X024599Y017794D02*
X023830Y017794D01*
X023830Y017635D02*
X024758Y017635D01*
X025090Y018269D02*
X030200Y018269D01*
X030200Y018111D02*
X029881Y018111D01*
X029997Y017952D02*
X030200Y017952D01*
X030200Y017794D02*
X030046Y017794D01*
X030046Y017635D02*
X030200Y017635D01*
X030200Y017477D02*
X029983Y017477D01*
X029847Y017318D02*
X030200Y017318D01*
X030200Y017160D02*
X029769Y017160D01*
X029077Y017477D02*
X028141Y017477D01*
X028259Y017635D02*
X029014Y017635D01*
X029014Y017794D02*
X028288Y017794D01*
X028248Y017952D02*
X029063Y017952D01*
X029179Y018111D02*
X028100Y018111D01*
X028464Y018664D02*
X028370Y018758D01*
X028370Y018850D01*
X026622Y018850D01*
X026622Y018768D01*
X026528Y018674D01*
X026081Y018674D01*
X025987Y018768D01*
X025987Y019372D01*
X026081Y019466D01*
X026528Y019466D01*
X026622Y019372D01*
X026622Y019270D01*
X028370Y019270D01*
X028370Y019362D01*
X028464Y019456D01*
X029069Y019456D01*
X029163Y019362D01*
X029163Y018758D01*
X029069Y018664D01*
X028464Y018664D01*
X028383Y018745D02*
X026599Y018745D01*
X026010Y018745D02*
X025890Y018745D01*
X025913Y018903D02*
X025987Y018903D01*
X025987Y019062D02*
X025913Y019062D01*
X025913Y019220D02*
X025987Y019220D01*
X025993Y019379D02*
X025907Y019379D01*
X025806Y019537D02*
X030128Y019537D01*
X030165Y019522D02*
X030315Y019522D01*
X030454Y019579D01*
X030561Y019686D01*
X030618Y019825D01*
X030618Y019975D01*
X030561Y020114D01*
X030454Y020221D01*
X030315Y020278D01*
X030165Y020278D01*
X030026Y020221D01*
X029985Y020180D01*
X029970Y020180D01*
X029970Y020272D01*
X029876Y020366D01*
X029271Y020366D01*
X029177Y020272D01*
X029177Y019668D01*
X029271Y019574D01*
X029876Y019574D01*
X029954Y019652D01*
X030026Y019579D01*
X030165Y019522D01*
X030352Y019537D02*
X030795Y019537D01*
X030795Y019379D02*
X029974Y019379D01*
X030287Y019220D02*
X030795Y019220D01*
X030795Y019062D02*
X030445Y019062D01*
X030604Y018903D02*
X030795Y018903D01*
X030795Y018745D02*
X030620Y018745D01*
X030620Y018586D02*
X030795Y018586D01*
X030795Y018428D02*
X030620Y018428D01*
X030620Y018269D02*
X030795Y018269D01*
X030795Y018111D02*
X030620Y018111D01*
X030620Y017952D02*
X030795Y017952D01*
X030795Y017794D02*
X030620Y017794D01*
X030620Y017635D02*
X030795Y017635D01*
X030795Y017477D02*
X030620Y017477D01*
X030620Y017318D02*
X030795Y017318D01*
X030795Y017160D02*
X030620Y017160D01*
X030620Y017001D02*
X030795Y017001D01*
X030795Y016843D02*
X030620Y016843D01*
X030620Y016684D02*
X030795Y016684D01*
X030795Y016526D02*
X030620Y016526D01*
X030620Y016367D02*
X030795Y016367D01*
X030795Y016209D02*
X030620Y016209D01*
X030620Y016050D02*
X030795Y016050D01*
X030795Y015892D02*
X030620Y015892D01*
X030620Y015733D02*
X030795Y015733D01*
X030795Y015575D02*
X030620Y015575D01*
X030620Y015416D02*
X030795Y015416D01*
X030795Y015258D02*
X030620Y015258D01*
X030566Y015099D02*
X030795Y015099D01*
X030795Y014941D02*
X030318Y014941D01*
X030192Y014782D02*
X030795Y014782D01*
X030795Y014624D02*
X029637Y014624D01*
X029633Y014625D02*
X029427Y014625D01*
X029238Y014547D01*
X029092Y014401D01*
X029014Y014212D01*
X029014Y014006D01*
X029092Y013817D01*
X029238Y013671D01*
X029427Y013593D01*
X029633Y013593D01*
X029822Y013671D01*
X029968Y013817D01*
X030046Y014006D01*
X030046Y014212D01*
X029968Y014401D01*
X029822Y014547D01*
X029633Y014625D01*
X029656Y014782D02*
X029404Y014782D01*
X029423Y014624D02*
X028924Y014624D01*
X028870Y014465D02*
X029156Y014465D01*
X029053Y014307D02*
X028870Y014307D01*
X028870Y014148D02*
X029014Y014148D01*
X029021Y013990D02*
X028870Y013990D01*
X028870Y013831D02*
X029086Y013831D01*
X029236Y013673D02*
X028870Y013673D01*
X028870Y013514D02*
X030795Y013514D01*
X030795Y013356D02*
X028870Y013356D01*
X029000Y013197D02*
X029762Y013197D01*
X029824Y013673D02*
X030795Y013673D01*
X030795Y013831D02*
X029974Y013831D01*
X030039Y013990D02*
X030795Y013990D01*
X030795Y014148D02*
X030046Y014148D01*
X030007Y014307D02*
X030795Y014307D01*
X030795Y014465D02*
X029904Y014465D01*
X030298Y013197D02*
X030795Y013197D01*
X030795Y013039D02*
X030394Y013039D01*
X030408Y012880D02*
X030795Y012880D01*
X030795Y012722D02*
X030353Y012722D01*
X027140Y012722D02*
X022070Y012722D01*
X022070Y012880D02*
X027140Y012880D01*
X027140Y013039D02*
X022070Y013039D01*
X022070Y013197D02*
X027140Y013197D01*
X027140Y013356D02*
X022070Y013356D01*
X022070Y013514D02*
X027140Y013514D01*
X027140Y013673D02*
X022070Y013673D01*
X022070Y013831D02*
X027140Y013831D01*
X027140Y012563D02*
X022070Y012563D01*
X022070Y012405D02*
X027140Y012405D01*
X027140Y012246D02*
X022070Y012246D01*
X022070Y012088D02*
X027140Y012088D01*
X027140Y011929D02*
X022070Y011929D01*
X022070Y011771D02*
X027140Y011771D01*
X027140Y011612D02*
X022070Y011612D01*
X022070Y011454D02*
X027140Y011454D01*
X027140Y011295D02*
X022070Y011295D01*
X022070Y011137D02*
X027140Y011137D01*
X027140Y010978D02*
X022070Y010978D01*
X022070Y010820D02*
X027140Y010820D01*
X027140Y010661D02*
X022070Y010661D01*
X022070Y010503D02*
X027140Y010503D01*
X027140Y010344D02*
X022070Y010344D01*
X022070Y010186D02*
X027140Y010186D01*
X027140Y010027D02*
X021990Y010027D01*
X021831Y009869D02*
X027140Y009869D01*
X027140Y009710D02*
X021673Y009710D01*
X021514Y009552D02*
X027140Y009552D01*
X026798Y007491D02*
X030795Y007491D01*
X030795Y007333D02*
X025624Y007333D01*
X025783Y007174D02*
X029416Y007174D01*
X029455Y007190D02*
X029260Y007109D01*
X029111Y006960D01*
X029030Y006765D01*
X029030Y006555D01*
X029111Y006360D01*
X029260Y006211D01*
X029332Y006181D01*
X029160Y006109D01*
X029011Y005960D01*
X028930Y005765D01*
X028930Y005710D01*
X028012Y005710D01*
X028012Y005802D01*
X027964Y005850D01*
X028002Y005888D01*
X028002Y006492D01*
X027908Y006586D01*
X027461Y006586D01*
X027367Y006492D01*
X027367Y005888D01*
X027414Y005840D01*
X027377Y005802D01*
X027377Y005198D01*
X027449Y005125D01*
X027377Y005052D01*
X027377Y004448D01*
X027471Y004354D01*
X027484Y004354D01*
X027484Y004296D01*
X027471Y004296D01*
X027377Y004202D01*
X027377Y003598D01*
X027471Y003504D01*
X027918Y003504D01*
X028012Y003598D01*
X028012Y004202D01*
X027918Y004296D01*
X027904Y004296D01*
X027904Y004354D01*
X027918Y004354D01*
X028012Y004448D01*
X028012Y004450D01*
X029073Y004450D01*
X029111Y004360D01*
X029260Y004211D01*
X029261Y004210D01*
X029066Y004210D01*
X029021Y004198D01*
X028979Y004174D01*
X028946Y004141D01*
X028922Y004099D01*
X028910Y004054D01*
X028910Y003680D01*
X029440Y003680D01*
X029440Y003640D01*
X029480Y003640D01*
X029480Y003680D01*
X030010Y003680D01*
X030010Y004054D01*
X029998Y004099D01*
X029974Y004141D01*
X029941Y004174D01*
X029899Y004198D01*
X029857Y004209D01*
X029860Y004211D01*
X030009Y004360D01*
X030090Y004555D01*
X030090Y004765D01*
X030009Y004960D01*
X029860Y005109D01*
X029688Y005181D01*
X029760Y005211D01*
X029909Y005360D01*
X029990Y005555D01*
X029990Y005765D01*
X029909Y005960D01*
X029760Y006109D01*
X029688Y006139D01*
X029860Y006211D01*
X030009Y006360D01*
X030090Y006555D01*
X030090Y006765D01*
X030009Y006960D01*
X029860Y007109D01*
X029665Y007190D01*
X029455Y007190D01*
X029704Y007174D02*
X030795Y007174D01*
X030795Y007016D02*
X029954Y007016D01*
X030052Y006857D02*
X030795Y006857D01*
X030795Y006699D02*
X030090Y006699D01*
X030084Y006540D02*
X030795Y006540D01*
X030795Y006382D02*
X030018Y006382D01*
X029873Y006223D02*
X030795Y006223D01*
X030795Y006065D02*
X029805Y006065D01*
X029932Y005906D02*
X030795Y005906D01*
X030795Y005748D02*
X029990Y005748D01*
X029990Y005589D02*
X030795Y005589D01*
X030795Y005431D02*
X029939Y005431D01*
X029822Y005272D02*
X030795Y005272D01*
X030795Y005114D02*
X029850Y005114D01*
X030011Y004955D02*
X030795Y004955D01*
X030795Y004797D02*
X030077Y004797D01*
X030090Y004638D02*
X030795Y004638D01*
X030795Y004480D02*
X030059Y004480D01*
X029971Y004321D02*
X030795Y004321D01*
X030795Y004163D02*
X029952Y004163D01*
X030010Y004004D02*
X030795Y004004D01*
X030795Y003846D02*
X030010Y003846D01*
X030010Y003687D02*
X030795Y003687D01*
X030795Y003529D02*
X030010Y003529D01*
X030010Y003640D02*
X029480Y003640D01*
X029480Y003110D01*
X029854Y003110D01*
X029899Y003122D01*
X029941Y003146D01*
X029974Y003179D01*
X029998Y003221D01*
X030010Y003266D01*
X030010Y003640D01*
X030010Y003370D02*
X030795Y003370D01*
X030795Y003212D02*
X029993Y003212D01*
X029480Y003212D02*
X029440Y003212D01*
X029440Y003110D02*
X029440Y003640D01*
X028910Y003640D01*
X028910Y003266D01*
X028922Y003221D01*
X028946Y003179D01*
X028979Y003146D01*
X029021Y003122D01*
X029066Y003110D01*
X029440Y003110D01*
X029440Y003370D02*
X029480Y003370D01*
X029480Y003529D02*
X029440Y003529D01*
X028910Y003529D02*
X027943Y003529D01*
X028012Y003687D02*
X028910Y003687D01*
X028910Y003846D02*
X028012Y003846D01*
X028012Y004004D02*
X028910Y004004D01*
X028968Y004163D02*
X028012Y004163D01*
X027904Y004321D02*
X029149Y004321D01*
X029073Y004870D02*
X028012Y004870D01*
X028012Y005052D01*
X027939Y005125D01*
X028012Y005198D01*
X028012Y005290D01*
X029080Y005290D01*
X029160Y005211D01*
X029332Y005139D01*
X029260Y005109D01*
X029111Y004960D01*
X029073Y004870D01*
X029109Y004955D02*
X028012Y004955D01*
X027951Y005114D02*
X029270Y005114D01*
X029098Y005272D02*
X028012Y005272D01*
X028012Y005748D02*
X028930Y005748D01*
X028988Y005906D02*
X028002Y005906D01*
X028002Y006065D02*
X029115Y006065D01*
X029247Y006223D02*
X028002Y006223D01*
X028002Y006382D02*
X029102Y006382D01*
X029036Y006540D02*
X027954Y006540D01*
X027414Y006540D02*
X027274Y006540D01*
X027313Y006382D02*
X027367Y006382D01*
X027367Y006223D02*
X027313Y006223D01*
X027313Y006065D02*
X027367Y006065D01*
X027367Y005906D02*
X027307Y005906D01*
X027303Y005748D02*
X027377Y005748D01*
X027377Y005589D02*
X027303Y005589D01*
X027303Y005431D02*
X027377Y005431D01*
X027377Y005272D02*
X027303Y005272D01*
X027242Y005114D02*
X027438Y005114D01*
X027377Y004955D02*
X027303Y004955D01*
X027303Y004797D02*
X027377Y004797D01*
X027377Y004638D02*
X027303Y004638D01*
X027303Y004480D02*
X027377Y004480D01*
X027484Y004321D02*
X026378Y004321D01*
X026387Y004163D02*
X026649Y004163D01*
X026648Y004160D02*
X026648Y003900D01*
X026986Y003900D01*
X027323Y003900D01*
X027323Y004160D01*
X027311Y004206D01*
X027287Y004247D01*
X027254Y004280D01*
X027213Y004304D01*
X027167Y004316D01*
X026986Y004316D01*
X026986Y003900D01*
X026986Y003900D01*
X027323Y003900D01*
X027323Y003640D01*
X027311Y003594D01*
X027287Y003553D01*
X027254Y003520D01*
X027213Y003496D01*
X027167Y003484D01*
X026986Y003484D01*
X026986Y003900D01*
X026986Y003900D01*
X026986Y003900D01*
X026986Y004316D01*
X026804Y004316D01*
X026759Y004304D01*
X026718Y004280D01*
X026684Y004247D01*
X026660Y004206D01*
X026648Y004160D01*
X026648Y004004D02*
X026387Y004004D01*
X026387Y003846D02*
X026648Y003846D01*
X026648Y003900D02*
X026648Y003640D01*
X026660Y003594D01*
X026684Y003553D01*
X026718Y003520D01*
X026759Y003496D01*
X026804Y003484D01*
X026986Y003484D01*
X026986Y003900D01*
X026648Y003900D01*
X026648Y003687D02*
X026346Y003687D01*
X026264Y003529D02*
X026709Y003529D01*
X026986Y003529D02*
X026986Y003529D01*
X026986Y003687D02*
X026986Y003687D01*
X026986Y003846D02*
X026986Y003846D01*
X026986Y003900D02*
X026986Y003900D01*
X026986Y004004D02*
X026986Y004004D01*
X026986Y004163D02*
X026986Y004163D01*
X027322Y004163D02*
X027377Y004163D01*
X027377Y004004D02*
X027323Y004004D01*
X027323Y003846D02*
X027377Y003846D01*
X027377Y003687D02*
X027323Y003687D01*
X027262Y003529D02*
X027446Y003529D01*
X026668Y004480D02*
X026406Y004480D01*
X026130Y004797D02*
X025380Y004797D01*
X025380Y004955D02*
X026668Y004955D01*
X026729Y005114D02*
X025380Y005114D01*
X025380Y005272D02*
X025481Y005272D01*
X025377Y005431D02*
X025226Y005431D01*
X025203Y005589D02*
X025068Y005589D01*
X025145Y005748D02*
X025145Y005748D01*
X025145Y005906D02*
X025145Y005906D01*
X025145Y006065D02*
X025145Y006065D01*
X025145Y006223D02*
X025145Y006223D01*
X025145Y006382D02*
X025145Y006382D01*
X025017Y006540D02*
X025435Y006540D01*
X025435Y006699D02*
X024858Y006699D01*
X024310Y006857D02*
X025435Y006857D01*
X025855Y006857D02*
X029068Y006857D01*
X029030Y006699D02*
X025855Y006699D01*
X025855Y006540D02*
X026677Y006540D01*
X026674Y006537D02*
X026650Y006496D01*
X026638Y006450D01*
X026638Y006190D01*
X026976Y006190D01*
X026976Y006190D01*
X026976Y006606D01*
X026794Y006606D01*
X026749Y006594D01*
X026708Y006570D01*
X026674Y006537D01*
X026638Y006382D02*
X026387Y006382D01*
X026387Y006223D02*
X026638Y006223D01*
X026638Y006065D02*
X026387Y006065D01*
X026387Y005906D02*
X026645Y005906D01*
X026976Y006190D02*
X026976Y006190D01*
X026976Y006223D02*
X026976Y006223D01*
X026976Y006382D02*
X026976Y006382D01*
X026976Y006540D02*
X026976Y006540D01*
X025895Y006100D02*
X025645Y006100D01*
X025810Y006100D01*
X025870Y006040D01*
X026063Y005431D02*
X026083Y005431D01*
X025959Y005272D02*
X026668Y005272D01*
X025971Y004638D02*
X025380Y004638D01*
X025380Y004480D02*
X025935Y004480D01*
X025395Y004321D02*
X025395Y004321D01*
X025395Y004163D02*
X025395Y004163D01*
X025395Y004004D02*
X025395Y004004D01*
X025395Y003846D02*
X025395Y003846D01*
X025395Y003687D02*
X025395Y003687D01*
X025437Y003529D02*
X025563Y003529D01*
X025517Y003370D02*
X025483Y003370D01*
X025483Y003212D02*
X025517Y003212D01*
X025517Y003053D02*
X025483Y003053D01*
X025483Y002895D02*
X025517Y002895D01*
X025290Y002736D02*
X030795Y002736D01*
X030795Y002578D02*
X025219Y002578D01*
X025359Y002136D02*
X024754Y002136D01*
X024660Y002042D01*
X024660Y001960D01*
X024340Y001960D01*
X024340Y002082D01*
X024247Y002176D01*
X023681Y002176D01*
X023587Y002082D01*
X023587Y001398D01*
X023681Y001304D01*
X024247Y001304D01*
X024340Y001398D01*
X024340Y001520D01*
X024660Y001520D01*
X024660Y001438D01*
X024754Y001344D01*
X025359Y001344D01*
X025453Y001438D01*
X025453Y002042D01*
X025359Y002136D01*
X025393Y002102D02*
X025547Y002102D01*
X025581Y002136D02*
X025487Y002042D01*
X025487Y001438D01*
X025581Y001344D01*
X026186Y001344D01*
X026280Y001438D01*
X026280Y001530D01*
X026557Y001530D01*
X026589Y001562D01*
X026695Y001562D01*
X026834Y001619D01*
X026941Y001726D01*
X026998Y001865D01*
X026998Y002015D01*
X026941Y002154D01*
X026834Y002261D01*
X026695Y002318D01*
X026545Y002318D01*
X026406Y002261D01*
X026299Y002154D01*
X026261Y002061D01*
X026186Y002136D01*
X025581Y002136D01*
X025487Y001944D02*
X025453Y001944D01*
X025453Y001785D02*
X025487Y001785D01*
X025487Y001627D02*
X025453Y001627D01*
X025453Y001468D02*
X025487Y001468D01*
X026280Y001468D02*
X027458Y001468D01*
X027395Y001310D02*
X024252Y001310D01*
X024340Y001468D02*
X024660Y001468D01*
X024720Y002102D02*
X024320Y002102D01*
X024303Y002261D02*
X026406Y002261D01*
X026278Y002102D02*
X026220Y002102D01*
X026834Y002261D02*
X030795Y002261D01*
X030795Y002419D02*
X024340Y002419D01*
X024340Y002895D02*
X024690Y002895D01*
X024690Y003053D02*
X024269Y003053D01*
X024274Y003212D02*
X024690Y003212D01*
X024194Y003687D02*
X024003Y003560D01*
X023320Y003560D01*
X023340Y003594D01*
X023352Y003640D01*
X023352Y003900D01*
X023352Y004160D01*
X023340Y004206D01*
X023316Y004247D01*
X023297Y004265D01*
X023449Y004265D01*
X023449Y004504D01*
X022954Y004504D01*
X022954Y004421D01*
X022967Y004376D01*
X022990Y004335D01*
X023009Y004316D01*
X022833Y004316D01*
X022787Y004304D01*
X022746Y004280D01*
X022713Y004247D01*
X022689Y004206D01*
X022677Y004160D01*
X022677Y003900D01*
X022677Y003640D01*
X022689Y003594D01*
X022709Y003560D01*
X022586Y003560D01*
X022623Y003598D01*
X022623Y004202D01*
X022546Y004280D01*
X022707Y004280D01*
X022830Y004403D01*
X022930Y004503D01*
X022930Y004583D01*
X022954Y004559D01*
X022954Y004504D01*
X023449Y004504D01*
X023449Y004504D01*
X023449Y004504D01*
X023449Y004265D01*
X023788Y004265D01*
X023834Y004277D01*
X023875Y004301D01*
X023908Y004335D01*
X023932Y004376D01*
X023944Y004421D01*
X023944Y004504D01*
X023449Y004504D01*
X023449Y004504D01*
X023944Y004504D01*
X023944Y004587D01*
X023932Y004633D01*
X023924Y004646D01*
X023924Y004800D01*
X024150Y004800D01*
X024150Y003954D01*
X024153Y003951D01*
X024153Y003729D01*
X024194Y003687D01*
X023352Y003687D01*
X023352Y003846D02*
X024153Y003846D01*
X024150Y004004D02*
X023352Y004004D01*
X023352Y003900D02*
X023014Y003900D01*
X022677Y003900D01*
X023014Y003900D01*
X023014Y003900D01*
X023014Y003900D01*
X023352Y003900D01*
X023351Y004163D02*
X024150Y004163D01*
X024150Y004321D02*
X023895Y004321D01*
X023944Y004480D02*
X024150Y004480D01*
X024150Y004638D02*
X023929Y004638D01*
X023924Y004797D02*
X024150Y004797D01*
X024590Y004797D02*
X024960Y004797D01*
X024960Y004955D02*
X024590Y004955D01*
X024590Y005031D02*
X024461Y005160D01*
X024381Y005240D01*
X023944Y005240D01*
X023944Y005276D01*
X023944Y005359D01*
X023932Y005404D01*
X023917Y005430D01*
X024633Y005430D01*
X024960Y005103D01*
X024960Y004405D01*
X024794Y004405D01*
X024590Y004405D01*
X024590Y005031D01*
X024508Y005114D02*
X024950Y005114D01*
X024791Y005272D02*
X023944Y005272D01*
X023944Y005276D02*
X023449Y005276D01*
X023944Y005276D01*
X023449Y005276D02*
X023449Y005276D01*
X023449Y004480D02*
X023449Y004480D01*
X023449Y004321D02*
X023449Y004321D01*
X023004Y004321D02*
X022748Y004321D01*
X022678Y004163D02*
X022623Y004163D01*
X022623Y004004D02*
X022677Y004004D01*
X022677Y003846D02*
X022623Y003846D01*
X022623Y003687D02*
X022677Y003687D01*
X022287Y003212D02*
X021090Y003212D01*
X021090Y003370D02*
X022129Y003370D01*
X022057Y003529D02*
X021090Y003529D01*
X021090Y003687D02*
X021988Y003687D01*
X021988Y003846D02*
X021090Y003846D01*
X021090Y004004D02*
X021891Y004004D01*
X021887Y004163D02*
X021090Y004163D01*
X021090Y004321D02*
X021690Y004321D01*
X021632Y004480D02*
X021121Y004480D01*
X020650Y003370D02*
X000705Y003370D01*
X000705Y003212D02*
X020650Y003212D01*
X020650Y003053D02*
X000705Y003053D01*
X000705Y002895D02*
X020650Y002895D01*
X020763Y002736D02*
X000705Y002736D01*
X000705Y002578D02*
X020921Y002578D01*
X021100Y002419D02*
X000705Y002419D01*
X000705Y002261D02*
X021137Y002261D01*
X021815Y002261D02*
X021925Y002261D01*
X021887Y002419D02*
X021853Y002419D01*
X021853Y002578D02*
X021887Y002578D01*
X021887Y002736D02*
X021853Y002736D01*
X021853Y002895D02*
X021887Y002895D01*
X021958Y003053D02*
X021782Y003053D01*
X021171Y003053D02*
X021090Y003053D01*
X022640Y002419D02*
X022800Y002419D01*
X022837Y002261D02*
X022603Y002261D01*
X022820Y002102D02*
X000705Y002102D01*
X000705Y001944D02*
X022800Y001944D01*
X022800Y001785D02*
X000705Y001785D01*
X000705Y001627D02*
X022800Y001627D01*
X022800Y001468D02*
X000705Y001468D01*
X000705Y001310D02*
X022888Y001310D01*
X023464Y001310D02*
X023676Y001310D01*
X023587Y001468D02*
X023553Y001468D01*
X023553Y001627D02*
X023587Y001627D01*
X023587Y001785D02*
X023553Y001785D01*
X023553Y001944D02*
X023587Y001944D01*
X023607Y002102D02*
X023533Y002102D01*
X023515Y002261D02*
X023625Y002261D01*
X023587Y002419D02*
X023553Y002419D01*
X023553Y002578D02*
X023587Y002578D01*
X023587Y002736D02*
X023553Y002736D01*
X023553Y002895D02*
X023587Y002895D01*
X023658Y003053D02*
X023482Y003053D01*
X022954Y004480D02*
X022906Y004480D01*
X022510Y005589D02*
X022325Y005589D01*
X022325Y005748D02*
X022510Y005748D01*
X022510Y005906D02*
X022325Y005906D01*
X022325Y006065D02*
X022510Y006065D01*
X022510Y006223D02*
X022325Y006223D01*
X022325Y006382D02*
X022510Y006382D01*
X022510Y006540D02*
X022325Y006540D01*
X022325Y006699D02*
X022510Y006699D01*
X022510Y006857D02*
X022325Y006857D01*
X022352Y007016D02*
X022510Y007016D01*
X022511Y007174D02*
X022607Y007174D01*
X022669Y007333D02*
X022766Y007333D01*
X022930Y006857D02*
X023830Y006857D01*
X023727Y006699D02*
X022930Y006699D01*
X022930Y006540D02*
X023712Y006540D01*
X023233Y006382D02*
X023233Y006382D01*
X023233Y006223D02*
X023233Y006223D01*
X024590Y004638D02*
X024960Y004638D01*
X024960Y004480D02*
X024590Y004480D01*
X026310Y003370D02*
X028910Y003370D01*
X028927Y003212D02*
X026310Y003212D01*
X026310Y003053D02*
X030795Y003053D01*
X030795Y002895D02*
X026310Y002895D01*
X026962Y002102D02*
X030795Y002102D01*
X030795Y001944D02*
X026998Y001944D01*
X026965Y001785D02*
X027844Y001785D01*
X028156Y001785D02*
X030795Y001785D01*
X030795Y001627D02*
X028436Y001627D01*
X028542Y001468D02*
X030795Y001468D01*
X030795Y001310D02*
X028605Y001310D01*
X028605Y001151D02*
X030795Y001151D01*
X030795Y000993D02*
X028605Y000993D01*
X028605Y000834D02*
X030795Y000834D01*
X030795Y000676D02*
X028605Y000676D01*
X028605Y000517D02*
X030795Y000517D01*
X027395Y000517D02*
X000705Y000517D01*
X000705Y000676D02*
X027395Y000676D01*
X027395Y000834D02*
X000705Y000834D01*
X000705Y000993D02*
X027395Y000993D01*
X027395Y001151D02*
X000705Y001151D01*
X003020Y003687D02*
X003180Y003687D01*
X003180Y003846D02*
X003020Y003846D01*
X003020Y004004D02*
X003180Y004004D01*
X005760Y008125D02*
X016300Y008125D01*
X016634Y008125D02*
X017087Y008125D01*
X016882Y008284D02*
X016838Y008284D01*
X016845Y008759D02*
X016876Y008759D01*
X017048Y008918D02*
X016673Y008918D01*
X016261Y008918D02*
X005760Y008918D01*
X005760Y009076D02*
X019420Y009076D01*
X019420Y009235D02*
X005760Y009235D01*
X005760Y009393D02*
X019480Y009393D01*
X019639Y009552D02*
X005760Y009552D01*
X005686Y009710D02*
X021107Y009710D01*
X021266Y009869D02*
X005760Y009869D01*
X005760Y010027D02*
X021424Y010027D01*
X021583Y010186D02*
X005760Y010186D01*
X005760Y010344D02*
X021670Y010344D01*
X021670Y010503D02*
X011180Y010503D01*
X011180Y010661D02*
X021670Y010661D01*
X021670Y010820D02*
X011180Y010820D01*
X011180Y010978D02*
X021670Y010978D01*
X021670Y011137D02*
X011176Y011137D01*
X011014Y011295D02*
X021670Y011295D01*
X021670Y011454D02*
X011014Y011454D01*
X011014Y011612D02*
X021670Y011612D01*
X021670Y011771D02*
X011014Y011771D01*
X011014Y011929D02*
X021670Y011929D01*
X021670Y012088D02*
X010954Y012088D01*
X011009Y012246D02*
X021670Y012246D01*
X021670Y012405D02*
X011009Y012405D01*
X011009Y012563D02*
X021670Y012563D01*
X021670Y012722D02*
X011009Y012722D01*
X011009Y012880D02*
X021670Y012880D01*
X021670Y013039D02*
X011009Y013039D01*
X011009Y013197D02*
X021670Y013197D01*
X021670Y013356D02*
X011009Y013356D01*
X011009Y013514D02*
X021670Y013514D01*
X021670Y013673D02*
X011009Y013673D01*
X011009Y013831D02*
X021670Y013831D01*
X021670Y013990D02*
X011009Y013990D01*
X011009Y014148D02*
X021670Y014148D01*
X021670Y014307D02*
X011009Y014307D01*
X011009Y014465D02*
X021670Y014465D01*
X021670Y014624D02*
X011009Y014624D01*
X011009Y014782D02*
X021670Y014782D01*
X021670Y014941D02*
X011009Y014941D01*
X011009Y015099D02*
X021670Y015099D01*
X021670Y015258D02*
X011333Y015258D01*
X011495Y015416D02*
X021670Y015416D01*
X021670Y015575D02*
X011538Y015575D01*
X011581Y015733D02*
X021670Y015733D01*
X022191Y016526D02*
X015947Y016526D01*
X015810Y016684D02*
X022635Y016684D01*
X022495Y016843D02*
X022249Y016843D01*
X022311Y017477D02*
X022433Y017477D01*
X023099Y017477D02*
X023220Y017477D01*
X023270Y017635D02*
X016580Y017635D01*
X016467Y017635D02*
X016467Y017635D01*
X016354Y017635D02*
X015810Y017635D01*
X015810Y017477D02*
X016109Y017477D01*
X016027Y017318D02*
X015810Y017318D01*
X015810Y017160D02*
X016009Y017160D01*
X016009Y017155D02*
X016020Y017084D01*
X016043Y017015D01*
X016075Y016951D01*
X016118Y016893D01*
X016169Y016842D01*
X016227Y016799D01*
X016291Y016767D01*
X016360Y016744D01*
X016431Y016733D01*
X016467Y016733D01*
X016467Y017191D01*
X016467Y017191D01*
X016467Y017191D01*
X016009Y017191D01*
X016009Y017155D01*
X016050Y017001D02*
X015810Y017001D01*
X015810Y016843D02*
X016168Y016843D01*
X016467Y016843D02*
X016467Y016843D01*
X016467Y017001D02*
X016467Y017001D01*
X016467Y017160D02*
X016467Y017160D01*
X016467Y017318D02*
X016467Y017318D01*
X016467Y017477D02*
X016467Y017477D01*
X016825Y017477D02*
X016921Y017477D01*
X016984Y016843D02*
X016765Y016843D01*
X015810Y017794D02*
X023270Y017794D01*
X023270Y017952D02*
X015810Y017952D01*
X015810Y018111D02*
X023270Y018111D01*
X023886Y017477D02*
X027002Y017477D01*
X027017Y017318D02*
X023974Y017318D01*
X023991Y017160D02*
X027116Y017160D01*
X027644Y017160D02*
X027783Y017160D01*
X027743Y017318D02*
X027941Y017318D01*
X027624Y017001D02*
X023948Y017001D01*
X025090Y018428D02*
X030200Y018428D01*
X030200Y018586D02*
X025090Y018586D01*
X025090Y018745D02*
X025301Y018745D01*
X025278Y018903D02*
X025090Y018903D01*
X025090Y019062D02*
X025278Y019062D01*
X025278Y019220D02*
X025090Y019220D01*
X025090Y019379D02*
X025284Y019379D01*
X025386Y019537D02*
X025090Y019537D01*
X025090Y019696D02*
X025278Y019696D01*
X025278Y019854D02*
X025090Y019854D01*
X025090Y020013D02*
X025278Y020013D01*
X025278Y020171D02*
X025090Y020171D01*
X025090Y020330D02*
X025325Y020330D01*
X025356Y020488D02*
X025090Y020488D01*
X025090Y020647D02*
X025298Y020647D01*
X025298Y020805D02*
X025032Y020805D01*
X024873Y020964D02*
X025298Y020964D01*
X025298Y021122D02*
X024938Y021122D01*
X025071Y021281D02*
X025376Y021281D01*
X025357Y021439D02*
X025108Y021439D01*
X025076Y021598D02*
X025308Y021598D01*
X025308Y021756D02*
X024954Y021756D01*
X025104Y021915D02*
X025308Y021915D01*
X025308Y022073D02*
X025182Y022073D01*
X025180Y022232D02*
X025386Y022232D01*
X025386Y022390D02*
X025100Y022390D01*
X025008Y022549D02*
X025297Y022549D01*
X025288Y022707D02*
X025122Y022707D01*
X025148Y022866D02*
X025288Y022866D01*
X025288Y023024D02*
X025105Y023024D01*
X024943Y023183D02*
X025308Y023183D01*
X025606Y022860D02*
X025606Y023710D01*
X025606Y024721D01*
X025611Y024727D01*
X025611Y025587D01*
X025621Y025597D01*
X025621Y025609D01*
X024860Y026370D01*
X024180Y026370D01*
X024150Y026340D01*
X023928Y027145D02*
X030795Y027145D01*
X030795Y026987D02*
X025270Y026987D01*
X025848Y026828D02*
X026092Y026828D01*
X026101Y026836D02*
X026007Y026742D01*
X026007Y026138D01*
X026101Y026044D01*
X026548Y026044D01*
X026642Y026138D01*
X026642Y026230D01*
X028400Y026230D01*
X028400Y026138D01*
X028494Y026044D01*
X029099Y026044D01*
X029193Y026138D01*
X029193Y026742D01*
X029099Y026836D01*
X028494Y026836D01*
X028400Y026742D01*
X028400Y026650D01*
X026642Y026650D01*
X026642Y026742D01*
X026548Y026836D01*
X026101Y026836D01*
X026007Y026670D02*
X025933Y026670D01*
X025933Y026511D02*
X026007Y026511D01*
X026007Y026353D02*
X025933Y026353D01*
X025933Y026194D02*
X026007Y026194D01*
X026106Y025993D02*
X026013Y025899D01*
X026013Y025294D01*
X026106Y025201D01*
X026554Y025201D01*
X026648Y025294D01*
X026648Y025383D01*
X028295Y025383D01*
X028295Y025291D01*
X028388Y025197D01*
X028993Y025197D01*
X029087Y025291D01*
X029087Y025896D01*
X028993Y025989D01*
X028388Y025989D01*
X028295Y025896D01*
X028295Y025803D01*
X026648Y025803D01*
X026648Y025899D01*
X026554Y025993D01*
X026106Y025993D01*
X026013Y025877D02*
X025939Y025877D01*
X025939Y025719D02*
X026013Y025719D01*
X026013Y025560D02*
X025939Y025560D01*
X025939Y025402D02*
X026013Y025402D01*
X026064Y025243D02*
X025888Y025243D01*
X025874Y025085D02*
X026058Y025085D01*
X026096Y025123D02*
X026003Y025029D01*
X026003Y024424D01*
X026096Y024331D01*
X026544Y024331D01*
X026638Y024424D01*
X026638Y024517D01*
X028305Y024517D01*
X028305Y024431D01*
X028398Y024337D01*
X029003Y024337D01*
X029097Y024431D01*
X029097Y025036D01*
X029003Y025129D01*
X028398Y025129D01*
X028305Y025036D01*
X028305Y024937D01*
X026638Y024937D01*
X026638Y025029D01*
X026544Y025123D01*
X026096Y025123D01*
X026003Y024926D02*
X025929Y024926D01*
X025929Y024768D02*
X026003Y024768D01*
X026003Y024609D02*
X025929Y024609D01*
X025929Y024451D02*
X026003Y024451D01*
X025846Y024292D02*
X030795Y024292D01*
X030795Y024134D02*
X025846Y024134D01*
X025923Y023975D02*
X025997Y023975D01*
X025997Y024012D02*
X025997Y023408D01*
X026091Y023314D01*
X026538Y023314D01*
X026632Y023408D01*
X026632Y023500D01*
X028290Y023500D01*
X028290Y023408D01*
X028384Y023314D01*
X028989Y023314D01*
X029083Y023408D01*
X029083Y024012D01*
X028989Y024106D01*
X028384Y024106D01*
X028290Y024012D01*
X028290Y023920D01*
X026632Y023920D01*
X026632Y024012D01*
X026538Y024106D01*
X026091Y024106D01*
X025997Y024012D01*
X025997Y023817D02*
X025923Y023817D01*
X025923Y023658D02*
X025997Y023658D01*
X025997Y023500D02*
X025923Y023500D01*
X025857Y023341D02*
X026063Y023341D01*
X026091Y023256D02*
X025997Y023162D01*
X025997Y022558D01*
X026091Y022464D01*
X026538Y022464D01*
X026632Y022558D01*
X026632Y022660D01*
X028300Y022660D01*
X028300Y022568D01*
X028394Y022474D01*
X028999Y022474D01*
X029093Y022568D01*
X029093Y023172D01*
X028999Y023266D01*
X028394Y023266D01*
X028300Y023172D01*
X028300Y023080D01*
X026632Y023080D01*
X026632Y023162D01*
X026538Y023256D01*
X026091Y023256D01*
X026017Y023183D02*
X025903Y023183D01*
X025923Y023024D02*
X025997Y023024D01*
X025997Y022866D02*
X025923Y022866D01*
X025923Y022707D02*
X025997Y022707D01*
X026006Y022549D02*
X025914Y022549D01*
X025866Y022390D02*
X030795Y022390D01*
X030795Y022232D02*
X025866Y022232D01*
X025943Y022073D02*
X026017Y022073D01*
X026017Y022092D02*
X026017Y021488D01*
X026111Y021394D01*
X026558Y021394D01*
X026652Y021488D01*
X026652Y021590D01*
X028340Y021590D01*
X028340Y021498D01*
X028434Y021404D01*
X029039Y021404D01*
X029133Y021498D01*
X029133Y022102D01*
X029039Y022196D01*
X028434Y022196D01*
X028340Y022102D01*
X028340Y022010D01*
X026652Y022010D01*
X026652Y022092D01*
X026558Y022186D01*
X026111Y022186D01*
X026017Y022092D01*
X026017Y021915D02*
X025943Y021915D01*
X025943Y021756D02*
X026017Y021756D01*
X026017Y021598D02*
X025943Y021598D01*
X025895Y021439D02*
X026065Y021439D01*
X026101Y021296D02*
X026007Y021202D01*
X026007Y020598D01*
X026101Y020504D01*
X026548Y020504D01*
X026642Y020598D01*
X026642Y020730D01*
X028310Y020730D01*
X028310Y020638D01*
X028404Y020544D01*
X029009Y020544D01*
X029103Y020638D01*
X029103Y021242D01*
X029009Y021336D01*
X028404Y021336D01*
X028310Y021242D01*
X028310Y021150D01*
X026642Y021150D01*
X026642Y021202D01*
X026548Y021296D01*
X026101Y021296D01*
X026085Y021281D02*
X025856Y021281D01*
X025933Y021122D02*
X026007Y021122D01*
X026007Y020964D02*
X025933Y020964D01*
X025933Y020805D02*
X026007Y020805D01*
X026007Y020647D02*
X025933Y020647D01*
X025836Y020488D02*
X030795Y020488D01*
X030795Y020330D02*
X029913Y020330D01*
X029836Y020544D02*
X029930Y020638D01*
X029930Y020666D01*
X029966Y020629D01*
X030105Y020572D01*
X030255Y020572D01*
X030394Y020629D01*
X030501Y020736D01*
X030558Y020875D01*
X030558Y021025D01*
X030501Y021164D01*
X030394Y021271D01*
X030255Y021328D01*
X030105Y021328D01*
X029966Y021271D01*
X029930Y021234D01*
X029930Y021242D01*
X029836Y021336D01*
X029231Y021336D01*
X029137Y021242D01*
X029137Y020638D01*
X029231Y020544D01*
X029836Y020544D01*
X029930Y020647D02*
X029949Y020647D01*
X030411Y020647D02*
X030795Y020647D01*
X030795Y020805D02*
X030529Y020805D01*
X030558Y020964D02*
X030795Y020964D01*
X030795Y021122D02*
X030518Y021122D01*
X030370Y021281D02*
X030795Y021281D01*
X030795Y021439D02*
X029901Y021439D01*
X029866Y021404D02*
X029960Y021498D01*
X029960Y021546D01*
X030006Y021499D01*
X030145Y021442D01*
X030295Y021442D01*
X030434Y021499D01*
X030541Y021606D01*
X030598Y021745D01*
X030598Y021895D01*
X030541Y022034D01*
X030434Y022141D01*
X030295Y022198D01*
X030145Y022198D01*
X030006Y022141D01*
X029960Y022094D01*
X029960Y022102D01*
X029866Y022196D01*
X029261Y022196D01*
X029167Y022102D01*
X029167Y021498D01*
X029261Y021404D01*
X029866Y021404D01*
X029892Y021281D02*
X029990Y021281D01*
X030532Y021598D02*
X030795Y021598D01*
X030795Y021756D02*
X030598Y021756D01*
X030590Y021915D02*
X030795Y021915D01*
X030795Y022073D02*
X030502Y022073D01*
X030379Y022524D02*
X030486Y022631D01*
X030543Y022770D01*
X030543Y022920D01*
X030486Y023059D01*
X030379Y023166D01*
X030240Y023223D01*
X030090Y023223D01*
X029951Y023166D01*
X029920Y023134D01*
X029920Y023172D01*
X029826Y023266D01*
X029221Y023266D01*
X029127Y023172D01*
X029127Y022568D01*
X029221Y022474D01*
X029826Y022474D01*
X029914Y022562D01*
X029951Y022524D01*
X030090Y022467D01*
X030240Y022467D01*
X030379Y022524D01*
X030403Y022549D02*
X030795Y022549D01*
X030795Y022707D02*
X030517Y022707D01*
X030543Y022866D02*
X030795Y022866D01*
X030795Y023024D02*
X030500Y023024D01*
X030338Y023183D02*
X030795Y023183D01*
X030795Y023341D02*
X029843Y023341D01*
X029816Y023314D02*
X029910Y023408D01*
X029910Y023500D01*
X029945Y023500D01*
X030036Y023409D01*
X030175Y023352D01*
X030325Y023352D01*
X030464Y023409D01*
X030571Y023516D01*
X030628Y023655D01*
X030628Y023805D01*
X030571Y023944D01*
X030464Y024051D01*
X030325Y024108D01*
X030175Y024108D01*
X030036Y024051D01*
X029929Y023944D01*
X029919Y023920D01*
X029910Y023920D01*
X029910Y024012D01*
X029816Y024106D01*
X029211Y024106D01*
X029117Y024012D01*
X029117Y023408D01*
X029211Y023314D01*
X029816Y023314D01*
X029910Y023183D02*
X029992Y023183D01*
X029946Y023500D02*
X029910Y023500D01*
X029910Y023975D02*
X029960Y023975D01*
X030095Y024317D02*
X030245Y024317D01*
X030384Y024374D01*
X030491Y024481D01*
X030548Y024620D01*
X030548Y024770D01*
X030491Y024909D01*
X030384Y025016D01*
X030245Y025073D01*
X030095Y025073D01*
X029956Y025016D01*
X029924Y024984D01*
X029924Y025036D01*
X029830Y025129D01*
X029225Y025129D01*
X029131Y025036D01*
X029131Y024431D01*
X029225Y024337D01*
X029830Y024337D01*
X029912Y024419D01*
X029956Y024374D01*
X030095Y024317D01*
X030170Y024695D02*
X030132Y024733D01*
X029528Y024733D01*
X029131Y024768D02*
X029097Y024768D01*
X029097Y024926D02*
X029131Y024926D01*
X029180Y025085D02*
X029048Y025085D01*
X029039Y025243D02*
X029169Y025243D01*
X029215Y025197D02*
X029121Y025291D01*
X029121Y025896D01*
X029215Y025989D01*
X029820Y025989D01*
X029914Y025896D01*
X029914Y025854D01*
X029981Y025921D01*
X030120Y025978D01*
X030270Y025978D01*
X030409Y025921D01*
X030516Y025814D01*
X030573Y025675D01*
X030573Y025525D01*
X030516Y025386D01*
X030409Y025279D01*
X030270Y025222D01*
X030120Y025222D01*
X029981Y025279D01*
X029914Y025346D01*
X029914Y025291D01*
X029820Y025197D01*
X029215Y025197D01*
X029121Y025402D02*
X029087Y025402D01*
X029087Y025560D02*
X029121Y025560D01*
X029121Y025719D02*
X029087Y025719D01*
X029087Y025877D02*
X029121Y025877D01*
X029277Y026060D02*
X029318Y026036D01*
X029363Y026024D01*
X029585Y026024D01*
X029585Y026402D01*
X029207Y026402D01*
X029207Y026180D01*
X029219Y026134D01*
X029243Y026093D01*
X029277Y026060D01*
X029320Y026036D02*
X025534Y026036D01*
X025172Y025719D02*
X025145Y025719D01*
X025163Y025560D02*
X025304Y025560D01*
X025304Y025402D02*
X025112Y025402D01*
X024911Y025243D02*
X025355Y025243D01*
X025349Y025085D02*
X024387Y025085D01*
X024229Y025243D02*
X024659Y025243D01*
X025039Y024926D02*
X025294Y024926D01*
X025294Y024768D02*
X025113Y024768D01*
X025109Y024609D02*
X025294Y024609D01*
X025294Y024451D02*
X025025Y024451D01*
X024445Y024451D02*
X022306Y024451D01*
X022353Y024609D02*
X024269Y024609D01*
X024110Y024768D02*
X022331Y024768D01*
X022531Y024926D02*
X023952Y024926D01*
X023793Y025085D02*
X022611Y025085D01*
X022612Y025243D02*
X023635Y025243D01*
X023476Y025402D02*
X022533Y025402D01*
X021937Y025402D02*
X020421Y025402D01*
X020421Y025560D02*
X023318Y025560D01*
X023159Y025719D02*
X020421Y025719D01*
X020634Y025877D02*
X023001Y025877D01*
X022842Y026036D02*
X020793Y026036D01*
X020860Y026194D02*
X022684Y026194D01*
X022545Y026353D02*
X020860Y026353D01*
X020860Y026511D02*
X022545Y026511D01*
X022545Y026670D02*
X020860Y026670D01*
X020860Y026828D02*
X022545Y026828D01*
X022545Y026987D02*
X020860Y026987D01*
X020860Y027145D02*
X022545Y027145D01*
X022545Y027304D02*
X020860Y027304D01*
X020860Y027462D02*
X022545Y027462D01*
X022545Y027621D02*
X020860Y027621D01*
X020860Y027779D02*
X022545Y027779D01*
X022545Y027938D02*
X020860Y027938D01*
X020860Y028096D02*
X022545Y028096D01*
X022545Y028255D02*
X020860Y028255D01*
X020860Y028413D02*
X022475Y028413D01*
X023205Y028413D02*
X027725Y028413D01*
X027725Y028255D02*
X023205Y028255D01*
X023205Y028096D02*
X027747Y028096D01*
X027725Y028118D02*
X027845Y027998D01*
X027968Y027875D01*
X028874Y027875D01*
X028870Y027865D01*
X028870Y027675D01*
X028943Y027498D01*
X029078Y027363D01*
X029255Y027290D01*
X030085Y027290D01*
X030262Y027363D01*
X030397Y027498D01*
X030470Y027675D01*
X030470Y027865D01*
X030397Y028042D01*
X030262Y028177D01*
X030085Y028250D01*
X029487Y028250D01*
X029447Y028290D01*
X030185Y028290D01*
X030362Y028363D01*
X030497Y028498D01*
X030570Y028675D01*
X030570Y028865D01*
X030497Y029042D01*
X030362Y029177D01*
X030185Y029250D01*
X029355Y029250D01*
X029178Y029177D01*
X029043Y029042D01*
X028970Y028865D01*
X028970Y028675D01*
X029043Y028498D01*
X029178Y028363D01*
X029342Y028295D01*
X028145Y028295D01*
X028145Y029093D01*
X028149Y029094D01*
X028256Y029201D01*
X028313Y029340D01*
X028313Y029490D01*
X028256Y029629D01*
X028149Y029736D01*
X028010Y029793D01*
X027860Y029793D01*
X027721Y029736D01*
X027614Y029629D01*
X027557Y029490D01*
X027557Y029340D01*
X027614Y029201D01*
X027721Y029094D01*
X027725Y029093D01*
X027725Y028118D01*
X027905Y027938D02*
X023205Y027938D01*
X023205Y027779D02*
X028870Y027779D01*
X028892Y027621D02*
X023205Y027621D01*
X023205Y027462D02*
X023312Y027462D01*
X023788Y027462D02*
X028979Y027462D01*
X029222Y027304D02*
X023902Y027304D01*
X023205Y028572D02*
X027725Y028572D01*
X027725Y028730D02*
X023205Y028730D01*
X023048Y028889D02*
X027725Y028889D01*
X027725Y029047D02*
X022890Y029047D01*
X023268Y031742D02*
X020940Y031742D01*
X020472Y031266D02*
X018928Y031266D01*
X018771Y031425D02*
X020313Y031425D01*
X020155Y031583D02*
X019128Y031583D01*
X019216Y031742D02*
X019996Y031742D01*
X019838Y031900D02*
X019223Y031900D01*
X019156Y032059D02*
X019679Y032059D01*
X020482Y033168D02*
X027173Y033168D01*
X027162Y033327D02*
X020324Y033327D01*
X020166Y033485D02*
X027220Y033485D01*
X027454Y033644D02*
X020008Y033644D01*
X020639Y033010D02*
X027266Y033010D01*
X027385Y032851D02*
X020797Y032851D01*
X020955Y032693D02*
X027376Y032693D01*
X027653Y032376D02*
X028184Y032376D01*
X028183Y032376D02*
X028350Y032209D01*
X028568Y032119D01*
X028804Y032119D01*
X029022Y032209D01*
X029189Y032376D01*
X029279Y032594D01*
X029279Y032769D01*
X029335Y032713D01*
X029400Y032666D01*
X029472Y032629D01*
X029549Y032604D01*
X029629Y032591D01*
X029670Y032591D01*
X029711Y032591D01*
X029791Y032604D01*
X029868Y032629D01*
X029940Y032666D01*
X030005Y032713D01*
X030063Y032770D01*
X030110Y032836D01*
X030147Y032908D01*
X030172Y032985D01*
X030185Y033065D01*
X030185Y033106D01*
X030185Y033146D01*
X030172Y033226D01*
X030147Y033303D01*
X030110Y033375D01*
X030063Y033441D01*
X030005Y033498D01*
X029940Y033546D01*
X029868Y033583D01*
X029791Y033608D01*
X029711Y033620D01*
X029670Y033620D01*
X029629Y033620D01*
X029549Y033608D01*
X029472Y033583D01*
X029400Y033546D01*
X029335Y033498D01*
X029277Y033441D01*
X029230Y033375D01*
X029193Y033303D01*
X029168Y033226D01*
X029155Y033146D01*
X029155Y033106D01*
X029670Y033106D01*
X029670Y033620D01*
X029670Y033106D01*
X029670Y033106D01*
X029670Y033106D01*
X030185Y033106D01*
X029670Y033106D01*
X029670Y033106D01*
X029155Y033106D01*
X029155Y033081D01*
X029022Y033215D01*
X028804Y033305D01*
X028568Y033305D01*
X028350Y033215D01*
X028183Y033048D01*
X028093Y032830D01*
X028093Y032594D01*
X028183Y032376D01*
X028118Y032534D02*
X027805Y032534D01*
X027805Y032693D02*
X028093Y032693D01*
X028101Y032851D02*
X027805Y032851D01*
X027814Y033010D02*
X028167Y033010D01*
X028303Y033168D02*
X027907Y033168D01*
X027918Y033327D02*
X029205Y033327D01*
X029159Y033168D02*
X029068Y033168D01*
X029321Y033485D02*
X027860Y033485D01*
X027626Y033644D02*
X030795Y033644D01*
X030795Y033802D02*
X018128Y033802D01*
X017572Y033802D02*
X016446Y033802D01*
X016446Y033644D02*
X017482Y033644D01*
X017472Y033485D02*
X017408Y033485D01*
X017122Y033485D02*
X016446Y033485D01*
X016446Y033327D02*
X016935Y033327D01*
X016887Y033168D02*
X016446Y033168D01*
X016908Y033010D02*
X011591Y033010D01*
X011761Y032851D02*
X015959Y032851D01*
X015801Y032693D02*
X011999Y032693D01*
X012671Y033802D02*
X014334Y033802D01*
X014334Y033728D02*
X014334Y034206D01*
X014346Y034252D01*
X014370Y034293D01*
X014404Y034326D01*
X014445Y034350D01*
X014490Y034362D01*
X014712Y034362D01*
X014712Y033728D01*
X014712Y033652D01*
X014334Y033652D01*
X014334Y033174D01*
X014346Y033128D01*
X014370Y033087D01*
X014404Y033054D01*
X014445Y033030D01*
X014490Y033018D01*
X014712Y033018D01*
X014712Y033652D01*
X014789Y033652D01*
X014789Y033728D01*
X015167Y033728D01*
X015167Y034206D01*
X015154Y034252D01*
X015131Y034293D01*
X015097Y034326D01*
X015056Y034350D01*
X015010Y034362D01*
X014789Y034362D01*
X014789Y033728D01*
X014712Y033728D01*
X014334Y033728D01*
X014334Y033644D02*
X005733Y033644D01*
X005760Y033485D02*
X014334Y033485D01*
X014334Y033327D02*
X006230Y033327D01*
X006389Y033168D02*
X014336Y033168D01*
X014712Y033168D02*
X014789Y033168D01*
X014789Y033018D02*
X015010Y033018D01*
X015056Y033030D01*
X015097Y033054D01*
X015131Y033087D01*
X015154Y033128D01*
X015167Y033174D01*
X015167Y033652D01*
X014789Y033652D01*
X014789Y033018D01*
X014789Y033327D02*
X014712Y033327D01*
X014712Y033485D02*
X014789Y033485D01*
X014789Y033644D02*
X014712Y033644D01*
X014712Y033802D02*
X014789Y033802D01*
X014789Y033961D02*
X014712Y033961D01*
X014712Y034119D02*
X014789Y034119D01*
X014789Y034278D02*
X014712Y034278D01*
X014361Y034278D02*
X012910Y034278D01*
X012910Y034436D02*
X012935Y034436D01*
X013070Y034640D02*
X013070Y038240D01*
X022170Y038240D01*
X022200Y034605D01*
X013070Y034640D01*
X013070Y034753D02*
X022199Y034753D01*
X022197Y034912D02*
X016121Y034912D01*
X016125Y034919D02*
X016137Y034965D01*
X016137Y036050D01*
X014817Y036050D01*
X014817Y034808D01*
X015981Y034808D01*
X016027Y034821D01*
X016068Y034844D01*
X016102Y034878D01*
X016125Y034919D01*
X016137Y035070D02*
X022196Y035070D01*
X022195Y035229D02*
X016137Y035229D01*
X016137Y035387D02*
X022194Y035387D01*
X022192Y035546D02*
X016137Y035546D01*
X016137Y035704D02*
X022191Y035704D01*
X022190Y035863D02*
X016137Y035863D01*
X016137Y036021D02*
X022188Y036021D01*
X022187Y036180D02*
X014817Y036180D01*
X014817Y036210D02*
X014817Y036050D01*
X014657Y036050D01*
X013337Y036050D01*
X013337Y034965D01*
X013349Y034919D01*
X013372Y034878D01*
X013406Y034844D01*
X013447Y034821D01*
X013493Y034808D01*
X014657Y034808D01*
X014657Y036050D01*
X014657Y036210D01*
X013337Y036210D01*
X013337Y037295D01*
X013349Y037341D01*
X013372Y037382D01*
X013406Y037416D01*
X013447Y037439D01*
X013493Y037452D01*
X014657Y037452D01*
X014657Y036210D01*
X014817Y036210D01*
X014817Y037452D01*
X015981Y037452D01*
X016027Y037439D01*
X016068Y037416D01*
X016102Y037382D01*
X016125Y037341D01*
X016137Y037295D01*
X016137Y036210D01*
X014817Y036210D01*
X014817Y036338D02*
X014657Y036338D01*
X014657Y036180D02*
X013070Y036180D01*
X013070Y036338D02*
X013337Y036338D01*
X013337Y036497D02*
X013070Y036497D01*
X013070Y036655D02*
X013337Y036655D01*
X013337Y036814D02*
X013070Y036814D01*
X013070Y036972D02*
X013337Y036972D01*
X013337Y037131D02*
X013070Y037131D01*
X013070Y037289D02*
X013337Y037289D01*
X013477Y037448D02*
X013070Y037448D01*
X013070Y037606D02*
X022175Y037606D01*
X022177Y037448D02*
X015997Y037448D01*
X016137Y037289D02*
X022178Y037289D01*
X022179Y037131D02*
X016137Y037131D01*
X016137Y036972D02*
X022180Y036972D01*
X022182Y036814D02*
X016137Y036814D01*
X016137Y036655D02*
X022183Y036655D01*
X022184Y036497D02*
X016137Y036497D01*
X016137Y036338D02*
X022186Y036338D01*
X022426Y036338D02*
X026165Y036338D01*
X026006Y036497D02*
X022424Y036497D01*
X022423Y036655D02*
X025848Y036655D01*
X025740Y036814D02*
X022422Y036814D01*
X022420Y036972D02*
X025740Y036972D01*
X025740Y037131D02*
X022419Y037131D01*
X022418Y037289D02*
X025740Y037289D01*
X025740Y037448D02*
X022417Y037448D01*
X022415Y037606D02*
X025740Y037606D01*
X025740Y037765D02*
X022414Y037765D01*
X022413Y037923D02*
X025740Y037923D01*
X025740Y038082D02*
X022411Y038082D01*
X022410Y038240D02*
X025740Y038240D01*
X025654Y038399D02*
X022351Y038399D01*
X022171Y038082D02*
X013070Y038082D01*
X013070Y037923D02*
X022173Y037923D01*
X022174Y037765D02*
X013070Y037765D01*
X012830Y037765D02*
X010092Y037765D01*
X009950Y037623D02*
X010737Y038410D01*
X012901Y038410D01*
X012867Y038376D01*
X012830Y038288D01*
X012830Y035719D01*
X012806Y035743D01*
X012606Y035943D01*
X012518Y035980D01*
X011069Y035980D01*
X011010Y036039D01*
X011010Y036588D01*
X010973Y036676D01*
X010906Y036743D01*
X010406Y037243D01*
X010318Y037280D01*
X009950Y037280D01*
X009950Y037623D01*
X009950Y037606D02*
X012830Y037606D01*
X012830Y037448D02*
X012648Y037448D01*
X012645Y037453D02*
X012611Y037487D01*
X012570Y037510D01*
X012524Y037523D01*
X011988Y037523D01*
X011988Y037105D01*
X012681Y037105D01*
X012681Y037366D01*
X012669Y037412D01*
X012645Y037453D01*
X012681Y037289D02*
X012830Y037289D01*
X012830Y037131D02*
X012681Y037131D01*
X012681Y036950D02*
X012681Y036689D01*
X012669Y036643D01*
X012645Y036602D01*
X012611Y036569D01*
X012570Y036545D01*
X012524Y036533D01*
X011988Y036533D01*
X011988Y036950D01*
X011988Y037105D01*
X011833Y037105D01*
X011833Y037523D01*
X011296Y037523D01*
X011250Y037510D01*
X011209Y037487D01*
X011176Y037453D01*
X011152Y037412D01*
X011140Y037366D01*
X011140Y037105D01*
X011833Y037105D01*
X011833Y036950D01*
X011988Y036950D01*
X012681Y036950D01*
X012681Y036814D02*
X012830Y036814D01*
X012830Y036972D02*
X011988Y036972D01*
X011833Y036972D02*
X010677Y036972D01*
X010519Y037131D02*
X011140Y037131D01*
X011140Y037289D02*
X009950Y037289D01*
X009950Y037448D02*
X011172Y037448D01*
X011140Y036950D02*
X011140Y036689D01*
X011152Y036643D01*
X011176Y036602D01*
X011209Y036569D01*
X011250Y036545D01*
X011296Y036533D01*
X011833Y036533D01*
X011833Y036950D01*
X011140Y036950D01*
X011140Y036814D02*
X010836Y036814D01*
X010982Y036655D02*
X011149Y036655D01*
X011010Y036497D02*
X012830Y036497D01*
X012830Y036655D02*
X012672Y036655D01*
X012830Y036338D02*
X011010Y036338D01*
X011010Y036180D02*
X012830Y036180D01*
X012830Y036021D02*
X011028Y036021D01*
X010847Y035863D02*
X010441Y035863D01*
X010438Y035849D02*
X010450Y035895D01*
X010450Y036370D01*
X009848Y036370D01*
X009848Y035739D01*
X010294Y035739D01*
X010339Y035751D01*
X010381Y035774D01*
X010414Y035808D01*
X010438Y035849D01*
X010450Y036021D02*
X010770Y036021D01*
X010770Y035940D02*
X010970Y035740D01*
X012470Y035740D01*
X012483Y035727D01*
X011988Y035727D01*
X011988Y035310D01*
X011833Y035310D01*
X011833Y035727D01*
X011296Y035727D01*
X011250Y035715D01*
X011209Y035691D01*
X011176Y035658D01*
X011152Y035617D01*
X011140Y035571D01*
X011140Y035310D01*
X011833Y035310D01*
X011833Y035155D01*
X011988Y035155D01*
X011988Y034737D01*
X012524Y034737D01*
X012570Y034750D01*
X012611Y034773D01*
X012645Y034807D01*
X012669Y034848D01*
X012670Y034853D01*
X012670Y034140D01*
X012470Y033940D01*
X005780Y033940D01*
X005780Y034120D01*
X003180Y034120D01*
X003180Y034280D01*
X003020Y034280D01*
X003020Y035090D01*
X003050Y035120D01*
X003180Y035120D01*
X003180Y035250D01*
X003210Y035280D01*
X005780Y035280D01*
X005780Y035340D01*
X008470Y035340D01*
X008770Y035640D01*
X008770Y036640D01*
X009086Y036956D01*
X009086Y036530D01*
X009688Y036530D01*
X009688Y036370D01*
X009086Y036370D01*
X009086Y035895D01*
X009098Y035849D01*
X009122Y035808D01*
X009156Y035774D01*
X009197Y035751D01*
X009242Y035739D01*
X009688Y035739D01*
X009688Y036370D01*
X009848Y036370D01*
X009848Y036530D01*
X010450Y036530D01*
X010450Y036860D01*
X010770Y036540D01*
X010770Y035940D01*
X010770Y036180D02*
X010450Y036180D01*
X010450Y036338D02*
X010770Y036338D01*
X010770Y036497D02*
X009848Y036497D01*
X009848Y036338D02*
X009688Y036338D01*
X009688Y036180D02*
X009848Y036180D01*
X009848Y036021D02*
X009688Y036021D01*
X009688Y035863D02*
X009848Y035863D01*
X009688Y036497D02*
X008770Y036497D01*
X008785Y036655D02*
X009086Y036655D01*
X009086Y036814D02*
X008944Y036814D01*
X008763Y036972D02*
X007954Y036972D01*
X007954Y037005D02*
X007942Y037051D01*
X007918Y037092D01*
X007884Y037126D01*
X007843Y037149D01*
X007798Y037161D01*
X007352Y037161D01*
X007352Y036530D01*
X007954Y036530D01*
X007954Y037005D01*
X007876Y037131D02*
X008921Y037131D01*
X008604Y036814D02*
X007954Y036814D01*
X007954Y036655D02*
X008530Y036655D01*
X008530Y036497D02*
X007352Y036497D01*
X007352Y036530D02*
X007352Y036370D01*
X007954Y036370D01*
X007954Y035895D01*
X007942Y035849D01*
X007918Y035808D01*
X007884Y035774D01*
X007843Y035751D01*
X007798Y035739D01*
X007352Y035739D01*
X007352Y036370D01*
X007192Y036370D01*
X007192Y035739D01*
X006746Y035739D01*
X006701Y035751D01*
X006659Y035774D01*
X006626Y035808D01*
X006602Y035849D01*
X006590Y035895D01*
X006590Y036370D01*
X007192Y036370D01*
X007192Y036530D01*
X007192Y037161D01*
X006746Y037161D01*
X006701Y037149D01*
X006659Y037126D01*
X006626Y037092D01*
X006602Y037051D01*
X006590Y037005D01*
X006590Y036530D01*
X007192Y036530D01*
X007352Y036530D01*
X007352Y036655D02*
X007192Y036655D01*
X007192Y036497D02*
X000705Y036497D01*
X000705Y036655D02*
X006590Y036655D01*
X006590Y036814D02*
X000705Y036814D01*
X000705Y036972D02*
X006590Y036972D01*
X006668Y037131D02*
X000705Y037131D01*
X000705Y037289D02*
X009530Y037289D01*
X009530Y037448D02*
X000705Y037448D01*
X000705Y037606D02*
X009530Y037606D01*
X009530Y037765D02*
X000705Y037765D01*
X000705Y037923D02*
X009656Y037923D01*
X009815Y038082D02*
X000705Y038082D01*
X000705Y038240D02*
X009973Y038240D01*
X010132Y038399D02*
X000705Y038399D01*
X000705Y038557D02*
X010290Y038557D01*
X010449Y038716D02*
X000705Y038716D01*
X000705Y038874D02*
X027395Y038874D01*
X027395Y038716D02*
X025931Y038716D01*
X026090Y038557D02*
X027395Y038557D01*
X027395Y038399D02*
X026160Y038399D01*
X026160Y038240D02*
X027395Y038240D01*
X027434Y038082D02*
X026160Y038082D01*
X026160Y037923D02*
X027510Y037923D01*
X027701Y037765D02*
X026160Y037765D01*
X026160Y037606D02*
X030795Y037606D01*
X030795Y037448D02*
X026160Y037448D01*
X026160Y037289D02*
X030795Y037289D01*
X030795Y037131D02*
X026160Y037131D01*
X026160Y036972D02*
X030795Y036972D01*
X030795Y036814D02*
X030423Y036814D01*
X030427Y036806D02*
X030404Y036847D01*
X030370Y036880D01*
X030329Y036904D01*
X030283Y036916D01*
X030061Y036916D01*
X030061Y036538D01*
X029985Y036538D01*
X029985Y036462D01*
X029607Y036462D01*
X029607Y036240D01*
X029619Y036194D01*
X029643Y036153D01*
X029677Y036120D01*
X029718Y036096D01*
X029763Y036084D01*
X029985Y036084D01*
X029985Y036462D01*
X030061Y036462D01*
X030061Y036084D01*
X030283Y036084D01*
X030329Y036096D01*
X030370Y036120D01*
X030404Y036153D01*
X030427Y036194D01*
X030440Y036240D01*
X030440Y036462D01*
X030062Y036462D01*
X030062Y036538D01*
X030440Y036538D01*
X030440Y036760D01*
X030427Y036806D01*
X030440Y036655D02*
X030795Y036655D01*
X030795Y036497D02*
X030062Y036497D01*
X029985Y036497D02*
X029593Y036497D01*
X029607Y036538D02*
X029985Y036538D01*
X029985Y036916D01*
X029763Y036916D01*
X029718Y036904D01*
X029677Y036880D01*
X029643Y036847D01*
X029619Y036806D01*
X029607Y036760D01*
X029607Y036538D01*
X029593Y036655D02*
X029607Y036655D01*
X029593Y036802D02*
X029499Y036896D01*
X028894Y036896D01*
X028800Y036802D01*
X028800Y036710D01*
X028130Y036710D01*
X028130Y036852D01*
X028037Y036946D01*
X027471Y036946D01*
X027377Y036852D01*
X027377Y036168D01*
X027471Y036074D01*
X028037Y036074D01*
X028130Y036168D01*
X028130Y036290D01*
X028800Y036290D01*
X028800Y036198D01*
X028894Y036104D01*
X029499Y036104D01*
X029593Y036198D01*
X029593Y036802D01*
X029582Y036814D02*
X029624Y036814D01*
X029985Y036814D02*
X030061Y036814D01*
X030061Y036655D02*
X029985Y036655D01*
X029985Y036338D02*
X030061Y036338D01*
X030061Y036180D02*
X029985Y036180D01*
X029628Y036180D02*
X029575Y036180D01*
X029593Y036338D02*
X029607Y036338D01*
X029130Y035863D02*
X030795Y035863D01*
X030795Y036021D02*
X028900Y036021D01*
X028804Y036061D02*
X028568Y036061D01*
X028350Y035971D01*
X028183Y035804D01*
X028093Y035586D01*
X028093Y035350D01*
X028183Y035132D01*
X028350Y034965D01*
X028568Y034875D01*
X028804Y034875D01*
X029022Y034965D01*
X029175Y035119D01*
X029175Y034976D01*
X029251Y034794D01*
X029390Y034655D01*
X029572Y034580D01*
X029768Y034580D01*
X029950Y034655D01*
X030089Y034794D01*
X030165Y034976D01*
X030165Y035173D01*
X030089Y035354D01*
X029950Y035494D01*
X029768Y035569D01*
X029572Y035569D01*
X029390Y035494D01*
X029279Y035383D01*
X029279Y035586D01*
X029189Y035804D01*
X029022Y035971D01*
X028804Y036061D01*
X028818Y036180D02*
X028130Y036180D01*
X028242Y035863D02*
X022430Y035863D01*
X022428Y036021D02*
X028471Y036021D01*
X028142Y035704D02*
X022431Y035704D01*
X022432Y035546D02*
X028093Y035546D01*
X028093Y035387D02*
X022434Y035387D01*
X022435Y035229D02*
X022451Y035229D01*
X023091Y035229D02*
X023239Y035229D01*
X023276Y035266D02*
X023182Y035172D01*
X023182Y034488D01*
X023276Y034394D01*
X023842Y034394D01*
X023935Y034488D01*
X023935Y034620D01*
X024180Y034620D01*
X024180Y034528D01*
X024274Y034434D01*
X024879Y034434D01*
X024973Y034528D01*
X024973Y035132D01*
X024879Y035226D01*
X024274Y035226D01*
X024180Y035132D01*
X024180Y035040D01*
X023935Y035040D01*
X023935Y035172D01*
X023842Y035266D01*
X023276Y035266D01*
X023182Y035070D02*
X023148Y035070D01*
X023148Y034912D02*
X023182Y034912D01*
X023182Y034753D02*
X023148Y034753D01*
X023148Y034595D02*
X023182Y034595D01*
X023234Y034436D02*
X023096Y034436D01*
X022447Y034436D02*
X022370Y034436D01*
X023883Y034436D02*
X024272Y034436D01*
X024180Y034595D02*
X023935Y034595D01*
X023935Y035070D02*
X024180Y035070D01*
X023879Y035229D02*
X025088Y035229D01*
X025098Y035234D02*
X025057Y035210D01*
X025023Y035177D01*
X024999Y035136D01*
X024987Y035090D01*
X024987Y034868D01*
X025365Y034868D01*
X025365Y034792D01*
X024987Y034792D01*
X024987Y034570D01*
X024999Y034524D01*
X025023Y034483D01*
X025057Y034450D01*
X025098Y034426D01*
X025143Y034414D01*
X025365Y034414D01*
X025365Y034792D01*
X025441Y034792D01*
X025441Y034414D01*
X025663Y034414D01*
X025709Y034426D01*
X025750Y034450D01*
X025784Y034483D01*
X025807Y034524D01*
X025820Y034570D01*
X025820Y034792D01*
X025442Y034792D01*
X025442Y034868D01*
X025820Y034868D01*
X025820Y035090D01*
X025807Y035136D01*
X025784Y035177D01*
X025750Y035210D01*
X025709Y035234D01*
X025663Y035246D01*
X025441Y035246D01*
X025441Y034868D01*
X025365Y034868D01*
X025365Y035246D01*
X025143Y035246D01*
X025098Y035234D01*
X024987Y035070D02*
X024973Y035070D01*
X024973Y034912D02*
X024987Y034912D01*
X024973Y034753D02*
X024987Y034753D01*
X024973Y034595D02*
X024987Y034595D01*
X025080Y034436D02*
X024881Y034436D01*
X025365Y034436D02*
X025441Y034436D01*
X025441Y034595D02*
X025365Y034595D01*
X025365Y034753D02*
X025441Y034753D01*
X025441Y034912D02*
X025365Y034912D01*
X025365Y035070D02*
X025441Y035070D01*
X025441Y035229D02*
X025365Y035229D01*
X025718Y035229D02*
X028143Y035229D01*
X028245Y035070D02*
X025820Y035070D01*
X025820Y034912D02*
X028479Y034912D01*
X028892Y034912D02*
X029202Y034912D01*
X029175Y035070D02*
X029127Y035070D01*
X029279Y035387D02*
X029283Y035387D01*
X029279Y035546D02*
X029515Y035546D01*
X029825Y035546D02*
X030795Y035546D01*
X030795Y035704D02*
X029230Y035704D01*
X030057Y035387D02*
X030795Y035387D01*
X030795Y035229D02*
X030141Y035229D01*
X030165Y035070D02*
X030795Y035070D01*
X030795Y034912D02*
X030138Y034912D01*
X030048Y034753D02*
X030795Y034753D01*
X030795Y034595D02*
X029804Y034595D01*
X029536Y034595D02*
X025820Y034595D01*
X025820Y034753D02*
X029292Y034753D01*
X029670Y033485D02*
X029670Y033485D01*
X029670Y033327D02*
X029670Y033327D01*
X029670Y033168D02*
X029670Y033168D01*
X029670Y033106D02*
X029670Y032591D01*
X029670Y033106D01*
X029670Y033106D01*
X029670Y033010D02*
X029670Y033010D01*
X029670Y032851D02*
X029670Y032851D01*
X029670Y032693D02*
X029670Y032693D01*
X029977Y032693D02*
X030795Y032693D01*
X030795Y032851D02*
X030118Y032851D01*
X030176Y033010D02*
X030795Y033010D01*
X030795Y033168D02*
X030181Y033168D01*
X030135Y033327D02*
X030795Y033327D01*
X030795Y033485D02*
X030019Y033485D01*
X030795Y033961D02*
X016446Y033961D01*
X016446Y034119D02*
X030795Y034119D01*
X030795Y034278D02*
X016417Y034278D01*
X015683Y034278D02*
X015139Y034278D01*
X015167Y034119D02*
X015653Y034119D01*
X015653Y033961D02*
X015167Y033961D01*
X015167Y033802D02*
X015653Y033802D01*
X015653Y033644D02*
X015167Y033644D01*
X015167Y033485D02*
X015653Y033485D01*
X015653Y033327D02*
X015167Y033327D01*
X015165Y033168D02*
X015653Y033168D01*
X016358Y032376D02*
X016427Y032376D01*
X016440Y032217D02*
X016347Y032217D01*
X016253Y032059D02*
X016537Y032059D01*
X017073Y032059D02*
X018534Y032059D01*
X019086Y031108D02*
X020630Y031108D01*
X019295Y030791D02*
X028212Y030791D01*
X028054Y030949D02*
X019243Y030949D01*
X019295Y030632D02*
X028371Y030632D01*
X028529Y030474D02*
X019294Y030474D01*
X019294Y030315D02*
X029294Y030315D01*
X029311Y030270D02*
X029233Y030258D01*
X029158Y030233D01*
X029088Y030198D01*
X029024Y030151D01*
X028969Y030096D01*
X028922Y030032D01*
X028887Y029962D01*
X028862Y029887D01*
X028850Y029809D01*
X028850Y029790D01*
X029650Y029790D01*
X029650Y030270D01*
X029311Y030270D01*
X029031Y030157D02*
X019294Y030157D01*
X019294Y029998D02*
X028905Y029998D01*
X028855Y029840D02*
X019293Y029840D01*
X019293Y029681D02*
X027666Y029681D01*
X027570Y029523D02*
X019293Y029523D01*
X019293Y029364D02*
X027557Y029364D01*
X027612Y029206D02*
X019292Y029206D01*
X017895Y028058D02*
X017895Y027961D01*
X017828Y027961D01*
X017814Y027968D01*
X017769Y027981D01*
X017702Y027981D01*
X017702Y027873D01*
X017702Y027873D01*
X017702Y027873D01*
X017702Y027981D01*
X017635Y027981D01*
X017589Y027968D01*
X017575Y027961D01*
X017006Y027961D01*
X017053Y028075D01*
X017053Y028225D01*
X016996Y028364D01*
X016889Y028471D01*
X016750Y028528D01*
X016600Y028528D01*
X016461Y028471D01*
X016363Y028373D01*
X016361Y028379D01*
X016254Y028486D01*
X016115Y028543D01*
X015965Y028543D01*
X015826Y028486D01*
X015719Y028379D01*
X015662Y028240D01*
X015662Y028090D01*
X015719Y027951D01*
X015826Y027844D01*
X015965Y027787D01*
X016115Y027787D01*
X016119Y027789D01*
X016120Y027788D01*
X016120Y027341D01*
X016214Y027247D01*
X017212Y027247D01*
X017119Y027154D01*
X017062Y027015D01*
X017062Y026865D01*
X017119Y026726D01*
X017226Y026619D01*
X017365Y026562D01*
X017515Y026562D01*
X017654Y026619D01*
X017761Y026726D01*
X017818Y026865D01*
X017818Y027015D01*
X017761Y027154D01*
X017705Y027210D01*
X017705Y027227D01*
X017769Y027227D01*
X017814Y027239D01*
X017828Y027247D01*
X019290Y027247D01*
X019290Y025943D01*
X019479Y025754D01*
X019445Y025768D01*
X019295Y025768D01*
X019156Y025711D01*
X019049Y025604D01*
X018992Y025465D01*
X018992Y025377D01*
X018965Y025388D01*
X018815Y025388D01*
X018676Y025331D01*
X018569Y025224D01*
X018512Y025085D01*
X018512Y024935D01*
X018569Y024796D01*
X018676Y024689D01*
X018815Y024632D01*
X018965Y024632D01*
X019104Y024689D01*
X019211Y024796D01*
X019212Y024800D01*
X019607Y024800D01*
X019707Y024900D01*
X019707Y023754D01*
X019754Y023707D01*
X019715Y023668D01*
X019715Y023661D01*
X019710Y023655D01*
X019715Y023579D01*
X019715Y022423D01*
X019402Y022736D01*
X019480Y022813D01*
X019480Y023339D01*
X019386Y023433D01*
X018025Y023433D01*
X018011Y023441D01*
X017965Y023453D01*
X017898Y023453D01*
X017831Y023453D01*
X017786Y023441D01*
X017772Y023433D01*
X017566Y023433D01*
X017608Y023535D01*
X017608Y023685D01*
X017551Y023824D01*
X017444Y023931D01*
X017305Y023988D01*
X017155Y023988D01*
X017016Y023931D01*
X016909Y023824D01*
X016852Y023685D01*
X016852Y023535D01*
X016894Y023433D01*
X016214Y023433D01*
X016120Y023339D01*
X016120Y023141D01*
X016115Y023134D01*
X016120Y023091D01*
X016120Y022813D01*
X016125Y022808D01*
X016125Y022747D01*
X015818Y022440D01*
X013288Y022440D01*
X013165Y022317D01*
X012795Y021947D01*
X012795Y017992D01*
X012538Y017735D01*
X008963Y017735D01*
X008840Y017612D01*
X008351Y017123D01*
X008351Y015646D01*
X008278Y015646D01*
X008185Y015552D01*
X008185Y015450D01*
X007955Y015450D01*
X007955Y015552D01*
X007862Y015646D01*
X007296Y015646D01*
X007202Y015552D01*
X007202Y014868D01*
X007296Y014774D01*
X007862Y014774D01*
X007955Y014868D01*
X007955Y014970D01*
X008185Y014970D01*
X008185Y014868D01*
X008278Y014774D01*
X008844Y014774D01*
X008938Y014868D01*
X008938Y015552D01*
X008844Y015646D01*
X008771Y015646D01*
X008771Y016949D01*
X009137Y017315D01*
X012708Y017315D01*
X012683Y017290D01*
X010063Y017290D01*
X009940Y017167D01*
X009730Y016957D01*
X009730Y015560D01*
X009709Y015596D01*
X009676Y015630D01*
X009635Y015653D01*
X009589Y015666D01*
X009377Y015666D01*
X009377Y015238D01*
X009320Y015238D01*
X009320Y015182D01*
X008952Y015182D01*
X008952Y014911D01*
X008964Y014865D01*
X008988Y014824D01*
X009022Y014790D01*
X009063Y014767D01*
X009108Y014754D01*
X009320Y014754D01*
X009320Y015182D01*
X009377Y015182D01*
X009377Y014754D01*
X009589Y014754D01*
X009635Y014767D01*
X009676Y014790D01*
X009709Y014824D01*
X009730Y014860D01*
X009730Y014587D01*
X009519Y014376D01*
X008622Y014376D01*
X008622Y014469D01*
X008528Y014562D01*
X008081Y014562D01*
X007987Y014469D01*
X007987Y013864D01*
X008046Y013805D01*
X007854Y013805D01*
X007913Y013864D01*
X007913Y014469D01*
X007820Y014562D01*
X007372Y014562D01*
X007278Y014469D01*
X007278Y014440D01*
X005760Y014440D01*
X005760Y014616D01*
X005676Y014700D01*
X005760Y014784D01*
X005760Y014960D01*
X006415Y014960D01*
X006415Y014868D01*
X006508Y014774D01*
X007074Y014774D01*
X007168Y014868D01*
X007168Y015552D01*
X007074Y015646D01*
X006508Y015646D01*
X006415Y015552D01*
X006415Y015440D01*
X005760Y015440D01*
X005760Y015616D01*
X005676Y015700D01*
X005760Y015784D01*
X005760Y016616D01*
X005676Y016700D01*
X005760Y016784D01*
X005760Y017616D01*
X005676Y017700D01*
X005760Y017784D01*
X005760Y018616D01*
X005676Y018700D01*
X005760Y018784D01*
X005760Y019616D01*
X005676Y019700D01*
X005760Y019784D01*
X005760Y020616D01*
X005676Y020700D01*
X005760Y020784D01*
X005760Y021616D01*
X005676Y021700D01*
X005760Y021784D01*
X005760Y022616D01*
X005676Y022700D01*
X005760Y022784D01*
X005760Y022915D01*
X005818Y022915D01*
X005906Y022952D01*
X006295Y023341D01*
X006295Y022974D01*
X006389Y022880D01*
X006650Y022880D01*
X006650Y022602D01*
X006687Y022514D01*
X006912Y022289D01*
X006979Y022222D01*
X007067Y022185D01*
X007263Y022185D01*
X007263Y022143D01*
X007325Y022081D01*
X007325Y021517D01*
X007243Y021517D01*
X007149Y021423D01*
X007149Y020976D01*
X007243Y020882D01*
X007847Y020882D01*
X007941Y020976D01*
X007941Y020989D01*
X008034Y020989D01*
X008034Y020981D01*
X008128Y020887D01*
X008732Y020887D01*
X008826Y020981D01*
X008826Y021428D01*
X008732Y021522D01*
X008612Y021522D01*
X008739Y021574D01*
X008846Y021681D01*
X008903Y021820D01*
X008903Y021970D01*
X008846Y022109D01*
X008739Y022216D01*
X008627Y022262D01*
X008627Y022445D01*
X008627Y022705D01*
X008615Y022751D01*
X008591Y022792D01*
X008557Y022825D01*
X008516Y022849D01*
X008471Y022861D01*
X008289Y022861D01*
X008108Y022861D01*
X008062Y022849D01*
X008021Y022825D01*
X007988Y022792D01*
X007964Y022751D01*
X007952Y022705D01*
X007952Y022445D01*
X007952Y022185D01*
X007964Y022139D01*
X007978Y022115D01*
X007871Y022115D01*
X007898Y022143D01*
X007898Y022747D01*
X007804Y022841D01*
X007802Y022841D01*
X008311Y023350D01*
X008395Y023434D01*
X008405Y023424D01*
X008404Y023424D01*
X008371Y023391D01*
X008347Y023349D01*
X008335Y023304D01*
X008335Y023160D01*
X008950Y023160D01*
X009565Y023160D01*
X009565Y023304D01*
X009553Y023349D01*
X009529Y023391D01*
X009496Y023424D01*
X009495Y023424D01*
X009545Y023474D01*
X009545Y023846D01*
X009481Y023910D01*
X009545Y023974D01*
X009545Y024346D01*
X009481Y024410D01*
X009531Y024460D01*
X009612Y024460D01*
X010150Y023922D01*
X010267Y023805D01*
X012910Y023805D01*
X012910Y022973D01*
X012777Y022840D01*
X010242Y022840D01*
X009987Y022585D01*
X009870Y022468D01*
X009870Y020765D01*
X008874Y020765D01*
X008826Y020717D01*
X008826Y020719D01*
X008732Y020813D01*
X008128Y020813D01*
X008034Y020719D01*
X008034Y020272D01*
X008111Y020195D01*
X007869Y020195D01*
X007941Y020267D01*
X007941Y020714D01*
X007847Y020808D01*
X007243Y020808D01*
X007149Y020714D01*
X007149Y020267D01*
X007243Y020173D01*
X007335Y020173D01*
X007335Y020113D01*
X007550Y019898D01*
X007673Y019775D01*
X008804Y019775D01*
X008830Y019749D01*
X008829Y019749D01*
X008796Y019716D01*
X008772Y019674D01*
X008760Y019629D01*
X008760Y019485D01*
X009375Y019485D01*
X009990Y019485D01*
X009990Y019629D01*
X009978Y019674D01*
X009954Y019716D01*
X009921Y019749D01*
X009920Y019749D01*
X009951Y019780D01*
X010083Y019780D01*
X010200Y019897D01*
X010470Y020167D01*
X010470Y022137D01*
X010573Y022240D01*
X013008Y022240D01*
X013125Y022357D01*
X013500Y022732D01*
X013500Y023592D01*
X013571Y023664D01*
X015270Y023664D01*
X015273Y023660D01*
X015799Y023660D01*
X015893Y023754D01*
X015893Y024845D01*
X016081Y024845D01*
X016106Y024819D01*
X016245Y024762D01*
X016395Y024762D01*
X016534Y024819D01*
X016641Y024926D01*
X018516Y024926D01*
X018512Y025085D02*
X016698Y025085D01*
X016698Y025065D02*
X016698Y025215D01*
X016641Y025354D01*
X016534Y025461D01*
X016395Y025518D01*
X016245Y025518D01*
X016106Y025461D01*
X015999Y025354D01*
X015954Y025245D01*
X015913Y025245D01*
X015913Y025309D01*
X015901Y025354D01*
X015893Y025368D01*
X015893Y026100D01*
X015901Y026113D01*
X015903Y026122D01*
X016006Y026019D01*
X016145Y025962D01*
X016295Y025962D01*
X016434Y026019D01*
X016541Y026126D01*
X016598Y026265D01*
X016598Y026415D01*
X016541Y026554D01*
X016434Y026661D01*
X016295Y026718D01*
X016145Y026718D01*
X016006Y026661D01*
X015968Y026623D01*
X015893Y026623D01*
X015893Y026926D01*
X015799Y027020D01*
X015273Y027020D01*
X015179Y026926D01*
X015179Y026352D01*
X015172Y026339D01*
X015159Y026293D01*
X015159Y026231D01*
X014357Y026235D01*
X013658Y026924D01*
X013597Y026985D01*
X013596Y026985D01*
X013596Y026986D01*
X013509Y026985D01*
X011832Y026982D01*
X011807Y027042D01*
X011672Y027177D01*
X011495Y027250D01*
X010665Y027250D01*
X010488Y027177D01*
X010353Y027042D01*
X010280Y026865D01*
X010280Y026770D01*
X009961Y026770D01*
X009921Y026810D01*
X009985Y026874D01*
X009985Y027246D01*
X009921Y027310D01*
X009985Y027374D01*
X009985Y027746D01*
X009921Y027810D01*
X009961Y027850D01*
X010280Y027850D01*
X010280Y027775D01*
X010353Y027598D01*
X010488Y027463D01*
X010665Y027390D01*
X011495Y027390D01*
X011672Y027463D01*
X011807Y027598D01*
X011880Y027775D01*
X011880Y027965D01*
X011807Y028142D01*
X011672Y028277D01*
X011495Y028350D01*
X010665Y028350D01*
X010488Y028277D01*
X010481Y028270D01*
X009961Y028270D01*
X009891Y028340D01*
X008889Y028340D01*
X008795Y028246D01*
X008795Y027874D01*
X008859Y027810D01*
X008795Y027746D01*
X008795Y027374D01*
X008859Y027310D01*
X008819Y027270D01*
X008698Y027270D01*
X008567Y027139D01*
X008565Y027139D01*
X008505Y027077D01*
X008475Y027047D01*
X008475Y028583D01*
X008551Y028659D01*
X008555Y028657D01*
X008705Y028657D01*
X008844Y028714D01*
X008900Y028770D01*
X009054Y028770D01*
X009124Y028700D01*
X010056Y028700D01*
X010150Y028794D01*
X010150Y029186D01*
X010096Y029240D01*
X010136Y029280D01*
X010277Y029280D01*
X010250Y029215D01*
X010250Y029025D01*
X010323Y028848D01*
X010458Y028713D01*
X010635Y028640D01*
X011465Y028640D01*
X011642Y028713D01*
X011777Y028848D01*
X011850Y029025D01*
X011850Y029215D01*
X011777Y029392D01*
X011642Y029527D01*
X011465Y029600D01*
X010867Y029600D01*
X010767Y029700D01*
X010136Y029700D01*
X010096Y029740D01*
X010136Y029780D01*
X010538Y029780D01*
X010635Y029740D01*
X011465Y029740D01*
X011642Y029813D01*
X011777Y029948D01*
X011850Y030125D01*
X011850Y030315D01*
X017403Y030315D01*
X017387Y030355D02*
X017444Y030216D01*
X017551Y030109D01*
X017690Y030052D01*
X017735Y030052D01*
X017735Y028218D01*
X017858Y028095D01*
X017895Y028058D01*
X017857Y028096D02*
X017053Y028096D01*
X017041Y028255D02*
X017735Y028255D01*
X017735Y028413D02*
X016947Y028413D01*
X016403Y028413D02*
X016327Y028413D01*
X015753Y028413D02*
X008475Y028413D01*
X008475Y028255D02*
X008803Y028255D01*
X008795Y028096D02*
X008475Y028096D01*
X008475Y027938D02*
X008795Y027938D01*
X008828Y027779D02*
X008475Y027779D01*
X008475Y027621D02*
X008795Y027621D01*
X008795Y027462D02*
X008475Y027462D01*
X008475Y027304D02*
X008852Y027304D01*
X008573Y027145D02*
X008475Y027145D01*
X008055Y027145D02*
X007925Y027145D01*
X007925Y027246D02*
X007861Y027310D01*
X007925Y027374D01*
X007925Y027746D01*
X007875Y027796D01*
X007876Y027796D01*
X007909Y027829D01*
X007933Y027871D01*
X007945Y027916D01*
X007945Y028060D01*
X007945Y028204D01*
X007933Y028249D01*
X007909Y028291D01*
X007876Y028324D01*
X007834Y028348D01*
X007789Y028360D01*
X007330Y028360D01*
X007330Y028060D01*
X007330Y028060D01*
X007945Y028060D01*
X007330Y028060D01*
X007330Y028060D01*
X007330Y028060D01*
X006715Y028060D01*
X006715Y028204D01*
X006727Y028249D01*
X006751Y028291D01*
X006784Y028324D01*
X006826Y028348D01*
X006871Y028360D01*
X007330Y028360D01*
X007330Y028060D01*
X006715Y028060D01*
X006715Y027916D01*
X006727Y027871D01*
X006751Y027829D01*
X006784Y027796D01*
X006785Y027796D01*
X006759Y027770D01*
X006657Y027770D01*
X006470Y027957D01*
X006470Y028763D01*
X006473Y028760D01*
X006644Y028760D01*
X006704Y028700D01*
X007636Y028700D01*
X007730Y028794D01*
X007730Y029186D01*
X007676Y029240D01*
X007706Y029270D01*
X007718Y029270D01*
X007719Y029266D01*
X007826Y029159D01*
X007965Y029102D01*
X008115Y029102D01*
X008254Y029159D01*
X008285Y029190D01*
X008252Y029110D01*
X008252Y028960D01*
X008254Y028956D01*
X008055Y028757D01*
X008055Y026770D01*
X007901Y026770D01*
X007861Y026810D01*
X007925Y026874D01*
X007925Y027246D01*
X007868Y027304D02*
X008055Y027304D01*
X008055Y027462D02*
X007925Y027462D01*
X007925Y027621D02*
X008055Y027621D01*
X008055Y027779D02*
X007892Y027779D01*
X007945Y027938D02*
X008055Y027938D01*
X008055Y028096D02*
X007945Y028096D01*
X007930Y028255D02*
X008055Y028255D01*
X008055Y028413D02*
X006470Y028413D01*
X006470Y028255D02*
X006730Y028255D01*
X006715Y028096D02*
X006470Y028096D01*
X006489Y027938D02*
X006715Y027938D01*
X006768Y027779D02*
X006648Y027779D01*
X006470Y028572D02*
X008055Y028572D01*
X008055Y028730D02*
X007666Y028730D01*
X007730Y028889D02*
X008187Y028889D01*
X008252Y029047D02*
X007730Y029047D01*
X007711Y029206D02*
X007780Y029206D01*
X008475Y028572D02*
X017735Y028572D01*
X017735Y028730D02*
X011659Y028730D01*
X011794Y028889D02*
X017735Y028889D01*
X017735Y029047D02*
X011850Y029047D01*
X011850Y029206D02*
X017735Y029206D01*
X017735Y029364D02*
X011788Y029364D01*
X011646Y029523D02*
X017735Y029523D01*
X017735Y029681D02*
X010786Y029681D01*
X010250Y029206D02*
X010131Y029206D01*
X010150Y029047D02*
X010250Y029047D01*
X010306Y028889D02*
X010150Y028889D01*
X010086Y028730D02*
X010441Y028730D01*
X010280Y027779D02*
X009952Y027779D01*
X009985Y027621D02*
X010344Y027621D01*
X010491Y027462D02*
X009985Y027462D01*
X009928Y027304D02*
X016157Y027304D01*
X016120Y027462D02*
X011669Y027462D01*
X011816Y027621D02*
X016120Y027621D01*
X016120Y027779D02*
X011880Y027779D01*
X011880Y027938D02*
X015733Y027938D01*
X015662Y028096D02*
X011826Y028096D01*
X011694Y028255D02*
X015668Y028255D01*
X015832Y026987D02*
X017062Y026987D01*
X017077Y026828D02*
X015893Y026828D01*
X015893Y026670D02*
X016028Y026670D01*
X016412Y026670D02*
X017176Y026670D01*
X017116Y027145D02*
X011704Y027145D01*
X011830Y026987D02*
X015240Y026987D01*
X015179Y026828D02*
X013755Y026828D01*
X013916Y026670D02*
X015179Y026670D01*
X015179Y026511D02*
X014077Y026511D01*
X014237Y026353D02*
X015179Y026353D01*
X015893Y026036D02*
X015990Y026036D01*
X015893Y025877D02*
X019356Y025877D01*
X019290Y026036D02*
X016450Y026036D01*
X016569Y026194D02*
X019290Y026194D01*
X019290Y026353D02*
X016598Y026353D01*
X016558Y026511D02*
X019290Y026511D01*
X019290Y026670D02*
X017704Y026670D01*
X017803Y026828D02*
X019290Y026828D01*
X019290Y026987D02*
X017818Y026987D01*
X017764Y027145D02*
X019290Y027145D01*
X019175Y025719D02*
X015893Y025719D01*
X015893Y025560D02*
X019031Y025560D01*
X018992Y025402D02*
X016593Y025402D01*
X016687Y025243D02*
X018588Y025243D01*
X018598Y024768D02*
X016409Y024768D01*
X016231Y024768D02*
X015893Y024768D01*
X015893Y024609D02*
X019707Y024609D01*
X019707Y024451D02*
X015893Y024451D01*
X015893Y024292D02*
X019707Y024292D01*
X019707Y024134D02*
X015893Y024134D01*
X015893Y023975D02*
X017123Y023975D01*
X017337Y023975D02*
X019707Y023975D01*
X019707Y023817D02*
X017554Y023817D01*
X017608Y023658D02*
X019713Y023658D01*
X019715Y023500D02*
X017594Y023500D01*
X017898Y023453D02*
X017898Y023346D01*
X017898Y023346D01*
X017898Y023346D01*
X017898Y023453D01*
X018025Y022719D02*
X018092Y022719D01*
X018092Y022465D01*
X018082Y022455D01*
X018082Y022281D01*
X018255Y022108D01*
X018378Y021985D01*
X018943Y021985D01*
X019015Y021913D01*
X019015Y019982D01*
X018768Y019735D01*
X013593Y019735D01*
X013470Y019612D01*
X013215Y019357D01*
X013215Y021773D01*
X013462Y022020D01*
X015992Y022020D01*
X016535Y022563D01*
X016535Y022719D01*
X017305Y022719D01*
X017305Y022372D01*
X016963Y022030D01*
X016573Y022030D01*
X016523Y021980D01*
X016400Y021857D01*
X016400Y021721D01*
X016332Y021789D01*
X015451Y021789D01*
X015358Y021696D01*
X015358Y021130D01*
X015451Y021036D01*
X016332Y021036D01*
X016400Y021104D01*
X016400Y020816D01*
X016332Y020884D01*
X015451Y020884D01*
X015358Y020790D01*
X015358Y020726D01*
X015291Y020726D01*
X015291Y020739D01*
X015197Y020833D01*
X014593Y020833D01*
X014499Y020739D01*
X014499Y020292D01*
X014593Y020198D01*
X015197Y020198D01*
X015291Y020292D01*
X015291Y020306D01*
X015358Y020306D01*
X015358Y020224D01*
X015451Y020131D01*
X016332Y020131D01*
X016426Y020224D01*
X016426Y020330D01*
X016517Y020330D01*
X016640Y020453D01*
X016814Y020627D01*
X016814Y020224D01*
X016908Y020131D01*
X017789Y020131D01*
X017882Y020224D01*
X017882Y020790D01*
X017789Y020884D01*
X016908Y020884D01*
X016820Y020796D01*
X016820Y021124D01*
X016908Y021036D01*
X017789Y021036D01*
X017882Y021130D01*
X017882Y021203D01*
X017939Y021203D01*
X017939Y021186D01*
X018033Y021092D01*
X018637Y021092D01*
X018731Y021186D01*
X018731Y021633D01*
X018637Y021727D01*
X018033Y021727D01*
X017939Y021633D01*
X017939Y021623D01*
X017882Y021623D01*
X017882Y021696D01*
X017789Y021789D01*
X017681Y021789D01*
X017912Y022020D01*
X017912Y022194D01*
X017902Y022204D01*
X017902Y022699D01*
X017965Y022699D01*
X018011Y022712D01*
X018025Y022719D01*
X017994Y022707D02*
X018092Y022707D01*
X018092Y022549D02*
X017902Y022549D01*
X017902Y022390D02*
X018082Y022390D01*
X018131Y022232D02*
X017902Y022232D01*
X017912Y022073D02*
X018290Y022073D01*
X017807Y021915D02*
X019013Y021915D01*
X019015Y021756D02*
X017822Y021756D01*
X017874Y021122D02*
X018002Y021122D01*
X018029Y021026D02*
X017988Y021002D01*
X017955Y020969D01*
X017931Y020928D01*
X017919Y020882D01*
X017919Y020701D01*
X018335Y020701D01*
X018335Y021038D01*
X018075Y021038D01*
X018029Y021026D01*
X017952Y020964D02*
X016820Y020964D01*
X016820Y021122D02*
X016822Y021122D01*
X016820Y020805D02*
X016829Y020805D01*
X016814Y020488D02*
X016675Y020488D01*
X016814Y020330D02*
X016426Y020330D01*
X016372Y020171D02*
X016868Y020171D01*
X016400Y020964D02*
X015279Y020964D01*
X015275Y020956D02*
X015299Y020997D01*
X015311Y021043D01*
X015311Y021224D01*
X014895Y021224D01*
X014895Y020887D01*
X015155Y020887D01*
X015201Y020899D01*
X015242Y020923D01*
X015275Y020956D01*
X015226Y020805D02*
X015373Y020805D01*
X015366Y021122D02*
X015311Y021122D01*
X015311Y021224D02*
X015311Y021406D01*
X015299Y021451D01*
X015275Y021492D01*
X015242Y021526D01*
X015201Y021550D01*
X015155Y021562D01*
X014895Y021562D01*
X014635Y021562D01*
X014589Y021550D01*
X014548Y021526D01*
X014515Y021492D01*
X014491Y021451D01*
X014479Y021406D01*
X014479Y021224D01*
X014479Y021043D01*
X014491Y020997D01*
X014515Y020956D01*
X014548Y020923D01*
X014589Y020899D01*
X014635Y020887D01*
X014895Y020887D01*
X014895Y021224D01*
X014895Y021224D01*
X014895Y021224D01*
X014479Y021224D01*
X014895Y021224D01*
X014895Y021224D01*
X015311Y021224D01*
X015311Y021281D02*
X015358Y021281D01*
X015358Y021439D02*
X015302Y021439D01*
X015358Y021598D02*
X013215Y021598D01*
X013215Y021756D02*
X015418Y021756D01*
X016045Y022073D02*
X017006Y022073D01*
X017165Y022232D02*
X016204Y022232D01*
X016362Y022390D02*
X017305Y022390D01*
X017305Y022549D02*
X016521Y022549D01*
X016535Y022707D02*
X017305Y022707D01*
X016866Y023500D02*
X013500Y023500D01*
X013500Y023341D02*
X016122Y023341D01*
X016120Y023183D02*
X013500Y023183D01*
X013500Y023024D02*
X016120Y023024D01*
X016120Y022866D02*
X013500Y022866D01*
X013475Y022707D02*
X016085Y022707D01*
X015927Y022549D02*
X013316Y022549D01*
X013238Y022390D02*
X013158Y022390D01*
X013080Y022232D02*
X010564Y022232D01*
X010470Y022073D02*
X012921Y022073D01*
X012795Y021915D02*
X010470Y021915D01*
X010470Y021756D02*
X012795Y021756D01*
X012795Y021598D02*
X010470Y021598D01*
X010470Y021439D02*
X012795Y021439D01*
X012795Y021281D02*
X010470Y021281D01*
X010470Y021122D02*
X012795Y021122D01*
X012795Y020964D02*
X010470Y020964D01*
X010470Y020805D02*
X012795Y020805D01*
X012795Y020647D02*
X012045Y020647D01*
X012050Y020629D02*
X012038Y020674D01*
X012014Y020716D01*
X011981Y020749D01*
X011939Y020773D01*
X011894Y020785D01*
X011435Y020785D01*
X011435Y020485D01*
X011435Y020485D01*
X012050Y020485D01*
X012050Y020629D01*
X012050Y020488D02*
X012795Y020488D01*
X012795Y020330D02*
X012047Y020330D01*
X012050Y020341D02*
X012050Y020485D01*
X011435Y020485D01*
X011435Y020485D01*
X011435Y020785D01*
X010976Y020785D01*
X010931Y020773D01*
X010889Y020749D01*
X010856Y020716D01*
X010832Y020674D01*
X010820Y020629D01*
X010820Y020485D01*
X011435Y020485D01*
X011435Y020485D01*
X011435Y020185D01*
X011435Y019985D01*
X012050Y019985D01*
X012050Y020129D01*
X012038Y020174D01*
X012014Y020216D01*
X011995Y020235D01*
X012014Y020254D01*
X012038Y020296D01*
X012050Y020341D01*
X012039Y020171D02*
X012795Y020171D01*
X012795Y020013D02*
X012050Y020013D01*
X012050Y019985D02*
X011435Y019985D01*
X011435Y019985D01*
X011435Y019985D01*
X011435Y019985D01*
X010820Y019985D01*
X010820Y020129D01*
X010832Y020174D01*
X010856Y020216D01*
X010875Y020235D01*
X010856Y020254D01*
X010832Y020296D01*
X010820Y020341D01*
X010820Y020485D01*
X011435Y020485D01*
X011435Y020485D01*
X011435Y019985D01*
X011435Y019685D01*
X011435Y019485D01*
X012050Y019485D01*
X012050Y019629D01*
X012038Y019674D01*
X012014Y019716D01*
X011995Y019735D01*
X012014Y019754D01*
X012038Y019796D01*
X012050Y019841D01*
X012050Y019985D01*
X012050Y019854D02*
X012795Y019854D01*
X012795Y019696D02*
X012026Y019696D01*
X012050Y019537D02*
X012795Y019537D01*
X012795Y019379D02*
X012050Y019379D01*
X012050Y019341D02*
X012050Y019485D01*
X011435Y019485D01*
X011435Y019485D01*
X011435Y019485D01*
X011435Y019485D01*
X010820Y019485D01*
X010820Y019629D01*
X010832Y019674D01*
X010856Y019716D01*
X010875Y019735D01*
X010856Y019754D01*
X010832Y019796D01*
X010820Y019841D01*
X010820Y019985D01*
X011435Y019985D01*
X011435Y019985D01*
X011435Y019485D01*
X011435Y019185D01*
X011435Y018985D01*
X012050Y018985D01*
X012050Y019129D01*
X012038Y019174D01*
X012014Y019216D01*
X011995Y019235D01*
X012014Y019254D01*
X012038Y019296D01*
X012050Y019341D01*
X012010Y019220D02*
X012795Y019220D01*
X012795Y019062D02*
X012050Y019062D01*
X012050Y018985D02*
X011435Y018985D01*
X011435Y018985D01*
X011435Y018985D01*
X011435Y018685D01*
X011894Y018685D01*
X011939Y018697D01*
X011981Y018721D01*
X012014Y018754D01*
X012038Y018796D01*
X012050Y018841D01*
X012050Y018985D01*
X012050Y018903D02*
X012795Y018903D01*
X012795Y018745D02*
X012004Y018745D01*
X011435Y018745D02*
X011435Y018745D01*
X011435Y018685D02*
X011435Y018985D01*
X011435Y018985D01*
X011435Y018985D01*
X010820Y018985D01*
X010820Y019129D01*
X010832Y019174D01*
X010856Y019216D01*
X010875Y019235D01*
X010856Y019254D01*
X010832Y019296D01*
X010820Y019341D01*
X010820Y019485D01*
X011435Y019485D01*
X011435Y019485D01*
X011435Y018985D01*
X010820Y018985D01*
X010820Y018841D01*
X010832Y018796D01*
X010856Y018754D01*
X010889Y018721D01*
X010931Y018697D01*
X010976Y018685D01*
X011435Y018685D01*
X011435Y018903D02*
X011435Y018903D01*
X011435Y019062D02*
X011435Y019062D01*
X011435Y019220D02*
X011435Y019220D01*
X011435Y019379D02*
X011435Y019379D01*
X011435Y019537D02*
X011435Y019537D01*
X011435Y019696D02*
X011435Y019696D01*
X011435Y019854D02*
X011435Y019854D01*
X011435Y020013D02*
X011435Y020013D01*
X011435Y020171D02*
X011435Y020171D01*
X011435Y020330D02*
X011435Y020330D01*
X011435Y020488D02*
X011435Y020488D01*
X011435Y020647D02*
X011435Y020647D01*
X010825Y020647D02*
X010470Y020647D01*
X010470Y020488D02*
X010820Y020488D01*
X010823Y020330D02*
X010470Y020330D01*
X010470Y020171D02*
X010831Y020171D01*
X010820Y020013D02*
X010315Y020013D01*
X010157Y019854D02*
X010820Y019854D01*
X010844Y019696D02*
X009966Y019696D01*
X009990Y019537D02*
X010820Y019537D01*
X010820Y019379D02*
X009990Y019379D01*
X009990Y019341D02*
X009990Y019485D01*
X009375Y019485D01*
X009375Y019485D01*
X009375Y019485D01*
X008760Y019485D01*
X008760Y019341D01*
X008772Y019296D01*
X008796Y019254D01*
X008829Y019221D01*
X008830Y019221D01*
X008780Y019171D01*
X008780Y018799D01*
X008874Y018705D01*
X009096Y018705D01*
X009063Y018672D01*
X009063Y018577D01*
X009029Y018611D01*
X008890Y018668D01*
X008740Y018668D01*
X008601Y018611D01*
X008494Y018504D01*
X008437Y018365D01*
X008437Y018215D01*
X008494Y018076D01*
X008601Y017969D01*
X008740Y017912D01*
X008890Y017912D01*
X009029Y017969D01*
X009095Y018035D01*
X009157Y017974D01*
X009604Y017974D01*
X009698Y018068D01*
X009698Y018672D01*
X009666Y018705D01*
X009781Y018705D01*
X009764Y018676D01*
X009752Y018630D01*
X009752Y018370D01*
X009752Y018110D01*
X009764Y018064D01*
X009788Y018023D01*
X009821Y017990D01*
X009862Y017966D01*
X009908Y017954D01*
X010089Y017954D01*
X010089Y018370D01*
X009752Y018370D01*
X010089Y018370D01*
X010089Y018370D01*
X010089Y018786D01*
X009957Y018786D01*
X009970Y018799D01*
X009970Y019171D01*
X009920Y019221D01*
X009921Y019221D01*
X009954Y019254D01*
X009978Y019296D01*
X009990Y019341D01*
X009921Y019220D02*
X010860Y019220D01*
X010820Y019062D02*
X009970Y019062D01*
X009970Y018903D02*
X010820Y018903D01*
X010866Y018745D02*
X010363Y018745D01*
X010357Y018750D02*
X010316Y018774D01*
X010271Y018786D01*
X010089Y018786D01*
X010089Y018370D01*
X010089Y018370D01*
X010089Y018370D01*
X010089Y017954D01*
X010271Y017954D01*
X010316Y017966D01*
X010357Y017990D01*
X010391Y018023D01*
X010415Y018064D01*
X010427Y018110D01*
X010427Y018370D01*
X010427Y018630D01*
X010415Y018676D01*
X010391Y018717D01*
X010357Y018750D01*
X010427Y018586D02*
X012795Y018586D01*
X012795Y018428D02*
X010427Y018428D01*
X010427Y018370D02*
X010089Y018370D01*
X010089Y018370D01*
X010427Y018370D01*
X010427Y018269D02*
X012795Y018269D01*
X012795Y018111D02*
X010427Y018111D01*
X010089Y018111D02*
X010089Y018111D01*
X010089Y018269D02*
X010089Y018269D01*
X010089Y018428D02*
X010089Y018428D01*
X010089Y018586D02*
X010089Y018586D01*
X010089Y018745D02*
X010089Y018745D01*
X009752Y018586D02*
X009698Y018586D01*
X009698Y018428D02*
X009752Y018428D01*
X009752Y018269D02*
X009698Y018269D01*
X009698Y018111D02*
X009752Y018111D01*
X008987Y017952D02*
X012755Y017952D01*
X012597Y017794D02*
X005760Y017794D01*
X005760Y017952D02*
X008643Y017952D01*
X008480Y018111D02*
X005760Y018111D01*
X005760Y018269D02*
X008437Y018269D01*
X008463Y018428D02*
X005760Y018428D01*
X005760Y018586D02*
X008576Y018586D01*
X008834Y018745D02*
X005721Y018745D01*
X005760Y018903D02*
X008780Y018903D01*
X008780Y019062D02*
X005760Y019062D01*
X005760Y019220D02*
X008829Y019220D01*
X008760Y019379D02*
X005760Y019379D01*
X005760Y019537D02*
X008760Y019537D01*
X008784Y019696D02*
X005681Y019696D01*
X005760Y019854D02*
X007594Y019854D01*
X007550Y019898D02*
X007550Y019898D01*
X007435Y020013D02*
X005760Y020013D01*
X005760Y020171D02*
X007335Y020171D01*
X007149Y020330D02*
X005760Y020330D01*
X005760Y020488D02*
X007149Y020488D01*
X007149Y020647D02*
X005730Y020647D01*
X005760Y020805D02*
X007239Y020805D01*
X007161Y020964D02*
X005760Y020964D01*
X005760Y021122D02*
X007149Y021122D01*
X007149Y021281D02*
X005760Y021281D01*
X005760Y021439D02*
X007165Y021439D01*
X007325Y021598D02*
X005760Y021598D01*
X005732Y021756D02*
X007325Y021756D01*
X007325Y021915D02*
X005760Y021915D01*
X005760Y022073D02*
X007325Y022073D01*
X006969Y022232D02*
X005760Y022232D01*
X005760Y022390D02*
X006811Y022390D01*
X006672Y022549D02*
X005760Y022549D01*
X005683Y022707D02*
X006650Y022707D01*
X006650Y022866D02*
X005760Y022866D01*
X005978Y023024D02*
X006295Y023024D01*
X006295Y023183D02*
X006137Y023183D01*
X005770Y023155D02*
X006275Y023660D01*
X006890Y023660D01*
X006890Y023160D02*
X006890Y022650D01*
X007115Y022425D01*
X007561Y022425D01*
X007581Y022445D01*
X007898Y022390D02*
X007952Y022390D01*
X007952Y022445D02*
X008289Y022445D01*
X008289Y022445D01*
X007952Y022445D01*
X007952Y022549D02*
X007898Y022549D01*
X007898Y022707D02*
X007952Y022707D01*
X007827Y022866D02*
X008471Y022866D01*
X008491Y022860D02*
X008950Y022860D01*
X009409Y022860D01*
X009454Y022872D01*
X009496Y022896D01*
X009529Y022929D01*
X009553Y022971D01*
X009565Y023016D01*
X009565Y023160D01*
X008950Y023160D01*
X008950Y023160D01*
X008950Y022860D01*
X008950Y023160D01*
X008950Y023160D01*
X008950Y023160D01*
X008335Y023160D01*
X008335Y023016D01*
X008347Y022971D01*
X008371Y022929D01*
X008404Y022896D01*
X008446Y022872D01*
X008491Y022860D01*
X008289Y022861D02*
X008289Y022445D01*
X008289Y022861D01*
X008289Y022707D02*
X008289Y022707D01*
X008289Y022549D02*
X008289Y022549D01*
X008289Y022445D02*
X008289Y022445D01*
X008627Y022445D01*
X008289Y022445D01*
X008289Y022445D01*
X008627Y022390D02*
X009870Y022390D01*
X009870Y022232D02*
X008701Y022232D01*
X008861Y022073D02*
X009870Y022073D01*
X009870Y021915D02*
X008903Y021915D01*
X008877Y021756D02*
X009870Y021756D01*
X009870Y021598D02*
X008762Y021598D01*
X008815Y021439D02*
X009870Y021439D01*
X009870Y021281D02*
X008826Y021281D01*
X008826Y021122D02*
X009870Y021122D01*
X009870Y020964D02*
X008809Y020964D01*
X008741Y020805D02*
X009870Y020805D01*
X009951Y022549D02*
X008627Y022549D01*
X008626Y022707D02*
X010109Y022707D01*
X009565Y023024D02*
X012910Y023024D01*
X012910Y023183D02*
X009565Y023183D01*
X009555Y023341D02*
X012910Y023341D01*
X012910Y023500D02*
X009545Y023500D01*
X009545Y023658D02*
X012910Y023658D01*
X012922Y024205D02*
X013060Y024343D01*
X013177Y024460D01*
X014008Y024460D01*
X013750Y024718D01*
X013750Y024878D01*
X013746Y024879D01*
X013639Y024986D01*
X013582Y025125D01*
X013582Y025275D01*
X013639Y025414D01*
X013702Y025477D01*
X013293Y025855D01*
X008825Y025860D01*
X008738Y025860D01*
X008738Y025860D01*
X008738Y025860D01*
X008677Y025921D01*
X008525Y026073D01*
X008521Y026061D01*
X008420Y025960D01*
X008420Y024911D01*
X008449Y024940D01*
X009451Y024940D01*
X009531Y024860D01*
X009778Y024860D01*
X010433Y024205D01*
X012922Y024205D01*
X013009Y024292D02*
X010346Y024292D01*
X010187Y024451D02*
X013168Y024451D01*
X013599Y025085D02*
X008420Y025085D01*
X008420Y025243D02*
X013582Y025243D01*
X013634Y025402D02*
X008420Y025402D01*
X008420Y025560D02*
X013612Y025560D01*
X013440Y025719D02*
X008420Y025719D01*
X008420Y025877D02*
X008721Y025877D01*
X008562Y026036D02*
X008495Y026036D01*
X007980Y025960D02*
X007980Y024074D01*
X008000Y024054D01*
X008000Y023661D01*
X007485Y023146D01*
X007485Y023346D01*
X007421Y023410D01*
X007485Y023474D01*
X007485Y023846D01*
X007421Y023910D01*
X007485Y023974D01*
X007485Y024346D01*
X007435Y024396D01*
X007436Y024396D01*
X007469Y024429D01*
X007493Y024471D01*
X007505Y024516D01*
X007505Y024660D01*
X007505Y024804D01*
X007493Y024849D01*
X007469Y024891D01*
X007436Y024924D01*
X007394Y024948D01*
X007349Y024960D01*
X006890Y024960D01*
X006890Y024660D01*
X006890Y024660D01*
X007505Y024660D01*
X006890Y024660D01*
X006890Y024660D01*
X006890Y024660D01*
X006275Y024660D01*
X006275Y024804D01*
X006287Y024849D01*
X006311Y024891D01*
X006344Y024924D01*
X006386Y024948D01*
X006431Y024960D01*
X006890Y024960D01*
X006890Y024660D01*
X006275Y024660D01*
X006275Y024516D01*
X006287Y024471D01*
X006311Y024429D01*
X006335Y024405D01*
X006182Y024405D01*
X006098Y024440D01*
X006002Y024440D01*
X005760Y024440D01*
X005760Y024616D01*
X005676Y024700D01*
X005760Y024784D01*
X005760Y025616D01*
X005676Y025700D01*
X005760Y025784D01*
X005760Y026616D01*
X005676Y026700D01*
X005760Y026784D01*
X005760Y027616D01*
X005676Y027700D01*
X005760Y027784D01*
X005760Y027990D01*
X005790Y027990D01*
X005790Y027283D01*
X006090Y026983D01*
X006213Y026860D01*
X006749Y026860D01*
X006799Y026810D01*
X006735Y026746D01*
X006735Y026374D01*
X006829Y026280D01*
X007822Y026280D01*
X007822Y026200D01*
X007879Y026061D01*
X007980Y025960D01*
X007980Y025877D02*
X005760Y025877D01*
X005760Y026036D02*
X007905Y026036D01*
X007824Y026194D02*
X005760Y026194D01*
X005760Y026353D02*
X006756Y026353D01*
X006735Y026511D02*
X005760Y026511D01*
X005707Y026670D02*
X006735Y026670D01*
X006781Y026828D02*
X005760Y026828D01*
X005760Y026987D02*
X006086Y026987D01*
X005928Y027145D02*
X005760Y027145D01*
X005760Y027304D02*
X005790Y027304D01*
X005790Y027462D02*
X005760Y027462D01*
X005756Y027621D02*
X005790Y027621D01*
X005790Y027779D02*
X005755Y027779D01*
X005760Y027938D02*
X005790Y027938D01*
X006470Y028730D02*
X006674Y028730D01*
X007330Y028255D02*
X007330Y028255D01*
X007330Y028096D02*
X007330Y028096D01*
X007925Y026987D02*
X008055Y026987D01*
X008055Y026828D02*
X007879Y026828D01*
X007980Y025719D02*
X005695Y025719D01*
X005760Y025560D02*
X007980Y025560D01*
X007980Y025402D02*
X005760Y025402D01*
X005760Y025243D02*
X007980Y025243D01*
X007980Y025085D02*
X005760Y025085D01*
X005760Y024926D02*
X006348Y024926D01*
X006275Y024768D02*
X005744Y024768D01*
X005760Y024609D02*
X006275Y024609D01*
X006299Y024451D02*
X005760Y024451D01*
X006050Y024200D02*
X006085Y024165D01*
X006885Y024165D01*
X006890Y024160D01*
X007485Y024134D02*
X007980Y024134D01*
X007980Y024292D02*
X007485Y024292D01*
X007481Y024451D02*
X007980Y024451D01*
X007980Y024609D02*
X007505Y024609D01*
X007505Y024768D02*
X007980Y024768D01*
X007980Y024926D02*
X007432Y024926D01*
X006890Y024926D02*
X006890Y024926D01*
X006890Y024768D02*
X006890Y024768D01*
X007485Y023975D02*
X008000Y023975D01*
X008000Y023817D02*
X007485Y023817D01*
X007485Y023658D02*
X007997Y023658D01*
X007838Y023500D02*
X007485Y023500D01*
X007485Y023341D02*
X007680Y023341D01*
X007521Y023183D02*
X007485Y023183D01*
X007985Y023024D02*
X008335Y023024D01*
X008335Y023183D02*
X008144Y023183D01*
X008302Y023341D02*
X008345Y023341D01*
X008950Y023024D02*
X008950Y023024D01*
X008950Y022866D02*
X008950Y022866D01*
X009429Y022866D02*
X012803Y022866D01*
X013566Y023658D02*
X016852Y023658D01*
X016906Y023817D02*
X015893Y023817D01*
X015179Y024845D02*
X014217Y024845D01*
X014178Y024884D01*
X014281Y024986D01*
X014338Y025125D01*
X014338Y025275D01*
X014281Y025414D01*
X014260Y025435D01*
X015179Y025435D01*
X015179Y025368D01*
X015172Y025354D01*
X015159Y025309D01*
X015159Y025242D01*
X015267Y025242D01*
X015267Y025242D01*
X015267Y025242D01*
X015159Y025242D01*
X015159Y025175D01*
X015172Y025129D01*
X015179Y025115D01*
X015179Y024845D01*
X015179Y024926D02*
X014221Y024926D01*
X014321Y025085D02*
X015179Y025085D01*
X015159Y025243D02*
X014338Y025243D01*
X014286Y025402D02*
X015179Y025402D01*
X015893Y025402D02*
X016047Y025402D01*
X016698Y025065D02*
X016641Y024926D01*
X016458Y021915D02*
X013357Y021915D01*
X013215Y021439D02*
X014488Y021439D01*
X014479Y021281D02*
X013215Y021281D01*
X013215Y021122D02*
X014479Y021122D01*
X014511Y020964D02*
X013215Y020964D01*
X013215Y020805D02*
X014564Y020805D01*
X014499Y020647D02*
X013215Y020647D01*
X013215Y020488D02*
X014499Y020488D01*
X014499Y020330D02*
X013215Y020330D01*
X013215Y020171D02*
X015411Y020171D01*
X014895Y020964D02*
X014895Y020964D01*
X014895Y021122D02*
X014895Y021122D01*
X014895Y021224D02*
X014895Y021562D01*
X014895Y021224D01*
X014895Y021224D01*
X014895Y021281D02*
X014895Y021281D01*
X014895Y021439D02*
X014895Y021439D01*
X016365Y021756D02*
X016400Y021756D01*
X017867Y020805D02*
X017919Y020805D01*
X017919Y020701D02*
X017919Y020519D01*
X017931Y020474D01*
X017955Y020433D01*
X017988Y020399D01*
X018029Y020375D01*
X018075Y020363D01*
X018335Y020363D01*
X018335Y020701D01*
X018335Y020701D01*
X018335Y021038D01*
X018595Y021038D01*
X018641Y021026D01*
X018682Y021002D01*
X018715Y020969D01*
X018739Y020928D01*
X018751Y020882D01*
X018751Y020701D01*
X018335Y020701D01*
X018335Y020701D01*
X018335Y020701D01*
X017919Y020701D01*
X017919Y020647D02*
X017882Y020647D01*
X017882Y020488D02*
X017927Y020488D01*
X017882Y020330D02*
X019015Y020330D01*
X019015Y020488D02*
X018743Y020488D01*
X018739Y020474D02*
X018751Y020519D01*
X018751Y020701D01*
X018335Y020701D01*
X018335Y020363D01*
X018595Y020363D01*
X018641Y020375D01*
X018682Y020399D01*
X018715Y020433D01*
X018739Y020474D01*
X018751Y020647D02*
X019015Y020647D01*
X019015Y020805D02*
X018751Y020805D01*
X018718Y020964D02*
X019015Y020964D01*
X019015Y021122D02*
X018668Y021122D01*
X018731Y021281D02*
X019015Y021281D01*
X019015Y021439D02*
X018731Y021439D01*
X018731Y021598D02*
X019015Y021598D01*
X018335Y020964D02*
X018335Y020964D01*
X018335Y020805D02*
X018335Y020805D01*
X018335Y020701D02*
X018335Y020701D01*
X018335Y020647D02*
X018335Y020647D01*
X018335Y020488D02*
X018335Y020488D01*
X017829Y020171D02*
X019015Y020171D01*
X019015Y020013D02*
X013215Y020013D01*
X013215Y019854D02*
X018887Y019854D01*
X019937Y018745D02*
X021834Y018745D01*
X021834Y018903D02*
X020096Y018903D01*
X020254Y019062D02*
X021834Y019062D01*
X021834Y018998D02*
X021834Y019476D01*
X021846Y019522D01*
X021870Y019563D01*
X021904Y019596D01*
X021945Y019620D01*
X021990Y019632D01*
X022212Y019632D01*
X022212Y018998D01*
X021834Y018998D01*
X021834Y019220D02*
X020390Y019220D01*
X020390Y019379D02*
X021834Y019379D01*
X021855Y019537D02*
X020390Y019537D01*
X020390Y019696D02*
X022582Y019696D01*
X022599Y019686D02*
X022558Y019710D01*
X022524Y019743D01*
X022500Y019784D01*
X022488Y019830D01*
X022488Y020090D01*
X022826Y020090D01*
X022826Y020090D01*
X022826Y020506D01*
X022644Y020506D01*
X022599Y020494D01*
X022558Y020470D01*
X022524Y020437D01*
X022500Y020396D01*
X022488Y020350D01*
X022488Y020090D01*
X022826Y020090D01*
X022826Y019674D01*
X022644Y019674D01*
X022599Y019686D01*
X022488Y019854D02*
X020390Y019854D01*
X020390Y020013D02*
X022488Y020013D01*
X022488Y020171D02*
X020390Y020171D01*
X020390Y020330D02*
X022488Y020330D01*
X022588Y020488D02*
X020390Y020488D01*
X020390Y020647D02*
X021096Y020647D01*
X020938Y020805D02*
X020390Y020805D01*
X020390Y020964D02*
X020779Y020964D01*
X020621Y021122D02*
X020390Y021122D01*
X020390Y021281D02*
X020480Y021281D01*
X020480Y021439D02*
X020390Y021439D01*
X020390Y021598D02*
X020480Y021598D01*
X020480Y021756D02*
X020390Y021756D01*
X020390Y021915D02*
X020480Y021915D01*
X020480Y022073D02*
X020390Y022073D01*
X020390Y022232D02*
X020480Y022232D01*
X020480Y022390D02*
X020390Y022390D01*
X020390Y022549D02*
X020480Y022549D01*
X020480Y022707D02*
X020390Y022707D01*
X020390Y022866D02*
X020480Y022866D01*
X020480Y023024D02*
X020390Y023024D01*
X020390Y023183D02*
X020480Y023183D01*
X020480Y023341D02*
X020424Y023341D01*
X019715Y023341D02*
X019478Y023341D01*
X019480Y023183D02*
X019715Y023183D01*
X019715Y023024D02*
X019480Y023024D01*
X019480Y022866D02*
X019715Y022866D01*
X019715Y022707D02*
X019431Y022707D01*
X019589Y022549D02*
X019715Y022549D01*
X019707Y024768D02*
X019182Y024768D01*
X017702Y027938D02*
X017702Y027938D01*
X017735Y029840D02*
X011668Y029840D01*
X011798Y029998D02*
X017735Y029998D01*
X017504Y030157D02*
X011850Y030157D01*
X011850Y030315D02*
X011777Y030492D01*
X011642Y030627D01*
X011465Y030700D01*
X010635Y030700D01*
X010458Y030627D01*
X010323Y030492D01*
X010250Y030315D01*
X010164Y030315D01*
X010170Y030336D02*
X010170Y030490D01*
X010170Y030644D01*
X010158Y030689D01*
X010143Y030715D01*
X017515Y030715D01*
X017444Y030644D01*
X017387Y030505D01*
X017387Y030355D01*
X017387Y030474D02*
X011785Y030474D01*
X011630Y030632D02*
X017439Y030632D01*
X014334Y033961D02*
X012830Y033961D01*
X012910Y034119D02*
X014334Y034119D01*
X014657Y034912D02*
X014817Y034912D01*
X014817Y035070D02*
X014657Y035070D01*
X014657Y035229D02*
X014817Y035229D01*
X014817Y035387D02*
X014657Y035387D01*
X014657Y035546D02*
X014817Y035546D01*
X014817Y035704D02*
X014657Y035704D01*
X014657Y035863D02*
X014817Y035863D01*
X014817Y036021D02*
X014657Y036021D01*
X014657Y036497D02*
X014817Y036497D01*
X014817Y036655D02*
X014657Y036655D01*
X014657Y036814D02*
X014817Y036814D01*
X014817Y036972D02*
X014657Y036972D01*
X014657Y037131D02*
X014817Y037131D01*
X014817Y037289D02*
X014657Y037289D01*
X014657Y037448D02*
X014817Y037448D01*
X013337Y036021D02*
X013070Y036021D01*
X013070Y035863D02*
X013337Y035863D01*
X013337Y035704D02*
X013070Y035704D01*
X013070Y035546D02*
X013337Y035546D01*
X013337Y035387D02*
X013070Y035387D01*
X013070Y035229D02*
X013337Y035229D01*
X013337Y035070D02*
X013070Y035070D01*
X013070Y034912D02*
X013353Y034912D01*
X012670Y034753D02*
X012576Y034753D01*
X012670Y034595D02*
X005774Y034595D01*
X005780Y034574D02*
X005768Y034619D01*
X005744Y034661D01*
X005711Y034694D01*
X005700Y034700D01*
X005711Y034706D01*
X005744Y034739D01*
X005768Y034781D01*
X005780Y034826D01*
X005780Y035120D01*
X003180Y035120D01*
X003180Y034670D01*
X003180Y034280D01*
X005780Y034280D01*
X005780Y034574D01*
X005780Y034436D02*
X012670Y034436D01*
X012670Y034278D02*
X003180Y034278D01*
X003180Y034436D02*
X003020Y034436D01*
X003020Y034595D02*
X003180Y034595D01*
X003180Y034753D02*
X003020Y034753D01*
X003020Y034912D02*
X003180Y034912D01*
X003180Y035070D02*
X003020Y035070D01*
X003180Y035229D02*
X011833Y035229D01*
X011833Y035155D02*
X011140Y035155D01*
X011140Y034894D01*
X011152Y034848D01*
X011176Y034807D01*
X011209Y034773D01*
X011250Y034750D01*
X011296Y034737D01*
X011833Y034737D01*
X011833Y035155D01*
X011833Y035070D02*
X011988Y035070D01*
X011988Y034912D02*
X011833Y034912D01*
X011833Y034753D02*
X011988Y034753D01*
X012649Y034119D02*
X005780Y034119D01*
X005780Y033961D02*
X012491Y033961D01*
X011244Y034753D02*
X005752Y034753D01*
X005780Y034912D02*
X011140Y034912D01*
X011140Y035070D02*
X005780Y035070D01*
X005672Y035704D02*
X008495Y035704D01*
X008530Y035863D02*
X007945Y035863D01*
X007954Y036021D02*
X008530Y036021D01*
X008530Y036180D02*
X007954Y036180D01*
X007954Y036338D02*
X008530Y036338D01*
X008770Y036338D02*
X009086Y036338D01*
X009086Y036180D02*
X008770Y036180D01*
X008770Y036021D02*
X009086Y036021D01*
X009095Y035863D02*
X008770Y035863D01*
X008770Y035704D02*
X011231Y035704D01*
X011140Y035546D02*
X008676Y035546D01*
X008517Y035387D02*
X011140Y035387D01*
X011833Y035387D02*
X011988Y035387D01*
X011988Y035546D02*
X011833Y035546D01*
X011833Y035704D02*
X011988Y035704D01*
X012687Y035863D02*
X012830Y035863D01*
X011988Y036655D02*
X011833Y036655D01*
X011833Y036814D02*
X011988Y036814D01*
X011988Y037131D02*
X011833Y037131D01*
X011833Y037289D02*
X011988Y037289D01*
X011988Y037448D02*
X011833Y037448D01*
X012830Y037923D02*
X010250Y037923D01*
X010409Y038082D02*
X012830Y038082D01*
X012830Y038240D02*
X010567Y038240D01*
X010726Y038399D02*
X012889Y038399D01*
X010655Y036655D02*
X010450Y036655D01*
X010450Y036814D02*
X010496Y036814D01*
X007352Y036814D02*
X007192Y036814D01*
X007192Y036972D02*
X007352Y036972D01*
X007352Y037131D02*
X007192Y037131D01*
X007192Y036338D02*
X007352Y036338D01*
X007352Y036180D02*
X007192Y036180D01*
X007192Y036021D02*
X007352Y036021D01*
X007352Y035863D02*
X007192Y035863D01*
X006599Y035863D02*
X000705Y035863D01*
X000705Y036021D02*
X006590Y036021D01*
X006590Y036180D02*
X000705Y036180D01*
X000705Y036338D02*
X006590Y036338D01*
X006547Y033010D02*
X006627Y033010D01*
X007230Y033010D02*
X007230Y033010D01*
X007230Y032851D02*
X007230Y032851D01*
X007845Y032851D02*
X008695Y032851D01*
X008695Y032693D02*
X007845Y032693D01*
X007797Y032534D02*
X008723Y032534D01*
X008695Y032376D02*
X007825Y032376D01*
X007825Y032217D02*
X008695Y032217D01*
X008747Y032059D02*
X007773Y032059D01*
X007825Y031900D02*
X008523Y031900D01*
X008017Y031742D02*
X007825Y031742D01*
X007774Y031583D02*
X007891Y031583D01*
X008340Y031059D02*
X008445Y031103D01*
X008445Y030953D01*
X008560Y030838D01*
X008683Y030715D01*
X009037Y030715D01*
X009022Y030689D01*
X009010Y030644D01*
X009010Y030490D01*
X009590Y030490D01*
X010170Y030490D01*
X009590Y030490D01*
X009590Y030490D01*
X009590Y030490D01*
X009010Y030490D01*
X009010Y030336D01*
X009022Y030291D01*
X009046Y030249D01*
X009070Y030226D01*
X009030Y030186D01*
X009030Y029794D01*
X009084Y029740D01*
X009030Y029686D01*
X009030Y029294D01*
X009084Y029240D01*
X009034Y029190D01*
X008975Y029190D01*
X008951Y029249D01*
X008945Y029255D01*
X008945Y030122D01*
X008822Y030245D01*
X008340Y030727D01*
X008340Y031059D01*
X008340Y030949D02*
X008449Y030949D01*
X008340Y030791D02*
X008607Y030791D01*
X008435Y030632D02*
X009010Y030632D01*
X009010Y030474D02*
X008593Y030474D01*
X008752Y030315D02*
X009016Y030315D01*
X009030Y030157D02*
X008910Y030157D01*
X008945Y029998D02*
X009030Y029998D01*
X009030Y029840D02*
X008945Y029840D01*
X008945Y029681D02*
X009030Y029681D01*
X009030Y029523D02*
X008945Y029523D01*
X008945Y029364D02*
X009030Y029364D01*
X009049Y029206D02*
X008969Y029206D01*
X008860Y028730D02*
X009094Y028730D01*
X010136Y030200D02*
X010110Y030226D01*
X010134Y030249D01*
X010158Y030291D01*
X010170Y030336D01*
X010250Y030315D02*
X010250Y030200D01*
X010136Y030200D01*
X010170Y030474D02*
X010315Y030474D01*
X010170Y030632D02*
X010470Y030632D01*
X008698Y033010D02*
X007833Y033010D01*
X009985Y027145D02*
X010456Y027145D01*
X010330Y026987D02*
X009985Y026987D01*
X009939Y026828D02*
X010280Y026828D01*
X009465Y024926D02*
X013699Y024926D01*
X013750Y024768D02*
X009870Y024768D01*
X010029Y024609D02*
X013859Y024609D01*
X010256Y023817D02*
X009545Y023817D01*
X009545Y023975D02*
X010097Y023975D01*
X009939Y024134D02*
X009545Y024134D01*
X009545Y024292D02*
X009780Y024292D01*
X009622Y024451D02*
X009522Y024451D01*
X008950Y024160D02*
X008950Y023660D01*
X008435Y024926D02*
X008420Y024926D01*
X006050Y024200D02*
X003100Y024200D01*
X003100Y023200D02*
X003145Y023155D01*
X005770Y023155D01*
X007851Y020805D02*
X008119Y020805D01*
X008051Y020964D02*
X007929Y020964D01*
X007941Y020647D02*
X008034Y020647D01*
X008034Y020488D02*
X007941Y020488D01*
X007941Y020330D02*
X008034Y020330D01*
X007952Y022232D02*
X007898Y022232D01*
X009054Y018586D02*
X009063Y018586D01*
X008863Y017635D02*
X005741Y017635D01*
X005760Y017477D02*
X008705Y017477D01*
X008546Y017318D02*
X005760Y017318D01*
X005760Y017160D02*
X008388Y017160D01*
X008351Y017001D02*
X005760Y017001D01*
X005760Y016843D02*
X008351Y016843D01*
X008351Y016684D02*
X005692Y016684D01*
X005760Y016526D02*
X008351Y016526D01*
X008351Y016367D02*
X005760Y016367D01*
X005760Y016209D02*
X008351Y016209D01*
X008351Y016050D02*
X005760Y016050D01*
X005760Y015892D02*
X008351Y015892D01*
X008351Y015733D02*
X005709Y015733D01*
X005760Y015575D02*
X006437Y015575D01*
X006791Y015210D02*
X006791Y015200D01*
X003100Y015200D01*
X003100Y014200D02*
X007596Y014200D01*
X007596Y014166D01*
X007913Y014148D02*
X007987Y014148D01*
X007987Y013990D02*
X007913Y013990D01*
X007881Y013831D02*
X008020Y013831D01*
X007987Y014307D02*
X007913Y014307D01*
X007913Y014465D02*
X007987Y014465D01*
X007869Y014782D02*
X008271Y014782D01*
X008185Y014941D02*
X007955Y014941D01*
X007579Y015210D02*
X008561Y015210D01*
X008938Y015258D02*
X008952Y015258D01*
X008952Y015238D02*
X009320Y015238D01*
X009320Y015666D01*
X009108Y015666D01*
X009063Y015653D01*
X009022Y015630D01*
X008988Y015596D01*
X008964Y015555D01*
X008952Y015509D01*
X008952Y015238D01*
X008938Y015099D02*
X008952Y015099D01*
X008938Y014941D02*
X008952Y014941D01*
X009036Y014782D02*
X008852Y014782D01*
X008622Y014465D02*
X009608Y014465D01*
X009730Y014624D02*
X005753Y014624D01*
X005758Y014782D02*
X006501Y014782D01*
X006415Y014941D02*
X005760Y014941D01*
X005760Y014465D02*
X007278Y014465D01*
X007288Y014782D02*
X007082Y014782D01*
X007168Y014941D02*
X007202Y014941D01*
X007202Y015099D02*
X007168Y015099D01*
X007168Y015258D02*
X007202Y015258D01*
X007202Y015416D02*
X007168Y015416D01*
X007145Y015575D02*
X007225Y015575D01*
X007933Y015575D02*
X008207Y015575D01*
X008771Y015733D02*
X009730Y015733D01*
X009722Y015575D02*
X009730Y015575D01*
X009730Y015892D02*
X008771Y015892D01*
X008771Y016050D02*
X009730Y016050D01*
X009730Y016209D02*
X008771Y016209D01*
X008771Y016367D02*
X009730Y016367D01*
X009730Y016526D02*
X008771Y016526D01*
X008771Y016684D02*
X009730Y016684D01*
X009730Y016843D02*
X008771Y016843D01*
X008823Y017001D02*
X009774Y017001D01*
X009933Y017160D02*
X008982Y017160D01*
X008976Y015575D02*
X008915Y015575D01*
X008938Y015416D02*
X008952Y015416D01*
X009320Y015416D02*
X009377Y015416D01*
X009377Y015258D02*
X009320Y015258D01*
X009320Y015099D02*
X009377Y015099D01*
X009377Y014941D02*
X009320Y014941D01*
X009320Y014782D02*
X009377Y014782D01*
X009661Y014782D02*
X009730Y014782D01*
X009377Y015575D02*
X009320Y015575D01*
X010497Y013990D02*
X010589Y013990D01*
X010589Y013831D02*
X010338Y013831D01*
X010180Y013673D02*
X010589Y013673D01*
X010589Y013514D02*
X010021Y013514D01*
X010589Y013356D02*
X006578Y013356D01*
X006550Y013197D02*
X010589Y013197D01*
X010589Y013039D02*
X006550Y013039D01*
X006550Y012880D02*
X010589Y012880D01*
X010589Y012722D02*
X006550Y012722D01*
X006550Y012563D02*
X010589Y012563D01*
X010589Y012405D02*
X006550Y012405D01*
X006418Y012246D02*
X008475Y012246D01*
X008475Y011612D02*
X006904Y011612D01*
X006746Y011454D02*
X010594Y011454D01*
X010594Y011612D02*
X010015Y011612D01*
X009733Y011226D02*
X009640Y011132D01*
X009640Y011030D01*
X009325Y011030D01*
X009325Y011097D01*
X009231Y011191D01*
X008626Y011191D01*
X008532Y011097D01*
X008532Y010493D01*
X008626Y010399D01*
X009231Y010399D01*
X009325Y010493D01*
X009325Y010550D01*
X009640Y010550D01*
X009640Y010448D01*
X009733Y010354D01*
X010299Y010354D01*
X010393Y010448D01*
X010393Y011132D01*
X010299Y011226D01*
X009733Y011226D01*
X009644Y011137D02*
X009286Y011137D01*
X009262Y011612D02*
X009228Y011612D01*
X009228Y011771D02*
X009262Y011771D01*
X009262Y011929D02*
X009228Y011929D01*
X009228Y012088D02*
X009262Y012088D01*
X009262Y012246D02*
X009228Y012246D01*
X010015Y012246D02*
X010494Y012246D01*
X010594Y011295D02*
X006587Y011295D01*
X006429Y011137D02*
X007718Y011137D01*
X007721Y011142D02*
X007698Y011101D01*
X007685Y011055D01*
X007685Y010833D01*
X008063Y010833D01*
X008063Y010757D01*
X007685Y010757D01*
X007685Y010535D01*
X007698Y010489D01*
X007721Y010448D01*
X007755Y010415D01*
X007796Y010391D01*
X007842Y010379D01*
X008064Y010379D01*
X008064Y010757D01*
X008140Y010757D01*
X008140Y010833D01*
X008518Y010833D01*
X008518Y011055D01*
X008506Y011101D01*
X008482Y011142D01*
X008448Y011175D01*
X008407Y011199D01*
X008362Y011211D01*
X008140Y011211D01*
X008140Y010833D01*
X008064Y010833D01*
X008064Y011211D01*
X007842Y011211D01*
X007796Y011199D01*
X007755Y011175D01*
X007721Y011142D01*
X007685Y010978D02*
X005760Y010978D01*
X005760Y010820D02*
X008063Y010820D01*
X008140Y010820D02*
X008532Y010820D01*
X008518Y010757D02*
X008140Y010757D01*
X008140Y010379D01*
X008362Y010379D01*
X008407Y010391D01*
X008448Y010415D01*
X008482Y010448D01*
X008506Y010489D01*
X008518Y010535D01*
X008518Y010757D01*
X008518Y010661D02*
X008532Y010661D01*
X008532Y010503D02*
X008509Y010503D01*
X008140Y010503D02*
X008064Y010503D01*
X008064Y010661D02*
X008140Y010661D01*
X008140Y010978D02*
X008064Y010978D01*
X008064Y011137D02*
X008140Y011137D01*
X008485Y011137D02*
X008571Y011137D01*
X008532Y010978D02*
X008518Y010978D01*
X008928Y010795D02*
X008933Y010790D01*
X010016Y010790D01*
X010393Y010820D02*
X010427Y010820D01*
X010427Y010978D02*
X010393Y010978D01*
X010388Y011137D02*
X010432Y011137D01*
X010427Y010661D02*
X010393Y010661D01*
X010393Y010503D02*
X010427Y010503D01*
X009640Y010503D02*
X009325Y010503D01*
X007694Y010503D02*
X005760Y010503D01*
X005715Y010661D02*
X007685Y010661D01*
X006627Y011929D02*
X005760Y011929D01*
X005747Y011771D02*
X006469Y011771D01*
X006310Y011612D02*
X005760Y011612D01*
X005760Y011454D02*
X006152Y011454D01*
X006260Y012088D02*
X006786Y012088D01*
X005735Y008759D02*
X016088Y008759D01*
X016029Y008601D02*
X005760Y008601D01*
X013215Y019379D02*
X013237Y019379D01*
X013215Y019537D02*
X013395Y019537D01*
X013554Y019696D02*
X013215Y019696D01*
X017587Y017477D02*
X017709Y017477D01*
X017771Y016843D02*
X017525Y016843D01*
X018312Y016843D02*
X018558Y016843D01*
X019099Y016843D02*
X019346Y016843D01*
X019283Y017477D02*
X019162Y017477D01*
X018496Y017477D02*
X018374Y017477D01*
X019620Y018428D02*
X021839Y018428D01*
X021834Y018586D02*
X019779Y018586D01*
X019949Y017477D02*
X020071Y017477D01*
X020133Y016843D02*
X019887Y016843D01*
X020674Y016843D02*
X020921Y016843D01*
X021462Y016843D02*
X021708Y016843D01*
X021646Y017477D02*
X021524Y017477D01*
X020858Y017477D02*
X020737Y017477D01*
X022212Y018428D02*
X022289Y018428D01*
X022289Y018586D02*
X022212Y018586D01*
X022212Y018745D02*
X022289Y018745D01*
X022289Y018903D02*
X022212Y018903D01*
X022212Y019062D02*
X022289Y019062D01*
X022289Y019220D02*
X022212Y019220D01*
X022212Y019379D02*
X022289Y019379D01*
X022289Y019537D02*
X022212Y019537D01*
X022826Y019696D02*
X022826Y019696D01*
X022826Y019854D02*
X022826Y019854D01*
X022826Y020013D02*
X022826Y020013D01*
X022826Y020090D02*
X022826Y020090D01*
X022826Y020171D02*
X022826Y020171D01*
X022826Y020330D02*
X022826Y020330D01*
X022826Y020488D02*
X022826Y020488D01*
X025596Y020880D02*
X025596Y019980D01*
X025913Y020013D02*
X025987Y020013D01*
X025987Y020171D02*
X025913Y020171D01*
X025987Y020282D02*
X025987Y019678D01*
X026081Y019584D01*
X026528Y019584D01*
X026622Y019678D01*
X026622Y019770D01*
X028350Y019770D01*
X028350Y019668D01*
X028444Y019574D01*
X029049Y019574D01*
X029143Y019668D01*
X029143Y020272D01*
X029049Y020366D01*
X028444Y020366D01*
X028350Y020272D01*
X028350Y020190D01*
X026622Y020190D01*
X026622Y020282D01*
X026528Y020376D01*
X026081Y020376D01*
X025987Y020282D01*
X026034Y020330D02*
X025866Y020330D01*
X025913Y019854D02*
X025987Y019854D01*
X025987Y019696D02*
X025913Y019696D01*
X026622Y019696D02*
X028350Y019696D01*
X028386Y019379D02*
X026616Y019379D01*
X026575Y020330D02*
X028407Y020330D01*
X028310Y020647D02*
X026642Y020647D01*
X026564Y021281D02*
X028348Y021281D01*
X028399Y021439D02*
X026603Y021439D01*
X026652Y022073D02*
X028340Y022073D01*
X028319Y022549D02*
X026623Y022549D01*
X026612Y023183D02*
X028310Y023183D01*
X028357Y023341D02*
X026565Y023341D01*
X026632Y023500D02*
X028290Y023500D01*
X028290Y023975D02*
X026632Y023975D01*
X026638Y024451D02*
X028305Y024451D01*
X028354Y025085D02*
X026583Y025085D01*
X026596Y025243D02*
X028342Y025243D01*
X028295Y025877D02*
X026648Y025877D01*
X026642Y026194D02*
X028400Y026194D01*
X028400Y026670D02*
X026642Y026670D01*
X026556Y026828D02*
X028486Y026828D01*
X029107Y026828D02*
X029290Y026828D01*
X029277Y026820D02*
X029243Y026787D01*
X029219Y026746D01*
X029207Y026700D01*
X029207Y026478D01*
X029585Y026478D01*
X029585Y026402D01*
X029661Y026402D01*
X029661Y026024D01*
X029883Y026024D01*
X029929Y026036D01*
X029970Y026060D01*
X030004Y026093D01*
X030027Y026134D01*
X030040Y026180D01*
X030040Y026402D01*
X029662Y026402D01*
X029662Y026478D01*
X030040Y026478D01*
X030040Y026700D01*
X030027Y026746D01*
X030004Y026787D01*
X029970Y026820D01*
X029929Y026844D01*
X029883Y026856D01*
X029661Y026856D01*
X029661Y026478D01*
X029585Y026478D01*
X029585Y026856D01*
X029363Y026856D01*
X029318Y026844D01*
X029277Y026820D01*
X029207Y026670D02*
X029193Y026670D01*
X029193Y026511D02*
X029207Y026511D01*
X029193Y026353D02*
X029207Y026353D01*
X029193Y026194D02*
X029207Y026194D01*
X029585Y026194D02*
X029661Y026194D01*
X029661Y026036D02*
X029585Y026036D01*
X029585Y026353D02*
X029661Y026353D01*
X029661Y026511D02*
X029585Y026511D01*
X029585Y026670D02*
X029661Y026670D01*
X029661Y026828D02*
X029585Y026828D01*
X029957Y026828D02*
X030795Y026828D01*
X030795Y026670D02*
X030040Y026670D01*
X030040Y026511D02*
X030795Y026511D01*
X030795Y026353D02*
X030040Y026353D01*
X030040Y026194D02*
X030795Y026194D01*
X030795Y026036D02*
X029927Y026036D01*
X029914Y025877D02*
X029937Y025877D01*
X030453Y025877D02*
X030795Y025877D01*
X030795Y025719D02*
X030555Y025719D01*
X030573Y025560D02*
X030795Y025560D01*
X030795Y025402D02*
X030522Y025402D01*
X030321Y025243D02*
X030795Y025243D01*
X030795Y025085D02*
X029875Y025085D01*
X029866Y025243D02*
X030069Y025243D01*
X030474Y024926D02*
X030795Y024926D01*
X030795Y024768D02*
X030548Y024768D01*
X030544Y024609D02*
X030795Y024609D01*
X030795Y024451D02*
X030460Y024451D01*
X030540Y023975D02*
X030795Y023975D01*
X030795Y023817D02*
X030623Y023817D01*
X030628Y023658D02*
X030795Y023658D01*
X030795Y023500D02*
X030554Y023500D01*
X029927Y022549D02*
X029901Y022549D01*
X029146Y022549D02*
X029074Y022549D01*
X029093Y022707D02*
X029127Y022707D01*
X029127Y022866D02*
X029093Y022866D01*
X029093Y023024D02*
X029127Y023024D01*
X029137Y023183D02*
X029083Y023183D01*
X029016Y023341D02*
X029184Y023341D01*
X029117Y023500D02*
X029083Y023500D01*
X029083Y023658D02*
X029117Y023658D01*
X029117Y023817D02*
X029083Y023817D01*
X029083Y023975D02*
X029117Y023975D01*
X029097Y024451D02*
X029131Y024451D01*
X029131Y024609D02*
X029097Y024609D01*
X029133Y022073D02*
X029167Y022073D01*
X029167Y021915D02*
X029133Y021915D01*
X029133Y021756D02*
X029167Y021756D01*
X029167Y021598D02*
X029133Y021598D01*
X029074Y021439D02*
X029226Y021439D01*
X029175Y021281D02*
X029065Y021281D01*
X029103Y021122D02*
X029137Y021122D01*
X029137Y020964D02*
X029103Y020964D01*
X029103Y020805D02*
X029137Y020805D01*
X029137Y020647D02*
X029103Y020647D01*
X029086Y020330D02*
X029234Y020330D01*
X029177Y020171D02*
X029143Y020171D01*
X029143Y020013D02*
X029177Y020013D01*
X029177Y019854D02*
X029143Y019854D01*
X029143Y019696D02*
X029177Y019696D01*
X029147Y019379D02*
X029213Y019379D01*
X029197Y019220D02*
X029163Y019220D01*
X029163Y019062D02*
X029197Y019062D01*
X029197Y018903D02*
X029163Y018903D01*
X029150Y018745D02*
X029210Y018745D01*
X029977Y018745D02*
X030168Y018745D01*
X030565Y019696D02*
X030795Y019696D01*
X030795Y019854D02*
X030618Y019854D01*
X030603Y020013D02*
X030795Y020013D01*
X030795Y020171D02*
X030504Y020171D01*
X025616Y020900D02*
X025616Y021780D01*
X025626Y021790D01*
X025626Y022840D01*
X025606Y022860D01*
X025616Y020900D02*
X025596Y020880D01*
X030118Y027304D02*
X030795Y027304D01*
X030795Y027462D02*
X030361Y027462D01*
X030448Y027621D02*
X030795Y027621D01*
X030795Y027779D02*
X030470Y027779D01*
X030440Y027938D02*
X030795Y027938D01*
X030795Y028096D02*
X030343Y028096D01*
X030412Y028413D02*
X030795Y028413D01*
X030795Y028255D02*
X029482Y028255D01*
X029128Y028413D02*
X028145Y028413D01*
X028145Y028572D02*
X029013Y028572D01*
X028970Y028730D02*
X028145Y028730D01*
X028145Y028889D02*
X028980Y028889D01*
X029048Y029047D02*
X028145Y029047D01*
X028258Y029206D02*
X029247Y029206D01*
X029233Y029282D02*
X029311Y029270D01*
X029650Y029270D01*
X029650Y029750D01*
X029690Y029750D01*
X029690Y029790D01*
X029650Y029790D01*
X029650Y029750D01*
X028850Y029750D01*
X028850Y029731D01*
X028862Y029653D01*
X028887Y029578D01*
X028922Y029508D01*
X028969Y029444D01*
X029024Y029389D01*
X029088Y029342D01*
X029158Y029307D01*
X029233Y029282D01*
X029058Y029364D02*
X028313Y029364D01*
X028300Y029523D02*
X028915Y029523D01*
X028858Y029681D02*
X028204Y029681D01*
X028648Y030949D02*
X029005Y030949D01*
X029109Y031108D02*
X028489Y031108D01*
X028338Y031266D02*
X030795Y031266D01*
X030795Y031108D02*
X030431Y031108D01*
X030535Y030949D02*
X030795Y030949D01*
X030795Y030791D02*
X030570Y030791D01*
X030552Y030632D02*
X030795Y030632D01*
X030795Y030474D02*
X030472Y030474D01*
X030246Y030315D02*
X030795Y030315D01*
X030795Y030157D02*
X030309Y030157D01*
X030316Y030151D02*
X030252Y030198D01*
X030182Y030233D01*
X030107Y030258D01*
X030029Y030270D01*
X029690Y030270D01*
X029690Y029790D01*
X030490Y029790D01*
X030490Y029809D01*
X030478Y029887D01*
X030453Y029962D01*
X030418Y030032D01*
X030371Y030096D01*
X030316Y030151D01*
X030435Y029998D02*
X030795Y029998D01*
X030795Y029840D02*
X030485Y029840D01*
X030490Y029750D02*
X029690Y029750D01*
X029690Y029270D01*
X030029Y029270D01*
X030107Y029282D01*
X030182Y029307D01*
X030252Y029342D01*
X030316Y029389D01*
X030371Y029444D01*
X030418Y029508D01*
X030453Y029578D01*
X030478Y029653D01*
X030490Y029731D01*
X030490Y029750D01*
X030482Y029681D02*
X030795Y029681D01*
X030795Y029523D02*
X030425Y029523D01*
X030282Y029364D02*
X030795Y029364D01*
X030795Y029206D02*
X030293Y029206D01*
X030492Y029047D02*
X030795Y029047D01*
X030795Y028889D02*
X030560Y028889D01*
X030570Y028730D02*
X030795Y028730D01*
X030795Y028572D02*
X030527Y028572D01*
X029690Y029364D02*
X029650Y029364D01*
X029650Y029523D02*
X029690Y029523D01*
X029690Y029681D02*
X029650Y029681D01*
X029650Y029840D02*
X029690Y029840D01*
X029690Y029998D02*
X029650Y029998D01*
X029650Y030157D02*
X029690Y030157D01*
X030323Y031425D02*
X030795Y031425D01*
X030795Y031583D02*
X030432Y031583D01*
X030470Y031742D02*
X030795Y031742D01*
X030795Y031900D02*
X030456Y031900D01*
X030380Y032059D02*
X030795Y032059D01*
X030795Y032217D02*
X030165Y032217D01*
X030795Y032376D02*
X029188Y032376D01*
X029175Y032217D02*
X029029Y032217D01*
X028960Y032059D02*
X023853Y032059D01*
X023821Y032217D02*
X028342Y032217D01*
X028378Y031900D02*
X023816Y031900D01*
X023682Y031742D02*
X028220Y031742D01*
X028497Y031425D02*
X029017Y031425D01*
X029254Y032534D02*
X030795Y032534D01*
X029363Y032693D02*
X029279Y032693D01*
X030795Y034436D02*
X025726Y034436D01*
X026590Y036180D02*
X022427Y036180D01*
X026283Y036814D02*
X026590Y036814D01*
X027343Y036814D02*
X027377Y036814D01*
X027377Y036655D02*
X027343Y036655D01*
X027343Y036497D02*
X027377Y036497D01*
X027377Y036338D02*
X027343Y036338D01*
X027343Y036180D02*
X027377Y036180D01*
X028130Y036814D02*
X028811Y036814D01*
X028299Y037765D02*
X030795Y037765D01*
X030795Y037923D02*
X028490Y037923D01*
X028485Y037913D02*
X028485Y037913D01*
X028566Y038082D02*
X030795Y038082D01*
X030795Y038240D02*
X028605Y038240D01*
X028605Y038399D02*
X030795Y038399D01*
X030795Y038557D02*
X028605Y038557D01*
X028605Y038716D02*
X030795Y038716D01*
X030795Y038874D02*
X028605Y038874D01*
X030440Y036338D02*
X030795Y036338D01*
X030795Y036180D02*
X030419Y036180D01*
X023347Y008918D02*
X022972Y008918D01*
X023144Y008759D02*
X023175Y008759D01*
X020198Y008918D02*
X019822Y008918D01*
X019995Y008759D02*
X020025Y008759D01*
X020032Y008284D02*
X019988Y008284D01*
X019783Y008125D02*
X020237Y008125D01*
X019449Y008125D02*
X018996Y008125D01*
X019201Y008284D02*
X019245Y008284D01*
X019238Y008759D02*
X019207Y008759D01*
X019035Y008918D02*
X019410Y008918D01*
X018623Y008918D02*
X018247Y008918D01*
X018420Y008759D02*
X018451Y008759D01*
X018457Y008284D02*
X018413Y008284D01*
X018209Y008125D02*
X018662Y008125D01*
X017874Y008125D02*
X017421Y008125D01*
X017626Y008284D02*
X017670Y008284D01*
X017663Y008759D02*
X017632Y008759D01*
X017460Y008918D02*
X017836Y008918D01*
X025855Y007016D02*
X029166Y007016D01*
X027564Y001627D02*
X026841Y001627D01*
D37*
X026620Y001940D03*
X028580Y002390D03*
X030350Y000860D03*
X028620Y005140D03*
X028570Y006140D03*
X029790Y008385D03*
X026320Y007190D03*
X025720Y004790D03*
X024770Y004940D03*
X023670Y003990D03*
X030030Y012930D03*
X027380Y017430D03*
X027910Y017780D03*
X030240Y019900D03*
X030180Y020950D03*
X030220Y021820D03*
X030165Y022845D03*
X030250Y023730D03*
X030170Y024695D03*
X030195Y025600D03*
X027935Y029415D03*
X026000Y029895D03*
X025720Y027895D03*
X024150Y026340D03*
X024785Y025600D03*
X024735Y024695D03*
X024800Y023765D03*
X024770Y022845D03*
X024805Y022150D03*
X024730Y021445D03*
X024150Y019780D03*
X021980Y021700D03*
X022370Y022375D03*
X021470Y022735D03*
X021335Y023365D03*
X021975Y024640D03*
X022235Y025165D03*
X023550Y027165D03*
X021300Y027450D03*
X019690Y028575D03*
X018705Y030590D03*
X017765Y030430D03*
X018845Y031835D03*
X017850Y033545D03*
X017265Y033135D03*
X016805Y032325D03*
X015980Y032320D03*
X015620Y030445D03*
X016040Y028165D03*
X016675Y028150D03*
X017440Y026940D03*
X016605Y026920D03*
X016220Y026340D03*
X016320Y025140D03*
X017230Y023610D03*
X017860Y025090D03*
X018470Y026090D03*
X018890Y025010D03*
X019370Y025390D03*
X018120Y021930D03*
X020715Y019520D03*
X020890Y015385D03*
X022835Y014490D03*
X024170Y013635D03*
X024290Y015995D03*
X016840Y016575D03*
X016355Y018020D03*
X014970Y017625D03*
X014825Y021810D03*
X014770Y025165D03*
X013960Y025200D03*
X012945Y026425D03*
X011295Y024610D03*
X009170Y022435D03*
X008525Y021895D03*
X008815Y018290D03*
X009210Y016765D03*
X007000Y016980D03*
X006065Y013775D03*
X006990Y013065D03*
X007935Y013140D03*
X007005Y010255D03*
X011160Y015595D03*
X014900Y008565D03*
X001220Y001000D03*
X006945Y025725D03*
X008200Y026275D03*
X006665Y028505D03*
X006250Y029470D03*
X006145Y030490D03*
X006480Y031025D03*
X008040Y029480D03*
X008630Y029035D03*
X008235Y031425D03*
X006270Y034440D03*
X006270Y035040D03*
X006440Y037830D03*
X007485Y037865D03*
X011360Y037740D03*
X012160Y037750D03*
X012140Y036260D03*
X011340Y036260D03*
X013970Y035940D03*
X013970Y035240D03*
X014770Y035240D03*
X014770Y035940D03*
X014770Y036740D03*
X015570Y036740D03*
X015570Y035940D03*
X015470Y035240D03*
X016470Y035440D03*
X016470Y036240D03*
X016470Y037040D03*
X016470Y037840D03*
X017270Y037840D03*
X017270Y037040D03*
X017270Y036240D03*
X017270Y035440D03*
X018070Y035440D03*
X018070Y036240D03*
X018070Y037040D03*
X018070Y037840D03*
X018870Y037840D03*
X018870Y037040D03*
X018870Y036240D03*
X018870Y035440D03*
X019670Y035440D03*
X019670Y036240D03*
X019670Y037040D03*
X019670Y037840D03*
X020470Y037840D03*
X020470Y037040D03*
X021170Y037040D03*
X021170Y037840D03*
X021970Y037840D03*
X021970Y037040D03*
X021970Y036240D03*
X021970Y035440D03*
X021170Y035440D03*
X020470Y035440D03*
X020470Y036240D03*
X021170Y036240D03*
X020560Y033665D03*
X023475Y032065D03*
X021630Y030070D03*
X025870Y033000D03*
X027540Y033270D03*
X023760Y037360D03*
X030170Y038470D03*
X015470Y037840D03*
X014770Y037840D03*
X014170Y037840D03*
X013970Y036740D03*
X013550Y032435D03*
X014570Y027430D03*
D38*
X016050Y033690D02*
X016050Y034590D01*
X016190Y034730D01*
D39*
X023534Y020090D02*
X023550Y020075D01*
X023550Y018960D01*
X023550Y017194D01*
X023553Y017191D01*
X023570Y019660D02*
X024030Y019660D01*
X024150Y019780D01*
D40*
X023570Y019660D02*
X023550Y019680D01*
X023550Y020075D01*
X025395Y006100D02*
X025395Y005715D01*
X025720Y005540D01*
X024370Y004940D02*
X024370Y004045D01*
X024395Y004020D01*
X024870Y003995D02*
X024870Y003640D01*
X024770Y003540D01*
X024370Y003540D01*
X024070Y003340D01*
X022670Y003340D01*
X022670Y002740D01*
X022570Y002640D01*
X022264Y002640D01*
X023176Y002640D01*
X023176Y001740D01*
X023964Y001740D02*
X025057Y001740D01*
X024970Y002640D02*
X025070Y002740D01*
X025070Y003163D01*
X025087Y003180D01*
X024970Y002640D02*
X023964Y002640D01*
X024870Y003995D02*
X024895Y004020D01*
X024870Y004045D01*
X024370Y004940D02*
X024290Y005020D01*
X023449Y005020D01*
X022306Y003900D02*
X022306Y003504D01*
X022470Y003340D01*
X022670Y003340D01*
X022306Y003900D02*
X022107Y004099D01*
X022107Y004504D01*
X022091Y004740D02*
X022111Y004760D01*
X022091Y004740D02*
X021070Y004740D01*
X020870Y004540D01*
X020870Y002940D01*
X021170Y002640D01*
X021476Y002640D01*
X009381Y018370D02*
X009381Y018979D01*
X009375Y018985D01*
X009375Y018390D01*
X009330Y018345D01*
X008870Y018345D01*
X008815Y018290D01*
X007545Y021199D02*
X007545Y022025D01*
X007545Y022409D01*
X007581Y022445D01*
X007560Y022466D01*
X007560Y022910D01*
X008220Y023570D01*
X008220Y024145D01*
X008200Y024165D01*
X008200Y024210D01*
X008250Y024160D01*
X008950Y024160D01*
X008200Y024210D02*
X008200Y026275D01*
X007545Y022025D02*
X007675Y021895D01*
X008525Y021895D01*
X021760Y034910D02*
X021960Y034825D01*
D41*
X024070Y006590D03*
X025720Y005540D03*
M02*
