G75*
%MOIN*%
%OFA0B0*%
%FSLAX24Y24*%
%IPPOS*%
%LPD*%
%AMOC8*
5,1,8,0,0,1.08239X$1,22.5*
%
%ADD10C,0.0050*%
%ADD11C,0.0100*%
D10*
X007673Y022580D02*
X007773Y022580D01*
X007823Y022630D01*
X007823Y022680D01*
X007773Y022730D01*
X007673Y022730D01*
X007623Y022680D01*
X007623Y022630D01*
X007673Y022580D01*
X007673Y022730D02*
X007623Y022780D01*
X007623Y022830D01*
X007673Y022880D01*
X007773Y022880D01*
X007823Y022830D01*
X007823Y022780D01*
X007773Y022730D01*
X007945Y022730D02*
X007995Y022680D01*
X008145Y022680D01*
X008145Y022580D02*
X008145Y022880D01*
X007995Y022880D01*
X007945Y022830D01*
X007945Y022730D01*
X008045Y022680D02*
X007945Y022580D01*
X011397Y022575D02*
X011447Y022625D01*
X011547Y022625D01*
X011597Y022575D01*
X011719Y022575D02*
X011769Y022625D01*
X011870Y022625D01*
X011920Y022575D01*
X011920Y022375D01*
X011870Y022325D01*
X011769Y022325D01*
X011719Y022375D01*
X011597Y022325D02*
X011397Y022525D01*
X011397Y022575D01*
X011397Y022325D02*
X011597Y022325D01*
X015197Y024325D02*
X015247Y024275D01*
X015347Y024275D01*
X015397Y024325D01*
X015519Y024325D02*
X015569Y024275D01*
X015670Y024275D01*
X015720Y024325D01*
X015720Y024525D01*
X015670Y024575D01*
X015569Y024575D01*
X015519Y024525D01*
X015397Y024525D02*
X015347Y024575D01*
X015247Y024575D01*
X015197Y024525D01*
X015197Y024475D01*
X015247Y024425D01*
X015197Y024375D01*
X015197Y024325D01*
X015247Y024425D02*
X015297Y024425D01*
X011030Y028775D02*
X010929Y028775D01*
X010879Y028825D01*
X010757Y028825D02*
X010707Y028775D01*
X010607Y028775D01*
X010557Y028825D01*
X010557Y029025D01*
X010607Y029075D01*
X010707Y029075D01*
X010757Y029025D01*
X010757Y028975D01*
X010707Y028925D01*
X010557Y028925D01*
X010879Y029025D02*
X010929Y029075D01*
X011030Y029075D01*
X011080Y029025D01*
X011080Y028825D01*
X011030Y028775D01*
X009642Y027475D02*
X009642Y027175D01*
X009642Y027275D02*
X009492Y027275D01*
X009442Y027325D01*
X009442Y027425D01*
X009492Y027475D01*
X009642Y027475D01*
X009542Y027275D02*
X009442Y027175D01*
X009320Y027175D02*
X009119Y027175D01*
X009219Y027175D02*
X009219Y027475D01*
X009320Y027375D01*
X008997Y027325D02*
X008897Y027375D01*
X008847Y027375D01*
X008797Y027325D01*
X008797Y027225D01*
X008847Y027175D01*
X008947Y027175D01*
X008997Y027225D01*
X008997Y027325D02*
X008997Y027475D01*
X008797Y027475D01*
X008803Y027975D02*
X008903Y027975D01*
X008953Y028025D01*
X008953Y028075D01*
X008903Y028125D01*
X008803Y028125D01*
X008753Y028075D01*
X008753Y028025D01*
X008803Y027975D01*
X008803Y028125D02*
X008753Y028175D01*
X008753Y028225D01*
X008803Y028275D01*
X008903Y028275D01*
X008953Y028225D01*
X008953Y028175D01*
X008903Y028125D01*
X009075Y028025D02*
X009125Y027975D01*
X009225Y027975D01*
X009275Y028025D01*
X009275Y028225D01*
X009225Y028275D01*
X009125Y028275D01*
X009075Y028225D01*
X007025Y029525D02*
X006775Y029525D01*
X006725Y029575D01*
X006725Y029675D01*
X006775Y029725D01*
X007025Y029725D01*
X007025Y029847D02*
X006875Y029847D01*
X006925Y029947D01*
X006925Y029997D01*
X006875Y030047D01*
X006775Y030047D01*
X006725Y029997D01*
X006725Y029897D01*
X006775Y029847D01*
X007025Y029847D02*
X007025Y030047D01*
X007475Y031425D02*
X007775Y031425D01*
X007775Y031575D01*
X007725Y031625D01*
X007625Y031625D01*
X007575Y031575D01*
X007575Y031425D01*
X007575Y031525D02*
X007475Y031625D01*
X007475Y031747D02*
X007475Y031947D01*
X007475Y031847D02*
X007775Y031847D01*
X007675Y031747D01*
X007725Y032070D02*
X007775Y032120D01*
X007775Y032220D01*
X007725Y032270D01*
X007675Y032270D01*
X007475Y032070D01*
X007475Y032270D01*
X009397Y030975D02*
X009497Y030925D01*
X009597Y030825D01*
X009447Y030825D01*
X009397Y030775D01*
X009397Y030725D01*
X009447Y030675D01*
X009547Y030675D01*
X009597Y030725D01*
X009597Y030825D01*
X009719Y030725D02*
X009769Y030675D01*
X009870Y030675D01*
X009920Y030725D01*
X009920Y030925D01*
X009870Y030975D01*
X009769Y030975D01*
X009719Y030925D01*
X022830Y021065D02*
X022830Y020765D01*
X022930Y020765D02*
X022730Y020765D01*
X022930Y020965D02*
X022830Y021065D01*
X023153Y021065D02*
X023153Y020765D01*
X023253Y020765D02*
X023053Y020765D01*
X023253Y020965D02*
X023153Y021065D01*
X023375Y021015D02*
X023425Y021065D01*
X023525Y021065D01*
X023575Y021015D01*
X023575Y020815D01*
X023525Y020765D01*
X023425Y020765D01*
X023375Y020815D01*
X023540Y018425D02*
X023490Y018375D01*
X023690Y018175D01*
X023640Y018125D01*
X023540Y018125D01*
X023490Y018175D01*
X023490Y018375D01*
X023540Y018425D02*
X023640Y018425D01*
X023690Y018375D01*
X023690Y018175D01*
X023813Y018125D02*
X024013Y018125D01*
X023913Y018125D02*
X023913Y018425D01*
X024013Y018325D01*
X024135Y018375D02*
X024185Y018425D01*
X024285Y018425D01*
X024335Y018375D01*
X024335Y018175D01*
X024285Y018125D01*
X024185Y018125D01*
X024135Y018175D01*
X029250Y015503D02*
X029550Y015503D01*
X029400Y015353D01*
X029400Y015553D01*
X029250Y015231D02*
X029250Y015030D01*
X029250Y015131D02*
X029550Y015131D01*
X029450Y015030D01*
X029400Y014908D02*
X029350Y014858D01*
X029350Y014708D01*
X029250Y014708D02*
X029550Y014708D01*
X029550Y014858D01*
X029500Y014908D01*
X029400Y014908D01*
X029350Y014808D02*
X029250Y014908D01*
X030015Y037118D02*
X030315Y037118D01*
X030315Y037268D01*
X030265Y037318D01*
X030165Y037318D01*
X030115Y037268D01*
X030115Y037118D01*
X030115Y037218D02*
X030015Y037318D01*
X030065Y037440D02*
X030015Y037490D01*
X030015Y037591D01*
X030065Y037641D01*
X030115Y037641D01*
X030165Y037591D01*
X030165Y037541D01*
X030165Y037591D02*
X030215Y037641D01*
X030265Y037641D01*
X030315Y037591D01*
X030315Y037490D01*
X030265Y037440D01*
X030265Y037763D02*
X030315Y037813D01*
X030315Y037913D01*
X030265Y037963D01*
X030215Y037963D01*
X030015Y037763D01*
X030015Y037963D01*
D11*
X003400Y029961D02*
X003400Y002274D01*
X003402Y002197D01*
X003408Y002120D01*
X003418Y002043D01*
X003431Y001967D01*
X003449Y001892D01*
X003470Y001818D01*
X003495Y001745D01*
X003524Y001673D01*
X003556Y001603D01*
X003591Y001534D01*
X003631Y001468D01*
X003673Y001403D01*
X003719Y001341D01*
X003768Y001281D01*
X003819Y001224D01*
X003874Y001169D01*
X003931Y001118D01*
X003991Y001069D01*
X004053Y001023D01*
X004118Y000981D01*
X004184Y000941D01*
X004253Y000906D01*
X004323Y000874D01*
X004395Y000845D01*
X004468Y000820D01*
X004542Y000799D01*
X004617Y000781D01*
X004693Y000768D01*
X004770Y000758D01*
X004847Y000752D01*
X004924Y000750D01*
X035378Y000750D01*
X035455Y000752D01*
X035533Y000758D01*
X035610Y000768D01*
X035686Y000781D01*
X035762Y000799D01*
X035836Y000820D01*
X035910Y000845D01*
X035982Y000874D01*
X036052Y000906D01*
X036121Y000942D01*
X036188Y000982D01*
X036253Y001024D01*
X036315Y001070D01*
X036375Y001119D01*
X036433Y001171D01*
X036488Y001226D01*
X036540Y001284D01*
X036589Y001344D01*
X036635Y001406D01*
X036677Y001471D01*
X036717Y001538D01*
X036753Y001607D01*
X036785Y001677D01*
X036814Y001749D01*
X036839Y001823D01*
X036860Y001897D01*
X036878Y001973D01*
X036891Y002049D01*
X036901Y002126D01*
X036907Y002204D01*
X036909Y002281D01*
X036910Y002282D02*
X036901Y029973D01*
X036901Y029972D02*
X036903Y030080D01*
X036909Y030188D01*
X036918Y030296D01*
X036932Y030403D01*
X036949Y030510D01*
X036970Y030616D01*
X036995Y030721D01*
X037023Y030825D01*
X037056Y030928D01*
X037092Y031030D01*
X037131Y031131D01*
X037174Y031230D01*
X037221Y031328D01*
X037271Y031423D01*
X037325Y031517D01*
X037381Y031609D01*
X037441Y031699D01*
X037505Y031787D01*
X037571Y031872D01*
X037640Y031955D01*
X037712Y032035D01*
X037787Y032113D01*
X037865Y032188D01*
X037946Y032260D01*
X038028Y032330D01*
X038114Y032396D01*
X038201Y032459D01*
X038291Y032519D01*
X038383Y032576D01*
X038477Y032630D01*
X038573Y032680D01*
X038670Y032726D01*
X038769Y032770D01*
X038870Y032809D01*
X038972Y032845D01*
X039075Y032877D01*
X039179Y032906D01*
X039284Y032931D01*
X039390Y032952D01*
X039497Y032969D01*
X039604Y032983D01*
X039712Y032992D01*
X039820Y032998D01*
X039928Y033000D01*
X040150Y033000D01*
X040150Y041500D01*
X000150Y041500D01*
X000150Y033000D01*
X000361Y033000D01*
X000469Y032998D01*
X000578Y032992D01*
X000686Y032983D01*
X000793Y032969D01*
X000901Y032952D01*
X001007Y032931D01*
X001113Y032906D01*
X001217Y032877D01*
X001321Y032844D01*
X001423Y032808D01*
X001524Y032769D01*
X001623Y032725D01*
X001721Y032679D01*
X001817Y032628D01*
X001912Y032575D01*
X002004Y032518D01*
X002094Y032457D01*
X002182Y032394D01*
X002268Y032327D01*
X002351Y032258D01*
X002432Y032185D01*
X002510Y032110D01*
X002585Y032032D01*
X002658Y031951D01*
X002727Y031868D01*
X002794Y031782D01*
X002857Y031694D01*
X002918Y031604D01*
X002975Y031512D01*
X003028Y031417D01*
X003079Y031321D01*
X003125Y031223D01*
X003169Y031124D01*
X003208Y031023D01*
X003244Y030921D01*
X003277Y030817D01*
X003306Y030713D01*
X003331Y030607D01*
X003352Y030501D01*
X003369Y030393D01*
X003383Y030286D01*
X003392Y030178D01*
X003398Y030069D01*
X003400Y029961D01*
X007290Y030019D02*
X007290Y029681D01*
X007744Y029531D02*
X007956Y029531D01*
X008410Y029681D02*
X008410Y030019D01*
X009650Y031150D02*
X009650Y031750D01*
X008550Y031750D02*
X008550Y031950D01*
X008050Y031950D02*
X008050Y031750D01*
X007850Y028450D02*
X007850Y027850D01*
X007900Y027550D02*
X007700Y027550D01*
X007700Y027050D02*
X007900Y027050D01*
X007664Y022018D02*
X007664Y021782D01*
X008136Y021782D02*
X008136Y022018D01*
X012800Y022200D02*
X012800Y022800D01*
X014250Y024050D02*
X014250Y024650D01*
X022510Y020610D02*
X022510Y019710D01*
X023260Y019710D01*
X024060Y019660D02*
X024460Y019660D01*
X024560Y019760D01*
X024560Y020510D01*
X024410Y020660D01*
X024110Y020660D01*
X023260Y020610D02*
X022510Y020610D01*
X028514Y015118D02*
X028514Y014882D01*
X028986Y014882D02*
X028986Y015118D01*
X029650Y038800D02*
X029650Y039000D01*
X030300Y039000D02*
X030300Y038800D01*
M02*
