%
M48
M72
T01C0.0197
T02C0.0236
T03C0.0394
T04C0.0400
T05C0.0630
T06C0.1400
%
T01
X5700Y1350
X22110Y19520
X22120Y20380
X20500Y21800
X17350Y21450
X23350Y27200
X23750Y27600
X24150Y28000
X24400Y24850
X25050Y24850
X25850Y24850
X28650Y23250
X28650Y22750
X29150Y22750
X29150Y23250
X29650Y23250
X29650Y22750
X30150Y22750
X30150Y23250
X30150Y22250
X30150Y21750
X30150Y21250
X30150Y20750
X30150Y20250
X30150Y19750
X29650Y19750
X29650Y20250
X29650Y20750
X29650Y21250
X29650Y21750
X29650Y22250
X29150Y22250
X29150Y21750
X29150Y21250
X29150Y20750
X29150Y20250
X29150Y19750
X28650Y19750
X28650Y20250
X28650Y20750
X28650Y21250
X28650Y21750
X28650Y22250
X30650Y20250
X30650Y19750
X31150Y19750
X31150Y20250
X31650Y20250
X31650Y19750
X32150Y19750
X32150Y20250
X32650Y20250
X32650Y19750
X33150Y19750
X33150Y20250
X33650Y20250
X33650Y19750
X34150Y19750
X34150Y20250
X34150Y20750
X34150Y21250
X34150Y21750
X34150Y22250
X33650Y22250
X33650Y21750
X33650Y21250
X33650Y20750
X34650Y20750
X34650Y20250
X34650Y19750
X34650Y21250
X34650Y21750
X34650Y22250
X34650Y22750
X34650Y23250
X34150Y23250
X34150Y22750
X33650Y22750
X33650Y23250
X33450Y24650
X33450Y25250
X33450Y26450
X32850Y26450
X32250Y26450
X32250Y27150
X32850Y27150
X33450Y27150
X33950Y27150
X33950Y26450
X33950Y27750
X33450Y27750
X32850Y27750
X32250Y27750
X32850Y30050
X32850Y30700
X34150Y33050
X34750Y33050
X34750Y33750
X34750Y34450
X30150Y31600
X30150Y31000
X30150Y30400
X28750Y30400
X28750Y31000
X28750Y31600
X30150Y28950
X31950Y25350
X31950Y24750
X29450Y24850
X23750Y31550
X23750Y32400
X23100Y32200
X22900Y31600
X25410Y31850
X25660Y34390
X20650Y29900
X19900Y29900
X19550Y32150
X20300Y32150
X18050Y32150
X16500Y32150
X15050Y32150
X13550Y32150
X12000Y32150
X9150Y33650
X8800Y30900
X6850Y30900
X5600Y32550
X31650Y11250
X31650Y4300
X31050Y4300
X30500Y4300
X30500Y3600
X31050Y3600
X31650Y3600
X31650Y2850
X31050Y2850
X30500Y2850
X29950Y2850
X29950Y3600
X29950Y4300
X34550Y1350
T02
X34850Y3000
X28650Y13950
X28050Y14350
X27050Y13850
X24450Y17450
X24950Y19330
X25850Y19350
X26750Y19350
X22060Y24920
X21050Y25250
X20730Y24690
X21150Y26050
X20675Y27225
X19700Y27250
X18750Y29650
X17350Y28650
X16050Y28250
X15150Y27050
X14550Y27350
X14150Y28450
X13450Y27850
X11400Y26850
X11400Y26250
X10400Y25800
X10450Y24300
X10350Y23700
X11900Y23400
X12450Y24150
X11950Y24650
X12400Y25250
X13100Y25350
X14350Y25150
X14600Y23300
X13850Y22500
X13000Y23400
X16450Y23850
X16900Y23250
X17000Y22600
X19750Y20150
X20850Y20350
X20600Y23250
X16800Y25900
X22150Y28900
X22600Y28400
X26800Y27150
X26790Y25910
X27220Y30590
X25350Y32850
X23100Y32850
X23000Y33650
X21050Y33000
X21100Y34550
X19750Y35500
X10850Y34250
X10450Y32450
X9550Y30100
X6200Y33800
X6850Y34100
X7500Y34200
X5050Y35450
X8650Y24300
X8700Y21800
X6650Y19950
X17950Y13250
X20050Y13850
X20250Y13050
X20150Y14850
T03
X33550Y11450
T04
X33550Y10450
X33550Y9450
X33550Y8450
X33550Y7450
X33550Y6450
X6400Y21350
X6500Y22350
X6400Y23350
X6500Y24350
X6400Y25350
T05
X6770Y36460
X5210Y36460
X3650Y36460
X2090Y36460
X2090Y38030
X2090Y39600
X3650Y39600
X3650Y38030
X5210Y38030
X6770Y38030
X6770Y39600
X5210Y39600
X8330Y39600
X8330Y38030
X8330Y36460
X14570Y36460
X16130Y36460
X17690Y36460
X19250Y36460
X20810Y36460
X20810Y38030
X20810Y39600
X19250Y39600
X19250Y38030
X17690Y38030
X16130Y38030
X16130Y39600
X17690Y39600
X14570Y39600
X14570Y38030
X25710Y38030
X25710Y39600
X27270Y39600
X27270Y38030
X28830Y38030
X28830Y39600
X28830Y36460
X27270Y36460
X25710Y36460
X35070Y36460
X36630Y36460
X38190Y36460
X38190Y38030
X38190Y39600
X36630Y39600
X36630Y38030
X35070Y38030
X35070Y39600
T06
X31950Y37750
X11450Y37750
M30
