G75*
%MOIN*%
%OFA0B0*%
%FSLAX24Y24*%
%IPPOS*%
%LPD*%
%AMOC8*
5,1,8,0,0,1.08239X$1,22.5*
%
%ADD10R,0.0591X0.0512*%
%ADD11R,0.0472X0.0315*%
%ADD12R,0.0512X0.0591*%
%ADD13R,0.0800X0.0260*%
%ADD14R,0.0630X0.0709*%
%ADD15R,0.0551X0.0433*%
%ADD16R,0.0354X0.0472*%
%ADD17R,0.0433X0.0551*%
%ADD18R,0.0315X0.0472*%
D10*
X007580Y024818D03*
X007580Y025487D03*
X009980Y025487D03*
X009980Y024818D03*
X014520Y024838D03*
X014520Y025507D03*
X019852Y025524D03*
X019852Y024854D03*
X024397Y024891D03*
X024397Y025560D03*
X030080Y021367D03*
X030080Y020698D03*
D11*
X025877Y010362D03*
X025877Y009653D03*
X004193Y017990D03*
X004193Y018698D03*
D12*
X016532Y020371D03*
X017201Y020371D03*
X016969Y017274D03*
X017638Y017274D03*
X026425Y019912D03*
X027095Y019912D03*
X027545Y055152D03*
X028215Y055152D03*
X023015Y055252D03*
X022345Y055252D03*
X017915Y055452D03*
X017245Y055452D03*
X013215Y055352D03*
X012545Y055352D03*
X008115Y055252D03*
X007445Y055252D03*
D13*
X017411Y006835D03*
X017411Y006335D03*
X017411Y005835D03*
X017411Y005335D03*
X019831Y005335D03*
X019831Y005835D03*
X019831Y006335D03*
X019831Y006835D03*
D14*
X027794Y006101D03*
X028896Y006101D03*
D15*
X015736Y022824D03*
X015736Y023612D03*
X012710Y023712D03*
X012710Y022924D03*
X012089Y027730D03*
X012089Y028517D03*
X017361Y028667D03*
X017361Y027880D03*
X022284Y028180D03*
X022284Y028967D03*
X028204Y027775D03*
X028204Y026988D03*
X012630Y046509D03*
X012630Y047296D03*
X007867Y047512D03*
X007867Y046724D03*
X006880Y052959D03*
X006880Y053746D03*
X012446Y053817D03*
X012446Y053030D03*
X017974Y053330D03*
X017974Y054117D03*
X022801Y054217D03*
X022801Y053430D03*
X026891Y053695D03*
X026891Y052908D03*
X026582Y048482D03*
X026582Y047694D03*
X022727Y047662D03*
X022727Y046874D03*
X017922Y046874D03*
X017922Y047662D03*
X006630Y027896D03*
X006630Y027109D03*
X006455Y021912D03*
X006455Y021124D03*
D16*
X006462Y022605D03*
X005962Y022605D03*
X005962Y025125D03*
X006462Y025125D03*
X011495Y024465D03*
X011995Y024465D03*
X011995Y026985D03*
X011495Y026985D03*
X016821Y026889D03*
X017321Y026889D03*
X017321Y024370D03*
X016821Y024370D03*
X020948Y024520D03*
X021448Y024520D03*
X021448Y027039D03*
X020948Y027039D03*
X027712Y026085D03*
X028212Y026085D03*
X028212Y023565D03*
X027712Y023565D03*
X026573Y049380D03*
X026073Y049380D03*
X026073Y051899D03*
X026573Y051899D03*
X022781Y051889D03*
X022281Y051889D03*
X022281Y049370D03*
X022781Y049370D03*
X017958Y049370D03*
X017458Y049370D03*
X017458Y051889D03*
X017958Y051889D03*
X012636Y051889D03*
X012136Y051889D03*
X012136Y049370D03*
X012636Y049370D03*
X007344Y049293D03*
X006844Y049293D03*
X006844Y051812D03*
X007344Y051812D03*
D17*
X013886Y005676D03*
X014674Y005676D03*
X027960Y007047D03*
X028747Y007047D03*
X017609Y023011D03*
X016822Y023011D03*
X025552Y023696D03*
X026339Y023696D03*
D18*
X022748Y005353D03*
X022039Y005353D03*
M02*
