G75*
%MOIN*%
%OFA0B0*%
%FSLAX24Y24*%
%IPPOS*%
%LPD*%
%AMOC8*
5,1,8,0,0,1.08239X$1,22.5*
%
%ADD10C,0.0100*%
%ADD11C,0.0060*%
%ADD12C,0.0020*%
%ADD13R,0.0551X0.0256*%
%ADD14C,0.0080*%
%ADD15R,0.0256X0.0551*%
%ADD16R,0.0040X0.0005*%
%ADD17R,0.0055X0.0005*%
%ADD18R,0.0065X0.0005*%
%ADD19R,0.0075X0.0005*%
%ADD20R,0.0090X0.0005*%
%ADD21R,0.0100X0.0005*%
%ADD22R,0.0110X0.0005*%
%ADD23R,0.0060X0.0005*%
%ADD24R,0.0050X0.0005*%
%ADD25R,0.0045X0.0005*%
%ADD26R,0.0145X0.0005*%
%ADD27R,0.0265X0.0005*%
%ADD28R,0.0310X0.0005*%
%ADD29R,0.0350X0.0005*%
%ADD30R,0.0375X0.0005*%
%ADD31R,0.0405X0.0005*%
%ADD32R,0.0435X0.0005*%
%ADD33R,0.0460X0.0005*%
%ADD34R,0.0230X0.0005*%
%ADD35R,0.0210X0.0005*%
%ADD36R,0.0195X0.0005*%
%ADD37R,0.0185X0.0005*%
%ADD38R,0.0035X0.0005*%
%ADD39R,0.0175X0.0005*%
%ADD40R,0.0170X0.0005*%
%ADD41R,0.0165X0.0005*%
%ADD42R,0.0155X0.0005*%
%ADD43R,0.0150X0.0005*%
%ADD44R,0.0140X0.0005*%
%ADD45R,0.0135X0.0005*%
%ADD46R,0.0130X0.0005*%
%ADD47R,0.0125X0.0005*%
%ADD48R,0.0120X0.0005*%
%ADD49R,0.0200X0.0005*%
%ADD50R,0.0115X0.0005*%
%ADD51R,0.0355X0.0005*%
%ADD52R,0.0545X0.0005*%
%ADD53R,0.0620X0.0005*%
%ADD54R,0.0680X0.0005*%
%ADD55R,0.0745X0.0005*%
%ADD56R,0.0910X0.0005*%
%ADD57R,0.0295X0.0005*%
%ADD58R,0.0270X0.0005*%
%ADD59R,0.0255X0.0005*%
%ADD60R,0.0220X0.0005*%
%ADD61R,0.0275X0.0005*%
%ADD62R,0.0205X0.0005*%
%ADD63R,0.0235X0.0005*%
%ADD64R,0.0190X0.0005*%
%ADD65R,0.0180X0.0005*%
%ADD66R,0.0160X0.0005*%
%ADD67R,0.0070X0.0005*%
%ADD68R,0.0105X0.0005*%
%ADD69R,0.0080X0.0005*%
%ADD70R,0.0085X0.0005*%
%ADD71R,0.0095X0.0005*%
%ADD72R,0.0025X0.0005*%
%ADD73R,0.0260X0.0005*%
%ADD74R,0.0315X0.0005*%
%ADD75R,0.0370X0.0005*%
%ADD76R,0.0430X0.0005*%
%ADD77R,0.0425X0.0005*%
%ADD78R,0.0395X0.0005*%
%ADD79R,0.0345X0.0005*%
%ADD80R,0.0290X0.0005*%
%ADD81R,0.0245X0.0005*%
%ADD82R,0.0030X0.0005*%
%ADD83R,0.0020X0.0005*%
%ADD84R,0.0015X0.0005*%
%ADD85R,0.0010X0.0005*%
%ADD86R,0.0455X0.0005*%
%ADD87R,0.0600X0.0005*%
%ADD88R,0.0740X0.0005*%
%ADD89R,0.0890X0.0005*%
%ADD90R,0.1060X0.0005*%
%ADD91R,0.0980X0.0005*%
%ADD92R,0.0825X0.0005*%
%ADD93R,0.0525X0.0005*%
%ADD94R,0.0380X0.0005*%
%ADD95R,0.0280X0.0005*%
%ADD96R,0.0820X0.0005*%
%ADD97R,0.0945X0.0005*%
%ADD98R,0.0955X0.0005*%
%ADD99R,0.0970X0.0005*%
%ADD100R,0.0975X0.0005*%
%ADD101R,0.0835X0.0005*%
%ADD102R,0.0575X0.0005*%
%ADD103R,0.0005X0.0005*%
%ADD104R,0.0215X0.0005*%
%ADD105R,0.0335X0.0005*%
%ADD106R,0.0440X0.0005*%
%ADD107R,0.0485X0.0005*%
%ADD108R,0.0240X0.0005*%
%ADD109R,0.0635X0.0005*%
%ADD110R,0.0710X0.0005*%
%ADD111R,0.0735X0.0005*%
%ADD112R,0.0750X0.0005*%
%ADD113R,0.0770X0.0005*%
%ADD114R,0.0780X0.0005*%
%ADD115R,0.0225X0.0005*%
%ADD116R,0.0340X0.0005*%
%ADD117R,0.0400X0.0005*%
%ADD118R,0.0500X0.0005*%
%ADD119R,0.0250X0.0005*%
%ADD120R,0.0505X0.0005*%
%ADD121R,0.0855X0.0005*%
%ADD122R,0.0800X0.0005*%
%ADD123R,0.0765X0.0005*%
%ADD124R,0.0725X0.0005*%
%ADD125R,0.0465X0.0005*%
%ADD126R,0.0305X0.0005*%
%ADD127R,0.0330X0.0005*%
%ADD128R,0.0360X0.0005*%
%ADD129R,0.0320X0.0005*%
%ADD130R,0.0285X0.0005*%
%ADD131R,0.0385X0.0005*%
%ADD132R,0.0325X0.0005*%
%ADD133R,0.0390X0.0005*%
%ADD134R,0.0900X0.0005*%
%ADD135R,0.0805X0.0005*%
%ADD136R,0.0700X0.0005*%
%ADD137R,0.0570X0.0005*%
%ADD138C,0.0000*%
D10*
X013719Y006307D02*
X013719Y006374D01*
X013786Y006441D01*
X013986Y006441D01*
X013986Y006307D01*
X013919Y006241D01*
X013786Y006241D01*
X013719Y006307D01*
X013853Y006574D02*
X013986Y006441D01*
X013853Y006574D02*
X013719Y006641D01*
X014180Y006241D02*
X014446Y006241D01*
X014313Y006241D02*
X014313Y006641D01*
X014446Y006507D01*
X014640Y006441D02*
X014707Y006374D01*
X014907Y006374D01*
X014907Y006241D02*
X014907Y006641D01*
X014707Y006641D01*
X014640Y006574D01*
X014640Y006441D01*
X014773Y006374D02*
X014640Y006241D01*
X020465Y007451D02*
X020532Y007385D01*
X020665Y007385D01*
X020732Y007451D01*
X020598Y007585D02*
X020532Y007585D01*
X020465Y007518D01*
X020465Y007451D01*
X020532Y007585D02*
X020465Y007652D01*
X020465Y007718D01*
X020532Y007785D01*
X020665Y007785D01*
X020732Y007718D01*
X020925Y007785D02*
X020925Y007451D01*
X020992Y007385D01*
X021125Y007385D01*
X021192Y007451D01*
X021192Y007785D01*
X023515Y005487D02*
X023515Y005420D01*
X023782Y005153D01*
X023515Y005153D01*
X023515Y005487D02*
X023582Y005554D01*
X023715Y005554D01*
X023782Y005487D01*
X023976Y005487D02*
X024042Y005554D01*
X024176Y005554D01*
X024242Y005487D01*
X024436Y005487D02*
X024503Y005554D01*
X024636Y005554D01*
X024703Y005487D01*
X024703Y005220D01*
X024636Y005153D01*
X024503Y005153D01*
X024436Y005220D01*
X024242Y005153D02*
X023976Y005420D01*
X023976Y005487D01*
X023976Y005153D02*
X024242Y005153D01*
X026444Y005963D02*
X026444Y006030D01*
X026510Y006097D01*
X026710Y006097D01*
X026710Y005963D01*
X026644Y005896D01*
X026510Y005896D01*
X026444Y005963D01*
X026710Y006097D02*
X026577Y006230D01*
X026444Y006297D01*
X026904Y006230D02*
X026971Y006297D01*
X027104Y006297D01*
X027171Y006230D01*
X027171Y005963D01*
X027104Y005896D01*
X026971Y005896D01*
X026904Y005963D01*
X026860Y006827D02*
X026860Y007228D01*
X027060Y007027D01*
X026793Y007027D01*
X026599Y007161D02*
X026533Y007228D01*
X026399Y007228D01*
X026333Y007161D01*
X026333Y007094D01*
X026599Y006827D01*
X026333Y006827D01*
X027253Y006827D02*
X027387Y006961D01*
X027320Y006961D02*
X027520Y006961D01*
X027520Y006827D02*
X027520Y007228D01*
X027320Y007228D01*
X027253Y007161D01*
X027253Y007027D01*
X027320Y006961D01*
X025901Y008574D02*
X025634Y008574D01*
X025567Y008640D01*
X025567Y008774D01*
X025634Y008841D01*
X025634Y009034D02*
X025567Y009034D01*
X025634Y009034D02*
X025901Y009301D01*
X025968Y009301D01*
X025968Y009034D01*
X025901Y008841D02*
X025968Y008774D01*
X025968Y008640D01*
X025901Y008574D01*
X018937Y017114D02*
X018803Y017114D01*
X018736Y017181D01*
X018543Y017114D02*
X018276Y017381D01*
X018276Y017448D01*
X018343Y017514D01*
X018476Y017514D01*
X018543Y017448D01*
X018736Y017448D02*
X018803Y017514D01*
X018937Y017514D01*
X019003Y017448D01*
X019003Y017181D01*
X018937Y017114D01*
X018543Y017114D02*
X018276Y017114D01*
X018279Y020181D02*
X018213Y020247D01*
X018279Y020181D02*
X018413Y020181D01*
X018479Y020247D01*
X018479Y020514D01*
X018413Y020581D01*
X018279Y020581D01*
X018213Y020514D01*
X018019Y020514D02*
X017952Y020581D01*
X017819Y020581D01*
X017752Y020514D01*
X017752Y020448D01*
X017819Y020381D01*
X017752Y020314D01*
X017752Y020247D01*
X017819Y020181D01*
X017952Y020181D01*
X018019Y020247D01*
X017886Y020381D02*
X017819Y020381D01*
X017646Y022091D02*
X017646Y022492D01*
X017847Y022292D01*
X017580Y022292D01*
X017386Y022292D02*
X017186Y022292D01*
X017119Y022225D01*
X017119Y022158D01*
X017186Y022091D01*
X017319Y022091D01*
X017386Y022158D01*
X017386Y022292D01*
X017253Y022425D01*
X017119Y022492D01*
X018040Y022425D02*
X018040Y022292D01*
X018107Y022225D01*
X018307Y022225D01*
X018173Y022225D02*
X018040Y022091D01*
X018307Y022091D02*
X018307Y022492D01*
X018107Y022492D01*
X018040Y022425D01*
X018808Y024728D02*
X018742Y024795D01*
X018742Y024928D01*
X018808Y024995D01*
X018742Y025189D02*
X018742Y025455D01*
X018742Y025322D02*
X019142Y025322D01*
X019009Y025189D01*
X019075Y024995D02*
X019142Y024928D01*
X019142Y024795D01*
X019075Y024728D01*
X018808Y024728D01*
X016672Y027542D02*
X016271Y027542D01*
X016405Y027542D02*
X016405Y027742D01*
X016472Y027809D01*
X016605Y027809D01*
X016672Y027742D01*
X016672Y027542D01*
X016405Y027675D02*
X016271Y027809D01*
X016338Y028002D02*
X016271Y028069D01*
X016271Y028203D01*
X016338Y028269D01*
X016472Y028269D01*
X016538Y028203D01*
X016538Y028136D01*
X016472Y028002D01*
X016672Y028002D01*
X016672Y028269D01*
X016605Y028463D02*
X016672Y028530D01*
X016672Y028663D01*
X016605Y028730D01*
X016338Y028463D01*
X016271Y028530D01*
X016271Y028663D01*
X016338Y028730D01*
X016605Y028730D01*
X016605Y028463D02*
X016338Y028463D01*
X013804Y025679D02*
X013870Y025612D01*
X013870Y025479D01*
X013804Y025412D01*
X013737Y025412D01*
X013670Y025479D01*
X013670Y025679D01*
X013537Y025679D02*
X013804Y025679D01*
X013537Y025679D02*
X013470Y025612D01*
X013470Y025479D01*
X013537Y025412D01*
X013470Y025218D02*
X013470Y024952D01*
X013470Y025085D02*
X013870Y025085D01*
X013737Y024952D01*
X013804Y024758D02*
X013870Y024691D01*
X013870Y024558D01*
X013804Y024491D01*
X013537Y024491D01*
X013470Y024558D01*
X013470Y024691D01*
X013537Y024758D01*
X014766Y024076D02*
X014766Y023809D01*
X015033Y024076D01*
X015099Y024076D01*
X015166Y024009D01*
X015166Y023876D01*
X015099Y023809D01*
X015166Y023615D02*
X015166Y023349D01*
X014966Y023349D01*
X015033Y023482D01*
X015033Y023549D01*
X014966Y023615D01*
X014832Y023615D01*
X014766Y023549D01*
X014766Y023415D01*
X014832Y023349D01*
X014766Y023155D02*
X014899Y023022D01*
X014899Y023088D02*
X014899Y022888D01*
X014766Y022888D02*
X015166Y022888D01*
X015166Y023088D01*
X015099Y023155D01*
X014966Y023155D01*
X014899Y023088D01*
X012111Y023209D02*
X011911Y023209D01*
X011977Y023342D01*
X011977Y023409D01*
X011911Y023475D01*
X011777Y023475D01*
X011710Y023409D01*
X011710Y023275D01*
X011777Y023209D01*
X011710Y023015D02*
X011844Y022882D01*
X011844Y022948D02*
X011844Y022748D01*
X011710Y022748D02*
X012111Y022748D01*
X012111Y022948D01*
X012044Y023015D01*
X011911Y023015D01*
X011844Y022948D01*
X012111Y023209D02*
X012111Y023475D01*
X012044Y023669D02*
X011977Y023669D01*
X011911Y023736D01*
X011911Y023869D01*
X011844Y023936D01*
X011777Y023936D01*
X011710Y023869D01*
X011710Y023736D01*
X011777Y023669D01*
X011844Y023669D01*
X011911Y023736D01*
X011911Y023869D02*
X011977Y023936D01*
X012044Y023936D01*
X012111Y023869D01*
X012111Y023736D01*
X012044Y023669D01*
X009430Y024538D02*
X009364Y024471D01*
X009097Y024471D01*
X009030Y024538D01*
X009030Y024671D01*
X009097Y024738D01*
X009030Y024932D02*
X009030Y025198D01*
X009030Y025065D02*
X009430Y025065D01*
X009297Y024932D01*
X009364Y024738D02*
X009430Y024671D01*
X009430Y024538D01*
X009364Y025392D02*
X009297Y025392D01*
X009230Y025459D01*
X009230Y025592D01*
X009163Y025659D01*
X009097Y025659D01*
X009030Y025592D01*
X009030Y025459D01*
X009097Y025392D01*
X009163Y025392D01*
X009230Y025459D01*
X009230Y025592D02*
X009297Y025659D01*
X009364Y025659D01*
X009430Y025592D01*
X009430Y025459D01*
X009364Y025392D01*
X008530Y025292D02*
X008530Y025559D01*
X008464Y025559D01*
X008197Y025292D01*
X008130Y025292D01*
X008130Y025098D02*
X008130Y024832D01*
X008130Y024965D02*
X008530Y024965D01*
X008397Y024832D01*
X008464Y024638D02*
X008530Y024571D01*
X008530Y024438D01*
X008464Y024371D01*
X008197Y024371D01*
X008130Y024438D01*
X008130Y024571D01*
X008197Y024638D01*
X007640Y026771D02*
X007640Y026971D01*
X007574Y027038D01*
X007440Y027038D01*
X007373Y026971D01*
X007373Y026771D01*
X007240Y026771D02*
X007640Y026771D01*
X007373Y026905D02*
X007240Y027038D01*
X007307Y027232D02*
X007240Y027298D01*
X007240Y027432D01*
X007307Y027498D01*
X007373Y027498D01*
X007440Y027432D01*
X007440Y027232D01*
X007307Y027232D01*
X007440Y027232D02*
X007574Y027365D01*
X007640Y027498D01*
X007574Y027692D02*
X007640Y027759D01*
X007640Y027892D01*
X007574Y027959D01*
X007507Y027959D01*
X007240Y027692D01*
X007240Y027959D01*
X007234Y022106D02*
X007234Y021839D01*
X007434Y022039D01*
X007034Y022039D01*
X007101Y021645D02*
X007167Y021645D01*
X007234Y021579D01*
X007234Y021379D01*
X007101Y021379D01*
X007034Y021445D01*
X007034Y021579D01*
X007101Y021645D01*
X007234Y021379D02*
X007368Y021512D01*
X007434Y021645D01*
X007368Y021185D02*
X007234Y021185D01*
X007167Y021118D01*
X007167Y020918D01*
X007034Y020918D02*
X007434Y020918D01*
X007434Y021118D01*
X007368Y021185D01*
X007167Y021052D02*
X007034Y021185D01*
X004997Y018823D02*
X004930Y018823D01*
X004864Y018756D01*
X004864Y018623D01*
X004930Y018556D01*
X004997Y018556D01*
X005064Y018623D01*
X005064Y018756D01*
X004997Y018823D01*
X004864Y018756D02*
X004797Y018823D01*
X004730Y018823D01*
X004663Y018756D01*
X004663Y018623D01*
X004730Y018556D01*
X004797Y018556D01*
X004864Y018623D01*
X004864Y018363D02*
X004797Y018296D01*
X004797Y018096D01*
X004797Y018229D02*
X004663Y018363D01*
X004864Y018363D02*
X004997Y018363D01*
X005064Y018296D01*
X005064Y018096D01*
X004663Y018096D01*
X012689Y027412D02*
X013089Y027412D01*
X013089Y027612D01*
X013023Y027679D01*
X012889Y027679D01*
X012823Y027612D01*
X012823Y027412D01*
X012823Y027545D02*
X012689Y027679D01*
X012756Y027872D02*
X012689Y027939D01*
X012689Y028073D01*
X012756Y028139D01*
X012889Y028139D01*
X012956Y028073D01*
X012956Y028006D01*
X012889Y027872D01*
X013089Y027872D01*
X013089Y028139D01*
X012889Y028333D02*
X012889Y028533D01*
X012823Y028600D01*
X012756Y028600D01*
X012689Y028533D01*
X012689Y028400D01*
X012756Y028333D01*
X012889Y028333D01*
X013023Y028466D01*
X013089Y028600D01*
X021244Y028623D02*
X021644Y028623D01*
X021444Y028422D01*
X021444Y028689D01*
X021444Y028883D02*
X021444Y029150D01*
X021244Y029083D02*
X021644Y029083D01*
X021444Y028883D01*
X021444Y028229D02*
X021377Y028162D01*
X021377Y027962D01*
X021244Y027962D02*
X021644Y027962D01*
X021644Y028162D01*
X021578Y028229D01*
X021444Y028229D01*
X021377Y028095D02*
X021244Y028229D01*
X023393Y025632D02*
X023327Y025565D01*
X023327Y025432D01*
X023393Y025365D01*
X023660Y025632D01*
X023393Y025632D01*
X023393Y025365D02*
X023660Y025365D01*
X023727Y025432D01*
X023727Y025565D01*
X023660Y025632D01*
X023527Y025172D02*
X023527Y024905D01*
X023727Y025105D01*
X023327Y025105D01*
X023393Y024711D02*
X023327Y024645D01*
X023327Y024511D01*
X023393Y024445D01*
X023660Y024445D01*
X023727Y024511D01*
X023727Y024645D01*
X023660Y024711D01*
X024056Y023946D02*
X023989Y023880D01*
X023989Y023613D01*
X024056Y023546D01*
X024189Y023546D01*
X024256Y023613D01*
X024189Y023746D02*
X023989Y023746D01*
X024189Y023746D02*
X024256Y023813D01*
X024256Y023880D01*
X024189Y023946D01*
X024056Y023946D01*
X024450Y023880D02*
X024450Y023813D01*
X024516Y023746D01*
X024450Y023680D01*
X024450Y023613D01*
X024516Y023546D01*
X024650Y023546D01*
X024717Y023613D01*
X024583Y023746D02*
X024516Y023746D01*
X024450Y023880D02*
X024516Y023946D01*
X024650Y023946D01*
X024717Y023880D01*
X024910Y023880D02*
X024910Y023746D01*
X024977Y023680D01*
X025177Y023680D01*
X025043Y023680D02*
X024910Y023546D01*
X025177Y023546D02*
X025177Y023946D01*
X024977Y023946D01*
X024910Y023880D01*
X027054Y026670D02*
X027454Y026670D01*
X027454Y026870D01*
X027387Y026937D01*
X027254Y026937D01*
X027187Y026870D01*
X027187Y026670D01*
X027187Y026804D02*
X027054Y026937D01*
X027120Y027131D02*
X027054Y027197D01*
X027054Y027331D01*
X027120Y027398D01*
X027187Y027398D01*
X027254Y027331D01*
X027254Y027264D01*
X027254Y027331D02*
X027321Y027398D01*
X027387Y027398D01*
X027454Y027331D01*
X027454Y027197D01*
X027387Y027131D01*
X027454Y027591D02*
X027454Y027858D01*
X027387Y027858D01*
X027120Y027591D01*
X027054Y027591D01*
X029137Y021720D02*
X029070Y021653D01*
X029070Y021520D01*
X029137Y021453D01*
X029404Y021720D01*
X029137Y021720D01*
X029404Y021720D02*
X029470Y021653D01*
X029470Y021520D01*
X029404Y021453D01*
X029137Y021453D01*
X029070Y021260D02*
X029070Y020993D01*
X029337Y021260D01*
X029404Y021260D01*
X029470Y021193D01*
X029470Y021059D01*
X029404Y020993D01*
X029404Y020799D02*
X029470Y020733D01*
X029470Y020599D01*
X029404Y020532D01*
X029137Y020532D01*
X029070Y020599D01*
X029070Y020733D01*
X029137Y020799D01*
X027894Y019203D02*
X027961Y019136D01*
X027961Y018869D01*
X027894Y018802D01*
X027761Y018802D01*
X027694Y018869D01*
X027501Y018802D02*
X027234Y019069D01*
X027234Y019136D01*
X027301Y019203D01*
X027434Y019203D01*
X027501Y019136D01*
X027694Y019136D02*
X027761Y019203D01*
X027894Y019203D01*
X027501Y018802D02*
X027234Y018802D01*
X027040Y018802D02*
X026774Y018802D01*
X026907Y018802D02*
X026907Y019203D01*
X027040Y019069D01*
X013680Y046202D02*
X013680Y046403D01*
X013614Y046469D01*
X013480Y046469D01*
X013413Y046403D01*
X013413Y046202D01*
X013280Y046202D02*
X013680Y046202D01*
X013413Y046336D02*
X013280Y046469D01*
X013280Y046663D02*
X013280Y046930D01*
X013280Y046796D02*
X013680Y046796D01*
X013547Y046663D01*
X013614Y047123D02*
X013680Y047190D01*
X013680Y047323D01*
X013614Y047390D01*
X013547Y047390D01*
X013480Y047323D01*
X013413Y047390D01*
X013347Y047390D01*
X013280Y047323D01*
X013280Y047190D01*
X013347Y047123D01*
X013480Y047257D02*
X013480Y047323D01*
X008968Y047245D02*
X008901Y047245D01*
X008634Y046979D01*
X008567Y046979D01*
X008567Y046785D02*
X008701Y046652D01*
X008701Y046718D02*
X008701Y046518D01*
X008567Y046518D02*
X008968Y046518D01*
X008968Y046718D01*
X008901Y046785D01*
X008768Y046785D01*
X008701Y046718D01*
X008968Y046979D02*
X008968Y047245D01*
X008901Y047439D02*
X008968Y047506D01*
X008968Y047639D01*
X008901Y047706D01*
X008634Y047439D01*
X008567Y047506D01*
X008567Y047639D01*
X008634Y047706D01*
X008901Y047706D01*
X008901Y047439D02*
X008634Y047439D01*
X006380Y052582D02*
X005980Y052582D01*
X006113Y052582D02*
X006113Y052783D01*
X006180Y052849D01*
X006314Y052849D01*
X006380Y052783D01*
X006380Y052582D01*
X006113Y052716D02*
X005980Y052849D01*
X006047Y053043D02*
X005980Y053109D01*
X005980Y053243D01*
X006047Y053310D01*
X006113Y053310D01*
X006180Y053243D01*
X006180Y053043D01*
X006047Y053043D01*
X006180Y053043D02*
X006314Y053176D01*
X006380Y053310D01*
X006314Y053503D02*
X006247Y053503D01*
X006180Y053570D01*
X006180Y053703D01*
X006113Y053770D01*
X006047Y053770D01*
X005980Y053703D01*
X005980Y053570D01*
X006047Y053503D01*
X006113Y053503D01*
X006180Y053570D01*
X006180Y053703D02*
X006247Y053770D01*
X006314Y053770D01*
X006380Y053703D01*
X006380Y053570D01*
X006314Y053503D01*
X009374Y055069D02*
X009440Y055002D01*
X009574Y055002D01*
X009640Y055069D01*
X009640Y055203D02*
X009507Y055269D01*
X009440Y055269D01*
X009374Y055203D01*
X009374Y055069D01*
X009640Y055203D02*
X009640Y055403D01*
X009374Y055403D01*
X009967Y055403D02*
X009967Y055002D01*
X009834Y055002D02*
X010101Y055002D01*
X010294Y055069D02*
X010361Y055002D01*
X010494Y055002D01*
X010561Y055069D01*
X010561Y055336D01*
X010494Y055403D01*
X010361Y055403D01*
X010294Y055336D01*
X010101Y055269D02*
X009967Y055403D01*
X010574Y055469D02*
X010574Y055536D01*
X010640Y055603D01*
X010774Y055603D01*
X010840Y055536D01*
X010574Y055469D02*
X010840Y055202D01*
X010574Y055202D01*
X011034Y055202D02*
X011301Y055202D01*
X011167Y055202D02*
X011167Y055603D01*
X011301Y055469D01*
X011494Y055536D02*
X011561Y055603D01*
X011694Y055603D01*
X011761Y055536D01*
X011761Y055269D01*
X011694Y055202D01*
X011561Y055202D01*
X011494Y055269D01*
X011486Y053950D02*
X011486Y053683D01*
X011753Y053950D01*
X011820Y053950D01*
X011886Y053883D01*
X011886Y053750D01*
X011820Y053683D01*
X011886Y053356D02*
X011486Y053356D01*
X011486Y053489D02*
X011486Y053222D01*
X011486Y053029D02*
X011620Y052895D01*
X011620Y052962D02*
X011620Y052762D01*
X011486Y052762D02*
X011886Y052762D01*
X011886Y052962D01*
X011820Y053029D01*
X011686Y053029D01*
X011620Y052962D01*
X011753Y053222D02*
X011886Y053356D01*
X018524Y053359D02*
X018657Y053225D01*
X018657Y053292D02*
X018657Y053092D01*
X018524Y053092D02*
X018924Y053092D01*
X018924Y053292D01*
X018857Y053359D01*
X018724Y053359D01*
X018657Y053292D01*
X018524Y053552D02*
X018524Y053819D01*
X018524Y053686D02*
X018924Y053686D01*
X018791Y053552D01*
X018791Y054013D02*
X018857Y054013D01*
X018924Y054080D01*
X018924Y054213D01*
X018857Y054280D01*
X018791Y054280D01*
X018724Y054213D01*
X018724Y054080D01*
X018791Y054013D01*
X018724Y054080D02*
X018657Y054013D01*
X018590Y054013D01*
X018524Y054080D01*
X018524Y054213D01*
X018590Y054280D01*
X018657Y054280D01*
X018724Y054213D01*
X019240Y055202D02*
X019374Y055202D01*
X019440Y055269D01*
X019307Y055403D02*
X019240Y055403D01*
X019174Y055336D01*
X019174Y055269D01*
X019240Y055202D01*
X019240Y055403D02*
X019174Y055469D01*
X019174Y055536D01*
X019240Y055603D01*
X019374Y055603D01*
X019440Y055536D01*
X019767Y055603D02*
X019767Y055202D01*
X019634Y055202D02*
X019901Y055202D01*
X020094Y055269D02*
X020161Y055202D01*
X020294Y055202D01*
X020361Y055269D01*
X020361Y055536D01*
X020294Y055603D01*
X020161Y055603D01*
X020094Y055536D01*
X019901Y055469D02*
X019767Y055603D01*
X021951Y053913D02*
X021951Y053780D01*
X022018Y053713D01*
X022151Y053713D02*
X022218Y053846D01*
X022218Y053913D01*
X022151Y053980D01*
X022018Y053980D01*
X021951Y053913D01*
X022151Y053713D02*
X022352Y053713D01*
X022352Y053980D01*
X022285Y053519D02*
X022352Y053453D01*
X022352Y053319D01*
X022285Y053252D01*
X022285Y053059D02*
X022151Y053059D01*
X022085Y052992D01*
X022085Y052792D01*
X022085Y052925D02*
X021951Y053059D01*
X021951Y053252D02*
X022218Y053519D01*
X022285Y053519D01*
X021951Y053519D02*
X021951Y053252D01*
X022285Y053059D02*
X022352Y052992D01*
X022352Y052792D01*
X021951Y052792D01*
X024340Y054902D02*
X024340Y055303D01*
X024540Y055103D01*
X024274Y055103D01*
X024734Y054902D02*
X025001Y054902D01*
X024867Y054902D02*
X024867Y055303D01*
X025001Y055169D01*
X025194Y055236D02*
X025261Y055303D01*
X025394Y055303D01*
X025461Y055236D01*
X025461Y054969D01*
X025394Y054902D01*
X025261Y054902D01*
X025194Y054969D01*
X027441Y053758D02*
X027441Y053491D01*
X027441Y053625D02*
X027842Y053625D01*
X027708Y053491D01*
X027708Y053298D02*
X027641Y053231D01*
X027575Y053298D01*
X027508Y053298D01*
X027441Y053231D01*
X027441Y053097D01*
X027508Y053031D01*
X027641Y053164D02*
X027641Y053231D01*
X027708Y053298D02*
X027775Y053298D01*
X027842Y053231D01*
X027842Y053097D01*
X027775Y053031D01*
X027775Y052837D02*
X027641Y052837D01*
X027575Y052770D01*
X027575Y052570D01*
X027575Y052704D02*
X027441Y052837D01*
X027441Y052570D02*
X027842Y052570D01*
X027842Y052770D01*
X027775Y052837D01*
X029440Y054902D02*
X029374Y054969D01*
X029374Y055036D01*
X029440Y055103D01*
X029640Y055103D01*
X029640Y054969D01*
X029574Y054902D01*
X029440Y054902D01*
X029640Y055103D02*
X029507Y055236D01*
X029374Y055303D01*
X029967Y055303D02*
X029967Y054902D01*
X029834Y054902D02*
X030101Y054902D01*
X030294Y054969D02*
X030361Y054902D01*
X030494Y054902D01*
X030561Y054969D01*
X030561Y055236D01*
X030494Y055303D01*
X030361Y055303D01*
X030294Y055236D01*
X030101Y055169D02*
X029967Y055303D01*
X027465Y048676D02*
X027398Y048676D01*
X027332Y048609D01*
X027265Y048676D01*
X027198Y048676D01*
X027132Y048609D01*
X027132Y048476D01*
X027198Y048409D01*
X027332Y048542D02*
X027332Y048609D01*
X027465Y048676D02*
X027532Y048609D01*
X027532Y048476D01*
X027465Y048409D01*
X027465Y048215D02*
X027398Y048215D01*
X027332Y048149D01*
X027265Y048215D01*
X027198Y048215D01*
X027132Y048149D01*
X027132Y048015D01*
X027198Y047949D01*
X027332Y048082D02*
X027332Y048149D01*
X027465Y048215D02*
X027532Y048149D01*
X027532Y048015D01*
X027465Y047949D01*
X027465Y047755D02*
X027332Y047755D01*
X027265Y047688D01*
X027265Y047488D01*
X027132Y047488D02*
X027532Y047488D01*
X027532Y047688D01*
X027465Y047755D01*
X027265Y047622D02*
X027132Y047755D01*
X022084Y047639D02*
X022084Y047906D01*
X022018Y047906D01*
X021751Y047639D01*
X021684Y047639D01*
X021684Y047445D02*
X021684Y047179D01*
X021951Y047445D01*
X022018Y047445D01*
X022084Y047379D01*
X022084Y047245D01*
X022018Y047179D01*
X022018Y046985D02*
X021884Y046985D01*
X021817Y046918D01*
X021817Y046718D01*
X021684Y046718D02*
X022084Y046718D01*
X022084Y046918D01*
X022018Y046985D01*
X021817Y046852D02*
X021684Y046985D01*
X018922Y046918D02*
X018922Y046718D01*
X018522Y046718D01*
X018656Y046718D02*
X018656Y046918D01*
X018722Y046985D01*
X018856Y046985D01*
X018922Y046918D01*
X018656Y046852D02*
X018522Y046985D01*
X018522Y047179D02*
X018522Y047445D01*
X018522Y047312D02*
X018922Y047312D01*
X018789Y047179D01*
X018789Y047639D02*
X018722Y047706D01*
X018722Y047906D01*
X018589Y047906D02*
X018856Y047906D01*
X018922Y047839D01*
X018922Y047706D01*
X018856Y047639D01*
X018789Y047639D01*
X018589Y047639D02*
X018522Y047706D01*
X018522Y047839D01*
X018589Y047906D01*
D11*
X004430Y018462D02*
X004430Y018226D01*
X003957Y018226D02*
X003957Y018462D01*
X017851Y006935D02*
X017851Y005235D01*
X017853Y005212D01*
X017858Y005189D01*
X017867Y005167D01*
X017880Y005147D01*
X017895Y005129D01*
X017913Y005114D01*
X017933Y005101D01*
X017955Y005092D01*
X017978Y005087D01*
X018001Y005085D01*
X019241Y005085D01*
X019264Y005087D01*
X019287Y005092D01*
X019309Y005101D01*
X019329Y005114D01*
X019347Y005129D01*
X019362Y005147D01*
X019375Y005167D01*
X019384Y005189D01*
X019389Y005212D01*
X019391Y005235D01*
X019391Y006935D01*
X019389Y006958D01*
X019384Y006981D01*
X019375Y007003D01*
X019362Y007023D01*
X019347Y007041D01*
X019329Y007056D01*
X019309Y007069D01*
X019287Y007078D01*
X019264Y007083D01*
X019241Y007085D01*
X018001Y007085D01*
X017978Y007083D01*
X017955Y007078D01*
X017933Y007069D01*
X017913Y007056D01*
X017895Y007041D01*
X017880Y007023D01*
X017867Y007003D01*
X017858Y006981D01*
X017853Y006958D01*
X017851Y006935D01*
X018421Y005085D02*
X018423Y005112D01*
X018428Y005139D01*
X018438Y005165D01*
X018450Y005189D01*
X018466Y005211D01*
X018484Y005231D01*
X018506Y005248D01*
X018529Y005263D01*
X018554Y005273D01*
X018580Y005281D01*
X018607Y005285D01*
X018635Y005285D01*
X018662Y005281D01*
X018688Y005273D01*
X018713Y005263D01*
X018736Y005248D01*
X018758Y005231D01*
X018776Y005211D01*
X018792Y005189D01*
X018804Y005165D01*
X018814Y005139D01*
X018819Y005112D01*
X018821Y005085D01*
X022275Y005117D02*
X022511Y005117D01*
X022511Y005589D02*
X022275Y005589D01*
X025641Y009889D02*
X025641Y010126D01*
X026113Y010126D02*
X026113Y009889D01*
D12*
X017991Y007085D02*
X017991Y005085D01*
D13*
X006456Y021226D03*
X006456Y021806D03*
X006629Y027214D03*
X006629Y027794D03*
X012088Y027835D03*
X012088Y028415D03*
X012711Y023606D03*
X012711Y023026D03*
X015736Y022926D03*
X015736Y023506D03*
X017361Y027985D03*
X017361Y028565D03*
X022283Y028285D03*
X022283Y028865D03*
X028203Y027674D03*
X028203Y027094D03*
X012631Y046610D03*
X012631Y047190D03*
X007868Y047406D03*
X007868Y046826D03*
X006879Y053064D03*
X006879Y053644D03*
X012446Y053715D03*
X012446Y053135D03*
X017973Y053435D03*
X017973Y054015D03*
X022801Y054115D03*
X022801Y053535D03*
X026891Y053594D03*
X026891Y053014D03*
X026582Y048376D03*
X026582Y047796D03*
X022727Y047556D03*
X022727Y046976D03*
X017923Y046976D03*
X017923Y047556D03*
D14*
X018206Y049645D02*
X018206Y051614D01*
X017222Y051614D02*
X017222Y049645D01*
X017882Y049842D02*
X017884Y049860D01*
X017890Y049878D01*
X017899Y049894D01*
X017911Y049907D01*
X017926Y049918D01*
X017943Y049926D01*
X017961Y049930D01*
X017979Y049930D01*
X017997Y049926D01*
X018014Y049918D01*
X018029Y049907D01*
X018041Y049894D01*
X018050Y049878D01*
X018056Y049860D01*
X018058Y049842D01*
X018056Y049824D01*
X018050Y049806D01*
X018041Y049790D01*
X018029Y049777D01*
X018014Y049766D01*
X017997Y049758D01*
X017979Y049754D01*
X017961Y049754D01*
X017943Y049758D01*
X017926Y049766D01*
X017911Y049777D01*
X017899Y049790D01*
X017890Y049806D01*
X017884Y049824D01*
X017882Y049842D01*
X022045Y049645D02*
X022045Y051614D01*
X023029Y051614D02*
X023029Y049645D01*
X022705Y049842D02*
X022707Y049860D01*
X022713Y049878D01*
X022722Y049894D01*
X022734Y049907D01*
X022749Y049918D01*
X022766Y049926D01*
X022784Y049930D01*
X022802Y049930D01*
X022820Y049926D01*
X022837Y049918D01*
X022852Y049907D01*
X022864Y049894D01*
X022873Y049878D01*
X022879Y049860D01*
X022881Y049842D01*
X022879Y049824D01*
X022873Y049806D01*
X022864Y049790D01*
X022852Y049777D01*
X022837Y049766D01*
X022820Y049758D01*
X022802Y049754D01*
X022784Y049754D01*
X022766Y049758D01*
X022749Y049766D01*
X022734Y049777D01*
X022722Y049790D01*
X022713Y049806D01*
X022707Y049824D01*
X022705Y049842D01*
X025837Y049655D02*
X025837Y051624D01*
X026821Y051624D02*
X026821Y049655D01*
X026497Y049852D02*
X026499Y049870D01*
X026505Y049888D01*
X026514Y049904D01*
X026526Y049917D01*
X026541Y049928D01*
X026558Y049936D01*
X026576Y049940D01*
X026594Y049940D01*
X026612Y049936D01*
X026629Y049928D01*
X026644Y049917D01*
X026656Y049904D01*
X026665Y049888D01*
X026671Y049870D01*
X026673Y049852D01*
X026671Y049834D01*
X026665Y049816D01*
X026656Y049800D01*
X026644Y049787D01*
X026629Y049776D01*
X026612Y049768D01*
X026594Y049764D01*
X026576Y049764D01*
X026558Y049768D01*
X026541Y049776D01*
X026526Y049787D01*
X026514Y049800D01*
X026505Y049816D01*
X026499Y049834D01*
X026497Y049852D01*
X012884Y049645D02*
X012884Y051614D01*
X011900Y051614D02*
X011900Y049645D01*
X012560Y049842D02*
X012562Y049860D01*
X012568Y049878D01*
X012577Y049894D01*
X012589Y049907D01*
X012604Y049918D01*
X012621Y049926D01*
X012639Y049930D01*
X012657Y049930D01*
X012675Y049926D01*
X012692Y049918D01*
X012707Y049907D01*
X012719Y049894D01*
X012728Y049878D01*
X012734Y049860D01*
X012736Y049842D01*
X012734Y049824D01*
X012728Y049806D01*
X012719Y049790D01*
X012707Y049777D01*
X012692Y049766D01*
X012675Y049758D01*
X012657Y049754D01*
X012639Y049754D01*
X012621Y049758D01*
X012604Y049766D01*
X012589Y049777D01*
X012577Y049790D01*
X012568Y049806D01*
X012562Y049824D01*
X012560Y049842D01*
X007592Y049568D02*
X007592Y051537D01*
X006608Y051537D02*
X006608Y049568D01*
X007268Y049765D02*
X007270Y049783D01*
X007276Y049801D01*
X007285Y049817D01*
X007297Y049830D01*
X007312Y049841D01*
X007329Y049849D01*
X007347Y049853D01*
X007365Y049853D01*
X007383Y049849D01*
X007400Y049841D01*
X007415Y049830D01*
X007427Y049817D01*
X007436Y049801D01*
X007442Y049783D01*
X007444Y049765D01*
X007442Y049747D01*
X007436Y049729D01*
X007427Y049713D01*
X007415Y049700D01*
X007400Y049689D01*
X007383Y049681D01*
X007365Y049677D01*
X007347Y049677D01*
X007329Y049681D01*
X007312Y049689D01*
X007297Y049700D01*
X007285Y049713D01*
X007276Y049729D01*
X007270Y049747D01*
X007268Y049765D01*
X011258Y026709D02*
X011258Y024741D01*
X011918Y024938D02*
X011920Y024956D01*
X011926Y024974D01*
X011935Y024990D01*
X011947Y025003D01*
X011962Y025014D01*
X011979Y025022D01*
X011997Y025026D01*
X012015Y025026D01*
X012033Y025022D01*
X012050Y025014D01*
X012065Y025003D01*
X012077Y024990D01*
X012086Y024974D01*
X012092Y024956D01*
X012094Y024938D01*
X012092Y024920D01*
X012086Y024902D01*
X012077Y024886D01*
X012065Y024873D01*
X012050Y024862D01*
X012033Y024854D01*
X012015Y024850D01*
X011997Y024850D01*
X011979Y024854D01*
X011962Y024862D01*
X011947Y024873D01*
X011935Y024886D01*
X011926Y024902D01*
X011920Y024920D01*
X011918Y024938D01*
X012243Y024741D02*
X012243Y026709D01*
X016584Y026614D02*
X016584Y024645D01*
X017244Y024842D02*
X017246Y024860D01*
X017252Y024878D01*
X017261Y024894D01*
X017273Y024907D01*
X017288Y024918D01*
X017305Y024926D01*
X017323Y024930D01*
X017341Y024930D01*
X017359Y024926D01*
X017376Y024918D01*
X017391Y024907D01*
X017403Y024894D01*
X017412Y024878D01*
X017418Y024860D01*
X017420Y024842D01*
X017418Y024824D01*
X017412Y024806D01*
X017403Y024790D01*
X017391Y024777D01*
X017376Y024766D01*
X017359Y024758D01*
X017341Y024754D01*
X017323Y024754D01*
X017305Y024758D01*
X017288Y024766D01*
X017273Y024777D01*
X017261Y024790D01*
X017252Y024806D01*
X017246Y024824D01*
X017244Y024842D01*
X017569Y024645D02*
X017569Y026614D01*
X020712Y026764D02*
X020712Y024795D01*
X021372Y024992D02*
X021374Y025010D01*
X021380Y025028D01*
X021389Y025044D01*
X021401Y025057D01*
X021416Y025068D01*
X021433Y025076D01*
X021451Y025080D01*
X021469Y025080D01*
X021487Y025076D01*
X021504Y025068D01*
X021519Y025057D01*
X021531Y025044D01*
X021540Y025028D01*
X021546Y025010D01*
X021548Y024992D01*
X021546Y024974D01*
X021540Y024956D01*
X021531Y024940D01*
X021519Y024927D01*
X021504Y024916D01*
X021487Y024908D01*
X021469Y024904D01*
X021451Y024904D01*
X021433Y024908D01*
X021416Y024916D01*
X021401Y024927D01*
X021389Y024940D01*
X021380Y024956D01*
X021374Y024974D01*
X021372Y024992D01*
X021696Y024795D02*
X021696Y026764D01*
X027476Y025809D02*
X027476Y023841D01*
X028136Y024038D02*
X028138Y024056D01*
X028144Y024074D01*
X028153Y024090D01*
X028165Y024103D01*
X028180Y024114D01*
X028197Y024122D01*
X028215Y024126D01*
X028233Y024126D01*
X028251Y024122D01*
X028268Y024114D01*
X028283Y024103D01*
X028295Y024090D01*
X028304Y024074D01*
X028310Y024056D01*
X028312Y024038D01*
X028310Y024020D01*
X028304Y024002D01*
X028295Y023986D01*
X028283Y023973D01*
X028268Y023962D01*
X028251Y023954D01*
X028233Y023950D01*
X028215Y023950D01*
X028197Y023954D01*
X028180Y023962D01*
X028165Y023973D01*
X028153Y023986D01*
X028144Y024002D01*
X028138Y024020D01*
X028136Y024038D01*
X028460Y023841D02*
X028460Y025809D01*
X006710Y024849D02*
X006710Y022881D01*
X006386Y023078D02*
X006388Y023096D01*
X006394Y023114D01*
X006403Y023130D01*
X006415Y023143D01*
X006430Y023154D01*
X006447Y023162D01*
X006465Y023166D01*
X006483Y023166D01*
X006501Y023162D01*
X006518Y023154D01*
X006533Y023143D01*
X006545Y023130D01*
X006554Y023114D01*
X006560Y023096D01*
X006562Y023078D01*
X006560Y023060D01*
X006554Y023042D01*
X006545Y023026D01*
X006533Y023013D01*
X006518Y023002D01*
X006501Y022994D01*
X006483Y022990D01*
X006465Y022990D01*
X006447Y022994D01*
X006430Y023002D01*
X006415Y023013D01*
X006403Y023026D01*
X006394Y023042D01*
X006388Y023060D01*
X006386Y023078D01*
X005726Y022881D02*
X005726Y024849D01*
D15*
X016924Y023011D03*
X017504Y023011D03*
X025654Y023695D03*
X026234Y023695D03*
X028062Y007047D03*
X028642Y007047D03*
X014568Y005676D03*
X013988Y005676D03*
D16*
X009081Y032812D03*
X009076Y032817D03*
X009076Y032822D03*
X009076Y032827D03*
X009076Y032832D03*
X009071Y032842D03*
X009071Y032847D03*
X009071Y032852D03*
X009066Y032857D03*
X009066Y032862D03*
X009066Y032867D03*
X009066Y032872D03*
X009061Y032877D03*
X009061Y032882D03*
X009061Y032887D03*
X009056Y032892D03*
X009056Y032897D03*
X009056Y032902D03*
X009051Y032912D03*
X009051Y032917D03*
X009046Y032922D03*
X009046Y032927D03*
X009041Y032937D03*
X009036Y032947D03*
X009031Y032957D03*
X008646Y033222D03*
X008646Y033227D03*
X008641Y033232D03*
X008641Y033237D03*
X008641Y033242D03*
X008641Y033247D03*
X008636Y033252D03*
X008636Y033257D03*
X008636Y033262D03*
X008631Y033267D03*
X008631Y033272D03*
X008631Y033277D03*
X008631Y033282D03*
X008626Y033287D03*
X008626Y033292D03*
X008626Y033297D03*
X008621Y033307D03*
X008621Y033312D03*
X008621Y033317D03*
X008616Y033322D03*
X008616Y033327D03*
X008616Y033332D03*
X008616Y033337D03*
X008611Y033342D03*
X008611Y033347D03*
X008611Y033352D03*
X008606Y033362D03*
X008606Y033367D03*
X008606Y033372D03*
X008601Y033382D03*
X008601Y033387D03*
X008601Y033392D03*
X008596Y033402D03*
X008596Y033407D03*
X008596Y033412D03*
X008591Y033417D03*
X008591Y033422D03*
X008591Y033427D03*
X008591Y033432D03*
X008586Y033437D03*
X008586Y033442D03*
X008586Y033447D03*
X008586Y033452D03*
X008581Y033457D03*
X008581Y033462D03*
X008581Y033467D03*
X008581Y033472D03*
X008576Y033477D03*
X008576Y033482D03*
X008576Y033487D03*
X008576Y033492D03*
X008571Y033502D03*
X008571Y033507D03*
X008571Y033512D03*
X008566Y033522D03*
X008566Y033527D03*
X008566Y033532D03*
X008561Y033542D03*
X008561Y033547D03*
X008561Y033552D03*
X008556Y033562D03*
X008556Y033567D03*
X008556Y033572D03*
X008551Y033582D03*
X008551Y033587D03*
X008551Y033592D03*
X008551Y033597D03*
X008546Y033607D03*
X008546Y033612D03*
X008546Y033617D03*
X008541Y033627D03*
X008541Y033632D03*
X008541Y033637D03*
X008541Y033642D03*
X008536Y033652D03*
X008536Y033657D03*
X008536Y033662D03*
X008531Y033672D03*
X008531Y033677D03*
X008531Y033682D03*
X008531Y033687D03*
X008526Y033697D03*
X008526Y033702D03*
X008526Y033707D03*
X008526Y033712D03*
X008521Y033722D03*
X008521Y033727D03*
X008521Y033732D03*
X008516Y033747D03*
X008516Y033752D03*
X008516Y033757D03*
X008511Y033772D03*
X008511Y033777D03*
X008511Y033782D03*
X008506Y033797D03*
X008506Y033802D03*
X008506Y033807D03*
X008501Y033822D03*
X008501Y033827D03*
X008501Y033832D03*
X008501Y033837D03*
X008496Y033847D03*
X008496Y033852D03*
X008496Y033857D03*
X008496Y033862D03*
X008491Y033877D03*
X008491Y033882D03*
X008491Y033887D03*
X008491Y033892D03*
X008486Y033902D03*
X008486Y033907D03*
X008486Y033912D03*
X008486Y033917D03*
X008481Y033932D03*
X008481Y033937D03*
X008481Y033942D03*
X008481Y033947D03*
X008476Y033962D03*
X008476Y033967D03*
X008476Y033972D03*
X008476Y033977D03*
X008476Y033982D03*
X008471Y033997D03*
X008471Y034002D03*
X008471Y034007D03*
X008471Y034012D03*
X008466Y034027D03*
X008466Y034032D03*
X008466Y034037D03*
X008466Y034042D03*
X008466Y034047D03*
X008461Y034062D03*
X008461Y034067D03*
X008461Y034072D03*
X008461Y034077D03*
X008461Y034082D03*
X008456Y034102D03*
X008456Y034107D03*
X008456Y034112D03*
X008456Y034117D03*
X008451Y034137D03*
X008451Y034142D03*
X008451Y034147D03*
X008451Y034152D03*
X008451Y034157D03*
X008451Y034162D03*
X008446Y034182D03*
X008446Y034187D03*
X008446Y034192D03*
X008446Y034197D03*
X008446Y034202D03*
X008446Y034207D03*
X008441Y034227D03*
X008441Y034232D03*
X008441Y034237D03*
X008441Y034242D03*
X008441Y034247D03*
X008441Y034252D03*
X008436Y034282D03*
X008436Y034287D03*
X008436Y034292D03*
X008436Y034297D03*
X008436Y034302D03*
X008436Y034307D03*
X008436Y034312D03*
X008431Y034347D03*
X008431Y034352D03*
X008431Y034357D03*
X008431Y034362D03*
X008431Y034367D03*
X008431Y034372D03*
X008431Y034377D03*
X008431Y034382D03*
X008431Y034387D03*
X008431Y034392D03*
X008426Y034437D03*
X008426Y034442D03*
X008426Y034447D03*
X008426Y034452D03*
X008426Y034457D03*
X008426Y034462D03*
X008426Y034467D03*
X008426Y034472D03*
X008426Y034477D03*
X008426Y034482D03*
X008426Y034487D03*
X008426Y034492D03*
X008426Y034497D03*
X008426Y034502D03*
X008426Y034507D03*
X008426Y034512D03*
X008426Y034517D03*
X008426Y034522D03*
X008426Y034527D03*
X008426Y034532D03*
X008426Y034537D03*
X008426Y034542D03*
X008426Y034547D03*
X008426Y034552D03*
X008426Y034557D03*
X008426Y034562D03*
X008426Y034567D03*
X008426Y034572D03*
X008426Y034577D03*
X008426Y034582D03*
X008426Y034587D03*
X008426Y034592D03*
X008426Y034597D03*
X008426Y034602D03*
X008426Y034607D03*
X008426Y034612D03*
X008426Y034617D03*
X008426Y034622D03*
X008426Y034627D03*
X008426Y034632D03*
X008426Y034637D03*
X008426Y034642D03*
X008426Y034647D03*
X008426Y034652D03*
X008656Y034657D03*
X008661Y034652D03*
X008661Y034647D03*
X008666Y034637D03*
X008666Y034632D03*
X008671Y034627D03*
X008671Y034622D03*
X008676Y034612D03*
X008676Y034607D03*
X008681Y034602D03*
X008681Y034597D03*
X008686Y034587D03*
X008686Y034582D03*
X008691Y034577D03*
X008691Y034572D03*
X008696Y034562D03*
X008696Y034557D03*
X008701Y034552D03*
X008701Y034547D03*
X008706Y034537D03*
X008706Y034532D03*
X008451Y034902D03*
X008451Y034907D03*
X008451Y034912D03*
X008451Y034917D03*
X008456Y034932D03*
X008456Y034937D03*
X008456Y034942D03*
X008456Y034947D03*
X008461Y034957D03*
X008461Y034962D03*
X008461Y034967D03*
X008461Y034972D03*
X008466Y034982D03*
X008466Y034987D03*
X008466Y034992D03*
X008466Y034997D03*
X008471Y035007D03*
X008471Y035012D03*
X008471Y035017D03*
X008476Y035027D03*
X008476Y035032D03*
X008476Y035037D03*
X008476Y035042D03*
X008481Y035047D03*
X008481Y035052D03*
X008481Y035057D03*
X008481Y035062D03*
X008486Y035067D03*
X008486Y035072D03*
X008486Y035077D03*
X008486Y035082D03*
X008491Y035087D03*
X008491Y035092D03*
X008491Y035097D03*
X008496Y035107D03*
X008496Y035112D03*
X008496Y035117D03*
X008501Y035122D03*
X008501Y035127D03*
X008501Y035132D03*
X008506Y035137D03*
X008506Y035142D03*
X008506Y035147D03*
X008511Y035152D03*
X008511Y035157D03*
X008511Y035162D03*
X008516Y035167D03*
X008516Y035172D03*
X008516Y035177D03*
X008521Y035182D03*
X008521Y035187D03*
X008521Y035192D03*
X008526Y035197D03*
X008526Y035202D03*
X008526Y035207D03*
X008531Y035212D03*
X008531Y035217D03*
X008536Y035227D03*
X008536Y035232D03*
X008541Y035237D03*
X008541Y035242D03*
X008546Y035252D03*
X008546Y035257D03*
X008551Y035262D03*
X008551Y035267D03*
X008556Y035277D03*
X008561Y035287D03*
X008566Y035297D03*
X008571Y035307D03*
X008596Y035357D03*
X008601Y035367D03*
X008606Y035377D03*
X008441Y035332D03*
X008416Y035472D03*
X008416Y035477D03*
X008411Y035492D03*
X008411Y035497D03*
X008411Y035502D03*
X008411Y035507D03*
X008406Y035517D03*
X008406Y035522D03*
X008406Y035527D03*
X008401Y035537D03*
X008401Y035542D03*
X008401Y035547D03*
X008401Y035552D03*
X008396Y035562D03*
X008396Y035567D03*
X008396Y035572D03*
X008396Y035577D03*
X008391Y035587D03*
X008391Y035592D03*
X008391Y035597D03*
X008386Y035607D03*
X008386Y035612D03*
X008386Y035617D03*
X008386Y035622D03*
X008381Y035632D03*
X008381Y035637D03*
X008381Y035642D03*
X008381Y035647D03*
X008376Y035657D03*
X008376Y035662D03*
X008376Y035667D03*
X008366Y035712D03*
X008361Y035722D03*
X008361Y035727D03*
X008361Y035732D03*
X008356Y035742D03*
X008356Y035747D03*
X008356Y035752D03*
X008356Y035757D03*
X008351Y035762D03*
X008351Y035767D03*
X008351Y035772D03*
X008351Y035777D03*
X008346Y035787D03*
X008346Y035792D03*
X008346Y035797D03*
X008341Y035807D03*
X008341Y035812D03*
X008341Y035817D03*
X008336Y035827D03*
X008336Y035832D03*
X008336Y035837D03*
X008336Y035842D03*
X008331Y035847D03*
X008331Y035852D03*
X008331Y035857D03*
X008331Y035862D03*
X008326Y035872D03*
X008326Y035877D03*
X008326Y035882D03*
X008321Y035892D03*
X008321Y035897D03*
X008321Y035902D03*
X008316Y035912D03*
X008316Y035917D03*
X008316Y035922D03*
X008311Y035932D03*
X008311Y035937D03*
X008311Y035942D03*
X008306Y035952D03*
X008306Y035957D03*
X008306Y035962D03*
X008301Y035972D03*
X008301Y035977D03*
X008301Y035982D03*
X008296Y035992D03*
X008296Y035997D03*
X008296Y036002D03*
X008291Y036012D03*
X008291Y036017D03*
X008291Y036022D03*
X008286Y036032D03*
X008286Y036037D03*
X008286Y036042D03*
X008281Y036052D03*
X008281Y036057D03*
X008281Y036062D03*
X008281Y036067D03*
X008276Y036072D03*
X008276Y036077D03*
X008276Y036082D03*
X008276Y036087D03*
X008271Y036092D03*
X008271Y036097D03*
X008271Y036102D03*
X008271Y036107D03*
X008266Y036112D03*
X008266Y036117D03*
X008266Y036122D03*
X008266Y036127D03*
X008261Y036132D03*
X008261Y036137D03*
X008261Y036142D03*
X008261Y036147D03*
X008256Y036152D03*
X008256Y036157D03*
X008256Y036162D03*
X008256Y036167D03*
X008251Y036172D03*
X008251Y036177D03*
X008251Y036182D03*
X008251Y036187D03*
X008246Y036192D03*
X008246Y036197D03*
X008246Y036202D03*
X008246Y036207D03*
X008241Y036217D03*
X008241Y036222D03*
X008241Y036227D03*
X008236Y036237D03*
X008236Y036242D03*
X008236Y036247D03*
X008231Y036257D03*
X008231Y036262D03*
X008231Y036267D03*
X008226Y036277D03*
X008226Y036282D03*
X008226Y036287D03*
X008226Y036292D03*
X008221Y036297D03*
X008221Y036302D03*
X008221Y036307D03*
X008221Y036312D03*
X008216Y036322D03*
X008216Y036327D03*
X008216Y036332D03*
X008211Y036342D03*
X008211Y036347D03*
X008211Y036352D03*
X008206Y036362D03*
X008206Y036367D03*
X008206Y036372D03*
X008206Y036377D03*
X008201Y036382D03*
X008201Y036387D03*
X008201Y036392D03*
X008201Y036397D03*
X008196Y036407D03*
X008196Y036412D03*
X008196Y036417D03*
X008196Y036422D03*
X008191Y036432D03*
X008191Y036437D03*
X008191Y036442D03*
X008186Y036452D03*
X008186Y036457D03*
X008186Y036462D03*
X008186Y036467D03*
X008181Y036477D03*
X008181Y036482D03*
X008181Y036487D03*
X008176Y036497D03*
X008176Y036502D03*
X008176Y036507D03*
X008176Y036512D03*
X008171Y036522D03*
X008171Y036527D03*
X008171Y036532D03*
X008166Y036542D03*
X008166Y036547D03*
X008166Y036552D03*
X008166Y036557D03*
X008161Y036567D03*
X008161Y036572D03*
X008161Y036577D03*
X008161Y036582D03*
X008156Y036592D03*
X008156Y036597D03*
X008156Y036602D03*
X008156Y036607D03*
X008151Y036617D03*
X008151Y036622D03*
X008151Y036627D03*
X008151Y036632D03*
X008146Y036642D03*
X008146Y036647D03*
X008146Y036652D03*
X008146Y036657D03*
X008141Y036672D03*
X008141Y036677D03*
X008141Y036682D03*
X008141Y036687D03*
X008136Y036702D03*
X008136Y036707D03*
X008136Y036712D03*
X008136Y036717D03*
X008131Y036727D03*
X008131Y036732D03*
X008131Y036737D03*
X008131Y036742D03*
X008126Y036757D03*
X008126Y036762D03*
X008126Y036767D03*
X008126Y036772D03*
X008121Y036787D03*
X008121Y036792D03*
X008121Y036797D03*
X008121Y036802D03*
X008121Y036807D03*
X008116Y036822D03*
X008116Y036827D03*
X008116Y036832D03*
X008116Y036837D03*
X008111Y036857D03*
X008111Y036862D03*
X008111Y036867D03*
X008111Y036872D03*
X008106Y036892D03*
X008106Y036897D03*
X008106Y036902D03*
X008106Y036907D03*
X008101Y036932D03*
X008101Y036937D03*
X008101Y036942D03*
X008101Y036947D03*
X008101Y036952D03*
X008096Y036972D03*
X008096Y036977D03*
X008096Y036982D03*
X008096Y036987D03*
X008096Y036992D03*
X008091Y037022D03*
X008091Y037027D03*
X008091Y037032D03*
X008091Y037037D03*
X008091Y037042D03*
X008091Y037047D03*
X008086Y037077D03*
X008086Y037082D03*
X008086Y037087D03*
X008086Y037092D03*
X008086Y037097D03*
X008086Y037102D03*
X008086Y037107D03*
X008081Y037147D03*
X008081Y037152D03*
X008081Y037157D03*
X008081Y037162D03*
X008081Y037167D03*
X008081Y037172D03*
X008081Y037177D03*
X008081Y037182D03*
X008081Y037187D03*
X008076Y037257D03*
X008076Y037262D03*
X008076Y037267D03*
X008076Y037272D03*
X008076Y037277D03*
X008076Y037282D03*
X008076Y037287D03*
X008076Y037292D03*
X008076Y037297D03*
X008076Y037302D03*
X008076Y037307D03*
X008076Y037312D03*
X008076Y037317D03*
X008076Y037322D03*
X008076Y037327D03*
X008076Y037332D03*
X008076Y037337D03*
X008076Y037342D03*
X008076Y037347D03*
X008076Y037352D03*
X008076Y037357D03*
X008076Y037362D03*
X008076Y037367D03*
X008076Y037372D03*
X008076Y037377D03*
X008076Y037382D03*
X008076Y037387D03*
X008076Y037392D03*
X008076Y037397D03*
X008076Y037402D03*
X008076Y037407D03*
X008076Y037412D03*
X008081Y037482D03*
X008081Y037487D03*
X008081Y037492D03*
X008081Y037497D03*
X008081Y037502D03*
X008081Y037507D03*
X008081Y037512D03*
X008081Y037517D03*
X008081Y037522D03*
X008081Y037527D03*
X008086Y037562D03*
X008086Y037567D03*
X008086Y037572D03*
X008086Y037577D03*
X008086Y037582D03*
X008086Y037587D03*
X008086Y037592D03*
X008091Y037617D03*
X008091Y037622D03*
X008091Y037627D03*
X008091Y037632D03*
X008091Y037637D03*
X008091Y037642D03*
X008091Y037647D03*
X008096Y037667D03*
X008096Y037672D03*
X008096Y037677D03*
X008096Y037682D03*
X008096Y037687D03*
X008101Y037707D03*
X008101Y037712D03*
X008101Y037717D03*
X008101Y037722D03*
X008101Y037727D03*
X008106Y037747D03*
X008106Y037752D03*
X008106Y037757D03*
X008106Y037762D03*
X008111Y037777D03*
X008111Y037782D03*
X008111Y037787D03*
X008111Y037792D03*
X008116Y037807D03*
X008116Y037812D03*
X008116Y037817D03*
X008116Y037822D03*
X008116Y037827D03*
X008121Y037837D03*
X008121Y037842D03*
X008121Y037847D03*
X008121Y037852D03*
X008126Y037867D03*
X008126Y037872D03*
X008126Y037877D03*
X008126Y037882D03*
X008131Y037892D03*
X008131Y037897D03*
X008131Y037902D03*
X008131Y037907D03*
X008136Y037917D03*
X008136Y037922D03*
X008136Y037927D03*
X008136Y037932D03*
X008141Y037942D03*
X008141Y037947D03*
X008141Y037952D03*
X008141Y037957D03*
X008146Y037962D03*
X008146Y037967D03*
X008146Y037972D03*
X008146Y037977D03*
X008151Y037987D03*
X008151Y037992D03*
X008151Y037997D03*
X008156Y038007D03*
X008156Y038012D03*
X008156Y038017D03*
X008161Y038027D03*
X008161Y038032D03*
X008161Y038037D03*
X008161Y038042D03*
X008166Y038047D03*
X008166Y038052D03*
X008166Y038057D03*
X008166Y038062D03*
X008171Y038067D03*
X008171Y038072D03*
X008171Y038077D03*
X008176Y038087D03*
X008176Y038092D03*
X008176Y038097D03*
X008181Y038102D03*
X008181Y038107D03*
X008181Y038112D03*
X008181Y038117D03*
X008186Y038122D03*
X008186Y038127D03*
X008186Y038132D03*
X008431Y037927D03*
X008426Y037917D03*
X008421Y037907D03*
X008416Y037897D03*
X008416Y037892D03*
X008411Y037882D03*
X008411Y037877D03*
X008406Y037872D03*
X008406Y037867D03*
X008401Y037857D03*
X008401Y037852D03*
X008401Y037847D03*
X008396Y037842D03*
X008396Y037837D03*
X008396Y037832D03*
X008391Y037822D03*
X008391Y037817D03*
X008391Y037812D03*
X008386Y037797D03*
X008386Y037792D03*
X008386Y037787D03*
X008386Y037782D03*
X008381Y037767D03*
X008381Y037762D03*
X008381Y037757D03*
X008381Y037752D03*
X008381Y037747D03*
X008381Y037742D03*
X008381Y037737D03*
X008381Y037677D03*
X008381Y037672D03*
X008381Y037667D03*
X008381Y037662D03*
X008381Y037657D03*
X008381Y037652D03*
X008386Y037632D03*
X008386Y037627D03*
X008386Y037622D03*
X008386Y037617D03*
X008391Y037607D03*
X008391Y037602D03*
X008391Y037597D03*
X008391Y037592D03*
X008396Y037587D03*
X008396Y037582D03*
X008396Y037577D03*
X008396Y037572D03*
X008401Y037567D03*
X008401Y037562D03*
X008401Y037557D03*
X008406Y037552D03*
X008406Y037547D03*
X008411Y037537D03*
X008411Y037532D03*
X008416Y037522D03*
X008421Y037512D03*
X008426Y037502D03*
X008431Y037492D03*
X008441Y037472D03*
X008631Y037722D03*
X008626Y037732D03*
X008626Y037737D03*
X008621Y037742D03*
X008621Y037747D03*
X008621Y037752D03*
X008616Y037762D03*
X008616Y037767D03*
X008616Y037772D03*
X008616Y037777D03*
X008616Y037782D03*
X008616Y037787D03*
X008616Y037802D03*
X008616Y037807D03*
X008616Y037812D03*
X008616Y037817D03*
X008616Y037822D03*
X008621Y037832D03*
X008621Y037837D03*
X008621Y037842D03*
X008626Y037847D03*
X008626Y037852D03*
X008631Y037862D03*
X008851Y037862D03*
X008856Y037852D03*
X008856Y037847D03*
X008861Y037842D03*
X008861Y037837D03*
X008861Y037832D03*
X008866Y037822D03*
X008866Y037817D03*
X008866Y037812D03*
X008866Y037807D03*
X008866Y037802D03*
X008866Y037797D03*
X008866Y037787D03*
X008866Y037782D03*
X008866Y037777D03*
X008866Y037772D03*
X008866Y037767D03*
X008866Y037762D03*
X008861Y037752D03*
X008861Y037747D03*
X008861Y037742D03*
X008856Y037737D03*
X008856Y037732D03*
X008851Y037722D03*
X008741Y037632D03*
X009221Y037492D03*
X009226Y037502D03*
X009231Y037512D03*
X009231Y037517D03*
X009236Y037527D03*
X009241Y037537D03*
X009241Y037542D03*
X009246Y037547D03*
X009246Y037552D03*
X009246Y037557D03*
X009251Y037562D03*
X009251Y037567D03*
X009251Y037572D03*
X009256Y037582D03*
X009256Y037587D03*
X009256Y037592D03*
X009261Y037602D03*
X009261Y037607D03*
X009261Y037612D03*
X009266Y037627D03*
X009266Y037632D03*
X009266Y037637D03*
X009266Y037642D03*
X009271Y037662D03*
X009271Y037667D03*
X009271Y037672D03*
X009271Y037677D03*
X009271Y037682D03*
X009271Y037687D03*
X009271Y037692D03*
X009271Y037697D03*
X009271Y037702D03*
X009271Y037707D03*
X009271Y037712D03*
X009271Y037717D03*
X009271Y037722D03*
X009271Y037727D03*
X009271Y037732D03*
X009271Y037737D03*
X009271Y037742D03*
X009271Y037747D03*
X009271Y037752D03*
X009271Y037757D03*
X009266Y037772D03*
X009266Y037777D03*
X009266Y037782D03*
X009266Y037787D03*
X009266Y037792D03*
X009261Y037802D03*
X009261Y037807D03*
X009261Y037812D03*
X009261Y037817D03*
X009256Y037822D03*
X009256Y037827D03*
X009256Y037832D03*
X009256Y037837D03*
X009251Y037842D03*
X009251Y037847D03*
X009251Y037852D03*
X009246Y037857D03*
X009246Y037862D03*
X009246Y037867D03*
X009241Y037872D03*
X009241Y037877D03*
X009241Y037882D03*
X009236Y037887D03*
X009236Y037892D03*
X009231Y037902D03*
X009226Y037912D03*
X009221Y037922D03*
X009216Y037932D03*
X009396Y037717D03*
X009391Y037707D03*
X009386Y037697D03*
X009386Y037692D03*
X009381Y037682D03*
X009381Y037677D03*
X009376Y037672D03*
X009376Y037667D03*
X009376Y037662D03*
X009371Y037657D03*
X009371Y037652D03*
X009371Y037647D03*
X009366Y037637D03*
X009366Y037632D03*
X009366Y037627D03*
X009361Y037612D03*
X009361Y037607D03*
X009361Y037602D03*
X009361Y037597D03*
X009356Y037567D03*
X009356Y037562D03*
X009356Y037557D03*
X009356Y037547D03*
X009356Y037542D03*
X009356Y037537D03*
X009356Y037532D03*
X009361Y037502D03*
X009366Y037347D03*
X009366Y037342D03*
X009366Y037337D03*
X009366Y037332D03*
X009366Y037327D03*
X009371Y037302D03*
X009371Y037297D03*
X009371Y037292D03*
X009371Y037287D03*
X009371Y037282D03*
X009371Y037277D03*
X009376Y037257D03*
X009376Y037252D03*
X009376Y037247D03*
X009376Y037242D03*
X009376Y037237D03*
X009376Y037232D03*
X009381Y037207D03*
X009381Y037202D03*
X009381Y037197D03*
X009381Y037192D03*
X009381Y037187D03*
X009386Y037162D03*
X009386Y037157D03*
X009386Y037152D03*
X009386Y037147D03*
X009386Y037142D03*
X009391Y037117D03*
X009391Y037112D03*
X009391Y037107D03*
X009391Y037102D03*
X009391Y037097D03*
X009391Y037092D03*
X009396Y037072D03*
X009396Y037067D03*
X009396Y037062D03*
X009396Y037057D03*
X009396Y037052D03*
X009396Y037047D03*
X009401Y037027D03*
X009401Y037022D03*
X009401Y037017D03*
X009401Y037012D03*
X009401Y037007D03*
X009401Y037002D03*
X009406Y036977D03*
X009406Y036972D03*
X009406Y036967D03*
X009406Y036962D03*
X009406Y036957D03*
X009411Y036932D03*
X009411Y036927D03*
X009411Y036922D03*
X009411Y036917D03*
X009411Y036912D03*
X009416Y036887D03*
X009416Y036882D03*
X009416Y036877D03*
X009416Y036872D03*
X009416Y036867D03*
X009416Y036862D03*
X009421Y036842D03*
X009421Y036837D03*
X009421Y036832D03*
X009421Y036827D03*
X009421Y036822D03*
X009421Y036817D03*
X009426Y036792D03*
X009426Y036787D03*
X009426Y036782D03*
X009426Y036777D03*
X009426Y036772D03*
X009431Y036747D03*
X009431Y036742D03*
X009431Y036737D03*
X009431Y036732D03*
X009431Y036727D03*
X009436Y036702D03*
X009436Y036697D03*
X009436Y036692D03*
X009436Y036687D03*
X009436Y036682D03*
X009436Y036677D03*
X009441Y036657D03*
X009441Y036652D03*
X009441Y036647D03*
X009441Y036642D03*
X009441Y036637D03*
X009441Y036632D03*
X009446Y036612D03*
X009446Y036607D03*
X009446Y036602D03*
X009446Y036597D03*
X009446Y036592D03*
X009446Y036587D03*
X009451Y036562D03*
X009451Y036557D03*
X009451Y036552D03*
X009451Y036547D03*
X009451Y036542D03*
X009621Y036477D03*
X009621Y036472D03*
X009621Y036467D03*
X009616Y036462D03*
X009616Y036457D03*
X009616Y036452D03*
X009611Y036447D03*
X009626Y036482D03*
X009626Y036487D03*
X009626Y036492D03*
X009631Y036497D03*
X009631Y036502D03*
X009631Y036507D03*
X009636Y036512D03*
X009636Y036517D03*
X009636Y036522D03*
X009641Y036527D03*
X009641Y036532D03*
X009641Y036537D03*
X009646Y036542D03*
X009646Y036547D03*
X009646Y036552D03*
X009651Y036557D03*
X009651Y036562D03*
X009651Y036567D03*
X009656Y036572D03*
X009656Y036577D03*
X009656Y036582D03*
X009661Y036587D03*
X009661Y036592D03*
X009661Y036597D03*
X009666Y036602D03*
X009666Y036607D03*
X009666Y036612D03*
X009656Y036642D03*
X009651Y036652D03*
X009646Y036662D03*
X009646Y036667D03*
X009646Y036672D03*
X009641Y036677D03*
X009641Y036682D03*
X009641Y036687D03*
X009636Y036692D03*
X009636Y036697D03*
X009636Y036702D03*
X009636Y036707D03*
X009631Y036717D03*
X009631Y036722D03*
X009631Y036727D03*
X009631Y036732D03*
X009626Y036752D03*
X009626Y036757D03*
X009626Y036762D03*
X009626Y036767D03*
X009626Y036772D03*
X009621Y036812D03*
X009621Y036817D03*
X009621Y036822D03*
X009621Y036827D03*
X009621Y036832D03*
X009621Y036837D03*
X009621Y036842D03*
X009621Y036847D03*
X009621Y036852D03*
X009621Y036857D03*
X009621Y036862D03*
X009621Y036867D03*
X009621Y036872D03*
X009621Y036877D03*
X009621Y036882D03*
X009621Y036887D03*
X009621Y036892D03*
X009621Y036897D03*
X009621Y036902D03*
X009621Y036907D03*
X009621Y036912D03*
X009621Y036917D03*
X009621Y036922D03*
X009621Y036927D03*
X009621Y036932D03*
X009621Y036937D03*
X009621Y036942D03*
X009621Y036947D03*
X009621Y036952D03*
X009621Y036957D03*
X009621Y036962D03*
X009621Y036967D03*
X009621Y036972D03*
X009621Y036977D03*
X009621Y036982D03*
X009621Y036987D03*
X009621Y036992D03*
X009621Y036997D03*
X009621Y037002D03*
X009621Y037007D03*
X009931Y036962D03*
X009931Y036957D03*
X009931Y036952D03*
X009931Y036947D03*
X009926Y036927D03*
X009926Y036922D03*
X009926Y036917D03*
X009926Y036912D03*
X009921Y036892D03*
X009921Y036887D03*
X009921Y036882D03*
X009921Y036877D03*
X009916Y036867D03*
X009916Y036862D03*
X009916Y036857D03*
X009916Y036852D03*
X009911Y036837D03*
X009911Y036832D03*
X009911Y036827D03*
X009911Y036822D03*
X009906Y036812D03*
X009906Y036807D03*
X009906Y036802D03*
X009901Y036792D03*
X009901Y036787D03*
X009901Y036782D03*
X009901Y036777D03*
X009896Y036767D03*
X009896Y036762D03*
X009896Y036757D03*
X009891Y036747D03*
X009891Y036742D03*
X009891Y036737D03*
X009891Y036732D03*
X009886Y036727D03*
X009886Y036722D03*
X009886Y036717D03*
X009881Y036707D03*
X009881Y036702D03*
X009881Y036697D03*
X009876Y036692D03*
X009876Y036687D03*
X009876Y036682D03*
X009876Y036677D03*
X009871Y036672D03*
X009871Y036667D03*
X009871Y036662D03*
X009866Y036657D03*
X009866Y036652D03*
X009866Y036647D03*
X009866Y036642D03*
X009861Y036637D03*
X009861Y036632D03*
X009861Y036627D03*
X009856Y036622D03*
X009856Y036617D03*
X009856Y036612D03*
X009851Y036607D03*
X009851Y036602D03*
X009851Y036597D03*
X009846Y036592D03*
X009846Y036587D03*
X009846Y036582D03*
X009841Y036577D03*
X009841Y036572D03*
X009836Y036562D03*
X009836Y036557D03*
X009831Y036547D03*
X009831Y036542D03*
X009826Y036537D03*
X009826Y036532D03*
X009826Y036527D03*
X009821Y036522D03*
X009821Y036517D03*
X009816Y036507D03*
X009811Y036497D03*
X009811Y036492D03*
X009806Y036482D03*
X009801Y036472D03*
X009801Y036467D03*
X009796Y036462D03*
X009796Y036457D03*
X009791Y036447D03*
X009786Y036437D03*
X009781Y036427D03*
X009776Y036417D03*
X009776Y036412D03*
X009771Y036402D03*
X009766Y036392D03*
X009761Y036382D03*
X009756Y036372D03*
X009751Y036362D03*
X009726Y036317D03*
X009721Y036307D03*
X009311Y036232D03*
X009311Y036227D03*
X009311Y036222D03*
X009311Y036217D03*
X009311Y036212D03*
X009311Y036207D03*
X009316Y036187D03*
X009316Y036182D03*
X009316Y036177D03*
X009316Y036172D03*
X009316Y036167D03*
X009316Y036162D03*
X009321Y036142D03*
X009321Y036137D03*
X009321Y036132D03*
X009321Y036127D03*
X009321Y036122D03*
X009321Y036117D03*
X009306Y036252D03*
X009306Y036257D03*
X009306Y036262D03*
X008761Y036337D03*
X008761Y036342D03*
X008761Y036347D03*
X008761Y036352D03*
X008756Y036362D03*
X008756Y036367D03*
X008756Y036372D03*
X008756Y036377D03*
X008751Y036387D03*
X008751Y036392D03*
X008751Y036397D03*
X008751Y036402D03*
X008746Y036412D03*
X008746Y036417D03*
X008746Y036422D03*
X008746Y036427D03*
X008741Y036437D03*
X008741Y036442D03*
X008741Y036447D03*
X008741Y036452D03*
X008736Y036462D03*
X008736Y036467D03*
X008736Y036472D03*
X008736Y036477D03*
X008731Y036487D03*
X008731Y036492D03*
X008731Y036497D03*
X008731Y036502D03*
X008726Y036512D03*
X008726Y036517D03*
X008726Y036522D03*
X008726Y036527D03*
X008721Y036537D03*
X008721Y036542D03*
X008721Y036547D03*
X008721Y036552D03*
X008716Y036562D03*
X008811Y036707D03*
X008816Y036717D03*
X008821Y036727D03*
X008826Y036737D03*
X008831Y036747D03*
X008836Y036757D03*
X008836Y036762D03*
X008841Y036772D03*
X008846Y036782D03*
X008851Y036792D03*
X008856Y036802D03*
X008856Y036807D03*
X008861Y036812D03*
X008861Y036817D03*
X008866Y036827D03*
X008866Y036832D03*
X008871Y036837D03*
X008871Y036842D03*
X008876Y036852D03*
X008876Y036857D03*
X008881Y036862D03*
X008881Y036867D03*
X008881Y036872D03*
X008886Y036877D03*
X008886Y036882D03*
X008891Y036892D03*
X008891Y036897D03*
X008896Y036902D03*
X008896Y036907D03*
X008896Y036912D03*
X008901Y036917D03*
X008901Y036922D03*
X008901Y036927D03*
X008906Y036932D03*
X008906Y036937D03*
X008906Y036942D03*
X008911Y036947D03*
X008911Y036952D03*
X008911Y036957D03*
X008916Y036962D03*
X008916Y036967D03*
X008916Y036972D03*
X008921Y036977D03*
X008921Y036982D03*
X008921Y036987D03*
X008926Y036992D03*
X008926Y036997D03*
X008926Y037002D03*
X008931Y037007D03*
X008931Y037012D03*
X008931Y037017D03*
X008936Y037022D03*
X008936Y037027D03*
X008936Y037032D03*
X008941Y037037D03*
X008941Y037042D03*
X008941Y037047D03*
X008946Y037052D03*
X008946Y037057D03*
X008946Y037062D03*
X008951Y037067D03*
X008951Y037072D03*
X008951Y037077D03*
X008956Y037082D03*
X008956Y037087D03*
X009736Y037452D03*
X009736Y037457D03*
X009736Y037462D03*
X009731Y037467D03*
X009731Y037472D03*
X009731Y037477D03*
X009731Y037482D03*
X009741Y037442D03*
X009746Y037432D03*
X009731Y037532D03*
X009731Y037537D03*
X009731Y037542D03*
X009736Y037552D03*
X009736Y037557D03*
X009741Y037567D03*
X009966Y037572D03*
X009971Y037562D03*
X009971Y037557D03*
X009976Y037547D03*
X009976Y037542D03*
X009976Y037537D03*
X009981Y037522D03*
X009981Y037517D03*
X009981Y037512D03*
X009981Y037507D03*
X009981Y037502D03*
X009981Y037497D03*
X009981Y037492D03*
X009976Y037472D03*
X009976Y037467D03*
X009976Y037462D03*
X009971Y037457D03*
X009971Y037452D03*
X009966Y037442D03*
X009961Y037432D03*
X010051Y037402D03*
X010051Y037397D03*
X010046Y037387D03*
X010041Y037377D03*
X010056Y037407D03*
X010056Y037412D03*
X010056Y037417D03*
X010061Y037422D03*
X010061Y037427D03*
X010066Y037437D03*
X010066Y037442D03*
X010066Y037447D03*
X010071Y037452D03*
X010071Y037457D03*
X010071Y037462D03*
X010071Y037467D03*
X010076Y037477D03*
X010076Y037482D03*
X010076Y037487D03*
X010076Y037492D03*
X010081Y037512D03*
X010081Y037517D03*
X010081Y037522D03*
X010081Y037527D03*
X010081Y037532D03*
X010081Y037537D03*
X010081Y037542D03*
X010081Y037547D03*
X010081Y037552D03*
X010081Y037557D03*
X010081Y037562D03*
X010081Y037567D03*
X010081Y037572D03*
X010081Y037577D03*
X010081Y037582D03*
X010081Y037587D03*
X010076Y037602D03*
X010076Y037607D03*
X010076Y037612D03*
X010076Y037617D03*
X010076Y037622D03*
X010071Y037632D03*
X010071Y037637D03*
X010071Y037642D03*
X010066Y037652D03*
X010066Y037657D03*
X010066Y037662D03*
X010061Y037667D03*
X010061Y037672D03*
X010056Y037682D03*
X010056Y037687D03*
X010051Y037697D03*
X010046Y037707D03*
X010041Y037717D03*
X010036Y037727D03*
X009801Y037937D03*
X009796Y037942D03*
X009796Y037947D03*
X009791Y037957D03*
X009761Y038022D03*
X009756Y038032D03*
X009751Y038042D03*
X009721Y038097D03*
X009341Y038302D03*
X009496Y038482D03*
X009491Y038492D03*
X009486Y038502D03*
X009481Y038512D03*
X009481Y038517D03*
X009476Y038527D03*
X009476Y038532D03*
X009471Y038537D03*
X009471Y038542D03*
X009471Y038547D03*
X009471Y038552D03*
X009466Y038557D03*
X009466Y038562D03*
X009466Y038567D03*
X009466Y038572D03*
X009461Y038582D03*
X009461Y038587D03*
X009461Y038592D03*
X009461Y038597D03*
X009456Y038617D03*
X009456Y038622D03*
X009456Y038627D03*
X009456Y038632D03*
X009456Y038637D03*
X009456Y038642D03*
X009456Y038647D03*
X009456Y038652D03*
X009456Y038657D03*
X009456Y038662D03*
X009456Y038667D03*
X009456Y038672D03*
X009456Y038677D03*
X009456Y038682D03*
X009456Y038687D03*
X009456Y038692D03*
X009461Y038717D03*
X009461Y038722D03*
X009461Y038727D03*
X009461Y038732D03*
X009466Y038747D03*
X009466Y038752D03*
X009466Y038757D03*
X009471Y038767D03*
X009471Y038772D03*
X009471Y038777D03*
X009476Y038787D03*
X009476Y038792D03*
X009476Y038797D03*
X009481Y038802D03*
X009481Y038807D03*
X009481Y038812D03*
X009486Y038817D03*
X009486Y038822D03*
X009486Y038827D03*
X009491Y038837D03*
X009491Y038842D03*
X009496Y038852D03*
X009496Y038857D03*
X009501Y038862D03*
X009501Y038867D03*
X009506Y038877D03*
X009506Y038882D03*
X009511Y038887D03*
X009511Y038892D03*
X009516Y038902D03*
X009521Y038912D03*
X009521Y038917D03*
X009526Y038922D03*
X009526Y038927D03*
X009531Y038937D03*
X009536Y038947D03*
X009541Y038957D03*
X009546Y038967D03*
X009551Y038977D03*
X009556Y038987D03*
X009561Y038997D03*
X009566Y039007D03*
X009596Y039067D03*
X008986Y038292D03*
X007881Y037772D03*
X007876Y037762D03*
X007851Y037717D03*
X007846Y037707D03*
X007841Y037697D03*
X007836Y037687D03*
X007831Y037677D03*
X007826Y037667D03*
X007821Y037657D03*
X007821Y037652D03*
X007816Y037642D03*
X007811Y037632D03*
X007806Y037622D03*
X007801Y037612D03*
X007796Y037602D03*
X007796Y037597D03*
X007791Y037587D03*
X007786Y037577D03*
X007786Y037572D03*
X007781Y037567D03*
X007781Y037562D03*
X007776Y037552D03*
X007776Y037547D03*
X007771Y037542D03*
X007771Y037537D03*
X007766Y037527D03*
X007766Y037522D03*
X007761Y037517D03*
X007761Y037512D03*
X007756Y037502D03*
X007756Y037497D03*
X007751Y037487D03*
X007751Y037482D03*
X007746Y037477D03*
X007746Y037472D03*
X007746Y037467D03*
X007741Y037462D03*
X007741Y037457D03*
X007741Y037452D03*
X007736Y037447D03*
X007736Y037442D03*
X007736Y037437D03*
X007731Y037432D03*
X007731Y037427D03*
X007731Y037422D03*
X007726Y037417D03*
X007726Y037412D03*
X007726Y037407D03*
X007721Y037402D03*
X007721Y037397D03*
X007721Y037392D03*
X007716Y037387D03*
X007716Y037382D03*
X007716Y037377D03*
X007716Y037372D03*
X007711Y037367D03*
X007711Y037362D03*
X007711Y037357D03*
X007706Y037352D03*
X007706Y037347D03*
X007706Y037342D03*
X007706Y037337D03*
X007701Y037332D03*
X007701Y037327D03*
X007701Y037322D03*
X007696Y037312D03*
X007696Y037307D03*
X007696Y037302D03*
X007691Y037292D03*
X007691Y037287D03*
X007691Y037282D03*
X007686Y037272D03*
X007686Y037267D03*
X007686Y037262D03*
X007681Y037252D03*
X007681Y037247D03*
X007681Y037242D03*
X007681Y037237D03*
X007676Y037227D03*
X007676Y037222D03*
X007676Y037217D03*
X007676Y037212D03*
X007671Y037202D03*
X007671Y037197D03*
X007671Y037192D03*
X007666Y037177D03*
X007666Y037172D03*
X007666Y037167D03*
X007666Y037162D03*
X007661Y037152D03*
X007661Y037147D03*
X007661Y037142D03*
X007661Y037137D03*
X007656Y037122D03*
X007656Y037117D03*
X007656Y037112D03*
X007656Y037107D03*
X007656Y037102D03*
X007651Y037087D03*
X007651Y037082D03*
X007651Y037077D03*
X007651Y037072D03*
X007651Y037067D03*
X007646Y037052D03*
X007646Y037047D03*
X007646Y037042D03*
X007646Y037037D03*
X007646Y037032D03*
X007646Y037027D03*
X007641Y037007D03*
X007641Y037002D03*
X007641Y036997D03*
X007641Y036992D03*
X007641Y036987D03*
X007641Y036982D03*
X007636Y036957D03*
X007636Y036952D03*
X007636Y036947D03*
X007636Y036942D03*
X007636Y036937D03*
X007636Y036932D03*
X007636Y036927D03*
X007636Y036922D03*
X007631Y036882D03*
X007631Y036877D03*
X007631Y036872D03*
X007631Y036867D03*
X007631Y036862D03*
X007631Y036857D03*
X007631Y036852D03*
X007631Y036847D03*
X007631Y036842D03*
X007631Y036837D03*
X007631Y036832D03*
X007631Y036827D03*
X007631Y036822D03*
X007631Y036682D03*
X007631Y036677D03*
X007631Y036672D03*
X007631Y036667D03*
X007631Y036662D03*
X007631Y036657D03*
X007631Y036652D03*
X007631Y036647D03*
X007631Y036642D03*
X007631Y036637D03*
X007631Y036632D03*
X007631Y036627D03*
X007631Y036622D03*
X007631Y036617D03*
X007636Y036577D03*
X007636Y036572D03*
X007636Y036567D03*
X007636Y036562D03*
X007636Y036557D03*
X007636Y036552D03*
X007636Y036547D03*
X007636Y036542D03*
X007641Y036512D03*
X007641Y036507D03*
X007641Y036502D03*
X007641Y036497D03*
X007641Y036492D03*
X007641Y036487D03*
X007641Y036482D03*
X007646Y036457D03*
X007646Y036452D03*
X007646Y036447D03*
X007646Y036442D03*
X007646Y036437D03*
X007651Y036412D03*
X007651Y036407D03*
X007651Y036402D03*
X007651Y036397D03*
X007651Y036392D03*
X007656Y036377D03*
X007656Y036372D03*
X007656Y036367D03*
X007656Y036362D03*
X007656Y036357D03*
X007661Y036337D03*
X007661Y036332D03*
X007661Y036327D03*
X007661Y036322D03*
X007666Y036307D03*
X007666Y036302D03*
X007666Y036297D03*
X007666Y036292D03*
X007666Y036287D03*
X007671Y036272D03*
X007671Y036267D03*
X007671Y036262D03*
X007671Y036257D03*
X007676Y036242D03*
X007676Y036237D03*
X007676Y036232D03*
X007676Y036227D03*
X007681Y036217D03*
X007681Y036212D03*
X007681Y036207D03*
X007681Y036202D03*
X007686Y036187D03*
X007686Y036182D03*
X007686Y036177D03*
X007691Y036162D03*
X007691Y036157D03*
X007691Y036152D03*
X007696Y036137D03*
X007696Y036132D03*
X007696Y036127D03*
X007696Y036122D03*
X007701Y036112D03*
X007701Y036107D03*
X007701Y036102D03*
X007706Y036092D03*
X007706Y036087D03*
X007706Y036082D03*
X007706Y036077D03*
X007711Y036067D03*
X007711Y036062D03*
X007711Y036057D03*
X007716Y036047D03*
X007716Y036042D03*
X007716Y036037D03*
X007716Y036032D03*
X007721Y036027D03*
X007721Y036022D03*
X007721Y036017D03*
X007721Y036012D03*
X007726Y036002D03*
X007726Y035997D03*
X007736Y035897D03*
X007736Y035892D03*
X007741Y035887D03*
X007741Y035882D03*
X007746Y035872D03*
X007746Y035867D03*
X007751Y035862D03*
X007751Y035857D03*
X007756Y035847D03*
X007761Y035837D03*
X007761Y035832D03*
X007766Y035822D03*
X007771Y035812D03*
X007816Y035822D03*
X007816Y035827D03*
X007816Y035832D03*
X007816Y035837D03*
X007821Y035857D03*
X007821Y035862D03*
X007821Y035867D03*
X007821Y035872D03*
X007821Y035877D03*
X007826Y035892D03*
X007826Y035897D03*
X007826Y035902D03*
X007826Y035907D03*
X007826Y035912D03*
X007831Y035932D03*
X007831Y035937D03*
X007831Y035942D03*
X007831Y035947D03*
X007876Y035962D03*
X007881Y035957D03*
X007881Y035952D03*
X007886Y035942D03*
X007886Y035937D03*
X007891Y035932D03*
X007891Y035927D03*
X007896Y035917D03*
X007896Y035912D03*
X007901Y035902D03*
X007901Y035897D03*
X007906Y035892D03*
X007906Y035887D03*
X007911Y035877D03*
X007911Y035872D03*
X007916Y035867D03*
X007916Y035862D03*
X007921Y035852D03*
X007921Y035847D03*
X007926Y035837D03*
X007926Y035832D03*
X007931Y035827D03*
X007931Y035822D03*
X007936Y035812D03*
X007936Y035807D03*
X007986Y035807D03*
X007986Y035812D03*
X007986Y035817D03*
X007986Y035822D03*
X007991Y035827D03*
X007991Y035832D03*
X007991Y035837D03*
X007996Y035847D03*
X007996Y035852D03*
X007996Y035857D03*
X008011Y035907D03*
X008011Y035912D03*
X008016Y035922D03*
X008016Y035927D03*
X008016Y035932D03*
X008021Y035942D03*
X008021Y035947D03*
X008021Y035952D03*
X008026Y035957D03*
X008026Y035962D03*
X008026Y035967D03*
X008026Y035972D03*
X008031Y035977D03*
X008031Y035982D03*
X008031Y035987D03*
X008036Y035997D03*
X008036Y036002D03*
X008036Y036007D03*
X008041Y036017D03*
X008041Y036022D03*
X008041Y036027D03*
X008046Y036032D03*
X008091Y036032D03*
X008096Y036022D03*
X008101Y036012D03*
X008106Y036002D03*
X008111Y035992D03*
X008116Y035982D03*
X008121Y035972D03*
X008126Y035962D03*
X008131Y035952D03*
X008136Y035942D03*
X008141Y035932D03*
X008146Y035922D03*
X008151Y035912D03*
X008156Y035902D03*
X008161Y035892D03*
X008166Y035882D03*
X008171Y035872D03*
X008176Y035862D03*
X008181Y035852D03*
X008186Y035842D03*
X008191Y035832D03*
X008196Y035822D03*
X008201Y035812D03*
X008236Y035742D03*
X008241Y035732D03*
X008246Y035722D03*
X008251Y035712D03*
X008256Y035702D03*
X008261Y035692D03*
X008266Y035682D03*
X008271Y035672D03*
X008276Y035662D03*
X008281Y035652D03*
X008286Y035642D03*
X008291Y035632D03*
X008296Y035622D03*
X008301Y035612D03*
X008306Y035602D03*
X008311Y035592D03*
X008316Y035582D03*
X008321Y035572D03*
X008326Y035562D03*
X008331Y035552D03*
X008336Y035542D03*
X008341Y035532D03*
X008346Y035522D03*
X008351Y035512D03*
X008356Y035502D03*
X008361Y035492D03*
X008366Y035482D03*
X008371Y035472D03*
X008376Y035462D03*
X007966Y035732D03*
X007966Y035737D03*
X007801Y035742D03*
X007846Y036042D03*
X007846Y036047D03*
X008061Y036092D03*
X008061Y036097D03*
X007211Y036352D03*
X007211Y036357D03*
X007211Y036362D03*
X007211Y036367D03*
X007216Y036382D03*
X007216Y036387D03*
X007216Y036392D03*
X007221Y036407D03*
X007221Y036412D03*
X007221Y036417D03*
X007221Y036422D03*
X007226Y036447D03*
X007226Y036452D03*
X007226Y036457D03*
X007226Y036462D03*
X007226Y036467D03*
X007231Y036512D03*
X007231Y036517D03*
X007231Y036522D03*
X007231Y036527D03*
X007231Y036532D03*
X007231Y036537D03*
X007231Y036542D03*
X007231Y036547D03*
X007231Y036552D03*
X007231Y036557D03*
X007231Y036562D03*
X007231Y036567D03*
X007231Y036572D03*
X007206Y036347D03*
X007206Y036342D03*
X007206Y036337D03*
X007201Y036332D03*
X007201Y036327D03*
X007201Y036322D03*
X007201Y036317D03*
X007196Y036312D03*
X007196Y036307D03*
X007196Y036302D03*
X007191Y036297D03*
X007191Y036292D03*
X007186Y036282D03*
X007186Y036277D03*
X007181Y036272D03*
X007181Y036267D03*
X007176Y036257D03*
X007171Y036247D03*
X007166Y036237D03*
X007131Y036842D03*
X007126Y036852D03*
X007121Y036862D03*
X007116Y036872D03*
X007111Y036882D03*
X007106Y036892D03*
X007101Y036902D03*
X007096Y036912D03*
X007091Y036922D03*
X007086Y036932D03*
X007081Y036947D03*
X007076Y036957D03*
X007071Y036967D03*
X007066Y036977D03*
X007061Y036987D03*
X007061Y036992D03*
X007056Y037002D03*
X007051Y037012D03*
X007046Y037022D03*
X007046Y037027D03*
X007041Y037032D03*
X007041Y037037D03*
X007036Y037047D03*
X007031Y037057D03*
X007031Y037062D03*
X007026Y037072D03*
X007021Y037082D03*
X007021Y037087D03*
X007016Y037097D03*
X007011Y037107D03*
X007011Y037112D03*
X007006Y037117D03*
X007006Y037122D03*
X007001Y037132D03*
X007001Y037137D03*
X006996Y037147D03*
X006996Y037152D03*
X006991Y037157D03*
X006991Y037162D03*
X006991Y037167D03*
X006986Y037172D03*
X006986Y037177D03*
X006981Y037187D03*
X006981Y037192D03*
X006976Y037197D03*
X006976Y037202D03*
X006976Y037207D03*
X006971Y037212D03*
X006961Y037252D03*
X006956Y037257D03*
X006956Y037262D03*
X006956Y037267D03*
X006951Y037272D03*
X006951Y037277D03*
X006951Y037282D03*
X006946Y037287D03*
X006946Y037292D03*
X006946Y037297D03*
X006941Y037302D03*
X006941Y037307D03*
X006941Y037312D03*
X006941Y037317D03*
X006936Y037322D03*
X006936Y037327D03*
X006936Y037332D03*
X006931Y037337D03*
X006931Y037342D03*
X006931Y037347D03*
X006926Y037357D03*
X006926Y037362D03*
X006926Y037367D03*
X006921Y037372D03*
X006921Y037377D03*
X006921Y037382D03*
X006916Y037392D03*
X006916Y037397D03*
X006916Y037402D03*
X006911Y037412D03*
X006911Y037417D03*
X006911Y037422D03*
X006906Y037432D03*
X006906Y037437D03*
X006906Y037442D03*
X006901Y037452D03*
X006901Y037457D03*
X006901Y037462D03*
X006896Y037472D03*
X006896Y037477D03*
X006896Y037482D03*
X006896Y037487D03*
X006891Y037497D03*
X006891Y037502D03*
X006891Y037507D03*
X006891Y037512D03*
X006886Y037522D03*
X006886Y037527D03*
X006886Y037532D03*
X006881Y037547D03*
X006881Y037552D03*
X006881Y037557D03*
X006881Y037562D03*
X006876Y037577D03*
X006876Y037582D03*
X006876Y037587D03*
X006876Y037592D03*
X006871Y037602D03*
X006871Y037607D03*
X006871Y037612D03*
X006871Y037617D03*
X006871Y037622D03*
X006866Y037637D03*
X006866Y037642D03*
X006866Y037647D03*
X006866Y037652D03*
X006866Y037657D03*
X006861Y037677D03*
X006861Y037682D03*
X006861Y037687D03*
X006861Y037692D03*
X006861Y037697D03*
X006861Y037702D03*
X006856Y037732D03*
X006856Y037737D03*
X006856Y037742D03*
X006856Y037747D03*
X006856Y037752D03*
X006856Y037757D03*
X006856Y037762D03*
X006851Y037817D03*
X006851Y037822D03*
X006851Y037827D03*
X006851Y037832D03*
X006851Y037837D03*
X006851Y037842D03*
X006851Y037847D03*
X006851Y037852D03*
X006851Y037857D03*
X006851Y037862D03*
X006851Y037867D03*
X006851Y037872D03*
X006851Y037877D03*
X006851Y037882D03*
X006851Y037887D03*
X006851Y037892D03*
X006851Y037897D03*
X006851Y037902D03*
X006851Y037907D03*
X006851Y037912D03*
X006856Y037957D03*
X006856Y037962D03*
X006856Y037967D03*
X006856Y037972D03*
X006856Y037977D03*
X006856Y037982D03*
X006856Y037987D03*
X006861Y038012D03*
X006861Y038017D03*
X006861Y038022D03*
X006861Y038027D03*
X006861Y038032D03*
X006861Y038037D03*
X006866Y038052D03*
X006866Y038057D03*
X006866Y038062D03*
X006866Y038067D03*
X006871Y038082D03*
X006871Y038087D03*
X006871Y038092D03*
X006871Y038097D03*
X006871Y038102D03*
X006876Y038112D03*
X006876Y038117D03*
X006876Y038122D03*
X006876Y038127D03*
X006881Y038137D03*
X006881Y038142D03*
X006881Y038147D03*
X006886Y038157D03*
X006886Y038162D03*
X006886Y038167D03*
X006886Y038172D03*
X006891Y038177D03*
X006891Y038182D03*
X006891Y038187D03*
X006891Y038192D03*
X006896Y038197D03*
X006896Y038202D03*
X006896Y038207D03*
X006901Y038217D03*
X006901Y038222D03*
X006901Y038227D03*
X006906Y038232D03*
X006906Y038237D03*
X006906Y038242D03*
X006911Y038247D03*
X006911Y038252D03*
X006911Y038257D03*
X006916Y038262D03*
X006916Y038267D03*
X006916Y038272D03*
X006921Y038277D03*
X006921Y038282D03*
X006921Y038287D03*
X006926Y038292D03*
X006926Y038297D03*
X006931Y038307D03*
X006931Y038312D03*
X006936Y038317D03*
X006936Y038322D03*
X006941Y038332D03*
X006941Y038337D03*
X006946Y038342D03*
X006946Y038347D03*
X006951Y038357D03*
X006956Y038367D03*
X006961Y038377D03*
X006966Y038387D03*
X006971Y038397D03*
X006976Y038407D03*
X006986Y038427D03*
X006991Y038437D03*
X005701Y036527D03*
X005696Y036517D03*
X005691Y036507D03*
X005666Y036457D03*
X005661Y036447D03*
X005656Y036437D03*
X005651Y036427D03*
X005646Y036417D03*
X005641Y036407D03*
X005641Y036402D03*
X005636Y036397D03*
X005636Y036392D03*
X005631Y036382D03*
X005631Y036377D03*
X005626Y036372D03*
X005626Y036367D03*
X005621Y036357D03*
X005621Y036352D03*
X005616Y036347D03*
X005616Y036342D03*
X005611Y036332D03*
X005611Y036327D03*
X005606Y036322D03*
X005606Y036317D03*
X005606Y036312D03*
X005601Y036307D03*
X005601Y036302D03*
X005601Y036297D03*
X005596Y036292D03*
X005596Y036287D03*
X005596Y036282D03*
X005591Y036277D03*
X005591Y036272D03*
X005591Y036267D03*
X005586Y036262D03*
X005586Y036257D03*
X005586Y036252D03*
X005581Y036247D03*
X005581Y036242D03*
X005581Y036237D03*
X005576Y036232D03*
X005576Y036227D03*
X005576Y036222D03*
X005571Y036217D03*
X005571Y036212D03*
X005571Y036207D03*
X005571Y036202D03*
X005566Y036197D03*
X005566Y036192D03*
X005566Y036187D03*
X005561Y036182D03*
X005561Y036177D03*
X005561Y036172D03*
X005561Y036167D03*
X005556Y036162D03*
X005556Y036157D03*
X005556Y036152D03*
X005556Y036147D03*
X005551Y036142D03*
X005551Y036137D03*
X005551Y036132D03*
X005546Y036122D03*
X005546Y036117D03*
X005546Y036112D03*
X005546Y036107D03*
X005541Y036102D03*
X005541Y036097D03*
X005541Y036092D03*
X005541Y036087D03*
X005536Y036077D03*
X005536Y036072D03*
X005536Y036067D03*
X005531Y036057D03*
X005531Y036052D03*
X005531Y036047D03*
X005531Y036042D03*
X005526Y036032D03*
X005526Y036027D03*
X005526Y036022D03*
X005526Y036017D03*
X005521Y036007D03*
X005521Y036002D03*
X005521Y035997D03*
X005521Y035992D03*
X005516Y035977D03*
X005516Y035972D03*
X005516Y035967D03*
X005516Y035962D03*
X005511Y035947D03*
X005511Y035942D03*
X005511Y035937D03*
X005511Y035932D03*
X005506Y035917D03*
X005506Y035912D03*
X005506Y035907D03*
X005506Y035902D03*
X005506Y035897D03*
X005501Y035882D03*
X005501Y035877D03*
X005501Y035872D03*
X005501Y035867D03*
X005501Y035862D03*
X005496Y035842D03*
X005496Y035837D03*
X005496Y035832D03*
X005496Y035827D03*
X005496Y035822D03*
X005491Y035802D03*
X005491Y035797D03*
X005491Y035792D03*
X005491Y035787D03*
X005491Y035782D03*
X005486Y035762D03*
X005486Y035757D03*
X005486Y035752D03*
X005486Y035747D03*
X005486Y035742D03*
X005486Y035737D03*
X005481Y035707D03*
X005481Y035702D03*
X005481Y035697D03*
X005481Y035692D03*
X005481Y035687D03*
X005481Y035682D03*
X005476Y035652D03*
X005476Y035647D03*
X005476Y035642D03*
X005476Y035637D03*
X005476Y035632D03*
X005476Y035627D03*
X005471Y035587D03*
X005471Y035582D03*
X005471Y035577D03*
X005471Y035572D03*
X005471Y035567D03*
X005471Y035562D03*
X005471Y035557D03*
X005471Y035552D03*
X005471Y035547D03*
X005466Y035512D03*
X005466Y035507D03*
X005466Y035502D03*
X005466Y035497D03*
X005466Y035492D03*
X005466Y035487D03*
X005466Y035482D03*
X005466Y035477D03*
X005466Y035472D03*
X005466Y035467D03*
X005461Y035412D03*
X005461Y035407D03*
X005461Y035402D03*
X005461Y035397D03*
X005461Y035392D03*
X005461Y035387D03*
X005461Y035382D03*
X005461Y035377D03*
X005461Y035372D03*
X005461Y035367D03*
X005461Y035362D03*
X005461Y035357D03*
X005456Y035287D03*
X005456Y035282D03*
X005456Y035277D03*
X005456Y035272D03*
X005456Y035267D03*
X005456Y035262D03*
X005456Y035257D03*
X005456Y035252D03*
X005456Y035247D03*
X005456Y035242D03*
X005456Y035237D03*
X005456Y035232D03*
X005456Y035227D03*
X005456Y035222D03*
X005456Y035217D03*
X005456Y035212D03*
X005451Y035142D03*
X005451Y035137D03*
X005451Y035132D03*
X005451Y035127D03*
X005451Y035122D03*
X005451Y035117D03*
X005451Y035112D03*
X005451Y035107D03*
X005451Y035102D03*
X005451Y035097D03*
X005451Y035092D03*
X005451Y035087D03*
X005451Y035082D03*
X005451Y035077D03*
X005451Y035072D03*
X005451Y035067D03*
X005446Y034997D03*
X005446Y034992D03*
X005446Y034987D03*
X005446Y034982D03*
X005446Y034977D03*
X005446Y034972D03*
X005446Y034967D03*
X005446Y034962D03*
X005446Y034957D03*
X005446Y034952D03*
X005446Y034947D03*
X005446Y034942D03*
X005446Y034937D03*
X005441Y034877D03*
X005441Y034872D03*
X005441Y034867D03*
X005441Y034862D03*
X005441Y034857D03*
X005441Y034852D03*
X005441Y034847D03*
X005441Y034842D03*
X005441Y034837D03*
X005441Y034832D03*
X005441Y034827D03*
X005436Y034782D03*
X005436Y034777D03*
X005436Y034772D03*
X005436Y034767D03*
X005436Y034762D03*
X005436Y034757D03*
X005436Y034752D03*
X005436Y034747D03*
X005436Y034742D03*
X005431Y034702D03*
X005431Y034697D03*
X005431Y034692D03*
X005431Y034687D03*
X005431Y034682D03*
X005431Y034677D03*
X005431Y034672D03*
X005426Y034642D03*
X005426Y034637D03*
X005426Y034632D03*
X005426Y034627D03*
X005426Y034622D03*
X005426Y034617D03*
X005426Y034612D03*
X005421Y034582D03*
X005421Y034577D03*
X005421Y034572D03*
X005421Y034567D03*
X005421Y034562D03*
X005416Y034537D03*
X005416Y034532D03*
X005416Y034527D03*
X005416Y034522D03*
X005416Y034517D03*
X005411Y034497D03*
X005411Y034492D03*
X005411Y034487D03*
X005411Y034482D03*
X005411Y034477D03*
X005411Y034472D03*
X005406Y034452D03*
X005406Y034447D03*
X005406Y034442D03*
X005406Y034437D03*
X005401Y034417D03*
X005401Y034412D03*
X005401Y034407D03*
X005401Y034402D03*
X005396Y034387D03*
X005396Y034382D03*
X005396Y034377D03*
X005396Y034372D03*
X005396Y034367D03*
X005391Y034357D03*
X005391Y034352D03*
X005391Y034347D03*
X005391Y034342D03*
X005386Y034327D03*
X005386Y034322D03*
X005386Y034317D03*
X005386Y034312D03*
X005381Y034302D03*
X005381Y034297D03*
X005381Y034292D03*
X005381Y034287D03*
X005376Y034277D03*
X005376Y034272D03*
X005376Y034267D03*
X005376Y034262D03*
X005371Y034252D03*
X005371Y034247D03*
X005371Y034242D03*
X005371Y034237D03*
X005366Y034227D03*
X005366Y034222D03*
X005366Y034217D03*
X005361Y034207D03*
X005361Y034202D03*
X005361Y034197D03*
X005356Y034187D03*
X005356Y034182D03*
X005356Y034177D03*
X005351Y034167D03*
X005351Y034162D03*
X005351Y034157D03*
X005346Y034147D03*
X005346Y034142D03*
X005346Y034137D03*
X005341Y034132D03*
X005341Y034127D03*
X005341Y034122D03*
X005336Y034112D03*
X005336Y034107D03*
X005336Y034102D03*
X005331Y034097D03*
X005331Y034092D03*
X005331Y034087D03*
X005326Y034082D03*
X005326Y034077D03*
X005326Y034072D03*
X005321Y034067D03*
X005321Y034062D03*
X005321Y034057D03*
X005316Y034052D03*
X005316Y034047D03*
X005316Y034042D03*
X005311Y034037D03*
X005311Y034032D03*
X005311Y034027D03*
X005306Y034022D03*
X005306Y034017D03*
X005306Y034012D03*
X005301Y034007D03*
X005301Y034002D03*
X005296Y033992D03*
X005296Y033987D03*
X005291Y033977D03*
X005286Y033967D03*
X005286Y033962D03*
X005281Y033952D03*
X005276Y033942D03*
X005276Y033937D03*
X005271Y033932D03*
X005271Y033927D03*
X005266Y033917D03*
X005261Y033907D03*
X005256Y033897D03*
X005251Y033887D03*
X006576Y033182D03*
X006581Y033167D03*
X006581Y033162D03*
X006581Y033157D03*
X006581Y033152D03*
X006586Y033137D03*
X006586Y033132D03*
X006586Y033127D03*
X006586Y033122D03*
X006591Y033107D03*
X006591Y033102D03*
X006591Y033097D03*
X006591Y033092D03*
X006596Y033077D03*
X006596Y033072D03*
X006596Y033067D03*
X006596Y033062D03*
X006601Y033052D03*
X006601Y033047D03*
X006601Y033042D03*
X006606Y033032D03*
X006606Y033027D03*
X006606Y033022D03*
X006606Y033017D03*
X006611Y033012D03*
X006611Y033007D03*
X006611Y033002D03*
X006611Y032997D03*
X006616Y032992D03*
X006616Y032987D03*
X006616Y032982D03*
X006621Y032977D03*
X006621Y032972D03*
X006621Y032967D03*
X006626Y032957D03*
X006626Y032952D03*
X006631Y032942D03*
X006631Y032937D03*
X006636Y032927D03*
X006636Y032922D03*
X006641Y032912D03*
X006646Y032902D03*
X006646Y032897D03*
X006651Y032892D03*
X006651Y032887D03*
X006656Y032877D03*
X006661Y032867D03*
X006666Y032857D03*
X006671Y032847D03*
X006676Y032837D03*
X006681Y032827D03*
X006961Y032507D03*
X007086Y032662D03*
X007091Y032672D03*
X007096Y032682D03*
X007106Y032702D03*
X007111Y032712D03*
X007116Y032722D03*
X007121Y032732D03*
X007126Y032742D03*
X007126Y032747D03*
X007131Y032752D03*
X007131Y032757D03*
X007136Y032767D03*
X007136Y032772D03*
X007141Y032782D03*
X007141Y032787D03*
X007146Y032792D03*
X007146Y032797D03*
X007146Y032802D03*
X007151Y032807D03*
X007151Y032812D03*
X007151Y032817D03*
X007156Y032822D03*
X007156Y032827D03*
X007156Y032832D03*
X007161Y032837D03*
X007161Y032842D03*
X007161Y032847D03*
X007166Y032857D03*
X007166Y032862D03*
X007166Y032867D03*
X007171Y032872D03*
X007171Y032877D03*
X007171Y032882D03*
X007171Y032887D03*
X007176Y032892D03*
X007176Y032897D03*
X007176Y032902D03*
X007181Y032907D03*
X007181Y032912D03*
X007181Y032917D03*
X007181Y032922D03*
X007186Y032927D03*
X007186Y032932D03*
X007186Y032937D03*
X007186Y032942D03*
X007191Y032947D03*
X007191Y032952D03*
X007191Y032957D03*
X007191Y032962D03*
X007196Y032967D03*
X007196Y032972D03*
X007196Y032977D03*
X006811Y033462D03*
X006811Y033467D03*
X006816Y033482D03*
X006816Y033487D03*
X006816Y033492D03*
X006816Y033497D03*
X006816Y033502D03*
X006821Y033517D03*
X006821Y033522D03*
X006821Y033527D03*
X006821Y033532D03*
X006821Y033537D03*
X006826Y033552D03*
X006826Y033557D03*
X006826Y033562D03*
X006826Y033567D03*
X006826Y033572D03*
X006831Y033592D03*
X006831Y033597D03*
X006831Y033602D03*
X006831Y033607D03*
X006836Y033627D03*
X006836Y033632D03*
X006836Y033637D03*
X006836Y033642D03*
X006841Y033662D03*
X006841Y033667D03*
X006841Y033672D03*
X006841Y033677D03*
X006846Y033697D03*
X006846Y033702D03*
X006846Y033707D03*
X006846Y033712D03*
X006846Y033717D03*
X006851Y033732D03*
X006851Y033737D03*
X006851Y033742D03*
X006851Y033747D03*
X006851Y033752D03*
X006856Y033767D03*
X006856Y033772D03*
X006856Y033777D03*
X006856Y033782D03*
X006856Y033787D03*
X006861Y033802D03*
X006861Y033807D03*
X006861Y033812D03*
X006861Y033817D03*
X006861Y033822D03*
X006866Y033837D03*
X006866Y033842D03*
X006866Y033847D03*
X006866Y033852D03*
X006866Y033857D03*
X006871Y033872D03*
X006871Y033877D03*
X006871Y033882D03*
X006871Y033887D03*
X006871Y033892D03*
X006876Y033912D03*
X006876Y033917D03*
X006876Y033922D03*
X006876Y033927D03*
X006881Y033947D03*
X006881Y033952D03*
X006881Y033957D03*
X006881Y033962D03*
X006886Y033982D03*
X006886Y033987D03*
X006886Y033992D03*
X006886Y033997D03*
X006891Y034017D03*
X006891Y034022D03*
X006891Y034027D03*
X006891Y034032D03*
X006891Y034037D03*
X006896Y034052D03*
X006896Y034057D03*
X006896Y034062D03*
X006896Y034067D03*
X006896Y034072D03*
X006901Y034087D03*
X006901Y034092D03*
X006901Y034097D03*
X006901Y034102D03*
X006901Y034107D03*
X006906Y034122D03*
X006906Y034127D03*
X006906Y034132D03*
X006906Y034137D03*
X006906Y034142D03*
X006911Y034157D03*
X006911Y034162D03*
X006911Y034167D03*
X006911Y034172D03*
X006911Y034177D03*
X006916Y034192D03*
X006916Y034197D03*
X006916Y034202D03*
X006916Y034207D03*
X006916Y034212D03*
X006921Y034232D03*
X006921Y034237D03*
X006921Y034242D03*
X006921Y034247D03*
X006926Y034267D03*
X006926Y034272D03*
X006926Y034277D03*
X006926Y034282D03*
X006931Y034302D03*
X006931Y034307D03*
X006931Y034312D03*
X006931Y034317D03*
X006936Y034337D03*
X006936Y034342D03*
X006936Y034347D03*
X006936Y034352D03*
X006936Y034357D03*
X006941Y034372D03*
X006941Y034377D03*
X006941Y034382D03*
X006941Y034387D03*
X006941Y034392D03*
X006946Y034407D03*
X006946Y034412D03*
X006946Y034417D03*
X006946Y034422D03*
X006946Y034427D03*
X006951Y034442D03*
X006951Y034447D03*
X006951Y034452D03*
X006951Y034457D03*
X006951Y034462D03*
X006956Y034477D03*
X007431Y034252D03*
X007456Y034297D03*
X007461Y034307D03*
X007466Y034317D03*
X007471Y034327D03*
X007491Y034362D03*
X007496Y034372D03*
X007501Y034382D03*
X007506Y034392D03*
X007531Y034437D03*
X007536Y034447D03*
X007541Y034457D03*
X007546Y034467D03*
X007571Y034512D03*
X007576Y034522D03*
X007581Y034532D03*
X007586Y034542D03*
X007606Y034577D03*
X007611Y034587D03*
X007616Y034597D03*
X007621Y034607D03*
X007686Y034727D03*
X007691Y034737D03*
X007696Y034747D03*
X007701Y034757D03*
X007721Y034792D03*
X007726Y034802D03*
X007731Y034812D03*
X007736Y034822D03*
X007706Y034892D03*
X007686Y034927D03*
X007666Y034962D03*
X007646Y034997D03*
X007626Y035032D03*
X007621Y035042D03*
X007601Y035077D03*
X007581Y035112D03*
X007561Y035147D03*
X007541Y035182D03*
X007516Y035227D03*
X007496Y035262D03*
X007476Y035297D03*
X007456Y035332D03*
X007436Y035367D03*
X007431Y035377D03*
X007411Y035412D03*
X007391Y035447D03*
X007361Y035502D03*
X007801Y034942D03*
X007761Y034612D03*
X007761Y034607D03*
X007761Y034602D03*
X007761Y034597D03*
X007761Y034592D03*
X007761Y034587D03*
X007761Y034582D03*
X007761Y034577D03*
X007756Y034547D03*
X007756Y034542D03*
X007756Y034537D03*
X007756Y034532D03*
X007756Y034527D03*
X007756Y034522D03*
X007756Y034517D03*
X007751Y034487D03*
X007751Y034482D03*
X007751Y034477D03*
X007751Y034472D03*
X007751Y034467D03*
X007751Y034462D03*
X007751Y034457D03*
X007751Y034452D03*
X007746Y034422D03*
X007746Y034417D03*
X007746Y034412D03*
X007746Y034407D03*
X007746Y034402D03*
X007746Y034397D03*
X007746Y034392D03*
X007741Y034362D03*
X007741Y034357D03*
X007741Y034352D03*
X007741Y034347D03*
X007741Y034342D03*
X007741Y034337D03*
X007741Y034332D03*
X007741Y034327D03*
X007736Y034297D03*
X007736Y034292D03*
X007736Y034287D03*
X007736Y034282D03*
X007736Y034277D03*
X007736Y034272D03*
X007736Y034267D03*
X007731Y034237D03*
X007731Y034232D03*
X007731Y034227D03*
X007731Y034222D03*
X007731Y034217D03*
X007976Y034157D03*
X007976Y034152D03*
X007976Y034147D03*
X007976Y034142D03*
X007976Y034137D03*
X007976Y034132D03*
X007976Y034127D03*
X007981Y034092D03*
X007981Y034087D03*
X007981Y034082D03*
X007981Y034077D03*
X007981Y034072D03*
X007981Y034067D03*
X007981Y034062D03*
X007981Y034057D03*
X007986Y034027D03*
X007986Y034022D03*
X007986Y034017D03*
X007986Y034012D03*
X007986Y034007D03*
X007986Y034002D03*
X007986Y033997D03*
X007986Y033992D03*
X007991Y033957D03*
X007991Y033952D03*
X007991Y033947D03*
X007991Y033942D03*
X007991Y033937D03*
X007991Y033932D03*
X007991Y033927D03*
X007996Y033892D03*
X007996Y033887D03*
X007996Y033882D03*
X007996Y033877D03*
X007996Y033872D03*
X007996Y033867D03*
X007996Y033862D03*
X008001Y033827D03*
X008001Y033822D03*
X008001Y033817D03*
X008001Y033812D03*
X008001Y033807D03*
X008001Y033802D03*
X008001Y033797D03*
X008001Y033792D03*
X008006Y033757D03*
X008006Y033752D03*
X008006Y033747D03*
X008006Y033742D03*
X008006Y033737D03*
X008006Y033732D03*
X008006Y033727D03*
X008011Y033692D03*
X008011Y033687D03*
X008011Y033682D03*
X008011Y033677D03*
X008011Y033672D03*
X008011Y033667D03*
X008011Y033662D03*
X008011Y033657D03*
X008016Y033627D03*
X008016Y033622D03*
X008016Y033617D03*
X008016Y033612D03*
X008016Y033607D03*
X008016Y033602D03*
X008016Y033597D03*
X008016Y033592D03*
X008021Y033557D03*
X008021Y033552D03*
X008021Y033547D03*
X008021Y033542D03*
X008021Y033537D03*
X008021Y033532D03*
X008021Y033527D03*
X008021Y033512D03*
X009936Y036987D03*
X009936Y036992D03*
X009936Y036997D03*
X009936Y037002D03*
X009936Y037007D03*
X009936Y037012D03*
X009941Y037037D03*
X009941Y037042D03*
X009941Y037047D03*
X009941Y037052D03*
X009941Y037057D03*
X009941Y037062D03*
X009941Y037067D03*
X009941Y037072D03*
X009946Y037117D03*
X009946Y037122D03*
X009946Y037127D03*
X009946Y037132D03*
X009946Y037137D03*
X009946Y037142D03*
X009946Y037147D03*
X009946Y037152D03*
X009946Y037157D03*
X009946Y037162D03*
X009946Y037167D03*
X009946Y037172D03*
X009946Y037177D03*
X009946Y037182D03*
X009946Y037187D03*
X009946Y037192D03*
X009946Y037197D03*
X009946Y037202D03*
X009946Y037207D03*
X009946Y037212D03*
X009946Y037217D03*
D17*
X009934Y037397D03*
X009939Y037402D03*
X009944Y037407D03*
X009774Y037397D03*
X009769Y037402D03*
X009774Y037612D03*
X009939Y037612D03*
X009979Y037807D03*
X009974Y037812D03*
X009969Y037817D03*
X009964Y037822D03*
X010049Y037922D03*
X009464Y037812D03*
X009359Y037472D03*
X009359Y037467D03*
X009359Y037462D03*
X009364Y037452D03*
X009364Y037447D03*
X009364Y037442D03*
X009364Y037437D03*
X009449Y037302D03*
X009454Y037297D03*
X009459Y037292D03*
X009464Y037287D03*
X009469Y037282D03*
X009474Y037277D03*
X009479Y037272D03*
X009484Y037267D03*
X009144Y037382D03*
X009139Y037377D03*
X009134Y037372D03*
X009129Y037367D03*
X009124Y037362D03*
X008819Y037682D03*
X008824Y037687D03*
X008829Y037692D03*
X008664Y037682D03*
X008659Y037687D03*
X008654Y037692D03*
X008659Y037897D03*
X008664Y037902D03*
X008819Y037902D03*
X008824Y037897D03*
X008539Y038062D03*
X008519Y038042D03*
X008489Y038012D03*
X008254Y038252D03*
X008259Y038257D03*
X008264Y038262D03*
X008269Y038267D03*
X008274Y038272D03*
X008279Y038277D03*
X008284Y038282D03*
X008289Y038287D03*
X008294Y038292D03*
X008299Y038297D03*
X008304Y038302D03*
X008309Y038307D03*
X008314Y038312D03*
X008349Y038342D03*
X008354Y038347D03*
X008249Y038247D03*
X008244Y038242D03*
X008209Y038207D03*
X008204Y038202D03*
X008199Y038197D03*
X008134Y038127D03*
X008129Y038122D03*
X008499Y037392D03*
X008504Y037387D03*
X008509Y037382D03*
X008514Y037377D03*
X008519Y037372D03*
X008524Y037367D03*
X008529Y037362D03*
X008534Y037357D03*
X009159Y038017D03*
X009154Y038022D03*
X009149Y038027D03*
X009144Y038032D03*
X009139Y038037D03*
X009134Y038042D03*
X009129Y038047D03*
X009124Y038052D03*
X009119Y038057D03*
X009334Y038307D03*
X009159Y038462D03*
X009094Y038502D03*
X007239Y038737D03*
X007204Y038707D03*
X007199Y038702D03*
X007194Y038697D03*
X007189Y038692D03*
X007184Y038687D03*
X007179Y038682D03*
X007174Y038677D03*
X007169Y038672D03*
X007164Y038667D03*
X007159Y038662D03*
X007154Y038657D03*
X007149Y038652D03*
X007144Y038647D03*
X007139Y038642D03*
X007134Y038637D03*
X007129Y036547D03*
X007124Y036542D03*
X007119Y036537D03*
X007114Y036532D03*
X007109Y036527D03*
X007104Y036522D03*
X007099Y036517D03*
X007094Y036512D03*
X007114Y036162D03*
X007109Y036157D03*
X007104Y036152D03*
X007099Y036147D03*
X007094Y036142D03*
X007089Y035397D03*
X007799Y035762D03*
X007799Y035767D03*
X007739Y035907D03*
X007739Y035912D03*
X007849Y036017D03*
X007849Y036022D03*
X008064Y036072D03*
X008064Y036077D03*
X007964Y035762D03*
X007964Y035757D03*
X007964Y035752D03*
X008224Y035752D03*
X008374Y035707D03*
X008424Y035382D03*
X008424Y035377D03*
X008429Y035372D03*
X008429Y035367D03*
X008749Y035577D03*
X008754Y035582D03*
X008759Y035587D03*
X008764Y035592D03*
X008769Y035597D03*
X008774Y035602D03*
X008779Y035607D03*
X008784Y035612D03*
X008789Y035617D03*
X008794Y035622D03*
X008829Y034957D03*
X008834Y034952D03*
X008839Y034947D03*
X008844Y034942D03*
X008849Y034937D03*
X008854Y034932D03*
X008884Y034907D03*
X008889Y034902D03*
X008894Y034897D03*
X008899Y034892D03*
X008904Y034887D03*
X008909Y034882D03*
X008914Y034877D03*
X008919Y034872D03*
X008924Y034867D03*
X008929Y034862D03*
X008934Y034857D03*
X008939Y034852D03*
X008969Y034827D03*
X008974Y034822D03*
X008979Y034817D03*
X008984Y034812D03*
X008989Y034807D03*
X008994Y034802D03*
X008999Y034797D03*
X009004Y034792D03*
X009009Y034787D03*
X009014Y034782D03*
X009019Y034777D03*
X009024Y034772D03*
X009054Y034747D03*
X009059Y034742D03*
X009064Y034737D03*
X009069Y034732D03*
X009074Y034727D03*
X009079Y034722D03*
X009084Y034717D03*
X009419Y035927D03*
X009424Y035932D03*
X009429Y035937D03*
X009434Y035942D03*
X009439Y035947D03*
X009444Y035952D03*
X009449Y035957D03*
X009454Y035962D03*
X009459Y035967D03*
X009469Y035972D03*
X009474Y035977D03*
X009479Y035982D03*
X009484Y035987D03*
X009514Y036022D03*
X009519Y036027D03*
X009524Y036032D03*
X009529Y036037D03*
X009534Y036042D03*
X007779Y034892D03*
X007154Y034312D03*
X007149Y034317D03*
X007144Y034322D03*
X007114Y034357D03*
X007109Y034362D03*
X007079Y034397D03*
X007074Y034402D03*
X007069Y034407D03*
X007039Y034442D03*
X007034Y034447D03*
X006969Y034517D03*
X007184Y034277D03*
X007189Y034272D03*
X008659Y033212D03*
X008959Y033047D03*
X008964Y033042D03*
X008969Y033037D03*
X008974Y033032D03*
X008979Y033027D03*
X008984Y033022D03*
X008989Y033017D03*
X007014Y032562D03*
X007009Y032557D03*
X007004Y032552D03*
X006999Y032547D03*
X006994Y032542D03*
X006964Y032512D03*
X006919Y032552D03*
X006884Y032582D03*
X006879Y032587D03*
X006874Y032592D03*
X006869Y032597D03*
X006864Y032602D03*
X006859Y032607D03*
X006854Y032612D03*
X006849Y032617D03*
X006844Y032622D03*
X006839Y032627D03*
X006834Y032632D03*
X006829Y032637D03*
X006824Y032642D03*
X006819Y032647D03*
X006814Y032652D03*
X006809Y032657D03*
X006804Y032662D03*
X006799Y032667D03*
X006794Y032672D03*
X006789Y032677D03*
X005849Y036737D03*
X005854Y036742D03*
X005884Y036777D03*
X005889Y036782D03*
X005894Y036787D03*
X005899Y036792D03*
X005904Y036797D03*
X005909Y036802D03*
X005914Y036807D03*
X005949Y036837D03*
X005954Y036842D03*
X005959Y036847D03*
D18*
X006974Y036417D03*
X006989Y036427D03*
X006994Y036432D03*
X007004Y036437D03*
X007009Y036442D03*
X007014Y036447D03*
X007029Y036457D03*
X007034Y036462D03*
X007244Y036612D03*
X007244Y036617D03*
X007289Y036697D03*
X007279Y036702D03*
X007274Y036707D03*
X007269Y036712D03*
X007259Y036717D03*
X007254Y036722D03*
X007239Y036732D03*
X007234Y036737D03*
X007224Y036742D03*
X007219Y036747D03*
X007204Y036757D03*
X007189Y036767D03*
X007069Y036122D03*
X007064Y036117D03*
X007354Y035497D03*
X007729Y035937D03*
X007729Y035942D03*
X007724Y035947D03*
X007854Y035992D03*
X007854Y035997D03*
X008019Y035892D03*
X008059Y035862D03*
X008069Y035857D03*
X008074Y035852D03*
X008079Y035847D03*
X008089Y035842D03*
X007964Y035772D03*
X008219Y035757D03*
X008064Y036062D03*
X008414Y035412D03*
X008414Y035407D03*
X008419Y035397D03*
X009304Y035837D03*
X009309Y035842D03*
X009319Y035847D03*
X009324Y035852D03*
X009329Y035857D03*
X009339Y035862D03*
X009344Y035867D03*
X009364Y035882D03*
X009509Y036347D03*
X009524Y037237D03*
X009509Y037247D03*
X009504Y037252D03*
X009374Y037402D03*
X009374Y037407D03*
X009369Y037417D03*
X009369Y037422D03*
X009099Y037342D03*
X009094Y037337D03*
X009084Y037332D03*
X009079Y037327D03*
X009064Y037317D03*
X008814Y037677D03*
X008669Y037677D03*
X008669Y037907D03*
X008814Y037907D03*
X008569Y038087D03*
X008564Y038082D03*
X008689Y038312D03*
X008549Y038502D03*
X008554Y038507D03*
X008559Y038512D03*
X008569Y038517D03*
X008574Y038522D03*
X008589Y038532D03*
X008604Y038542D03*
X008609Y038547D03*
X008624Y038557D03*
X008639Y038567D03*
X008654Y038577D03*
X008669Y038587D03*
X008684Y038597D03*
X008539Y038497D03*
X008534Y038492D03*
X008519Y038482D03*
X008514Y038477D03*
X008499Y038467D03*
X008494Y038462D03*
X008474Y038447D03*
X008469Y038442D03*
X008449Y038427D03*
X008189Y038182D03*
X009074Y038092D03*
X009089Y038082D03*
X009219Y038362D03*
X009344Y038522D03*
X009339Y038527D03*
X009334Y038532D03*
X009324Y038537D03*
X009319Y038542D03*
X009304Y038552D03*
X009299Y038557D03*
X009289Y038562D03*
X009284Y038567D03*
X009269Y038577D03*
X009264Y038582D03*
X009254Y038587D03*
X009249Y038592D03*
X009244Y038597D03*
X009234Y038602D03*
X009229Y038607D03*
X009214Y038617D03*
X009209Y038622D03*
X009199Y038627D03*
X009054Y038732D03*
X009049Y038737D03*
X009034Y038747D03*
X009104Y038842D03*
X009149Y038877D03*
X009154Y038882D03*
X009354Y038517D03*
X009359Y038512D03*
X009374Y038502D03*
X009379Y038497D03*
X009389Y038492D03*
X009394Y038487D03*
X009399Y038482D03*
X009409Y038477D03*
X009414Y038472D03*
X009429Y038462D03*
X009434Y038457D03*
X009444Y038452D03*
X009449Y038447D03*
X009514Y037852D03*
X009509Y037847D03*
X009494Y037837D03*
X009784Y037622D03*
X009924Y037622D03*
X009939Y037842D03*
X009934Y037847D03*
X009924Y037852D03*
X009919Y037387D03*
X009854Y037347D03*
X009789Y037387D03*
X008574Y037327D03*
X008564Y037332D03*
X008559Y037337D03*
X007359Y038827D03*
X007344Y038817D03*
X007329Y038807D03*
X007324Y038802D03*
X007314Y038797D03*
X007309Y038792D03*
X007294Y038782D03*
X007289Y038777D03*
X007274Y038767D03*
X007269Y038762D03*
X008634Y039152D03*
X007644Y034672D03*
X006974Y034507D03*
X006964Y032517D03*
X008914Y033082D03*
X008919Y033077D03*
X008929Y033072D03*
X008934Y033067D03*
D19*
X008884Y033102D03*
X008874Y033107D03*
X008004Y033502D03*
X007254Y033257D03*
X006829Y033447D03*
X006964Y032522D03*
X005259Y033872D03*
X007644Y034677D03*
X007794Y035792D03*
X007794Y035797D03*
X007794Y035802D03*
X007719Y035957D03*
X007714Y035967D03*
X007854Y035977D03*
X007854Y035982D03*
X007854Y035987D03*
X008209Y035767D03*
X008404Y035442D03*
X008404Y035437D03*
X008409Y035427D03*
X008704Y034927D03*
X008699Y034922D03*
X008689Y034917D03*
X008679Y034912D03*
X008674Y034907D03*
X008664Y034902D03*
X008714Y034932D03*
X008724Y034937D03*
X008729Y034942D03*
X008739Y034947D03*
X008749Y034952D03*
X008754Y034957D03*
X009224Y035787D03*
X009234Y035792D03*
X009239Y035797D03*
X009249Y035802D03*
X009039Y037302D03*
X009049Y037307D03*
X009379Y037382D03*
X009379Y037387D03*
X009794Y037627D03*
X009854Y037662D03*
X009914Y037627D03*
X009909Y037862D03*
X009539Y037867D03*
X009529Y037862D03*
X009244Y038122D03*
X009059Y038102D03*
X009049Y038107D03*
X009324Y038312D03*
X009184Y038637D03*
X009174Y038642D03*
X009079Y038827D03*
X009184Y038902D03*
X009194Y038907D03*
X008879Y038717D03*
X008869Y038712D03*
X008854Y038702D03*
X008844Y038697D03*
X008829Y038687D03*
X008819Y038682D03*
X008809Y038677D03*
X008804Y038672D03*
X008794Y038667D03*
X008779Y038657D03*
X008769Y038652D03*
X008754Y038642D03*
X008739Y038632D03*
X008729Y038627D03*
X008714Y038617D03*
X008699Y038607D03*
X008609Y038112D03*
X008599Y038107D03*
X008184Y038172D03*
X008179Y038167D03*
X008604Y037307D03*
X007249Y036597D03*
X007144Y036797D03*
X007069Y036842D03*
X007054Y036852D03*
X007044Y036857D03*
X006899Y036367D03*
X006884Y036357D03*
X006874Y036352D03*
X006859Y036342D03*
X006849Y036337D03*
X006834Y036327D03*
X006824Y036322D03*
X007029Y036097D03*
X007039Y036102D03*
X006029Y036902D03*
X005984Y036927D03*
X005949Y036947D03*
X005914Y036967D03*
X005904Y036972D03*
X005869Y036992D03*
X005834Y037012D03*
X005824Y037017D03*
X007374Y038837D03*
X007389Y038847D03*
X007399Y038852D03*
X007404Y038857D03*
X007414Y038862D03*
X007424Y038867D03*
X007449Y038882D03*
X009929Y037242D03*
D20*
X009866Y037212D03*
X009571Y037212D03*
X009006Y037287D03*
X008741Y037947D03*
X009011Y038127D03*
X009236Y038127D03*
X009316Y038317D03*
X009531Y038387D03*
X009556Y038357D03*
X009141Y038467D03*
X009056Y038812D03*
X009231Y038927D03*
X009241Y038932D03*
X009566Y037882D03*
X009871Y037882D03*
X008951Y036467D03*
X009136Y035742D03*
X009126Y035737D03*
X008196Y035777D03*
X008026Y035877D03*
X007706Y035982D03*
X007701Y035992D03*
X007001Y036082D03*
X006611Y036212D03*
X006601Y036207D03*
X006591Y036202D03*
X006581Y036197D03*
X006571Y036192D03*
X006561Y036187D03*
X006526Y036172D03*
X006516Y036167D03*
X006506Y036162D03*
X006311Y036757D03*
X006301Y036762D03*
X006276Y036772D03*
X006266Y036777D03*
X006256Y036782D03*
X006246Y036787D03*
X006236Y036792D03*
X006226Y036797D03*
X006216Y036802D03*
X006031Y036897D03*
X006916Y036922D03*
X006926Y036917D03*
X006936Y036912D03*
X007121Y036817D03*
X008166Y038142D03*
X007546Y038932D03*
X007536Y038927D03*
X007526Y038922D03*
X007556Y038937D03*
X006981Y034487D03*
X007946Y034162D03*
X007996Y033497D03*
X008591Y033152D03*
X008601Y033157D03*
X008611Y033162D03*
X008621Y033167D03*
X008796Y033147D03*
X008806Y033142D03*
X008816Y033137D03*
X006961Y032527D03*
X006471Y033262D03*
X006426Y033282D03*
X006416Y033287D03*
X006371Y033307D03*
X006361Y033312D03*
X006351Y033317D03*
X006341Y033322D03*
X006331Y033327D03*
X006296Y033342D03*
X006286Y033347D03*
X006276Y033352D03*
X006266Y033357D03*
X006256Y033362D03*
X006246Y033367D03*
X006236Y033372D03*
X006226Y033377D03*
X006216Y033382D03*
X006206Y033387D03*
X006196Y033392D03*
X006186Y033397D03*
X006176Y033402D03*
X006166Y033407D03*
X006156Y033412D03*
X006146Y033417D03*
X006136Y033422D03*
X006126Y033427D03*
X006116Y033432D03*
X005271Y033862D03*
D21*
X006516Y033242D03*
X006551Y033227D03*
X006576Y033217D03*
X006586Y033212D03*
X006596Y033207D03*
X006851Y033432D03*
X006861Y033427D03*
X006886Y033417D03*
X006896Y033412D03*
X006911Y033407D03*
X006921Y033402D03*
X006946Y033392D03*
X006956Y033387D03*
X006981Y033377D03*
X006991Y033372D03*
X007016Y033362D03*
X007026Y033357D03*
X007041Y033352D03*
X007051Y033347D03*
X007076Y033337D03*
X007086Y033332D03*
X007111Y033322D03*
X007121Y033317D03*
X007146Y033307D03*
X007156Y033302D03*
X007171Y033297D03*
X007181Y033292D03*
X006961Y032532D03*
X008496Y033112D03*
X008511Y033117D03*
X008521Y033122D03*
X008761Y033162D03*
X008791Y034972D03*
X009091Y035722D03*
X008401Y035692D03*
X008186Y035787D03*
X008031Y035872D03*
X007341Y035487D03*
X006976Y036072D03*
X006381Y036107D03*
X006356Y036097D03*
X006346Y036092D03*
X006331Y036087D03*
X006321Y036082D03*
X006311Y036077D03*
X006296Y036072D03*
X006286Y036067D03*
X006271Y036062D03*
X006261Y036057D03*
X006251Y036052D03*
X006391Y036722D03*
X006381Y036727D03*
X006366Y036732D03*
X006346Y037082D03*
X006371Y037092D03*
X006846Y036952D03*
X006871Y036942D03*
X007216Y036627D03*
X008996Y037282D03*
X009016Y038277D03*
X009236Y038352D03*
X009501Y038422D03*
X009506Y038417D03*
X009511Y038412D03*
X009266Y038942D03*
X009041Y038802D03*
X008931Y038742D03*
X008701Y038302D03*
X009856Y037207D03*
X007626Y038967D03*
X007616Y038962D03*
X007601Y038957D03*
X007591Y038952D03*
D22*
X007666Y038982D03*
X007681Y038987D03*
X008676Y038142D03*
X008826Y038187D03*
X008741Y037942D03*
X008741Y037642D03*
X009496Y038427D03*
X009491Y038432D03*
X009486Y038437D03*
X009111Y038677D03*
X009546Y039032D03*
X009846Y037892D03*
X009066Y035712D03*
X009051Y035707D03*
X008791Y034967D03*
X008176Y035797D03*
X006961Y036067D03*
X006456Y036697D03*
X006441Y036702D03*
X006396Y037102D03*
X006411Y037107D03*
X006806Y036967D03*
X006821Y036962D03*
X006926Y037242D03*
X007256Y033262D03*
X006791Y033132D03*
X006776Y033137D03*
X006766Y033142D03*
X006751Y033147D03*
X006736Y033152D03*
X006711Y033162D03*
X006961Y032537D03*
X008431Y033087D03*
X008446Y033092D03*
X008686Y033192D03*
D23*
X008941Y033062D03*
X008946Y033057D03*
X008951Y033052D03*
X008011Y033507D03*
X007646Y034667D03*
X006971Y034512D03*
X006821Y033452D03*
X006891Y032577D03*
X006896Y032572D03*
X006901Y032567D03*
X006906Y032562D03*
X006911Y032557D03*
X006926Y032547D03*
X006931Y032542D03*
X005256Y033877D03*
X007076Y036127D03*
X007081Y036132D03*
X007086Y036137D03*
X007021Y036452D03*
X007041Y036467D03*
X007046Y036472D03*
X007051Y036477D03*
X007056Y036482D03*
X007066Y036487D03*
X007071Y036492D03*
X007076Y036497D03*
X007081Y036502D03*
X007086Y036507D03*
X007731Y035932D03*
X007736Y035927D03*
X007736Y035922D03*
X007736Y035917D03*
X007851Y036002D03*
X007851Y036007D03*
X007851Y036012D03*
X008016Y035897D03*
X007961Y035767D03*
X007796Y035772D03*
X007796Y035777D03*
X008066Y036067D03*
X008416Y035402D03*
X008421Y035392D03*
X008421Y035387D03*
X008796Y034987D03*
X008861Y034927D03*
X008866Y034922D03*
X008871Y034917D03*
X008876Y034912D03*
X008946Y034847D03*
X008951Y034842D03*
X008956Y034837D03*
X008961Y034832D03*
X009031Y034767D03*
X009036Y034762D03*
X009041Y034757D03*
X009046Y034752D03*
X009351Y035872D03*
X009356Y035877D03*
X009371Y035887D03*
X009376Y035892D03*
X009381Y035897D03*
X009386Y035902D03*
X009396Y035907D03*
X009401Y035912D03*
X009406Y035917D03*
X009411Y035922D03*
X008936Y036472D03*
X008826Y037227D03*
X008551Y037342D03*
X008546Y037347D03*
X008541Y037352D03*
X009106Y037347D03*
X009111Y037352D03*
X009116Y037357D03*
X009366Y037427D03*
X009366Y037432D03*
X009371Y037412D03*
X009491Y037262D03*
X009496Y037257D03*
X009781Y037392D03*
X009926Y037392D03*
X009966Y037277D03*
X009961Y037272D03*
X009956Y037267D03*
X009951Y037262D03*
X009941Y037257D03*
X009936Y037252D03*
X009931Y037617D03*
X009776Y037617D03*
X009956Y037827D03*
X009951Y037832D03*
X009946Y037837D03*
X009501Y037842D03*
X009486Y037832D03*
X009481Y037827D03*
X009476Y037822D03*
X009471Y037817D03*
X009531Y038057D03*
X009556Y038342D03*
X009111Y038062D03*
X009106Y038067D03*
X009101Y038072D03*
X009096Y038077D03*
X008996Y038287D03*
X009031Y038752D03*
X009111Y038847D03*
X009116Y038852D03*
X009121Y038857D03*
X009131Y038862D03*
X009136Y038867D03*
X009141Y038872D03*
X008526Y038487D03*
X008506Y038472D03*
X008486Y038457D03*
X008481Y038452D03*
X008461Y038437D03*
X008456Y038432D03*
X008441Y038422D03*
X008436Y038417D03*
X008431Y038412D03*
X008426Y038407D03*
X008416Y038402D03*
X008411Y038397D03*
X008406Y038392D03*
X008401Y038387D03*
X008396Y038382D03*
X008386Y038377D03*
X008381Y038372D03*
X008376Y038367D03*
X008371Y038362D03*
X008366Y038357D03*
X008361Y038352D03*
X008341Y038337D03*
X008336Y038332D03*
X008331Y038327D03*
X008326Y038322D03*
X008321Y038317D03*
X008196Y038192D03*
X008191Y038187D03*
X008521Y038047D03*
X008526Y038052D03*
X008531Y038057D03*
X008546Y038067D03*
X008551Y038072D03*
X008556Y038077D03*
X007301Y038787D03*
X007281Y038772D03*
X007261Y038757D03*
X007256Y038752D03*
X007251Y038747D03*
X007246Y038742D03*
X007231Y038732D03*
X007226Y038727D03*
X007221Y038722D03*
X007216Y038717D03*
X007211Y038712D03*
X005996Y036877D03*
X005986Y036872D03*
X005981Y036867D03*
X005976Y036862D03*
X005971Y036857D03*
X005966Y036852D03*
X005941Y036832D03*
X005936Y036827D03*
X005931Y036822D03*
X005926Y036817D03*
X005921Y036812D03*
D24*
X005881Y036772D03*
X005876Y036767D03*
X005871Y036762D03*
X005866Y036757D03*
X005861Y036752D03*
X005856Y036747D03*
X005846Y036732D03*
X005841Y036727D03*
X005836Y036722D03*
X005831Y036717D03*
X005826Y036712D03*
X005821Y036702D03*
X005816Y036697D03*
X005811Y036692D03*
X005806Y036687D03*
X005801Y036677D03*
X005796Y036672D03*
X005791Y036667D03*
X005781Y036652D03*
X005771Y036637D03*
X005766Y036632D03*
X005756Y036617D03*
X007131Y036552D03*
X007136Y036557D03*
X007141Y036562D03*
X007146Y036567D03*
X007151Y036572D03*
X007156Y036577D03*
X007161Y036587D03*
X007166Y036592D03*
X007171Y036597D03*
X007181Y036612D03*
X007346Y036462D03*
X007381Y036407D03*
X007391Y036392D03*
X007401Y036377D03*
X007411Y036362D03*
X007421Y036347D03*
X007431Y036332D03*
X007441Y036317D03*
X007451Y036302D03*
X007461Y036287D03*
X007466Y036282D03*
X007476Y036267D03*
X007486Y036252D03*
X007496Y036237D03*
X007501Y036232D03*
X007511Y036217D03*
X007521Y036202D03*
X007526Y036197D03*
X007531Y036187D03*
X007536Y036182D03*
X007541Y036177D03*
X007546Y036167D03*
X007551Y036162D03*
X007561Y036147D03*
X007566Y036142D03*
X007576Y036127D03*
X007581Y036122D03*
X007586Y036112D03*
X007591Y036107D03*
X007596Y036102D03*
X007601Y036092D03*
X007606Y036087D03*
X007611Y036082D03*
X007616Y036072D03*
X007621Y036067D03*
X007626Y036062D03*
X007636Y036047D03*
X007641Y036042D03*
X007646Y036037D03*
X007651Y036027D03*
X007656Y036022D03*
X007661Y036017D03*
X007666Y036007D03*
X007671Y036002D03*
X007676Y035997D03*
X007681Y035987D03*
X007736Y035902D03*
X007801Y035757D03*
X007801Y035752D03*
X008016Y035902D03*
X008061Y036082D03*
X008231Y035747D03*
X008431Y035362D03*
X008431Y035357D03*
X008636Y035427D03*
X008666Y035472D03*
X008676Y035487D03*
X008681Y035492D03*
X008686Y035502D03*
X008691Y035507D03*
X008696Y035512D03*
X008701Y035522D03*
X008706Y035527D03*
X008711Y035532D03*
X008716Y035537D03*
X008721Y035542D03*
X008721Y035547D03*
X008726Y035552D03*
X008731Y035557D03*
X008736Y035562D03*
X008741Y035567D03*
X008746Y035572D03*
X009486Y035992D03*
X009491Y035997D03*
X009496Y036002D03*
X009501Y036007D03*
X009506Y036012D03*
X009511Y036017D03*
X009536Y036047D03*
X009541Y036052D03*
X009546Y036057D03*
X009551Y036062D03*
X009556Y036067D03*
X009561Y036072D03*
X009561Y036077D03*
X009566Y036082D03*
X009571Y036087D03*
X009576Y036092D03*
X009581Y036097D03*
X009586Y036107D03*
X009591Y036112D03*
X009596Y036117D03*
X009601Y036127D03*
X009606Y036132D03*
X009611Y036137D03*
X009621Y036152D03*
X009626Y036157D03*
X009636Y036172D03*
X009646Y036187D03*
X009656Y036202D03*
X009666Y036217D03*
X009676Y036232D03*
X009446Y036527D03*
X008766Y036632D03*
X008761Y036627D03*
X008751Y036612D03*
X008746Y036607D03*
X008741Y036597D03*
X008736Y036592D03*
X008731Y036587D03*
X008726Y036582D03*
X008721Y036577D03*
X008496Y037397D03*
X008491Y037402D03*
X008486Y037407D03*
X008481Y037412D03*
X008471Y037427D03*
X008466Y037432D03*
X008456Y037447D03*
X008646Y037697D03*
X008641Y037707D03*
X008646Y037887D03*
X008651Y037892D03*
X008741Y037952D03*
X008831Y037892D03*
X008836Y037887D03*
X008841Y037707D03*
X008836Y037697D03*
X009171Y037417D03*
X009176Y037422D03*
X009181Y037427D03*
X009191Y037442D03*
X009166Y037407D03*
X009161Y037402D03*
X009156Y037397D03*
X009151Y037392D03*
X009146Y037387D03*
X009361Y037457D03*
X009356Y037477D03*
X009356Y037482D03*
X009356Y037487D03*
X009356Y037492D03*
X009356Y037497D03*
X009421Y037337D03*
X009431Y037322D03*
X009436Y037317D03*
X009441Y037312D03*
X009446Y037307D03*
X009756Y037417D03*
X009761Y037412D03*
X009766Y037407D03*
X009946Y037412D03*
X010016Y037337D03*
X010011Y037327D03*
X010006Y037322D03*
X010001Y037317D03*
X009996Y037312D03*
X009996Y037307D03*
X009991Y037302D03*
X009986Y037297D03*
X009981Y037292D03*
X009976Y037287D03*
X009971Y037282D03*
X009951Y037597D03*
X009946Y037602D03*
X009941Y037607D03*
X010021Y037752D03*
X010011Y037767D03*
X010001Y037782D03*
X009996Y037787D03*
X009991Y037792D03*
X009986Y037797D03*
X009981Y037802D03*
X009766Y037607D03*
X009761Y037602D03*
X009756Y037597D03*
X009751Y037587D03*
X009461Y037807D03*
X009456Y037802D03*
X009451Y037797D03*
X009446Y037792D03*
X009441Y037787D03*
X009436Y037777D03*
X009431Y037772D03*
X009426Y037767D03*
X009421Y037757D03*
X009186Y037982D03*
X009181Y037987D03*
X009171Y038002D03*
X009166Y038007D03*
X009161Y038012D03*
X009251Y038117D03*
X009501Y038137D03*
X009636Y038232D03*
X009646Y038217D03*
X009656Y038202D03*
X009676Y038172D03*
X009626Y038247D03*
X009621Y038252D03*
X009611Y038267D03*
X009606Y038272D03*
X009601Y038277D03*
X009596Y038287D03*
X009591Y038292D03*
X009586Y038297D03*
X009581Y038307D03*
X009576Y038312D03*
X009571Y038317D03*
X009566Y038322D03*
X009561Y038327D03*
X009561Y038332D03*
X009556Y038337D03*
X009031Y038757D03*
X008681Y038317D03*
X008511Y038037D03*
X008506Y038032D03*
X008501Y038027D03*
X008496Y038022D03*
X008491Y038017D03*
X008486Y038007D03*
X008481Y038002D03*
X008476Y037997D03*
X008471Y037992D03*
X008466Y037982D03*
X008461Y037977D03*
X008216Y038217D03*
X008211Y038212D03*
X008221Y038222D03*
X008226Y038227D03*
X008231Y038232D03*
X008236Y038237D03*
X008141Y038137D03*
X008136Y038132D03*
X008126Y038117D03*
X008121Y038112D03*
X008116Y038107D03*
X008111Y038102D03*
X008106Y038097D03*
X008101Y038092D03*
X008101Y038087D03*
X008096Y038082D03*
X008091Y038077D03*
X008086Y038072D03*
X008081Y038067D03*
X008076Y038062D03*
X008076Y038057D03*
X008071Y038052D03*
X008066Y038047D03*
X008061Y038042D03*
X008056Y038032D03*
X008051Y038027D03*
X008046Y038022D03*
X008041Y038017D03*
X008036Y038007D03*
X008031Y038002D03*
X008021Y037987D03*
X008016Y037982D03*
X008006Y037967D03*
X008001Y037962D03*
X007991Y037947D03*
X007981Y037932D03*
X007971Y037917D03*
X007961Y037902D03*
X007951Y037887D03*
X007941Y037872D03*
X007051Y038532D03*
X007046Y038527D03*
X007061Y038547D03*
X007066Y038552D03*
X007071Y038562D03*
X007076Y038567D03*
X007081Y038572D03*
X007086Y038577D03*
X007086Y038582D03*
X007091Y038587D03*
X007096Y038592D03*
X007101Y038597D03*
X007106Y038602D03*
X007106Y038607D03*
X007111Y038612D03*
X007116Y038617D03*
X007121Y038622D03*
X007126Y038627D03*
X007131Y038632D03*
X007151Y036212D03*
X007141Y036197D03*
X007131Y036182D03*
X007126Y036177D03*
X007121Y036172D03*
X007116Y036167D03*
X007091Y035392D03*
X007096Y035382D03*
X007101Y035377D03*
X007106Y035372D03*
X007116Y035357D03*
X007121Y035352D03*
X007131Y035337D03*
X007136Y035332D03*
X007146Y035317D03*
X007151Y035312D03*
X007161Y035297D03*
X007166Y035292D03*
X007171Y035287D03*
X007176Y035277D03*
X007181Y035272D03*
X007186Y035267D03*
X007191Y035257D03*
X007196Y035252D03*
X007201Y035247D03*
X007206Y035237D03*
X007211Y035232D03*
X007216Y035227D03*
X007221Y035217D03*
X007226Y035212D03*
X007231Y035207D03*
X007236Y035197D03*
X007241Y035192D03*
X007246Y035187D03*
X007251Y035177D03*
X007256Y035172D03*
X007261Y035167D03*
X007266Y035157D03*
X007271Y035152D03*
X007276Y035147D03*
X007286Y035132D03*
X007291Y035127D03*
X007301Y035112D03*
X007306Y035107D03*
X007316Y035092D03*
X007321Y035087D03*
X007331Y035072D03*
X007336Y035067D03*
X007341Y035062D03*
X007346Y035052D03*
X007351Y035047D03*
X007356Y035042D03*
X007361Y035032D03*
X007366Y035027D03*
X007371Y035022D03*
X007376Y035012D03*
X007381Y035007D03*
X007386Y035002D03*
X007391Y034992D03*
X007396Y034987D03*
X007401Y034982D03*
X007406Y034972D03*
X007411Y034967D03*
X007416Y034962D03*
X007421Y034952D03*
X007426Y034947D03*
X007431Y034942D03*
X007436Y034932D03*
X007441Y034927D03*
X007446Y034922D03*
X007456Y034907D03*
X007461Y034902D03*
X007471Y034887D03*
X007476Y034882D03*
X007486Y034867D03*
X007491Y034862D03*
X007501Y034847D03*
X007506Y034842D03*
X007511Y034837D03*
X007516Y034827D03*
X007521Y034822D03*
X007526Y034817D03*
X007531Y034807D03*
X007536Y034802D03*
X007541Y034797D03*
X007546Y034787D03*
X007551Y034782D03*
X007556Y034777D03*
X007561Y034767D03*
X007566Y034762D03*
X007571Y034757D03*
X007576Y034747D03*
X007581Y034742D03*
X007586Y034737D03*
X007591Y034727D03*
X007596Y034722D03*
X007601Y034717D03*
X007606Y034707D03*
X007611Y034702D03*
X007616Y034697D03*
X007776Y034887D03*
X007781Y034897D03*
X007781Y034902D03*
X007171Y034292D03*
X007176Y034287D03*
X007181Y034282D03*
X007191Y034267D03*
X007196Y034262D03*
X007166Y034297D03*
X007161Y034302D03*
X007156Y034307D03*
X007141Y034327D03*
X007136Y034332D03*
X007131Y034337D03*
X007126Y034342D03*
X007121Y034347D03*
X007116Y034352D03*
X007106Y034367D03*
X007101Y034372D03*
X007096Y034377D03*
X007091Y034382D03*
X007086Y034387D03*
X007081Y034392D03*
X007066Y034412D03*
X007061Y034417D03*
X007056Y034422D03*
X007051Y034427D03*
X007046Y034432D03*
X007041Y034437D03*
X007031Y034452D03*
X007026Y034457D03*
X007021Y034462D03*
X007016Y034467D03*
X007011Y034472D03*
X007006Y034477D03*
X006966Y034522D03*
X006966Y034527D03*
X006816Y033457D03*
X007251Y033252D03*
X007061Y032622D03*
X007051Y032607D03*
X007046Y032602D03*
X007041Y032597D03*
X007036Y032587D03*
X007031Y032582D03*
X007026Y032577D03*
X007021Y032572D03*
X007016Y032567D03*
X006786Y032682D03*
X006781Y032687D03*
X006776Y032692D03*
X006771Y032697D03*
X006766Y032702D03*
X006761Y032712D03*
X006756Y032717D03*
X006751Y032722D03*
X006746Y032727D03*
X006741Y032737D03*
X006736Y032742D03*
X006726Y032757D03*
X005251Y033882D03*
X008936Y034532D03*
X008941Y034537D03*
X008941Y034542D03*
X008946Y034547D03*
X008951Y034552D03*
X008956Y034557D03*
X008961Y034562D03*
X008966Y034567D03*
X008966Y034572D03*
X008971Y034577D03*
X008976Y034582D03*
X008981Y034587D03*
X008986Y034592D03*
X008991Y034597D03*
X008991Y034602D03*
X008996Y034607D03*
X009001Y034612D03*
X009006Y034617D03*
X009011Y034622D03*
X009016Y034627D03*
X009016Y034632D03*
X009021Y034637D03*
X009026Y034642D03*
X009031Y034647D03*
X009036Y034652D03*
X009041Y034657D03*
X009041Y034662D03*
X009046Y034667D03*
X009051Y034672D03*
X009056Y034677D03*
X009061Y034682D03*
X009066Y034687D03*
X009066Y034692D03*
X009071Y034697D03*
X009076Y034702D03*
X009081Y034707D03*
X009086Y034712D03*
X008991Y033012D03*
X008996Y033007D03*
X009001Y033002D03*
X009006Y032997D03*
X009016Y032982D03*
X009591Y039062D03*
D25*
X009564Y039002D03*
X009559Y038992D03*
X009554Y038982D03*
X009549Y038972D03*
X009544Y038962D03*
X009539Y038952D03*
X009534Y038942D03*
X009529Y038932D03*
X009519Y038907D03*
X009514Y038897D03*
X009504Y038872D03*
X009494Y038847D03*
X009489Y038832D03*
X009479Y038522D03*
X009484Y038507D03*
X009489Y038497D03*
X009494Y038487D03*
X009499Y038477D03*
X009499Y038472D03*
X009504Y038467D03*
X009504Y038462D03*
X009509Y038457D03*
X009509Y038452D03*
X009514Y038447D03*
X009519Y038442D03*
X009584Y038302D03*
X009599Y038282D03*
X009614Y038262D03*
X009619Y038257D03*
X009629Y038242D03*
X009634Y038237D03*
X009639Y038227D03*
X009644Y038222D03*
X009649Y038212D03*
X009654Y038207D03*
X009659Y038197D03*
X009664Y038192D03*
X009669Y038187D03*
X009669Y038182D03*
X009674Y038177D03*
X009679Y038167D03*
X009684Y038162D03*
X009684Y038157D03*
X009689Y038152D03*
X009694Y038147D03*
X009694Y038142D03*
X009699Y038137D03*
X009699Y038132D03*
X009704Y038127D03*
X009709Y038122D03*
X009709Y038117D03*
X009714Y038112D03*
X009714Y038107D03*
X009719Y038102D03*
X009724Y038092D03*
X009729Y038087D03*
X009729Y038082D03*
X009734Y038077D03*
X009734Y038072D03*
X009739Y038067D03*
X009739Y038062D03*
X009744Y038057D03*
X009744Y038052D03*
X009749Y038047D03*
X009754Y038037D03*
X009759Y038027D03*
X009789Y037962D03*
X009794Y037952D03*
X010004Y037777D03*
X010009Y037772D03*
X010014Y037762D03*
X010019Y037757D03*
X010024Y037747D03*
X010029Y037742D03*
X010029Y037737D03*
X010034Y037732D03*
X010039Y037722D03*
X010044Y037712D03*
X010049Y037702D03*
X010054Y037692D03*
X010059Y037677D03*
X009959Y037587D03*
X009959Y037582D03*
X009964Y037577D03*
X009969Y037567D03*
X009954Y037592D03*
X009969Y037447D03*
X009964Y037437D03*
X009959Y037427D03*
X009954Y037422D03*
X009954Y037417D03*
X010034Y037367D03*
X010034Y037362D03*
X010029Y037357D03*
X010029Y037352D03*
X010024Y037347D03*
X010019Y037342D03*
X010014Y037332D03*
X010039Y037372D03*
X010044Y037382D03*
X010049Y037392D03*
X010064Y037432D03*
X009754Y037422D03*
X009749Y037427D03*
X009744Y037437D03*
X009739Y037447D03*
X009739Y037562D03*
X009744Y037572D03*
X009744Y037577D03*
X009749Y037582D03*
X009754Y037592D03*
X009439Y037782D03*
X009424Y037762D03*
X009419Y037752D03*
X009414Y037747D03*
X009409Y037742D03*
X009409Y037737D03*
X009404Y037732D03*
X009404Y037727D03*
X009399Y037722D03*
X009394Y037712D03*
X009389Y037702D03*
X009384Y037687D03*
X009239Y037532D03*
X009234Y037522D03*
X009229Y037507D03*
X009224Y037497D03*
X009219Y037487D03*
X009214Y037482D03*
X009214Y037477D03*
X009209Y037472D03*
X009209Y037467D03*
X009204Y037462D03*
X009199Y037457D03*
X009199Y037452D03*
X009194Y037447D03*
X009189Y037437D03*
X009184Y037432D03*
X009169Y037412D03*
X009409Y037357D03*
X009414Y037352D03*
X009414Y037347D03*
X009419Y037342D03*
X009424Y037332D03*
X009429Y037327D03*
X009234Y037897D03*
X009229Y037907D03*
X009224Y037917D03*
X009219Y037927D03*
X009214Y037937D03*
X009209Y037942D03*
X009209Y037947D03*
X009204Y037952D03*
X009204Y037957D03*
X009199Y037962D03*
X009194Y037967D03*
X009194Y037972D03*
X009189Y037977D03*
X009179Y037992D03*
X009174Y037997D03*
X008854Y037857D03*
X008849Y037867D03*
X008844Y037872D03*
X008844Y037877D03*
X008839Y037882D03*
X008854Y037727D03*
X008849Y037717D03*
X008844Y037712D03*
X008839Y037702D03*
X008644Y037702D03*
X008639Y037712D03*
X008634Y037717D03*
X008629Y037727D03*
X008629Y037857D03*
X008634Y037867D03*
X008639Y037872D03*
X008639Y037877D03*
X008644Y037882D03*
X008469Y037987D03*
X008459Y037972D03*
X008454Y037967D03*
X008454Y037962D03*
X008449Y037957D03*
X008444Y037952D03*
X008444Y037947D03*
X008439Y037942D03*
X008439Y037937D03*
X008434Y037932D03*
X008429Y037922D03*
X008424Y037912D03*
X008419Y037902D03*
X008414Y037887D03*
X008404Y037862D03*
X008409Y037542D03*
X008414Y037527D03*
X008419Y037517D03*
X008424Y037507D03*
X008429Y037497D03*
X008434Y037487D03*
X008434Y037482D03*
X008439Y037477D03*
X008444Y037467D03*
X008449Y037462D03*
X008449Y037457D03*
X008454Y037452D03*
X008459Y037442D03*
X008464Y037437D03*
X008474Y037422D03*
X008479Y037417D03*
X008889Y036887D03*
X008874Y036847D03*
X008864Y036822D03*
X008854Y036797D03*
X008849Y036787D03*
X008844Y036777D03*
X008839Y036767D03*
X008834Y036752D03*
X008829Y036742D03*
X008824Y036732D03*
X008819Y036722D03*
X008814Y036712D03*
X008809Y036702D03*
X008804Y036697D03*
X008804Y036692D03*
X008799Y036687D03*
X008799Y036682D03*
X008794Y036677D03*
X008789Y036672D03*
X008789Y036667D03*
X008784Y036662D03*
X008784Y036657D03*
X008779Y036652D03*
X008774Y036647D03*
X008774Y036642D03*
X008769Y036637D03*
X008759Y036622D03*
X008754Y036617D03*
X008744Y036602D03*
X008719Y036572D03*
X008719Y036567D03*
X009649Y036657D03*
X009654Y036647D03*
X009659Y036637D03*
X009664Y036632D03*
X009664Y036627D03*
X009669Y036622D03*
X009669Y036617D03*
X009839Y036567D03*
X009834Y036552D03*
X009819Y036512D03*
X009814Y036502D03*
X009809Y036487D03*
X009804Y036477D03*
X009794Y036452D03*
X009789Y036442D03*
X009784Y036432D03*
X009779Y036422D03*
X009774Y036407D03*
X009769Y036397D03*
X009764Y036387D03*
X009759Y036377D03*
X009754Y036367D03*
X009749Y036357D03*
X009744Y036352D03*
X009744Y036347D03*
X009739Y036342D03*
X009739Y036337D03*
X009734Y036332D03*
X009734Y036327D03*
X009729Y036322D03*
X009724Y036312D03*
X009719Y036302D03*
X009714Y036297D03*
X009714Y036292D03*
X009709Y036287D03*
X009709Y036282D03*
X009704Y036277D03*
X009699Y036272D03*
X009699Y036267D03*
X009694Y036262D03*
X009694Y036257D03*
X009689Y036252D03*
X009684Y036247D03*
X009684Y036242D03*
X009679Y036237D03*
X009674Y036227D03*
X009669Y036222D03*
X009664Y036212D03*
X009659Y036207D03*
X009654Y036197D03*
X009649Y036192D03*
X009644Y036182D03*
X009639Y036177D03*
X009634Y036167D03*
X009629Y036162D03*
X009619Y036147D03*
X009614Y036142D03*
X009599Y036122D03*
X009584Y036102D03*
X008699Y035517D03*
X008684Y035497D03*
X008674Y035482D03*
X008669Y035477D03*
X008664Y035467D03*
X008659Y035462D03*
X008654Y035457D03*
X008654Y035452D03*
X008649Y035447D03*
X008644Y035442D03*
X008644Y035437D03*
X008639Y035432D03*
X008634Y035422D03*
X008629Y035417D03*
X008629Y035412D03*
X008624Y035407D03*
X008619Y035402D03*
X008619Y035397D03*
X008614Y035392D03*
X008614Y035387D03*
X008609Y035382D03*
X008604Y035372D03*
X008599Y035362D03*
X008594Y035352D03*
X008589Y035347D03*
X008589Y035342D03*
X008584Y035337D03*
X008584Y035332D03*
X008579Y035327D03*
X008579Y035322D03*
X008574Y035317D03*
X008574Y035312D03*
X008569Y035302D03*
X008564Y035292D03*
X008559Y035282D03*
X008554Y035272D03*
X008544Y035247D03*
X008534Y035222D03*
X008439Y035337D03*
X008439Y035342D03*
X008434Y035347D03*
X008434Y035352D03*
X008369Y035477D03*
X008364Y035487D03*
X008359Y035497D03*
X008354Y035507D03*
X008349Y035517D03*
X008344Y035527D03*
X008339Y035537D03*
X008334Y035547D03*
X008329Y035557D03*
X008324Y035567D03*
X008319Y035577D03*
X008314Y035587D03*
X008309Y035597D03*
X008304Y035607D03*
X008299Y035617D03*
X008294Y035627D03*
X008289Y035637D03*
X008284Y035647D03*
X008279Y035657D03*
X008274Y035667D03*
X008269Y035677D03*
X008264Y035687D03*
X008259Y035697D03*
X008254Y035707D03*
X008249Y035717D03*
X008244Y035727D03*
X008239Y035737D03*
X008204Y035807D03*
X008199Y035817D03*
X008194Y035827D03*
X008189Y035837D03*
X008184Y035847D03*
X008179Y035857D03*
X008174Y035867D03*
X008169Y035877D03*
X008164Y035887D03*
X008159Y035897D03*
X008154Y035907D03*
X008149Y035917D03*
X008144Y035927D03*
X008139Y035937D03*
X008134Y035947D03*
X008129Y035957D03*
X008124Y035967D03*
X008119Y035977D03*
X008114Y035987D03*
X008109Y035997D03*
X008104Y036007D03*
X008099Y036017D03*
X008094Y036027D03*
X008064Y036087D03*
X007849Y036037D03*
X007849Y036032D03*
X007849Y036027D03*
X007884Y035947D03*
X007894Y035922D03*
X007899Y035907D03*
X007909Y035882D03*
X007919Y035857D03*
X007924Y035842D03*
X007934Y035817D03*
X007964Y035747D03*
X007964Y035742D03*
X007804Y035747D03*
X007769Y035817D03*
X007764Y035827D03*
X007759Y035842D03*
X007754Y035852D03*
X007744Y035877D03*
X007664Y036012D03*
X007649Y036032D03*
X007634Y036052D03*
X007629Y036057D03*
X007614Y036077D03*
X007599Y036097D03*
X007584Y036117D03*
X007574Y036132D03*
X007569Y036137D03*
X007559Y036152D03*
X007554Y036157D03*
X007544Y036172D03*
X007529Y036192D03*
X007519Y036207D03*
X007514Y036212D03*
X007509Y036222D03*
X007504Y036227D03*
X007494Y036242D03*
X007489Y036247D03*
X007484Y036257D03*
X007479Y036262D03*
X007474Y036272D03*
X007469Y036277D03*
X007459Y036292D03*
X007454Y036297D03*
X007449Y036307D03*
X007444Y036312D03*
X007439Y036322D03*
X007434Y036327D03*
X007429Y036337D03*
X007424Y036342D03*
X007419Y036352D03*
X007414Y036357D03*
X007409Y036367D03*
X007404Y036372D03*
X007399Y036382D03*
X007394Y036387D03*
X007389Y036397D03*
X007384Y036402D03*
X007379Y036412D03*
X007374Y036417D03*
X007374Y036422D03*
X007369Y036427D03*
X007364Y036432D03*
X007364Y036437D03*
X007359Y036442D03*
X007354Y036447D03*
X007354Y036452D03*
X007349Y036457D03*
X007344Y036467D03*
X007339Y036472D03*
X007339Y036477D03*
X007334Y036482D03*
X007329Y036487D03*
X007329Y036492D03*
X007324Y036497D03*
X007319Y036502D03*
X007319Y036507D03*
X007314Y036512D03*
X007314Y036517D03*
X007309Y036522D03*
X007304Y036527D03*
X007304Y036532D03*
X007299Y036537D03*
X007299Y036542D03*
X007294Y036547D03*
X007289Y036552D03*
X007289Y036557D03*
X007284Y036562D03*
X007284Y036567D03*
X007279Y036572D03*
X007184Y036617D03*
X007179Y036607D03*
X007174Y036602D03*
X007159Y036582D03*
X007129Y036847D03*
X007124Y036857D03*
X007119Y036867D03*
X007114Y036877D03*
X007109Y036887D03*
X007104Y036897D03*
X007099Y036907D03*
X007094Y036917D03*
X007089Y036927D03*
X007084Y036937D03*
X007084Y036942D03*
X007079Y036952D03*
X007074Y036962D03*
X007069Y036972D03*
X007064Y036982D03*
X007059Y036997D03*
X007054Y037007D03*
X007049Y037017D03*
X007039Y037042D03*
X007034Y037052D03*
X007029Y037067D03*
X007024Y037077D03*
X007019Y037092D03*
X007014Y037102D03*
X007004Y037127D03*
X006999Y037142D03*
X006984Y037182D03*
X006929Y038302D03*
X006939Y038327D03*
X006949Y038352D03*
X006954Y038362D03*
X006959Y038372D03*
X006964Y038382D03*
X006969Y038392D03*
X006974Y038402D03*
X006979Y038412D03*
X006979Y038417D03*
X006984Y038422D03*
X006989Y038432D03*
X006994Y038442D03*
X006999Y038447D03*
X006999Y038452D03*
X007004Y038457D03*
X007004Y038462D03*
X007009Y038467D03*
X007014Y038472D03*
X007014Y038477D03*
X007019Y038482D03*
X007019Y038487D03*
X007024Y038492D03*
X007029Y038497D03*
X007029Y038502D03*
X007034Y038507D03*
X007039Y038512D03*
X007039Y038517D03*
X007044Y038522D03*
X007054Y038537D03*
X007059Y038542D03*
X007069Y038557D03*
X007984Y037937D03*
X007989Y037942D03*
X007994Y037952D03*
X007999Y037957D03*
X008009Y037972D03*
X008014Y037977D03*
X008024Y037992D03*
X008029Y037997D03*
X008039Y038012D03*
X008059Y038037D03*
X007979Y037927D03*
X007974Y037922D03*
X007969Y037912D03*
X007964Y037907D03*
X007959Y037897D03*
X007954Y037892D03*
X007949Y037882D03*
X007944Y037877D03*
X007939Y037867D03*
X007934Y037862D03*
X007934Y037857D03*
X007929Y037852D03*
X007924Y037847D03*
X007924Y037842D03*
X007919Y037837D03*
X007919Y037832D03*
X007914Y037827D03*
X007909Y037822D03*
X007909Y037817D03*
X007904Y037812D03*
X007904Y037807D03*
X007899Y037802D03*
X007894Y037797D03*
X007894Y037792D03*
X007889Y037787D03*
X007889Y037782D03*
X007884Y037777D03*
X007879Y037767D03*
X007874Y037757D03*
X007869Y037752D03*
X007869Y037747D03*
X007864Y037742D03*
X007864Y037737D03*
X007859Y037732D03*
X007859Y037727D03*
X007854Y037722D03*
X007849Y037712D03*
X007844Y037702D03*
X007839Y037692D03*
X007834Y037682D03*
X007829Y037672D03*
X007824Y037662D03*
X007819Y037647D03*
X007814Y037637D03*
X007809Y037627D03*
X007804Y037617D03*
X007799Y037607D03*
X007794Y037592D03*
X007789Y037582D03*
X007779Y037557D03*
X007769Y037532D03*
X007759Y037507D03*
X007754Y037492D03*
X007189Y036287D03*
X007179Y036262D03*
X007174Y036252D03*
X007169Y036242D03*
X007164Y036232D03*
X007159Y036227D03*
X007159Y036222D03*
X007154Y036217D03*
X007149Y036207D03*
X007144Y036202D03*
X007139Y036192D03*
X007134Y036187D03*
X007384Y035462D03*
X007384Y035457D03*
X007389Y035452D03*
X007394Y035442D03*
X007399Y035437D03*
X007399Y035432D03*
X007404Y035427D03*
X007404Y035422D03*
X007409Y035417D03*
X007414Y035407D03*
X007419Y035402D03*
X007419Y035397D03*
X007424Y035392D03*
X007424Y035387D03*
X007429Y035382D03*
X007434Y035372D03*
X007439Y035362D03*
X007444Y035357D03*
X007444Y035352D03*
X007449Y035347D03*
X007449Y035342D03*
X007454Y035337D03*
X007459Y035327D03*
X007464Y035322D03*
X007464Y035317D03*
X007469Y035312D03*
X007469Y035307D03*
X007474Y035302D03*
X007479Y035292D03*
X007484Y035287D03*
X007484Y035282D03*
X007489Y035277D03*
X007489Y035272D03*
X007494Y035267D03*
X007499Y035257D03*
X007504Y035252D03*
X007504Y035247D03*
X007509Y035242D03*
X007509Y035237D03*
X007514Y035232D03*
X007519Y035222D03*
X007524Y035217D03*
X007524Y035212D03*
X007529Y035207D03*
X007529Y035202D03*
X007534Y035197D03*
X007534Y035192D03*
X007539Y035187D03*
X007544Y035177D03*
X007549Y035172D03*
X007549Y035167D03*
X007554Y035162D03*
X007554Y035157D03*
X007559Y035152D03*
X007564Y035142D03*
X007569Y035137D03*
X007569Y035132D03*
X007574Y035127D03*
X007574Y035122D03*
X007579Y035117D03*
X007584Y035107D03*
X007589Y035102D03*
X007589Y035097D03*
X007594Y035092D03*
X007594Y035087D03*
X007599Y035082D03*
X007604Y035072D03*
X007609Y035067D03*
X007609Y035062D03*
X007614Y035057D03*
X007614Y035052D03*
X007619Y035047D03*
X007624Y035037D03*
X007629Y035027D03*
X007634Y035022D03*
X007634Y035017D03*
X007639Y035012D03*
X007639Y035007D03*
X007644Y035002D03*
X007649Y034992D03*
X007654Y034987D03*
X007654Y034982D03*
X007659Y034977D03*
X007659Y034972D03*
X007664Y034967D03*
X007669Y034957D03*
X007674Y034952D03*
X007674Y034947D03*
X007679Y034942D03*
X007679Y034937D03*
X007684Y034932D03*
X007689Y034922D03*
X007694Y034917D03*
X007694Y034912D03*
X007699Y034907D03*
X007699Y034902D03*
X007704Y034897D03*
X007709Y034887D03*
X007749Y034847D03*
X007749Y034842D03*
X007744Y034837D03*
X007744Y034832D03*
X007739Y034827D03*
X007734Y034817D03*
X007729Y034807D03*
X007724Y034797D03*
X007719Y034787D03*
X007714Y034782D03*
X007714Y034777D03*
X007709Y034772D03*
X007709Y034767D03*
X007704Y034762D03*
X007699Y034752D03*
X007694Y034742D03*
X007689Y034732D03*
X007684Y034722D03*
X007679Y034717D03*
X007679Y034712D03*
X007674Y034707D03*
X007674Y034702D03*
X007669Y034697D03*
X007669Y034692D03*
X007619Y034692D03*
X007604Y034712D03*
X007589Y034732D03*
X007574Y034752D03*
X007559Y034772D03*
X007544Y034792D03*
X007529Y034812D03*
X007514Y034832D03*
X007499Y034852D03*
X007494Y034857D03*
X007484Y034872D03*
X007479Y034877D03*
X007469Y034892D03*
X007464Y034897D03*
X007454Y034912D03*
X007449Y034917D03*
X007434Y034937D03*
X007419Y034957D03*
X007404Y034977D03*
X007389Y034997D03*
X007374Y035017D03*
X007359Y035037D03*
X007344Y035057D03*
X007329Y035077D03*
X007324Y035082D03*
X007314Y035097D03*
X007309Y035102D03*
X007299Y035117D03*
X007294Y035122D03*
X007284Y035137D03*
X007279Y035142D03*
X007264Y035162D03*
X007249Y035182D03*
X007234Y035202D03*
X007219Y035222D03*
X007204Y035242D03*
X007189Y035262D03*
X007174Y035282D03*
X007159Y035302D03*
X007154Y035307D03*
X007144Y035322D03*
X007139Y035327D03*
X007129Y035342D03*
X007124Y035347D03*
X007114Y035362D03*
X007109Y035367D03*
X007094Y035387D03*
X006199Y036007D03*
X005624Y036362D03*
X005614Y036337D03*
X005634Y036387D03*
X005644Y036412D03*
X005649Y036422D03*
X005654Y036432D03*
X005659Y036442D03*
X005664Y036452D03*
X005669Y036462D03*
X005669Y036467D03*
X005674Y036472D03*
X005674Y036477D03*
X005679Y036482D03*
X005679Y036487D03*
X005684Y036492D03*
X005684Y036497D03*
X005689Y036502D03*
X005694Y036512D03*
X005699Y036522D03*
X005704Y036532D03*
X005709Y036537D03*
X005709Y036542D03*
X005714Y036547D03*
X005714Y036552D03*
X005719Y036557D03*
X005724Y036562D03*
X005724Y036567D03*
X005729Y036572D03*
X005729Y036577D03*
X005734Y036582D03*
X005739Y036587D03*
X005739Y036592D03*
X005744Y036597D03*
X005749Y036602D03*
X005749Y036607D03*
X005754Y036612D03*
X005759Y036622D03*
X005764Y036627D03*
X005774Y036642D03*
X005779Y036647D03*
X005784Y036657D03*
X005789Y036662D03*
X005804Y036682D03*
X005824Y036707D03*
X006964Y034532D03*
X007449Y034287D03*
X007449Y034282D03*
X007444Y034277D03*
X007444Y034272D03*
X007439Y034267D03*
X007439Y034262D03*
X007434Y034257D03*
X007429Y034247D03*
X007454Y034292D03*
X007459Y034302D03*
X007464Y034312D03*
X007469Y034322D03*
X007474Y034332D03*
X007479Y034337D03*
X007479Y034342D03*
X007484Y034347D03*
X007484Y034352D03*
X007489Y034357D03*
X007494Y034367D03*
X007499Y034377D03*
X007504Y034387D03*
X007509Y034397D03*
X007514Y034402D03*
X007514Y034407D03*
X007519Y034412D03*
X007519Y034417D03*
X007524Y034422D03*
X007524Y034427D03*
X007529Y034432D03*
X007534Y034442D03*
X007539Y034452D03*
X007544Y034462D03*
X007549Y034472D03*
X007554Y034477D03*
X007554Y034482D03*
X007559Y034487D03*
X007559Y034492D03*
X007564Y034497D03*
X007564Y034502D03*
X007569Y034507D03*
X007574Y034517D03*
X007579Y034527D03*
X007584Y034537D03*
X007589Y034547D03*
X007594Y034552D03*
X007594Y034557D03*
X007599Y034562D03*
X007599Y034567D03*
X007604Y034572D03*
X007609Y034582D03*
X007614Y034592D03*
X007619Y034602D03*
X007624Y034612D03*
X007629Y034617D03*
X007629Y034622D03*
X007634Y034627D03*
X007784Y034907D03*
X007784Y034912D03*
X007789Y034917D03*
X007789Y034922D03*
X007794Y034927D03*
X007794Y034932D03*
X007799Y034937D03*
X008664Y034642D03*
X008674Y034617D03*
X008684Y034592D03*
X008694Y034567D03*
X008704Y034542D03*
X008799Y034992D03*
X008649Y033217D03*
X009009Y032992D03*
X009014Y032987D03*
X009019Y032977D03*
X009024Y032972D03*
X009024Y032967D03*
X009029Y032962D03*
X009034Y032952D03*
X009039Y032942D03*
X009044Y032932D03*
X009054Y032907D03*
X007139Y032777D03*
X007134Y032762D03*
X007124Y032737D03*
X007119Y032727D03*
X007114Y032717D03*
X007109Y032707D03*
X007104Y032697D03*
X007104Y032692D03*
X007099Y032687D03*
X007094Y032677D03*
X007089Y032667D03*
X007084Y032657D03*
X007079Y032652D03*
X007079Y032647D03*
X007074Y032642D03*
X007069Y032637D03*
X007069Y032632D03*
X007064Y032627D03*
X007059Y032617D03*
X007054Y032612D03*
X007039Y032592D03*
X006764Y032707D03*
X006744Y032732D03*
X006734Y032747D03*
X006729Y032752D03*
X006724Y032762D03*
X006719Y032767D03*
X006714Y032772D03*
X006714Y032777D03*
X006709Y032782D03*
X006704Y032787D03*
X006704Y032792D03*
X006699Y032797D03*
X006694Y032802D03*
X006694Y032807D03*
X006689Y032812D03*
X006689Y032817D03*
X006684Y032822D03*
X006679Y032832D03*
X006674Y032842D03*
X006669Y032852D03*
X006664Y032862D03*
X006659Y032872D03*
X006654Y032882D03*
X006644Y032907D03*
X006639Y032917D03*
X006634Y032932D03*
X006629Y032947D03*
X006624Y032962D03*
X005254Y033892D03*
X005259Y033902D03*
X005264Y033912D03*
X005269Y033922D03*
X005279Y033947D03*
X005284Y033957D03*
X005289Y033972D03*
X005294Y033982D03*
X005299Y033997D03*
X009209Y038367D03*
X009034Y038762D03*
D26*
X009389Y038982D03*
X009404Y038987D03*
X009424Y038992D03*
X009519Y039017D03*
X009539Y039037D03*
X009269Y038337D03*
X009034Y038267D03*
X009854Y037647D03*
X008424Y035682D03*
X007919Y034167D03*
X008244Y033027D03*
X008474Y032867D03*
X008984Y032772D03*
X007059Y033047D03*
X006584Y036657D03*
X006694Y037002D03*
X006914Y037237D03*
X007854Y039042D03*
D27*
X009719Y037182D03*
X008824Y034527D03*
X008749Y032812D03*
X008974Y032777D03*
X006319Y036047D03*
D28*
X007771Y034637D03*
X008536Y034897D03*
X008951Y032782D03*
D29*
X008931Y032787D03*
X008016Y032977D03*
X009116Y039102D03*
D30*
X008914Y032792D03*
D31*
X008899Y032797D03*
D32*
X008884Y032802D03*
D33*
X008871Y032807D03*
X007701Y032947D03*
X008991Y039112D03*
D34*
X009206Y036412D03*
X009236Y036407D03*
X009266Y036402D03*
X008551Y034692D03*
X008816Y034497D03*
X008706Y032817D03*
D35*
X008676Y032822D03*
X009436Y036372D03*
X006791Y037207D03*
X006576Y037027D03*
X008036Y039082D03*
D36*
X008009Y039077D03*
X009729Y037927D03*
X008454Y035672D03*
X007254Y033002D03*
X008649Y032827D03*
D37*
X008624Y032832D03*
X007279Y034247D03*
X009449Y036367D03*
X009854Y037632D03*
X009969Y037952D03*
X009849Y037977D03*
X009779Y037992D03*
X009754Y037997D03*
X009729Y038002D03*
X009634Y038022D03*
X009609Y038027D03*
X009019Y038717D03*
X009529Y039042D03*
X007984Y039072D03*
D38*
X008189Y038137D03*
X008174Y038082D03*
X008159Y038022D03*
X008154Y038002D03*
X008149Y037982D03*
X008139Y037937D03*
X008134Y037912D03*
X008129Y037887D03*
X008124Y037862D03*
X008124Y037857D03*
X008119Y037832D03*
X008114Y037802D03*
X008114Y037797D03*
X008109Y037772D03*
X008109Y037767D03*
X008104Y037742D03*
X008104Y037737D03*
X008104Y037732D03*
X008099Y037702D03*
X008099Y037697D03*
X008099Y037692D03*
X008094Y037662D03*
X008094Y037657D03*
X008094Y037652D03*
X008089Y037612D03*
X008089Y037607D03*
X008089Y037602D03*
X008089Y037597D03*
X008084Y037557D03*
X008084Y037552D03*
X008084Y037547D03*
X008084Y037542D03*
X008084Y037537D03*
X008084Y037532D03*
X008079Y037477D03*
X008079Y037472D03*
X008079Y037467D03*
X008079Y037462D03*
X008079Y037457D03*
X008079Y037452D03*
X008079Y037447D03*
X008079Y037442D03*
X008079Y037437D03*
X008079Y037432D03*
X008079Y037427D03*
X008079Y037422D03*
X008079Y037417D03*
X008079Y037252D03*
X008079Y037247D03*
X008079Y037242D03*
X008079Y037237D03*
X008079Y037232D03*
X008079Y037227D03*
X008079Y037222D03*
X008079Y037217D03*
X008079Y037212D03*
X008079Y037207D03*
X008079Y037202D03*
X008079Y037197D03*
X008079Y037192D03*
X008084Y037142D03*
X008084Y037137D03*
X008084Y037132D03*
X008084Y037127D03*
X008084Y037122D03*
X008084Y037117D03*
X008084Y037112D03*
X008089Y037072D03*
X008089Y037067D03*
X008089Y037062D03*
X008089Y037057D03*
X008089Y037052D03*
X008094Y037017D03*
X008094Y037012D03*
X008094Y037007D03*
X008094Y037002D03*
X008094Y036997D03*
X008099Y036967D03*
X008099Y036962D03*
X008099Y036957D03*
X008104Y036927D03*
X008104Y036922D03*
X008104Y036917D03*
X008104Y036912D03*
X008109Y036887D03*
X008109Y036882D03*
X008109Y036877D03*
X008114Y036852D03*
X008114Y036847D03*
X008114Y036842D03*
X008119Y036817D03*
X008119Y036812D03*
X008124Y036782D03*
X008124Y036777D03*
X008129Y036752D03*
X008129Y036747D03*
X008134Y036722D03*
X008139Y036697D03*
X008139Y036692D03*
X008144Y036667D03*
X008144Y036662D03*
X008149Y036637D03*
X008154Y036612D03*
X008159Y036587D03*
X008164Y036562D03*
X008169Y036537D03*
X008174Y036517D03*
X008179Y036492D03*
X008184Y036472D03*
X008189Y036447D03*
X008194Y036427D03*
X008199Y036402D03*
X008209Y036357D03*
X008214Y036337D03*
X008219Y036317D03*
X008229Y036272D03*
X008234Y036252D03*
X008239Y036232D03*
X008244Y036212D03*
X008284Y036047D03*
X008289Y036027D03*
X008294Y036007D03*
X008299Y035987D03*
X008304Y035967D03*
X008309Y035947D03*
X008314Y035927D03*
X008319Y035907D03*
X008324Y035887D03*
X008329Y035867D03*
X008339Y035822D03*
X008344Y035802D03*
X008349Y035782D03*
X008359Y035737D03*
X008364Y035717D03*
X008379Y035652D03*
X008384Y035627D03*
X008389Y035602D03*
X008394Y035582D03*
X008399Y035557D03*
X008404Y035532D03*
X008409Y035512D03*
X008414Y035487D03*
X008414Y035482D03*
X008419Y035462D03*
X008494Y035102D03*
X008474Y035022D03*
X008469Y035002D03*
X008464Y034977D03*
X008459Y034952D03*
X008454Y034927D03*
X008454Y034922D03*
X008429Y034432D03*
X008429Y034427D03*
X008429Y034422D03*
X008429Y034417D03*
X008429Y034412D03*
X008429Y034407D03*
X008429Y034402D03*
X008429Y034397D03*
X008434Y034342D03*
X008434Y034337D03*
X008434Y034332D03*
X008434Y034327D03*
X008434Y034322D03*
X008434Y034317D03*
X008439Y034277D03*
X008439Y034272D03*
X008439Y034267D03*
X008439Y034262D03*
X008439Y034257D03*
X008444Y034222D03*
X008444Y034217D03*
X008444Y034212D03*
X008449Y034177D03*
X008449Y034172D03*
X008449Y034167D03*
X008454Y034132D03*
X008454Y034127D03*
X008454Y034122D03*
X008459Y034097D03*
X008459Y034092D03*
X008459Y034087D03*
X008464Y034057D03*
X008464Y034052D03*
X008469Y034022D03*
X008469Y034017D03*
X008474Y033992D03*
X008474Y033987D03*
X008479Y033957D03*
X008479Y033952D03*
X008484Y033927D03*
X008484Y033922D03*
X008489Y033897D03*
X008494Y033872D03*
X008494Y033867D03*
X008499Y033842D03*
X008504Y033817D03*
X008504Y033812D03*
X008509Y033792D03*
X008509Y033787D03*
X008514Y033767D03*
X008514Y033762D03*
X008519Y033742D03*
X008519Y033737D03*
X008524Y033717D03*
X008529Y033692D03*
X008534Y033667D03*
X008539Y033647D03*
X008544Y033622D03*
X008549Y033602D03*
X008554Y033577D03*
X008559Y033557D03*
X008564Y033537D03*
X008569Y033517D03*
X008574Y033497D03*
X008599Y033397D03*
X008604Y033377D03*
X008609Y033357D03*
X008624Y033302D03*
X008024Y033517D03*
X008024Y033522D03*
X008019Y033562D03*
X008019Y033567D03*
X008019Y033572D03*
X008019Y033577D03*
X008019Y033582D03*
X008019Y033587D03*
X008014Y033632D03*
X008014Y033637D03*
X008014Y033642D03*
X008014Y033647D03*
X008014Y033652D03*
X008009Y033697D03*
X008009Y033702D03*
X008009Y033707D03*
X008009Y033712D03*
X008009Y033717D03*
X008009Y033722D03*
X008004Y033762D03*
X008004Y033767D03*
X008004Y033772D03*
X008004Y033777D03*
X008004Y033782D03*
X008004Y033787D03*
X007999Y033832D03*
X007999Y033837D03*
X007999Y033842D03*
X007999Y033847D03*
X007999Y033852D03*
X007999Y033857D03*
X007994Y033897D03*
X007994Y033902D03*
X007994Y033907D03*
X007994Y033912D03*
X007994Y033917D03*
X007994Y033922D03*
X007989Y033962D03*
X007989Y033967D03*
X007989Y033972D03*
X007989Y033977D03*
X007989Y033982D03*
X007989Y033987D03*
X007984Y034032D03*
X007984Y034037D03*
X007984Y034042D03*
X007984Y034047D03*
X007984Y034052D03*
X007979Y034097D03*
X007979Y034102D03*
X007979Y034107D03*
X007979Y034112D03*
X007979Y034117D03*
X007979Y034122D03*
X007734Y034242D03*
X007734Y034247D03*
X007734Y034252D03*
X007734Y034257D03*
X007734Y034262D03*
X007739Y034302D03*
X007739Y034307D03*
X007739Y034312D03*
X007739Y034317D03*
X007739Y034322D03*
X007744Y034367D03*
X007744Y034372D03*
X007744Y034377D03*
X007744Y034382D03*
X007744Y034387D03*
X007749Y034427D03*
X007749Y034432D03*
X007749Y034437D03*
X007749Y034442D03*
X007749Y034447D03*
X007754Y034492D03*
X007754Y034497D03*
X007754Y034502D03*
X007754Y034507D03*
X007754Y034512D03*
X007759Y034552D03*
X007759Y034557D03*
X007759Y034562D03*
X007759Y034567D03*
X007759Y034572D03*
X007764Y034617D03*
X007764Y034622D03*
X007764Y034627D03*
X007799Y034947D03*
X007804Y035732D03*
X007804Y035737D03*
X007814Y035812D03*
X007814Y035817D03*
X007819Y035842D03*
X007819Y035847D03*
X007819Y035852D03*
X007824Y035882D03*
X007824Y035887D03*
X007829Y035917D03*
X007829Y035922D03*
X007829Y035927D03*
X007834Y035952D03*
X007834Y035957D03*
X007834Y035962D03*
X007729Y035987D03*
X007724Y036007D03*
X007714Y036052D03*
X007709Y036072D03*
X007704Y036097D03*
X007699Y036117D03*
X007694Y036142D03*
X007694Y036147D03*
X007689Y036167D03*
X007689Y036172D03*
X007684Y036192D03*
X007684Y036197D03*
X007679Y036222D03*
X007674Y036247D03*
X007674Y036252D03*
X007669Y036277D03*
X007669Y036282D03*
X007664Y036312D03*
X007664Y036317D03*
X007659Y036342D03*
X007659Y036347D03*
X007659Y036352D03*
X007654Y036382D03*
X007654Y036387D03*
X007649Y036417D03*
X007649Y036422D03*
X007649Y036427D03*
X007649Y036432D03*
X007644Y036462D03*
X007644Y036467D03*
X007644Y036472D03*
X007644Y036477D03*
X007639Y036517D03*
X007639Y036522D03*
X007639Y036527D03*
X007639Y036532D03*
X007639Y036537D03*
X007634Y036582D03*
X007634Y036587D03*
X007634Y036592D03*
X007634Y036597D03*
X007634Y036602D03*
X007634Y036607D03*
X007634Y036612D03*
X007629Y036687D03*
X007629Y036692D03*
X007629Y036697D03*
X007629Y036702D03*
X007629Y036707D03*
X007629Y036712D03*
X007629Y036717D03*
X007629Y036722D03*
X007629Y036727D03*
X007629Y036732D03*
X007629Y036737D03*
X007629Y036742D03*
X007629Y036747D03*
X007629Y036752D03*
X007629Y036757D03*
X007629Y036762D03*
X007629Y036767D03*
X007629Y036772D03*
X007629Y036777D03*
X007629Y036782D03*
X007629Y036787D03*
X007629Y036792D03*
X007629Y036797D03*
X007629Y036802D03*
X007629Y036807D03*
X007629Y036812D03*
X007629Y036817D03*
X007634Y036887D03*
X007634Y036892D03*
X007634Y036897D03*
X007634Y036902D03*
X007634Y036907D03*
X007634Y036912D03*
X007634Y036917D03*
X007639Y036962D03*
X007639Y036967D03*
X007639Y036972D03*
X007639Y036977D03*
X007644Y037012D03*
X007644Y037017D03*
X007644Y037022D03*
X007649Y037057D03*
X007649Y037062D03*
X007654Y037092D03*
X007654Y037097D03*
X007659Y037127D03*
X007659Y037132D03*
X007664Y037157D03*
X007669Y037182D03*
X007669Y037187D03*
X007674Y037207D03*
X007679Y037232D03*
X007684Y037257D03*
X007689Y037277D03*
X007694Y037297D03*
X007699Y037317D03*
X008389Y037612D03*
X008384Y037637D03*
X008384Y037642D03*
X008384Y037647D03*
X008379Y037682D03*
X008379Y037687D03*
X008379Y037692D03*
X008379Y037697D03*
X008379Y037702D03*
X008379Y037707D03*
X008379Y037712D03*
X008379Y037717D03*
X008379Y037722D03*
X008379Y037727D03*
X008379Y037732D03*
X008384Y037772D03*
X008384Y037777D03*
X008389Y037802D03*
X008389Y037807D03*
X008394Y037827D03*
X008614Y037797D03*
X008614Y037792D03*
X008619Y037757D03*
X008619Y037827D03*
X008864Y037827D03*
X008869Y037792D03*
X008864Y037757D03*
X009264Y037797D03*
X009269Y037767D03*
X009269Y037762D03*
X009269Y037657D03*
X009269Y037652D03*
X009269Y037647D03*
X009264Y037622D03*
X009264Y037617D03*
X009259Y037597D03*
X009254Y037577D03*
X009359Y037577D03*
X009359Y037572D03*
X009359Y037582D03*
X009359Y037587D03*
X009359Y037592D03*
X009364Y037617D03*
X009364Y037622D03*
X009369Y037642D03*
X009359Y037552D03*
X009359Y037527D03*
X009359Y037522D03*
X009359Y037517D03*
X009359Y037512D03*
X009359Y037507D03*
X009364Y037357D03*
X009364Y037352D03*
X009369Y037322D03*
X009369Y037317D03*
X009369Y037312D03*
X009369Y037307D03*
X009374Y037272D03*
X009374Y037267D03*
X009374Y037262D03*
X009379Y037227D03*
X009379Y037222D03*
X009379Y037217D03*
X009379Y037212D03*
X009384Y037182D03*
X009384Y037177D03*
X009384Y037172D03*
X009384Y037167D03*
X009389Y037137D03*
X009389Y037132D03*
X009389Y037127D03*
X009389Y037122D03*
X009394Y037087D03*
X009394Y037082D03*
X009394Y037077D03*
X009399Y037042D03*
X009399Y037037D03*
X009399Y037032D03*
X009404Y036997D03*
X009404Y036992D03*
X009404Y036987D03*
X009404Y036982D03*
X009409Y036952D03*
X009409Y036947D03*
X009409Y036942D03*
X009409Y036937D03*
X009414Y036907D03*
X009414Y036902D03*
X009414Y036897D03*
X009414Y036892D03*
X009419Y036857D03*
X009419Y036852D03*
X009419Y036847D03*
X009424Y036812D03*
X009424Y036807D03*
X009424Y036802D03*
X009424Y036797D03*
X009429Y036767D03*
X009429Y036762D03*
X009429Y036757D03*
X009429Y036752D03*
X009434Y036722D03*
X009434Y036717D03*
X009434Y036712D03*
X009434Y036707D03*
X009439Y036672D03*
X009439Y036667D03*
X009439Y036662D03*
X009444Y036627D03*
X009444Y036622D03*
X009444Y036617D03*
X009449Y036582D03*
X009449Y036577D03*
X009449Y036572D03*
X009449Y036567D03*
X009454Y036537D03*
X009454Y036532D03*
X009614Y036442D03*
X009634Y036712D03*
X009629Y036737D03*
X009629Y036742D03*
X009629Y036747D03*
X009624Y036777D03*
X009624Y036782D03*
X009624Y036787D03*
X009624Y036792D03*
X009624Y036797D03*
X009624Y036802D03*
X009624Y036807D03*
X009624Y037012D03*
X009934Y036982D03*
X009934Y036977D03*
X009934Y036972D03*
X009934Y036967D03*
X009929Y036942D03*
X009929Y036937D03*
X009929Y036932D03*
X009924Y036907D03*
X009924Y036902D03*
X009924Y036897D03*
X009919Y036872D03*
X009914Y036847D03*
X009914Y036842D03*
X009909Y036817D03*
X009904Y036797D03*
X009899Y036772D03*
X009894Y036752D03*
X009884Y036712D03*
X009939Y037017D03*
X009939Y037022D03*
X009939Y037027D03*
X009939Y037032D03*
X009944Y037077D03*
X009944Y037082D03*
X009944Y037087D03*
X009944Y037092D03*
X009944Y037097D03*
X009944Y037102D03*
X009944Y037107D03*
X009944Y037112D03*
X009979Y037477D03*
X009979Y037482D03*
X009979Y037487D03*
X009979Y037527D03*
X009979Y037532D03*
X009974Y037552D03*
X010079Y037592D03*
X010079Y037597D03*
X010074Y037627D03*
X010069Y037647D03*
X010079Y037507D03*
X010079Y037502D03*
X010079Y037497D03*
X010074Y037472D03*
X009729Y037487D03*
X009729Y037492D03*
X009729Y037497D03*
X009729Y037502D03*
X009729Y037507D03*
X009729Y037512D03*
X009729Y037517D03*
X009729Y037522D03*
X009729Y037527D03*
X009734Y037547D03*
X009259Y038112D03*
X009464Y038577D03*
X009459Y038602D03*
X009459Y038607D03*
X009459Y038612D03*
X009459Y038697D03*
X009459Y038702D03*
X009459Y038707D03*
X009459Y038712D03*
X009464Y038737D03*
X009464Y038742D03*
X009469Y038762D03*
X009474Y038782D03*
X008719Y036557D03*
X008724Y036532D03*
X008729Y036507D03*
X008734Y036482D03*
X008739Y036457D03*
X008744Y036432D03*
X008749Y036407D03*
X008754Y036382D03*
X008759Y036357D03*
X009309Y036247D03*
X009309Y036242D03*
X009309Y036237D03*
X009314Y036202D03*
X009314Y036197D03*
X009314Y036192D03*
X009319Y036157D03*
X009319Y036152D03*
X009319Y036147D03*
X008059Y036102D03*
X008039Y036012D03*
X008034Y035992D03*
X008019Y035937D03*
X008014Y035917D03*
X007999Y035862D03*
X007994Y035842D03*
X007964Y035727D03*
X007214Y036372D03*
X007214Y036377D03*
X007219Y036397D03*
X007219Y036402D03*
X007224Y036427D03*
X007224Y036432D03*
X007224Y036437D03*
X007224Y036442D03*
X007229Y036472D03*
X007229Y036477D03*
X007229Y036482D03*
X007229Y036487D03*
X007229Y036492D03*
X007229Y036497D03*
X007229Y036502D03*
X007229Y036507D03*
X007224Y036692D03*
X006929Y037352D03*
X006919Y037387D03*
X006914Y037407D03*
X006909Y037427D03*
X006904Y037447D03*
X006899Y037467D03*
X006894Y037492D03*
X006889Y037517D03*
X006884Y037537D03*
X006884Y037542D03*
X006879Y037567D03*
X006879Y037572D03*
X006874Y037597D03*
X006869Y037627D03*
X006869Y037632D03*
X006864Y037662D03*
X006864Y037667D03*
X006864Y037672D03*
X006859Y037707D03*
X006859Y037712D03*
X006859Y037717D03*
X006859Y037722D03*
X006859Y037727D03*
X006854Y037767D03*
X006854Y037772D03*
X006854Y037777D03*
X006854Y037782D03*
X006854Y037787D03*
X006854Y037792D03*
X006854Y037797D03*
X006854Y037802D03*
X006854Y037807D03*
X006854Y037812D03*
X006854Y037917D03*
X006854Y037922D03*
X006854Y037927D03*
X006854Y037932D03*
X006854Y037937D03*
X006854Y037942D03*
X006854Y037947D03*
X006854Y037952D03*
X006859Y037992D03*
X006859Y037997D03*
X006859Y038002D03*
X006859Y038007D03*
X006864Y038042D03*
X006864Y038047D03*
X006869Y038072D03*
X006869Y038077D03*
X006874Y038107D03*
X006879Y038132D03*
X006884Y038152D03*
X006899Y038212D03*
X005549Y036127D03*
X005539Y036082D03*
X005534Y036062D03*
X005529Y036037D03*
X005524Y036012D03*
X005519Y035987D03*
X005519Y035982D03*
X005514Y035957D03*
X005514Y035952D03*
X005509Y035927D03*
X005509Y035922D03*
X005504Y035892D03*
X005504Y035887D03*
X005499Y035857D03*
X005499Y035852D03*
X005499Y035847D03*
X005494Y035817D03*
X005494Y035812D03*
X005494Y035807D03*
X005489Y035777D03*
X005489Y035772D03*
X005489Y035767D03*
X005484Y035732D03*
X005484Y035727D03*
X005484Y035722D03*
X005484Y035717D03*
X005484Y035712D03*
X005479Y035677D03*
X005479Y035672D03*
X005479Y035667D03*
X005479Y035662D03*
X005479Y035657D03*
X005474Y035622D03*
X005474Y035617D03*
X005474Y035612D03*
X005474Y035607D03*
X005474Y035602D03*
X005474Y035597D03*
X005474Y035592D03*
X005469Y035542D03*
X005469Y035537D03*
X005469Y035532D03*
X005469Y035527D03*
X005469Y035522D03*
X005469Y035517D03*
X005464Y035462D03*
X005464Y035457D03*
X005464Y035452D03*
X005464Y035447D03*
X005464Y035442D03*
X005464Y035437D03*
X005464Y035432D03*
X005464Y035427D03*
X005464Y035422D03*
X005464Y035417D03*
X005459Y035352D03*
X005459Y035347D03*
X005459Y035342D03*
X005459Y035337D03*
X005459Y035332D03*
X005459Y035327D03*
X005459Y035322D03*
X005459Y035317D03*
X005459Y035312D03*
X005459Y035307D03*
X005459Y035302D03*
X005459Y035297D03*
X005459Y035292D03*
X005454Y035207D03*
X005454Y035202D03*
X005454Y035197D03*
X005454Y035192D03*
X005454Y035187D03*
X005454Y035182D03*
X005454Y035177D03*
X005454Y035172D03*
X005454Y035167D03*
X005454Y035162D03*
X005454Y035157D03*
X005454Y035152D03*
X005454Y035147D03*
X005449Y035062D03*
X005449Y035057D03*
X005449Y035052D03*
X005449Y035047D03*
X005449Y035042D03*
X005449Y035037D03*
X005449Y035032D03*
X005449Y035027D03*
X005449Y035022D03*
X005449Y035017D03*
X005449Y035012D03*
X005449Y035007D03*
X005449Y035002D03*
X005444Y034932D03*
X005444Y034927D03*
X005444Y034922D03*
X005444Y034917D03*
X005444Y034912D03*
X005444Y034907D03*
X005444Y034902D03*
X005444Y034897D03*
X005444Y034892D03*
X005444Y034887D03*
X005444Y034882D03*
X005439Y034822D03*
X005439Y034817D03*
X005439Y034812D03*
X005439Y034807D03*
X005439Y034802D03*
X005439Y034797D03*
X005439Y034792D03*
X005439Y034787D03*
X005434Y034737D03*
X005434Y034732D03*
X005434Y034727D03*
X005434Y034722D03*
X005434Y034717D03*
X005434Y034712D03*
X005434Y034707D03*
X005429Y034667D03*
X005429Y034662D03*
X005429Y034657D03*
X005429Y034652D03*
X005429Y034647D03*
X005424Y034607D03*
X005424Y034602D03*
X005424Y034597D03*
X005424Y034592D03*
X005424Y034587D03*
X005419Y034557D03*
X005419Y034552D03*
X005419Y034547D03*
X005419Y034542D03*
X005414Y034512D03*
X005414Y034507D03*
X005414Y034502D03*
X005409Y034467D03*
X005409Y034462D03*
X005409Y034457D03*
X005404Y034432D03*
X005404Y034427D03*
X005404Y034422D03*
X005399Y034397D03*
X005399Y034392D03*
X005394Y034362D03*
X005389Y034337D03*
X005389Y034332D03*
X005384Y034307D03*
X005379Y034282D03*
X005374Y034257D03*
X005369Y034232D03*
X005364Y034212D03*
X005359Y034192D03*
X005354Y034172D03*
X005349Y034152D03*
X005339Y034117D03*
X006579Y033177D03*
X006579Y033172D03*
X006584Y033147D03*
X006584Y033142D03*
X006589Y033117D03*
X006589Y033112D03*
X006594Y033087D03*
X006594Y033082D03*
X006599Y033057D03*
X006604Y033037D03*
X006814Y033472D03*
X006814Y033477D03*
X006819Y033507D03*
X006819Y033512D03*
X006824Y033542D03*
X006824Y033547D03*
X006829Y033577D03*
X006829Y033582D03*
X006829Y033587D03*
X006834Y033612D03*
X006834Y033617D03*
X006834Y033622D03*
X006839Y033647D03*
X006839Y033652D03*
X006839Y033657D03*
X006844Y033682D03*
X006844Y033687D03*
X006844Y033692D03*
X006849Y033722D03*
X006849Y033727D03*
X006854Y033757D03*
X006854Y033762D03*
X006859Y033792D03*
X006859Y033797D03*
X006864Y033827D03*
X006864Y033832D03*
X006869Y033862D03*
X006869Y033867D03*
X006874Y033897D03*
X006874Y033902D03*
X006874Y033907D03*
X006879Y033932D03*
X006879Y033937D03*
X006879Y033942D03*
X006884Y033967D03*
X006884Y033972D03*
X006884Y033977D03*
X006889Y034002D03*
X006889Y034007D03*
X006889Y034012D03*
X006894Y034042D03*
X006894Y034047D03*
X006899Y034077D03*
X006899Y034082D03*
X006904Y034112D03*
X006904Y034117D03*
X006909Y034147D03*
X006909Y034152D03*
X006914Y034182D03*
X006914Y034187D03*
X006919Y034217D03*
X006919Y034222D03*
X006919Y034227D03*
X006924Y034252D03*
X006924Y034257D03*
X006924Y034262D03*
X006929Y034287D03*
X006929Y034292D03*
X006929Y034297D03*
X006934Y034322D03*
X006934Y034327D03*
X006934Y034332D03*
X006939Y034362D03*
X006939Y034367D03*
X006944Y034397D03*
X006944Y034402D03*
X006949Y034432D03*
X006949Y034437D03*
X006954Y034467D03*
X006954Y034472D03*
X006964Y034537D03*
X007199Y032982D03*
X007164Y032852D03*
X009074Y032837D03*
D39*
X008599Y032837D03*
X008689Y033177D03*
X007699Y034632D03*
X007179Y033017D03*
X009389Y036497D03*
X009389Y036502D03*
X009389Y036517D03*
X009854Y037377D03*
X008824Y038182D03*
X007959Y039067D03*
X006899Y037232D03*
X006689Y037187D03*
X006894Y036597D03*
D40*
X006631Y037017D03*
X006666Y037182D03*
X007936Y039062D03*
X009031Y038712D03*
X008741Y037922D03*
X008741Y037662D03*
X009856Y037637D03*
X008931Y035672D03*
X008436Y035677D03*
X008161Y033007D03*
X008576Y032842D03*
D41*
X008554Y032847D03*
X008184Y033012D03*
X007159Y033022D03*
X007319Y035472D03*
X006629Y036647D03*
X006654Y037012D03*
X008724Y038152D03*
X008929Y038152D03*
X009739Y037932D03*
X009854Y037372D03*
X009719Y037167D03*
X009509Y039012D03*
X007914Y039057D03*
D42*
X007894Y039052D03*
X007874Y039047D03*
X009454Y038162D03*
X009579Y038037D03*
X010004Y037942D03*
X009854Y037642D03*
X009854Y037367D03*
X009464Y036362D03*
X008954Y035677D03*
X007179Y036652D03*
X006604Y036652D03*
X006604Y037167D03*
X006624Y037172D03*
X007114Y033032D03*
X008204Y033017D03*
X008534Y032852D03*
X008689Y033182D03*
D43*
X008511Y032857D03*
X008491Y032862D03*
X008226Y033022D03*
X007096Y033037D03*
X007076Y033042D03*
X008981Y036457D03*
X008826Y037232D03*
X008741Y037652D03*
X008741Y037932D03*
X008941Y038732D03*
X009056Y038702D03*
X006676Y037007D03*
X006586Y037162D03*
D44*
X006566Y037157D03*
X006566Y036662D03*
X007326Y035477D03*
X008971Y035682D03*
X009621Y037197D03*
X009816Y037197D03*
X009286Y038332D03*
X009251Y038342D03*
X009066Y038697D03*
X009356Y038972D03*
X009371Y038977D03*
X007836Y039037D03*
X007816Y039032D03*
X006626Y033187D03*
X007021Y033057D03*
X007041Y033052D03*
X008261Y033032D03*
X008281Y033037D03*
X008421Y032882D03*
X008456Y032872D03*
D45*
X008439Y032877D03*
X008404Y032887D03*
X008299Y033042D03*
X007934Y033472D03*
X007884Y033457D03*
X007819Y033437D03*
X007769Y033422D03*
X007704Y033402D03*
X007654Y033387D03*
X007589Y033367D03*
X007539Y033352D03*
X007474Y033332D03*
X007424Y033317D03*
X007359Y033297D03*
X007259Y033267D03*
X007004Y033062D03*
X006989Y033067D03*
X007249Y034252D03*
X007119Y035417D03*
X007134Y035422D03*
X007154Y035427D03*
X007169Y035432D03*
X007189Y035437D03*
X007204Y035442D03*
X007219Y035447D03*
X007239Y035452D03*
X007254Y035457D03*
X007274Y035462D03*
X006929Y036057D03*
X007194Y036657D03*
X006714Y036997D03*
X006549Y037152D03*
X006549Y036667D03*
X006039Y036882D03*
X007799Y039027D03*
X008994Y038767D03*
X009339Y038967D03*
X009439Y038997D03*
X009454Y039002D03*
X009529Y039022D03*
X009299Y038327D03*
X009464Y038157D03*
X010014Y037937D03*
X009854Y037362D03*
X008949Y037267D03*
X008704Y037267D03*
X008989Y035687D03*
D46*
X008741Y037647D03*
X008741Y037937D03*
X008956Y038147D03*
X008981Y038212D03*
X008996Y038207D03*
X009011Y038202D03*
X009031Y038197D03*
X009046Y038192D03*
X009061Y038187D03*
X009076Y038182D03*
X009096Y038177D03*
X009111Y038172D03*
X009126Y038167D03*
X009141Y038162D03*
X009161Y038157D03*
X009176Y038152D03*
X009191Y038147D03*
X009206Y038142D03*
X008966Y038217D03*
X008946Y038222D03*
X008931Y038227D03*
X008916Y038232D03*
X008901Y038237D03*
X008881Y038242D03*
X008866Y038247D03*
X008851Y038252D03*
X008836Y038257D03*
X008816Y038262D03*
X008801Y038267D03*
X008786Y038272D03*
X008771Y038277D03*
X008751Y038282D03*
X008736Y038287D03*
X008721Y038292D03*
X009076Y038692D03*
X009001Y038772D03*
X009471Y039007D03*
X009566Y038042D03*
X009826Y037897D03*
X007266Y036687D03*
X007266Y036682D03*
X007211Y036662D03*
X006746Y036987D03*
X006731Y036992D03*
X006531Y037147D03*
X006516Y037142D03*
X006531Y036672D03*
X007901Y033462D03*
X007916Y033467D03*
X007951Y033477D03*
X007966Y033482D03*
X007981Y033487D03*
X007866Y033452D03*
X007851Y033447D03*
X007836Y033442D03*
X007801Y033432D03*
X007786Y033427D03*
X007751Y033417D03*
X007736Y033412D03*
X007721Y033407D03*
X007686Y033397D03*
X007671Y033392D03*
X007636Y033382D03*
X007621Y033377D03*
X007606Y033372D03*
X007571Y033362D03*
X007556Y033357D03*
X007521Y033347D03*
X007506Y033342D03*
X007491Y033337D03*
X007456Y033327D03*
X007441Y033322D03*
X007406Y033312D03*
X007391Y033307D03*
X007376Y033302D03*
X007341Y033292D03*
X007326Y033287D03*
X006971Y033072D03*
X006956Y033077D03*
X006621Y033192D03*
X008316Y033047D03*
X008371Y032897D03*
X008386Y032892D03*
X008686Y033187D03*
D47*
X008329Y033052D03*
X008324Y032912D03*
X008339Y032907D03*
X008354Y032902D03*
X006939Y033082D03*
X006924Y033087D03*
X006909Y033092D03*
X008789Y034962D03*
X009009Y035692D03*
X009024Y035697D03*
X008414Y035687D03*
X009479Y036357D03*
X009854Y037652D03*
X009614Y037897D03*
X009024Y038272D03*
X009129Y038472D03*
X009129Y038477D03*
X009129Y038482D03*
X009129Y038487D03*
X009089Y038687D03*
X009009Y038777D03*
X009324Y038962D03*
X008694Y038147D03*
X007784Y039022D03*
X007769Y039017D03*
X006499Y037137D03*
X006484Y037132D03*
X006514Y036677D03*
X007229Y036667D03*
X007244Y036672D03*
X007259Y036677D03*
D48*
X006776Y036977D03*
X006761Y036982D03*
X006466Y037127D03*
X006501Y036682D03*
X006036Y036887D03*
X006946Y036062D03*
X007111Y035412D03*
X007331Y035482D03*
X008966Y036462D03*
X009221Y038137D03*
X009241Y038347D03*
X009126Y038492D03*
X008936Y038737D03*
X009016Y038782D03*
X009306Y038957D03*
X009536Y039027D03*
X008711Y038297D03*
X007751Y039012D03*
X007736Y039007D03*
X007721Y039002D03*
X006861Y033107D03*
X006876Y033102D03*
X006891Y033097D03*
X008246Y032937D03*
X008261Y032932D03*
X008276Y032927D03*
X008291Y032922D03*
X008306Y032917D03*
X008346Y033057D03*
X008361Y033062D03*
X008376Y033067D03*
D49*
X007706Y032937D03*
X006761Y037202D03*
X008826Y037237D03*
X009686Y038012D03*
D50*
X009474Y038152D03*
X009309Y038322D03*
X008974Y038142D03*
X009099Y038682D03*
X009024Y038787D03*
X009294Y038952D03*
X007709Y038997D03*
X007694Y038992D03*
X008684Y037272D03*
X008969Y037272D03*
X009599Y037202D03*
X009839Y037202D03*
X009909Y037222D03*
X009854Y037357D03*
X009414Y036522D03*
X009039Y035702D03*
X008169Y035802D03*
X007099Y036837D03*
X006794Y036972D03*
X006454Y037122D03*
X006439Y037117D03*
X006424Y037112D03*
X006469Y036692D03*
X006484Y036687D03*
X007989Y033492D03*
X008159Y032967D03*
X008174Y032962D03*
X008189Y032957D03*
X008204Y032952D03*
X008219Y032947D03*
X008234Y032942D03*
X008389Y033072D03*
X008404Y033077D03*
X008419Y033082D03*
X006849Y033112D03*
X006834Y033117D03*
X006819Y033122D03*
X006804Y033127D03*
X006614Y033197D03*
D51*
X007704Y032942D03*
D52*
X007699Y032952D03*
X007979Y034857D03*
X006889Y036627D03*
D53*
X007701Y032957D03*
D54*
X007701Y032962D03*
X008331Y034677D03*
X006511Y036017D03*
D55*
X007699Y032967D03*
D56*
X007751Y032972D03*
D57*
X007419Y032977D03*
X005909Y037032D03*
X009719Y037907D03*
D58*
X009476Y039057D03*
X008041Y032982D03*
D59*
X007374Y032982D03*
X007319Y034242D03*
X008819Y034517D03*
X006254Y037072D03*
X008824Y038172D03*
X009359Y039072D03*
D60*
X009516Y039047D03*
X009676Y038017D03*
X008826Y038177D03*
X008066Y039087D03*
X007151Y036642D03*
X006641Y036007D03*
X007266Y033282D03*
X008056Y032987D03*
D61*
X007319Y032987D03*
X008699Y035632D03*
X006894Y036602D03*
X009289Y039082D03*
X009719Y037912D03*
D62*
X009864Y037972D03*
X009719Y037172D03*
X007889Y034172D03*
X008089Y032992D03*
X007279Y032997D03*
X006679Y036637D03*
X006884Y037227D03*
D63*
X006874Y037222D03*
X009424Y039062D03*
X009719Y037177D03*
X008819Y034502D03*
X007299Y032992D03*
D64*
X007261Y033277D03*
X008116Y032997D03*
X008496Y035667D03*
X008901Y035667D03*
X006876Y036047D03*
X006606Y037022D03*
X006736Y037197D03*
X008741Y037917D03*
X009706Y038007D03*
X009801Y037987D03*
X009826Y037982D03*
X009921Y037962D03*
X009946Y037957D03*
D65*
X009991Y037947D03*
X009591Y038032D03*
X008741Y037667D03*
X009386Y036512D03*
X009386Y036507D03*
X008996Y036452D03*
X007166Y036647D03*
X006651Y036642D03*
X006711Y037192D03*
X007311Y035467D03*
X007201Y033012D03*
X007226Y033007D03*
X008141Y033002D03*
D66*
X007261Y033272D03*
X007136Y033027D03*
X006906Y036052D03*
X006646Y037177D03*
X008741Y037657D03*
X008741Y037927D03*
X009046Y038262D03*
X009066Y038257D03*
X009086Y038252D03*
X009111Y038247D03*
X009131Y038242D03*
X009151Y038237D03*
X009171Y038232D03*
X009191Y038227D03*
X009211Y038222D03*
X009231Y038217D03*
X009251Y038212D03*
X009271Y038207D03*
X009291Y038202D03*
X009311Y038197D03*
X009331Y038192D03*
X009356Y038187D03*
X009376Y038182D03*
X009396Y038177D03*
X009416Y038172D03*
X009436Y038167D03*
X009041Y038707D03*
X009381Y036492D03*
D67*
X009296Y035832D03*
X009286Y035827D03*
X009281Y035822D03*
X009271Y035817D03*
X009266Y035812D03*
X009256Y035807D03*
X008796Y034982D03*
X008411Y035417D03*
X008411Y035422D03*
X008406Y035432D03*
X008381Y035702D03*
X008211Y035762D03*
X008141Y035807D03*
X008131Y035812D03*
X008126Y035817D03*
X008116Y035822D03*
X008111Y035827D03*
X008101Y035832D03*
X008096Y035837D03*
X008021Y035887D03*
X007961Y035787D03*
X007961Y035782D03*
X007961Y035777D03*
X007796Y035782D03*
X007796Y035787D03*
X007721Y035952D03*
X008066Y036052D03*
X008066Y036057D03*
X007246Y036602D03*
X007246Y036607D03*
X007246Y036727D03*
X007211Y036752D03*
X007196Y036762D03*
X007181Y036772D03*
X007176Y036777D03*
X007166Y036782D03*
X007161Y036787D03*
X007151Y036792D03*
X007136Y036802D03*
X006981Y036422D03*
X006966Y036412D03*
X006961Y036407D03*
X006951Y036402D03*
X006946Y036397D03*
X006936Y036392D03*
X006931Y036387D03*
X006921Y036382D03*
X006916Y036377D03*
X006906Y036372D03*
X006891Y036362D03*
X006866Y036347D03*
X007046Y036107D03*
X007056Y036112D03*
X006946Y037247D03*
X007336Y038812D03*
X007351Y038822D03*
X007366Y038832D03*
X007381Y038842D03*
X008186Y038177D03*
X008576Y038092D03*
X008586Y038097D03*
X008591Y038102D03*
X008676Y037912D03*
X008806Y037912D03*
X008801Y037672D03*
X008681Y037672D03*
X008581Y037322D03*
X008586Y037317D03*
X008596Y037312D03*
X009056Y037312D03*
X009071Y037322D03*
X009376Y037392D03*
X009376Y037397D03*
X009516Y037242D03*
X009531Y037232D03*
X009931Y037247D03*
X009916Y037857D03*
X009521Y037857D03*
X009491Y038142D03*
X009556Y038347D03*
X009456Y038442D03*
X009421Y038467D03*
X009366Y038507D03*
X009311Y038547D03*
X009276Y038572D03*
X009221Y038612D03*
X009191Y038632D03*
X009041Y038742D03*
X009086Y038832D03*
X009096Y038837D03*
X009161Y038887D03*
X009171Y038892D03*
X009176Y038897D03*
X008786Y038662D03*
X008761Y038647D03*
X008746Y038637D03*
X008721Y038622D03*
X008706Y038612D03*
X008691Y038602D03*
X008676Y038592D03*
X008661Y038582D03*
X008646Y038572D03*
X008631Y038562D03*
X008616Y038552D03*
X008596Y038537D03*
X008581Y038527D03*
X009066Y038097D03*
X009081Y038087D03*
X006976Y034502D03*
X008666Y033207D03*
X008891Y033097D03*
X008896Y033092D03*
X008906Y033087D03*
D68*
X008749Y033167D03*
X008739Y033172D03*
X008484Y033107D03*
X008474Y033102D03*
X008459Y033097D03*
X006724Y033157D03*
X006699Y033167D03*
X006684Y033172D03*
X006674Y033177D03*
X006659Y033182D03*
X006609Y033202D03*
X008034Y035867D03*
X008179Y035792D03*
X009079Y035717D03*
X008984Y037277D03*
X008669Y037277D03*
X008664Y038137D03*
X008989Y038137D03*
X009229Y038132D03*
X009554Y038047D03*
X009594Y037892D03*
X009854Y037657D03*
X010024Y037932D03*
X009914Y037227D03*
X009719Y037162D03*
X009584Y037207D03*
X009119Y038672D03*
X009029Y038792D03*
X009034Y038797D03*
X009279Y038947D03*
X007654Y038977D03*
X007639Y038972D03*
X006834Y036957D03*
X006859Y036947D03*
X007104Y036832D03*
X007109Y036827D03*
X007219Y036622D03*
X006429Y036707D03*
X006419Y036712D03*
X006404Y036717D03*
X006359Y037087D03*
X006384Y037097D03*
X006034Y036892D03*
D69*
X006021Y036907D03*
X006011Y036912D03*
X006001Y036917D03*
X005991Y036922D03*
X005976Y036932D03*
X005966Y036937D03*
X005956Y036942D03*
X005941Y036952D03*
X005931Y036957D03*
X005921Y036962D03*
X005896Y036977D03*
X005886Y036982D03*
X005876Y036987D03*
X005861Y036997D03*
X005851Y037002D03*
X005841Y037007D03*
X005816Y037022D03*
X005806Y037027D03*
X006076Y036877D03*
X006081Y036872D03*
X006091Y036867D03*
X006101Y036862D03*
X006111Y036857D03*
X006121Y036852D03*
X006176Y036822D03*
X006186Y036817D03*
X006196Y036812D03*
X006741Y036277D03*
X006751Y036282D03*
X006761Y036287D03*
X006771Y036292D03*
X006781Y036297D03*
X006786Y036302D03*
X006796Y036307D03*
X006806Y036312D03*
X006816Y036317D03*
X006841Y036332D03*
X007021Y036092D03*
X007251Y036587D03*
X007251Y036592D03*
X007286Y036692D03*
X007131Y036807D03*
X007061Y036847D03*
X007036Y036862D03*
X007026Y036867D03*
X007016Y036872D03*
X007006Y036877D03*
X007711Y035972D03*
X007716Y035962D03*
X007856Y035967D03*
X007856Y035972D03*
X007791Y035807D03*
X007961Y035802D03*
X007961Y035797D03*
X007961Y035792D03*
X008026Y035882D03*
X008066Y036042D03*
X008066Y036047D03*
X008201Y035772D03*
X008396Y035457D03*
X008401Y035452D03*
X008401Y035447D03*
X008621Y034697D03*
X009186Y035767D03*
X009196Y035772D03*
X009206Y035777D03*
X009216Y035782D03*
X009551Y037222D03*
X009541Y037227D03*
X009386Y037362D03*
X009386Y037367D03*
X009381Y037372D03*
X009381Y037377D03*
X009801Y037382D03*
X009906Y037382D03*
X009901Y037867D03*
X009891Y037872D03*
X010036Y037927D03*
X009556Y037877D03*
X009546Y037872D03*
X009541Y038052D03*
X009556Y038352D03*
X009226Y038357D03*
X009006Y038282D03*
X009031Y038117D03*
X009041Y038112D03*
X008696Y038307D03*
X008616Y038117D03*
X008176Y038157D03*
X008176Y038162D03*
X008171Y038152D03*
X008836Y038692D03*
X008861Y038707D03*
X008931Y038747D03*
X008941Y038752D03*
X008951Y038757D03*
X009071Y038822D03*
X009201Y038912D03*
X009211Y038917D03*
X009221Y038922D03*
X009156Y038652D03*
X009166Y038647D03*
X008611Y037302D03*
X008621Y037297D03*
X007486Y038902D03*
X007476Y038897D03*
X007466Y038892D03*
X007456Y038887D03*
X007441Y038877D03*
X007431Y038872D03*
X007346Y035492D03*
X007096Y035402D03*
X007641Y034682D03*
X007216Y034257D03*
X006976Y034497D03*
X006046Y033467D03*
X006036Y033472D03*
X006026Y033477D03*
X005891Y033547D03*
X005881Y033552D03*
X005871Y033557D03*
X005861Y033562D03*
X005766Y033612D03*
X005756Y033617D03*
X005746Y033622D03*
X005736Y033627D03*
X005631Y033682D03*
X005621Y033687D03*
X005611Y033692D03*
X008846Y033122D03*
X008856Y033117D03*
X008866Y033112D03*
D70*
X008839Y033127D03*
X008829Y033132D03*
X008674Y033202D03*
X008634Y033172D03*
X007644Y034687D03*
X006979Y034492D03*
X006834Y033442D03*
X006319Y033332D03*
X006309Y033337D03*
X006104Y033437D03*
X006094Y033442D03*
X006084Y033447D03*
X006074Y033452D03*
X006064Y033457D03*
X006054Y033462D03*
X006019Y033482D03*
X006009Y033487D03*
X005999Y033492D03*
X005989Y033497D03*
X005979Y033502D03*
X005969Y033507D03*
X005959Y033512D03*
X005949Y033517D03*
X005939Y033522D03*
X005929Y033527D03*
X005919Y033532D03*
X005909Y033537D03*
X005899Y033542D03*
X005854Y033567D03*
X005844Y033572D03*
X005834Y033577D03*
X005824Y033582D03*
X005814Y033587D03*
X005804Y033592D03*
X005794Y033597D03*
X005784Y033602D03*
X005774Y033607D03*
X005729Y033632D03*
X005719Y033637D03*
X005709Y033642D03*
X005699Y033647D03*
X005689Y033652D03*
X005679Y033657D03*
X005669Y033662D03*
X005659Y033667D03*
X005649Y033672D03*
X005639Y033677D03*
X005604Y033697D03*
X005594Y033702D03*
X005584Y033707D03*
X005574Y033712D03*
X005564Y033717D03*
X005554Y033722D03*
X005544Y033727D03*
X005534Y033732D03*
X005524Y033737D03*
X005514Y033742D03*
X005504Y033747D03*
X005494Y033752D03*
X005484Y033757D03*
X005474Y033762D03*
X005464Y033767D03*
X005454Y033772D03*
X005444Y033777D03*
X005434Y033782D03*
X005424Y033787D03*
X005414Y033792D03*
X005404Y033797D03*
X005394Y033802D03*
X005384Y033807D03*
X005374Y033812D03*
X005364Y033817D03*
X005354Y033822D03*
X005344Y033827D03*
X005334Y033832D03*
X005324Y033837D03*
X005314Y033842D03*
X005304Y033847D03*
X005294Y033852D03*
X005284Y033857D03*
X005264Y033867D03*
X006624Y036217D03*
X006634Y036222D03*
X006644Y036227D03*
X006654Y036232D03*
X006664Y036237D03*
X006674Y036242D03*
X006684Y036247D03*
X006694Y036252D03*
X006704Y036257D03*
X006714Y036262D03*
X006724Y036267D03*
X006734Y036272D03*
X007014Y036087D03*
X007254Y036577D03*
X007254Y036582D03*
X007124Y036812D03*
X006999Y036882D03*
X006989Y036887D03*
X006979Y036892D03*
X006969Y036897D03*
X006959Y036902D03*
X006949Y036907D03*
X006209Y036807D03*
X006169Y036827D03*
X006159Y036832D03*
X006149Y036837D03*
X006139Y036842D03*
X006129Y036847D03*
X007709Y035977D03*
X008069Y036037D03*
X008394Y035697D03*
X008394Y035467D03*
X008794Y034977D03*
X009149Y035747D03*
X009159Y035752D03*
X009169Y035757D03*
X009179Y035762D03*
X009559Y037217D03*
X009879Y037217D03*
X009924Y037237D03*
X009884Y037877D03*
X009024Y038122D03*
X009109Y038497D03*
X009149Y038657D03*
X009064Y038817D03*
X008959Y038762D03*
X008639Y038127D03*
X008629Y038122D03*
X008169Y038147D03*
X008739Y037637D03*
X008634Y037292D03*
X009019Y037292D03*
X009029Y037297D03*
X007514Y038917D03*
X007504Y038912D03*
X007494Y038907D03*
D71*
X007569Y038942D03*
X007579Y038947D03*
X008649Y038132D03*
X009004Y038132D03*
X009484Y038147D03*
X009554Y038362D03*
X009549Y038367D03*
X009544Y038372D03*
X009539Y038377D03*
X009534Y038382D03*
X009529Y038392D03*
X009524Y038397D03*
X009519Y038402D03*
X009514Y038407D03*
X009139Y038662D03*
X009129Y038667D03*
X009049Y038807D03*
X009254Y038937D03*
X009579Y037887D03*
X009859Y037887D03*
X009854Y037352D03*
X009919Y037232D03*
X009349Y036487D03*
X009494Y036352D03*
X009114Y035732D03*
X009104Y035727D03*
X008189Y035782D03*
X007104Y035407D03*
X006989Y036077D03*
X006549Y036182D03*
X006539Y036177D03*
X006494Y036157D03*
X006484Y036152D03*
X006474Y036147D03*
X006459Y036142D03*
X006449Y036137D03*
X006439Y036132D03*
X006429Y036127D03*
X006414Y036122D03*
X006404Y036117D03*
X006394Y036112D03*
X006369Y036102D03*
X006354Y036737D03*
X006344Y036742D03*
X006334Y036747D03*
X006324Y036752D03*
X006289Y036767D03*
X006334Y037077D03*
X006884Y036937D03*
X006894Y036932D03*
X006904Y036927D03*
X007114Y036822D03*
X008644Y037287D03*
X008654Y037282D03*
X006984Y034482D03*
X006839Y033437D03*
X006874Y033422D03*
X006934Y033397D03*
X006969Y033382D03*
X007004Y033367D03*
X007064Y033342D03*
X007099Y033327D03*
X007134Y033312D03*
X007194Y033287D03*
X006564Y033222D03*
X006539Y033232D03*
X006529Y033237D03*
X006504Y033247D03*
X006494Y033252D03*
X006484Y033257D03*
X006459Y033267D03*
X006449Y033272D03*
X006439Y033277D03*
X006404Y033292D03*
X006394Y033297D03*
X006384Y033302D03*
X008534Y033127D03*
X008544Y033132D03*
X008559Y033137D03*
X008569Y033142D03*
X008579Y033147D03*
X008679Y033197D03*
X008774Y033157D03*
X008784Y033152D03*
D72*
X007249Y033247D03*
X006959Y034547D03*
X007369Y035507D03*
X007809Y035712D03*
X007809Y035717D03*
X007964Y035712D03*
X008059Y036112D03*
X008059Y036117D03*
X008434Y035327D03*
X008759Y036332D03*
X009314Y036267D03*
X008949Y037092D03*
X009719Y037937D03*
X009174Y038457D03*
X009609Y039077D03*
D73*
X009326Y039077D03*
X008131Y039097D03*
X006861Y037217D03*
X006726Y036632D03*
X007131Y036637D03*
X007861Y034177D03*
X008821Y034522D03*
D74*
X007834Y034182D03*
X009719Y037192D03*
X008824Y038162D03*
D75*
X007806Y034187D03*
D76*
X007776Y034192D03*
X007551Y034212D03*
D77*
X007609Y034207D03*
X007664Y034202D03*
X007719Y034197D03*
X007494Y034217D03*
X007439Y034222D03*
D78*
X007399Y034227D03*
X008699Y035642D03*
D79*
X007369Y034232D03*
X006469Y037037D03*
D80*
X007336Y034237D03*
X009721Y037187D03*
X008826Y038167D03*
X009251Y039087D03*
D81*
X009394Y039067D03*
X009719Y037917D03*
X008819Y034512D03*
X008819Y034507D03*
D82*
X008801Y034997D03*
X007966Y035717D03*
X007966Y035722D03*
X007806Y035722D03*
X007806Y035727D03*
X008061Y036107D03*
X008921Y036477D03*
X009316Y036482D03*
X009521Y036342D03*
X009856Y037667D03*
X010061Y037917D03*
X009521Y038062D03*
X009511Y038132D03*
X008671Y038322D03*
X009601Y039072D03*
X006961Y034542D03*
D83*
X006956Y034552D03*
X007796Y034952D03*
X007966Y035702D03*
X007966Y035707D03*
X008056Y036122D03*
X008801Y035002D03*
X009621Y036437D03*
X009266Y038107D03*
X009201Y038372D03*
X005861Y037027D03*
D84*
X007859Y036052D03*
X008059Y036127D03*
X007969Y035697D03*
X007809Y035702D03*
X007809Y035707D03*
X006954Y034557D03*
X008979Y038297D03*
X009079Y038507D03*
X009349Y038297D03*
X009614Y039082D03*
D85*
X009621Y039087D03*
X008666Y038327D03*
X007211Y036697D03*
X008056Y036137D03*
X008056Y036132D03*
X007966Y035692D03*
X007966Y035687D03*
X007811Y035692D03*
X007811Y035697D03*
X007791Y034957D03*
X006951Y034567D03*
X006951Y034562D03*
X009311Y036112D03*
D86*
X007844Y034642D03*
X006889Y036617D03*
D87*
X007921Y034647D03*
D88*
X007996Y034652D03*
D89*
X008066Y034657D03*
D90*
X008146Y034662D03*
X008646Y039117D03*
D91*
X008641Y039122D03*
X008186Y034667D03*
D92*
X008259Y034672D03*
X006179Y037047D03*
D93*
X008404Y034682D03*
X008699Y035657D03*
D94*
X008476Y034687D03*
D95*
X007846Y034852D03*
X008826Y037247D03*
D96*
X008111Y034862D03*
D97*
X008169Y034867D03*
D98*
X008174Y034872D03*
D99*
X008176Y034877D03*
D100*
X008179Y034882D03*
D101*
X008259Y034887D03*
D102*
X008399Y034892D03*
D103*
X008429Y035322D03*
X007969Y035682D03*
X007814Y035682D03*
X007814Y035687D03*
X008944Y037097D03*
X009524Y038127D03*
X010069Y037912D03*
D104*
X009719Y037922D03*
X009009Y036447D03*
X008719Y035627D03*
D105*
X008699Y035637D03*
X007099Y036632D03*
D106*
X008701Y035647D03*
D107*
X008699Y035652D03*
D108*
X008861Y035662D03*
X008536Y035662D03*
X008826Y037242D03*
X008976Y038727D03*
X009491Y039052D03*
X008096Y039092D03*
D109*
X006494Y036012D03*
D110*
X006526Y036022D03*
D111*
X006539Y036027D03*
D112*
X006546Y036032D03*
D113*
X006556Y036037D03*
D114*
X006566Y036042D03*
D115*
X006819Y037212D03*
X009029Y036442D03*
X009059Y036437D03*
X009089Y036432D03*
X009119Y036427D03*
X009149Y036422D03*
X009179Y036417D03*
X009294Y036397D03*
X009324Y036392D03*
X009354Y036387D03*
X009384Y036382D03*
X009414Y036377D03*
X009879Y037967D03*
D116*
X008826Y038157D03*
X006891Y036607D03*
D117*
X006891Y036612D03*
X008621Y039147D03*
D118*
X006891Y036622D03*
D119*
X006536Y037032D03*
X008976Y038722D03*
D120*
X006014Y037037D03*
D121*
X006189Y037042D03*
D122*
X006166Y037052D03*
D123*
X006149Y037057D03*
D124*
X006134Y037062D03*
D125*
X006214Y037067D03*
D126*
X008824Y037252D03*
X009209Y039092D03*
D127*
X009166Y039097D03*
X008826Y037257D03*
D128*
X008826Y037262D03*
D129*
X009721Y037902D03*
D130*
X008174Y039102D03*
D131*
X009064Y039107D03*
D132*
X008219Y039107D03*
D133*
X008281Y039112D03*
D134*
X008641Y039127D03*
D135*
X008634Y039132D03*
D136*
X008631Y039137D03*
D137*
X008626Y039142D03*
D138*
X009860Y032489D02*
X009858Y032487D01*
X009858Y032484D01*
X009860Y032482D01*
X009865Y032482D01*
X009867Y032482D02*
X009867Y032487D01*
X009869Y032489D01*
X009870Y032487D01*
X009870Y032482D01*
X009874Y032482D02*
X009874Y032489D01*
X009872Y032489D01*
X009870Y032487D01*
X009865Y032489D02*
X009860Y032489D01*
X009865Y032489D02*
X009865Y032479D01*
X009876Y032484D02*
X009876Y032487D01*
X009878Y032489D01*
X009883Y032489D01*
X009883Y032492D02*
X009883Y032482D01*
X009878Y032482D01*
X009876Y032484D01*
X009886Y032484D02*
X009886Y032482D01*
X009888Y032482D01*
X009888Y032484D01*
X009886Y032484D01*
X009890Y032482D02*
X009890Y032492D01*
X009897Y032492D02*
X009897Y032482D01*
X009893Y032486D01*
X009890Y032482D01*
X009899Y032484D02*
X009901Y032482D01*
X009906Y032482D01*
X009906Y032492D01*
X009901Y032492D01*
X009899Y032491D01*
X009899Y032489D01*
X009901Y032487D01*
X009906Y032487D01*
X009909Y032487D02*
X009915Y032487D01*
X009918Y032482D02*
X009924Y032482D01*
X009924Y032492D01*
X009927Y032491D02*
X009929Y032492D01*
X009932Y032492D01*
X009934Y032491D01*
X009934Y032484D01*
X009932Y032482D01*
X009929Y032482D01*
X009927Y032484D01*
X009927Y032491D01*
X009936Y032492D02*
X009943Y032482D01*
X009945Y032484D02*
X009945Y032487D01*
X009947Y032489D01*
X009950Y032489D01*
X009952Y032487D01*
X009952Y032484D01*
X009950Y032482D01*
X009947Y032482D01*
X009945Y032484D01*
X009955Y032482D02*
X009960Y032482D01*
X009961Y032484D01*
X009961Y032487D01*
X009960Y032489D01*
X009955Y032489D01*
X009955Y032481D01*
X009956Y032479D01*
X009958Y032479D01*
X009964Y032484D02*
X009964Y032487D01*
X009965Y032489D01*
X009969Y032489D01*
X009970Y032487D01*
X009970Y032484D01*
X009969Y032482D01*
X009965Y032482D01*
X009964Y032484D01*
X009973Y032482D02*
X009980Y032482D01*
X009980Y032492D01*
X009982Y032492D02*
X009989Y032482D01*
X009991Y032484D02*
X009993Y032482D01*
X009996Y032482D01*
X009998Y032484D01*
X010001Y032482D02*
X010007Y032482D01*
X010004Y032482D02*
X010004Y032492D01*
X010007Y032489D01*
X010010Y032491D02*
X010017Y032484D01*
X010015Y032482D01*
X010012Y032482D01*
X010010Y032484D01*
X010010Y032491D01*
X010012Y032492D01*
X010015Y032492D01*
X010017Y032491D01*
X010017Y032484D01*
X010019Y032482D02*
X010026Y032482D01*
X010019Y032489D01*
X010019Y032491D01*
X010021Y032492D01*
X010024Y032492D01*
X010026Y032491D01*
X010028Y032492D02*
X010035Y032482D01*
X010037Y032486D02*
X010037Y032492D01*
X010037Y032486D02*
X010041Y032482D01*
X010044Y032486D01*
X010044Y032492D01*
X010047Y032492D02*
X010053Y032492D01*
X010053Y032482D01*
X010047Y032482D01*
X010050Y032487D02*
X010053Y032487D01*
X010056Y032492D02*
X010063Y032482D01*
X010065Y032482D02*
X010072Y032489D01*
X010074Y032487D02*
X010076Y032489D01*
X010079Y032489D01*
X010081Y032487D01*
X010081Y032484D01*
X010079Y032482D01*
X010076Y032482D01*
X010074Y032484D01*
X010074Y032487D01*
X010072Y032482D02*
X010065Y032489D01*
X010084Y032487D02*
X010085Y032489D01*
X010090Y032489D01*
X010093Y032487D02*
X010093Y032484D01*
X010094Y032482D01*
X010099Y032482D01*
X010099Y032479D02*
X010099Y032489D01*
X010094Y032489D01*
X010093Y032487D01*
X010090Y032482D02*
X010085Y032482D01*
X010084Y032484D01*
X010084Y032487D01*
X010090Y032492D02*
X010090Y032482D01*
X010102Y032484D02*
X010102Y032487D01*
X010104Y032489D01*
X010107Y032489D01*
X010109Y032487D01*
X010109Y032484D01*
X010107Y032482D01*
X010104Y032482D01*
X010102Y032484D01*
X010111Y032489D02*
X010113Y032489D01*
X010116Y032486D01*
X010116Y032489D02*
X010116Y032482D01*
X010119Y032484D02*
X010119Y032491D01*
X010120Y032492D01*
X010125Y032492D01*
X010125Y032482D01*
X010120Y032482D01*
X010119Y032484D01*
X010128Y032492D02*
X010135Y032482D01*
X010138Y032482D02*
X010139Y032482D01*
X010139Y032484D01*
X010138Y032484D01*
X010138Y032482D01*
X010142Y032484D02*
X010142Y032491D01*
X010144Y032492D01*
X010149Y032492D01*
X010149Y032482D01*
X010144Y032482D01*
X010142Y032484D01*
X010139Y032487D02*
X010139Y032489D01*
X010138Y032489D01*
X010138Y032487D01*
X010139Y032487D01*
X009998Y032487D02*
X009995Y032489D01*
X009993Y032489D01*
X009991Y032487D01*
X009991Y032484D01*
X009998Y032487D02*
X009998Y032492D01*
X009991Y032492D01*
X009901Y032487D02*
X009899Y032486D01*
X009899Y032484D01*
M02*
