G75*
%MOIN*%
%OFA0B0*%
%FSLAX24Y24*%
%IPPOS*%
%LPD*%
%AMOC8*
5,1,8,0,0,1.08239X$1,22.5*
%
%ADD10R,0.0551X0.0433*%
%ADD11R,0.0472X0.0472*%
%ADD12R,0.0197X0.0591*%
%ADD13R,0.0591X0.0197*%
%ADD14R,0.0433X0.0551*%
%ADD15R,0.0551X0.0551*%
%ADD16R,0.0450X0.0300*%
%ADD17R,0.0433X0.0394*%
%ADD18R,0.0630X0.1181*%
%ADD19R,0.1900X0.2250*%
%ADD20R,0.0394X0.0433*%
%ADD21R,0.1669X0.1500*%
%ADD22R,0.0240X0.0870*%
%ADD23R,0.0945X0.0945*%
%ADD24R,0.1142X0.2126*%
%ADD25R,0.0315X0.0472*%
%ADD26R,0.0472X0.0315*%
%ADD27R,0.0945X0.0591*%
%ADD28R,0.0709X0.0630*%
%ADD29R,0.0669X0.0709*%
%ADD30R,0.0450X0.1700*%
%ADD31R,0.0720X0.0790*%
%ADD32R,0.0787X0.0472*%
%ADD33C,0.0236*%
%ADD34R,0.0870X0.0240*%
%ADD35R,0.0236X0.0472*%
%ADD36R,0.0472X0.0217*%
%ADD37R,0.0512X0.0591*%
%ADD38R,0.2000X0.1000*%
%ADD39R,0.0472X0.0354*%
%ADD40R,0.0512X0.0630*%
D10*
X013180Y013709D03*
X013180Y014496D03*
X016480Y008696D03*
X016480Y007909D03*
X022115Y007087D03*
X022115Y006300D03*
X022940Y006289D03*
X022940Y007076D03*
X021360Y016799D03*
X021360Y017586D03*
X020340Y017586D03*
X020340Y016799D03*
D11*
X002919Y009771D03*
X003745Y009771D03*
X007867Y016752D03*
X008693Y016752D03*
X013180Y012866D03*
X013180Y012039D03*
X022124Y008706D03*
X022953Y008706D03*
X022953Y007880D03*
X022124Y007880D03*
X023967Y033352D03*
X024793Y033352D03*
X019693Y033352D03*
X018867Y033352D03*
X014793Y033352D03*
X013967Y033352D03*
X009893Y033352D03*
X009067Y033352D03*
X004493Y033352D03*
X003667Y033352D03*
X012467Y054102D03*
X013293Y054102D03*
X017417Y054002D03*
X018243Y054002D03*
X022167Y053802D03*
X022993Y053802D03*
X027467Y053752D03*
X028293Y053752D03*
X008293Y054552D03*
X007467Y054552D03*
D12*
X014686Y020973D03*
X015000Y020973D03*
X015315Y020973D03*
X015630Y020973D03*
X015945Y020973D03*
X016260Y020973D03*
X016575Y020973D03*
X016890Y020973D03*
X017205Y020973D03*
X017520Y020973D03*
X017835Y020973D03*
X017835Y016406D03*
X017520Y016406D03*
X017205Y016406D03*
X016890Y016406D03*
X016575Y016406D03*
X016260Y016406D03*
X015945Y016406D03*
X015630Y016406D03*
X015315Y016406D03*
X015000Y016406D03*
X014686Y016406D03*
D13*
X013977Y017115D03*
X013977Y017430D03*
X013977Y017744D03*
X013977Y018059D03*
X013977Y018374D03*
X013977Y018689D03*
X013977Y019004D03*
X013977Y019319D03*
X013977Y019634D03*
X013977Y019949D03*
X013977Y020264D03*
X018544Y020264D03*
X018544Y019949D03*
X018544Y019634D03*
X018544Y019319D03*
X018544Y019004D03*
X018544Y018689D03*
X018544Y018374D03*
X018544Y018059D03*
X018544Y017744D03*
X018544Y017430D03*
X018544Y017115D03*
D14*
X010524Y016752D03*
X009736Y016752D03*
X005526Y009771D03*
X004738Y009771D03*
X005986Y027602D03*
X006774Y027602D03*
X010867Y027809D03*
X011655Y027809D03*
X015917Y027659D03*
X016705Y027659D03*
X020917Y027809D03*
X021705Y027809D03*
X025867Y027709D03*
X026655Y027709D03*
X026274Y033352D03*
X025486Y033352D03*
X021274Y033352D03*
X020486Y033352D03*
X016274Y033352D03*
X015486Y033352D03*
X011874Y033352D03*
X011086Y033352D03*
X006274Y033352D03*
X005486Y033352D03*
X005286Y048552D03*
X006074Y048552D03*
X010336Y048652D03*
X011124Y048652D03*
X015336Y048552D03*
X016124Y048552D03*
X020336Y048552D03*
X021124Y048552D03*
X025486Y048552D03*
X026274Y048552D03*
X025855Y054204D03*
X025067Y054204D03*
X020974Y054402D03*
X020186Y054402D03*
X016474Y054302D03*
X015686Y054302D03*
X010874Y054302D03*
X010086Y054302D03*
X005774Y054352D03*
X004986Y054352D03*
D15*
X006428Y010898D03*
X007924Y010898D03*
D16*
X008630Y025352D03*
X008630Y025852D03*
X008630Y026352D03*
X008630Y026852D03*
X010680Y026852D03*
X010680Y026352D03*
X010680Y025852D03*
X010680Y025352D03*
X013730Y025352D03*
X013730Y025852D03*
X013730Y026352D03*
X013730Y026852D03*
X015780Y026852D03*
X015780Y026352D03*
X015780Y025852D03*
X015780Y025352D03*
X018630Y025352D03*
X018630Y025852D03*
X018630Y026352D03*
X018630Y026852D03*
X020680Y026852D03*
X020680Y026352D03*
X020680Y025852D03*
X020680Y025352D03*
X023880Y025352D03*
X023880Y025852D03*
X023880Y026352D03*
X023880Y026852D03*
X025930Y026852D03*
X025930Y026352D03*
X025930Y025852D03*
X025930Y025352D03*
X005830Y025352D03*
X005830Y025852D03*
X005830Y026352D03*
X005830Y026852D03*
X003780Y026852D03*
X003780Y026352D03*
X003780Y025852D03*
X003780Y025352D03*
X006430Y055652D03*
X006430Y056152D03*
X006430Y056652D03*
X006430Y057152D03*
X008480Y057152D03*
X008480Y056652D03*
X008480Y056152D03*
X008480Y055652D03*
X011430Y055652D03*
X011430Y056152D03*
X011430Y056652D03*
X011430Y057152D03*
X013480Y057152D03*
X013480Y056652D03*
X013480Y056152D03*
X013480Y055652D03*
X016430Y055652D03*
X016430Y056152D03*
X016430Y056652D03*
X016430Y057152D03*
X018480Y057152D03*
X018480Y056652D03*
X018480Y056152D03*
X018480Y055652D03*
X021530Y055652D03*
X021530Y056152D03*
X021530Y056652D03*
X021530Y057152D03*
X023580Y057152D03*
X023580Y056652D03*
X023580Y056152D03*
X023580Y055652D03*
X026630Y055652D03*
X026630Y056152D03*
X026630Y056652D03*
X026630Y057152D03*
X028680Y057152D03*
X028680Y056652D03*
X028680Y056152D03*
X028680Y055652D03*
D17*
X013653Y011209D03*
X012984Y011209D03*
X008344Y009830D03*
X007675Y009830D03*
D18*
X007118Y028688D03*
X005323Y028688D03*
X010282Y028862D03*
X012078Y028862D03*
X015482Y028762D03*
X017278Y028762D03*
X020282Y028862D03*
X022078Y028862D03*
X025282Y028862D03*
X027078Y028862D03*
X026078Y053043D03*
X024282Y053043D03*
X021078Y053043D03*
X019282Y053043D03*
X016078Y053043D03*
X014282Y053043D03*
X011078Y053043D03*
X009282Y053043D03*
X006078Y053043D03*
X004282Y053043D03*
D19*
X005180Y050327D03*
X010180Y050327D03*
X015180Y050327D03*
X020180Y050327D03*
X025180Y050327D03*
X026180Y031578D03*
X021180Y031578D03*
X016380Y031478D03*
X011180Y031578D03*
X006221Y031404D03*
D20*
X013029Y010246D03*
X013029Y009576D03*
D21*
X011802Y007411D03*
X014313Y007411D03*
D22*
X004904Y013400D03*
X004404Y013400D03*
X003904Y013400D03*
X003404Y013400D03*
X003404Y015460D03*
X003904Y015460D03*
X004404Y015460D03*
X004904Y015460D03*
D23*
X005278Y011848D03*
X003546Y011848D03*
X011756Y010886D03*
X011756Y009154D03*
D24*
X010386Y013815D03*
X006488Y013815D03*
D25*
X006134Y016602D03*
X005426Y016602D03*
X022415Y010220D03*
X023124Y010220D03*
D26*
X013101Y016169D03*
X013101Y016878D03*
X004730Y017107D03*
X004730Y016398D03*
D27*
X011936Y013930D03*
X011936Y012119D03*
D28*
X009354Y010806D03*
X009354Y009704D03*
D29*
X010367Y009213D03*
X010367Y010827D03*
D30*
X010175Y035222D03*
X012185Y035222D03*
X015275Y035222D03*
X017285Y035222D03*
X020175Y035222D03*
X022185Y035222D03*
X025175Y035222D03*
X027185Y035222D03*
X027185Y046682D03*
X025175Y046682D03*
X022185Y046682D03*
X020175Y046682D03*
X017185Y046682D03*
X015175Y046682D03*
X012185Y046682D03*
X010175Y046682D03*
X007185Y046682D03*
X005175Y046682D03*
X005175Y035222D03*
X007185Y035222D03*
D31*
X007050Y037567D03*
X005380Y037667D03*
X005240Y039447D03*
X007040Y039427D03*
X007120Y042457D03*
X006980Y044237D03*
X005310Y044337D03*
X005320Y042477D03*
X010320Y042477D03*
X012120Y042457D03*
X011980Y044237D03*
X010310Y044337D03*
X010240Y039447D03*
X010380Y037667D03*
X012050Y037567D03*
X012040Y039427D03*
X015340Y039447D03*
X015480Y037667D03*
X017150Y037567D03*
X017140Y039427D03*
X017120Y042457D03*
X016980Y044237D03*
X015320Y042477D03*
X015310Y044337D03*
X020310Y044337D03*
X020320Y042477D03*
X022120Y042457D03*
X021980Y044237D03*
X025310Y044337D03*
X026980Y044237D03*
X027120Y042457D03*
X025320Y042477D03*
X025240Y039447D03*
X025380Y037667D03*
X027050Y037567D03*
X027040Y039427D03*
X022040Y039427D03*
X022050Y037567D03*
X020380Y037667D03*
X020240Y039447D03*
D32*
X011930Y016032D03*
X011930Y014772D03*
D33*
X013876Y010551D02*
X013876Y009253D01*
X013876Y010551D02*
X014584Y010551D01*
X014584Y009253D01*
X013876Y009253D01*
X013876Y009488D02*
X014584Y009488D01*
X014584Y009723D02*
X013876Y009723D01*
X013876Y009958D02*
X014584Y009958D01*
X014584Y010193D02*
X013876Y010193D01*
X013876Y010428D02*
X014584Y010428D01*
X014979Y005906D02*
X013681Y005906D01*
X014979Y005906D02*
X014979Y005198D01*
X013681Y005198D01*
X013681Y005906D01*
X013681Y005433D02*
X014979Y005433D01*
X014979Y005668D02*
X013681Y005668D01*
X013681Y005903D02*
X014979Y005903D01*
X017534Y024803D02*
X017534Y026101D01*
X017534Y024803D02*
X016826Y024803D01*
X016826Y026101D01*
X017534Y026101D01*
X017534Y025038D02*
X016826Y025038D01*
X016826Y025273D02*
X017534Y025273D01*
X017534Y025508D02*
X016826Y025508D01*
X016826Y025743D02*
X017534Y025743D01*
X017534Y025978D02*
X016826Y025978D01*
X012534Y026101D02*
X012534Y024803D01*
X011826Y024803D01*
X011826Y026101D01*
X012534Y026101D01*
X012534Y025038D02*
X011826Y025038D01*
X011826Y025273D02*
X012534Y025273D01*
X012534Y025508D02*
X011826Y025508D01*
X011826Y025743D02*
X012534Y025743D01*
X012534Y025978D02*
X011826Y025978D01*
X007534Y026101D02*
X007534Y024803D01*
X006826Y024803D01*
X006826Y026101D01*
X007534Y026101D01*
X007534Y025038D02*
X006826Y025038D01*
X006826Y025273D02*
X007534Y025273D01*
X007534Y025508D02*
X006826Y025508D01*
X006826Y025743D02*
X007534Y025743D01*
X007534Y025978D02*
X006826Y025978D01*
X003126Y028503D02*
X003126Y029801D01*
X003834Y029801D01*
X003834Y028503D01*
X003126Y028503D01*
X003126Y028738D02*
X003834Y028738D01*
X003834Y028973D02*
X003126Y028973D01*
X003126Y029208D02*
X003834Y029208D01*
X003834Y029443D02*
X003126Y029443D01*
X003126Y029678D02*
X003834Y029678D01*
X022534Y026101D02*
X022534Y024803D01*
X021826Y024803D01*
X021826Y026101D01*
X022534Y026101D01*
X022534Y025038D02*
X021826Y025038D01*
X021826Y025273D02*
X022534Y025273D01*
X022534Y025508D02*
X021826Y025508D01*
X021826Y025743D02*
X022534Y025743D01*
X022534Y025978D02*
X021826Y025978D01*
X027534Y026101D02*
X027534Y024803D01*
X026826Y024803D01*
X026826Y026101D01*
X027534Y026101D01*
X027534Y025038D02*
X026826Y025038D01*
X026826Y025273D02*
X027534Y025273D01*
X027534Y025508D02*
X026826Y025508D01*
X026826Y025743D02*
X027534Y025743D01*
X027534Y025978D02*
X026826Y025978D01*
X025534Y055803D02*
X025534Y057101D01*
X025534Y055803D02*
X024826Y055803D01*
X024826Y057101D01*
X025534Y057101D01*
X025534Y056038D02*
X024826Y056038D01*
X024826Y056273D02*
X025534Y056273D01*
X025534Y056508D02*
X024826Y056508D01*
X024826Y056743D02*
X025534Y056743D01*
X025534Y056978D02*
X024826Y056978D01*
X020534Y057101D02*
X020534Y055803D01*
X019826Y055803D01*
X019826Y057101D01*
X020534Y057101D01*
X020534Y056038D02*
X019826Y056038D01*
X019826Y056273D02*
X020534Y056273D01*
X020534Y056508D02*
X019826Y056508D01*
X019826Y056743D02*
X020534Y056743D01*
X020534Y056978D02*
X019826Y056978D01*
X015534Y057101D02*
X015534Y055803D01*
X014826Y055803D01*
X014826Y057101D01*
X015534Y057101D01*
X015534Y056038D02*
X014826Y056038D01*
X014826Y056273D02*
X015534Y056273D01*
X015534Y056508D02*
X014826Y056508D01*
X014826Y056743D02*
X015534Y056743D01*
X015534Y056978D02*
X014826Y056978D01*
X010534Y057101D02*
X010534Y055803D01*
X009826Y055803D01*
X009826Y057101D01*
X010534Y057101D01*
X010534Y056038D02*
X009826Y056038D01*
X009826Y056273D02*
X010534Y056273D01*
X010534Y056508D02*
X009826Y056508D01*
X009826Y056743D02*
X010534Y056743D01*
X010534Y056978D02*
X009826Y056978D01*
X005534Y057101D02*
X005534Y055803D01*
X004826Y055803D01*
X004826Y057101D01*
X005534Y057101D01*
X005534Y056038D02*
X004826Y056038D01*
X004826Y056273D02*
X005534Y056273D01*
X005534Y056508D02*
X004826Y056508D01*
X004826Y056743D02*
X005534Y056743D01*
X005534Y056978D02*
X004826Y056978D01*
D34*
X024943Y010820D03*
X024943Y010320D03*
X024943Y009820D03*
X024943Y009320D03*
X027003Y009320D03*
X027003Y009820D03*
X027003Y010320D03*
X027003Y010820D03*
D35*
X027050Y019140D03*
X027550Y019140D03*
X028050Y019140D03*
X028550Y019140D03*
X029050Y019140D03*
X029550Y019140D03*
X030050Y019140D03*
X030550Y019140D03*
X030550Y021345D03*
X030050Y021345D03*
X029550Y021345D03*
X029050Y021345D03*
X028550Y021345D03*
X028050Y021345D03*
X027550Y021345D03*
X027050Y021345D03*
X025630Y021355D03*
X025130Y021355D03*
X024630Y021355D03*
X024130Y021355D03*
X023630Y021355D03*
X023130Y021355D03*
X022630Y021355D03*
X022130Y021355D03*
X022130Y019150D03*
X022630Y019150D03*
X023130Y019150D03*
X023630Y019150D03*
X024130Y019150D03*
X024630Y019150D03*
X025130Y019150D03*
X025630Y019150D03*
D36*
X010327Y018567D03*
X010327Y017819D03*
X009304Y017819D03*
X009304Y018193D03*
X009304Y018567D03*
D37*
X007260Y018104D03*
X006590Y018104D03*
D38*
X009530Y007837D03*
X009530Y005868D03*
D39*
X017370Y005839D03*
X017370Y005339D03*
X017370Y006516D03*
X017370Y007016D03*
X019890Y007016D03*
X019890Y006516D03*
X019890Y005839D03*
X019890Y005339D03*
D40*
X022456Y005252D03*
X023204Y005252D03*
M02*
