G75*
G70*
%OFA0B0*%
%FSLAX25Y25*%
%IPPOS*%
%LPD*%
%AMOC8*
5,1,8,0,0,1.08239X$1,22.5*
%
%ADD103R,0.02400X0.08700*%
%ADD131R,0.04720X0.03150*%
%ADD148R,0.20000X0.10000*%
%ADD154R,0.06690X0.07090*%
%ADD183R,0.04330X0.05510*%
%ADD196R,0.04720X0.03540*%
%ADD197R,0.07200X0.07900*%
%ADD231R,0.01970X0.05910*%
%ADD279R,0.04330X0.03940*%
%ADD312R,0.05910X0.01970*%
%ADD323R,0.03940X0.04330*%
%ADD384R,0.07090X0.06300*%
%ADD395R,0.04500X0.03000*%
%ADD403R,0.04720X0.02170*%
%ADD409R,0.05510X0.04330*%
%ADD413R,0.03150X0.04720*%
%ADD459R,0.05120X0.06300*%
%ADD531R,0.04500X0.17000*%
%ADD543R,0.19000X0.22500*%
%ADD551R,0.07870X0.04720*%
%ADD580R,0.11420X0.21260*%
%ADD606R,0.09450X0.05910*%
%ADD62R,0.06300X0.11810*%
%ADD622R,0.05120X0.05910*%
%ADD654R,0.16690X0.15000*%
%ADD712R,0.05510X0.05510*%
%ADD803C,0.02360*%
%ADD859R,0.02360X0.04720*%
%ADD929R,0.08700X0.02400*%
%ADD933R,0.04720X0.04720*%
%ADD939R,0.09450X0.09450*%
X0020000Y0020000D02*
G75*
%LPD*%
D409*
X0150000Y0112570D03*
X0150000Y0120440D03*
X0183000Y0062440D03*
X0183000Y0054570D03*
X0239350Y0046350D03*
X0239350Y0038480D03*
X0247600Y0038370D03*
X0247600Y0046240D03*
X0231800Y0143470D03*
X0231800Y0151340D03*
X0221600Y0151340D03*
X0221600Y0143470D03*
D933*
X0047390Y0073190D03*
X0055650Y0073190D03*
X0096870Y0143000D03*
X0105130Y0143000D03*
X0150000Y0104140D03*
X0150000Y0095870D03*
X0239440Y0062540D03*
X0247730Y0062540D03*
X0247730Y0054280D03*
X0239440Y0054280D03*
X0257870Y0309000D03*
X0266130Y0309000D03*
X0215130Y0309000D03*
X0206870Y0309000D03*
X0166130Y0309000D03*
X0157870Y0309000D03*
X0117130Y0309000D03*
X0108870Y0309000D03*
X0063130Y0309000D03*
X0054870Y0309000D03*
X0142870Y0516500D03*
X0151130Y0516500D03*
X0192370Y0515500D03*
X0200630Y0515500D03*
X0239870Y0513500D03*
X0248130Y0513500D03*
X0292870Y0513000D03*
X0301130Y0513000D03*
X0101130Y0521000D03*
X0092870Y0521000D03*
D231*
X0165060Y0185210D03*
X0168200Y0185210D03*
X0171350Y0185210D03*
X0174500Y0185210D03*
X0177650Y0185210D03*
X0180800Y0185210D03*
X0183950Y0185210D03*
X0187100Y0185210D03*
X0190250Y0185210D03*
X0193400Y0185210D03*
X0196550Y0185210D03*
X0196550Y0139540D03*
X0193400Y0139540D03*
X0190250Y0139540D03*
X0187100Y0139540D03*
X0183950Y0139540D03*
X0180800Y0139540D03*
X0177650Y0139540D03*
X0174500Y0139540D03*
X0171350Y0139540D03*
X0168200Y0139540D03*
X0165060Y0139540D03*
D312*
X0157970Y0146630D03*
X0157970Y0149780D03*
X0157970Y0152920D03*
X0157970Y0156070D03*
X0157970Y0159220D03*
X0157970Y0162370D03*
X0157970Y0165520D03*
X0157970Y0168670D03*
X0157970Y0171820D03*
X0157970Y0174970D03*
X0157970Y0178120D03*
X0203640Y0178120D03*
X0203640Y0174970D03*
X0203640Y0171820D03*
X0203640Y0168670D03*
X0203640Y0165520D03*
X0203640Y0162370D03*
X0203640Y0159220D03*
X0203640Y0156070D03*
X0203640Y0152920D03*
X0203640Y0149780D03*
X0203640Y0146630D03*
D183*
X0123440Y0143000D03*
X0115560Y0143000D03*
X0073460Y0073190D03*
X0065580Y0073190D03*
X0078060Y0251500D03*
X0085940Y0251500D03*
X0126870Y0253570D03*
X0134750Y0253570D03*
X0177370Y0252070D03*
X0185250Y0252070D03*
X0227370Y0253570D03*
X0235250Y0253570D03*
X0276870Y0252570D03*
X0284750Y0252570D03*
X0280940Y0309000D03*
X0273060Y0309000D03*
X0230940Y0309000D03*
X0223060Y0309000D03*
X0180940Y0309000D03*
X0173060Y0309000D03*
X0136940Y0309000D03*
X0129060Y0309000D03*
X0080940Y0309000D03*
X0073060Y0309000D03*
X0071060Y0461000D03*
X0078940Y0461000D03*
X0121560Y0462000D03*
X0129440Y0462000D03*
X0171560Y0461000D03*
X0179440Y0461000D03*
X0221560Y0461000D03*
X0229440Y0461000D03*
X0273060Y0461000D03*
X0280940Y0461000D03*
X0276750Y0517520D03*
X0268870Y0517520D03*
X0227940Y0519500D03*
X0220060Y0519500D03*
X0182940Y0518500D03*
X0175060Y0518500D03*
X0126940Y0518500D03*
X0119060Y0518500D03*
X0075940Y0519000D03*
X0068060Y0519000D03*
D712*
X0082480Y0084460D03*
X0097440Y0084460D03*
D395*
X0104500Y0229000D03*
X0104500Y0234000D03*
X0104500Y0239000D03*
X0104500Y0244000D03*
X0125000Y0244000D03*
X0125000Y0239000D03*
X0125000Y0234000D03*
X0125000Y0229000D03*
X0155500Y0229000D03*
X0155500Y0234000D03*
X0155500Y0239000D03*
X0155500Y0244000D03*
X0176000Y0244000D03*
X0176000Y0239000D03*
X0176000Y0234000D03*
X0176000Y0229000D03*
X0204500Y0229000D03*
X0204500Y0234000D03*
X0204500Y0239000D03*
X0204500Y0244000D03*
X0225000Y0244000D03*
X0225000Y0239000D03*
X0225000Y0234000D03*
X0225000Y0229000D03*
X0257000Y0229000D03*
X0257000Y0234000D03*
X0257000Y0239000D03*
X0257000Y0244000D03*
X0277500Y0244000D03*
X0277500Y0239000D03*
X0277500Y0234000D03*
X0277500Y0229000D03*
X0076500Y0229000D03*
X0076500Y0234000D03*
X0076500Y0239000D03*
X0076500Y0244000D03*
X0056000Y0244000D03*
X0056000Y0239000D03*
X0056000Y0234000D03*
X0056000Y0229000D03*
X0082500Y0532000D03*
X0082500Y0537000D03*
X0082500Y0542000D03*
X0082500Y0547000D03*
X0103000Y0547000D03*
X0103000Y0542000D03*
X0103000Y0537000D03*
X0103000Y0532000D03*
X0132500Y0532000D03*
X0132500Y0537000D03*
X0132500Y0542000D03*
X0132500Y0547000D03*
X0153000Y0547000D03*
X0153000Y0542000D03*
X0153000Y0537000D03*
X0153000Y0532000D03*
X0182500Y0532000D03*
X0182500Y0537000D03*
X0182500Y0542000D03*
X0182500Y0547000D03*
X0203000Y0547000D03*
X0203000Y0542000D03*
X0203000Y0537000D03*
X0203000Y0532000D03*
X0233500Y0532000D03*
X0233500Y0537000D03*
X0233500Y0542000D03*
X0233500Y0547000D03*
X0254000Y0547000D03*
X0254000Y0542000D03*
X0254000Y0537000D03*
X0254000Y0532000D03*
X0284500Y0532000D03*
X0284500Y0537000D03*
X0284500Y0542000D03*
X0284500Y0547000D03*
X0305000Y0547000D03*
X0305000Y0542000D03*
X0305000Y0537000D03*
X0305000Y0532000D03*
D279*
X0154730Y0087570D03*
X0148040Y0087570D03*
X0101640Y0073780D03*
X0094950Y0073780D03*
D62*
X0089380Y0262360D03*
X0071430Y0262360D03*
X0121020Y0264100D03*
X0138980Y0264100D03*
X0173020Y0263100D03*
X0190980Y0263100D03*
X0221020Y0264100D03*
X0238980Y0264100D03*
X0271020Y0264100D03*
X0288980Y0264100D03*
X0278980Y0505910D03*
X0261020Y0505910D03*
X0228980Y0505910D03*
X0211020Y0505910D03*
X0178980Y0505910D03*
X0161020Y0505910D03*
X0128980Y0505910D03*
X0111020Y0505910D03*
X0078980Y0505910D03*
X0061020Y0505910D03*
D543*
X0070000Y0478750D03*
X0120000Y0478750D03*
X0170000Y0478750D03*
X0220000Y0478750D03*
X0270000Y0478750D03*
X0280000Y0291260D03*
X0230000Y0291260D03*
X0182000Y0290260D03*
X0130000Y0291260D03*
X0080410Y0289520D03*
D323*
X0148490Y0077940D03*
X0148490Y0071240D03*
D654*
X0136220Y0049590D03*
X0161330Y0049590D03*
D103*
X0067240Y0109480D03*
X0062240Y0109480D03*
X0057240Y0109480D03*
X0052240Y0109480D03*
X0052240Y0130080D03*
X0057240Y0130080D03*
X0062240Y0130080D03*
X0067240Y0130080D03*
D939*
X0070980Y0093960D03*
X0053660Y0093960D03*
X0135760Y0084340D03*
X0135760Y0067020D03*
D580*
X0122060Y0113630D03*
X0083080Y0113630D03*
D413*
X0079540Y0141500D03*
X0072460Y0141500D03*
X0242350Y0077680D03*
X0249440Y0077680D03*
D131*
X0149210Y0137170D03*
X0149210Y0144260D03*
X0065500Y0146550D03*
X0065500Y0139460D03*
D606*
X0137560Y0114780D03*
X0137560Y0096670D03*
D384*
X0111740Y0083540D03*
X0111740Y0072520D03*
D154*
X0121870Y0067610D03*
X0121870Y0083750D03*
D531*
X0119950Y0327700D03*
X0140050Y0327700D03*
X0170950Y0327700D03*
X0191050Y0327700D03*
X0219950Y0327700D03*
X0240050Y0327700D03*
X0269950Y0327700D03*
X0290050Y0327700D03*
X0290050Y0442300D03*
X0269950Y0442300D03*
X0240050Y0442300D03*
X0219950Y0442300D03*
X0190050Y0442300D03*
X0169950Y0442300D03*
X0140050Y0442300D03*
X0119950Y0442300D03*
X0090050Y0442300D03*
X0069950Y0442300D03*
X0069950Y0327700D03*
X0090050Y0327700D03*
D197*
X0088700Y0351150D03*
X0072000Y0352150D03*
X0070600Y0369950D03*
X0088600Y0369750D03*
X0089400Y0400050D03*
X0088000Y0417850D03*
X0071300Y0418850D03*
X0071400Y0400250D03*
X0121400Y0400250D03*
X0139400Y0400050D03*
X0138000Y0417850D03*
X0121300Y0418850D03*
X0120600Y0369950D03*
X0122000Y0352150D03*
X0138700Y0351150D03*
X0138600Y0369750D03*
X0171600Y0369950D03*
X0173000Y0352150D03*
X0189700Y0351150D03*
X0189600Y0369750D03*
X0189400Y0400050D03*
X0188000Y0417850D03*
X0171400Y0400250D03*
X0171300Y0418850D03*
X0221300Y0418850D03*
X0221400Y0400250D03*
X0239400Y0400050D03*
X0238000Y0417850D03*
X0271300Y0418850D03*
X0288000Y0417850D03*
X0289400Y0400050D03*
X0271400Y0400250D03*
X0270600Y0369950D03*
X0272000Y0352150D03*
X0288700Y0351150D03*
X0288600Y0369750D03*
X0238600Y0369750D03*
X0238700Y0351150D03*
X0222000Y0352150D03*
X0220600Y0369950D03*
D551*
X0137500Y0135800D03*
X0137500Y0123200D03*
D803*
X0156960Y0080990D02*
X0156960Y0068010D01*
X0156960Y0080990D02*
X0164040Y0080990D01*
X0164040Y0068010D01*
X0156960Y0068010D01*
X0156960Y0070360D02*
X0164040Y0070360D01*
X0164040Y0072710D02*
X0156960Y0072710D01*
X0156960Y0075060D02*
X0164040Y0075060D01*
X0164040Y0077410D02*
X0156960Y0077410D01*
X0156960Y0079760D02*
X0164040Y0079760D01*
X0167990Y0034540D02*
X0155010Y0034540D01*
X0167990Y0034540D02*
X0167990Y0027460D01*
X0155010Y0027460D01*
X0155010Y0034540D01*
X0155010Y0029810D02*
X0167990Y0029810D01*
X0167990Y0032160D02*
X0155010Y0032160D01*
X0155010Y0034510D02*
X0167990Y0034510D01*
X0193540Y0223510D02*
X0193540Y0236490D01*
X0193540Y0223510D02*
X0186460Y0223510D01*
X0186460Y0236490D01*
X0193540Y0236490D01*
X0193540Y0225860D02*
X0186460Y0225860D01*
X0186460Y0228210D02*
X0193540Y0228210D01*
X0193540Y0230560D02*
X0186460Y0230560D01*
X0186460Y0232910D02*
X0193540Y0232910D01*
X0193540Y0235260D02*
X0186460Y0235260D01*
X0143540Y0236490D02*
X0143540Y0223510D01*
X0136460Y0223510D01*
X0136460Y0236490D01*
X0143540Y0236490D01*
X0143540Y0225860D02*
X0136460Y0225860D01*
X0136460Y0228210D02*
X0143540Y0228210D01*
X0143540Y0230560D02*
X0136460Y0230560D01*
X0136460Y0232910D02*
X0143540Y0232910D01*
X0143540Y0235260D02*
X0136460Y0235260D01*
X0093540Y0236490D02*
X0093540Y0223510D01*
X0086460Y0223510D01*
X0086460Y0236490D01*
X0093540Y0236490D01*
X0093540Y0225860D02*
X0086460Y0225860D01*
X0086460Y0228210D02*
X0093540Y0228210D01*
X0093540Y0230560D02*
X0086460Y0230560D01*
X0086460Y0232910D02*
X0093540Y0232910D01*
X0093540Y0235260D02*
X0086460Y0235260D01*
X0049460Y0260510D02*
X0049460Y0273490D01*
X0056540Y0273490D01*
X0056540Y0260510D01*
X0049460Y0260510D01*
X0049460Y0262860D02*
X0056540Y0262860D01*
X0056540Y0265210D02*
X0049460Y0265210D01*
X0049460Y0267560D02*
X0056540Y0267560D01*
X0056540Y0269910D02*
X0049460Y0269910D01*
X0049460Y0272260D02*
X0056540Y0272260D01*
X0243540Y0236490D02*
X0243540Y0223510D01*
X0236460Y0223510D01*
X0236460Y0236490D01*
X0243540Y0236490D01*
X0243540Y0225860D02*
X0236460Y0225860D01*
X0236460Y0228210D02*
X0243540Y0228210D01*
X0243540Y0230560D02*
X0236460Y0230560D01*
X0236460Y0232910D02*
X0243540Y0232910D01*
X0243540Y0235260D02*
X0236460Y0235260D01*
X0293540Y0236490D02*
X0293540Y0223510D01*
X0286460Y0223510D01*
X0286460Y0236490D01*
X0293540Y0236490D01*
X0293540Y0225860D02*
X0286460Y0225860D01*
X0286460Y0228210D02*
X0293540Y0228210D01*
X0293540Y0230560D02*
X0286460Y0230560D01*
X0286460Y0232910D02*
X0293540Y0232910D01*
X0293540Y0235260D02*
X0286460Y0235260D01*
X0273540Y0533510D02*
X0273540Y0546490D01*
X0273540Y0533510D02*
X0266460Y0533510D01*
X0266460Y0546490D01*
X0273540Y0546490D01*
X0273540Y0535860D02*
X0266460Y0535860D01*
X0266460Y0538210D02*
X0273540Y0538210D01*
X0273540Y0540560D02*
X0266460Y0540560D01*
X0266460Y0542910D02*
X0273540Y0542910D01*
X0273540Y0545260D02*
X0266460Y0545260D01*
X0223540Y0546490D02*
X0223540Y0533510D01*
X0216460Y0533510D01*
X0216460Y0546490D01*
X0223540Y0546490D01*
X0223540Y0535860D02*
X0216460Y0535860D01*
X0216460Y0538210D02*
X0223540Y0538210D01*
X0223540Y0540560D02*
X0216460Y0540560D01*
X0216460Y0542910D02*
X0223540Y0542910D01*
X0223540Y0545260D02*
X0216460Y0545260D01*
X0173540Y0546490D02*
X0173540Y0533510D01*
X0166460Y0533510D01*
X0166460Y0546490D01*
X0173540Y0546490D01*
X0173540Y0535860D02*
X0166460Y0535860D01*
X0166460Y0538210D02*
X0173540Y0538210D01*
X0173540Y0540560D02*
X0166460Y0540560D01*
X0166460Y0542910D02*
X0173540Y0542910D01*
X0173540Y0545260D02*
X0166460Y0545260D01*
X0123540Y0546490D02*
X0123540Y0533510D01*
X0116460Y0533510D01*
X0116460Y0546490D01*
X0123540Y0546490D01*
X0123540Y0535860D02*
X0116460Y0535860D01*
X0116460Y0538210D02*
X0123540Y0538210D01*
X0123540Y0540560D02*
X0116460Y0540560D01*
X0116460Y0542910D02*
X0123540Y0542910D01*
X0123540Y0545260D02*
X0116460Y0545260D01*
X0073540Y0546490D02*
X0073540Y0533510D01*
X0066460Y0533510D01*
X0066460Y0546490D01*
X0073540Y0546490D01*
X0073540Y0535860D02*
X0066460Y0535860D01*
X0066460Y0538210D02*
X0073540Y0538210D01*
X0073540Y0540560D02*
X0066460Y0540560D01*
X0066460Y0542910D02*
X0073540Y0542910D01*
X0073540Y0545260D02*
X0066460Y0545260D01*
D929*
X0267630Y0083680D03*
X0267630Y0078680D03*
X0267630Y0073680D03*
X0267630Y0068680D03*
X0288230Y0068680D03*
X0288230Y0073680D03*
X0288230Y0078680D03*
X0288230Y0083680D03*
D859*
X0288700Y0166880D03*
X0293700Y0166880D03*
X0298700Y0166880D03*
X0303700Y0166880D03*
X0308700Y0166880D03*
X0313700Y0166880D03*
X0318700Y0166880D03*
X0323700Y0166880D03*
X0323700Y0188930D03*
X0318700Y0188930D03*
X0313700Y0188930D03*
X0308700Y0188930D03*
X0303700Y0188930D03*
X0298700Y0188930D03*
X0293700Y0188930D03*
X0288700Y0188930D03*
X0274500Y0189030D03*
X0269500Y0189030D03*
X0264500Y0189030D03*
X0259500Y0189030D03*
X0254500Y0189030D03*
X0249500Y0189030D03*
X0244500Y0189030D03*
X0239500Y0189030D03*
X0239500Y0166980D03*
X0244500Y0166980D03*
X0249500Y0166980D03*
X0254500Y0166980D03*
X0259500Y0166980D03*
X0264500Y0166980D03*
X0269500Y0166980D03*
X0274500Y0166980D03*
D403*
X0121470Y0161150D03*
X0121470Y0153670D03*
X0111240Y0153670D03*
X0111240Y0157410D03*
X0111240Y0161150D03*
D622*
X0090800Y0156520D03*
X0084100Y0156520D03*
D148*
X0113500Y0053850D03*
X0113500Y0034160D03*
D196*
X0191900Y0033870D03*
X0191900Y0028870D03*
X0191900Y0040640D03*
X0191900Y0045640D03*
X0217100Y0045640D03*
X0217100Y0040640D03*
X0217100Y0033870D03*
X0217100Y0028870D03*
D459*
X0242760Y0028000D03*
X0250240Y0028000D03*
X0362500Y0020000D02*
G75*
%LPD*%
D409*
X0492500Y0112570D03*
X0492500Y0120440D03*
X0525500Y0062440D03*
X0525500Y0054570D03*
X0581850Y0046350D03*
X0581850Y0038480D03*
X0590100Y0038370D03*
X0590100Y0046240D03*
X0574300Y0143470D03*
X0574300Y0151340D03*
X0564100Y0151340D03*
X0564100Y0143470D03*
D933*
X0389890Y0073190D03*
X0398150Y0073190D03*
X0439370Y0143000D03*
X0447630Y0143000D03*
X0492500Y0104140D03*
X0492500Y0095870D03*
X0581940Y0062540D03*
X0590230Y0062540D03*
X0590230Y0054280D03*
X0581940Y0054280D03*
X0600370Y0309000D03*
X0608630Y0309000D03*
X0557630Y0309000D03*
X0549370Y0309000D03*
X0508630Y0309000D03*
X0500370Y0309000D03*
X0459630Y0309000D03*
X0451370Y0309000D03*
X0405630Y0309000D03*
X0397370Y0309000D03*
X0485370Y0516500D03*
X0493630Y0516500D03*
X0534870Y0515500D03*
X0543130Y0515500D03*
X0582370Y0513500D03*
X0590630Y0513500D03*
X0635370Y0513000D03*
X0643630Y0513000D03*
X0443630Y0521000D03*
X0435370Y0521000D03*
D231*
X0507560Y0185210D03*
X0510700Y0185210D03*
X0513850Y0185210D03*
X0517000Y0185210D03*
X0520150Y0185210D03*
X0523300Y0185210D03*
X0526450Y0185210D03*
X0529600Y0185210D03*
X0532750Y0185210D03*
X0535900Y0185210D03*
X0539050Y0185210D03*
X0539050Y0139540D03*
X0535900Y0139540D03*
X0532750Y0139540D03*
X0529600Y0139540D03*
X0526450Y0139540D03*
X0523300Y0139540D03*
X0520150Y0139540D03*
X0517000Y0139540D03*
X0513850Y0139540D03*
X0510700Y0139540D03*
X0507560Y0139540D03*
D312*
X0500470Y0146630D03*
X0500470Y0149780D03*
X0500470Y0152920D03*
X0500470Y0156070D03*
X0500470Y0159220D03*
X0500470Y0162370D03*
X0500470Y0165520D03*
X0500470Y0168670D03*
X0500470Y0171820D03*
X0500470Y0174970D03*
X0500470Y0178120D03*
X0546140Y0178120D03*
X0546140Y0174970D03*
X0546140Y0171820D03*
X0546140Y0168670D03*
X0546140Y0165520D03*
X0546140Y0162370D03*
X0546140Y0159220D03*
X0546140Y0156070D03*
X0546140Y0152920D03*
X0546140Y0149780D03*
X0546140Y0146630D03*
D183*
X0465940Y0143000D03*
X0458060Y0143000D03*
X0415960Y0073190D03*
X0408080Y0073190D03*
X0420560Y0251500D03*
X0428440Y0251500D03*
X0469370Y0253570D03*
X0477250Y0253570D03*
X0519870Y0252070D03*
X0527750Y0252070D03*
X0569870Y0253570D03*
X0577750Y0253570D03*
X0619370Y0252570D03*
X0627250Y0252570D03*
X0623440Y0309000D03*
X0615560Y0309000D03*
X0573440Y0309000D03*
X0565560Y0309000D03*
X0523440Y0309000D03*
X0515560Y0309000D03*
X0479440Y0309000D03*
X0471560Y0309000D03*
X0423440Y0309000D03*
X0415560Y0309000D03*
X0413560Y0461000D03*
X0421440Y0461000D03*
X0464060Y0462000D03*
X0471940Y0462000D03*
X0514060Y0461000D03*
X0521940Y0461000D03*
X0564060Y0461000D03*
X0571940Y0461000D03*
X0615560Y0461000D03*
X0623440Y0461000D03*
X0619250Y0517520D03*
X0611370Y0517520D03*
X0570440Y0519500D03*
X0562560Y0519500D03*
X0525440Y0518500D03*
X0517560Y0518500D03*
X0469440Y0518500D03*
X0461560Y0518500D03*
X0418440Y0519000D03*
X0410560Y0519000D03*
D712*
X0424980Y0084460D03*
X0439940Y0084460D03*
D395*
X0447000Y0229000D03*
X0447000Y0234000D03*
X0447000Y0239000D03*
X0447000Y0244000D03*
X0467500Y0244000D03*
X0467500Y0239000D03*
X0467500Y0234000D03*
X0467500Y0229000D03*
X0498000Y0229000D03*
X0498000Y0234000D03*
X0498000Y0239000D03*
X0498000Y0244000D03*
X0518500Y0244000D03*
X0518500Y0239000D03*
X0518500Y0234000D03*
X0518500Y0229000D03*
X0547000Y0229000D03*
X0547000Y0234000D03*
X0547000Y0239000D03*
X0547000Y0244000D03*
X0567500Y0244000D03*
X0567500Y0239000D03*
X0567500Y0234000D03*
X0567500Y0229000D03*
X0599500Y0229000D03*
X0599500Y0234000D03*
X0599500Y0239000D03*
X0599500Y0244000D03*
X0620000Y0244000D03*
X0620000Y0239000D03*
X0620000Y0234000D03*
X0620000Y0229000D03*
X0419000Y0229000D03*
X0419000Y0234000D03*
X0419000Y0239000D03*
X0419000Y0244000D03*
X0398500Y0244000D03*
X0398500Y0239000D03*
X0398500Y0234000D03*
X0398500Y0229000D03*
X0425000Y0532000D03*
X0425000Y0537000D03*
X0425000Y0542000D03*
X0425000Y0547000D03*
X0445500Y0547000D03*
X0445500Y0542000D03*
X0445500Y0537000D03*
X0445500Y0532000D03*
X0475000Y0532000D03*
X0475000Y0537000D03*
X0475000Y0542000D03*
X0475000Y0547000D03*
X0495500Y0547000D03*
X0495500Y0542000D03*
X0495500Y0537000D03*
X0495500Y0532000D03*
X0525000Y0532000D03*
X0525000Y0537000D03*
X0525000Y0542000D03*
X0525000Y0547000D03*
X0545500Y0547000D03*
X0545500Y0542000D03*
X0545500Y0537000D03*
X0545500Y0532000D03*
X0576000Y0532000D03*
X0576000Y0537000D03*
X0576000Y0542000D03*
X0576000Y0547000D03*
X0596500Y0547000D03*
X0596500Y0542000D03*
X0596500Y0537000D03*
X0596500Y0532000D03*
X0627000Y0532000D03*
X0627000Y0537000D03*
X0627000Y0542000D03*
X0627000Y0547000D03*
X0647500Y0547000D03*
X0647500Y0542000D03*
X0647500Y0537000D03*
X0647500Y0532000D03*
D279*
X0497230Y0087570D03*
X0490540Y0087570D03*
X0444140Y0073780D03*
X0437450Y0073780D03*
D62*
X0431880Y0262360D03*
X0413930Y0262360D03*
X0463520Y0264100D03*
X0481480Y0264100D03*
X0515520Y0263100D03*
X0533480Y0263100D03*
X0563520Y0264100D03*
X0581480Y0264100D03*
X0613520Y0264100D03*
X0631480Y0264100D03*
X0621480Y0505910D03*
X0603520Y0505910D03*
X0571480Y0505910D03*
X0553520Y0505910D03*
X0521480Y0505910D03*
X0503520Y0505910D03*
X0471480Y0505910D03*
X0453520Y0505910D03*
X0421480Y0505910D03*
X0403520Y0505910D03*
D543*
X0412500Y0478750D03*
X0462500Y0478750D03*
X0512500Y0478750D03*
X0562500Y0478750D03*
X0612500Y0478750D03*
X0622500Y0291260D03*
X0572500Y0291260D03*
X0524500Y0290260D03*
X0472500Y0291260D03*
X0422910Y0289520D03*
D323*
X0490990Y0077940D03*
X0490990Y0071240D03*
D654*
X0478720Y0049590D03*
X0503830Y0049590D03*
D103*
X0409740Y0109480D03*
X0404740Y0109480D03*
X0399740Y0109480D03*
X0394740Y0109480D03*
X0394740Y0130080D03*
X0399740Y0130080D03*
X0404740Y0130080D03*
X0409740Y0130080D03*
D939*
X0413480Y0093960D03*
X0396160Y0093960D03*
X0478260Y0084340D03*
X0478260Y0067020D03*
D580*
X0464560Y0113630D03*
X0425580Y0113630D03*
D413*
X0422040Y0141500D03*
X0414960Y0141500D03*
X0584850Y0077680D03*
X0591940Y0077680D03*
D131*
X0491710Y0137170D03*
X0491710Y0144260D03*
X0408000Y0146550D03*
X0408000Y0139460D03*
D606*
X0480060Y0114780D03*
X0480060Y0096670D03*
D384*
X0454240Y0083540D03*
X0454240Y0072520D03*
D154*
X0464370Y0067610D03*
X0464370Y0083750D03*
D531*
X0462450Y0327700D03*
X0482550Y0327700D03*
X0513450Y0327700D03*
X0533550Y0327700D03*
X0562450Y0327700D03*
X0582550Y0327700D03*
X0612450Y0327700D03*
X0632550Y0327700D03*
X0632550Y0442300D03*
X0612450Y0442300D03*
X0582550Y0442300D03*
X0562450Y0442300D03*
X0532550Y0442300D03*
X0512450Y0442300D03*
X0482550Y0442300D03*
X0462450Y0442300D03*
X0432550Y0442300D03*
X0412450Y0442300D03*
X0412450Y0327700D03*
X0432550Y0327700D03*
D197*
X0431200Y0351150D03*
X0414500Y0352150D03*
X0413100Y0369950D03*
X0431100Y0369750D03*
X0431900Y0400050D03*
X0430500Y0417850D03*
X0413800Y0418850D03*
X0413900Y0400250D03*
X0463900Y0400250D03*
X0481900Y0400050D03*
X0480500Y0417850D03*
X0463800Y0418850D03*
X0463100Y0369950D03*
X0464500Y0352150D03*
X0481200Y0351150D03*
X0481100Y0369750D03*
X0514100Y0369950D03*
X0515500Y0352150D03*
X0532200Y0351150D03*
X0532100Y0369750D03*
X0531900Y0400050D03*
X0530500Y0417850D03*
X0513900Y0400250D03*
X0513800Y0418850D03*
X0563800Y0418850D03*
X0563900Y0400250D03*
X0581900Y0400050D03*
X0580500Y0417850D03*
X0613800Y0418850D03*
X0630500Y0417850D03*
X0631900Y0400050D03*
X0613900Y0400250D03*
X0613100Y0369950D03*
X0614500Y0352150D03*
X0631200Y0351150D03*
X0631100Y0369750D03*
X0581100Y0369750D03*
X0581200Y0351150D03*
X0564500Y0352150D03*
X0563100Y0369950D03*
D551*
X0480000Y0135800D03*
X0480000Y0123200D03*
D803*
X0499460Y0080990D02*
X0499460Y0068010D01*
X0499460Y0080990D02*
X0506540Y0080990D01*
X0506540Y0068010D01*
X0499460Y0068010D01*
X0499460Y0070360D02*
X0506540Y0070360D01*
X0506540Y0072710D02*
X0499460Y0072710D01*
X0499460Y0075060D02*
X0506540Y0075060D01*
X0506540Y0077410D02*
X0499460Y0077410D01*
X0499460Y0079760D02*
X0506540Y0079760D01*
X0510490Y0034540D02*
X0497510Y0034540D01*
X0510490Y0034540D02*
X0510490Y0027460D01*
X0497510Y0027460D01*
X0497510Y0034540D01*
X0497510Y0029810D02*
X0510490Y0029810D01*
X0510490Y0032160D02*
X0497510Y0032160D01*
X0497510Y0034510D02*
X0510490Y0034510D01*
X0536040Y0223510D02*
X0536040Y0236490D01*
X0536040Y0223510D02*
X0528960Y0223510D01*
X0528960Y0236490D01*
X0536040Y0236490D01*
X0536040Y0225860D02*
X0528960Y0225860D01*
X0528960Y0228210D02*
X0536040Y0228210D01*
X0536040Y0230560D02*
X0528960Y0230560D01*
X0528960Y0232910D02*
X0536040Y0232910D01*
X0536040Y0235260D02*
X0528960Y0235260D01*
X0486040Y0236490D02*
X0486040Y0223510D01*
X0478960Y0223510D01*
X0478960Y0236490D01*
X0486040Y0236490D01*
X0486040Y0225860D02*
X0478960Y0225860D01*
X0478960Y0228210D02*
X0486040Y0228210D01*
X0486040Y0230560D02*
X0478960Y0230560D01*
X0478960Y0232910D02*
X0486040Y0232910D01*
X0486040Y0235260D02*
X0478960Y0235260D01*
X0436040Y0236490D02*
X0436040Y0223510D01*
X0428960Y0223510D01*
X0428960Y0236490D01*
X0436040Y0236490D01*
X0436040Y0225860D02*
X0428960Y0225860D01*
X0428960Y0228210D02*
X0436040Y0228210D01*
X0436040Y0230560D02*
X0428960Y0230560D01*
X0428960Y0232910D02*
X0436040Y0232910D01*
X0436040Y0235260D02*
X0428960Y0235260D01*
X0391960Y0260510D02*
X0391960Y0273490D01*
X0399040Y0273490D01*
X0399040Y0260510D01*
X0391960Y0260510D01*
X0391960Y0262860D02*
X0399040Y0262860D01*
X0399040Y0265210D02*
X0391960Y0265210D01*
X0391960Y0267560D02*
X0399040Y0267560D01*
X0399040Y0269910D02*
X0391960Y0269910D01*
X0391960Y0272260D02*
X0399040Y0272260D01*
X0586040Y0236490D02*
X0586040Y0223510D01*
X0578960Y0223510D01*
X0578960Y0236490D01*
X0586040Y0236490D01*
X0586040Y0225860D02*
X0578960Y0225860D01*
X0578960Y0228210D02*
X0586040Y0228210D01*
X0586040Y0230560D02*
X0578960Y0230560D01*
X0578960Y0232910D02*
X0586040Y0232910D01*
X0586040Y0235260D02*
X0578960Y0235260D01*
X0636040Y0236490D02*
X0636040Y0223510D01*
X0628960Y0223510D01*
X0628960Y0236490D01*
X0636040Y0236490D01*
X0636040Y0225860D02*
X0628960Y0225860D01*
X0628960Y0228210D02*
X0636040Y0228210D01*
X0636040Y0230560D02*
X0628960Y0230560D01*
X0628960Y0232910D02*
X0636040Y0232910D01*
X0636040Y0235260D02*
X0628960Y0235260D01*
X0616040Y0533510D02*
X0616040Y0546490D01*
X0616040Y0533510D02*
X0608960Y0533510D01*
X0608960Y0546490D01*
X0616040Y0546490D01*
X0616040Y0535860D02*
X0608960Y0535860D01*
X0608960Y0538210D02*
X0616040Y0538210D01*
X0616040Y0540560D02*
X0608960Y0540560D01*
X0608960Y0542910D02*
X0616040Y0542910D01*
X0616040Y0545260D02*
X0608960Y0545260D01*
X0566040Y0546490D02*
X0566040Y0533510D01*
X0558960Y0533510D01*
X0558960Y0546490D01*
X0566040Y0546490D01*
X0566040Y0535860D02*
X0558960Y0535860D01*
X0558960Y0538210D02*
X0566040Y0538210D01*
X0566040Y0540560D02*
X0558960Y0540560D01*
X0558960Y0542910D02*
X0566040Y0542910D01*
X0566040Y0545260D02*
X0558960Y0545260D01*
X0516040Y0546490D02*
X0516040Y0533510D01*
X0508960Y0533510D01*
X0508960Y0546490D01*
X0516040Y0546490D01*
X0516040Y0535860D02*
X0508960Y0535860D01*
X0508960Y0538210D02*
X0516040Y0538210D01*
X0516040Y0540560D02*
X0508960Y0540560D01*
X0508960Y0542910D02*
X0516040Y0542910D01*
X0516040Y0545260D02*
X0508960Y0545260D01*
X0466040Y0546490D02*
X0466040Y0533510D01*
X0458960Y0533510D01*
X0458960Y0546490D01*
X0466040Y0546490D01*
X0466040Y0535860D02*
X0458960Y0535860D01*
X0458960Y0538210D02*
X0466040Y0538210D01*
X0466040Y0540560D02*
X0458960Y0540560D01*
X0458960Y0542910D02*
X0466040Y0542910D01*
X0466040Y0545260D02*
X0458960Y0545260D01*
X0416040Y0546490D02*
X0416040Y0533510D01*
X0408960Y0533510D01*
X0408960Y0546490D01*
X0416040Y0546490D01*
X0416040Y0535860D02*
X0408960Y0535860D01*
X0408960Y0538210D02*
X0416040Y0538210D01*
X0416040Y0540560D02*
X0408960Y0540560D01*
X0408960Y0542910D02*
X0416040Y0542910D01*
X0416040Y0545260D02*
X0408960Y0545260D01*
D929*
X0610130Y0083680D03*
X0610130Y0078680D03*
X0610130Y0073680D03*
X0610130Y0068680D03*
X0630730Y0068680D03*
X0630730Y0073680D03*
X0630730Y0078680D03*
X0630730Y0083680D03*
D859*
X0631200Y0166880D03*
X0636200Y0166880D03*
X0641200Y0166880D03*
X0646200Y0166880D03*
X0651200Y0166880D03*
X0656200Y0166880D03*
X0661200Y0166880D03*
X0666200Y0166880D03*
X0666200Y0188930D03*
X0661200Y0188930D03*
X0656200Y0188930D03*
X0651200Y0188930D03*
X0646200Y0188930D03*
X0641200Y0188930D03*
X0636200Y0188930D03*
X0631200Y0188930D03*
X0617000Y0189030D03*
X0612000Y0189030D03*
X0607000Y0189030D03*
X0602000Y0189030D03*
X0597000Y0189030D03*
X0592000Y0189030D03*
X0587000Y0189030D03*
X0582000Y0189030D03*
X0582000Y0166980D03*
X0587000Y0166980D03*
X0592000Y0166980D03*
X0597000Y0166980D03*
X0602000Y0166980D03*
X0607000Y0166980D03*
X0612000Y0166980D03*
X0617000Y0166980D03*
D403*
X0463970Y0161150D03*
X0463970Y0153670D03*
X0453740Y0153670D03*
X0453740Y0157410D03*
X0453740Y0161150D03*
D622*
X0433300Y0156520D03*
X0426600Y0156520D03*
D148*
X0456000Y0053850D03*
X0456000Y0034160D03*
D196*
X0534400Y0033870D03*
X0534400Y0028870D03*
X0534400Y0040640D03*
X0534400Y0045640D03*
X0559600Y0045640D03*
X0559600Y0040640D03*
X0559600Y0033870D03*
X0559600Y0028870D03*
D459*
X0585260Y0028000D03*
X0592740Y0028000D03*
X0020000Y0594500D02*
G75*
%LPD*%
D409*
X0150000Y0687070D03*
X0150000Y0694940D03*
X0183000Y0636940D03*
X0183000Y0629070D03*
X0239350Y0620850D03*
X0239350Y0612980D03*
X0247600Y0612870D03*
X0247600Y0620740D03*
X0231800Y0717970D03*
X0231800Y0725840D03*
X0221600Y0725840D03*
X0221600Y0717970D03*
D933*
X0047390Y0647690D03*
X0055650Y0647690D03*
X0096870Y0717500D03*
X0105130Y0717500D03*
X0150000Y0678640D03*
X0150000Y0670370D03*
X0239440Y0637040D03*
X0247730Y0637040D03*
X0247730Y0628780D03*
X0239440Y0628780D03*
X0257870Y0883500D03*
X0266130Y0883500D03*
X0215130Y0883500D03*
X0206870Y0883500D03*
X0166130Y0883500D03*
X0157870Y0883500D03*
X0117130Y0883500D03*
X0108870Y0883500D03*
X0063130Y0883500D03*
X0054870Y0883500D03*
X0142870Y1091000D03*
X0151130Y1091000D03*
X0192370Y1090000D03*
X0200630Y1090000D03*
X0239870Y1088000D03*
X0248130Y1088000D03*
X0292870Y1087500D03*
X0301130Y1087500D03*
X0101130Y1095500D03*
X0092870Y1095500D03*
D231*
X0165060Y0759710D03*
X0168200Y0759710D03*
X0171350Y0759710D03*
X0174500Y0759710D03*
X0177650Y0759710D03*
X0180800Y0759710D03*
X0183950Y0759710D03*
X0187100Y0759710D03*
X0190250Y0759710D03*
X0193400Y0759710D03*
X0196550Y0759710D03*
X0196550Y0714040D03*
X0193400Y0714040D03*
X0190250Y0714040D03*
X0187100Y0714040D03*
X0183950Y0714040D03*
X0180800Y0714040D03*
X0177650Y0714040D03*
X0174500Y0714040D03*
X0171350Y0714040D03*
X0168200Y0714040D03*
X0165060Y0714040D03*
D312*
X0157970Y0721130D03*
X0157970Y0724280D03*
X0157970Y0727420D03*
X0157970Y0730570D03*
X0157970Y0733720D03*
X0157970Y0736870D03*
X0157970Y0740020D03*
X0157970Y0743170D03*
X0157970Y0746320D03*
X0157970Y0749470D03*
X0157970Y0752620D03*
X0203640Y0752620D03*
X0203640Y0749470D03*
X0203640Y0746320D03*
X0203640Y0743170D03*
X0203640Y0740020D03*
X0203640Y0736870D03*
X0203640Y0733720D03*
X0203640Y0730570D03*
X0203640Y0727420D03*
X0203640Y0724280D03*
X0203640Y0721130D03*
D183*
X0123440Y0717500D03*
X0115560Y0717500D03*
X0073460Y0647690D03*
X0065580Y0647690D03*
X0078060Y0826000D03*
X0085940Y0826000D03*
X0126870Y0828070D03*
X0134750Y0828070D03*
X0177370Y0826570D03*
X0185250Y0826570D03*
X0227370Y0828070D03*
X0235250Y0828070D03*
X0276870Y0827070D03*
X0284750Y0827070D03*
X0280940Y0883500D03*
X0273060Y0883500D03*
X0230940Y0883500D03*
X0223060Y0883500D03*
X0180940Y0883500D03*
X0173060Y0883500D03*
X0136940Y0883500D03*
X0129060Y0883500D03*
X0080940Y0883500D03*
X0073060Y0883500D03*
X0071060Y1035500D03*
X0078940Y1035500D03*
X0121560Y1036500D03*
X0129440Y1036500D03*
X0171560Y1035500D03*
X0179440Y1035500D03*
X0221560Y1035500D03*
X0229440Y1035500D03*
X0273060Y1035500D03*
X0280940Y1035500D03*
X0276750Y1092020D03*
X0268870Y1092020D03*
X0227940Y1094000D03*
X0220060Y1094000D03*
X0182940Y1093000D03*
X0175060Y1093000D03*
X0126940Y1093000D03*
X0119060Y1093000D03*
X0075940Y1093500D03*
X0068060Y1093500D03*
D712*
X0082480Y0658960D03*
X0097440Y0658960D03*
D395*
X0104500Y0803500D03*
X0104500Y0808500D03*
X0104500Y0813500D03*
X0104500Y0818500D03*
X0125000Y0818500D03*
X0125000Y0813500D03*
X0125000Y0808500D03*
X0125000Y0803500D03*
X0155500Y0803500D03*
X0155500Y0808500D03*
X0155500Y0813500D03*
X0155500Y0818500D03*
X0176000Y0818500D03*
X0176000Y0813500D03*
X0176000Y0808500D03*
X0176000Y0803500D03*
X0204500Y0803500D03*
X0204500Y0808500D03*
X0204500Y0813500D03*
X0204500Y0818500D03*
X0225000Y0818500D03*
X0225000Y0813500D03*
X0225000Y0808500D03*
X0225000Y0803500D03*
X0257000Y0803500D03*
X0257000Y0808500D03*
X0257000Y0813500D03*
X0257000Y0818500D03*
X0277500Y0818500D03*
X0277500Y0813500D03*
X0277500Y0808500D03*
X0277500Y0803500D03*
X0076500Y0803500D03*
X0076500Y0808500D03*
X0076500Y0813500D03*
X0076500Y0818500D03*
X0056000Y0818500D03*
X0056000Y0813500D03*
X0056000Y0808500D03*
X0056000Y0803500D03*
X0082500Y1106500D03*
X0082500Y1111500D03*
X0082500Y1116500D03*
X0082500Y1121500D03*
X0103000Y1121500D03*
X0103000Y1116500D03*
X0103000Y1111500D03*
X0103000Y1106500D03*
X0132500Y1106500D03*
X0132500Y1111500D03*
X0132500Y1116500D03*
X0132500Y1121500D03*
X0153000Y1121500D03*
X0153000Y1116500D03*
X0153000Y1111500D03*
X0153000Y1106500D03*
X0182500Y1106500D03*
X0182500Y1111500D03*
X0182500Y1116500D03*
X0182500Y1121500D03*
X0203000Y1121500D03*
X0203000Y1116500D03*
X0203000Y1111500D03*
X0203000Y1106500D03*
X0233500Y1106500D03*
X0233500Y1111500D03*
X0233500Y1116500D03*
X0233500Y1121500D03*
X0254000Y1121500D03*
X0254000Y1116500D03*
X0254000Y1111500D03*
X0254000Y1106500D03*
X0284500Y1106500D03*
X0284500Y1111500D03*
X0284500Y1116500D03*
X0284500Y1121500D03*
X0305000Y1121500D03*
X0305000Y1116500D03*
X0305000Y1111500D03*
X0305000Y1106500D03*
D279*
X0154730Y0662070D03*
X0148040Y0662070D03*
X0101640Y0648280D03*
X0094950Y0648280D03*
D62*
X0089380Y0836860D03*
X0071430Y0836860D03*
X0121020Y0838600D03*
X0138980Y0838600D03*
X0173020Y0837600D03*
X0190980Y0837600D03*
X0221020Y0838600D03*
X0238980Y0838600D03*
X0271020Y0838600D03*
X0288980Y0838600D03*
X0278980Y1080410D03*
X0261020Y1080410D03*
X0228980Y1080410D03*
X0211020Y1080410D03*
X0178980Y1080410D03*
X0161020Y1080410D03*
X0128980Y1080410D03*
X0111020Y1080410D03*
X0078980Y1080410D03*
X0061020Y1080410D03*
D543*
X0070000Y1053250D03*
X0120000Y1053250D03*
X0170000Y1053250D03*
X0220000Y1053250D03*
X0270000Y1053250D03*
X0280000Y0865760D03*
X0230000Y0865760D03*
X0182000Y0864760D03*
X0130000Y0865760D03*
X0080410Y0864020D03*
D323*
X0148490Y0652440D03*
X0148490Y0645740D03*
D654*
X0136220Y0624090D03*
X0161330Y0624090D03*
D103*
X0067240Y0683980D03*
X0062240Y0683980D03*
X0057240Y0683980D03*
X0052240Y0683980D03*
X0052240Y0704580D03*
X0057240Y0704580D03*
X0062240Y0704580D03*
X0067240Y0704580D03*
D939*
X0070980Y0668460D03*
X0053660Y0668460D03*
X0135760Y0658840D03*
X0135760Y0641520D03*
D580*
X0122060Y0688130D03*
X0083080Y0688130D03*
D413*
X0079540Y0716000D03*
X0072460Y0716000D03*
X0242350Y0652180D03*
X0249440Y0652180D03*
D131*
X0149210Y0711670D03*
X0149210Y0718760D03*
X0065500Y0721050D03*
X0065500Y0713960D03*
D606*
X0137560Y0689280D03*
X0137560Y0671170D03*
D384*
X0111740Y0658040D03*
X0111740Y0647020D03*
D154*
X0121870Y0642110D03*
X0121870Y0658250D03*
D531*
X0119950Y0902200D03*
X0140050Y0902200D03*
X0170950Y0902200D03*
X0191050Y0902200D03*
X0219950Y0902200D03*
X0240050Y0902200D03*
X0269950Y0902200D03*
X0290050Y0902200D03*
X0290050Y1016800D03*
X0269950Y1016800D03*
X0240050Y1016800D03*
X0219950Y1016800D03*
X0190050Y1016800D03*
X0169950Y1016800D03*
X0140050Y1016800D03*
X0119950Y1016800D03*
X0090050Y1016800D03*
X0069950Y1016800D03*
X0069950Y0902200D03*
X0090050Y0902200D03*
D197*
X0088700Y0925650D03*
X0072000Y0926650D03*
X0070600Y0944450D03*
X0088600Y0944250D03*
X0089400Y0974550D03*
X0088000Y0992350D03*
X0071300Y0993350D03*
X0071400Y0974750D03*
X0121400Y0974750D03*
X0139400Y0974550D03*
X0138000Y0992350D03*
X0121300Y0993350D03*
X0120600Y0944450D03*
X0122000Y0926650D03*
X0138700Y0925650D03*
X0138600Y0944250D03*
X0171600Y0944450D03*
X0173000Y0926650D03*
X0189700Y0925650D03*
X0189600Y0944250D03*
X0189400Y0974550D03*
X0188000Y0992350D03*
X0171400Y0974750D03*
X0171300Y0993350D03*
X0221300Y0993350D03*
X0221400Y0974750D03*
X0239400Y0974550D03*
X0238000Y0992350D03*
X0271300Y0993350D03*
X0288000Y0992350D03*
X0289400Y0974550D03*
X0271400Y0974750D03*
X0270600Y0944450D03*
X0272000Y0926650D03*
X0288700Y0925650D03*
X0288600Y0944250D03*
X0238600Y0944250D03*
X0238700Y0925650D03*
X0222000Y0926650D03*
X0220600Y0944450D03*
D551*
X0137500Y0710300D03*
X0137500Y0697700D03*
D803*
X0156960Y0655490D02*
X0156960Y0642510D01*
X0156960Y0655490D02*
X0164040Y0655490D01*
X0164040Y0642510D01*
X0156960Y0642510D01*
X0156960Y0644860D02*
X0164040Y0644860D01*
X0164040Y0647210D02*
X0156960Y0647210D01*
X0156960Y0649560D02*
X0164040Y0649560D01*
X0164040Y0651910D02*
X0156960Y0651910D01*
X0156960Y0654260D02*
X0164040Y0654260D01*
X0167990Y0609040D02*
X0155010Y0609040D01*
X0167990Y0609040D02*
X0167990Y0601960D01*
X0155010Y0601960D01*
X0155010Y0609040D01*
X0155010Y0604310D02*
X0167990Y0604310D01*
X0167990Y0606660D02*
X0155010Y0606660D01*
X0155010Y0609010D02*
X0167990Y0609010D01*
X0193540Y0798010D02*
X0193540Y0810990D01*
X0193540Y0798010D02*
X0186460Y0798010D01*
X0186460Y0810990D01*
X0193540Y0810990D01*
X0193540Y0800360D02*
X0186460Y0800360D01*
X0186460Y0802710D02*
X0193540Y0802710D01*
X0193540Y0805060D02*
X0186460Y0805060D01*
X0186460Y0807410D02*
X0193540Y0807410D01*
X0193540Y0809760D02*
X0186460Y0809760D01*
X0143540Y0810990D02*
X0143540Y0798010D01*
X0136460Y0798010D01*
X0136460Y0810990D01*
X0143540Y0810990D01*
X0143540Y0800360D02*
X0136460Y0800360D01*
X0136460Y0802710D02*
X0143540Y0802710D01*
X0143540Y0805060D02*
X0136460Y0805060D01*
X0136460Y0807410D02*
X0143540Y0807410D01*
X0143540Y0809760D02*
X0136460Y0809760D01*
X0093540Y0810990D02*
X0093540Y0798010D01*
X0086460Y0798010D01*
X0086460Y0810990D01*
X0093540Y0810990D01*
X0093540Y0800360D02*
X0086460Y0800360D01*
X0086460Y0802710D02*
X0093540Y0802710D01*
X0093540Y0805060D02*
X0086460Y0805060D01*
X0086460Y0807410D02*
X0093540Y0807410D01*
X0093540Y0809760D02*
X0086460Y0809760D01*
X0049460Y0835010D02*
X0049460Y0847990D01*
X0056540Y0847990D01*
X0056540Y0835010D01*
X0049460Y0835010D01*
X0049460Y0837360D02*
X0056540Y0837360D01*
X0056540Y0839710D02*
X0049460Y0839710D01*
X0049460Y0842060D02*
X0056540Y0842060D01*
X0056540Y0844410D02*
X0049460Y0844410D01*
X0049460Y0846760D02*
X0056540Y0846760D01*
X0243540Y0810990D02*
X0243540Y0798010D01*
X0236460Y0798010D01*
X0236460Y0810990D01*
X0243540Y0810990D01*
X0243540Y0800360D02*
X0236460Y0800360D01*
X0236460Y0802710D02*
X0243540Y0802710D01*
X0243540Y0805060D02*
X0236460Y0805060D01*
X0236460Y0807410D02*
X0243540Y0807410D01*
X0243540Y0809760D02*
X0236460Y0809760D01*
X0293540Y0810990D02*
X0293540Y0798010D01*
X0286460Y0798010D01*
X0286460Y0810990D01*
X0293540Y0810990D01*
X0293540Y0800360D02*
X0286460Y0800360D01*
X0286460Y0802710D02*
X0293540Y0802710D01*
X0293540Y0805060D02*
X0286460Y0805060D01*
X0286460Y0807410D02*
X0293540Y0807410D01*
X0293540Y0809760D02*
X0286460Y0809760D01*
X0273540Y1108010D02*
X0273540Y1120990D01*
X0273540Y1108010D02*
X0266460Y1108010D01*
X0266460Y1120990D01*
X0273540Y1120990D01*
X0273540Y1110360D02*
X0266460Y1110360D01*
X0266460Y1112710D02*
X0273540Y1112710D01*
X0273540Y1115060D02*
X0266460Y1115060D01*
X0266460Y1117410D02*
X0273540Y1117410D01*
X0273540Y1119760D02*
X0266460Y1119760D01*
X0223540Y1120990D02*
X0223540Y1108010D01*
X0216460Y1108010D01*
X0216460Y1120990D01*
X0223540Y1120990D01*
X0223540Y1110360D02*
X0216460Y1110360D01*
X0216460Y1112710D02*
X0223540Y1112710D01*
X0223540Y1115060D02*
X0216460Y1115060D01*
X0216460Y1117410D02*
X0223540Y1117410D01*
X0223540Y1119760D02*
X0216460Y1119760D01*
X0173540Y1120990D02*
X0173540Y1108010D01*
X0166460Y1108010D01*
X0166460Y1120990D01*
X0173540Y1120990D01*
X0173540Y1110360D02*
X0166460Y1110360D01*
X0166460Y1112710D02*
X0173540Y1112710D01*
X0173540Y1115060D02*
X0166460Y1115060D01*
X0166460Y1117410D02*
X0173540Y1117410D01*
X0173540Y1119760D02*
X0166460Y1119760D01*
X0123540Y1120990D02*
X0123540Y1108010D01*
X0116460Y1108010D01*
X0116460Y1120990D01*
X0123540Y1120990D01*
X0123540Y1110360D02*
X0116460Y1110360D01*
X0116460Y1112710D02*
X0123540Y1112710D01*
X0123540Y1115060D02*
X0116460Y1115060D01*
X0116460Y1117410D02*
X0123540Y1117410D01*
X0123540Y1119760D02*
X0116460Y1119760D01*
X0073540Y1120990D02*
X0073540Y1108010D01*
X0066460Y1108010D01*
X0066460Y1120990D01*
X0073540Y1120990D01*
X0073540Y1110360D02*
X0066460Y1110360D01*
X0066460Y1112710D02*
X0073540Y1112710D01*
X0073540Y1115060D02*
X0066460Y1115060D01*
X0066460Y1117410D02*
X0073540Y1117410D01*
X0073540Y1119760D02*
X0066460Y1119760D01*
D929*
X0267630Y0658180D03*
X0267630Y0653180D03*
X0267630Y0648180D03*
X0267630Y0643180D03*
X0288230Y0643180D03*
X0288230Y0648180D03*
X0288230Y0653180D03*
X0288230Y0658180D03*
D859*
X0288700Y0741380D03*
X0293700Y0741380D03*
X0298700Y0741380D03*
X0303700Y0741380D03*
X0308700Y0741380D03*
X0313700Y0741380D03*
X0318700Y0741380D03*
X0323700Y0741380D03*
X0323700Y0763430D03*
X0318700Y0763430D03*
X0313700Y0763430D03*
X0308700Y0763430D03*
X0303700Y0763430D03*
X0298700Y0763430D03*
X0293700Y0763430D03*
X0288700Y0763430D03*
X0274500Y0763530D03*
X0269500Y0763530D03*
X0264500Y0763530D03*
X0259500Y0763530D03*
X0254500Y0763530D03*
X0249500Y0763530D03*
X0244500Y0763530D03*
X0239500Y0763530D03*
X0239500Y0741480D03*
X0244500Y0741480D03*
X0249500Y0741480D03*
X0254500Y0741480D03*
X0259500Y0741480D03*
X0264500Y0741480D03*
X0269500Y0741480D03*
X0274500Y0741480D03*
D403*
X0121470Y0735650D03*
X0121470Y0728170D03*
X0111240Y0728170D03*
X0111240Y0731910D03*
X0111240Y0735650D03*
D622*
X0090800Y0731020D03*
X0084100Y0731020D03*
D148*
X0113500Y0628350D03*
X0113500Y0608660D03*
D196*
X0191900Y0608370D03*
X0191900Y0603370D03*
X0191900Y0615140D03*
X0191900Y0620140D03*
X0217100Y0620140D03*
X0217100Y0615140D03*
X0217100Y0608370D03*
X0217100Y0603370D03*
D459*
X0242760Y0602500D03*
X0250240Y0602500D03*
X0705000Y0020000D02*
G75*
%LPD*%
D409*
X0835000Y0112570D03*
X0835000Y0120440D03*
X0868000Y0062440D03*
X0868000Y0054570D03*
X0924350Y0046350D03*
X0924350Y0038480D03*
X0932600Y0038370D03*
X0932600Y0046240D03*
X0916800Y0143470D03*
X0916800Y0151340D03*
X0906600Y0151340D03*
X0906600Y0143470D03*
D933*
X0732390Y0073190D03*
X0740650Y0073190D03*
X0781870Y0143000D03*
X0790130Y0143000D03*
X0835000Y0104140D03*
X0835000Y0095870D03*
X0924440Y0062540D03*
X0932730Y0062540D03*
X0932730Y0054280D03*
X0924440Y0054280D03*
X0942870Y0309000D03*
X0951130Y0309000D03*
X0900130Y0309000D03*
X0891870Y0309000D03*
X0851130Y0309000D03*
X0842870Y0309000D03*
X0802130Y0309000D03*
X0793870Y0309000D03*
X0748130Y0309000D03*
X0739870Y0309000D03*
X0827870Y0516500D03*
X0836130Y0516500D03*
X0877370Y0515500D03*
X0885630Y0515500D03*
X0924870Y0513500D03*
X0933130Y0513500D03*
X0977870Y0513000D03*
X0986130Y0513000D03*
X0786130Y0521000D03*
X0777870Y0521000D03*
D231*
X0850060Y0185210D03*
X0853200Y0185210D03*
X0856350Y0185210D03*
X0859500Y0185210D03*
X0862650Y0185210D03*
X0865800Y0185210D03*
X0868950Y0185210D03*
X0872100Y0185210D03*
X0875250Y0185210D03*
X0878400Y0185210D03*
X0881550Y0185210D03*
X0881550Y0139540D03*
X0878400Y0139540D03*
X0875250Y0139540D03*
X0872100Y0139540D03*
X0868950Y0139540D03*
X0865800Y0139540D03*
X0862650Y0139540D03*
X0859500Y0139540D03*
X0856350Y0139540D03*
X0853200Y0139540D03*
X0850060Y0139540D03*
D312*
X0842970Y0146630D03*
X0842970Y0149780D03*
X0842970Y0152920D03*
X0842970Y0156070D03*
X0842970Y0159220D03*
X0842970Y0162370D03*
X0842970Y0165520D03*
X0842970Y0168670D03*
X0842970Y0171820D03*
X0842970Y0174970D03*
X0842970Y0178120D03*
X0888640Y0178120D03*
X0888640Y0174970D03*
X0888640Y0171820D03*
X0888640Y0168670D03*
X0888640Y0165520D03*
X0888640Y0162370D03*
X0888640Y0159220D03*
X0888640Y0156070D03*
X0888640Y0152920D03*
X0888640Y0149780D03*
X0888640Y0146630D03*
D183*
X0808440Y0143000D03*
X0800560Y0143000D03*
X0758460Y0073190D03*
X0750580Y0073190D03*
X0763060Y0251500D03*
X0770940Y0251500D03*
X0811870Y0253570D03*
X0819750Y0253570D03*
X0862370Y0252070D03*
X0870250Y0252070D03*
X0912370Y0253570D03*
X0920250Y0253570D03*
X0961870Y0252570D03*
X0969750Y0252570D03*
X0965940Y0309000D03*
X0958060Y0309000D03*
X0915940Y0309000D03*
X0908060Y0309000D03*
X0865940Y0309000D03*
X0858060Y0309000D03*
X0821940Y0309000D03*
X0814060Y0309000D03*
X0765940Y0309000D03*
X0758060Y0309000D03*
X0756060Y0461000D03*
X0763940Y0461000D03*
X0806560Y0462000D03*
X0814440Y0462000D03*
X0856560Y0461000D03*
X0864440Y0461000D03*
X0906560Y0461000D03*
X0914440Y0461000D03*
X0958060Y0461000D03*
X0965940Y0461000D03*
X0961750Y0517520D03*
X0953870Y0517520D03*
X0912940Y0519500D03*
X0905060Y0519500D03*
X0867940Y0518500D03*
X0860060Y0518500D03*
X0811940Y0518500D03*
X0804060Y0518500D03*
X0760940Y0519000D03*
X0753060Y0519000D03*
D712*
X0767480Y0084460D03*
X0782440Y0084460D03*
D395*
X0789500Y0229000D03*
X0789500Y0234000D03*
X0789500Y0239000D03*
X0789500Y0244000D03*
X0810000Y0244000D03*
X0810000Y0239000D03*
X0810000Y0234000D03*
X0810000Y0229000D03*
X0840500Y0229000D03*
X0840500Y0234000D03*
X0840500Y0239000D03*
X0840500Y0244000D03*
X0861000Y0244000D03*
X0861000Y0239000D03*
X0861000Y0234000D03*
X0861000Y0229000D03*
X0889500Y0229000D03*
X0889500Y0234000D03*
X0889500Y0239000D03*
X0889500Y0244000D03*
X0910000Y0244000D03*
X0910000Y0239000D03*
X0910000Y0234000D03*
X0910000Y0229000D03*
X0942000Y0229000D03*
X0942000Y0234000D03*
X0942000Y0239000D03*
X0942000Y0244000D03*
X0962500Y0244000D03*
X0962500Y0239000D03*
X0962500Y0234000D03*
X0962500Y0229000D03*
X0761500Y0229000D03*
X0761500Y0234000D03*
X0761500Y0239000D03*
X0761500Y0244000D03*
X0741000Y0244000D03*
X0741000Y0239000D03*
X0741000Y0234000D03*
X0741000Y0229000D03*
X0767500Y0532000D03*
X0767500Y0537000D03*
X0767500Y0542000D03*
X0767500Y0547000D03*
X0788000Y0547000D03*
X0788000Y0542000D03*
X0788000Y0537000D03*
X0788000Y0532000D03*
X0817500Y0532000D03*
X0817500Y0537000D03*
X0817500Y0542000D03*
X0817500Y0547000D03*
X0838000Y0547000D03*
X0838000Y0542000D03*
X0838000Y0537000D03*
X0838000Y0532000D03*
X0867500Y0532000D03*
X0867500Y0537000D03*
X0867500Y0542000D03*
X0867500Y0547000D03*
X0888000Y0547000D03*
X0888000Y0542000D03*
X0888000Y0537000D03*
X0888000Y0532000D03*
X0918500Y0532000D03*
X0918500Y0537000D03*
X0918500Y0542000D03*
X0918500Y0547000D03*
X0939000Y0547000D03*
X0939000Y0542000D03*
X0939000Y0537000D03*
X0939000Y0532000D03*
X0969500Y0532000D03*
X0969500Y0537000D03*
X0969500Y0542000D03*
X0969500Y0547000D03*
X0990000Y0547000D03*
X0990000Y0542000D03*
X0990000Y0537000D03*
X0990000Y0532000D03*
D279*
X0839730Y0087570D03*
X0833040Y0087570D03*
X0786640Y0073780D03*
X0779950Y0073780D03*
D62*
X0774380Y0262360D03*
X0756430Y0262360D03*
X0806020Y0264100D03*
X0823980Y0264100D03*
X0858020Y0263100D03*
X0875980Y0263100D03*
X0906020Y0264100D03*
X0923980Y0264100D03*
X0956020Y0264100D03*
X0973980Y0264100D03*
X0963980Y0505910D03*
X0946020Y0505910D03*
X0913980Y0505910D03*
X0896020Y0505910D03*
X0863980Y0505910D03*
X0846020Y0505910D03*
X0813980Y0505910D03*
X0796020Y0505910D03*
X0763980Y0505910D03*
X0746020Y0505910D03*
D543*
X0755000Y0478750D03*
X0805000Y0478750D03*
X0855000Y0478750D03*
X0905000Y0478750D03*
X0955000Y0478750D03*
X0965000Y0291260D03*
X0915000Y0291260D03*
X0867000Y0290260D03*
X0815000Y0291260D03*
X0765410Y0289520D03*
D323*
X0833490Y0077940D03*
X0833490Y0071240D03*
D654*
X0821220Y0049590D03*
X0846330Y0049590D03*
D103*
X0752240Y0109480D03*
X0747240Y0109480D03*
X0742240Y0109480D03*
X0737240Y0109480D03*
X0737240Y0130080D03*
X0742240Y0130080D03*
X0747240Y0130080D03*
X0752240Y0130080D03*
D939*
X0755980Y0093960D03*
X0738660Y0093960D03*
X0820760Y0084340D03*
X0820760Y0067020D03*
D580*
X0807060Y0113630D03*
X0768080Y0113630D03*
D413*
X0764540Y0141500D03*
X0757460Y0141500D03*
X0927350Y0077680D03*
X0934440Y0077680D03*
D131*
X0834210Y0137170D03*
X0834210Y0144260D03*
X0750500Y0146550D03*
X0750500Y0139460D03*
D606*
X0822560Y0114780D03*
X0822560Y0096670D03*
D384*
X0796740Y0083540D03*
X0796740Y0072520D03*
D154*
X0806870Y0067610D03*
X0806870Y0083750D03*
D531*
X0804950Y0327700D03*
X0825050Y0327700D03*
X0855950Y0327700D03*
X0876050Y0327700D03*
X0904950Y0327700D03*
X0925050Y0327700D03*
X0954950Y0327700D03*
X0975050Y0327700D03*
X0975050Y0442300D03*
X0954950Y0442300D03*
X0925050Y0442300D03*
X0904950Y0442300D03*
X0875050Y0442300D03*
X0854950Y0442300D03*
X0825050Y0442300D03*
X0804950Y0442300D03*
X0775050Y0442300D03*
X0754950Y0442300D03*
X0754950Y0327700D03*
X0775050Y0327700D03*
D197*
X0773700Y0351150D03*
X0757000Y0352150D03*
X0755600Y0369950D03*
X0773600Y0369750D03*
X0774400Y0400050D03*
X0773000Y0417850D03*
X0756300Y0418850D03*
X0756400Y0400250D03*
X0806400Y0400250D03*
X0824400Y0400050D03*
X0823000Y0417850D03*
X0806300Y0418850D03*
X0805600Y0369950D03*
X0807000Y0352150D03*
X0823700Y0351150D03*
X0823600Y0369750D03*
X0856600Y0369950D03*
X0858000Y0352150D03*
X0874700Y0351150D03*
X0874600Y0369750D03*
X0874400Y0400050D03*
X0873000Y0417850D03*
X0856400Y0400250D03*
X0856300Y0418850D03*
X0906300Y0418850D03*
X0906400Y0400250D03*
X0924400Y0400050D03*
X0923000Y0417850D03*
X0956300Y0418850D03*
X0973000Y0417850D03*
X0974400Y0400050D03*
X0956400Y0400250D03*
X0955600Y0369950D03*
X0957000Y0352150D03*
X0973700Y0351150D03*
X0973600Y0369750D03*
X0923600Y0369750D03*
X0923700Y0351150D03*
X0907000Y0352150D03*
X0905600Y0369950D03*
D551*
X0822500Y0135800D03*
X0822500Y0123200D03*
D803*
X0841960Y0080990D02*
X0841960Y0068010D01*
X0841960Y0080990D02*
X0849040Y0080990D01*
X0849040Y0068010D01*
X0841960Y0068010D01*
X0841960Y0070360D02*
X0849040Y0070360D01*
X0849040Y0072710D02*
X0841960Y0072710D01*
X0841960Y0075060D02*
X0849040Y0075060D01*
X0849040Y0077410D02*
X0841960Y0077410D01*
X0841960Y0079760D02*
X0849040Y0079760D01*
X0852990Y0034540D02*
X0840010Y0034540D01*
X0852990Y0034540D02*
X0852990Y0027460D01*
X0840010Y0027460D01*
X0840010Y0034540D01*
X0840010Y0029810D02*
X0852990Y0029810D01*
X0852990Y0032160D02*
X0840010Y0032160D01*
X0840010Y0034510D02*
X0852990Y0034510D01*
X0878540Y0223510D02*
X0878540Y0236490D01*
X0878540Y0223510D02*
X0871460Y0223510D01*
X0871460Y0236490D01*
X0878540Y0236490D01*
X0878540Y0225860D02*
X0871460Y0225860D01*
X0871460Y0228210D02*
X0878540Y0228210D01*
X0878540Y0230560D02*
X0871460Y0230560D01*
X0871460Y0232910D02*
X0878540Y0232910D01*
X0878540Y0235260D02*
X0871460Y0235260D01*
X0828540Y0236490D02*
X0828540Y0223510D01*
X0821460Y0223510D01*
X0821460Y0236490D01*
X0828540Y0236490D01*
X0828540Y0225860D02*
X0821460Y0225860D01*
X0821460Y0228210D02*
X0828540Y0228210D01*
X0828540Y0230560D02*
X0821460Y0230560D01*
X0821460Y0232910D02*
X0828540Y0232910D01*
X0828540Y0235260D02*
X0821460Y0235260D01*
X0778540Y0236490D02*
X0778540Y0223510D01*
X0771460Y0223510D01*
X0771460Y0236490D01*
X0778540Y0236490D01*
X0778540Y0225860D02*
X0771460Y0225860D01*
X0771460Y0228210D02*
X0778540Y0228210D01*
X0778540Y0230560D02*
X0771460Y0230560D01*
X0771460Y0232910D02*
X0778540Y0232910D01*
X0778540Y0235260D02*
X0771460Y0235260D01*
X0734460Y0260510D02*
X0734460Y0273490D01*
X0741540Y0273490D01*
X0741540Y0260510D01*
X0734460Y0260510D01*
X0734460Y0262860D02*
X0741540Y0262860D01*
X0741540Y0265210D02*
X0734460Y0265210D01*
X0734460Y0267560D02*
X0741540Y0267560D01*
X0741540Y0269910D02*
X0734460Y0269910D01*
X0734460Y0272260D02*
X0741540Y0272260D01*
X0928540Y0236490D02*
X0928540Y0223510D01*
X0921460Y0223510D01*
X0921460Y0236490D01*
X0928540Y0236490D01*
X0928540Y0225860D02*
X0921460Y0225860D01*
X0921460Y0228210D02*
X0928540Y0228210D01*
X0928540Y0230560D02*
X0921460Y0230560D01*
X0921460Y0232910D02*
X0928540Y0232910D01*
X0928540Y0235260D02*
X0921460Y0235260D01*
X0978540Y0236490D02*
X0978540Y0223510D01*
X0971460Y0223510D01*
X0971460Y0236490D01*
X0978540Y0236490D01*
X0978540Y0225860D02*
X0971460Y0225860D01*
X0971460Y0228210D02*
X0978540Y0228210D01*
X0978540Y0230560D02*
X0971460Y0230560D01*
X0971460Y0232910D02*
X0978540Y0232910D01*
X0978540Y0235260D02*
X0971460Y0235260D01*
X0958540Y0533510D02*
X0958540Y0546490D01*
X0958540Y0533510D02*
X0951460Y0533510D01*
X0951460Y0546490D01*
X0958540Y0546490D01*
X0958540Y0535860D02*
X0951460Y0535860D01*
X0951460Y0538210D02*
X0958540Y0538210D01*
X0958540Y0540560D02*
X0951460Y0540560D01*
X0951460Y0542910D02*
X0958540Y0542910D01*
X0958540Y0545260D02*
X0951460Y0545260D01*
X0908540Y0546490D02*
X0908540Y0533510D01*
X0901460Y0533510D01*
X0901460Y0546490D01*
X0908540Y0546490D01*
X0908540Y0535860D02*
X0901460Y0535860D01*
X0901460Y0538210D02*
X0908540Y0538210D01*
X0908540Y0540560D02*
X0901460Y0540560D01*
X0901460Y0542910D02*
X0908540Y0542910D01*
X0908540Y0545260D02*
X0901460Y0545260D01*
X0858540Y0546490D02*
X0858540Y0533510D01*
X0851460Y0533510D01*
X0851460Y0546490D01*
X0858540Y0546490D01*
X0858540Y0535860D02*
X0851460Y0535860D01*
X0851460Y0538210D02*
X0858540Y0538210D01*
X0858540Y0540560D02*
X0851460Y0540560D01*
X0851460Y0542910D02*
X0858540Y0542910D01*
X0858540Y0545260D02*
X0851460Y0545260D01*
X0808540Y0546490D02*
X0808540Y0533510D01*
X0801460Y0533510D01*
X0801460Y0546490D01*
X0808540Y0546490D01*
X0808540Y0535860D02*
X0801460Y0535860D01*
X0801460Y0538210D02*
X0808540Y0538210D01*
X0808540Y0540560D02*
X0801460Y0540560D01*
X0801460Y0542910D02*
X0808540Y0542910D01*
X0808540Y0545260D02*
X0801460Y0545260D01*
X0758540Y0546490D02*
X0758540Y0533510D01*
X0751460Y0533510D01*
X0751460Y0546490D01*
X0758540Y0546490D01*
X0758540Y0535860D02*
X0751460Y0535860D01*
X0751460Y0538210D02*
X0758540Y0538210D01*
X0758540Y0540560D02*
X0751460Y0540560D01*
X0751460Y0542910D02*
X0758540Y0542910D01*
X0758540Y0545260D02*
X0751460Y0545260D01*
D929*
X0952630Y0083680D03*
X0952630Y0078680D03*
X0952630Y0073680D03*
X0952630Y0068680D03*
X0973230Y0068680D03*
X0973230Y0073680D03*
X0973230Y0078680D03*
X0973230Y0083680D03*
D859*
X0973700Y0166880D03*
X0978700Y0166880D03*
X0983700Y0166880D03*
X0988700Y0166880D03*
X0993700Y0166880D03*
X0998700Y0166880D03*
X1003700Y0166880D03*
X1008700Y0166880D03*
X1008700Y0188930D03*
X1003700Y0188930D03*
X0998700Y0188930D03*
X0993700Y0188930D03*
X0988700Y0188930D03*
X0983700Y0188930D03*
X0978700Y0188930D03*
X0973700Y0188930D03*
X0959500Y0189030D03*
X0954500Y0189030D03*
X0949500Y0189030D03*
X0944500Y0189030D03*
X0939500Y0189030D03*
X0934500Y0189030D03*
X0929500Y0189030D03*
X0924500Y0189030D03*
X0924500Y0166980D03*
X0929500Y0166980D03*
X0934500Y0166980D03*
X0939500Y0166980D03*
X0944500Y0166980D03*
X0949500Y0166980D03*
X0954500Y0166980D03*
X0959500Y0166980D03*
D403*
X0806470Y0161150D03*
X0806470Y0153670D03*
X0796240Y0153670D03*
X0796240Y0157410D03*
X0796240Y0161150D03*
D622*
X0775800Y0156520D03*
X0769100Y0156520D03*
D148*
X0798500Y0053850D03*
X0798500Y0034160D03*
D196*
X0876900Y0033870D03*
X0876900Y0028870D03*
X0876900Y0040640D03*
X0876900Y0045640D03*
X0902100Y0045640D03*
X0902100Y0040640D03*
X0902100Y0033870D03*
X0902100Y0028870D03*
D459*
X0927760Y0028000D03*
X0935240Y0028000D03*
X1047500Y0020000D02*
G75*
%LPD*%
D409*
X1177500Y0112570D03*
X1177500Y0120440D03*
X1210500Y0062440D03*
X1210500Y0054570D03*
X1266850Y0046350D03*
X1266850Y0038480D03*
X1275100Y0038370D03*
X1275100Y0046240D03*
X1259300Y0143470D03*
X1259300Y0151340D03*
X1249100Y0151340D03*
X1249100Y0143470D03*
D933*
X1074890Y0073190D03*
X1083150Y0073190D03*
X1124370Y0143000D03*
X1132630Y0143000D03*
X1177500Y0104140D03*
X1177500Y0095870D03*
X1266940Y0062540D03*
X1275230Y0062540D03*
X1275230Y0054280D03*
X1266940Y0054280D03*
X1285370Y0309000D03*
X1293630Y0309000D03*
X1242630Y0309000D03*
X1234370Y0309000D03*
X1193630Y0309000D03*
X1185370Y0309000D03*
X1144630Y0309000D03*
X1136370Y0309000D03*
X1090630Y0309000D03*
X1082370Y0309000D03*
X1170370Y0516500D03*
X1178630Y0516500D03*
X1219870Y0515500D03*
X1228130Y0515500D03*
X1267370Y0513500D03*
X1275630Y0513500D03*
X1320370Y0513000D03*
X1328630Y0513000D03*
X1128630Y0521000D03*
X1120370Y0521000D03*
D231*
X1192560Y0185210D03*
X1195700Y0185210D03*
X1198850Y0185210D03*
X1202000Y0185210D03*
X1205150Y0185210D03*
X1208300Y0185210D03*
X1211450Y0185210D03*
X1214600Y0185210D03*
X1217750Y0185210D03*
X1220900Y0185210D03*
X1224050Y0185210D03*
X1224050Y0139540D03*
X1220900Y0139540D03*
X1217750Y0139540D03*
X1214600Y0139540D03*
X1211450Y0139540D03*
X1208300Y0139540D03*
X1205150Y0139540D03*
X1202000Y0139540D03*
X1198850Y0139540D03*
X1195700Y0139540D03*
X1192560Y0139540D03*
D312*
X1185470Y0146630D03*
X1185470Y0149780D03*
X1185470Y0152920D03*
X1185470Y0156070D03*
X1185470Y0159220D03*
X1185470Y0162370D03*
X1185470Y0165520D03*
X1185470Y0168670D03*
X1185470Y0171820D03*
X1185470Y0174970D03*
X1185470Y0178120D03*
X1231140Y0178120D03*
X1231140Y0174970D03*
X1231140Y0171820D03*
X1231140Y0168670D03*
X1231140Y0165520D03*
X1231140Y0162370D03*
X1231140Y0159220D03*
X1231140Y0156070D03*
X1231140Y0152920D03*
X1231140Y0149780D03*
X1231140Y0146630D03*
D183*
X1150940Y0143000D03*
X1143060Y0143000D03*
X1100960Y0073190D03*
X1093080Y0073190D03*
X1105560Y0251500D03*
X1113440Y0251500D03*
X1154370Y0253570D03*
X1162250Y0253570D03*
X1204870Y0252070D03*
X1212750Y0252070D03*
X1254870Y0253570D03*
X1262750Y0253570D03*
X1304370Y0252570D03*
X1312250Y0252570D03*
X1308440Y0309000D03*
X1300560Y0309000D03*
X1258440Y0309000D03*
X1250560Y0309000D03*
X1208440Y0309000D03*
X1200560Y0309000D03*
X1164440Y0309000D03*
X1156560Y0309000D03*
X1108440Y0309000D03*
X1100560Y0309000D03*
X1098560Y0461000D03*
X1106440Y0461000D03*
X1149060Y0462000D03*
X1156940Y0462000D03*
X1199060Y0461000D03*
X1206940Y0461000D03*
X1249060Y0461000D03*
X1256940Y0461000D03*
X1300560Y0461000D03*
X1308440Y0461000D03*
X1304250Y0517520D03*
X1296370Y0517520D03*
X1255440Y0519500D03*
X1247560Y0519500D03*
X1210440Y0518500D03*
X1202560Y0518500D03*
X1154440Y0518500D03*
X1146560Y0518500D03*
X1103440Y0519000D03*
X1095560Y0519000D03*
D712*
X1109980Y0084460D03*
X1124940Y0084460D03*
D395*
X1132000Y0229000D03*
X1132000Y0234000D03*
X1132000Y0239000D03*
X1132000Y0244000D03*
X1152500Y0244000D03*
X1152500Y0239000D03*
X1152500Y0234000D03*
X1152500Y0229000D03*
X1183000Y0229000D03*
X1183000Y0234000D03*
X1183000Y0239000D03*
X1183000Y0244000D03*
X1203500Y0244000D03*
X1203500Y0239000D03*
X1203500Y0234000D03*
X1203500Y0229000D03*
X1232000Y0229000D03*
X1232000Y0234000D03*
X1232000Y0239000D03*
X1232000Y0244000D03*
X1252500Y0244000D03*
X1252500Y0239000D03*
X1252500Y0234000D03*
X1252500Y0229000D03*
X1284500Y0229000D03*
X1284500Y0234000D03*
X1284500Y0239000D03*
X1284500Y0244000D03*
X1305000Y0244000D03*
X1305000Y0239000D03*
X1305000Y0234000D03*
X1305000Y0229000D03*
X1104000Y0229000D03*
X1104000Y0234000D03*
X1104000Y0239000D03*
X1104000Y0244000D03*
X1083500Y0244000D03*
X1083500Y0239000D03*
X1083500Y0234000D03*
X1083500Y0229000D03*
X1110000Y0532000D03*
X1110000Y0537000D03*
X1110000Y0542000D03*
X1110000Y0547000D03*
X1130500Y0547000D03*
X1130500Y0542000D03*
X1130500Y0537000D03*
X1130500Y0532000D03*
X1160000Y0532000D03*
X1160000Y0537000D03*
X1160000Y0542000D03*
X1160000Y0547000D03*
X1180500Y0547000D03*
X1180500Y0542000D03*
X1180500Y0537000D03*
X1180500Y0532000D03*
X1210000Y0532000D03*
X1210000Y0537000D03*
X1210000Y0542000D03*
X1210000Y0547000D03*
X1230500Y0547000D03*
X1230500Y0542000D03*
X1230500Y0537000D03*
X1230500Y0532000D03*
X1261000Y0532000D03*
X1261000Y0537000D03*
X1261000Y0542000D03*
X1261000Y0547000D03*
X1281500Y0547000D03*
X1281500Y0542000D03*
X1281500Y0537000D03*
X1281500Y0532000D03*
X1312000Y0532000D03*
X1312000Y0537000D03*
X1312000Y0542000D03*
X1312000Y0547000D03*
X1332500Y0547000D03*
X1332500Y0542000D03*
X1332500Y0537000D03*
X1332500Y0532000D03*
D279*
X1182230Y0087570D03*
X1175540Y0087570D03*
X1129140Y0073780D03*
X1122450Y0073780D03*
D62*
X1116880Y0262360D03*
X1098930Y0262360D03*
X1148520Y0264100D03*
X1166480Y0264100D03*
X1200520Y0263100D03*
X1218480Y0263100D03*
X1248520Y0264100D03*
X1266480Y0264100D03*
X1298520Y0264100D03*
X1316480Y0264100D03*
X1306480Y0505910D03*
X1288520Y0505910D03*
X1256480Y0505910D03*
X1238520Y0505910D03*
X1206480Y0505910D03*
X1188520Y0505910D03*
X1156480Y0505910D03*
X1138520Y0505910D03*
X1106480Y0505910D03*
X1088520Y0505910D03*
D543*
X1097500Y0478750D03*
X1147500Y0478750D03*
X1197500Y0478750D03*
X1247500Y0478750D03*
X1297500Y0478750D03*
X1307500Y0291260D03*
X1257500Y0291260D03*
X1209500Y0290260D03*
X1157500Y0291260D03*
X1107910Y0289520D03*
D323*
X1175990Y0077940D03*
X1175990Y0071240D03*
D654*
X1163720Y0049590D03*
X1188830Y0049590D03*
D103*
X1094740Y0109480D03*
X1089740Y0109480D03*
X1084740Y0109480D03*
X1079740Y0109480D03*
X1079740Y0130080D03*
X1084740Y0130080D03*
X1089740Y0130080D03*
X1094740Y0130080D03*
D939*
X1098480Y0093960D03*
X1081160Y0093960D03*
X1163260Y0084340D03*
X1163260Y0067020D03*
D580*
X1149560Y0113630D03*
X1110580Y0113630D03*
D413*
X1107040Y0141500D03*
X1099960Y0141500D03*
X1269850Y0077680D03*
X1276940Y0077680D03*
D131*
X1176710Y0137170D03*
X1176710Y0144260D03*
X1093000Y0146550D03*
X1093000Y0139460D03*
D606*
X1165060Y0114780D03*
X1165060Y0096670D03*
D384*
X1139240Y0083540D03*
X1139240Y0072520D03*
D154*
X1149370Y0067610D03*
X1149370Y0083750D03*
D531*
X1147450Y0327700D03*
X1167550Y0327700D03*
X1198450Y0327700D03*
X1218550Y0327700D03*
X1247450Y0327700D03*
X1267550Y0327700D03*
X1297450Y0327700D03*
X1317550Y0327700D03*
X1317550Y0442300D03*
X1297450Y0442300D03*
X1267550Y0442300D03*
X1247450Y0442300D03*
X1217550Y0442300D03*
X1197450Y0442300D03*
X1167550Y0442300D03*
X1147450Y0442300D03*
X1117550Y0442300D03*
X1097450Y0442300D03*
X1097450Y0327700D03*
X1117550Y0327700D03*
D197*
X1116200Y0351150D03*
X1099500Y0352150D03*
X1098100Y0369950D03*
X1116100Y0369750D03*
X1116900Y0400050D03*
X1115500Y0417850D03*
X1098800Y0418850D03*
X1098900Y0400250D03*
X1148900Y0400250D03*
X1166900Y0400050D03*
X1165500Y0417850D03*
X1148800Y0418850D03*
X1148100Y0369950D03*
X1149500Y0352150D03*
X1166200Y0351150D03*
X1166100Y0369750D03*
X1199100Y0369950D03*
X1200500Y0352150D03*
X1217200Y0351150D03*
X1217100Y0369750D03*
X1216900Y0400050D03*
X1215500Y0417850D03*
X1198900Y0400250D03*
X1198800Y0418850D03*
X1248800Y0418850D03*
X1248900Y0400250D03*
X1266900Y0400050D03*
X1265500Y0417850D03*
X1298800Y0418850D03*
X1315500Y0417850D03*
X1316900Y0400050D03*
X1298900Y0400250D03*
X1298100Y0369950D03*
X1299500Y0352150D03*
X1316200Y0351150D03*
X1316100Y0369750D03*
X1266100Y0369750D03*
X1266200Y0351150D03*
X1249500Y0352150D03*
X1248100Y0369950D03*
D551*
X1165000Y0135800D03*
X1165000Y0123200D03*
D803*
X1184460Y0080990D02*
X1184460Y0068010D01*
X1184460Y0080990D02*
X1191540Y0080990D01*
X1191540Y0068010D01*
X1184460Y0068010D01*
X1184460Y0070360D02*
X1191540Y0070360D01*
X1191540Y0072710D02*
X1184460Y0072710D01*
X1184460Y0075060D02*
X1191540Y0075060D01*
X1191540Y0077410D02*
X1184460Y0077410D01*
X1184460Y0079760D02*
X1191540Y0079760D01*
X1195490Y0034540D02*
X1182510Y0034540D01*
X1195490Y0034540D02*
X1195490Y0027460D01*
X1182510Y0027460D01*
X1182510Y0034540D01*
X1182510Y0029810D02*
X1195490Y0029810D01*
X1195490Y0032160D02*
X1182510Y0032160D01*
X1182510Y0034510D02*
X1195490Y0034510D01*
X1221040Y0223510D02*
X1221040Y0236490D01*
X1221040Y0223510D02*
X1213960Y0223510D01*
X1213960Y0236490D01*
X1221040Y0236490D01*
X1221040Y0225860D02*
X1213960Y0225860D01*
X1213960Y0228210D02*
X1221040Y0228210D01*
X1221040Y0230560D02*
X1213960Y0230560D01*
X1213960Y0232910D02*
X1221040Y0232910D01*
X1221040Y0235260D02*
X1213960Y0235260D01*
X1171040Y0236490D02*
X1171040Y0223510D01*
X1163960Y0223510D01*
X1163960Y0236490D01*
X1171040Y0236490D01*
X1171040Y0225860D02*
X1163960Y0225860D01*
X1163960Y0228210D02*
X1171040Y0228210D01*
X1171040Y0230560D02*
X1163960Y0230560D01*
X1163960Y0232910D02*
X1171040Y0232910D01*
X1171040Y0235260D02*
X1163960Y0235260D01*
X1121040Y0236490D02*
X1121040Y0223510D01*
X1113960Y0223510D01*
X1113960Y0236490D01*
X1121040Y0236490D01*
X1121040Y0225860D02*
X1113960Y0225860D01*
X1113960Y0228210D02*
X1121040Y0228210D01*
X1121040Y0230560D02*
X1113960Y0230560D01*
X1113960Y0232910D02*
X1121040Y0232910D01*
X1121040Y0235260D02*
X1113960Y0235260D01*
X1076960Y0260510D02*
X1076960Y0273490D01*
X1084040Y0273490D01*
X1084040Y0260510D01*
X1076960Y0260510D01*
X1076960Y0262860D02*
X1084040Y0262860D01*
X1084040Y0265210D02*
X1076960Y0265210D01*
X1076960Y0267560D02*
X1084040Y0267560D01*
X1084040Y0269910D02*
X1076960Y0269910D01*
X1076960Y0272260D02*
X1084040Y0272260D01*
X1271040Y0236490D02*
X1271040Y0223510D01*
X1263960Y0223510D01*
X1263960Y0236490D01*
X1271040Y0236490D01*
X1271040Y0225860D02*
X1263960Y0225860D01*
X1263960Y0228210D02*
X1271040Y0228210D01*
X1271040Y0230560D02*
X1263960Y0230560D01*
X1263960Y0232910D02*
X1271040Y0232910D01*
X1271040Y0235260D02*
X1263960Y0235260D01*
X1321040Y0236490D02*
X1321040Y0223510D01*
X1313960Y0223510D01*
X1313960Y0236490D01*
X1321040Y0236490D01*
X1321040Y0225860D02*
X1313960Y0225860D01*
X1313960Y0228210D02*
X1321040Y0228210D01*
X1321040Y0230560D02*
X1313960Y0230560D01*
X1313960Y0232910D02*
X1321040Y0232910D01*
X1321040Y0235260D02*
X1313960Y0235260D01*
X1301040Y0533510D02*
X1301040Y0546490D01*
X1301040Y0533510D02*
X1293960Y0533510D01*
X1293960Y0546490D01*
X1301040Y0546490D01*
X1301040Y0535860D02*
X1293960Y0535860D01*
X1293960Y0538210D02*
X1301040Y0538210D01*
X1301040Y0540560D02*
X1293960Y0540560D01*
X1293960Y0542910D02*
X1301040Y0542910D01*
X1301040Y0545260D02*
X1293960Y0545260D01*
X1251040Y0546490D02*
X1251040Y0533510D01*
X1243960Y0533510D01*
X1243960Y0546490D01*
X1251040Y0546490D01*
X1251040Y0535860D02*
X1243960Y0535860D01*
X1243960Y0538210D02*
X1251040Y0538210D01*
X1251040Y0540560D02*
X1243960Y0540560D01*
X1243960Y0542910D02*
X1251040Y0542910D01*
X1251040Y0545260D02*
X1243960Y0545260D01*
X1201040Y0546490D02*
X1201040Y0533510D01*
X1193960Y0533510D01*
X1193960Y0546490D01*
X1201040Y0546490D01*
X1201040Y0535860D02*
X1193960Y0535860D01*
X1193960Y0538210D02*
X1201040Y0538210D01*
X1201040Y0540560D02*
X1193960Y0540560D01*
X1193960Y0542910D02*
X1201040Y0542910D01*
X1201040Y0545260D02*
X1193960Y0545260D01*
X1151040Y0546490D02*
X1151040Y0533510D01*
X1143960Y0533510D01*
X1143960Y0546490D01*
X1151040Y0546490D01*
X1151040Y0535860D02*
X1143960Y0535860D01*
X1143960Y0538210D02*
X1151040Y0538210D01*
X1151040Y0540560D02*
X1143960Y0540560D01*
X1143960Y0542910D02*
X1151040Y0542910D01*
X1151040Y0545260D02*
X1143960Y0545260D01*
X1101040Y0546490D02*
X1101040Y0533510D01*
X1093960Y0533510D01*
X1093960Y0546490D01*
X1101040Y0546490D01*
X1101040Y0535860D02*
X1093960Y0535860D01*
X1093960Y0538210D02*
X1101040Y0538210D01*
X1101040Y0540560D02*
X1093960Y0540560D01*
X1093960Y0542910D02*
X1101040Y0542910D01*
X1101040Y0545260D02*
X1093960Y0545260D01*
D929*
X1295130Y0083680D03*
X1295130Y0078680D03*
X1295130Y0073680D03*
X1295130Y0068680D03*
X1315730Y0068680D03*
X1315730Y0073680D03*
X1315730Y0078680D03*
X1315730Y0083680D03*
D859*
X1316200Y0166880D03*
X1321200Y0166880D03*
X1326200Y0166880D03*
X1331200Y0166880D03*
X1336200Y0166880D03*
X1341200Y0166880D03*
X1346200Y0166880D03*
X1351200Y0166880D03*
X1351200Y0188930D03*
X1346200Y0188930D03*
X1341200Y0188930D03*
X1336200Y0188930D03*
X1331200Y0188930D03*
X1326200Y0188930D03*
X1321200Y0188930D03*
X1316200Y0188930D03*
X1302000Y0189030D03*
X1297000Y0189030D03*
X1292000Y0189030D03*
X1287000Y0189030D03*
X1282000Y0189030D03*
X1277000Y0189030D03*
X1272000Y0189030D03*
X1267000Y0189030D03*
X1267000Y0166980D03*
X1272000Y0166980D03*
X1277000Y0166980D03*
X1282000Y0166980D03*
X1287000Y0166980D03*
X1292000Y0166980D03*
X1297000Y0166980D03*
X1302000Y0166980D03*
D403*
X1148970Y0161150D03*
X1148970Y0153670D03*
X1138740Y0153670D03*
X1138740Y0157410D03*
X1138740Y0161150D03*
D622*
X1118300Y0156520D03*
X1111600Y0156520D03*
D148*
X1141000Y0053850D03*
X1141000Y0034160D03*
D196*
X1219400Y0033870D03*
X1219400Y0028870D03*
X1219400Y0040640D03*
X1219400Y0045640D03*
X1244600Y0045640D03*
X1244600Y0040640D03*
X1244600Y0033870D03*
X1244600Y0028870D03*
D459*
X1270260Y0028000D03*
X1277740Y0028000D03*
X1390000Y0020000D02*
G75*
%LPD*%
D409*
X1520000Y0112570D03*
X1520000Y0120440D03*
X1553000Y0062440D03*
X1553000Y0054570D03*
X1609350Y0046350D03*
X1609350Y0038480D03*
X1617600Y0038370D03*
X1617600Y0046240D03*
X1601800Y0143470D03*
X1601800Y0151340D03*
X1591600Y0151340D03*
X1591600Y0143470D03*
D933*
X1417390Y0073190D03*
X1425650Y0073190D03*
X1466870Y0143000D03*
X1475130Y0143000D03*
X1520000Y0104140D03*
X1520000Y0095870D03*
X1609440Y0062540D03*
X1617730Y0062540D03*
X1617730Y0054280D03*
X1609440Y0054280D03*
X1627870Y0309000D03*
X1636130Y0309000D03*
X1585130Y0309000D03*
X1576870Y0309000D03*
X1536130Y0309000D03*
X1527870Y0309000D03*
X1487130Y0309000D03*
X1478870Y0309000D03*
X1433130Y0309000D03*
X1424870Y0309000D03*
X1512870Y0516500D03*
X1521130Y0516500D03*
X1562370Y0515500D03*
X1570630Y0515500D03*
X1609870Y0513500D03*
X1618130Y0513500D03*
X1662870Y0513000D03*
X1671130Y0513000D03*
X1471130Y0521000D03*
X1462870Y0521000D03*
D231*
X1535060Y0185210D03*
X1538200Y0185210D03*
X1541350Y0185210D03*
X1544500Y0185210D03*
X1547650Y0185210D03*
X1550800Y0185210D03*
X1553950Y0185210D03*
X1557100Y0185210D03*
X1560250Y0185210D03*
X1563400Y0185210D03*
X1566550Y0185210D03*
X1566550Y0139540D03*
X1563400Y0139540D03*
X1560250Y0139540D03*
X1557100Y0139540D03*
X1553950Y0139540D03*
X1550800Y0139540D03*
X1547650Y0139540D03*
X1544500Y0139540D03*
X1541350Y0139540D03*
X1538200Y0139540D03*
X1535060Y0139540D03*
D312*
X1527970Y0146630D03*
X1527970Y0149780D03*
X1527970Y0152920D03*
X1527970Y0156070D03*
X1527970Y0159220D03*
X1527970Y0162370D03*
X1527970Y0165520D03*
X1527970Y0168670D03*
X1527970Y0171820D03*
X1527970Y0174970D03*
X1527970Y0178120D03*
X1573640Y0178120D03*
X1573640Y0174970D03*
X1573640Y0171820D03*
X1573640Y0168670D03*
X1573640Y0165520D03*
X1573640Y0162370D03*
X1573640Y0159220D03*
X1573640Y0156070D03*
X1573640Y0152920D03*
X1573640Y0149780D03*
X1573640Y0146630D03*
D183*
X1493440Y0143000D03*
X1485560Y0143000D03*
X1443460Y0073190D03*
X1435580Y0073190D03*
X1448060Y0251500D03*
X1455940Y0251500D03*
X1496870Y0253570D03*
X1504750Y0253570D03*
X1547370Y0252070D03*
X1555250Y0252070D03*
X1597370Y0253570D03*
X1605250Y0253570D03*
X1646870Y0252570D03*
X1654750Y0252570D03*
X1650940Y0309000D03*
X1643060Y0309000D03*
X1600940Y0309000D03*
X1593060Y0309000D03*
X1550940Y0309000D03*
X1543060Y0309000D03*
X1506940Y0309000D03*
X1499060Y0309000D03*
X1450940Y0309000D03*
X1443060Y0309000D03*
X1441060Y0461000D03*
X1448940Y0461000D03*
X1491560Y0462000D03*
X1499440Y0462000D03*
X1541560Y0461000D03*
X1549440Y0461000D03*
X1591560Y0461000D03*
X1599440Y0461000D03*
X1643060Y0461000D03*
X1650940Y0461000D03*
X1646750Y0517520D03*
X1638870Y0517520D03*
X1597940Y0519500D03*
X1590060Y0519500D03*
X1552940Y0518500D03*
X1545060Y0518500D03*
X1496940Y0518500D03*
X1489060Y0518500D03*
X1445940Y0519000D03*
X1438060Y0519000D03*
D712*
X1452480Y0084460D03*
X1467440Y0084460D03*
D395*
X1474500Y0229000D03*
X1474500Y0234000D03*
X1474500Y0239000D03*
X1474500Y0244000D03*
X1495000Y0244000D03*
X1495000Y0239000D03*
X1495000Y0234000D03*
X1495000Y0229000D03*
X1525500Y0229000D03*
X1525500Y0234000D03*
X1525500Y0239000D03*
X1525500Y0244000D03*
X1546000Y0244000D03*
X1546000Y0239000D03*
X1546000Y0234000D03*
X1546000Y0229000D03*
X1574500Y0229000D03*
X1574500Y0234000D03*
X1574500Y0239000D03*
X1574500Y0244000D03*
X1595000Y0244000D03*
X1595000Y0239000D03*
X1595000Y0234000D03*
X1595000Y0229000D03*
X1627000Y0229000D03*
X1627000Y0234000D03*
X1627000Y0239000D03*
X1627000Y0244000D03*
X1647500Y0244000D03*
X1647500Y0239000D03*
X1647500Y0234000D03*
X1647500Y0229000D03*
X1446500Y0229000D03*
X1446500Y0234000D03*
X1446500Y0239000D03*
X1446500Y0244000D03*
X1426000Y0244000D03*
X1426000Y0239000D03*
X1426000Y0234000D03*
X1426000Y0229000D03*
X1452500Y0532000D03*
X1452500Y0537000D03*
X1452500Y0542000D03*
X1452500Y0547000D03*
X1473000Y0547000D03*
X1473000Y0542000D03*
X1473000Y0537000D03*
X1473000Y0532000D03*
X1502500Y0532000D03*
X1502500Y0537000D03*
X1502500Y0542000D03*
X1502500Y0547000D03*
X1523000Y0547000D03*
X1523000Y0542000D03*
X1523000Y0537000D03*
X1523000Y0532000D03*
X1552500Y0532000D03*
X1552500Y0537000D03*
X1552500Y0542000D03*
X1552500Y0547000D03*
X1573000Y0547000D03*
X1573000Y0542000D03*
X1573000Y0537000D03*
X1573000Y0532000D03*
X1603500Y0532000D03*
X1603500Y0537000D03*
X1603500Y0542000D03*
X1603500Y0547000D03*
X1624000Y0547000D03*
X1624000Y0542000D03*
X1624000Y0537000D03*
X1624000Y0532000D03*
X1654500Y0532000D03*
X1654500Y0537000D03*
X1654500Y0542000D03*
X1654500Y0547000D03*
X1675000Y0547000D03*
X1675000Y0542000D03*
X1675000Y0537000D03*
X1675000Y0532000D03*
D279*
X1524730Y0087570D03*
X1518040Y0087570D03*
X1471640Y0073780D03*
X1464950Y0073780D03*
D62*
X1459380Y0262360D03*
X1441430Y0262360D03*
X1491020Y0264100D03*
X1508980Y0264100D03*
X1543020Y0263100D03*
X1560980Y0263100D03*
X1591020Y0264100D03*
X1608980Y0264100D03*
X1641020Y0264100D03*
X1658980Y0264100D03*
X1648980Y0505910D03*
X1631020Y0505910D03*
X1598980Y0505910D03*
X1581020Y0505910D03*
X1548980Y0505910D03*
X1531020Y0505910D03*
X1498980Y0505910D03*
X1481020Y0505910D03*
X1448980Y0505910D03*
X1431020Y0505910D03*
D543*
X1440000Y0478750D03*
X1490000Y0478750D03*
X1540000Y0478750D03*
X1590000Y0478750D03*
X1640000Y0478750D03*
X1650000Y0291260D03*
X1600000Y0291260D03*
X1552000Y0290260D03*
X1500000Y0291260D03*
X1450410Y0289520D03*
D323*
X1518490Y0077940D03*
X1518490Y0071240D03*
D654*
X1506220Y0049590D03*
X1531330Y0049590D03*
D103*
X1437240Y0109480D03*
X1432240Y0109480D03*
X1427240Y0109480D03*
X1422240Y0109480D03*
X1422240Y0130080D03*
X1427240Y0130080D03*
X1432240Y0130080D03*
X1437240Y0130080D03*
D939*
X1440980Y0093960D03*
X1423660Y0093960D03*
X1505760Y0084340D03*
X1505760Y0067020D03*
D580*
X1492060Y0113630D03*
X1453080Y0113630D03*
D413*
X1449540Y0141500D03*
X1442460Y0141500D03*
X1612350Y0077680D03*
X1619440Y0077680D03*
D131*
X1519210Y0137170D03*
X1519210Y0144260D03*
X1435500Y0146550D03*
X1435500Y0139460D03*
D606*
X1507560Y0114780D03*
X1507560Y0096670D03*
D384*
X1481740Y0083540D03*
X1481740Y0072520D03*
D154*
X1491870Y0067610D03*
X1491870Y0083750D03*
D531*
X1489950Y0327700D03*
X1510050Y0327700D03*
X1540950Y0327700D03*
X1561050Y0327700D03*
X1589950Y0327700D03*
X1610050Y0327700D03*
X1639950Y0327700D03*
X1660050Y0327700D03*
X1660050Y0442300D03*
X1639950Y0442300D03*
X1610050Y0442300D03*
X1589950Y0442300D03*
X1560050Y0442300D03*
X1539950Y0442300D03*
X1510050Y0442300D03*
X1489950Y0442300D03*
X1460050Y0442300D03*
X1439950Y0442300D03*
X1439950Y0327700D03*
X1460050Y0327700D03*
D197*
X1458700Y0351150D03*
X1442000Y0352150D03*
X1440600Y0369950D03*
X1458600Y0369750D03*
X1459400Y0400050D03*
X1458000Y0417850D03*
X1441300Y0418850D03*
X1441400Y0400250D03*
X1491400Y0400250D03*
X1509400Y0400050D03*
X1508000Y0417850D03*
X1491300Y0418850D03*
X1490600Y0369950D03*
X1492000Y0352150D03*
X1508700Y0351150D03*
X1508600Y0369750D03*
X1541600Y0369950D03*
X1543000Y0352150D03*
X1559700Y0351150D03*
X1559600Y0369750D03*
X1559400Y0400050D03*
X1558000Y0417850D03*
X1541400Y0400250D03*
X1541300Y0418850D03*
X1591300Y0418850D03*
X1591400Y0400250D03*
X1609400Y0400050D03*
X1608000Y0417850D03*
X1641300Y0418850D03*
X1658000Y0417850D03*
X1659400Y0400050D03*
X1641400Y0400250D03*
X1640600Y0369950D03*
X1642000Y0352150D03*
X1658700Y0351150D03*
X1658600Y0369750D03*
X1608600Y0369750D03*
X1608700Y0351150D03*
X1592000Y0352150D03*
X1590600Y0369950D03*
D551*
X1507500Y0135800D03*
X1507500Y0123200D03*
D803*
X1526960Y0080990D02*
X1526960Y0068010D01*
X1526960Y0080990D02*
X1534040Y0080990D01*
X1534040Y0068010D01*
X1526960Y0068010D01*
X1526960Y0070360D02*
X1534040Y0070360D01*
X1534040Y0072710D02*
X1526960Y0072710D01*
X1526960Y0075060D02*
X1534040Y0075060D01*
X1534040Y0077410D02*
X1526960Y0077410D01*
X1526960Y0079760D02*
X1534040Y0079760D01*
X1537990Y0034540D02*
X1525010Y0034540D01*
X1537990Y0034540D02*
X1537990Y0027460D01*
X1525010Y0027460D01*
X1525010Y0034540D01*
X1525010Y0029810D02*
X1537990Y0029810D01*
X1537990Y0032160D02*
X1525010Y0032160D01*
X1525010Y0034510D02*
X1537990Y0034510D01*
X1563540Y0223510D02*
X1563540Y0236490D01*
X1563540Y0223510D02*
X1556460Y0223510D01*
X1556460Y0236490D01*
X1563540Y0236490D01*
X1563540Y0225860D02*
X1556460Y0225860D01*
X1556460Y0228210D02*
X1563540Y0228210D01*
X1563540Y0230560D02*
X1556460Y0230560D01*
X1556460Y0232910D02*
X1563540Y0232910D01*
X1563540Y0235260D02*
X1556460Y0235260D01*
X1513540Y0236490D02*
X1513540Y0223510D01*
X1506460Y0223510D01*
X1506460Y0236490D01*
X1513540Y0236490D01*
X1513540Y0225860D02*
X1506460Y0225860D01*
X1506460Y0228210D02*
X1513540Y0228210D01*
X1513540Y0230560D02*
X1506460Y0230560D01*
X1506460Y0232910D02*
X1513540Y0232910D01*
X1513540Y0235260D02*
X1506460Y0235260D01*
X1463540Y0236490D02*
X1463540Y0223510D01*
X1456460Y0223510D01*
X1456460Y0236490D01*
X1463540Y0236490D01*
X1463540Y0225860D02*
X1456460Y0225860D01*
X1456460Y0228210D02*
X1463540Y0228210D01*
X1463540Y0230560D02*
X1456460Y0230560D01*
X1456460Y0232910D02*
X1463540Y0232910D01*
X1463540Y0235260D02*
X1456460Y0235260D01*
X1419460Y0260510D02*
X1419460Y0273490D01*
X1426540Y0273490D01*
X1426540Y0260510D01*
X1419460Y0260510D01*
X1419460Y0262860D02*
X1426540Y0262860D01*
X1426540Y0265210D02*
X1419460Y0265210D01*
X1419460Y0267560D02*
X1426540Y0267560D01*
X1426540Y0269910D02*
X1419460Y0269910D01*
X1419460Y0272260D02*
X1426540Y0272260D01*
X1613540Y0236490D02*
X1613540Y0223510D01*
X1606460Y0223510D01*
X1606460Y0236490D01*
X1613540Y0236490D01*
X1613540Y0225860D02*
X1606460Y0225860D01*
X1606460Y0228210D02*
X1613540Y0228210D01*
X1613540Y0230560D02*
X1606460Y0230560D01*
X1606460Y0232910D02*
X1613540Y0232910D01*
X1613540Y0235260D02*
X1606460Y0235260D01*
X1663540Y0236490D02*
X1663540Y0223510D01*
X1656460Y0223510D01*
X1656460Y0236490D01*
X1663540Y0236490D01*
X1663540Y0225860D02*
X1656460Y0225860D01*
X1656460Y0228210D02*
X1663540Y0228210D01*
X1663540Y0230560D02*
X1656460Y0230560D01*
X1656460Y0232910D02*
X1663540Y0232910D01*
X1663540Y0235260D02*
X1656460Y0235260D01*
X1643540Y0533510D02*
X1643540Y0546490D01*
X1643540Y0533510D02*
X1636460Y0533510D01*
X1636460Y0546490D01*
X1643540Y0546490D01*
X1643540Y0535860D02*
X1636460Y0535860D01*
X1636460Y0538210D02*
X1643540Y0538210D01*
X1643540Y0540560D02*
X1636460Y0540560D01*
X1636460Y0542910D02*
X1643540Y0542910D01*
X1643540Y0545260D02*
X1636460Y0545260D01*
X1593540Y0546490D02*
X1593540Y0533510D01*
X1586460Y0533510D01*
X1586460Y0546490D01*
X1593540Y0546490D01*
X1593540Y0535860D02*
X1586460Y0535860D01*
X1586460Y0538210D02*
X1593540Y0538210D01*
X1593540Y0540560D02*
X1586460Y0540560D01*
X1586460Y0542910D02*
X1593540Y0542910D01*
X1593540Y0545260D02*
X1586460Y0545260D01*
X1543540Y0546490D02*
X1543540Y0533510D01*
X1536460Y0533510D01*
X1536460Y0546490D01*
X1543540Y0546490D01*
X1543540Y0535860D02*
X1536460Y0535860D01*
X1536460Y0538210D02*
X1543540Y0538210D01*
X1543540Y0540560D02*
X1536460Y0540560D01*
X1536460Y0542910D02*
X1543540Y0542910D01*
X1543540Y0545260D02*
X1536460Y0545260D01*
X1493540Y0546490D02*
X1493540Y0533510D01*
X1486460Y0533510D01*
X1486460Y0546490D01*
X1493540Y0546490D01*
X1493540Y0535860D02*
X1486460Y0535860D01*
X1486460Y0538210D02*
X1493540Y0538210D01*
X1493540Y0540560D02*
X1486460Y0540560D01*
X1486460Y0542910D02*
X1493540Y0542910D01*
X1493540Y0545260D02*
X1486460Y0545260D01*
X1443540Y0546490D02*
X1443540Y0533510D01*
X1436460Y0533510D01*
X1436460Y0546490D01*
X1443540Y0546490D01*
X1443540Y0535860D02*
X1436460Y0535860D01*
X1436460Y0538210D02*
X1443540Y0538210D01*
X1443540Y0540560D02*
X1436460Y0540560D01*
X1436460Y0542910D02*
X1443540Y0542910D01*
X1443540Y0545260D02*
X1436460Y0545260D01*
D929*
X1637630Y0083680D03*
X1637630Y0078680D03*
X1637630Y0073680D03*
X1637630Y0068680D03*
X1658230Y0068680D03*
X1658230Y0073680D03*
X1658230Y0078680D03*
X1658230Y0083680D03*
D859*
X1658700Y0166880D03*
X1663700Y0166880D03*
X1668700Y0166880D03*
X1673700Y0166880D03*
X1678700Y0166880D03*
X1683700Y0166880D03*
X1688700Y0166880D03*
X1693700Y0166880D03*
X1693700Y0188930D03*
X1688700Y0188930D03*
X1683700Y0188930D03*
X1678700Y0188930D03*
X1673700Y0188930D03*
X1668700Y0188930D03*
X1663700Y0188930D03*
X1658700Y0188930D03*
X1644500Y0189030D03*
X1639500Y0189030D03*
X1634500Y0189030D03*
X1629500Y0189030D03*
X1624500Y0189030D03*
X1619500Y0189030D03*
X1614500Y0189030D03*
X1609500Y0189030D03*
X1609500Y0166980D03*
X1614500Y0166980D03*
X1619500Y0166980D03*
X1624500Y0166980D03*
X1629500Y0166980D03*
X1634500Y0166980D03*
X1639500Y0166980D03*
X1644500Y0166980D03*
D403*
X1491470Y0161150D03*
X1491470Y0153670D03*
X1481240Y0153670D03*
X1481240Y0157410D03*
X1481240Y0161150D03*
D622*
X1460800Y0156520D03*
X1454100Y0156520D03*
D148*
X1483500Y0053850D03*
X1483500Y0034160D03*
D196*
X1561900Y0033870D03*
X1561900Y0028870D03*
X1561900Y0040640D03*
X1561900Y0045640D03*
X1587100Y0045640D03*
X1587100Y0040640D03*
X1587100Y0033870D03*
X1587100Y0028870D03*
D459*
X1612760Y0028000D03*
X1620240Y0028000D03*
X0362500Y0594500D02*
G75*
%LPD*%
D409*
X0492500Y0687070D03*
X0492500Y0694940D03*
X0525500Y0636940D03*
X0525500Y0629070D03*
X0581850Y0620850D03*
X0581850Y0612980D03*
X0590100Y0612870D03*
X0590100Y0620740D03*
X0574300Y0717970D03*
X0574300Y0725840D03*
X0564100Y0725840D03*
X0564100Y0717970D03*
D933*
X0389890Y0647690D03*
X0398150Y0647690D03*
X0439370Y0717500D03*
X0447630Y0717500D03*
X0492500Y0678640D03*
X0492500Y0670370D03*
X0581940Y0637040D03*
X0590230Y0637040D03*
X0590230Y0628780D03*
X0581940Y0628780D03*
X0600370Y0883500D03*
X0608630Y0883500D03*
X0557630Y0883500D03*
X0549370Y0883500D03*
X0508630Y0883500D03*
X0500370Y0883500D03*
X0459630Y0883500D03*
X0451370Y0883500D03*
X0405630Y0883500D03*
X0397370Y0883500D03*
X0485370Y1091000D03*
X0493630Y1091000D03*
X0534870Y1090000D03*
X0543130Y1090000D03*
X0582370Y1088000D03*
X0590630Y1088000D03*
X0635370Y1087500D03*
X0643630Y1087500D03*
X0443630Y1095500D03*
X0435370Y1095500D03*
D231*
X0507560Y0759710D03*
X0510700Y0759710D03*
X0513850Y0759710D03*
X0517000Y0759710D03*
X0520150Y0759710D03*
X0523300Y0759710D03*
X0526450Y0759710D03*
X0529600Y0759710D03*
X0532750Y0759710D03*
X0535900Y0759710D03*
X0539050Y0759710D03*
X0539050Y0714040D03*
X0535900Y0714040D03*
X0532750Y0714040D03*
X0529600Y0714040D03*
X0526450Y0714040D03*
X0523300Y0714040D03*
X0520150Y0714040D03*
X0517000Y0714040D03*
X0513850Y0714040D03*
X0510700Y0714040D03*
X0507560Y0714040D03*
D312*
X0500470Y0721130D03*
X0500470Y0724280D03*
X0500470Y0727420D03*
X0500470Y0730570D03*
X0500470Y0733720D03*
X0500470Y0736870D03*
X0500470Y0740020D03*
X0500470Y0743170D03*
X0500470Y0746320D03*
X0500470Y0749470D03*
X0500470Y0752620D03*
X0546140Y0752620D03*
X0546140Y0749470D03*
X0546140Y0746320D03*
X0546140Y0743170D03*
X0546140Y0740020D03*
X0546140Y0736870D03*
X0546140Y0733720D03*
X0546140Y0730570D03*
X0546140Y0727420D03*
X0546140Y0724280D03*
X0546140Y0721130D03*
D183*
X0465940Y0717500D03*
X0458060Y0717500D03*
X0415960Y0647690D03*
X0408080Y0647690D03*
X0420560Y0826000D03*
X0428440Y0826000D03*
X0469370Y0828070D03*
X0477250Y0828070D03*
X0519870Y0826570D03*
X0527750Y0826570D03*
X0569870Y0828070D03*
X0577750Y0828070D03*
X0619370Y0827070D03*
X0627250Y0827070D03*
X0623440Y0883500D03*
X0615560Y0883500D03*
X0573440Y0883500D03*
X0565560Y0883500D03*
X0523440Y0883500D03*
X0515560Y0883500D03*
X0479440Y0883500D03*
X0471560Y0883500D03*
X0423440Y0883500D03*
X0415560Y0883500D03*
X0413560Y1035500D03*
X0421440Y1035500D03*
X0464060Y1036500D03*
X0471940Y1036500D03*
X0514060Y1035500D03*
X0521940Y1035500D03*
X0564060Y1035500D03*
X0571940Y1035500D03*
X0615560Y1035500D03*
X0623440Y1035500D03*
X0619250Y1092020D03*
X0611370Y1092020D03*
X0570440Y1094000D03*
X0562560Y1094000D03*
X0525440Y1093000D03*
X0517560Y1093000D03*
X0469440Y1093000D03*
X0461560Y1093000D03*
X0418440Y1093500D03*
X0410560Y1093500D03*
D712*
X0424980Y0658960D03*
X0439940Y0658960D03*
D395*
X0447000Y0803500D03*
X0447000Y0808500D03*
X0447000Y0813500D03*
X0447000Y0818500D03*
X0467500Y0818500D03*
X0467500Y0813500D03*
X0467500Y0808500D03*
X0467500Y0803500D03*
X0498000Y0803500D03*
X0498000Y0808500D03*
X0498000Y0813500D03*
X0498000Y0818500D03*
X0518500Y0818500D03*
X0518500Y0813500D03*
X0518500Y0808500D03*
X0518500Y0803500D03*
X0547000Y0803500D03*
X0547000Y0808500D03*
X0547000Y0813500D03*
X0547000Y0818500D03*
X0567500Y0818500D03*
X0567500Y0813500D03*
X0567500Y0808500D03*
X0567500Y0803500D03*
X0599500Y0803500D03*
X0599500Y0808500D03*
X0599500Y0813500D03*
X0599500Y0818500D03*
X0620000Y0818500D03*
X0620000Y0813500D03*
X0620000Y0808500D03*
X0620000Y0803500D03*
X0419000Y0803500D03*
X0419000Y0808500D03*
X0419000Y0813500D03*
X0419000Y0818500D03*
X0398500Y0818500D03*
X0398500Y0813500D03*
X0398500Y0808500D03*
X0398500Y0803500D03*
X0425000Y1106500D03*
X0425000Y1111500D03*
X0425000Y1116500D03*
X0425000Y1121500D03*
X0445500Y1121500D03*
X0445500Y1116500D03*
X0445500Y1111500D03*
X0445500Y1106500D03*
X0475000Y1106500D03*
X0475000Y1111500D03*
X0475000Y1116500D03*
X0475000Y1121500D03*
X0495500Y1121500D03*
X0495500Y1116500D03*
X0495500Y1111500D03*
X0495500Y1106500D03*
X0525000Y1106500D03*
X0525000Y1111500D03*
X0525000Y1116500D03*
X0525000Y1121500D03*
X0545500Y1121500D03*
X0545500Y1116500D03*
X0545500Y1111500D03*
X0545500Y1106500D03*
X0576000Y1106500D03*
X0576000Y1111500D03*
X0576000Y1116500D03*
X0576000Y1121500D03*
X0596500Y1121500D03*
X0596500Y1116500D03*
X0596500Y1111500D03*
X0596500Y1106500D03*
X0627000Y1106500D03*
X0627000Y1111500D03*
X0627000Y1116500D03*
X0627000Y1121500D03*
X0647500Y1121500D03*
X0647500Y1116500D03*
X0647500Y1111500D03*
X0647500Y1106500D03*
D279*
X0497230Y0662070D03*
X0490540Y0662070D03*
X0444140Y0648280D03*
X0437450Y0648280D03*
D62*
X0431880Y0836860D03*
X0413930Y0836860D03*
X0463520Y0838600D03*
X0481480Y0838600D03*
X0515520Y0837600D03*
X0533480Y0837600D03*
X0563520Y0838600D03*
X0581480Y0838600D03*
X0613520Y0838600D03*
X0631480Y0838600D03*
X0621480Y1080410D03*
X0603520Y1080410D03*
X0571480Y1080410D03*
X0553520Y1080410D03*
X0521480Y1080410D03*
X0503520Y1080410D03*
X0471480Y1080410D03*
X0453520Y1080410D03*
X0421480Y1080410D03*
X0403520Y1080410D03*
D543*
X0412500Y1053250D03*
X0462500Y1053250D03*
X0512500Y1053250D03*
X0562500Y1053250D03*
X0612500Y1053250D03*
X0622500Y0865760D03*
X0572500Y0865760D03*
X0524500Y0864760D03*
X0472500Y0865760D03*
X0422910Y0864020D03*
D323*
X0490990Y0652440D03*
X0490990Y0645740D03*
D654*
X0478720Y0624090D03*
X0503830Y0624090D03*
D103*
X0409740Y0683980D03*
X0404740Y0683980D03*
X0399740Y0683980D03*
X0394740Y0683980D03*
X0394740Y0704580D03*
X0399740Y0704580D03*
X0404740Y0704580D03*
X0409740Y0704580D03*
D939*
X0413480Y0668460D03*
X0396160Y0668460D03*
X0478260Y0658840D03*
X0478260Y0641520D03*
D580*
X0464560Y0688130D03*
X0425580Y0688130D03*
D413*
X0422040Y0716000D03*
X0414960Y0716000D03*
X0584850Y0652180D03*
X0591940Y0652180D03*
D131*
X0491710Y0711670D03*
X0491710Y0718760D03*
X0408000Y0721050D03*
X0408000Y0713960D03*
D606*
X0480060Y0689280D03*
X0480060Y0671170D03*
D384*
X0454240Y0658040D03*
X0454240Y0647020D03*
D154*
X0464370Y0642110D03*
X0464370Y0658250D03*
D531*
X0462450Y0902200D03*
X0482550Y0902200D03*
X0513450Y0902200D03*
X0533550Y0902200D03*
X0562450Y0902200D03*
X0582550Y0902200D03*
X0612450Y0902200D03*
X0632550Y0902200D03*
X0632550Y1016800D03*
X0612450Y1016800D03*
X0582550Y1016800D03*
X0562450Y1016800D03*
X0532550Y1016800D03*
X0512450Y1016800D03*
X0482550Y1016800D03*
X0462450Y1016800D03*
X0432550Y1016800D03*
X0412450Y1016800D03*
X0412450Y0902200D03*
X0432550Y0902200D03*
D197*
X0431200Y0925650D03*
X0414500Y0926650D03*
X0413100Y0944450D03*
X0431100Y0944250D03*
X0431900Y0974550D03*
X0430500Y0992350D03*
X0413800Y0993350D03*
X0413900Y0974750D03*
X0463900Y0974750D03*
X0481900Y0974550D03*
X0480500Y0992350D03*
X0463800Y0993350D03*
X0463100Y0944450D03*
X0464500Y0926650D03*
X0481200Y0925650D03*
X0481100Y0944250D03*
X0514100Y0944450D03*
X0515500Y0926650D03*
X0532200Y0925650D03*
X0532100Y0944250D03*
X0531900Y0974550D03*
X0530500Y0992350D03*
X0513900Y0974750D03*
X0513800Y0993350D03*
X0563800Y0993350D03*
X0563900Y0974750D03*
X0581900Y0974550D03*
X0580500Y0992350D03*
X0613800Y0993350D03*
X0630500Y0992350D03*
X0631900Y0974550D03*
X0613900Y0974750D03*
X0613100Y0944450D03*
X0614500Y0926650D03*
X0631200Y0925650D03*
X0631100Y0944250D03*
X0581100Y0944250D03*
X0581200Y0925650D03*
X0564500Y0926650D03*
X0563100Y0944450D03*
D551*
X0480000Y0710300D03*
X0480000Y0697700D03*
D803*
X0499460Y0655490D02*
X0499460Y0642510D01*
X0499460Y0655490D02*
X0506540Y0655490D01*
X0506540Y0642510D01*
X0499460Y0642510D01*
X0499460Y0644860D02*
X0506540Y0644860D01*
X0506540Y0647210D02*
X0499460Y0647210D01*
X0499460Y0649560D02*
X0506540Y0649560D01*
X0506540Y0651910D02*
X0499460Y0651910D01*
X0499460Y0654260D02*
X0506540Y0654260D01*
X0510490Y0609040D02*
X0497510Y0609040D01*
X0510490Y0609040D02*
X0510490Y0601960D01*
X0497510Y0601960D01*
X0497510Y0609040D01*
X0497510Y0604310D02*
X0510490Y0604310D01*
X0510490Y0606660D02*
X0497510Y0606660D01*
X0497510Y0609010D02*
X0510490Y0609010D01*
X0536040Y0798010D02*
X0536040Y0810990D01*
X0536040Y0798010D02*
X0528960Y0798010D01*
X0528960Y0810990D01*
X0536040Y0810990D01*
X0536040Y0800360D02*
X0528960Y0800360D01*
X0528960Y0802710D02*
X0536040Y0802710D01*
X0536040Y0805060D02*
X0528960Y0805060D01*
X0528960Y0807410D02*
X0536040Y0807410D01*
X0536040Y0809760D02*
X0528960Y0809760D01*
X0486040Y0810990D02*
X0486040Y0798010D01*
X0478960Y0798010D01*
X0478960Y0810990D01*
X0486040Y0810990D01*
X0486040Y0800360D02*
X0478960Y0800360D01*
X0478960Y0802710D02*
X0486040Y0802710D01*
X0486040Y0805060D02*
X0478960Y0805060D01*
X0478960Y0807410D02*
X0486040Y0807410D01*
X0486040Y0809760D02*
X0478960Y0809760D01*
X0436040Y0810990D02*
X0436040Y0798010D01*
X0428960Y0798010D01*
X0428960Y0810990D01*
X0436040Y0810990D01*
X0436040Y0800360D02*
X0428960Y0800360D01*
X0428960Y0802710D02*
X0436040Y0802710D01*
X0436040Y0805060D02*
X0428960Y0805060D01*
X0428960Y0807410D02*
X0436040Y0807410D01*
X0436040Y0809760D02*
X0428960Y0809760D01*
X0391960Y0835010D02*
X0391960Y0847990D01*
X0399040Y0847990D01*
X0399040Y0835010D01*
X0391960Y0835010D01*
X0391960Y0837360D02*
X0399040Y0837360D01*
X0399040Y0839710D02*
X0391960Y0839710D01*
X0391960Y0842060D02*
X0399040Y0842060D01*
X0399040Y0844410D02*
X0391960Y0844410D01*
X0391960Y0846760D02*
X0399040Y0846760D01*
X0586040Y0810990D02*
X0586040Y0798010D01*
X0578960Y0798010D01*
X0578960Y0810990D01*
X0586040Y0810990D01*
X0586040Y0800360D02*
X0578960Y0800360D01*
X0578960Y0802710D02*
X0586040Y0802710D01*
X0586040Y0805060D02*
X0578960Y0805060D01*
X0578960Y0807410D02*
X0586040Y0807410D01*
X0586040Y0809760D02*
X0578960Y0809760D01*
X0636040Y0810990D02*
X0636040Y0798010D01*
X0628960Y0798010D01*
X0628960Y0810990D01*
X0636040Y0810990D01*
X0636040Y0800360D02*
X0628960Y0800360D01*
X0628960Y0802710D02*
X0636040Y0802710D01*
X0636040Y0805060D02*
X0628960Y0805060D01*
X0628960Y0807410D02*
X0636040Y0807410D01*
X0636040Y0809760D02*
X0628960Y0809760D01*
X0616040Y1108010D02*
X0616040Y1120990D01*
X0616040Y1108010D02*
X0608960Y1108010D01*
X0608960Y1120990D01*
X0616040Y1120990D01*
X0616040Y1110360D02*
X0608960Y1110360D01*
X0608960Y1112710D02*
X0616040Y1112710D01*
X0616040Y1115060D02*
X0608960Y1115060D01*
X0608960Y1117410D02*
X0616040Y1117410D01*
X0616040Y1119760D02*
X0608960Y1119760D01*
X0566040Y1120990D02*
X0566040Y1108010D01*
X0558960Y1108010D01*
X0558960Y1120990D01*
X0566040Y1120990D01*
X0566040Y1110360D02*
X0558960Y1110360D01*
X0558960Y1112710D02*
X0566040Y1112710D01*
X0566040Y1115060D02*
X0558960Y1115060D01*
X0558960Y1117410D02*
X0566040Y1117410D01*
X0566040Y1119760D02*
X0558960Y1119760D01*
X0516040Y1120990D02*
X0516040Y1108010D01*
X0508960Y1108010D01*
X0508960Y1120990D01*
X0516040Y1120990D01*
X0516040Y1110360D02*
X0508960Y1110360D01*
X0508960Y1112710D02*
X0516040Y1112710D01*
X0516040Y1115060D02*
X0508960Y1115060D01*
X0508960Y1117410D02*
X0516040Y1117410D01*
X0516040Y1119760D02*
X0508960Y1119760D01*
X0466040Y1120990D02*
X0466040Y1108010D01*
X0458960Y1108010D01*
X0458960Y1120990D01*
X0466040Y1120990D01*
X0466040Y1110360D02*
X0458960Y1110360D01*
X0458960Y1112710D02*
X0466040Y1112710D01*
X0466040Y1115060D02*
X0458960Y1115060D01*
X0458960Y1117410D02*
X0466040Y1117410D01*
X0466040Y1119760D02*
X0458960Y1119760D01*
X0416040Y1120990D02*
X0416040Y1108010D01*
X0408960Y1108010D01*
X0408960Y1120990D01*
X0416040Y1120990D01*
X0416040Y1110360D02*
X0408960Y1110360D01*
X0408960Y1112710D02*
X0416040Y1112710D01*
X0416040Y1115060D02*
X0408960Y1115060D01*
X0408960Y1117410D02*
X0416040Y1117410D01*
X0416040Y1119760D02*
X0408960Y1119760D01*
D929*
X0610130Y0658180D03*
X0610130Y0653180D03*
X0610130Y0648180D03*
X0610130Y0643180D03*
X0630730Y0643180D03*
X0630730Y0648180D03*
X0630730Y0653180D03*
X0630730Y0658180D03*
D859*
X0631200Y0741380D03*
X0636200Y0741380D03*
X0641200Y0741380D03*
X0646200Y0741380D03*
X0651200Y0741380D03*
X0656200Y0741380D03*
X0661200Y0741380D03*
X0666200Y0741380D03*
X0666200Y0763430D03*
X0661200Y0763430D03*
X0656200Y0763430D03*
X0651200Y0763430D03*
X0646200Y0763430D03*
X0641200Y0763430D03*
X0636200Y0763430D03*
X0631200Y0763430D03*
X0617000Y0763530D03*
X0612000Y0763530D03*
X0607000Y0763530D03*
X0602000Y0763530D03*
X0597000Y0763530D03*
X0592000Y0763530D03*
X0587000Y0763530D03*
X0582000Y0763530D03*
X0582000Y0741480D03*
X0587000Y0741480D03*
X0592000Y0741480D03*
X0597000Y0741480D03*
X0602000Y0741480D03*
X0607000Y0741480D03*
X0612000Y0741480D03*
X0617000Y0741480D03*
D403*
X0463970Y0735650D03*
X0463970Y0728170D03*
X0453740Y0728170D03*
X0453740Y0731910D03*
X0453740Y0735650D03*
D622*
X0433300Y0731020D03*
X0426600Y0731020D03*
D148*
X0456000Y0628350D03*
X0456000Y0608660D03*
D196*
X0534400Y0608370D03*
X0534400Y0603370D03*
X0534400Y0615140D03*
X0534400Y0620140D03*
X0559600Y0620140D03*
X0559600Y0615140D03*
X0559600Y0608370D03*
X0559600Y0603370D03*
D459*
X0585260Y0602500D03*
X0592740Y0602500D03*
X0705000Y0594500D02*
G75*
%LPD*%
D409*
X0835000Y0687070D03*
X0835000Y0694940D03*
X0868000Y0636940D03*
X0868000Y0629070D03*
X0924350Y0620850D03*
X0924350Y0612980D03*
X0932600Y0612870D03*
X0932600Y0620740D03*
X0916800Y0717970D03*
X0916800Y0725840D03*
X0906600Y0725840D03*
X0906600Y0717970D03*
D933*
X0732390Y0647690D03*
X0740650Y0647690D03*
X0781870Y0717500D03*
X0790130Y0717500D03*
X0835000Y0678640D03*
X0835000Y0670370D03*
X0924440Y0637040D03*
X0932730Y0637040D03*
X0932730Y0628780D03*
X0924440Y0628780D03*
X0942870Y0883500D03*
X0951130Y0883500D03*
X0900130Y0883500D03*
X0891870Y0883500D03*
X0851130Y0883500D03*
X0842870Y0883500D03*
X0802130Y0883500D03*
X0793870Y0883500D03*
X0748130Y0883500D03*
X0739870Y0883500D03*
X0827870Y1091000D03*
X0836130Y1091000D03*
X0877370Y1090000D03*
X0885630Y1090000D03*
X0924870Y1088000D03*
X0933130Y1088000D03*
X0977870Y1087500D03*
X0986130Y1087500D03*
X0786130Y1095500D03*
X0777870Y1095500D03*
D231*
X0850060Y0759710D03*
X0853200Y0759710D03*
X0856350Y0759710D03*
X0859500Y0759710D03*
X0862650Y0759710D03*
X0865800Y0759710D03*
X0868950Y0759710D03*
X0872100Y0759710D03*
X0875250Y0759710D03*
X0878400Y0759710D03*
X0881550Y0759710D03*
X0881550Y0714040D03*
X0878400Y0714040D03*
X0875250Y0714040D03*
X0872100Y0714040D03*
X0868950Y0714040D03*
X0865800Y0714040D03*
X0862650Y0714040D03*
X0859500Y0714040D03*
X0856350Y0714040D03*
X0853200Y0714040D03*
X0850060Y0714040D03*
D312*
X0842970Y0721130D03*
X0842970Y0724280D03*
X0842970Y0727420D03*
X0842970Y0730570D03*
X0842970Y0733720D03*
X0842970Y0736870D03*
X0842970Y0740020D03*
X0842970Y0743170D03*
X0842970Y0746320D03*
X0842970Y0749470D03*
X0842970Y0752620D03*
X0888640Y0752620D03*
X0888640Y0749470D03*
X0888640Y0746320D03*
X0888640Y0743170D03*
X0888640Y0740020D03*
X0888640Y0736870D03*
X0888640Y0733720D03*
X0888640Y0730570D03*
X0888640Y0727420D03*
X0888640Y0724280D03*
X0888640Y0721130D03*
D183*
X0808440Y0717500D03*
X0800560Y0717500D03*
X0758460Y0647690D03*
X0750580Y0647690D03*
X0763060Y0826000D03*
X0770940Y0826000D03*
X0811870Y0828070D03*
X0819750Y0828070D03*
X0862370Y0826570D03*
X0870250Y0826570D03*
X0912370Y0828070D03*
X0920250Y0828070D03*
X0961870Y0827070D03*
X0969750Y0827070D03*
X0965940Y0883500D03*
X0958060Y0883500D03*
X0915940Y0883500D03*
X0908060Y0883500D03*
X0865940Y0883500D03*
X0858060Y0883500D03*
X0821940Y0883500D03*
X0814060Y0883500D03*
X0765940Y0883500D03*
X0758060Y0883500D03*
X0756060Y1035500D03*
X0763940Y1035500D03*
X0806560Y1036500D03*
X0814440Y1036500D03*
X0856560Y1035500D03*
X0864440Y1035500D03*
X0906560Y1035500D03*
X0914440Y1035500D03*
X0958060Y1035500D03*
X0965940Y1035500D03*
X0961750Y1092020D03*
X0953870Y1092020D03*
X0912940Y1094000D03*
X0905060Y1094000D03*
X0867940Y1093000D03*
X0860060Y1093000D03*
X0811940Y1093000D03*
X0804060Y1093000D03*
X0760940Y1093500D03*
X0753060Y1093500D03*
D712*
X0767480Y0658960D03*
X0782440Y0658960D03*
D395*
X0789500Y0803500D03*
X0789500Y0808500D03*
X0789500Y0813500D03*
X0789500Y0818500D03*
X0810000Y0818500D03*
X0810000Y0813500D03*
X0810000Y0808500D03*
X0810000Y0803500D03*
X0840500Y0803500D03*
X0840500Y0808500D03*
X0840500Y0813500D03*
X0840500Y0818500D03*
X0861000Y0818500D03*
X0861000Y0813500D03*
X0861000Y0808500D03*
X0861000Y0803500D03*
X0889500Y0803500D03*
X0889500Y0808500D03*
X0889500Y0813500D03*
X0889500Y0818500D03*
X0910000Y0818500D03*
X0910000Y0813500D03*
X0910000Y0808500D03*
X0910000Y0803500D03*
X0942000Y0803500D03*
X0942000Y0808500D03*
X0942000Y0813500D03*
X0942000Y0818500D03*
X0962500Y0818500D03*
X0962500Y0813500D03*
X0962500Y0808500D03*
X0962500Y0803500D03*
X0761500Y0803500D03*
X0761500Y0808500D03*
X0761500Y0813500D03*
X0761500Y0818500D03*
X0741000Y0818500D03*
X0741000Y0813500D03*
X0741000Y0808500D03*
X0741000Y0803500D03*
X0767500Y1106500D03*
X0767500Y1111500D03*
X0767500Y1116500D03*
X0767500Y1121500D03*
X0788000Y1121500D03*
X0788000Y1116500D03*
X0788000Y1111500D03*
X0788000Y1106500D03*
X0817500Y1106500D03*
X0817500Y1111500D03*
X0817500Y1116500D03*
X0817500Y1121500D03*
X0838000Y1121500D03*
X0838000Y1116500D03*
X0838000Y1111500D03*
X0838000Y1106500D03*
X0867500Y1106500D03*
X0867500Y1111500D03*
X0867500Y1116500D03*
X0867500Y1121500D03*
X0888000Y1121500D03*
X0888000Y1116500D03*
X0888000Y1111500D03*
X0888000Y1106500D03*
X0918500Y1106500D03*
X0918500Y1111500D03*
X0918500Y1116500D03*
X0918500Y1121500D03*
X0939000Y1121500D03*
X0939000Y1116500D03*
X0939000Y1111500D03*
X0939000Y1106500D03*
X0969500Y1106500D03*
X0969500Y1111500D03*
X0969500Y1116500D03*
X0969500Y1121500D03*
X0990000Y1121500D03*
X0990000Y1116500D03*
X0990000Y1111500D03*
X0990000Y1106500D03*
D279*
X0839730Y0662070D03*
X0833040Y0662070D03*
X0786640Y0648280D03*
X0779950Y0648280D03*
D62*
X0774380Y0836860D03*
X0756430Y0836860D03*
X0806020Y0838600D03*
X0823980Y0838600D03*
X0858020Y0837600D03*
X0875980Y0837600D03*
X0906020Y0838600D03*
X0923980Y0838600D03*
X0956020Y0838600D03*
X0973980Y0838600D03*
X0963980Y1080410D03*
X0946020Y1080410D03*
X0913980Y1080410D03*
X0896020Y1080410D03*
X0863980Y1080410D03*
X0846020Y1080410D03*
X0813980Y1080410D03*
X0796020Y1080410D03*
X0763980Y1080410D03*
X0746020Y1080410D03*
D543*
X0755000Y1053250D03*
X0805000Y1053250D03*
X0855000Y1053250D03*
X0905000Y1053250D03*
X0955000Y1053250D03*
X0965000Y0865760D03*
X0915000Y0865760D03*
X0867000Y0864760D03*
X0815000Y0865760D03*
X0765410Y0864020D03*
D323*
X0833490Y0652440D03*
X0833490Y0645740D03*
D654*
X0821220Y0624090D03*
X0846330Y0624090D03*
D103*
X0752240Y0683980D03*
X0747240Y0683980D03*
X0742240Y0683980D03*
X0737240Y0683980D03*
X0737240Y0704580D03*
X0742240Y0704580D03*
X0747240Y0704580D03*
X0752240Y0704580D03*
D939*
X0755980Y0668460D03*
X0738660Y0668460D03*
X0820760Y0658840D03*
X0820760Y0641520D03*
D580*
X0807060Y0688130D03*
X0768080Y0688130D03*
D413*
X0764540Y0716000D03*
X0757460Y0716000D03*
X0927350Y0652180D03*
X0934440Y0652180D03*
D131*
X0834210Y0711670D03*
X0834210Y0718760D03*
X0750500Y0721050D03*
X0750500Y0713960D03*
D606*
X0822560Y0689280D03*
X0822560Y0671170D03*
D384*
X0796740Y0658040D03*
X0796740Y0647020D03*
D154*
X0806870Y0642110D03*
X0806870Y0658250D03*
D531*
X0804950Y0902200D03*
X0825050Y0902200D03*
X0855950Y0902200D03*
X0876050Y0902200D03*
X0904950Y0902200D03*
X0925050Y0902200D03*
X0954950Y0902200D03*
X0975050Y0902200D03*
X0975050Y1016800D03*
X0954950Y1016800D03*
X0925050Y1016800D03*
X0904950Y1016800D03*
X0875050Y1016800D03*
X0854950Y1016800D03*
X0825050Y1016800D03*
X0804950Y1016800D03*
X0775050Y1016800D03*
X0754950Y1016800D03*
X0754950Y0902200D03*
X0775050Y0902200D03*
D197*
X0773700Y0925650D03*
X0757000Y0926650D03*
X0755600Y0944450D03*
X0773600Y0944250D03*
X0774400Y0974550D03*
X0773000Y0992350D03*
X0756300Y0993350D03*
X0756400Y0974750D03*
X0806400Y0974750D03*
X0824400Y0974550D03*
X0823000Y0992350D03*
X0806300Y0993350D03*
X0805600Y0944450D03*
X0807000Y0926650D03*
X0823700Y0925650D03*
X0823600Y0944250D03*
X0856600Y0944450D03*
X0858000Y0926650D03*
X0874700Y0925650D03*
X0874600Y0944250D03*
X0874400Y0974550D03*
X0873000Y0992350D03*
X0856400Y0974750D03*
X0856300Y0993350D03*
X0906300Y0993350D03*
X0906400Y0974750D03*
X0924400Y0974550D03*
X0923000Y0992350D03*
X0956300Y0993350D03*
X0973000Y0992350D03*
X0974400Y0974550D03*
X0956400Y0974750D03*
X0955600Y0944450D03*
X0957000Y0926650D03*
X0973700Y0925650D03*
X0973600Y0944250D03*
X0923600Y0944250D03*
X0923700Y0925650D03*
X0907000Y0926650D03*
X0905600Y0944450D03*
D551*
X0822500Y0710300D03*
X0822500Y0697700D03*
D803*
X0841960Y0655490D02*
X0841960Y0642510D01*
X0841960Y0655490D02*
X0849040Y0655490D01*
X0849040Y0642510D01*
X0841960Y0642510D01*
X0841960Y0644860D02*
X0849040Y0644860D01*
X0849040Y0647210D02*
X0841960Y0647210D01*
X0841960Y0649560D02*
X0849040Y0649560D01*
X0849040Y0651910D02*
X0841960Y0651910D01*
X0841960Y0654260D02*
X0849040Y0654260D01*
X0852990Y0609040D02*
X0840010Y0609040D01*
X0852990Y0609040D02*
X0852990Y0601960D01*
X0840010Y0601960D01*
X0840010Y0609040D01*
X0840010Y0604310D02*
X0852990Y0604310D01*
X0852990Y0606660D02*
X0840010Y0606660D01*
X0840010Y0609010D02*
X0852990Y0609010D01*
X0878540Y0798010D02*
X0878540Y0810990D01*
X0878540Y0798010D02*
X0871460Y0798010D01*
X0871460Y0810990D01*
X0878540Y0810990D01*
X0878540Y0800360D02*
X0871460Y0800360D01*
X0871460Y0802710D02*
X0878540Y0802710D01*
X0878540Y0805060D02*
X0871460Y0805060D01*
X0871460Y0807410D02*
X0878540Y0807410D01*
X0878540Y0809760D02*
X0871460Y0809760D01*
X0828540Y0810990D02*
X0828540Y0798010D01*
X0821460Y0798010D01*
X0821460Y0810990D01*
X0828540Y0810990D01*
X0828540Y0800360D02*
X0821460Y0800360D01*
X0821460Y0802710D02*
X0828540Y0802710D01*
X0828540Y0805060D02*
X0821460Y0805060D01*
X0821460Y0807410D02*
X0828540Y0807410D01*
X0828540Y0809760D02*
X0821460Y0809760D01*
X0778540Y0810990D02*
X0778540Y0798010D01*
X0771460Y0798010D01*
X0771460Y0810990D01*
X0778540Y0810990D01*
X0778540Y0800360D02*
X0771460Y0800360D01*
X0771460Y0802710D02*
X0778540Y0802710D01*
X0778540Y0805060D02*
X0771460Y0805060D01*
X0771460Y0807410D02*
X0778540Y0807410D01*
X0778540Y0809760D02*
X0771460Y0809760D01*
X0734460Y0835010D02*
X0734460Y0847990D01*
X0741540Y0847990D01*
X0741540Y0835010D01*
X0734460Y0835010D01*
X0734460Y0837360D02*
X0741540Y0837360D01*
X0741540Y0839710D02*
X0734460Y0839710D01*
X0734460Y0842060D02*
X0741540Y0842060D01*
X0741540Y0844410D02*
X0734460Y0844410D01*
X0734460Y0846760D02*
X0741540Y0846760D01*
X0928540Y0810990D02*
X0928540Y0798010D01*
X0921460Y0798010D01*
X0921460Y0810990D01*
X0928540Y0810990D01*
X0928540Y0800360D02*
X0921460Y0800360D01*
X0921460Y0802710D02*
X0928540Y0802710D01*
X0928540Y0805060D02*
X0921460Y0805060D01*
X0921460Y0807410D02*
X0928540Y0807410D01*
X0928540Y0809760D02*
X0921460Y0809760D01*
X0978540Y0810990D02*
X0978540Y0798010D01*
X0971460Y0798010D01*
X0971460Y0810990D01*
X0978540Y0810990D01*
X0978540Y0800360D02*
X0971460Y0800360D01*
X0971460Y0802710D02*
X0978540Y0802710D01*
X0978540Y0805060D02*
X0971460Y0805060D01*
X0971460Y0807410D02*
X0978540Y0807410D01*
X0978540Y0809760D02*
X0971460Y0809760D01*
X0958540Y1108010D02*
X0958540Y1120990D01*
X0958540Y1108010D02*
X0951460Y1108010D01*
X0951460Y1120990D01*
X0958540Y1120990D01*
X0958540Y1110360D02*
X0951460Y1110360D01*
X0951460Y1112710D02*
X0958540Y1112710D01*
X0958540Y1115060D02*
X0951460Y1115060D01*
X0951460Y1117410D02*
X0958540Y1117410D01*
X0958540Y1119760D02*
X0951460Y1119760D01*
X0908540Y1120990D02*
X0908540Y1108010D01*
X0901460Y1108010D01*
X0901460Y1120990D01*
X0908540Y1120990D01*
X0908540Y1110360D02*
X0901460Y1110360D01*
X0901460Y1112710D02*
X0908540Y1112710D01*
X0908540Y1115060D02*
X0901460Y1115060D01*
X0901460Y1117410D02*
X0908540Y1117410D01*
X0908540Y1119760D02*
X0901460Y1119760D01*
X0858540Y1120990D02*
X0858540Y1108010D01*
X0851460Y1108010D01*
X0851460Y1120990D01*
X0858540Y1120990D01*
X0858540Y1110360D02*
X0851460Y1110360D01*
X0851460Y1112710D02*
X0858540Y1112710D01*
X0858540Y1115060D02*
X0851460Y1115060D01*
X0851460Y1117410D02*
X0858540Y1117410D01*
X0858540Y1119760D02*
X0851460Y1119760D01*
X0808540Y1120990D02*
X0808540Y1108010D01*
X0801460Y1108010D01*
X0801460Y1120990D01*
X0808540Y1120990D01*
X0808540Y1110360D02*
X0801460Y1110360D01*
X0801460Y1112710D02*
X0808540Y1112710D01*
X0808540Y1115060D02*
X0801460Y1115060D01*
X0801460Y1117410D02*
X0808540Y1117410D01*
X0808540Y1119760D02*
X0801460Y1119760D01*
X0758540Y1120990D02*
X0758540Y1108010D01*
X0751460Y1108010D01*
X0751460Y1120990D01*
X0758540Y1120990D01*
X0758540Y1110360D02*
X0751460Y1110360D01*
X0751460Y1112710D02*
X0758540Y1112710D01*
X0758540Y1115060D02*
X0751460Y1115060D01*
X0751460Y1117410D02*
X0758540Y1117410D01*
X0758540Y1119760D02*
X0751460Y1119760D01*
D929*
X0952630Y0658180D03*
X0952630Y0653180D03*
X0952630Y0648180D03*
X0952630Y0643180D03*
X0973230Y0643180D03*
X0973230Y0648180D03*
X0973230Y0653180D03*
X0973230Y0658180D03*
D859*
X0973700Y0741380D03*
X0978700Y0741380D03*
X0983700Y0741380D03*
X0988700Y0741380D03*
X0993700Y0741380D03*
X0998700Y0741380D03*
X1003700Y0741380D03*
X1008700Y0741380D03*
X1008700Y0763430D03*
X1003700Y0763430D03*
X0998700Y0763430D03*
X0993700Y0763430D03*
X0988700Y0763430D03*
X0983700Y0763430D03*
X0978700Y0763430D03*
X0973700Y0763430D03*
X0959500Y0763530D03*
X0954500Y0763530D03*
X0949500Y0763530D03*
X0944500Y0763530D03*
X0939500Y0763530D03*
X0934500Y0763530D03*
X0929500Y0763530D03*
X0924500Y0763530D03*
X0924500Y0741480D03*
X0929500Y0741480D03*
X0934500Y0741480D03*
X0939500Y0741480D03*
X0944500Y0741480D03*
X0949500Y0741480D03*
X0954500Y0741480D03*
X0959500Y0741480D03*
D403*
X0806470Y0735650D03*
X0806470Y0728170D03*
X0796240Y0728170D03*
X0796240Y0731910D03*
X0796240Y0735650D03*
D622*
X0775800Y0731020D03*
X0769100Y0731020D03*
D148*
X0798500Y0628350D03*
X0798500Y0608660D03*
D196*
X0876900Y0608370D03*
X0876900Y0603370D03*
X0876900Y0615140D03*
X0876900Y0620140D03*
X0902100Y0620140D03*
X0902100Y0615140D03*
X0902100Y0608370D03*
X0902100Y0603370D03*
D459*
X0927760Y0602500D03*
X0935240Y0602500D03*
X1047500Y0594500D02*
G75*
%LPD*%
D409*
X1177500Y0687070D03*
X1177500Y0694940D03*
X1210500Y0636940D03*
X1210500Y0629070D03*
X1266850Y0620850D03*
X1266850Y0612980D03*
X1275100Y0612870D03*
X1275100Y0620740D03*
X1259300Y0717970D03*
X1259300Y0725840D03*
X1249100Y0725840D03*
X1249100Y0717970D03*
D933*
X1074890Y0647690D03*
X1083150Y0647690D03*
X1124370Y0717500D03*
X1132630Y0717500D03*
X1177500Y0678640D03*
X1177500Y0670370D03*
X1266940Y0637040D03*
X1275230Y0637040D03*
X1275230Y0628780D03*
X1266940Y0628780D03*
X1285370Y0883500D03*
X1293630Y0883500D03*
X1242630Y0883500D03*
X1234370Y0883500D03*
X1193630Y0883500D03*
X1185370Y0883500D03*
X1144630Y0883500D03*
X1136370Y0883500D03*
X1090630Y0883500D03*
X1082370Y0883500D03*
X1170370Y1091000D03*
X1178630Y1091000D03*
X1219870Y1090000D03*
X1228130Y1090000D03*
X1267370Y1088000D03*
X1275630Y1088000D03*
X1320370Y1087500D03*
X1328630Y1087500D03*
X1128630Y1095500D03*
X1120370Y1095500D03*
D231*
X1192560Y0759710D03*
X1195700Y0759710D03*
X1198850Y0759710D03*
X1202000Y0759710D03*
X1205150Y0759710D03*
X1208300Y0759710D03*
X1211450Y0759710D03*
X1214600Y0759710D03*
X1217750Y0759710D03*
X1220900Y0759710D03*
X1224050Y0759710D03*
X1224050Y0714040D03*
X1220900Y0714040D03*
X1217750Y0714040D03*
X1214600Y0714040D03*
X1211450Y0714040D03*
X1208300Y0714040D03*
X1205150Y0714040D03*
X1202000Y0714040D03*
X1198850Y0714040D03*
X1195700Y0714040D03*
X1192560Y0714040D03*
D312*
X1185470Y0721130D03*
X1185470Y0724280D03*
X1185470Y0727420D03*
X1185470Y0730570D03*
X1185470Y0733720D03*
X1185470Y0736870D03*
X1185470Y0740020D03*
X1185470Y0743170D03*
X1185470Y0746320D03*
X1185470Y0749470D03*
X1185470Y0752620D03*
X1231140Y0752620D03*
X1231140Y0749470D03*
X1231140Y0746320D03*
X1231140Y0743170D03*
X1231140Y0740020D03*
X1231140Y0736870D03*
X1231140Y0733720D03*
X1231140Y0730570D03*
X1231140Y0727420D03*
X1231140Y0724280D03*
X1231140Y0721130D03*
D183*
X1150940Y0717500D03*
X1143060Y0717500D03*
X1100960Y0647690D03*
X1093080Y0647690D03*
X1105560Y0826000D03*
X1113440Y0826000D03*
X1154370Y0828070D03*
X1162250Y0828070D03*
X1204870Y0826570D03*
X1212750Y0826570D03*
X1254870Y0828070D03*
X1262750Y0828070D03*
X1304370Y0827070D03*
X1312250Y0827070D03*
X1308440Y0883500D03*
X1300560Y0883500D03*
X1258440Y0883500D03*
X1250560Y0883500D03*
X1208440Y0883500D03*
X1200560Y0883500D03*
X1164440Y0883500D03*
X1156560Y0883500D03*
X1108440Y0883500D03*
X1100560Y0883500D03*
X1098560Y1035500D03*
X1106440Y1035500D03*
X1149060Y1036500D03*
X1156940Y1036500D03*
X1199060Y1035500D03*
X1206940Y1035500D03*
X1249060Y1035500D03*
X1256940Y1035500D03*
X1300560Y1035500D03*
X1308440Y1035500D03*
X1304250Y1092020D03*
X1296370Y1092020D03*
X1255440Y1094000D03*
X1247560Y1094000D03*
X1210440Y1093000D03*
X1202560Y1093000D03*
X1154440Y1093000D03*
X1146560Y1093000D03*
X1103440Y1093500D03*
X1095560Y1093500D03*
D712*
X1109980Y0658960D03*
X1124940Y0658960D03*
D395*
X1132000Y0803500D03*
X1132000Y0808500D03*
X1132000Y0813500D03*
X1132000Y0818500D03*
X1152500Y0818500D03*
X1152500Y0813500D03*
X1152500Y0808500D03*
X1152500Y0803500D03*
X1183000Y0803500D03*
X1183000Y0808500D03*
X1183000Y0813500D03*
X1183000Y0818500D03*
X1203500Y0818500D03*
X1203500Y0813500D03*
X1203500Y0808500D03*
X1203500Y0803500D03*
X1232000Y0803500D03*
X1232000Y0808500D03*
X1232000Y0813500D03*
X1232000Y0818500D03*
X1252500Y0818500D03*
X1252500Y0813500D03*
X1252500Y0808500D03*
X1252500Y0803500D03*
X1284500Y0803500D03*
X1284500Y0808500D03*
X1284500Y0813500D03*
X1284500Y0818500D03*
X1305000Y0818500D03*
X1305000Y0813500D03*
X1305000Y0808500D03*
X1305000Y0803500D03*
X1104000Y0803500D03*
X1104000Y0808500D03*
X1104000Y0813500D03*
X1104000Y0818500D03*
X1083500Y0818500D03*
X1083500Y0813500D03*
X1083500Y0808500D03*
X1083500Y0803500D03*
X1110000Y1106500D03*
X1110000Y1111500D03*
X1110000Y1116500D03*
X1110000Y1121500D03*
X1130500Y1121500D03*
X1130500Y1116500D03*
X1130500Y1111500D03*
X1130500Y1106500D03*
X1160000Y1106500D03*
X1160000Y1111500D03*
X1160000Y1116500D03*
X1160000Y1121500D03*
X1180500Y1121500D03*
X1180500Y1116500D03*
X1180500Y1111500D03*
X1180500Y1106500D03*
X1210000Y1106500D03*
X1210000Y1111500D03*
X1210000Y1116500D03*
X1210000Y1121500D03*
X1230500Y1121500D03*
X1230500Y1116500D03*
X1230500Y1111500D03*
X1230500Y1106500D03*
X1261000Y1106500D03*
X1261000Y1111500D03*
X1261000Y1116500D03*
X1261000Y1121500D03*
X1281500Y1121500D03*
X1281500Y1116500D03*
X1281500Y1111500D03*
X1281500Y1106500D03*
X1312000Y1106500D03*
X1312000Y1111500D03*
X1312000Y1116500D03*
X1312000Y1121500D03*
X1332500Y1121500D03*
X1332500Y1116500D03*
X1332500Y1111500D03*
X1332500Y1106500D03*
D279*
X1182230Y0662070D03*
X1175540Y0662070D03*
X1129140Y0648280D03*
X1122450Y0648280D03*
D62*
X1116880Y0836860D03*
X1098930Y0836860D03*
X1148520Y0838600D03*
X1166480Y0838600D03*
X1200520Y0837600D03*
X1218480Y0837600D03*
X1248520Y0838600D03*
X1266480Y0838600D03*
X1298520Y0838600D03*
X1316480Y0838600D03*
X1306480Y1080410D03*
X1288520Y1080410D03*
X1256480Y1080410D03*
X1238520Y1080410D03*
X1206480Y1080410D03*
X1188520Y1080410D03*
X1156480Y1080410D03*
X1138520Y1080410D03*
X1106480Y1080410D03*
X1088520Y1080410D03*
D543*
X1097500Y1053250D03*
X1147500Y1053250D03*
X1197500Y1053250D03*
X1247500Y1053250D03*
X1297500Y1053250D03*
X1307500Y0865760D03*
X1257500Y0865760D03*
X1209500Y0864760D03*
X1157500Y0865760D03*
X1107910Y0864020D03*
D323*
X1175990Y0652440D03*
X1175990Y0645740D03*
D654*
X1163720Y0624090D03*
X1188830Y0624090D03*
D103*
X1094740Y0683980D03*
X1089740Y0683980D03*
X1084740Y0683980D03*
X1079740Y0683980D03*
X1079740Y0704580D03*
X1084740Y0704580D03*
X1089740Y0704580D03*
X1094740Y0704580D03*
D939*
X1098480Y0668460D03*
X1081160Y0668460D03*
X1163260Y0658840D03*
X1163260Y0641520D03*
D580*
X1149560Y0688130D03*
X1110580Y0688130D03*
D413*
X1107040Y0716000D03*
X1099960Y0716000D03*
X1269850Y0652180D03*
X1276940Y0652180D03*
D131*
X1176710Y0711670D03*
X1176710Y0718760D03*
X1093000Y0721050D03*
X1093000Y0713960D03*
D606*
X1165060Y0689280D03*
X1165060Y0671170D03*
D384*
X1139240Y0658040D03*
X1139240Y0647020D03*
D154*
X1149370Y0642110D03*
X1149370Y0658250D03*
D531*
X1147450Y0902200D03*
X1167550Y0902200D03*
X1198450Y0902200D03*
X1218550Y0902200D03*
X1247450Y0902200D03*
X1267550Y0902200D03*
X1297450Y0902200D03*
X1317550Y0902200D03*
X1317550Y1016800D03*
X1297450Y1016800D03*
X1267550Y1016800D03*
X1247450Y1016800D03*
X1217550Y1016800D03*
X1197450Y1016800D03*
X1167550Y1016800D03*
X1147450Y1016800D03*
X1117550Y1016800D03*
X1097450Y1016800D03*
X1097450Y0902200D03*
X1117550Y0902200D03*
D197*
X1116200Y0925650D03*
X1099500Y0926650D03*
X1098100Y0944450D03*
X1116100Y0944250D03*
X1116900Y0974550D03*
X1115500Y0992350D03*
X1098800Y0993350D03*
X1098900Y0974750D03*
X1148900Y0974750D03*
X1166900Y0974550D03*
X1165500Y0992350D03*
X1148800Y0993350D03*
X1148100Y0944450D03*
X1149500Y0926650D03*
X1166200Y0925650D03*
X1166100Y0944250D03*
X1199100Y0944450D03*
X1200500Y0926650D03*
X1217200Y0925650D03*
X1217100Y0944250D03*
X1216900Y0974550D03*
X1215500Y0992350D03*
X1198900Y0974750D03*
X1198800Y0993350D03*
X1248800Y0993350D03*
X1248900Y0974750D03*
X1266900Y0974550D03*
X1265500Y0992350D03*
X1298800Y0993350D03*
X1315500Y0992350D03*
X1316900Y0974550D03*
X1298900Y0974750D03*
X1298100Y0944450D03*
X1299500Y0926650D03*
X1316200Y0925650D03*
X1316100Y0944250D03*
X1266100Y0944250D03*
X1266200Y0925650D03*
X1249500Y0926650D03*
X1248100Y0944450D03*
D551*
X1165000Y0710300D03*
X1165000Y0697700D03*
D803*
X1184460Y0655490D02*
X1184460Y0642510D01*
X1184460Y0655490D02*
X1191540Y0655490D01*
X1191540Y0642510D01*
X1184460Y0642510D01*
X1184460Y0644860D02*
X1191540Y0644860D01*
X1191540Y0647210D02*
X1184460Y0647210D01*
X1184460Y0649560D02*
X1191540Y0649560D01*
X1191540Y0651910D02*
X1184460Y0651910D01*
X1184460Y0654260D02*
X1191540Y0654260D01*
X1195490Y0609040D02*
X1182510Y0609040D01*
X1195490Y0609040D02*
X1195490Y0601960D01*
X1182510Y0601960D01*
X1182510Y0609040D01*
X1182510Y0604310D02*
X1195490Y0604310D01*
X1195490Y0606660D02*
X1182510Y0606660D01*
X1182510Y0609010D02*
X1195490Y0609010D01*
X1221040Y0798010D02*
X1221040Y0810990D01*
X1221040Y0798010D02*
X1213960Y0798010D01*
X1213960Y0810990D01*
X1221040Y0810990D01*
X1221040Y0800360D02*
X1213960Y0800360D01*
X1213960Y0802710D02*
X1221040Y0802710D01*
X1221040Y0805060D02*
X1213960Y0805060D01*
X1213960Y0807410D02*
X1221040Y0807410D01*
X1221040Y0809760D02*
X1213960Y0809760D01*
X1171040Y0810990D02*
X1171040Y0798010D01*
X1163960Y0798010D01*
X1163960Y0810990D01*
X1171040Y0810990D01*
X1171040Y0800360D02*
X1163960Y0800360D01*
X1163960Y0802710D02*
X1171040Y0802710D01*
X1171040Y0805060D02*
X1163960Y0805060D01*
X1163960Y0807410D02*
X1171040Y0807410D01*
X1171040Y0809760D02*
X1163960Y0809760D01*
X1121040Y0810990D02*
X1121040Y0798010D01*
X1113960Y0798010D01*
X1113960Y0810990D01*
X1121040Y0810990D01*
X1121040Y0800360D02*
X1113960Y0800360D01*
X1113960Y0802710D02*
X1121040Y0802710D01*
X1121040Y0805060D02*
X1113960Y0805060D01*
X1113960Y0807410D02*
X1121040Y0807410D01*
X1121040Y0809760D02*
X1113960Y0809760D01*
X1076960Y0835010D02*
X1076960Y0847990D01*
X1084040Y0847990D01*
X1084040Y0835010D01*
X1076960Y0835010D01*
X1076960Y0837360D02*
X1084040Y0837360D01*
X1084040Y0839710D02*
X1076960Y0839710D01*
X1076960Y0842060D02*
X1084040Y0842060D01*
X1084040Y0844410D02*
X1076960Y0844410D01*
X1076960Y0846760D02*
X1084040Y0846760D01*
X1271040Y0810990D02*
X1271040Y0798010D01*
X1263960Y0798010D01*
X1263960Y0810990D01*
X1271040Y0810990D01*
X1271040Y0800360D02*
X1263960Y0800360D01*
X1263960Y0802710D02*
X1271040Y0802710D01*
X1271040Y0805060D02*
X1263960Y0805060D01*
X1263960Y0807410D02*
X1271040Y0807410D01*
X1271040Y0809760D02*
X1263960Y0809760D01*
X1321040Y0810990D02*
X1321040Y0798010D01*
X1313960Y0798010D01*
X1313960Y0810990D01*
X1321040Y0810990D01*
X1321040Y0800360D02*
X1313960Y0800360D01*
X1313960Y0802710D02*
X1321040Y0802710D01*
X1321040Y0805060D02*
X1313960Y0805060D01*
X1313960Y0807410D02*
X1321040Y0807410D01*
X1321040Y0809760D02*
X1313960Y0809760D01*
X1301040Y1108010D02*
X1301040Y1120990D01*
X1301040Y1108010D02*
X1293960Y1108010D01*
X1293960Y1120990D01*
X1301040Y1120990D01*
X1301040Y1110360D02*
X1293960Y1110360D01*
X1293960Y1112710D02*
X1301040Y1112710D01*
X1301040Y1115060D02*
X1293960Y1115060D01*
X1293960Y1117410D02*
X1301040Y1117410D01*
X1301040Y1119760D02*
X1293960Y1119760D01*
X1251040Y1120990D02*
X1251040Y1108010D01*
X1243960Y1108010D01*
X1243960Y1120990D01*
X1251040Y1120990D01*
X1251040Y1110360D02*
X1243960Y1110360D01*
X1243960Y1112710D02*
X1251040Y1112710D01*
X1251040Y1115060D02*
X1243960Y1115060D01*
X1243960Y1117410D02*
X1251040Y1117410D01*
X1251040Y1119760D02*
X1243960Y1119760D01*
X1201040Y1120990D02*
X1201040Y1108010D01*
X1193960Y1108010D01*
X1193960Y1120990D01*
X1201040Y1120990D01*
X1201040Y1110360D02*
X1193960Y1110360D01*
X1193960Y1112710D02*
X1201040Y1112710D01*
X1201040Y1115060D02*
X1193960Y1115060D01*
X1193960Y1117410D02*
X1201040Y1117410D01*
X1201040Y1119760D02*
X1193960Y1119760D01*
X1151040Y1120990D02*
X1151040Y1108010D01*
X1143960Y1108010D01*
X1143960Y1120990D01*
X1151040Y1120990D01*
X1151040Y1110360D02*
X1143960Y1110360D01*
X1143960Y1112710D02*
X1151040Y1112710D01*
X1151040Y1115060D02*
X1143960Y1115060D01*
X1143960Y1117410D02*
X1151040Y1117410D01*
X1151040Y1119760D02*
X1143960Y1119760D01*
X1101040Y1120990D02*
X1101040Y1108010D01*
X1093960Y1108010D01*
X1093960Y1120990D01*
X1101040Y1120990D01*
X1101040Y1110360D02*
X1093960Y1110360D01*
X1093960Y1112710D02*
X1101040Y1112710D01*
X1101040Y1115060D02*
X1093960Y1115060D01*
X1093960Y1117410D02*
X1101040Y1117410D01*
X1101040Y1119760D02*
X1093960Y1119760D01*
D929*
X1295130Y0658180D03*
X1295130Y0653180D03*
X1295130Y0648180D03*
X1295130Y0643180D03*
X1315730Y0643180D03*
X1315730Y0648180D03*
X1315730Y0653180D03*
X1315730Y0658180D03*
D859*
X1316200Y0741380D03*
X1321200Y0741380D03*
X1326200Y0741380D03*
X1331200Y0741380D03*
X1336200Y0741380D03*
X1341200Y0741380D03*
X1346200Y0741380D03*
X1351200Y0741380D03*
X1351200Y0763430D03*
X1346200Y0763430D03*
X1341200Y0763430D03*
X1336200Y0763430D03*
X1331200Y0763430D03*
X1326200Y0763430D03*
X1321200Y0763430D03*
X1316200Y0763430D03*
X1302000Y0763530D03*
X1297000Y0763530D03*
X1292000Y0763530D03*
X1287000Y0763530D03*
X1282000Y0763530D03*
X1277000Y0763530D03*
X1272000Y0763530D03*
X1267000Y0763530D03*
X1267000Y0741480D03*
X1272000Y0741480D03*
X1277000Y0741480D03*
X1282000Y0741480D03*
X1287000Y0741480D03*
X1292000Y0741480D03*
X1297000Y0741480D03*
X1302000Y0741480D03*
D403*
X1148970Y0735650D03*
X1148970Y0728170D03*
X1138740Y0728170D03*
X1138740Y0731910D03*
X1138740Y0735650D03*
D622*
X1118300Y0731020D03*
X1111600Y0731020D03*
D148*
X1141000Y0628350D03*
X1141000Y0608660D03*
D196*
X1219400Y0608370D03*
X1219400Y0603370D03*
X1219400Y0615140D03*
X1219400Y0620140D03*
X1244600Y0620140D03*
X1244600Y0615140D03*
X1244600Y0608370D03*
X1244600Y0603370D03*
D459*
X1270260Y0602500D03*
X1277740Y0602500D03*
X1390000Y0594500D02*
G75*
%LPD*%
D409*
X1520000Y0687070D03*
X1520000Y0694940D03*
X1553000Y0636940D03*
X1553000Y0629070D03*
X1609350Y0620850D03*
X1609350Y0612980D03*
X1617600Y0612870D03*
X1617600Y0620740D03*
X1601800Y0717970D03*
X1601800Y0725840D03*
X1591600Y0725840D03*
X1591600Y0717970D03*
D933*
X1417390Y0647690D03*
X1425650Y0647690D03*
X1466870Y0717500D03*
X1475130Y0717500D03*
X1520000Y0678640D03*
X1520000Y0670370D03*
X1609440Y0637040D03*
X1617730Y0637040D03*
X1617730Y0628780D03*
X1609440Y0628780D03*
X1627870Y0883500D03*
X1636130Y0883500D03*
X1585130Y0883500D03*
X1576870Y0883500D03*
X1536130Y0883500D03*
X1527870Y0883500D03*
X1487130Y0883500D03*
X1478870Y0883500D03*
X1433130Y0883500D03*
X1424870Y0883500D03*
X1512870Y1091000D03*
X1521130Y1091000D03*
X1562370Y1090000D03*
X1570630Y1090000D03*
X1609870Y1088000D03*
X1618130Y1088000D03*
X1662870Y1087500D03*
X1671130Y1087500D03*
X1471130Y1095500D03*
X1462870Y1095500D03*
D231*
X1535060Y0759710D03*
X1538200Y0759710D03*
X1541350Y0759710D03*
X1544500Y0759710D03*
X1547650Y0759710D03*
X1550800Y0759710D03*
X1553950Y0759710D03*
X1557100Y0759710D03*
X1560250Y0759710D03*
X1563400Y0759710D03*
X1566550Y0759710D03*
X1566550Y0714040D03*
X1563400Y0714040D03*
X1560250Y0714040D03*
X1557100Y0714040D03*
X1553950Y0714040D03*
X1550800Y0714040D03*
X1547650Y0714040D03*
X1544500Y0714040D03*
X1541350Y0714040D03*
X1538200Y0714040D03*
X1535060Y0714040D03*
D312*
X1527970Y0721130D03*
X1527970Y0724280D03*
X1527970Y0727420D03*
X1527970Y0730570D03*
X1527970Y0733720D03*
X1527970Y0736870D03*
X1527970Y0740020D03*
X1527970Y0743170D03*
X1527970Y0746320D03*
X1527970Y0749470D03*
X1527970Y0752620D03*
X1573640Y0752620D03*
X1573640Y0749470D03*
X1573640Y0746320D03*
X1573640Y0743170D03*
X1573640Y0740020D03*
X1573640Y0736870D03*
X1573640Y0733720D03*
X1573640Y0730570D03*
X1573640Y0727420D03*
X1573640Y0724280D03*
X1573640Y0721130D03*
D183*
X1493440Y0717500D03*
X1485560Y0717500D03*
X1443460Y0647690D03*
X1435580Y0647690D03*
X1448060Y0826000D03*
X1455940Y0826000D03*
X1496870Y0828070D03*
X1504750Y0828070D03*
X1547370Y0826570D03*
X1555250Y0826570D03*
X1597370Y0828070D03*
X1605250Y0828070D03*
X1646870Y0827070D03*
X1654750Y0827070D03*
X1650940Y0883500D03*
X1643060Y0883500D03*
X1600940Y0883500D03*
X1593060Y0883500D03*
X1550940Y0883500D03*
X1543060Y0883500D03*
X1506940Y0883500D03*
X1499060Y0883500D03*
X1450940Y0883500D03*
X1443060Y0883500D03*
X1441060Y1035500D03*
X1448940Y1035500D03*
X1491560Y1036500D03*
X1499440Y1036500D03*
X1541560Y1035500D03*
X1549440Y1035500D03*
X1591560Y1035500D03*
X1599440Y1035500D03*
X1643060Y1035500D03*
X1650940Y1035500D03*
X1646750Y1092020D03*
X1638870Y1092020D03*
X1597940Y1094000D03*
X1590060Y1094000D03*
X1552940Y1093000D03*
X1545060Y1093000D03*
X1496940Y1093000D03*
X1489060Y1093000D03*
X1445940Y1093500D03*
X1438060Y1093500D03*
D712*
X1452480Y0658960D03*
X1467440Y0658960D03*
D395*
X1474500Y0803500D03*
X1474500Y0808500D03*
X1474500Y0813500D03*
X1474500Y0818500D03*
X1495000Y0818500D03*
X1495000Y0813500D03*
X1495000Y0808500D03*
X1495000Y0803500D03*
X1525500Y0803500D03*
X1525500Y0808500D03*
X1525500Y0813500D03*
X1525500Y0818500D03*
X1546000Y0818500D03*
X1546000Y0813500D03*
X1546000Y0808500D03*
X1546000Y0803500D03*
X1574500Y0803500D03*
X1574500Y0808500D03*
X1574500Y0813500D03*
X1574500Y0818500D03*
X1595000Y0818500D03*
X1595000Y0813500D03*
X1595000Y0808500D03*
X1595000Y0803500D03*
X1627000Y0803500D03*
X1627000Y0808500D03*
X1627000Y0813500D03*
X1627000Y0818500D03*
X1647500Y0818500D03*
X1647500Y0813500D03*
X1647500Y0808500D03*
X1647500Y0803500D03*
X1446500Y0803500D03*
X1446500Y0808500D03*
X1446500Y0813500D03*
X1446500Y0818500D03*
X1426000Y0818500D03*
X1426000Y0813500D03*
X1426000Y0808500D03*
X1426000Y0803500D03*
X1452500Y1106500D03*
X1452500Y1111500D03*
X1452500Y1116500D03*
X1452500Y1121500D03*
X1473000Y1121500D03*
X1473000Y1116500D03*
X1473000Y1111500D03*
X1473000Y1106500D03*
X1502500Y1106500D03*
X1502500Y1111500D03*
X1502500Y1116500D03*
X1502500Y1121500D03*
X1523000Y1121500D03*
X1523000Y1116500D03*
X1523000Y1111500D03*
X1523000Y1106500D03*
X1552500Y1106500D03*
X1552500Y1111500D03*
X1552500Y1116500D03*
X1552500Y1121500D03*
X1573000Y1121500D03*
X1573000Y1116500D03*
X1573000Y1111500D03*
X1573000Y1106500D03*
X1603500Y1106500D03*
X1603500Y1111500D03*
X1603500Y1116500D03*
X1603500Y1121500D03*
X1624000Y1121500D03*
X1624000Y1116500D03*
X1624000Y1111500D03*
X1624000Y1106500D03*
X1654500Y1106500D03*
X1654500Y1111500D03*
X1654500Y1116500D03*
X1654500Y1121500D03*
X1675000Y1121500D03*
X1675000Y1116500D03*
X1675000Y1111500D03*
X1675000Y1106500D03*
D279*
X1524730Y0662070D03*
X1518040Y0662070D03*
X1471640Y0648280D03*
X1464950Y0648280D03*
D62*
X1459380Y0836860D03*
X1441430Y0836860D03*
X1491020Y0838600D03*
X1508980Y0838600D03*
X1543020Y0837600D03*
X1560980Y0837600D03*
X1591020Y0838600D03*
X1608980Y0838600D03*
X1641020Y0838600D03*
X1658980Y0838600D03*
X1648980Y1080410D03*
X1631020Y1080410D03*
X1598980Y1080410D03*
X1581020Y1080410D03*
X1548980Y1080410D03*
X1531020Y1080410D03*
X1498980Y1080410D03*
X1481020Y1080410D03*
X1448980Y1080410D03*
X1431020Y1080410D03*
D543*
X1440000Y1053250D03*
X1490000Y1053250D03*
X1540000Y1053250D03*
X1590000Y1053250D03*
X1640000Y1053250D03*
X1650000Y0865760D03*
X1600000Y0865760D03*
X1552000Y0864760D03*
X1500000Y0865760D03*
X1450410Y0864020D03*
D323*
X1518490Y0652440D03*
X1518490Y0645740D03*
D654*
X1506220Y0624090D03*
X1531330Y0624090D03*
D103*
X1437240Y0683980D03*
X1432240Y0683980D03*
X1427240Y0683980D03*
X1422240Y0683980D03*
X1422240Y0704580D03*
X1427240Y0704580D03*
X1432240Y0704580D03*
X1437240Y0704580D03*
D939*
X1440980Y0668460D03*
X1423660Y0668460D03*
X1505760Y0658840D03*
X1505760Y0641520D03*
D580*
X1492060Y0688130D03*
X1453080Y0688130D03*
D413*
X1449540Y0716000D03*
X1442460Y0716000D03*
X1612350Y0652180D03*
X1619440Y0652180D03*
D131*
X1519210Y0711670D03*
X1519210Y0718760D03*
X1435500Y0721050D03*
X1435500Y0713960D03*
D606*
X1507560Y0689280D03*
X1507560Y0671170D03*
D384*
X1481740Y0658040D03*
X1481740Y0647020D03*
D154*
X1491870Y0642110D03*
X1491870Y0658250D03*
D531*
X1489950Y0902200D03*
X1510050Y0902200D03*
X1540950Y0902200D03*
X1561050Y0902200D03*
X1589950Y0902200D03*
X1610050Y0902200D03*
X1639950Y0902200D03*
X1660050Y0902200D03*
X1660050Y1016800D03*
X1639950Y1016800D03*
X1610050Y1016800D03*
X1589950Y1016800D03*
X1560050Y1016800D03*
X1539950Y1016800D03*
X1510050Y1016800D03*
X1489950Y1016800D03*
X1460050Y1016800D03*
X1439950Y1016800D03*
X1439950Y0902200D03*
X1460050Y0902200D03*
D197*
X1458700Y0925650D03*
X1442000Y0926650D03*
X1440600Y0944450D03*
X1458600Y0944250D03*
X1459400Y0974550D03*
X1458000Y0992350D03*
X1441300Y0993350D03*
X1441400Y0974750D03*
X1491400Y0974750D03*
X1509400Y0974550D03*
X1508000Y0992350D03*
X1491300Y0993350D03*
X1490600Y0944450D03*
X1492000Y0926650D03*
X1508700Y0925650D03*
X1508600Y0944250D03*
X1541600Y0944450D03*
X1543000Y0926650D03*
X1559700Y0925650D03*
X1559600Y0944250D03*
X1559400Y0974550D03*
X1558000Y0992350D03*
X1541400Y0974750D03*
X1541300Y0993350D03*
X1591300Y0993350D03*
X1591400Y0974750D03*
X1609400Y0974550D03*
X1608000Y0992350D03*
X1641300Y0993350D03*
X1658000Y0992350D03*
X1659400Y0974550D03*
X1641400Y0974750D03*
X1640600Y0944450D03*
X1642000Y0926650D03*
X1658700Y0925650D03*
X1658600Y0944250D03*
X1608600Y0944250D03*
X1608700Y0925650D03*
X1592000Y0926650D03*
X1590600Y0944450D03*
D551*
X1507500Y0710300D03*
X1507500Y0697700D03*
D803*
X1526960Y0655490D02*
X1526960Y0642510D01*
X1526960Y0655490D02*
X1534040Y0655490D01*
X1534040Y0642510D01*
X1526960Y0642510D01*
X1526960Y0644860D02*
X1534040Y0644860D01*
X1534040Y0647210D02*
X1526960Y0647210D01*
X1526960Y0649560D02*
X1534040Y0649560D01*
X1534040Y0651910D02*
X1526960Y0651910D01*
X1526960Y0654260D02*
X1534040Y0654260D01*
X1537990Y0609040D02*
X1525010Y0609040D01*
X1537990Y0609040D02*
X1537990Y0601960D01*
X1525010Y0601960D01*
X1525010Y0609040D01*
X1525010Y0604310D02*
X1537990Y0604310D01*
X1537990Y0606660D02*
X1525010Y0606660D01*
X1525010Y0609010D02*
X1537990Y0609010D01*
X1563540Y0798010D02*
X1563540Y0810990D01*
X1563540Y0798010D02*
X1556460Y0798010D01*
X1556460Y0810990D01*
X1563540Y0810990D01*
X1563540Y0800360D02*
X1556460Y0800360D01*
X1556460Y0802710D02*
X1563540Y0802710D01*
X1563540Y0805060D02*
X1556460Y0805060D01*
X1556460Y0807410D02*
X1563540Y0807410D01*
X1563540Y0809760D02*
X1556460Y0809760D01*
X1513540Y0810990D02*
X1513540Y0798010D01*
X1506460Y0798010D01*
X1506460Y0810990D01*
X1513540Y0810990D01*
X1513540Y0800360D02*
X1506460Y0800360D01*
X1506460Y0802710D02*
X1513540Y0802710D01*
X1513540Y0805060D02*
X1506460Y0805060D01*
X1506460Y0807410D02*
X1513540Y0807410D01*
X1513540Y0809760D02*
X1506460Y0809760D01*
X1463540Y0810990D02*
X1463540Y0798010D01*
X1456460Y0798010D01*
X1456460Y0810990D01*
X1463540Y0810990D01*
X1463540Y0800360D02*
X1456460Y0800360D01*
X1456460Y0802710D02*
X1463540Y0802710D01*
X1463540Y0805060D02*
X1456460Y0805060D01*
X1456460Y0807410D02*
X1463540Y0807410D01*
X1463540Y0809760D02*
X1456460Y0809760D01*
X1419460Y0835010D02*
X1419460Y0847990D01*
X1426540Y0847990D01*
X1426540Y0835010D01*
X1419460Y0835010D01*
X1419460Y0837360D02*
X1426540Y0837360D01*
X1426540Y0839710D02*
X1419460Y0839710D01*
X1419460Y0842060D02*
X1426540Y0842060D01*
X1426540Y0844410D02*
X1419460Y0844410D01*
X1419460Y0846760D02*
X1426540Y0846760D01*
X1613540Y0810990D02*
X1613540Y0798010D01*
X1606460Y0798010D01*
X1606460Y0810990D01*
X1613540Y0810990D01*
X1613540Y0800360D02*
X1606460Y0800360D01*
X1606460Y0802710D02*
X1613540Y0802710D01*
X1613540Y0805060D02*
X1606460Y0805060D01*
X1606460Y0807410D02*
X1613540Y0807410D01*
X1613540Y0809760D02*
X1606460Y0809760D01*
X1663540Y0810990D02*
X1663540Y0798010D01*
X1656460Y0798010D01*
X1656460Y0810990D01*
X1663540Y0810990D01*
X1663540Y0800360D02*
X1656460Y0800360D01*
X1656460Y0802710D02*
X1663540Y0802710D01*
X1663540Y0805060D02*
X1656460Y0805060D01*
X1656460Y0807410D02*
X1663540Y0807410D01*
X1663540Y0809760D02*
X1656460Y0809760D01*
X1643540Y1108010D02*
X1643540Y1120990D01*
X1643540Y1108010D02*
X1636460Y1108010D01*
X1636460Y1120990D01*
X1643540Y1120990D01*
X1643540Y1110360D02*
X1636460Y1110360D01*
X1636460Y1112710D02*
X1643540Y1112710D01*
X1643540Y1115060D02*
X1636460Y1115060D01*
X1636460Y1117410D02*
X1643540Y1117410D01*
X1643540Y1119760D02*
X1636460Y1119760D01*
X1593540Y1120990D02*
X1593540Y1108010D01*
X1586460Y1108010D01*
X1586460Y1120990D01*
X1593540Y1120990D01*
X1593540Y1110360D02*
X1586460Y1110360D01*
X1586460Y1112710D02*
X1593540Y1112710D01*
X1593540Y1115060D02*
X1586460Y1115060D01*
X1586460Y1117410D02*
X1593540Y1117410D01*
X1593540Y1119760D02*
X1586460Y1119760D01*
X1543540Y1120990D02*
X1543540Y1108010D01*
X1536460Y1108010D01*
X1536460Y1120990D01*
X1543540Y1120990D01*
X1543540Y1110360D02*
X1536460Y1110360D01*
X1536460Y1112710D02*
X1543540Y1112710D01*
X1543540Y1115060D02*
X1536460Y1115060D01*
X1536460Y1117410D02*
X1543540Y1117410D01*
X1543540Y1119760D02*
X1536460Y1119760D01*
X1493540Y1120990D02*
X1493540Y1108010D01*
X1486460Y1108010D01*
X1486460Y1120990D01*
X1493540Y1120990D01*
X1493540Y1110360D02*
X1486460Y1110360D01*
X1486460Y1112710D02*
X1493540Y1112710D01*
X1493540Y1115060D02*
X1486460Y1115060D01*
X1486460Y1117410D02*
X1493540Y1117410D01*
X1493540Y1119760D02*
X1486460Y1119760D01*
X1443540Y1120990D02*
X1443540Y1108010D01*
X1436460Y1108010D01*
X1436460Y1120990D01*
X1443540Y1120990D01*
X1443540Y1110360D02*
X1436460Y1110360D01*
X1436460Y1112710D02*
X1443540Y1112710D01*
X1443540Y1115060D02*
X1436460Y1115060D01*
X1436460Y1117410D02*
X1443540Y1117410D01*
X1443540Y1119760D02*
X1436460Y1119760D01*
D929*
X1637630Y0658180D03*
X1637630Y0653180D03*
X1637630Y0648180D03*
X1637630Y0643180D03*
X1658230Y0643180D03*
X1658230Y0648180D03*
X1658230Y0653180D03*
X1658230Y0658180D03*
D859*
X1658700Y0741380D03*
X1663700Y0741380D03*
X1668700Y0741380D03*
X1673700Y0741380D03*
X1678700Y0741380D03*
X1683700Y0741380D03*
X1688700Y0741380D03*
X1693700Y0741380D03*
X1693700Y0763430D03*
X1688700Y0763430D03*
X1683700Y0763430D03*
X1678700Y0763430D03*
X1673700Y0763430D03*
X1668700Y0763430D03*
X1663700Y0763430D03*
X1658700Y0763430D03*
X1644500Y0763530D03*
X1639500Y0763530D03*
X1634500Y0763530D03*
X1629500Y0763530D03*
X1624500Y0763530D03*
X1619500Y0763530D03*
X1614500Y0763530D03*
X1609500Y0763530D03*
X1609500Y0741480D03*
X1614500Y0741480D03*
X1619500Y0741480D03*
X1624500Y0741480D03*
X1629500Y0741480D03*
X1634500Y0741480D03*
X1639500Y0741480D03*
X1644500Y0741480D03*
D403*
X1491470Y0735650D03*
X1491470Y0728170D03*
X1481240Y0728170D03*
X1481240Y0731910D03*
X1481240Y0735650D03*
D622*
X1460800Y0731020D03*
X1454100Y0731020D03*
D148*
X1483500Y0628350D03*
X1483500Y0608660D03*
D196*
X1561900Y0608370D03*
X1561900Y0603370D03*
X1561900Y0615140D03*
X1561900Y0620140D03*
X1587100Y0620140D03*
X1587100Y0615140D03*
X1587100Y0608370D03*
X1587100Y0603370D03*
D459*
X1612760Y0602500D03*
X1620240Y0602500D03*
M02*
