G75*
G70*
%OFA0B0*%
%FSLAX25Y25*%
%IPPOS*%
%LPD*%
%AMOC8*
5,1,8,0,0,1.08239X$1,22.5*
%
%ADD318C,0.01600*%
%ADD689C,0.00000*%
%ADD889C,0.04000*%
%ADD906C,0.00500*%
X0020000Y0020000D02*
G75*
%LPD*%
D318*
X0020000Y0020000D02*
X0020000Y0120500D01*
X0030500Y0120500D01*
X0030500Y0130500D01*
X0020000Y0130500D01*
X0020000Y0582000D01*
X0350000Y0582000D01*
X0350000Y0130000D01*
X0339500Y0130000D01*
X0339500Y0120500D01*
X0350000Y0120500D01*
X0350000Y0020000D01*
X0020000Y0020000D01*
D889*
X0204390Y0025440D02*
X0204390Y0099790D01*
X0209570Y0106000D02*
X0323000Y0106000D01*
D689*
X0319000Y0046550D02*
X0319020Y0046860D01*
X0319080Y0047170D01*
X0319170Y0047470D01*
X0319300Y0047760D01*
X0319470Y0048030D01*
X0319670Y0048270D01*
X0319890Y0048490D01*
X0320150Y0048680D01*
X0320420Y0048840D01*
X0320710Y0048960D01*
X0321010Y0049050D01*
X0321320Y0049100D01*
X0321640Y0049110D01*
X0321950Y0049080D01*
X0322260Y0049010D01*
X0322560Y0048910D01*
X0322840Y0048770D01*
X0323100Y0048590D01*
X0323340Y0048390D01*
X0323550Y0048150D01*
X0323740Y0047900D01*
X0323890Y0047620D01*
X0324000Y0047330D01*
X0324080Y0047020D01*
X0324120Y0046710D01*
X0324120Y0046390D01*
X0324080Y0046080D01*
X0324000Y0045770D01*
X0323890Y0045480D01*
X0323740Y0045200D01*
X0323550Y0044950D01*
X0323340Y0044710D01*
X0323100Y0044510D01*
X0322840Y0044330D01*
X0322560Y0044190D01*
X0322260Y0044090D01*
X0321950Y0044020D01*
X0321640Y0043990D01*
X0321320Y0044000D01*
X0321010Y0044050D01*
X0320710Y0044140D01*
X0320420Y0044260D01*
X0320150Y0044420D01*
X0319890Y0044610D01*
X0319670Y0044830D01*
X0319470Y0045070D01*
X0319300Y0045340D01*
X0319170Y0045630D01*
X0319080Y0045930D01*
X0319020Y0046240D01*
X0319000Y0046550D01*
X0263880Y0046550D02*
X0263900Y0046860D01*
X0263960Y0047170D01*
X0264050Y0047470D01*
X0264180Y0047760D01*
X0264350Y0048030D01*
X0264550Y0048270D01*
X0264770Y0048490D01*
X0265030Y0048680D01*
X0265300Y0048840D01*
X0265590Y0048960D01*
X0265890Y0049050D01*
X0266200Y0049100D01*
X0266520Y0049110D01*
X0266830Y0049080D01*
X0267140Y0049010D01*
X0267440Y0048910D01*
X0267720Y0048770D01*
X0267980Y0048590D01*
X0268220Y0048390D01*
X0268430Y0048150D01*
X0268620Y0047900D01*
X0268770Y0047620D01*
X0268880Y0047330D01*
X0268960Y0047020D01*
X0269000Y0046710D01*
X0269000Y0046390D01*
X0268960Y0046080D01*
X0268880Y0045770D01*
X0268770Y0045480D01*
X0268620Y0045200D01*
X0268430Y0044950D01*
X0268220Y0044710D01*
X0267980Y0044510D01*
X0267720Y0044330D01*
X0267440Y0044190D01*
X0267140Y0044090D01*
X0266830Y0044020D01*
X0266520Y0043990D01*
X0266200Y0044000D01*
X0265890Y0044050D01*
X0265590Y0044140D01*
X0265300Y0044260D01*
X0265030Y0044420D01*
X0264770Y0044610D01*
X0264550Y0044830D01*
X0264350Y0045070D01*
X0264180Y0045340D01*
X0264050Y0045630D01*
X0263960Y0045930D01*
X0263900Y0046240D01*
X0263880Y0046550D01*
X0251200Y0568000D02*
X0251220Y0568500D01*
X0251280Y0569000D01*
X0251380Y0569490D01*
X0251520Y0569970D01*
X0251690Y0570440D01*
X0251900Y0570890D01*
X0252150Y0571330D01*
X0252430Y0571740D01*
X0252750Y0572130D01*
X0253090Y0572500D01*
X0253460Y0572840D01*
X0253860Y0573140D01*
X0254280Y0573410D01*
X0254720Y0573650D01*
X0255180Y0573860D01*
X0255650Y0574020D01*
X0256130Y0574150D01*
X0256630Y0574240D01*
X0257120Y0574290D01*
X0257630Y0574300D01*
X0258130Y0574270D01*
X0258620Y0574200D01*
X0259110Y0574090D01*
X0259590Y0573940D01*
X0260050Y0573760D01*
X0260500Y0573540D01*
X0260930Y0573280D01*
X0261340Y0572990D01*
X0261730Y0572670D01*
X0262090Y0572320D01*
X0262410Y0571940D01*
X0262710Y0571540D01*
X0262980Y0571110D01*
X0263210Y0570670D01*
X0263400Y0570210D01*
X0263560Y0569730D01*
X0263680Y0569240D01*
X0263760Y0568750D01*
X0263800Y0568250D01*
X0263800Y0567750D01*
X0263760Y0567250D01*
X0263680Y0566760D01*
X0263560Y0566270D01*
X0263400Y0565790D01*
X0263210Y0565330D01*
X0262980Y0564890D01*
X0262710Y0564460D01*
X0262410Y0564060D01*
X0262090Y0563680D01*
X0261730Y0563330D01*
X0261340Y0563010D01*
X0260930Y0562720D01*
X0260500Y0562460D01*
X0260050Y0562240D01*
X0259590Y0562060D01*
X0259110Y0561910D01*
X0258620Y0561800D01*
X0258130Y0561730D01*
X0257630Y0561700D01*
X0257120Y0561710D01*
X0256630Y0561760D01*
X0256130Y0561850D01*
X0255650Y0561980D01*
X0255180Y0562140D01*
X0254720Y0562350D01*
X0254280Y0562590D01*
X0253860Y0562860D01*
X0253460Y0563160D01*
X0253090Y0563500D01*
X0252750Y0563870D01*
X0252430Y0564260D01*
X0252150Y0564670D01*
X0251900Y0565110D01*
X0251690Y0565560D01*
X0251520Y0566030D01*
X0251380Y0566510D01*
X0251280Y0567000D01*
X0251220Y0567500D01*
X0251200Y0568000D01*
X0224700Y0568000D02*
X0224720Y0568500D01*
X0224780Y0569000D01*
X0224880Y0569490D01*
X0225020Y0569970D01*
X0225190Y0570440D01*
X0225400Y0570890D01*
X0225650Y0571330D01*
X0225930Y0571740D01*
X0226250Y0572130D01*
X0226590Y0572500D01*
X0226960Y0572840D01*
X0227360Y0573140D01*
X0227780Y0573410D01*
X0228220Y0573650D01*
X0228680Y0573860D01*
X0229150Y0574020D01*
X0229630Y0574150D01*
X0230130Y0574240D01*
X0230620Y0574290D01*
X0231130Y0574300D01*
X0231630Y0574270D01*
X0232120Y0574200D01*
X0232610Y0574090D01*
X0233090Y0573940D01*
X0233550Y0573760D01*
X0234000Y0573540D01*
X0234430Y0573280D01*
X0234840Y0572990D01*
X0235230Y0572670D01*
X0235590Y0572320D01*
X0235910Y0571940D01*
X0236210Y0571540D01*
X0236480Y0571110D01*
X0236710Y0570670D01*
X0236900Y0570210D01*
X0237060Y0569730D01*
X0237180Y0569240D01*
X0237260Y0568750D01*
X0237300Y0568250D01*
X0237300Y0567750D01*
X0237260Y0567250D01*
X0237180Y0566760D01*
X0237060Y0566270D01*
X0236900Y0565790D01*
X0236710Y0565330D01*
X0236480Y0564890D01*
X0236210Y0564460D01*
X0235910Y0564060D01*
X0235590Y0563680D01*
X0235230Y0563330D01*
X0234840Y0563010D01*
X0234430Y0562720D01*
X0234000Y0562460D01*
X0233550Y0562240D01*
X0233090Y0562060D01*
X0232610Y0561910D01*
X0232120Y0561800D01*
X0231630Y0561730D01*
X0231130Y0561700D01*
X0230620Y0561710D01*
X0230130Y0561760D01*
X0229630Y0561850D01*
X0229150Y0561980D01*
X0228680Y0562140D01*
X0228220Y0562350D01*
X0227780Y0562590D01*
X0227360Y0562860D01*
X0226960Y0563160D01*
X0226590Y0563500D01*
X0226250Y0563870D01*
X0225930Y0564260D01*
X0225650Y0564670D01*
X0225400Y0565110D01*
X0225190Y0565560D01*
X0225020Y0566030D01*
X0224880Y0566510D01*
X0224780Y0567000D01*
X0224720Y0567500D01*
X0224700Y0568000D01*
X0202700Y0568000D02*
X0202720Y0568500D01*
X0202780Y0569000D01*
X0202880Y0569490D01*
X0203020Y0569970D01*
X0203190Y0570440D01*
X0203400Y0570890D01*
X0203650Y0571330D01*
X0203930Y0571740D01*
X0204250Y0572130D01*
X0204590Y0572500D01*
X0204960Y0572840D01*
X0205360Y0573140D01*
X0205780Y0573410D01*
X0206220Y0573650D01*
X0206680Y0573860D01*
X0207150Y0574020D01*
X0207630Y0574150D01*
X0208130Y0574240D01*
X0208620Y0574290D01*
X0209130Y0574300D01*
X0209630Y0574270D01*
X0210120Y0574200D01*
X0210610Y0574090D01*
X0211090Y0573940D01*
X0211550Y0573760D01*
X0212000Y0573540D01*
X0212430Y0573280D01*
X0212840Y0572990D01*
X0213230Y0572670D01*
X0213590Y0572320D01*
X0213910Y0571940D01*
X0214210Y0571540D01*
X0214480Y0571110D01*
X0214710Y0570670D01*
X0214900Y0570210D01*
X0215060Y0569730D01*
X0215180Y0569240D01*
X0215260Y0568750D01*
X0215300Y0568250D01*
X0215300Y0567750D01*
X0215260Y0567250D01*
X0215180Y0566760D01*
X0215060Y0566270D01*
X0214900Y0565790D01*
X0214710Y0565330D01*
X0214480Y0564890D01*
X0214210Y0564460D01*
X0213910Y0564060D01*
X0213590Y0563680D01*
X0213230Y0563330D01*
X0212840Y0563010D01*
X0212430Y0562720D01*
X0212000Y0562460D01*
X0211550Y0562240D01*
X0211090Y0562060D01*
X0210610Y0561910D01*
X0210120Y0561800D01*
X0209630Y0561730D01*
X0209130Y0561700D01*
X0208620Y0561710D01*
X0208130Y0561760D01*
X0207630Y0561850D01*
X0207150Y0561980D01*
X0206680Y0562140D01*
X0206220Y0562350D01*
X0205780Y0562590D01*
X0205360Y0562860D01*
X0204960Y0563160D01*
X0204590Y0563500D01*
X0204250Y0563870D01*
X0203930Y0564260D01*
X0203650Y0564670D01*
X0203400Y0565110D01*
X0203190Y0565560D01*
X0203020Y0566030D01*
X0202880Y0566510D01*
X0202780Y0567000D01*
X0202720Y0567500D01*
X0202700Y0568000D01*
X0175700Y0568000D02*
X0175720Y0568500D01*
X0175780Y0569000D01*
X0175880Y0569490D01*
X0176020Y0569970D01*
X0176190Y0570440D01*
X0176400Y0570890D01*
X0176650Y0571330D01*
X0176930Y0571740D01*
X0177250Y0572130D01*
X0177590Y0572500D01*
X0177960Y0572840D01*
X0178360Y0573140D01*
X0178780Y0573410D01*
X0179220Y0573650D01*
X0179680Y0573860D01*
X0180150Y0574020D01*
X0180630Y0574150D01*
X0181130Y0574240D01*
X0181620Y0574290D01*
X0182130Y0574300D01*
X0182630Y0574270D01*
X0183120Y0574200D01*
X0183610Y0574090D01*
X0184090Y0573940D01*
X0184550Y0573760D01*
X0185000Y0573540D01*
X0185430Y0573280D01*
X0185840Y0572990D01*
X0186230Y0572670D01*
X0186590Y0572320D01*
X0186910Y0571940D01*
X0187210Y0571540D01*
X0187480Y0571110D01*
X0187710Y0570670D01*
X0187900Y0570210D01*
X0188060Y0569730D01*
X0188180Y0569240D01*
X0188260Y0568750D01*
X0188300Y0568250D01*
X0188300Y0567750D01*
X0188260Y0567250D01*
X0188180Y0566760D01*
X0188060Y0566270D01*
X0187900Y0565790D01*
X0187710Y0565330D01*
X0187480Y0564890D01*
X0187210Y0564460D01*
X0186910Y0564060D01*
X0186590Y0563680D01*
X0186230Y0563330D01*
X0185840Y0563010D01*
X0185430Y0562720D01*
X0185000Y0562460D01*
X0184550Y0562240D01*
X0184090Y0562060D01*
X0183610Y0561910D01*
X0183120Y0561800D01*
X0182630Y0561730D01*
X0182130Y0561700D01*
X0181620Y0561710D01*
X0181130Y0561760D01*
X0180630Y0561850D01*
X0180150Y0561980D01*
X0179680Y0562140D01*
X0179220Y0562350D01*
X0178780Y0562590D01*
X0178360Y0562860D01*
X0177960Y0563160D01*
X0177590Y0563500D01*
X0177250Y0563870D01*
X0176930Y0564260D01*
X0176650Y0564670D01*
X0176400Y0565110D01*
X0176190Y0565560D01*
X0176020Y0566030D01*
X0175880Y0566510D01*
X0175780Y0567000D01*
X0175720Y0567500D01*
X0175700Y0568000D01*
X0153700Y0568000D02*
X0153720Y0568500D01*
X0153780Y0569000D01*
X0153880Y0569490D01*
X0154020Y0569970D01*
X0154190Y0570440D01*
X0154400Y0570890D01*
X0154650Y0571330D01*
X0154930Y0571740D01*
X0155250Y0572130D01*
X0155590Y0572500D01*
X0155960Y0572840D01*
X0156360Y0573140D01*
X0156780Y0573410D01*
X0157220Y0573650D01*
X0157680Y0573860D01*
X0158150Y0574020D01*
X0158630Y0574150D01*
X0159130Y0574240D01*
X0159620Y0574290D01*
X0160130Y0574300D01*
X0160630Y0574270D01*
X0161120Y0574200D01*
X0161610Y0574090D01*
X0162090Y0573940D01*
X0162550Y0573760D01*
X0163000Y0573540D01*
X0163430Y0573280D01*
X0163840Y0572990D01*
X0164230Y0572670D01*
X0164590Y0572320D01*
X0164910Y0571940D01*
X0165210Y0571540D01*
X0165480Y0571110D01*
X0165710Y0570670D01*
X0165900Y0570210D01*
X0166060Y0569730D01*
X0166180Y0569240D01*
X0166260Y0568750D01*
X0166300Y0568250D01*
X0166300Y0567750D01*
X0166260Y0567250D01*
X0166180Y0566760D01*
X0166060Y0566270D01*
X0165900Y0565790D01*
X0165710Y0565330D01*
X0165480Y0564890D01*
X0165210Y0564460D01*
X0164910Y0564060D01*
X0164590Y0563680D01*
X0164230Y0563330D01*
X0163840Y0563010D01*
X0163430Y0562720D01*
X0163000Y0562460D01*
X0162550Y0562240D01*
X0162090Y0562060D01*
X0161610Y0561910D01*
X0161120Y0561800D01*
X0160630Y0561730D01*
X0160130Y0561700D01*
X0159620Y0561710D01*
X0159130Y0561760D01*
X0158630Y0561850D01*
X0158150Y0561980D01*
X0157680Y0562140D01*
X0157220Y0562350D01*
X0156780Y0562590D01*
X0156360Y0562860D01*
X0155960Y0563160D01*
X0155590Y0563500D01*
X0155250Y0563870D01*
X0154930Y0564260D01*
X0154650Y0564670D01*
X0154400Y0565110D01*
X0154190Y0565560D01*
X0154020Y0566030D01*
X0153880Y0566510D01*
X0153780Y0567000D01*
X0153720Y0567500D01*
X0153700Y0568000D01*
X0124700Y0568500D02*
X0124720Y0569000D01*
X0124780Y0569500D01*
X0124880Y0569990D01*
X0125020Y0570470D01*
X0125190Y0570940D01*
X0125400Y0571390D01*
X0125650Y0571830D01*
X0125930Y0572240D01*
X0126250Y0572630D01*
X0126590Y0573000D01*
X0126960Y0573340D01*
X0127360Y0573640D01*
X0127780Y0573910D01*
X0128220Y0574150D01*
X0128680Y0574360D01*
X0129150Y0574520D01*
X0129630Y0574650D01*
X0130130Y0574740D01*
X0130620Y0574790D01*
X0131130Y0574800D01*
X0131630Y0574770D01*
X0132120Y0574700D01*
X0132610Y0574590D01*
X0133090Y0574440D01*
X0133550Y0574260D01*
X0134000Y0574040D01*
X0134430Y0573780D01*
X0134840Y0573490D01*
X0135230Y0573170D01*
X0135590Y0572820D01*
X0135910Y0572440D01*
X0136210Y0572040D01*
X0136480Y0571610D01*
X0136710Y0571170D01*
X0136900Y0570710D01*
X0137060Y0570230D01*
X0137180Y0569740D01*
X0137260Y0569250D01*
X0137300Y0568750D01*
X0137300Y0568250D01*
X0137260Y0567750D01*
X0137180Y0567260D01*
X0137060Y0566770D01*
X0136900Y0566290D01*
X0136710Y0565830D01*
X0136480Y0565390D01*
X0136210Y0564960D01*
X0135910Y0564560D01*
X0135590Y0564180D01*
X0135230Y0563830D01*
X0134840Y0563510D01*
X0134430Y0563220D01*
X0134000Y0562960D01*
X0133550Y0562740D01*
X0133090Y0562560D01*
X0132610Y0562410D01*
X0132120Y0562300D01*
X0131630Y0562230D01*
X0131130Y0562200D01*
X0130620Y0562210D01*
X0130130Y0562260D01*
X0129630Y0562350D01*
X0129150Y0562480D01*
X0128680Y0562640D01*
X0128220Y0562850D01*
X0127780Y0563090D01*
X0127360Y0563360D01*
X0126960Y0563660D01*
X0126590Y0564000D01*
X0126250Y0564370D01*
X0125930Y0564760D01*
X0125650Y0565170D01*
X0125400Y0565610D01*
X0125190Y0566060D01*
X0125020Y0566530D01*
X0124880Y0567010D01*
X0124780Y0567500D01*
X0124720Y0568000D01*
X0124700Y0568500D01*
X0104200Y0568500D02*
X0104220Y0569000D01*
X0104280Y0569500D01*
X0104380Y0569990D01*
X0104520Y0570470D01*
X0104690Y0570940D01*
X0104900Y0571390D01*
X0105150Y0571830D01*
X0105430Y0572240D01*
X0105750Y0572630D01*
X0106090Y0573000D01*
X0106460Y0573340D01*
X0106860Y0573640D01*
X0107280Y0573910D01*
X0107720Y0574150D01*
X0108180Y0574360D01*
X0108650Y0574520D01*
X0109130Y0574650D01*
X0109630Y0574740D01*
X0110120Y0574790D01*
X0110630Y0574800D01*
X0111130Y0574770D01*
X0111620Y0574700D01*
X0112110Y0574590D01*
X0112590Y0574440D01*
X0113050Y0574260D01*
X0113500Y0574040D01*
X0113930Y0573780D01*
X0114340Y0573490D01*
X0114730Y0573170D01*
X0115090Y0572820D01*
X0115410Y0572440D01*
X0115710Y0572040D01*
X0115980Y0571610D01*
X0116210Y0571170D01*
X0116400Y0570710D01*
X0116560Y0570230D01*
X0116680Y0569740D01*
X0116760Y0569250D01*
X0116800Y0568750D01*
X0116800Y0568250D01*
X0116760Y0567750D01*
X0116680Y0567260D01*
X0116560Y0566770D01*
X0116400Y0566290D01*
X0116210Y0565830D01*
X0115980Y0565390D01*
X0115710Y0564960D01*
X0115410Y0564560D01*
X0115090Y0564180D01*
X0114730Y0563830D01*
X0114340Y0563510D01*
X0113930Y0563220D01*
X0113500Y0562960D01*
X0113050Y0562740D01*
X0112590Y0562560D01*
X0112110Y0562410D01*
X0111620Y0562300D01*
X0111130Y0562230D01*
X0110630Y0562200D01*
X0110120Y0562210D01*
X0109630Y0562260D01*
X0109130Y0562350D01*
X0108650Y0562480D01*
X0108180Y0562640D01*
X0107720Y0562850D01*
X0107280Y0563090D01*
X0106860Y0563360D01*
X0106460Y0563660D01*
X0106090Y0564000D01*
X0105750Y0564370D01*
X0105430Y0564760D01*
X0105150Y0565170D01*
X0104900Y0565610D01*
X0104690Y0566060D01*
X0104520Y0566530D01*
X0104380Y0567010D01*
X0104280Y0567500D01*
X0104220Y0568000D01*
X0104200Y0568500D01*
X0274700Y0568000D02*
X0274720Y0568500D01*
X0274780Y0569000D01*
X0274880Y0569490D01*
X0275020Y0569970D01*
X0275190Y0570440D01*
X0275400Y0570890D01*
X0275650Y0571330D01*
X0275930Y0571740D01*
X0276250Y0572130D01*
X0276590Y0572500D01*
X0276960Y0572840D01*
X0277360Y0573140D01*
X0277780Y0573410D01*
X0278220Y0573650D01*
X0278680Y0573860D01*
X0279150Y0574020D01*
X0279630Y0574150D01*
X0280130Y0574240D01*
X0280620Y0574290D01*
X0281130Y0574300D01*
X0281630Y0574270D01*
X0282120Y0574200D01*
X0282610Y0574090D01*
X0283090Y0573940D01*
X0283550Y0573760D01*
X0284000Y0573540D01*
X0284430Y0573280D01*
X0284840Y0572990D01*
X0285230Y0572670D01*
X0285590Y0572320D01*
X0285910Y0571940D01*
X0286210Y0571540D01*
X0286480Y0571110D01*
X0286710Y0570670D01*
X0286900Y0570210D01*
X0287060Y0569730D01*
X0287180Y0569240D01*
X0287260Y0568750D01*
X0287300Y0568250D01*
X0287300Y0567750D01*
X0287260Y0567250D01*
X0287180Y0566760D01*
X0287060Y0566270D01*
X0286900Y0565790D01*
X0286710Y0565330D01*
X0286480Y0564890D01*
X0286210Y0564460D01*
X0285910Y0564060D01*
X0285590Y0563680D01*
X0285230Y0563330D01*
X0284840Y0563010D01*
X0284430Y0562720D01*
X0284000Y0562460D01*
X0283550Y0562240D01*
X0283090Y0562060D01*
X0282610Y0561910D01*
X0282120Y0561800D01*
X0281630Y0561730D01*
X0281130Y0561700D01*
X0280620Y0561710D01*
X0280130Y0561760D01*
X0279630Y0561850D01*
X0279150Y0561980D01*
X0278680Y0562140D01*
X0278220Y0562350D01*
X0277780Y0562590D01*
X0277360Y0562860D01*
X0276960Y0563160D01*
X0276590Y0563500D01*
X0276250Y0563870D01*
X0275930Y0564260D01*
X0275650Y0564670D01*
X0275400Y0565110D01*
X0275190Y0565560D01*
X0275020Y0566030D01*
X0274880Y0566510D01*
X0274780Y0567000D01*
X0274720Y0567500D01*
X0274700Y0568000D01*
D906*
X0101690Y0067630D02*
X0040270Y0067630D01*
X0040270Y0020380D01*
X0101690Y0020380D01*
X0101690Y0067630D01*
X0362500Y0020000D02*
G75*
%LPD*%
D318*
X0362500Y0020000D02*
X0362500Y0120500D01*
X0373000Y0120500D01*
X0373000Y0130500D01*
X0362500Y0130500D01*
X0362500Y0582000D01*
X0692500Y0582000D01*
X0692500Y0130000D01*
X0682000Y0130000D01*
X0682000Y0120500D01*
X0692500Y0120500D01*
X0692500Y0020000D01*
X0362500Y0020000D01*
D889*
X0546890Y0025440D02*
X0546890Y0099790D01*
X0552070Y0106000D02*
X0665500Y0106000D01*
D689*
X0661500Y0046550D02*
X0661520Y0046860D01*
X0661580Y0047170D01*
X0661670Y0047470D01*
X0661800Y0047760D01*
X0661970Y0048030D01*
X0662170Y0048270D01*
X0662390Y0048490D01*
X0662650Y0048680D01*
X0662920Y0048840D01*
X0663210Y0048960D01*
X0663510Y0049050D01*
X0663820Y0049100D01*
X0664140Y0049110D01*
X0664450Y0049080D01*
X0664760Y0049010D01*
X0665060Y0048910D01*
X0665340Y0048770D01*
X0665600Y0048590D01*
X0665840Y0048390D01*
X0666050Y0048150D01*
X0666240Y0047900D01*
X0666390Y0047620D01*
X0666500Y0047330D01*
X0666580Y0047020D01*
X0666620Y0046710D01*
X0666620Y0046390D01*
X0666580Y0046080D01*
X0666500Y0045770D01*
X0666390Y0045480D01*
X0666240Y0045200D01*
X0666050Y0044950D01*
X0665840Y0044710D01*
X0665600Y0044510D01*
X0665340Y0044330D01*
X0665060Y0044190D01*
X0664760Y0044090D01*
X0664450Y0044020D01*
X0664140Y0043990D01*
X0663820Y0044000D01*
X0663510Y0044050D01*
X0663210Y0044140D01*
X0662920Y0044260D01*
X0662650Y0044420D01*
X0662390Y0044610D01*
X0662170Y0044830D01*
X0661970Y0045070D01*
X0661800Y0045340D01*
X0661670Y0045630D01*
X0661580Y0045930D01*
X0661520Y0046240D01*
X0661500Y0046550D01*
X0606380Y0046550D02*
X0606400Y0046860D01*
X0606460Y0047170D01*
X0606550Y0047470D01*
X0606680Y0047760D01*
X0606850Y0048030D01*
X0607050Y0048270D01*
X0607270Y0048490D01*
X0607530Y0048680D01*
X0607800Y0048840D01*
X0608090Y0048960D01*
X0608390Y0049050D01*
X0608700Y0049100D01*
X0609020Y0049110D01*
X0609330Y0049080D01*
X0609640Y0049010D01*
X0609940Y0048910D01*
X0610220Y0048770D01*
X0610480Y0048590D01*
X0610720Y0048390D01*
X0610930Y0048150D01*
X0611120Y0047900D01*
X0611270Y0047620D01*
X0611380Y0047330D01*
X0611460Y0047020D01*
X0611500Y0046710D01*
X0611500Y0046390D01*
X0611460Y0046080D01*
X0611380Y0045770D01*
X0611270Y0045480D01*
X0611120Y0045200D01*
X0610930Y0044950D01*
X0610720Y0044710D01*
X0610480Y0044510D01*
X0610220Y0044330D01*
X0609940Y0044190D01*
X0609640Y0044090D01*
X0609330Y0044020D01*
X0609020Y0043990D01*
X0608700Y0044000D01*
X0608390Y0044050D01*
X0608090Y0044140D01*
X0607800Y0044260D01*
X0607530Y0044420D01*
X0607270Y0044610D01*
X0607050Y0044830D01*
X0606850Y0045070D01*
X0606680Y0045340D01*
X0606550Y0045630D01*
X0606460Y0045930D01*
X0606400Y0046240D01*
X0606380Y0046550D01*
X0593700Y0568000D02*
X0593720Y0568500D01*
X0593780Y0569000D01*
X0593880Y0569490D01*
X0594020Y0569970D01*
X0594190Y0570440D01*
X0594400Y0570890D01*
X0594650Y0571330D01*
X0594930Y0571740D01*
X0595250Y0572130D01*
X0595590Y0572500D01*
X0595960Y0572840D01*
X0596360Y0573140D01*
X0596780Y0573410D01*
X0597220Y0573650D01*
X0597680Y0573860D01*
X0598150Y0574020D01*
X0598630Y0574150D01*
X0599130Y0574240D01*
X0599620Y0574290D01*
X0600130Y0574300D01*
X0600630Y0574270D01*
X0601120Y0574200D01*
X0601610Y0574090D01*
X0602090Y0573940D01*
X0602550Y0573760D01*
X0603000Y0573540D01*
X0603430Y0573280D01*
X0603840Y0572990D01*
X0604230Y0572670D01*
X0604590Y0572320D01*
X0604910Y0571940D01*
X0605210Y0571540D01*
X0605480Y0571110D01*
X0605710Y0570670D01*
X0605900Y0570210D01*
X0606060Y0569730D01*
X0606180Y0569240D01*
X0606260Y0568750D01*
X0606300Y0568250D01*
X0606300Y0567750D01*
X0606260Y0567250D01*
X0606180Y0566760D01*
X0606060Y0566270D01*
X0605900Y0565790D01*
X0605710Y0565330D01*
X0605480Y0564890D01*
X0605210Y0564460D01*
X0604910Y0564060D01*
X0604590Y0563680D01*
X0604230Y0563330D01*
X0603840Y0563010D01*
X0603430Y0562720D01*
X0603000Y0562460D01*
X0602550Y0562240D01*
X0602090Y0562060D01*
X0601610Y0561910D01*
X0601120Y0561800D01*
X0600630Y0561730D01*
X0600130Y0561700D01*
X0599620Y0561710D01*
X0599130Y0561760D01*
X0598630Y0561850D01*
X0598150Y0561980D01*
X0597680Y0562140D01*
X0597220Y0562350D01*
X0596780Y0562590D01*
X0596360Y0562860D01*
X0595960Y0563160D01*
X0595590Y0563500D01*
X0595250Y0563870D01*
X0594930Y0564260D01*
X0594650Y0564670D01*
X0594400Y0565110D01*
X0594190Y0565560D01*
X0594020Y0566030D01*
X0593880Y0566510D01*
X0593780Y0567000D01*
X0593720Y0567500D01*
X0593700Y0568000D01*
X0567200Y0568000D02*
X0567220Y0568500D01*
X0567280Y0569000D01*
X0567380Y0569490D01*
X0567520Y0569970D01*
X0567690Y0570440D01*
X0567900Y0570890D01*
X0568150Y0571330D01*
X0568430Y0571740D01*
X0568750Y0572130D01*
X0569090Y0572500D01*
X0569460Y0572840D01*
X0569860Y0573140D01*
X0570280Y0573410D01*
X0570720Y0573650D01*
X0571180Y0573860D01*
X0571650Y0574020D01*
X0572130Y0574150D01*
X0572630Y0574240D01*
X0573120Y0574290D01*
X0573630Y0574300D01*
X0574130Y0574270D01*
X0574620Y0574200D01*
X0575110Y0574090D01*
X0575590Y0573940D01*
X0576050Y0573760D01*
X0576500Y0573540D01*
X0576930Y0573280D01*
X0577340Y0572990D01*
X0577730Y0572670D01*
X0578090Y0572320D01*
X0578410Y0571940D01*
X0578710Y0571540D01*
X0578980Y0571110D01*
X0579210Y0570670D01*
X0579400Y0570210D01*
X0579560Y0569730D01*
X0579680Y0569240D01*
X0579760Y0568750D01*
X0579800Y0568250D01*
X0579800Y0567750D01*
X0579760Y0567250D01*
X0579680Y0566760D01*
X0579560Y0566270D01*
X0579400Y0565790D01*
X0579210Y0565330D01*
X0578980Y0564890D01*
X0578710Y0564460D01*
X0578410Y0564060D01*
X0578090Y0563680D01*
X0577730Y0563330D01*
X0577340Y0563010D01*
X0576930Y0562720D01*
X0576500Y0562460D01*
X0576050Y0562240D01*
X0575590Y0562060D01*
X0575110Y0561910D01*
X0574620Y0561800D01*
X0574130Y0561730D01*
X0573630Y0561700D01*
X0573120Y0561710D01*
X0572630Y0561760D01*
X0572130Y0561850D01*
X0571650Y0561980D01*
X0571180Y0562140D01*
X0570720Y0562350D01*
X0570280Y0562590D01*
X0569860Y0562860D01*
X0569460Y0563160D01*
X0569090Y0563500D01*
X0568750Y0563870D01*
X0568430Y0564260D01*
X0568150Y0564670D01*
X0567900Y0565110D01*
X0567690Y0565560D01*
X0567520Y0566030D01*
X0567380Y0566510D01*
X0567280Y0567000D01*
X0567220Y0567500D01*
X0567200Y0568000D01*
X0545200Y0568000D02*
X0545220Y0568500D01*
X0545280Y0569000D01*
X0545380Y0569490D01*
X0545520Y0569970D01*
X0545690Y0570440D01*
X0545900Y0570890D01*
X0546150Y0571330D01*
X0546430Y0571740D01*
X0546750Y0572130D01*
X0547090Y0572500D01*
X0547460Y0572840D01*
X0547860Y0573140D01*
X0548280Y0573410D01*
X0548720Y0573650D01*
X0549180Y0573860D01*
X0549650Y0574020D01*
X0550130Y0574150D01*
X0550630Y0574240D01*
X0551120Y0574290D01*
X0551630Y0574300D01*
X0552130Y0574270D01*
X0552620Y0574200D01*
X0553110Y0574090D01*
X0553590Y0573940D01*
X0554050Y0573760D01*
X0554500Y0573540D01*
X0554930Y0573280D01*
X0555340Y0572990D01*
X0555730Y0572670D01*
X0556090Y0572320D01*
X0556410Y0571940D01*
X0556710Y0571540D01*
X0556980Y0571110D01*
X0557210Y0570670D01*
X0557400Y0570210D01*
X0557560Y0569730D01*
X0557680Y0569240D01*
X0557760Y0568750D01*
X0557800Y0568250D01*
X0557800Y0567750D01*
X0557760Y0567250D01*
X0557680Y0566760D01*
X0557560Y0566270D01*
X0557400Y0565790D01*
X0557210Y0565330D01*
X0556980Y0564890D01*
X0556710Y0564460D01*
X0556410Y0564060D01*
X0556090Y0563680D01*
X0555730Y0563330D01*
X0555340Y0563010D01*
X0554930Y0562720D01*
X0554500Y0562460D01*
X0554050Y0562240D01*
X0553590Y0562060D01*
X0553110Y0561910D01*
X0552620Y0561800D01*
X0552130Y0561730D01*
X0551630Y0561700D01*
X0551120Y0561710D01*
X0550630Y0561760D01*
X0550130Y0561850D01*
X0549650Y0561980D01*
X0549180Y0562140D01*
X0548720Y0562350D01*
X0548280Y0562590D01*
X0547860Y0562860D01*
X0547460Y0563160D01*
X0547090Y0563500D01*
X0546750Y0563870D01*
X0546430Y0564260D01*
X0546150Y0564670D01*
X0545900Y0565110D01*
X0545690Y0565560D01*
X0545520Y0566030D01*
X0545380Y0566510D01*
X0545280Y0567000D01*
X0545220Y0567500D01*
X0545200Y0568000D01*
X0518200Y0568000D02*
X0518220Y0568500D01*
X0518280Y0569000D01*
X0518380Y0569490D01*
X0518520Y0569970D01*
X0518690Y0570440D01*
X0518900Y0570890D01*
X0519150Y0571330D01*
X0519430Y0571740D01*
X0519750Y0572130D01*
X0520090Y0572500D01*
X0520460Y0572840D01*
X0520860Y0573140D01*
X0521280Y0573410D01*
X0521720Y0573650D01*
X0522180Y0573860D01*
X0522650Y0574020D01*
X0523130Y0574150D01*
X0523630Y0574240D01*
X0524120Y0574290D01*
X0524630Y0574300D01*
X0525130Y0574270D01*
X0525620Y0574200D01*
X0526110Y0574090D01*
X0526590Y0573940D01*
X0527050Y0573760D01*
X0527500Y0573540D01*
X0527930Y0573280D01*
X0528340Y0572990D01*
X0528730Y0572670D01*
X0529090Y0572320D01*
X0529410Y0571940D01*
X0529710Y0571540D01*
X0529980Y0571110D01*
X0530210Y0570670D01*
X0530400Y0570210D01*
X0530560Y0569730D01*
X0530680Y0569240D01*
X0530760Y0568750D01*
X0530800Y0568250D01*
X0530800Y0567750D01*
X0530760Y0567250D01*
X0530680Y0566760D01*
X0530560Y0566270D01*
X0530400Y0565790D01*
X0530210Y0565330D01*
X0529980Y0564890D01*
X0529710Y0564460D01*
X0529410Y0564060D01*
X0529090Y0563680D01*
X0528730Y0563330D01*
X0528340Y0563010D01*
X0527930Y0562720D01*
X0527500Y0562460D01*
X0527050Y0562240D01*
X0526590Y0562060D01*
X0526110Y0561910D01*
X0525620Y0561800D01*
X0525130Y0561730D01*
X0524630Y0561700D01*
X0524120Y0561710D01*
X0523630Y0561760D01*
X0523130Y0561850D01*
X0522650Y0561980D01*
X0522180Y0562140D01*
X0521720Y0562350D01*
X0521280Y0562590D01*
X0520860Y0562860D01*
X0520460Y0563160D01*
X0520090Y0563500D01*
X0519750Y0563870D01*
X0519430Y0564260D01*
X0519150Y0564670D01*
X0518900Y0565110D01*
X0518690Y0565560D01*
X0518520Y0566030D01*
X0518380Y0566510D01*
X0518280Y0567000D01*
X0518220Y0567500D01*
X0518200Y0568000D01*
X0496200Y0568000D02*
X0496220Y0568500D01*
X0496280Y0569000D01*
X0496380Y0569490D01*
X0496520Y0569970D01*
X0496690Y0570440D01*
X0496900Y0570890D01*
X0497150Y0571330D01*
X0497430Y0571740D01*
X0497750Y0572130D01*
X0498090Y0572500D01*
X0498460Y0572840D01*
X0498860Y0573140D01*
X0499280Y0573410D01*
X0499720Y0573650D01*
X0500180Y0573860D01*
X0500650Y0574020D01*
X0501130Y0574150D01*
X0501630Y0574240D01*
X0502120Y0574290D01*
X0502630Y0574300D01*
X0503130Y0574270D01*
X0503620Y0574200D01*
X0504110Y0574090D01*
X0504590Y0573940D01*
X0505050Y0573760D01*
X0505500Y0573540D01*
X0505930Y0573280D01*
X0506340Y0572990D01*
X0506730Y0572670D01*
X0507090Y0572320D01*
X0507410Y0571940D01*
X0507710Y0571540D01*
X0507980Y0571110D01*
X0508210Y0570670D01*
X0508400Y0570210D01*
X0508560Y0569730D01*
X0508680Y0569240D01*
X0508760Y0568750D01*
X0508800Y0568250D01*
X0508800Y0567750D01*
X0508760Y0567250D01*
X0508680Y0566760D01*
X0508560Y0566270D01*
X0508400Y0565790D01*
X0508210Y0565330D01*
X0507980Y0564890D01*
X0507710Y0564460D01*
X0507410Y0564060D01*
X0507090Y0563680D01*
X0506730Y0563330D01*
X0506340Y0563010D01*
X0505930Y0562720D01*
X0505500Y0562460D01*
X0505050Y0562240D01*
X0504590Y0562060D01*
X0504110Y0561910D01*
X0503620Y0561800D01*
X0503130Y0561730D01*
X0502630Y0561700D01*
X0502120Y0561710D01*
X0501630Y0561760D01*
X0501130Y0561850D01*
X0500650Y0561980D01*
X0500180Y0562140D01*
X0499720Y0562350D01*
X0499280Y0562590D01*
X0498860Y0562860D01*
X0498460Y0563160D01*
X0498090Y0563500D01*
X0497750Y0563870D01*
X0497430Y0564260D01*
X0497150Y0564670D01*
X0496900Y0565110D01*
X0496690Y0565560D01*
X0496520Y0566030D01*
X0496380Y0566510D01*
X0496280Y0567000D01*
X0496220Y0567500D01*
X0496200Y0568000D01*
X0467200Y0568500D02*
X0467220Y0569000D01*
X0467280Y0569500D01*
X0467380Y0569990D01*
X0467520Y0570470D01*
X0467690Y0570940D01*
X0467900Y0571390D01*
X0468150Y0571830D01*
X0468430Y0572240D01*
X0468750Y0572630D01*
X0469090Y0573000D01*
X0469460Y0573340D01*
X0469860Y0573640D01*
X0470280Y0573910D01*
X0470720Y0574150D01*
X0471180Y0574360D01*
X0471650Y0574520D01*
X0472130Y0574650D01*
X0472630Y0574740D01*
X0473120Y0574790D01*
X0473630Y0574800D01*
X0474130Y0574770D01*
X0474620Y0574700D01*
X0475110Y0574590D01*
X0475590Y0574440D01*
X0476050Y0574260D01*
X0476500Y0574040D01*
X0476930Y0573780D01*
X0477340Y0573490D01*
X0477730Y0573170D01*
X0478090Y0572820D01*
X0478410Y0572440D01*
X0478710Y0572040D01*
X0478980Y0571610D01*
X0479210Y0571170D01*
X0479400Y0570710D01*
X0479560Y0570230D01*
X0479680Y0569740D01*
X0479760Y0569250D01*
X0479800Y0568750D01*
X0479800Y0568250D01*
X0479760Y0567750D01*
X0479680Y0567260D01*
X0479560Y0566770D01*
X0479400Y0566290D01*
X0479210Y0565830D01*
X0478980Y0565390D01*
X0478710Y0564960D01*
X0478410Y0564560D01*
X0478090Y0564180D01*
X0477730Y0563830D01*
X0477340Y0563510D01*
X0476930Y0563220D01*
X0476500Y0562960D01*
X0476050Y0562740D01*
X0475590Y0562560D01*
X0475110Y0562410D01*
X0474620Y0562300D01*
X0474130Y0562230D01*
X0473630Y0562200D01*
X0473120Y0562210D01*
X0472630Y0562260D01*
X0472130Y0562350D01*
X0471650Y0562480D01*
X0471180Y0562640D01*
X0470720Y0562850D01*
X0470280Y0563090D01*
X0469860Y0563360D01*
X0469460Y0563660D01*
X0469090Y0564000D01*
X0468750Y0564370D01*
X0468430Y0564760D01*
X0468150Y0565170D01*
X0467900Y0565610D01*
X0467690Y0566060D01*
X0467520Y0566530D01*
X0467380Y0567010D01*
X0467280Y0567500D01*
X0467220Y0568000D01*
X0467200Y0568500D01*
X0446700Y0568500D02*
X0446720Y0569000D01*
X0446780Y0569500D01*
X0446880Y0569990D01*
X0447020Y0570470D01*
X0447190Y0570940D01*
X0447400Y0571390D01*
X0447650Y0571830D01*
X0447930Y0572240D01*
X0448250Y0572630D01*
X0448590Y0573000D01*
X0448960Y0573340D01*
X0449360Y0573640D01*
X0449780Y0573910D01*
X0450220Y0574150D01*
X0450680Y0574360D01*
X0451150Y0574520D01*
X0451630Y0574650D01*
X0452130Y0574740D01*
X0452620Y0574790D01*
X0453130Y0574800D01*
X0453630Y0574770D01*
X0454120Y0574700D01*
X0454610Y0574590D01*
X0455090Y0574440D01*
X0455550Y0574260D01*
X0456000Y0574040D01*
X0456430Y0573780D01*
X0456840Y0573490D01*
X0457230Y0573170D01*
X0457590Y0572820D01*
X0457910Y0572440D01*
X0458210Y0572040D01*
X0458480Y0571610D01*
X0458710Y0571170D01*
X0458900Y0570710D01*
X0459060Y0570230D01*
X0459180Y0569740D01*
X0459260Y0569250D01*
X0459300Y0568750D01*
X0459300Y0568250D01*
X0459260Y0567750D01*
X0459180Y0567260D01*
X0459060Y0566770D01*
X0458900Y0566290D01*
X0458710Y0565830D01*
X0458480Y0565390D01*
X0458210Y0564960D01*
X0457910Y0564560D01*
X0457590Y0564180D01*
X0457230Y0563830D01*
X0456840Y0563510D01*
X0456430Y0563220D01*
X0456000Y0562960D01*
X0455550Y0562740D01*
X0455090Y0562560D01*
X0454610Y0562410D01*
X0454120Y0562300D01*
X0453630Y0562230D01*
X0453130Y0562200D01*
X0452620Y0562210D01*
X0452130Y0562260D01*
X0451630Y0562350D01*
X0451150Y0562480D01*
X0450680Y0562640D01*
X0450220Y0562850D01*
X0449780Y0563090D01*
X0449360Y0563360D01*
X0448960Y0563660D01*
X0448590Y0564000D01*
X0448250Y0564370D01*
X0447930Y0564760D01*
X0447650Y0565170D01*
X0447400Y0565610D01*
X0447190Y0566060D01*
X0447020Y0566530D01*
X0446880Y0567010D01*
X0446780Y0567500D01*
X0446720Y0568000D01*
X0446700Y0568500D01*
X0617200Y0568000D02*
X0617220Y0568500D01*
X0617280Y0569000D01*
X0617380Y0569490D01*
X0617520Y0569970D01*
X0617690Y0570440D01*
X0617900Y0570890D01*
X0618150Y0571330D01*
X0618430Y0571740D01*
X0618750Y0572130D01*
X0619090Y0572500D01*
X0619460Y0572840D01*
X0619860Y0573140D01*
X0620280Y0573410D01*
X0620720Y0573650D01*
X0621180Y0573860D01*
X0621650Y0574020D01*
X0622130Y0574150D01*
X0622630Y0574240D01*
X0623120Y0574290D01*
X0623630Y0574300D01*
X0624130Y0574270D01*
X0624620Y0574200D01*
X0625110Y0574090D01*
X0625590Y0573940D01*
X0626050Y0573760D01*
X0626500Y0573540D01*
X0626930Y0573280D01*
X0627340Y0572990D01*
X0627730Y0572670D01*
X0628090Y0572320D01*
X0628410Y0571940D01*
X0628710Y0571540D01*
X0628980Y0571110D01*
X0629210Y0570670D01*
X0629400Y0570210D01*
X0629560Y0569730D01*
X0629680Y0569240D01*
X0629760Y0568750D01*
X0629800Y0568250D01*
X0629800Y0567750D01*
X0629760Y0567250D01*
X0629680Y0566760D01*
X0629560Y0566270D01*
X0629400Y0565790D01*
X0629210Y0565330D01*
X0628980Y0564890D01*
X0628710Y0564460D01*
X0628410Y0564060D01*
X0628090Y0563680D01*
X0627730Y0563330D01*
X0627340Y0563010D01*
X0626930Y0562720D01*
X0626500Y0562460D01*
X0626050Y0562240D01*
X0625590Y0562060D01*
X0625110Y0561910D01*
X0624620Y0561800D01*
X0624130Y0561730D01*
X0623630Y0561700D01*
X0623120Y0561710D01*
X0622630Y0561760D01*
X0622130Y0561850D01*
X0621650Y0561980D01*
X0621180Y0562140D01*
X0620720Y0562350D01*
X0620280Y0562590D01*
X0619860Y0562860D01*
X0619460Y0563160D01*
X0619090Y0563500D01*
X0618750Y0563870D01*
X0618430Y0564260D01*
X0618150Y0564670D01*
X0617900Y0565110D01*
X0617690Y0565560D01*
X0617520Y0566030D01*
X0617380Y0566510D01*
X0617280Y0567000D01*
X0617220Y0567500D01*
X0617200Y0568000D01*
D906*
X0444190Y0067630D02*
X0382770Y0067630D01*
X0382770Y0020380D01*
X0444190Y0020380D01*
X0444190Y0067630D01*
X0020000Y0594500D02*
G75*
%LPD*%
D318*
X0020000Y0594500D02*
X0020000Y0695000D01*
X0030500Y0695000D01*
X0030500Y0705000D01*
X0020000Y0705000D01*
X0020000Y1156500D01*
X0350000Y1156500D01*
X0350000Y0704500D01*
X0339500Y0704500D01*
X0339500Y0695000D01*
X0350000Y0695000D01*
X0350000Y0594500D01*
X0020000Y0594500D01*
D889*
X0204390Y0599940D02*
X0204390Y0674290D01*
X0209570Y0680500D02*
X0323000Y0680500D01*
D689*
X0319000Y0621050D02*
X0319020Y0621360D01*
X0319080Y0621670D01*
X0319170Y0621970D01*
X0319300Y0622260D01*
X0319470Y0622530D01*
X0319670Y0622770D01*
X0319890Y0622990D01*
X0320150Y0623180D01*
X0320420Y0623340D01*
X0320710Y0623460D01*
X0321010Y0623550D01*
X0321320Y0623600D01*
X0321640Y0623610D01*
X0321950Y0623580D01*
X0322260Y0623510D01*
X0322560Y0623410D01*
X0322840Y0623270D01*
X0323100Y0623090D01*
X0323340Y0622890D01*
X0323550Y0622650D01*
X0323740Y0622400D01*
X0323890Y0622120D01*
X0324000Y0621830D01*
X0324080Y0621520D01*
X0324120Y0621210D01*
X0324120Y0620890D01*
X0324080Y0620580D01*
X0324000Y0620270D01*
X0323890Y0619980D01*
X0323740Y0619700D01*
X0323550Y0619450D01*
X0323340Y0619210D01*
X0323100Y0619010D01*
X0322840Y0618830D01*
X0322560Y0618690D01*
X0322260Y0618590D01*
X0321950Y0618520D01*
X0321640Y0618490D01*
X0321320Y0618500D01*
X0321010Y0618550D01*
X0320710Y0618640D01*
X0320420Y0618760D01*
X0320150Y0618920D01*
X0319890Y0619110D01*
X0319670Y0619330D01*
X0319470Y0619570D01*
X0319300Y0619840D01*
X0319170Y0620130D01*
X0319080Y0620430D01*
X0319020Y0620740D01*
X0319000Y0621050D01*
X0263880Y0621050D02*
X0263900Y0621360D01*
X0263960Y0621670D01*
X0264050Y0621970D01*
X0264180Y0622260D01*
X0264350Y0622530D01*
X0264550Y0622770D01*
X0264770Y0622990D01*
X0265030Y0623180D01*
X0265300Y0623340D01*
X0265590Y0623460D01*
X0265890Y0623550D01*
X0266200Y0623600D01*
X0266520Y0623610D01*
X0266830Y0623580D01*
X0267140Y0623510D01*
X0267440Y0623410D01*
X0267720Y0623270D01*
X0267980Y0623090D01*
X0268220Y0622890D01*
X0268430Y0622650D01*
X0268620Y0622400D01*
X0268770Y0622120D01*
X0268880Y0621830D01*
X0268960Y0621520D01*
X0269000Y0621210D01*
X0269000Y0620890D01*
X0268960Y0620580D01*
X0268880Y0620270D01*
X0268770Y0619980D01*
X0268620Y0619700D01*
X0268430Y0619450D01*
X0268220Y0619210D01*
X0267980Y0619010D01*
X0267720Y0618830D01*
X0267440Y0618690D01*
X0267140Y0618590D01*
X0266830Y0618520D01*
X0266520Y0618490D01*
X0266200Y0618500D01*
X0265890Y0618550D01*
X0265590Y0618640D01*
X0265300Y0618760D01*
X0265030Y0618920D01*
X0264770Y0619110D01*
X0264550Y0619330D01*
X0264350Y0619570D01*
X0264180Y0619840D01*
X0264050Y0620130D01*
X0263960Y0620430D01*
X0263900Y0620740D01*
X0263880Y0621050D01*
X0251200Y1142500D02*
X0251220Y1143000D01*
X0251280Y1143500D01*
X0251380Y1143990D01*
X0251520Y1144470D01*
X0251690Y1144940D01*
X0251900Y1145390D01*
X0252150Y1145830D01*
X0252430Y1146240D01*
X0252750Y1146630D01*
X0253090Y1147000D01*
X0253460Y1147340D01*
X0253860Y1147640D01*
X0254280Y1147910D01*
X0254720Y1148150D01*
X0255180Y1148360D01*
X0255650Y1148520D01*
X0256130Y1148650D01*
X0256630Y1148740D01*
X0257120Y1148790D01*
X0257630Y1148800D01*
X0258130Y1148770D01*
X0258620Y1148700D01*
X0259110Y1148590D01*
X0259590Y1148440D01*
X0260050Y1148260D01*
X0260500Y1148040D01*
X0260930Y1147780D01*
X0261340Y1147490D01*
X0261730Y1147170D01*
X0262090Y1146820D01*
X0262410Y1146440D01*
X0262710Y1146040D01*
X0262980Y1145610D01*
X0263210Y1145170D01*
X0263400Y1144710D01*
X0263560Y1144230D01*
X0263680Y1143740D01*
X0263760Y1143250D01*
X0263800Y1142750D01*
X0263800Y1142250D01*
X0263760Y1141750D01*
X0263680Y1141260D01*
X0263560Y1140770D01*
X0263400Y1140290D01*
X0263210Y1139830D01*
X0262980Y1139390D01*
X0262710Y1138960D01*
X0262410Y1138560D01*
X0262090Y1138180D01*
X0261730Y1137830D01*
X0261340Y1137510D01*
X0260930Y1137220D01*
X0260500Y1136960D01*
X0260050Y1136740D01*
X0259590Y1136560D01*
X0259110Y1136410D01*
X0258620Y1136300D01*
X0258130Y1136230D01*
X0257630Y1136200D01*
X0257120Y1136210D01*
X0256630Y1136260D01*
X0256130Y1136350D01*
X0255650Y1136480D01*
X0255180Y1136640D01*
X0254720Y1136850D01*
X0254280Y1137090D01*
X0253860Y1137360D01*
X0253460Y1137660D01*
X0253090Y1138000D01*
X0252750Y1138370D01*
X0252430Y1138760D01*
X0252150Y1139170D01*
X0251900Y1139610D01*
X0251690Y1140060D01*
X0251520Y1140530D01*
X0251380Y1141010D01*
X0251280Y1141500D01*
X0251220Y1142000D01*
X0251200Y1142500D01*
X0224700Y1142500D02*
X0224720Y1143000D01*
X0224780Y1143500D01*
X0224880Y1143990D01*
X0225020Y1144470D01*
X0225190Y1144940D01*
X0225400Y1145390D01*
X0225650Y1145830D01*
X0225930Y1146240D01*
X0226250Y1146630D01*
X0226590Y1147000D01*
X0226960Y1147340D01*
X0227360Y1147640D01*
X0227780Y1147910D01*
X0228220Y1148150D01*
X0228680Y1148360D01*
X0229150Y1148520D01*
X0229630Y1148650D01*
X0230130Y1148740D01*
X0230620Y1148790D01*
X0231130Y1148800D01*
X0231630Y1148770D01*
X0232120Y1148700D01*
X0232610Y1148590D01*
X0233090Y1148440D01*
X0233550Y1148260D01*
X0234000Y1148040D01*
X0234430Y1147780D01*
X0234840Y1147490D01*
X0235230Y1147170D01*
X0235590Y1146820D01*
X0235910Y1146440D01*
X0236210Y1146040D01*
X0236480Y1145610D01*
X0236710Y1145170D01*
X0236900Y1144710D01*
X0237060Y1144230D01*
X0237180Y1143740D01*
X0237260Y1143250D01*
X0237300Y1142750D01*
X0237300Y1142250D01*
X0237260Y1141750D01*
X0237180Y1141260D01*
X0237060Y1140770D01*
X0236900Y1140290D01*
X0236710Y1139830D01*
X0236480Y1139390D01*
X0236210Y1138960D01*
X0235910Y1138560D01*
X0235590Y1138180D01*
X0235230Y1137830D01*
X0234840Y1137510D01*
X0234430Y1137220D01*
X0234000Y1136960D01*
X0233550Y1136740D01*
X0233090Y1136560D01*
X0232610Y1136410D01*
X0232120Y1136300D01*
X0231630Y1136230D01*
X0231130Y1136200D01*
X0230620Y1136210D01*
X0230130Y1136260D01*
X0229630Y1136350D01*
X0229150Y1136480D01*
X0228680Y1136640D01*
X0228220Y1136850D01*
X0227780Y1137090D01*
X0227360Y1137360D01*
X0226960Y1137660D01*
X0226590Y1138000D01*
X0226250Y1138370D01*
X0225930Y1138760D01*
X0225650Y1139170D01*
X0225400Y1139610D01*
X0225190Y1140060D01*
X0225020Y1140530D01*
X0224880Y1141010D01*
X0224780Y1141500D01*
X0224720Y1142000D01*
X0224700Y1142500D01*
X0202700Y1142500D02*
X0202720Y1143000D01*
X0202780Y1143500D01*
X0202880Y1143990D01*
X0203020Y1144470D01*
X0203190Y1144940D01*
X0203400Y1145390D01*
X0203650Y1145830D01*
X0203930Y1146240D01*
X0204250Y1146630D01*
X0204590Y1147000D01*
X0204960Y1147340D01*
X0205360Y1147640D01*
X0205780Y1147910D01*
X0206220Y1148150D01*
X0206680Y1148360D01*
X0207150Y1148520D01*
X0207630Y1148650D01*
X0208130Y1148740D01*
X0208620Y1148790D01*
X0209130Y1148800D01*
X0209630Y1148770D01*
X0210120Y1148700D01*
X0210610Y1148590D01*
X0211090Y1148440D01*
X0211550Y1148260D01*
X0212000Y1148040D01*
X0212430Y1147780D01*
X0212840Y1147490D01*
X0213230Y1147170D01*
X0213590Y1146820D01*
X0213910Y1146440D01*
X0214210Y1146040D01*
X0214480Y1145610D01*
X0214710Y1145170D01*
X0214900Y1144710D01*
X0215060Y1144230D01*
X0215180Y1143740D01*
X0215260Y1143250D01*
X0215300Y1142750D01*
X0215300Y1142250D01*
X0215260Y1141750D01*
X0215180Y1141260D01*
X0215060Y1140770D01*
X0214900Y1140290D01*
X0214710Y1139830D01*
X0214480Y1139390D01*
X0214210Y1138960D01*
X0213910Y1138560D01*
X0213590Y1138180D01*
X0213230Y1137830D01*
X0212840Y1137510D01*
X0212430Y1137220D01*
X0212000Y1136960D01*
X0211550Y1136740D01*
X0211090Y1136560D01*
X0210610Y1136410D01*
X0210120Y1136300D01*
X0209630Y1136230D01*
X0209130Y1136200D01*
X0208620Y1136210D01*
X0208130Y1136260D01*
X0207630Y1136350D01*
X0207150Y1136480D01*
X0206680Y1136640D01*
X0206220Y1136850D01*
X0205780Y1137090D01*
X0205360Y1137360D01*
X0204960Y1137660D01*
X0204590Y1138000D01*
X0204250Y1138370D01*
X0203930Y1138760D01*
X0203650Y1139170D01*
X0203400Y1139610D01*
X0203190Y1140060D01*
X0203020Y1140530D01*
X0202880Y1141010D01*
X0202780Y1141500D01*
X0202720Y1142000D01*
X0202700Y1142500D01*
X0175700Y1142500D02*
X0175720Y1143000D01*
X0175780Y1143500D01*
X0175880Y1143990D01*
X0176020Y1144470D01*
X0176190Y1144940D01*
X0176400Y1145390D01*
X0176650Y1145830D01*
X0176930Y1146240D01*
X0177250Y1146630D01*
X0177590Y1147000D01*
X0177960Y1147340D01*
X0178360Y1147640D01*
X0178780Y1147910D01*
X0179220Y1148150D01*
X0179680Y1148360D01*
X0180150Y1148520D01*
X0180630Y1148650D01*
X0181130Y1148740D01*
X0181620Y1148790D01*
X0182130Y1148800D01*
X0182630Y1148770D01*
X0183120Y1148700D01*
X0183610Y1148590D01*
X0184090Y1148440D01*
X0184550Y1148260D01*
X0185000Y1148040D01*
X0185430Y1147780D01*
X0185840Y1147490D01*
X0186230Y1147170D01*
X0186590Y1146820D01*
X0186910Y1146440D01*
X0187210Y1146040D01*
X0187480Y1145610D01*
X0187710Y1145170D01*
X0187900Y1144710D01*
X0188060Y1144230D01*
X0188180Y1143740D01*
X0188260Y1143250D01*
X0188300Y1142750D01*
X0188300Y1142250D01*
X0188260Y1141750D01*
X0188180Y1141260D01*
X0188060Y1140770D01*
X0187900Y1140290D01*
X0187710Y1139830D01*
X0187480Y1139390D01*
X0187210Y1138960D01*
X0186910Y1138560D01*
X0186590Y1138180D01*
X0186230Y1137830D01*
X0185840Y1137510D01*
X0185430Y1137220D01*
X0185000Y1136960D01*
X0184550Y1136740D01*
X0184090Y1136560D01*
X0183610Y1136410D01*
X0183120Y1136300D01*
X0182630Y1136230D01*
X0182130Y1136200D01*
X0181620Y1136210D01*
X0181130Y1136260D01*
X0180630Y1136350D01*
X0180150Y1136480D01*
X0179680Y1136640D01*
X0179220Y1136850D01*
X0178780Y1137090D01*
X0178360Y1137360D01*
X0177960Y1137660D01*
X0177590Y1138000D01*
X0177250Y1138370D01*
X0176930Y1138760D01*
X0176650Y1139170D01*
X0176400Y1139610D01*
X0176190Y1140060D01*
X0176020Y1140530D01*
X0175880Y1141010D01*
X0175780Y1141500D01*
X0175720Y1142000D01*
X0175700Y1142500D01*
X0153700Y1142500D02*
X0153720Y1143000D01*
X0153780Y1143500D01*
X0153880Y1143990D01*
X0154020Y1144470D01*
X0154190Y1144940D01*
X0154400Y1145390D01*
X0154650Y1145830D01*
X0154930Y1146240D01*
X0155250Y1146630D01*
X0155590Y1147000D01*
X0155960Y1147340D01*
X0156360Y1147640D01*
X0156780Y1147910D01*
X0157220Y1148150D01*
X0157680Y1148360D01*
X0158150Y1148520D01*
X0158630Y1148650D01*
X0159130Y1148740D01*
X0159620Y1148790D01*
X0160130Y1148800D01*
X0160630Y1148770D01*
X0161120Y1148700D01*
X0161610Y1148590D01*
X0162090Y1148440D01*
X0162550Y1148260D01*
X0163000Y1148040D01*
X0163430Y1147780D01*
X0163840Y1147490D01*
X0164230Y1147170D01*
X0164590Y1146820D01*
X0164910Y1146440D01*
X0165210Y1146040D01*
X0165480Y1145610D01*
X0165710Y1145170D01*
X0165900Y1144710D01*
X0166060Y1144230D01*
X0166180Y1143740D01*
X0166260Y1143250D01*
X0166300Y1142750D01*
X0166300Y1142250D01*
X0166260Y1141750D01*
X0166180Y1141260D01*
X0166060Y1140770D01*
X0165900Y1140290D01*
X0165710Y1139830D01*
X0165480Y1139390D01*
X0165210Y1138960D01*
X0164910Y1138560D01*
X0164590Y1138180D01*
X0164230Y1137830D01*
X0163840Y1137510D01*
X0163430Y1137220D01*
X0163000Y1136960D01*
X0162550Y1136740D01*
X0162090Y1136560D01*
X0161610Y1136410D01*
X0161120Y1136300D01*
X0160630Y1136230D01*
X0160130Y1136200D01*
X0159620Y1136210D01*
X0159130Y1136260D01*
X0158630Y1136350D01*
X0158150Y1136480D01*
X0157680Y1136640D01*
X0157220Y1136850D01*
X0156780Y1137090D01*
X0156360Y1137360D01*
X0155960Y1137660D01*
X0155590Y1138000D01*
X0155250Y1138370D01*
X0154930Y1138760D01*
X0154650Y1139170D01*
X0154400Y1139610D01*
X0154190Y1140060D01*
X0154020Y1140530D01*
X0153880Y1141010D01*
X0153780Y1141500D01*
X0153720Y1142000D01*
X0153700Y1142500D01*
X0124700Y1143000D02*
X0124720Y1143500D01*
X0124780Y1144000D01*
X0124880Y1144490D01*
X0125020Y1144970D01*
X0125190Y1145440D01*
X0125400Y1145890D01*
X0125650Y1146330D01*
X0125930Y1146740D01*
X0126250Y1147130D01*
X0126590Y1147500D01*
X0126960Y1147840D01*
X0127360Y1148140D01*
X0127780Y1148410D01*
X0128220Y1148650D01*
X0128680Y1148860D01*
X0129150Y1149020D01*
X0129630Y1149150D01*
X0130130Y1149240D01*
X0130620Y1149290D01*
X0131130Y1149300D01*
X0131630Y1149270D01*
X0132120Y1149200D01*
X0132610Y1149090D01*
X0133090Y1148940D01*
X0133550Y1148760D01*
X0134000Y1148540D01*
X0134430Y1148280D01*
X0134840Y1147990D01*
X0135230Y1147670D01*
X0135590Y1147320D01*
X0135910Y1146940D01*
X0136210Y1146540D01*
X0136480Y1146110D01*
X0136710Y1145670D01*
X0136900Y1145210D01*
X0137060Y1144730D01*
X0137180Y1144240D01*
X0137260Y1143750D01*
X0137300Y1143250D01*
X0137300Y1142750D01*
X0137260Y1142250D01*
X0137180Y1141760D01*
X0137060Y1141270D01*
X0136900Y1140790D01*
X0136710Y1140330D01*
X0136480Y1139890D01*
X0136210Y1139460D01*
X0135910Y1139060D01*
X0135590Y1138680D01*
X0135230Y1138330D01*
X0134840Y1138010D01*
X0134430Y1137720D01*
X0134000Y1137460D01*
X0133550Y1137240D01*
X0133090Y1137060D01*
X0132610Y1136910D01*
X0132120Y1136800D01*
X0131630Y1136730D01*
X0131130Y1136700D01*
X0130620Y1136710D01*
X0130130Y1136760D01*
X0129630Y1136850D01*
X0129150Y1136980D01*
X0128680Y1137140D01*
X0128220Y1137350D01*
X0127780Y1137590D01*
X0127360Y1137860D01*
X0126960Y1138160D01*
X0126590Y1138500D01*
X0126250Y1138870D01*
X0125930Y1139260D01*
X0125650Y1139670D01*
X0125400Y1140110D01*
X0125190Y1140560D01*
X0125020Y1141030D01*
X0124880Y1141510D01*
X0124780Y1142000D01*
X0124720Y1142500D01*
X0124700Y1143000D01*
X0104200Y1143000D02*
X0104220Y1143500D01*
X0104280Y1144000D01*
X0104380Y1144490D01*
X0104520Y1144970D01*
X0104690Y1145440D01*
X0104900Y1145890D01*
X0105150Y1146330D01*
X0105430Y1146740D01*
X0105750Y1147130D01*
X0106090Y1147500D01*
X0106460Y1147840D01*
X0106860Y1148140D01*
X0107280Y1148410D01*
X0107720Y1148650D01*
X0108180Y1148860D01*
X0108650Y1149020D01*
X0109130Y1149150D01*
X0109630Y1149240D01*
X0110120Y1149290D01*
X0110630Y1149300D01*
X0111130Y1149270D01*
X0111620Y1149200D01*
X0112110Y1149090D01*
X0112590Y1148940D01*
X0113050Y1148760D01*
X0113500Y1148540D01*
X0113930Y1148280D01*
X0114340Y1147990D01*
X0114730Y1147670D01*
X0115090Y1147320D01*
X0115410Y1146940D01*
X0115710Y1146540D01*
X0115980Y1146110D01*
X0116210Y1145670D01*
X0116400Y1145210D01*
X0116560Y1144730D01*
X0116680Y1144240D01*
X0116760Y1143750D01*
X0116800Y1143250D01*
X0116800Y1142750D01*
X0116760Y1142250D01*
X0116680Y1141760D01*
X0116560Y1141270D01*
X0116400Y1140790D01*
X0116210Y1140330D01*
X0115980Y1139890D01*
X0115710Y1139460D01*
X0115410Y1139060D01*
X0115090Y1138680D01*
X0114730Y1138330D01*
X0114340Y1138010D01*
X0113930Y1137720D01*
X0113500Y1137460D01*
X0113050Y1137240D01*
X0112590Y1137060D01*
X0112110Y1136910D01*
X0111620Y1136800D01*
X0111130Y1136730D01*
X0110630Y1136700D01*
X0110120Y1136710D01*
X0109630Y1136760D01*
X0109130Y1136850D01*
X0108650Y1136980D01*
X0108180Y1137140D01*
X0107720Y1137350D01*
X0107280Y1137590D01*
X0106860Y1137860D01*
X0106460Y1138160D01*
X0106090Y1138500D01*
X0105750Y1138870D01*
X0105430Y1139260D01*
X0105150Y1139670D01*
X0104900Y1140110D01*
X0104690Y1140560D01*
X0104520Y1141030D01*
X0104380Y1141510D01*
X0104280Y1142000D01*
X0104220Y1142500D01*
X0104200Y1143000D01*
X0274700Y1142500D02*
X0274720Y1143000D01*
X0274780Y1143500D01*
X0274880Y1143990D01*
X0275020Y1144470D01*
X0275190Y1144940D01*
X0275400Y1145390D01*
X0275650Y1145830D01*
X0275930Y1146240D01*
X0276250Y1146630D01*
X0276590Y1147000D01*
X0276960Y1147340D01*
X0277360Y1147640D01*
X0277780Y1147910D01*
X0278220Y1148150D01*
X0278680Y1148360D01*
X0279150Y1148520D01*
X0279630Y1148650D01*
X0280130Y1148740D01*
X0280620Y1148790D01*
X0281130Y1148800D01*
X0281630Y1148770D01*
X0282120Y1148700D01*
X0282610Y1148590D01*
X0283090Y1148440D01*
X0283550Y1148260D01*
X0284000Y1148040D01*
X0284430Y1147780D01*
X0284840Y1147490D01*
X0285230Y1147170D01*
X0285590Y1146820D01*
X0285910Y1146440D01*
X0286210Y1146040D01*
X0286480Y1145610D01*
X0286710Y1145170D01*
X0286900Y1144710D01*
X0287060Y1144230D01*
X0287180Y1143740D01*
X0287260Y1143250D01*
X0287300Y1142750D01*
X0287300Y1142250D01*
X0287260Y1141750D01*
X0287180Y1141260D01*
X0287060Y1140770D01*
X0286900Y1140290D01*
X0286710Y1139830D01*
X0286480Y1139390D01*
X0286210Y1138960D01*
X0285910Y1138560D01*
X0285590Y1138180D01*
X0285230Y1137830D01*
X0284840Y1137510D01*
X0284430Y1137220D01*
X0284000Y1136960D01*
X0283550Y1136740D01*
X0283090Y1136560D01*
X0282610Y1136410D01*
X0282120Y1136300D01*
X0281630Y1136230D01*
X0281130Y1136200D01*
X0280620Y1136210D01*
X0280130Y1136260D01*
X0279630Y1136350D01*
X0279150Y1136480D01*
X0278680Y1136640D01*
X0278220Y1136850D01*
X0277780Y1137090D01*
X0277360Y1137360D01*
X0276960Y1137660D01*
X0276590Y1138000D01*
X0276250Y1138370D01*
X0275930Y1138760D01*
X0275650Y1139170D01*
X0275400Y1139610D01*
X0275190Y1140060D01*
X0275020Y1140530D01*
X0274880Y1141010D01*
X0274780Y1141500D01*
X0274720Y1142000D01*
X0274700Y1142500D01*
D906*
X0101690Y0642130D02*
X0040270Y0642130D01*
X0040270Y0594880D01*
X0101690Y0594880D01*
X0101690Y0642130D01*
X0705000Y0020000D02*
G75*
%LPD*%
D318*
X0705000Y0020000D02*
X0705000Y0120500D01*
X0715500Y0120500D01*
X0715500Y0130500D01*
X0705000Y0130500D01*
X0705000Y0582000D01*
X1035000Y0582000D01*
X1035000Y0130000D01*
X1024500Y0130000D01*
X1024500Y0120500D01*
X1035000Y0120500D01*
X1035000Y0020000D01*
X0705000Y0020000D01*
D889*
X0889390Y0025440D02*
X0889390Y0099790D01*
X0894570Y0106000D02*
X1008000Y0106000D01*
D689*
X1004000Y0046550D02*
X1004020Y0046860D01*
X1004080Y0047170D01*
X1004170Y0047470D01*
X1004300Y0047760D01*
X1004470Y0048030D01*
X1004670Y0048270D01*
X1004890Y0048490D01*
X1005150Y0048680D01*
X1005420Y0048840D01*
X1005710Y0048960D01*
X1006010Y0049050D01*
X1006320Y0049100D01*
X1006640Y0049110D01*
X1006950Y0049080D01*
X1007260Y0049010D01*
X1007560Y0048910D01*
X1007840Y0048770D01*
X1008100Y0048590D01*
X1008340Y0048390D01*
X1008550Y0048150D01*
X1008740Y0047900D01*
X1008890Y0047620D01*
X1009000Y0047330D01*
X1009080Y0047020D01*
X1009120Y0046710D01*
X1009120Y0046390D01*
X1009080Y0046080D01*
X1009000Y0045770D01*
X1008890Y0045480D01*
X1008740Y0045200D01*
X1008550Y0044950D01*
X1008340Y0044710D01*
X1008100Y0044510D01*
X1007840Y0044330D01*
X1007560Y0044190D01*
X1007260Y0044090D01*
X1006950Y0044020D01*
X1006640Y0043990D01*
X1006320Y0044000D01*
X1006010Y0044050D01*
X1005710Y0044140D01*
X1005420Y0044260D01*
X1005150Y0044420D01*
X1004890Y0044610D01*
X1004670Y0044830D01*
X1004470Y0045070D01*
X1004300Y0045340D01*
X1004170Y0045630D01*
X1004080Y0045930D01*
X1004020Y0046240D01*
X1004000Y0046550D01*
X0948880Y0046550D02*
X0948900Y0046860D01*
X0948960Y0047170D01*
X0949050Y0047470D01*
X0949180Y0047760D01*
X0949350Y0048030D01*
X0949550Y0048270D01*
X0949770Y0048490D01*
X0950030Y0048680D01*
X0950300Y0048840D01*
X0950590Y0048960D01*
X0950890Y0049050D01*
X0951200Y0049100D01*
X0951520Y0049110D01*
X0951830Y0049080D01*
X0952140Y0049010D01*
X0952440Y0048910D01*
X0952720Y0048770D01*
X0952980Y0048590D01*
X0953220Y0048390D01*
X0953430Y0048150D01*
X0953620Y0047900D01*
X0953770Y0047620D01*
X0953880Y0047330D01*
X0953960Y0047020D01*
X0954000Y0046710D01*
X0954000Y0046390D01*
X0953960Y0046080D01*
X0953880Y0045770D01*
X0953770Y0045480D01*
X0953620Y0045200D01*
X0953430Y0044950D01*
X0953220Y0044710D01*
X0952980Y0044510D01*
X0952720Y0044330D01*
X0952440Y0044190D01*
X0952140Y0044090D01*
X0951830Y0044020D01*
X0951520Y0043990D01*
X0951200Y0044000D01*
X0950890Y0044050D01*
X0950590Y0044140D01*
X0950300Y0044260D01*
X0950030Y0044420D01*
X0949770Y0044610D01*
X0949550Y0044830D01*
X0949350Y0045070D01*
X0949180Y0045340D01*
X0949050Y0045630D01*
X0948960Y0045930D01*
X0948900Y0046240D01*
X0948880Y0046550D01*
X0936200Y0568000D02*
X0936220Y0568500D01*
X0936280Y0569000D01*
X0936380Y0569490D01*
X0936520Y0569970D01*
X0936690Y0570440D01*
X0936900Y0570890D01*
X0937150Y0571330D01*
X0937430Y0571740D01*
X0937750Y0572130D01*
X0938090Y0572500D01*
X0938460Y0572840D01*
X0938860Y0573140D01*
X0939280Y0573410D01*
X0939720Y0573650D01*
X0940180Y0573860D01*
X0940650Y0574020D01*
X0941130Y0574150D01*
X0941630Y0574240D01*
X0942120Y0574290D01*
X0942630Y0574300D01*
X0943130Y0574270D01*
X0943620Y0574200D01*
X0944110Y0574090D01*
X0944590Y0573940D01*
X0945050Y0573760D01*
X0945500Y0573540D01*
X0945930Y0573280D01*
X0946340Y0572990D01*
X0946730Y0572670D01*
X0947090Y0572320D01*
X0947410Y0571940D01*
X0947710Y0571540D01*
X0947980Y0571110D01*
X0948210Y0570670D01*
X0948400Y0570210D01*
X0948560Y0569730D01*
X0948680Y0569240D01*
X0948760Y0568750D01*
X0948800Y0568250D01*
X0948800Y0567750D01*
X0948760Y0567250D01*
X0948680Y0566760D01*
X0948560Y0566270D01*
X0948400Y0565790D01*
X0948210Y0565330D01*
X0947980Y0564890D01*
X0947710Y0564460D01*
X0947410Y0564060D01*
X0947090Y0563680D01*
X0946730Y0563330D01*
X0946340Y0563010D01*
X0945930Y0562720D01*
X0945500Y0562460D01*
X0945050Y0562240D01*
X0944590Y0562060D01*
X0944110Y0561910D01*
X0943620Y0561800D01*
X0943130Y0561730D01*
X0942630Y0561700D01*
X0942120Y0561710D01*
X0941630Y0561760D01*
X0941130Y0561850D01*
X0940650Y0561980D01*
X0940180Y0562140D01*
X0939720Y0562350D01*
X0939280Y0562590D01*
X0938860Y0562860D01*
X0938460Y0563160D01*
X0938090Y0563500D01*
X0937750Y0563870D01*
X0937430Y0564260D01*
X0937150Y0564670D01*
X0936900Y0565110D01*
X0936690Y0565560D01*
X0936520Y0566030D01*
X0936380Y0566510D01*
X0936280Y0567000D01*
X0936220Y0567500D01*
X0936200Y0568000D01*
X0909700Y0568000D02*
X0909720Y0568500D01*
X0909780Y0569000D01*
X0909880Y0569490D01*
X0910020Y0569970D01*
X0910190Y0570440D01*
X0910400Y0570890D01*
X0910650Y0571330D01*
X0910930Y0571740D01*
X0911250Y0572130D01*
X0911590Y0572500D01*
X0911960Y0572840D01*
X0912360Y0573140D01*
X0912780Y0573410D01*
X0913220Y0573650D01*
X0913680Y0573860D01*
X0914150Y0574020D01*
X0914630Y0574150D01*
X0915130Y0574240D01*
X0915620Y0574290D01*
X0916130Y0574300D01*
X0916630Y0574270D01*
X0917120Y0574200D01*
X0917610Y0574090D01*
X0918090Y0573940D01*
X0918550Y0573760D01*
X0919000Y0573540D01*
X0919430Y0573280D01*
X0919840Y0572990D01*
X0920230Y0572670D01*
X0920590Y0572320D01*
X0920910Y0571940D01*
X0921210Y0571540D01*
X0921480Y0571110D01*
X0921710Y0570670D01*
X0921900Y0570210D01*
X0922060Y0569730D01*
X0922180Y0569240D01*
X0922260Y0568750D01*
X0922300Y0568250D01*
X0922300Y0567750D01*
X0922260Y0567250D01*
X0922180Y0566760D01*
X0922060Y0566270D01*
X0921900Y0565790D01*
X0921710Y0565330D01*
X0921480Y0564890D01*
X0921210Y0564460D01*
X0920910Y0564060D01*
X0920590Y0563680D01*
X0920230Y0563330D01*
X0919840Y0563010D01*
X0919430Y0562720D01*
X0919000Y0562460D01*
X0918550Y0562240D01*
X0918090Y0562060D01*
X0917610Y0561910D01*
X0917120Y0561800D01*
X0916630Y0561730D01*
X0916130Y0561700D01*
X0915620Y0561710D01*
X0915130Y0561760D01*
X0914630Y0561850D01*
X0914150Y0561980D01*
X0913680Y0562140D01*
X0913220Y0562350D01*
X0912780Y0562590D01*
X0912360Y0562860D01*
X0911960Y0563160D01*
X0911590Y0563500D01*
X0911250Y0563870D01*
X0910930Y0564260D01*
X0910650Y0564670D01*
X0910400Y0565110D01*
X0910190Y0565560D01*
X0910020Y0566030D01*
X0909880Y0566510D01*
X0909780Y0567000D01*
X0909720Y0567500D01*
X0909700Y0568000D01*
X0887700Y0568000D02*
X0887720Y0568500D01*
X0887780Y0569000D01*
X0887880Y0569490D01*
X0888020Y0569970D01*
X0888190Y0570440D01*
X0888400Y0570890D01*
X0888650Y0571330D01*
X0888930Y0571740D01*
X0889250Y0572130D01*
X0889590Y0572500D01*
X0889960Y0572840D01*
X0890360Y0573140D01*
X0890780Y0573410D01*
X0891220Y0573650D01*
X0891680Y0573860D01*
X0892150Y0574020D01*
X0892630Y0574150D01*
X0893130Y0574240D01*
X0893620Y0574290D01*
X0894130Y0574300D01*
X0894630Y0574270D01*
X0895120Y0574200D01*
X0895610Y0574090D01*
X0896090Y0573940D01*
X0896550Y0573760D01*
X0897000Y0573540D01*
X0897430Y0573280D01*
X0897840Y0572990D01*
X0898230Y0572670D01*
X0898590Y0572320D01*
X0898910Y0571940D01*
X0899210Y0571540D01*
X0899480Y0571110D01*
X0899710Y0570670D01*
X0899900Y0570210D01*
X0900060Y0569730D01*
X0900180Y0569240D01*
X0900260Y0568750D01*
X0900300Y0568250D01*
X0900300Y0567750D01*
X0900260Y0567250D01*
X0900180Y0566760D01*
X0900060Y0566270D01*
X0899900Y0565790D01*
X0899710Y0565330D01*
X0899480Y0564890D01*
X0899210Y0564460D01*
X0898910Y0564060D01*
X0898590Y0563680D01*
X0898230Y0563330D01*
X0897840Y0563010D01*
X0897430Y0562720D01*
X0897000Y0562460D01*
X0896550Y0562240D01*
X0896090Y0562060D01*
X0895610Y0561910D01*
X0895120Y0561800D01*
X0894630Y0561730D01*
X0894130Y0561700D01*
X0893620Y0561710D01*
X0893130Y0561760D01*
X0892630Y0561850D01*
X0892150Y0561980D01*
X0891680Y0562140D01*
X0891220Y0562350D01*
X0890780Y0562590D01*
X0890360Y0562860D01*
X0889960Y0563160D01*
X0889590Y0563500D01*
X0889250Y0563870D01*
X0888930Y0564260D01*
X0888650Y0564670D01*
X0888400Y0565110D01*
X0888190Y0565560D01*
X0888020Y0566030D01*
X0887880Y0566510D01*
X0887780Y0567000D01*
X0887720Y0567500D01*
X0887700Y0568000D01*
X0860700Y0568000D02*
X0860720Y0568500D01*
X0860780Y0569000D01*
X0860880Y0569490D01*
X0861020Y0569970D01*
X0861190Y0570440D01*
X0861400Y0570890D01*
X0861650Y0571330D01*
X0861930Y0571740D01*
X0862250Y0572130D01*
X0862590Y0572500D01*
X0862960Y0572840D01*
X0863360Y0573140D01*
X0863780Y0573410D01*
X0864220Y0573650D01*
X0864680Y0573860D01*
X0865150Y0574020D01*
X0865630Y0574150D01*
X0866130Y0574240D01*
X0866620Y0574290D01*
X0867130Y0574300D01*
X0867630Y0574270D01*
X0868120Y0574200D01*
X0868610Y0574090D01*
X0869090Y0573940D01*
X0869550Y0573760D01*
X0870000Y0573540D01*
X0870430Y0573280D01*
X0870840Y0572990D01*
X0871230Y0572670D01*
X0871590Y0572320D01*
X0871910Y0571940D01*
X0872210Y0571540D01*
X0872480Y0571110D01*
X0872710Y0570670D01*
X0872900Y0570210D01*
X0873060Y0569730D01*
X0873180Y0569240D01*
X0873260Y0568750D01*
X0873300Y0568250D01*
X0873300Y0567750D01*
X0873260Y0567250D01*
X0873180Y0566760D01*
X0873060Y0566270D01*
X0872900Y0565790D01*
X0872710Y0565330D01*
X0872480Y0564890D01*
X0872210Y0564460D01*
X0871910Y0564060D01*
X0871590Y0563680D01*
X0871230Y0563330D01*
X0870840Y0563010D01*
X0870430Y0562720D01*
X0870000Y0562460D01*
X0869550Y0562240D01*
X0869090Y0562060D01*
X0868610Y0561910D01*
X0868120Y0561800D01*
X0867630Y0561730D01*
X0867130Y0561700D01*
X0866620Y0561710D01*
X0866130Y0561760D01*
X0865630Y0561850D01*
X0865150Y0561980D01*
X0864680Y0562140D01*
X0864220Y0562350D01*
X0863780Y0562590D01*
X0863360Y0562860D01*
X0862960Y0563160D01*
X0862590Y0563500D01*
X0862250Y0563870D01*
X0861930Y0564260D01*
X0861650Y0564670D01*
X0861400Y0565110D01*
X0861190Y0565560D01*
X0861020Y0566030D01*
X0860880Y0566510D01*
X0860780Y0567000D01*
X0860720Y0567500D01*
X0860700Y0568000D01*
X0838700Y0568000D02*
X0838720Y0568500D01*
X0838780Y0569000D01*
X0838880Y0569490D01*
X0839020Y0569970D01*
X0839190Y0570440D01*
X0839400Y0570890D01*
X0839650Y0571330D01*
X0839930Y0571740D01*
X0840250Y0572130D01*
X0840590Y0572500D01*
X0840960Y0572840D01*
X0841360Y0573140D01*
X0841780Y0573410D01*
X0842220Y0573650D01*
X0842680Y0573860D01*
X0843150Y0574020D01*
X0843630Y0574150D01*
X0844130Y0574240D01*
X0844620Y0574290D01*
X0845130Y0574300D01*
X0845630Y0574270D01*
X0846120Y0574200D01*
X0846610Y0574090D01*
X0847090Y0573940D01*
X0847550Y0573760D01*
X0848000Y0573540D01*
X0848430Y0573280D01*
X0848840Y0572990D01*
X0849230Y0572670D01*
X0849590Y0572320D01*
X0849910Y0571940D01*
X0850210Y0571540D01*
X0850480Y0571110D01*
X0850710Y0570670D01*
X0850900Y0570210D01*
X0851060Y0569730D01*
X0851180Y0569240D01*
X0851260Y0568750D01*
X0851300Y0568250D01*
X0851300Y0567750D01*
X0851260Y0567250D01*
X0851180Y0566760D01*
X0851060Y0566270D01*
X0850900Y0565790D01*
X0850710Y0565330D01*
X0850480Y0564890D01*
X0850210Y0564460D01*
X0849910Y0564060D01*
X0849590Y0563680D01*
X0849230Y0563330D01*
X0848840Y0563010D01*
X0848430Y0562720D01*
X0848000Y0562460D01*
X0847550Y0562240D01*
X0847090Y0562060D01*
X0846610Y0561910D01*
X0846120Y0561800D01*
X0845630Y0561730D01*
X0845130Y0561700D01*
X0844620Y0561710D01*
X0844130Y0561760D01*
X0843630Y0561850D01*
X0843150Y0561980D01*
X0842680Y0562140D01*
X0842220Y0562350D01*
X0841780Y0562590D01*
X0841360Y0562860D01*
X0840960Y0563160D01*
X0840590Y0563500D01*
X0840250Y0563870D01*
X0839930Y0564260D01*
X0839650Y0564670D01*
X0839400Y0565110D01*
X0839190Y0565560D01*
X0839020Y0566030D01*
X0838880Y0566510D01*
X0838780Y0567000D01*
X0838720Y0567500D01*
X0838700Y0568000D01*
X0809700Y0568500D02*
X0809720Y0569000D01*
X0809780Y0569500D01*
X0809880Y0569990D01*
X0810020Y0570470D01*
X0810190Y0570940D01*
X0810400Y0571390D01*
X0810650Y0571830D01*
X0810930Y0572240D01*
X0811250Y0572630D01*
X0811590Y0573000D01*
X0811960Y0573340D01*
X0812360Y0573640D01*
X0812780Y0573910D01*
X0813220Y0574150D01*
X0813680Y0574360D01*
X0814150Y0574520D01*
X0814630Y0574650D01*
X0815130Y0574740D01*
X0815620Y0574790D01*
X0816130Y0574800D01*
X0816630Y0574770D01*
X0817120Y0574700D01*
X0817610Y0574590D01*
X0818090Y0574440D01*
X0818550Y0574260D01*
X0819000Y0574040D01*
X0819430Y0573780D01*
X0819840Y0573490D01*
X0820230Y0573170D01*
X0820590Y0572820D01*
X0820910Y0572440D01*
X0821210Y0572040D01*
X0821480Y0571610D01*
X0821710Y0571170D01*
X0821900Y0570710D01*
X0822060Y0570230D01*
X0822180Y0569740D01*
X0822260Y0569250D01*
X0822300Y0568750D01*
X0822300Y0568250D01*
X0822260Y0567750D01*
X0822180Y0567260D01*
X0822060Y0566770D01*
X0821900Y0566290D01*
X0821710Y0565830D01*
X0821480Y0565390D01*
X0821210Y0564960D01*
X0820910Y0564560D01*
X0820590Y0564180D01*
X0820230Y0563830D01*
X0819840Y0563510D01*
X0819430Y0563220D01*
X0819000Y0562960D01*
X0818550Y0562740D01*
X0818090Y0562560D01*
X0817610Y0562410D01*
X0817120Y0562300D01*
X0816630Y0562230D01*
X0816130Y0562200D01*
X0815620Y0562210D01*
X0815130Y0562260D01*
X0814630Y0562350D01*
X0814150Y0562480D01*
X0813680Y0562640D01*
X0813220Y0562850D01*
X0812780Y0563090D01*
X0812360Y0563360D01*
X0811960Y0563660D01*
X0811590Y0564000D01*
X0811250Y0564370D01*
X0810930Y0564760D01*
X0810650Y0565170D01*
X0810400Y0565610D01*
X0810190Y0566060D01*
X0810020Y0566530D01*
X0809880Y0567010D01*
X0809780Y0567500D01*
X0809720Y0568000D01*
X0809700Y0568500D01*
X0789200Y0568500D02*
X0789220Y0569000D01*
X0789280Y0569500D01*
X0789380Y0569990D01*
X0789520Y0570470D01*
X0789690Y0570940D01*
X0789900Y0571390D01*
X0790150Y0571830D01*
X0790430Y0572240D01*
X0790750Y0572630D01*
X0791090Y0573000D01*
X0791460Y0573340D01*
X0791860Y0573640D01*
X0792280Y0573910D01*
X0792720Y0574150D01*
X0793180Y0574360D01*
X0793650Y0574520D01*
X0794130Y0574650D01*
X0794630Y0574740D01*
X0795120Y0574790D01*
X0795630Y0574800D01*
X0796130Y0574770D01*
X0796620Y0574700D01*
X0797110Y0574590D01*
X0797590Y0574440D01*
X0798050Y0574260D01*
X0798500Y0574040D01*
X0798930Y0573780D01*
X0799340Y0573490D01*
X0799730Y0573170D01*
X0800090Y0572820D01*
X0800410Y0572440D01*
X0800710Y0572040D01*
X0800980Y0571610D01*
X0801210Y0571170D01*
X0801400Y0570710D01*
X0801560Y0570230D01*
X0801680Y0569740D01*
X0801760Y0569250D01*
X0801800Y0568750D01*
X0801800Y0568250D01*
X0801760Y0567750D01*
X0801680Y0567260D01*
X0801560Y0566770D01*
X0801400Y0566290D01*
X0801210Y0565830D01*
X0800980Y0565390D01*
X0800710Y0564960D01*
X0800410Y0564560D01*
X0800090Y0564180D01*
X0799730Y0563830D01*
X0799340Y0563510D01*
X0798930Y0563220D01*
X0798500Y0562960D01*
X0798050Y0562740D01*
X0797590Y0562560D01*
X0797110Y0562410D01*
X0796620Y0562300D01*
X0796130Y0562230D01*
X0795630Y0562200D01*
X0795120Y0562210D01*
X0794630Y0562260D01*
X0794130Y0562350D01*
X0793650Y0562480D01*
X0793180Y0562640D01*
X0792720Y0562850D01*
X0792280Y0563090D01*
X0791860Y0563360D01*
X0791460Y0563660D01*
X0791090Y0564000D01*
X0790750Y0564370D01*
X0790430Y0564760D01*
X0790150Y0565170D01*
X0789900Y0565610D01*
X0789690Y0566060D01*
X0789520Y0566530D01*
X0789380Y0567010D01*
X0789280Y0567500D01*
X0789220Y0568000D01*
X0789200Y0568500D01*
X0959700Y0568000D02*
X0959720Y0568500D01*
X0959780Y0569000D01*
X0959880Y0569490D01*
X0960020Y0569970D01*
X0960190Y0570440D01*
X0960400Y0570890D01*
X0960650Y0571330D01*
X0960930Y0571740D01*
X0961250Y0572130D01*
X0961590Y0572500D01*
X0961960Y0572840D01*
X0962360Y0573140D01*
X0962780Y0573410D01*
X0963220Y0573650D01*
X0963680Y0573860D01*
X0964150Y0574020D01*
X0964630Y0574150D01*
X0965130Y0574240D01*
X0965620Y0574290D01*
X0966130Y0574300D01*
X0966630Y0574270D01*
X0967120Y0574200D01*
X0967610Y0574090D01*
X0968090Y0573940D01*
X0968550Y0573760D01*
X0969000Y0573540D01*
X0969430Y0573280D01*
X0969840Y0572990D01*
X0970230Y0572670D01*
X0970590Y0572320D01*
X0970910Y0571940D01*
X0971210Y0571540D01*
X0971480Y0571110D01*
X0971710Y0570670D01*
X0971900Y0570210D01*
X0972060Y0569730D01*
X0972180Y0569240D01*
X0972260Y0568750D01*
X0972300Y0568250D01*
X0972300Y0567750D01*
X0972260Y0567250D01*
X0972180Y0566760D01*
X0972060Y0566270D01*
X0971900Y0565790D01*
X0971710Y0565330D01*
X0971480Y0564890D01*
X0971210Y0564460D01*
X0970910Y0564060D01*
X0970590Y0563680D01*
X0970230Y0563330D01*
X0969840Y0563010D01*
X0969430Y0562720D01*
X0969000Y0562460D01*
X0968550Y0562240D01*
X0968090Y0562060D01*
X0967610Y0561910D01*
X0967120Y0561800D01*
X0966630Y0561730D01*
X0966130Y0561700D01*
X0965620Y0561710D01*
X0965130Y0561760D01*
X0964630Y0561850D01*
X0964150Y0561980D01*
X0963680Y0562140D01*
X0963220Y0562350D01*
X0962780Y0562590D01*
X0962360Y0562860D01*
X0961960Y0563160D01*
X0961590Y0563500D01*
X0961250Y0563870D01*
X0960930Y0564260D01*
X0960650Y0564670D01*
X0960400Y0565110D01*
X0960190Y0565560D01*
X0960020Y0566030D01*
X0959880Y0566510D01*
X0959780Y0567000D01*
X0959720Y0567500D01*
X0959700Y0568000D01*
D906*
X0786690Y0067630D02*
X0725270Y0067630D01*
X0725270Y0020380D01*
X0786690Y0020380D01*
X0786690Y0067630D01*
X1047500Y0020000D02*
G75*
%LPD*%
D318*
X1047500Y0020000D02*
X1047500Y0120500D01*
X1058000Y0120500D01*
X1058000Y0130500D01*
X1047500Y0130500D01*
X1047500Y0582000D01*
X1377500Y0582000D01*
X1377500Y0130000D01*
X1367000Y0130000D01*
X1367000Y0120500D01*
X1377500Y0120500D01*
X1377500Y0020000D01*
X1047500Y0020000D01*
D889*
X1231890Y0025440D02*
X1231890Y0099790D01*
X1237070Y0106000D02*
X1350500Y0106000D01*
D689*
X1346500Y0046550D02*
X1346520Y0046860D01*
X1346580Y0047170D01*
X1346670Y0047470D01*
X1346800Y0047760D01*
X1346970Y0048030D01*
X1347170Y0048270D01*
X1347390Y0048490D01*
X1347650Y0048680D01*
X1347920Y0048840D01*
X1348210Y0048960D01*
X1348510Y0049050D01*
X1348820Y0049100D01*
X1349140Y0049110D01*
X1349450Y0049080D01*
X1349760Y0049010D01*
X1350060Y0048910D01*
X1350340Y0048770D01*
X1350600Y0048590D01*
X1350840Y0048390D01*
X1351050Y0048150D01*
X1351240Y0047900D01*
X1351390Y0047620D01*
X1351500Y0047330D01*
X1351580Y0047020D01*
X1351620Y0046710D01*
X1351620Y0046390D01*
X1351580Y0046080D01*
X1351500Y0045770D01*
X1351390Y0045480D01*
X1351240Y0045200D01*
X1351050Y0044950D01*
X1350840Y0044710D01*
X1350600Y0044510D01*
X1350340Y0044330D01*
X1350060Y0044190D01*
X1349760Y0044090D01*
X1349450Y0044020D01*
X1349140Y0043990D01*
X1348820Y0044000D01*
X1348510Y0044050D01*
X1348210Y0044140D01*
X1347920Y0044260D01*
X1347650Y0044420D01*
X1347390Y0044610D01*
X1347170Y0044830D01*
X1346970Y0045070D01*
X1346800Y0045340D01*
X1346670Y0045630D01*
X1346580Y0045930D01*
X1346520Y0046240D01*
X1346500Y0046550D01*
X1291380Y0046550D02*
X1291400Y0046860D01*
X1291460Y0047170D01*
X1291550Y0047470D01*
X1291680Y0047760D01*
X1291850Y0048030D01*
X1292050Y0048270D01*
X1292270Y0048490D01*
X1292530Y0048680D01*
X1292800Y0048840D01*
X1293090Y0048960D01*
X1293390Y0049050D01*
X1293700Y0049100D01*
X1294020Y0049110D01*
X1294330Y0049080D01*
X1294640Y0049010D01*
X1294940Y0048910D01*
X1295220Y0048770D01*
X1295480Y0048590D01*
X1295720Y0048390D01*
X1295930Y0048150D01*
X1296120Y0047900D01*
X1296270Y0047620D01*
X1296380Y0047330D01*
X1296460Y0047020D01*
X1296500Y0046710D01*
X1296500Y0046390D01*
X1296460Y0046080D01*
X1296380Y0045770D01*
X1296270Y0045480D01*
X1296120Y0045200D01*
X1295930Y0044950D01*
X1295720Y0044710D01*
X1295480Y0044510D01*
X1295220Y0044330D01*
X1294940Y0044190D01*
X1294640Y0044090D01*
X1294330Y0044020D01*
X1294020Y0043990D01*
X1293700Y0044000D01*
X1293390Y0044050D01*
X1293090Y0044140D01*
X1292800Y0044260D01*
X1292530Y0044420D01*
X1292270Y0044610D01*
X1292050Y0044830D01*
X1291850Y0045070D01*
X1291680Y0045340D01*
X1291550Y0045630D01*
X1291460Y0045930D01*
X1291400Y0046240D01*
X1291380Y0046550D01*
X1278700Y0568000D02*
X1278720Y0568500D01*
X1278780Y0569000D01*
X1278880Y0569490D01*
X1279020Y0569970D01*
X1279190Y0570440D01*
X1279400Y0570890D01*
X1279650Y0571330D01*
X1279930Y0571740D01*
X1280250Y0572130D01*
X1280590Y0572500D01*
X1280960Y0572840D01*
X1281360Y0573140D01*
X1281780Y0573410D01*
X1282220Y0573650D01*
X1282680Y0573860D01*
X1283150Y0574020D01*
X1283630Y0574150D01*
X1284130Y0574240D01*
X1284620Y0574290D01*
X1285130Y0574300D01*
X1285630Y0574270D01*
X1286120Y0574200D01*
X1286610Y0574090D01*
X1287090Y0573940D01*
X1287550Y0573760D01*
X1288000Y0573540D01*
X1288430Y0573280D01*
X1288840Y0572990D01*
X1289230Y0572670D01*
X1289590Y0572320D01*
X1289910Y0571940D01*
X1290210Y0571540D01*
X1290480Y0571110D01*
X1290710Y0570670D01*
X1290900Y0570210D01*
X1291060Y0569730D01*
X1291180Y0569240D01*
X1291260Y0568750D01*
X1291300Y0568250D01*
X1291300Y0567750D01*
X1291260Y0567250D01*
X1291180Y0566760D01*
X1291060Y0566270D01*
X1290900Y0565790D01*
X1290710Y0565330D01*
X1290480Y0564890D01*
X1290210Y0564460D01*
X1289910Y0564060D01*
X1289590Y0563680D01*
X1289230Y0563330D01*
X1288840Y0563010D01*
X1288430Y0562720D01*
X1288000Y0562460D01*
X1287550Y0562240D01*
X1287090Y0562060D01*
X1286610Y0561910D01*
X1286120Y0561800D01*
X1285630Y0561730D01*
X1285130Y0561700D01*
X1284620Y0561710D01*
X1284130Y0561760D01*
X1283630Y0561850D01*
X1283150Y0561980D01*
X1282680Y0562140D01*
X1282220Y0562350D01*
X1281780Y0562590D01*
X1281360Y0562860D01*
X1280960Y0563160D01*
X1280590Y0563500D01*
X1280250Y0563870D01*
X1279930Y0564260D01*
X1279650Y0564670D01*
X1279400Y0565110D01*
X1279190Y0565560D01*
X1279020Y0566030D01*
X1278880Y0566510D01*
X1278780Y0567000D01*
X1278720Y0567500D01*
X1278700Y0568000D01*
X1252200Y0568000D02*
X1252220Y0568500D01*
X1252280Y0569000D01*
X1252380Y0569490D01*
X1252520Y0569970D01*
X1252690Y0570440D01*
X1252900Y0570890D01*
X1253150Y0571330D01*
X1253430Y0571740D01*
X1253750Y0572130D01*
X1254090Y0572500D01*
X1254460Y0572840D01*
X1254860Y0573140D01*
X1255280Y0573410D01*
X1255720Y0573650D01*
X1256180Y0573860D01*
X1256650Y0574020D01*
X1257130Y0574150D01*
X1257630Y0574240D01*
X1258120Y0574290D01*
X1258630Y0574300D01*
X1259130Y0574270D01*
X1259620Y0574200D01*
X1260110Y0574090D01*
X1260590Y0573940D01*
X1261050Y0573760D01*
X1261500Y0573540D01*
X1261930Y0573280D01*
X1262340Y0572990D01*
X1262730Y0572670D01*
X1263090Y0572320D01*
X1263410Y0571940D01*
X1263710Y0571540D01*
X1263980Y0571110D01*
X1264210Y0570670D01*
X1264400Y0570210D01*
X1264560Y0569730D01*
X1264680Y0569240D01*
X1264760Y0568750D01*
X1264800Y0568250D01*
X1264800Y0567750D01*
X1264760Y0567250D01*
X1264680Y0566760D01*
X1264560Y0566270D01*
X1264400Y0565790D01*
X1264210Y0565330D01*
X1263980Y0564890D01*
X1263710Y0564460D01*
X1263410Y0564060D01*
X1263090Y0563680D01*
X1262730Y0563330D01*
X1262340Y0563010D01*
X1261930Y0562720D01*
X1261500Y0562460D01*
X1261050Y0562240D01*
X1260590Y0562060D01*
X1260110Y0561910D01*
X1259620Y0561800D01*
X1259130Y0561730D01*
X1258630Y0561700D01*
X1258120Y0561710D01*
X1257630Y0561760D01*
X1257130Y0561850D01*
X1256650Y0561980D01*
X1256180Y0562140D01*
X1255720Y0562350D01*
X1255280Y0562590D01*
X1254860Y0562860D01*
X1254460Y0563160D01*
X1254090Y0563500D01*
X1253750Y0563870D01*
X1253430Y0564260D01*
X1253150Y0564670D01*
X1252900Y0565110D01*
X1252690Y0565560D01*
X1252520Y0566030D01*
X1252380Y0566510D01*
X1252280Y0567000D01*
X1252220Y0567500D01*
X1252200Y0568000D01*
X1230200Y0568000D02*
X1230220Y0568500D01*
X1230280Y0569000D01*
X1230380Y0569490D01*
X1230520Y0569970D01*
X1230690Y0570440D01*
X1230900Y0570890D01*
X1231150Y0571330D01*
X1231430Y0571740D01*
X1231750Y0572130D01*
X1232090Y0572500D01*
X1232460Y0572840D01*
X1232860Y0573140D01*
X1233280Y0573410D01*
X1233720Y0573650D01*
X1234180Y0573860D01*
X1234650Y0574020D01*
X1235130Y0574150D01*
X1235630Y0574240D01*
X1236120Y0574290D01*
X1236630Y0574300D01*
X1237130Y0574270D01*
X1237620Y0574200D01*
X1238110Y0574090D01*
X1238590Y0573940D01*
X1239050Y0573760D01*
X1239500Y0573540D01*
X1239930Y0573280D01*
X1240340Y0572990D01*
X1240730Y0572670D01*
X1241090Y0572320D01*
X1241410Y0571940D01*
X1241710Y0571540D01*
X1241980Y0571110D01*
X1242210Y0570670D01*
X1242400Y0570210D01*
X1242560Y0569730D01*
X1242680Y0569240D01*
X1242760Y0568750D01*
X1242800Y0568250D01*
X1242800Y0567750D01*
X1242760Y0567250D01*
X1242680Y0566760D01*
X1242560Y0566270D01*
X1242400Y0565790D01*
X1242210Y0565330D01*
X1241980Y0564890D01*
X1241710Y0564460D01*
X1241410Y0564060D01*
X1241090Y0563680D01*
X1240730Y0563330D01*
X1240340Y0563010D01*
X1239930Y0562720D01*
X1239500Y0562460D01*
X1239050Y0562240D01*
X1238590Y0562060D01*
X1238110Y0561910D01*
X1237620Y0561800D01*
X1237130Y0561730D01*
X1236630Y0561700D01*
X1236120Y0561710D01*
X1235630Y0561760D01*
X1235130Y0561850D01*
X1234650Y0561980D01*
X1234180Y0562140D01*
X1233720Y0562350D01*
X1233280Y0562590D01*
X1232860Y0562860D01*
X1232460Y0563160D01*
X1232090Y0563500D01*
X1231750Y0563870D01*
X1231430Y0564260D01*
X1231150Y0564670D01*
X1230900Y0565110D01*
X1230690Y0565560D01*
X1230520Y0566030D01*
X1230380Y0566510D01*
X1230280Y0567000D01*
X1230220Y0567500D01*
X1230200Y0568000D01*
X1203200Y0568000D02*
X1203220Y0568500D01*
X1203280Y0569000D01*
X1203380Y0569490D01*
X1203520Y0569970D01*
X1203690Y0570440D01*
X1203900Y0570890D01*
X1204150Y0571330D01*
X1204430Y0571740D01*
X1204750Y0572130D01*
X1205090Y0572500D01*
X1205460Y0572840D01*
X1205860Y0573140D01*
X1206280Y0573410D01*
X1206720Y0573650D01*
X1207180Y0573860D01*
X1207650Y0574020D01*
X1208130Y0574150D01*
X1208630Y0574240D01*
X1209120Y0574290D01*
X1209630Y0574300D01*
X1210130Y0574270D01*
X1210620Y0574200D01*
X1211110Y0574090D01*
X1211590Y0573940D01*
X1212050Y0573760D01*
X1212500Y0573540D01*
X1212930Y0573280D01*
X1213340Y0572990D01*
X1213730Y0572670D01*
X1214090Y0572320D01*
X1214410Y0571940D01*
X1214710Y0571540D01*
X1214980Y0571110D01*
X1215210Y0570670D01*
X1215400Y0570210D01*
X1215560Y0569730D01*
X1215680Y0569240D01*
X1215760Y0568750D01*
X1215800Y0568250D01*
X1215800Y0567750D01*
X1215760Y0567250D01*
X1215680Y0566760D01*
X1215560Y0566270D01*
X1215400Y0565790D01*
X1215210Y0565330D01*
X1214980Y0564890D01*
X1214710Y0564460D01*
X1214410Y0564060D01*
X1214090Y0563680D01*
X1213730Y0563330D01*
X1213340Y0563010D01*
X1212930Y0562720D01*
X1212500Y0562460D01*
X1212050Y0562240D01*
X1211590Y0562060D01*
X1211110Y0561910D01*
X1210620Y0561800D01*
X1210130Y0561730D01*
X1209630Y0561700D01*
X1209120Y0561710D01*
X1208630Y0561760D01*
X1208130Y0561850D01*
X1207650Y0561980D01*
X1207180Y0562140D01*
X1206720Y0562350D01*
X1206280Y0562590D01*
X1205860Y0562860D01*
X1205460Y0563160D01*
X1205090Y0563500D01*
X1204750Y0563870D01*
X1204430Y0564260D01*
X1204150Y0564670D01*
X1203900Y0565110D01*
X1203690Y0565560D01*
X1203520Y0566030D01*
X1203380Y0566510D01*
X1203280Y0567000D01*
X1203220Y0567500D01*
X1203200Y0568000D01*
X1181200Y0568000D02*
X1181220Y0568500D01*
X1181280Y0569000D01*
X1181380Y0569490D01*
X1181520Y0569970D01*
X1181690Y0570440D01*
X1181900Y0570890D01*
X1182150Y0571330D01*
X1182430Y0571740D01*
X1182750Y0572130D01*
X1183090Y0572500D01*
X1183460Y0572840D01*
X1183860Y0573140D01*
X1184280Y0573410D01*
X1184720Y0573650D01*
X1185180Y0573860D01*
X1185650Y0574020D01*
X1186130Y0574150D01*
X1186630Y0574240D01*
X1187120Y0574290D01*
X1187630Y0574300D01*
X1188130Y0574270D01*
X1188620Y0574200D01*
X1189110Y0574090D01*
X1189590Y0573940D01*
X1190050Y0573760D01*
X1190500Y0573540D01*
X1190930Y0573280D01*
X1191340Y0572990D01*
X1191730Y0572670D01*
X1192090Y0572320D01*
X1192410Y0571940D01*
X1192710Y0571540D01*
X1192980Y0571110D01*
X1193210Y0570670D01*
X1193400Y0570210D01*
X1193560Y0569730D01*
X1193680Y0569240D01*
X1193760Y0568750D01*
X1193800Y0568250D01*
X1193800Y0567750D01*
X1193760Y0567250D01*
X1193680Y0566760D01*
X1193560Y0566270D01*
X1193400Y0565790D01*
X1193210Y0565330D01*
X1192980Y0564890D01*
X1192710Y0564460D01*
X1192410Y0564060D01*
X1192090Y0563680D01*
X1191730Y0563330D01*
X1191340Y0563010D01*
X1190930Y0562720D01*
X1190500Y0562460D01*
X1190050Y0562240D01*
X1189590Y0562060D01*
X1189110Y0561910D01*
X1188620Y0561800D01*
X1188130Y0561730D01*
X1187630Y0561700D01*
X1187120Y0561710D01*
X1186630Y0561760D01*
X1186130Y0561850D01*
X1185650Y0561980D01*
X1185180Y0562140D01*
X1184720Y0562350D01*
X1184280Y0562590D01*
X1183860Y0562860D01*
X1183460Y0563160D01*
X1183090Y0563500D01*
X1182750Y0563870D01*
X1182430Y0564260D01*
X1182150Y0564670D01*
X1181900Y0565110D01*
X1181690Y0565560D01*
X1181520Y0566030D01*
X1181380Y0566510D01*
X1181280Y0567000D01*
X1181220Y0567500D01*
X1181200Y0568000D01*
X1152200Y0568500D02*
X1152220Y0569000D01*
X1152280Y0569500D01*
X1152380Y0569990D01*
X1152520Y0570470D01*
X1152690Y0570940D01*
X1152900Y0571390D01*
X1153150Y0571830D01*
X1153430Y0572240D01*
X1153750Y0572630D01*
X1154090Y0573000D01*
X1154460Y0573340D01*
X1154860Y0573640D01*
X1155280Y0573910D01*
X1155720Y0574150D01*
X1156180Y0574360D01*
X1156650Y0574520D01*
X1157130Y0574650D01*
X1157630Y0574740D01*
X1158120Y0574790D01*
X1158630Y0574800D01*
X1159130Y0574770D01*
X1159620Y0574700D01*
X1160110Y0574590D01*
X1160590Y0574440D01*
X1161050Y0574260D01*
X1161500Y0574040D01*
X1161930Y0573780D01*
X1162340Y0573490D01*
X1162730Y0573170D01*
X1163090Y0572820D01*
X1163410Y0572440D01*
X1163710Y0572040D01*
X1163980Y0571610D01*
X1164210Y0571170D01*
X1164400Y0570710D01*
X1164560Y0570230D01*
X1164680Y0569740D01*
X1164760Y0569250D01*
X1164800Y0568750D01*
X1164800Y0568250D01*
X1164760Y0567750D01*
X1164680Y0567260D01*
X1164560Y0566770D01*
X1164400Y0566290D01*
X1164210Y0565830D01*
X1163980Y0565390D01*
X1163710Y0564960D01*
X1163410Y0564560D01*
X1163090Y0564180D01*
X1162730Y0563830D01*
X1162340Y0563510D01*
X1161930Y0563220D01*
X1161500Y0562960D01*
X1161050Y0562740D01*
X1160590Y0562560D01*
X1160110Y0562410D01*
X1159620Y0562300D01*
X1159130Y0562230D01*
X1158630Y0562200D01*
X1158120Y0562210D01*
X1157630Y0562260D01*
X1157130Y0562350D01*
X1156650Y0562480D01*
X1156180Y0562640D01*
X1155720Y0562850D01*
X1155280Y0563090D01*
X1154860Y0563360D01*
X1154460Y0563660D01*
X1154090Y0564000D01*
X1153750Y0564370D01*
X1153430Y0564760D01*
X1153150Y0565170D01*
X1152900Y0565610D01*
X1152690Y0566060D01*
X1152520Y0566530D01*
X1152380Y0567010D01*
X1152280Y0567500D01*
X1152220Y0568000D01*
X1152200Y0568500D01*
X1131700Y0568500D02*
X1131720Y0569000D01*
X1131780Y0569500D01*
X1131880Y0569990D01*
X1132020Y0570470D01*
X1132190Y0570940D01*
X1132400Y0571390D01*
X1132650Y0571830D01*
X1132930Y0572240D01*
X1133250Y0572630D01*
X1133590Y0573000D01*
X1133960Y0573340D01*
X1134360Y0573640D01*
X1134780Y0573910D01*
X1135220Y0574150D01*
X1135680Y0574360D01*
X1136150Y0574520D01*
X1136630Y0574650D01*
X1137130Y0574740D01*
X1137620Y0574790D01*
X1138130Y0574800D01*
X1138630Y0574770D01*
X1139120Y0574700D01*
X1139610Y0574590D01*
X1140090Y0574440D01*
X1140550Y0574260D01*
X1141000Y0574040D01*
X1141430Y0573780D01*
X1141840Y0573490D01*
X1142230Y0573170D01*
X1142590Y0572820D01*
X1142910Y0572440D01*
X1143210Y0572040D01*
X1143480Y0571610D01*
X1143710Y0571170D01*
X1143900Y0570710D01*
X1144060Y0570230D01*
X1144180Y0569740D01*
X1144260Y0569250D01*
X1144300Y0568750D01*
X1144300Y0568250D01*
X1144260Y0567750D01*
X1144180Y0567260D01*
X1144060Y0566770D01*
X1143900Y0566290D01*
X1143710Y0565830D01*
X1143480Y0565390D01*
X1143210Y0564960D01*
X1142910Y0564560D01*
X1142590Y0564180D01*
X1142230Y0563830D01*
X1141840Y0563510D01*
X1141430Y0563220D01*
X1141000Y0562960D01*
X1140550Y0562740D01*
X1140090Y0562560D01*
X1139610Y0562410D01*
X1139120Y0562300D01*
X1138630Y0562230D01*
X1138130Y0562200D01*
X1137620Y0562210D01*
X1137130Y0562260D01*
X1136630Y0562350D01*
X1136150Y0562480D01*
X1135680Y0562640D01*
X1135220Y0562850D01*
X1134780Y0563090D01*
X1134360Y0563360D01*
X1133960Y0563660D01*
X1133590Y0564000D01*
X1133250Y0564370D01*
X1132930Y0564760D01*
X1132650Y0565170D01*
X1132400Y0565610D01*
X1132190Y0566060D01*
X1132020Y0566530D01*
X1131880Y0567010D01*
X1131780Y0567500D01*
X1131720Y0568000D01*
X1131700Y0568500D01*
X1302200Y0568000D02*
X1302220Y0568500D01*
X1302280Y0569000D01*
X1302380Y0569490D01*
X1302520Y0569970D01*
X1302690Y0570440D01*
X1302900Y0570890D01*
X1303150Y0571330D01*
X1303430Y0571740D01*
X1303750Y0572130D01*
X1304090Y0572500D01*
X1304460Y0572840D01*
X1304860Y0573140D01*
X1305280Y0573410D01*
X1305720Y0573650D01*
X1306180Y0573860D01*
X1306650Y0574020D01*
X1307130Y0574150D01*
X1307630Y0574240D01*
X1308120Y0574290D01*
X1308630Y0574300D01*
X1309130Y0574270D01*
X1309620Y0574200D01*
X1310110Y0574090D01*
X1310590Y0573940D01*
X1311050Y0573760D01*
X1311500Y0573540D01*
X1311930Y0573280D01*
X1312340Y0572990D01*
X1312730Y0572670D01*
X1313090Y0572320D01*
X1313410Y0571940D01*
X1313710Y0571540D01*
X1313980Y0571110D01*
X1314210Y0570670D01*
X1314400Y0570210D01*
X1314560Y0569730D01*
X1314680Y0569240D01*
X1314760Y0568750D01*
X1314800Y0568250D01*
X1314800Y0567750D01*
X1314760Y0567250D01*
X1314680Y0566760D01*
X1314560Y0566270D01*
X1314400Y0565790D01*
X1314210Y0565330D01*
X1313980Y0564890D01*
X1313710Y0564460D01*
X1313410Y0564060D01*
X1313090Y0563680D01*
X1312730Y0563330D01*
X1312340Y0563010D01*
X1311930Y0562720D01*
X1311500Y0562460D01*
X1311050Y0562240D01*
X1310590Y0562060D01*
X1310110Y0561910D01*
X1309620Y0561800D01*
X1309130Y0561730D01*
X1308630Y0561700D01*
X1308120Y0561710D01*
X1307630Y0561760D01*
X1307130Y0561850D01*
X1306650Y0561980D01*
X1306180Y0562140D01*
X1305720Y0562350D01*
X1305280Y0562590D01*
X1304860Y0562860D01*
X1304460Y0563160D01*
X1304090Y0563500D01*
X1303750Y0563870D01*
X1303430Y0564260D01*
X1303150Y0564670D01*
X1302900Y0565110D01*
X1302690Y0565560D01*
X1302520Y0566030D01*
X1302380Y0566510D01*
X1302280Y0567000D01*
X1302220Y0567500D01*
X1302200Y0568000D01*
D906*
X1129190Y0067630D02*
X1067770Y0067630D01*
X1067770Y0020380D01*
X1129190Y0020380D01*
X1129190Y0067630D01*
X1390000Y0020000D02*
G75*
%LPD*%
D318*
X1390000Y0020000D02*
X1390000Y0120500D01*
X1400500Y0120500D01*
X1400500Y0130500D01*
X1390000Y0130500D01*
X1390000Y0582000D01*
X1720000Y0582000D01*
X1720000Y0130000D01*
X1709500Y0130000D01*
X1709500Y0120500D01*
X1720000Y0120500D01*
X1720000Y0020000D01*
X1390000Y0020000D01*
D889*
X1574390Y0025440D02*
X1574390Y0099790D01*
X1579570Y0106000D02*
X1693000Y0106000D01*
D689*
X1689000Y0046550D02*
X1689020Y0046860D01*
X1689080Y0047170D01*
X1689170Y0047470D01*
X1689300Y0047760D01*
X1689470Y0048030D01*
X1689670Y0048270D01*
X1689890Y0048490D01*
X1690150Y0048680D01*
X1690420Y0048840D01*
X1690710Y0048960D01*
X1691010Y0049050D01*
X1691320Y0049100D01*
X1691640Y0049110D01*
X1691950Y0049080D01*
X1692260Y0049010D01*
X1692560Y0048910D01*
X1692840Y0048770D01*
X1693100Y0048590D01*
X1693340Y0048390D01*
X1693550Y0048150D01*
X1693740Y0047900D01*
X1693890Y0047620D01*
X1694000Y0047330D01*
X1694080Y0047020D01*
X1694120Y0046710D01*
X1694120Y0046390D01*
X1694080Y0046080D01*
X1694000Y0045770D01*
X1693890Y0045480D01*
X1693740Y0045200D01*
X1693550Y0044950D01*
X1693340Y0044710D01*
X1693100Y0044510D01*
X1692840Y0044330D01*
X1692560Y0044190D01*
X1692260Y0044090D01*
X1691950Y0044020D01*
X1691640Y0043990D01*
X1691320Y0044000D01*
X1691010Y0044050D01*
X1690710Y0044140D01*
X1690420Y0044260D01*
X1690150Y0044420D01*
X1689890Y0044610D01*
X1689670Y0044830D01*
X1689470Y0045070D01*
X1689300Y0045340D01*
X1689170Y0045630D01*
X1689080Y0045930D01*
X1689020Y0046240D01*
X1689000Y0046550D01*
X1633880Y0046550D02*
X1633900Y0046860D01*
X1633960Y0047170D01*
X1634050Y0047470D01*
X1634180Y0047760D01*
X1634350Y0048030D01*
X1634550Y0048270D01*
X1634770Y0048490D01*
X1635030Y0048680D01*
X1635300Y0048840D01*
X1635590Y0048960D01*
X1635890Y0049050D01*
X1636200Y0049100D01*
X1636520Y0049110D01*
X1636830Y0049080D01*
X1637140Y0049010D01*
X1637440Y0048910D01*
X1637720Y0048770D01*
X1637980Y0048590D01*
X1638220Y0048390D01*
X1638430Y0048150D01*
X1638620Y0047900D01*
X1638770Y0047620D01*
X1638880Y0047330D01*
X1638960Y0047020D01*
X1639000Y0046710D01*
X1639000Y0046390D01*
X1638960Y0046080D01*
X1638880Y0045770D01*
X1638770Y0045480D01*
X1638620Y0045200D01*
X1638430Y0044950D01*
X1638220Y0044710D01*
X1637980Y0044510D01*
X1637720Y0044330D01*
X1637440Y0044190D01*
X1637140Y0044090D01*
X1636830Y0044020D01*
X1636520Y0043990D01*
X1636200Y0044000D01*
X1635890Y0044050D01*
X1635590Y0044140D01*
X1635300Y0044260D01*
X1635030Y0044420D01*
X1634770Y0044610D01*
X1634550Y0044830D01*
X1634350Y0045070D01*
X1634180Y0045340D01*
X1634050Y0045630D01*
X1633960Y0045930D01*
X1633900Y0046240D01*
X1633880Y0046550D01*
X1621200Y0568000D02*
X1621220Y0568500D01*
X1621280Y0569000D01*
X1621380Y0569490D01*
X1621520Y0569970D01*
X1621690Y0570440D01*
X1621900Y0570890D01*
X1622150Y0571330D01*
X1622430Y0571740D01*
X1622750Y0572130D01*
X1623090Y0572500D01*
X1623460Y0572840D01*
X1623860Y0573140D01*
X1624280Y0573410D01*
X1624720Y0573650D01*
X1625180Y0573860D01*
X1625650Y0574020D01*
X1626130Y0574150D01*
X1626630Y0574240D01*
X1627120Y0574290D01*
X1627630Y0574300D01*
X1628130Y0574270D01*
X1628620Y0574200D01*
X1629110Y0574090D01*
X1629590Y0573940D01*
X1630050Y0573760D01*
X1630500Y0573540D01*
X1630930Y0573280D01*
X1631340Y0572990D01*
X1631730Y0572670D01*
X1632090Y0572320D01*
X1632410Y0571940D01*
X1632710Y0571540D01*
X1632980Y0571110D01*
X1633210Y0570670D01*
X1633400Y0570210D01*
X1633560Y0569730D01*
X1633680Y0569240D01*
X1633760Y0568750D01*
X1633800Y0568250D01*
X1633800Y0567750D01*
X1633760Y0567250D01*
X1633680Y0566760D01*
X1633560Y0566270D01*
X1633400Y0565790D01*
X1633210Y0565330D01*
X1632980Y0564890D01*
X1632710Y0564460D01*
X1632410Y0564060D01*
X1632090Y0563680D01*
X1631730Y0563330D01*
X1631340Y0563010D01*
X1630930Y0562720D01*
X1630500Y0562460D01*
X1630050Y0562240D01*
X1629590Y0562060D01*
X1629110Y0561910D01*
X1628620Y0561800D01*
X1628130Y0561730D01*
X1627630Y0561700D01*
X1627120Y0561710D01*
X1626630Y0561760D01*
X1626130Y0561850D01*
X1625650Y0561980D01*
X1625180Y0562140D01*
X1624720Y0562350D01*
X1624280Y0562590D01*
X1623860Y0562860D01*
X1623460Y0563160D01*
X1623090Y0563500D01*
X1622750Y0563870D01*
X1622430Y0564260D01*
X1622150Y0564670D01*
X1621900Y0565110D01*
X1621690Y0565560D01*
X1621520Y0566030D01*
X1621380Y0566510D01*
X1621280Y0567000D01*
X1621220Y0567500D01*
X1621200Y0568000D01*
X1594700Y0568000D02*
X1594720Y0568500D01*
X1594780Y0569000D01*
X1594880Y0569490D01*
X1595020Y0569970D01*
X1595190Y0570440D01*
X1595400Y0570890D01*
X1595650Y0571330D01*
X1595930Y0571740D01*
X1596250Y0572130D01*
X1596590Y0572500D01*
X1596960Y0572840D01*
X1597360Y0573140D01*
X1597780Y0573410D01*
X1598220Y0573650D01*
X1598680Y0573860D01*
X1599150Y0574020D01*
X1599630Y0574150D01*
X1600130Y0574240D01*
X1600620Y0574290D01*
X1601130Y0574300D01*
X1601630Y0574270D01*
X1602120Y0574200D01*
X1602610Y0574090D01*
X1603090Y0573940D01*
X1603550Y0573760D01*
X1604000Y0573540D01*
X1604430Y0573280D01*
X1604840Y0572990D01*
X1605230Y0572670D01*
X1605590Y0572320D01*
X1605910Y0571940D01*
X1606210Y0571540D01*
X1606480Y0571110D01*
X1606710Y0570670D01*
X1606900Y0570210D01*
X1607060Y0569730D01*
X1607180Y0569240D01*
X1607260Y0568750D01*
X1607300Y0568250D01*
X1607300Y0567750D01*
X1607260Y0567250D01*
X1607180Y0566760D01*
X1607060Y0566270D01*
X1606900Y0565790D01*
X1606710Y0565330D01*
X1606480Y0564890D01*
X1606210Y0564460D01*
X1605910Y0564060D01*
X1605590Y0563680D01*
X1605230Y0563330D01*
X1604840Y0563010D01*
X1604430Y0562720D01*
X1604000Y0562460D01*
X1603550Y0562240D01*
X1603090Y0562060D01*
X1602610Y0561910D01*
X1602120Y0561800D01*
X1601630Y0561730D01*
X1601130Y0561700D01*
X1600620Y0561710D01*
X1600130Y0561760D01*
X1599630Y0561850D01*
X1599150Y0561980D01*
X1598680Y0562140D01*
X1598220Y0562350D01*
X1597780Y0562590D01*
X1597360Y0562860D01*
X1596960Y0563160D01*
X1596590Y0563500D01*
X1596250Y0563870D01*
X1595930Y0564260D01*
X1595650Y0564670D01*
X1595400Y0565110D01*
X1595190Y0565560D01*
X1595020Y0566030D01*
X1594880Y0566510D01*
X1594780Y0567000D01*
X1594720Y0567500D01*
X1594700Y0568000D01*
X1572700Y0568000D02*
X1572720Y0568500D01*
X1572780Y0569000D01*
X1572880Y0569490D01*
X1573020Y0569970D01*
X1573190Y0570440D01*
X1573400Y0570890D01*
X1573650Y0571330D01*
X1573930Y0571740D01*
X1574250Y0572130D01*
X1574590Y0572500D01*
X1574960Y0572840D01*
X1575360Y0573140D01*
X1575780Y0573410D01*
X1576220Y0573650D01*
X1576680Y0573860D01*
X1577150Y0574020D01*
X1577630Y0574150D01*
X1578130Y0574240D01*
X1578620Y0574290D01*
X1579130Y0574300D01*
X1579630Y0574270D01*
X1580120Y0574200D01*
X1580610Y0574090D01*
X1581090Y0573940D01*
X1581550Y0573760D01*
X1582000Y0573540D01*
X1582430Y0573280D01*
X1582840Y0572990D01*
X1583230Y0572670D01*
X1583590Y0572320D01*
X1583910Y0571940D01*
X1584210Y0571540D01*
X1584480Y0571110D01*
X1584710Y0570670D01*
X1584900Y0570210D01*
X1585060Y0569730D01*
X1585180Y0569240D01*
X1585260Y0568750D01*
X1585300Y0568250D01*
X1585300Y0567750D01*
X1585260Y0567250D01*
X1585180Y0566760D01*
X1585060Y0566270D01*
X1584900Y0565790D01*
X1584710Y0565330D01*
X1584480Y0564890D01*
X1584210Y0564460D01*
X1583910Y0564060D01*
X1583590Y0563680D01*
X1583230Y0563330D01*
X1582840Y0563010D01*
X1582430Y0562720D01*
X1582000Y0562460D01*
X1581550Y0562240D01*
X1581090Y0562060D01*
X1580610Y0561910D01*
X1580120Y0561800D01*
X1579630Y0561730D01*
X1579130Y0561700D01*
X1578620Y0561710D01*
X1578130Y0561760D01*
X1577630Y0561850D01*
X1577150Y0561980D01*
X1576680Y0562140D01*
X1576220Y0562350D01*
X1575780Y0562590D01*
X1575360Y0562860D01*
X1574960Y0563160D01*
X1574590Y0563500D01*
X1574250Y0563870D01*
X1573930Y0564260D01*
X1573650Y0564670D01*
X1573400Y0565110D01*
X1573190Y0565560D01*
X1573020Y0566030D01*
X1572880Y0566510D01*
X1572780Y0567000D01*
X1572720Y0567500D01*
X1572700Y0568000D01*
X1545700Y0568000D02*
X1545720Y0568500D01*
X1545780Y0569000D01*
X1545880Y0569490D01*
X1546020Y0569970D01*
X1546190Y0570440D01*
X1546400Y0570890D01*
X1546650Y0571330D01*
X1546930Y0571740D01*
X1547250Y0572130D01*
X1547590Y0572500D01*
X1547960Y0572840D01*
X1548360Y0573140D01*
X1548780Y0573410D01*
X1549220Y0573650D01*
X1549680Y0573860D01*
X1550150Y0574020D01*
X1550630Y0574150D01*
X1551130Y0574240D01*
X1551620Y0574290D01*
X1552130Y0574300D01*
X1552630Y0574270D01*
X1553120Y0574200D01*
X1553610Y0574090D01*
X1554090Y0573940D01*
X1554550Y0573760D01*
X1555000Y0573540D01*
X1555430Y0573280D01*
X1555840Y0572990D01*
X1556230Y0572670D01*
X1556590Y0572320D01*
X1556910Y0571940D01*
X1557210Y0571540D01*
X1557480Y0571110D01*
X1557710Y0570670D01*
X1557900Y0570210D01*
X1558060Y0569730D01*
X1558180Y0569240D01*
X1558260Y0568750D01*
X1558300Y0568250D01*
X1558300Y0567750D01*
X1558260Y0567250D01*
X1558180Y0566760D01*
X1558060Y0566270D01*
X1557900Y0565790D01*
X1557710Y0565330D01*
X1557480Y0564890D01*
X1557210Y0564460D01*
X1556910Y0564060D01*
X1556590Y0563680D01*
X1556230Y0563330D01*
X1555840Y0563010D01*
X1555430Y0562720D01*
X1555000Y0562460D01*
X1554550Y0562240D01*
X1554090Y0562060D01*
X1553610Y0561910D01*
X1553120Y0561800D01*
X1552630Y0561730D01*
X1552130Y0561700D01*
X1551620Y0561710D01*
X1551130Y0561760D01*
X1550630Y0561850D01*
X1550150Y0561980D01*
X1549680Y0562140D01*
X1549220Y0562350D01*
X1548780Y0562590D01*
X1548360Y0562860D01*
X1547960Y0563160D01*
X1547590Y0563500D01*
X1547250Y0563870D01*
X1546930Y0564260D01*
X1546650Y0564670D01*
X1546400Y0565110D01*
X1546190Y0565560D01*
X1546020Y0566030D01*
X1545880Y0566510D01*
X1545780Y0567000D01*
X1545720Y0567500D01*
X1545700Y0568000D01*
X1523700Y0568000D02*
X1523720Y0568500D01*
X1523780Y0569000D01*
X1523880Y0569490D01*
X1524020Y0569970D01*
X1524190Y0570440D01*
X1524400Y0570890D01*
X1524650Y0571330D01*
X1524930Y0571740D01*
X1525250Y0572130D01*
X1525590Y0572500D01*
X1525960Y0572840D01*
X1526360Y0573140D01*
X1526780Y0573410D01*
X1527220Y0573650D01*
X1527680Y0573860D01*
X1528150Y0574020D01*
X1528630Y0574150D01*
X1529130Y0574240D01*
X1529620Y0574290D01*
X1530130Y0574300D01*
X1530630Y0574270D01*
X1531120Y0574200D01*
X1531610Y0574090D01*
X1532090Y0573940D01*
X1532550Y0573760D01*
X1533000Y0573540D01*
X1533430Y0573280D01*
X1533840Y0572990D01*
X1534230Y0572670D01*
X1534590Y0572320D01*
X1534910Y0571940D01*
X1535210Y0571540D01*
X1535480Y0571110D01*
X1535710Y0570670D01*
X1535900Y0570210D01*
X1536060Y0569730D01*
X1536180Y0569240D01*
X1536260Y0568750D01*
X1536300Y0568250D01*
X1536300Y0567750D01*
X1536260Y0567250D01*
X1536180Y0566760D01*
X1536060Y0566270D01*
X1535900Y0565790D01*
X1535710Y0565330D01*
X1535480Y0564890D01*
X1535210Y0564460D01*
X1534910Y0564060D01*
X1534590Y0563680D01*
X1534230Y0563330D01*
X1533840Y0563010D01*
X1533430Y0562720D01*
X1533000Y0562460D01*
X1532550Y0562240D01*
X1532090Y0562060D01*
X1531610Y0561910D01*
X1531120Y0561800D01*
X1530630Y0561730D01*
X1530130Y0561700D01*
X1529620Y0561710D01*
X1529130Y0561760D01*
X1528630Y0561850D01*
X1528150Y0561980D01*
X1527680Y0562140D01*
X1527220Y0562350D01*
X1526780Y0562590D01*
X1526360Y0562860D01*
X1525960Y0563160D01*
X1525590Y0563500D01*
X1525250Y0563870D01*
X1524930Y0564260D01*
X1524650Y0564670D01*
X1524400Y0565110D01*
X1524190Y0565560D01*
X1524020Y0566030D01*
X1523880Y0566510D01*
X1523780Y0567000D01*
X1523720Y0567500D01*
X1523700Y0568000D01*
X1494700Y0568500D02*
X1494720Y0569000D01*
X1494780Y0569500D01*
X1494880Y0569990D01*
X1495020Y0570470D01*
X1495190Y0570940D01*
X1495400Y0571390D01*
X1495650Y0571830D01*
X1495930Y0572240D01*
X1496250Y0572630D01*
X1496590Y0573000D01*
X1496960Y0573340D01*
X1497360Y0573640D01*
X1497780Y0573910D01*
X1498220Y0574150D01*
X1498680Y0574360D01*
X1499150Y0574520D01*
X1499630Y0574650D01*
X1500130Y0574740D01*
X1500620Y0574790D01*
X1501130Y0574800D01*
X1501630Y0574770D01*
X1502120Y0574700D01*
X1502610Y0574590D01*
X1503090Y0574440D01*
X1503550Y0574260D01*
X1504000Y0574040D01*
X1504430Y0573780D01*
X1504840Y0573490D01*
X1505230Y0573170D01*
X1505590Y0572820D01*
X1505910Y0572440D01*
X1506210Y0572040D01*
X1506480Y0571610D01*
X1506710Y0571170D01*
X1506900Y0570710D01*
X1507060Y0570230D01*
X1507180Y0569740D01*
X1507260Y0569250D01*
X1507300Y0568750D01*
X1507300Y0568250D01*
X1507260Y0567750D01*
X1507180Y0567260D01*
X1507060Y0566770D01*
X1506900Y0566290D01*
X1506710Y0565830D01*
X1506480Y0565390D01*
X1506210Y0564960D01*
X1505910Y0564560D01*
X1505590Y0564180D01*
X1505230Y0563830D01*
X1504840Y0563510D01*
X1504430Y0563220D01*
X1504000Y0562960D01*
X1503550Y0562740D01*
X1503090Y0562560D01*
X1502610Y0562410D01*
X1502120Y0562300D01*
X1501630Y0562230D01*
X1501130Y0562200D01*
X1500620Y0562210D01*
X1500130Y0562260D01*
X1499630Y0562350D01*
X1499150Y0562480D01*
X1498680Y0562640D01*
X1498220Y0562850D01*
X1497780Y0563090D01*
X1497360Y0563360D01*
X1496960Y0563660D01*
X1496590Y0564000D01*
X1496250Y0564370D01*
X1495930Y0564760D01*
X1495650Y0565170D01*
X1495400Y0565610D01*
X1495190Y0566060D01*
X1495020Y0566530D01*
X1494880Y0567010D01*
X1494780Y0567500D01*
X1494720Y0568000D01*
X1494700Y0568500D01*
X1474200Y0568500D02*
X1474220Y0569000D01*
X1474280Y0569500D01*
X1474380Y0569990D01*
X1474520Y0570470D01*
X1474690Y0570940D01*
X1474900Y0571390D01*
X1475150Y0571830D01*
X1475430Y0572240D01*
X1475750Y0572630D01*
X1476090Y0573000D01*
X1476460Y0573340D01*
X1476860Y0573640D01*
X1477280Y0573910D01*
X1477720Y0574150D01*
X1478180Y0574360D01*
X1478650Y0574520D01*
X1479130Y0574650D01*
X1479630Y0574740D01*
X1480120Y0574790D01*
X1480630Y0574800D01*
X1481130Y0574770D01*
X1481620Y0574700D01*
X1482110Y0574590D01*
X1482590Y0574440D01*
X1483050Y0574260D01*
X1483500Y0574040D01*
X1483930Y0573780D01*
X1484340Y0573490D01*
X1484730Y0573170D01*
X1485090Y0572820D01*
X1485410Y0572440D01*
X1485710Y0572040D01*
X1485980Y0571610D01*
X1486210Y0571170D01*
X1486400Y0570710D01*
X1486560Y0570230D01*
X1486680Y0569740D01*
X1486760Y0569250D01*
X1486800Y0568750D01*
X1486800Y0568250D01*
X1486760Y0567750D01*
X1486680Y0567260D01*
X1486560Y0566770D01*
X1486400Y0566290D01*
X1486210Y0565830D01*
X1485980Y0565390D01*
X1485710Y0564960D01*
X1485410Y0564560D01*
X1485090Y0564180D01*
X1484730Y0563830D01*
X1484340Y0563510D01*
X1483930Y0563220D01*
X1483500Y0562960D01*
X1483050Y0562740D01*
X1482590Y0562560D01*
X1482110Y0562410D01*
X1481620Y0562300D01*
X1481130Y0562230D01*
X1480630Y0562200D01*
X1480120Y0562210D01*
X1479630Y0562260D01*
X1479130Y0562350D01*
X1478650Y0562480D01*
X1478180Y0562640D01*
X1477720Y0562850D01*
X1477280Y0563090D01*
X1476860Y0563360D01*
X1476460Y0563660D01*
X1476090Y0564000D01*
X1475750Y0564370D01*
X1475430Y0564760D01*
X1475150Y0565170D01*
X1474900Y0565610D01*
X1474690Y0566060D01*
X1474520Y0566530D01*
X1474380Y0567010D01*
X1474280Y0567500D01*
X1474220Y0568000D01*
X1474200Y0568500D01*
X1644700Y0568000D02*
X1644720Y0568500D01*
X1644780Y0569000D01*
X1644880Y0569490D01*
X1645020Y0569970D01*
X1645190Y0570440D01*
X1645400Y0570890D01*
X1645650Y0571330D01*
X1645930Y0571740D01*
X1646250Y0572130D01*
X1646590Y0572500D01*
X1646960Y0572840D01*
X1647360Y0573140D01*
X1647780Y0573410D01*
X1648220Y0573650D01*
X1648680Y0573860D01*
X1649150Y0574020D01*
X1649630Y0574150D01*
X1650130Y0574240D01*
X1650620Y0574290D01*
X1651130Y0574300D01*
X1651630Y0574270D01*
X1652120Y0574200D01*
X1652610Y0574090D01*
X1653090Y0573940D01*
X1653550Y0573760D01*
X1654000Y0573540D01*
X1654430Y0573280D01*
X1654840Y0572990D01*
X1655230Y0572670D01*
X1655590Y0572320D01*
X1655910Y0571940D01*
X1656210Y0571540D01*
X1656480Y0571110D01*
X1656710Y0570670D01*
X1656900Y0570210D01*
X1657060Y0569730D01*
X1657180Y0569240D01*
X1657260Y0568750D01*
X1657300Y0568250D01*
X1657300Y0567750D01*
X1657260Y0567250D01*
X1657180Y0566760D01*
X1657060Y0566270D01*
X1656900Y0565790D01*
X1656710Y0565330D01*
X1656480Y0564890D01*
X1656210Y0564460D01*
X1655910Y0564060D01*
X1655590Y0563680D01*
X1655230Y0563330D01*
X1654840Y0563010D01*
X1654430Y0562720D01*
X1654000Y0562460D01*
X1653550Y0562240D01*
X1653090Y0562060D01*
X1652610Y0561910D01*
X1652120Y0561800D01*
X1651630Y0561730D01*
X1651130Y0561700D01*
X1650620Y0561710D01*
X1650130Y0561760D01*
X1649630Y0561850D01*
X1649150Y0561980D01*
X1648680Y0562140D01*
X1648220Y0562350D01*
X1647780Y0562590D01*
X1647360Y0562860D01*
X1646960Y0563160D01*
X1646590Y0563500D01*
X1646250Y0563870D01*
X1645930Y0564260D01*
X1645650Y0564670D01*
X1645400Y0565110D01*
X1645190Y0565560D01*
X1645020Y0566030D01*
X1644880Y0566510D01*
X1644780Y0567000D01*
X1644720Y0567500D01*
X1644700Y0568000D01*
D906*
X1471690Y0067630D02*
X1410270Y0067630D01*
X1410270Y0020380D01*
X1471690Y0020380D01*
X1471690Y0067630D01*
X0362500Y0594500D02*
G75*
%LPD*%
D318*
X0362500Y0594500D02*
X0362500Y0695000D01*
X0373000Y0695000D01*
X0373000Y0705000D01*
X0362500Y0705000D01*
X0362500Y1156500D01*
X0692500Y1156500D01*
X0692500Y0704500D01*
X0682000Y0704500D01*
X0682000Y0695000D01*
X0692500Y0695000D01*
X0692500Y0594500D01*
X0362500Y0594500D01*
D889*
X0546890Y0599940D02*
X0546890Y0674290D01*
X0552070Y0680500D02*
X0665500Y0680500D01*
D689*
X0661500Y0621050D02*
X0661520Y0621360D01*
X0661580Y0621670D01*
X0661670Y0621970D01*
X0661800Y0622260D01*
X0661970Y0622530D01*
X0662170Y0622770D01*
X0662390Y0622990D01*
X0662650Y0623180D01*
X0662920Y0623340D01*
X0663210Y0623460D01*
X0663510Y0623550D01*
X0663820Y0623600D01*
X0664140Y0623610D01*
X0664450Y0623580D01*
X0664760Y0623510D01*
X0665060Y0623410D01*
X0665340Y0623270D01*
X0665600Y0623090D01*
X0665840Y0622890D01*
X0666050Y0622650D01*
X0666240Y0622400D01*
X0666390Y0622120D01*
X0666500Y0621830D01*
X0666580Y0621520D01*
X0666620Y0621210D01*
X0666620Y0620890D01*
X0666580Y0620580D01*
X0666500Y0620270D01*
X0666390Y0619980D01*
X0666240Y0619700D01*
X0666050Y0619450D01*
X0665840Y0619210D01*
X0665600Y0619010D01*
X0665340Y0618830D01*
X0665060Y0618690D01*
X0664760Y0618590D01*
X0664450Y0618520D01*
X0664140Y0618490D01*
X0663820Y0618500D01*
X0663510Y0618550D01*
X0663210Y0618640D01*
X0662920Y0618760D01*
X0662650Y0618920D01*
X0662390Y0619110D01*
X0662170Y0619330D01*
X0661970Y0619570D01*
X0661800Y0619840D01*
X0661670Y0620130D01*
X0661580Y0620430D01*
X0661520Y0620740D01*
X0661500Y0621050D01*
X0606380Y0621050D02*
X0606400Y0621360D01*
X0606460Y0621670D01*
X0606550Y0621970D01*
X0606680Y0622260D01*
X0606850Y0622530D01*
X0607050Y0622770D01*
X0607270Y0622990D01*
X0607530Y0623180D01*
X0607800Y0623340D01*
X0608090Y0623460D01*
X0608390Y0623550D01*
X0608700Y0623600D01*
X0609020Y0623610D01*
X0609330Y0623580D01*
X0609640Y0623510D01*
X0609940Y0623410D01*
X0610220Y0623270D01*
X0610480Y0623090D01*
X0610720Y0622890D01*
X0610930Y0622650D01*
X0611120Y0622400D01*
X0611270Y0622120D01*
X0611380Y0621830D01*
X0611460Y0621520D01*
X0611500Y0621210D01*
X0611500Y0620890D01*
X0611460Y0620580D01*
X0611380Y0620270D01*
X0611270Y0619980D01*
X0611120Y0619700D01*
X0610930Y0619450D01*
X0610720Y0619210D01*
X0610480Y0619010D01*
X0610220Y0618830D01*
X0609940Y0618690D01*
X0609640Y0618590D01*
X0609330Y0618520D01*
X0609020Y0618490D01*
X0608700Y0618500D01*
X0608390Y0618550D01*
X0608090Y0618640D01*
X0607800Y0618760D01*
X0607530Y0618920D01*
X0607270Y0619110D01*
X0607050Y0619330D01*
X0606850Y0619570D01*
X0606680Y0619840D01*
X0606550Y0620130D01*
X0606460Y0620430D01*
X0606400Y0620740D01*
X0606380Y0621050D01*
X0593700Y1142500D02*
X0593720Y1143000D01*
X0593780Y1143500D01*
X0593880Y1143990D01*
X0594020Y1144470D01*
X0594190Y1144940D01*
X0594400Y1145390D01*
X0594650Y1145830D01*
X0594930Y1146240D01*
X0595250Y1146630D01*
X0595590Y1147000D01*
X0595960Y1147340D01*
X0596360Y1147640D01*
X0596780Y1147910D01*
X0597220Y1148150D01*
X0597680Y1148360D01*
X0598150Y1148520D01*
X0598630Y1148650D01*
X0599130Y1148740D01*
X0599620Y1148790D01*
X0600130Y1148800D01*
X0600630Y1148770D01*
X0601120Y1148700D01*
X0601610Y1148590D01*
X0602090Y1148440D01*
X0602550Y1148260D01*
X0603000Y1148040D01*
X0603430Y1147780D01*
X0603840Y1147490D01*
X0604230Y1147170D01*
X0604590Y1146820D01*
X0604910Y1146440D01*
X0605210Y1146040D01*
X0605480Y1145610D01*
X0605710Y1145170D01*
X0605900Y1144710D01*
X0606060Y1144230D01*
X0606180Y1143740D01*
X0606260Y1143250D01*
X0606300Y1142750D01*
X0606300Y1142250D01*
X0606260Y1141750D01*
X0606180Y1141260D01*
X0606060Y1140770D01*
X0605900Y1140290D01*
X0605710Y1139830D01*
X0605480Y1139390D01*
X0605210Y1138960D01*
X0604910Y1138560D01*
X0604590Y1138180D01*
X0604230Y1137830D01*
X0603840Y1137510D01*
X0603430Y1137220D01*
X0603000Y1136960D01*
X0602550Y1136740D01*
X0602090Y1136560D01*
X0601610Y1136410D01*
X0601120Y1136300D01*
X0600630Y1136230D01*
X0600130Y1136200D01*
X0599620Y1136210D01*
X0599130Y1136260D01*
X0598630Y1136350D01*
X0598150Y1136480D01*
X0597680Y1136640D01*
X0597220Y1136850D01*
X0596780Y1137090D01*
X0596360Y1137360D01*
X0595960Y1137660D01*
X0595590Y1138000D01*
X0595250Y1138370D01*
X0594930Y1138760D01*
X0594650Y1139170D01*
X0594400Y1139610D01*
X0594190Y1140060D01*
X0594020Y1140530D01*
X0593880Y1141010D01*
X0593780Y1141500D01*
X0593720Y1142000D01*
X0593700Y1142500D01*
X0567200Y1142500D02*
X0567220Y1143000D01*
X0567280Y1143500D01*
X0567380Y1143990D01*
X0567520Y1144470D01*
X0567690Y1144940D01*
X0567900Y1145390D01*
X0568150Y1145830D01*
X0568430Y1146240D01*
X0568750Y1146630D01*
X0569090Y1147000D01*
X0569460Y1147340D01*
X0569860Y1147640D01*
X0570280Y1147910D01*
X0570720Y1148150D01*
X0571180Y1148360D01*
X0571650Y1148520D01*
X0572130Y1148650D01*
X0572630Y1148740D01*
X0573120Y1148790D01*
X0573630Y1148800D01*
X0574130Y1148770D01*
X0574620Y1148700D01*
X0575110Y1148590D01*
X0575590Y1148440D01*
X0576050Y1148260D01*
X0576500Y1148040D01*
X0576930Y1147780D01*
X0577340Y1147490D01*
X0577730Y1147170D01*
X0578090Y1146820D01*
X0578410Y1146440D01*
X0578710Y1146040D01*
X0578980Y1145610D01*
X0579210Y1145170D01*
X0579400Y1144710D01*
X0579560Y1144230D01*
X0579680Y1143740D01*
X0579760Y1143250D01*
X0579800Y1142750D01*
X0579800Y1142250D01*
X0579760Y1141750D01*
X0579680Y1141260D01*
X0579560Y1140770D01*
X0579400Y1140290D01*
X0579210Y1139830D01*
X0578980Y1139390D01*
X0578710Y1138960D01*
X0578410Y1138560D01*
X0578090Y1138180D01*
X0577730Y1137830D01*
X0577340Y1137510D01*
X0576930Y1137220D01*
X0576500Y1136960D01*
X0576050Y1136740D01*
X0575590Y1136560D01*
X0575110Y1136410D01*
X0574620Y1136300D01*
X0574130Y1136230D01*
X0573630Y1136200D01*
X0573120Y1136210D01*
X0572630Y1136260D01*
X0572130Y1136350D01*
X0571650Y1136480D01*
X0571180Y1136640D01*
X0570720Y1136850D01*
X0570280Y1137090D01*
X0569860Y1137360D01*
X0569460Y1137660D01*
X0569090Y1138000D01*
X0568750Y1138370D01*
X0568430Y1138760D01*
X0568150Y1139170D01*
X0567900Y1139610D01*
X0567690Y1140060D01*
X0567520Y1140530D01*
X0567380Y1141010D01*
X0567280Y1141500D01*
X0567220Y1142000D01*
X0567200Y1142500D01*
X0545200Y1142500D02*
X0545220Y1143000D01*
X0545280Y1143500D01*
X0545380Y1143990D01*
X0545520Y1144470D01*
X0545690Y1144940D01*
X0545900Y1145390D01*
X0546150Y1145830D01*
X0546430Y1146240D01*
X0546750Y1146630D01*
X0547090Y1147000D01*
X0547460Y1147340D01*
X0547860Y1147640D01*
X0548280Y1147910D01*
X0548720Y1148150D01*
X0549180Y1148360D01*
X0549650Y1148520D01*
X0550130Y1148650D01*
X0550630Y1148740D01*
X0551120Y1148790D01*
X0551630Y1148800D01*
X0552130Y1148770D01*
X0552620Y1148700D01*
X0553110Y1148590D01*
X0553590Y1148440D01*
X0554050Y1148260D01*
X0554500Y1148040D01*
X0554930Y1147780D01*
X0555340Y1147490D01*
X0555730Y1147170D01*
X0556090Y1146820D01*
X0556410Y1146440D01*
X0556710Y1146040D01*
X0556980Y1145610D01*
X0557210Y1145170D01*
X0557400Y1144710D01*
X0557560Y1144230D01*
X0557680Y1143740D01*
X0557760Y1143250D01*
X0557800Y1142750D01*
X0557800Y1142250D01*
X0557760Y1141750D01*
X0557680Y1141260D01*
X0557560Y1140770D01*
X0557400Y1140290D01*
X0557210Y1139830D01*
X0556980Y1139390D01*
X0556710Y1138960D01*
X0556410Y1138560D01*
X0556090Y1138180D01*
X0555730Y1137830D01*
X0555340Y1137510D01*
X0554930Y1137220D01*
X0554500Y1136960D01*
X0554050Y1136740D01*
X0553590Y1136560D01*
X0553110Y1136410D01*
X0552620Y1136300D01*
X0552130Y1136230D01*
X0551630Y1136200D01*
X0551120Y1136210D01*
X0550630Y1136260D01*
X0550130Y1136350D01*
X0549650Y1136480D01*
X0549180Y1136640D01*
X0548720Y1136850D01*
X0548280Y1137090D01*
X0547860Y1137360D01*
X0547460Y1137660D01*
X0547090Y1138000D01*
X0546750Y1138370D01*
X0546430Y1138760D01*
X0546150Y1139170D01*
X0545900Y1139610D01*
X0545690Y1140060D01*
X0545520Y1140530D01*
X0545380Y1141010D01*
X0545280Y1141500D01*
X0545220Y1142000D01*
X0545200Y1142500D01*
X0518200Y1142500D02*
X0518220Y1143000D01*
X0518280Y1143500D01*
X0518380Y1143990D01*
X0518520Y1144470D01*
X0518690Y1144940D01*
X0518900Y1145390D01*
X0519150Y1145830D01*
X0519430Y1146240D01*
X0519750Y1146630D01*
X0520090Y1147000D01*
X0520460Y1147340D01*
X0520860Y1147640D01*
X0521280Y1147910D01*
X0521720Y1148150D01*
X0522180Y1148360D01*
X0522650Y1148520D01*
X0523130Y1148650D01*
X0523630Y1148740D01*
X0524120Y1148790D01*
X0524630Y1148800D01*
X0525130Y1148770D01*
X0525620Y1148700D01*
X0526110Y1148590D01*
X0526590Y1148440D01*
X0527050Y1148260D01*
X0527500Y1148040D01*
X0527930Y1147780D01*
X0528340Y1147490D01*
X0528730Y1147170D01*
X0529090Y1146820D01*
X0529410Y1146440D01*
X0529710Y1146040D01*
X0529980Y1145610D01*
X0530210Y1145170D01*
X0530400Y1144710D01*
X0530560Y1144230D01*
X0530680Y1143740D01*
X0530760Y1143250D01*
X0530800Y1142750D01*
X0530800Y1142250D01*
X0530760Y1141750D01*
X0530680Y1141260D01*
X0530560Y1140770D01*
X0530400Y1140290D01*
X0530210Y1139830D01*
X0529980Y1139390D01*
X0529710Y1138960D01*
X0529410Y1138560D01*
X0529090Y1138180D01*
X0528730Y1137830D01*
X0528340Y1137510D01*
X0527930Y1137220D01*
X0527500Y1136960D01*
X0527050Y1136740D01*
X0526590Y1136560D01*
X0526110Y1136410D01*
X0525620Y1136300D01*
X0525130Y1136230D01*
X0524630Y1136200D01*
X0524120Y1136210D01*
X0523630Y1136260D01*
X0523130Y1136350D01*
X0522650Y1136480D01*
X0522180Y1136640D01*
X0521720Y1136850D01*
X0521280Y1137090D01*
X0520860Y1137360D01*
X0520460Y1137660D01*
X0520090Y1138000D01*
X0519750Y1138370D01*
X0519430Y1138760D01*
X0519150Y1139170D01*
X0518900Y1139610D01*
X0518690Y1140060D01*
X0518520Y1140530D01*
X0518380Y1141010D01*
X0518280Y1141500D01*
X0518220Y1142000D01*
X0518200Y1142500D01*
X0496200Y1142500D02*
X0496220Y1143000D01*
X0496280Y1143500D01*
X0496380Y1143990D01*
X0496520Y1144470D01*
X0496690Y1144940D01*
X0496900Y1145390D01*
X0497150Y1145830D01*
X0497430Y1146240D01*
X0497750Y1146630D01*
X0498090Y1147000D01*
X0498460Y1147340D01*
X0498860Y1147640D01*
X0499280Y1147910D01*
X0499720Y1148150D01*
X0500180Y1148360D01*
X0500650Y1148520D01*
X0501130Y1148650D01*
X0501630Y1148740D01*
X0502120Y1148790D01*
X0502630Y1148800D01*
X0503130Y1148770D01*
X0503620Y1148700D01*
X0504110Y1148590D01*
X0504590Y1148440D01*
X0505050Y1148260D01*
X0505500Y1148040D01*
X0505930Y1147780D01*
X0506340Y1147490D01*
X0506730Y1147170D01*
X0507090Y1146820D01*
X0507410Y1146440D01*
X0507710Y1146040D01*
X0507980Y1145610D01*
X0508210Y1145170D01*
X0508400Y1144710D01*
X0508560Y1144230D01*
X0508680Y1143740D01*
X0508760Y1143250D01*
X0508800Y1142750D01*
X0508800Y1142250D01*
X0508760Y1141750D01*
X0508680Y1141260D01*
X0508560Y1140770D01*
X0508400Y1140290D01*
X0508210Y1139830D01*
X0507980Y1139390D01*
X0507710Y1138960D01*
X0507410Y1138560D01*
X0507090Y1138180D01*
X0506730Y1137830D01*
X0506340Y1137510D01*
X0505930Y1137220D01*
X0505500Y1136960D01*
X0505050Y1136740D01*
X0504590Y1136560D01*
X0504110Y1136410D01*
X0503620Y1136300D01*
X0503130Y1136230D01*
X0502630Y1136200D01*
X0502120Y1136210D01*
X0501630Y1136260D01*
X0501130Y1136350D01*
X0500650Y1136480D01*
X0500180Y1136640D01*
X0499720Y1136850D01*
X0499280Y1137090D01*
X0498860Y1137360D01*
X0498460Y1137660D01*
X0498090Y1138000D01*
X0497750Y1138370D01*
X0497430Y1138760D01*
X0497150Y1139170D01*
X0496900Y1139610D01*
X0496690Y1140060D01*
X0496520Y1140530D01*
X0496380Y1141010D01*
X0496280Y1141500D01*
X0496220Y1142000D01*
X0496200Y1142500D01*
X0467200Y1143000D02*
X0467220Y1143500D01*
X0467280Y1144000D01*
X0467380Y1144490D01*
X0467520Y1144970D01*
X0467690Y1145440D01*
X0467900Y1145890D01*
X0468150Y1146330D01*
X0468430Y1146740D01*
X0468750Y1147130D01*
X0469090Y1147500D01*
X0469460Y1147840D01*
X0469860Y1148140D01*
X0470280Y1148410D01*
X0470720Y1148650D01*
X0471180Y1148860D01*
X0471650Y1149020D01*
X0472130Y1149150D01*
X0472630Y1149240D01*
X0473120Y1149290D01*
X0473630Y1149300D01*
X0474130Y1149270D01*
X0474620Y1149200D01*
X0475110Y1149090D01*
X0475590Y1148940D01*
X0476050Y1148760D01*
X0476500Y1148540D01*
X0476930Y1148280D01*
X0477340Y1147990D01*
X0477730Y1147670D01*
X0478090Y1147320D01*
X0478410Y1146940D01*
X0478710Y1146540D01*
X0478980Y1146110D01*
X0479210Y1145670D01*
X0479400Y1145210D01*
X0479560Y1144730D01*
X0479680Y1144240D01*
X0479760Y1143750D01*
X0479800Y1143250D01*
X0479800Y1142750D01*
X0479760Y1142250D01*
X0479680Y1141760D01*
X0479560Y1141270D01*
X0479400Y1140790D01*
X0479210Y1140330D01*
X0478980Y1139890D01*
X0478710Y1139460D01*
X0478410Y1139060D01*
X0478090Y1138680D01*
X0477730Y1138330D01*
X0477340Y1138010D01*
X0476930Y1137720D01*
X0476500Y1137460D01*
X0476050Y1137240D01*
X0475590Y1137060D01*
X0475110Y1136910D01*
X0474620Y1136800D01*
X0474130Y1136730D01*
X0473630Y1136700D01*
X0473120Y1136710D01*
X0472630Y1136760D01*
X0472130Y1136850D01*
X0471650Y1136980D01*
X0471180Y1137140D01*
X0470720Y1137350D01*
X0470280Y1137590D01*
X0469860Y1137860D01*
X0469460Y1138160D01*
X0469090Y1138500D01*
X0468750Y1138870D01*
X0468430Y1139260D01*
X0468150Y1139670D01*
X0467900Y1140110D01*
X0467690Y1140560D01*
X0467520Y1141030D01*
X0467380Y1141510D01*
X0467280Y1142000D01*
X0467220Y1142500D01*
X0467200Y1143000D01*
X0446700Y1143000D02*
X0446720Y1143500D01*
X0446780Y1144000D01*
X0446880Y1144490D01*
X0447020Y1144970D01*
X0447190Y1145440D01*
X0447400Y1145890D01*
X0447650Y1146330D01*
X0447930Y1146740D01*
X0448250Y1147130D01*
X0448590Y1147500D01*
X0448960Y1147840D01*
X0449360Y1148140D01*
X0449780Y1148410D01*
X0450220Y1148650D01*
X0450680Y1148860D01*
X0451150Y1149020D01*
X0451630Y1149150D01*
X0452130Y1149240D01*
X0452620Y1149290D01*
X0453130Y1149300D01*
X0453630Y1149270D01*
X0454120Y1149200D01*
X0454610Y1149090D01*
X0455090Y1148940D01*
X0455550Y1148760D01*
X0456000Y1148540D01*
X0456430Y1148280D01*
X0456840Y1147990D01*
X0457230Y1147670D01*
X0457590Y1147320D01*
X0457910Y1146940D01*
X0458210Y1146540D01*
X0458480Y1146110D01*
X0458710Y1145670D01*
X0458900Y1145210D01*
X0459060Y1144730D01*
X0459180Y1144240D01*
X0459260Y1143750D01*
X0459300Y1143250D01*
X0459300Y1142750D01*
X0459260Y1142250D01*
X0459180Y1141760D01*
X0459060Y1141270D01*
X0458900Y1140790D01*
X0458710Y1140330D01*
X0458480Y1139890D01*
X0458210Y1139460D01*
X0457910Y1139060D01*
X0457590Y1138680D01*
X0457230Y1138330D01*
X0456840Y1138010D01*
X0456430Y1137720D01*
X0456000Y1137460D01*
X0455550Y1137240D01*
X0455090Y1137060D01*
X0454610Y1136910D01*
X0454120Y1136800D01*
X0453630Y1136730D01*
X0453130Y1136700D01*
X0452620Y1136710D01*
X0452130Y1136760D01*
X0451630Y1136850D01*
X0451150Y1136980D01*
X0450680Y1137140D01*
X0450220Y1137350D01*
X0449780Y1137590D01*
X0449360Y1137860D01*
X0448960Y1138160D01*
X0448590Y1138500D01*
X0448250Y1138870D01*
X0447930Y1139260D01*
X0447650Y1139670D01*
X0447400Y1140110D01*
X0447190Y1140560D01*
X0447020Y1141030D01*
X0446880Y1141510D01*
X0446780Y1142000D01*
X0446720Y1142500D01*
X0446700Y1143000D01*
X0617200Y1142500D02*
X0617220Y1143000D01*
X0617280Y1143500D01*
X0617380Y1143990D01*
X0617520Y1144470D01*
X0617690Y1144940D01*
X0617900Y1145390D01*
X0618150Y1145830D01*
X0618430Y1146240D01*
X0618750Y1146630D01*
X0619090Y1147000D01*
X0619460Y1147340D01*
X0619860Y1147640D01*
X0620280Y1147910D01*
X0620720Y1148150D01*
X0621180Y1148360D01*
X0621650Y1148520D01*
X0622130Y1148650D01*
X0622630Y1148740D01*
X0623120Y1148790D01*
X0623630Y1148800D01*
X0624130Y1148770D01*
X0624620Y1148700D01*
X0625110Y1148590D01*
X0625590Y1148440D01*
X0626050Y1148260D01*
X0626500Y1148040D01*
X0626930Y1147780D01*
X0627340Y1147490D01*
X0627730Y1147170D01*
X0628090Y1146820D01*
X0628410Y1146440D01*
X0628710Y1146040D01*
X0628980Y1145610D01*
X0629210Y1145170D01*
X0629400Y1144710D01*
X0629560Y1144230D01*
X0629680Y1143740D01*
X0629760Y1143250D01*
X0629800Y1142750D01*
X0629800Y1142250D01*
X0629760Y1141750D01*
X0629680Y1141260D01*
X0629560Y1140770D01*
X0629400Y1140290D01*
X0629210Y1139830D01*
X0628980Y1139390D01*
X0628710Y1138960D01*
X0628410Y1138560D01*
X0628090Y1138180D01*
X0627730Y1137830D01*
X0627340Y1137510D01*
X0626930Y1137220D01*
X0626500Y1136960D01*
X0626050Y1136740D01*
X0625590Y1136560D01*
X0625110Y1136410D01*
X0624620Y1136300D01*
X0624130Y1136230D01*
X0623630Y1136200D01*
X0623120Y1136210D01*
X0622630Y1136260D01*
X0622130Y1136350D01*
X0621650Y1136480D01*
X0621180Y1136640D01*
X0620720Y1136850D01*
X0620280Y1137090D01*
X0619860Y1137360D01*
X0619460Y1137660D01*
X0619090Y1138000D01*
X0618750Y1138370D01*
X0618430Y1138760D01*
X0618150Y1139170D01*
X0617900Y1139610D01*
X0617690Y1140060D01*
X0617520Y1140530D01*
X0617380Y1141010D01*
X0617280Y1141500D01*
X0617220Y1142000D01*
X0617200Y1142500D01*
D906*
X0444190Y0642130D02*
X0382770Y0642130D01*
X0382770Y0594880D01*
X0444190Y0594880D01*
X0444190Y0642130D01*
X0705000Y0594500D02*
G75*
%LPD*%
D318*
X0705000Y0594500D02*
X0705000Y0695000D01*
X0715500Y0695000D01*
X0715500Y0705000D01*
X0705000Y0705000D01*
X0705000Y1156500D01*
X1035000Y1156500D01*
X1035000Y0704500D01*
X1024500Y0704500D01*
X1024500Y0695000D01*
X1035000Y0695000D01*
X1035000Y0594500D01*
X0705000Y0594500D01*
D889*
X0889390Y0599940D02*
X0889390Y0674290D01*
X0894570Y0680500D02*
X1008000Y0680500D01*
D689*
X1004000Y0621050D02*
X1004020Y0621360D01*
X1004080Y0621670D01*
X1004170Y0621970D01*
X1004300Y0622260D01*
X1004470Y0622530D01*
X1004670Y0622770D01*
X1004890Y0622990D01*
X1005150Y0623180D01*
X1005420Y0623340D01*
X1005710Y0623460D01*
X1006010Y0623550D01*
X1006320Y0623600D01*
X1006640Y0623610D01*
X1006950Y0623580D01*
X1007260Y0623510D01*
X1007560Y0623410D01*
X1007840Y0623270D01*
X1008100Y0623090D01*
X1008340Y0622890D01*
X1008550Y0622650D01*
X1008740Y0622400D01*
X1008890Y0622120D01*
X1009000Y0621830D01*
X1009080Y0621520D01*
X1009120Y0621210D01*
X1009120Y0620890D01*
X1009080Y0620580D01*
X1009000Y0620270D01*
X1008890Y0619980D01*
X1008740Y0619700D01*
X1008550Y0619450D01*
X1008340Y0619210D01*
X1008100Y0619010D01*
X1007840Y0618830D01*
X1007560Y0618690D01*
X1007260Y0618590D01*
X1006950Y0618520D01*
X1006640Y0618490D01*
X1006320Y0618500D01*
X1006010Y0618550D01*
X1005710Y0618640D01*
X1005420Y0618760D01*
X1005150Y0618920D01*
X1004890Y0619110D01*
X1004670Y0619330D01*
X1004470Y0619570D01*
X1004300Y0619840D01*
X1004170Y0620130D01*
X1004080Y0620430D01*
X1004020Y0620740D01*
X1004000Y0621050D01*
X0948880Y0621050D02*
X0948900Y0621360D01*
X0948960Y0621670D01*
X0949050Y0621970D01*
X0949180Y0622260D01*
X0949350Y0622530D01*
X0949550Y0622770D01*
X0949770Y0622990D01*
X0950030Y0623180D01*
X0950300Y0623340D01*
X0950590Y0623460D01*
X0950890Y0623550D01*
X0951200Y0623600D01*
X0951520Y0623610D01*
X0951830Y0623580D01*
X0952140Y0623510D01*
X0952440Y0623410D01*
X0952720Y0623270D01*
X0952980Y0623090D01*
X0953220Y0622890D01*
X0953430Y0622650D01*
X0953620Y0622400D01*
X0953770Y0622120D01*
X0953880Y0621830D01*
X0953960Y0621520D01*
X0954000Y0621210D01*
X0954000Y0620890D01*
X0953960Y0620580D01*
X0953880Y0620270D01*
X0953770Y0619980D01*
X0953620Y0619700D01*
X0953430Y0619450D01*
X0953220Y0619210D01*
X0952980Y0619010D01*
X0952720Y0618830D01*
X0952440Y0618690D01*
X0952140Y0618590D01*
X0951830Y0618520D01*
X0951520Y0618490D01*
X0951200Y0618500D01*
X0950890Y0618550D01*
X0950590Y0618640D01*
X0950300Y0618760D01*
X0950030Y0618920D01*
X0949770Y0619110D01*
X0949550Y0619330D01*
X0949350Y0619570D01*
X0949180Y0619840D01*
X0949050Y0620130D01*
X0948960Y0620430D01*
X0948900Y0620740D01*
X0948880Y0621050D01*
X0936200Y1142500D02*
X0936220Y1143000D01*
X0936280Y1143500D01*
X0936380Y1143990D01*
X0936520Y1144470D01*
X0936690Y1144940D01*
X0936900Y1145390D01*
X0937150Y1145830D01*
X0937430Y1146240D01*
X0937750Y1146630D01*
X0938090Y1147000D01*
X0938460Y1147340D01*
X0938860Y1147640D01*
X0939280Y1147910D01*
X0939720Y1148150D01*
X0940180Y1148360D01*
X0940650Y1148520D01*
X0941130Y1148650D01*
X0941630Y1148740D01*
X0942120Y1148790D01*
X0942630Y1148800D01*
X0943130Y1148770D01*
X0943620Y1148700D01*
X0944110Y1148590D01*
X0944590Y1148440D01*
X0945050Y1148260D01*
X0945500Y1148040D01*
X0945930Y1147780D01*
X0946340Y1147490D01*
X0946730Y1147170D01*
X0947090Y1146820D01*
X0947410Y1146440D01*
X0947710Y1146040D01*
X0947980Y1145610D01*
X0948210Y1145170D01*
X0948400Y1144710D01*
X0948560Y1144230D01*
X0948680Y1143740D01*
X0948760Y1143250D01*
X0948800Y1142750D01*
X0948800Y1142250D01*
X0948760Y1141750D01*
X0948680Y1141260D01*
X0948560Y1140770D01*
X0948400Y1140290D01*
X0948210Y1139830D01*
X0947980Y1139390D01*
X0947710Y1138960D01*
X0947410Y1138560D01*
X0947090Y1138180D01*
X0946730Y1137830D01*
X0946340Y1137510D01*
X0945930Y1137220D01*
X0945500Y1136960D01*
X0945050Y1136740D01*
X0944590Y1136560D01*
X0944110Y1136410D01*
X0943620Y1136300D01*
X0943130Y1136230D01*
X0942630Y1136200D01*
X0942120Y1136210D01*
X0941630Y1136260D01*
X0941130Y1136350D01*
X0940650Y1136480D01*
X0940180Y1136640D01*
X0939720Y1136850D01*
X0939280Y1137090D01*
X0938860Y1137360D01*
X0938460Y1137660D01*
X0938090Y1138000D01*
X0937750Y1138370D01*
X0937430Y1138760D01*
X0937150Y1139170D01*
X0936900Y1139610D01*
X0936690Y1140060D01*
X0936520Y1140530D01*
X0936380Y1141010D01*
X0936280Y1141500D01*
X0936220Y1142000D01*
X0936200Y1142500D01*
X0909700Y1142500D02*
X0909720Y1143000D01*
X0909780Y1143500D01*
X0909880Y1143990D01*
X0910020Y1144470D01*
X0910190Y1144940D01*
X0910400Y1145390D01*
X0910650Y1145830D01*
X0910930Y1146240D01*
X0911250Y1146630D01*
X0911590Y1147000D01*
X0911960Y1147340D01*
X0912360Y1147640D01*
X0912780Y1147910D01*
X0913220Y1148150D01*
X0913680Y1148360D01*
X0914150Y1148520D01*
X0914630Y1148650D01*
X0915130Y1148740D01*
X0915620Y1148790D01*
X0916130Y1148800D01*
X0916630Y1148770D01*
X0917120Y1148700D01*
X0917610Y1148590D01*
X0918090Y1148440D01*
X0918550Y1148260D01*
X0919000Y1148040D01*
X0919430Y1147780D01*
X0919840Y1147490D01*
X0920230Y1147170D01*
X0920590Y1146820D01*
X0920910Y1146440D01*
X0921210Y1146040D01*
X0921480Y1145610D01*
X0921710Y1145170D01*
X0921900Y1144710D01*
X0922060Y1144230D01*
X0922180Y1143740D01*
X0922260Y1143250D01*
X0922300Y1142750D01*
X0922300Y1142250D01*
X0922260Y1141750D01*
X0922180Y1141260D01*
X0922060Y1140770D01*
X0921900Y1140290D01*
X0921710Y1139830D01*
X0921480Y1139390D01*
X0921210Y1138960D01*
X0920910Y1138560D01*
X0920590Y1138180D01*
X0920230Y1137830D01*
X0919840Y1137510D01*
X0919430Y1137220D01*
X0919000Y1136960D01*
X0918550Y1136740D01*
X0918090Y1136560D01*
X0917610Y1136410D01*
X0917120Y1136300D01*
X0916630Y1136230D01*
X0916130Y1136200D01*
X0915620Y1136210D01*
X0915130Y1136260D01*
X0914630Y1136350D01*
X0914150Y1136480D01*
X0913680Y1136640D01*
X0913220Y1136850D01*
X0912780Y1137090D01*
X0912360Y1137360D01*
X0911960Y1137660D01*
X0911590Y1138000D01*
X0911250Y1138370D01*
X0910930Y1138760D01*
X0910650Y1139170D01*
X0910400Y1139610D01*
X0910190Y1140060D01*
X0910020Y1140530D01*
X0909880Y1141010D01*
X0909780Y1141500D01*
X0909720Y1142000D01*
X0909700Y1142500D01*
X0887700Y1142500D02*
X0887720Y1143000D01*
X0887780Y1143500D01*
X0887880Y1143990D01*
X0888020Y1144470D01*
X0888190Y1144940D01*
X0888400Y1145390D01*
X0888650Y1145830D01*
X0888930Y1146240D01*
X0889250Y1146630D01*
X0889590Y1147000D01*
X0889960Y1147340D01*
X0890360Y1147640D01*
X0890780Y1147910D01*
X0891220Y1148150D01*
X0891680Y1148360D01*
X0892150Y1148520D01*
X0892630Y1148650D01*
X0893130Y1148740D01*
X0893620Y1148790D01*
X0894130Y1148800D01*
X0894630Y1148770D01*
X0895120Y1148700D01*
X0895610Y1148590D01*
X0896090Y1148440D01*
X0896550Y1148260D01*
X0897000Y1148040D01*
X0897430Y1147780D01*
X0897840Y1147490D01*
X0898230Y1147170D01*
X0898590Y1146820D01*
X0898910Y1146440D01*
X0899210Y1146040D01*
X0899480Y1145610D01*
X0899710Y1145170D01*
X0899900Y1144710D01*
X0900060Y1144230D01*
X0900180Y1143740D01*
X0900260Y1143250D01*
X0900300Y1142750D01*
X0900300Y1142250D01*
X0900260Y1141750D01*
X0900180Y1141260D01*
X0900060Y1140770D01*
X0899900Y1140290D01*
X0899710Y1139830D01*
X0899480Y1139390D01*
X0899210Y1138960D01*
X0898910Y1138560D01*
X0898590Y1138180D01*
X0898230Y1137830D01*
X0897840Y1137510D01*
X0897430Y1137220D01*
X0897000Y1136960D01*
X0896550Y1136740D01*
X0896090Y1136560D01*
X0895610Y1136410D01*
X0895120Y1136300D01*
X0894630Y1136230D01*
X0894130Y1136200D01*
X0893620Y1136210D01*
X0893130Y1136260D01*
X0892630Y1136350D01*
X0892150Y1136480D01*
X0891680Y1136640D01*
X0891220Y1136850D01*
X0890780Y1137090D01*
X0890360Y1137360D01*
X0889960Y1137660D01*
X0889590Y1138000D01*
X0889250Y1138370D01*
X0888930Y1138760D01*
X0888650Y1139170D01*
X0888400Y1139610D01*
X0888190Y1140060D01*
X0888020Y1140530D01*
X0887880Y1141010D01*
X0887780Y1141500D01*
X0887720Y1142000D01*
X0887700Y1142500D01*
X0860700Y1142500D02*
X0860720Y1143000D01*
X0860780Y1143500D01*
X0860880Y1143990D01*
X0861020Y1144470D01*
X0861190Y1144940D01*
X0861400Y1145390D01*
X0861650Y1145830D01*
X0861930Y1146240D01*
X0862250Y1146630D01*
X0862590Y1147000D01*
X0862960Y1147340D01*
X0863360Y1147640D01*
X0863780Y1147910D01*
X0864220Y1148150D01*
X0864680Y1148360D01*
X0865150Y1148520D01*
X0865630Y1148650D01*
X0866130Y1148740D01*
X0866620Y1148790D01*
X0867130Y1148800D01*
X0867630Y1148770D01*
X0868120Y1148700D01*
X0868610Y1148590D01*
X0869090Y1148440D01*
X0869550Y1148260D01*
X0870000Y1148040D01*
X0870430Y1147780D01*
X0870840Y1147490D01*
X0871230Y1147170D01*
X0871590Y1146820D01*
X0871910Y1146440D01*
X0872210Y1146040D01*
X0872480Y1145610D01*
X0872710Y1145170D01*
X0872900Y1144710D01*
X0873060Y1144230D01*
X0873180Y1143740D01*
X0873260Y1143250D01*
X0873300Y1142750D01*
X0873300Y1142250D01*
X0873260Y1141750D01*
X0873180Y1141260D01*
X0873060Y1140770D01*
X0872900Y1140290D01*
X0872710Y1139830D01*
X0872480Y1139390D01*
X0872210Y1138960D01*
X0871910Y1138560D01*
X0871590Y1138180D01*
X0871230Y1137830D01*
X0870840Y1137510D01*
X0870430Y1137220D01*
X0870000Y1136960D01*
X0869550Y1136740D01*
X0869090Y1136560D01*
X0868610Y1136410D01*
X0868120Y1136300D01*
X0867630Y1136230D01*
X0867130Y1136200D01*
X0866620Y1136210D01*
X0866130Y1136260D01*
X0865630Y1136350D01*
X0865150Y1136480D01*
X0864680Y1136640D01*
X0864220Y1136850D01*
X0863780Y1137090D01*
X0863360Y1137360D01*
X0862960Y1137660D01*
X0862590Y1138000D01*
X0862250Y1138370D01*
X0861930Y1138760D01*
X0861650Y1139170D01*
X0861400Y1139610D01*
X0861190Y1140060D01*
X0861020Y1140530D01*
X0860880Y1141010D01*
X0860780Y1141500D01*
X0860720Y1142000D01*
X0860700Y1142500D01*
X0838700Y1142500D02*
X0838720Y1143000D01*
X0838780Y1143500D01*
X0838880Y1143990D01*
X0839020Y1144470D01*
X0839190Y1144940D01*
X0839400Y1145390D01*
X0839650Y1145830D01*
X0839930Y1146240D01*
X0840250Y1146630D01*
X0840590Y1147000D01*
X0840960Y1147340D01*
X0841360Y1147640D01*
X0841780Y1147910D01*
X0842220Y1148150D01*
X0842680Y1148360D01*
X0843150Y1148520D01*
X0843630Y1148650D01*
X0844130Y1148740D01*
X0844620Y1148790D01*
X0845130Y1148800D01*
X0845630Y1148770D01*
X0846120Y1148700D01*
X0846610Y1148590D01*
X0847090Y1148440D01*
X0847550Y1148260D01*
X0848000Y1148040D01*
X0848430Y1147780D01*
X0848840Y1147490D01*
X0849230Y1147170D01*
X0849590Y1146820D01*
X0849910Y1146440D01*
X0850210Y1146040D01*
X0850480Y1145610D01*
X0850710Y1145170D01*
X0850900Y1144710D01*
X0851060Y1144230D01*
X0851180Y1143740D01*
X0851260Y1143250D01*
X0851300Y1142750D01*
X0851300Y1142250D01*
X0851260Y1141750D01*
X0851180Y1141260D01*
X0851060Y1140770D01*
X0850900Y1140290D01*
X0850710Y1139830D01*
X0850480Y1139390D01*
X0850210Y1138960D01*
X0849910Y1138560D01*
X0849590Y1138180D01*
X0849230Y1137830D01*
X0848840Y1137510D01*
X0848430Y1137220D01*
X0848000Y1136960D01*
X0847550Y1136740D01*
X0847090Y1136560D01*
X0846610Y1136410D01*
X0846120Y1136300D01*
X0845630Y1136230D01*
X0845130Y1136200D01*
X0844620Y1136210D01*
X0844130Y1136260D01*
X0843630Y1136350D01*
X0843150Y1136480D01*
X0842680Y1136640D01*
X0842220Y1136850D01*
X0841780Y1137090D01*
X0841360Y1137360D01*
X0840960Y1137660D01*
X0840590Y1138000D01*
X0840250Y1138370D01*
X0839930Y1138760D01*
X0839650Y1139170D01*
X0839400Y1139610D01*
X0839190Y1140060D01*
X0839020Y1140530D01*
X0838880Y1141010D01*
X0838780Y1141500D01*
X0838720Y1142000D01*
X0838700Y1142500D01*
X0809700Y1143000D02*
X0809720Y1143500D01*
X0809780Y1144000D01*
X0809880Y1144490D01*
X0810020Y1144970D01*
X0810190Y1145440D01*
X0810400Y1145890D01*
X0810650Y1146330D01*
X0810930Y1146740D01*
X0811250Y1147130D01*
X0811590Y1147500D01*
X0811960Y1147840D01*
X0812360Y1148140D01*
X0812780Y1148410D01*
X0813220Y1148650D01*
X0813680Y1148860D01*
X0814150Y1149020D01*
X0814630Y1149150D01*
X0815130Y1149240D01*
X0815620Y1149290D01*
X0816130Y1149300D01*
X0816630Y1149270D01*
X0817120Y1149200D01*
X0817610Y1149090D01*
X0818090Y1148940D01*
X0818550Y1148760D01*
X0819000Y1148540D01*
X0819430Y1148280D01*
X0819840Y1147990D01*
X0820230Y1147670D01*
X0820590Y1147320D01*
X0820910Y1146940D01*
X0821210Y1146540D01*
X0821480Y1146110D01*
X0821710Y1145670D01*
X0821900Y1145210D01*
X0822060Y1144730D01*
X0822180Y1144240D01*
X0822260Y1143750D01*
X0822300Y1143250D01*
X0822300Y1142750D01*
X0822260Y1142250D01*
X0822180Y1141760D01*
X0822060Y1141270D01*
X0821900Y1140790D01*
X0821710Y1140330D01*
X0821480Y1139890D01*
X0821210Y1139460D01*
X0820910Y1139060D01*
X0820590Y1138680D01*
X0820230Y1138330D01*
X0819840Y1138010D01*
X0819430Y1137720D01*
X0819000Y1137460D01*
X0818550Y1137240D01*
X0818090Y1137060D01*
X0817610Y1136910D01*
X0817120Y1136800D01*
X0816630Y1136730D01*
X0816130Y1136700D01*
X0815620Y1136710D01*
X0815130Y1136760D01*
X0814630Y1136850D01*
X0814150Y1136980D01*
X0813680Y1137140D01*
X0813220Y1137350D01*
X0812780Y1137590D01*
X0812360Y1137860D01*
X0811960Y1138160D01*
X0811590Y1138500D01*
X0811250Y1138870D01*
X0810930Y1139260D01*
X0810650Y1139670D01*
X0810400Y1140110D01*
X0810190Y1140560D01*
X0810020Y1141030D01*
X0809880Y1141510D01*
X0809780Y1142000D01*
X0809720Y1142500D01*
X0809700Y1143000D01*
X0789200Y1143000D02*
X0789220Y1143500D01*
X0789280Y1144000D01*
X0789380Y1144490D01*
X0789520Y1144970D01*
X0789690Y1145440D01*
X0789900Y1145890D01*
X0790150Y1146330D01*
X0790430Y1146740D01*
X0790750Y1147130D01*
X0791090Y1147500D01*
X0791460Y1147840D01*
X0791860Y1148140D01*
X0792280Y1148410D01*
X0792720Y1148650D01*
X0793180Y1148860D01*
X0793650Y1149020D01*
X0794130Y1149150D01*
X0794630Y1149240D01*
X0795120Y1149290D01*
X0795630Y1149300D01*
X0796130Y1149270D01*
X0796620Y1149200D01*
X0797110Y1149090D01*
X0797590Y1148940D01*
X0798050Y1148760D01*
X0798500Y1148540D01*
X0798930Y1148280D01*
X0799340Y1147990D01*
X0799730Y1147670D01*
X0800090Y1147320D01*
X0800410Y1146940D01*
X0800710Y1146540D01*
X0800980Y1146110D01*
X0801210Y1145670D01*
X0801400Y1145210D01*
X0801560Y1144730D01*
X0801680Y1144240D01*
X0801760Y1143750D01*
X0801800Y1143250D01*
X0801800Y1142750D01*
X0801760Y1142250D01*
X0801680Y1141760D01*
X0801560Y1141270D01*
X0801400Y1140790D01*
X0801210Y1140330D01*
X0800980Y1139890D01*
X0800710Y1139460D01*
X0800410Y1139060D01*
X0800090Y1138680D01*
X0799730Y1138330D01*
X0799340Y1138010D01*
X0798930Y1137720D01*
X0798500Y1137460D01*
X0798050Y1137240D01*
X0797590Y1137060D01*
X0797110Y1136910D01*
X0796620Y1136800D01*
X0796130Y1136730D01*
X0795630Y1136700D01*
X0795120Y1136710D01*
X0794630Y1136760D01*
X0794130Y1136850D01*
X0793650Y1136980D01*
X0793180Y1137140D01*
X0792720Y1137350D01*
X0792280Y1137590D01*
X0791860Y1137860D01*
X0791460Y1138160D01*
X0791090Y1138500D01*
X0790750Y1138870D01*
X0790430Y1139260D01*
X0790150Y1139670D01*
X0789900Y1140110D01*
X0789690Y1140560D01*
X0789520Y1141030D01*
X0789380Y1141510D01*
X0789280Y1142000D01*
X0789220Y1142500D01*
X0789200Y1143000D01*
X0959700Y1142500D02*
X0959720Y1143000D01*
X0959780Y1143500D01*
X0959880Y1143990D01*
X0960020Y1144470D01*
X0960190Y1144940D01*
X0960400Y1145390D01*
X0960650Y1145830D01*
X0960930Y1146240D01*
X0961250Y1146630D01*
X0961590Y1147000D01*
X0961960Y1147340D01*
X0962360Y1147640D01*
X0962780Y1147910D01*
X0963220Y1148150D01*
X0963680Y1148360D01*
X0964150Y1148520D01*
X0964630Y1148650D01*
X0965130Y1148740D01*
X0965620Y1148790D01*
X0966130Y1148800D01*
X0966630Y1148770D01*
X0967120Y1148700D01*
X0967610Y1148590D01*
X0968090Y1148440D01*
X0968550Y1148260D01*
X0969000Y1148040D01*
X0969430Y1147780D01*
X0969840Y1147490D01*
X0970230Y1147170D01*
X0970590Y1146820D01*
X0970910Y1146440D01*
X0971210Y1146040D01*
X0971480Y1145610D01*
X0971710Y1145170D01*
X0971900Y1144710D01*
X0972060Y1144230D01*
X0972180Y1143740D01*
X0972260Y1143250D01*
X0972300Y1142750D01*
X0972300Y1142250D01*
X0972260Y1141750D01*
X0972180Y1141260D01*
X0972060Y1140770D01*
X0971900Y1140290D01*
X0971710Y1139830D01*
X0971480Y1139390D01*
X0971210Y1138960D01*
X0970910Y1138560D01*
X0970590Y1138180D01*
X0970230Y1137830D01*
X0969840Y1137510D01*
X0969430Y1137220D01*
X0969000Y1136960D01*
X0968550Y1136740D01*
X0968090Y1136560D01*
X0967610Y1136410D01*
X0967120Y1136300D01*
X0966630Y1136230D01*
X0966130Y1136200D01*
X0965620Y1136210D01*
X0965130Y1136260D01*
X0964630Y1136350D01*
X0964150Y1136480D01*
X0963680Y1136640D01*
X0963220Y1136850D01*
X0962780Y1137090D01*
X0962360Y1137360D01*
X0961960Y1137660D01*
X0961590Y1138000D01*
X0961250Y1138370D01*
X0960930Y1138760D01*
X0960650Y1139170D01*
X0960400Y1139610D01*
X0960190Y1140060D01*
X0960020Y1140530D01*
X0959880Y1141010D01*
X0959780Y1141500D01*
X0959720Y1142000D01*
X0959700Y1142500D01*
D906*
X0786690Y0642130D02*
X0725270Y0642130D01*
X0725270Y0594880D01*
X0786690Y0594880D01*
X0786690Y0642130D01*
X1047500Y0594500D02*
G75*
%LPD*%
D318*
X1047500Y0594500D02*
X1047500Y0695000D01*
X1058000Y0695000D01*
X1058000Y0705000D01*
X1047500Y0705000D01*
X1047500Y1156500D01*
X1377500Y1156500D01*
X1377500Y0704500D01*
X1367000Y0704500D01*
X1367000Y0695000D01*
X1377500Y0695000D01*
X1377500Y0594500D01*
X1047500Y0594500D01*
D889*
X1231890Y0599940D02*
X1231890Y0674290D01*
X1237070Y0680500D02*
X1350500Y0680500D01*
D689*
X1346500Y0621050D02*
X1346520Y0621360D01*
X1346580Y0621670D01*
X1346670Y0621970D01*
X1346800Y0622260D01*
X1346970Y0622530D01*
X1347170Y0622770D01*
X1347390Y0622990D01*
X1347650Y0623180D01*
X1347920Y0623340D01*
X1348210Y0623460D01*
X1348510Y0623550D01*
X1348820Y0623600D01*
X1349140Y0623610D01*
X1349450Y0623580D01*
X1349760Y0623510D01*
X1350060Y0623410D01*
X1350340Y0623270D01*
X1350600Y0623090D01*
X1350840Y0622890D01*
X1351050Y0622650D01*
X1351240Y0622400D01*
X1351390Y0622120D01*
X1351500Y0621830D01*
X1351580Y0621520D01*
X1351620Y0621210D01*
X1351620Y0620890D01*
X1351580Y0620580D01*
X1351500Y0620270D01*
X1351390Y0619980D01*
X1351240Y0619700D01*
X1351050Y0619450D01*
X1350840Y0619210D01*
X1350600Y0619010D01*
X1350340Y0618830D01*
X1350060Y0618690D01*
X1349760Y0618590D01*
X1349450Y0618520D01*
X1349140Y0618490D01*
X1348820Y0618500D01*
X1348510Y0618550D01*
X1348210Y0618640D01*
X1347920Y0618760D01*
X1347650Y0618920D01*
X1347390Y0619110D01*
X1347170Y0619330D01*
X1346970Y0619570D01*
X1346800Y0619840D01*
X1346670Y0620130D01*
X1346580Y0620430D01*
X1346520Y0620740D01*
X1346500Y0621050D01*
X1291380Y0621050D02*
X1291400Y0621360D01*
X1291460Y0621670D01*
X1291550Y0621970D01*
X1291680Y0622260D01*
X1291850Y0622530D01*
X1292050Y0622770D01*
X1292270Y0622990D01*
X1292530Y0623180D01*
X1292800Y0623340D01*
X1293090Y0623460D01*
X1293390Y0623550D01*
X1293700Y0623600D01*
X1294020Y0623610D01*
X1294330Y0623580D01*
X1294640Y0623510D01*
X1294940Y0623410D01*
X1295220Y0623270D01*
X1295480Y0623090D01*
X1295720Y0622890D01*
X1295930Y0622650D01*
X1296120Y0622400D01*
X1296270Y0622120D01*
X1296380Y0621830D01*
X1296460Y0621520D01*
X1296500Y0621210D01*
X1296500Y0620890D01*
X1296460Y0620580D01*
X1296380Y0620270D01*
X1296270Y0619980D01*
X1296120Y0619700D01*
X1295930Y0619450D01*
X1295720Y0619210D01*
X1295480Y0619010D01*
X1295220Y0618830D01*
X1294940Y0618690D01*
X1294640Y0618590D01*
X1294330Y0618520D01*
X1294020Y0618490D01*
X1293700Y0618500D01*
X1293390Y0618550D01*
X1293090Y0618640D01*
X1292800Y0618760D01*
X1292530Y0618920D01*
X1292270Y0619110D01*
X1292050Y0619330D01*
X1291850Y0619570D01*
X1291680Y0619840D01*
X1291550Y0620130D01*
X1291460Y0620430D01*
X1291400Y0620740D01*
X1291380Y0621050D01*
X1278700Y1142500D02*
X1278720Y1143000D01*
X1278780Y1143500D01*
X1278880Y1143990D01*
X1279020Y1144470D01*
X1279190Y1144940D01*
X1279400Y1145390D01*
X1279650Y1145830D01*
X1279930Y1146240D01*
X1280250Y1146630D01*
X1280590Y1147000D01*
X1280960Y1147340D01*
X1281360Y1147640D01*
X1281780Y1147910D01*
X1282220Y1148150D01*
X1282680Y1148360D01*
X1283150Y1148520D01*
X1283630Y1148650D01*
X1284130Y1148740D01*
X1284620Y1148790D01*
X1285130Y1148800D01*
X1285630Y1148770D01*
X1286120Y1148700D01*
X1286610Y1148590D01*
X1287090Y1148440D01*
X1287550Y1148260D01*
X1288000Y1148040D01*
X1288430Y1147780D01*
X1288840Y1147490D01*
X1289230Y1147170D01*
X1289590Y1146820D01*
X1289910Y1146440D01*
X1290210Y1146040D01*
X1290480Y1145610D01*
X1290710Y1145170D01*
X1290900Y1144710D01*
X1291060Y1144230D01*
X1291180Y1143740D01*
X1291260Y1143250D01*
X1291300Y1142750D01*
X1291300Y1142250D01*
X1291260Y1141750D01*
X1291180Y1141260D01*
X1291060Y1140770D01*
X1290900Y1140290D01*
X1290710Y1139830D01*
X1290480Y1139390D01*
X1290210Y1138960D01*
X1289910Y1138560D01*
X1289590Y1138180D01*
X1289230Y1137830D01*
X1288840Y1137510D01*
X1288430Y1137220D01*
X1288000Y1136960D01*
X1287550Y1136740D01*
X1287090Y1136560D01*
X1286610Y1136410D01*
X1286120Y1136300D01*
X1285630Y1136230D01*
X1285130Y1136200D01*
X1284620Y1136210D01*
X1284130Y1136260D01*
X1283630Y1136350D01*
X1283150Y1136480D01*
X1282680Y1136640D01*
X1282220Y1136850D01*
X1281780Y1137090D01*
X1281360Y1137360D01*
X1280960Y1137660D01*
X1280590Y1138000D01*
X1280250Y1138370D01*
X1279930Y1138760D01*
X1279650Y1139170D01*
X1279400Y1139610D01*
X1279190Y1140060D01*
X1279020Y1140530D01*
X1278880Y1141010D01*
X1278780Y1141500D01*
X1278720Y1142000D01*
X1278700Y1142500D01*
X1252200Y1142500D02*
X1252220Y1143000D01*
X1252280Y1143500D01*
X1252380Y1143990D01*
X1252520Y1144470D01*
X1252690Y1144940D01*
X1252900Y1145390D01*
X1253150Y1145830D01*
X1253430Y1146240D01*
X1253750Y1146630D01*
X1254090Y1147000D01*
X1254460Y1147340D01*
X1254860Y1147640D01*
X1255280Y1147910D01*
X1255720Y1148150D01*
X1256180Y1148360D01*
X1256650Y1148520D01*
X1257130Y1148650D01*
X1257630Y1148740D01*
X1258120Y1148790D01*
X1258630Y1148800D01*
X1259130Y1148770D01*
X1259620Y1148700D01*
X1260110Y1148590D01*
X1260590Y1148440D01*
X1261050Y1148260D01*
X1261500Y1148040D01*
X1261930Y1147780D01*
X1262340Y1147490D01*
X1262730Y1147170D01*
X1263090Y1146820D01*
X1263410Y1146440D01*
X1263710Y1146040D01*
X1263980Y1145610D01*
X1264210Y1145170D01*
X1264400Y1144710D01*
X1264560Y1144230D01*
X1264680Y1143740D01*
X1264760Y1143250D01*
X1264800Y1142750D01*
X1264800Y1142250D01*
X1264760Y1141750D01*
X1264680Y1141260D01*
X1264560Y1140770D01*
X1264400Y1140290D01*
X1264210Y1139830D01*
X1263980Y1139390D01*
X1263710Y1138960D01*
X1263410Y1138560D01*
X1263090Y1138180D01*
X1262730Y1137830D01*
X1262340Y1137510D01*
X1261930Y1137220D01*
X1261500Y1136960D01*
X1261050Y1136740D01*
X1260590Y1136560D01*
X1260110Y1136410D01*
X1259620Y1136300D01*
X1259130Y1136230D01*
X1258630Y1136200D01*
X1258120Y1136210D01*
X1257630Y1136260D01*
X1257130Y1136350D01*
X1256650Y1136480D01*
X1256180Y1136640D01*
X1255720Y1136850D01*
X1255280Y1137090D01*
X1254860Y1137360D01*
X1254460Y1137660D01*
X1254090Y1138000D01*
X1253750Y1138370D01*
X1253430Y1138760D01*
X1253150Y1139170D01*
X1252900Y1139610D01*
X1252690Y1140060D01*
X1252520Y1140530D01*
X1252380Y1141010D01*
X1252280Y1141500D01*
X1252220Y1142000D01*
X1252200Y1142500D01*
X1230200Y1142500D02*
X1230220Y1143000D01*
X1230280Y1143500D01*
X1230380Y1143990D01*
X1230520Y1144470D01*
X1230690Y1144940D01*
X1230900Y1145390D01*
X1231150Y1145830D01*
X1231430Y1146240D01*
X1231750Y1146630D01*
X1232090Y1147000D01*
X1232460Y1147340D01*
X1232860Y1147640D01*
X1233280Y1147910D01*
X1233720Y1148150D01*
X1234180Y1148360D01*
X1234650Y1148520D01*
X1235130Y1148650D01*
X1235630Y1148740D01*
X1236120Y1148790D01*
X1236630Y1148800D01*
X1237130Y1148770D01*
X1237620Y1148700D01*
X1238110Y1148590D01*
X1238590Y1148440D01*
X1239050Y1148260D01*
X1239500Y1148040D01*
X1239930Y1147780D01*
X1240340Y1147490D01*
X1240730Y1147170D01*
X1241090Y1146820D01*
X1241410Y1146440D01*
X1241710Y1146040D01*
X1241980Y1145610D01*
X1242210Y1145170D01*
X1242400Y1144710D01*
X1242560Y1144230D01*
X1242680Y1143740D01*
X1242760Y1143250D01*
X1242800Y1142750D01*
X1242800Y1142250D01*
X1242760Y1141750D01*
X1242680Y1141260D01*
X1242560Y1140770D01*
X1242400Y1140290D01*
X1242210Y1139830D01*
X1241980Y1139390D01*
X1241710Y1138960D01*
X1241410Y1138560D01*
X1241090Y1138180D01*
X1240730Y1137830D01*
X1240340Y1137510D01*
X1239930Y1137220D01*
X1239500Y1136960D01*
X1239050Y1136740D01*
X1238590Y1136560D01*
X1238110Y1136410D01*
X1237620Y1136300D01*
X1237130Y1136230D01*
X1236630Y1136200D01*
X1236120Y1136210D01*
X1235630Y1136260D01*
X1235130Y1136350D01*
X1234650Y1136480D01*
X1234180Y1136640D01*
X1233720Y1136850D01*
X1233280Y1137090D01*
X1232860Y1137360D01*
X1232460Y1137660D01*
X1232090Y1138000D01*
X1231750Y1138370D01*
X1231430Y1138760D01*
X1231150Y1139170D01*
X1230900Y1139610D01*
X1230690Y1140060D01*
X1230520Y1140530D01*
X1230380Y1141010D01*
X1230280Y1141500D01*
X1230220Y1142000D01*
X1230200Y1142500D01*
X1203200Y1142500D02*
X1203220Y1143000D01*
X1203280Y1143500D01*
X1203380Y1143990D01*
X1203520Y1144470D01*
X1203690Y1144940D01*
X1203900Y1145390D01*
X1204150Y1145830D01*
X1204430Y1146240D01*
X1204750Y1146630D01*
X1205090Y1147000D01*
X1205460Y1147340D01*
X1205860Y1147640D01*
X1206280Y1147910D01*
X1206720Y1148150D01*
X1207180Y1148360D01*
X1207650Y1148520D01*
X1208130Y1148650D01*
X1208630Y1148740D01*
X1209120Y1148790D01*
X1209630Y1148800D01*
X1210130Y1148770D01*
X1210620Y1148700D01*
X1211110Y1148590D01*
X1211590Y1148440D01*
X1212050Y1148260D01*
X1212500Y1148040D01*
X1212930Y1147780D01*
X1213340Y1147490D01*
X1213730Y1147170D01*
X1214090Y1146820D01*
X1214410Y1146440D01*
X1214710Y1146040D01*
X1214980Y1145610D01*
X1215210Y1145170D01*
X1215400Y1144710D01*
X1215560Y1144230D01*
X1215680Y1143740D01*
X1215760Y1143250D01*
X1215800Y1142750D01*
X1215800Y1142250D01*
X1215760Y1141750D01*
X1215680Y1141260D01*
X1215560Y1140770D01*
X1215400Y1140290D01*
X1215210Y1139830D01*
X1214980Y1139390D01*
X1214710Y1138960D01*
X1214410Y1138560D01*
X1214090Y1138180D01*
X1213730Y1137830D01*
X1213340Y1137510D01*
X1212930Y1137220D01*
X1212500Y1136960D01*
X1212050Y1136740D01*
X1211590Y1136560D01*
X1211110Y1136410D01*
X1210620Y1136300D01*
X1210130Y1136230D01*
X1209630Y1136200D01*
X1209120Y1136210D01*
X1208630Y1136260D01*
X1208130Y1136350D01*
X1207650Y1136480D01*
X1207180Y1136640D01*
X1206720Y1136850D01*
X1206280Y1137090D01*
X1205860Y1137360D01*
X1205460Y1137660D01*
X1205090Y1138000D01*
X1204750Y1138370D01*
X1204430Y1138760D01*
X1204150Y1139170D01*
X1203900Y1139610D01*
X1203690Y1140060D01*
X1203520Y1140530D01*
X1203380Y1141010D01*
X1203280Y1141500D01*
X1203220Y1142000D01*
X1203200Y1142500D01*
X1181200Y1142500D02*
X1181220Y1143000D01*
X1181280Y1143500D01*
X1181380Y1143990D01*
X1181520Y1144470D01*
X1181690Y1144940D01*
X1181900Y1145390D01*
X1182150Y1145830D01*
X1182430Y1146240D01*
X1182750Y1146630D01*
X1183090Y1147000D01*
X1183460Y1147340D01*
X1183860Y1147640D01*
X1184280Y1147910D01*
X1184720Y1148150D01*
X1185180Y1148360D01*
X1185650Y1148520D01*
X1186130Y1148650D01*
X1186630Y1148740D01*
X1187120Y1148790D01*
X1187630Y1148800D01*
X1188130Y1148770D01*
X1188620Y1148700D01*
X1189110Y1148590D01*
X1189590Y1148440D01*
X1190050Y1148260D01*
X1190500Y1148040D01*
X1190930Y1147780D01*
X1191340Y1147490D01*
X1191730Y1147170D01*
X1192090Y1146820D01*
X1192410Y1146440D01*
X1192710Y1146040D01*
X1192980Y1145610D01*
X1193210Y1145170D01*
X1193400Y1144710D01*
X1193560Y1144230D01*
X1193680Y1143740D01*
X1193760Y1143250D01*
X1193800Y1142750D01*
X1193800Y1142250D01*
X1193760Y1141750D01*
X1193680Y1141260D01*
X1193560Y1140770D01*
X1193400Y1140290D01*
X1193210Y1139830D01*
X1192980Y1139390D01*
X1192710Y1138960D01*
X1192410Y1138560D01*
X1192090Y1138180D01*
X1191730Y1137830D01*
X1191340Y1137510D01*
X1190930Y1137220D01*
X1190500Y1136960D01*
X1190050Y1136740D01*
X1189590Y1136560D01*
X1189110Y1136410D01*
X1188620Y1136300D01*
X1188130Y1136230D01*
X1187630Y1136200D01*
X1187120Y1136210D01*
X1186630Y1136260D01*
X1186130Y1136350D01*
X1185650Y1136480D01*
X1185180Y1136640D01*
X1184720Y1136850D01*
X1184280Y1137090D01*
X1183860Y1137360D01*
X1183460Y1137660D01*
X1183090Y1138000D01*
X1182750Y1138370D01*
X1182430Y1138760D01*
X1182150Y1139170D01*
X1181900Y1139610D01*
X1181690Y1140060D01*
X1181520Y1140530D01*
X1181380Y1141010D01*
X1181280Y1141500D01*
X1181220Y1142000D01*
X1181200Y1142500D01*
X1152200Y1143000D02*
X1152220Y1143500D01*
X1152280Y1144000D01*
X1152380Y1144490D01*
X1152520Y1144970D01*
X1152690Y1145440D01*
X1152900Y1145890D01*
X1153150Y1146330D01*
X1153430Y1146740D01*
X1153750Y1147130D01*
X1154090Y1147500D01*
X1154460Y1147840D01*
X1154860Y1148140D01*
X1155280Y1148410D01*
X1155720Y1148650D01*
X1156180Y1148860D01*
X1156650Y1149020D01*
X1157130Y1149150D01*
X1157630Y1149240D01*
X1158120Y1149290D01*
X1158630Y1149300D01*
X1159130Y1149270D01*
X1159620Y1149200D01*
X1160110Y1149090D01*
X1160590Y1148940D01*
X1161050Y1148760D01*
X1161500Y1148540D01*
X1161930Y1148280D01*
X1162340Y1147990D01*
X1162730Y1147670D01*
X1163090Y1147320D01*
X1163410Y1146940D01*
X1163710Y1146540D01*
X1163980Y1146110D01*
X1164210Y1145670D01*
X1164400Y1145210D01*
X1164560Y1144730D01*
X1164680Y1144240D01*
X1164760Y1143750D01*
X1164800Y1143250D01*
X1164800Y1142750D01*
X1164760Y1142250D01*
X1164680Y1141760D01*
X1164560Y1141270D01*
X1164400Y1140790D01*
X1164210Y1140330D01*
X1163980Y1139890D01*
X1163710Y1139460D01*
X1163410Y1139060D01*
X1163090Y1138680D01*
X1162730Y1138330D01*
X1162340Y1138010D01*
X1161930Y1137720D01*
X1161500Y1137460D01*
X1161050Y1137240D01*
X1160590Y1137060D01*
X1160110Y1136910D01*
X1159620Y1136800D01*
X1159130Y1136730D01*
X1158630Y1136700D01*
X1158120Y1136710D01*
X1157630Y1136760D01*
X1157130Y1136850D01*
X1156650Y1136980D01*
X1156180Y1137140D01*
X1155720Y1137350D01*
X1155280Y1137590D01*
X1154860Y1137860D01*
X1154460Y1138160D01*
X1154090Y1138500D01*
X1153750Y1138870D01*
X1153430Y1139260D01*
X1153150Y1139670D01*
X1152900Y1140110D01*
X1152690Y1140560D01*
X1152520Y1141030D01*
X1152380Y1141510D01*
X1152280Y1142000D01*
X1152220Y1142500D01*
X1152200Y1143000D01*
X1131700Y1143000D02*
X1131720Y1143500D01*
X1131780Y1144000D01*
X1131880Y1144490D01*
X1132020Y1144970D01*
X1132190Y1145440D01*
X1132400Y1145890D01*
X1132650Y1146330D01*
X1132930Y1146740D01*
X1133250Y1147130D01*
X1133590Y1147500D01*
X1133960Y1147840D01*
X1134360Y1148140D01*
X1134780Y1148410D01*
X1135220Y1148650D01*
X1135680Y1148860D01*
X1136150Y1149020D01*
X1136630Y1149150D01*
X1137130Y1149240D01*
X1137620Y1149290D01*
X1138130Y1149300D01*
X1138630Y1149270D01*
X1139120Y1149200D01*
X1139610Y1149090D01*
X1140090Y1148940D01*
X1140550Y1148760D01*
X1141000Y1148540D01*
X1141430Y1148280D01*
X1141840Y1147990D01*
X1142230Y1147670D01*
X1142590Y1147320D01*
X1142910Y1146940D01*
X1143210Y1146540D01*
X1143480Y1146110D01*
X1143710Y1145670D01*
X1143900Y1145210D01*
X1144060Y1144730D01*
X1144180Y1144240D01*
X1144260Y1143750D01*
X1144300Y1143250D01*
X1144300Y1142750D01*
X1144260Y1142250D01*
X1144180Y1141760D01*
X1144060Y1141270D01*
X1143900Y1140790D01*
X1143710Y1140330D01*
X1143480Y1139890D01*
X1143210Y1139460D01*
X1142910Y1139060D01*
X1142590Y1138680D01*
X1142230Y1138330D01*
X1141840Y1138010D01*
X1141430Y1137720D01*
X1141000Y1137460D01*
X1140550Y1137240D01*
X1140090Y1137060D01*
X1139610Y1136910D01*
X1139120Y1136800D01*
X1138630Y1136730D01*
X1138130Y1136700D01*
X1137620Y1136710D01*
X1137130Y1136760D01*
X1136630Y1136850D01*
X1136150Y1136980D01*
X1135680Y1137140D01*
X1135220Y1137350D01*
X1134780Y1137590D01*
X1134360Y1137860D01*
X1133960Y1138160D01*
X1133590Y1138500D01*
X1133250Y1138870D01*
X1132930Y1139260D01*
X1132650Y1139670D01*
X1132400Y1140110D01*
X1132190Y1140560D01*
X1132020Y1141030D01*
X1131880Y1141510D01*
X1131780Y1142000D01*
X1131720Y1142500D01*
X1131700Y1143000D01*
X1302200Y1142500D02*
X1302220Y1143000D01*
X1302280Y1143500D01*
X1302380Y1143990D01*
X1302520Y1144470D01*
X1302690Y1144940D01*
X1302900Y1145390D01*
X1303150Y1145830D01*
X1303430Y1146240D01*
X1303750Y1146630D01*
X1304090Y1147000D01*
X1304460Y1147340D01*
X1304860Y1147640D01*
X1305280Y1147910D01*
X1305720Y1148150D01*
X1306180Y1148360D01*
X1306650Y1148520D01*
X1307130Y1148650D01*
X1307630Y1148740D01*
X1308120Y1148790D01*
X1308630Y1148800D01*
X1309130Y1148770D01*
X1309620Y1148700D01*
X1310110Y1148590D01*
X1310590Y1148440D01*
X1311050Y1148260D01*
X1311500Y1148040D01*
X1311930Y1147780D01*
X1312340Y1147490D01*
X1312730Y1147170D01*
X1313090Y1146820D01*
X1313410Y1146440D01*
X1313710Y1146040D01*
X1313980Y1145610D01*
X1314210Y1145170D01*
X1314400Y1144710D01*
X1314560Y1144230D01*
X1314680Y1143740D01*
X1314760Y1143250D01*
X1314800Y1142750D01*
X1314800Y1142250D01*
X1314760Y1141750D01*
X1314680Y1141260D01*
X1314560Y1140770D01*
X1314400Y1140290D01*
X1314210Y1139830D01*
X1313980Y1139390D01*
X1313710Y1138960D01*
X1313410Y1138560D01*
X1313090Y1138180D01*
X1312730Y1137830D01*
X1312340Y1137510D01*
X1311930Y1137220D01*
X1311500Y1136960D01*
X1311050Y1136740D01*
X1310590Y1136560D01*
X1310110Y1136410D01*
X1309620Y1136300D01*
X1309130Y1136230D01*
X1308630Y1136200D01*
X1308120Y1136210D01*
X1307630Y1136260D01*
X1307130Y1136350D01*
X1306650Y1136480D01*
X1306180Y1136640D01*
X1305720Y1136850D01*
X1305280Y1137090D01*
X1304860Y1137360D01*
X1304460Y1137660D01*
X1304090Y1138000D01*
X1303750Y1138370D01*
X1303430Y1138760D01*
X1303150Y1139170D01*
X1302900Y1139610D01*
X1302690Y1140060D01*
X1302520Y1140530D01*
X1302380Y1141010D01*
X1302280Y1141500D01*
X1302220Y1142000D01*
X1302200Y1142500D01*
D906*
X1129190Y0642130D02*
X1067770Y0642130D01*
X1067770Y0594880D01*
X1129190Y0594880D01*
X1129190Y0642130D01*
X1390000Y0594500D02*
G75*
%LPD*%
D318*
X1390000Y0594500D02*
X1390000Y0695000D01*
X1400500Y0695000D01*
X1400500Y0705000D01*
X1390000Y0705000D01*
X1390000Y1156500D01*
X1720000Y1156500D01*
X1720000Y0704500D01*
X1709500Y0704500D01*
X1709500Y0695000D01*
X1720000Y0695000D01*
X1720000Y0594500D01*
X1390000Y0594500D01*
D889*
X1574390Y0599940D02*
X1574390Y0674290D01*
X1579570Y0680500D02*
X1693000Y0680500D01*
D689*
X1689000Y0621050D02*
X1689020Y0621360D01*
X1689080Y0621670D01*
X1689170Y0621970D01*
X1689300Y0622260D01*
X1689470Y0622530D01*
X1689670Y0622770D01*
X1689890Y0622990D01*
X1690150Y0623180D01*
X1690420Y0623340D01*
X1690710Y0623460D01*
X1691010Y0623550D01*
X1691320Y0623600D01*
X1691640Y0623610D01*
X1691950Y0623580D01*
X1692260Y0623510D01*
X1692560Y0623410D01*
X1692840Y0623270D01*
X1693100Y0623090D01*
X1693340Y0622890D01*
X1693550Y0622650D01*
X1693740Y0622400D01*
X1693890Y0622120D01*
X1694000Y0621830D01*
X1694080Y0621520D01*
X1694120Y0621210D01*
X1694120Y0620890D01*
X1694080Y0620580D01*
X1694000Y0620270D01*
X1693890Y0619980D01*
X1693740Y0619700D01*
X1693550Y0619450D01*
X1693340Y0619210D01*
X1693100Y0619010D01*
X1692840Y0618830D01*
X1692560Y0618690D01*
X1692260Y0618590D01*
X1691950Y0618520D01*
X1691640Y0618490D01*
X1691320Y0618500D01*
X1691010Y0618550D01*
X1690710Y0618640D01*
X1690420Y0618760D01*
X1690150Y0618920D01*
X1689890Y0619110D01*
X1689670Y0619330D01*
X1689470Y0619570D01*
X1689300Y0619840D01*
X1689170Y0620130D01*
X1689080Y0620430D01*
X1689020Y0620740D01*
X1689000Y0621050D01*
X1633880Y0621050D02*
X1633900Y0621360D01*
X1633960Y0621670D01*
X1634050Y0621970D01*
X1634180Y0622260D01*
X1634350Y0622530D01*
X1634550Y0622770D01*
X1634770Y0622990D01*
X1635030Y0623180D01*
X1635300Y0623340D01*
X1635590Y0623460D01*
X1635890Y0623550D01*
X1636200Y0623600D01*
X1636520Y0623610D01*
X1636830Y0623580D01*
X1637140Y0623510D01*
X1637440Y0623410D01*
X1637720Y0623270D01*
X1637980Y0623090D01*
X1638220Y0622890D01*
X1638430Y0622650D01*
X1638620Y0622400D01*
X1638770Y0622120D01*
X1638880Y0621830D01*
X1638960Y0621520D01*
X1639000Y0621210D01*
X1639000Y0620890D01*
X1638960Y0620580D01*
X1638880Y0620270D01*
X1638770Y0619980D01*
X1638620Y0619700D01*
X1638430Y0619450D01*
X1638220Y0619210D01*
X1637980Y0619010D01*
X1637720Y0618830D01*
X1637440Y0618690D01*
X1637140Y0618590D01*
X1636830Y0618520D01*
X1636520Y0618490D01*
X1636200Y0618500D01*
X1635890Y0618550D01*
X1635590Y0618640D01*
X1635300Y0618760D01*
X1635030Y0618920D01*
X1634770Y0619110D01*
X1634550Y0619330D01*
X1634350Y0619570D01*
X1634180Y0619840D01*
X1634050Y0620130D01*
X1633960Y0620430D01*
X1633900Y0620740D01*
X1633880Y0621050D01*
X1621200Y1142500D02*
X1621220Y1143000D01*
X1621280Y1143500D01*
X1621380Y1143990D01*
X1621520Y1144470D01*
X1621690Y1144940D01*
X1621900Y1145390D01*
X1622150Y1145830D01*
X1622430Y1146240D01*
X1622750Y1146630D01*
X1623090Y1147000D01*
X1623460Y1147340D01*
X1623860Y1147640D01*
X1624280Y1147910D01*
X1624720Y1148150D01*
X1625180Y1148360D01*
X1625650Y1148520D01*
X1626130Y1148650D01*
X1626630Y1148740D01*
X1627120Y1148790D01*
X1627630Y1148800D01*
X1628130Y1148770D01*
X1628620Y1148700D01*
X1629110Y1148590D01*
X1629590Y1148440D01*
X1630050Y1148260D01*
X1630500Y1148040D01*
X1630930Y1147780D01*
X1631340Y1147490D01*
X1631730Y1147170D01*
X1632090Y1146820D01*
X1632410Y1146440D01*
X1632710Y1146040D01*
X1632980Y1145610D01*
X1633210Y1145170D01*
X1633400Y1144710D01*
X1633560Y1144230D01*
X1633680Y1143740D01*
X1633760Y1143250D01*
X1633800Y1142750D01*
X1633800Y1142250D01*
X1633760Y1141750D01*
X1633680Y1141260D01*
X1633560Y1140770D01*
X1633400Y1140290D01*
X1633210Y1139830D01*
X1632980Y1139390D01*
X1632710Y1138960D01*
X1632410Y1138560D01*
X1632090Y1138180D01*
X1631730Y1137830D01*
X1631340Y1137510D01*
X1630930Y1137220D01*
X1630500Y1136960D01*
X1630050Y1136740D01*
X1629590Y1136560D01*
X1629110Y1136410D01*
X1628620Y1136300D01*
X1628130Y1136230D01*
X1627630Y1136200D01*
X1627120Y1136210D01*
X1626630Y1136260D01*
X1626130Y1136350D01*
X1625650Y1136480D01*
X1625180Y1136640D01*
X1624720Y1136850D01*
X1624280Y1137090D01*
X1623860Y1137360D01*
X1623460Y1137660D01*
X1623090Y1138000D01*
X1622750Y1138370D01*
X1622430Y1138760D01*
X1622150Y1139170D01*
X1621900Y1139610D01*
X1621690Y1140060D01*
X1621520Y1140530D01*
X1621380Y1141010D01*
X1621280Y1141500D01*
X1621220Y1142000D01*
X1621200Y1142500D01*
X1594700Y1142500D02*
X1594720Y1143000D01*
X1594780Y1143500D01*
X1594880Y1143990D01*
X1595020Y1144470D01*
X1595190Y1144940D01*
X1595400Y1145390D01*
X1595650Y1145830D01*
X1595930Y1146240D01*
X1596250Y1146630D01*
X1596590Y1147000D01*
X1596960Y1147340D01*
X1597360Y1147640D01*
X1597780Y1147910D01*
X1598220Y1148150D01*
X1598680Y1148360D01*
X1599150Y1148520D01*
X1599630Y1148650D01*
X1600130Y1148740D01*
X1600620Y1148790D01*
X1601130Y1148800D01*
X1601630Y1148770D01*
X1602120Y1148700D01*
X1602610Y1148590D01*
X1603090Y1148440D01*
X1603550Y1148260D01*
X1604000Y1148040D01*
X1604430Y1147780D01*
X1604840Y1147490D01*
X1605230Y1147170D01*
X1605590Y1146820D01*
X1605910Y1146440D01*
X1606210Y1146040D01*
X1606480Y1145610D01*
X1606710Y1145170D01*
X1606900Y1144710D01*
X1607060Y1144230D01*
X1607180Y1143740D01*
X1607260Y1143250D01*
X1607300Y1142750D01*
X1607300Y1142250D01*
X1607260Y1141750D01*
X1607180Y1141260D01*
X1607060Y1140770D01*
X1606900Y1140290D01*
X1606710Y1139830D01*
X1606480Y1139390D01*
X1606210Y1138960D01*
X1605910Y1138560D01*
X1605590Y1138180D01*
X1605230Y1137830D01*
X1604840Y1137510D01*
X1604430Y1137220D01*
X1604000Y1136960D01*
X1603550Y1136740D01*
X1603090Y1136560D01*
X1602610Y1136410D01*
X1602120Y1136300D01*
X1601630Y1136230D01*
X1601130Y1136200D01*
X1600620Y1136210D01*
X1600130Y1136260D01*
X1599630Y1136350D01*
X1599150Y1136480D01*
X1598680Y1136640D01*
X1598220Y1136850D01*
X1597780Y1137090D01*
X1597360Y1137360D01*
X1596960Y1137660D01*
X1596590Y1138000D01*
X1596250Y1138370D01*
X1595930Y1138760D01*
X1595650Y1139170D01*
X1595400Y1139610D01*
X1595190Y1140060D01*
X1595020Y1140530D01*
X1594880Y1141010D01*
X1594780Y1141500D01*
X1594720Y1142000D01*
X1594700Y1142500D01*
X1572700Y1142500D02*
X1572720Y1143000D01*
X1572780Y1143500D01*
X1572880Y1143990D01*
X1573020Y1144470D01*
X1573190Y1144940D01*
X1573400Y1145390D01*
X1573650Y1145830D01*
X1573930Y1146240D01*
X1574250Y1146630D01*
X1574590Y1147000D01*
X1574960Y1147340D01*
X1575360Y1147640D01*
X1575780Y1147910D01*
X1576220Y1148150D01*
X1576680Y1148360D01*
X1577150Y1148520D01*
X1577630Y1148650D01*
X1578130Y1148740D01*
X1578620Y1148790D01*
X1579130Y1148800D01*
X1579630Y1148770D01*
X1580120Y1148700D01*
X1580610Y1148590D01*
X1581090Y1148440D01*
X1581550Y1148260D01*
X1582000Y1148040D01*
X1582430Y1147780D01*
X1582840Y1147490D01*
X1583230Y1147170D01*
X1583590Y1146820D01*
X1583910Y1146440D01*
X1584210Y1146040D01*
X1584480Y1145610D01*
X1584710Y1145170D01*
X1584900Y1144710D01*
X1585060Y1144230D01*
X1585180Y1143740D01*
X1585260Y1143250D01*
X1585300Y1142750D01*
X1585300Y1142250D01*
X1585260Y1141750D01*
X1585180Y1141260D01*
X1585060Y1140770D01*
X1584900Y1140290D01*
X1584710Y1139830D01*
X1584480Y1139390D01*
X1584210Y1138960D01*
X1583910Y1138560D01*
X1583590Y1138180D01*
X1583230Y1137830D01*
X1582840Y1137510D01*
X1582430Y1137220D01*
X1582000Y1136960D01*
X1581550Y1136740D01*
X1581090Y1136560D01*
X1580610Y1136410D01*
X1580120Y1136300D01*
X1579630Y1136230D01*
X1579130Y1136200D01*
X1578620Y1136210D01*
X1578130Y1136260D01*
X1577630Y1136350D01*
X1577150Y1136480D01*
X1576680Y1136640D01*
X1576220Y1136850D01*
X1575780Y1137090D01*
X1575360Y1137360D01*
X1574960Y1137660D01*
X1574590Y1138000D01*
X1574250Y1138370D01*
X1573930Y1138760D01*
X1573650Y1139170D01*
X1573400Y1139610D01*
X1573190Y1140060D01*
X1573020Y1140530D01*
X1572880Y1141010D01*
X1572780Y1141500D01*
X1572720Y1142000D01*
X1572700Y1142500D01*
X1545700Y1142500D02*
X1545720Y1143000D01*
X1545780Y1143500D01*
X1545880Y1143990D01*
X1546020Y1144470D01*
X1546190Y1144940D01*
X1546400Y1145390D01*
X1546650Y1145830D01*
X1546930Y1146240D01*
X1547250Y1146630D01*
X1547590Y1147000D01*
X1547960Y1147340D01*
X1548360Y1147640D01*
X1548780Y1147910D01*
X1549220Y1148150D01*
X1549680Y1148360D01*
X1550150Y1148520D01*
X1550630Y1148650D01*
X1551130Y1148740D01*
X1551620Y1148790D01*
X1552130Y1148800D01*
X1552630Y1148770D01*
X1553120Y1148700D01*
X1553610Y1148590D01*
X1554090Y1148440D01*
X1554550Y1148260D01*
X1555000Y1148040D01*
X1555430Y1147780D01*
X1555840Y1147490D01*
X1556230Y1147170D01*
X1556590Y1146820D01*
X1556910Y1146440D01*
X1557210Y1146040D01*
X1557480Y1145610D01*
X1557710Y1145170D01*
X1557900Y1144710D01*
X1558060Y1144230D01*
X1558180Y1143740D01*
X1558260Y1143250D01*
X1558300Y1142750D01*
X1558300Y1142250D01*
X1558260Y1141750D01*
X1558180Y1141260D01*
X1558060Y1140770D01*
X1557900Y1140290D01*
X1557710Y1139830D01*
X1557480Y1139390D01*
X1557210Y1138960D01*
X1556910Y1138560D01*
X1556590Y1138180D01*
X1556230Y1137830D01*
X1555840Y1137510D01*
X1555430Y1137220D01*
X1555000Y1136960D01*
X1554550Y1136740D01*
X1554090Y1136560D01*
X1553610Y1136410D01*
X1553120Y1136300D01*
X1552630Y1136230D01*
X1552130Y1136200D01*
X1551620Y1136210D01*
X1551130Y1136260D01*
X1550630Y1136350D01*
X1550150Y1136480D01*
X1549680Y1136640D01*
X1549220Y1136850D01*
X1548780Y1137090D01*
X1548360Y1137360D01*
X1547960Y1137660D01*
X1547590Y1138000D01*
X1547250Y1138370D01*
X1546930Y1138760D01*
X1546650Y1139170D01*
X1546400Y1139610D01*
X1546190Y1140060D01*
X1546020Y1140530D01*
X1545880Y1141010D01*
X1545780Y1141500D01*
X1545720Y1142000D01*
X1545700Y1142500D01*
X1523700Y1142500D02*
X1523720Y1143000D01*
X1523780Y1143500D01*
X1523880Y1143990D01*
X1524020Y1144470D01*
X1524190Y1144940D01*
X1524400Y1145390D01*
X1524650Y1145830D01*
X1524930Y1146240D01*
X1525250Y1146630D01*
X1525590Y1147000D01*
X1525960Y1147340D01*
X1526360Y1147640D01*
X1526780Y1147910D01*
X1527220Y1148150D01*
X1527680Y1148360D01*
X1528150Y1148520D01*
X1528630Y1148650D01*
X1529130Y1148740D01*
X1529620Y1148790D01*
X1530130Y1148800D01*
X1530630Y1148770D01*
X1531120Y1148700D01*
X1531610Y1148590D01*
X1532090Y1148440D01*
X1532550Y1148260D01*
X1533000Y1148040D01*
X1533430Y1147780D01*
X1533840Y1147490D01*
X1534230Y1147170D01*
X1534590Y1146820D01*
X1534910Y1146440D01*
X1535210Y1146040D01*
X1535480Y1145610D01*
X1535710Y1145170D01*
X1535900Y1144710D01*
X1536060Y1144230D01*
X1536180Y1143740D01*
X1536260Y1143250D01*
X1536300Y1142750D01*
X1536300Y1142250D01*
X1536260Y1141750D01*
X1536180Y1141260D01*
X1536060Y1140770D01*
X1535900Y1140290D01*
X1535710Y1139830D01*
X1535480Y1139390D01*
X1535210Y1138960D01*
X1534910Y1138560D01*
X1534590Y1138180D01*
X1534230Y1137830D01*
X1533840Y1137510D01*
X1533430Y1137220D01*
X1533000Y1136960D01*
X1532550Y1136740D01*
X1532090Y1136560D01*
X1531610Y1136410D01*
X1531120Y1136300D01*
X1530630Y1136230D01*
X1530130Y1136200D01*
X1529620Y1136210D01*
X1529130Y1136260D01*
X1528630Y1136350D01*
X1528150Y1136480D01*
X1527680Y1136640D01*
X1527220Y1136850D01*
X1526780Y1137090D01*
X1526360Y1137360D01*
X1525960Y1137660D01*
X1525590Y1138000D01*
X1525250Y1138370D01*
X1524930Y1138760D01*
X1524650Y1139170D01*
X1524400Y1139610D01*
X1524190Y1140060D01*
X1524020Y1140530D01*
X1523880Y1141010D01*
X1523780Y1141500D01*
X1523720Y1142000D01*
X1523700Y1142500D01*
X1494700Y1143000D02*
X1494720Y1143500D01*
X1494780Y1144000D01*
X1494880Y1144490D01*
X1495020Y1144970D01*
X1495190Y1145440D01*
X1495400Y1145890D01*
X1495650Y1146330D01*
X1495930Y1146740D01*
X1496250Y1147130D01*
X1496590Y1147500D01*
X1496960Y1147840D01*
X1497360Y1148140D01*
X1497780Y1148410D01*
X1498220Y1148650D01*
X1498680Y1148860D01*
X1499150Y1149020D01*
X1499630Y1149150D01*
X1500130Y1149240D01*
X1500620Y1149290D01*
X1501130Y1149300D01*
X1501630Y1149270D01*
X1502120Y1149200D01*
X1502610Y1149090D01*
X1503090Y1148940D01*
X1503550Y1148760D01*
X1504000Y1148540D01*
X1504430Y1148280D01*
X1504840Y1147990D01*
X1505230Y1147670D01*
X1505590Y1147320D01*
X1505910Y1146940D01*
X1506210Y1146540D01*
X1506480Y1146110D01*
X1506710Y1145670D01*
X1506900Y1145210D01*
X1507060Y1144730D01*
X1507180Y1144240D01*
X1507260Y1143750D01*
X1507300Y1143250D01*
X1507300Y1142750D01*
X1507260Y1142250D01*
X1507180Y1141760D01*
X1507060Y1141270D01*
X1506900Y1140790D01*
X1506710Y1140330D01*
X1506480Y1139890D01*
X1506210Y1139460D01*
X1505910Y1139060D01*
X1505590Y1138680D01*
X1505230Y1138330D01*
X1504840Y1138010D01*
X1504430Y1137720D01*
X1504000Y1137460D01*
X1503550Y1137240D01*
X1503090Y1137060D01*
X1502610Y1136910D01*
X1502120Y1136800D01*
X1501630Y1136730D01*
X1501130Y1136700D01*
X1500620Y1136710D01*
X1500130Y1136760D01*
X1499630Y1136850D01*
X1499150Y1136980D01*
X1498680Y1137140D01*
X1498220Y1137350D01*
X1497780Y1137590D01*
X1497360Y1137860D01*
X1496960Y1138160D01*
X1496590Y1138500D01*
X1496250Y1138870D01*
X1495930Y1139260D01*
X1495650Y1139670D01*
X1495400Y1140110D01*
X1495190Y1140560D01*
X1495020Y1141030D01*
X1494880Y1141510D01*
X1494780Y1142000D01*
X1494720Y1142500D01*
X1494700Y1143000D01*
X1474200Y1143000D02*
X1474220Y1143500D01*
X1474280Y1144000D01*
X1474380Y1144490D01*
X1474520Y1144970D01*
X1474690Y1145440D01*
X1474900Y1145890D01*
X1475150Y1146330D01*
X1475430Y1146740D01*
X1475750Y1147130D01*
X1476090Y1147500D01*
X1476460Y1147840D01*
X1476860Y1148140D01*
X1477280Y1148410D01*
X1477720Y1148650D01*
X1478180Y1148860D01*
X1478650Y1149020D01*
X1479130Y1149150D01*
X1479630Y1149240D01*
X1480120Y1149290D01*
X1480630Y1149300D01*
X1481130Y1149270D01*
X1481620Y1149200D01*
X1482110Y1149090D01*
X1482590Y1148940D01*
X1483050Y1148760D01*
X1483500Y1148540D01*
X1483930Y1148280D01*
X1484340Y1147990D01*
X1484730Y1147670D01*
X1485090Y1147320D01*
X1485410Y1146940D01*
X1485710Y1146540D01*
X1485980Y1146110D01*
X1486210Y1145670D01*
X1486400Y1145210D01*
X1486560Y1144730D01*
X1486680Y1144240D01*
X1486760Y1143750D01*
X1486800Y1143250D01*
X1486800Y1142750D01*
X1486760Y1142250D01*
X1486680Y1141760D01*
X1486560Y1141270D01*
X1486400Y1140790D01*
X1486210Y1140330D01*
X1485980Y1139890D01*
X1485710Y1139460D01*
X1485410Y1139060D01*
X1485090Y1138680D01*
X1484730Y1138330D01*
X1484340Y1138010D01*
X1483930Y1137720D01*
X1483500Y1137460D01*
X1483050Y1137240D01*
X1482590Y1137060D01*
X1482110Y1136910D01*
X1481620Y1136800D01*
X1481130Y1136730D01*
X1480630Y1136700D01*
X1480120Y1136710D01*
X1479630Y1136760D01*
X1479130Y1136850D01*
X1478650Y1136980D01*
X1478180Y1137140D01*
X1477720Y1137350D01*
X1477280Y1137590D01*
X1476860Y1137860D01*
X1476460Y1138160D01*
X1476090Y1138500D01*
X1475750Y1138870D01*
X1475430Y1139260D01*
X1475150Y1139670D01*
X1474900Y1140110D01*
X1474690Y1140560D01*
X1474520Y1141030D01*
X1474380Y1141510D01*
X1474280Y1142000D01*
X1474220Y1142500D01*
X1474200Y1143000D01*
X1644700Y1142500D02*
X1644720Y1143000D01*
X1644780Y1143500D01*
X1644880Y1143990D01*
X1645020Y1144470D01*
X1645190Y1144940D01*
X1645400Y1145390D01*
X1645650Y1145830D01*
X1645930Y1146240D01*
X1646250Y1146630D01*
X1646590Y1147000D01*
X1646960Y1147340D01*
X1647360Y1147640D01*
X1647780Y1147910D01*
X1648220Y1148150D01*
X1648680Y1148360D01*
X1649150Y1148520D01*
X1649630Y1148650D01*
X1650130Y1148740D01*
X1650620Y1148790D01*
X1651130Y1148800D01*
X1651630Y1148770D01*
X1652120Y1148700D01*
X1652610Y1148590D01*
X1653090Y1148440D01*
X1653550Y1148260D01*
X1654000Y1148040D01*
X1654430Y1147780D01*
X1654840Y1147490D01*
X1655230Y1147170D01*
X1655590Y1146820D01*
X1655910Y1146440D01*
X1656210Y1146040D01*
X1656480Y1145610D01*
X1656710Y1145170D01*
X1656900Y1144710D01*
X1657060Y1144230D01*
X1657180Y1143740D01*
X1657260Y1143250D01*
X1657300Y1142750D01*
X1657300Y1142250D01*
X1657260Y1141750D01*
X1657180Y1141260D01*
X1657060Y1140770D01*
X1656900Y1140290D01*
X1656710Y1139830D01*
X1656480Y1139390D01*
X1656210Y1138960D01*
X1655910Y1138560D01*
X1655590Y1138180D01*
X1655230Y1137830D01*
X1654840Y1137510D01*
X1654430Y1137220D01*
X1654000Y1136960D01*
X1653550Y1136740D01*
X1653090Y1136560D01*
X1652610Y1136410D01*
X1652120Y1136300D01*
X1651630Y1136230D01*
X1651130Y1136200D01*
X1650620Y1136210D01*
X1650130Y1136260D01*
X1649630Y1136350D01*
X1649150Y1136480D01*
X1648680Y1136640D01*
X1648220Y1136850D01*
X1647780Y1137090D01*
X1647360Y1137360D01*
X1646960Y1137660D01*
X1646590Y1138000D01*
X1646250Y1138370D01*
X1645930Y1138760D01*
X1645650Y1139170D01*
X1645400Y1139610D01*
X1645190Y1140060D01*
X1645020Y1140530D01*
X1644880Y1141010D01*
X1644780Y1141500D01*
X1644720Y1142000D01*
X1644700Y1142500D01*
D906*
X1471690Y0642130D02*
X1410270Y0642130D01*
X1410270Y0594880D01*
X1471690Y0594880D01*
X1471690Y0642130D01*
M02*
