G75*
G70*
%OFA0B0*%
%FSLAX25Y25*%
%IPPOS*%
%LPD*%
%AMOC8*
5,1,8,0,0,1.08239X$1,22.5*
%
%ADD131R,0.04720X0.03150*%
%ADD16R,0.06300X0.07090*%
%ADD183R,0.04330X0.05510*%
%ADD307R,0.08000X0.02600*%
%ADD409R,0.05510X0.04330*%
%ADD413R,0.03150X0.04720*%
%ADD564R,0.05910X0.05120*%
%ADD622R,0.05120X0.05910*%
%ADD636R,0.03540X0.04720*%
X0020000Y0020000D02*
G75*
%LPD*%
D564*
X0094000Y0223660D03*
X0094000Y0230350D03*
X0118000Y0230350D03*
X0118000Y0223660D03*
X0163400Y0223860D03*
X0163400Y0230550D03*
X0216720Y0230720D03*
X0216720Y0224020D03*
X0262170Y0224390D03*
X0262170Y0231080D03*
X0319000Y0189150D03*
X0319000Y0182460D03*
D131*
X0276970Y0079100D03*
X0276970Y0072010D03*
X0060130Y0155380D03*
X0060130Y0162460D03*
D622*
X0183520Y0179190D03*
X0190210Y0179190D03*
X0187890Y0148220D03*
X0194580Y0148220D03*
X0282450Y0174600D03*
X0289150Y0174600D03*
X0293650Y0527000D03*
X0300350Y0527000D03*
X0248350Y0528000D03*
X0241650Y0528000D03*
X0197350Y0530000D03*
X0190650Y0530000D03*
X0150350Y0529000D03*
X0143650Y0529000D03*
X0099350Y0528000D03*
X0092650Y0528000D03*
D307*
X0192310Y0043830D03*
X0192310Y0038830D03*
X0192310Y0033830D03*
X0192310Y0028830D03*
X0216510Y0028830D03*
X0216510Y0033830D03*
X0216510Y0038830D03*
X0216510Y0043830D03*
D16*
X0296140Y0036490D03*
X0307160Y0036490D03*
D409*
X0175560Y0203720D03*
X0175560Y0211600D03*
X0145300Y0212600D03*
X0145300Y0204720D03*
X0139090Y0252780D03*
X0139090Y0260650D03*
X0191810Y0262150D03*
X0191810Y0254280D03*
X0241040Y0257280D03*
X0241040Y0265150D03*
X0300240Y0253230D03*
X0300240Y0245360D03*
X0144500Y0440570D03*
X0144500Y0448440D03*
X0096870Y0450600D03*
X0096870Y0442720D03*
X0087000Y0505070D03*
X0087000Y0512940D03*
X0142660Y0513650D03*
X0142660Y0505780D03*
X0197940Y0508780D03*
X0197940Y0516650D03*
X0246210Y0517650D03*
X0246210Y0509780D03*
X0287110Y0512430D03*
X0287110Y0504560D03*
X0284020Y0460300D03*
X0284020Y0452420D03*
X0245470Y0452100D03*
X0245470Y0444220D03*
X0197420Y0444220D03*
X0197420Y0452100D03*
X0084500Y0254440D03*
X0084500Y0246570D03*
X0082750Y0194600D03*
X0082750Y0186720D03*
D636*
X0082820Y0201530D03*
X0077820Y0201530D03*
X0077820Y0226730D03*
X0082820Y0226730D03*
X0133150Y0220130D03*
X0138150Y0220130D03*
X0138150Y0245330D03*
X0133150Y0245330D03*
X0186410Y0244370D03*
X0191410Y0244370D03*
X0191410Y0219180D03*
X0186410Y0219180D03*
X0227680Y0220680D03*
X0232680Y0220680D03*
X0232680Y0245870D03*
X0227680Y0245870D03*
X0295320Y0236330D03*
X0300320Y0236330D03*
X0300320Y0211130D03*
X0295320Y0211130D03*
X0283930Y0469280D03*
X0278930Y0469280D03*
X0278930Y0494470D03*
X0283930Y0494470D03*
X0246010Y0494370D03*
X0241010Y0494370D03*
X0241010Y0469180D03*
X0246010Y0469180D03*
X0197780Y0469180D03*
X0192780Y0469180D03*
X0192780Y0494370D03*
X0197780Y0494370D03*
X0144560Y0494370D03*
X0139560Y0494370D03*
X0139560Y0469180D03*
X0144560Y0469180D03*
X0091640Y0468410D03*
X0086640Y0468410D03*
X0086640Y0493600D03*
X0091640Y0493600D03*
D183*
X0157060Y0032240D03*
X0164940Y0032240D03*
X0297800Y0045950D03*
X0305670Y0045950D03*
X0194290Y0205590D03*
X0186420Y0205590D03*
X0273720Y0212440D03*
X0281590Y0212440D03*
D413*
X0245680Y0029010D03*
X0238590Y0029010D03*
X0362500Y0020000D02*
G75*
%LPD*%
D564*
X0436500Y0223660D03*
X0436500Y0230350D03*
X0460500Y0230350D03*
X0460500Y0223660D03*
X0505900Y0223860D03*
X0505900Y0230550D03*
X0559220Y0230720D03*
X0559220Y0224020D03*
X0604670Y0224390D03*
X0604670Y0231080D03*
X0661500Y0189150D03*
X0661500Y0182460D03*
D131*
X0619470Y0079100D03*
X0619470Y0072010D03*
X0402630Y0155380D03*
X0402630Y0162460D03*
D622*
X0526020Y0179190D03*
X0532710Y0179190D03*
X0530390Y0148220D03*
X0537080Y0148220D03*
X0624950Y0174600D03*
X0631650Y0174600D03*
X0636150Y0527000D03*
X0642850Y0527000D03*
X0590850Y0528000D03*
X0584150Y0528000D03*
X0539850Y0530000D03*
X0533150Y0530000D03*
X0492850Y0529000D03*
X0486150Y0529000D03*
X0441850Y0528000D03*
X0435150Y0528000D03*
D307*
X0534810Y0043830D03*
X0534810Y0038830D03*
X0534810Y0033830D03*
X0534810Y0028830D03*
X0559010Y0028830D03*
X0559010Y0033830D03*
X0559010Y0038830D03*
X0559010Y0043830D03*
D16*
X0638640Y0036490D03*
X0649660Y0036490D03*
D409*
X0518060Y0203720D03*
X0518060Y0211600D03*
X0487800Y0212600D03*
X0487800Y0204720D03*
X0481590Y0252780D03*
X0481590Y0260650D03*
X0534310Y0262150D03*
X0534310Y0254280D03*
X0583540Y0257280D03*
X0583540Y0265150D03*
X0642740Y0253230D03*
X0642740Y0245360D03*
X0487000Y0440570D03*
X0487000Y0448440D03*
X0439370Y0450600D03*
X0439370Y0442720D03*
X0429500Y0505070D03*
X0429500Y0512940D03*
X0485160Y0513650D03*
X0485160Y0505780D03*
X0540440Y0508780D03*
X0540440Y0516650D03*
X0588710Y0517650D03*
X0588710Y0509780D03*
X0629610Y0512430D03*
X0629610Y0504560D03*
X0626520Y0460300D03*
X0626520Y0452420D03*
X0587970Y0452100D03*
X0587970Y0444220D03*
X0539920Y0444220D03*
X0539920Y0452100D03*
X0427000Y0254440D03*
X0427000Y0246570D03*
X0425250Y0194600D03*
X0425250Y0186720D03*
D636*
X0425320Y0201530D03*
X0420320Y0201530D03*
X0420320Y0226730D03*
X0425320Y0226730D03*
X0475650Y0220130D03*
X0480650Y0220130D03*
X0480650Y0245330D03*
X0475650Y0245330D03*
X0528910Y0244370D03*
X0533910Y0244370D03*
X0533910Y0219180D03*
X0528910Y0219180D03*
X0570180Y0220680D03*
X0575180Y0220680D03*
X0575180Y0245870D03*
X0570180Y0245870D03*
X0637820Y0236330D03*
X0642820Y0236330D03*
X0642820Y0211130D03*
X0637820Y0211130D03*
X0626430Y0469280D03*
X0621430Y0469280D03*
X0621430Y0494470D03*
X0626430Y0494470D03*
X0588510Y0494370D03*
X0583510Y0494370D03*
X0583510Y0469180D03*
X0588510Y0469180D03*
X0540280Y0469180D03*
X0535280Y0469180D03*
X0535280Y0494370D03*
X0540280Y0494370D03*
X0487060Y0494370D03*
X0482060Y0494370D03*
X0482060Y0469180D03*
X0487060Y0469180D03*
X0434140Y0468410D03*
X0429140Y0468410D03*
X0429140Y0493600D03*
X0434140Y0493600D03*
D183*
X0499560Y0032240D03*
X0507440Y0032240D03*
X0640300Y0045950D03*
X0648170Y0045950D03*
X0536790Y0205590D03*
X0528920Y0205590D03*
X0616220Y0212440D03*
X0624090Y0212440D03*
D413*
X0588180Y0029010D03*
X0581090Y0029010D03*
X0020000Y0594500D02*
G75*
%LPD*%
D564*
X0094000Y0798160D03*
X0094000Y0804850D03*
X0118000Y0804850D03*
X0118000Y0798160D03*
X0163400Y0798360D03*
X0163400Y0805050D03*
X0216720Y0805220D03*
X0216720Y0798520D03*
X0262170Y0798890D03*
X0262170Y0805580D03*
X0319000Y0763650D03*
X0319000Y0756960D03*
D131*
X0276970Y0653600D03*
X0276970Y0646510D03*
X0060130Y0729880D03*
X0060130Y0736960D03*
D622*
X0183520Y0753690D03*
X0190210Y0753690D03*
X0187890Y0722720D03*
X0194580Y0722720D03*
X0282450Y0749100D03*
X0289150Y0749100D03*
X0293650Y1101500D03*
X0300350Y1101500D03*
X0248350Y1102500D03*
X0241650Y1102500D03*
X0197350Y1104500D03*
X0190650Y1104500D03*
X0150350Y1103500D03*
X0143650Y1103500D03*
X0099350Y1102500D03*
X0092650Y1102500D03*
D307*
X0192310Y0618330D03*
X0192310Y0613330D03*
X0192310Y0608330D03*
X0192310Y0603330D03*
X0216510Y0603330D03*
X0216510Y0608330D03*
X0216510Y0613330D03*
X0216510Y0618330D03*
D16*
X0296140Y0610990D03*
X0307160Y0610990D03*
D409*
X0175560Y0778220D03*
X0175560Y0786100D03*
X0145300Y0787100D03*
X0145300Y0779220D03*
X0139090Y0827280D03*
X0139090Y0835150D03*
X0191810Y0836650D03*
X0191810Y0828780D03*
X0241040Y0831780D03*
X0241040Y0839650D03*
X0300240Y0827730D03*
X0300240Y0819860D03*
X0144500Y1015070D03*
X0144500Y1022940D03*
X0096870Y1025100D03*
X0096870Y1017220D03*
X0087000Y1079570D03*
X0087000Y1087440D03*
X0142660Y1088150D03*
X0142660Y1080280D03*
X0197940Y1083280D03*
X0197940Y1091150D03*
X0246210Y1092150D03*
X0246210Y1084280D03*
X0287110Y1086930D03*
X0287110Y1079060D03*
X0284020Y1034800D03*
X0284020Y1026920D03*
X0245470Y1026600D03*
X0245470Y1018720D03*
X0197420Y1018720D03*
X0197420Y1026600D03*
X0084500Y0828940D03*
X0084500Y0821070D03*
X0082750Y0769100D03*
X0082750Y0761220D03*
D636*
X0082820Y0776030D03*
X0077820Y0776030D03*
X0077820Y0801230D03*
X0082820Y0801230D03*
X0133150Y0794630D03*
X0138150Y0794630D03*
X0138150Y0819830D03*
X0133150Y0819830D03*
X0186410Y0818870D03*
X0191410Y0818870D03*
X0191410Y0793680D03*
X0186410Y0793680D03*
X0227680Y0795180D03*
X0232680Y0795180D03*
X0232680Y0820370D03*
X0227680Y0820370D03*
X0295320Y0810830D03*
X0300320Y0810830D03*
X0300320Y0785630D03*
X0295320Y0785630D03*
X0283930Y1043780D03*
X0278930Y1043780D03*
X0278930Y1068970D03*
X0283930Y1068970D03*
X0246010Y1068870D03*
X0241010Y1068870D03*
X0241010Y1043680D03*
X0246010Y1043680D03*
X0197780Y1043680D03*
X0192780Y1043680D03*
X0192780Y1068870D03*
X0197780Y1068870D03*
X0144560Y1068870D03*
X0139560Y1068870D03*
X0139560Y1043680D03*
X0144560Y1043680D03*
X0091640Y1042910D03*
X0086640Y1042910D03*
X0086640Y1068100D03*
X0091640Y1068100D03*
D183*
X0157060Y0606740D03*
X0164940Y0606740D03*
X0297800Y0620450D03*
X0305670Y0620450D03*
X0194290Y0780090D03*
X0186420Y0780090D03*
X0273720Y0786940D03*
X0281590Y0786940D03*
D413*
X0245680Y0603510D03*
X0238590Y0603510D03*
X0705000Y0020000D02*
G75*
%LPD*%
D564*
X0779000Y0223660D03*
X0779000Y0230350D03*
X0803000Y0230350D03*
X0803000Y0223660D03*
X0848400Y0223860D03*
X0848400Y0230550D03*
X0901720Y0230720D03*
X0901720Y0224020D03*
X0947170Y0224390D03*
X0947170Y0231080D03*
X1004000Y0189150D03*
X1004000Y0182460D03*
D131*
X0961970Y0079100D03*
X0961970Y0072010D03*
X0745130Y0155380D03*
X0745130Y0162460D03*
D622*
X0868520Y0179190D03*
X0875210Y0179190D03*
X0872890Y0148220D03*
X0879580Y0148220D03*
X0967450Y0174600D03*
X0974150Y0174600D03*
X0978650Y0527000D03*
X0985350Y0527000D03*
X0933350Y0528000D03*
X0926650Y0528000D03*
X0882350Y0530000D03*
X0875650Y0530000D03*
X0835350Y0529000D03*
X0828650Y0529000D03*
X0784350Y0528000D03*
X0777650Y0528000D03*
D307*
X0877310Y0043830D03*
X0877310Y0038830D03*
X0877310Y0033830D03*
X0877310Y0028830D03*
X0901510Y0028830D03*
X0901510Y0033830D03*
X0901510Y0038830D03*
X0901510Y0043830D03*
D16*
X0981140Y0036490D03*
X0992160Y0036490D03*
D409*
X0860560Y0203720D03*
X0860560Y0211600D03*
X0830300Y0212600D03*
X0830300Y0204720D03*
X0824090Y0252780D03*
X0824090Y0260650D03*
X0876810Y0262150D03*
X0876810Y0254280D03*
X0926040Y0257280D03*
X0926040Y0265150D03*
X0985240Y0253230D03*
X0985240Y0245360D03*
X0829500Y0440570D03*
X0829500Y0448440D03*
X0781870Y0450600D03*
X0781870Y0442720D03*
X0772000Y0505070D03*
X0772000Y0512940D03*
X0827660Y0513650D03*
X0827660Y0505780D03*
X0882940Y0508780D03*
X0882940Y0516650D03*
X0931210Y0517650D03*
X0931210Y0509780D03*
X0972110Y0512430D03*
X0972110Y0504560D03*
X0969020Y0460300D03*
X0969020Y0452420D03*
X0930470Y0452100D03*
X0930470Y0444220D03*
X0882420Y0444220D03*
X0882420Y0452100D03*
X0769500Y0254440D03*
X0769500Y0246570D03*
X0767750Y0194600D03*
X0767750Y0186720D03*
D636*
X0767820Y0201530D03*
X0762820Y0201530D03*
X0762820Y0226730D03*
X0767820Y0226730D03*
X0818150Y0220130D03*
X0823150Y0220130D03*
X0823150Y0245330D03*
X0818150Y0245330D03*
X0871410Y0244370D03*
X0876410Y0244370D03*
X0876410Y0219180D03*
X0871410Y0219180D03*
X0912680Y0220680D03*
X0917680Y0220680D03*
X0917680Y0245870D03*
X0912680Y0245870D03*
X0980320Y0236330D03*
X0985320Y0236330D03*
X0985320Y0211130D03*
X0980320Y0211130D03*
X0968930Y0469280D03*
X0963930Y0469280D03*
X0963930Y0494470D03*
X0968930Y0494470D03*
X0931010Y0494370D03*
X0926010Y0494370D03*
X0926010Y0469180D03*
X0931010Y0469180D03*
X0882780Y0469180D03*
X0877780Y0469180D03*
X0877780Y0494370D03*
X0882780Y0494370D03*
X0829560Y0494370D03*
X0824560Y0494370D03*
X0824560Y0469180D03*
X0829560Y0469180D03*
X0776640Y0468410D03*
X0771640Y0468410D03*
X0771640Y0493600D03*
X0776640Y0493600D03*
D183*
X0842060Y0032240D03*
X0849940Y0032240D03*
X0982800Y0045950D03*
X0990670Y0045950D03*
X0879290Y0205590D03*
X0871420Y0205590D03*
X0958720Y0212440D03*
X0966590Y0212440D03*
D413*
X0930680Y0029010D03*
X0923590Y0029010D03*
X1047500Y0020000D02*
G75*
%LPD*%
D564*
X1121500Y0223660D03*
X1121500Y0230350D03*
X1145500Y0230350D03*
X1145500Y0223660D03*
X1190900Y0223860D03*
X1190900Y0230550D03*
X1244220Y0230720D03*
X1244220Y0224020D03*
X1289670Y0224390D03*
X1289670Y0231080D03*
X1346500Y0189150D03*
X1346500Y0182460D03*
D131*
X1304470Y0079100D03*
X1304470Y0072010D03*
X1087630Y0155380D03*
X1087630Y0162460D03*
D622*
X1211020Y0179190D03*
X1217710Y0179190D03*
X1215390Y0148220D03*
X1222080Y0148220D03*
X1309950Y0174600D03*
X1316650Y0174600D03*
X1321150Y0527000D03*
X1327850Y0527000D03*
X1275850Y0528000D03*
X1269150Y0528000D03*
X1224850Y0530000D03*
X1218150Y0530000D03*
X1177850Y0529000D03*
X1171150Y0529000D03*
X1126850Y0528000D03*
X1120150Y0528000D03*
D307*
X1219810Y0043830D03*
X1219810Y0038830D03*
X1219810Y0033830D03*
X1219810Y0028830D03*
X1244010Y0028830D03*
X1244010Y0033830D03*
X1244010Y0038830D03*
X1244010Y0043830D03*
D16*
X1323640Y0036490D03*
X1334660Y0036490D03*
D409*
X1203060Y0203720D03*
X1203060Y0211600D03*
X1172800Y0212600D03*
X1172800Y0204720D03*
X1166590Y0252780D03*
X1166590Y0260650D03*
X1219310Y0262150D03*
X1219310Y0254280D03*
X1268540Y0257280D03*
X1268540Y0265150D03*
X1327740Y0253230D03*
X1327740Y0245360D03*
X1172000Y0440570D03*
X1172000Y0448440D03*
X1124370Y0450600D03*
X1124370Y0442720D03*
X1114500Y0505070D03*
X1114500Y0512940D03*
X1170160Y0513650D03*
X1170160Y0505780D03*
X1225440Y0508780D03*
X1225440Y0516650D03*
X1273710Y0517650D03*
X1273710Y0509780D03*
X1314610Y0512430D03*
X1314610Y0504560D03*
X1311520Y0460300D03*
X1311520Y0452420D03*
X1272970Y0452100D03*
X1272970Y0444220D03*
X1224920Y0444220D03*
X1224920Y0452100D03*
X1112000Y0254440D03*
X1112000Y0246570D03*
X1110250Y0194600D03*
X1110250Y0186720D03*
D636*
X1110320Y0201530D03*
X1105320Y0201530D03*
X1105320Y0226730D03*
X1110320Y0226730D03*
X1160650Y0220130D03*
X1165650Y0220130D03*
X1165650Y0245330D03*
X1160650Y0245330D03*
X1213910Y0244370D03*
X1218910Y0244370D03*
X1218910Y0219180D03*
X1213910Y0219180D03*
X1255180Y0220680D03*
X1260180Y0220680D03*
X1260180Y0245870D03*
X1255180Y0245870D03*
X1322820Y0236330D03*
X1327820Y0236330D03*
X1327820Y0211130D03*
X1322820Y0211130D03*
X1311430Y0469280D03*
X1306430Y0469280D03*
X1306430Y0494470D03*
X1311430Y0494470D03*
X1273510Y0494370D03*
X1268510Y0494370D03*
X1268510Y0469180D03*
X1273510Y0469180D03*
X1225280Y0469180D03*
X1220280Y0469180D03*
X1220280Y0494370D03*
X1225280Y0494370D03*
X1172060Y0494370D03*
X1167060Y0494370D03*
X1167060Y0469180D03*
X1172060Y0469180D03*
X1119140Y0468410D03*
X1114140Y0468410D03*
X1114140Y0493600D03*
X1119140Y0493600D03*
D183*
X1184560Y0032240D03*
X1192440Y0032240D03*
X1325300Y0045950D03*
X1333170Y0045950D03*
X1221790Y0205590D03*
X1213920Y0205590D03*
X1301220Y0212440D03*
X1309090Y0212440D03*
D413*
X1273180Y0029010D03*
X1266090Y0029010D03*
X1390000Y0020000D02*
G75*
%LPD*%
D564*
X1464000Y0223660D03*
X1464000Y0230350D03*
X1488000Y0230350D03*
X1488000Y0223660D03*
X1533400Y0223860D03*
X1533400Y0230550D03*
X1586720Y0230720D03*
X1586720Y0224020D03*
X1632170Y0224390D03*
X1632170Y0231080D03*
X1689000Y0189150D03*
X1689000Y0182460D03*
D131*
X1646970Y0079100D03*
X1646970Y0072010D03*
X1430130Y0155380D03*
X1430130Y0162460D03*
D622*
X1553520Y0179190D03*
X1560210Y0179190D03*
X1557890Y0148220D03*
X1564580Y0148220D03*
X1652450Y0174600D03*
X1659150Y0174600D03*
X1663650Y0527000D03*
X1670350Y0527000D03*
X1618350Y0528000D03*
X1611650Y0528000D03*
X1567350Y0530000D03*
X1560650Y0530000D03*
X1520350Y0529000D03*
X1513650Y0529000D03*
X1469350Y0528000D03*
X1462650Y0528000D03*
D307*
X1562310Y0043830D03*
X1562310Y0038830D03*
X1562310Y0033830D03*
X1562310Y0028830D03*
X1586510Y0028830D03*
X1586510Y0033830D03*
X1586510Y0038830D03*
X1586510Y0043830D03*
D16*
X1666140Y0036490D03*
X1677160Y0036490D03*
D409*
X1545560Y0203720D03*
X1545560Y0211600D03*
X1515300Y0212600D03*
X1515300Y0204720D03*
X1509090Y0252780D03*
X1509090Y0260650D03*
X1561810Y0262150D03*
X1561810Y0254280D03*
X1611040Y0257280D03*
X1611040Y0265150D03*
X1670240Y0253230D03*
X1670240Y0245360D03*
X1514500Y0440570D03*
X1514500Y0448440D03*
X1466870Y0450600D03*
X1466870Y0442720D03*
X1457000Y0505070D03*
X1457000Y0512940D03*
X1512660Y0513650D03*
X1512660Y0505780D03*
X1567940Y0508780D03*
X1567940Y0516650D03*
X1616210Y0517650D03*
X1616210Y0509780D03*
X1657110Y0512430D03*
X1657110Y0504560D03*
X1654020Y0460300D03*
X1654020Y0452420D03*
X1615470Y0452100D03*
X1615470Y0444220D03*
X1567420Y0444220D03*
X1567420Y0452100D03*
X1454500Y0254440D03*
X1454500Y0246570D03*
X1452750Y0194600D03*
X1452750Y0186720D03*
D636*
X1452820Y0201530D03*
X1447820Y0201530D03*
X1447820Y0226730D03*
X1452820Y0226730D03*
X1503150Y0220130D03*
X1508150Y0220130D03*
X1508150Y0245330D03*
X1503150Y0245330D03*
X1556410Y0244370D03*
X1561410Y0244370D03*
X1561410Y0219180D03*
X1556410Y0219180D03*
X1597680Y0220680D03*
X1602680Y0220680D03*
X1602680Y0245870D03*
X1597680Y0245870D03*
X1665320Y0236330D03*
X1670320Y0236330D03*
X1670320Y0211130D03*
X1665320Y0211130D03*
X1653930Y0469280D03*
X1648930Y0469280D03*
X1648930Y0494470D03*
X1653930Y0494470D03*
X1616010Y0494370D03*
X1611010Y0494370D03*
X1611010Y0469180D03*
X1616010Y0469180D03*
X1567780Y0469180D03*
X1562780Y0469180D03*
X1562780Y0494370D03*
X1567780Y0494370D03*
X1514560Y0494370D03*
X1509560Y0494370D03*
X1509560Y0469180D03*
X1514560Y0469180D03*
X1461640Y0468410D03*
X1456640Y0468410D03*
X1456640Y0493600D03*
X1461640Y0493600D03*
D183*
X1527060Y0032240D03*
X1534940Y0032240D03*
X1667800Y0045950D03*
X1675670Y0045950D03*
X1564290Y0205590D03*
X1556420Y0205590D03*
X1643720Y0212440D03*
X1651590Y0212440D03*
D413*
X1615680Y0029010D03*
X1608590Y0029010D03*
X0362500Y0594500D02*
G75*
%LPD*%
D564*
X0436500Y0798160D03*
X0436500Y0804850D03*
X0460500Y0804850D03*
X0460500Y0798160D03*
X0505900Y0798360D03*
X0505900Y0805050D03*
X0559220Y0805220D03*
X0559220Y0798520D03*
X0604670Y0798890D03*
X0604670Y0805580D03*
X0661500Y0763650D03*
X0661500Y0756960D03*
D131*
X0619470Y0653600D03*
X0619470Y0646510D03*
X0402630Y0729880D03*
X0402630Y0736960D03*
D622*
X0526020Y0753690D03*
X0532710Y0753690D03*
X0530390Y0722720D03*
X0537080Y0722720D03*
X0624950Y0749100D03*
X0631650Y0749100D03*
X0636150Y1101500D03*
X0642850Y1101500D03*
X0590850Y1102500D03*
X0584150Y1102500D03*
X0539850Y1104500D03*
X0533150Y1104500D03*
X0492850Y1103500D03*
X0486150Y1103500D03*
X0441850Y1102500D03*
X0435150Y1102500D03*
D307*
X0534810Y0618330D03*
X0534810Y0613330D03*
X0534810Y0608330D03*
X0534810Y0603330D03*
X0559010Y0603330D03*
X0559010Y0608330D03*
X0559010Y0613330D03*
X0559010Y0618330D03*
D16*
X0638640Y0610990D03*
X0649660Y0610990D03*
D409*
X0518060Y0778220D03*
X0518060Y0786100D03*
X0487800Y0787100D03*
X0487800Y0779220D03*
X0481590Y0827280D03*
X0481590Y0835150D03*
X0534310Y0836650D03*
X0534310Y0828780D03*
X0583540Y0831780D03*
X0583540Y0839650D03*
X0642740Y0827730D03*
X0642740Y0819860D03*
X0487000Y1015070D03*
X0487000Y1022940D03*
X0439370Y1025100D03*
X0439370Y1017220D03*
X0429500Y1079570D03*
X0429500Y1087440D03*
X0485160Y1088150D03*
X0485160Y1080280D03*
X0540440Y1083280D03*
X0540440Y1091150D03*
X0588710Y1092150D03*
X0588710Y1084280D03*
X0629610Y1086930D03*
X0629610Y1079060D03*
X0626520Y1034800D03*
X0626520Y1026920D03*
X0587970Y1026600D03*
X0587970Y1018720D03*
X0539920Y1018720D03*
X0539920Y1026600D03*
X0427000Y0828940D03*
X0427000Y0821070D03*
X0425250Y0769100D03*
X0425250Y0761220D03*
D636*
X0425320Y0776030D03*
X0420320Y0776030D03*
X0420320Y0801230D03*
X0425320Y0801230D03*
X0475650Y0794630D03*
X0480650Y0794630D03*
X0480650Y0819830D03*
X0475650Y0819830D03*
X0528910Y0818870D03*
X0533910Y0818870D03*
X0533910Y0793680D03*
X0528910Y0793680D03*
X0570180Y0795180D03*
X0575180Y0795180D03*
X0575180Y0820370D03*
X0570180Y0820370D03*
X0637820Y0810830D03*
X0642820Y0810830D03*
X0642820Y0785630D03*
X0637820Y0785630D03*
X0626430Y1043780D03*
X0621430Y1043780D03*
X0621430Y1068970D03*
X0626430Y1068970D03*
X0588510Y1068870D03*
X0583510Y1068870D03*
X0583510Y1043680D03*
X0588510Y1043680D03*
X0540280Y1043680D03*
X0535280Y1043680D03*
X0535280Y1068870D03*
X0540280Y1068870D03*
X0487060Y1068870D03*
X0482060Y1068870D03*
X0482060Y1043680D03*
X0487060Y1043680D03*
X0434140Y1042910D03*
X0429140Y1042910D03*
X0429140Y1068100D03*
X0434140Y1068100D03*
D183*
X0499560Y0606740D03*
X0507440Y0606740D03*
X0640300Y0620450D03*
X0648170Y0620450D03*
X0536790Y0780090D03*
X0528920Y0780090D03*
X0616220Y0786940D03*
X0624090Y0786940D03*
D413*
X0588180Y0603510D03*
X0581090Y0603510D03*
X0705000Y0594500D02*
G75*
%LPD*%
D564*
X0779000Y0798160D03*
X0779000Y0804850D03*
X0803000Y0804850D03*
X0803000Y0798160D03*
X0848400Y0798360D03*
X0848400Y0805050D03*
X0901720Y0805220D03*
X0901720Y0798520D03*
X0947170Y0798890D03*
X0947170Y0805580D03*
X1004000Y0763650D03*
X1004000Y0756960D03*
D131*
X0961970Y0653600D03*
X0961970Y0646510D03*
X0745130Y0729880D03*
X0745130Y0736960D03*
D622*
X0868520Y0753690D03*
X0875210Y0753690D03*
X0872890Y0722720D03*
X0879580Y0722720D03*
X0967450Y0749100D03*
X0974150Y0749100D03*
X0978650Y1101500D03*
X0985350Y1101500D03*
X0933350Y1102500D03*
X0926650Y1102500D03*
X0882350Y1104500D03*
X0875650Y1104500D03*
X0835350Y1103500D03*
X0828650Y1103500D03*
X0784350Y1102500D03*
X0777650Y1102500D03*
D307*
X0877310Y0618330D03*
X0877310Y0613330D03*
X0877310Y0608330D03*
X0877310Y0603330D03*
X0901510Y0603330D03*
X0901510Y0608330D03*
X0901510Y0613330D03*
X0901510Y0618330D03*
D16*
X0981140Y0610990D03*
X0992160Y0610990D03*
D409*
X0860560Y0778220D03*
X0860560Y0786100D03*
X0830300Y0787100D03*
X0830300Y0779220D03*
X0824090Y0827280D03*
X0824090Y0835150D03*
X0876810Y0836650D03*
X0876810Y0828780D03*
X0926040Y0831780D03*
X0926040Y0839650D03*
X0985240Y0827730D03*
X0985240Y0819860D03*
X0829500Y1015070D03*
X0829500Y1022940D03*
X0781870Y1025100D03*
X0781870Y1017220D03*
X0772000Y1079570D03*
X0772000Y1087440D03*
X0827660Y1088150D03*
X0827660Y1080280D03*
X0882940Y1083280D03*
X0882940Y1091150D03*
X0931210Y1092150D03*
X0931210Y1084280D03*
X0972110Y1086930D03*
X0972110Y1079060D03*
X0969020Y1034800D03*
X0969020Y1026920D03*
X0930470Y1026600D03*
X0930470Y1018720D03*
X0882420Y1018720D03*
X0882420Y1026600D03*
X0769500Y0828940D03*
X0769500Y0821070D03*
X0767750Y0769100D03*
X0767750Y0761220D03*
D636*
X0767820Y0776030D03*
X0762820Y0776030D03*
X0762820Y0801230D03*
X0767820Y0801230D03*
X0818150Y0794630D03*
X0823150Y0794630D03*
X0823150Y0819830D03*
X0818150Y0819830D03*
X0871410Y0818870D03*
X0876410Y0818870D03*
X0876410Y0793680D03*
X0871410Y0793680D03*
X0912680Y0795180D03*
X0917680Y0795180D03*
X0917680Y0820370D03*
X0912680Y0820370D03*
X0980320Y0810830D03*
X0985320Y0810830D03*
X0985320Y0785630D03*
X0980320Y0785630D03*
X0968930Y1043780D03*
X0963930Y1043780D03*
X0963930Y1068970D03*
X0968930Y1068970D03*
X0931010Y1068870D03*
X0926010Y1068870D03*
X0926010Y1043680D03*
X0931010Y1043680D03*
X0882780Y1043680D03*
X0877780Y1043680D03*
X0877780Y1068870D03*
X0882780Y1068870D03*
X0829560Y1068870D03*
X0824560Y1068870D03*
X0824560Y1043680D03*
X0829560Y1043680D03*
X0776640Y1042910D03*
X0771640Y1042910D03*
X0771640Y1068100D03*
X0776640Y1068100D03*
D183*
X0842060Y0606740D03*
X0849940Y0606740D03*
X0982800Y0620450D03*
X0990670Y0620450D03*
X0879290Y0780090D03*
X0871420Y0780090D03*
X0958720Y0786940D03*
X0966590Y0786940D03*
D413*
X0930680Y0603510D03*
X0923590Y0603510D03*
X1047500Y0594500D02*
G75*
%LPD*%
D564*
X1121500Y0798160D03*
X1121500Y0804850D03*
X1145500Y0804850D03*
X1145500Y0798160D03*
X1190900Y0798360D03*
X1190900Y0805050D03*
X1244220Y0805220D03*
X1244220Y0798520D03*
X1289670Y0798890D03*
X1289670Y0805580D03*
X1346500Y0763650D03*
X1346500Y0756960D03*
D131*
X1304470Y0653600D03*
X1304470Y0646510D03*
X1087630Y0729880D03*
X1087630Y0736960D03*
D622*
X1211020Y0753690D03*
X1217710Y0753690D03*
X1215390Y0722720D03*
X1222080Y0722720D03*
X1309950Y0749100D03*
X1316650Y0749100D03*
X1321150Y1101500D03*
X1327850Y1101500D03*
X1275850Y1102500D03*
X1269150Y1102500D03*
X1224850Y1104500D03*
X1218150Y1104500D03*
X1177850Y1103500D03*
X1171150Y1103500D03*
X1126850Y1102500D03*
X1120150Y1102500D03*
D307*
X1219810Y0618330D03*
X1219810Y0613330D03*
X1219810Y0608330D03*
X1219810Y0603330D03*
X1244010Y0603330D03*
X1244010Y0608330D03*
X1244010Y0613330D03*
X1244010Y0618330D03*
D16*
X1323640Y0610990D03*
X1334660Y0610990D03*
D409*
X1203060Y0778220D03*
X1203060Y0786100D03*
X1172800Y0787100D03*
X1172800Y0779220D03*
X1166590Y0827280D03*
X1166590Y0835150D03*
X1219310Y0836650D03*
X1219310Y0828780D03*
X1268540Y0831780D03*
X1268540Y0839650D03*
X1327740Y0827730D03*
X1327740Y0819860D03*
X1172000Y1015070D03*
X1172000Y1022940D03*
X1124370Y1025100D03*
X1124370Y1017220D03*
X1114500Y1079570D03*
X1114500Y1087440D03*
X1170160Y1088150D03*
X1170160Y1080280D03*
X1225440Y1083280D03*
X1225440Y1091150D03*
X1273710Y1092150D03*
X1273710Y1084280D03*
X1314610Y1086930D03*
X1314610Y1079060D03*
X1311520Y1034800D03*
X1311520Y1026920D03*
X1272970Y1026600D03*
X1272970Y1018720D03*
X1224920Y1018720D03*
X1224920Y1026600D03*
X1112000Y0828940D03*
X1112000Y0821070D03*
X1110250Y0769100D03*
X1110250Y0761220D03*
D636*
X1110320Y0776030D03*
X1105320Y0776030D03*
X1105320Y0801230D03*
X1110320Y0801230D03*
X1160650Y0794630D03*
X1165650Y0794630D03*
X1165650Y0819830D03*
X1160650Y0819830D03*
X1213910Y0818870D03*
X1218910Y0818870D03*
X1218910Y0793680D03*
X1213910Y0793680D03*
X1255180Y0795180D03*
X1260180Y0795180D03*
X1260180Y0820370D03*
X1255180Y0820370D03*
X1322820Y0810830D03*
X1327820Y0810830D03*
X1327820Y0785630D03*
X1322820Y0785630D03*
X1311430Y1043780D03*
X1306430Y1043780D03*
X1306430Y1068970D03*
X1311430Y1068970D03*
X1273510Y1068870D03*
X1268510Y1068870D03*
X1268510Y1043680D03*
X1273510Y1043680D03*
X1225280Y1043680D03*
X1220280Y1043680D03*
X1220280Y1068870D03*
X1225280Y1068870D03*
X1172060Y1068870D03*
X1167060Y1068870D03*
X1167060Y1043680D03*
X1172060Y1043680D03*
X1119140Y1042910D03*
X1114140Y1042910D03*
X1114140Y1068100D03*
X1119140Y1068100D03*
D183*
X1184560Y0606740D03*
X1192440Y0606740D03*
X1325300Y0620450D03*
X1333170Y0620450D03*
X1221790Y0780090D03*
X1213920Y0780090D03*
X1301220Y0786940D03*
X1309090Y0786940D03*
D413*
X1273180Y0603510D03*
X1266090Y0603510D03*
X1390000Y0594500D02*
G75*
%LPD*%
D564*
X1464000Y0798160D03*
X1464000Y0804850D03*
X1488000Y0804850D03*
X1488000Y0798160D03*
X1533400Y0798360D03*
X1533400Y0805050D03*
X1586720Y0805220D03*
X1586720Y0798520D03*
X1632170Y0798890D03*
X1632170Y0805580D03*
X1689000Y0763650D03*
X1689000Y0756960D03*
D131*
X1646970Y0653600D03*
X1646970Y0646510D03*
X1430130Y0729880D03*
X1430130Y0736960D03*
D622*
X1553520Y0753690D03*
X1560210Y0753690D03*
X1557890Y0722720D03*
X1564580Y0722720D03*
X1652450Y0749100D03*
X1659150Y0749100D03*
X1663650Y1101500D03*
X1670350Y1101500D03*
X1618350Y1102500D03*
X1611650Y1102500D03*
X1567350Y1104500D03*
X1560650Y1104500D03*
X1520350Y1103500D03*
X1513650Y1103500D03*
X1469350Y1102500D03*
X1462650Y1102500D03*
D307*
X1562310Y0618330D03*
X1562310Y0613330D03*
X1562310Y0608330D03*
X1562310Y0603330D03*
X1586510Y0603330D03*
X1586510Y0608330D03*
X1586510Y0613330D03*
X1586510Y0618330D03*
D16*
X1666140Y0610990D03*
X1677160Y0610990D03*
D409*
X1545560Y0778220D03*
X1545560Y0786100D03*
X1515300Y0787100D03*
X1515300Y0779220D03*
X1509090Y0827280D03*
X1509090Y0835150D03*
X1561810Y0836650D03*
X1561810Y0828780D03*
X1611040Y0831780D03*
X1611040Y0839650D03*
X1670240Y0827730D03*
X1670240Y0819860D03*
X1514500Y1015070D03*
X1514500Y1022940D03*
X1466870Y1025100D03*
X1466870Y1017220D03*
X1457000Y1079570D03*
X1457000Y1087440D03*
X1512660Y1088150D03*
X1512660Y1080280D03*
X1567940Y1083280D03*
X1567940Y1091150D03*
X1616210Y1092150D03*
X1616210Y1084280D03*
X1657110Y1086930D03*
X1657110Y1079060D03*
X1654020Y1034800D03*
X1654020Y1026920D03*
X1615470Y1026600D03*
X1615470Y1018720D03*
X1567420Y1018720D03*
X1567420Y1026600D03*
X1454500Y0828940D03*
X1454500Y0821070D03*
X1452750Y0769100D03*
X1452750Y0761220D03*
D636*
X1452820Y0776030D03*
X1447820Y0776030D03*
X1447820Y0801230D03*
X1452820Y0801230D03*
X1503150Y0794630D03*
X1508150Y0794630D03*
X1508150Y0819830D03*
X1503150Y0819830D03*
X1556410Y0818870D03*
X1561410Y0818870D03*
X1561410Y0793680D03*
X1556410Y0793680D03*
X1597680Y0795180D03*
X1602680Y0795180D03*
X1602680Y0820370D03*
X1597680Y0820370D03*
X1665320Y0810830D03*
X1670320Y0810830D03*
X1670320Y0785630D03*
X1665320Y0785630D03*
X1653930Y1043780D03*
X1648930Y1043780D03*
X1648930Y1068970D03*
X1653930Y1068970D03*
X1616010Y1068870D03*
X1611010Y1068870D03*
X1611010Y1043680D03*
X1616010Y1043680D03*
X1567780Y1043680D03*
X1562780Y1043680D03*
X1562780Y1068870D03*
X1567780Y1068870D03*
X1514560Y1068870D03*
X1509560Y1068870D03*
X1509560Y1043680D03*
X1514560Y1043680D03*
X1461640Y1042910D03*
X1456640Y1042910D03*
X1456640Y1068100D03*
X1461640Y1068100D03*
D183*
X1527060Y0606740D03*
X1534940Y0606740D03*
X1667800Y0620450D03*
X1675670Y0620450D03*
X1564290Y0780090D03*
X1556420Y0780090D03*
X1643720Y0786940D03*
X1651590Y0786940D03*
D413*
X1615680Y0603510D03*
X1608590Y0603510D03*
M02*
