%
T01C0.021650
X10570Y2500
X10670Y3400
X10570Y4400
X10750Y5400
X11350Y5400
X11900Y5400
X12070Y4400
X11870Y3400
X12120Y2500
X13820Y3300
X14370Y3300
X17717Y3008
X18307Y2500
X17873Y4822
X18300Y6850
X16570Y8761
X16059Y8761
X16324Y10687
X17860Y12740
X18300Y11280
X16417Y13048
X15908Y13484
X14606Y12654
X13680Y15400
X14380Y15580
X12740Y17640
X14580Y18340
X15820Y18520
X16820Y19400
X17560Y19620
X18340Y19780
X16478Y17297
X21081Y12341
X21560Y13840
X23340Y13700
X23320Y16620
X22420Y17720
X22020Y17040
X26840Y18220
X27380Y18220
X28180Y18300
X29080Y18180
X29822Y17578
X30860Y17480
X31600Y17400
X32320Y17340
X32400Y20140
X32200Y21300
X32600Y22180
X27300Y20560
X26800Y23900
X26260Y25680
X25140Y26640
X23100Y23900
X23120Y23300
X16950Y23900
X11850Y23900
X10963Y21475
X8200Y23900
X7223Y21475
X4796Y21280
X7283Y17772
X5407Y15156
X4816Y14096
X5079Y12181
X4646Y11118
X4420Y10480
X4470Y9450
X4520Y8500
X5700Y8400
X6250Y8400
X11378Y12615
X22527Y7551
X23000Y6950
X23500Y8100
X24700Y7000
X26652Y5831
X28100Y8700
X26940Y12160
X29940Y12300
X32481Y8682
X32520Y2501
X30220Y44200
X31500Y51700
X31500Y52900
X31980Y54440
X29900Y54700
X27840Y54180
X28540Y52060
X26100Y51700
X23900Y53600
X24020Y54300
X24700Y54700
X23600Y52100
X19600Y54700
X19000Y54200
X18800Y53600
X19100Y52200
X15400Y50400
X13700Y52200
X13800Y53600
X14200Y54000
X14700Y54700
X10000Y50500
X8600Y52100
X9600Y55000
X16500Y15620
X18150Y14820
X18190Y15790
X18140Y16740
X17780Y17220
X17620Y17750
X16970Y20050
X15930Y21370
X17030Y23260
X16800Y25050
X16150Y25300
X13100Y23340
X11700Y25150
X10700Y25450
X8000Y26100
X6800Y23950
X6750Y23150
X18610Y13270
X18182Y12148
X20413Y14230
X21470Y14870
X22630Y15810
X19729Y16270
X20476Y18904
X20960Y19420
X21700Y19540
X21560Y18880
X22280Y18900
X20720Y20520
X20160Y20760
X19630Y21590
X20850Y25250
X21800Y25100
X25000Y21580
X24440Y20840
X25700Y18320
X27920Y16700
X27950Y16200
X31830Y19590
X32090Y20720
X28890Y20960
X27130Y23000
X23300Y3800
X28573Y2966
X21200Y51600
X20300Y52300
X16000Y53000
X10700Y52700
X9200Y54000
X8800Y53600
X25300Y52100
X28960Y53540
X29400Y53900
X30780Y52320
X44820Y2500
X44920Y3400
X44820Y4400
X45000Y5400
X45600Y5400
X46150Y5400
X46320Y4400
X46120Y3400
X46370Y2500
X48070Y3300
X48620Y3300
X51967Y3008
X52557Y2500
X52123Y4822
X52550Y6850
X50820Y8761
X50309Y8761
X50574Y10687
X52110Y12740
X52550Y11280
X50667Y13048
X50158Y13484
X48856Y12654
X47930Y15400
X48630Y15580
X46990Y17640
X48830Y18340
X50070Y18520
X51070Y19400
X51810Y19620
X52590Y19780
X50728Y17297
X55331Y12341
X55810Y13840
X57590Y13700
X57570Y16620
X56670Y17720
X56270Y17040
X61090Y18220
X61630Y18220
X62430Y18300
X63330Y18180
X64072Y17578
X65110Y17480
X65850Y17400
X66570Y17340
X66650Y20140
X66450Y21300
X66850Y22180
X61550Y20560
X61050Y23900
X60510Y25680
X59390Y26640
X57350Y23900
X57370Y23300
X51200Y23900
X46100Y23900
X45213Y21475
X42450Y23900
X41473Y21475
X39046Y21280
X41533Y17772
X39657Y15156
X39066Y14096
X39329Y12181
X38896Y11118
X38670Y10480
X38720Y9450
X38770Y8500
X39950Y8400
X40500Y8400
X45628Y12615
X56777Y7551
X57250Y6950
X57750Y8100
X58950Y7000
X60902Y5831
X62350Y8700
X61190Y12160
X64190Y12300
X66731Y8682
X66770Y2501
X64470Y44200
X65750Y51700
X65750Y52900
X66230Y54440
X64150Y54700
X62090Y54180
X62790Y52060
X60350Y51700
X58150Y53600
X58270Y54300
X58950Y54700
X57850Y52100
X53850Y54700
X53250Y54200
X53050Y53600
X53350Y52200
X49650Y50400
X47950Y52200
X48050Y53600
X48450Y54000
X48950Y54700
X44250Y50500
X42850Y52100
X43850Y55000
X50750Y15620
X52400Y14820
X52440Y15790
X52390Y16740
X52030Y17220
X51870Y17750
X51220Y20050
X50180Y21370
X51280Y23260
X51050Y25050
X50400Y25300
X47350Y23340
X45950Y25150
X44950Y25450
X42250Y26100
X41050Y23950
X41000Y23150
X52860Y13270
X52432Y12148
X54663Y14230
X55720Y14870
X56880Y15810
X53979Y16270
X54726Y18904
X55210Y19420
X55950Y19540
X55810Y18880
X56530Y18900
X54970Y20520
X54410Y20760
X53880Y21590
X55100Y25250
X56050Y25100
X59250Y21580
X58690Y20840
X59950Y18320
X62170Y16700
X62200Y16200
X66080Y19590
X66340Y20720
X63140Y20960
X61380Y23000
X57550Y3800
X62823Y2966
X55450Y51600
X54550Y52300
X50250Y53000
X44950Y52700
X43450Y54000
X43050Y53600
X59550Y52100
X63210Y53540
X63650Y53900
X65030Y52320
X10570Y59950
X10670Y60850
X10570Y61850
X10750Y62850
X11350Y62850
X11900Y62850
X12070Y61850
X11870Y60850
X12120Y59950
X13820Y60750
X14370Y60750
X17717Y60458
X18307Y59950
X17873Y62272
X18300Y64300
X16570Y66211
X16059Y66211
X16324Y68137
X17860Y70190
X18300Y68730
X16417Y70498
X15908Y70934
X14606Y70104
X13680Y72850
X14380Y73030
X12740Y75090
X14580Y75790
X15820Y75970
X16820Y76850
X17560Y77070
X18340Y77230
X16478Y74747
X21081Y69791
X21560Y71290
X23340Y71150
X23320Y74070
X22420Y75170
X22020Y74490
X26840Y75670
X27380Y75670
X28180Y75750
X29080Y75630
X29822Y75028
X30860Y74930
X31600Y74850
X32320Y74790
X32400Y77590
X32200Y78750
X32600Y79630
X27300Y78010
X26800Y81350
X26260Y83130
X25140Y84090
X23100Y81350
X23120Y80750
X16950Y81350
X11850Y81350
X10963Y78925
X8200Y81350
X7223Y78925
X4796Y78730
X7283Y75222
X5407Y72606
X4816Y71546
X5079Y69631
X4646Y68568
X4420Y67930
X4470Y66900
X4520Y65950
X5700Y65850
X6250Y65850
X11378Y70065
X22527Y65001
X23000Y64400
X23500Y65550
X24700Y64450
X26652Y63281
X28100Y66150
X26940Y69610
X29940Y69750
X32481Y66132
X32520Y59951
X30220Y101650
X31500Y109150
X31500Y110350
X31980Y111890
X29900Y112150
X27840Y111630
X28540Y109510
X26100Y109150
X23900Y111050
X24020Y111750
X24700Y112150
X23600Y109550
X19600Y112150
X19000Y111650
X18800Y111050
X19100Y109650
X15400Y107850
X13700Y109650
X13800Y111050
X14200Y111450
X14700Y112150
X10000Y107950
X8600Y109550
X9600Y112450
X16500Y73070
X18150Y72270
X18190Y73240
X18140Y74190
X17780Y74670
X17620Y75200
X16970Y77500
X15930Y78820
X17030Y80710
X16800Y82500
X16150Y82750
X13100Y80790
X11700Y82600
X10700Y82900
X8000Y83550
X6800Y81400
X6750Y80600
X18610Y70720
X18182Y69598
X20413Y71680
X21470Y72320
X22630Y73260
X19729Y73720
X20476Y76354
X20960Y76870
X21700Y76990
X21560Y76330
X22280Y76350
X20720Y77970
X20160Y78210
X19630Y79040
X20850Y82700
X21800Y82550
X25000Y79030
X24440Y78290
X25700Y75770
X27920Y74150
X27950Y73650
X31830Y77040
X32090Y78170
X28890Y78410
X27130Y80450
X23300Y61250
X28573Y60416
X21200Y109050
X20300Y109750
X16000Y110450
X10700Y110150
X9200Y111450
X8800Y111050
X25300Y109550
X28960Y110990
X29400Y111350
X30780Y109770
X79070Y2500
X79170Y3400
X79070Y4400
X79250Y5400
X79850Y5400
X80400Y5400
X80570Y4400
X80370Y3400
X80620Y2500
X82320Y3300
X82870Y3300
X86217Y3008
X86807Y2500
X86373Y4822
X86800Y6850
X85070Y8761
X84559Y8761
X84824Y10687
X86360Y12740
X86800Y11280
X84917Y13048
X84408Y13484
X83106Y12654
X82180Y15400
X82880Y15580
X81240Y17640
X83080Y18340
X84320Y18520
X85320Y19400
X86060Y19620
X86840Y19780
X84978Y17297
X89581Y12341
X90060Y13840
X91840Y13700
X91820Y16620
X90920Y17720
X90520Y17040
X95340Y18220
X95880Y18220
X96680Y18300
X97580Y18180
X98322Y17578
X99360Y17480
X100100Y17400
X100820Y17340
X100900Y20140
X100700Y21300
X101100Y22180
X95800Y20560
X95300Y23900
X94760Y25680
X93640Y26640
X91600Y23900
X91620Y23300
X85450Y23900
X80350Y23900
X79463Y21475
X76700Y23900
X75723Y21475
X73296Y21280
X75783Y17772
X73907Y15156
X73316Y14096
X73579Y12181
X73146Y11118
X72920Y10480
X72970Y9450
X73020Y8500
X74200Y8400
X74750Y8400
X79878Y12615
X91027Y7551
X91500Y6950
X92000Y8100
X93200Y7000
X95152Y5831
X96600Y8700
X95440Y12160
X98440Y12300
X100981Y8682
X101020Y2501
X98720Y44200
X100000Y51700
X100000Y52900
X100480Y54440
X98400Y54700
X96340Y54180
X97040Y52060
X94600Y51700
X92400Y53600
X92520Y54300
X93200Y54700
X92100Y52100
X88100Y54700
X87500Y54200
X87300Y53600
X87600Y52200
X83900Y50400
X82200Y52200
X82300Y53600
X82700Y54000
X83200Y54700
X78500Y50500
X77100Y52100
X78100Y55000
X85000Y15620
X86650Y14820
X86690Y15790
X86640Y16740
X86280Y17220
X86120Y17750
X85470Y20050
X84430Y21370
X85530Y23260
X85300Y25050
X84650Y25300
X81600Y23340
X80200Y25150
X79200Y25450
X76500Y26100
X75300Y23950
X75250Y23150
X87110Y13270
X86682Y12148
X88913Y14230
X89970Y14870
X91130Y15810
X88229Y16270
X88976Y18904
X89460Y19420
X90200Y19540
X90060Y18880
X90780Y18900
X89220Y20520
X88660Y20760
X88130Y21590
X89350Y25250
X90300Y25100
X93500Y21580
X92940Y20840
X94200Y18320
X96420Y16700
X96450Y16200
X100330Y19590
X100590Y20720
X97390Y20960
X95630Y23000
X91800Y3800
X97073Y2966
X89700Y51600
X88800Y52300
X84500Y53000
X79200Y52700
X77700Y54000
X77300Y53600
X93800Y52100
X97460Y53540
X97900Y53900
X99280Y52320
X113320Y2500
X113420Y3400
X113320Y4400
X113500Y5400
X114100Y5400
X114650Y5400
X114820Y4400
X114620Y3400
X114870Y2500
X116570Y3300
X117120Y3300
X120467Y3008
X121057Y2500
X120623Y4822
X121050Y6850
X119320Y8761
X118809Y8761
X119074Y10687
X120610Y12740
X121050Y11280
X119167Y13048
X118658Y13484
X117356Y12654
X116430Y15400
X117130Y15580
X115490Y17640
X117330Y18340
X118570Y18520
X119570Y19400
X120310Y19620
X121090Y19780
X119228Y17297
X123831Y12341
X124310Y13840
X126090Y13700
X126070Y16620
X125170Y17720
X124770Y17040
X129590Y18220
X130130Y18220
X130930Y18300
X131830Y18180
X132572Y17578
X133610Y17480
X134350Y17400
X135070Y17340
X135150Y20140
X134950Y21300
X135350Y22180
X130050Y20560
X129550Y23900
X129010Y25680
X127890Y26640
X125850Y23900
X125870Y23300
X119700Y23900
X114600Y23900
X113713Y21475
X110950Y23900
X109973Y21475
X107546Y21280
X110033Y17772
X108157Y15156
X107566Y14096
X107829Y12181
X107396Y11118
X107170Y10480
X107220Y9450
X107270Y8500
X108450Y8400
X109000Y8400
X114128Y12615
X125277Y7551
X125750Y6950
X126250Y8100
X127450Y7000
X129402Y5831
X130850Y8700
X129690Y12160
X132690Y12300
X135231Y8682
X135270Y2501
X132970Y44200
X134250Y51700
X134250Y52900
X134730Y54440
X132650Y54700
X130590Y54180
X131290Y52060
X128850Y51700
X126650Y53600
X126770Y54300
X127450Y54700
X126350Y52100
X122350Y54700
X121750Y54200
X121550Y53600
X121850Y52200
X118150Y50400
X116450Y52200
X116550Y53600
X116950Y54000
X117450Y54700
X112750Y50500
X111350Y52100
X112350Y55000
X119250Y15620
X120900Y14820
X120940Y15790
X120890Y16740
X120530Y17220
X120370Y17750
X119720Y20050
X118680Y21370
X119780Y23260
X119550Y25050
X118900Y25300
X115850Y23340
X114450Y25150
X113450Y25450
X110750Y26100
X109550Y23950
X109500Y23150
X121360Y13270
X120932Y12148
X123163Y14230
X124220Y14870
X125380Y15810
X122479Y16270
X123226Y18904
X123710Y19420
X124450Y19540
X124310Y18880
X125030Y18900
X123470Y20520
X122910Y20760
X122380Y21590
X123600Y25250
X124550Y25100
X127750Y21580
X127190Y20840
X128450Y18320
X130670Y16700
X130700Y16200
X134580Y19590
X134840Y20720
X131640Y20960
X129880Y23000
X126050Y3800
X131323Y2966
X123950Y51600
X123050Y52300
X118750Y53000
X113450Y52700
X111950Y54000
X111550Y53600
X128050Y52100
X131710Y53540
X132150Y53900
X133530Y52320
X147570Y2500
X147670Y3400
X147570Y4400
X147750Y5400
X148350Y5400
X148900Y5400
X149070Y4400
X148870Y3400
X149120Y2500
X150820Y3300
X151370Y3300
X154717Y3008
X155307Y2500
X154873Y4822
X155300Y6850
X153570Y8761
X153059Y8761
X153324Y10687
X154860Y12740
X155300Y11280
X153417Y13048
X152908Y13484
X151606Y12654
X150680Y15400
X151380Y15580
X149740Y17640
X151580Y18340
X152820Y18520
X153820Y19400
X154560Y19620
X155340Y19780
X153478Y17297
X158081Y12341
X158560Y13840
X160340Y13700
X160320Y16620
X159420Y17720
X159020Y17040
X163840Y18220
X164380Y18220
X165180Y18300
X166080Y18180
X166822Y17578
X167860Y17480
X168600Y17400
X169320Y17340
X169400Y20140
X169200Y21300
X169600Y22180
X164300Y20560
X163800Y23900
X163260Y25680
X162140Y26640
X160100Y23900
X160120Y23300
X153950Y23900
X148850Y23900
X147963Y21475
X145200Y23900
X144223Y21475
X141796Y21280
X144283Y17772
X142407Y15156
X141816Y14096
X142079Y12181
X141646Y11118
X141420Y10480
X141470Y9450
X141520Y8500
X142700Y8400
X143250Y8400
X148378Y12615
X159527Y7551
X160000Y6950
X160500Y8100
X161700Y7000
X163652Y5831
X165100Y8700
X163940Y12160
X166940Y12300
X169481Y8682
X169520Y2501
X167220Y44200
X168500Y51700
X168500Y52900
X168980Y54440
X166900Y54700
X164840Y54180
X165540Y52060
X163100Y51700
X160900Y53600
X161020Y54300
X161700Y54700
X160600Y52100
X156600Y54700
X156000Y54200
X155800Y53600
X156100Y52200
X152400Y50400
X150700Y52200
X150800Y53600
X151200Y54000
X151700Y54700
X147000Y50500
X145600Y52100
X146600Y55000
X153500Y15620
X155150Y14820
X155190Y15790
X155140Y16740
X154780Y17220
X154620Y17750
X153970Y20050
X152930Y21370
X154030Y23260
X153800Y25050
X153150Y25300
X150100Y23340
X148700Y25150
X147700Y25450
X145000Y26100
X143800Y23950
X143750Y23150
X155610Y13270
X155182Y12148
X157413Y14230
X158470Y14870
X159630Y15810
X156729Y16270
X157476Y18904
X157960Y19420
X158700Y19540
X158560Y18880
X159280Y18900
X157720Y20520
X157160Y20760
X156630Y21590
X157850Y25250
X158800Y25100
X162000Y21580
X161440Y20840
X162700Y18320
X164920Y16700
X164950Y16200
X168830Y19590
X169090Y20720
X165890Y20960
X164130Y23000
X160300Y3800
X165573Y2966
X158200Y51600
X157300Y52300
X153000Y53000
X147700Y52700
X146200Y54000
X145800Y53600
X162300Y52100
X165960Y53540
X166400Y53900
X167780Y52320
X44820Y59950
X44920Y60850
X44820Y61850
X45000Y62850
X45600Y62850
X46150Y62850
X46320Y61850
X46120Y60850
X46370Y59950
X48070Y60750
X48620Y60750
X51967Y60458
X52557Y59950
X52123Y62272
X52550Y64300
X50820Y66211
X50309Y66211
X50574Y68137
X52110Y70190
X52550Y68730
X50667Y70498
X50158Y70934
X48856Y70104
X47930Y72850
X48630Y73030
X46990Y75090
X48830Y75790
X50070Y75970
X51070Y76850
X51810Y77070
X52590Y77230
X50728Y74747
X55331Y69791
X55810Y71290
X57590Y71150
X57570Y74070
X56670Y75170
X56270Y74490
X61090Y75670
X61630Y75670
X62430Y75750
X63330Y75630
X64072Y75028
X65110Y74930
X65850Y74850
X66570Y74790
X66650Y77590
X66450Y78750
X66850Y79630
X61550Y78010
X61050Y81350
X60510Y83130
X59390Y84090
X57350Y81350
X57370Y80750
X51200Y81350
X46100Y81350
X45213Y78925
X42450Y81350
X41473Y78925
X39046Y78730
X41533Y75222
X39657Y72606
X39066Y71546
X39329Y69631
X38896Y68568
X38670Y67930
X38720Y66900
X38770Y65950
X39950Y65850
X40500Y65850
X45628Y70065
X56777Y65001
X57250Y64400
X57750Y65550
X58950Y64450
X60902Y63281
X62350Y66150
X61190Y69610
X64190Y69750
X66731Y66132
X66770Y59951
X64470Y101650
X65750Y109150
X65750Y110350
X66230Y111890
X64150Y112150
X62090Y111630
X62790Y109510
X60350Y109150
X58150Y111050
X58270Y111750
X58950Y112150
X57850Y109550
X53850Y112150
X53250Y111650
X53050Y111050
X53350Y109650
X49650Y107850
X47950Y109650
X48050Y111050
X48450Y111450
X48950Y112150
X44250Y107950
X42850Y109550
X43850Y112450
X50750Y73070
X52400Y72270
X52440Y73240
X52390Y74190
X52030Y74670
X51870Y75200
X51220Y77500
X50180Y78820
X51280Y80710
X51050Y82500
X50400Y82750
X47350Y80790
X45950Y82600
X44950Y82900
X42250Y83550
X41050Y81400
X41000Y80600
X52860Y70720
X52432Y69598
X54663Y71680
X55720Y72320
X56880Y73260
X53979Y73720
X54726Y76354
X55210Y76870
X55950Y76990
X55810Y76330
X56530Y76350
X54970Y77970
X54410Y78210
X53880Y79040
X55100Y82700
X56050Y82550
X59250Y79030
X58690Y78290
X59950Y75770
X62170Y74150
X62200Y73650
X66080Y77040
X66340Y78170
X63140Y78410
X61380Y80450
X57550Y61250
X62823Y60416
X55450Y109050
X54550Y109750
X50250Y110450
X44950Y110150
X43450Y111450
X43050Y111050
X59550Y109550
X63210Y110990
X63650Y111350
X65030Y109770
X79070Y59950
X79170Y60850
X79070Y61850
X79250Y62850
X79850Y62850
X80400Y62850
X80570Y61850
X80370Y60850
X80620Y59950
X82320Y60750
X82870Y60750
X86217Y60458
X86807Y59950
X86373Y62272
X86800Y64300
X85070Y66211
X84559Y66211
X84824Y68137
X86360Y70190
X86800Y68730
X84917Y70498
X84408Y70934
X83106Y70104
X82180Y72850
X82880Y73030
X81240Y75090
X83080Y75790
X84320Y75970
X85320Y76850
X86060Y77070
X86840Y77230
X84978Y74747
X89581Y69791
X90060Y71290
X91840Y71150
X91820Y74070
X90920Y75170
X90520Y74490
X95340Y75670
X95880Y75670
X96680Y75750
X97580Y75630
X98322Y75028
X99360Y74930
X100100Y74850
X100820Y74790
X100900Y77590
X100700Y78750
X101100Y79630
X95800Y78010
X95300Y81350
X94760Y83130
X93640Y84090
X91600Y81350
X91620Y80750
X85450Y81350
X80350Y81350
X79463Y78925
X76700Y81350
X75723Y78925
X73296Y78730
X75783Y75222
X73907Y72606
X73316Y71546
X73579Y69631
X73146Y68568
X72920Y67930
X72970Y66900
X73020Y65950
X74200Y65850
X74750Y65850
X79878Y70065
X91027Y65001
X91500Y64400
X92000Y65550
X93200Y64450
X95152Y63281
X96600Y66150
X95440Y69610
X98440Y69750
X100981Y66132
X101020Y59951
X98720Y101650
X100000Y109150
X100000Y110350
X100480Y111890
X98400Y112150
X96340Y111630
X97040Y109510
X94600Y109150
X92400Y111050
X92520Y111750
X93200Y112150
X92100Y109550
X88100Y112150
X87500Y111650
X87300Y111050
X87600Y109650
X83900Y107850
X82200Y109650
X82300Y111050
X82700Y111450
X83200Y112150
X78500Y107950
X77100Y109550
X78100Y112450
X85000Y73070
X86650Y72270
X86690Y73240
X86640Y74190
X86280Y74670
X86120Y75200
X85470Y77500
X84430Y78820
X85530Y80710
X85300Y82500
X84650Y82750
X81600Y80790
X80200Y82600
X79200Y82900
X76500Y83550
X75300Y81400
X75250Y80600
X87110Y70720
X86682Y69598
X88913Y71680
X89970Y72320
X91130Y73260
X88229Y73720
X88976Y76354
X89460Y76870
X90200Y76990
X90060Y76330
X90780Y76350
X89220Y77970
X88660Y78210
X88130Y79040
X89350Y82700
X90300Y82550
X93500Y79030
X92940Y78290
X94200Y75770
X96420Y74150
X96450Y73650
X100330Y77040
X100590Y78170
X97390Y78410
X95630Y80450
X91800Y61250
X97073Y60416
X89700Y109050
X88800Y109750
X84500Y110450
X79200Y110150
X77700Y111450
X77300Y111050
X93800Y109550
X97460Y110990
X97900Y111350
X99280Y109770
X113320Y59950
X113420Y60850
X113320Y61850
X113500Y62850
X114100Y62850
X114650Y62850
X114820Y61850
X114620Y60850
X114870Y59950
X116570Y60750
X117120Y60750
X120467Y60458
X121057Y59950
X120623Y62272
X121050Y64300
X119320Y66211
X118809Y66211
X119074Y68137
X120610Y70190
X121050Y68730
X119167Y70498
X118658Y70934
X117356Y70104
X116430Y72850
X117130Y73030
X115490Y75090
X117330Y75790
X118570Y75970
X119570Y76850
X120310Y77070
X121090Y77230
X119228Y74747
X123831Y69791
X124310Y71290
X126090Y71150
X126070Y74070
X125170Y75170
X124770Y74490
X129590Y75670
X130130Y75670
X130930Y75750
X131830Y75630
X132572Y75028
X133610Y74930
X134350Y74850
X135070Y74790
X135150Y77590
X134950Y78750
X135350Y79630
X130050Y78010
X129550Y81350
X129010Y83130
X127890Y84090
X125850Y81350
X125870Y80750
X119700Y81350
X114600Y81350
X113713Y78925
X110950Y81350
X109973Y78925
X107546Y78730
X110033Y75222
X108157Y72606
X107566Y71546
X107829Y69631
X107396Y68568
X107170Y67930
X107220Y66900
X107270Y65950
X108450Y65850
X109000Y65850
X114128Y70065
X125277Y65001
X125750Y64400
X126250Y65550
X127450Y64450
X129402Y63281
X130850Y66150
X129690Y69610
X132690Y69750
X135231Y66132
X135270Y59951
X132970Y101650
X134250Y109150
X134250Y110350
X134730Y111890
X132650Y112150
X130590Y111630
X131290Y109510
X128850Y109150
X126650Y111050
X126770Y111750
X127450Y112150
X126350Y109550
X122350Y112150
X121750Y111650
X121550Y111050
X121850Y109650
X118150Y107850
X116450Y109650
X116550Y111050
X116950Y111450
X117450Y112150
X112750Y107950
X111350Y109550
X112350Y112450
X119250Y73070
X120900Y72270
X120940Y73240
X120890Y74190
X120530Y74670
X120370Y75200
X119720Y77500
X118680Y78820
X119780Y80710
X119550Y82500
X118900Y82750
X115850Y80790
X114450Y82600
X113450Y82900
X110750Y83550
X109550Y81400
X109500Y80600
X121360Y70720
X120932Y69598
X123163Y71680
X124220Y72320
X125380Y73260
X122479Y73720
X123226Y76354
X123710Y76870
X124450Y76990
X124310Y76330
X125030Y76350
X123470Y77970
X122910Y78210
X122380Y79040
X123600Y82700
X124550Y82550
X127750Y79030
X127190Y78290
X128450Y75770
X130670Y74150
X130700Y73650
X134580Y77040
X134840Y78170
X131640Y78410
X129880Y80450
X126050Y61250
X131323Y60416
X123950Y109050
X123050Y109750
X118750Y110450
X113450Y110150
X111950Y111450
X111550Y111050
X128050Y109550
X131710Y110990
X132150Y111350
X133530Y109770
X147570Y59950
X147670Y60850
X147570Y61850
X147750Y62850
X148350Y62850
X148900Y62850
X149070Y61850
X148870Y60850
X149120Y59950
X150820Y60750
X151370Y60750
X154717Y60458
X155307Y59950
X154873Y62272
X155300Y64300
X153570Y66211
X153059Y66211
X153324Y68137
X154860Y70190
X155300Y68730
X153417Y70498
X152908Y70934
X151606Y70104
X150680Y72850
X151380Y73030
X149740Y75090
X151580Y75790
X152820Y75970
X153820Y76850
X154560Y77070
X155340Y77230
X153478Y74747
X158081Y69791
X158560Y71290
X160340Y71150
X160320Y74070
X159420Y75170
X159020Y74490
X163840Y75670
X164380Y75670
X165180Y75750
X166080Y75630
X166822Y75028
X167860Y74930
X168600Y74850
X169320Y74790
X169400Y77590
X169200Y78750
X169600Y79630
X164300Y78010
X163800Y81350
X163260Y83130
X162140Y84090
X160100Y81350
X160120Y80750
X153950Y81350
X148850Y81350
X147963Y78925
X145200Y81350
X144223Y78925
X141796Y78730
X144283Y75222
X142407Y72606
X141816Y71546
X142079Y69631
X141646Y68568
X141420Y67930
X141470Y66900
X141520Y65950
X142700Y65850
X143250Y65850
X148378Y70065
X159527Y65001
X160000Y64400
X160500Y65550
X161700Y64450
X163652Y63281
X165100Y66150
X163940Y69610
X166940Y69750
X169481Y66132
X169520Y59951
X167220Y101650
X168500Y109150
X168500Y110350
X168980Y111890
X166900Y112150
X164840Y111630
X165540Y109510
X163100Y109150
X160900Y111050
X161020Y111750
X161700Y112150
X160600Y109550
X156600Y112150
X156000Y111650
X155800Y111050
X156100Y109650
X152400Y107850
X150700Y109650
X150800Y111050
X151200Y111450
X151700Y112150
X147000Y107950
X145600Y109550
X146600Y112450
X153500Y73070
X155150Y72270
X155190Y73240
X155140Y74190
X154780Y74670
X154620Y75200
X153970Y77500
X152930Y78820
X154030Y80710
X153800Y82500
X153150Y82750
X150100Y80790
X148700Y82600
X147700Y82900
X145000Y83550
X143800Y81400
X143750Y80600
X155610Y70720
X155182Y69598
X157413Y71680
X158470Y72320
X159630Y73260
X156729Y73720
X157476Y76354
X157960Y76870
X158700Y76990
X158560Y76330
X159280Y76350
X157720Y77970
X157160Y78210
X156630Y79040
X157850Y82700
X158800Y82550
X162000Y79030
X161440Y78290
X162700Y75770
X164920Y74150
X164950Y73650
X168830Y77040
X169090Y78170
X165890Y78410
X164130Y80450
X160300Y61250
X165573Y60416
X158200Y109050
X157300Y109750
X153000Y110450
X147700Y110150
X146200Y111450
X145800Y111050
X162300Y109550
X165960Y110990
X166400Y111350
X167780Y109770
T02C0.035400
X27431Y5600
X28219Y5600
X29006Y5600
X29794Y5600
X30581Y5600
X31369Y5600
X61681Y5600
X62469Y5600
X63256Y5600
X64044Y5600
X64831Y5600
X65619Y5600
X27431Y63050
X28219Y63050
X29006Y63050
X29794Y63050
X30581Y63050
X31369Y63050
X95931Y5600
X96719Y5600
X97506Y5600
X98294Y5600
X99081Y5600
X99869Y5600
X130181Y5600
X130969Y5600
X131756Y5600
X132544Y5600
X133331Y5600
X134119Y5600
X164431Y5600
X165219Y5600
X166006Y5600
X166794Y5600
X167581Y5600
X168369Y5600
X61681Y63050
X62469Y63050
X63256Y63050
X64044Y63050
X64831Y63050
X65619Y63050
X95931Y63050
X96719Y63050
X97506Y63050
X98294Y63050
X99081Y63050
X99869Y63050
X130181Y63050
X130969Y63050
X131756Y63050
X132544Y63050
X133331Y63050
X134119Y63050
X164431Y63050
X165219Y63050
X166006Y63050
X166794Y63050
X167581Y63050
X168369Y63050
T03C0.040000
X31000Y12500
X32000Y12500
X32000Y13500
X32000Y14500
X31000Y14500
X31000Y13500
X31000Y15500
X32000Y15500
X29000Y15500
X29000Y14500
X29000Y13500
X29000Y12500
X28000Y12500
X28000Y13500
X28000Y14500
X28000Y15500
X25900Y15640
X25900Y14640
X25900Y13640
X25900Y12640
X24900Y12640
X24900Y13640
X24900Y14640
X24900Y15640
X4923Y17032
X4823Y18032
X4923Y19032
X4823Y20032
X4823Y16032
X65250Y12500
X66250Y12500
X66250Y13500
X66250Y14500
X65250Y14500
X65250Y13500
X65250Y15500
X66250Y15500
X63250Y15500
X63250Y14500
X63250Y13500
X63250Y12500
X62250Y12500
X62250Y13500
X62250Y14500
X62250Y15500
X60150Y15640
X60150Y14640
X60150Y13640
X60150Y12640
X59150Y12640
X59150Y13640
X59150Y14640
X59150Y15640
X39173Y17032
X39073Y18032
X39173Y19032
X39073Y20032
X39073Y16032
X31000Y69950
X32000Y69950
X32000Y70950
X32000Y71950
X31000Y71950
X31000Y70950
X31000Y72950
X32000Y72950
X29000Y72950
X29000Y71950
X29000Y70950
X29000Y69950
X28000Y69950
X28000Y70950
X28000Y71950
X28000Y72950
X25900Y73090
X25900Y72090
X25900Y71090
X25900Y70090
X24900Y70090
X24900Y71090
X24900Y72090
X24900Y73090
X4923Y74482
X4823Y75482
X4923Y76482
X4823Y77482
X4823Y73482
X99500Y12500
X100500Y12500
X100500Y13500
X100500Y14500
X99500Y14500
X99500Y13500
X99500Y15500
X100500Y15500
X97500Y15500
X97500Y14500
X97500Y13500
X97500Y12500
X96500Y12500
X96500Y13500
X96500Y14500
X96500Y15500
X94400Y15640
X94400Y14640
X94400Y13640
X94400Y12640
X93400Y12640
X93400Y13640
X93400Y14640
X93400Y15640
X73423Y17032
X73323Y18032
X73423Y19032
X73323Y20032
X73323Y16032
X133750Y12500
X134750Y12500
X134750Y13500
X134750Y14500
X133750Y14500
X133750Y13500
X133750Y15500
X134750Y15500
X131750Y15500
X131750Y14500
X131750Y13500
X131750Y12500
X130750Y12500
X130750Y13500
X130750Y14500
X130750Y15500
X128650Y15640
X128650Y14640
X128650Y13640
X128650Y12640
X127650Y12640
X127650Y13640
X127650Y14640
X127650Y15640
X107673Y17032
X107573Y18032
X107673Y19032
X107573Y20032
X107573Y16032
X168000Y12500
X169000Y12500
X169000Y13500
X169000Y14500
X168000Y14500
X168000Y13500
X168000Y15500
X169000Y15500
X166000Y15500
X166000Y14500
X166000Y13500
X166000Y12500
X165000Y12500
X165000Y13500
X165000Y14500
X165000Y15500
X162900Y15640
X162900Y14640
X162900Y13640
X162900Y12640
X161900Y12640
X161900Y13640
X161900Y14640
X161900Y15640
X141923Y17032
X141823Y18032
X141923Y19032
X141823Y20032
X141823Y16032
X65250Y69950
X66250Y69950
X66250Y70950
X66250Y71950
X65250Y71950
X65250Y70950
X65250Y72950
X66250Y72950
X63250Y72950
X63250Y71950
X63250Y70950
X63250Y69950
X62250Y69950
X62250Y70950
X62250Y71950
X62250Y72950
X60150Y73090
X60150Y72090
X60150Y71090
X60150Y70090
X59150Y70090
X59150Y71090
X59150Y72090
X59150Y73090
X39173Y74482
X39073Y75482
X39173Y76482
X39073Y77482
X39073Y73482
X99500Y69950
X100500Y69950
X100500Y70950
X100500Y71950
X99500Y71950
X99500Y70950
X99500Y72950
X100500Y72950
X97500Y72950
X97500Y71950
X97500Y70950
X97500Y69950
X96500Y69950
X96500Y70950
X96500Y71950
X96500Y72950
X94400Y73090
X94400Y72090
X94400Y71090
X94400Y70090
X93400Y70090
X93400Y71090
X93400Y72090
X93400Y73090
X73423Y74482
X73323Y75482
X73423Y76482
X73323Y77482
X73323Y73482
X133750Y69950
X134750Y69950
X134750Y70950
X134750Y71950
X133750Y71950
X133750Y70950
X133750Y72950
X134750Y72950
X131750Y72950
X131750Y71950
X131750Y70950
X131750Y69950
X130750Y69950
X130750Y70950
X130750Y71950
X130750Y72950
X128650Y73090
X128650Y72090
X128650Y71090
X128650Y70090
X127650Y70090
X127650Y71090
X127650Y72090
X127650Y73090
X107673Y74482
X107573Y75482
X107673Y76482
X107573Y77482
X107573Y73482
X168000Y69950
X169000Y69950
X169000Y70950
X169000Y71950
X168000Y71950
X168000Y70950
X168000Y72950
X169000Y72950
X166000Y72950
X166000Y71950
X166000Y70950
X166000Y69950
X165000Y69950
X165000Y70950
X165000Y71950
X165000Y72950
X162900Y73090
X162900Y72090
X162900Y71090
X162900Y70090
X161900Y70090
X161900Y71090
X161900Y72090
X161900Y73090
X141923Y74482
X141823Y75482
X141923Y76482
X141823Y77482
X141823Y73482
T04C0.051200
X26644Y4655
X32156Y4655
X60894Y4655
X66406Y4655
X26644Y62105
X32156Y62105
X95144Y4655
X100656Y4655
X129394Y4655
X134906Y4655
X163644Y4655
X169156Y4655
X60894Y62105
X66406Y62105
X95144Y62105
X100656Y62105
X129394Y62105
X134906Y62105
X163644Y62105
X169156Y62105
T05C0.126000
X28100Y56800
X25750Y56800
X23100Y56800
X20900Y56800
X18200Y56800
X16000Y56800
X13100Y56850
X11050Y56850
X62350Y56800
X60000Y56800
X57350Y56800
X55150Y56800
X52450Y56800
X50250Y56800
X47350Y56850
X45300Y56850
X28100Y114250
X25750Y114250
X23100Y114250
X20900Y114250
X18200Y114250
X16000Y114250
X13100Y114300
X11050Y114300
X96600Y56800
X94250Y56800
X91600Y56800
X89400Y56800
X86700Y56800
X84500Y56800
X81600Y56850
X79550Y56850
X130850Y56800
X128500Y56800
X125850Y56800
X123650Y56800
X120950Y56800
X118750Y56800
X115850Y56850
X113800Y56850
X165100Y56800
X162750Y56800
X160100Y56800
X157900Y56800
X155200Y56800
X153000Y56800
X150100Y56850
X148050Y56850
X62350Y114250
X60000Y114250
X57350Y114250
X55150Y114250
X52450Y114250
X50250Y114250
X47350Y114300
X45300Y114300
X96600Y114250
X94250Y114250
X91600Y114250
X89400Y114250
X86700Y114250
X84500Y114250
X81600Y114300
X79550Y114300
X130850Y114250
X128500Y114250
X125850Y114250
X123650Y114250
X120950Y114250
X118750Y114250
X115850Y114300
X113800Y114300
X165100Y114250
X162750Y114250
X160100Y114250
X157900Y114250
X155200Y114250
X153000Y114250
X150100Y114300
X148050Y114300
M30
