G75*
%MOIN*%
%OFA0B0*%
%FSLAX24Y24*%
%IPPOS*%
%LPD*%
%AMOC8*
5,1,8,0,0,1.08239X$1,22.5*
%
%ADD10C,0.0000*%
%ADD11C,0.0051*%
%ADD12C,0.0100*%
%ADD13R,0.0810X0.0030*%
%ADD14R,0.1500X0.0030*%
%ADD15R,0.2040X0.0030*%
%ADD16R,0.1110X0.0030*%
%ADD17R,0.1020X0.0030*%
%ADD18R,0.0840X0.0030*%
%ADD19R,0.0720X0.0030*%
%ADD20R,0.0660X0.0030*%
%ADD21R,0.0630X0.0030*%
%ADD22R,0.0570X0.0030*%
%ADD23R,0.0540X0.0030*%
%ADD24R,0.0480X0.0030*%
%ADD25R,0.0450X0.0030*%
%ADD26R,0.0420X0.0030*%
%ADD27R,0.0390X0.0030*%
%ADD28R,0.0360X0.0030*%
%ADD29R,0.0330X0.0030*%
%ADD30R,0.0300X0.0030*%
%ADD31R,0.0270X0.0030*%
%ADD32R,0.0240X0.0030*%
%ADD33R,0.0210X0.0030*%
%ADD34R,0.0180X0.0030*%
%ADD35R,0.0150X0.0030*%
%ADD36R,0.0120X0.0030*%
%ADD37R,0.0090X0.0030*%
%ADD38R,0.1050X0.0030*%
%ADD39R,0.1560X0.0030*%
%ADD40R,0.1980X0.0030*%
%ADD41R,0.1230X0.0030*%
%ADD42R,0.0960X0.0030*%
%ADD43R,0.0750X0.0030*%
%ADD44R,0.0600X0.0030*%
%ADD45R,0.0780X0.0030*%
%ADD46R,0.0930X0.0030*%
%ADD47R,0.0690X0.0030*%
%ADD48R,0.0510X0.0030*%
%ADD49R,0.0060X0.0030*%
%ADD50R,0.0030X0.0030*%
%ADD51R,0.0990X0.0030*%
D10*
X000180Y008893D02*
X000180Y072893D01*
X056180Y072893D01*
X056180Y008893D01*
X000180Y008893D01*
X002220Y017513D02*
X002222Y017563D01*
X002228Y017613D01*
X002238Y017663D01*
X002251Y017711D01*
X002268Y017759D01*
X002289Y017805D01*
X002313Y017849D01*
X002341Y017891D01*
X002372Y017931D01*
X002406Y017968D01*
X002443Y018003D01*
X002482Y018034D01*
X002523Y018063D01*
X002567Y018088D01*
X002613Y018110D01*
X002660Y018128D01*
X002708Y018142D01*
X002757Y018153D01*
X002807Y018160D01*
X002857Y018163D01*
X002908Y018162D01*
X002958Y018157D01*
X003008Y018148D01*
X003056Y018136D01*
X003104Y018119D01*
X003150Y018099D01*
X003195Y018076D01*
X003238Y018049D01*
X003278Y018019D01*
X003316Y017986D01*
X003351Y017950D01*
X003384Y017911D01*
X003413Y017870D01*
X003439Y017827D01*
X003462Y017782D01*
X003481Y017735D01*
X003496Y017687D01*
X003508Y017638D01*
X003516Y017588D01*
X003520Y017538D01*
X003520Y017488D01*
X003516Y017438D01*
X003508Y017388D01*
X003496Y017339D01*
X003481Y017291D01*
X003462Y017244D01*
X003439Y017199D01*
X003413Y017156D01*
X003384Y017115D01*
X003351Y017076D01*
X003316Y017040D01*
X003278Y017007D01*
X003238Y016977D01*
X003195Y016950D01*
X003150Y016927D01*
X003104Y016907D01*
X003056Y016890D01*
X003008Y016878D01*
X002958Y016869D01*
X002908Y016864D01*
X002857Y016863D01*
X002807Y016866D01*
X002757Y016873D01*
X002708Y016884D01*
X002660Y016898D01*
X002613Y016916D01*
X002567Y016938D01*
X002523Y016963D01*
X002482Y016992D01*
X002443Y017023D01*
X002406Y017058D01*
X002372Y017095D01*
X002341Y017135D01*
X002313Y017177D01*
X002289Y017221D01*
X002268Y017267D01*
X002251Y017315D01*
X002238Y017363D01*
X002228Y017413D01*
X002222Y017463D01*
X002220Y017513D01*
X017932Y017902D02*
X017934Y017950D01*
X017940Y017998D01*
X017950Y018045D01*
X017963Y018091D01*
X017981Y018136D01*
X018001Y018180D01*
X018026Y018222D01*
X018054Y018261D01*
X018084Y018298D01*
X018118Y018332D01*
X018155Y018364D01*
X018193Y018393D01*
X018234Y018418D01*
X018277Y018440D01*
X018322Y018458D01*
X018368Y018472D01*
X018415Y018483D01*
X018463Y018490D01*
X018511Y018493D01*
X018559Y018492D01*
X018607Y018487D01*
X018655Y018478D01*
X018701Y018466D01*
X018746Y018449D01*
X018790Y018429D01*
X018832Y018406D01*
X018872Y018379D01*
X018910Y018349D01*
X018945Y018316D01*
X018977Y018280D01*
X019007Y018242D01*
X019033Y018201D01*
X019055Y018158D01*
X019075Y018114D01*
X019090Y018069D01*
X019102Y018022D01*
X019110Y017974D01*
X019114Y017926D01*
X019114Y017878D01*
X019110Y017830D01*
X019102Y017782D01*
X019090Y017735D01*
X019075Y017690D01*
X019055Y017646D01*
X019033Y017603D01*
X019007Y017562D01*
X018977Y017524D01*
X018945Y017488D01*
X018910Y017455D01*
X018872Y017425D01*
X018832Y017398D01*
X018790Y017375D01*
X018746Y017355D01*
X018701Y017338D01*
X018655Y017326D01*
X018607Y017317D01*
X018559Y017312D01*
X018511Y017311D01*
X018463Y017314D01*
X018415Y017321D01*
X018368Y017332D01*
X018322Y017346D01*
X018277Y017364D01*
X018234Y017386D01*
X018193Y017411D01*
X018155Y017440D01*
X018118Y017472D01*
X018084Y017506D01*
X018054Y017543D01*
X018026Y017582D01*
X018001Y017624D01*
X017981Y017668D01*
X017963Y017713D01*
X017950Y017759D01*
X017940Y017806D01*
X017934Y017854D01*
X017932Y017902D01*
X023286Y017902D02*
X023288Y017950D01*
X023294Y017998D01*
X023304Y018045D01*
X023317Y018091D01*
X023335Y018136D01*
X023355Y018180D01*
X023380Y018222D01*
X023408Y018261D01*
X023438Y018298D01*
X023472Y018332D01*
X023509Y018364D01*
X023547Y018393D01*
X023588Y018418D01*
X023631Y018440D01*
X023676Y018458D01*
X023722Y018472D01*
X023769Y018483D01*
X023817Y018490D01*
X023865Y018493D01*
X023913Y018492D01*
X023961Y018487D01*
X024009Y018478D01*
X024055Y018466D01*
X024100Y018449D01*
X024144Y018429D01*
X024186Y018406D01*
X024226Y018379D01*
X024264Y018349D01*
X024299Y018316D01*
X024331Y018280D01*
X024361Y018242D01*
X024387Y018201D01*
X024409Y018158D01*
X024429Y018114D01*
X024444Y018069D01*
X024456Y018022D01*
X024464Y017974D01*
X024468Y017926D01*
X024468Y017878D01*
X024464Y017830D01*
X024456Y017782D01*
X024444Y017735D01*
X024429Y017690D01*
X024409Y017646D01*
X024387Y017603D01*
X024361Y017562D01*
X024331Y017524D01*
X024299Y017488D01*
X024264Y017455D01*
X024226Y017425D01*
X024186Y017398D01*
X024144Y017375D01*
X024100Y017355D01*
X024055Y017338D01*
X024009Y017326D01*
X023961Y017317D01*
X023913Y017312D01*
X023865Y017311D01*
X023817Y017314D01*
X023769Y017321D01*
X023722Y017332D01*
X023676Y017346D01*
X023631Y017364D01*
X023588Y017386D01*
X023547Y017411D01*
X023509Y017440D01*
X023472Y017472D01*
X023438Y017506D01*
X023408Y017543D01*
X023380Y017582D01*
X023355Y017624D01*
X023335Y017668D01*
X023317Y017713D01*
X023304Y017759D01*
X023294Y017806D01*
X023288Y017854D01*
X023286Y017902D01*
X045527Y024686D02*
X045529Y024734D01*
X045535Y024782D01*
X045545Y024829D01*
X045558Y024875D01*
X045576Y024920D01*
X045596Y024964D01*
X045621Y025006D01*
X045649Y025045D01*
X045679Y025082D01*
X045713Y025116D01*
X045750Y025148D01*
X045788Y025177D01*
X045829Y025202D01*
X045872Y025224D01*
X045917Y025242D01*
X045963Y025256D01*
X046010Y025267D01*
X046058Y025274D01*
X046106Y025277D01*
X046154Y025276D01*
X046202Y025271D01*
X046250Y025262D01*
X046296Y025250D01*
X046341Y025233D01*
X046385Y025213D01*
X046427Y025190D01*
X046467Y025163D01*
X046505Y025133D01*
X046540Y025100D01*
X046572Y025064D01*
X046602Y025026D01*
X046628Y024985D01*
X046650Y024942D01*
X046670Y024898D01*
X046685Y024853D01*
X046697Y024806D01*
X046705Y024758D01*
X046709Y024710D01*
X046709Y024662D01*
X046705Y024614D01*
X046697Y024566D01*
X046685Y024519D01*
X046670Y024474D01*
X046650Y024430D01*
X046628Y024387D01*
X046602Y024346D01*
X046572Y024308D01*
X046540Y024272D01*
X046505Y024239D01*
X046467Y024209D01*
X046427Y024182D01*
X046385Y024159D01*
X046341Y024139D01*
X046296Y024122D01*
X046250Y024110D01*
X046202Y024101D01*
X046154Y024096D01*
X046106Y024095D01*
X046058Y024098D01*
X046010Y024105D01*
X045963Y024116D01*
X045917Y024130D01*
X045872Y024148D01*
X045829Y024170D01*
X045788Y024195D01*
X045750Y024224D01*
X045713Y024256D01*
X045679Y024290D01*
X045649Y024327D01*
X045621Y024366D01*
X045596Y024408D01*
X045576Y024452D01*
X045558Y024497D01*
X045545Y024543D01*
X045535Y024590D01*
X045529Y024638D01*
X045527Y024686D01*
X045527Y030040D02*
X045529Y030088D01*
X045535Y030136D01*
X045545Y030183D01*
X045558Y030229D01*
X045576Y030274D01*
X045596Y030318D01*
X045621Y030360D01*
X045649Y030399D01*
X045679Y030436D01*
X045713Y030470D01*
X045750Y030502D01*
X045788Y030531D01*
X045829Y030556D01*
X045872Y030578D01*
X045917Y030596D01*
X045963Y030610D01*
X046010Y030621D01*
X046058Y030628D01*
X046106Y030631D01*
X046154Y030630D01*
X046202Y030625D01*
X046250Y030616D01*
X046296Y030604D01*
X046341Y030587D01*
X046385Y030567D01*
X046427Y030544D01*
X046467Y030517D01*
X046505Y030487D01*
X046540Y030454D01*
X046572Y030418D01*
X046602Y030380D01*
X046628Y030339D01*
X046650Y030296D01*
X046670Y030252D01*
X046685Y030207D01*
X046697Y030160D01*
X046705Y030112D01*
X046709Y030064D01*
X046709Y030016D01*
X046705Y029968D01*
X046697Y029920D01*
X046685Y029873D01*
X046670Y029828D01*
X046650Y029784D01*
X046628Y029741D01*
X046602Y029700D01*
X046572Y029662D01*
X046540Y029626D01*
X046505Y029593D01*
X046467Y029563D01*
X046427Y029536D01*
X046385Y029513D01*
X046341Y029493D01*
X046296Y029476D01*
X046250Y029464D01*
X046202Y029455D01*
X046154Y029450D01*
X046106Y029449D01*
X046058Y029452D01*
X046010Y029459D01*
X045963Y029470D01*
X045917Y029484D01*
X045872Y029502D01*
X045829Y029524D01*
X045788Y029549D01*
X045750Y029578D01*
X045713Y029610D01*
X045679Y029644D01*
X045649Y029681D01*
X045621Y029720D01*
X045596Y029762D01*
X045576Y029806D01*
X045558Y029851D01*
X045545Y029897D01*
X045535Y029944D01*
X045529Y029992D01*
X045527Y030040D01*
X046320Y041548D02*
X046322Y041602D01*
X046328Y041656D01*
X046338Y041709D01*
X046351Y041762D01*
X046368Y041813D01*
X046389Y041863D01*
X046414Y041911D01*
X046442Y041958D01*
X046473Y042002D01*
X046507Y042044D01*
X046544Y042083D01*
X046584Y042120D01*
X046627Y042153D01*
X046672Y042184D01*
X046719Y042211D01*
X046767Y042234D01*
X046818Y042254D01*
X046869Y042271D01*
X046922Y042283D01*
X046975Y042292D01*
X047029Y042297D01*
X047084Y042298D01*
X047138Y042295D01*
X047191Y042288D01*
X047244Y042277D01*
X047297Y042263D01*
X047348Y042245D01*
X047397Y042223D01*
X047445Y042198D01*
X047491Y042169D01*
X047535Y042137D01*
X047576Y042102D01*
X047614Y042064D01*
X047650Y042023D01*
X047683Y041980D01*
X047713Y041935D01*
X047739Y041887D01*
X047762Y041838D01*
X047781Y041787D01*
X047796Y041736D01*
X047808Y041683D01*
X047816Y041629D01*
X047820Y041575D01*
X047820Y041521D01*
X047816Y041467D01*
X047808Y041413D01*
X047796Y041360D01*
X047781Y041309D01*
X047762Y041258D01*
X047739Y041209D01*
X047713Y041161D01*
X047683Y041116D01*
X047650Y041073D01*
X047614Y041032D01*
X047576Y040994D01*
X047535Y040959D01*
X047491Y040927D01*
X047445Y040898D01*
X047397Y040873D01*
X047348Y040851D01*
X047297Y040833D01*
X047244Y040819D01*
X047191Y040808D01*
X047138Y040801D01*
X047084Y040798D01*
X047029Y040799D01*
X046975Y040804D01*
X046922Y040813D01*
X046869Y040825D01*
X046818Y040842D01*
X046767Y040862D01*
X046719Y040885D01*
X046672Y040912D01*
X046627Y040943D01*
X046584Y040976D01*
X046544Y041013D01*
X046507Y041052D01*
X046473Y041094D01*
X046442Y041138D01*
X046414Y041185D01*
X046389Y041233D01*
X046368Y041283D01*
X046351Y041334D01*
X046338Y041387D01*
X046328Y041440D01*
X046322Y041494D01*
X046320Y041548D01*
X046320Y046278D02*
X046322Y046332D01*
X046328Y046386D01*
X046338Y046439D01*
X046351Y046492D01*
X046368Y046543D01*
X046389Y046593D01*
X046414Y046641D01*
X046442Y046688D01*
X046473Y046732D01*
X046507Y046774D01*
X046544Y046813D01*
X046584Y046850D01*
X046627Y046883D01*
X046672Y046914D01*
X046719Y046941D01*
X046767Y046964D01*
X046818Y046984D01*
X046869Y047001D01*
X046922Y047013D01*
X046975Y047022D01*
X047029Y047027D01*
X047084Y047028D01*
X047138Y047025D01*
X047191Y047018D01*
X047244Y047007D01*
X047297Y046993D01*
X047348Y046975D01*
X047397Y046953D01*
X047445Y046928D01*
X047491Y046899D01*
X047535Y046867D01*
X047576Y046832D01*
X047614Y046794D01*
X047650Y046753D01*
X047683Y046710D01*
X047713Y046665D01*
X047739Y046617D01*
X047762Y046568D01*
X047781Y046517D01*
X047796Y046466D01*
X047808Y046413D01*
X047816Y046359D01*
X047820Y046305D01*
X047820Y046251D01*
X047816Y046197D01*
X047808Y046143D01*
X047796Y046090D01*
X047781Y046039D01*
X047762Y045988D01*
X047739Y045939D01*
X047713Y045891D01*
X047683Y045846D01*
X047650Y045803D01*
X047614Y045762D01*
X047576Y045724D01*
X047535Y045689D01*
X047491Y045657D01*
X047445Y045628D01*
X047397Y045603D01*
X047348Y045581D01*
X047297Y045563D01*
X047244Y045549D01*
X047191Y045538D01*
X047138Y045531D01*
X047084Y045528D01*
X047029Y045529D01*
X046975Y045534D01*
X046922Y045543D01*
X046869Y045555D01*
X046818Y045572D01*
X046767Y045592D01*
X046719Y045615D01*
X046672Y045642D01*
X046627Y045673D01*
X046584Y045706D01*
X046544Y045743D01*
X046507Y045782D01*
X046473Y045824D01*
X046442Y045868D01*
X046414Y045915D01*
X046389Y045963D01*
X046368Y046013D01*
X046351Y046064D01*
X046338Y046117D01*
X046328Y046170D01*
X046322Y046224D01*
X046320Y046278D01*
X046320Y049548D02*
X046322Y049602D01*
X046328Y049656D01*
X046338Y049709D01*
X046351Y049762D01*
X046368Y049813D01*
X046389Y049863D01*
X046414Y049911D01*
X046442Y049958D01*
X046473Y050002D01*
X046507Y050044D01*
X046544Y050083D01*
X046584Y050120D01*
X046627Y050153D01*
X046672Y050184D01*
X046719Y050211D01*
X046767Y050234D01*
X046818Y050254D01*
X046869Y050271D01*
X046922Y050283D01*
X046975Y050292D01*
X047029Y050297D01*
X047084Y050298D01*
X047138Y050295D01*
X047191Y050288D01*
X047244Y050277D01*
X047297Y050263D01*
X047348Y050245D01*
X047397Y050223D01*
X047445Y050198D01*
X047491Y050169D01*
X047535Y050137D01*
X047576Y050102D01*
X047614Y050064D01*
X047650Y050023D01*
X047683Y049980D01*
X047713Y049935D01*
X047739Y049887D01*
X047762Y049838D01*
X047781Y049787D01*
X047796Y049736D01*
X047808Y049683D01*
X047816Y049629D01*
X047820Y049575D01*
X047820Y049521D01*
X047816Y049467D01*
X047808Y049413D01*
X047796Y049360D01*
X047781Y049309D01*
X047762Y049258D01*
X047739Y049209D01*
X047713Y049161D01*
X047683Y049116D01*
X047650Y049073D01*
X047614Y049032D01*
X047576Y048994D01*
X047535Y048959D01*
X047491Y048927D01*
X047445Y048898D01*
X047397Y048873D01*
X047348Y048851D01*
X047297Y048833D01*
X047244Y048819D01*
X047191Y048808D01*
X047138Y048801D01*
X047084Y048798D01*
X047029Y048799D01*
X046975Y048804D01*
X046922Y048813D01*
X046869Y048825D01*
X046818Y048842D01*
X046767Y048862D01*
X046719Y048885D01*
X046672Y048912D01*
X046627Y048943D01*
X046584Y048976D01*
X046544Y049013D01*
X046507Y049052D01*
X046473Y049094D01*
X046442Y049138D01*
X046414Y049185D01*
X046389Y049233D01*
X046368Y049283D01*
X046351Y049334D01*
X046338Y049387D01*
X046328Y049440D01*
X046322Y049494D01*
X046320Y049548D01*
X046320Y054278D02*
X046322Y054332D01*
X046328Y054386D01*
X046338Y054439D01*
X046351Y054492D01*
X046368Y054543D01*
X046389Y054593D01*
X046414Y054641D01*
X046442Y054688D01*
X046473Y054732D01*
X046507Y054774D01*
X046544Y054813D01*
X046584Y054850D01*
X046627Y054883D01*
X046672Y054914D01*
X046719Y054941D01*
X046767Y054964D01*
X046818Y054984D01*
X046869Y055001D01*
X046922Y055013D01*
X046975Y055022D01*
X047029Y055027D01*
X047084Y055028D01*
X047138Y055025D01*
X047191Y055018D01*
X047244Y055007D01*
X047297Y054993D01*
X047348Y054975D01*
X047397Y054953D01*
X047445Y054928D01*
X047491Y054899D01*
X047535Y054867D01*
X047576Y054832D01*
X047614Y054794D01*
X047650Y054753D01*
X047683Y054710D01*
X047713Y054665D01*
X047739Y054617D01*
X047762Y054568D01*
X047781Y054517D01*
X047796Y054466D01*
X047808Y054413D01*
X047816Y054359D01*
X047820Y054305D01*
X047820Y054251D01*
X047816Y054197D01*
X047808Y054143D01*
X047796Y054090D01*
X047781Y054039D01*
X047762Y053988D01*
X047739Y053939D01*
X047713Y053891D01*
X047683Y053846D01*
X047650Y053803D01*
X047614Y053762D01*
X047576Y053724D01*
X047535Y053689D01*
X047491Y053657D01*
X047445Y053628D01*
X047397Y053603D01*
X047348Y053581D01*
X047297Y053563D01*
X047244Y053549D01*
X047191Y053538D01*
X047138Y053531D01*
X047084Y053528D01*
X047029Y053529D01*
X046975Y053534D01*
X046922Y053543D01*
X046869Y053555D01*
X046818Y053572D01*
X046767Y053592D01*
X046719Y053615D01*
X046672Y053642D01*
X046627Y053673D01*
X046584Y053706D01*
X046544Y053743D01*
X046507Y053782D01*
X046473Y053824D01*
X046442Y053868D01*
X046414Y053915D01*
X046389Y053963D01*
X046368Y054013D01*
X046351Y054064D01*
X046338Y054117D01*
X046328Y054170D01*
X046322Y054224D01*
X046320Y054278D01*
X046320Y057548D02*
X046322Y057602D01*
X046328Y057656D01*
X046338Y057709D01*
X046351Y057762D01*
X046368Y057813D01*
X046389Y057863D01*
X046414Y057911D01*
X046442Y057958D01*
X046473Y058002D01*
X046507Y058044D01*
X046544Y058083D01*
X046584Y058120D01*
X046627Y058153D01*
X046672Y058184D01*
X046719Y058211D01*
X046767Y058234D01*
X046818Y058254D01*
X046869Y058271D01*
X046922Y058283D01*
X046975Y058292D01*
X047029Y058297D01*
X047084Y058298D01*
X047138Y058295D01*
X047191Y058288D01*
X047244Y058277D01*
X047297Y058263D01*
X047348Y058245D01*
X047397Y058223D01*
X047445Y058198D01*
X047491Y058169D01*
X047535Y058137D01*
X047576Y058102D01*
X047614Y058064D01*
X047650Y058023D01*
X047683Y057980D01*
X047713Y057935D01*
X047739Y057887D01*
X047762Y057838D01*
X047781Y057787D01*
X047796Y057736D01*
X047808Y057683D01*
X047816Y057629D01*
X047820Y057575D01*
X047820Y057521D01*
X047816Y057467D01*
X047808Y057413D01*
X047796Y057360D01*
X047781Y057309D01*
X047762Y057258D01*
X047739Y057209D01*
X047713Y057161D01*
X047683Y057116D01*
X047650Y057073D01*
X047614Y057032D01*
X047576Y056994D01*
X047535Y056959D01*
X047491Y056927D01*
X047445Y056898D01*
X047397Y056873D01*
X047348Y056851D01*
X047297Y056833D01*
X047244Y056819D01*
X047191Y056808D01*
X047138Y056801D01*
X047084Y056798D01*
X047029Y056799D01*
X046975Y056804D01*
X046922Y056813D01*
X046869Y056825D01*
X046818Y056842D01*
X046767Y056862D01*
X046719Y056885D01*
X046672Y056912D01*
X046627Y056943D01*
X046584Y056976D01*
X046544Y057013D01*
X046507Y057052D01*
X046473Y057094D01*
X046442Y057138D01*
X046414Y057185D01*
X046389Y057233D01*
X046368Y057283D01*
X046351Y057334D01*
X046338Y057387D01*
X046328Y057440D01*
X046322Y057494D01*
X046320Y057548D01*
X046320Y062278D02*
X046322Y062332D01*
X046328Y062386D01*
X046338Y062439D01*
X046351Y062492D01*
X046368Y062543D01*
X046389Y062593D01*
X046414Y062641D01*
X046442Y062688D01*
X046473Y062732D01*
X046507Y062774D01*
X046544Y062813D01*
X046584Y062850D01*
X046627Y062883D01*
X046672Y062914D01*
X046719Y062941D01*
X046767Y062964D01*
X046818Y062984D01*
X046869Y063001D01*
X046922Y063013D01*
X046975Y063022D01*
X047029Y063027D01*
X047084Y063028D01*
X047138Y063025D01*
X047191Y063018D01*
X047244Y063007D01*
X047297Y062993D01*
X047348Y062975D01*
X047397Y062953D01*
X047445Y062928D01*
X047491Y062899D01*
X047535Y062867D01*
X047576Y062832D01*
X047614Y062794D01*
X047650Y062753D01*
X047683Y062710D01*
X047713Y062665D01*
X047739Y062617D01*
X047762Y062568D01*
X047781Y062517D01*
X047796Y062466D01*
X047808Y062413D01*
X047816Y062359D01*
X047820Y062305D01*
X047820Y062251D01*
X047816Y062197D01*
X047808Y062143D01*
X047796Y062090D01*
X047781Y062039D01*
X047762Y061988D01*
X047739Y061939D01*
X047713Y061891D01*
X047683Y061846D01*
X047650Y061803D01*
X047614Y061762D01*
X047576Y061724D01*
X047535Y061689D01*
X047491Y061657D01*
X047445Y061628D01*
X047397Y061603D01*
X047348Y061581D01*
X047297Y061563D01*
X047244Y061549D01*
X047191Y061538D01*
X047138Y061531D01*
X047084Y061528D01*
X047029Y061529D01*
X046975Y061534D01*
X046922Y061543D01*
X046869Y061555D01*
X046818Y061572D01*
X046767Y061592D01*
X046719Y061615D01*
X046672Y061642D01*
X046627Y061673D01*
X046584Y061706D01*
X046544Y061743D01*
X046507Y061782D01*
X046473Y061824D01*
X046442Y061868D01*
X046414Y061915D01*
X046389Y061963D01*
X046368Y062013D01*
X046351Y062064D01*
X046338Y062117D01*
X046328Y062170D01*
X046322Y062224D01*
X046320Y062278D01*
X046320Y065548D02*
X046322Y065602D01*
X046328Y065656D01*
X046338Y065709D01*
X046351Y065762D01*
X046368Y065813D01*
X046389Y065863D01*
X046414Y065911D01*
X046442Y065958D01*
X046473Y066002D01*
X046507Y066044D01*
X046544Y066083D01*
X046584Y066120D01*
X046627Y066153D01*
X046672Y066184D01*
X046719Y066211D01*
X046767Y066234D01*
X046818Y066254D01*
X046869Y066271D01*
X046922Y066283D01*
X046975Y066292D01*
X047029Y066297D01*
X047084Y066298D01*
X047138Y066295D01*
X047191Y066288D01*
X047244Y066277D01*
X047297Y066263D01*
X047348Y066245D01*
X047397Y066223D01*
X047445Y066198D01*
X047491Y066169D01*
X047535Y066137D01*
X047576Y066102D01*
X047614Y066064D01*
X047650Y066023D01*
X047683Y065980D01*
X047713Y065935D01*
X047739Y065887D01*
X047762Y065838D01*
X047781Y065787D01*
X047796Y065736D01*
X047808Y065683D01*
X047816Y065629D01*
X047820Y065575D01*
X047820Y065521D01*
X047816Y065467D01*
X047808Y065413D01*
X047796Y065360D01*
X047781Y065309D01*
X047762Y065258D01*
X047739Y065209D01*
X047713Y065161D01*
X047683Y065116D01*
X047650Y065073D01*
X047614Y065032D01*
X047576Y064994D01*
X047535Y064959D01*
X047491Y064927D01*
X047445Y064898D01*
X047397Y064873D01*
X047348Y064851D01*
X047297Y064833D01*
X047244Y064819D01*
X047191Y064808D01*
X047138Y064801D01*
X047084Y064798D01*
X047029Y064799D01*
X046975Y064804D01*
X046922Y064813D01*
X046869Y064825D01*
X046818Y064842D01*
X046767Y064862D01*
X046719Y064885D01*
X046672Y064912D01*
X046627Y064943D01*
X046584Y064976D01*
X046544Y065013D01*
X046507Y065052D01*
X046473Y065094D01*
X046442Y065138D01*
X046414Y065185D01*
X046389Y065233D01*
X046368Y065283D01*
X046351Y065334D01*
X046338Y065387D01*
X046328Y065440D01*
X046322Y065494D01*
X046320Y065548D01*
X046320Y070278D02*
X046322Y070332D01*
X046328Y070386D01*
X046338Y070439D01*
X046351Y070492D01*
X046368Y070543D01*
X046389Y070593D01*
X046414Y070641D01*
X046442Y070688D01*
X046473Y070732D01*
X046507Y070774D01*
X046544Y070813D01*
X046584Y070850D01*
X046627Y070883D01*
X046672Y070914D01*
X046719Y070941D01*
X046767Y070964D01*
X046818Y070984D01*
X046869Y071001D01*
X046922Y071013D01*
X046975Y071022D01*
X047029Y071027D01*
X047084Y071028D01*
X047138Y071025D01*
X047191Y071018D01*
X047244Y071007D01*
X047297Y070993D01*
X047348Y070975D01*
X047397Y070953D01*
X047445Y070928D01*
X047491Y070899D01*
X047535Y070867D01*
X047576Y070832D01*
X047614Y070794D01*
X047650Y070753D01*
X047683Y070710D01*
X047713Y070665D01*
X047739Y070617D01*
X047762Y070568D01*
X047781Y070517D01*
X047796Y070466D01*
X047808Y070413D01*
X047816Y070359D01*
X047820Y070305D01*
X047820Y070251D01*
X047816Y070197D01*
X047808Y070143D01*
X047796Y070090D01*
X047781Y070039D01*
X047762Y069988D01*
X047739Y069939D01*
X047713Y069891D01*
X047683Y069846D01*
X047650Y069803D01*
X047614Y069762D01*
X047576Y069724D01*
X047535Y069689D01*
X047491Y069657D01*
X047445Y069628D01*
X047397Y069603D01*
X047348Y069581D01*
X047297Y069563D01*
X047244Y069549D01*
X047191Y069538D01*
X047138Y069531D01*
X047084Y069528D01*
X047029Y069529D01*
X046975Y069534D01*
X046922Y069543D01*
X046869Y069555D01*
X046818Y069572D01*
X046767Y069592D01*
X046719Y069615D01*
X046672Y069642D01*
X046627Y069673D01*
X046584Y069706D01*
X046544Y069743D01*
X046507Y069782D01*
X046473Y069824D01*
X046442Y069868D01*
X046414Y069915D01*
X046389Y069963D01*
X046368Y070013D01*
X046351Y070064D01*
X046338Y070117D01*
X046328Y070170D01*
X046322Y070224D01*
X046320Y070278D01*
X053530Y070893D02*
X053532Y070943D01*
X053538Y070993D01*
X053548Y071043D01*
X053561Y071091D01*
X053578Y071139D01*
X053599Y071185D01*
X053623Y071229D01*
X053651Y071271D01*
X053682Y071311D01*
X053716Y071348D01*
X053753Y071383D01*
X053792Y071414D01*
X053833Y071443D01*
X053877Y071468D01*
X053923Y071490D01*
X053970Y071508D01*
X054018Y071522D01*
X054067Y071533D01*
X054117Y071540D01*
X054167Y071543D01*
X054218Y071542D01*
X054268Y071537D01*
X054318Y071528D01*
X054366Y071516D01*
X054414Y071499D01*
X054460Y071479D01*
X054505Y071456D01*
X054548Y071429D01*
X054588Y071399D01*
X054626Y071366D01*
X054661Y071330D01*
X054694Y071291D01*
X054723Y071250D01*
X054749Y071207D01*
X054772Y071162D01*
X054791Y071115D01*
X054806Y071067D01*
X054818Y071018D01*
X054826Y070968D01*
X054830Y070918D01*
X054830Y070868D01*
X054826Y070818D01*
X054818Y070768D01*
X054806Y070719D01*
X054791Y070671D01*
X054772Y070624D01*
X054749Y070579D01*
X054723Y070536D01*
X054694Y070495D01*
X054661Y070456D01*
X054626Y070420D01*
X054588Y070387D01*
X054548Y070357D01*
X054505Y070330D01*
X054460Y070307D01*
X054414Y070287D01*
X054366Y070270D01*
X054318Y070258D01*
X054268Y070249D01*
X054218Y070244D01*
X054167Y070243D01*
X054117Y070246D01*
X054067Y070253D01*
X054018Y070264D01*
X053970Y070278D01*
X053923Y070296D01*
X053877Y070318D01*
X053833Y070343D01*
X053792Y070372D01*
X053753Y070403D01*
X053716Y070438D01*
X053682Y070475D01*
X053651Y070515D01*
X053623Y070557D01*
X053599Y070601D01*
X053578Y070647D01*
X053561Y070695D01*
X053548Y070743D01*
X053538Y070793D01*
X053532Y070843D01*
X053530Y070893D01*
X026420Y055913D02*
X026422Y055963D01*
X026428Y056013D01*
X026438Y056063D01*
X026451Y056111D01*
X026468Y056159D01*
X026489Y056205D01*
X026513Y056249D01*
X026541Y056291D01*
X026572Y056331D01*
X026606Y056368D01*
X026643Y056403D01*
X026682Y056434D01*
X026723Y056463D01*
X026767Y056488D01*
X026813Y056510D01*
X026860Y056528D01*
X026908Y056542D01*
X026957Y056553D01*
X027007Y056560D01*
X027057Y056563D01*
X027108Y056562D01*
X027158Y056557D01*
X027208Y056548D01*
X027256Y056536D01*
X027304Y056519D01*
X027350Y056499D01*
X027395Y056476D01*
X027438Y056449D01*
X027478Y056419D01*
X027516Y056386D01*
X027551Y056350D01*
X027584Y056311D01*
X027613Y056270D01*
X027639Y056227D01*
X027662Y056182D01*
X027681Y056135D01*
X027696Y056087D01*
X027708Y056038D01*
X027716Y055988D01*
X027720Y055938D01*
X027720Y055888D01*
X027716Y055838D01*
X027708Y055788D01*
X027696Y055739D01*
X027681Y055691D01*
X027662Y055644D01*
X027639Y055599D01*
X027613Y055556D01*
X027584Y055515D01*
X027551Y055476D01*
X027516Y055440D01*
X027478Y055407D01*
X027438Y055377D01*
X027395Y055350D01*
X027350Y055327D01*
X027304Y055307D01*
X027256Y055290D01*
X027208Y055278D01*
X027158Y055269D01*
X027108Y055264D01*
X027057Y055263D01*
X027007Y055266D01*
X026957Y055273D01*
X026908Y055284D01*
X026860Y055298D01*
X026813Y055316D01*
X026767Y055338D01*
X026723Y055363D01*
X026682Y055392D01*
X026643Y055423D01*
X026606Y055458D01*
X026572Y055495D01*
X026541Y055535D01*
X026513Y055577D01*
X026489Y055621D01*
X026468Y055667D01*
X026451Y055715D01*
X026438Y055763D01*
X026428Y055813D01*
X026422Y055863D01*
X026420Y055913D01*
X006320Y054278D02*
X006322Y054332D01*
X006328Y054386D01*
X006338Y054439D01*
X006351Y054492D01*
X006368Y054543D01*
X006389Y054593D01*
X006414Y054641D01*
X006442Y054688D01*
X006473Y054732D01*
X006507Y054774D01*
X006544Y054813D01*
X006584Y054850D01*
X006627Y054883D01*
X006672Y054914D01*
X006719Y054941D01*
X006767Y054964D01*
X006818Y054984D01*
X006869Y055001D01*
X006922Y055013D01*
X006975Y055022D01*
X007029Y055027D01*
X007084Y055028D01*
X007138Y055025D01*
X007191Y055018D01*
X007244Y055007D01*
X007297Y054993D01*
X007348Y054975D01*
X007397Y054953D01*
X007445Y054928D01*
X007491Y054899D01*
X007535Y054867D01*
X007576Y054832D01*
X007614Y054794D01*
X007650Y054753D01*
X007683Y054710D01*
X007713Y054665D01*
X007739Y054617D01*
X007762Y054568D01*
X007781Y054517D01*
X007796Y054466D01*
X007808Y054413D01*
X007816Y054359D01*
X007820Y054305D01*
X007820Y054251D01*
X007816Y054197D01*
X007808Y054143D01*
X007796Y054090D01*
X007781Y054039D01*
X007762Y053988D01*
X007739Y053939D01*
X007713Y053891D01*
X007683Y053846D01*
X007650Y053803D01*
X007614Y053762D01*
X007576Y053724D01*
X007535Y053689D01*
X007491Y053657D01*
X007445Y053628D01*
X007397Y053603D01*
X007348Y053581D01*
X007297Y053563D01*
X007244Y053549D01*
X007191Y053538D01*
X007138Y053531D01*
X007084Y053528D01*
X007029Y053529D01*
X006975Y053534D01*
X006922Y053543D01*
X006869Y053555D01*
X006818Y053572D01*
X006767Y053592D01*
X006719Y053615D01*
X006672Y053642D01*
X006627Y053673D01*
X006584Y053706D01*
X006544Y053743D01*
X006507Y053782D01*
X006473Y053824D01*
X006442Y053868D01*
X006414Y053915D01*
X006389Y053963D01*
X006368Y054013D01*
X006351Y054064D01*
X006338Y054117D01*
X006328Y054170D01*
X006322Y054224D01*
X006320Y054278D01*
X006320Y057548D02*
X006322Y057602D01*
X006328Y057656D01*
X006338Y057709D01*
X006351Y057762D01*
X006368Y057813D01*
X006389Y057863D01*
X006414Y057911D01*
X006442Y057958D01*
X006473Y058002D01*
X006507Y058044D01*
X006544Y058083D01*
X006584Y058120D01*
X006627Y058153D01*
X006672Y058184D01*
X006719Y058211D01*
X006767Y058234D01*
X006818Y058254D01*
X006869Y058271D01*
X006922Y058283D01*
X006975Y058292D01*
X007029Y058297D01*
X007084Y058298D01*
X007138Y058295D01*
X007191Y058288D01*
X007244Y058277D01*
X007297Y058263D01*
X007348Y058245D01*
X007397Y058223D01*
X007445Y058198D01*
X007491Y058169D01*
X007535Y058137D01*
X007576Y058102D01*
X007614Y058064D01*
X007650Y058023D01*
X007683Y057980D01*
X007713Y057935D01*
X007739Y057887D01*
X007762Y057838D01*
X007781Y057787D01*
X007796Y057736D01*
X007808Y057683D01*
X007816Y057629D01*
X007820Y057575D01*
X007820Y057521D01*
X007816Y057467D01*
X007808Y057413D01*
X007796Y057360D01*
X007781Y057309D01*
X007762Y057258D01*
X007739Y057209D01*
X007713Y057161D01*
X007683Y057116D01*
X007650Y057073D01*
X007614Y057032D01*
X007576Y056994D01*
X007535Y056959D01*
X007491Y056927D01*
X007445Y056898D01*
X007397Y056873D01*
X007348Y056851D01*
X007297Y056833D01*
X007244Y056819D01*
X007191Y056808D01*
X007138Y056801D01*
X007084Y056798D01*
X007029Y056799D01*
X006975Y056804D01*
X006922Y056813D01*
X006869Y056825D01*
X006818Y056842D01*
X006767Y056862D01*
X006719Y056885D01*
X006672Y056912D01*
X006627Y056943D01*
X006584Y056976D01*
X006544Y057013D01*
X006507Y057052D01*
X006473Y057094D01*
X006442Y057138D01*
X006414Y057185D01*
X006389Y057233D01*
X006368Y057283D01*
X006351Y057334D01*
X006338Y057387D01*
X006328Y057440D01*
X006322Y057494D01*
X006320Y057548D01*
X006320Y062278D02*
X006322Y062332D01*
X006328Y062386D01*
X006338Y062439D01*
X006351Y062492D01*
X006368Y062543D01*
X006389Y062593D01*
X006414Y062641D01*
X006442Y062688D01*
X006473Y062732D01*
X006507Y062774D01*
X006544Y062813D01*
X006584Y062850D01*
X006627Y062883D01*
X006672Y062914D01*
X006719Y062941D01*
X006767Y062964D01*
X006818Y062984D01*
X006869Y063001D01*
X006922Y063013D01*
X006975Y063022D01*
X007029Y063027D01*
X007084Y063028D01*
X007138Y063025D01*
X007191Y063018D01*
X007244Y063007D01*
X007297Y062993D01*
X007348Y062975D01*
X007397Y062953D01*
X007445Y062928D01*
X007491Y062899D01*
X007535Y062867D01*
X007576Y062832D01*
X007614Y062794D01*
X007650Y062753D01*
X007683Y062710D01*
X007713Y062665D01*
X007739Y062617D01*
X007762Y062568D01*
X007781Y062517D01*
X007796Y062466D01*
X007808Y062413D01*
X007816Y062359D01*
X007820Y062305D01*
X007820Y062251D01*
X007816Y062197D01*
X007808Y062143D01*
X007796Y062090D01*
X007781Y062039D01*
X007762Y061988D01*
X007739Y061939D01*
X007713Y061891D01*
X007683Y061846D01*
X007650Y061803D01*
X007614Y061762D01*
X007576Y061724D01*
X007535Y061689D01*
X007491Y061657D01*
X007445Y061628D01*
X007397Y061603D01*
X007348Y061581D01*
X007297Y061563D01*
X007244Y061549D01*
X007191Y061538D01*
X007138Y061531D01*
X007084Y061528D01*
X007029Y061529D01*
X006975Y061534D01*
X006922Y061543D01*
X006869Y061555D01*
X006818Y061572D01*
X006767Y061592D01*
X006719Y061615D01*
X006672Y061642D01*
X006627Y061673D01*
X006584Y061706D01*
X006544Y061743D01*
X006507Y061782D01*
X006473Y061824D01*
X006442Y061868D01*
X006414Y061915D01*
X006389Y061963D01*
X006368Y062013D01*
X006351Y062064D01*
X006338Y062117D01*
X006328Y062170D01*
X006322Y062224D01*
X006320Y062278D01*
X006320Y065548D02*
X006322Y065602D01*
X006328Y065656D01*
X006338Y065709D01*
X006351Y065762D01*
X006368Y065813D01*
X006389Y065863D01*
X006414Y065911D01*
X006442Y065958D01*
X006473Y066002D01*
X006507Y066044D01*
X006544Y066083D01*
X006584Y066120D01*
X006627Y066153D01*
X006672Y066184D01*
X006719Y066211D01*
X006767Y066234D01*
X006818Y066254D01*
X006869Y066271D01*
X006922Y066283D01*
X006975Y066292D01*
X007029Y066297D01*
X007084Y066298D01*
X007138Y066295D01*
X007191Y066288D01*
X007244Y066277D01*
X007297Y066263D01*
X007348Y066245D01*
X007397Y066223D01*
X007445Y066198D01*
X007491Y066169D01*
X007535Y066137D01*
X007576Y066102D01*
X007614Y066064D01*
X007650Y066023D01*
X007683Y065980D01*
X007713Y065935D01*
X007739Y065887D01*
X007762Y065838D01*
X007781Y065787D01*
X007796Y065736D01*
X007808Y065683D01*
X007816Y065629D01*
X007820Y065575D01*
X007820Y065521D01*
X007816Y065467D01*
X007808Y065413D01*
X007796Y065360D01*
X007781Y065309D01*
X007762Y065258D01*
X007739Y065209D01*
X007713Y065161D01*
X007683Y065116D01*
X007650Y065073D01*
X007614Y065032D01*
X007576Y064994D01*
X007535Y064959D01*
X007491Y064927D01*
X007445Y064898D01*
X007397Y064873D01*
X007348Y064851D01*
X007297Y064833D01*
X007244Y064819D01*
X007191Y064808D01*
X007138Y064801D01*
X007084Y064798D01*
X007029Y064799D01*
X006975Y064804D01*
X006922Y064813D01*
X006869Y064825D01*
X006818Y064842D01*
X006767Y064862D01*
X006719Y064885D01*
X006672Y064912D01*
X006627Y064943D01*
X006584Y064976D01*
X006544Y065013D01*
X006507Y065052D01*
X006473Y065094D01*
X006442Y065138D01*
X006414Y065185D01*
X006389Y065233D01*
X006368Y065283D01*
X006351Y065334D01*
X006338Y065387D01*
X006328Y065440D01*
X006322Y065494D01*
X006320Y065548D01*
X006320Y070278D02*
X006322Y070332D01*
X006328Y070386D01*
X006338Y070439D01*
X006351Y070492D01*
X006368Y070543D01*
X006389Y070593D01*
X006414Y070641D01*
X006442Y070688D01*
X006473Y070732D01*
X006507Y070774D01*
X006544Y070813D01*
X006584Y070850D01*
X006627Y070883D01*
X006672Y070914D01*
X006719Y070941D01*
X006767Y070964D01*
X006818Y070984D01*
X006869Y071001D01*
X006922Y071013D01*
X006975Y071022D01*
X007029Y071027D01*
X007084Y071028D01*
X007138Y071025D01*
X007191Y071018D01*
X007244Y071007D01*
X007297Y070993D01*
X007348Y070975D01*
X007397Y070953D01*
X007445Y070928D01*
X007491Y070899D01*
X007535Y070867D01*
X007576Y070832D01*
X007614Y070794D01*
X007650Y070753D01*
X007683Y070710D01*
X007713Y070665D01*
X007739Y070617D01*
X007762Y070568D01*
X007781Y070517D01*
X007796Y070466D01*
X007808Y070413D01*
X007816Y070359D01*
X007820Y070305D01*
X007820Y070251D01*
X007816Y070197D01*
X007808Y070143D01*
X007796Y070090D01*
X007781Y070039D01*
X007762Y069988D01*
X007739Y069939D01*
X007713Y069891D01*
X007683Y069846D01*
X007650Y069803D01*
X007614Y069762D01*
X007576Y069724D01*
X007535Y069689D01*
X007491Y069657D01*
X007445Y069628D01*
X007397Y069603D01*
X007348Y069581D01*
X007297Y069563D01*
X007244Y069549D01*
X007191Y069538D01*
X007138Y069531D01*
X007084Y069528D01*
X007029Y069529D01*
X006975Y069534D01*
X006922Y069543D01*
X006869Y069555D01*
X006818Y069572D01*
X006767Y069592D01*
X006719Y069615D01*
X006672Y069642D01*
X006627Y069673D01*
X006584Y069706D01*
X006544Y069743D01*
X006507Y069782D01*
X006473Y069824D01*
X006442Y069868D01*
X006414Y069915D01*
X006389Y069963D01*
X006368Y070013D01*
X006351Y070064D01*
X006338Y070117D01*
X006328Y070170D01*
X006322Y070224D01*
X006320Y070278D01*
X001530Y070893D02*
X001532Y070943D01*
X001538Y070993D01*
X001548Y071043D01*
X001561Y071091D01*
X001578Y071139D01*
X001599Y071185D01*
X001623Y071229D01*
X001651Y071271D01*
X001682Y071311D01*
X001716Y071348D01*
X001753Y071383D01*
X001792Y071414D01*
X001833Y071443D01*
X001877Y071468D01*
X001923Y071490D01*
X001970Y071508D01*
X002018Y071522D01*
X002067Y071533D01*
X002117Y071540D01*
X002167Y071543D01*
X002218Y071542D01*
X002268Y071537D01*
X002318Y071528D01*
X002366Y071516D01*
X002414Y071499D01*
X002460Y071479D01*
X002505Y071456D01*
X002548Y071429D01*
X002588Y071399D01*
X002626Y071366D01*
X002661Y071330D01*
X002694Y071291D01*
X002723Y071250D01*
X002749Y071207D01*
X002772Y071162D01*
X002791Y071115D01*
X002806Y071067D01*
X002818Y071018D01*
X002826Y070968D01*
X002830Y070918D01*
X002830Y070868D01*
X002826Y070818D01*
X002818Y070768D01*
X002806Y070719D01*
X002791Y070671D01*
X002772Y070624D01*
X002749Y070579D01*
X002723Y070536D01*
X002694Y070495D01*
X002661Y070456D01*
X002626Y070420D01*
X002588Y070387D01*
X002548Y070357D01*
X002505Y070330D01*
X002460Y070307D01*
X002414Y070287D01*
X002366Y070270D01*
X002318Y070258D01*
X002268Y070249D01*
X002218Y070244D01*
X002167Y070243D01*
X002117Y070246D01*
X002067Y070253D01*
X002018Y070264D01*
X001970Y070278D01*
X001923Y070296D01*
X001877Y070318D01*
X001833Y070343D01*
X001792Y070372D01*
X001753Y070403D01*
X001716Y070438D01*
X001682Y070475D01*
X001651Y070515D01*
X001623Y070557D01*
X001599Y070601D01*
X001578Y070647D01*
X001561Y070695D01*
X001548Y070743D01*
X001538Y070793D01*
X001532Y070843D01*
X001530Y070893D01*
X006320Y049548D02*
X006322Y049602D01*
X006328Y049656D01*
X006338Y049709D01*
X006351Y049762D01*
X006368Y049813D01*
X006389Y049863D01*
X006414Y049911D01*
X006442Y049958D01*
X006473Y050002D01*
X006507Y050044D01*
X006544Y050083D01*
X006584Y050120D01*
X006627Y050153D01*
X006672Y050184D01*
X006719Y050211D01*
X006767Y050234D01*
X006818Y050254D01*
X006869Y050271D01*
X006922Y050283D01*
X006975Y050292D01*
X007029Y050297D01*
X007084Y050298D01*
X007138Y050295D01*
X007191Y050288D01*
X007244Y050277D01*
X007297Y050263D01*
X007348Y050245D01*
X007397Y050223D01*
X007445Y050198D01*
X007491Y050169D01*
X007535Y050137D01*
X007576Y050102D01*
X007614Y050064D01*
X007650Y050023D01*
X007683Y049980D01*
X007713Y049935D01*
X007739Y049887D01*
X007762Y049838D01*
X007781Y049787D01*
X007796Y049736D01*
X007808Y049683D01*
X007816Y049629D01*
X007820Y049575D01*
X007820Y049521D01*
X007816Y049467D01*
X007808Y049413D01*
X007796Y049360D01*
X007781Y049309D01*
X007762Y049258D01*
X007739Y049209D01*
X007713Y049161D01*
X007683Y049116D01*
X007650Y049073D01*
X007614Y049032D01*
X007576Y048994D01*
X007535Y048959D01*
X007491Y048927D01*
X007445Y048898D01*
X007397Y048873D01*
X007348Y048851D01*
X007297Y048833D01*
X007244Y048819D01*
X007191Y048808D01*
X007138Y048801D01*
X007084Y048798D01*
X007029Y048799D01*
X006975Y048804D01*
X006922Y048813D01*
X006869Y048825D01*
X006818Y048842D01*
X006767Y048862D01*
X006719Y048885D01*
X006672Y048912D01*
X006627Y048943D01*
X006584Y048976D01*
X006544Y049013D01*
X006507Y049052D01*
X006473Y049094D01*
X006442Y049138D01*
X006414Y049185D01*
X006389Y049233D01*
X006368Y049283D01*
X006351Y049334D01*
X006338Y049387D01*
X006328Y049440D01*
X006322Y049494D01*
X006320Y049548D01*
X006320Y046278D02*
X006322Y046332D01*
X006328Y046386D01*
X006338Y046439D01*
X006351Y046492D01*
X006368Y046543D01*
X006389Y046593D01*
X006414Y046641D01*
X006442Y046688D01*
X006473Y046732D01*
X006507Y046774D01*
X006544Y046813D01*
X006584Y046850D01*
X006627Y046883D01*
X006672Y046914D01*
X006719Y046941D01*
X006767Y046964D01*
X006818Y046984D01*
X006869Y047001D01*
X006922Y047013D01*
X006975Y047022D01*
X007029Y047027D01*
X007084Y047028D01*
X007138Y047025D01*
X007191Y047018D01*
X007244Y047007D01*
X007297Y046993D01*
X007348Y046975D01*
X007397Y046953D01*
X007445Y046928D01*
X007491Y046899D01*
X007535Y046867D01*
X007576Y046832D01*
X007614Y046794D01*
X007650Y046753D01*
X007683Y046710D01*
X007713Y046665D01*
X007739Y046617D01*
X007762Y046568D01*
X007781Y046517D01*
X007796Y046466D01*
X007808Y046413D01*
X007816Y046359D01*
X007820Y046305D01*
X007820Y046251D01*
X007816Y046197D01*
X007808Y046143D01*
X007796Y046090D01*
X007781Y046039D01*
X007762Y045988D01*
X007739Y045939D01*
X007713Y045891D01*
X007683Y045846D01*
X007650Y045803D01*
X007614Y045762D01*
X007576Y045724D01*
X007535Y045689D01*
X007491Y045657D01*
X007445Y045628D01*
X007397Y045603D01*
X007348Y045581D01*
X007297Y045563D01*
X007244Y045549D01*
X007191Y045538D01*
X007138Y045531D01*
X007084Y045528D01*
X007029Y045529D01*
X006975Y045534D01*
X006922Y045543D01*
X006869Y045555D01*
X006818Y045572D01*
X006767Y045592D01*
X006719Y045615D01*
X006672Y045642D01*
X006627Y045673D01*
X006584Y045706D01*
X006544Y045743D01*
X006507Y045782D01*
X006473Y045824D01*
X006442Y045868D01*
X006414Y045915D01*
X006389Y045963D01*
X006368Y046013D01*
X006351Y046064D01*
X006338Y046117D01*
X006328Y046170D01*
X006322Y046224D01*
X006320Y046278D01*
X006320Y041548D02*
X006322Y041602D01*
X006328Y041656D01*
X006338Y041709D01*
X006351Y041762D01*
X006368Y041813D01*
X006389Y041863D01*
X006414Y041911D01*
X006442Y041958D01*
X006473Y042002D01*
X006507Y042044D01*
X006544Y042083D01*
X006584Y042120D01*
X006627Y042153D01*
X006672Y042184D01*
X006719Y042211D01*
X006767Y042234D01*
X006818Y042254D01*
X006869Y042271D01*
X006922Y042283D01*
X006975Y042292D01*
X007029Y042297D01*
X007084Y042298D01*
X007138Y042295D01*
X007191Y042288D01*
X007244Y042277D01*
X007297Y042263D01*
X007348Y042245D01*
X007397Y042223D01*
X007445Y042198D01*
X007491Y042169D01*
X007535Y042137D01*
X007576Y042102D01*
X007614Y042064D01*
X007650Y042023D01*
X007683Y041980D01*
X007713Y041935D01*
X007739Y041887D01*
X007762Y041838D01*
X007781Y041787D01*
X007796Y041736D01*
X007808Y041683D01*
X007816Y041629D01*
X007820Y041575D01*
X007820Y041521D01*
X007816Y041467D01*
X007808Y041413D01*
X007796Y041360D01*
X007781Y041309D01*
X007762Y041258D01*
X007739Y041209D01*
X007713Y041161D01*
X007683Y041116D01*
X007650Y041073D01*
X007614Y041032D01*
X007576Y040994D01*
X007535Y040959D01*
X007491Y040927D01*
X007445Y040898D01*
X007397Y040873D01*
X007348Y040851D01*
X007297Y040833D01*
X007244Y040819D01*
X007191Y040808D01*
X007138Y040801D01*
X007084Y040798D01*
X007029Y040799D01*
X006975Y040804D01*
X006922Y040813D01*
X006869Y040825D01*
X006818Y040842D01*
X006767Y040862D01*
X006719Y040885D01*
X006672Y040912D01*
X006627Y040943D01*
X006584Y040976D01*
X006544Y041013D01*
X006507Y041052D01*
X006473Y041094D01*
X006442Y041138D01*
X006414Y041185D01*
X006389Y041233D01*
X006368Y041283D01*
X006351Y041334D01*
X006338Y041387D01*
X006328Y041440D01*
X006322Y041494D01*
X006320Y041548D01*
X053920Y016863D02*
X053922Y016913D01*
X053928Y016963D01*
X053938Y017013D01*
X053951Y017061D01*
X053968Y017109D01*
X053989Y017155D01*
X054013Y017199D01*
X054041Y017241D01*
X054072Y017281D01*
X054106Y017318D01*
X054143Y017353D01*
X054182Y017384D01*
X054223Y017413D01*
X054267Y017438D01*
X054313Y017460D01*
X054360Y017478D01*
X054408Y017492D01*
X054457Y017503D01*
X054507Y017510D01*
X054557Y017513D01*
X054608Y017512D01*
X054658Y017507D01*
X054708Y017498D01*
X054756Y017486D01*
X054804Y017469D01*
X054850Y017449D01*
X054895Y017426D01*
X054938Y017399D01*
X054978Y017369D01*
X055016Y017336D01*
X055051Y017300D01*
X055084Y017261D01*
X055113Y017220D01*
X055139Y017177D01*
X055162Y017132D01*
X055181Y017085D01*
X055196Y017037D01*
X055208Y016988D01*
X055216Y016938D01*
X055220Y016888D01*
X055220Y016838D01*
X055216Y016788D01*
X055208Y016738D01*
X055196Y016689D01*
X055181Y016641D01*
X055162Y016594D01*
X055139Y016549D01*
X055113Y016506D01*
X055084Y016465D01*
X055051Y016426D01*
X055016Y016390D01*
X054978Y016357D01*
X054938Y016327D01*
X054895Y016300D01*
X054850Y016277D01*
X054804Y016257D01*
X054756Y016240D01*
X054708Y016228D01*
X054658Y016219D01*
X054608Y016214D01*
X054557Y016213D01*
X054507Y016216D01*
X054457Y016223D01*
X054408Y016234D01*
X054360Y016248D01*
X054313Y016266D01*
X054267Y016288D01*
X054223Y016313D01*
X054182Y016342D01*
X054143Y016373D01*
X054106Y016408D01*
X054072Y016445D01*
X054041Y016485D01*
X054013Y016527D01*
X053989Y016571D01*
X053968Y016617D01*
X053951Y016665D01*
X053938Y016713D01*
X053928Y016763D01*
X053922Y016813D01*
X053920Y016863D01*
D11*
X000180Y008893D02*
X000180Y000126D01*
X000180Y000893D02*
X001204Y000791D01*
X001204Y000768D02*
X000180Y000893D01*
X001204Y000996D01*
X001204Y001019D02*
X001204Y000768D01*
X001204Y000842D02*
X000180Y000893D01*
X001204Y000944D01*
X001204Y001019D02*
X000180Y000893D01*
X056180Y000893D01*
X055156Y000791D01*
X055156Y000768D02*
X056180Y000893D01*
X055156Y000996D01*
X055156Y001019D02*
X055156Y000768D01*
X055156Y000842D02*
X056180Y000893D01*
X055156Y000944D01*
X055156Y001019D02*
X056180Y000893D01*
X056180Y000126D02*
X056180Y008893D01*
D12*
X056180Y072893D01*
X000180Y072893D01*
X000180Y008893D01*
X056180Y008893D01*
X053360Y011883D02*
X053027Y011883D01*
X052960Y011950D01*
X052960Y012083D01*
X053027Y012150D01*
X053360Y012150D01*
X053360Y012344D02*
X053360Y012611D01*
X053294Y012611D01*
X053027Y012344D01*
X052960Y012344D01*
X053690Y012453D02*
X053690Y013873D01*
X053853Y013553D02*
X053855Y013568D01*
X053861Y013581D01*
X053870Y013593D01*
X053881Y013602D01*
X053895Y013608D01*
X053910Y013610D01*
X053925Y013608D01*
X053938Y013602D01*
X053950Y013593D01*
X053959Y013582D01*
X053965Y013568D01*
X053967Y013553D01*
X053965Y013538D01*
X053959Y013525D01*
X053950Y013513D01*
X053939Y013504D01*
X053925Y013498D01*
X053910Y013496D01*
X053895Y013498D01*
X053882Y013504D01*
X053870Y013513D01*
X053861Y013524D01*
X053855Y013538D01*
X053853Y013553D01*
X055550Y013873D02*
X055550Y012453D01*
X052548Y011080D02*
X052312Y011080D01*
X052312Y010607D02*
X052548Y010607D01*
X052548Y010380D02*
X052312Y010380D01*
X052312Y009907D02*
X052548Y009907D01*
X051730Y009918D02*
X051730Y010319D01*
X051530Y010319D01*
X051463Y010252D01*
X051463Y010118D01*
X051530Y010052D01*
X051730Y010052D01*
X051597Y010052D02*
X051463Y009918D01*
X051270Y010118D02*
X051069Y010319D01*
X051069Y009918D01*
X051003Y010118D02*
X051270Y010118D01*
X050809Y010118D02*
X050676Y010185D01*
X050609Y010185D01*
X050542Y010118D01*
X050542Y009985D01*
X050609Y009918D01*
X050742Y009918D01*
X050809Y009985D01*
X050809Y010118D02*
X050809Y010319D01*
X050542Y010319D01*
X050599Y010668D02*
X050599Y011069D01*
X050799Y010868D01*
X050532Y010868D01*
X050993Y010868D02*
X051260Y010868D01*
X051059Y011069D01*
X051059Y010668D01*
X051453Y010668D02*
X051587Y010802D01*
X051520Y010802D02*
X051720Y010802D01*
X051720Y010668D02*
X051720Y011069D01*
X051520Y011069D01*
X051453Y011002D01*
X051453Y010868D01*
X051520Y010802D01*
X045360Y016470D02*
X045294Y016403D01*
X045027Y016403D01*
X044960Y016470D01*
X044960Y016603D01*
X045027Y016670D01*
X044960Y016864D02*
X045227Y017131D01*
X045294Y017131D01*
X045360Y017064D01*
X045360Y016930D01*
X045294Y016864D01*
X045294Y016670D02*
X045360Y016603D01*
X045360Y016470D01*
X044960Y016864D02*
X044960Y017131D01*
X045027Y017324D02*
X044960Y017391D01*
X044960Y017524D01*
X045027Y017591D01*
X045093Y017591D01*
X045160Y017524D01*
X045160Y017458D01*
X045160Y017524D02*
X045227Y017591D01*
X045294Y017591D01*
X045360Y017524D01*
X045360Y017391D01*
X045294Y017324D01*
X045490Y020383D02*
X046910Y020383D01*
X046533Y022023D02*
X046535Y022038D01*
X046541Y022051D01*
X046550Y022063D01*
X046561Y022072D01*
X046575Y022078D01*
X046590Y022080D01*
X046605Y022078D01*
X046618Y022072D01*
X046630Y022063D01*
X046639Y022052D01*
X046645Y022038D01*
X046647Y022023D01*
X046645Y022008D01*
X046639Y021995D01*
X046630Y021983D01*
X046619Y021974D01*
X046605Y021968D01*
X046590Y021966D01*
X046575Y021968D01*
X046562Y021974D01*
X046550Y021983D01*
X046541Y021994D01*
X046535Y022008D01*
X046533Y022023D01*
X046910Y022243D02*
X045490Y022243D01*
X045704Y022825D02*
X045704Y023061D01*
X046176Y023061D02*
X046176Y022825D01*
X046432Y023203D02*
X046365Y023270D01*
X046365Y023403D01*
X046432Y023470D01*
X046432Y023664D02*
X046365Y023730D01*
X046365Y023864D01*
X046432Y023931D01*
X046565Y023931D01*
X046632Y023864D01*
X046632Y023797D01*
X046565Y023664D01*
X046765Y023664D01*
X046765Y023931D01*
X046699Y023470D02*
X046765Y023403D01*
X046765Y023270D01*
X046699Y023203D01*
X046432Y023203D01*
X045220Y023635D02*
X045153Y023568D01*
X045020Y023568D01*
X044953Y023635D01*
X044760Y023568D02*
X044493Y023568D01*
X044626Y023568D02*
X044626Y023969D01*
X044760Y023835D01*
X044953Y023902D02*
X045020Y023969D01*
X045153Y023969D01*
X045220Y023902D01*
X045220Y023635D01*
X044858Y023370D02*
X044622Y023370D01*
X044299Y023635D02*
X044232Y023568D01*
X044099Y023568D01*
X044032Y023635D01*
X044032Y023702D01*
X044099Y023768D01*
X044166Y023768D01*
X044099Y023768D02*
X044032Y023835D01*
X044032Y023902D01*
X044099Y023969D01*
X044232Y023969D01*
X044299Y023902D01*
X044622Y022897D02*
X044858Y022897D01*
X044480Y021588D02*
X044080Y021588D01*
X044080Y021721D02*
X044080Y021454D01*
X044080Y021261D02*
X044080Y020994D01*
X044080Y021127D02*
X044480Y021127D01*
X044347Y020994D01*
X044480Y020800D02*
X044147Y020800D01*
X044080Y020733D01*
X044080Y020600D01*
X044147Y020533D01*
X044480Y020533D01*
X044347Y021454D02*
X044480Y021588D01*
X040761Y025100D02*
X040694Y025033D01*
X040561Y025033D01*
X040494Y025100D01*
X040301Y025033D02*
X040034Y025300D01*
X040034Y025367D01*
X040101Y025434D01*
X040234Y025434D01*
X040301Y025367D01*
X040494Y025367D02*
X040561Y025434D01*
X040694Y025434D01*
X040761Y025367D01*
X040761Y025100D01*
X040301Y025033D02*
X040034Y025033D01*
X039840Y025033D02*
X039574Y025033D01*
X039707Y025033D02*
X039707Y025434D01*
X039840Y025300D01*
X038540Y025473D02*
X038540Y025033D01*
X035131Y025040D02*
X035064Y024973D01*
X034931Y024973D01*
X034864Y025040D01*
X034671Y024973D02*
X034404Y024973D01*
X034537Y024973D02*
X034537Y025374D01*
X034671Y025240D01*
X034864Y025307D02*
X034931Y025374D01*
X035064Y025374D01*
X035131Y025307D01*
X035131Y025040D01*
X034210Y025040D02*
X034144Y024973D01*
X034010Y024973D01*
X033944Y025040D01*
X033944Y025107D01*
X034010Y025173D01*
X034210Y025173D01*
X034210Y025040D01*
X034210Y025173D02*
X034077Y025307D01*
X033944Y025374D01*
X032980Y025493D02*
X032980Y025053D01*
X028581Y023247D02*
X028581Y022980D01*
X028514Y022913D01*
X028381Y022913D01*
X028314Y022980D01*
X028121Y022913D02*
X027854Y022913D01*
X027987Y022913D02*
X027987Y023314D01*
X028121Y023180D01*
X028314Y023247D02*
X028381Y023314D01*
X028514Y023314D01*
X028581Y023247D01*
X028100Y023693D02*
X028100Y024133D01*
X027660Y023314D02*
X027660Y023113D01*
X027527Y023180D01*
X027460Y023180D01*
X027394Y023113D01*
X027394Y022980D01*
X027460Y022913D01*
X027594Y022913D01*
X027660Y022980D01*
X027660Y023314D02*
X027394Y023314D01*
X025344Y029192D02*
X025077Y029192D01*
X025010Y029259D01*
X025010Y029392D01*
X025077Y029459D01*
X025010Y029653D02*
X025010Y029919D01*
X025010Y029786D02*
X025410Y029786D01*
X025277Y029653D01*
X025344Y029459D02*
X025410Y029392D01*
X025410Y029259D01*
X025344Y029192D01*
X026150Y029399D02*
X026150Y029532D01*
X026217Y029599D01*
X026150Y029793D02*
X026150Y030059D01*
X026150Y029926D02*
X026550Y029926D01*
X026417Y029793D01*
X026484Y029599D02*
X026550Y029532D01*
X026550Y029399D01*
X026484Y029332D01*
X026217Y029332D01*
X026150Y029399D01*
X026150Y030253D02*
X026150Y030520D01*
X026150Y030386D02*
X026550Y030386D01*
X026417Y030253D01*
X026920Y030133D02*
X027360Y030133D01*
X025410Y030180D02*
X025410Y030313D01*
X025344Y030380D01*
X025077Y030113D01*
X025010Y030180D01*
X025010Y030313D01*
X025077Y030380D01*
X025344Y030380D01*
X025410Y030180D02*
X025344Y030113D01*
X025077Y030113D01*
X024740Y029933D02*
X024300Y029933D01*
X029375Y031753D02*
X029775Y031753D01*
X029775Y031953D01*
X029709Y032019D01*
X029575Y032019D01*
X029508Y031953D01*
X029508Y031753D01*
X029508Y031886D02*
X029375Y032019D01*
X029375Y032213D02*
X029642Y032480D01*
X029709Y032480D01*
X029775Y032413D01*
X029775Y032280D01*
X029709Y032213D01*
X029375Y032213D02*
X029375Y032480D01*
X029274Y033145D02*
X029274Y033381D01*
X029746Y033381D02*
X029746Y033145D01*
X039835Y033129D02*
X039835Y033263D01*
X039902Y033329D01*
X039902Y033523D02*
X039835Y033590D01*
X039835Y033723D01*
X039902Y033790D01*
X039968Y033790D01*
X040035Y033723D01*
X040035Y033656D01*
X040035Y033723D02*
X040102Y033790D01*
X040169Y033790D01*
X040235Y033723D01*
X040235Y033590D01*
X040169Y033523D01*
X040169Y033329D02*
X040235Y033263D01*
X040235Y033129D01*
X040169Y033063D01*
X039902Y033063D01*
X039835Y033129D01*
X040474Y033445D02*
X040474Y033681D01*
X040946Y033681D02*
X040946Y033445D01*
X041377Y032701D02*
X041443Y032701D01*
X041510Y032634D01*
X041510Y032434D01*
X041377Y032434D01*
X041310Y032501D01*
X041310Y032634D01*
X041377Y032701D01*
X041644Y032568D02*
X041510Y032434D01*
X041644Y032568D02*
X041710Y032701D01*
X041644Y032241D02*
X041710Y032174D01*
X041710Y032040D01*
X041644Y031974D01*
X041644Y031780D02*
X041510Y031780D01*
X041443Y031713D01*
X041443Y031513D01*
X041310Y031513D02*
X041710Y031513D01*
X041710Y031713D01*
X041644Y031780D01*
X041443Y031647D02*
X041310Y031780D01*
X041310Y031974D02*
X041577Y032241D01*
X041644Y032241D01*
X041310Y032241D02*
X041310Y031974D01*
X040946Y031945D02*
X040946Y032181D01*
X040474Y032181D02*
X040474Y031945D01*
X041350Y034453D02*
X041750Y034453D01*
X041750Y034653D01*
X041684Y034720D01*
X041550Y034720D01*
X041483Y034653D01*
X041483Y034453D01*
X041483Y034587D02*
X041350Y034720D01*
X041350Y034914D02*
X041617Y035181D01*
X041684Y035181D01*
X041750Y035114D01*
X041750Y034980D01*
X041684Y034914D01*
X041350Y034914D02*
X041350Y035181D01*
X041550Y035374D02*
X041550Y035641D01*
X041350Y035574D02*
X041750Y035574D01*
X041550Y035374D01*
X040946Y035101D02*
X040946Y034865D01*
X040474Y034865D02*
X040474Y035101D01*
X052245Y036239D02*
X052245Y036372D01*
X052312Y036439D01*
X052245Y036633D02*
X052512Y036899D01*
X052579Y036899D01*
X052645Y036833D01*
X052645Y036699D01*
X052579Y036633D01*
X052579Y036439D02*
X052645Y036372D01*
X052645Y036239D01*
X052579Y036172D01*
X052312Y036172D01*
X052245Y036239D01*
X052245Y036633D02*
X052245Y036899D01*
X052312Y037093D02*
X052579Y037360D01*
X052312Y037360D01*
X052245Y037293D01*
X052245Y037160D01*
X052312Y037093D01*
X052579Y037093D01*
X052645Y037160D01*
X052645Y037293D01*
X052579Y037360D01*
X052784Y037321D02*
X052784Y037085D01*
X053256Y037085D02*
X053256Y037321D01*
X052910Y041502D02*
X052910Y041702D01*
X052844Y041769D01*
X052710Y041769D01*
X052643Y041702D01*
X052643Y041502D01*
X052510Y041502D02*
X052910Y041502D01*
X052643Y041636D02*
X052510Y041769D01*
X052577Y041963D02*
X052510Y042029D01*
X052510Y042163D01*
X052577Y042229D01*
X052643Y042229D01*
X052710Y042163D01*
X052710Y042096D01*
X052710Y042163D02*
X052777Y042229D01*
X052844Y042229D01*
X052910Y042163D01*
X052910Y042029D01*
X052844Y041963D01*
X053194Y042045D02*
X053194Y042281D01*
X052910Y042490D02*
X052844Y042423D01*
X052777Y042423D01*
X052710Y042490D01*
X052710Y042690D01*
X052577Y042690D02*
X052844Y042690D01*
X052910Y042623D01*
X052910Y042490D01*
X052577Y042423D02*
X052510Y042490D01*
X052510Y042623D01*
X052577Y042690D01*
X052642Y043123D02*
X052575Y043189D01*
X052575Y043323D01*
X052642Y043389D01*
X052642Y043583D02*
X052575Y043650D01*
X052575Y043783D01*
X052642Y043850D01*
X052909Y043850D01*
X052975Y043783D01*
X052975Y043650D01*
X052909Y043583D01*
X052842Y043583D01*
X052775Y043650D01*
X052775Y043850D01*
X053174Y043731D02*
X053174Y043495D01*
X052975Y043323D02*
X052975Y043189D01*
X052909Y043123D01*
X052642Y043123D01*
X052909Y043389D02*
X052975Y043323D01*
X053646Y043495D02*
X053646Y043731D01*
X052860Y044472D02*
X052860Y044672D01*
X052794Y044739D01*
X052660Y044739D01*
X052593Y044672D01*
X052593Y044472D01*
X052460Y044472D02*
X052860Y044472D01*
X052593Y044606D02*
X052460Y044739D01*
X052660Y044933D02*
X052660Y045199D01*
X052460Y045133D02*
X052860Y045133D01*
X052660Y044933D01*
X052527Y045393D02*
X052794Y045660D01*
X052527Y045660D01*
X052460Y045593D01*
X052460Y045460D01*
X052527Y045393D01*
X052794Y045393D01*
X052860Y045460D01*
X052860Y045593D01*
X052794Y045660D01*
X053174Y045221D02*
X053174Y044985D01*
X053646Y044985D02*
X053646Y045221D01*
X053666Y042281D02*
X053666Y042045D01*
X052358Y022880D02*
X052122Y022880D01*
X052122Y022407D02*
X052358Y022407D01*
X053060Y021964D02*
X053060Y021831D01*
X053127Y021764D01*
X053260Y021898D02*
X053260Y021964D01*
X053193Y022031D01*
X053127Y022031D01*
X053060Y021964D01*
X053260Y021964D02*
X053327Y022031D01*
X053394Y022031D01*
X053460Y021964D01*
X053460Y021831D01*
X053394Y021764D01*
X053460Y021571D02*
X053394Y021437D01*
X053260Y021304D01*
X053260Y021504D01*
X053193Y021571D01*
X053127Y021571D01*
X053060Y021504D01*
X053060Y021370D01*
X053127Y021304D01*
X053260Y021304D01*
X053260Y021110D02*
X053193Y021043D01*
X053193Y020843D01*
X053060Y020843D02*
X053460Y020843D01*
X053460Y021043D01*
X053394Y021110D01*
X053260Y021110D01*
X053193Y020977D02*
X053060Y021110D01*
X052801Y021335D02*
X052801Y021650D01*
X052801Y021335D02*
X052565Y021335D01*
X051935Y021335D02*
X051699Y021335D01*
X051699Y021650D01*
X051453Y021746D02*
X051453Y021479D01*
X051053Y021479D01*
X051053Y021746D01*
X051253Y021612D02*
X051253Y021479D01*
X051120Y021285D02*
X051053Y021218D01*
X051053Y021085D01*
X051120Y021018D01*
X051387Y021018D01*
X051453Y021085D01*
X051453Y021218D01*
X051387Y021285D01*
X051120Y021285D01*
X051053Y021285D02*
X051187Y021152D01*
X050401Y021047D02*
X050334Y021114D01*
X050201Y021114D01*
X050134Y021047D01*
X050134Y020780D01*
X050201Y020713D01*
X050334Y020713D01*
X050401Y020780D01*
X050401Y021047D01*
X050267Y020847D02*
X050134Y020713D01*
X049940Y020713D02*
X049940Y020780D01*
X049673Y021047D01*
X049673Y021114D01*
X049940Y021114D01*
X050560Y019933D02*
X050560Y018513D01*
X050723Y019613D02*
X050725Y019628D01*
X050731Y019641D01*
X050740Y019653D01*
X050751Y019662D01*
X050765Y019668D01*
X050780Y019670D01*
X050795Y019668D01*
X050808Y019662D01*
X050820Y019653D01*
X050829Y019642D01*
X050835Y019628D01*
X050837Y019613D01*
X050835Y019598D01*
X050829Y019585D01*
X050820Y019573D01*
X050809Y019564D01*
X050795Y019558D01*
X050780Y019556D01*
X050765Y019558D01*
X050752Y019564D01*
X050740Y019573D01*
X050731Y019584D01*
X050725Y019598D01*
X050723Y019613D01*
X052420Y019933D02*
X052420Y018513D01*
X052994Y019835D02*
X052994Y020071D01*
X053466Y020071D02*
X053466Y019835D01*
X051253Y021939D02*
X051253Y022206D01*
X051053Y022139D02*
X051453Y022139D01*
X051253Y021939D01*
X051243Y022523D02*
X051377Y022657D01*
X051310Y022657D02*
X051510Y022657D01*
X051510Y022523D02*
X051510Y022924D01*
X051310Y022924D01*
X051243Y022857D01*
X051243Y022723D01*
X051310Y022657D01*
X051050Y022723D02*
X050849Y022723D01*
X050783Y022657D01*
X050783Y022590D01*
X050849Y022523D01*
X050983Y022523D01*
X051050Y022590D01*
X051050Y022723D01*
X050916Y022857D01*
X050783Y022924D01*
X050589Y022857D02*
X050522Y022924D01*
X050389Y022924D01*
X050322Y022857D01*
X050322Y022790D01*
X050589Y022523D01*
X050322Y022523D01*
X028690Y001520D02*
X028557Y001453D01*
X028423Y001320D01*
X028624Y001320D01*
X028690Y001253D01*
X028690Y001186D01*
X028624Y001119D01*
X028490Y001119D01*
X028423Y001186D01*
X028423Y001320D01*
X028260Y001186D02*
X028260Y001119D01*
X028193Y001119D01*
X028193Y001186D01*
X028260Y001186D01*
X028000Y001186D02*
X027933Y001119D01*
X027799Y001119D01*
X027733Y001186D01*
X027733Y001320D02*
X027866Y001386D01*
X027933Y001386D01*
X028000Y001320D01*
X028000Y001186D01*
X027733Y001320D02*
X027733Y001520D01*
X028000Y001520D01*
X015159Y023323D02*
X015226Y023390D01*
X015226Y023657D01*
X015159Y023724D01*
X015026Y023724D01*
X014959Y023657D01*
X014959Y023390D01*
X015026Y023323D01*
X015159Y023323D01*
X015093Y023457D02*
X014959Y023323D01*
X014766Y023323D02*
X014499Y023323D01*
X014632Y023323D02*
X014632Y023724D01*
X014766Y023590D01*
X014305Y023657D02*
X014239Y023724D01*
X014105Y023724D01*
X014039Y023657D01*
X014305Y023390D01*
X014239Y023323D01*
X014105Y023323D01*
X014039Y023390D01*
X014039Y023657D01*
X014305Y023657D02*
X014305Y023390D01*
X014535Y024238D02*
X014771Y024238D01*
X014771Y024553D01*
X015049Y024108D02*
X015226Y024108D01*
X015049Y024108D02*
X015049Y025919D01*
X015226Y025919D01*
X015226Y025407D02*
X016014Y025407D01*
X016014Y025919D02*
X016191Y025919D01*
X016191Y024108D01*
X016014Y024108D01*
X016380Y024283D02*
X016380Y024483D01*
X016447Y024550D01*
X016714Y024550D01*
X016780Y024483D01*
X016780Y024283D01*
X016380Y024283D01*
X016380Y024744D02*
X016380Y025011D01*
X016380Y024877D02*
X016780Y024877D01*
X016647Y024744D01*
X014338Y025277D02*
X014102Y025277D01*
X014102Y025750D02*
X014338Y025750D01*
X014096Y026495D02*
X014096Y026731D01*
X013624Y026731D02*
X013624Y026495D01*
X013410Y026609D02*
X013410Y026208D01*
X013410Y026342D02*
X013210Y026342D01*
X013143Y026408D01*
X013143Y026542D01*
X013210Y026609D01*
X013410Y026609D01*
X013277Y026342D02*
X013143Y026208D01*
X012950Y026275D02*
X012883Y026208D01*
X012749Y026208D01*
X012683Y026275D01*
X012683Y026342D01*
X012749Y026408D01*
X012816Y026408D01*
X012749Y026408D02*
X012683Y026475D01*
X012683Y026542D01*
X012749Y026609D01*
X012883Y026609D01*
X012950Y026542D01*
X012904Y026983D02*
X012971Y027050D01*
X012904Y026983D02*
X012771Y026983D01*
X012704Y027050D01*
X012704Y027117D01*
X012771Y027183D01*
X012837Y027183D01*
X012771Y027183D02*
X012704Y027250D01*
X012704Y027317D01*
X012771Y027384D01*
X012904Y027384D01*
X012971Y027317D01*
X013164Y027317D02*
X013164Y027183D01*
X013231Y027117D01*
X013431Y027117D01*
X013298Y027117D02*
X013164Y026983D01*
X013431Y026983D02*
X013431Y027384D01*
X013231Y027384D01*
X013164Y027317D01*
X013281Y027562D02*
X013596Y027562D01*
X013596Y027798D01*
X014170Y027885D02*
X014237Y027818D01*
X014504Y027818D01*
X014570Y027885D01*
X014570Y028018D01*
X014504Y028085D01*
X014237Y028085D01*
X014170Y028018D01*
X014170Y027885D01*
X014303Y027952D02*
X014170Y028085D01*
X014237Y028279D02*
X014170Y028345D01*
X014170Y028479D01*
X014237Y028546D01*
X014303Y028546D01*
X014370Y028479D01*
X014370Y028279D01*
X014237Y028279D01*
X014370Y028279D02*
X014504Y028412D01*
X014570Y028546D01*
X014526Y029020D02*
X014526Y029807D01*
X014014Y029807D02*
X014014Y029984D01*
X015826Y029984D01*
X015826Y029807D01*
X015826Y030442D02*
X015826Y030620D01*
X015826Y030442D02*
X014014Y030442D01*
X014014Y030620D01*
X014526Y030620D02*
X014526Y031407D01*
X014588Y031823D02*
X014722Y031957D01*
X014855Y031890D02*
X014788Y031823D01*
X014655Y031823D01*
X014588Y031890D01*
X014588Y032157D01*
X014655Y032224D01*
X014788Y032224D01*
X014855Y032157D01*
X014855Y031890D01*
X015273Y031870D02*
X015339Y031803D01*
X015473Y031803D01*
X015540Y031870D01*
X015540Y032003D02*
X015406Y032070D01*
X015339Y032070D01*
X015273Y032003D01*
X015273Y031870D01*
X015540Y032003D02*
X015540Y032204D01*
X015273Y032204D01*
X015733Y032137D02*
X015800Y032204D01*
X016000Y032204D01*
X016000Y031803D01*
X015800Y031803D01*
X015733Y031870D01*
X015733Y032137D01*
X015826Y031584D02*
X015826Y031407D01*
X015826Y031584D02*
X014014Y031584D01*
X014014Y031407D01*
X013596Y031562D02*
X013281Y031562D01*
X013350Y031404D02*
X013150Y031404D01*
X013083Y031337D01*
X013083Y031203D01*
X013150Y031137D01*
X013350Y031137D01*
X013217Y031137D02*
X013083Y031003D01*
X012890Y031070D02*
X012823Y031003D01*
X012689Y031003D01*
X012623Y031070D01*
X012623Y031137D01*
X012689Y031203D01*
X012756Y031203D01*
X012689Y031203D02*
X012623Y031270D01*
X012623Y031337D01*
X012689Y031404D01*
X012823Y031404D01*
X012890Y031337D01*
X013350Y031404D02*
X013350Y031003D01*
X013596Y031562D02*
X013596Y031798D01*
X014128Y032023D02*
X014395Y032023D01*
X014194Y032224D01*
X014194Y031823D01*
X013596Y032428D02*
X013596Y032664D01*
X013281Y032664D01*
X013281Y033062D02*
X013596Y033062D01*
X013596Y033298D01*
X013596Y033928D02*
X013596Y034164D01*
X013281Y034164D01*
X014014Y034220D02*
X014014Y034042D01*
X015826Y034042D01*
X015826Y034220D01*
X015870Y033804D02*
X015670Y033804D01*
X015603Y033737D01*
X015603Y033470D01*
X015670Y033403D01*
X015870Y033403D01*
X015870Y033804D01*
X015410Y033737D02*
X015410Y033670D01*
X015343Y033603D01*
X015209Y033603D01*
X015143Y033537D01*
X015143Y033470D01*
X015209Y033403D01*
X015343Y033403D01*
X015410Y033470D01*
X015410Y033537D01*
X015343Y033603D01*
X015209Y033603D02*
X015143Y033670D01*
X015143Y033737D01*
X015209Y033804D01*
X015343Y033804D01*
X015410Y033737D01*
X014640Y033685D02*
X014640Y033818D01*
X014574Y033885D01*
X014507Y033885D01*
X014440Y033818D01*
X014373Y033885D01*
X014307Y033885D01*
X014240Y033818D01*
X014240Y033685D01*
X014307Y033618D01*
X014440Y033751D02*
X014440Y033818D01*
X014574Y033618D02*
X014640Y033685D01*
X014640Y033291D02*
X014240Y033291D01*
X014240Y033158D02*
X014240Y033424D01*
X014507Y033158D02*
X014640Y033291D01*
X014574Y032964D02*
X014307Y032964D01*
X014240Y032897D01*
X014240Y032764D01*
X014307Y032697D01*
X014574Y032697D01*
X014640Y032764D01*
X014640Y032897D01*
X014574Y032964D01*
X014373Y032831D02*
X014240Y032964D01*
X014526Y034220D02*
X014526Y035007D01*
X014014Y035007D02*
X014014Y035184D01*
X015826Y035184D01*
X015826Y035007D01*
X015826Y035642D02*
X015826Y035820D01*
X015826Y035642D02*
X014014Y035642D01*
X014014Y035820D01*
X014526Y035820D02*
X014526Y036607D01*
X014504Y036967D02*
X014570Y037034D01*
X014570Y037167D01*
X014504Y037234D01*
X014237Y037234D01*
X014170Y037167D01*
X014170Y037034D01*
X014237Y036967D01*
X014504Y036967D01*
X014303Y037101D02*
X014170Y037234D01*
X014170Y037428D02*
X014170Y037694D01*
X014170Y037561D02*
X014570Y037561D01*
X014437Y037428D01*
X014504Y037888D02*
X014570Y037955D01*
X014570Y038088D01*
X014504Y038155D01*
X014437Y038155D01*
X014170Y037888D01*
X014170Y038155D01*
X013651Y038192D02*
X013451Y038192D01*
X013384Y038258D01*
X013384Y038392D01*
X013451Y038459D01*
X013651Y038459D01*
X013651Y038058D01*
X013518Y038192D02*
X013384Y038058D01*
X013191Y038058D02*
X012924Y038325D01*
X012924Y038392D01*
X012991Y038459D01*
X013124Y038459D01*
X013191Y038392D01*
X013191Y038058D02*
X012924Y038058D01*
X012730Y038125D02*
X012664Y038058D01*
X012530Y038058D01*
X012464Y038125D01*
X012464Y038392D01*
X012530Y038459D01*
X012664Y038459D01*
X012730Y038392D01*
X012730Y038325D01*
X012664Y038258D01*
X012464Y038258D01*
X012556Y037431D02*
X012556Y037195D01*
X012084Y037195D02*
X012084Y037431D01*
X012123Y036629D02*
X011989Y036629D01*
X011923Y036562D01*
X011923Y036495D01*
X011989Y036428D01*
X011923Y036362D01*
X011923Y036295D01*
X011989Y036228D01*
X012123Y036228D01*
X012190Y036295D01*
X012056Y036428D02*
X011989Y036428D01*
X012190Y036562D02*
X012123Y036629D01*
X012383Y036562D02*
X012383Y036428D01*
X012450Y036362D01*
X012650Y036362D01*
X012517Y036362D02*
X012383Y036228D01*
X012650Y036228D02*
X012650Y036629D01*
X012450Y036629D01*
X012383Y036562D01*
X012138Y036050D02*
X011902Y036050D01*
X011529Y036228D02*
X011529Y036629D01*
X011729Y036428D01*
X011462Y036428D01*
X011902Y035577D02*
X012138Y035577D01*
X012138Y035350D02*
X011902Y035350D01*
X011902Y034877D02*
X012138Y034877D01*
X011935Y034351D02*
X011869Y034218D01*
X011735Y034084D01*
X011735Y034284D01*
X011668Y034351D01*
X011602Y034351D01*
X011535Y034284D01*
X011535Y034151D01*
X011602Y034084D01*
X011735Y034084D01*
X011668Y033891D02*
X011602Y033891D01*
X011535Y033824D01*
X011535Y033690D01*
X011602Y033624D01*
X011735Y033757D02*
X011735Y033824D01*
X011668Y033891D01*
X011735Y033824D02*
X011802Y033891D01*
X011869Y033891D01*
X011935Y033824D01*
X011935Y033690D01*
X011869Y033624D01*
X011869Y033430D02*
X011735Y033430D01*
X011668Y033363D01*
X011668Y033163D01*
X011535Y033163D02*
X011935Y033163D01*
X011935Y033363D01*
X011869Y033430D01*
X012084Y033495D02*
X012084Y033731D01*
X012556Y033731D02*
X012556Y033495D01*
X011668Y033297D02*
X011535Y033430D01*
X012084Y032231D02*
X012084Y031995D01*
X012556Y031995D02*
X012556Y032231D01*
X012296Y031404D02*
X012296Y031003D01*
X012429Y031003D02*
X012162Y031003D01*
X011956Y030831D02*
X011956Y030595D01*
X011484Y030595D02*
X011484Y030831D01*
X011310Y030862D02*
X011110Y030862D01*
X011043Y030928D01*
X011043Y031062D01*
X011110Y031129D01*
X011310Y031129D01*
X011310Y030728D01*
X011177Y030862D02*
X011043Y030728D01*
X010850Y030795D02*
X010783Y030728D01*
X010649Y030728D01*
X010583Y030795D01*
X010583Y030862D01*
X010649Y030928D01*
X010716Y030928D01*
X010649Y030928D02*
X010583Y030995D01*
X010583Y031062D01*
X010649Y031129D01*
X010783Y031129D01*
X010850Y031062D01*
X010389Y031062D02*
X010322Y031129D01*
X010189Y031129D01*
X010122Y031062D01*
X010122Y030995D01*
X010389Y030728D01*
X010122Y030728D01*
X011484Y029631D02*
X011484Y029395D01*
X011956Y029395D02*
X011956Y029631D01*
X011764Y028811D02*
X011697Y028811D01*
X011630Y028744D01*
X011630Y028611D01*
X011697Y028544D01*
X011764Y028544D01*
X011830Y028611D01*
X011830Y028744D01*
X011764Y028811D01*
X011630Y028744D02*
X011563Y028811D01*
X011497Y028811D01*
X011430Y028744D01*
X011430Y028611D01*
X011497Y028544D01*
X011563Y028544D01*
X011630Y028611D01*
X011563Y028351D02*
X011497Y028351D01*
X011430Y028284D01*
X011430Y028150D01*
X011497Y028084D01*
X011630Y028217D02*
X011630Y028284D01*
X011563Y028351D01*
X011630Y028284D02*
X011697Y028351D01*
X011764Y028351D01*
X011830Y028284D01*
X011830Y028150D01*
X011764Y028084D01*
X011764Y027890D02*
X011630Y027890D01*
X011563Y027823D01*
X011563Y027623D01*
X011430Y027623D02*
X011830Y027623D01*
X011830Y027823D01*
X011764Y027890D01*
X011563Y027757D02*
X011430Y027890D01*
X012084Y027995D02*
X012084Y028231D01*
X012556Y028231D02*
X012556Y027995D01*
X012510Y027384D02*
X012510Y027183D01*
X012377Y027250D01*
X012310Y027250D01*
X012244Y027183D01*
X012244Y027050D01*
X012310Y026983D01*
X012444Y026983D01*
X012510Y027050D01*
X012510Y027384D02*
X012244Y027384D01*
X012289Y026609D02*
X012222Y026542D01*
X012222Y026475D01*
X012289Y026408D01*
X012222Y026342D01*
X012222Y026275D01*
X012289Y026208D01*
X012422Y026208D01*
X012489Y026275D01*
X012356Y026408D02*
X012289Y026408D01*
X012289Y026609D02*
X012422Y026609D01*
X012489Y026542D01*
X012442Y025769D02*
X012309Y025769D01*
X012242Y025702D01*
X012509Y025435D01*
X012442Y025368D01*
X012309Y025368D01*
X012242Y025435D01*
X012242Y025702D01*
X012442Y025769D02*
X012509Y025702D01*
X012509Y025435D01*
X012703Y025435D02*
X012769Y025368D01*
X012903Y025368D01*
X012970Y025435D01*
X012836Y025568D02*
X012769Y025568D01*
X012703Y025502D01*
X012703Y025435D01*
X012769Y025568D02*
X012703Y025635D01*
X012703Y025702D01*
X012769Y025769D01*
X012903Y025769D01*
X012970Y025702D01*
X013163Y025702D02*
X013163Y025568D01*
X013230Y025502D01*
X013430Y025502D01*
X013297Y025502D02*
X013163Y025368D01*
X013430Y025368D02*
X013430Y025769D01*
X013230Y025769D01*
X013163Y025702D01*
X013100Y025043D02*
X011400Y025043D01*
X011383Y025041D01*
X011366Y025037D01*
X011350Y025030D01*
X011336Y025020D01*
X011323Y025007D01*
X011313Y024993D01*
X011306Y024977D01*
X011302Y024960D01*
X011300Y024943D01*
X011300Y024343D01*
X011302Y024326D01*
X011306Y024309D01*
X011313Y024293D01*
X011323Y024279D01*
X011336Y024266D01*
X011350Y024256D01*
X011366Y024249D01*
X011383Y024245D01*
X011400Y024243D01*
X013100Y024243D01*
X013117Y024245D01*
X013134Y024249D01*
X013150Y024256D01*
X013164Y024266D01*
X013177Y024279D01*
X013187Y024293D01*
X013194Y024309D01*
X013198Y024326D01*
X013200Y024343D01*
X013200Y024943D01*
X013198Y024960D01*
X013194Y024977D01*
X013187Y024993D01*
X013177Y025007D01*
X013164Y025020D01*
X013150Y025030D01*
X013134Y025037D01*
X013117Y025041D01*
X013100Y025043D01*
X013669Y024553D02*
X013669Y024238D01*
X013905Y024238D01*
X011111Y024460D02*
X011044Y024393D01*
X010911Y024393D01*
X010844Y024460D01*
X010844Y024527D01*
X010911Y024593D01*
X011044Y024593D01*
X011111Y024660D01*
X011111Y024727D01*
X011044Y024794D01*
X010911Y024794D01*
X010844Y024727D01*
X010651Y024460D02*
X010584Y024393D01*
X010517Y024393D01*
X010451Y024460D01*
X010451Y024794D01*
X010517Y024794D02*
X010384Y024794D01*
X010190Y024660D02*
X010057Y024794D01*
X010057Y024393D01*
X010190Y024393D02*
X009924Y024393D01*
X013596Y028428D02*
X013596Y028664D01*
X013281Y028664D01*
X014014Y028842D02*
X015826Y028842D01*
X015826Y029020D01*
X015891Y028664D02*
X015691Y028664D01*
X015624Y028597D01*
X015624Y028330D01*
X015691Y028263D01*
X015891Y028263D01*
X015891Y028664D01*
X015430Y028664D02*
X015163Y028664D01*
X015163Y028597D01*
X015430Y028330D01*
X015430Y028263D01*
X014014Y028842D02*
X014014Y029020D01*
X012429Y031270D02*
X012296Y031404D01*
X012815Y035003D02*
X013215Y035003D01*
X013215Y035203D01*
X013149Y035270D01*
X013015Y035270D01*
X012948Y035203D01*
X012948Y035003D01*
X012948Y035137D02*
X012815Y035270D01*
X012882Y035464D02*
X012815Y035530D01*
X012815Y035664D01*
X012882Y035731D01*
X012948Y035731D01*
X013015Y035664D01*
X013015Y035597D01*
X013015Y035664D02*
X013082Y035731D01*
X013149Y035731D01*
X013215Y035664D01*
X013215Y035530D01*
X013149Y035464D01*
X013215Y035924D02*
X013215Y036191D01*
X013149Y036191D01*
X012882Y035924D01*
X012815Y035924D01*
X013281Y036762D02*
X013596Y036762D01*
X013596Y036998D01*
X014014Y036784D02*
X014014Y036607D01*
X014014Y036784D02*
X015826Y036784D01*
X015826Y036607D01*
X015800Y037013D02*
X015800Y037414D01*
X015600Y037414D01*
X015533Y037347D01*
X015533Y037080D01*
X015600Y037013D01*
X015800Y037013D01*
X015340Y037080D02*
X015273Y037013D01*
X015139Y037013D01*
X015073Y037080D01*
X015073Y037147D01*
X015139Y037213D01*
X015340Y037213D01*
X015340Y037080D01*
X015340Y037213D02*
X015206Y037347D01*
X015073Y037414D01*
X013596Y037628D02*
X013596Y037864D01*
X013281Y037864D01*
X011060Y045933D02*
X010560Y045933D01*
X010560Y046533D02*
X011060Y046533D01*
X010833Y046783D02*
X010900Y046850D01*
X010833Y046783D02*
X010699Y046783D01*
X010633Y046850D01*
X010633Y046917D01*
X010699Y046983D01*
X010766Y046983D01*
X010699Y046983D02*
X010633Y047050D01*
X010633Y047117D01*
X010699Y047184D01*
X010833Y047184D01*
X010900Y047117D01*
X011093Y047184D02*
X011360Y047184D01*
X011360Y046783D01*
X011360Y046983D02*
X011227Y046983D01*
X011040Y053833D02*
X010540Y053833D01*
X010540Y054433D02*
X011040Y054433D01*
X010880Y054683D02*
X010613Y054950D01*
X010613Y055017D01*
X010679Y055084D01*
X010813Y055084D01*
X010880Y055017D01*
X011073Y055084D02*
X011340Y055084D01*
X011340Y054683D01*
X011340Y054883D02*
X011207Y054883D01*
X010880Y054683D02*
X010613Y054683D01*
D13*
X052550Y054633D03*
D14*
X052535Y054663D03*
D15*
X052535Y054693D03*
D16*
X053240Y054723D03*
D17*
X051845Y054723D03*
D18*
X051875Y055623D03*
X053705Y055683D03*
X053585Y054753D03*
X054155Y063243D03*
D19*
X053195Y060483D03*
X051515Y054753D03*
D20*
X051305Y054783D03*
X053825Y054783D03*
X054065Y055743D03*
X053945Y056403D03*
X052325Y060573D03*
X052655Y063513D03*
D21*
X050690Y063123D03*
X048710Y060903D03*
X051440Y058713D03*
X051620Y055653D03*
X054020Y054813D03*
X054200Y055773D03*
X055010Y062913D03*
D22*
X054980Y062943D03*
X052010Y063513D03*
X049550Y057993D03*
X050870Y056493D03*
X051440Y055683D03*
X051110Y054813D03*
X054200Y054843D03*
D23*
X054365Y054873D03*
X054455Y055833D03*
X051275Y055713D03*
X050945Y054843D03*
X049235Y058053D03*
X050615Y061773D03*
X051095Y061983D03*
X049475Y062223D03*
X053285Y060453D03*
D24*
X053225Y062613D03*
X051605Y062373D03*
X050975Y055773D03*
X051125Y055743D03*
X050795Y054873D03*
X054515Y054903D03*
X054575Y055863D03*
D25*
X054680Y055893D03*
X055310Y056133D03*
X054650Y054933D03*
X053930Y056373D03*
X050900Y056463D03*
X050720Y055833D03*
X050840Y055803D03*
X050600Y055863D03*
X050660Y054903D03*
X049340Y056283D03*
X049160Y057393D03*
X049040Y057423D03*
X048920Y057453D03*
X048950Y058113D03*
X050360Y059193D03*
X050750Y059133D03*
X050660Y061803D03*
X051140Y062043D03*
X049520Y062283D03*
X053840Y060483D03*
X054290Y062043D03*
D26*
X054275Y062073D03*
X054185Y063303D03*
X050705Y063153D03*
X049385Y061413D03*
X048695Y060933D03*
X051485Y058683D03*
X049295Y057363D03*
X048785Y057483D03*
X050375Y055923D03*
X050405Y054963D03*
X050525Y054933D03*
X054785Y054963D03*
X054755Y055923D03*
D27*
X054890Y054993D03*
X055070Y057573D03*
X055160Y059283D03*
X054620Y061833D03*
X053810Y062253D03*
X053210Y062643D03*
X052040Y063543D03*
X049880Y060963D03*
X048830Y058143D03*
X048680Y057513D03*
X049520Y057303D03*
X049640Y057963D03*
X049340Y056313D03*
X050270Y055953D03*
X050480Y055893D03*
X050300Y054993D03*
D28*
X050195Y055023D03*
X050075Y055053D03*
X050165Y055983D03*
X050075Y056013D03*
X049985Y056043D03*
X048575Y057543D03*
X050015Y059463D03*
X050015Y059493D03*
X050015Y059523D03*
X050735Y059103D03*
X052355Y060513D03*
X053015Y060513D03*
X054335Y060363D03*
X054365Y060333D03*
X054395Y060303D03*
X054605Y061863D03*
X055565Y062643D03*
X055595Y062613D03*
X053855Y063213D03*
X051725Y063453D03*
X051035Y063063D03*
X050105Y062853D03*
X049415Y061383D03*
X048995Y061593D03*
X048485Y061713D03*
X049895Y060933D03*
X055055Y057543D03*
X055295Y056163D03*
X054845Y055953D03*
X054995Y055023D03*
D29*
X055100Y055053D03*
X054920Y055983D03*
X054980Y056013D03*
X054260Y056463D03*
X055040Y057513D03*
X055130Y059253D03*
X054050Y060513D03*
X053840Y060453D03*
X054590Y061893D03*
X053780Y062283D03*
X054470Y063213D03*
X055550Y062673D03*
X052880Y063483D03*
X052640Y063573D03*
X051830Y062313D03*
X050720Y061833D03*
X049430Y061353D03*
X048020Y061593D03*
X050960Y059163D03*
X051740Y058743D03*
X050570Y056553D03*
X049880Y056073D03*
X049820Y056103D03*
X049970Y055083D03*
X048470Y057573D03*
D30*
X048725Y058173D03*
X050315Y059163D03*
X049835Y060423D03*
X050465Y061743D03*
X050135Y062883D03*
X050405Y063063D03*
X051635Y063423D03*
X053555Y060543D03*
X051995Y056433D03*
X049895Y055113D03*
X049805Y055143D03*
X049745Y056133D03*
X049355Y056343D03*
X048395Y060843D03*
X055055Y056043D03*
X055175Y055083D03*
D31*
X055250Y055113D03*
X055100Y056073D03*
X055160Y056103D03*
X055280Y056193D03*
X054350Y056493D03*
X052730Y056433D03*
X052550Y055503D03*
X050480Y056583D03*
X049670Y056163D03*
X049610Y056193D03*
X049730Y055173D03*
X049580Y057273D03*
X048380Y057603D03*
X050720Y059073D03*
X051470Y058653D03*
X051770Y058773D03*
X053420Y060513D03*
X052730Y060663D03*
X053750Y062313D03*
X053210Y062673D03*
X053480Y063063D03*
X053750Y063183D03*
X054560Y061923D03*
X051590Y062403D03*
X051080Y063033D03*
X050150Y062913D03*
X049910Y060903D03*
X049010Y060843D03*
D32*
X049085Y060813D03*
X049055Y061563D03*
X048305Y060813D03*
X047945Y061563D03*
X049865Y060393D03*
X049985Y060183D03*
X051005Y059193D03*
X051245Y058743D03*
X052145Y060603D03*
X053225Y060423D03*
X053555Y060573D03*
X054095Y060543D03*
X055085Y059223D03*
X055265Y059313D03*
X054575Y059163D03*
X054425Y056523D03*
X055325Y055143D03*
X055445Y055203D03*
X050405Y056613D03*
X050345Y056643D03*
X049565Y056223D03*
X049505Y056253D03*
X049595Y055233D03*
X049655Y055203D03*
X048305Y057633D03*
X048575Y058233D03*
X048635Y058203D03*
X051905Y062283D03*
X051485Y063363D03*
X051545Y063393D03*
X052295Y063453D03*
X052985Y063453D03*
X053675Y063153D03*
X053405Y062583D03*
X054905Y061683D03*
X054935Y061653D03*
X055505Y062703D03*
D33*
X055250Y062883D03*
X054560Y063183D03*
X053480Y063033D03*
X053060Y063423D03*
X051980Y062253D03*
X051410Y062313D03*
X052730Y060693D03*
X052580Y060603D03*
X052940Y060543D03*
X053690Y060513D03*
X054110Y060573D03*
X054500Y059403D03*
X054560Y059193D03*
X055130Y057963D03*
X055460Y056103D03*
X055400Y055173D03*
X051920Y056463D03*
X050270Y056673D03*
X049550Y055263D03*
X049490Y055293D03*
X048260Y057663D03*
X048200Y057693D03*
X048140Y057723D03*
X050300Y059133D03*
X050480Y059223D03*
X051020Y059223D03*
X051800Y058803D03*
X051770Y059793D03*
X051770Y059823D03*
X051770Y059853D03*
X050000Y060213D03*
X050000Y060243D03*
X049970Y060153D03*
X049550Y060573D03*
X049490Y060603D03*
X049400Y060663D03*
X049340Y060693D03*
X049280Y060723D03*
X049220Y060753D03*
X049160Y060783D03*
X048260Y060783D03*
X048200Y060753D03*
X047870Y061533D03*
X054200Y062013D03*
X055730Y060933D03*
D34*
X055745Y060963D03*
X055775Y061833D03*
X055805Y061863D03*
X054995Y061623D03*
X054875Y061713D03*
X054335Y062103D03*
X053945Y062223D03*
X053465Y062553D03*
X053465Y063003D03*
X053615Y063123D03*
X053105Y063393D03*
X054605Y063153D03*
X054995Y063003D03*
X055325Y062853D03*
X052715Y060723D03*
X052895Y060573D03*
X053555Y060603D03*
X053825Y060423D03*
X054485Y059763D03*
X054545Y059223D03*
X055085Y057993D03*
X055175Y057933D03*
X054845Y057813D03*
X054815Y057843D03*
X054575Y056613D03*
X054545Y056583D03*
X054485Y056553D03*
X053645Y056463D03*
X052805Y056463D03*
X050225Y056703D03*
X050135Y056763D03*
X049175Y056253D03*
X049355Y055383D03*
X049445Y055323D03*
X048095Y057753D03*
X048035Y057783D03*
X048005Y057813D03*
X047915Y057873D03*
X047735Y058023D03*
X048425Y058323D03*
X048485Y058293D03*
X048515Y058263D03*
X050075Y059433D03*
X049955Y060093D03*
X049955Y060123D03*
X049985Y060273D03*
X049925Y060333D03*
X049895Y060363D03*
X049745Y060453D03*
X049685Y060483D03*
X049655Y060513D03*
X049595Y060543D03*
X049445Y060633D03*
X049955Y060873D03*
X049235Y061443D03*
X049115Y061533D03*
X050375Y061713D03*
X049985Y062823D03*
X050195Y062943D03*
X050315Y063033D03*
X051095Y063003D03*
X051335Y063273D03*
X051365Y063303D03*
X051425Y063333D03*
X052025Y062223D03*
X051785Y059883D03*
X051785Y059763D03*
X051215Y058773D03*
X048155Y060723D03*
X047735Y061443D03*
X047765Y061473D03*
X047825Y061503D03*
X055505Y055233D03*
D35*
X055550Y055263D03*
X055580Y055293D03*
X055550Y056043D03*
X055520Y056073D03*
X054950Y057603D03*
X054860Y057783D03*
X055070Y058023D03*
X055220Y057903D03*
X054680Y058893D03*
X054530Y059253D03*
X054530Y059343D03*
X054530Y059373D03*
X054470Y059433D03*
X054500Y059733D03*
X054470Y059793D03*
X054140Y060603D03*
X053570Y060633D03*
X052850Y060603D03*
X052820Y060633D03*
X052730Y060753D03*
X051890Y059973D03*
X051860Y059943D03*
X051830Y059913D03*
X051890Y059643D03*
X051890Y058893D03*
X051860Y058863D03*
X051830Y058833D03*
X051200Y058803D03*
X051050Y059253D03*
X050570Y059163D03*
X050480Y059253D03*
X050180Y059223D03*
X049910Y059553D03*
X049910Y059583D03*
X049940Y060003D03*
X049940Y060033D03*
X049940Y060063D03*
X049970Y060303D03*
X050300Y060813D03*
X050270Y060843D03*
X050270Y060873D03*
X050030Y060993D03*
X049730Y060993D03*
X049700Y061023D03*
X049670Y061053D03*
X049640Y061083D03*
X049520Y061443D03*
X049190Y061473D03*
X049280Y062193D03*
X049670Y062193D03*
X049880Y062733D03*
X049910Y062763D03*
X049940Y062793D03*
X050270Y063003D03*
X051230Y063183D03*
X051260Y063213D03*
X051290Y063243D03*
X051350Y062283D03*
X050900Y061953D03*
X050330Y061683D03*
X052070Y062193D03*
X052100Y062163D03*
X053030Y062583D03*
X053510Y062523D03*
X053540Y062493D03*
X053570Y062463D03*
X053990Y062193D03*
X054020Y062163D03*
X053450Y062973D03*
X053570Y063093D03*
X053330Y063183D03*
X053210Y063303D03*
X053180Y063333D03*
X053150Y063363D03*
X054650Y063123D03*
X054680Y063093D03*
X054770Y062883D03*
X055370Y062823D03*
X055730Y062583D03*
X055760Y062553D03*
X055760Y061803D03*
X055130Y061503D03*
X055040Y061593D03*
X055700Y060903D03*
X055640Y060273D03*
X055610Y060243D03*
X055460Y059463D03*
X055370Y059373D03*
X055340Y059343D03*
X052850Y056493D03*
X052370Y056313D03*
X051860Y056493D03*
X051830Y056523D03*
X050180Y056733D03*
X050090Y056793D03*
X049640Y057243D03*
X049760Y057933D03*
X048380Y058353D03*
X048350Y058383D03*
X048320Y058413D03*
X048290Y058443D03*
X047810Y057963D03*
X047840Y057933D03*
X047870Y057903D03*
X047960Y057843D03*
X047780Y057993D03*
X047690Y058053D03*
X047660Y058083D03*
X047480Y058293D03*
X048080Y060663D03*
X048110Y060693D03*
X047600Y061323D03*
X047630Y061353D03*
X047660Y061383D03*
X047690Y061413D03*
X049250Y055473D03*
X049280Y055443D03*
X049310Y055413D03*
X049400Y055353D03*
D36*
X049235Y055503D03*
X049205Y055533D03*
X049175Y055563D03*
X049175Y055593D03*
X049145Y055623D03*
X049115Y055683D03*
X049085Y055743D03*
X049085Y055773D03*
X049055Y055893D03*
X049055Y055923D03*
X049055Y055953D03*
X049055Y055983D03*
X049055Y056013D03*
X049085Y056133D03*
X049115Y056193D03*
X049145Y056223D03*
X049415Y056373D03*
X049445Y056463D03*
X049445Y056493D03*
X049475Y056553D03*
X049475Y056583D03*
X049505Y056673D03*
X049535Y056763D03*
X049535Y056793D03*
X049565Y056883D03*
X049565Y056913D03*
X049595Y057003D03*
X049595Y057033D03*
X049625Y057123D03*
X049625Y057153D03*
X049685Y057393D03*
X049685Y057423D03*
X049715Y057543D03*
X049715Y057573D03*
X049715Y057603D03*
X049745Y057693D03*
X049745Y057723D03*
X049745Y057753D03*
X049745Y057783D03*
X049745Y057813D03*
X049775Y057873D03*
X049775Y057903D03*
X049805Y058233D03*
X049805Y058263D03*
X049805Y058293D03*
X049805Y058323D03*
X049805Y058353D03*
X049835Y058653D03*
X049835Y058683D03*
X049835Y058713D03*
X049835Y058743D03*
X049835Y058773D03*
X049865Y059103D03*
X049865Y059133D03*
X049865Y059163D03*
X049865Y059193D03*
X049865Y059223D03*
X050135Y059283D03*
X050135Y059313D03*
X050165Y059253D03*
X050105Y059403D03*
X049895Y059613D03*
X049895Y059643D03*
X049895Y059673D03*
X049895Y059703D03*
X049925Y059883D03*
X049925Y059913D03*
X049925Y059943D03*
X049925Y059973D03*
X049925Y060453D03*
X049925Y060633D03*
X049925Y060663D03*
X049925Y060693D03*
X049955Y060813D03*
X049955Y060843D03*
X050225Y060903D03*
X050225Y061113D03*
X050255Y061173D03*
X050255Y061203D03*
X050285Y061233D03*
X050315Y061263D03*
X050285Y061323D03*
X050255Y061383D03*
X050225Y061503D03*
X050255Y061593D03*
X050255Y061623D03*
X050285Y061653D03*
X050855Y061923D03*
X051305Y061953D03*
X051305Y062073D03*
X051305Y062193D03*
X051305Y062223D03*
X051335Y062253D03*
X051155Y062943D03*
X051125Y062973D03*
X051185Y063123D03*
X051215Y063153D03*
X050255Y062973D03*
X049865Y062703D03*
X049835Y062673D03*
X049805Y062643D03*
X049805Y062613D03*
X049775Y062583D03*
X049775Y062553D03*
X049745Y062523D03*
X049745Y062493D03*
X049715Y062403D03*
X049235Y062163D03*
X049235Y062133D03*
X049205Y062103D03*
X049205Y062073D03*
X049175Y062043D03*
X049145Y061983D03*
X049145Y061953D03*
X049115Y061893D03*
X049115Y061863D03*
X049175Y061503D03*
X049535Y061473D03*
X049535Y061323D03*
X049565Y061263D03*
X049565Y061233D03*
X049595Y061173D03*
X049625Y061113D03*
X048035Y060633D03*
X048005Y060603D03*
X048005Y060573D03*
X047975Y060543D03*
X047945Y060483D03*
X047915Y060423D03*
X047885Y060333D03*
X047885Y060303D03*
X047855Y060213D03*
X047855Y060183D03*
X047825Y060063D03*
X047825Y060033D03*
X047825Y060003D03*
X047795Y059703D03*
X047795Y059673D03*
X047795Y059643D03*
X047795Y059613D03*
X047795Y059583D03*
X047825Y059283D03*
X047825Y059253D03*
X047855Y059133D03*
X047855Y059103D03*
X047885Y059013D03*
X047885Y058983D03*
X047915Y058923D03*
X047915Y058893D03*
X047945Y058833D03*
X047975Y058773D03*
X048005Y058743D03*
X048005Y058713D03*
X048035Y058683D03*
X048065Y058653D03*
X048095Y058623D03*
X048125Y058593D03*
X048155Y058563D03*
X048185Y058533D03*
X048215Y058503D03*
X048245Y058473D03*
X047645Y058113D03*
X047615Y058143D03*
X047585Y058173D03*
X047555Y058203D03*
X047525Y058233D03*
X047495Y058263D03*
X047465Y058323D03*
X047435Y058353D03*
X047405Y058383D03*
X047405Y058413D03*
X047375Y058443D03*
X047345Y058473D03*
X047345Y058503D03*
X047315Y058533D03*
X047315Y058563D03*
X047285Y058593D03*
X047285Y058623D03*
X047255Y058653D03*
X047255Y058683D03*
X047225Y058743D03*
X047225Y058773D03*
X047195Y058833D03*
X047195Y058863D03*
X047165Y058953D03*
X047165Y058983D03*
X047135Y059103D03*
X047135Y059133D03*
X047135Y059163D03*
X047105Y059313D03*
X047105Y059343D03*
X047105Y059373D03*
X047105Y059403D03*
X047105Y059433D03*
X047105Y059463D03*
X047105Y059823D03*
X047105Y059853D03*
X047105Y059883D03*
X047105Y059913D03*
X047105Y059943D03*
X047105Y059973D03*
X047135Y060153D03*
X047135Y060183D03*
X047165Y060333D03*
X047165Y060363D03*
X047195Y060453D03*
X047195Y060483D03*
X047225Y060573D03*
X047225Y060603D03*
X047255Y060663D03*
X047255Y060693D03*
X047285Y060753D03*
X047285Y060783D03*
X047315Y060813D03*
X047315Y060843D03*
X047345Y060903D03*
X047375Y060963D03*
X047405Y061023D03*
X047435Y061083D03*
X047465Y061113D03*
X047465Y061143D03*
X047495Y061173D03*
X047525Y061203D03*
X047525Y061233D03*
X047555Y061263D03*
X047585Y061293D03*
X050285Y059103D03*
X050495Y059283D03*
X050495Y059313D03*
X051065Y059313D03*
X051065Y059283D03*
X051095Y059043D03*
X051095Y059013D03*
X051125Y058953D03*
X051125Y058923D03*
X051155Y058863D03*
X051185Y058833D03*
X051845Y058533D03*
X051845Y058503D03*
X051845Y058473D03*
X051845Y058443D03*
X051845Y058413D03*
X051845Y058383D03*
X051845Y058353D03*
X051815Y057963D03*
X051815Y057933D03*
X051815Y057903D03*
X051815Y057873D03*
X051815Y057843D03*
X051815Y057813D03*
X051785Y057423D03*
X051785Y057393D03*
X051785Y057363D03*
X051785Y057333D03*
X051785Y057303D03*
X051785Y057273D03*
X051785Y057243D03*
X051785Y057213D03*
X051785Y056763D03*
X051785Y056733D03*
X051785Y056703D03*
X051785Y056673D03*
X051785Y056643D03*
X051815Y056553D03*
X051185Y056703D03*
X051185Y056733D03*
X051185Y056763D03*
X051185Y056793D03*
X051155Y056583D03*
X051125Y056553D03*
X050915Y056433D03*
X050075Y056823D03*
X050045Y056853D03*
X050045Y056883D03*
X050045Y056913D03*
X050045Y057003D03*
X050045Y057033D03*
X050045Y057063D03*
X050045Y057093D03*
X050075Y057243D03*
X050075Y057273D03*
X050105Y057393D03*
X050105Y057423D03*
X050135Y057573D03*
X050135Y057603D03*
X050165Y057723D03*
X050165Y057753D03*
X050195Y057873D03*
X050195Y057903D03*
X050225Y058083D03*
X050225Y058113D03*
X050255Y058413D03*
X050255Y058443D03*
X050255Y058473D03*
X050255Y058503D03*
X050255Y058533D03*
X050255Y058563D03*
X050255Y058593D03*
X050255Y058623D03*
X050255Y058653D03*
X050255Y058683D03*
X051185Y057723D03*
X051185Y057693D03*
X051185Y057663D03*
X051185Y057633D03*
X051185Y057603D03*
X051185Y057573D03*
X051185Y057543D03*
X051185Y057513D03*
X051185Y057483D03*
X051185Y057453D03*
X051185Y057423D03*
X051185Y057393D03*
X051185Y057363D03*
X052865Y057693D03*
X052865Y057723D03*
X052865Y057753D03*
X052865Y057783D03*
X052865Y057813D03*
X052865Y057843D03*
X052865Y057873D03*
X052865Y057903D03*
X052865Y057933D03*
X052865Y057963D03*
X053585Y057963D03*
X053585Y057933D03*
X053585Y057903D03*
X053585Y057873D03*
X053585Y057843D03*
X053585Y057813D03*
X053585Y057783D03*
X053585Y057993D03*
X053585Y058023D03*
X053555Y057183D03*
X053555Y057153D03*
X053555Y057123D03*
X053555Y057093D03*
X053555Y057063D03*
X053555Y057033D03*
X053555Y057003D03*
X053555Y056973D03*
X053555Y056943D03*
X053555Y056913D03*
X053555Y056883D03*
X053555Y056853D03*
X053555Y056823D03*
X053555Y056793D03*
X053555Y056763D03*
X053585Y056553D03*
X053615Y056493D03*
X052865Y056523D03*
X054545Y057303D03*
X054545Y057333D03*
X054515Y057453D03*
X054515Y057483D03*
X054485Y057603D03*
X054485Y057633D03*
X054485Y057663D03*
X054455Y057843D03*
X054455Y057873D03*
X054455Y057903D03*
X054455Y057933D03*
X054455Y057963D03*
X054455Y057993D03*
X054455Y058023D03*
X054455Y058053D03*
X054455Y058083D03*
X054455Y058113D03*
X054455Y058143D03*
X054755Y058053D03*
X054755Y057963D03*
X054755Y057933D03*
X054785Y058143D03*
X054815Y058203D03*
X054815Y058233D03*
X054815Y058263D03*
X054815Y058293D03*
X054815Y058323D03*
X054785Y058443D03*
X054785Y058473D03*
X054785Y058503D03*
X054755Y058593D03*
X054755Y058623D03*
X054725Y058683D03*
X054725Y058713D03*
X054725Y058743D03*
X054695Y058863D03*
X054665Y058923D03*
X054635Y058953D03*
X054635Y059103D03*
X054635Y059133D03*
X054515Y059283D03*
X054515Y059313D03*
X054425Y059463D03*
X054425Y059613D03*
X054425Y059643D03*
X054455Y059673D03*
X054485Y059703D03*
X054455Y059913D03*
X054455Y059943D03*
X054485Y060003D03*
X054485Y060033D03*
X054515Y060093D03*
X054515Y060123D03*
X054545Y060213D03*
X054545Y060243D03*
X054515Y060273D03*
X054185Y060393D03*
X054185Y060423D03*
X054155Y060633D03*
X054155Y060663D03*
X053495Y060423D03*
X053495Y060393D03*
X053495Y060363D03*
X053495Y060333D03*
X053495Y060303D03*
X053495Y060273D03*
X053495Y060243D03*
X053525Y059943D03*
X053525Y059913D03*
X053525Y059883D03*
X053525Y059853D03*
X053555Y059583D03*
X053555Y059553D03*
X053555Y059523D03*
X053555Y059493D03*
X053585Y059223D03*
X053585Y059193D03*
X053585Y059163D03*
X053585Y059133D03*
X052865Y059133D03*
X052865Y059163D03*
X052865Y059193D03*
X052865Y059223D03*
X052865Y059253D03*
X052865Y059283D03*
X052865Y059313D03*
X052895Y059823D03*
X052895Y059853D03*
X052895Y059883D03*
X052895Y059913D03*
X052895Y059943D03*
X052895Y059973D03*
X052895Y060003D03*
X052895Y060033D03*
X052895Y060063D03*
X052895Y060093D03*
X052895Y060123D03*
X052895Y060153D03*
X052895Y060183D03*
X052895Y060213D03*
X052895Y060243D03*
X052895Y060273D03*
X052895Y060303D03*
X052895Y060333D03*
X052625Y060633D03*
X052715Y060783D03*
X052715Y060813D03*
X052715Y060843D03*
X052715Y060873D03*
X052085Y060513D03*
X052055Y060333D03*
X052055Y060303D03*
X052025Y060213D03*
X051995Y060153D03*
X051995Y060123D03*
X051965Y060093D03*
X051965Y060063D03*
X051935Y060033D03*
X051905Y060003D03*
X051815Y059733D03*
X051845Y059703D03*
X051875Y059673D03*
X051905Y059613D03*
X051935Y059583D03*
X051935Y059553D03*
X051965Y059523D03*
X051965Y059493D03*
X051995Y059433D03*
X052025Y059313D03*
X052025Y059283D03*
X052025Y059253D03*
X052025Y059223D03*
X052025Y059193D03*
X051995Y059073D03*
X051965Y059013D03*
X051965Y058983D03*
X051935Y058953D03*
X051905Y058923D03*
X054485Y058833D03*
X054485Y058803D03*
X054485Y058773D03*
X054485Y058743D03*
X054485Y058713D03*
X054485Y058683D03*
X054485Y058653D03*
X054485Y058623D03*
X054485Y058593D03*
X055025Y058593D03*
X055025Y058623D03*
X055025Y058653D03*
X054995Y058773D03*
X054995Y058803D03*
X054995Y059073D03*
X054995Y059103D03*
X054995Y059133D03*
X054995Y059163D03*
X054995Y059193D03*
X055025Y059313D03*
X055415Y059403D03*
X055445Y059433D03*
X055475Y059493D03*
X055505Y059523D03*
X055505Y059553D03*
X055535Y059583D03*
X055535Y059613D03*
X055565Y059673D03*
X055595Y059763D03*
X055595Y059793D03*
X055625Y059973D03*
X055625Y060003D03*
X055625Y060033D03*
X055625Y060063D03*
X055595Y060183D03*
X055595Y060213D03*
X055685Y060303D03*
X055685Y060333D03*
X055715Y060363D03*
X055715Y060393D03*
X055745Y060483D03*
X055745Y060753D03*
X055745Y060783D03*
X055715Y060843D03*
X055715Y060873D03*
X055805Y060993D03*
X055835Y061053D03*
X055865Y061173D03*
X055865Y061203D03*
X055865Y061233D03*
X055865Y061263D03*
X055865Y061353D03*
X055865Y061383D03*
X055865Y061413D03*
X055865Y061443D03*
X055835Y061593D03*
X055805Y061653D03*
X055805Y061683D03*
X055775Y061743D03*
X055745Y061773D03*
X055835Y061893D03*
X055865Y061923D03*
X055895Y061983D03*
X055895Y062013D03*
X055895Y062043D03*
X055895Y062223D03*
X055895Y062253D03*
X055895Y062283D03*
X055865Y062343D03*
X055865Y062373D03*
X055835Y062433D03*
X055835Y062463D03*
X055805Y062493D03*
X055775Y062523D03*
X055415Y062763D03*
X055385Y062793D03*
X054725Y063003D03*
X054725Y063033D03*
X054695Y063063D03*
X054065Y062133D03*
X054095Y062103D03*
X054185Y061983D03*
X054455Y062013D03*
X054485Y061983D03*
X054485Y061953D03*
X054785Y061803D03*
X054815Y061773D03*
X054815Y061743D03*
X055085Y061563D03*
X055115Y061533D03*
X055145Y061473D03*
X055175Y061443D03*
X055175Y061413D03*
X055205Y061353D03*
X055205Y061323D03*
X055205Y061173D03*
X053645Y062343D03*
X053615Y062403D03*
X053585Y062433D03*
X053465Y062913D03*
X053465Y062943D03*
X053375Y063093D03*
X053375Y063123D03*
X053345Y063153D03*
X053315Y063213D03*
X053285Y063243D03*
X053255Y063273D03*
X053015Y062553D03*
X052205Y062043D03*
X052205Y062013D03*
X052175Y062073D03*
X052175Y062103D03*
X052145Y062133D03*
X052295Y063423D03*
X055055Y058503D03*
X055085Y058383D03*
X055085Y058353D03*
X055085Y058323D03*
X055085Y058293D03*
X055115Y058173D03*
X055115Y058143D03*
X055115Y058113D03*
X055085Y058053D03*
X055235Y057873D03*
X055265Y057843D03*
X055265Y057663D03*
X055235Y057603D03*
X054905Y057663D03*
X054875Y057753D03*
X054965Y057363D03*
X054965Y057333D03*
X054995Y057213D03*
X054995Y057183D03*
X055025Y057093D03*
X055025Y057063D03*
X055055Y056973D03*
X055055Y056943D03*
X055085Y056853D03*
X055085Y056823D03*
X055115Y056733D03*
X055115Y056703D03*
X055145Y056613D03*
X055145Y056583D03*
X055175Y056463D03*
X055175Y056433D03*
X055205Y056253D03*
X055205Y056223D03*
X055565Y056013D03*
X055595Y055983D03*
X055625Y055953D03*
X055625Y055923D03*
X055655Y055863D03*
X055685Y055773D03*
X055685Y055743D03*
X055685Y055713D03*
X055685Y055563D03*
X055685Y055533D03*
X055655Y055443D03*
X055655Y055413D03*
X055625Y055383D03*
X055625Y055353D03*
X055595Y055323D03*
X054605Y056643D03*
X054635Y056703D03*
X054635Y056733D03*
X054635Y056763D03*
X054635Y056793D03*
X054635Y056823D03*
X054605Y056973D03*
X054605Y057003D03*
X054575Y057153D03*
X054575Y057183D03*
D37*
X054560Y057213D03*
X054560Y057243D03*
X054560Y057273D03*
X054530Y057363D03*
X054530Y057393D03*
X054530Y057423D03*
X054500Y057513D03*
X054500Y057543D03*
X054500Y057573D03*
X054470Y057693D03*
X054470Y057723D03*
X054470Y057753D03*
X054470Y057783D03*
X054470Y057813D03*
X054770Y057873D03*
X054770Y057903D03*
X054740Y057993D03*
X054740Y058023D03*
X054770Y058083D03*
X054770Y058113D03*
X054800Y058173D03*
X054800Y058353D03*
X054800Y058383D03*
X054800Y058413D03*
X054770Y058533D03*
X054770Y058563D03*
X054740Y058653D03*
X054710Y058773D03*
X054710Y058803D03*
X054710Y058833D03*
X054620Y058983D03*
X054620Y059013D03*
X054620Y059043D03*
X054620Y059073D03*
X054500Y059073D03*
X054500Y059043D03*
X054500Y059013D03*
X054500Y058983D03*
X054500Y058953D03*
X054500Y058923D03*
X054500Y058893D03*
X054500Y058863D03*
X054500Y059103D03*
X054500Y059133D03*
X054410Y059493D03*
X054410Y059523D03*
X054410Y059553D03*
X054410Y059583D03*
X054440Y059823D03*
X054440Y059853D03*
X054440Y059883D03*
X054470Y059973D03*
X054500Y060063D03*
X054530Y060153D03*
X054530Y060183D03*
X054320Y060273D03*
X054170Y060453D03*
X054170Y060483D03*
X053570Y060663D03*
X053510Y060213D03*
X053510Y060183D03*
X053510Y060153D03*
X053510Y060123D03*
X053510Y060093D03*
X053510Y060063D03*
X053510Y060033D03*
X053510Y060003D03*
X053510Y059973D03*
X053540Y059823D03*
X053540Y059793D03*
X053540Y059763D03*
X053540Y059733D03*
X053540Y059703D03*
X053540Y059673D03*
X053540Y059643D03*
X053540Y059613D03*
X053570Y059463D03*
X053570Y059433D03*
X053570Y059403D03*
X053570Y059373D03*
X053570Y059343D03*
X053570Y059313D03*
X053570Y059283D03*
X053570Y059253D03*
X053600Y059103D03*
X053600Y059073D03*
X053600Y059043D03*
X053600Y059013D03*
X053600Y058983D03*
X053600Y058953D03*
X053600Y058923D03*
X053600Y058893D03*
X053600Y058863D03*
X053600Y058833D03*
X053600Y058803D03*
X053600Y058773D03*
X053600Y058743D03*
X053600Y058713D03*
X053600Y058683D03*
X053600Y058653D03*
X053600Y058623D03*
X053600Y058593D03*
X053600Y058563D03*
X053600Y058533D03*
X053600Y058503D03*
X053600Y058473D03*
X053600Y058443D03*
X053600Y058413D03*
X053600Y058383D03*
X053600Y058353D03*
X053600Y058323D03*
X053600Y058293D03*
X053600Y058263D03*
X053600Y058233D03*
X053600Y058203D03*
X053600Y058173D03*
X053600Y058143D03*
X053600Y058113D03*
X053600Y058083D03*
X053600Y058053D03*
X053570Y057753D03*
X053570Y057723D03*
X053570Y057693D03*
X053570Y057663D03*
X053570Y057633D03*
X053570Y057603D03*
X053570Y057573D03*
X053570Y057543D03*
X053570Y057513D03*
X053570Y057483D03*
X053570Y057453D03*
X053570Y057423D03*
X053570Y057393D03*
X053570Y057363D03*
X053570Y057333D03*
X053570Y057303D03*
X053570Y057273D03*
X053570Y057243D03*
X053570Y057213D03*
X053570Y056733D03*
X053570Y056703D03*
X053570Y056673D03*
X053570Y056643D03*
X053570Y056613D03*
X053570Y056583D03*
X053600Y056523D03*
X052880Y056553D03*
X052880Y056583D03*
X052880Y056613D03*
X052880Y056643D03*
X052880Y056673D03*
X052880Y056703D03*
X052880Y056733D03*
X052880Y056763D03*
X052880Y056793D03*
X052880Y056823D03*
X052880Y056853D03*
X052880Y056883D03*
X052880Y056913D03*
X052880Y056943D03*
X052880Y056973D03*
X052880Y057003D03*
X052880Y057033D03*
X052880Y057063D03*
X052880Y057093D03*
X052880Y057123D03*
X052880Y057153D03*
X052880Y057183D03*
X052880Y057213D03*
X052880Y057243D03*
X052880Y057273D03*
X052880Y057303D03*
X052880Y057333D03*
X052880Y057363D03*
X052880Y057393D03*
X052880Y057423D03*
X052880Y057453D03*
X052880Y057483D03*
X052880Y057513D03*
X052880Y057543D03*
X052880Y057573D03*
X052880Y057603D03*
X052880Y057633D03*
X052880Y057663D03*
X052850Y057993D03*
X052850Y058023D03*
X052850Y058053D03*
X052850Y058083D03*
X052850Y058113D03*
X052850Y058143D03*
X052850Y058173D03*
X052850Y058203D03*
X052850Y058233D03*
X052850Y058263D03*
X052850Y058293D03*
X052850Y058323D03*
X052850Y058353D03*
X052850Y058383D03*
X052850Y058413D03*
X052850Y058443D03*
X052850Y058473D03*
X052850Y058503D03*
X052850Y058533D03*
X052850Y058563D03*
X052850Y058593D03*
X052850Y058623D03*
X052850Y058653D03*
X052850Y058683D03*
X052850Y058713D03*
X052850Y058743D03*
X052850Y058773D03*
X052850Y058803D03*
X052850Y058833D03*
X052850Y058863D03*
X052850Y058893D03*
X052850Y058923D03*
X052850Y058953D03*
X052850Y058983D03*
X052850Y059013D03*
X052850Y059043D03*
X052850Y059073D03*
X052850Y059103D03*
X052880Y059343D03*
X052880Y059373D03*
X052880Y059403D03*
X052880Y059433D03*
X052880Y059463D03*
X052880Y059493D03*
X052880Y059523D03*
X052880Y059553D03*
X052880Y059583D03*
X052880Y059613D03*
X052880Y059643D03*
X052880Y059673D03*
X052880Y059703D03*
X052880Y059733D03*
X052880Y059763D03*
X052880Y059793D03*
X052880Y060363D03*
X052880Y060393D03*
X052880Y060423D03*
X052880Y060453D03*
X052730Y060903D03*
X052070Y060483D03*
X052070Y060453D03*
X052070Y060423D03*
X052070Y060393D03*
X052070Y060363D03*
X052040Y060273D03*
X052040Y060243D03*
X052010Y060183D03*
X051980Y059463D03*
X052010Y059403D03*
X052010Y059373D03*
X052010Y059343D03*
X052010Y059163D03*
X052010Y059133D03*
X052010Y059103D03*
X051980Y059043D03*
X051860Y058713D03*
X051860Y058683D03*
X051860Y058653D03*
X051860Y058623D03*
X051860Y058593D03*
X051860Y058563D03*
X051830Y058323D03*
X051830Y058293D03*
X051830Y058263D03*
X051830Y058233D03*
X051830Y058203D03*
X051830Y058173D03*
X051830Y058143D03*
X051830Y058113D03*
X051830Y058083D03*
X051830Y058053D03*
X051830Y058023D03*
X051830Y057993D03*
X051800Y057783D03*
X051800Y057753D03*
X051800Y057723D03*
X051800Y057693D03*
X051800Y057663D03*
X051800Y057633D03*
X051800Y057603D03*
X051800Y057573D03*
X051800Y057543D03*
X051800Y057513D03*
X051800Y057483D03*
X051800Y057453D03*
X051770Y057183D03*
X051770Y057153D03*
X051770Y057123D03*
X051770Y057093D03*
X051770Y057063D03*
X051770Y057033D03*
X051770Y057003D03*
X051770Y056973D03*
X051770Y056943D03*
X051770Y056913D03*
X051770Y056883D03*
X051770Y056853D03*
X051770Y056823D03*
X051770Y056793D03*
X051800Y056613D03*
X051800Y056583D03*
X051170Y056613D03*
X051170Y056643D03*
X051170Y056673D03*
X051200Y056823D03*
X051200Y056853D03*
X051200Y056883D03*
X051200Y056913D03*
X051200Y056943D03*
X051200Y056973D03*
X051200Y057003D03*
X051200Y057033D03*
X051200Y057063D03*
X051200Y057093D03*
X051200Y057123D03*
X051200Y057153D03*
X051200Y057183D03*
X051200Y057213D03*
X051200Y057243D03*
X051200Y057273D03*
X051200Y057303D03*
X051200Y057333D03*
X051170Y057753D03*
X051170Y057783D03*
X051170Y057813D03*
X051170Y057843D03*
X051170Y057873D03*
X051170Y057903D03*
X051170Y057933D03*
X051170Y057963D03*
X051170Y057993D03*
X051170Y058023D03*
X051170Y058053D03*
X051170Y058083D03*
X051170Y058113D03*
X051170Y058143D03*
X051170Y058173D03*
X051170Y058203D03*
X051170Y058233D03*
X051170Y058263D03*
X051170Y058293D03*
X051170Y058323D03*
X051170Y058353D03*
X051170Y058383D03*
X051170Y058413D03*
X051170Y058443D03*
X051170Y058473D03*
X051170Y058503D03*
X051170Y058533D03*
X051170Y058563D03*
X051170Y058593D03*
X051170Y058623D03*
X051170Y058653D03*
X051170Y058683D03*
X051140Y058893D03*
X051110Y058983D03*
X051080Y059073D03*
X051080Y059103D03*
X051080Y059133D03*
X050510Y059343D03*
X050270Y059073D03*
X050270Y059043D03*
X050270Y059013D03*
X050270Y058983D03*
X050270Y058953D03*
X050270Y058923D03*
X050270Y058893D03*
X050270Y058863D03*
X050270Y058833D03*
X050270Y058803D03*
X050270Y058773D03*
X050270Y058743D03*
X050270Y058713D03*
X050240Y058383D03*
X050240Y058353D03*
X050240Y058323D03*
X050240Y058293D03*
X050240Y058263D03*
X050240Y058233D03*
X050240Y058203D03*
X050240Y058173D03*
X050240Y058143D03*
X050210Y058053D03*
X050210Y058023D03*
X050210Y057993D03*
X050210Y057963D03*
X050210Y057933D03*
X050180Y057843D03*
X050180Y057813D03*
X050180Y057783D03*
X050150Y057693D03*
X050150Y057663D03*
X050150Y057633D03*
X050120Y057543D03*
X050120Y057513D03*
X050120Y057483D03*
X050120Y057453D03*
X050090Y057363D03*
X050090Y057333D03*
X050090Y057303D03*
X050060Y057213D03*
X050060Y057183D03*
X050060Y057153D03*
X050060Y057123D03*
X050030Y056973D03*
X050030Y056943D03*
X049610Y057063D03*
X049610Y057093D03*
X049640Y057183D03*
X049640Y057213D03*
X049670Y057363D03*
X049700Y057453D03*
X049700Y057483D03*
X049700Y057513D03*
X049730Y057633D03*
X049730Y057663D03*
X049760Y057843D03*
X049790Y058053D03*
X049790Y058083D03*
X049790Y058113D03*
X049790Y058143D03*
X049790Y058173D03*
X049790Y058203D03*
X049820Y058383D03*
X049820Y058413D03*
X049820Y058443D03*
X049820Y058473D03*
X049820Y058503D03*
X049820Y058533D03*
X049820Y058563D03*
X049820Y058593D03*
X049820Y058623D03*
X049850Y058803D03*
X049850Y058833D03*
X049850Y058863D03*
X049850Y058893D03*
X049850Y058923D03*
X049850Y058953D03*
X049850Y058983D03*
X049850Y059013D03*
X049850Y059043D03*
X049850Y059073D03*
X049880Y059253D03*
X049880Y059283D03*
X049880Y059313D03*
X049880Y059343D03*
X049880Y059373D03*
X049880Y059403D03*
X049880Y059433D03*
X050120Y059373D03*
X050120Y059343D03*
X049910Y059733D03*
X049910Y059763D03*
X049910Y059793D03*
X049910Y059823D03*
X049910Y059853D03*
X049910Y060483D03*
X049910Y060513D03*
X049910Y060543D03*
X049910Y060573D03*
X049910Y060603D03*
X049940Y060723D03*
X049940Y060753D03*
X049940Y060783D03*
X050030Y061023D03*
X050210Y061023D03*
X050210Y060993D03*
X050210Y060963D03*
X050210Y060933D03*
X050210Y061053D03*
X050210Y061083D03*
X050240Y061143D03*
X050300Y061293D03*
X050270Y061353D03*
X050240Y061413D03*
X050240Y061443D03*
X050240Y061473D03*
X050240Y061533D03*
X050240Y061563D03*
X050840Y061863D03*
X050840Y061893D03*
X051290Y062103D03*
X051290Y062133D03*
X051290Y062163D03*
X051140Y062913D03*
X051170Y063093D03*
X052280Y063393D03*
X053000Y062523D03*
X053000Y062493D03*
X053000Y062463D03*
X053000Y062433D03*
X053630Y062373D03*
X053660Y062223D03*
X052220Y061983D03*
X055190Y061383D03*
X055220Y061293D03*
X055220Y061263D03*
X055220Y061233D03*
X055220Y061203D03*
X055820Y061023D03*
X055850Y061083D03*
X055850Y061113D03*
X055850Y061143D03*
X055880Y061293D03*
X055880Y061323D03*
X055850Y061473D03*
X055850Y061503D03*
X055850Y061533D03*
X055850Y061563D03*
X055820Y061623D03*
X055790Y061713D03*
X055880Y061953D03*
X055910Y062073D03*
X055910Y062103D03*
X055910Y062133D03*
X055910Y062163D03*
X055910Y062193D03*
X055880Y062313D03*
X055850Y062403D03*
X055430Y062733D03*
X055730Y060813D03*
X055760Y060723D03*
X055760Y060693D03*
X055760Y060663D03*
X055760Y060633D03*
X055760Y060603D03*
X055760Y060573D03*
X055760Y060543D03*
X055760Y060513D03*
X055730Y060453D03*
X055730Y060423D03*
X055610Y060153D03*
X055610Y060123D03*
X055610Y060093D03*
X055610Y059943D03*
X055610Y059913D03*
X055610Y059883D03*
X055610Y059853D03*
X055610Y059823D03*
X055580Y059733D03*
X055580Y059703D03*
X055550Y059643D03*
X054980Y059043D03*
X054980Y059013D03*
X054980Y058983D03*
X054980Y058953D03*
X054980Y058923D03*
X054980Y058893D03*
X054980Y058863D03*
X054980Y058833D03*
X055010Y058743D03*
X055010Y058713D03*
X055010Y058683D03*
X055040Y058563D03*
X055040Y058533D03*
X055070Y058473D03*
X055070Y058443D03*
X055070Y058413D03*
X055100Y058263D03*
X055100Y058233D03*
X055100Y058203D03*
X055100Y058083D03*
X055280Y057813D03*
X055280Y057783D03*
X055280Y057753D03*
X055280Y057723D03*
X055280Y057693D03*
X055250Y057633D03*
X054920Y057633D03*
X054890Y057693D03*
X054890Y057723D03*
X054950Y057483D03*
X054950Y057453D03*
X054950Y057423D03*
X054950Y057393D03*
X054980Y057303D03*
X054980Y057273D03*
X054980Y057243D03*
X055010Y057153D03*
X055010Y057123D03*
X055040Y057033D03*
X055040Y057003D03*
X055070Y056913D03*
X055070Y056883D03*
X055100Y056793D03*
X055100Y056763D03*
X055130Y056673D03*
X055130Y056643D03*
X055160Y056553D03*
X055160Y056523D03*
X055160Y056493D03*
X055190Y056403D03*
X055190Y056373D03*
X055190Y056343D03*
X055190Y056313D03*
X055190Y056283D03*
X055640Y055893D03*
X055670Y055833D03*
X055670Y055803D03*
X055700Y055683D03*
X055700Y055653D03*
X055700Y055623D03*
X055700Y055593D03*
X055670Y055503D03*
X055670Y055473D03*
X054620Y056673D03*
X054620Y056853D03*
X054620Y056883D03*
X054620Y056913D03*
X054620Y056943D03*
X054590Y057033D03*
X054590Y057063D03*
X054590Y057093D03*
X054590Y057123D03*
X054470Y058173D03*
X054470Y058203D03*
X054470Y058233D03*
X054470Y058263D03*
X054470Y058293D03*
X054470Y058323D03*
X054470Y058353D03*
X054470Y058383D03*
X054470Y058413D03*
X054470Y058443D03*
X054470Y058473D03*
X054470Y058503D03*
X054470Y058533D03*
X054470Y058563D03*
X049580Y056973D03*
X049580Y056943D03*
X049550Y056853D03*
X049550Y056823D03*
X049520Y056733D03*
X049520Y056703D03*
X049490Y056643D03*
X049490Y056613D03*
X049460Y056523D03*
X049430Y056433D03*
X049430Y056403D03*
X049100Y056163D03*
X049070Y056103D03*
X049070Y056073D03*
X049070Y056043D03*
X049070Y055863D03*
X049070Y055833D03*
X049070Y055803D03*
X049100Y055713D03*
X049130Y055653D03*
X047960Y058803D03*
X047930Y058863D03*
X047900Y058953D03*
X047870Y059043D03*
X047870Y059073D03*
X047840Y059163D03*
X047840Y059193D03*
X047840Y059223D03*
X047810Y059313D03*
X047810Y059343D03*
X047810Y059373D03*
X047810Y059403D03*
X047810Y059433D03*
X047810Y059463D03*
X047810Y059493D03*
X047810Y059523D03*
X047810Y059553D03*
X047810Y059733D03*
X047810Y059763D03*
X047810Y059793D03*
X047810Y059823D03*
X047810Y059853D03*
X047810Y059883D03*
X047810Y059913D03*
X047810Y059943D03*
X047810Y059973D03*
X047840Y060093D03*
X047840Y060123D03*
X047840Y060153D03*
X047870Y060243D03*
X047870Y060273D03*
X047900Y060363D03*
X047900Y060393D03*
X047930Y060453D03*
X047960Y060513D03*
X047270Y060723D03*
X047240Y060633D03*
X047210Y060543D03*
X047210Y060513D03*
X047180Y060423D03*
X047180Y060393D03*
X047150Y060303D03*
X047150Y060273D03*
X047150Y060243D03*
X047150Y060213D03*
X047120Y060123D03*
X047120Y060093D03*
X047120Y060063D03*
X047120Y060033D03*
X047120Y060003D03*
X047090Y059793D03*
X047090Y059763D03*
X047090Y059733D03*
X047090Y059703D03*
X047090Y059673D03*
X047090Y059643D03*
X047090Y059613D03*
X047090Y059583D03*
X047090Y059553D03*
X047090Y059523D03*
X047090Y059493D03*
X047120Y059283D03*
X047120Y059253D03*
X047120Y059223D03*
X047120Y059193D03*
X047150Y059073D03*
X047150Y059043D03*
X047150Y059013D03*
X047180Y058923D03*
X047180Y058893D03*
X047210Y058803D03*
X047240Y058713D03*
X047330Y060873D03*
X047360Y060933D03*
X047390Y060993D03*
X047420Y061053D03*
X049100Y061653D03*
X049100Y061683D03*
X049100Y061713D03*
X049100Y061743D03*
X049100Y061773D03*
X049100Y061803D03*
X049100Y061833D03*
X049130Y061923D03*
X049160Y062013D03*
X049700Y062313D03*
X049700Y062343D03*
X049700Y062373D03*
X049730Y062433D03*
X049730Y062463D03*
X049550Y061503D03*
X049550Y061293D03*
X049580Y061203D03*
X049610Y061143D03*
D38*
X052580Y055533D03*
D39*
X052625Y055563D03*
D40*
X052625Y055593D03*
D41*
X053210Y055623D03*
X048560Y061623D03*
D42*
X053525Y055653D03*
D43*
X053900Y055713D03*
X049460Y058023D03*
X048500Y061683D03*
X050690Y063093D03*
D44*
X051635Y062343D03*
X052295Y060543D03*
X052385Y056343D03*
X054335Y055803D03*
D45*
X053975Y056433D03*
X052355Y056373D03*
X048695Y060873D03*
D46*
X052100Y063483D03*
X052370Y056403D03*
D47*
X050840Y056523D03*
X054170Y063273D03*
D48*
X054950Y062973D03*
X052640Y063543D03*
X051110Y062013D03*
X049490Y062253D03*
X049070Y058083D03*
X049460Y057333D03*
D49*
X051065Y059343D03*
X053555Y060693D03*
X054155Y060693D03*
X055205Y061143D03*
X053015Y062403D03*
X053465Y062883D03*
X054755Y062853D03*
X049685Y062163D03*
X048725Y060963D03*
X055085Y057483D03*
D50*
X054170Y061953D03*
X050300Y060783D03*
D51*
X048500Y061653D03*
M02*
