G75*
%MOIN*%
%OFA0B0*%
%FSLAX24Y24*%
%IPPOS*%
%LPD*%
%AMOC8*
5,1,8,0,0,1.08239X$1,22.5*
%
%ADD10C,0.0320*%
%ADD11C,0.0400*%
%ADD12C,0.0500*%
%ADD13C,0.0120*%
%ADD14C,0.0660*%
%ADD15R,0.0828X0.2757*%
%ADD16C,0.1380*%
%ADD17C,0.0820*%
%ADD18C,0.1580*%
%ADD19R,0.0395X0.0552*%
%ADD20R,0.0552X0.0395*%
%ADD21C,0.1346*%
%ADD22C,0.1614*%
%ADD23C,0.1622*%
%ADD24R,0.0474X0.0789*%
%ADD25C,0.0720*%
%ADD26R,0.0671X0.0592*%
%ADD27R,0.0395X0.0434*%
%ADD28R,0.0320X0.0950*%
%ADD29R,0.0631X0.0513*%
%ADD30R,0.0659X0.0777*%
%ADD31R,0.0777X0.0659*%
%ADD32C,0.0907*%
%ADD33R,0.0434X0.0395*%
%ADD34R,0.0950X0.0320*%
%ADD35R,0.0907X0.0907*%
%ADD36C,0.1261*%
%ADD37R,0.0820X0.0820*%
%ADD38R,0.0592X0.0671*%
%ADD39R,0.0540X0.0710*%
D10*
X006820Y026613D02*
X007820Y027613D01*
X007820Y031113D01*
X008420Y031713D01*
X007720Y032613D02*
X007720Y036613D01*
X008020Y036913D01*
X008620Y036913D01*
X009720Y038013D02*
X009370Y038363D01*
X007470Y038363D01*
X006720Y037613D01*
X006720Y037013D01*
X007720Y032613D02*
X006920Y031813D01*
X006820Y031813D01*
D11*
X008570Y026488D02*
X007770Y025688D01*
X008570Y026488D02*
X008645Y026488D01*
D12*
X008570Y026463D02*
X007690Y025583D01*
X007690Y022743D01*
X008790Y021643D01*
X013570Y021643D01*
X015070Y020143D01*
X016610Y021303D02*
X015230Y022683D01*
X009990Y022683D01*
X009710Y022963D01*
X009710Y038043D01*
X009430Y038323D01*
X007470Y038323D01*
X006810Y037663D01*
X006810Y037223D01*
X006790Y037203D01*
X022440Y019993D02*
X022440Y011193D01*
X022230Y011003D02*
X018580Y011003D01*
X017540Y016693D02*
X017540Y019093D01*
X028980Y019403D02*
X042030Y019403D01*
D13*
X046680Y021893D02*
X046880Y021693D01*
X048180Y021693D01*
X048380Y021893D01*
X048380Y028393D01*
X047880Y028893D01*
X045680Y028893D01*
X045480Y028693D01*
X045480Y025993D01*
X045780Y025693D01*
X046880Y025693D01*
X047180Y025393D01*
X047180Y023293D01*
X046680Y022893D01*
X046680Y021893D01*
X046680Y021928D02*
X048380Y021928D01*
X048380Y022047D02*
X046680Y022047D01*
X046680Y022165D02*
X048380Y022165D01*
X048380Y022284D02*
X046680Y022284D01*
X046680Y022402D02*
X048380Y022402D01*
X048380Y022521D02*
X046680Y022521D01*
X046680Y022639D02*
X048380Y022639D01*
X048380Y022758D02*
X046680Y022758D01*
X046680Y022876D02*
X048380Y022876D01*
X048380Y022995D02*
X046807Y022995D01*
X046955Y023113D02*
X048380Y023113D01*
X048380Y023232D02*
X047103Y023232D01*
X047180Y023350D02*
X048380Y023350D01*
X048380Y023469D02*
X047180Y023469D01*
X047180Y023587D02*
X048380Y023587D01*
X048380Y023706D02*
X047180Y023706D01*
X047180Y023824D02*
X048380Y023824D01*
X048380Y023943D02*
X047180Y023943D01*
X047180Y024061D02*
X048380Y024061D01*
X048380Y024180D02*
X047180Y024180D01*
X047180Y024298D02*
X048380Y024298D01*
X048380Y024417D02*
X047180Y024417D01*
X047180Y024535D02*
X048380Y024535D01*
X048380Y024654D02*
X047180Y024654D01*
X047180Y024772D02*
X048380Y024772D01*
X048380Y024891D02*
X047180Y024891D01*
X047180Y025009D02*
X048380Y025009D01*
X048380Y025128D02*
X047180Y025128D01*
X047180Y025246D02*
X048380Y025246D01*
X048380Y025365D02*
X047180Y025365D01*
X047090Y025483D02*
X048380Y025483D01*
X048380Y025602D02*
X046971Y025602D01*
X045753Y025720D02*
X048380Y025720D01*
X048380Y025839D02*
X045634Y025839D01*
X045516Y025957D02*
X048380Y025957D01*
X048380Y026076D02*
X045480Y026076D01*
X045480Y026194D02*
X048380Y026194D01*
X048380Y026313D02*
X045480Y026313D01*
X045480Y026431D02*
X048380Y026431D01*
X048380Y026550D02*
X045480Y026550D01*
X045480Y026668D02*
X048380Y026668D01*
X048380Y026787D02*
X045480Y026787D01*
X045480Y026905D02*
X048380Y026905D01*
X048380Y027024D02*
X045480Y027024D01*
X045480Y027142D02*
X048380Y027142D01*
X048380Y027261D02*
X045480Y027261D01*
X045480Y027379D02*
X048380Y027379D01*
X048380Y027498D02*
X045480Y027498D01*
X045480Y027616D02*
X048380Y027616D01*
X048380Y027735D02*
X045480Y027735D01*
X045480Y027853D02*
X048380Y027853D01*
X048380Y027972D02*
X045480Y027972D01*
X045480Y028090D02*
X048380Y028090D01*
X048380Y028209D02*
X045480Y028209D01*
X045480Y028327D02*
X048380Y028327D01*
X048327Y028446D02*
X045480Y028446D01*
X045480Y028564D02*
X048209Y028564D01*
X048090Y028683D02*
X045480Y028683D01*
X045588Y028801D02*
X047972Y028801D01*
X048297Y021810D02*
X046763Y021810D01*
D14*
X043080Y020193D02*
X043080Y028793D01*
X042280Y029593D01*
X038280Y029593D01*
X038180Y029693D01*
X038180Y029893D01*
X038780Y029293D01*
X041780Y029293D01*
X042580Y028493D01*
X042580Y020593D01*
X041880Y019893D01*
X029080Y019893D01*
X038180Y029893D02*
X038180Y031493D01*
X043080Y020193D02*
X042280Y019393D01*
X042080Y019393D01*
D15*
X046142Y016703D03*
X047678Y016703D03*
D16*
X054570Y016863D03*
X027070Y055913D03*
X002180Y070893D03*
X054180Y070893D03*
X002870Y017513D03*
D17*
X019110Y035013D03*
X021530Y035013D03*
X021570Y043413D03*
X020570Y043413D03*
X020570Y044413D03*
X021570Y044413D03*
X022570Y044413D03*
X022570Y043413D03*
X023570Y043413D03*
X023570Y044413D03*
X024570Y044413D03*
X024570Y043413D03*
X025570Y043413D03*
X026570Y043413D03*
X027570Y043413D03*
X027570Y044413D03*
X026570Y044413D03*
X025570Y044413D03*
X028570Y044413D03*
X028570Y043413D03*
X029570Y043413D03*
X030570Y043413D03*
X031570Y043413D03*
X031570Y044413D03*
X030570Y044413D03*
X029570Y044413D03*
X032570Y044413D03*
X032570Y043413D03*
X033570Y043413D03*
X034570Y043413D03*
X035570Y043413D03*
X035570Y044413D03*
X034570Y044413D03*
X033570Y044413D03*
X036570Y044413D03*
X036570Y043413D03*
X037570Y043413D03*
X038570Y043413D03*
X038570Y044413D03*
X037570Y044413D03*
X039570Y044413D03*
X039570Y043413D03*
X040570Y043413D03*
X041570Y043413D03*
X042570Y043413D03*
X042570Y044413D03*
X041570Y044413D03*
X040570Y044413D03*
X040570Y051413D03*
X039570Y051413D03*
X039570Y052413D03*
X040570Y052413D03*
X041570Y052413D03*
X041570Y051413D03*
X042570Y051413D03*
X042570Y052413D03*
X038570Y052413D03*
X038570Y051413D03*
X037570Y051413D03*
X036570Y051413D03*
X036570Y052413D03*
X037570Y052413D03*
X035570Y052413D03*
X035570Y051413D03*
X034570Y051413D03*
X033570Y051413D03*
X032570Y051413D03*
X032570Y052413D03*
X033570Y052413D03*
X034570Y052413D03*
X031570Y052413D03*
X031570Y051413D03*
X030570Y051413D03*
X029570Y051413D03*
X028570Y051413D03*
X028570Y052413D03*
X029570Y052413D03*
X030570Y052413D03*
X027570Y052413D03*
X027570Y051413D03*
X026570Y051413D03*
X025570Y051413D03*
X024570Y051413D03*
X024570Y052413D03*
X025570Y052413D03*
X026570Y052413D03*
X023570Y052413D03*
X023570Y051413D03*
X022570Y051413D03*
X021570Y051413D03*
X020570Y051413D03*
X020570Y052413D03*
X021570Y052413D03*
X022570Y052413D03*
X019570Y052413D03*
X019570Y051413D03*
X018570Y051413D03*
X017570Y051413D03*
X017570Y052413D03*
X018570Y052413D03*
X016570Y052413D03*
X016570Y051413D03*
X015570Y051413D03*
X014570Y051413D03*
X013570Y051413D03*
X013570Y052413D03*
X014570Y052413D03*
X015570Y052413D03*
X012570Y052413D03*
X012570Y051413D03*
X011570Y051413D03*
X011570Y052413D03*
X011570Y059413D03*
X012570Y059413D03*
X012570Y060413D03*
X011570Y060413D03*
X013570Y060413D03*
X013570Y059413D03*
X014570Y059413D03*
X015570Y059413D03*
X016570Y059413D03*
X016570Y060413D03*
X015570Y060413D03*
X014570Y060413D03*
X017570Y060413D03*
X017570Y059413D03*
X018570Y059413D03*
X019570Y059413D03*
X019570Y060413D03*
X018570Y060413D03*
X020570Y060413D03*
X020570Y059413D03*
X021570Y059413D03*
X022570Y059413D03*
X023570Y059413D03*
X023570Y060413D03*
X022570Y060413D03*
X021570Y060413D03*
X024570Y060413D03*
X024570Y059413D03*
X025570Y059413D03*
X026570Y059413D03*
X027570Y059413D03*
X027570Y060413D03*
X026570Y060413D03*
X025570Y060413D03*
X028570Y060413D03*
X028570Y059413D03*
X029570Y059413D03*
X030570Y059413D03*
X031570Y059413D03*
X031570Y060413D03*
X030570Y060413D03*
X029570Y060413D03*
X032570Y060413D03*
X032570Y059413D03*
X033570Y059413D03*
X034570Y059413D03*
X035570Y059413D03*
X035570Y060413D03*
X034570Y060413D03*
X033570Y060413D03*
X036570Y060413D03*
X036570Y059413D03*
X037570Y059413D03*
X038570Y059413D03*
X038570Y060413D03*
X037570Y060413D03*
X039570Y060413D03*
X039570Y059413D03*
X040570Y059413D03*
X041570Y059413D03*
X042570Y059413D03*
X042570Y060413D03*
X041570Y060413D03*
X040570Y060413D03*
X039550Y064213D03*
X038550Y064113D03*
X037550Y064213D03*
X037570Y067413D03*
X036570Y067413D03*
X036570Y068413D03*
X037570Y068413D03*
X038570Y068413D03*
X038570Y067413D03*
X039570Y067413D03*
X040570Y067413D03*
X041570Y067413D03*
X042570Y067413D03*
X042570Y068413D03*
X041570Y068413D03*
X040570Y068413D03*
X039570Y068413D03*
X035570Y068413D03*
X035570Y067413D03*
X034570Y067413D03*
X033570Y067413D03*
X032570Y067413D03*
X032570Y068413D03*
X033570Y068413D03*
X034570Y068413D03*
X031570Y068413D03*
X031570Y067413D03*
X030570Y067413D03*
X029570Y067413D03*
X028570Y067413D03*
X028570Y068413D03*
X029570Y068413D03*
X030570Y068413D03*
X027570Y068413D03*
X027570Y067413D03*
X026570Y067413D03*
X025570Y067413D03*
X024570Y067413D03*
X024570Y068413D03*
X025570Y068413D03*
X026570Y068413D03*
X023570Y068413D03*
X023570Y067413D03*
X022570Y067413D03*
X021570Y067413D03*
X020570Y067413D03*
X020570Y068413D03*
X021570Y068413D03*
X022570Y068413D03*
X019570Y068413D03*
X019570Y067413D03*
X018570Y067413D03*
X017570Y067413D03*
X017570Y068413D03*
X018570Y068413D03*
X016570Y068413D03*
X016570Y067413D03*
X015570Y067413D03*
X014570Y067413D03*
X013570Y067413D03*
X013570Y068413D03*
X014570Y068413D03*
X015570Y068413D03*
X012570Y068413D03*
X012570Y067413D03*
X011570Y067413D03*
X011570Y068413D03*
X002780Y059363D03*
X002680Y058363D03*
X002780Y057363D03*
X002680Y056363D03*
X002780Y055363D03*
X002680Y054363D03*
X002780Y053363D03*
X002680Y052363D03*
X011570Y044413D03*
X011570Y043413D03*
X012570Y043413D03*
X012570Y044413D03*
X013570Y044413D03*
X013570Y043413D03*
X014570Y043413D03*
X015570Y043413D03*
X016570Y043413D03*
X016570Y044413D03*
X015570Y044413D03*
X014570Y044413D03*
X017570Y044413D03*
X017570Y043413D03*
X018570Y043413D03*
X019570Y043413D03*
X019570Y044413D03*
X018570Y044413D03*
X027340Y020153D03*
D18*
X047070Y041548D03*
X047070Y046278D03*
X047070Y049548D03*
X047070Y054278D03*
X047070Y057548D03*
X047070Y062278D03*
X047070Y065548D03*
X047070Y070278D03*
X007070Y070278D03*
X007070Y065548D03*
X007070Y062278D03*
X007070Y057548D03*
X007070Y054278D03*
X007070Y049548D03*
X007070Y046278D03*
X007070Y041548D03*
D19*
X011666Y035813D03*
X011666Y035113D03*
X012374Y035113D03*
X012374Y035813D03*
X013866Y025513D03*
X014574Y025513D03*
X044386Y023133D03*
X045094Y023133D03*
X051886Y022643D03*
X052594Y022643D03*
X052784Y010843D03*
X052784Y010143D03*
X052076Y010143D03*
X052076Y010843D03*
D20*
X053230Y019599D03*
X053230Y020308D03*
X045940Y022589D03*
X045940Y023298D03*
X040710Y033209D03*
X040710Y033918D03*
X029510Y033618D03*
X029510Y032909D03*
X013860Y026968D03*
X013860Y026259D03*
X012320Y027759D03*
X012320Y028468D03*
X011720Y029159D03*
X011720Y029868D03*
X011720Y030359D03*
X011720Y031068D03*
X012320Y031759D03*
X012320Y032468D03*
X012320Y033259D03*
X012320Y033968D03*
X012320Y036959D03*
X012320Y037668D03*
X053020Y037558D03*
X053020Y036849D03*
X053410Y043259D03*
X053410Y043968D03*
D21*
X007128Y011139D03*
X008703Y011139D03*
X010278Y011139D03*
X011853Y011139D03*
X013427Y011139D03*
X015002Y011139D03*
X016577Y011139D03*
X018152Y011139D03*
X017364Y012713D03*
X015790Y012713D03*
X014215Y012713D03*
X012640Y012713D03*
X011065Y012713D03*
X009490Y012713D03*
X007916Y012713D03*
X008703Y014288D03*
X010278Y014288D03*
X011853Y014288D03*
X013427Y014288D03*
X015002Y014288D03*
X016577Y014288D03*
X018152Y014288D03*
X007128Y014288D03*
X031759Y014298D03*
X033333Y014298D03*
X034908Y014298D03*
X036483Y014298D03*
X038058Y014298D03*
X039633Y014298D03*
X041207Y014298D03*
X042782Y014298D03*
X044357Y014298D03*
X045932Y014298D03*
X047507Y014298D03*
X049081Y014298D03*
X048294Y012723D03*
X046719Y012723D03*
X045144Y012723D03*
X043570Y012723D03*
X041995Y012723D03*
X040420Y012723D03*
X038845Y012723D03*
X037270Y012723D03*
X035696Y012723D03*
X034121Y012723D03*
X032546Y012723D03*
X033333Y011149D03*
X031759Y011149D03*
X034908Y011149D03*
X036483Y011149D03*
X038058Y011149D03*
X039633Y011149D03*
X041207Y011149D03*
X042782Y011149D03*
X044357Y011149D03*
X045932Y011149D03*
X047507Y011149D03*
X049081Y011149D03*
D22*
X051640Y012526D03*
X029200Y012526D03*
D23*
X020711Y012516D03*
X004569Y012516D03*
D24*
X010259Y046233D03*
X011361Y046233D03*
X011341Y054133D03*
X010239Y054133D03*
D25*
X030400Y033743D02*
X031040Y033743D01*
X030940Y032743D02*
X030300Y032743D01*
X030400Y031743D02*
X031040Y031743D01*
X030940Y030743D02*
X030300Y030743D01*
X030400Y029743D02*
X031040Y029743D01*
D26*
X027120Y029799D03*
X027120Y030468D03*
X024520Y030268D03*
X024520Y029599D03*
D27*
X014594Y024907D03*
X013846Y024907D03*
X014220Y024080D03*
X051876Y022004D03*
X052624Y022004D03*
X052250Y021177D03*
D28*
X052240Y020253D03*
X051740Y020253D03*
X051240Y020253D03*
X050740Y020253D03*
X050740Y018193D03*
X051240Y018193D03*
X051740Y018193D03*
X052240Y018193D03*
X053870Y014193D03*
X054370Y014193D03*
X054870Y014193D03*
X055370Y014193D03*
X055370Y012133D03*
X054870Y012133D03*
X054370Y012133D03*
X053870Y012133D03*
D29*
X040710Y031670D03*
X040710Y032457D03*
X040690Y034600D03*
X040690Y035387D03*
X053420Y041770D03*
X053420Y042557D03*
X053410Y044710D03*
X053410Y045497D03*
D30*
X015620Y025958D03*
X015620Y024068D03*
D31*
X015865Y029413D03*
X015865Y031013D03*
X013975Y031013D03*
X013975Y029413D03*
X013975Y034613D03*
X013975Y036213D03*
X015865Y036213D03*
X015865Y034613D03*
D32*
X016765Y033937D03*
X016765Y035413D03*
X016765Y036890D03*
X016765Y031690D03*
X016765Y030213D03*
X016765Y028737D03*
X016765Y026490D03*
X016765Y023537D03*
X010741Y023557D03*
X008753Y023557D03*
X006765Y023557D03*
X006765Y026490D03*
X008753Y026490D03*
X010741Y026490D03*
X010741Y028757D03*
X008753Y028757D03*
X006765Y028757D03*
X006765Y031690D03*
X008753Y031690D03*
X010741Y031690D03*
X010741Y033957D03*
X008753Y033957D03*
X006765Y033957D03*
X006765Y036890D03*
X008753Y036890D03*
X010741Y036890D03*
D33*
X012926Y036939D03*
X012926Y037687D03*
X013753Y037313D03*
X012926Y033987D03*
X012926Y033239D03*
X012926Y032487D03*
X012926Y031739D03*
X013753Y032113D03*
X013753Y033613D03*
X012926Y028487D03*
X012926Y027739D03*
X013753Y028113D03*
D34*
X045170Y022063D03*
X045170Y021563D03*
X045170Y021063D03*
X045170Y020563D03*
X047230Y020563D03*
X047230Y021063D03*
X047230Y021563D03*
X047230Y022063D03*
D35*
X048103Y026537D03*
X048103Y028190D03*
X045937Y028190D03*
X045937Y026537D03*
X022027Y019886D03*
X020373Y019886D03*
X020373Y017721D03*
X022027Y017721D03*
D36*
X023877Y017902D03*
X018523Y017902D03*
X046118Y024686D03*
X046118Y030040D03*
D37*
X027340Y019053D03*
X021530Y036113D03*
X019110Y036113D03*
X040550Y064113D03*
D38*
X038875Y025263D03*
X038205Y025263D03*
X033305Y025263D03*
X032635Y025263D03*
X028435Y023923D03*
X027765Y023923D03*
D39*
X012850Y024643D03*
X012250Y024643D03*
X011650Y024643D03*
M02*
