%
M48
M72
T01C0.0197
T02C0.0236
T03C0.0400
T04C0.0551
T05C0.0866
T06C0.1134
T07C0.1142
T08C0.1181
T09C0.1300
T10C0.1500
%
T01
X9180Y18093
X9180Y18493
X8830Y18293
X9530Y18293
X9880Y18093
X9880Y18493
X10230Y18293
X14690Y26383
X5250Y34723
X24570Y48453
X38670Y34963
X38670Y34403
X38030Y31813
X38430Y31513
X38030Y31233
X38430Y30973
X38030Y30693
X37630Y30463
X38030Y30173
X38430Y30433
X38430Y29893
X38030Y29613
X37630Y29863
X37630Y29313
X38030Y29053
X38430Y29353
X37630Y30963
X37630Y31513
X41550Y33893
X46950Y35973
X46950Y36533
X54020Y41163
X54120Y42663
X37320Y25123
X36470Y25083
X35450Y24183
X34930Y23843
X34410Y23843
X33929Y24523
X31910Y25103
X30900Y24203
X29880Y24163
X29400Y24543
X27720Y24583
X29430Y19493
X29430Y19093
X29830Y19293
X30230Y19093
X30230Y19493
X30630Y19293
X29030Y19293
X32930Y19293
X33280Y19093
X33280Y19493
X33630Y19293
X33980Y19093
X33980Y19493
X34330Y19293
X38830Y19293
X39180Y19093
X39180Y19493
X39530Y19293
X39880Y19093
X39880Y19493
X40230Y19293
X42110Y18433
X41260Y23643
X40800Y24283
X40260Y23843
X39280Y24503
X38540Y23503
X19170Y63913
X16820Y64413
X14370Y64263
X12970Y63963
X34720Y71613
X44960Y71093
T02
X45670Y67823
X41670Y66583
X40050Y66743
X39030Y66803
X38050Y66783
X36690Y66663
X37090Y62583
X41690Y62523
X52110Y58693
X53430Y56603
X55030Y56603
X55030Y55783
X55030Y54983
X55030Y54183
X55030Y53363
X53450Y51983
X53010Y52363
X52690Y51883
X52330Y52383
X51950Y51943
X51570Y52403
X51330Y46953
X52130Y46953
X53930Y46593
X50300Y44893
X53130Y38343
X54020Y37683
X53680Y36193
X55470Y34803
X55430Y32083
X55430Y31123
X55440Y28563
X54920Y26513
X54420Y26513
X54620Y26013
X54620Y25513
X55120Y25513
X55120Y25013
X55120Y24513
X55120Y24013
X55120Y23513
X55120Y23013
X55120Y22463
X55120Y26013
X49160Y25073
X45550Y23753
X45270Y22513
X41480Y21693
X37980Y21593
X36630Y22993
X35130Y21493
X32180Y21493
X31880Y22943
X29280Y23693
X28250Y27563
X28690Y27973
X27020Y28983
X26300Y28523
X24500Y28843
X23520Y27823
X24540Y30983
X24290Y33093
X26480Y35333
X26440Y36893
X28200Y36963
X28900Y36943
X28900Y35263
X28320Y35283
X27180Y31183
X32670Y35273
X34720Y37823
X34220Y38193
X35550Y38843
X34990Y40643
X31200Y40783
X26420Y40663
X25800Y41503
X25340Y40763
X23280Y41433
X23160Y40283
X21570Y40413
X21520Y41123
X18570Y40433
X17570Y41373
X19900Y46033
X21820Y45443
X23310Y45953
X14570Y53463
X18070Y56843
X19070Y56373
X21520Y55903
X22190Y55513
X14570Y57923
X13570Y58573
X8920Y62353
X8940Y63013
X8960Y63653
X8440Y54353
X8960Y53833
X11760Y41093
X11770Y38003
X10550Y35813
X10910Y35083
X13130Y34643
X14890Y35403
X11610Y32663
X10820Y30423
X12530Y29983
X13010Y29143
X14810Y30213
X18210Y30863
X18210Y33563
X21180Y32543
X20180Y23493
X22480Y23493
X22310Y22273
X24380Y22493
X24480Y23493
X25560Y18173
X31230Y18493
X36780Y18443
X43240Y15833
X43600Y15393
X50120Y18993
X53170Y15633
X54900Y13283
X54220Y12983
X44130Y28483
X44130Y28983
X41360Y31013
X46380Y32163
X46280Y34093
X48180Y30093
X42090Y36873
X40870Y37883
X40450Y38323
X40140Y38883
X35660Y36113
X35870Y28243
X35190Y28193
X49660Y37693
X36530Y47353
X35790Y48233
X37090Y48493
X35240Y46313
X10650Y27543
X12830Y23623
X13670Y23423
X13000Y20983
X15680Y20953
X12530Y18143
X9220Y20963
X8230Y19773
X6330Y21263
X6430Y18193
X2290Y20843
X1230Y29343
X5230Y29383
X1230Y35293
T03
X11570Y43413
X12570Y43413
X12570Y44413
X11570Y44413
X13570Y44413
X13570Y43413
X14570Y43413
X15570Y43413
X16570Y43413
X16570Y44413
X15570Y44413
X14570Y44413
X17570Y44413
X17570Y43413
X18570Y43413
X19570Y43413
X19570Y44413
X18570Y44413
X20570Y44413
X20570Y43413
X21570Y43413
X22570Y43413
X23570Y43413
X23570Y44413
X22570Y44413
X21570Y44413
X24570Y44413
X24570Y43413
X25570Y43413
X26570Y43413
X27570Y43413
X27570Y44413
X26570Y44413
X25570Y44413
X28570Y44413
X28570Y43413
X29570Y43413
X30570Y43413
X31570Y43413
X31570Y44413
X30570Y44413
X29570Y44413
X32570Y44413
X32570Y43413
X33570Y43413
X34570Y43413
X35570Y43413
X35570Y44413
X34570Y44413
X33570Y44413
X36570Y44413
X36570Y43413
X37570Y43413
X38570Y43413
X38570Y44413
X37570Y44413
X39570Y44413
X39570Y43413
X40570Y43413
X41570Y43413
X42570Y43413
X42570Y44413
X41570Y44413
X40570Y44413
X40570Y51413
X39570Y51413
X39570Y52413
X40570Y52413
X41570Y52413
X41570Y51413
X42570Y51413
X42570Y52413
X38570Y52413
X38570Y51413
X37570Y51413
X36570Y51413
X36570Y52413
X37570Y52413
X35570Y52413
X35570Y51413
X34570Y51413
X33570Y51413
X32570Y51413
X32570Y52413
X33570Y52413
X34570Y52413
X31570Y52413
X31570Y51413
X30570Y51413
X29570Y51413
X28570Y51413
X28570Y52413
X29570Y52413
X30570Y52413
X27570Y52413
X27570Y51413
X26570Y51413
X25570Y51413
X24570Y51413
X24570Y52413
X25570Y52413
X26570Y52413
X23570Y52413
X23570Y51413
X22570Y51413
X21570Y51413
X20570Y51413
X20570Y52413
X21570Y52413
X22570Y52413
X19570Y52413
X19570Y51413
X18570Y51413
X17570Y51413
X17570Y52413
X18570Y52413
X16570Y52413
X16570Y51413
X15570Y51413
X14570Y51413
X13570Y51413
X13570Y52413
X14570Y52413
X15570Y52413
X12570Y52413
X12570Y51413
X11570Y51413
X11570Y52413
X11570Y59413
X12570Y59413
X12570Y60413
X11570Y60413
X13570Y60413
X13570Y59413
X14570Y59413
X15570Y59413
X16570Y59413
X16570Y60413
X15570Y60413
X14570Y60413
X17570Y60413
X17570Y59413
X18570Y59413
X19570Y59413
X19570Y60413
X18570Y60413
X20570Y60413
X20570Y59413
X21570Y59413
X22570Y59413
X23570Y59413
X23570Y60413
X22570Y60413
X21570Y60413
X24570Y60413
X24570Y59413
X25570Y59413
X26570Y59413
X27570Y59413
X27570Y60413
X26570Y60413
X25570Y60413
X28570Y60413
X28570Y59413
X29570Y59413
X30570Y59413
X31570Y59413
X31570Y60413
X30570Y60413
X29570Y60413
X32570Y60413
X32570Y59413
X33570Y59413
X34570Y59413
X35570Y59413
X35570Y60413
X34570Y60413
X33570Y60413
X36570Y60413
X36570Y59413
X37570Y59413
X38570Y59413
X38570Y60413
X37570Y60413
X39570Y60413
X39570Y59413
X40570Y59413
X41570Y59413
X42570Y59413
X42570Y60413
X41570Y60413
X40570Y60413
X40550Y64113
X39550Y64213
X38550Y64113
X37550Y64213
X37570Y67413
X36570Y67413
X36570Y68413
X37570Y68413
X38570Y68413
X38570Y67413
X39570Y67413
X40570Y67413
X41570Y67413
X42570Y67413
X42570Y68413
X41570Y68413
X40570Y68413
X39570Y68413
X35570Y68413
X35570Y67413
X34570Y67413
X33570Y67413
X32570Y67413
X32570Y68413
X33570Y68413
X34570Y68413
X31570Y68413
X31570Y67413
X30570Y67413
X29570Y67413
X28570Y67413
X28570Y68413
X29570Y68413
X30570Y68413
X27570Y68413
X27570Y67413
X26570Y67413
X25570Y67413
X24570Y67413
X24570Y68413
X25570Y68413
X26570Y68413
X23570Y68413
X23570Y67413
X22570Y67413
X21570Y67413
X20570Y67413
X20570Y68413
X21570Y68413
X22570Y68413
X19570Y68413
X19570Y67413
X18570Y67413
X17570Y67413
X17570Y68413
X18570Y68413
X16570Y68413
X16570Y67413
X15570Y67413
X14570Y67413
X13570Y67413
X13570Y68413
X14570Y68413
X15570Y68413
X12570Y68413
X12570Y67413
X11570Y67413
X11570Y68413
X2780Y59363
X2680Y58363
X2780Y57363
X2680Y56363
X2780Y55363
X2680Y54363
X2780Y53363
X2680Y52363
X19110Y36113
X19110Y35013
X21530Y35013
X21530Y36113
X30720Y33743
X30620Y32743
X30720Y31743
X30620Y30743
X30720Y29743
X27340Y20153
X27340Y19053
T04
X22027Y19886
X20373Y19886
X20373Y17721
X22027Y17721
X16765Y23537
X16765Y26490
X16765Y28737
X16765Y30213
X16765Y31690
X16765Y33937
X16765Y35413
X16765Y36890
X10741Y36890
X8753Y36890
X6765Y36890
X6765Y33957
X8753Y33957
X10741Y33957
X10741Y31690
X8753Y31690
X6765Y31690
X6765Y28757
X8753Y28757
X10741Y28757
X10741Y26490
X8753Y26490
X6765Y26490
X6765Y23557
X8753Y23557
X10741Y23557
X45937Y26537
X45937Y28190
X48103Y28190
X48103Y26537
T05
X7128Y11139
X8703Y11139
X10278Y11139
X11853Y11139
X13427Y11139
X15002Y11139
X16577Y11139
X18152Y11139
X17364Y12713
X15790Y12713
X14215Y12713
X12640Y12713
X11065Y12713
X9490Y12713
X7916Y12713
X8703Y14288
X10278Y14288
X11853Y14288
X13427Y14288
X15002Y14288
X16577Y14288
X18152Y14288
X7128Y14288
X31759Y14298
X33333Y14298
X34908Y14298
X36483Y14298
X38058Y14298
X39633Y14298
X41207Y14298
X42782Y14298
X44357Y14298
X45932Y14298
X47507Y14298
X49081Y14298
X48294Y12723
X46719Y12723
X45144Y12723
X43570Y12723
X41995Y12723
X40420Y12723
X38845Y12723
X37270Y12723
X35696Y12723
X34121Y12723
X32546Y12723
X33333Y11149
X31759Y11149
X34908Y11149
X36483Y11149
X38058Y11149
X39633Y11149
X41207Y11149
X42782Y11149
X44357Y11149
X45932Y11149
X47507Y11149
X49081Y11149
T06
X51640Y12526
X29200Y12526
T07
X20711Y12516
X4569Y12516
T08
X18523Y17902
X23877Y17902
X46118Y24686
X46118Y30040
T09
X54570Y16863
X27070Y55913
X2180Y70893
X54180Y70893
X2870Y17513
T10
X7070Y41548
X7070Y46278
X7070Y49548
X7070Y54278
X7070Y57548
X7070Y62278
X7070Y65548
X7070Y70278
X47070Y70278
X47070Y65548
X47070Y62278
X47070Y57548
X47070Y54278
X47070Y49548
X47070Y46278
X47070Y41548
M30
