%
M48
M72
T01C0.0197
T02C0.0236
T03C0.0400
%
T01
X20806Y26213
X26876Y31733
X11076Y32663
T02
X9976Y12563
X11376Y13773
X10126Y9263
X16316Y14993
X15936Y17923
X14626Y19213
X15076Y23013
X15326Y23613
X13526Y23663
X13326Y24363
X11426Y23513
X11126Y22343
X11376Y18723
X8616Y25773
X8506Y26683
X8466Y27443
X8466Y29193
X9206Y32213
X8356Y34633
X8446Y35453
X9076Y36663
X9026Y37613
X12046Y36703
X12796Y33913
X13466Y33863
X13486Y33133
X13122Y32509
X14076Y31733
X12636Y31493
X12426Y30253
X11856Y29463
X11376Y27563
X13386Y27473
X15476Y27463
X16026Y27613
X16756Y27693
X18126Y26063
X18826Y26263
X18126Y24663
X18826Y23863
X18026Y23263
X18426Y21613
X20406Y22973
X22446Y26193
X21376Y28663
X21526Y30363
X21176Y31263
X22956Y33393
X23426Y31863
X25076Y31413
X25576Y30163
X25726Y28463
X25176Y27963
X26276Y27063
X28676Y28363
X28516Y30133
X28176Y31663
X29266Y33183
X30176Y33713
X31576Y33763
X29876Y31013
X31776Y29463
X27926Y24363
X28126Y20963
X27176Y20913
X29826Y18963
X30726Y19563
X29426Y17413
X30126Y16913
X28926Y15363
X28326Y14363
X28426Y12913
X32916Y13403
X32986Y15513
X21376Y18763
X18776Y18363
X17976Y29863
X17286Y29813
X17826Y30663
X18166Y31533
X19776Y33863
X20576Y35963
X15756Y37073
X25926Y33763
T03
X26876Y35663
X28376Y35663
X30876Y34663
X31876Y35663
X30876Y36663
X30876Y32663
X31876Y31663
X30876Y30663
X30876Y28663
X31876Y27663
X30876Y26663
X30976Y23663
X31976Y22663
X30976Y21663
X32176Y20063
X32276Y19063
X32176Y18063
X32276Y17063
X32176Y16063
X26576Y22763
X26576Y23863
X28226Y29213
X27526Y32113
X28876Y32163
X24276Y36213
X24276Y37313
X21676Y37313
X21676Y36213
X19876Y23513
M30
