G75*
%MOIN*%
%OFA0B0*%
%FSLAX24Y24*%
%IPPOS*%
%LPD*%
%AMOC8*
5,1,8,0,0,1.08239X$1,22.5*
%
%ADD10C,0.0050*%
D10*
X002876Y002663D02*
X002876Y041663D01*
X029976Y041663D01*
X029976Y040763D01*
X029978Y040724D01*
X029984Y040685D01*
X029993Y040647D01*
X030006Y040610D01*
X030023Y040574D01*
X030043Y040541D01*
X030067Y040509D01*
X030093Y040480D01*
X030122Y040454D01*
X030154Y040430D01*
X030187Y040410D01*
X030223Y040393D01*
X030260Y040380D01*
X030298Y040371D01*
X030337Y040365D01*
X030376Y040363D01*
X030415Y040365D01*
X030454Y040371D01*
X030492Y040380D01*
X030529Y040393D01*
X030565Y040410D01*
X030598Y040430D01*
X030630Y040454D01*
X030659Y040480D01*
X030685Y040509D01*
X030709Y040541D01*
X030729Y040574D01*
X030746Y040610D01*
X030759Y040647D01*
X030768Y040685D01*
X030774Y040724D01*
X030776Y040763D01*
X030776Y041663D01*
X033376Y041663D01*
X033376Y002663D01*
X030776Y002663D01*
X030776Y003663D01*
X030774Y003702D01*
X030768Y003741D01*
X030759Y003779D01*
X030746Y003816D01*
X030729Y003852D01*
X030709Y003885D01*
X030685Y003917D01*
X030659Y003946D01*
X030630Y003972D01*
X030598Y003996D01*
X030565Y004016D01*
X030529Y004033D01*
X030492Y004046D01*
X030454Y004055D01*
X030415Y004061D01*
X030376Y004063D01*
X030337Y004061D01*
X030298Y004055D01*
X030260Y004046D01*
X030223Y004033D01*
X030187Y004016D01*
X030154Y003996D01*
X030122Y003972D01*
X030093Y003946D01*
X030067Y003917D01*
X030043Y003885D01*
X030023Y003852D01*
X030006Y003816D01*
X029993Y003779D01*
X029984Y003741D01*
X029978Y003702D01*
X029976Y003663D01*
X029976Y002663D01*
X002876Y002663D01*
M02*
