G75*
%MOIN*%
%OFA0B0*%
%FSLAX24Y24*%
%IPPOS*%
%LPD*%
%AMOC8*
5,1,8,0,0,1.08239X$1,22.5*
%
%ADD10C,0.0100*%
%ADD11C,0.0320*%
%ADD12R,0.0340X0.0300*%
%ADD13R,0.0118X0.0059*%
%ADD14R,0.0118X0.0118*%
%ADD15R,0.0079X0.0079*%
%ADD16C,0.0240*%
%ADD17R,0.0540X0.0020*%
%ADD18R,0.1000X0.0020*%
%ADD19R,0.1360X0.0020*%
%ADD20R,0.0740X0.0020*%
%ADD21R,0.0680X0.0020*%
%ADD22R,0.0560X0.0020*%
%ADD23R,0.0480X0.0020*%
%ADD24R,0.0440X0.0020*%
%ADD25R,0.0420X0.0020*%
%ADD26R,0.0380X0.0020*%
%ADD27R,0.0360X0.0020*%
%ADD28R,0.0320X0.0020*%
%ADD29R,0.0300X0.0020*%
%ADD30R,0.0280X0.0020*%
%ADD31R,0.0260X0.0020*%
%ADD32R,0.0240X0.0020*%
%ADD33R,0.0220X0.0020*%
%ADD34R,0.0200X0.0020*%
%ADD35R,0.0180X0.0020*%
%ADD36R,0.0160X0.0020*%
%ADD37R,0.0140X0.0020*%
%ADD38R,0.0120X0.0020*%
%ADD39R,0.0100X0.0020*%
%ADD40R,0.0080X0.0020*%
%ADD41R,0.0060X0.0020*%
%ADD42R,0.0700X0.0020*%
%ADD43R,0.1040X0.0020*%
%ADD44R,0.1320X0.0020*%
%ADD45R,0.0820X0.0020*%
%ADD46R,0.0640X0.0020*%
%ADD47R,0.0500X0.0020*%
%ADD48R,0.0400X0.0020*%
%ADD49R,0.0520X0.0020*%
%ADD50R,0.0620X0.0020*%
%ADD51R,0.0460X0.0020*%
%ADD52R,0.0340X0.0020*%
%ADD53R,0.0040X0.0020*%
%ADD54R,0.0020X0.0020*%
%ADD55R,0.0660X0.0020*%
%ADD56R,0.0070X0.0003*%
%ADD57R,0.0065X0.0003*%
%ADD58R,0.0105X0.0003*%
%ADD59R,0.0095X0.0003*%
%ADD60R,0.0133X0.0003*%
%ADD61R,0.0118X0.0003*%
%ADD62R,0.0150X0.0003*%
%ADD63R,0.0138X0.0003*%
%ADD64R,0.0170X0.0003*%
%ADD65R,0.0153X0.0003*%
%ADD66R,0.0123X0.0003*%
%ADD67R,0.0125X0.0003*%
%ADD68R,0.0127X0.0003*%
%ADD69R,0.0182X0.0003*%
%ADD70R,0.0115X0.0003*%
%ADD71R,0.0168X0.0003*%
%ADD72R,0.0080X0.0003*%
%ADD73R,0.0430X0.0003*%
%ADD74R,0.0140X0.0003*%
%ADD75R,0.0198X0.0003*%
%ADD76R,0.0180X0.0003*%
%ADD77R,0.0077X0.0003*%
%ADD78R,0.0143X0.0003*%
%ADD79R,0.0210X0.0003*%
%ADD80R,0.0193X0.0003*%
%ADD81R,0.0145X0.0003*%
%ADD82R,0.0222X0.0003*%
%ADD83R,0.0203X0.0003*%
%ADD84R,0.0233X0.0003*%
%ADD85R,0.0213X0.0003*%
%ADD86R,0.0147X0.0003*%
%ADD87R,0.0120X0.0003*%
%ADD88R,0.0243X0.0003*%
%ADD89R,0.0083X0.0003*%
%ADD90R,0.0253X0.0003*%
%ADD91R,0.0230X0.0003*%
%ADD92R,0.0262X0.0003*%
%ADD93R,0.0135X0.0003*%
%ADD94R,0.0240X0.0003*%
%ADD95R,0.0270X0.0003*%
%ADD96R,0.0248X0.0003*%
%ADD97R,0.0155X0.0003*%
%ADD98R,0.0278X0.0003*%
%ADD99R,0.0255X0.0003*%
%ADD100R,0.0288X0.0003*%
%ADD101R,0.0085X0.0003*%
%ADD102R,0.0295X0.0003*%
%ADD103R,0.0158X0.0003*%
%ADD104R,0.0302X0.0003*%
%ADD105R,0.0275X0.0003*%
%ADD106R,0.0308X0.0003*%
%ADD107R,0.0283X0.0003*%
%ADD108R,0.0160X0.0003*%
%ADD109R,0.0315X0.0003*%
%ADD110R,0.0163X0.0003*%
%ADD111R,0.0320X0.0003*%
%ADD112R,0.0293X0.0003*%
%ADD113R,0.0328X0.0003*%
%ADD114R,0.0300X0.0003*%
%ADD115R,0.0088X0.0003*%
%ADD116R,0.0165X0.0003*%
%ADD117R,0.0335X0.0003*%
%ADD118R,0.0305X0.0003*%
%ADD119R,0.0340X0.0003*%
%ADD120R,0.0310X0.0003*%
%ADD121R,0.0345X0.0003*%
%ADD122R,0.0318X0.0003*%
%ADD123R,0.0350X0.0003*%
%ADD124R,0.0323X0.0003*%
%ADD125R,0.0173X0.0003*%
%ADD126R,0.0355X0.0003*%
%ADD127R,0.0325X0.0003*%
%ADD128R,0.0090X0.0003*%
%ADD129R,0.0362X0.0003*%
%ADD130R,0.0330X0.0003*%
%ADD131R,0.0175X0.0003*%
%ADD132R,0.0367X0.0003*%
%ADD133R,0.0177X0.0003*%
%ADD134R,0.0370X0.0003*%
%ADD135R,0.0343X0.0003*%
%ADD136R,0.0375X0.0003*%
%ADD137R,0.0380X0.0003*%
%ADD138R,0.0385X0.0003*%
%ADD139R,0.0445X0.0003*%
%ADD140R,0.0390X0.0003*%
%ADD141R,0.0447X0.0003*%
%ADD142R,0.0393X0.0003*%
%ADD143R,0.0450X0.0003*%
%ADD144R,0.0185X0.0003*%
%ADD145R,0.0398X0.0003*%
%ADD146R,0.0452X0.0003*%
%ADD147R,0.0400X0.0003*%
%ADD148R,0.0187X0.0003*%
%ADD149R,0.0408X0.0003*%
%ADD150R,0.0457X0.0003*%
%ADD151R,0.0190X0.0003*%
%ADD152R,0.0410X0.0003*%
%ADD153R,0.0413X0.0003*%
%ADD154R,0.0460X0.0003*%
%ADD155R,0.0418X0.0003*%
%ADD156R,0.0462X0.0003*%
%ADD157R,0.0195X0.0003*%
%ADD158R,0.0420X0.0003*%
%ADD159R,0.0423X0.0003*%
%ADD160R,0.0465X0.0003*%
%ADD161R,0.0428X0.0003*%
%ADD162R,0.0468X0.0003*%
%ADD163R,0.0200X0.0003*%
%ADD164R,0.0217X0.0003*%
%ADD165R,0.0205X0.0003*%
%ADD166R,0.0208X0.0003*%
%ADD167R,0.0215X0.0003*%
%ADD168R,0.0220X0.0003*%
%ADD169R,0.0225X0.0003*%
%ADD170R,0.0227X0.0003*%
%ADD171R,0.0130X0.0003*%
%ADD172R,0.0235X0.0003*%
%ADD173R,0.0238X0.0003*%
%ADD174R,0.0245X0.0003*%
%ADD175R,0.0250X0.0003*%
%ADD176R,0.0113X0.0003*%
%ADD177R,0.0440X0.0003*%
%ADD178R,0.0435X0.0003*%
%ADD179R,0.0432X0.0003*%
%ADD180R,0.0425X0.0003*%
%ADD181R,0.0415X0.0003*%
%ADD182R,0.0405X0.0003*%
%ADD183R,0.0395X0.0003*%
%ADD184R,0.0382X0.0003*%
%ADD185R,0.0403X0.0003*%
%ADD186R,0.0437X0.0003*%
%ADD187R,0.0455X0.0003*%
%ADD188R,0.0442X0.0003*%
%ADD189R,0.0388X0.0003*%
%ADD190R,0.0377X0.0003*%
%ADD191R,0.0372X0.0003*%
%ADD192R,0.0365X0.0003*%
%ADD193R,0.0360X0.0003*%
%ADD194R,0.0357X0.0003*%
%ADD195R,0.0352X0.0003*%
%ADD196R,0.0348X0.0003*%
%ADD197R,0.0338X0.0003*%
%ADD198R,0.0333X0.0003*%
%ADD199R,0.0313X0.0003*%
%ADD200R,0.0297X0.0003*%
%ADD201R,0.0290X0.0003*%
%ADD202R,0.0273X0.0003*%
%ADD203R,0.0267X0.0003*%
%ADD204R,0.0257X0.0003*%
%ADD205R,0.0057X0.0003*%
%ADD206R,0.0055X0.0003*%
%ADD207R,0.0005X0.0003*%
%ADD208R,0.0050X0.0200*%
%ADD209C,0.0120*%
%ADD210C,0.0256*%
D10*
X002876Y002663D02*
X002876Y041663D01*
X029976Y041663D01*
X029976Y040763D01*
X029978Y040724D01*
X029984Y040685D01*
X029993Y040647D01*
X030006Y040610D01*
X030023Y040574D01*
X030043Y040541D01*
X030067Y040509D01*
X030093Y040480D01*
X030122Y040454D01*
X030154Y040430D01*
X030187Y040410D01*
X030223Y040393D01*
X030260Y040380D01*
X030298Y040371D01*
X030337Y040365D01*
X030376Y040363D01*
X030415Y040365D01*
X030454Y040371D01*
X030492Y040380D01*
X030529Y040393D01*
X030565Y040410D01*
X030598Y040430D01*
X030630Y040454D01*
X030659Y040480D01*
X030685Y040509D01*
X030709Y040541D01*
X030729Y040574D01*
X030746Y040610D01*
X030759Y040647D01*
X030768Y040685D01*
X030774Y040724D01*
X030776Y040763D01*
X030776Y041663D01*
X033376Y041663D01*
X033376Y002663D01*
X030776Y002663D01*
X030776Y003663D01*
X030774Y003702D01*
X030768Y003741D01*
X030759Y003779D01*
X030746Y003816D01*
X030729Y003852D01*
X030709Y003885D01*
X030685Y003917D01*
X030659Y003946D01*
X030630Y003972D01*
X030598Y003996D01*
X030565Y004016D01*
X030529Y004033D01*
X030492Y004046D01*
X030454Y004055D01*
X030415Y004061D01*
X030376Y004063D01*
X030337Y004061D01*
X030298Y004055D01*
X030260Y004046D01*
X030223Y004033D01*
X030187Y004016D01*
X030154Y003996D01*
X030122Y003972D01*
X030093Y003946D01*
X030067Y003917D01*
X030043Y003885D01*
X030023Y003852D01*
X030006Y003816D01*
X029993Y003779D01*
X029984Y003741D01*
X029978Y003702D01*
X029976Y003663D01*
X029976Y002663D01*
X002876Y002663D01*
X010553Y009417D02*
X010553Y012409D01*
X012590Y012409D01*
X012590Y012419D01*
X012600Y012409D02*
X012600Y009417D01*
X010553Y009417D01*
X010846Y009224D02*
X010846Y008890D01*
X010913Y008823D01*
X011046Y008823D01*
X011113Y008890D01*
X011113Y009224D01*
X011307Y009090D02*
X011440Y009224D01*
X011440Y008823D01*
X011307Y008823D02*
X011573Y008823D01*
X011767Y008890D02*
X012034Y009157D01*
X012034Y008890D01*
X011967Y008823D01*
X011834Y008823D01*
X011767Y008890D01*
X011767Y009157D01*
X011834Y009224D01*
X011967Y009224D01*
X012034Y009157D01*
X010735Y012113D02*
X010737Y012136D01*
X010743Y012159D01*
X010752Y012180D01*
X010765Y012200D01*
X010781Y012217D01*
X010799Y012231D01*
X010819Y012242D01*
X010841Y012250D01*
X010864Y012254D01*
X010888Y012254D01*
X010911Y012250D01*
X010933Y012242D01*
X010953Y012231D01*
X010971Y012217D01*
X010987Y012200D01*
X011000Y012180D01*
X011009Y012159D01*
X011015Y012136D01*
X011017Y012113D01*
X011015Y012090D01*
X011009Y012067D01*
X011000Y012046D01*
X010987Y012026D01*
X010971Y012009D01*
X010953Y011995D01*
X010933Y011984D01*
X010911Y011976D01*
X010888Y011972D01*
X010864Y011972D01*
X010841Y011976D01*
X010819Y011984D01*
X010799Y011995D01*
X010781Y012009D01*
X010765Y012026D01*
X010752Y012046D01*
X010743Y012067D01*
X010737Y012090D01*
X010735Y012113D01*
X011698Y012857D02*
X011934Y012857D01*
X011934Y013330D02*
X011698Y013330D01*
X012526Y013242D02*
X012526Y012975D01*
X012593Y012908D01*
X012726Y012908D01*
X012793Y012975D01*
X012987Y012975D02*
X013053Y012908D01*
X013187Y012908D01*
X013253Y012975D01*
X013253Y013108D01*
X013187Y013175D01*
X013120Y013175D01*
X012987Y013108D01*
X012987Y013309D01*
X013253Y013309D01*
X012793Y013242D02*
X012726Y013309D01*
X012593Y013309D01*
X012526Y013242D01*
X012458Y014507D02*
X012694Y014507D01*
X012694Y014980D02*
X012458Y014980D01*
X013285Y014919D02*
X013285Y014518D01*
X013285Y014652D02*
X013485Y014652D01*
X013552Y014718D01*
X013552Y014852D01*
X013485Y014919D01*
X013285Y014919D01*
X013418Y014652D02*
X013552Y014518D01*
X013745Y014518D02*
X014012Y014518D01*
X013879Y014518D02*
X013879Y014919D01*
X013745Y014785D01*
X014206Y014785D02*
X014273Y014718D01*
X014406Y014718D01*
X014473Y014652D01*
X014473Y014585D01*
X014406Y014518D01*
X014273Y014518D01*
X014206Y014585D01*
X014206Y014652D01*
X014273Y014718D01*
X014206Y014785D02*
X014206Y014852D01*
X014273Y014919D01*
X014406Y014919D01*
X014473Y014852D01*
X014473Y014785D01*
X014406Y014718D01*
X012792Y016783D02*
X012792Y017184D01*
X012592Y016983D01*
X012859Y016983D01*
X012398Y016783D02*
X012132Y016783D01*
X012265Y016783D02*
X012265Y017184D01*
X012132Y017050D01*
X011938Y017184D02*
X011938Y016850D01*
X011871Y016783D01*
X011738Y016783D01*
X011671Y016850D01*
X011671Y017184D01*
X011685Y016583D02*
X011685Y016546D01*
X011685Y016583D02*
X011047Y016583D01*
X011047Y016546D01*
X011047Y015501D02*
X011047Y015463D01*
X011685Y015463D01*
X011685Y015501D01*
X011324Y014980D02*
X011088Y014980D01*
X011088Y014507D02*
X011324Y014507D01*
X010533Y014892D02*
X010266Y014625D01*
X010266Y014558D01*
X010072Y014558D02*
X009805Y014558D01*
X009939Y014558D02*
X009939Y014959D01*
X009805Y014825D01*
X009612Y014758D02*
X009545Y014692D01*
X009345Y014692D01*
X009478Y014692D02*
X009612Y014558D01*
X009612Y014758D02*
X009612Y014892D01*
X009545Y014959D01*
X009345Y014959D01*
X009345Y014558D01*
X010266Y014959D02*
X010533Y014959D01*
X010533Y014892D01*
X010475Y017863D02*
X010742Y018130D01*
X010742Y018197D01*
X010676Y018264D01*
X010542Y018264D01*
X010475Y018197D01*
X010282Y018197D02*
X010215Y018264D01*
X010082Y018264D01*
X010015Y018197D01*
X010015Y017930D01*
X010082Y017863D01*
X010215Y017863D01*
X010282Y017930D01*
X010475Y017863D02*
X010742Y017863D01*
X010936Y017930D02*
X011003Y017863D01*
X011136Y017863D01*
X011203Y017930D01*
X011203Y018197D01*
X011136Y018264D01*
X011003Y018264D01*
X010936Y018197D01*
X010936Y018130D01*
X011003Y018063D01*
X011203Y018063D01*
X013896Y020169D02*
X013963Y020102D01*
X014229Y020102D01*
X014296Y020169D01*
X014296Y020302D01*
X014229Y020369D01*
X014296Y020563D02*
X014296Y020829D01*
X014296Y020696D02*
X013896Y020696D01*
X014029Y020563D01*
X013963Y020369D02*
X013896Y020302D01*
X013896Y020169D01*
X013963Y021023D02*
X013896Y021090D01*
X013896Y021223D01*
X013963Y021290D01*
X014029Y021290D01*
X014096Y021223D01*
X014163Y021290D01*
X014229Y021290D01*
X014296Y021223D01*
X014296Y021090D01*
X014229Y021023D01*
X014096Y021156D02*
X014096Y021223D01*
X014076Y021653D02*
X013809Y021653D01*
X013943Y021653D02*
X013943Y022054D01*
X013809Y021920D01*
X013616Y022054D02*
X013483Y022054D01*
X013549Y022054D02*
X013549Y021720D01*
X013483Y021653D01*
X013416Y021653D01*
X013349Y021720D01*
X013156Y021720D02*
X013089Y021653D01*
X012955Y021653D01*
X012889Y021720D01*
X012955Y021853D02*
X013089Y021853D01*
X013156Y021787D01*
X013156Y021720D01*
X012955Y021853D02*
X012889Y021920D01*
X012889Y021987D01*
X012955Y022054D01*
X013089Y022054D01*
X013156Y021987D01*
X013039Y022853D02*
X013039Y023254D01*
X013239Y023254D01*
X013306Y023187D01*
X013306Y023053D01*
X013239Y022987D01*
X013039Y022987D01*
X012779Y022920D02*
X012779Y023254D01*
X012712Y023254D02*
X012846Y023254D01*
X012779Y022920D02*
X012712Y022853D01*
X012645Y022853D01*
X012579Y022920D01*
X013499Y022853D02*
X013766Y023120D01*
X013766Y023187D01*
X013700Y023254D01*
X013566Y023254D01*
X013499Y023187D01*
X013499Y022853D02*
X013766Y022853D01*
X014011Y022920D02*
X014641Y022920D01*
X014659Y022926D01*
X014677Y022935D01*
X014692Y022947D01*
X014704Y022963D01*
X014713Y022980D01*
X014719Y022999D01*
X014721Y023018D01*
X014719Y023038D01*
X014719Y023589D02*
X014721Y023607D01*
X014720Y023624D01*
X014716Y023641D01*
X014709Y023657D01*
X014699Y023672D01*
X014687Y023684D01*
X014673Y023694D01*
X014657Y023702D01*
X014641Y023707D01*
X014011Y023707D01*
X013995Y023702D01*
X013979Y023694D01*
X013965Y023684D01*
X013953Y023672D01*
X013943Y023657D01*
X013936Y023641D01*
X013932Y023624D01*
X013931Y023607D01*
X013933Y023589D01*
X013933Y023038D02*
X013931Y023020D01*
X013932Y023003D01*
X013936Y022986D01*
X013943Y022970D01*
X013953Y022955D01*
X013965Y022943D01*
X013979Y022933D01*
X013995Y022925D01*
X014011Y022920D01*
X014421Y024394D02*
X014632Y024394D01*
X015086Y024544D02*
X015086Y024882D01*
X015136Y025653D02*
X015003Y025653D01*
X014936Y025720D01*
X015069Y025853D02*
X015136Y025853D01*
X015203Y025787D01*
X015203Y025720D01*
X015136Y025653D01*
X015136Y025853D02*
X015203Y025920D01*
X015203Y025987D01*
X015136Y026054D01*
X015003Y026054D01*
X014936Y025987D01*
X014609Y026054D02*
X014609Y025653D01*
X014742Y025653D02*
X014475Y025653D01*
X014282Y025720D02*
X014282Y026054D01*
X014475Y025920D02*
X014609Y026054D01*
X014282Y025720D02*
X014215Y025653D01*
X014082Y025653D01*
X014015Y025720D01*
X014015Y026054D01*
X013814Y025979D02*
X013814Y025912D01*
X013547Y025645D01*
X013547Y025578D01*
X013353Y025578D02*
X013087Y025578D01*
X013353Y025845D01*
X013353Y025912D01*
X013287Y025979D01*
X013153Y025979D01*
X013087Y025912D01*
X012893Y025912D02*
X012893Y025778D01*
X012826Y025712D01*
X012626Y025712D01*
X012760Y025712D02*
X012893Y025578D01*
X012958Y025350D02*
X013194Y025350D01*
X013194Y024877D02*
X012958Y024877D01*
X012626Y025578D02*
X012626Y025979D01*
X012826Y025979D01*
X012893Y025912D01*
X013547Y025979D02*
X013814Y025979D01*
X013673Y026663D02*
X014079Y026663D01*
X014253Y027033D02*
X014186Y027100D01*
X014186Y027367D01*
X014253Y027434D01*
X014386Y027434D01*
X014453Y027367D01*
X014453Y027100D01*
X014386Y027033D01*
X014253Y027033D01*
X014320Y027167D02*
X014453Y027033D01*
X014647Y027100D02*
X014713Y027033D01*
X014847Y027033D01*
X014913Y027100D01*
X014913Y027167D01*
X014847Y027233D01*
X014780Y027233D01*
X014847Y027233D02*
X014913Y027300D01*
X014913Y027367D01*
X014847Y027434D01*
X014713Y027434D01*
X014647Y027367D01*
X014473Y026663D02*
X014879Y026663D01*
X015272Y026663D02*
X015678Y026663D01*
X015876Y026908D02*
X015876Y027309D01*
X016076Y027309D01*
X016143Y027242D01*
X016143Y027108D01*
X016076Y027042D01*
X015876Y027042D01*
X016010Y027042D02*
X016143Y026908D01*
X016337Y026975D02*
X016403Y026908D01*
X016537Y026908D01*
X016603Y026975D01*
X016603Y027108D01*
X016537Y027175D01*
X016470Y027175D01*
X016337Y027108D01*
X016337Y027309D01*
X016603Y027309D01*
X016797Y027175D02*
X016930Y027309D01*
X016930Y026908D01*
X016797Y026908D02*
X017064Y026908D01*
X016871Y026663D02*
X017277Y026663D01*
X017671Y026663D02*
X018077Y026663D01*
X017606Y027243D02*
X017206Y027243D01*
X017206Y027443D01*
X017273Y027509D01*
X017406Y027509D01*
X017473Y027443D01*
X017473Y027243D01*
X017473Y027376D02*
X017606Y027509D01*
X017606Y027703D02*
X017606Y027970D01*
X017606Y027836D02*
X017206Y027836D01*
X017339Y027703D01*
X017886Y027813D02*
X018286Y027813D01*
X018286Y028080D01*
X018286Y028274D02*
X017886Y028274D01*
X017886Y028541D01*
X017886Y028734D02*
X017886Y028934D01*
X017953Y029001D01*
X018219Y029001D01*
X018286Y028934D01*
X018286Y028734D01*
X017886Y028734D01*
X018086Y028407D02*
X018086Y028274D01*
X018286Y028274D02*
X018286Y028541D01*
X018876Y028695D02*
X018876Y028280D01*
X018876Y027887D02*
X018876Y027472D01*
X018876Y027078D02*
X018876Y026663D01*
X019340Y026663D01*
X019286Y026509D02*
X019486Y026509D01*
X019553Y026442D01*
X019553Y026308D01*
X019486Y026242D01*
X019286Y026242D01*
X019420Y026242D02*
X019553Y026108D01*
X019747Y026175D02*
X019813Y026108D01*
X019947Y026108D01*
X020013Y026175D01*
X020013Y026242D01*
X019947Y026308D01*
X019880Y026308D01*
X019947Y026308D02*
X020013Y026375D01*
X020013Y026442D01*
X019947Y026509D01*
X019813Y026509D01*
X019747Y026442D01*
X019733Y026663D02*
X020197Y026663D01*
X020207Y026509D02*
X020474Y026509D01*
X020474Y026442D01*
X020207Y026175D01*
X020207Y026108D01*
X020260Y025852D02*
X020127Y025718D01*
X020327Y025718D01*
X020394Y025652D01*
X020394Y025585D01*
X020327Y025518D01*
X020194Y025518D01*
X020127Y025585D01*
X020127Y025718D01*
X020260Y025852D02*
X020394Y025919D01*
X020585Y026074D02*
X020585Y025673D01*
X020852Y025673D01*
X021045Y025673D02*
X021312Y025673D01*
X021505Y025673D02*
X021505Y026074D01*
X021706Y026074D01*
X021772Y026007D01*
X021772Y025740D01*
X021706Y025673D01*
X021505Y025673D01*
X021178Y025873D02*
X021045Y025873D01*
X021045Y025673D02*
X021045Y026074D01*
X021312Y026074D01*
X021447Y026663D02*
X021911Y026663D01*
X022304Y026663D02*
X022768Y026663D01*
X022808Y027277D02*
X023044Y027277D01*
X023044Y027750D02*
X022808Y027750D01*
X022121Y028193D02*
X022121Y031533D01*
X022119Y031556D01*
X022114Y031579D01*
X022105Y031601D01*
X022092Y031621D01*
X022077Y031639D01*
X022059Y031654D01*
X022039Y031667D01*
X022017Y031676D01*
X021994Y031681D01*
X021971Y031683D01*
X020581Y031683D01*
X020558Y031681D01*
X020535Y031676D01*
X020513Y031667D01*
X020493Y031654D01*
X020475Y031639D01*
X020460Y031621D01*
X020447Y031601D01*
X020438Y031579D01*
X020433Y031556D01*
X020431Y031533D01*
X020431Y028193D01*
X020433Y028170D01*
X020438Y028147D01*
X020447Y028125D01*
X020460Y028105D01*
X020475Y028087D01*
X020493Y028072D01*
X020513Y028059D01*
X020535Y028050D01*
X020558Y028045D01*
X020581Y028043D01*
X020776Y028043D01*
X021776Y028043D01*
X021971Y028043D01*
X021994Y028045D01*
X022017Y028050D01*
X022039Y028059D01*
X022059Y028072D01*
X022077Y028087D01*
X022092Y028105D01*
X022105Y028125D01*
X022114Y028147D01*
X022119Y028170D01*
X022121Y028193D01*
X021776Y028043D02*
X021774Y028087D01*
X021768Y028130D01*
X021759Y028172D01*
X021746Y028214D01*
X021729Y028254D01*
X021709Y028293D01*
X021686Y028330D01*
X021659Y028364D01*
X021630Y028397D01*
X021597Y028426D01*
X021563Y028453D01*
X021526Y028476D01*
X021487Y028496D01*
X021447Y028513D01*
X021405Y028526D01*
X021363Y028535D01*
X021320Y028541D01*
X021276Y028543D01*
X021232Y028541D01*
X021189Y028535D01*
X021147Y028526D01*
X021105Y028513D01*
X021065Y028496D01*
X021026Y028476D01*
X020989Y028453D01*
X020955Y028426D01*
X020922Y028397D01*
X020893Y028364D01*
X020866Y028330D01*
X020843Y028293D01*
X020823Y028254D01*
X020806Y028214D01*
X020793Y028172D01*
X020784Y028130D01*
X020778Y028087D01*
X020776Y028043D01*
X020594Y027650D02*
X020358Y027650D01*
X020358Y027177D02*
X020594Y027177D01*
X020590Y026663D02*
X021054Y026663D01*
X021966Y026007D02*
X021966Y025940D01*
X022033Y025873D01*
X022166Y025873D01*
X022233Y025807D01*
X022233Y025740D01*
X022166Y025673D01*
X022033Y025673D01*
X021966Y025740D01*
X021966Y025807D01*
X022033Y025873D01*
X022166Y025873D02*
X022233Y025940D01*
X022233Y026007D01*
X022166Y026074D01*
X022033Y026074D01*
X021966Y026007D01*
X022640Y025281D02*
X022640Y025045D01*
X023112Y025045D02*
X023112Y025281D01*
X023516Y025332D02*
X023516Y024994D01*
X023971Y025482D02*
X024182Y025482D01*
X024636Y025332D02*
X024636Y024994D01*
X024940Y025145D02*
X024940Y025381D01*
X025412Y025381D02*
X025412Y025145D01*
X026326Y024363D02*
X026076Y024113D01*
X026076Y023613D01*
X026326Y023363D01*
X026826Y023363D01*
X027076Y023613D01*
X027076Y024113D01*
X026826Y024363D01*
X026326Y024363D01*
X026196Y024663D02*
X026611Y024663D01*
X027004Y024663D02*
X027419Y024663D01*
X027323Y024888D02*
X027190Y025022D01*
X027256Y025022D02*
X027056Y025022D01*
X027056Y024888D02*
X027056Y025289D01*
X027256Y025289D01*
X027323Y025222D01*
X027323Y025088D01*
X027256Y025022D01*
X027517Y024955D02*
X027583Y024888D01*
X027717Y024888D01*
X027783Y024955D01*
X027783Y025022D01*
X027717Y025088D01*
X027650Y025088D01*
X027717Y025088D02*
X027783Y025155D01*
X027783Y025222D01*
X027717Y025289D01*
X027583Y025289D01*
X027517Y025222D01*
X027658Y025427D02*
X027894Y025427D01*
X028044Y025289D02*
X028177Y025289D01*
X028244Y025222D01*
X028244Y025155D01*
X028177Y025088D01*
X028244Y025022D01*
X028244Y024955D01*
X028177Y024888D01*
X028044Y024888D01*
X027977Y024955D01*
X028110Y025088D02*
X028177Y025088D01*
X027977Y025222D02*
X028044Y025289D01*
X028227Y024663D02*
X027813Y024663D01*
X027807Y023924D02*
X027807Y023523D01*
X027807Y023723D02*
X028073Y023723D01*
X028267Y023723D02*
X028534Y023723D01*
X028727Y023657D02*
X028928Y023657D01*
X028994Y023723D01*
X028994Y023857D01*
X028928Y023924D01*
X028727Y023924D01*
X028727Y023523D01*
X029188Y023590D02*
X029254Y023523D01*
X029388Y023523D01*
X029455Y023590D01*
X029455Y023657D01*
X029388Y023723D01*
X029254Y023723D01*
X029188Y023790D01*
X029188Y023857D01*
X029254Y023924D01*
X029388Y023924D01*
X029455Y023857D01*
X029429Y024663D02*
X029843Y024663D01*
X029697Y024898D02*
X029764Y024965D01*
X029764Y025232D01*
X029697Y025299D01*
X029564Y025299D01*
X029497Y025232D01*
X029497Y025165D01*
X029564Y025098D01*
X029764Y025098D01*
X029697Y024898D02*
X029564Y024898D01*
X029497Y024965D01*
X029303Y024898D02*
X029037Y024898D01*
X029303Y025165D01*
X029303Y025232D01*
X029237Y025299D01*
X029103Y025299D01*
X029037Y025232D01*
X028843Y025232D02*
X028776Y025299D01*
X028576Y025299D01*
X028576Y024898D01*
X028576Y025032D02*
X028776Y025032D01*
X028843Y025098D01*
X028843Y025232D01*
X028710Y025032D02*
X028843Y024898D01*
X029035Y024663D02*
X028621Y024663D01*
X029058Y025427D02*
X029294Y025427D01*
X029294Y025900D02*
X029058Y025900D01*
X029440Y026645D02*
X029440Y026881D01*
X028936Y026844D02*
X028899Y026844D01*
X028936Y026844D02*
X028936Y027482D01*
X028899Y027482D01*
X029440Y027845D02*
X029440Y028081D01*
X029912Y028081D02*
X029912Y027845D01*
X030031Y027733D02*
X030098Y027800D01*
X030231Y027800D01*
X030298Y027733D01*
X030298Y027533D01*
X030431Y027533D02*
X030031Y027533D01*
X030031Y027733D01*
X030098Y027994D02*
X030031Y028060D01*
X030031Y028194D01*
X030098Y028261D01*
X030164Y028261D01*
X030231Y028194D01*
X030298Y028261D01*
X030364Y028261D01*
X030431Y028194D01*
X030431Y028060D01*
X030364Y027994D01*
X030231Y028127D02*
X030231Y028194D01*
X030098Y028454D02*
X030031Y028521D01*
X030031Y028654D01*
X030098Y028721D01*
X030364Y028454D01*
X030431Y028521D01*
X030431Y028654D01*
X030364Y028721D01*
X030098Y028721D01*
X030098Y028454D02*
X030364Y028454D01*
X030073Y029063D02*
X029873Y029263D01*
X029806Y029197D02*
X030073Y029464D01*
X029806Y029464D02*
X029806Y029063D01*
X029612Y029063D02*
X029345Y029063D01*
X029345Y029464D01*
X029152Y029397D02*
X029085Y029464D01*
X028952Y029464D01*
X028885Y029397D01*
X028885Y029130D01*
X028952Y029063D01*
X029085Y029063D01*
X029152Y029130D01*
X028726Y028963D02*
X028726Y029463D01*
X028476Y029713D01*
X027976Y029713D01*
X027726Y029463D01*
X027726Y028963D01*
X027976Y028713D01*
X028476Y028713D01*
X028726Y028963D01*
X029023Y029732D02*
X029289Y029732D01*
X029356Y029798D01*
X029356Y029932D01*
X029289Y029999D01*
X029156Y030192D02*
X029156Y030459D01*
X029089Y030653D02*
X029156Y030719D01*
X029156Y030853D01*
X029223Y030919D01*
X029289Y030919D01*
X029356Y030853D01*
X029356Y030719D01*
X029289Y030653D01*
X029089Y030653D02*
X029023Y030653D01*
X028956Y030719D01*
X028956Y030853D01*
X029023Y030919D01*
X028956Y031113D02*
X028956Y031313D01*
X029023Y031380D01*
X029156Y031380D01*
X029223Y031313D01*
X029223Y031113D01*
X029356Y031113D02*
X028956Y031113D01*
X029126Y031663D02*
X028626Y031663D01*
X028376Y031913D01*
X028376Y032413D01*
X028626Y032663D01*
X029126Y032663D01*
X029376Y032413D01*
X029376Y031913D01*
X029126Y031663D01*
X029740Y031795D02*
X029740Y032031D01*
X030212Y032031D02*
X030212Y031795D01*
X030876Y032113D02*
X030876Y031213D01*
X031376Y030363D02*
X032076Y030363D01*
X032126Y030413D01*
X032126Y030863D01*
X032126Y031113D01*
X032226Y031213D02*
X032226Y030863D01*
X032126Y030863D01*
X032226Y030863D02*
X032276Y030913D01*
X032276Y031263D01*
X032626Y031601D02*
X032626Y031734D01*
X032693Y031801D01*
X032826Y031734D02*
X032893Y031801D01*
X032959Y031801D01*
X033026Y031734D01*
X033026Y031601D01*
X032959Y031534D01*
X032826Y031601D02*
X032826Y031734D01*
X032826Y031601D02*
X032759Y031534D01*
X032693Y031534D01*
X032626Y031601D01*
X032826Y031341D02*
X032826Y031074D01*
X032693Y030880D02*
X032626Y030813D01*
X032626Y030680D01*
X032693Y030613D01*
X032959Y030613D01*
X033026Y030680D01*
X033026Y030813D01*
X032959Y030880D01*
X033026Y031994D02*
X032626Y031994D01*
X032626Y032261D01*
X032626Y032455D02*
X032626Y032722D01*
X032626Y032588D02*
X033026Y032588D01*
X033026Y032261D02*
X033026Y031994D01*
X032826Y031994D02*
X032826Y032128D01*
X032276Y032063D02*
X032276Y032413D01*
X032226Y032463D01*
X032226Y032113D01*
X032126Y032213D02*
X032126Y032463D01*
X032126Y032913D01*
X032076Y032963D01*
X031376Y032963D01*
X032126Y032463D02*
X032226Y032463D01*
X032076Y034363D02*
X031376Y034363D01*
X032076Y034363D02*
X032126Y034413D01*
X032126Y034863D01*
X032126Y035113D01*
X032226Y035213D02*
X032226Y034863D01*
X032126Y034863D01*
X032226Y034863D02*
X032276Y034913D01*
X032276Y035263D01*
X032606Y035631D02*
X032673Y035564D01*
X032739Y035564D01*
X032806Y035631D01*
X032806Y035764D01*
X032873Y035831D01*
X032939Y035831D01*
X033006Y035764D01*
X033006Y035631D01*
X032939Y035564D01*
X032806Y035371D02*
X032806Y035104D01*
X032806Y034910D02*
X032873Y034843D01*
X032873Y034643D01*
X033006Y034643D02*
X032606Y034643D01*
X032606Y034843D01*
X032673Y034910D01*
X032806Y034910D01*
X032606Y035631D02*
X032606Y035764D01*
X032673Y035831D01*
X032606Y036024D02*
X033006Y036024D01*
X033006Y036291D01*
X032806Y036158D02*
X032806Y036024D01*
X032606Y036024D02*
X032606Y036291D01*
X032606Y036485D02*
X032606Y036752D01*
X032606Y036618D02*
X033006Y036618D01*
X032276Y036413D02*
X032276Y036063D01*
X032226Y036113D02*
X032226Y036463D01*
X032276Y036413D01*
X032226Y036463D02*
X032126Y036463D01*
X032126Y036213D01*
X032126Y036463D02*
X032126Y036913D01*
X032076Y036963D01*
X031376Y036963D01*
X030876Y036113D02*
X030876Y035213D01*
X030112Y036045D02*
X030112Y036281D01*
X029640Y036281D02*
X029640Y036045D01*
X029371Y036093D02*
X029304Y036160D01*
X029371Y036093D02*
X029371Y035960D01*
X029304Y035893D01*
X029038Y035893D01*
X028971Y035960D01*
X028971Y036093D01*
X029038Y036160D01*
X029038Y036354D02*
X029104Y036354D01*
X029171Y036420D01*
X029171Y036554D01*
X029238Y036621D01*
X029304Y036621D01*
X029371Y036554D01*
X029371Y036420D01*
X029304Y036354D01*
X029238Y036354D01*
X029171Y036420D01*
X029171Y036554D02*
X029104Y036621D01*
X029038Y036621D01*
X028971Y036554D01*
X028971Y036420D01*
X029038Y036354D01*
X028626Y036163D02*
X028126Y036163D01*
X027876Y035913D01*
X027876Y035413D01*
X028126Y035163D01*
X028626Y035163D01*
X028876Y035413D01*
X028876Y035913D01*
X028626Y036163D01*
X028066Y036323D02*
X027666Y036323D01*
X027666Y036523D01*
X027733Y036590D01*
X027866Y036590D01*
X027933Y036523D01*
X027933Y036323D01*
X027866Y036784D02*
X027866Y037051D01*
X027799Y037244D02*
X027866Y037311D01*
X027866Y037444D01*
X027933Y037511D01*
X027999Y037511D01*
X028066Y037444D01*
X028066Y037311D01*
X027999Y037244D01*
X027799Y037244D02*
X027733Y037244D01*
X027666Y037311D01*
X027666Y037444D01*
X027733Y037511D01*
X027666Y037704D02*
X027666Y037905D01*
X027733Y037971D01*
X027866Y037971D01*
X027933Y037905D01*
X027933Y037704D01*
X028066Y037704D02*
X027666Y037704D01*
X027406Y037798D02*
X027006Y037798D01*
X027006Y037531D02*
X027406Y037798D01*
X027406Y037531D02*
X027006Y037531D01*
X027006Y037358D02*
X027006Y037224D01*
X027006Y037291D02*
X027406Y037291D01*
X027406Y037224D02*
X027406Y037358D01*
X027206Y037031D02*
X027206Y036764D01*
X027139Y036570D02*
X027206Y036503D01*
X027206Y036303D01*
X027126Y036163D02*
X026626Y036163D01*
X026376Y035913D01*
X026376Y035413D01*
X026626Y035163D01*
X027126Y035163D01*
X027376Y035413D01*
X027376Y035913D01*
X027126Y036163D01*
X027006Y036303D02*
X027006Y036503D01*
X027073Y036570D01*
X027139Y036570D01*
X027206Y036503D02*
X027273Y036570D01*
X027339Y036570D01*
X027406Y036503D01*
X027406Y036303D01*
X027006Y036303D01*
X025846Y036160D02*
X025713Y036027D01*
X025713Y036093D02*
X025713Y035893D01*
X025846Y035893D02*
X025446Y035893D01*
X025446Y036093D01*
X025513Y036160D01*
X025646Y036160D01*
X025713Y036093D01*
X025646Y036354D02*
X025646Y036621D01*
X025579Y036814D02*
X025646Y036881D01*
X025646Y037014D01*
X025713Y037081D01*
X025779Y037081D01*
X025846Y037014D01*
X025846Y036881D01*
X025779Y036814D01*
X025579Y036814D02*
X025513Y036814D01*
X025446Y036881D01*
X025446Y037014D01*
X025513Y037081D01*
X025446Y037274D02*
X025846Y037274D01*
X025846Y037541D01*
X025646Y037408D02*
X025646Y037274D01*
X025446Y037274D02*
X025446Y037541D01*
X025446Y037735D02*
X025446Y038002D01*
X025446Y037868D02*
X025846Y037868D01*
X025929Y038163D02*
X025517Y038163D01*
X025276Y037763D02*
X025276Y037263D01*
X024776Y037263D01*
X024776Y036263D01*
X025276Y036263D01*
X025276Y035763D01*
X023076Y035763D01*
X023076Y037763D01*
X025276Y037763D01*
X025123Y038163D02*
X024711Y038163D01*
X024318Y038163D02*
X023905Y038163D01*
X023512Y038163D02*
X023100Y038163D01*
X022706Y038163D02*
X022294Y038163D01*
X021900Y038163D02*
X021488Y038163D01*
X021094Y038163D02*
X020682Y038163D01*
X020288Y038163D02*
X019876Y038163D01*
X019876Y037709D01*
X019876Y037315D02*
X019876Y036860D01*
X019876Y036466D02*
X019876Y036012D01*
X019876Y035618D02*
X019876Y035163D01*
X019573Y035163D01*
X019179Y035163D02*
X018876Y035163D01*
X018876Y034748D01*
X018876Y034355D02*
X018876Y033940D01*
X018876Y033546D02*
X018876Y033131D01*
X018876Y032738D02*
X018876Y032323D01*
X018876Y031929D02*
X018876Y031514D01*
X018876Y031121D02*
X018876Y030706D01*
X018876Y030312D02*
X018876Y029897D01*
X018876Y029504D02*
X018876Y029089D01*
X018286Y029194D02*
X018219Y029194D01*
X017953Y029461D01*
X017886Y029461D01*
X017886Y029194D01*
X016912Y028931D02*
X016912Y028695D01*
X016440Y028695D02*
X016440Y028931D01*
X016162Y028931D02*
X016162Y028695D01*
X015690Y028695D02*
X015690Y028931D01*
X015286Y028623D02*
X015286Y028103D01*
X014166Y028103D01*
X014166Y028623D01*
X015286Y028623D01*
X014894Y029377D02*
X014658Y029377D01*
X014658Y029850D02*
X014894Y029850D01*
X014872Y029953D02*
X014605Y029953D01*
X014872Y030220D01*
X014872Y030287D01*
X014806Y030354D01*
X014672Y030354D01*
X014605Y030287D01*
X014412Y030287D02*
X014412Y030153D01*
X014345Y030087D01*
X014145Y030087D01*
X014278Y030087D02*
X014412Y029953D01*
X014145Y029953D02*
X014145Y030354D01*
X014345Y030354D01*
X014412Y030287D01*
X015066Y030220D02*
X015199Y030354D01*
X015199Y029953D01*
X015066Y029953D02*
X015333Y029953D01*
X014916Y031044D02*
X014916Y031382D01*
X015371Y031532D02*
X015582Y031532D01*
X016036Y031382D02*
X016036Y031044D01*
X016195Y030809D02*
X016195Y030408D01*
X016195Y030542D02*
X016395Y030542D01*
X016462Y030608D01*
X016462Y030742D01*
X016395Y030809D01*
X016195Y030809D01*
X016328Y030542D02*
X016462Y030408D01*
X016655Y030475D02*
X016722Y030408D01*
X016856Y030408D01*
X016922Y030475D01*
X016922Y030608D01*
X016856Y030675D01*
X016789Y030675D01*
X016655Y030608D01*
X016655Y030809D01*
X016922Y030809D01*
X017116Y030742D02*
X017183Y030809D01*
X017316Y030809D01*
X017383Y030742D01*
X017383Y030675D01*
X017116Y030408D01*
X017383Y030408D01*
X017456Y031042D02*
X017456Y031242D01*
X017523Y031309D01*
X017656Y031309D01*
X017723Y031242D01*
X017723Y031042D01*
X017856Y031042D02*
X017456Y031042D01*
X017723Y031176D02*
X017856Y031309D01*
X017656Y031503D02*
X017656Y031769D01*
X017589Y031963D02*
X017656Y032030D01*
X017656Y032230D01*
X017523Y032230D02*
X017456Y032163D01*
X017456Y032030D01*
X017523Y031963D01*
X017589Y031963D01*
X017789Y031963D02*
X017856Y032030D01*
X017856Y032163D01*
X017789Y032230D01*
X017523Y032230D01*
X017426Y032523D02*
X017826Y032523D01*
X017826Y032790D01*
X017826Y032984D02*
X017826Y033251D01*
X017826Y033444D02*
X017826Y033644D01*
X017759Y033711D01*
X017493Y033711D01*
X017426Y033644D01*
X017426Y033444D01*
X017826Y033444D01*
X017626Y033117D02*
X017626Y032984D01*
X017426Y032984D02*
X017826Y032984D01*
X017426Y032984D02*
X017426Y033251D01*
X017426Y033904D02*
X017626Y033904D01*
X017559Y034038D01*
X017559Y034105D01*
X017626Y034171D01*
X017759Y034171D01*
X017826Y034105D01*
X017826Y033971D01*
X017759Y033904D01*
X017426Y033904D02*
X017426Y034171D01*
X017277Y035163D02*
X016871Y035163D01*
X016941Y035329D02*
X017099Y035487D01*
X017099Y035920D01*
X017026Y036163D02*
X016226Y036163D01*
X016154Y035920D02*
X016154Y035487D01*
X016311Y035329D01*
X016941Y035329D01*
X016478Y035163D02*
X016072Y035163D01*
X015678Y035163D02*
X015272Y035163D01*
X014879Y035163D02*
X014473Y035163D01*
X014508Y034834D02*
X014375Y034834D01*
X014308Y034767D01*
X014308Y034500D01*
X014375Y034433D01*
X014508Y034433D01*
X014575Y034500D01*
X014575Y034633D01*
X014442Y034633D01*
X014575Y034767D02*
X014508Y034834D01*
X014115Y034767D02*
X014048Y034834D01*
X013914Y034834D01*
X013848Y034767D01*
X013848Y034500D01*
X013914Y034433D01*
X014048Y034433D01*
X014115Y034500D01*
X014085Y033989D02*
X013952Y033989D01*
X013885Y033922D01*
X013885Y033655D01*
X013952Y033588D01*
X014085Y033588D01*
X014152Y033655D01*
X014345Y033588D02*
X014612Y033588D01*
X014479Y033588D02*
X014479Y033989D01*
X014345Y033855D01*
X014152Y033922D02*
X014085Y033989D01*
X013654Y034633D02*
X013387Y034633D01*
X013194Y034433D02*
X012927Y034433D01*
X012927Y034834D01*
X013194Y034834D01*
X013060Y034633D02*
X012927Y034633D01*
X012733Y034633D02*
X012667Y034567D01*
X012467Y034567D01*
X012600Y034567D02*
X012733Y034433D01*
X012733Y034633D02*
X012733Y034767D01*
X012667Y034834D01*
X012467Y034834D01*
X012467Y034433D01*
X012273Y034633D02*
X012206Y034567D01*
X012006Y034567D01*
X012006Y034433D02*
X012006Y034834D01*
X012206Y034834D01*
X012273Y034767D01*
X012273Y034633D01*
X012074Y035163D02*
X012480Y035163D01*
X012874Y035163D02*
X013280Y035163D01*
X013673Y035163D02*
X014079Y035163D01*
X015006Y033989D02*
X014806Y033788D01*
X015073Y033788D01*
X015006Y033588D02*
X015006Y033989D01*
X014925Y033192D02*
X014925Y032877D01*
X014925Y033192D02*
X015161Y033192D01*
X015791Y033192D02*
X016027Y033192D01*
X016027Y032877D01*
X016146Y032731D02*
X016213Y032598D01*
X016346Y032464D01*
X016346Y032664D01*
X016413Y032731D01*
X016479Y032731D01*
X016546Y032664D01*
X016546Y032531D01*
X016479Y032464D01*
X016346Y032464D01*
X016546Y032271D02*
X016546Y032004D01*
X016546Y032137D02*
X016146Y032137D01*
X016279Y032004D01*
X016146Y031810D02*
X016479Y031810D01*
X016546Y031743D01*
X016546Y031610D01*
X016479Y031543D01*
X016146Y031543D01*
X016740Y031445D02*
X016740Y031681D01*
X017212Y031681D02*
X017212Y031445D01*
X017456Y031703D02*
X017656Y031503D01*
X017856Y031703D02*
X017456Y031703D01*
X016394Y030150D02*
X016158Y030150D01*
X016158Y029677D02*
X016394Y029677D01*
X013912Y029381D02*
X013912Y029145D01*
X013440Y029145D02*
X013440Y029381D01*
X013496Y028540D02*
X013496Y028273D01*
X013696Y028273D01*
X013629Y028406D01*
X013629Y028473D01*
X013696Y028540D01*
X013829Y028540D01*
X013896Y028473D01*
X013896Y028340D01*
X013829Y028273D01*
X013896Y028079D02*
X013763Y027946D01*
X013763Y028013D02*
X013763Y027813D01*
X013896Y027813D02*
X013496Y027813D01*
X013496Y028013D01*
X013563Y028079D01*
X013696Y028079D01*
X013763Y028013D01*
X012936Y027883D02*
X012936Y027750D01*
X012869Y027683D01*
X012736Y027683D01*
X012736Y027883D01*
X012803Y027950D01*
X012869Y027950D01*
X012936Y027883D01*
X012736Y027683D02*
X012603Y027816D01*
X012536Y027950D01*
X012301Y027723D02*
X011901Y027723D01*
X012101Y027523D01*
X012101Y027790D01*
X011968Y027329D02*
X011901Y027263D01*
X011901Y027129D01*
X011968Y027063D01*
X012234Y027063D01*
X012301Y027129D01*
X012301Y027263D01*
X012234Y027329D01*
X012536Y027289D02*
X012536Y027423D01*
X012603Y027489D01*
X012536Y027289D02*
X012603Y027223D01*
X012869Y027223D01*
X012936Y027289D01*
X012936Y027423D01*
X012869Y027489D01*
X012874Y026663D02*
X013280Y026663D01*
X012480Y026663D02*
X012074Y026663D01*
X011681Y026663D02*
X011275Y026663D01*
X011213Y026843D02*
X011080Y026977D01*
X011146Y026977D02*
X010946Y026977D01*
X010946Y026843D02*
X010946Y027244D01*
X011146Y027244D01*
X011213Y027177D01*
X011213Y027043D01*
X011146Y026977D01*
X011407Y027043D02*
X011407Y026910D01*
X011473Y026843D01*
X011607Y026843D01*
X011673Y026910D01*
X011673Y026977D01*
X011607Y027043D01*
X011407Y027043D01*
X011540Y027177D01*
X011673Y027244D01*
X010762Y027345D02*
X010762Y027581D01*
X010290Y027581D02*
X010290Y027345D01*
X009993Y027127D02*
X009993Y027060D01*
X009926Y026993D01*
X009793Y026993D01*
X009726Y027060D01*
X009726Y027127D01*
X009793Y027194D01*
X009926Y027194D01*
X009993Y027127D01*
X009926Y026993D02*
X009993Y026927D01*
X009993Y026860D01*
X009926Y026793D01*
X009793Y026793D01*
X009726Y026860D01*
X009726Y026927D01*
X009793Y026993D01*
X009532Y026860D02*
X009532Y027194D01*
X009265Y027194D02*
X009265Y026860D01*
X009332Y026793D01*
X009466Y026793D01*
X009532Y026860D01*
X009676Y026663D02*
X010082Y026663D01*
X010475Y026663D02*
X010881Y026663D01*
X010644Y026064D02*
X010444Y026064D01*
X010444Y025663D01*
X010644Y025663D01*
X010710Y025730D01*
X010710Y025997D01*
X010644Y026064D01*
X010250Y026064D02*
X010250Y025663D01*
X009983Y025663D02*
X009983Y026064D01*
X010117Y025930D01*
X010250Y026064D01*
X009810Y026064D02*
X009676Y026064D01*
X009743Y026064D02*
X009743Y025663D01*
X009676Y025663D02*
X009810Y025663D01*
X010735Y024664D02*
X010735Y024263D01*
X011002Y024263D01*
X011195Y024263D02*
X011195Y024664D01*
X011462Y024664D01*
X011655Y024664D02*
X011856Y024664D01*
X011922Y024597D01*
X011922Y024330D01*
X011856Y024263D01*
X011655Y024263D01*
X011655Y024664D01*
X011328Y024463D02*
X011195Y024463D01*
X011195Y024263D02*
X011462Y024263D01*
X012116Y024330D02*
X012183Y024263D01*
X012316Y024263D01*
X012383Y024330D01*
X012383Y024597D01*
X012316Y024664D01*
X012183Y024664D01*
X012116Y024597D01*
X012116Y024530D01*
X012183Y024463D01*
X012383Y024463D01*
X013966Y024544D02*
X013966Y024882D01*
X015706Y025638D02*
X015706Y026039D01*
X015906Y026039D01*
X015973Y025972D01*
X015973Y025838D01*
X015906Y025772D01*
X015706Y025772D01*
X015840Y025772D02*
X015973Y025638D01*
X016008Y025450D02*
X016244Y025450D01*
X016300Y025638D02*
X016300Y026039D01*
X016167Y025905D01*
X016167Y025638D02*
X016433Y025638D01*
X016627Y025705D02*
X016627Y025972D01*
X016694Y026039D01*
X016827Y026039D01*
X016894Y025972D01*
X016627Y025705D01*
X016694Y025638D01*
X016827Y025638D01*
X016894Y025705D01*
X016894Y025972D01*
X016478Y026663D02*
X016072Y026663D01*
X016008Y024977D02*
X016244Y024977D01*
X016244Y024550D02*
X016008Y024550D01*
X016008Y024077D02*
X016244Y024077D01*
X016208Y023650D02*
X016444Y023650D01*
X017036Y023705D02*
X017103Y023638D01*
X017236Y023638D01*
X017303Y023705D01*
X017497Y023638D02*
X017763Y023905D01*
X017763Y023972D01*
X017697Y024039D01*
X017563Y024039D01*
X017497Y023972D01*
X017303Y023972D02*
X017236Y024039D01*
X017103Y024039D01*
X017036Y023972D01*
X017036Y023705D01*
X017152Y024198D02*
X017019Y024332D01*
X017086Y024332D02*
X016885Y024332D01*
X016885Y024198D02*
X016885Y024599D01*
X017086Y024599D01*
X017152Y024532D01*
X017152Y024398D01*
X017086Y024332D01*
X017346Y024265D02*
X017413Y024198D01*
X017546Y024198D01*
X017613Y024265D01*
X017613Y024532D01*
X017546Y024599D01*
X017413Y024599D01*
X017346Y024532D01*
X017346Y024465D01*
X017413Y024398D01*
X017613Y024398D01*
X018024Y024039D02*
X017957Y023972D01*
X017957Y023905D01*
X018024Y023838D01*
X018157Y023838D01*
X018224Y023772D01*
X018224Y023705D01*
X018157Y023638D01*
X018024Y023638D01*
X017957Y023705D01*
X017957Y023772D01*
X018024Y023838D01*
X018157Y023838D02*
X018224Y023905D01*
X018224Y023972D01*
X018157Y024039D01*
X018024Y024039D01*
X017763Y023638D02*
X017497Y023638D01*
X017661Y022744D02*
X017594Y022677D01*
X017594Y022610D01*
X017661Y022543D01*
X017794Y022543D01*
X017861Y022477D01*
X017861Y022410D01*
X017794Y022343D01*
X017661Y022343D01*
X017594Y022410D01*
X017661Y022744D02*
X017794Y022744D01*
X017861Y022677D01*
X018054Y022744D02*
X018054Y022343D01*
X018321Y022343D01*
X018188Y022543D02*
X018054Y022543D01*
X018054Y022744D02*
X018321Y022744D01*
X018515Y022744D02*
X018781Y022744D01*
X018648Y022744D02*
X018648Y022343D01*
X018975Y022543D02*
X019242Y022543D01*
X019435Y022477D02*
X019636Y022477D01*
X019702Y022543D01*
X019702Y022677D01*
X019636Y022744D01*
X019435Y022744D01*
X019435Y022343D01*
X019896Y022410D02*
X019963Y022343D01*
X020096Y022343D01*
X020163Y022410D01*
X020163Y022477D01*
X020096Y022543D01*
X019963Y022543D01*
X019896Y022610D01*
X019896Y022677D01*
X019963Y022744D01*
X020096Y022744D01*
X020163Y022677D01*
X020126Y023013D02*
X020376Y023263D01*
X020376Y023763D01*
X020126Y024013D01*
X019626Y024013D01*
X019376Y023763D01*
X019376Y023263D01*
X019626Y023013D01*
X020126Y023013D01*
X020535Y022542D02*
X020535Y022275D01*
X020602Y022208D01*
X020735Y022208D01*
X020802Y022275D01*
X020995Y022208D02*
X021262Y022475D01*
X021262Y022542D01*
X021196Y022609D01*
X021062Y022609D01*
X020995Y022542D01*
X020802Y022542D02*
X020735Y022609D01*
X020602Y022609D01*
X020535Y022542D01*
X020995Y022208D02*
X021262Y022208D01*
X021456Y022275D02*
X021523Y022208D01*
X021656Y022208D01*
X021723Y022275D01*
X021723Y022342D01*
X021656Y022408D01*
X021456Y022408D01*
X021456Y022275D01*
X021456Y022408D02*
X021589Y022542D01*
X021723Y022609D01*
X022006Y022569D02*
X022339Y022569D01*
X022406Y022502D01*
X022406Y022369D01*
X022339Y022302D01*
X022006Y022302D01*
X022139Y022763D02*
X022006Y022896D01*
X022406Y022896D01*
X022406Y022763D02*
X022406Y023029D01*
X022406Y023223D02*
X022139Y023490D01*
X022073Y023490D01*
X022006Y023423D01*
X022006Y023290D01*
X022073Y023223D01*
X022406Y023223D02*
X022406Y023490D01*
X021745Y023603D02*
X021407Y023603D01*
X021444Y023200D02*
X021208Y023200D01*
X021208Y022727D02*
X021444Y022727D01*
X021257Y024058D02*
X021257Y024269D01*
X021407Y024723D02*
X021745Y024723D01*
X020512Y024745D02*
X020512Y024981D01*
X020040Y024981D02*
X020040Y024745D01*
X019812Y024745D02*
X019812Y024981D01*
X019933Y025518D02*
X019667Y025518D01*
X019933Y025785D01*
X019933Y025852D01*
X019867Y025919D01*
X019733Y025919D01*
X019667Y025852D01*
X019473Y025852D02*
X019473Y025718D01*
X019406Y025652D01*
X019206Y025652D01*
X019340Y025652D02*
X019473Y025518D01*
X019206Y025518D02*
X019206Y025919D01*
X019406Y025919D01*
X019473Y025852D01*
X019286Y026108D02*
X019286Y026509D01*
X019388Y026883D02*
X019654Y026883D01*
X019721Y026950D01*
X019721Y027083D01*
X019654Y027150D01*
X019721Y027344D02*
X019721Y027611D01*
X019721Y027477D02*
X019321Y027477D01*
X019454Y027344D01*
X019388Y027150D02*
X019321Y027083D01*
X019321Y026950D01*
X019388Y026883D01*
X018876Y026663D02*
X018470Y026663D01*
X019388Y027804D02*
X019454Y027804D01*
X019521Y027871D01*
X019521Y028004D01*
X019588Y028071D01*
X019654Y028071D01*
X019721Y028004D01*
X019721Y027871D01*
X019654Y027804D01*
X019588Y027804D01*
X019521Y027871D01*
X019521Y028004D02*
X019454Y028071D01*
X019388Y028071D01*
X019321Y028004D01*
X019321Y027871D01*
X019388Y027804D01*
X019340Y024981D02*
X019340Y024745D01*
X016444Y023177D02*
X016208Y023177D01*
X015961Y022657D02*
X016591Y022657D01*
X016607Y022652D01*
X016623Y022644D01*
X016637Y022634D01*
X016649Y022622D01*
X016659Y022607D01*
X016666Y022591D01*
X016670Y022574D01*
X016671Y022557D01*
X016669Y022539D01*
X016669Y021988D02*
X016671Y021968D01*
X016669Y021949D01*
X016663Y021930D01*
X016654Y021913D01*
X016642Y021897D01*
X016627Y021885D01*
X016609Y021876D01*
X016591Y021870D01*
X015961Y021870D01*
X015945Y021875D01*
X015929Y021883D01*
X015915Y021893D01*
X015903Y021905D01*
X015893Y021920D01*
X015886Y021936D01*
X015882Y021953D01*
X015881Y021970D01*
X015883Y021988D01*
X016127Y021673D02*
X016465Y021673D01*
X016615Y021219D02*
X016615Y021008D01*
X016465Y020553D02*
X016127Y020553D01*
X016140Y020364D02*
X016140Y019963D01*
X016007Y019963D02*
X016273Y019963D01*
X016467Y020030D02*
X016534Y019963D01*
X016667Y019963D01*
X016734Y020030D01*
X016734Y020163D01*
X016667Y020230D01*
X016600Y020230D01*
X016467Y020163D01*
X016467Y020364D01*
X016734Y020364D01*
X016140Y020364D02*
X016007Y020230D01*
X015813Y020364D02*
X015813Y020030D01*
X015746Y019963D01*
X015613Y019963D01*
X015546Y020030D01*
X015546Y020364D01*
X015883Y022539D02*
X015881Y022557D01*
X015882Y022574D01*
X015886Y022591D01*
X015893Y022607D01*
X015903Y022622D01*
X015915Y022634D01*
X015929Y022644D01*
X015945Y022652D01*
X015961Y022657D01*
X018294Y020353D02*
X018136Y020196D01*
X018136Y016731D01*
X018294Y016574D01*
X021758Y016574D01*
X021916Y016731D01*
X021916Y020196D01*
X021758Y020353D01*
X018294Y020353D01*
X021490Y016889D02*
X021492Y016909D01*
X021497Y016929D01*
X021507Y016947D01*
X021519Y016964D01*
X021534Y016978D01*
X021552Y016988D01*
X021571Y016996D01*
X021591Y017000D01*
X021611Y017000D01*
X021631Y016996D01*
X021650Y016988D01*
X021668Y016978D01*
X021683Y016964D01*
X021695Y016947D01*
X021705Y016929D01*
X021710Y016909D01*
X021712Y016889D01*
X021710Y016869D01*
X021705Y016849D01*
X021695Y016831D01*
X021683Y016814D01*
X021668Y016800D01*
X021650Y016790D01*
X021631Y016782D01*
X021611Y016778D01*
X021591Y016778D01*
X021571Y016782D01*
X021552Y016790D01*
X021534Y016800D01*
X021519Y016814D01*
X021507Y016831D01*
X021497Y016849D01*
X021492Y016869D01*
X021490Y016889D01*
X022185Y016454D02*
X022185Y016120D01*
X022252Y016053D01*
X022386Y016053D01*
X022452Y016120D01*
X022452Y016454D01*
X022646Y016320D02*
X022779Y016454D01*
X022779Y016053D01*
X022646Y016053D02*
X022913Y016053D01*
X022953Y014770D02*
X022953Y014637D01*
X022886Y014570D01*
X022819Y014637D02*
X022753Y014570D01*
X022819Y014637D02*
X022819Y014770D01*
X022559Y014637D02*
X022492Y014704D01*
X022359Y014704D01*
X022292Y014637D01*
X022292Y014570D01*
X022359Y014503D01*
X022492Y014503D01*
X022559Y014437D01*
X022559Y014370D01*
X022492Y014303D01*
X022359Y014303D01*
X022292Y014370D01*
X022099Y014370D02*
X022032Y014303D01*
X021898Y014303D01*
X021832Y014370D01*
X021898Y014503D02*
X022032Y014503D01*
X022099Y014437D01*
X022099Y014370D01*
X021898Y014503D02*
X021832Y014570D01*
X021832Y014637D01*
X021898Y014704D01*
X022032Y014704D01*
X022099Y014637D01*
X021648Y014637D02*
X021648Y014770D01*
X021648Y014637D02*
X021582Y014570D01*
X021515Y014637D02*
X021448Y014570D01*
X021515Y014637D02*
X021515Y014770D01*
X021608Y013744D02*
X021541Y013677D01*
X021541Y013610D01*
X021608Y013543D01*
X021742Y013543D01*
X021808Y013477D01*
X021808Y013410D01*
X021742Y013343D01*
X021608Y013343D01*
X021541Y013410D01*
X021608Y013744D02*
X021742Y013744D01*
X021808Y013677D01*
X022069Y013610D02*
X022202Y013610D01*
X022269Y013543D01*
X022269Y013343D01*
X022069Y013343D01*
X022002Y013410D01*
X022069Y013477D01*
X022269Y013477D01*
X022462Y013543D02*
X022596Y013543D01*
X022529Y013677D02*
X022596Y013744D01*
X022529Y013677D02*
X022529Y013343D01*
X022769Y013410D02*
X022769Y013543D01*
X022836Y013610D01*
X022969Y013610D01*
X023036Y013543D01*
X023036Y013477D01*
X022769Y013477D01*
X022769Y013410D02*
X022836Y013343D01*
X022969Y013343D01*
X023296Y013410D02*
X023296Y013677D01*
X023230Y013610D02*
X023363Y013610D01*
X023536Y013610D02*
X023536Y013410D01*
X023603Y013343D01*
X023803Y013343D01*
X023803Y013277D02*
X023737Y013210D01*
X023670Y013210D01*
X023803Y013277D02*
X023803Y013610D01*
X023363Y013343D02*
X023296Y013410D01*
X024457Y013410D02*
X024524Y013343D01*
X024657Y013343D01*
X024724Y013410D01*
X024724Y013477D01*
X024657Y013543D01*
X024524Y013543D01*
X024457Y013610D01*
X024457Y013677D01*
X024524Y013744D01*
X024657Y013744D01*
X024724Y013677D01*
X024918Y013610D02*
X024918Y013410D01*
X024984Y013343D01*
X025185Y013343D01*
X025185Y013277D02*
X025118Y013210D01*
X025051Y013210D01*
X025185Y013277D02*
X025185Y013610D01*
X025378Y013543D02*
X025445Y013610D01*
X025645Y013610D01*
X025578Y013477D02*
X025445Y013477D01*
X025378Y013543D01*
X025378Y013343D02*
X025578Y013343D01*
X025645Y013410D01*
X025578Y013477D01*
X025838Y013610D02*
X025972Y013610D01*
X025905Y013677D02*
X025905Y013410D01*
X025972Y013343D01*
X026145Y013410D02*
X026145Y013543D01*
X026212Y013610D01*
X026346Y013610D01*
X026412Y013543D01*
X026412Y013477D01*
X026145Y013477D01*
X026145Y013410D02*
X026212Y013343D01*
X026346Y013343D01*
X026606Y013343D02*
X026606Y013610D01*
X026672Y013610D01*
X026739Y013543D01*
X026806Y013610D01*
X026873Y013543D01*
X026873Y013343D01*
X026739Y013343D02*
X026739Y013543D01*
X029195Y013464D02*
X029195Y013063D01*
X029195Y013197D02*
X029395Y013197D01*
X029462Y013263D01*
X029462Y013397D01*
X029395Y013464D01*
X029195Y013464D01*
X029328Y013197D02*
X029462Y013063D01*
X029655Y013063D02*
X029922Y013330D01*
X029922Y013397D01*
X029856Y013464D01*
X029722Y013464D01*
X029655Y013397D01*
X029655Y013063D02*
X029922Y013063D01*
X030116Y013130D02*
X030183Y013063D01*
X030316Y013063D01*
X030383Y013130D01*
X030383Y013397D01*
X030116Y013130D01*
X030116Y013397D01*
X030183Y013464D01*
X030316Y013464D01*
X030383Y013397D01*
X030335Y013813D02*
X030602Y014214D01*
X030796Y014080D02*
X030929Y014214D01*
X030929Y013813D01*
X030796Y013813D02*
X031063Y013813D01*
X030976Y013464D02*
X030976Y013063D01*
X031243Y013063D01*
X031437Y013063D02*
X031703Y013063D01*
X031897Y013063D02*
X031897Y013464D01*
X032097Y013464D01*
X032164Y013397D01*
X032164Y013130D01*
X032097Y013063D01*
X031897Y013063D01*
X031570Y013263D02*
X031437Y013263D01*
X031437Y013063D02*
X031437Y013464D01*
X031703Y013464D01*
X032357Y013330D02*
X032491Y013464D01*
X032491Y013063D01*
X032624Y013063D02*
X032357Y013063D01*
X031076Y012845D02*
X030876Y012845D01*
X030976Y012745D02*
X030976Y012945D01*
X030602Y013813D02*
X030335Y014214D01*
X030142Y014214D02*
X029875Y014214D01*
X030008Y014214D02*
X030008Y013813D01*
X029945Y014663D02*
X029945Y015064D01*
X030145Y015064D01*
X030212Y014997D01*
X030212Y014863D01*
X030145Y014797D01*
X029945Y014797D01*
X030078Y014797D02*
X030212Y014663D01*
X030405Y014663D02*
X030672Y015064D01*
X030866Y014930D02*
X030999Y015064D01*
X030999Y014663D01*
X030866Y014663D02*
X031133Y014663D01*
X030672Y014663D02*
X030405Y015064D01*
X030475Y015428D02*
X030475Y015829D01*
X030676Y015829D01*
X030742Y015762D01*
X030742Y015628D01*
X030676Y015562D01*
X030475Y015562D01*
X030609Y015562D02*
X030742Y015428D01*
X030936Y015628D02*
X031203Y015628D01*
X031136Y015428D02*
X031136Y015829D01*
X030936Y015628D01*
X031726Y015673D02*
X031836Y015563D01*
X032226Y015563D01*
X032616Y015563D01*
X032726Y015673D01*
X032226Y015663D02*
X032226Y015563D01*
X032226Y016463D02*
X032226Y016663D01*
X032226Y017463D02*
X032226Y017663D01*
X032226Y018463D02*
X032226Y018663D01*
X032226Y019463D02*
X032226Y019663D01*
X032226Y020463D02*
X032226Y020563D01*
X031836Y020563D01*
X031726Y020453D01*
X032226Y020563D02*
X032616Y020563D01*
X032726Y020453D01*
X032176Y021363D02*
X031476Y021363D01*
X032176Y021363D02*
X032226Y021413D01*
X032226Y021863D01*
X032226Y022113D01*
X032326Y022213D02*
X032326Y021863D01*
X032226Y021863D01*
X032326Y021863D02*
X032376Y021913D01*
X032376Y022263D01*
X032626Y022332D02*
X032626Y022532D01*
X032693Y022599D01*
X032826Y022599D01*
X032893Y022532D01*
X032893Y022332D01*
X033026Y022332D02*
X032626Y022332D01*
X032893Y022466D02*
X033026Y022599D01*
X032959Y022793D02*
X033026Y022859D01*
X033026Y022993D01*
X032959Y023059D01*
X032893Y023059D01*
X032826Y022993D01*
X032826Y022926D01*
X032826Y022993D02*
X032759Y023059D01*
X032693Y023059D01*
X032626Y022993D01*
X032626Y022859D01*
X032693Y022793D01*
X032376Y023063D02*
X032376Y023413D01*
X032326Y023463D01*
X032326Y023113D01*
X032226Y023213D02*
X032226Y023463D01*
X032226Y023913D01*
X032176Y023963D01*
X031476Y023963D01*
X031460Y024663D02*
X031045Y024663D01*
X030652Y024663D02*
X030237Y024663D01*
X030808Y025127D02*
X031044Y025127D01*
X031044Y025600D02*
X030808Y025600D01*
X030431Y026143D02*
X030031Y026143D01*
X030031Y026343D01*
X030098Y026410D01*
X030231Y026410D01*
X030298Y026343D01*
X030298Y026143D01*
X030298Y026277D02*
X030431Y026410D01*
X030364Y026604D02*
X030431Y026670D01*
X030431Y026804D01*
X030364Y026871D01*
X030298Y026871D01*
X030231Y026804D01*
X030231Y026737D01*
X030231Y026804D02*
X030164Y026871D01*
X030098Y026871D01*
X030031Y026804D01*
X030031Y026670D01*
X030098Y026604D01*
X029912Y026645D02*
X029912Y026881D01*
X030164Y027064D02*
X030031Y027198D01*
X030431Y027198D01*
X030431Y027331D02*
X030431Y027064D01*
X030298Y027667D02*
X030431Y027800D01*
X030876Y028113D02*
X030876Y027213D01*
X031376Y026363D02*
X032076Y026363D01*
X032126Y026413D01*
X032126Y026863D01*
X032126Y027113D01*
X032226Y027213D02*
X032226Y026863D01*
X032126Y026863D01*
X032226Y026863D02*
X032276Y026913D01*
X032276Y027263D01*
X032626Y027601D02*
X032693Y027534D01*
X032759Y027534D01*
X032826Y027601D01*
X032826Y027734D01*
X032893Y027801D01*
X032959Y027801D01*
X033026Y027734D01*
X033026Y027601D01*
X032959Y027534D01*
X032826Y027341D02*
X032826Y027074D01*
X032626Y026880D02*
X032626Y026613D01*
X032626Y026747D02*
X033026Y026747D01*
X032626Y027601D02*
X032626Y027734D01*
X032693Y027801D01*
X032626Y027994D02*
X033026Y027994D01*
X033026Y028261D01*
X032826Y028128D02*
X032826Y027994D01*
X032626Y027994D02*
X032626Y028261D01*
X032626Y028455D02*
X032626Y028722D01*
X032626Y028588D02*
X033026Y028588D01*
X032276Y028413D02*
X032276Y028063D01*
X032226Y028113D02*
X032226Y028463D01*
X032276Y028413D01*
X032226Y028463D02*
X032126Y028463D01*
X032126Y028213D01*
X032126Y028463D02*
X032126Y028913D01*
X032076Y028963D01*
X031376Y028963D01*
X029023Y029732D02*
X028956Y029798D01*
X028956Y029932D01*
X029023Y029999D01*
X028066Y030035D02*
X028066Y029902D01*
X027999Y029835D01*
X027733Y029835D01*
X027666Y029902D01*
X027666Y030035D01*
X027733Y030102D01*
X027866Y030296D02*
X027866Y030562D01*
X027666Y030756D02*
X027666Y030889D01*
X027666Y030823D02*
X028066Y030823D01*
X028066Y030889D02*
X028066Y030756D01*
X028066Y031063D02*
X027666Y031063D01*
X028066Y031330D01*
X027666Y031330D01*
X027776Y031613D02*
X028026Y031863D01*
X028026Y032363D01*
X027776Y032613D01*
X027276Y032613D01*
X027026Y032363D01*
X027026Y031863D01*
X027276Y031613D01*
X027776Y031613D01*
X027462Y031031D02*
X027462Y030795D01*
X026990Y030795D02*
X026990Y031031D01*
X026998Y030221D02*
X027264Y029954D01*
X027331Y029954D01*
X027331Y029761D02*
X027331Y029494D01*
X027331Y029627D02*
X026931Y029627D01*
X027064Y029494D01*
X026998Y029300D02*
X026931Y029233D01*
X026931Y029100D01*
X026998Y029033D01*
X027264Y029033D01*
X027331Y029100D01*
X027331Y029233D01*
X027264Y029300D01*
X026931Y029954D02*
X026931Y030221D01*
X026998Y030221D01*
X027999Y030102D02*
X028066Y030035D01*
X026244Y031977D02*
X026008Y031977D01*
X025896Y031613D02*
X025476Y031613D01*
X025076Y031613D01*
X024656Y031613D01*
X024646Y031613D02*
X024646Y027613D01*
X024656Y027613D02*
X025896Y027613D01*
X025919Y027615D01*
X025942Y027620D01*
X025964Y027629D01*
X025984Y027642D01*
X026002Y027657D01*
X026017Y027675D01*
X026030Y027695D01*
X026039Y027717D01*
X026044Y027740D01*
X026046Y027763D01*
X026046Y031463D01*
X026044Y031486D01*
X026039Y031509D01*
X026030Y031531D01*
X026017Y031551D01*
X026002Y031569D01*
X025984Y031584D01*
X025964Y031597D01*
X025942Y031606D01*
X025919Y031611D01*
X025896Y031613D01*
X025476Y031613D02*
X025474Y031586D01*
X025469Y031559D01*
X025459Y031533D01*
X025447Y031509D01*
X025431Y031487D01*
X025413Y031467D01*
X025391Y031450D01*
X025368Y031435D01*
X025343Y031425D01*
X025317Y031417D01*
X025290Y031413D01*
X025262Y031413D01*
X025235Y031417D01*
X025209Y031425D01*
X025184Y031435D01*
X025161Y031450D01*
X025139Y031467D01*
X025121Y031487D01*
X025105Y031509D01*
X025093Y031533D01*
X025083Y031559D01*
X025078Y031586D01*
X025076Y031613D01*
X024656Y031613D02*
X024633Y031611D01*
X024610Y031606D01*
X024588Y031597D01*
X024568Y031584D01*
X024550Y031569D01*
X024535Y031551D01*
X024522Y031531D01*
X024513Y031509D01*
X024508Y031486D01*
X024506Y031463D01*
X024506Y027763D01*
X024508Y027740D01*
X024513Y027717D01*
X024522Y027695D01*
X024535Y027675D01*
X024550Y027657D01*
X024568Y027642D01*
X024588Y027629D01*
X024610Y027620D01*
X024633Y027615D01*
X024656Y027613D01*
X024664Y027429D02*
X024597Y027362D01*
X024664Y027429D02*
X024797Y027429D01*
X024864Y027362D01*
X024864Y027295D01*
X024597Y027028D01*
X024864Y027028D01*
X024876Y026663D02*
X025339Y026663D01*
X025733Y026663D02*
X026196Y026663D01*
X026196Y026259D01*
X026491Y026153D02*
X026558Y026219D01*
X026624Y026219D01*
X026691Y026153D01*
X026758Y026219D01*
X026824Y026219D01*
X026891Y026153D01*
X026891Y026019D01*
X026824Y025953D01*
X026691Y026086D02*
X026691Y026153D01*
X026491Y026153D02*
X026491Y026019D01*
X026558Y025953D01*
X026558Y025759D02*
X026691Y025759D01*
X026758Y025692D01*
X026758Y025492D01*
X026891Y025492D02*
X026491Y025492D01*
X026491Y025692D01*
X026558Y025759D01*
X026758Y025626D02*
X026891Y025759D01*
X026891Y026413D02*
X026624Y026680D01*
X026558Y026680D01*
X026491Y026613D01*
X026491Y026480D01*
X026558Y026413D01*
X026891Y026413D02*
X026891Y026680D01*
X027040Y026781D02*
X027040Y026545D01*
X027512Y026545D02*
X027512Y026781D01*
X027816Y026844D02*
X027854Y026844D01*
X027816Y026844D02*
X027816Y027482D01*
X027854Y027482D01*
X027657Y027597D02*
X027390Y027597D01*
X027590Y027797D01*
X027590Y027397D01*
X027196Y027463D02*
X027196Y027797D01*
X026929Y027797D02*
X026929Y027463D01*
X026996Y027397D01*
X027130Y027397D01*
X027196Y027463D01*
X027658Y025900D02*
X027894Y025900D01*
X026196Y025865D02*
X026196Y025461D01*
X026196Y025068D02*
X026196Y024663D01*
X027346Y023924D02*
X027613Y023924D01*
X027480Y023924D02*
X027480Y023523D01*
X027536Y022914D02*
X027403Y022914D01*
X027336Y022847D01*
X027336Y022780D01*
X027403Y022713D01*
X027536Y022713D01*
X027603Y022647D01*
X027603Y022580D01*
X027536Y022513D01*
X027403Y022513D01*
X027336Y022580D01*
X027076Y022513D02*
X027076Y023013D01*
X026826Y023263D01*
X026326Y023263D01*
X026076Y023013D01*
X026076Y022513D01*
X026326Y022263D01*
X026826Y022263D01*
X027076Y022513D01*
X027536Y022914D02*
X027603Y022847D01*
X027797Y022914D02*
X027797Y022513D01*
X028063Y022513D01*
X027930Y022713D02*
X027797Y022713D01*
X027797Y022914D02*
X028063Y022914D01*
X028257Y022914D02*
X028524Y022914D01*
X028390Y022914D02*
X028390Y022513D01*
X028717Y022513D02*
X028984Y022780D01*
X028984Y022847D01*
X028918Y022914D01*
X028784Y022914D01*
X028717Y022847D01*
X028717Y022513D02*
X028984Y022513D01*
X028073Y023523D02*
X028073Y023924D01*
X026495Y021424D02*
X026229Y021424D01*
X026362Y021424D02*
X026362Y021023D01*
X026035Y021023D02*
X025768Y021023D01*
X025768Y021424D01*
X026035Y021424D01*
X025902Y021223D02*
X025768Y021223D01*
X025575Y021157D02*
X025575Y021090D01*
X025508Y021023D01*
X025374Y021023D01*
X025308Y021090D01*
X025374Y021223D02*
X025508Y021223D01*
X025575Y021157D01*
X025575Y021357D02*
X025508Y021424D01*
X025374Y021424D01*
X025308Y021357D01*
X025308Y021290D01*
X025374Y021223D01*
X025114Y021223D02*
X024847Y021223D01*
X024654Y021023D02*
X024387Y021023D01*
X024387Y021424D01*
X024654Y021424D01*
X024520Y021223D02*
X024387Y021223D01*
X024193Y021223D02*
X024127Y021157D01*
X023927Y021157D01*
X024060Y021157D02*
X024193Y021023D01*
X024193Y021223D02*
X024193Y021357D01*
X024127Y021424D01*
X023927Y021424D01*
X023927Y021023D01*
X023733Y021223D02*
X023666Y021157D01*
X023466Y021157D01*
X023466Y021023D02*
X023466Y021424D01*
X023666Y021424D01*
X023733Y021357D01*
X023733Y021223D01*
X024612Y019919D02*
X024545Y019852D01*
X024545Y019585D01*
X024612Y019518D01*
X024745Y019518D01*
X024812Y019585D01*
X025005Y019518D02*
X025272Y019785D01*
X025272Y019852D01*
X025206Y019919D01*
X025072Y019919D01*
X025005Y019852D01*
X024812Y019852D02*
X024745Y019919D01*
X024612Y019919D01*
X025005Y019518D02*
X025272Y019518D01*
X025216Y019334D02*
X025216Y019000D01*
X025283Y018933D01*
X025416Y018933D01*
X025483Y019000D01*
X025483Y019334D01*
X025466Y019518D02*
X025466Y019585D01*
X025733Y019852D01*
X025733Y019919D01*
X025466Y019919D01*
X025810Y019334D02*
X025810Y018933D01*
X025677Y018933D02*
X025943Y018933D01*
X026137Y018933D02*
X026404Y018933D01*
X026270Y018933D02*
X026270Y019334D01*
X026137Y019200D01*
X025810Y019334D02*
X025677Y019200D01*
X025762Y018559D02*
X025896Y018559D01*
X025962Y018492D01*
X025962Y018425D01*
X025896Y018358D01*
X025962Y018292D01*
X025962Y018225D01*
X025896Y018158D01*
X025762Y018158D01*
X025695Y018225D01*
X025829Y018358D02*
X025896Y018358D01*
X025695Y018492D02*
X025762Y018559D01*
X025502Y018492D02*
X025502Y018358D01*
X025435Y018292D01*
X025235Y018292D01*
X025368Y018292D02*
X025502Y018158D01*
X025235Y018158D02*
X025235Y018559D01*
X025435Y018559D01*
X025502Y018492D01*
X025436Y017874D02*
X025503Y017807D01*
X025503Y017673D01*
X025436Y017607D01*
X025236Y017607D01*
X025370Y017607D02*
X025503Y017473D01*
X025697Y017473D02*
X025963Y017740D01*
X025963Y017807D01*
X025897Y017874D01*
X025763Y017874D01*
X025697Y017807D01*
X025436Y017874D02*
X025236Y017874D01*
X025236Y017473D01*
X025697Y017473D02*
X025963Y017473D01*
X026157Y017673D02*
X026424Y017673D01*
X026357Y017473D02*
X026357Y017874D01*
X026157Y017673D01*
X026223Y018158D02*
X026156Y018225D01*
X026156Y018358D01*
X026356Y018358D01*
X026423Y018292D01*
X026423Y018225D01*
X026356Y018158D01*
X026223Y018158D01*
X026156Y018358D02*
X026289Y018492D01*
X026423Y018559D01*
X026706Y018403D02*
X026906Y018203D01*
X026906Y018470D01*
X027106Y018403D02*
X026706Y018403D01*
X026728Y018793D02*
X026994Y018793D01*
X027061Y018860D01*
X027061Y018993D01*
X026994Y019060D01*
X027061Y019254D02*
X026794Y019521D01*
X026728Y019521D01*
X026661Y019454D01*
X026661Y019320D01*
X026728Y019254D01*
X026728Y019060D02*
X026661Y018993D01*
X026661Y018860D01*
X026728Y018793D01*
X027061Y019254D02*
X027061Y019521D01*
X026994Y019714D02*
X027061Y019781D01*
X027061Y019914D01*
X026994Y019981D01*
X026861Y019981D01*
X026794Y019914D01*
X026794Y019848D01*
X026861Y019714D01*
X026661Y019714D01*
X026661Y019981D01*
X026773Y018009D02*
X026706Y017943D01*
X026706Y017809D01*
X026773Y017743D01*
X026773Y017549D02*
X026706Y017482D01*
X026706Y017349D01*
X026773Y017282D01*
X027039Y017282D01*
X027106Y017349D01*
X027106Y017482D01*
X027039Y017549D01*
X027106Y017743D02*
X026839Y018009D01*
X026773Y018009D01*
X027106Y018009D02*
X027106Y017743D01*
X029276Y017163D02*
X029276Y015163D01*
X030276Y016163D01*
X029276Y017163D01*
X029306Y017093D02*
X029356Y017033D01*
X029306Y016993D02*
X029306Y017093D01*
X030576Y017766D02*
X030576Y017899D01*
X030576Y017832D02*
X030909Y017832D01*
X030976Y017766D01*
X030976Y017699D01*
X030909Y017632D01*
X030843Y018093D02*
X030843Y018293D01*
X030776Y018359D01*
X030643Y018359D01*
X030576Y018293D01*
X030576Y018093D01*
X030976Y018093D01*
X030976Y018553D02*
X030976Y018820D01*
X030976Y018686D02*
X030576Y018686D01*
X030709Y018553D01*
X030740Y016681D02*
X030740Y016445D01*
X031212Y016445D02*
X031212Y016681D01*
X029356Y015293D02*
X029336Y015263D01*
X029356Y015293D02*
X029306Y015303D01*
X029296Y015233D01*
X024831Y017922D02*
X024431Y017922D01*
X024431Y018122D01*
X024498Y018189D01*
X024631Y018189D01*
X024698Y018122D01*
X024698Y017922D01*
X024698Y018056D02*
X024831Y018189D01*
X024831Y018383D02*
X024564Y018649D01*
X024498Y018649D01*
X024431Y018583D01*
X024431Y018449D01*
X024498Y018383D01*
X024831Y018383D02*
X024831Y018649D01*
X024764Y018843D02*
X024831Y018910D01*
X024831Y019043D01*
X024764Y019110D01*
X024631Y019110D01*
X024564Y019043D01*
X024564Y018976D01*
X024631Y018843D01*
X024431Y018843D01*
X024431Y019110D01*
X023794Y023627D02*
X023558Y023627D01*
X023558Y024100D02*
X023794Y024100D01*
X023404Y026027D02*
X023168Y026027D01*
X023168Y026500D02*
X023404Y026500D01*
X023625Y026663D02*
X023162Y026663D01*
X023676Y027028D02*
X023676Y027429D01*
X023876Y027429D01*
X023943Y027362D01*
X023943Y027228D01*
X023876Y027162D01*
X023676Y027162D01*
X023810Y027162D02*
X023943Y027028D01*
X024137Y027028D02*
X024403Y027295D01*
X024403Y027362D01*
X024337Y027429D01*
X024203Y027429D01*
X024137Y027362D01*
X024137Y027028D02*
X024403Y027028D01*
X024482Y026663D02*
X024019Y026663D01*
X023963Y031703D02*
X024096Y031703D01*
X024163Y031770D01*
X024163Y032104D01*
X024357Y032037D02*
X024423Y032104D01*
X024557Y032104D01*
X024623Y032037D01*
X024623Y031970D01*
X024557Y031903D01*
X024623Y031837D01*
X024623Y031770D01*
X024557Y031703D01*
X024423Y031703D01*
X024357Y031770D01*
X024490Y031903D02*
X024557Y031903D01*
X023963Y031703D02*
X023896Y031770D01*
X023896Y032104D01*
X024004Y032408D02*
X023937Y032475D01*
X024004Y032408D02*
X024137Y032408D01*
X024204Y032475D01*
X024204Y032608D01*
X024137Y032675D01*
X024070Y032675D01*
X023937Y032608D01*
X023937Y032809D01*
X024204Y032809D01*
X024416Y032894D02*
X024416Y033232D01*
X024133Y033310D02*
X024066Y033243D01*
X023933Y033243D01*
X023866Y033310D01*
X023866Y033443D02*
X023999Y033510D01*
X024066Y033510D01*
X024133Y033443D01*
X024133Y033310D01*
X023866Y033443D02*
X023866Y033644D01*
X024133Y033644D01*
X024101Y034032D02*
X023701Y034032D01*
X023701Y034232D01*
X023768Y034299D01*
X023901Y034299D01*
X023968Y034232D01*
X023968Y034032D01*
X023968Y034166D02*
X024101Y034299D01*
X024101Y034493D02*
X024101Y034759D01*
X024101Y034626D02*
X023701Y034626D01*
X023834Y034493D01*
X023768Y034953D02*
X023701Y035020D01*
X023701Y035153D01*
X023768Y035220D01*
X023834Y035220D01*
X023901Y035153D01*
X023968Y035220D01*
X024034Y035220D01*
X024101Y035153D01*
X024101Y035020D01*
X024034Y034953D01*
X023901Y035086D02*
X023901Y035153D01*
X024390Y034681D02*
X024390Y034445D01*
X024862Y034445D02*
X024862Y034681D01*
X025090Y034681D02*
X025090Y034445D01*
X025562Y034445D02*
X025562Y034681D01*
X025731Y034756D02*
X026131Y034756D01*
X026131Y034623D02*
X026131Y034889D01*
X025931Y035083D02*
X025731Y035283D01*
X026131Y035283D01*
X025931Y035350D02*
X025931Y035083D01*
X025731Y034756D02*
X025864Y034623D01*
X025798Y034429D02*
X025931Y034429D01*
X025998Y034362D01*
X025998Y034162D01*
X026131Y034162D02*
X025731Y034162D01*
X025731Y034362D01*
X025798Y034429D01*
X025998Y034296D02*
X026131Y034429D01*
X026258Y033300D02*
X026494Y033300D01*
X026494Y032827D02*
X026258Y032827D01*
X026244Y032450D02*
X026008Y032450D01*
X025536Y032894D02*
X025536Y033232D01*
X025082Y032744D02*
X024871Y032744D01*
X023743Y032408D02*
X023477Y032408D01*
X023610Y032408D02*
X023610Y032809D01*
X023477Y032675D01*
X023283Y032742D02*
X023216Y032809D01*
X023083Y032809D01*
X023016Y032742D01*
X023016Y032475D01*
X023083Y032408D01*
X023216Y032408D01*
X023283Y032475D01*
X023472Y033243D02*
X023606Y033243D01*
X023672Y033310D01*
X023672Y033644D01*
X023405Y033644D02*
X023405Y033310D01*
X023472Y033243D01*
X021614Y034280D02*
X021614Y034547D01*
X021547Y034614D01*
X021347Y034614D01*
X021347Y034213D01*
X021547Y034213D01*
X021614Y034280D01*
X021153Y034413D02*
X021087Y034347D01*
X020887Y034347D01*
X020887Y034213D02*
X020887Y034614D01*
X021087Y034614D01*
X021153Y034547D01*
X021153Y034413D01*
X020693Y034347D02*
X020693Y034280D01*
X020626Y034213D01*
X020426Y034213D01*
X020426Y034614D01*
X020626Y034614D01*
X020693Y034547D01*
X020693Y034480D01*
X020626Y034413D01*
X020426Y034413D01*
X020626Y034413D02*
X020693Y034347D01*
X020476Y035763D02*
X020476Y037763D01*
X022676Y037763D01*
X022676Y037263D01*
X022176Y037263D01*
X022176Y036263D01*
X022676Y036263D01*
X022676Y035763D01*
X020476Y035763D01*
X019396Y036157D02*
X018996Y036157D01*
X018996Y036290D02*
X018996Y036023D01*
X018996Y036484D02*
X018996Y036684D01*
X019063Y036751D01*
X019196Y036751D01*
X019263Y036684D01*
X019263Y036484D01*
X019263Y036617D02*
X019396Y036751D01*
X019396Y036944D02*
X019396Y037078D01*
X019396Y037011D02*
X018996Y037011D01*
X018996Y036944D02*
X018996Y037078D01*
X018996Y037251D02*
X018996Y037451D01*
X019063Y037518D01*
X019196Y037518D01*
X019263Y037451D01*
X019263Y037251D01*
X019396Y037251D02*
X018996Y037251D01*
X018996Y036484D02*
X019396Y036484D01*
X018876Y035163D02*
X018470Y035163D01*
X018077Y035163D02*
X017671Y035163D01*
X017796Y035823D02*
X017529Y035823D01*
X017462Y035890D01*
X017462Y036023D01*
X017529Y036090D01*
X017529Y036284D02*
X017462Y036350D01*
X017462Y036484D01*
X017529Y036551D01*
X017596Y036551D01*
X017862Y036284D01*
X017862Y036551D01*
X017796Y036744D02*
X017862Y036811D01*
X017862Y036944D01*
X017796Y037011D01*
X017729Y037011D01*
X017662Y036944D01*
X017662Y036878D01*
X017662Y036944D02*
X017596Y037011D01*
X017529Y037011D01*
X017462Y036944D01*
X017462Y036811D01*
X017529Y036744D01*
X017099Y036707D02*
X017099Y037298D01*
X016154Y037298D01*
X016154Y036707D01*
X015266Y036813D02*
X012686Y036813D01*
X012686Y039173D01*
X012336Y038668D02*
X012336Y038401D01*
X012336Y038534D02*
X011936Y038534D01*
X012069Y038401D01*
X012003Y038207D02*
X011936Y038140D01*
X011936Y038007D01*
X012003Y037940D01*
X012269Y037940D01*
X012336Y038007D01*
X012336Y038140D01*
X012269Y038207D01*
X012336Y037767D02*
X012336Y037633D01*
X012336Y037700D02*
X011936Y037700D01*
X011936Y037633D02*
X011936Y037767D01*
X011499Y037498D02*
X011499Y036907D01*
X011426Y036363D02*
X010626Y036363D01*
X010554Y036120D02*
X010554Y035687D01*
X010711Y035529D01*
X011341Y035529D01*
X011499Y035687D01*
X011499Y036120D01*
X011681Y035163D02*
X011275Y035163D01*
X010881Y035163D02*
X010475Y035163D01*
X010573Y034941D02*
X010506Y034875D01*
X010506Y034674D01*
X010639Y034674D01*
X010706Y034741D01*
X010706Y034875D01*
X010639Y034941D01*
X010573Y034941D01*
X010373Y034808D02*
X010506Y034674D01*
X010373Y034808D02*
X010306Y034941D01*
X010082Y035163D02*
X009676Y035163D01*
X009282Y035163D02*
X008876Y035163D01*
X008876Y034748D01*
X008876Y034355D02*
X008876Y033940D01*
X008876Y033546D02*
X008876Y033131D01*
X008876Y032738D02*
X008876Y032323D01*
X008876Y031929D02*
X008876Y031514D01*
X008876Y031121D02*
X008876Y030706D01*
X008876Y030312D02*
X008876Y029897D01*
X009016Y030030D02*
X009016Y030163D01*
X009083Y030230D01*
X009149Y030230D01*
X009216Y030163D01*
X009216Y030030D01*
X009149Y029963D01*
X009083Y029963D01*
X009016Y030030D01*
X009216Y030030D02*
X009283Y029963D01*
X009349Y029963D01*
X009416Y030030D01*
X009416Y030163D01*
X009349Y030230D01*
X009283Y030230D01*
X009216Y030163D01*
X009216Y029769D02*
X009216Y029503D01*
X009016Y029703D01*
X009416Y029703D01*
X009540Y029681D02*
X009540Y029445D01*
X009416Y029309D02*
X009283Y029176D01*
X009283Y029242D02*
X009283Y029042D01*
X009416Y029042D02*
X009016Y029042D01*
X009016Y029242D01*
X009083Y029309D01*
X009216Y029309D01*
X009283Y029242D01*
X008876Y029089D02*
X008876Y029504D01*
X008876Y028695D02*
X008876Y028280D01*
X008996Y028194D02*
X008996Y028461D01*
X009063Y028461D01*
X009329Y028194D01*
X009396Y028194D01*
X009396Y028000D02*
X009263Y027867D01*
X009263Y027933D02*
X009263Y027733D01*
X009396Y027733D02*
X008996Y027733D01*
X008996Y027933D01*
X009063Y028000D01*
X009196Y028000D01*
X009263Y027933D01*
X009540Y027991D02*
X009540Y027755D01*
X010012Y027755D02*
X010012Y027991D01*
X010366Y028844D02*
X010366Y029182D01*
X010012Y029445D02*
X010012Y029681D01*
X010290Y030745D02*
X010290Y030981D01*
X010762Y030981D02*
X010762Y030745D01*
X010915Y030324D02*
X011115Y030324D01*
X011182Y030257D01*
X011182Y030123D01*
X011115Y030057D01*
X010915Y030057D01*
X011048Y030057D02*
X011182Y029923D01*
X011375Y029990D02*
X011442Y029923D01*
X011576Y029923D01*
X011642Y029990D01*
X011642Y030123D01*
X011576Y030190D01*
X011509Y030190D01*
X011375Y030123D01*
X011375Y030324D01*
X011642Y030324D01*
X011836Y030257D02*
X011903Y030324D01*
X012036Y030324D01*
X012103Y030257D01*
X011836Y029990D01*
X011903Y029923D01*
X012036Y029923D01*
X012103Y029990D01*
X012103Y030257D01*
X011836Y030257D02*
X011836Y029990D01*
X011486Y029182D02*
X011486Y028844D01*
X011740Y028581D02*
X011740Y028345D01*
X012212Y028345D02*
X012212Y028581D01*
X011032Y028694D02*
X010821Y028694D01*
X010915Y029923D02*
X010915Y030324D01*
X011166Y031094D02*
X011166Y031432D01*
X011621Y031582D02*
X011832Y031582D01*
X012286Y031432D02*
X012286Y031094D01*
X013006Y031323D02*
X013006Y031724D01*
X013206Y031724D01*
X013273Y031657D01*
X013273Y031523D01*
X013206Y031457D01*
X013006Y031457D01*
X013140Y031457D02*
X013273Y031323D01*
X013467Y031323D02*
X013733Y031590D01*
X013733Y031657D01*
X013667Y031724D01*
X013533Y031724D01*
X013467Y031657D01*
X013467Y031323D02*
X013733Y031323D01*
X014040Y032745D02*
X014040Y032981D01*
X014512Y032981D02*
X014512Y032745D01*
X015903Y033368D02*
X016236Y033368D01*
X016303Y033435D01*
X016303Y033568D01*
X016236Y033635D01*
X015903Y033635D01*
X015969Y033829D02*
X016036Y033829D01*
X016103Y033895D01*
X016103Y034096D01*
X016236Y034096D02*
X015969Y034096D01*
X015903Y034029D01*
X015903Y033895D01*
X015969Y033829D01*
X016236Y033829D02*
X016303Y033895D01*
X016303Y034029D01*
X016236Y034096D01*
X017796Y035823D02*
X017862Y035890D01*
X017862Y036023D01*
X017796Y036090D01*
X015266Y036813D02*
X015266Y039173D01*
X011499Y037498D02*
X010554Y037498D01*
X010554Y036907D01*
X010272Y036984D02*
X010272Y037251D01*
X010006Y037251D02*
X010272Y036984D01*
X010272Y036791D02*
X010272Y036524D01*
X010006Y036791D01*
X009939Y036791D01*
X009872Y036724D01*
X009872Y036590D01*
X009939Y036524D01*
X009939Y036330D02*
X009872Y036263D01*
X009872Y036130D01*
X009939Y036063D01*
X010206Y036063D01*
X010272Y036130D01*
X010272Y036263D01*
X010206Y036330D01*
X009939Y036984D02*
X009872Y037051D01*
X009872Y037184D01*
X009939Y037251D01*
X010006Y037251D01*
X010373Y034481D02*
X010306Y034414D01*
X010306Y034214D01*
X010706Y034214D01*
X010706Y034414D01*
X010639Y034481D01*
X010373Y034481D01*
X010306Y034021D02*
X010306Y033754D01*
X010706Y033754D01*
X010706Y034021D01*
X010506Y033887D02*
X010506Y033754D01*
X010706Y033560D02*
X010706Y033293D01*
X010306Y033293D01*
X009986Y033515D02*
X009586Y033515D01*
X009786Y033314D01*
X009786Y033581D01*
X009653Y033121D02*
X009586Y033054D01*
X009586Y032854D01*
X009986Y032854D01*
X009986Y033054D01*
X009919Y033121D01*
X009653Y033121D01*
X009586Y032661D02*
X009586Y032394D01*
X009986Y032394D01*
X009986Y032661D01*
X009786Y032527D02*
X009786Y032394D01*
X009986Y032200D02*
X009986Y031933D01*
X009586Y031933D01*
X011356Y032242D02*
X011689Y032242D01*
X011756Y032309D01*
X011756Y032442D01*
X011689Y032509D01*
X011356Y032509D01*
X011489Y032703D02*
X011356Y032836D01*
X011756Y032836D01*
X011756Y032703D02*
X011756Y032969D01*
X011756Y033163D02*
X011689Y033163D01*
X011423Y033430D01*
X011356Y033430D01*
X011356Y033163D01*
X011335Y033683D02*
X011402Y033750D01*
X011335Y033683D02*
X011202Y033683D01*
X011135Y033750D01*
X011135Y034017D01*
X011202Y034084D01*
X011335Y034084D01*
X011402Y034017D01*
X011595Y033950D02*
X011729Y034084D01*
X011729Y033683D01*
X011862Y033683D02*
X011595Y033683D01*
X012056Y033750D02*
X012323Y034017D01*
X012323Y033750D01*
X012256Y033683D01*
X012123Y033683D01*
X012056Y033750D01*
X012056Y034017D01*
X012123Y034084D01*
X012256Y034084D01*
X012323Y034017D01*
X008876Y027887D02*
X008876Y027472D01*
X008876Y027078D02*
X008876Y026663D01*
X009282Y026663D01*
X020800Y032030D02*
X020867Y031963D01*
X021001Y031963D01*
X021067Y032030D01*
X021067Y032364D01*
X021261Y032297D02*
X021328Y032364D01*
X021461Y032364D01*
X021528Y032297D01*
X021528Y032230D01*
X021261Y031963D01*
X021528Y031963D01*
X020800Y032030D02*
X020800Y032364D01*
X022676Y036263D02*
X022676Y037263D01*
X025276Y037263D02*
X025276Y036263D01*
X026323Y038163D02*
X026735Y038163D01*
X027129Y038163D02*
X027541Y038163D01*
X027935Y038163D02*
X028347Y038163D01*
X028741Y038163D02*
X029153Y038163D01*
X029546Y038163D02*
X029959Y038163D01*
X030352Y038163D02*
X030764Y038163D01*
X031158Y038163D02*
X031570Y038163D01*
X031964Y038163D02*
X032376Y038163D01*
X029734Y035124D02*
X029601Y035057D01*
X029467Y034924D01*
X029668Y034924D01*
X029734Y034857D01*
X029734Y034790D01*
X029668Y034724D01*
X029534Y034724D01*
X029467Y034790D01*
X029467Y034924D01*
X029274Y034790D02*
X029274Y035124D01*
X029007Y035124D02*
X029007Y034790D01*
X029074Y034724D01*
X029207Y034724D01*
X029274Y034790D01*
X029023Y034514D02*
X029023Y033412D01*
X027330Y033412D01*
X027330Y034514D01*
X029023Y034514D01*
X029758Y033350D02*
X029824Y033350D01*
X029891Y033283D01*
X029958Y033350D01*
X030024Y033350D01*
X030091Y033283D01*
X030091Y033150D01*
X030024Y033083D01*
X029891Y033216D02*
X029891Y033283D01*
X029758Y033350D02*
X029691Y033283D01*
X029691Y033150D01*
X029758Y033083D01*
X029758Y032889D02*
X029691Y032823D01*
X029691Y032689D01*
X029758Y032623D01*
X030024Y032623D01*
X030091Y032689D01*
X030091Y032823D01*
X030024Y032889D01*
X028423Y032788D02*
X028156Y032788D01*
X028423Y033055D01*
X028423Y033122D01*
X028356Y033189D01*
X028223Y033189D01*
X028156Y033122D01*
X027829Y033189D02*
X027829Y032788D01*
X027962Y032788D02*
X027695Y032788D01*
X027502Y032855D02*
X027435Y032788D01*
X027302Y032788D01*
X027235Y032855D01*
X027235Y033122D01*
X027302Y033189D01*
X027435Y033189D01*
X027502Y033122D01*
X027695Y033055D02*
X027829Y033189D01*
X031792Y025584D02*
X031725Y025517D01*
X031725Y025250D01*
X031792Y025183D01*
X031926Y025183D01*
X031992Y025250D01*
X032186Y025250D02*
X032186Y025183D01*
X032186Y025250D02*
X032453Y025517D01*
X032453Y025584D01*
X032186Y025584D01*
X031992Y025517D02*
X031926Y025584D01*
X031792Y025584D01*
X031854Y024663D02*
X032268Y024663D01*
X032662Y024663D02*
X033076Y024663D01*
X032959Y023520D02*
X033026Y023453D01*
X033026Y023320D01*
X032959Y023253D01*
X032893Y023253D01*
X032826Y023320D01*
X032826Y023453D01*
X032893Y023520D01*
X032959Y023520D01*
X032826Y023453D02*
X032759Y023520D01*
X032693Y023520D01*
X032626Y023453D01*
X032626Y023320D01*
X032693Y023253D01*
X032759Y023253D01*
X032826Y023320D01*
X032326Y023463D02*
X032226Y023463D01*
X030976Y023113D02*
X030976Y022213D01*
D11*
X003258Y039663D02*
X003260Y039729D01*
X003266Y039795D01*
X003276Y039861D01*
X003289Y039926D01*
X003307Y039990D01*
X003328Y040052D01*
X003353Y040114D01*
X003381Y040174D01*
X003413Y040232D01*
X003449Y040288D01*
X003487Y040341D01*
X003529Y040393D01*
X003574Y040442D01*
X003621Y040488D01*
X003672Y040531D01*
X003724Y040571D01*
X003779Y040608D01*
X003836Y040642D01*
X003895Y040672D01*
X003956Y040699D01*
X004018Y040722D01*
X004081Y040741D01*
X004146Y040757D01*
X004211Y040769D01*
X004277Y040777D01*
X004343Y040781D01*
X004409Y040781D01*
X004475Y040777D01*
X004541Y040769D01*
X004606Y040757D01*
X004671Y040741D01*
X004734Y040722D01*
X004796Y040699D01*
X004857Y040672D01*
X004916Y040642D01*
X004973Y040608D01*
X005028Y040571D01*
X005080Y040531D01*
X005131Y040488D01*
X005178Y040442D01*
X005223Y040393D01*
X005265Y040341D01*
X005303Y040288D01*
X005339Y040232D01*
X005371Y040174D01*
X005399Y040114D01*
X005424Y040052D01*
X005445Y039990D01*
X005463Y039926D01*
X005476Y039861D01*
X005486Y039795D01*
X005492Y039729D01*
X005494Y039663D01*
X005492Y039597D01*
X005486Y039531D01*
X005476Y039465D01*
X005463Y039400D01*
X005445Y039336D01*
X005424Y039274D01*
X005399Y039212D01*
X005371Y039152D01*
X005339Y039094D01*
X005303Y039038D01*
X005265Y038985D01*
X005223Y038933D01*
X005178Y038884D01*
X005131Y038838D01*
X005080Y038795D01*
X005028Y038755D01*
X004973Y038718D01*
X004916Y038684D01*
X004857Y038654D01*
X004796Y038627D01*
X004734Y038604D01*
X004671Y038585D01*
X004606Y038569D01*
X004541Y038557D01*
X004475Y038549D01*
X004409Y038545D01*
X004343Y038545D01*
X004277Y038549D01*
X004211Y038557D01*
X004146Y038569D01*
X004081Y038585D01*
X004018Y038604D01*
X003956Y038627D01*
X003895Y038654D01*
X003836Y038684D01*
X003779Y038718D01*
X003724Y038755D01*
X003672Y038795D01*
X003621Y038838D01*
X003574Y038884D01*
X003529Y038933D01*
X003487Y038985D01*
X003449Y039038D01*
X003413Y039094D01*
X003381Y039152D01*
X003353Y039212D01*
X003328Y039274D01*
X003307Y039336D01*
X003289Y039400D01*
X003276Y039465D01*
X003266Y039531D01*
X003260Y039597D01*
X003258Y039663D01*
D12*
X013976Y036623D03*
D13*
X031835Y012800D03*
X031835Y012327D03*
D14*
X031835Y012563D03*
D15*
X032017Y014063D03*
X032037Y014913D03*
X021616Y025263D03*
X017426Y028724D03*
X016976Y033053D03*
X010526Y032503D03*
X009776Y031103D03*
X011587Y025113D03*
D16*
X029376Y016913D02*
X029376Y015413D01*
X030126Y016163D01*
X029926Y016363D01*
X029426Y016863D01*
X029576Y016713D02*
X029576Y015613D01*
X029776Y015813D02*
X029776Y016513D01*
X029926Y016363D02*
X029926Y015963D01*
D17*
X029166Y005573D03*
D18*
X029176Y005593D03*
D19*
X029176Y005613D03*
D20*
X028706Y005633D03*
D21*
X029636Y005633D03*
D22*
X029616Y006233D03*
X028396Y006273D03*
X028476Y005653D03*
X028096Y011313D03*
D23*
X028736Y009473D03*
X029856Y005653D03*
D24*
X029996Y005673D03*
X028316Y005673D03*
X028156Y006313D03*
X028236Y006753D03*
X029316Y009533D03*
X029096Y011493D03*
D25*
X030406Y011233D03*
X031726Y009753D03*
X029906Y008293D03*
X029786Y006253D03*
X028186Y005693D03*
X028066Y006333D03*
X027526Y011093D03*
D26*
X027546Y011113D03*
X029526Y011493D03*
X031166Y007813D03*
X030286Y006813D03*
X029906Y006273D03*
X030126Y005693D03*
X028066Y005713D03*
D27*
X027956Y005733D03*
X027896Y006373D03*
X030016Y006293D03*
X030236Y005713D03*
X031376Y007853D03*
X030456Y010333D03*
X030136Y010473D03*
X031216Y010633D03*
X028676Y009453D03*
D28*
X028716Y010893D03*
X029796Y010733D03*
X030216Y006333D03*
X030116Y006313D03*
X030336Y005733D03*
X027856Y005753D03*
X027816Y006393D03*
D29*
X027746Y006413D03*
X027326Y006573D03*
X027766Y005773D03*
X028246Y006733D03*
X030266Y006793D03*
X030386Y006373D03*
X030306Y006353D03*
X030466Y006393D03*
X030426Y005753D03*
X031306Y006673D03*
X031426Y007413D03*
X031506Y007433D03*
X031586Y007453D03*
X031566Y007893D03*
X030626Y008613D03*
X030366Y008573D03*
X030426Y010353D03*
X030106Y010513D03*
X031186Y010673D03*
X028306Y009473D03*
X028006Y010513D03*
D30*
X028016Y010533D03*
X028076Y011353D03*
X030396Y011253D03*
X031276Y010093D03*
X031736Y009773D03*
X029876Y008273D03*
X031336Y007393D03*
X031676Y007473D03*
X030616Y006433D03*
X030596Y005793D03*
X030516Y005773D03*
X027676Y005793D03*
X027696Y006433D03*
D31*
X027606Y005813D03*
X027486Y007533D03*
X027426Y008673D03*
X027786Y010373D03*
X028326Y010653D03*
X028726Y010913D03*
X029506Y011513D03*
X030946Y009793D03*
X031646Y007913D03*
X031746Y007493D03*
X031186Y007353D03*
X031106Y007793D03*
X031306Y006693D03*
X030686Y006453D03*
X030546Y006413D03*
X030666Y005813D03*
D32*
X030736Y005833D03*
X030816Y005853D03*
X030756Y006473D03*
X030816Y006493D03*
X030876Y006513D03*
X031816Y007513D03*
X030856Y008793D03*
X030856Y008813D03*
X030856Y008833D03*
X030376Y008553D03*
X030936Y009773D03*
X031256Y010073D03*
X031536Y010213D03*
X031876Y010293D03*
X030796Y011053D03*
X030176Y011193D03*
X029716Y011453D03*
X028296Y011293D03*
X027796Y010393D03*
X027156Y010913D03*
X027136Y010893D03*
X027976Y009393D03*
X027956Y009373D03*
X027936Y009353D03*
X028856Y009493D03*
X029296Y009493D03*
X027496Y007513D03*
X027336Y006593D03*
X027636Y006453D03*
X027536Y005833D03*
D33*
X027466Y005853D03*
X027586Y006473D03*
X027546Y006493D03*
X028026Y006793D03*
X027506Y007493D03*
X027446Y008653D03*
X028166Y009493D03*
X028306Y009453D03*
X027806Y010413D03*
X028346Y010673D03*
X027886Y011293D03*
X027166Y010933D03*
X028946Y011473D03*
X029106Y011533D03*
X029646Y010693D03*
X030386Y010373D03*
X031246Y010053D03*
X032186Y010213D03*
X030226Y008593D03*
X029706Y008313D03*
X030486Y006853D03*
X030946Y006533D03*
X030986Y006553D03*
X030886Y005873D03*
X031886Y007533D03*
D34*
X031716Y007933D03*
X030656Y008593D03*
X030976Y009433D03*
X030556Y010313D03*
X030776Y011073D03*
X030596Y011193D03*
X029776Y011433D03*
X028496Y009513D03*
X029536Y006773D03*
X031036Y006573D03*
X031296Y006713D03*
X030996Y005913D03*
X030936Y005893D03*
X031936Y009713D03*
X027496Y006513D03*
X027416Y005873D03*
D35*
X027366Y005893D03*
X027466Y006533D03*
X027426Y006553D03*
X027346Y006613D03*
X027966Y006813D03*
X029046Y006773D03*
X029166Y006153D03*
X030546Y006873D03*
X031086Y006593D03*
X031126Y006613D03*
X031046Y005933D03*
X031146Y007333D03*
X031946Y007553D03*
X030386Y008533D03*
X029886Y008253D03*
X029686Y008333D03*
X029046Y009593D03*
X028586Y009493D03*
X027826Y010433D03*
X028366Y010693D03*
X028726Y010933D03*
X028546Y011193D03*
X028366Y011273D03*
X029806Y010753D03*
X030146Y011173D03*
X030766Y011093D03*
X030926Y009753D03*
X031526Y009713D03*
D36*
X031476Y009693D03*
X030956Y009413D03*
X030876Y009273D03*
X030196Y008613D03*
X030036Y008313D03*
X029436Y009553D03*
X028716Y009433D03*
X028496Y009533D03*
X028136Y009513D03*
X027576Y010253D03*
X027596Y010273D03*
X027196Y010953D03*
X028416Y011253D03*
X028596Y010873D03*
X028876Y011453D03*
X029336Y011453D03*
X029836Y011413D03*
X029876Y011393D03*
X029596Y010673D03*
X031496Y010193D03*
X031996Y009693D03*
X032236Y010193D03*
X031816Y007973D03*
X031776Y007953D03*
X031996Y007573D03*
X031196Y006653D03*
X031156Y006633D03*
X030636Y006913D03*
X030596Y006893D03*
X031096Y005953D03*
X031136Y005973D03*
X027916Y006833D03*
X027316Y005913D03*
X027236Y005953D03*
X027476Y008633D03*
X027356Y008693D03*
X027816Y008593D03*
D37*
X027826Y008613D03*
X027866Y008753D03*
X028126Y009533D03*
X028406Y009493D03*
X028906Y009513D03*
X029046Y009613D03*
X029146Y009553D03*
X029686Y009053D03*
X029686Y009033D03*
X029686Y009013D03*
X030186Y008633D03*
X029666Y008353D03*
X030546Y008633D03*
X030666Y008573D03*
X030886Y009253D03*
X030866Y009293D03*
X030866Y009313D03*
X031166Y009533D03*
X031206Y009553D03*
X031266Y009593D03*
X031306Y009613D03*
X031346Y009633D03*
X031386Y009653D03*
X031426Y009673D03*
X032026Y009673D03*
X032066Y009653D03*
X032286Y010173D03*
X032106Y007633D03*
X032066Y007613D03*
X032026Y007593D03*
X030686Y006933D03*
X031166Y005993D03*
X031206Y006013D03*
X029586Y006793D03*
X027446Y007793D03*
X027226Y006553D03*
X027266Y005933D03*
X027046Y009773D03*
X028066Y010493D03*
X027826Y011273D03*
X027366Y011073D03*
X028546Y011173D03*
X028826Y011433D03*
X029546Y010653D03*
X029926Y010693D03*
D38*
X030136Y011153D03*
X029976Y011333D03*
X029956Y011353D03*
X029916Y011373D03*
X030656Y011173D03*
X030736Y011113D03*
X030876Y011033D03*
X030616Y010293D03*
X030896Y009733D03*
X031096Y009493D03*
X031076Y009473D03*
X031036Y009453D03*
X030936Y009393D03*
X030916Y009373D03*
X030876Y009333D03*
X030896Y009233D03*
X030896Y009213D03*
X031136Y009513D03*
X031236Y009573D03*
X031376Y010113D03*
X031456Y010173D03*
X032096Y009633D03*
X032376Y010113D03*
X032356Y010133D03*
X032316Y010153D03*
X030816Y008773D03*
X030056Y008333D03*
X029676Y008993D03*
X029676Y009073D03*
X029056Y009633D03*
X028936Y009533D03*
X028496Y009553D03*
X028316Y009433D03*
X027876Y008993D03*
X027836Y008633D03*
X027476Y007813D03*
X027416Y007773D03*
X027636Y007693D03*
X027656Y007713D03*
X027816Y006893D03*
X027836Y006873D03*
X027876Y006853D03*
X028436Y006793D03*
X028996Y006793D03*
X030716Y006953D03*
X030776Y006993D03*
X031416Y006653D03*
X031296Y006073D03*
X031236Y006033D03*
X032136Y007653D03*
X032176Y007673D03*
X032196Y007693D03*
X032256Y007733D03*
X032376Y007833D03*
X031916Y008033D03*
X031876Y008013D03*
X031856Y007993D03*
X029516Y010633D03*
X028556Y010853D03*
X028556Y011153D03*
X028456Y011233D03*
X028796Y011413D03*
X028236Y010633D03*
X027976Y010553D03*
X027616Y010293D03*
X027536Y010233D03*
X027016Y010373D03*
X026996Y010393D03*
X027036Y009793D03*
X027316Y011053D03*
X027536Y011153D03*
X027796Y011253D03*
X027196Y005973D03*
D39*
X027166Y005993D03*
X027146Y006013D03*
X027166Y006513D03*
X027186Y006533D03*
X027566Y007553D03*
X027626Y007673D03*
X027486Y007833D03*
X027386Y007753D03*
X027746Y008413D03*
X027846Y008653D03*
X027846Y008713D03*
X027846Y008733D03*
X027886Y008773D03*
X027866Y008973D03*
X027886Y009013D03*
X028106Y009553D03*
X028486Y009573D03*
X028966Y009553D03*
X028986Y009573D03*
X029046Y009653D03*
X029606Y009133D03*
X029626Y009113D03*
X029646Y009093D03*
X029606Y008913D03*
X030166Y008653D03*
X030066Y008353D03*
X029646Y008373D03*
X029626Y008393D03*
X029606Y008413D03*
X030486Y008593D03*
X030546Y008653D03*
X030746Y008633D03*
X030926Y008853D03*
X030926Y008873D03*
X030906Y009153D03*
X030906Y009173D03*
X030906Y009193D03*
X030886Y009353D03*
X030666Y009693D03*
X030686Y009713D03*
X030686Y009733D03*
X030846Y009813D03*
X031046Y009813D03*
X031066Y009833D03*
X031086Y009853D03*
X031106Y009873D03*
X031186Y010113D03*
X031406Y010133D03*
X031346Y010613D03*
X031086Y010613D03*
X030946Y010973D03*
X030926Y010993D03*
X030906Y011013D03*
X030686Y011153D03*
X030046Y011273D03*
X030026Y011293D03*
X030006Y011313D03*
X029966Y010673D03*
X030266Y010453D03*
X030646Y010273D03*
X029486Y010613D03*
X029466Y010593D03*
X028846Y010873D03*
X028526Y010833D03*
X028506Y010813D03*
X028486Y010793D03*
X028206Y010613D03*
X028186Y010593D03*
X028486Y011213D03*
X028566Y011133D03*
X028646Y011273D03*
X028726Y011353D03*
X028746Y011373D03*
X028766Y011393D03*
X027766Y011233D03*
X027746Y011213D03*
X027686Y011073D03*
X027286Y011033D03*
X027046Y010873D03*
X027026Y010853D03*
X027026Y010353D03*
X027446Y010153D03*
X027506Y010213D03*
X027066Y009753D03*
X027106Y009333D03*
X027126Y009313D03*
X027226Y008793D03*
X027286Y008733D03*
X027306Y008713D03*
X028966Y006813D03*
X029286Y006693D03*
X029626Y006813D03*
X029646Y006833D03*
X030746Y006973D03*
X030806Y007013D03*
X031106Y007313D03*
X031026Y007773D03*
X031946Y008053D03*
X031966Y008073D03*
X031986Y008093D03*
X032006Y008113D03*
X032326Y007793D03*
X032306Y007773D03*
X032286Y007753D03*
X032226Y007713D03*
X032346Y007813D03*
X032406Y007853D03*
X032426Y007873D03*
X032546Y008013D03*
X032146Y009593D03*
X032126Y009613D03*
X032466Y010033D03*
X032446Y010053D03*
X032426Y010073D03*
X032406Y010093D03*
X031366Y006133D03*
X031346Y006113D03*
X031326Y006093D03*
X031266Y006053D03*
D40*
X031376Y006153D03*
X031396Y006173D03*
X031416Y006193D03*
X031416Y006213D03*
X031436Y006233D03*
X031456Y006273D03*
X031476Y006313D03*
X031476Y006333D03*
X031496Y006413D03*
X031496Y006433D03*
X031496Y006453D03*
X031496Y006473D03*
X031496Y006493D03*
X031476Y006573D03*
X031456Y006613D03*
X031436Y006633D03*
X031256Y006733D03*
X031236Y006793D03*
X031236Y006813D03*
X031216Y006853D03*
X031216Y006873D03*
X031196Y006933D03*
X031176Y006993D03*
X031176Y007013D03*
X031156Y007073D03*
X031156Y007093D03*
X031136Y007153D03*
X031136Y007173D03*
X031116Y007233D03*
X031116Y007253D03*
X031076Y007413D03*
X031076Y007433D03*
X031056Y007513D03*
X031056Y007533D03*
X031056Y007553D03*
X031036Y007613D03*
X031036Y007633D03*
X031036Y007653D03*
X031036Y007673D03*
X031036Y007693D03*
X031016Y007733D03*
X031016Y007753D03*
X030996Y007973D03*
X030996Y007993D03*
X030996Y008013D03*
X030996Y008033D03*
X030996Y008053D03*
X030976Y008253D03*
X030976Y008273D03*
X030976Y008293D03*
X030976Y008313D03*
X030976Y008333D03*
X030956Y008553D03*
X030956Y008573D03*
X030956Y008593D03*
X030956Y008613D03*
X030956Y008633D03*
X030776Y008673D03*
X030776Y008693D03*
X030756Y008653D03*
X030796Y008753D03*
X030936Y008893D03*
X030936Y008913D03*
X030936Y008933D03*
X030936Y008953D03*
X030916Y009073D03*
X030916Y009093D03*
X030916Y009113D03*
X030916Y009133D03*
X030916Y009453D03*
X030916Y009573D03*
X030916Y009593D03*
X030916Y009613D03*
X030896Y009693D03*
X030896Y009713D03*
X030716Y009753D03*
X030716Y009893D03*
X030696Y009933D03*
X030696Y009953D03*
X030676Y009973D03*
X030656Y009993D03*
X030676Y010033D03*
X030696Y010073D03*
X030716Y010153D03*
X030696Y010213D03*
X030696Y010233D03*
X030676Y010253D03*
X030296Y010433D03*
X029996Y010453D03*
X029996Y010533D03*
X029996Y010613D03*
X029996Y010633D03*
X029976Y010653D03*
X030096Y011113D03*
X030116Y011133D03*
X030076Y011233D03*
X030056Y011253D03*
X030696Y011133D03*
X030956Y010953D03*
X030976Y010933D03*
X030996Y010913D03*
X030996Y010893D03*
X031016Y010873D03*
X031016Y010853D03*
X031036Y010833D03*
X031036Y010813D03*
X031056Y010753D03*
X031376Y010593D03*
X031376Y010573D03*
X031396Y010553D03*
X031396Y010533D03*
X031416Y010513D03*
X031436Y010473D03*
X031436Y010453D03*
X031456Y010413D03*
X031456Y010393D03*
X031416Y010153D03*
X031176Y010133D03*
X031176Y010033D03*
X031156Y009993D03*
X031156Y009973D03*
X031136Y009933D03*
X031116Y009893D03*
X032176Y009573D03*
X032196Y009553D03*
X032196Y009533D03*
X032216Y009513D03*
X032236Y009473D03*
X032256Y009433D03*
X032276Y009373D03*
X032276Y009353D03*
X032296Y009293D03*
X032296Y009273D03*
X032316Y009193D03*
X032316Y009173D03*
X032316Y009153D03*
X032336Y008953D03*
X032336Y008933D03*
X032336Y008913D03*
X032336Y008893D03*
X032336Y008873D03*
X032316Y008673D03*
X032316Y008653D03*
X032296Y008573D03*
X032296Y008553D03*
X032276Y008493D03*
X032276Y008473D03*
X032256Y008433D03*
X032256Y008413D03*
X032236Y008373D03*
X032216Y008333D03*
X032196Y008313D03*
X032196Y008293D03*
X032176Y008273D03*
X032156Y008253D03*
X032136Y008233D03*
X032116Y008213D03*
X032096Y008193D03*
X032076Y008173D03*
X032056Y008153D03*
X032036Y008133D03*
X032436Y007893D03*
X032456Y007913D03*
X032476Y007933D03*
X032496Y007953D03*
X032516Y007973D03*
X032536Y007993D03*
X032556Y008033D03*
X032576Y008053D03*
X032596Y008073D03*
X032596Y008093D03*
X032616Y008113D03*
X032636Y008133D03*
X032636Y008153D03*
X032656Y008173D03*
X032656Y008193D03*
X032676Y008213D03*
X032676Y008233D03*
X032696Y008253D03*
X032696Y008273D03*
X032716Y008313D03*
X032716Y008333D03*
X032736Y008373D03*
X032736Y008393D03*
X032756Y008453D03*
X032756Y008473D03*
X032776Y008553D03*
X032776Y008573D03*
X032776Y008593D03*
X032796Y008693D03*
X032796Y008713D03*
X032796Y008733D03*
X032796Y008753D03*
X032796Y008773D03*
X032796Y008793D03*
X032796Y009033D03*
X032796Y009053D03*
X032796Y009073D03*
X032796Y009093D03*
X032796Y009113D03*
X032796Y009133D03*
X032776Y009253D03*
X032776Y009273D03*
X032756Y009373D03*
X032756Y009393D03*
X032736Y009453D03*
X032736Y009473D03*
X032716Y009533D03*
X032716Y009553D03*
X032696Y009593D03*
X032696Y009613D03*
X032676Y009653D03*
X032676Y009673D03*
X032656Y009693D03*
X032656Y009713D03*
X032636Y009753D03*
X032616Y009793D03*
X032596Y009833D03*
X032576Y009873D03*
X032556Y009893D03*
X032556Y009913D03*
X032536Y009933D03*
X032516Y009953D03*
X032516Y009973D03*
X032496Y009993D03*
X032476Y010013D03*
X030676Y008553D03*
X030536Y008673D03*
X030536Y008693D03*
X030156Y008693D03*
X030156Y008673D03*
X030136Y008513D03*
X030136Y008493D03*
X030116Y008453D03*
X030116Y008433D03*
X030096Y008393D03*
X030076Y008373D03*
X029636Y008173D03*
X029636Y008153D03*
X029636Y008133D03*
X029636Y008113D03*
X029636Y008093D03*
X029636Y008073D03*
X029636Y008053D03*
X029656Y007793D03*
X029656Y007773D03*
X029656Y007753D03*
X029656Y007733D03*
X029656Y007713D03*
X029656Y007693D03*
X029676Y007433D03*
X029676Y007413D03*
X029676Y007393D03*
X029676Y007373D03*
X029676Y007353D03*
X029676Y007333D03*
X029676Y007313D03*
X029676Y007293D03*
X029676Y006993D03*
X029676Y006973D03*
X029676Y006953D03*
X029676Y006933D03*
X029676Y006913D03*
X029656Y006853D03*
X030076Y006953D03*
X030076Y006973D03*
X030076Y006993D03*
X030076Y007013D03*
X030096Y006873D03*
X030116Y006853D03*
X030256Y006773D03*
X030816Y007033D03*
X030836Y007053D03*
X030836Y007073D03*
X030836Y007093D03*
X030836Y007153D03*
X030836Y007173D03*
X030836Y007193D03*
X030836Y007213D03*
X030816Y007313D03*
X030816Y007333D03*
X030796Y007413D03*
X030796Y007433D03*
X030776Y007533D03*
X030776Y007553D03*
X030756Y007633D03*
X030756Y007653D03*
X030736Y007733D03*
X030736Y007753D03*
X030716Y007873D03*
X030716Y007893D03*
X030696Y008093D03*
X030696Y008113D03*
X030696Y008133D03*
X030696Y008153D03*
X030696Y008173D03*
X030696Y008193D03*
X030696Y008213D03*
X030696Y008233D03*
X030696Y008253D03*
X030696Y008273D03*
X030076Y007633D03*
X030076Y007613D03*
X030076Y007593D03*
X030076Y007573D03*
X030076Y007553D03*
X030076Y007533D03*
X030076Y007513D03*
X030076Y007493D03*
X030076Y007473D03*
X030076Y007453D03*
X030076Y007433D03*
X030076Y007413D03*
X030076Y007393D03*
X028956Y007613D03*
X028956Y007633D03*
X028956Y007653D03*
X028956Y007673D03*
X028956Y007693D03*
X028956Y007713D03*
X028956Y007733D03*
X028956Y007753D03*
X028956Y007773D03*
X028956Y007793D03*
X028476Y007793D03*
X028476Y007773D03*
X028476Y007753D03*
X028476Y007733D03*
X028476Y007713D03*
X028476Y007693D03*
X028476Y007673D03*
X028476Y007813D03*
X028476Y007833D03*
X028496Y007273D03*
X028496Y007253D03*
X028496Y007233D03*
X028496Y007213D03*
X028496Y007193D03*
X028496Y007173D03*
X028496Y007153D03*
X028496Y007133D03*
X028496Y007113D03*
X028496Y007093D03*
X028496Y007073D03*
X028496Y007053D03*
X028496Y007033D03*
X028496Y007013D03*
X028496Y006993D03*
X028476Y006853D03*
X028456Y006813D03*
X027856Y007453D03*
X027856Y007473D03*
X027876Y007553D03*
X027876Y007573D03*
X027876Y007593D03*
X027896Y007713D03*
X027896Y007733D03*
X027896Y007753D03*
X027896Y007773D03*
X027896Y007793D03*
X027896Y007813D03*
X027896Y007833D03*
X027896Y007853D03*
X027896Y007873D03*
X027896Y007893D03*
X027896Y007913D03*
X027696Y007853D03*
X027696Y007793D03*
X027696Y007773D03*
X027676Y007913D03*
X027656Y007953D03*
X027656Y007973D03*
X027656Y007993D03*
X027656Y008013D03*
X027656Y008033D03*
X027676Y008113D03*
X027676Y008133D03*
X027676Y008153D03*
X027696Y008213D03*
X027696Y008233D03*
X027716Y008273D03*
X027716Y008293D03*
X027716Y008313D03*
X027736Y008393D03*
X027756Y008433D03*
X027776Y008453D03*
X027776Y008553D03*
X027776Y008573D03*
X027856Y008673D03*
X027856Y008693D03*
X027916Y008793D03*
X027916Y008893D03*
X027916Y008913D03*
X027896Y008933D03*
X027876Y008953D03*
X027896Y009093D03*
X027896Y009113D03*
X027876Y009153D03*
X027876Y009173D03*
X027856Y009213D03*
X027856Y009233D03*
X027836Y009293D03*
X027836Y009313D03*
X027856Y009333D03*
X028076Y009413D03*
X028076Y009433D03*
X028096Y009573D03*
X028096Y009593D03*
X028516Y009113D03*
X028516Y009093D03*
X028516Y009073D03*
X028516Y009053D03*
X028496Y008873D03*
X028496Y008853D03*
X028496Y008833D03*
X028496Y008813D03*
X028476Y008633D03*
X028476Y008613D03*
X028476Y008593D03*
X028476Y008573D03*
X027876Y008373D03*
X027876Y008353D03*
X027876Y008333D03*
X027876Y008313D03*
X027876Y008293D03*
X027876Y008273D03*
X027876Y008253D03*
X027876Y008233D03*
X027876Y008213D03*
X027516Y008213D03*
X027516Y008233D03*
X027516Y008253D03*
X027536Y008333D03*
X027536Y008353D03*
X027536Y008533D03*
X027536Y008553D03*
X027536Y008573D03*
X027536Y008593D03*
X027536Y008613D03*
X027516Y008693D03*
X027256Y008753D03*
X027236Y008773D03*
X027216Y008813D03*
X027196Y008833D03*
X027196Y008853D03*
X027176Y008873D03*
X027176Y008893D03*
X027156Y008933D03*
X027136Y008993D03*
X027136Y009013D03*
X027116Y009133D03*
X027116Y009153D03*
X027116Y009173D03*
X027116Y009193D03*
X027136Y009273D03*
X027136Y009293D03*
X027076Y009353D03*
X027076Y009373D03*
X027056Y009393D03*
X027056Y009413D03*
X027036Y009473D03*
X027036Y009653D03*
X027036Y009673D03*
X027056Y009713D03*
X027056Y009733D03*
X026996Y009813D03*
X026976Y009853D03*
X026956Y009933D03*
X026956Y009953D03*
X026956Y009973D03*
X026956Y009993D03*
X026956Y010053D03*
X026956Y010073D03*
X026956Y010093D03*
X026956Y010113D03*
X026976Y010213D03*
X026996Y010253D03*
X026996Y010273D03*
X027016Y010313D03*
X027036Y010333D03*
X026976Y010413D03*
X026956Y010433D03*
X026936Y010473D03*
X026936Y010493D03*
X026936Y010513D03*
X026936Y010633D03*
X026936Y010653D03*
X026936Y010673D03*
X026956Y010713D03*
X026956Y010733D03*
X026976Y010773D03*
X026976Y010793D03*
X026996Y010813D03*
X027016Y010833D03*
X027256Y010993D03*
X027276Y011013D03*
X027716Y011153D03*
X027716Y011173D03*
X027736Y011193D03*
X028156Y010573D03*
X028136Y010553D03*
X028076Y010473D03*
X027896Y010493D03*
X027876Y010473D03*
X027876Y010453D03*
X027676Y010353D03*
X027656Y010333D03*
X027656Y010313D03*
X027476Y010193D03*
X027456Y010173D03*
X027436Y010133D03*
X027416Y010113D03*
X027416Y010093D03*
X027396Y010053D03*
X027396Y010033D03*
X027396Y009933D03*
X028436Y010713D03*
X028456Y010753D03*
X028476Y010773D03*
X028556Y011093D03*
X028556Y011113D03*
X028616Y011213D03*
X028616Y011233D03*
X028636Y011253D03*
X028656Y011293D03*
X028676Y011313D03*
X028696Y011333D03*
X028856Y010853D03*
X029416Y010553D03*
X029416Y010533D03*
X029396Y010513D03*
X029396Y010493D03*
X029436Y010573D03*
X029336Y011433D03*
X029056Y009733D03*
X029056Y009713D03*
X029056Y009693D03*
X029056Y009673D03*
X029116Y009573D03*
X028936Y009373D03*
X028936Y009353D03*
X028936Y009333D03*
X028936Y009313D03*
X028936Y009293D03*
X028936Y009273D03*
X028936Y009253D03*
X028936Y009233D03*
X028936Y009213D03*
X028936Y009193D03*
X028936Y009173D03*
X028936Y009153D03*
X028936Y009133D03*
X028936Y009113D03*
X028936Y009093D03*
X028936Y009073D03*
X028936Y009053D03*
X028936Y009033D03*
X028956Y008693D03*
X028956Y008673D03*
X028956Y008653D03*
X028956Y008633D03*
X028956Y008613D03*
X028956Y008593D03*
X028956Y008573D03*
X029516Y008613D03*
X029516Y008633D03*
X029516Y008653D03*
X029516Y008673D03*
X029516Y008693D03*
X029536Y008773D03*
X029556Y008813D03*
X029556Y008833D03*
X029576Y008853D03*
X029576Y008873D03*
X029596Y008893D03*
X029616Y008933D03*
X029636Y008953D03*
X029656Y008973D03*
X029596Y009153D03*
X029576Y009173D03*
X029556Y009193D03*
X029556Y009213D03*
X029536Y009233D03*
X029536Y009253D03*
X029516Y009293D03*
X029496Y009353D03*
X029496Y009373D03*
X029476Y009493D03*
X028536Y009433D03*
X028536Y009413D03*
X028536Y009393D03*
X028536Y009373D03*
X028536Y009353D03*
X028536Y009333D03*
X028536Y009313D03*
X029536Y008533D03*
X029556Y008493D03*
X029556Y008473D03*
X029576Y008453D03*
X029596Y008433D03*
X028956Y006833D03*
X027796Y006913D03*
X027776Y006953D03*
X027776Y006973D03*
X027776Y006993D03*
X027776Y007013D03*
X027776Y007033D03*
X027796Y007133D03*
X027796Y007153D03*
X027816Y007253D03*
X027816Y007273D03*
X027836Y007353D03*
X027836Y007373D03*
X027556Y007373D03*
X027556Y007393D03*
X027536Y007293D03*
X027536Y007273D03*
X027516Y007213D03*
X027516Y007193D03*
X027496Y007133D03*
X027496Y007113D03*
X027476Y007053D03*
X027476Y007033D03*
X027456Y006973D03*
X027456Y006953D03*
X027436Y006893D03*
X027436Y006873D03*
X027416Y006793D03*
X027416Y006773D03*
X027396Y006653D03*
X027396Y006633D03*
X027156Y006493D03*
X027136Y006473D03*
X027116Y006453D03*
X027116Y006433D03*
X027096Y006393D03*
X027076Y006333D03*
X027076Y006313D03*
X027076Y006293D03*
X027076Y006193D03*
X027076Y006173D03*
X027096Y006113D03*
X027096Y006093D03*
X027116Y006073D03*
X027116Y006053D03*
X027136Y006033D03*
X027376Y007553D03*
X027356Y007593D03*
X027356Y007713D03*
X027376Y007733D03*
X027476Y007853D03*
X027456Y007893D03*
X027456Y007913D03*
X027456Y007933D03*
X027476Y008013D03*
X027476Y008033D03*
X027476Y008053D03*
X027476Y008073D03*
X027496Y008153D03*
X027616Y007653D03*
X027596Y007593D03*
D41*
X027586Y007573D03*
X027606Y007613D03*
X027606Y007633D03*
X027686Y007733D03*
X027686Y007753D03*
X027706Y007813D03*
X027706Y007833D03*
X027686Y007873D03*
X027686Y007893D03*
X027666Y007933D03*
X027666Y008053D03*
X027666Y008073D03*
X027666Y008093D03*
X027686Y008173D03*
X027686Y008193D03*
X027706Y008253D03*
X027726Y008333D03*
X027726Y008353D03*
X027726Y008373D03*
X027786Y008473D03*
X027786Y008493D03*
X027786Y008513D03*
X027786Y008533D03*
X027866Y008533D03*
X027866Y008513D03*
X027866Y008493D03*
X027866Y008473D03*
X027866Y008453D03*
X027866Y008433D03*
X027866Y008413D03*
X027866Y008393D03*
X027866Y008553D03*
X027866Y008573D03*
X027926Y008813D03*
X027926Y008833D03*
X027926Y008853D03*
X027926Y008873D03*
X027906Y009033D03*
X027906Y009053D03*
X027906Y009073D03*
X027886Y009133D03*
X027866Y009193D03*
X027846Y009253D03*
X027846Y009273D03*
X027986Y009333D03*
X028086Y009453D03*
X028086Y009473D03*
X028486Y009593D03*
X028526Y009293D03*
X028526Y009273D03*
X028526Y009253D03*
X028526Y009233D03*
X028526Y009213D03*
X028526Y009193D03*
X028526Y009173D03*
X028526Y009153D03*
X028526Y009133D03*
X028506Y009033D03*
X028506Y009013D03*
X028506Y008993D03*
X028506Y008973D03*
X028506Y008953D03*
X028506Y008933D03*
X028506Y008913D03*
X028506Y008893D03*
X028486Y008793D03*
X028486Y008773D03*
X028486Y008753D03*
X028486Y008733D03*
X028486Y008713D03*
X028486Y008693D03*
X028486Y008673D03*
X028486Y008653D03*
X028466Y008553D03*
X028466Y008533D03*
X028466Y008513D03*
X028466Y008493D03*
X028466Y008473D03*
X028466Y008453D03*
X028466Y008433D03*
X028466Y008413D03*
X028466Y008393D03*
X028466Y008373D03*
X028466Y008353D03*
X028466Y008333D03*
X028466Y008313D03*
X028466Y008293D03*
X028466Y008273D03*
X028466Y008253D03*
X028466Y008233D03*
X028466Y008213D03*
X028466Y008193D03*
X028466Y008173D03*
X028466Y008153D03*
X028466Y008133D03*
X028466Y008113D03*
X028466Y008093D03*
X028466Y008073D03*
X028466Y008053D03*
X028466Y008033D03*
X028466Y008013D03*
X028466Y007993D03*
X028466Y007973D03*
X028466Y007953D03*
X028466Y007933D03*
X028466Y007913D03*
X028466Y007893D03*
X028466Y007873D03*
X028466Y007853D03*
X028486Y007653D03*
X028486Y007633D03*
X028486Y007613D03*
X028486Y007593D03*
X028486Y007573D03*
X028486Y007553D03*
X028486Y007533D03*
X028486Y007513D03*
X028486Y007493D03*
X028486Y007473D03*
X028486Y007453D03*
X028486Y007433D03*
X028486Y007413D03*
X028486Y007393D03*
X028486Y007373D03*
X028486Y007353D03*
X028486Y007333D03*
X028486Y007313D03*
X028486Y007293D03*
X028486Y006973D03*
X028486Y006953D03*
X028486Y006933D03*
X028486Y006913D03*
X028486Y006893D03*
X028486Y006873D03*
X028466Y006833D03*
X027866Y007493D03*
X027866Y007513D03*
X027866Y007533D03*
X027886Y007613D03*
X027886Y007633D03*
X027886Y007653D03*
X027886Y007673D03*
X027886Y007693D03*
X027886Y007933D03*
X027886Y007953D03*
X027886Y007973D03*
X027886Y007993D03*
X027886Y008013D03*
X027886Y008033D03*
X027886Y008053D03*
X027886Y008073D03*
X027886Y008093D03*
X027886Y008113D03*
X027886Y008133D03*
X027886Y008153D03*
X027886Y008173D03*
X027886Y008193D03*
X027526Y008273D03*
X027526Y008293D03*
X027526Y008313D03*
X027546Y008373D03*
X027546Y008393D03*
X027546Y008413D03*
X027546Y008433D03*
X027546Y008453D03*
X027546Y008473D03*
X027546Y008493D03*
X027546Y008513D03*
X027506Y008193D03*
X027506Y008173D03*
X027486Y008133D03*
X027486Y008113D03*
X027486Y008093D03*
X027466Y007993D03*
X027466Y007973D03*
X027466Y007953D03*
X027466Y007873D03*
X027346Y007693D03*
X027346Y007673D03*
X027346Y007653D03*
X027346Y007633D03*
X027346Y007613D03*
X027366Y007573D03*
X027566Y007473D03*
X027566Y007453D03*
X027566Y007433D03*
X027566Y007413D03*
X027546Y007353D03*
X027546Y007333D03*
X027546Y007313D03*
X027526Y007253D03*
X027526Y007233D03*
X027506Y007173D03*
X027506Y007153D03*
X027486Y007093D03*
X027486Y007073D03*
X027466Y007013D03*
X027466Y006993D03*
X027446Y006933D03*
X027446Y006913D03*
X027426Y006853D03*
X027426Y006833D03*
X027426Y006813D03*
X027406Y006753D03*
X027406Y006733D03*
X027406Y006713D03*
X027406Y006693D03*
X027406Y006673D03*
X027106Y006413D03*
X027086Y006373D03*
X027086Y006353D03*
X027066Y006273D03*
X027066Y006253D03*
X027066Y006233D03*
X027066Y006213D03*
X027086Y006153D03*
X027086Y006133D03*
X027786Y006933D03*
X027786Y007053D03*
X027786Y007073D03*
X027786Y007093D03*
X027786Y007113D03*
X027806Y007173D03*
X027806Y007193D03*
X027806Y007213D03*
X027806Y007233D03*
X027826Y007293D03*
X027826Y007313D03*
X027826Y007333D03*
X027846Y007393D03*
X027846Y007413D03*
X027846Y007433D03*
X028946Y007433D03*
X028946Y007413D03*
X028946Y007393D03*
X028946Y007373D03*
X028946Y007353D03*
X028946Y007333D03*
X028946Y007313D03*
X028946Y007293D03*
X028946Y007273D03*
X028946Y007253D03*
X028946Y007233D03*
X028946Y007213D03*
X028946Y007193D03*
X028946Y007173D03*
X028946Y007153D03*
X028946Y007133D03*
X028946Y007113D03*
X028946Y007093D03*
X028946Y007073D03*
X028946Y007053D03*
X028946Y007033D03*
X028946Y007013D03*
X028946Y006993D03*
X028946Y006973D03*
X028946Y006953D03*
X028946Y006933D03*
X028946Y006913D03*
X028946Y006893D03*
X028946Y006873D03*
X028946Y006853D03*
X028946Y007453D03*
X028946Y007473D03*
X028946Y007493D03*
X028946Y007513D03*
X028946Y007533D03*
X028946Y007553D03*
X028946Y007573D03*
X028946Y007593D03*
X028966Y007813D03*
X028966Y007833D03*
X028966Y007853D03*
X028966Y007873D03*
X028966Y007893D03*
X028966Y007913D03*
X028966Y007933D03*
X028966Y007953D03*
X028966Y007973D03*
X028966Y007993D03*
X028966Y008013D03*
X028966Y008033D03*
X028966Y008053D03*
X028966Y008073D03*
X028966Y008093D03*
X028966Y008113D03*
X028966Y008133D03*
X028966Y008153D03*
X028966Y008173D03*
X028966Y008193D03*
X028966Y008213D03*
X028966Y008233D03*
X028966Y008253D03*
X028966Y008273D03*
X028966Y008293D03*
X028966Y008313D03*
X028966Y008333D03*
X028966Y008353D03*
X028966Y008373D03*
X028966Y008393D03*
X028966Y008413D03*
X028966Y008433D03*
X028966Y008453D03*
X028966Y008473D03*
X028966Y008493D03*
X028966Y008513D03*
X028966Y008533D03*
X028966Y008553D03*
X028946Y008713D03*
X028946Y008733D03*
X028946Y008753D03*
X028946Y008773D03*
X028946Y008793D03*
X028946Y008813D03*
X028946Y008833D03*
X028946Y008853D03*
X028946Y008873D03*
X028946Y008893D03*
X028946Y008913D03*
X028946Y008933D03*
X028946Y008953D03*
X028946Y008973D03*
X028946Y008993D03*
X028946Y009013D03*
X028946Y009393D03*
X028946Y009413D03*
X028946Y009433D03*
X028946Y009453D03*
X029046Y009753D03*
X029486Y009473D03*
X029486Y009453D03*
X029486Y009433D03*
X029486Y009413D03*
X029486Y009393D03*
X029506Y009333D03*
X029506Y009313D03*
X029526Y009273D03*
X029546Y008793D03*
X029526Y008753D03*
X029526Y008733D03*
X029526Y008713D03*
X029526Y008593D03*
X029526Y008573D03*
X029526Y008553D03*
X029546Y008513D03*
X029626Y008293D03*
X029626Y008273D03*
X029626Y008253D03*
X029626Y008233D03*
X029626Y008213D03*
X029626Y008193D03*
X029646Y008033D03*
X029646Y008013D03*
X029646Y007993D03*
X029646Y007973D03*
X029646Y007953D03*
X029646Y007933D03*
X029646Y007913D03*
X029646Y007893D03*
X029646Y007873D03*
X029646Y007853D03*
X029646Y007833D03*
X029646Y007813D03*
X029666Y007673D03*
X029666Y007653D03*
X029666Y007633D03*
X029666Y007613D03*
X029666Y007593D03*
X029666Y007573D03*
X029666Y007553D03*
X029666Y007533D03*
X029666Y007513D03*
X029666Y007493D03*
X029666Y007473D03*
X029666Y007453D03*
X029686Y007273D03*
X029686Y007253D03*
X029686Y007233D03*
X029686Y007213D03*
X029686Y007193D03*
X029686Y007173D03*
X029686Y007153D03*
X029686Y007133D03*
X029686Y007113D03*
X029686Y007093D03*
X029686Y007073D03*
X029686Y007053D03*
X029686Y007033D03*
X029686Y007013D03*
X029666Y006893D03*
X029666Y006873D03*
X030086Y006893D03*
X030086Y006913D03*
X030086Y006933D03*
X030066Y007033D03*
X030066Y007053D03*
X030066Y007073D03*
X030066Y007093D03*
X030066Y007113D03*
X030066Y007133D03*
X030066Y007153D03*
X030066Y007173D03*
X030066Y007193D03*
X030066Y007213D03*
X030066Y007233D03*
X030066Y007253D03*
X030066Y007273D03*
X030066Y007293D03*
X030066Y007313D03*
X030066Y007333D03*
X030066Y007353D03*
X030066Y007373D03*
X030086Y007653D03*
X030086Y007673D03*
X030086Y007693D03*
X030086Y007713D03*
X030086Y007733D03*
X030086Y007753D03*
X030086Y007773D03*
X030086Y007793D03*
X030086Y007813D03*
X030086Y007833D03*
X030086Y007853D03*
X030086Y007873D03*
X030086Y007893D03*
X030086Y007913D03*
X030086Y007933D03*
X030086Y007953D03*
X030086Y007973D03*
X030086Y007993D03*
X030086Y008013D03*
X030086Y008033D03*
X030086Y008053D03*
X030086Y008073D03*
X030086Y008093D03*
X030086Y008113D03*
X030086Y008133D03*
X030086Y008153D03*
X030086Y008173D03*
X030086Y008193D03*
X030086Y008213D03*
X030086Y008233D03*
X030086Y008253D03*
X030086Y008273D03*
X030106Y008413D03*
X030126Y008473D03*
X030146Y008533D03*
X030146Y008553D03*
X030146Y008573D03*
X030526Y008713D03*
X030686Y008533D03*
X030686Y008513D03*
X030686Y008493D03*
X030686Y008473D03*
X030686Y008453D03*
X030686Y008433D03*
X030686Y008413D03*
X030686Y008393D03*
X030686Y008373D03*
X030686Y008353D03*
X030686Y008333D03*
X030686Y008313D03*
X030686Y008293D03*
X030706Y008073D03*
X030706Y008053D03*
X030706Y008033D03*
X030706Y008013D03*
X030706Y007993D03*
X030706Y007973D03*
X030706Y007953D03*
X030706Y007933D03*
X030706Y007913D03*
X030726Y007853D03*
X030726Y007833D03*
X030726Y007813D03*
X030726Y007793D03*
X030726Y007773D03*
X030746Y007713D03*
X030746Y007693D03*
X030746Y007673D03*
X030766Y007613D03*
X030766Y007593D03*
X030766Y007573D03*
X030786Y007513D03*
X030786Y007493D03*
X030786Y007473D03*
X030786Y007453D03*
X030806Y007393D03*
X030806Y007373D03*
X030806Y007353D03*
X030826Y007293D03*
X030826Y007273D03*
X030826Y007253D03*
X030826Y007233D03*
X030846Y007133D03*
X030846Y007113D03*
X031126Y007193D03*
X031126Y007213D03*
X031106Y007273D03*
X031106Y007293D03*
X031086Y007393D03*
X031066Y007453D03*
X031066Y007473D03*
X031066Y007493D03*
X031046Y007573D03*
X031046Y007593D03*
X031026Y007713D03*
X031006Y007853D03*
X031006Y007873D03*
X031006Y007893D03*
X031006Y007913D03*
X031006Y007933D03*
X031006Y007953D03*
X030986Y008073D03*
X030986Y008093D03*
X030986Y008113D03*
X030986Y008133D03*
X030986Y008153D03*
X030986Y008173D03*
X030986Y008193D03*
X030986Y008213D03*
X030986Y008233D03*
X030966Y008353D03*
X030966Y008373D03*
X030966Y008393D03*
X030966Y008413D03*
X030966Y008433D03*
X030966Y008453D03*
X030966Y008473D03*
X030966Y008493D03*
X030966Y008513D03*
X030966Y008533D03*
X030946Y008653D03*
X030946Y008673D03*
X030946Y008693D03*
X030946Y008713D03*
X030946Y008733D03*
X030946Y008753D03*
X030946Y008773D03*
X030786Y008733D03*
X030786Y008713D03*
X030926Y008973D03*
X030926Y008993D03*
X030926Y009013D03*
X030926Y009033D03*
X030926Y009053D03*
X030926Y009473D03*
X030926Y009493D03*
X030926Y009513D03*
X030926Y009533D03*
X030926Y009553D03*
X030906Y009633D03*
X030906Y009653D03*
X030906Y009673D03*
X030846Y009833D03*
X030726Y009833D03*
X030726Y009813D03*
X030726Y009793D03*
X030726Y009773D03*
X030726Y009853D03*
X030726Y009873D03*
X030706Y009913D03*
X030666Y010013D03*
X030686Y010053D03*
X030706Y010093D03*
X030706Y010113D03*
X030706Y010133D03*
X030706Y010173D03*
X030706Y010193D03*
X030306Y010393D03*
X030306Y010413D03*
X030006Y010553D03*
X030006Y010573D03*
X030006Y010593D03*
X030106Y011093D03*
X030086Y011213D03*
X029346Y011413D03*
X028866Y010833D03*
X028866Y010813D03*
X028866Y010793D03*
X028866Y010773D03*
X029386Y010473D03*
X028426Y010633D03*
X028446Y010733D03*
X027246Y010973D03*
X026966Y010753D03*
X026946Y010693D03*
X026926Y010613D03*
X026926Y010593D03*
X026926Y010573D03*
X026926Y010553D03*
X026926Y010533D03*
X026946Y010453D03*
X027006Y010293D03*
X026986Y010233D03*
X026966Y010193D03*
X026966Y010173D03*
X026966Y010153D03*
X026966Y010133D03*
X026946Y010033D03*
X026946Y010013D03*
X026966Y009913D03*
X026966Y009893D03*
X026966Y009873D03*
X026986Y009833D03*
X027046Y009693D03*
X027026Y009633D03*
X027026Y009613D03*
X027026Y009593D03*
X027026Y009573D03*
X027026Y009553D03*
X027026Y009533D03*
X027026Y009513D03*
X027026Y009493D03*
X027046Y009453D03*
X027046Y009433D03*
X027126Y009253D03*
X027126Y009233D03*
X027126Y009213D03*
X027126Y009113D03*
X027126Y009093D03*
X027126Y009073D03*
X027126Y009053D03*
X027126Y009033D03*
X027146Y008973D03*
X027146Y008953D03*
X027166Y008913D03*
X027386Y009953D03*
X027386Y009973D03*
X027386Y009993D03*
X027386Y010013D03*
X027406Y010073D03*
X031046Y010773D03*
X031046Y010793D03*
X031066Y010733D03*
X031066Y010713D03*
X031066Y010693D03*
X031426Y010493D03*
X031446Y010433D03*
X031466Y010373D03*
X031466Y010353D03*
X031466Y010333D03*
X031466Y010313D03*
X031466Y010293D03*
X031466Y010273D03*
X031466Y010253D03*
X031166Y010153D03*
X031166Y010013D03*
X031146Y009953D03*
X031126Y009913D03*
X032226Y009493D03*
X032246Y009453D03*
X032266Y009413D03*
X032266Y009393D03*
X032286Y009333D03*
X032286Y009313D03*
X032306Y009253D03*
X032306Y009233D03*
X032306Y009213D03*
X032326Y009133D03*
X032326Y009113D03*
X032326Y009093D03*
X032326Y009073D03*
X032326Y009053D03*
X032326Y009033D03*
X032326Y009013D03*
X032326Y008993D03*
X032326Y008973D03*
X032326Y008853D03*
X032326Y008833D03*
X032326Y008813D03*
X032326Y008793D03*
X032326Y008773D03*
X032326Y008753D03*
X032326Y008733D03*
X032326Y008713D03*
X032326Y008693D03*
X032306Y008633D03*
X032306Y008613D03*
X032306Y008593D03*
X032286Y008533D03*
X032286Y008513D03*
X032266Y008453D03*
X032246Y008393D03*
X032226Y008353D03*
X032706Y008293D03*
X032726Y008353D03*
X032746Y008413D03*
X032746Y008433D03*
X032766Y008493D03*
X032766Y008513D03*
X032766Y008533D03*
X032786Y008613D03*
X032786Y008633D03*
X032786Y008653D03*
X032786Y008673D03*
X032806Y008813D03*
X032806Y008833D03*
X032806Y008853D03*
X032806Y008873D03*
X032806Y008893D03*
X032806Y008913D03*
X032806Y008933D03*
X032806Y008953D03*
X032806Y008973D03*
X032806Y008993D03*
X032806Y009013D03*
X032786Y009153D03*
X032786Y009173D03*
X032786Y009193D03*
X032786Y009213D03*
X032786Y009233D03*
X032766Y009293D03*
X032766Y009313D03*
X032766Y009333D03*
X032766Y009353D03*
X032746Y009413D03*
X032746Y009433D03*
X032726Y009493D03*
X032726Y009513D03*
X032706Y009573D03*
X032686Y009633D03*
X032646Y009733D03*
X032626Y009773D03*
X032606Y009813D03*
X032586Y009853D03*
X031146Y007133D03*
X031146Y007113D03*
X031166Y007053D03*
X031166Y007033D03*
X031186Y006973D03*
X031186Y006953D03*
X031206Y006913D03*
X031206Y006893D03*
X031226Y006833D03*
X031246Y006773D03*
X031246Y006753D03*
X031466Y006593D03*
X031486Y006553D03*
X031486Y006533D03*
X031486Y006513D03*
X031486Y006393D03*
X031486Y006373D03*
X031486Y006353D03*
X031466Y006293D03*
X031446Y006253D03*
D42*
X029146Y006173D03*
D43*
X029116Y006193D03*
D44*
X029116Y006213D03*
D45*
X028726Y006233D03*
X031826Y010233D03*
D46*
X028516Y006253D03*
D47*
X028266Y006293D03*
X031226Y007833D03*
X031866Y010273D03*
X030406Y011213D03*
D48*
X029776Y010713D03*
X029336Y009513D03*
X029276Y006713D03*
X027976Y006353D03*
D49*
X028216Y006773D03*
X029296Y006733D03*
X031736Y009733D03*
D50*
X029466Y011473D03*
X029286Y006753D03*
D51*
X030306Y006833D03*
X028086Y011333D03*
D52*
X027566Y011133D03*
X029106Y011513D03*
X030126Y010493D03*
X031206Y010653D03*
X031486Y007873D03*
X031226Y007373D03*
D53*
X030156Y008713D03*
X028496Y009613D03*
X028096Y009613D03*
X027396Y009913D03*
X027696Y011053D03*
X028556Y011073D03*
X028856Y010753D03*
X031076Y010593D03*
X031716Y009793D03*
X027476Y007473D03*
D54*
X028086Y010453D03*
X030666Y009673D03*
D55*
X031866Y010253D03*
D56*
X017597Y003351D03*
D57*
X020055Y003351D03*
D58*
X017597Y003353D03*
D59*
X017825Y003976D03*
X020055Y003353D03*
X020285Y003976D03*
D60*
X020394Y003828D03*
X020394Y003826D03*
X020394Y003823D03*
X020304Y003518D03*
X020301Y003516D03*
X019936Y003521D03*
X019936Y003523D03*
X019936Y003526D03*
X019936Y003528D03*
X020031Y003796D03*
X020034Y003798D03*
X020036Y003801D03*
X020039Y003803D03*
X019289Y003378D03*
X019289Y003376D03*
X019289Y003373D03*
X019151Y003948D03*
X019151Y003951D03*
X017936Y003818D03*
X017936Y003816D03*
X017821Y003508D03*
X017819Y003506D03*
X017816Y003503D03*
X017814Y003501D03*
X017599Y003356D03*
X017474Y003523D03*
X017474Y003526D03*
X017474Y003528D03*
X017474Y003531D03*
X017474Y003533D03*
X017571Y003798D03*
X017574Y003801D03*
X017576Y003803D03*
X017579Y003806D03*
X016889Y003956D03*
X016104Y003833D03*
X016104Y003831D03*
X016104Y003828D03*
X016104Y003826D03*
X016039Y003706D03*
X015994Y003573D03*
X015994Y003571D03*
D61*
X015986Y003501D03*
X015984Y003493D03*
X015984Y003491D03*
X015981Y003486D03*
X015981Y003483D03*
X015981Y003481D03*
X015979Y003478D03*
X015979Y003476D03*
X015979Y003473D03*
X015976Y003471D03*
X015976Y003468D03*
X015976Y003466D03*
X015976Y003463D03*
X015974Y003461D03*
X015974Y003458D03*
X015974Y003456D03*
X015971Y003451D03*
X015971Y003448D03*
X015969Y003443D03*
X015969Y003441D03*
X015969Y003438D03*
X015966Y003436D03*
X015966Y003433D03*
X015966Y003431D03*
X015964Y003426D03*
X015964Y003423D03*
X015964Y003421D03*
X015961Y003416D03*
X015961Y003413D03*
X015961Y003411D03*
X015959Y003403D03*
X015959Y003401D03*
X015959Y003398D03*
X015956Y003386D03*
X015956Y003383D03*
X016601Y003566D03*
X016606Y003573D03*
X016614Y003583D03*
X016619Y003591D03*
X016621Y003593D03*
X016624Y003598D03*
X016626Y003601D03*
X016629Y003606D03*
X016631Y003608D03*
X016634Y003611D03*
X016636Y003616D03*
X016639Y003618D03*
X016641Y003623D03*
X016644Y003626D03*
X016646Y003628D03*
X016646Y003631D03*
X016649Y003633D03*
X016651Y003636D03*
X016651Y003638D03*
X016654Y003641D03*
X016656Y003643D03*
X016659Y003646D03*
X016659Y003648D03*
X016661Y003651D03*
X016664Y003653D03*
X016666Y003658D03*
X016669Y003661D03*
X016671Y003666D03*
X016674Y003668D03*
X016676Y003671D03*
X016679Y003676D03*
X016681Y003678D03*
X016684Y003683D03*
X016686Y003686D03*
X016691Y003693D03*
X016696Y003701D03*
X016699Y003703D03*
X016704Y003711D03*
X016709Y003718D03*
X016894Y003718D03*
X016894Y003716D03*
X016894Y003713D03*
X016894Y003711D03*
X016894Y003708D03*
X016894Y003706D03*
X016894Y003703D03*
X016894Y003701D03*
X016894Y003698D03*
X016894Y003696D03*
X016894Y003693D03*
X016894Y003691D03*
X016894Y003688D03*
X016894Y003721D03*
X016894Y003723D03*
X016894Y003726D03*
X016894Y003728D03*
X016894Y003731D03*
X016894Y003733D03*
X016894Y003736D03*
X016894Y003738D03*
X016894Y003741D03*
X016894Y003743D03*
X016894Y003746D03*
X016894Y003748D03*
X016894Y003751D03*
X016896Y003776D03*
X016896Y003778D03*
X016896Y003781D03*
X016896Y003783D03*
X016896Y003786D03*
X016896Y003788D03*
X016896Y003791D03*
X016896Y003793D03*
X016896Y003796D03*
X016896Y003798D03*
X016896Y003801D03*
X016896Y003803D03*
X016896Y003806D03*
X016896Y003808D03*
X016896Y003811D03*
X016896Y003813D03*
X018931Y003366D03*
X018934Y003373D03*
X018936Y003381D03*
X018939Y003386D03*
X018939Y003388D03*
X018941Y003393D03*
X018944Y003401D03*
X018946Y003408D03*
X018949Y003413D03*
X018949Y003416D03*
X018951Y003421D03*
X018954Y003428D03*
X018956Y003436D03*
X018959Y003441D03*
X018959Y003443D03*
X018961Y003448D03*
X018964Y003456D03*
X018966Y003463D03*
X018969Y003468D03*
X018969Y003471D03*
X018971Y003476D03*
X018974Y003483D03*
X018976Y003491D03*
X018979Y003496D03*
X018981Y003503D03*
X018984Y003511D03*
X018986Y003518D03*
X018989Y003523D03*
X018991Y003531D03*
X018994Y003538D03*
X018996Y003546D03*
X018999Y003551D03*
X019001Y003558D03*
X019004Y003566D03*
X019006Y003573D03*
X019009Y003578D03*
X019011Y003586D03*
X019014Y003593D03*
X019016Y003601D03*
X019019Y003606D03*
X019021Y003613D03*
X019024Y003621D03*
X019026Y003628D03*
X019029Y003633D03*
X019031Y003641D03*
X019034Y003648D03*
X019036Y003656D03*
X019039Y003661D03*
X019041Y003668D03*
X019044Y003676D03*
X019046Y003683D03*
X019049Y003688D03*
X019051Y003696D03*
X019054Y003703D03*
X019056Y003711D03*
X019059Y003716D03*
X019061Y003723D03*
X019064Y003731D03*
X019066Y003738D03*
X019069Y003743D03*
X019071Y003751D03*
X019074Y003758D03*
X019076Y003766D03*
X019399Y003656D03*
X019401Y003661D03*
X019404Y003668D03*
X019406Y003676D03*
X019409Y003683D03*
X019411Y003688D03*
X019414Y003696D03*
X019416Y003703D03*
X019419Y003711D03*
X019421Y003716D03*
X019424Y003723D03*
X019426Y003731D03*
X019429Y003738D03*
X019431Y003743D03*
X019434Y003751D03*
X019436Y003758D03*
X019439Y003766D03*
X019441Y003771D03*
X019444Y003778D03*
X019446Y003786D03*
X019449Y003793D03*
X019451Y003798D03*
X019454Y003806D03*
X019456Y003813D03*
X019459Y003821D03*
X019461Y003826D03*
X019464Y003833D03*
X019466Y003841D03*
X019469Y003846D03*
X019469Y003848D03*
X019471Y003853D03*
X019474Y003861D03*
X019476Y003868D03*
X019479Y003873D03*
X019479Y003876D03*
X019481Y003881D03*
X019484Y003888D03*
X019486Y003896D03*
X019489Y003901D03*
X019489Y003903D03*
X019491Y003908D03*
X019494Y003916D03*
X019496Y003923D03*
X019499Y003928D03*
X019499Y003931D03*
X019501Y003936D03*
X019504Y003943D03*
X019506Y003951D03*
X019509Y003956D03*
X019509Y003958D03*
X019511Y003963D03*
X019396Y003648D03*
X019394Y003641D03*
X019391Y003633D03*
X019389Y003628D03*
X019386Y003621D03*
X019384Y003613D03*
X019381Y003606D03*
X019379Y003601D03*
X019376Y003593D03*
X019374Y003586D03*
X019371Y003581D03*
X019371Y003578D03*
X019369Y003573D03*
X019366Y003566D03*
X020054Y003356D03*
X020321Y003551D03*
X020324Y003556D03*
X020326Y003561D03*
X020391Y003768D03*
D62*
X020285Y003493D03*
X019947Y003486D03*
X020077Y003841D03*
X020080Y003843D03*
X019150Y003918D03*
X019150Y003921D03*
X019150Y003923D03*
X017925Y003846D03*
X017617Y003843D03*
X017615Y003841D03*
X017485Y003488D03*
X017600Y003358D03*
X017785Y003476D03*
X016880Y003931D03*
X016880Y003933D03*
X022397Y003378D03*
X022397Y003376D03*
D63*
X020391Y003836D03*
X020054Y003821D03*
X020051Y003818D03*
X020049Y003816D03*
X019939Y003511D03*
X019939Y003508D03*
X020054Y003358D03*
X020296Y003508D03*
X019151Y003938D03*
X019151Y003941D03*
X019151Y003943D03*
X017934Y003828D03*
X017934Y003826D03*
X017809Y003496D03*
X017806Y003493D03*
X017804Y003491D03*
X017476Y003511D03*
X017476Y003513D03*
X016886Y003948D03*
X016886Y003951D03*
X016104Y003838D03*
X016031Y003701D03*
X015991Y003581D03*
D64*
X016870Y003903D03*
X016870Y003906D03*
X017500Y003468D03*
X017600Y003361D03*
X017912Y003861D03*
X019147Y003883D03*
X019147Y003886D03*
X019147Y003888D03*
X019295Y003441D03*
X019962Y003468D03*
X020270Y003478D03*
X022410Y003411D03*
D65*
X022401Y003386D03*
X022399Y003381D03*
X020381Y003853D03*
X020084Y003846D03*
X019949Y003483D03*
X020054Y003361D03*
X019291Y003408D03*
X019291Y003411D03*
X019149Y003913D03*
X019149Y003916D03*
X017924Y003848D03*
X017621Y003846D03*
X017486Y003486D03*
X017489Y003483D03*
X017781Y003473D03*
X016879Y003928D03*
X016096Y003853D03*
X015984Y003591D03*
D66*
X015994Y003543D03*
X015994Y003541D03*
X015994Y003538D03*
X015994Y003536D03*
X015994Y003533D03*
X015991Y003523D03*
X015991Y003521D03*
X015956Y003373D03*
X015956Y003371D03*
X015956Y003368D03*
X015956Y003366D03*
X015956Y003363D03*
X015634Y003473D03*
X015634Y003476D03*
X015636Y003481D03*
X015639Y003488D03*
X015641Y003496D03*
X015644Y003501D03*
X015644Y003503D03*
X015646Y003508D03*
X015649Y003516D03*
X015651Y003523D03*
X015654Y003528D03*
X015654Y003531D03*
X015656Y003536D03*
X015659Y003543D03*
X015661Y003551D03*
X015664Y003556D03*
X015664Y003558D03*
X015666Y003563D03*
X015669Y003571D03*
X015671Y003578D03*
X015674Y003583D03*
X015674Y003586D03*
X015676Y003591D03*
X015631Y003468D03*
X015629Y003461D03*
X015626Y003453D03*
X015624Y003448D03*
X015624Y003446D03*
X015621Y003441D03*
X015619Y003433D03*
X015616Y003426D03*
X015614Y003421D03*
X015614Y003418D03*
X015611Y003413D03*
X015609Y003406D03*
X015606Y003398D03*
X015604Y003393D03*
X015604Y003391D03*
X015601Y003386D03*
X015599Y003378D03*
X015596Y003371D03*
X015594Y003366D03*
X015594Y003363D03*
X016054Y003718D03*
X016056Y003721D03*
X016059Y003723D03*
X016061Y003726D03*
X016064Y003728D03*
X016064Y003731D03*
X016066Y003733D03*
X016069Y003736D03*
X016071Y003741D03*
X016074Y003743D03*
X016076Y003748D03*
X016079Y003753D03*
X016081Y003756D03*
X016081Y003758D03*
X016084Y003761D03*
X016084Y003763D03*
X016086Y003766D03*
X016086Y003768D03*
X016089Y003771D03*
X016089Y003773D03*
X016091Y003778D03*
X016094Y003783D03*
X016094Y003786D03*
X016096Y003791D03*
X016539Y003478D03*
X016541Y003481D03*
X016546Y003488D03*
X016549Y003491D03*
X016551Y003496D03*
X016554Y003498D03*
X016559Y003506D03*
X016571Y003523D03*
X016536Y003473D03*
X016534Y003471D03*
X016531Y003466D03*
X016529Y003463D03*
X016526Y003461D03*
X016526Y003458D03*
X016524Y003456D03*
X016521Y003453D03*
X016519Y003448D03*
X016516Y003446D03*
X016514Y003443D03*
X016514Y003441D03*
X016511Y003438D03*
X016509Y003436D03*
X016506Y003431D03*
X016504Y003428D03*
X016501Y003426D03*
X016501Y003423D03*
X016499Y003421D03*
X016496Y003418D03*
X016494Y003413D03*
X016491Y003411D03*
X016489Y003406D03*
X016486Y003403D03*
X016481Y003396D03*
X016479Y003393D03*
X016476Y003388D03*
X016474Y003386D03*
X016469Y003378D03*
X016464Y003371D03*
X016889Y003496D03*
X016889Y003498D03*
X016889Y003501D03*
X016889Y003503D03*
X016889Y003506D03*
X016889Y003508D03*
X016889Y003511D03*
X016889Y003513D03*
X016889Y003516D03*
X016889Y003518D03*
X016889Y003521D03*
X016889Y003523D03*
X016889Y003526D03*
X016889Y003528D03*
X016889Y003531D03*
X016889Y003533D03*
X016889Y003536D03*
X016889Y003538D03*
X016889Y003541D03*
X016889Y003543D03*
X016889Y003546D03*
X016889Y003548D03*
X016889Y003551D03*
X016889Y003553D03*
X016889Y003556D03*
X016889Y003558D03*
X016891Y003578D03*
X016891Y003581D03*
X016891Y003583D03*
X016891Y003586D03*
X016891Y003588D03*
X016891Y003591D03*
X016891Y003593D03*
X016891Y003596D03*
X016891Y003598D03*
X016891Y003601D03*
X016891Y003603D03*
X016891Y003606D03*
X016891Y003608D03*
X016891Y003611D03*
X016891Y003613D03*
X016891Y003616D03*
X016891Y003618D03*
X016891Y003621D03*
X017481Y003616D03*
X017484Y003626D03*
X017486Y003636D03*
X017489Y003643D03*
X017491Y003651D03*
X017494Y003658D03*
X017496Y003666D03*
X017499Y003671D03*
X017501Y003678D03*
X017504Y003683D03*
X017509Y003696D03*
X017511Y003701D03*
X017514Y003706D03*
X017846Y003541D03*
X017851Y003548D03*
X017854Y003553D03*
X017856Y003556D03*
X017856Y003558D03*
X017859Y003561D03*
X017861Y003566D03*
X017864Y003568D03*
X017866Y003573D03*
X017869Y003578D03*
X017871Y003583D03*
X017936Y003778D03*
X017936Y003781D03*
X017936Y003783D03*
X017936Y003786D03*
X017936Y003788D03*
X017936Y003791D03*
X017824Y003973D03*
X018454Y003648D03*
X018451Y003641D03*
X018449Y003636D03*
X018446Y003628D03*
X018444Y003621D03*
X018441Y003613D03*
X018439Y003608D03*
X018436Y003601D03*
X018434Y003593D03*
X018431Y003586D03*
X018429Y003581D03*
X018426Y003573D03*
X018424Y003566D03*
X018421Y003558D03*
X018419Y003553D03*
X018416Y003546D03*
X018414Y003538D03*
X018411Y003531D03*
X018409Y003526D03*
X018406Y003518D03*
X018404Y003511D03*
X018401Y003506D03*
X018401Y003503D03*
X018399Y003498D03*
X018396Y003491D03*
X018394Y003483D03*
X018391Y003478D03*
X018391Y003476D03*
X018389Y003471D03*
X018386Y003463D03*
X018384Y003456D03*
X018381Y003451D03*
X018381Y003448D03*
X018379Y003443D03*
X018376Y003436D03*
X018374Y003428D03*
X018371Y003423D03*
X018371Y003421D03*
X018369Y003416D03*
X018366Y003408D03*
X018364Y003401D03*
X018361Y003396D03*
X018361Y003393D03*
X018359Y003388D03*
X018356Y003381D03*
X018354Y003373D03*
X018351Y003368D03*
X018351Y003366D03*
X018456Y003656D03*
X018459Y003663D03*
X018461Y003668D03*
X018464Y003676D03*
X018466Y003683D03*
X018469Y003691D03*
X018471Y003696D03*
X018474Y003703D03*
X018476Y003711D03*
X018479Y003718D03*
X018481Y003723D03*
X018484Y003731D03*
X018486Y003738D03*
X018489Y003746D03*
X018491Y003751D03*
X018494Y003758D03*
X018496Y003766D03*
X018499Y003773D03*
X018501Y003778D03*
X018504Y003786D03*
X018506Y003793D03*
X018509Y003801D03*
X018511Y003806D03*
X018514Y003813D03*
X018516Y003821D03*
X018519Y003828D03*
X018521Y003833D03*
X018524Y003841D03*
X018526Y003848D03*
X018529Y003856D03*
X018531Y003861D03*
X018534Y003868D03*
X018536Y003876D03*
X018539Y003883D03*
X018541Y003888D03*
X018544Y003896D03*
X018546Y003903D03*
X018549Y003911D03*
X018551Y003916D03*
X018554Y003923D03*
X018556Y003931D03*
X018559Y003936D03*
X018559Y003938D03*
X018561Y003943D03*
X018564Y003951D03*
X018566Y003958D03*
X018569Y003963D03*
X019199Y003763D03*
X019199Y003761D03*
X019201Y003753D03*
X019201Y003751D03*
X019201Y003748D03*
X019204Y003741D03*
X019204Y003738D03*
X019206Y003731D03*
X019206Y003728D03*
X019206Y003726D03*
X019209Y003718D03*
X019209Y003716D03*
X019211Y003708D03*
X019211Y003706D03*
X019211Y003703D03*
X019214Y003696D03*
X019214Y003693D03*
X019216Y003686D03*
X019216Y003683D03*
X019216Y003681D03*
X019219Y003673D03*
X019219Y003671D03*
X019221Y003661D03*
X019221Y003658D03*
X019224Y003651D03*
X019224Y003648D03*
X019224Y003646D03*
X019226Y003638D03*
X019226Y003636D03*
X019229Y003628D03*
X019229Y003626D03*
X019229Y003623D03*
X019231Y003616D03*
X019231Y003613D03*
X019234Y003606D03*
X019234Y003603D03*
X019234Y003601D03*
X019236Y003593D03*
X019236Y003591D03*
X019239Y003583D03*
X019239Y003581D03*
X019239Y003578D03*
X019241Y003571D03*
X019241Y003568D03*
X019244Y003561D03*
X019946Y003628D03*
X019949Y003638D03*
X019951Y003646D03*
X019954Y003653D03*
X019956Y003661D03*
X019959Y003666D03*
X019961Y003673D03*
X019966Y003686D03*
X019969Y003691D03*
X020314Y003538D03*
X020314Y003536D03*
X020316Y003541D03*
X020319Y003546D03*
X020396Y003793D03*
X020396Y003796D03*
X020396Y003798D03*
X021439Y003478D03*
X021441Y003486D03*
X021444Y003493D03*
X021446Y003498D03*
X021446Y003501D03*
X021449Y003506D03*
X021451Y003513D03*
X021454Y003521D03*
X021456Y003526D03*
X021456Y003528D03*
X021459Y003533D03*
X021461Y003541D03*
X021464Y003548D03*
X021466Y003553D03*
X021466Y003556D03*
X021469Y003561D03*
X021471Y003568D03*
X021474Y003576D03*
X021476Y003581D03*
X021476Y003583D03*
X021479Y003588D03*
X021481Y003596D03*
X021484Y003603D03*
X021486Y003608D03*
X021486Y003611D03*
X021489Y003616D03*
X022396Y003563D03*
X022396Y003561D03*
X022396Y003558D03*
X022396Y003556D03*
X022396Y003553D03*
X022399Y003596D03*
X022399Y003598D03*
X022399Y003601D03*
X022401Y003636D03*
X022401Y003638D03*
X022531Y003556D03*
X022536Y003563D03*
X022541Y003571D03*
X022546Y003578D03*
X022551Y003586D03*
X022556Y003593D03*
X022561Y003601D03*
X022566Y003608D03*
X022571Y003616D03*
X022526Y003548D03*
D67*
X022525Y003546D03*
X022522Y003543D03*
X022527Y003551D03*
X022530Y003553D03*
X022532Y003558D03*
X022535Y003561D03*
X022537Y003566D03*
X022540Y003568D03*
X022542Y003573D03*
X022545Y003576D03*
X022547Y003581D03*
X022550Y003583D03*
X022552Y003588D03*
X022555Y003591D03*
X022557Y003596D03*
X022560Y003598D03*
X022562Y003603D03*
X022565Y003606D03*
X022567Y003611D03*
X022570Y003613D03*
X022572Y003618D03*
X022575Y003621D03*
X022577Y003623D03*
X022577Y003626D03*
X022580Y003628D03*
X022582Y003631D03*
X022582Y003633D03*
X022585Y003636D03*
X022587Y003638D03*
X022587Y003641D03*
X022590Y003643D03*
X022592Y003646D03*
X022592Y003648D03*
X022595Y003651D03*
X022597Y003653D03*
X022597Y003656D03*
X022600Y003658D03*
X022602Y003661D03*
X022602Y003663D03*
X022605Y003666D03*
X022607Y003668D03*
X022607Y003671D03*
X022610Y003673D03*
X022612Y003676D03*
X022612Y003678D03*
X022615Y003681D03*
X022617Y003683D03*
X022617Y003686D03*
X022620Y003688D03*
X022622Y003691D03*
X022622Y003693D03*
X022625Y003696D03*
X022627Y003698D03*
X022627Y003701D03*
X022630Y003703D03*
X022632Y003706D03*
X022632Y003708D03*
X022635Y003711D03*
X022637Y003713D03*
X022640Y003718D03*
X022642Y003721D03*
X022645Y003726D03*
X022647Y003728D03*
X022650Y003733D03*
X022652Y003736D03*
X022655Y003741D03*
X022657Y003743D03*
X022660Y003748D03*
X022662Y003751D03*
X022665Y003756D03*
X022667Y003758D03*
X022670Y003763D03*
X022672Y003766D03*
X022675Y003771D03*
X022677Y003773D03*
X022680Y003778D03*
X022682Y003781D03*
X022685Y003786D03*
X022687Y003788D03*
X022690Y003793D03*
X022692Y003796D03*
X022695Y003801D03*
X022697Y003803D03*
X022702Y003811D03*
X022707Y003818D03*
X022712Y003826D03*
X022717Y003833D03*
X022722Y003841D03*
X022727Y003848D03*
X022732Y003856D03*
X022737Y003863D03*
X022742Y003871D03*
X022747Y003878D03*
X022752Y003886D03*
X022757Y003893D03*
X022420Y003928D03*
X022420Y003931D03*
X022420Y003933D03*
X022420Y003936D03*
X022420Y003938D03*
X022420Y003941D03*
X022417Y003903D03*
X022417Y003901D03*
X022417Y003898D03*
X022417Y003896D03*
X022417Y003893D03*
X022417Y003891D03*
X022417Y003888D03*
X022415Y003866D03*
X022415Y003863D03*
X022415Y003861D03*
X022415Y003858D03*
X022415Y003856D03*
X022415Y003853D03*
X022415Y003851D03*
X022415Y003848D03*
X022415Y003846D03*
X022412Y003828D03*
X022412Y003826D03*
X022412Y003823D03*
X022412Y003821D03*
X022412Y003818D03*
X022412Y003816D03*
X022412Y003813D03*
X022412Y003811D03*
X022412Y003808D03*
X022412Y003806D03*
X022412Y003803D03*
X022410Y003791D03*
X022410Y003788D03*
X022410Y003786D03*
X022410Y003783D03*
X022410Y003781D03*
X022410Y003778D03*
X022410Y003776D03*
X022410Y003773D03*
X022410Y003771D03*
X022410Y003768D03*
X022410Y003766D03*
X022410Y003763D03*
X022407Y003753D03*
X022407Y003751D03*
X022407Y003748D03*
X022407Y003746D03*
X022407Y003743D03*
X022407Y003741D03*
X022407Y003738D03*
X022407Y003736D03*
X022407Y003733D03*
X022407Y003731D03*
X022407Y003728D03*
X022407Y003726D03*
X022407Y003723D03*
X022407Y003721D03*
X022405Y003713D03*
X022405Y003711D03*
X022405Y003708D03*
X022405Y003706D03*
X022405Y003703D03*
X022405Y003701D03*
X022405Y003698D03*
X022405Y003696D03*
X022405Y003693D03*
X022405Y003691D03*
X022405Y003688D03*
X022405Y003686D03*
X022405Y003683D03*
X022405Y003681D03*
X022405Y003678D03*
X022402Y003676D03*
X022402Y003673D03*
X022402Y003671D03*
X022402Y003668D03*
X022402Y003666D03*
X022402Y003663D03*
X022402Y003661D03*
X022402Y003658D03*
X022402Y003656D03*
X022402Y003653D03*
X022402Y003651D03*
X022402Y003648D03*
X022402Y003646D03*
X022402Y003643D03*
X022402Y003641D03*
X022400Y003633D03*
X022400Y003631D03*
X022400Y003628D03*
X022400Y003626D03*
X022400Y003623D03*
X022400Y003621D03*
X022400Y003618D03*
X022400Y003616D03*
X022400Y003613D03*
X022400Y003611D03*
X022400Y003608D03*
X022400Y003606D03*
X022400Y003603D03*
X022397Y003593D03*
X022397Y003591D03*
X022397Y003588D03*
X022397Y003586D03*
X022397Y003583D03*
X022397Y003581D03*
X022397Y003578D03*
X022397Y003576D03*
X022397Y003573D03*
X022397Y003571D03*
X022397Y003568D03*
X022397Y003566D03*
X022395Y003551D03*
X022395Y003548D03*
X022395Y003546D03*
X022395Y003543D03*
X021490Y003618D03*
X021490Y003621D03*
X021487Y003613D03*
X021485Y003606D03*
X021482Y003601D03*
X021482Y003598D03*
X021480Y003593D03*
X021480Y003591D03*
X021477Y003586D03*
X021475Y003578D03*
X021472Y003573D03*
X021472Y003571D03*
X021470Y003566D03*
X021470Y003563D03*
X021467Y003558D03*
X021465Y003551D03*
X021462Y003546D03*
X021462Y003543D03*
X021460Y003538D03*
X021460Y003536D03*
X021457Y003531D03*
X021455Y003523D03*
X021452Y003518D03*
X021452Y003516D03*
X021450Y003511D03*
X021450Y003508D03*
X021447Y003503D03*
X021445Y003496D03*
X021442Y003491D03*
X021442Y003488D03*
X021440Y003483D03*
X021440Y003481D03*
X021437Y003476D03*
X021437Y003473D03*
X020395Y003801D03*
X020395Y003803D03*
X020395Y003806D03*
X020395Y003808D03*
X020312Y003533D03*
X020310Y003531D03*
X019945Y003621D03*
X019945Y003623D03*
X019945Y003626D03*
X019947Y003631D03*
X019947Y003633D03*
X019947Y003636D03*
X019950Y003641D03*
X019950Y003643D03*
X019952Y003648D03*
X019952Y003651D03*
X019955Y003656D03*
X019955Y003658D03*
X019957Y003663D03*
X019960Y003668D03*
X019960Y003671D03*
X019962Y003676D03*
X019962Y003678D03*
X019965Y003681D03*
X019965Y003683D03*
X019967Y003688D03*
X019970Y003693D03*
X019970Y003696D03*
X019972Y003698D03*
X019972Y003701D03*
X019975Y003703D03*
X019975Y003706D03*
X019977Y003708D03*
X019977Y003711D03*
X019980Y003713D03*
X019980Y003716D03*
X019982Y003718D03*
X019982Y003721D03*
X019985Y003723D03*
X019985Y003726D03*
X019987Y003728D03*
X019987Y003731D03*
X019990Y003733D03*
X019990Y003736D03*
X019992Y003738D03*
X019995Y003743D03*
X019997Y003748D03*
X020000Y003751D03*
X020002Y003756D03*
X020007Y003763D03*
X019942Y003618D03*
X019942Y003616D03*
X019942Y003613D03*
X019942Y003611D03*
X019940Y003608D03*
X019940Y003606D03*
X019940Y003603D03*
X019940Y003601D03*
X019940Y003598D03*
X019937Y003596D03*
X019937Y003593D03*
X019937Y003591D03*
X019937Y003588D03*
X019937Y003586D03*
X019935Y003576D03*
X019935Y003573D03*
X019935Y003571D03*
X019935Y003568D03*
X019287Y003363D03*
X019152Y003961D03*
X019152Y003963D03*
X018567Y003961D03*
X018565Y003956D03*
X018565Y003953D03*
X018562Y003948D03*
X018562Y003946D03*
X018560Y003941D03*
X018557Y003933D03*
X018555Y003928D03*
X018555Y003926D03*
X018552Y003921D03*
X018552Y003918D03*
X018550Y003913D03*
X018547Y003908D03*
X018547Y003906D03*
X018545Y003901D03*
X018545Y003898D03*
X018542Y003893D03*
X018542Y003891D03*
X018540Y003886D03*
X018537Y003881D03*
X018537Y003878D03*
X018535Y003873D03*
X018535Y003871D03*
X018532Y003866D03*
X018532Y003863D03*
X018530Y003858D03*
X018527Y003853D03*
X018527Y003851D03*
X018525Y003846D03*
X018525Y003843D03*
X018522Y003838D03*
X018522Y003836D03*
X018520Y003831D03*
X018517Y003826D03*
X018517Y003823D03*
X018515Y003818D03*
X018515Y003816D03*
X018512Y003811D03*
X018512Y003808D03*
X018510Y003803D03*
X018507Y003798D03*
X018507Y003796D03*
X018505Y003791D03*
X018505Y003788D03*
X018502Y003783D03*
X018502Y003781D03*
X018500Y003776D03*
X018497Y003771D03*
X018497Y003768D03*
X018495Y003763D03*
X018495Y003761D03*
X018492Y003756D03*
X018492Y003753D03*
X018490Y003748D03*
X018487Y003743D03*
X018487Y003741D03*
X018485Y003736D03*
X018485Y003733D03*
X018482Y003728D03*
X018482Y003726D03*
X018480Y003721D03*
X018477Y003716D03*
X018477Y003713D03*
X018475Y003708D03*
X018475Y003706D03*
X018472Y003701D03*
X018472Y003698D03*
X018470Y003693D03*
X018467Y003688D03*
X018467Y003686D03*
X018465Y003681D03*
X018465Y003678D03*
X018462Y003673D03*
X018462Y003671D03*
X018460Y003666D03*
X018457Y003661D03*
X018457Y003658D03*
X018455Y003653D03*
X018455Y003651D03*
X018452Y003646D03*
X018452Y003643D03*
X018450Y003638D03*
X018447Y003633D03*
X018447Y003631D03*
X018445Y003626D03*
X018445Y003623D03*
X018442Y003618D03*
X018442Y003616D03*
X018440Y003611D03*
X018437Y003606D03*
X018437Y003603D03*
X018435Y003598D03*
X018435Y003596D03*
X018432Y003591D03*
X018432Y003588D03*
X018430Y003583D03*
X018427Y003578D03*
X018427Y003576D03*
X018425Y003571D03*
X018425Y003568D03*
X018422Y003563D03*
X018422Y003561D03*
X018420Y003556D03*
X018417Y003551D03*
X018417Y003548D03*
X018415Y003543D03*
X018415Y003541D03*
X018412Y003536D03*
X018412Y003533D03*
X018410Y003528D03*
X018407Y003523D03*
X018407Y003521D03*
X018405Y003516D03*
X018405Y003513D03*
X018402Y003508D03*
X018400Y003501D03*
X018397Y003496D03*
X018397Y003493D03*
X018395Y003488D03*
X018395Y003486D03*
X018392Y003481D03*
X018390Y003473D03*
X018387Y003468D03*
X018387Y003466D03*
X018385Y003461D03*
X018385Y003458D03*
X018382Y003453D03*
X018380Y003446D03*
X018377Y003441D03*
X018377Y003438D03*
X018375Y003433D03*
X018375Y003431D03*
X018372Y003426D03*
X018370Y003418D03*
X018367Y003413D03*
X018367Y003411D03*
X018365Y003406D03*
X018365Y003403D03*
X018362Y003398D03*
X018360Y003391D03*
X018357Y003386D03*
X018357Y003383D03*
X018355Y003378D03*
X018355Y003376D03*
X018352Y003371D03*
X018350Y003363D03*
X017852Y003551D03*
X017850Y003546D03*
X017847Y003543D03*
X017845Y003538D03*
X017842Y003536D03*
X017837Y003528D03*
X017937Y003793D03*
X017937Y003796D03*
X017937Y003798D03*
X017937Y003801D03*
X017937Y003803D03*
X017547Y003766D03*
X017542Y003758D03*
X017537Y003751D03*
X017535Y003746D03*
X017532Y003741D03*
X017530Y003738D03*
X017530Y003736D03*
X017527Y003733D03*
X017525Y003728D03*
X017522Y003723D03*
X017520Y003721D03*
X017520Y003718D03*
X017517Y003716D03*
X017517Y003713D03*
X017515Y003711D03*
X017515Y003708D03*
X017512Y003703D03*
X017510Y003698D03*
X017507Y003693D03*
X017507Y003691D03*
X017505Y003688D03*
X017505Y003686D03*
X017502Y003681D03*
X017500Y003676D03*
X017500Y003673D03*
X017497Y003668D03*
X017495Y003663D03*
X017495Y003661D03*
X017492Y003656D03*
X017492Y003653D03*
X017490Y003648D03*
X017490Y003646D03*
X017487Y003641D03*
X017487Y003638D03*
X017485Y003633D03*
X017485Y003631D03*
X017485Y003628D03*
X017482Y003623D03*
X017482Y003621D03*
X017482Y003618D03*
X017480Y003613D03*
X017480Y003611D03*
X017480Y003608D03*
X017480Y003606D03*
X017477Y003603D03*
X017477Y003601D03*
X017477Y003598D03*
X017477Y003596D03*
X017475Y003591D03*
X017475Y003588D03*
X017475Y003586D03*
X017475Y003583D03*
X017475Y003581D03*
X016887Y003493D03*
X016887Y003491D03*
X016887Y003488D03*
X016887Y003486D03*
X016887Y003483D03*
X016887Y003481D03*
X016887Y003478D03*
X016887Y003476D03*
X016887Y003473D03*
X016887Y003471D03*
X016887Y003468D03*
X016887Y003466D03*
X016887Y003463D03*
X016887Y003461D03*
X016887Y003458D03*
X016887Y003456D03*
X016887Y003453D03*
X016887Y003451D03*
X016887Y003448D03*
X016887Y003446D03*
X016887Y003443D03*
X016887Y003441D03*
X016887Y003438D03*
X016887Y003436D03*
X016887Y003433D03*
X016887Y003431D03*
X016885Y003376D03*
X016885Y003373D03*
X016885Y003371D03*
X016885Y003368D03*
X016507Y003433D03*
X016495Y003416D03*
X016490Y003408D03*
X016485Y003401D03*
X016482Y003398D03*
X016477Y003391D03*
X016472Y003383D03*
X016470Y003381D03*
X016467Y003376D03*
X016465Y003373D03*
X016462Y003368D03*
X016460Y003366D03*
X016457Y003363D03*
X015995Y003546D03*
X015995Y003548D03*
X015995Y003551D03*
X015995Y003553D03*
X015995Y003556D03*
X015995Y003558D03*
X016090Y003776D03*
X016092Y003781D03*
X016095Y003788D03*
X016097Y003793D03*
X016097Y003796D03*
X016097Y003798D03*
X016100Y003801D03*
X016100Y003803D03*
X016100Y003806D03*
X015680Y003598D03*
X015677Y003596D03*
X015677Y003593D03*
X015675Y003588D03*
X015672Y003581D03*
X015670Y003576D03*
X015670Y003573D03*
X015667Y003568D03*
X015667Y003566D03*
X015665Y003561D03*
X015662Y003553D03*
X015660Y003548D03*
X015660Y003546D03*
X015657Y003541D03*
X015657Y003538D03*
X015655Y003533D03*
X015652Y003526D03*
X015650Y003521D03*
X015650Y003518D03*
X015647Y003513D03*
X015647Y003511D03*
X015645Y003506D03*
X015642Y003498D03*
X015640Y003493D03*
X015640Y003491D03*
X015637Y003486D03*
X015637Y003483D03*
X015635Y003478D03*
X015632Y003471D03*
X015630Y003466D03*
X015630Y003463D03*
X015627Y003458D03*
X015627Y003456D03*
X015625Y003451D03*
X015622Y003443D03*
X015620Y003438D03*
X015620Y003436D03*
X015617Y003431D03*
X015617Y003428D03*
X015615Y003423D03*
X015612Y003416D03*
X015610Y003411D03*
X015610Y003408D03*
X015607Y003403D03*
X015607Y003401D03*
X015605Y003396D03*
X015602Y003388D03*
X015600Y003383D03*
X015600Y003381D03*
X015597Y003376D03*
X015597Y003373D03*
X015595Y003368D03*
D68*
X016046Y003711D03*
X016049Y003713D03*
X016051Y003716D03*
X016101Y003808D03*
X016101Y003811D03*
X016101Y003813D03*
X016891Y003963D03*
X016886Y003428D03*
X016886Y003426D03*
X016886Y003423D03*
X016886Y003421D03*
X016886Y003418D03*
X016886Y003416D03*
X016886Y003413D03*
X016886Y003411D03*
X016886Y003408D03*
X016886Y003406D03*
X016886Y003403D03*
X016886Y003401D03*
X016886Y003398D03*
X016886Y003396D03*
X016886Y003393D03*
X016886Y003391D03*
X016886Y003388D03*
X016886Y003386D03*
X016886Y003383D03*
X016886Y003381D03*
X016886Y003378D03*
X016884Y003366D03*
X016884Y003363D03*
X017474Y003561D03*
X017474Y003563D03*
X017474Y003566D03*
X017474Y003568D03*
X017474Y003571D03*
X017474Y003573D03*
X017474Y003576D03*
X017474Y003578D03*
X017476Y003593D03*
X017524Y003726D03*
X017526Y003731D03*
X017534Y003743D03*
X017536Y003748D03*
X017539Y003753D03*
X017541Y003756D03*
X017544Y003761D03*
X017546Y003763D03*
X017549Y003768D03*
X017551Y003771D03*
X017554Y003776D03*
X017556Y003778D03*
X017839Y003531D03*
X017841Y003533D03*
X017836Y003526D03*
X017834Y003523D03*
X017831Y003521D03*
X017936Y003806D03*
X017936Y003808D03*
X017936Y003811D03*
X019151Y003958D03*
X019289Y003371D03*
X019289Y003368D03*
X019289Y003366D03*
X019934Y003548D03*
X019934Y003551D03*
X019934Y003553D03*
X019934Y003556D03*
X019934Y003558D03*
X019934Y003561D03*
X019934Y003563D03*
X019934Y003566D03*
X019936Y003578D03*
X019936Y003581D03*
X019936Y003583D03*
X019994Y003741D03*
X019996Y003746D03*
X020001Y003753D03*
X020004Y003758D03*
X020006Y003761D03*
X020009Y003766D03*
X020011Y003768D03*
X020014Y003771D03*
X020014Y003773D03*
X020016Y003776D03*
X020024Y003786D03*
X020396Y003811D03*
X020396Y003813D03*
X020309Y003528D03*
X020306Y003523D03*
X022406Y003716D03*
X022406Y003718D03*
X022409Y003756D03*
X022409Y003758D03*
X022409Y003761D03*
X022411Y003793D03*
X022411Y003796D03*
X022411Y003798D03*
X022411Y003801D03*
X022414Y003831D03*
X022414Y003833D03*
X022414Y003836D03*
X022414Y003838D03*
X022414Y003841D03*
X022414Y003843D03*
X022416Y003868D03*
X022416Y003871D03*
X022416Y003873D03*
X022416Y003876D03*
X022416Y003878D03*
X022416Y003881D03*
X022416Y003883D03*
X022416Y003886D03*
X022419Y003906D03*
X022419Y003908D03*
X022419Y003911D03*
X022419Y003913D03*
X022419Y003916D03*
X022419Y003918D03*
X022419Y003921D03*
X022419Y003923D03*
X022419Y003926D03*
X022421Y003943D03*
X022421Y003946D03*
X022421Y003948D03*
X022421Y003951D03*
X022421Y003953D03*
X022421Y003956D03*
X022421Y003958D03*
X022421Y003961D03*
X022421Y003963D03*
X022684Y003783D03*
X022679Y003776D03*
X022674Y003768D03*
X022669Y003761D03*
X022664Y003753D03*
X022659Y003746D03*
X022654Y003738D03*
X022649Y003731D03*
X022644Y003723D03*
X022639Y003716D03*
X022689Y003791D03*
X022694Y003798D03*
X022699Y003806D03*
X022701Y003808D03*
X022704Y003813D03*
X022706Y003816D03*
X022709Y003821D03*
X022711Y003823D03*
X022714Y003828D03*
X022716Y003831D03*
X022719Y003836D03*
X022721Y003838D03*
X022724Y003843D03*
X022726Y003846D03*
X022729Y003851D03*
X022731Y003853D03*
X022734Y003858D03*
X022736Y003861D03*
X022739Y003866D03*
X022741Y003868D03*
X022744Y003873D03*
X022746Y003876D03*
X022749Y003881D03*
X022751Y003883D03*
X022754Y003888D03*
X022756Y003891D03*
X022759Y003896D03*
X022761Y003898D03*
X022764Y003901D03*
X022764Y003903D03*
X022766Y003906D03*
X022769Y003908D03*
X022769Y003911D03*
X022771Y003913D03*
X022774Y003916D03*
X022774Y003918D03*
X022776Y003921D03*
X022779Y003923D03*
X022779Y003926D03*
X022781Y003928D03*
X022784Y003931D03*
X022784Y003933D03*
X022786Y003936D03*
X022789Y003938D03*
X022789Y003941D03*
X022791Y003943D03*
X022794Y003946D03*
X022794Y003948D03*
X022796Y003951D03*
X022799Y003953D03*
X022799Y003956D03*
X022801Y003958D03*
X022804Y003961D03*
X022804Y003963D03*
D69*
X022419Y003433D03*
X019969Y003463D03*
X019296Y003463D03*
X019146Y003863D03*
X019146Y003866D03*
X017906Y003866D03*
X017756Y003461D03*
X017601Y003363D03*
X017509Y003463D03*
X016864Y003886D03*
X016864Y003888D03*
D70*
X016897Y003816D03*
X016895Y003773D03*
X016895Y003771D03*
X016895Y003768D03*
X016895Y003766D03*
X016895Y003763D03*
X016895Y003761D03*
X016895Y003758D03*
X016895Y003756D03*
X016895Y003753D03*
X016772Y003808D03*
X016767Y003801D03*
X016762Y003793D03*
X016760Y003791D03*
X016755Y003783D03*
X016752Y003781D03*
X016750Y003776D03*
X016747Y003773D03*
X016745Y003768D03*
X016742Y003766D03*
X016740Y003763D03*
X016737Y003758D03*
X016735Y003756D03*
X016732Y003751D03*
X016730Y003748D03*
X016727Y003746D03*
X016727Y003743D03*
X016725Y003741D03*
X016722Y003738D03*
X016722Y003736D03*
X016720Y003733D03*
X016717Y003731D03*
X016715Y003728D03*
X016715Y003726D03*
X016712Y003723D03*
X016710Y003721D03*
X016707Y003716D03*
X016705Y003713D03*
X016702Y003708D03*
X016700Y003706D03*
X016695Y003698D03*
X016692Y003696D03*
X016690Y003691D03*
X016687Y003688D03*
X016682Y003681D03*
X016677Y003673D03*
X016670Y003663D03*
X016665Y003656D03*
X015972Y003453D03*
X015970Y003446D03*
X015965Y003428D03*
X018930Y003363D03*
X018932Y003368D03*
X018932Y003371D03*
X018935Y003376D03*
X018935Y003378D03*
X018937Y003383D03*
X018940Y003391D03*
X018942Y003396D03*
X018942Y003398D03*
X018945Y003403D03*
X018945Y003406D03*
X018947Y003411D03*
X018950Y003418D03*
X018952Y003423D03*
X018952Y003426D03*
X018955Y003431D03*
X018955Y003433D03*
X018957Y003438D03*
X018960Y003446D03*
X018962Y003451D03*
X018962Y003453D03*
X018965Y003458D03*
X018965Y003461D03*
X018967Y003466D03*
X018970Y003473D03*
X018972Y003478D03*
X018972Y003481D03*
X018975Y003486D03*
X018975Y003488D03*
X018977Y003493D03*
X018980Y003498D03*
X018980Y003501D03*
X018982Y003506D03*
X018982Y003508D03*
X018985Y003513D03*
X018985Y003516D03*
X018987Y003521D03*
X018990Y003526D03*
X018990Y003528D03*
X018992Y003533D03*
X018992Y003536D03*
X018995Y003541D03*
X018995Y003543D03*
X018997Y003548D03*
X019000Y003553D03*
X019000Y003556D03*
X019002Y003561D03*
X019002Y003563D03*
X019005Y003568D03*
X019005Y003571D03*
X019007Y003576D03*
X019010Y003581D03*
X019010Y003583D03*
X019012Y003588D03*
X019012Y003591D03*
X019015Y003596D03*
X019015Y003598D03*
X019017Y003603D03*
X019020Y003608D03*
X019020Y003611D03*
X019022Y003616D03*
X019022Y003618D03*
X019025Y003623D03*
X019025Y003626D03*
X019027Y003631D03*
X019030Y003636D03*
X019030Y003638D03*
X019032Y003643D03*
X019032Y003646D03*
X019035Y003651D03*
X019035Y003653D03*
X019037Y003658D03*
X019040Y003663D03*
X019040Y003666D03*
X019042Y003671D03*
X019042Y003673D03*
X019045Y003678D03*
X019045Y003681D03*
X019047Y003686D03*
X019050Y003691D03*
X019050Y003693D03*
X019052Y003698D03*
X019052Y003701D03*
X019055Y003706D03*
X019055Y003708D03*
X019057Y003713D03*
X019060Y003718D03*
X019060Y003721D03*
X019062Y003726D03*
X019062Y003728D03*
X019065Y003733D03*
X019065Y003736D03*
X019067Y003741D03*
X019070Y003746D03*
X019070Y003748D03*
X019072Y003753D03*
X019072Y003756D03*
X019075Y003761D03*
X019075Y003763D03*
X019397Y003653D03*
X019397Y003651D03*
X019395Y003646D03*
X019395Y003643D03*
X019392Y003638D03*
X019392Y003636D03*
X019390Y003631D03*
X019387Y003626D03*
X019387Y003623D03*
X019385Y003618D03*
X019385Y003616D03*
X019382Y003611D03*
X019382Y003608D03*
X019380Y003603D03*
X019377Y003598D03*
X019377Y003596D03*
X019375Y003591D03*
X019375Y003588D03*
X019372Y003583D03*
X019370Y003576D03*
X019367Y003571D03*
X019367Y003568D03*
X019365Y003563D03*
X019365Y003561D03*
X019400Y003658D03*
X019402Y003663D03*
X019402Y003666D03*
X019405Y003671D03*
X019405Y003673D03*
X019407Y003678D03*
X019407Y003681D03*
X019410Y003686D03*
X019412Y003691D03*
X019412Y003693D03*
X019415Y003698D03*
X019415Y003701D03*
X019417Y003706D03*
X019417Y003708D03*
X019420Y003713D03*
X019422Y003718D03*
X019422Y003721D03*
X019425Y003726D03*
X019425Y003728D03*
X019427Y003733D03*
X019427Y003736D03*
X019430Y003741D03*
X019432Y003746D03*
X019432Y003748D03*
X019435Y003753D03*
X019435Y003756D03*
X019437Y003761D03*
X019437Y003763D03*
X019440Y003768D03*
X019442Y003773D03*
X019442Y003776D03*
X019445Y003781D03*
X019445Y003783D03*
X019447Y003788D03*
X019447Y003791D03*
X019450Y003796D03*
X019452Y003801D03*
X019452Y003803D03*
X019455Y003808D03*
X019455Y003811D03*
X019457Y003816D03*
X019457Y003818D03*
X019460Y003823D03*
X019462Y003828D03*
X019462Y003831D03*
X019465Y003836D03*
X019465Y003838D03*
X019467Y003843D03*
X019470Y003851D03*
X019472Y003856D03*
X019472Y003858D03*
X019475Y003863D03*
X019475Y003866D03*
X019477Y003871D03*
X019480Y003878D03*
X019482Y003883D03*
X019482Y003886D03*
X019485Y003891D03*
X019485Y003893D03*
X019487Y003898D03*
X019490Y003906D03*
X019492Y003911D03*
X019492Y003913D03*
X019495Y003918D03*
X019495Y003921D03*
X019497Y003926D03*
X019500Y003933D03*
X019502Y003938D03*
X019502Y003941D03*
X019505Y003946D03*
X019505Y003948D03*
X019507Y003953D03*
X019510Y003961D03*
X020327Y003566D03*
X020327Y003563D03*
X020325Y003558D03*
X020330Y003568D03*
X020330Y003571D03*
X020332Y003573D03*
X020332Y003576D03*
X020335Y003581D03*
D71*
X020054Y003363D03*
X019959Y003471D03*
X020104Y003858D03*
X019294Y003438D03*
X019294Y003436D03*
X017916Y003858D03*
X017641Y003858D03*
X017769Y003466D03*
X016871Y003908D03*
X022409Y003408D03*
X022409Y003406D03*
D72*
X020277Y003378D03*
X020275Y003373D03*
X020275Y003371D03*
X020275Y003368D03*
X020272Y003363D03*
D73*
X021550Y003363D03*
X021550Y003366D03*
X021552Y003368D03*
X021552Y003371D03*
X021552Y003373D03*
X021555Y003376D03*
X021555Y003378D03*
X021555Y003381D03*
X021557Y003383D03*
X021557Y003386D03*
X021560Y003388D03*
X021560Y003391D03*
X021560Y003393D03*
X021562Y003396D03*
X021562Y003398D03*
X021562Y003401D03*
X021565Y003403D03*
X021565Y003406D03*
X021565Y003408D03*
X021567Y003411D03*
X021567Y003413D03*
X021570Y003416D03*
X021570Y003418D03*
X021570Y003421D03*
X021572Y003423D03*
X021572Y003426D03*
X021572Y003428D03*
X021575Y003431D03*
X021575Y003433D03*
X021575Y003436D03*
X021577Y003438D03*
X021577Y003441D03*
X021580Y003443D03*
X021580Y003446D03*
X021580Y003448D03*
X021582Y003451D03*
X021582Y003453D03*
X021582Y003456D03*
X021585Y003458D03*
X021585Y003461D03*
X021585Y003463D03*
X021587Y003466D03*
X021587Y003468D03*
X021590Y003471D03*
X015862Y003681D03*
X015860Y003678D03*
X015837Y003616D03*
X015837Y003613D03*
D74*
X015990Y003583D03*
X016102Y003841D03*
X016102Y003843D03*
X016885Y003946D03*
X017592Y003821D03*
X017595Y003823D03*
X017597Y003826D03*
X017600Y003828D03*
X017932Y003831D03*
X017932Y003833D03*
X017477Y003508D03*
X017477Y003506D03*
X017480Y003501D03*
X019150Y003936D03*
X019290Y003391D03*
X019290Y003388D03*
X019290Y003386D03*
X019940Y003503D03*
X019940Y003506D03*
X020057Y003823D03*
X020060Y003826D03*
X020062Y003828D03*
X020390Y003838D03*
X020390Y003841D03*
X020295Y003506D03*
X020292Y003503D03*
X022392Y003363D03*
D75*
X022426Y003453D03*
X022426Y003456D03*
X020251Y003466D03*
X019296Y003488D03*
X019144Y003836D03*
X019144Y003838D03*
X019144Y003841D03*
X017899Y003868D03*
X017601Y003366D03*
X016856Y003866D03*
D76*
X016865Y003891D03*
X019145Y003868D03*
X019295Y003461D03*
X019295Y003458D03*
X019295Y003456D03*
X020055Y003366D03*
X022415Y003426D03*
X022417Y003428D03*
X022417Y003431D03*
D77*
X020274Y003366D03*
D78*
X020291Y003501D03*
X019941Y003501D03*
X019941Y003498D03*
X020064Y003831D03*
X020284Y003971D03*
X020389Y003843D03*
X019291Y003393D03*
X019151Y003933D03*
X017931Y003836D03*
X017606Y003833D03*
X017604Y003831D03*
X017479Y003503D03*
X017481Y003498D03*
X017481Y003496D03*
X017799Y003486D03*
X017801Y003488D03*
X016884Y003941D03*
X016884Y003943D03*
X016101Y003846D03*
X016026Y003698D03*
X015989Y003586D03*
X022394Y003366D03*
D79*
X022435Y003476D03*
X022435Y003478D03*
X019142Y003816D03*
X019142Y003818D03*
X019142Y003821D03*
X017602Y003368D03*
X016850Y003848D03*
D80*
X016859Y003873D03*
X017514Y003461D03*
X019144Y003846D03*
X019144Y003848D03*
X019296Y003481D03*
X019296Y003478D03*
X019296Y003476D03*
X019976Y003461D03*
X020056Y003368D03*
X020359Y003868D03*
X022424Y003448D03*
X022424Y003446D03*
D81*
X022395Y003371D03*
X022395Y003368D03*
X020387Y003846D03*
X020070Y003836D03*
X020067Y003833D03*
X019942Y003496D03*
X019945Y003493D03*
X019290Y003398D03*
X019290Y003396D03*
X019150Y003926D03*
X019150Y003928D03*
X019150Y003931D03*
X017930Y003838D03*
X017822Y003971D03*
X017795Y003483D03*
X017792Y003481D03*
X017482Y003493D03*
X016882Y003938D03*
X016100Y003848D03*
D82*
X016844Y003831D03*
X017604Y003371D03*
X019141Y003796D03*
X019141Y003798D03*
X019301Y003531D03*
X020056Y003376D03*
X022441Y003496D03*
D83*
X022429Y003463D03*
X022429Y003461D03*
X020279Y003961D03*
X020131Y003868D03*
X020056Y003371D03*
X019299Y003496D03*
X019144Y003828D03*
X019144Y003831D03*
X017669Y003868D03*
X016854Y003861D03*
X016854Y003858D03*
D84*
X016839Y003818D03*
X017604Y003373D03*
X019139Y003778D03*
X019301Y003548D03*
X019301Y003546D03*
X022449Y003516D03*
X022449Y003513D03*
D85*
X022436Y003481D03*
X020056Y003373D03*
X019299Y003511D03*
X019299Y003513D03*
X019299Y003516D03*
X019141Y003811D03*
X019141Y003813D03*
X016849Y003846D03*
D86*
X016881Y003936D03*
X017609Y003836D03*
X017611Y003838D03*
X017926Y003843D03*
X017929Y003841D03*
X017789Y003478D03*
X017484Y003491D03*
X016099Y003851D03*
X016021Y003696D03*
X015986Y003588D03*
X019291Y003406D03*
X019291Y003403D03*
X019291Y003401D03*
X019946Y003488D03*
X019946Y003491D03*
X020286Y003496D03*
X020289Y003498D03*
X020386Y003848D03*
X020384Y003851D03*
X020074Y003838D03*
X022396Y003373D03*
D87*
X020395Y003781D03*
X020395Y003783D03*
X020395Y003786D03*
X020395Y003788D03*
X020395Y003791D03*
X020392Y003778D03*
X020392Y003776D03*
X020392Y003773D03*
X020392Y003771D03*
X020322Y003553D03*
X020320Y003548D03*
X020317Y003543D03*
X020285Y003973D03*
X019205Y003736D03*
X019205Y003733D03*
X019207Y003723D03*
X019207Y003721D03*
X019210Y003713D03*
X019210Y003711D03*
X019212Y003701D03*
X019212Y003698D03*
X019215Y003691D03*
X019215Y003688D03*
X019217Y003678D03*
X019217Y003676D03*
X019220Y003668D03*
X019220Y003666D03*
X019220Y003663D03*
X019222Y003656D03*
X019222Y003653D03*
X019225Y003643D03*
X019225Y003641D03*
X019227Y003633D03*
X019227Y003631D03*
X019230Y003621D03*
X019230Y003618D03*
X019232Y003611D03*
X019232Y003608D03*
X019235Y003598D03*
X019235Y003596D03*
X019237Y003588D03*
X019237Y003586D03*
X019240Y003576D03*
X019240Y003573D03*
X019242Y003566D03*
X019242Y003563D03*
X019202Y003743D03*
X019202Y003746D03*
X019200Y003756D03*
X019200Y003758D03*
X019197Y003766D03*
X017935Y003768D03*
X017935Y003771D03*
X017935Y003773D03*
X017935Y003776D03*
X017932Y003766D03*
X017875Y003593D03*
X017875Y003591D03*
X017872Y003588D03*
X017872Y003586D03*
X017870Y003581D03*
X017867Y003576D03*
X017865Y003571D03*
X017860Y003563D03*
X016892Y003623D03*
X016892Y003626D03*
X016892Y003628D03*
X016892Y003631D03*
X016892Y003633D03*
X016892Y003636D03*
X016892Y003638D03*
X016892Y003641D03*
X016892Y003643D03*
X016892Y003646D03*
X016892Y003648D03*
X016892Y003651D03*
X016892Y003653D03*
X016892Y003656D03*
X016892Y003658D03*
X016892Y003661D03*
X016892Y003663D03*
X016892Y003666D03*
X016892Y003668D03*
X016892Y003671D03*
X016892Y003673D03*
X016892Y003676D03*
X016892Y003678D03*
X016892Y003681D03*
X016892Y003683D03*
X016892Y003686D03*
X016890Y003576D03*
X016890Y003573D03*
X016890Y003571D03*
X016890Y003568D03*
X016890Y003566D03*
X016890Y003563D03*
X016890Y003561D03*
X016640Y003621D03*
X016635Y003613D03*
X016627Y003603D03*
X016622Y003596D03*
X016617Y003588D03*
X016615Y003586D03*
X016612Y003581D03*
X016610Y003578D03*
X016607Y003576D03*
X016605Y003571D03*
X016602Y003568D03*
X016600Y003563D03*
X016597Y003561D03*
X016595Y003558D03*
X016595Y003556D03*
X016592Y003553D03*
X016590Y003551D03*
X016590Y003548D03*
X016587Y003546D03*
X016585Y003543D03*
X016582Y003541D03*
X016582Y003538D03*
X016580Y003536D03*
X016577Y003533D03*
X016577Y003531D03*
X016575Y003528D03*
X016572Y003526D03*
X016570Y003521D03*
X016567Y003518D03*
X016565Y003516D03*
X016565Y003513D03*
X016562Y003511D03*
X016560Y003508D03*
X016557Y003503D03*
X016555Y003501D03*
X016550Y003493D03*
X016545Y003486D03*
X016542Y003483D03*
X016537Y003476D03*
X016532Y003468D03*
X016520Y003451D03*
X015992Y003526D03*
X015992Y003528D03*
X015992Y003531D03*
X015990Y003518D03*
X015990Y003516D03*
X015990Y003513D03*
X015987Y003511D03*
X015987Y003508D03*
X015987Y003506D03*
X015987Y003503D03*
X015985Y003498D03*
X015985Y003496D03*
X015982Y003488D03*
X015962Y003418D03*
X015960Y003408D03*
X015960Y003406D03*
X015957Y003396D03*
X015957Y003393D03*
X015957Y003391D03*
X015957Y003388D03*
X015955Y003381D03*
X015955Y003378D03*
X015955Y003376D03*
X016070Y003738D03*
X016075Y003746D03*
X016077Y003751D03*
D88*
X017606Y003376D03*
X022454Y003528D03*
X022454Y003531D03*
D89*
X020281Y003393D03*
X020279Y003386D03*
X020279Y003383D03*
X020279Y003381D03*
X020276Y003376D03*
D90*
X017606Y003378D03*
D91*
X017817Y003956D03*
X016840Y003821D03*
X019140Y003786D03*
X019140Y003783D03*
X019140Y003781D03*
X020057Y003378D03*
X022445Y003506D03*
X022445Y003508D03*
X022447Y003511D03*
D92*
X020274Y003946D03*
X020059Y003388D03*
X017606Y003381D03*
D93*
X017475Y003516D03*
X017475Y003518D03*
X017475Y003521D03*
X017580Y003808D03*
X017582Y003811D03*
X017585Y003813D03*
X017587Y003816D03*
X017590Y003818D03*
X017935Y003821D03*
X017935Y003823D03*
X017812Y003498D03*
X016887Y003953D03*
X016102Y003836D03*
X016035Y003703D03*
X015992Y003578D03*
X015992Y003576D03*
X019152Y003946D03*
X019290Y003383D03*
X019290Y003381D03*
X019937Y003513D03*
X019937Y003516D03*
X019937Y003518D03*
X020040Y003806D03*
X020042Y003808D03*
X020045Y003811D03*
X020047Y003813D03*
X020392Y003831D03*
X020392Y003833D03*
X020300Y003513D03*
X020297Y003511D03*
D94*
X020280Y003601D03*
X020290Y003628D03*
X020300Y003656D03*
X020057Y003381D03*
X019302Y003558D03*
X022452Y003526D03*
D95*
X020060Y003391D03*
X017607Y003383D03*
D96*
X020059Y003383D03*
X022456Y003536D03*
D97*
X022402Y003388D03*
X022400Y003383D03*
X020380Y003856D03*
X020087Y003848D03*
X019950Y003481D03*
X020280Y003488D03*
X020282Y003491D03*
X019292Y003416D03*
X019292Y003413D03*
X019150Y003911D03*
X017922Y003851D03*
X017625Y003848D03*
X017490Y003481D03*
X016877Y003926D03*
X015980Y003593D03*
D98*
X017609Y003386D03*
D99*
X020057Y003386D03*
X020275Y003948D03*
D100*
X020271Y003938D03*
X020061Y003398D03*
X017609Y003388D03*
D101*
X020280Y003388D03*
X020280Y003391D03*
X020282Y003396D03*
X020282Y003398D03*
X020282Y003401D03*
D102*
X020270Y003936D03*
X017610Y003391D03*
D103*
X017491Y003478D03*
X017779Y003471D03*
X017921Y003853D03*
X017629Y003851D03*
X016876Y003921D03*
X016876Y003923D03*
X016094Y003856D03*
X019149Y003906D03*
X019149Y003908D03*
X019291Y003418D03*
X019954Y003478D03*
X020091Y003851D03*
X022404Y003393D03*
X022404Y003391D03*
D104*
X020269Y003933D03*
X017611Y003393D03*
D105*
X017812Y003943D03*
X020060Y003393D03*
D106*
X017611Y003396D03*
D107*
X017811Y003941D03*
X020061Y003396D03*
X020271Y003941D03*
D108*
X020282Y003968D03*
X020377Y003858D03*
X020095Y003853D03*
X019955Y003476D03*
X020275Y003483D03*
X020277Y003486D03*
X019292Y003426D03*
X019292Y003423D03*
X019292Y003421D03*
X019147Y003903D03*
X017632Y003853D03*
X017492Y003476D03*
X016875Y003918D03*
X016012Y003693D03*
X022405Y003396D03*
D109*
X017612Y003398D03*
D110*
X017774Y003468D03*
X017636Y003856D03*
X017821Y003968D03*
X017919Y003856D03*
X016874Y003913D03*
X016874Y003916D03*
X016091Y003858D03*
X019149Y003898D03*
X019149Y003901D03*
X019294Y003428D03*
X019956Y003473D03*
X020099Y003856D03*
X022406Y003401D03*
X022406Y003398D03*
D111*
X017612Y003401D03*
D112*
X020061Y003401D03*
D113*
X017614Y003403D03*
D114*
X020062Y003403D03*
D115*
X020284Y003403D03*
X020284Y003406D03*
X020286Y003408D03*
X020286Y003411D03*
X020286Y003413D03*
X020289Y003421D03*
D116*
X020272Y003481D03*
X020375Y003861D03*
X019292Y003433D03*
X019292Y003431D03*
X019147Y003891D03*
X019147Y003893D03*
X019147Y003896D03*
X017497Y003471D03*
X017495Y003473D03*
X016872Y003911D03*
X015975Y003596D03*
X022407Y003403D03*
D117*
X020262Y003921D03*
X020065Y003421D03*
X017615Y003406D03*
D118*
X017807Y003933D03*
X020062Y003406D03*
D119*
X020262Y003918D03*
X017615Y003408D03*
D120*
X020062Y003408D03*
X020267Y003931D03*
D121*
X020067Y003426D03*
X017802Y003918D03*
X017615Y003411D03*
D122*
X017806Y003928D03*
X020064Y003411D03*
X020266Y003928D03*
D123*
X020067Y003428D03*
X017617Y003413D03*
X015922Y003961D03*
D124*
X020064Y003413D03*
X020266Y003926D03*
D125*
X020371Y003863D03*
X020109Y003861D03*
X020266Y003476D03*
X019294Y003446D03*
X019294Y003443D03*
X019146Y003881D03*
X017764Y003463D03*
X017646Y003861D03*
X016869Y003901D03*
X016086Y003861D03*
X022411Y003416D03*
X022411Y003413D03*
D126*
X017800Y003913D03*
X017617Y003416D03*
D127*
X017805Y003926D03*
X020065Y003416D03*
D128*
X020287Y003416D03*
X020287Y003418D03*
X020290Y003423D03*
X020290Y003426D03*
X020290Y003428D03*
D129*
X020259Y003908D03*
X017619Y003418D03*
D130*
X020065Y003418D03*
X020265Y003923D03*
D131*
X019965Y003466D03*
X019295Y003451D03*
X019295Y003448D03*
X019147Y003878D03*
X017910Y003863D03*
X016867Y003896D03*
X016867Y003898D03*
X022412Y003418D03*
D132*
X017619Y003421D03*
D133*
X017504Y003466D03*
X017651Y003863D03*
X017821Y003966D03*
X016866Y003893D03*
X019146Y003876D03*
X019146Y003873D03*
X019146Y003871D03*
X019294Y003453D03*
X020114Y003863D03*
X020281Y003966D03*
X020366Y003866D03*
X020264Y003473D03*
X022414Y003423D03*
X022414Y003421D03*
D134*
X017797Y003906D03*
X017620Y003423D03*
D135*
X020066Y003423D03*
D136*
X017797Y003903D03*
X017620Y003426D03*
D137*
X017622Y003428D03*
X017795Y003901D03*
X020255Y003898D03*
D138*
X017795Y003898D03*
X017622Y003431D03*
D139*
X015947Y003893D03*
X020115Y003431D03*
D140*
X020252Y003893D03*
X017622Y003433D03*
X015830Y003651D03*
X015827Y003643D03*
D141*
X015946Y003886D03*
X015946Y003888D03*
X015946Y003891D03*
X020114Y003433D03*
D142*
X020251Y003891D03*
X017624Y003436D03*
X015939Y003943D03*
X015834Y003653D03*
D143*
X020115Y003436D03*
D144*
X020260Y003471D03*
X019295Y003466D03*
X019145Y003858D03*
X019145Y003861D03*
X016862Y003883D03*
X015965Y003598D03*
X022420Y003438D03*
X022420Y003436D03*
D145*
X021664Y003718D03*
X021661Y003713D03*
X021659Y003706D03*
X021656Y003698D03*
X021654Y003691D03*
X021651Y003686D03*
X021649Y003678D03*
X021646Y003671D03*
X021644Y003663D03*
X021641Y003658D03*
X021639Y003651D03*
X021636Y003643D03*
X021634Y003636D03*
X021631Y003631D03*
X021629Y003623D03*
X020251Y003888D03*
X017791Y003891D03*
X017624Y003438D03*
X015836Y003656D03*
D146*
X015946Y003881D03*
X015946Y003883D03*
X020114Y003441D03*
X020114Y003438D03*
D147*
X020250Y003886D03*
X021630Y003628D03*
X021630Y003626D03*
X021632Y003633D03*
X021635Y003638D03*
X021635Y003641D03*
X021637Y003646D03*
X021637Y003648D03*
X021640Y003653D03*
X021640Y003656D03*
X021642Y003661D03*
X021645Y003666D03*
X021645Y003668D03*
X021647Y003673D03*
X021647Y003676D03*
X021650Y003681D03*
X021650Y003683D03*
X021652Y003688D03*
X021655Y003693D03*
X021655Y003696D03*
X021657Y003701D03*
X021657Y003703D03*
X021660Y003708D03*
X021660Y003711D03*
X021662Y003716D03*
X021665Y003721D03*
X021665Y003723D03*
X017790Y003888D03*
X017625Y003441D03*
X015940Y003938D03*
X015832Y003638D03*
D148*
X016861Y003878D03*
X016861Y003881D03*
X017659Y003866D03*
X019146Y003856D03*
X019296Y003473D03*
X019296Y003471D03*
X019296Y003468D03*
X020121Y003866D03*
X020256Y003468D03*
X022421Y003441D03*
D149*
X017789Y003883D03*
X017626Y003443D03*
X015941Y003933D03*
D150*
X015944Y003871D03*
X015944Y003868D03*
X015944Y003866D03*
X020114Y003446D03*
X020114Y003443D03*
D151*
X020280Y003963D03*
X019145Y003853D03*
X019145Y003851D03*
X017820Y003963D03*
X016860Y003876D03*
X022422Y003443D03*
D152*
X020247Y003881D03*
X017787Y003881D03*
X017627Y003446D03*
X015942Y003931D03*
X015845Y003663D03*
X015835Y003633D03*
D153*
X015849Y003666D03*
X015944Y003928D03*
X017629Y003448D03*
X020246Y003878D03*
D154*
X020112Y003448D03*
X015942Y003863D03*
D155*
X015944Y003926D03*
X015851Y003668D03*
X015836Y003628D03*
X015836Y003626D03*
X017629Y003451D03*
X017786Y003878D03*
D156*
X020114Y003453D03*
X020114Y003451D03*
D157*
X019297Y003483D03*
X019297Y003486D03*
X019145Y003843D03*
X016857Y003868D03*
X016857Y003871D03*
X022425Y003451D03*
D158*
X020245Y003873D03*
X017785Y003876D03*
X017630Y003453D03*
X015945Y003923D03*
X015852Y003671D03*
D159*
X015856Y003673D03*
X015836Y003623D03*
X015946Y003921D03*
X017631Y003456D03*
X017784Y003873D03*
X020244Y003871D03*
X021726Y003858D03*
X021726Y003856D03*
X021729Y003863D03*
X021729Y003866D03*
X021731Y003871D03*
X021734Y003878D03*
X021736Y003883D03*
X021736Y003886D03*
X021739Y003891D03*
X021739Y003893D03*
X021741Y003898D03*
X021744Y003906D03*
X021746Y003911D03*
X021746Y003913D03*
X021749Y003918D03*
X021749Y003921D03*
X021751Y003926D03*
X021754Y003933D03*
X021756Y003938D03*
X021756Y003941D03*
X021759Y003946D03*
X021761Y003953D03*
X021764Y003961D03*
D160*
X020112Y003456D03*
D161*
X017784Y003871D03*
X017631Y003458D03*
X015946Y003913D03*
X015946Y003916D03*
D162*
X020114Y003458D03*
D163*
X019297Y003491D03*
X019297Y003493D03*
X019142Y003833D03*
X016855Y003863D03*
X022427Y003458D03*
D164*
X022439Y003488D03*
X020239Y003461D03*
X019299Y003521D03*
X019141Y003801D03*
X019141Y003803D03*
X019141Y003806D03*
X017819Y003958D03*
X016846Y003838D03*
D165*
X016852Y003856D03*
X017820Y003961D03*
X019142Y003826D03*
X019142Y003823D03*
X019297Y003501D03*
X019297Y003498D03*
X020247Y003463D03*
X022430Y003466D03*
X022432Y003471D03*
D166*
X022431Y003468D03*
X022434Y003473D03*
X019299Y003503D03*
X019299Y003506D03*
X019299Y003508D03*
X016851Y003851D03*
X016851Y003853D03*
D167*
X016847Y003843D03*
X016847Y003841D03*
X019142Y003808D03*
X019300Y003518D03*
X020277Y003958D03*
X022437Y003486D03*
X022437Y003483D03*
D168*
X022440Y003491D03*
X022440Y003493D03*
X019300Y003523D03*
X019300Y003526D03*
X019300Y003528D03*
X016845Y003833D03*
X016845Y003836D03*
D169*
X016842Y003828D03*
X019140Y003793D03*
X019140Y003791D03*
X019140Y003788D03*
X019300Y003536D03*
X019300Y003533D03*
X020277Y003956D03*
X022442Y003501D03*
X022442Y003498D03*
D170*
X022444Y003503D03*
X019301Y003538D03*
X019301Y003541D03*
X019301Y003543D03*
X016841Y003823D03*
X016841Y003826D03*
D171*
X016890Y003958D03*
X016890Y003961D03*
X017552Y003773D03*
X017557Y003781D03*
X017560Y003783D03*
X017562Y003786D03*
X017565Y003788D03*
X017565Y003791D03*
X017567Y003793D03*
X017570Y003796D03*
X017472Y003558D03*
X017472Y003556D03*
X017472Y003553D03*
X017472Y003551D03*
X017472Y003548D03*
X017472Y003546D03*
X017472Y003543D03*
X017472Y003541D03*
X017472Y003538D03*
X017472Y003536D03*
X017822Y003511D03*
X017825Y003513D03*
X017827Y003516D03*
X017830Y003518D03*
X017937Y003813D03*
X019152Y003953D03*
X019152Y003956D03*
X020017Y003778D03*
X020020Y003781D03*
X020022Y003783D03*
X020025Y003788D03*
X020027Y003791D03*
X020030Y003793D03*
X019935Y003546D03*
X019935Y003543D03*
X019935Y003541D03*
X019935Y003538D03*
X019935Y003536D03*
X019935Y003533D03*
X019935Y003531D03*
X020305Y003521D03*
X020307Y003526D03*
X020395Y003816D03*
X020395Y003818D03*
X020395Y003821D03*
X016102Y003823D03*
X016102Y003821D03*
X016102Y003818D03*
X016102Y003816D03*
X016042Y003708D03*
X015995Y003568D03*
X015995Y003566D03*
X015995Y003563D03*
X015995Y003561D03*
D172*
X019140Y003773D03*
X019140Y003776D03*
X019302Y003553D03*
X019302Y003551D03*
X022450Y003518D03*
D173*
X022451Y003521D03*
X022451Y003523D03*
X020311Y003683D03*
X020311Y003686D03*
X020309Y003681D03*
X020309Y003678D03*
X020306Y003676D03*
X020306Y003673D03*
X020306Y003671D03*
X020304Y003668D03*
X020304Y003666D03*
X020304Y003663D03*
X020301Y003661D03*
X020301Y003658D03*
X020299Y003653D03*
X020299Y003651D03*
X020296Y003648D03*
X020296Y003646D03*
X020296Y003643D03*
X020294Y003641D03*
X020294Y003638D03*
X020294Y003636D03*
X020291Y003633D03*
X020291Y003631D03*
X020289Y003626D03*
X020289Y003623D03*
X020286Y003621D03*
X020286Y003618D03*
X020286Y003616D03*
X020284Y003613D03*
X020284Y003611D03*
X020284Y003608D03*
X020281Y003606D03*
X020281Y003603D03*
X020279Y003598D03*
X020279Y003596D03*
X020276Y003593D03*
X020276Y003591D03*
X020276Y003953D03*
X019301Y003556D03*
X019139Y003768D03*
X019139Y003771D03*
X017816Y003953D03*
D174*
X020275Y003951D03*
X022455Y003533D03*
D175*
X022457Y003538D03*
X022457Y003541D03*
X017815Y003951D03*
D176*
X016779Y003816D03*
X016776Y003813D03*
X016774Y003811D03*
X016771Y003806D03*
X016769Y003803D03*
X016766Y003798D03*
X016764Y003796D03*
X016759Y003788D03*
X016756Y003786D03*
X016751Y003778D03*
X016746Y003771D03*
X016739Y003761D03*
X016734Y003753D03*
X020334Y003578D03*
X020336Y003583D03*
X020336Y003586D03*
X020339Y003588D03*
D177*
X015947Y003901D03*
X015870Y003691D03*
X015837Y003603D03*
X015837Y003601D03*
D178*
X015837Y003606D03*
X015837Y003608D03*
D179*
X015839Y003611D03*
X015864Y003683D03*
X015946Y003908D03*
X015946Y003911D03*
D180*
X015945Y003918D03*
X015857Y003676D03*
X015837Y003621D03*
X015837Y003618D03*
X021727Y003861D03*
X021730Y003868D03*
X021732Y003873D03*
X021732Y003876D03*
X021735Y003881D03*
X021737Y003888D03*
X021740Y003896D03*
X021742Y003901D03*
X021742Y003903D03*
X021745Y003908D03*
X021747Y003916D03*
X021750Y003923D03*
X021752Y003928D03*
X021752Y003931D03*
X021755Y003936D03*
X021757Y003943D03*
X021760Y003948D03*
X021760Y003951D03*
X021762Y003956D03*
X021762Y003958D03*
X021765Y003963D03*
D181*
X020245Y003876D03*
X015835Y003631D03*
D182*
X015832Y003636D03*
X015842Y003661D03*
X017790Y003886D03*
X020247Y003883D03*
D183*
X017792Y003893D03*
X015940Y003941D03*
X015830Y003641D03*
D184*
X015826Y003646D03*
X015826Y003648D03*
X015936Y003948D03*
D185*
X015941Y003936D03*
X015839Y003658D03*
D186*
X015866Y003686D03*
X015869Y003688D03*
X015946Y003903D03*
X015946Y003906D03*
D187*
X015945Y003878D03*
X015945Y003876D03*
X015945Y003873D03*
D188*
X015946Y003896D03*
X015946Y003898D03*
D189*
X015936Y003946D03*
X017794Y003896D03*
X020254Y003896D03*
D190*
X020256Y003901D03*
X015934Y003951D03*
D191*
X015931Y003953D03*
X020256Y003903D03*
D192*
X020257Y003906D03*
X017797Y003908D03*
X015930Y003956D03*
D193*
X017800Y003911D03*
D194*
X015926Y003958D03*
X020259Y003911D03*
D195*
X020261Y003913D03*
D196*
X020261Y003916D03*
X017801Y003916D03*
D197*
X017804Y003921D03*
D198*
X017804Y003923D03*
X015916Y003963D03*
D199*
X017806Y003931D03*
D200*
X017809Y003936D03*
D201*
X017810Y003938D03*
D202*
X020271Y003943D03*
D203*
X017814Y003946D03*
D204*
X017814Y003948D03*
D205*
X017826Y003978D03*
D206*
X020287Y003978D03*
D207*
X022097Y007566D03*
X022097Y007568D03*
D208*
X022146Y028363D03*
X022146Y028363D03*
X022146Y028863D03*
X022146Y029363D03*
X022146Y029863D03*
X022146Y030363D03*
X022146Y030863D03*
X022146Y031363D03*
X020406Y031363D03*
X020406Y030863D03*
X020406Y030363D03*
X020406Y029863D03*
X020406Y029363D03*
X020406Y028863D03*
X020406Y028363D03*
X020406Y028363D03*
D209*
X018876Y026663D02*
X018876Y026613D01*
X018882Y026198D01*
X018887Y025805D02*
X018893Y025390D01*
X018898Y024996D02*
X018904Y024581D01*
X018909Y024187D02*
X018915Y023772D01*
X018920Y023378D02*
X018926Y022963D01*
X018323Y022963D01*
X017929Y022963D02*
X017326Y022963D01*
X017326Y022710D01*
X017326Y022963D02*
X016748Y022963D01*
X016354Y022963D02*
X015776Y022963D01*
X015615Y022803D01*
X015337Y022524D02*
X015176Y022363D01*
X014733Y022363D01*
X014339Y022363D02*
X013896Y022363D01*
X013503Y022363D02*
X013060Y022363D01*
X012666Y022363D02*
X012223Y022363D01*
X011829Y022363D02*
X011386Y022363D01*
X010993Y022363D02*
X010550Y022363D01*
X010156Y022363D02*
X009713Y022363D01*
X009319Y022363D02*
X008876Y022363D01*
X008876Y022908D01*
X008876Y023302D02*
X008876Y023847D01*
X008876Y024241D02*
X008876Y024786D01*
X008876Y025180D02*
X008876Y025725D01*
X008876Y026118D02*
X008876Y026663D01*
X014296Y021953D02*
X015326Y021953D01*
X015526Y022153D01*
X015766Y022153D01*
X017326Y022063D02*
X017848Y022063D01*
X018242Y022063D02*
X018764Y022063D01*
X019157Y022063D02*
X019679Y022063D01*
X020073Y022063D02*
X020595Y022063D01*
X020989Y022063D02*
X021511Y022063D01*
X021904Y022063D02*
X022426Y022063D01*
X022426Y021610D01*
X022426Y021216D02*
X022426Y020763D01*
X022836Y020763D01*
X023229Y020763D02*
X023639Y020763D01*
X024032Y020763D02*
X024442Y020763D01*
X024836Y020763D02*
X025245Y020763D01*
X025639Y020763D02*
X026048Y020763D01*
X026442Y020763D02*
X026851Y020763D01*
X027245Y020763D02*
X027654Y020763D01*
X028048Y020763D02*
X028457Y020763D01*
X028851Y020763D02*
X029261Y020763D01*
X029654Y020763D02*
X030064Y020763D01*
X030457Y020763D02*
X030867Y020763D01*
X031261Y020763D02*
X031670Y020763D01*
X032064Y020763D02*
X032473Y020763D01*
X032867Y020763D02*
X033276Y020763D01*
X027992Y027038D02*
X027994Y027045D01*
X027999Y027050D01*
X028006Y027052D01*
X028013Y027050D01*
X028018Y027045D01*
X028020Y027038D01*
X028018Y027031D01*
X028013Y027026D01*
X028006Y027024D01*
X027999Y027026D01*
X027994Y027031D01*
X027992Y027038D01*
X023066Y022223D02*
X023066Y020183D01*
X024036Y020183D01*
X024046Y020193D02*
X024046Y016953D01*
X027486Y016953D01*
X027486Y020193D01*
X024046Y020193D01*
X017326Y022063D02*
X017326Y022316D01*
X011202Y015653D02*
X011204Y015660D01*
X011209Y015665D01*
X011216Y015667D01*
X011223Y015665D01*
X011228Y015660D01*
X011230Y015653D01*
X011228Y015646D01*
X011223Y015641D01*
X011216Y015639D01*
X011209Y015641D01*
X011204Y015646D01*
X011202Y015653D01*
D210*
X028816Y033707D03*
M02*
