G75*
%MOIN*%
%OFA0B0*%
%FSLAX24Y24*%
%IPPOS*%
%LPD*%
%AMOC8*
5,1,8,0,0,1.08239X$1,22.5*
%
%ADD10C,0.0100*%
%ADD11C,0.0120*%
D10*
X002876Y002663D02*
X002876Y041663D01*
X029976Y041663D01*
X029976Y040763D01*
X029978Y040724D01*
X029984Y040685D01*
X029993Y040647D01*
X030006Y040610D01*
X030023Y040574D01*
X030043Y040541D01*
X030067Y040509D01*
X030093Y040480D01*
X030122Y040454D01*
X030154Y040430D01*
X030187Y040410D01*
X030223Y040393D01*
X030260Y040380D01*
X030298Y040371D01*
X030337Y040365D01*
X030376Y040363D01*
X030415Y040365D01*
X030454Y040371D01*
X030492Y040380D01*
X030529Y040393D01*
X030565Y040410D01*
X030598Y040430D01*
X030630Y040454D01*
X030659Y040480D01*
X030685Y040509D01*
X030709Y040541D01*
X030729Y040574D01*
X030746Y040610D01*
X030759Y040647D01*
X030768Y040685D01*
X030774Y040724D01*
X030776Y040763D01*
X030776Y041663D01*
X033376Y041663D01*
X033376Y002663D01*
X030776Y002663D01*
X030776Y003663D01*
X030774Y003702D01*
X030768Y003741D01*
X030759Y003779D01*
X030746Y003816D01*
X030729Y003852D01*
X030709Y003885D01*
X030685Y003917D01*
X030659Y003946D01*
X030630Y003972D01*
X030598Y003996D01*
X030565Y004016D01*
X030529Y004033D01*
X030492Y004046D01*
X030454Y004055D01*
X030415Y004061D01*
X030376Y004063D01*
X030337Y004061D01*
X030298Y004055D01*
X030260Y004046D01*
X030223Y004033D01*
X030187Y004016D01*
X030154Y003996D01*
X030122Y003972D01*
X030093Y003946D01*
X030067Y003917D01*
X030043Y003885D01*
X030023Y003852D01*
X030006Y003816D01*
X029993Y003779D01*
X029984Y003741D01*
X029978Y003702D01*
X029976Y003663D01*
X029976Y002663D01*
X002876Y002663D01*
X019373Y019163D02*
X019306Y019230D01*
X019306Y019363D01*
X019373Y019430D01*
X019306Y019624D02*
X019573Y019891D01*
X019640Y019891D01*
X019707Y019824D01*
X019707Y019690D01*
X019640Y019624D01*
X019640Y019430D02*
X019707Y019363D01*
X019707Y019230D01*
X019640Y019163D01*
X019373Y019163D01*
X019306Y019624D02*
X019306Y019891D01*
X020572Y017384D02*
X020572Y016983D01*
X020439Y016983D02*
X020706Y016983D01*
X020899Y017050D02*
X020966Y016983D01*
X021099Y016983D01*
X021166Y017050D01*
X021166Y017317D01*
X021099Y017384D01*
X020966Y017384D01*
X020899Y017317D01*
X020706Y017250D02*
X020572Y017384D01*
X027145Y027228D02*
X027079Y027295D01*
X027079Y027562D01*
X027145Y027629D01*
X027279Y027629D01*
X027345Y027562D01*
X027345Y027495D01*
X027279Y027428D01*
X027079Y027428D01*
X027145Y027228D02*
X027279Y027228D01*
X027345Y027295D01*
X027539Y027228D02*
X027806Y027228D01*
X027672Y027228D02*
X027672Y027629D01*
X027806Y027495D01*
X027999Y027562D02*
X028066Y027629D01*
X028199Y027629D01*
X028266Y027562D01*
X028266Y027295D01*
X028199Y027228D01*
X028066Y027228D01*
X027999Y027295D01*
X027794Y027827D02*
X027558Y027827D01*
X027558Y028300D02*
X027794Y028300D01*
X018627Y037230D02*
X018560Y037163D01*
X018427Y037163D01*
X018360Y037230D01*
X018360Y037564D01*
X018167Y037564D02*
X017900Y037564D01*
X017900Y037497D01*
X018167Y037230D01*
X018167Y037163D01*
X018176Y036863D02*
X016756Y036863D01*
X017799Y036643D02*
X017801Y036658D01*
X017807Y036671D01*
X017816Y036683D01*
X017827Y036692D01*
X017841Y036698D01*
X017856Y036700D01*
X017871Y036698D01*
X017884Y036692D01*
X017896Y036683D01*
X017905Y036672D01*
X017911Y036658D01*
X017913Y036643D01*
X017911Y036628D01*
X017905Y036615D01*
X017896Y036603D01*
X017885Y036594D01*
X017871Y036588D01*
X017856Y036586D01*
X017841Y036588D01*
X017828Y036594D01*
X017816Y036603D01*
X017807Y036614D01*
X017801Y036628D01*
X017799Y036643D01*
X018627Y037230D02*
X018627Y037564D01*
X018176Y035003D02*
X016756Y035003D01*
X015382Y037345D02*
X015382Y037581D01*
X014910Y037581D02*
X014910Y037345D01*
X014612Y037356D02*
X014211Y037356D01*
X014211Y037223D02*
X014211Y037489D01*
X014278Y037683D02*
X014211Y037750D01*
X014211Y037883D01*
X014278Y037950D01*
X014345Y037950D01*
X014411Y037883D01*
X014411Y037683D01*
X014278Y037683D01*
X014411Y037683D02*
X014545Y037816D01*
X014612Y037950D01*
X014612Y037356D02*
X014478Y037223D01*
X014545Y037029D02*
X014612Y036962D01*
X014612Y036829D01*
X014545Y036762D01*
X014278Y036762D01*
X014211Y036829D01*
X014211Y036962D01*
X014278Y037029D01*
X014336Y036491D02*
X014336Y036224D01*
X014336Y036358D02*
X014737Y036358D01*
X014603Y036224D01*
X014536Y036031D02*
X014536Y035764D01*
X014737Y035964D01*
X014336Y035964D01*
X014336Y035570D02*
X014470Y035437D01*
X014470Y035503D02*
X014470Y035303D01*
X014336Y035303D02*
X014737Y035303D01*
X014737Y035503D01*
X014670Y035570D01*
X014536Y035570D01*
X014470Y035503D01*
X014309Y028629D02*
X014376Y028562D01*
X014309Y028629D02*
X014176Y028629D01*
X014109Y028562D01*
X014109Y028495D01*
X014376Y028228D01*
X014109Y028228D01*
X013915Y028295D02*
X013649Y028562D01*
X013649Y028295D01*
X013715Y028228D01*
X013849Y028228D01*
X013915Y028295D01*
X013915Y028562D01*
X013849Y028629D01*
X013715Y028629D01*
X013649Y028562D01*
X014208Y028000D02*
X014444Y028000D01*
X014636Y028228D02*
X014569Y028295D01*
X014636Y028228D02*
X014769Y028228D01*
X014836Y028295D01*
X014836Y028562D01*
X014769Y028629D01*
X014636Y028629D01*
X014569Y028562D01*
X014444Y027527D02*
X014208Y027527D01*
X028789Y014897D02*
X028789Y014630D01*
X028855Y014563D01*
X028989Y014563D01*
X029055Y014630D01*
X028989Y014763D02*
X028789Y014763D01*
X028789Y014897D02*
X028855Y014964D01*
X028989Y014964D01*
X029055Y014897D01*
X029055Y014830D01*
X028989Y014763D01*
X029249Y014697D02*
X029249Y014630D01*
X029316Y014563D01*
X029449Y014563D01*
X029516Y014630D01*
X029382Y014763D02*
X029316Y014763D01*
X029249Y014697D01*
X029316Y014763D02*
X029249Y014830D01*
X029249Y014897D01*
X029316Y014964D01*
X029449Y014964D01*
X029516Y014897D01*
X029709Y014897D02*
X029709Y014763D01*
X029776Y014697D01*
X029976Y014697D01*
X029843Y014697D02*
X029709Y014563D01*
X029976Y014563D02*
X029976Y014964D01*
X029776Y014964D01*
X029709Y014897D01*
X029776Y013874D02*
X029709Y013807D01*
X029709Y013673D01*
X029776Y013607D01*
X029976Y013607D01*
X029843Y013607D02*
X029709Y013473D01*
X029976Y013473D02*
X029976Y013874D01*
X029776Y013874D01*
X029516Y013673D02*
X029249Y013673D01*
X029316Y013473D02*
X029316Y013874D01*
X029516Y013673D01*
X029055Y013540D02*
X028989Y013473D01*
X028855Y013473D01*
X028789Y013540D01*
X028789Y013807D01*
X029055Y013540D01*
X029055Y013807D01*
X028989Y013874D01*
X028855Y013874D01*
X028789Y013807D01*
D11*
X030686Y013943D02*
X030876Y013943D01*
X030876Y014503D02*
X030686Y014503D01*
X030676Y015033D02*
X030866Y015033D01*
X030876Y013403D02*
X030686Y013403D01*
X020826Y017763D02*
X020826Y017953D01*
X018836Y019513D02*
X018646Y019513D01*
X015546Y035843D02*
X015546Y036033D01*
X014976Y036033D02*
X014976Y035843D01*
M02*
