G75*
%MOIN*%
%OFA0B0*%
%FSLAX24Y24*%
%IPPOS*%
%LPD*%
%AMOC8*
5,1,8,0,0,1.08239X$1,22.5*
%
%ADD10R,0.0551X0.0433*%
%ADD11R,0.0433X0.0551*%
%ADD12R,0.0709X0.0669*%
%ADD13R,0.0472X0.0472*%
%ADD14R,0.0945X0.0945*%
%ADD15R,0.0433X0.0394*%
%ADD16R,0.0870X0.0240*%
%ADD17R,0.1535X0.0630*%
%ADD18R,0.0472X0.0984*%
%ADD19R,0.0709X0.0630*%
%ADD20R,0.0472X0.0315*%
%ADD21R,0.0315X0.0472*%
%ADD22R,0.0984X0.0472*%
%ADD23R,0.0394X0.0709*%
%ADD24R,0.0591X0.0197*%
%ADD25R,0.0197X0.0591*%
%ADD26R,0.0961X0.0681*%
%ADD27R,0.0681X0.0961*%
%ADD28R,0.0374X0.0492*%
%ADD29R,0.0260X0.0800*%
%ADD30R,0.2953X0.2165*%
%ADD31R,0.0472X0.0236*%
%ADD32R,0.0800X0.0260*%
%ADD33R,0.2165X0.2953*%
%ADD34R,0.0315X0.0354*%
D10*
X009356Y017582D03*
X009356Y018369D03*
X021166Y023262D03*
X021166Y024049D03*
X021176Y024952D03*
X021176Y025739D03*
X021196Y029862D03*
X021196Y030649D03*
X024566Y030789D03*
X024566Y030002D03*
X026446Y030052D03*
X026446Y030839D03*
X025136Y035072D03*
X025136Y035859D03*
X023216Y036892D03*
X023216Y037679D03*
X021676Y037679D03*
X021676Y036892D03*
X029516Y037832D03*
X029516Y038619D03*
X031316Y038599D03*
X031316Y037812D03*
X033416Y037832D03*
X033416Y038619D03*
X040136Y062502D03*
X040136Y063289D03*
X041836Y063259D03*
X041836Y062472D03*
D11*
X030730Y049066D03*
X029942Y049066D03*
X029942Y047826D03*
X030730Y047826D03*
X030542Y036926D03*
X031330Y036926D03*
X032712Y036926D03*
X033500Y036926D03*
X029670Y036916D03*
X028882Y036916D03*
X024030Y035426D03*
X023242Y035426D03*
X021650Y035426D03*
X020862Y035426D03*
X021190Y028996D03*
X020402Y028996D03*
X015740Y021246D03*
X014952Y021246D03*
X014962Y020406D03*
X015750Y020406D03*
X015740Y017606D03*
X014952Y017606D03*
X027972Y025606D03*
X028760Y025606D03*
X033622Y020146D03*
X034410Y020146D03*
X035592Y018686D03*
X036380Y018686D03*
X041042Y033096D03*
X041830Y033096D03*
X041830Y033996D03*
X041042Y033996D03*
X041032Y034916D03*
X041820Y034916D03*
X016140Y045351D03*
X015352Y045351D03*
X015347Y046171D03*
X016135Y046171D03*
D12*
X046529Y024716D03*
X048143Y024716D03*
D13*
X044576Y023989D03*
X044576Y023162D03*
X036200Y020146D03*
X035373Y020146D03*
X035553Y017886D03*
X036380Y017886D03*
X030500Y025606D03*
X029673Y025606D03*
X027256Y030012D03*
X027256Y030839D03*
X025126Y033142D03*
X025126Y033969D03*
X024566Y029019D03*
X024566Y028192D03*
X015720Y018466D03*
X014893Y018466D03*
X009356Y019182D03*
X009356Y020009D03*
X013678Y045391D03*
X013683Y046181D03*
X014510Y046181D03*
X014505Y045391D03*
X026103Y047776D03*
X026930Y047776D03*
X026930Y049066D03*
X026103Y049066D03*
X038813Y034916D03*
X039640Y034916D03*
X039650Y033996D03*
X038823Y033996D03*
X038823Y033096D03*
X039650Y033096D03*
D14*
X046550Y023286D03*
X048282Y023286D03*
D15*
X047701Y025966D03*
X047032Y025966D03*
D16*
X043546Y022196D03*
X043546Y021696D03*
X043546Y021196D03*
X043546Y020696D03*
X041486Y020696D03*
X041486Y021196D03*
X041486Y021696D03*
X041486Y022196D03*
X044826Y036326D03*
X044826Y036826D03*
X044826Y037326D03*
X044826Y037826D03*
X046886Y037826D03*
X046886Y037326D03*
X046886Y036826D03*
X046886Y036326D03*
X044946Y062416D03*
X044946Y062916D03*
X044946Y063416D03*
X044946Y063916D03*
X042886Y063916D03*
X042886Y063416D03*
X042886Y062916D03*
X042886Y062416D03*
X023966Y049196D03*
X023966Y048696D03*
X023966Y048196D03*
X023966Y047696D03*
X021906Y047696D03*
X021906Y048196D03*
X021906Y048696D03*
X021906Y049196D03*
D17*
X045123Y033806D03*
X048469Y033806D03*
X048469Y029366D03*
X045123Y029366D03*
D18*
X043056Y047306D03*
X041757Y047306D03*
D19*
X041766Y037567D03*
X042766Y037567D03*
X042766Y036464D03*
X041766Y036464D03*
D20*
X048576Y036291D03*
X048576Y037000D03*
X043526Y023880D03*
X043526Y023171D03*
X032656Y037831D03*
X032656Y038540D03*
X030526Y038590D03*
X030526Y037881D03*
X028706Y037941D03*
X028706Y038650D03*
X022196Y030620D03*
X022196Y029911D03*
X022136Y025680D03*
X022136Y024971D03*
X016536Y021130D03*
X016536Y020421D03*
X041006Y062491D03*
X041006Y063200D03*
X018836Y071541D03*
X018136Y071541D03*
X018136Y072250D03*
X018836Y072250D03*
X014836Y072600D03*
X014836Y071891D03*
X014086Y071891D03*
X014086Y072600D03*
X014136Y070950D03*
X014136Y070241D03*
X014936Y070241D03*
X014936Y070950D03*
D21*
X014891Y069396D03*
X014182Y069396D03*
X014112Y073156D03*
X014821Y073156D03*
X018132Y073046D03*
X018841Y073046D03*
X042872Y020036D03*
X043581Y020036D03*
D22*
X037646Y038866D03*
X037646Y040165D03*
X044036Y040385D03*
X044036Y039086D03*
X036316Y077376D03*
X036316Y078675D03*
D23*
X011487Y072396D03*
X010385Y072396D03*
X010385Y069846D03*
X011487Y069846D03*
X011487Y062416D03*
X010385Y062416D03*
D24*
X021583Y043140D03*
X021583Y042825D03*
X021583Y042511D03*
X021583Y042196D03*
X021583Y041881D03*
X021583Y041566D03*
X021583Y041251D03*
X021583Y040936D03*
X021583Y040621D03*
X021583Y040306D03*
X021583Y039991D03*
X026150Y039991D03*
X026150Y040306D03*
X026150Y040621D03*
X026150Y040936D03*
X026150Y041251D03*
X026150Y041566D03*
X026150Y041881D03*
X026150Y042196D03*
X026150Y042511D03*
X026150Y042825D03*
X026150Y043140D03*
D25*
X025441Y043849D03*
X025126Y043849D03*
X024811Y043849D03*
X024496Y043849D03*
X024181Y043849D03*
X023866Y043849D03*
X023551Y043849D03*
X023236Y043849D03*
X022921Y043849D03*
X022606Y043849D03*
X022291Y043849D03*
X022291Y039282D03*
X022606Y039282D03*
X022921Y039282D03*
X023236Y039282D03*
X023551Y039282D03*
X023866Y039282D03*
X024181Y039282D03*
X024496Y039282D03*
X024811Y039282D03*
X025126Y039282D03*
X025441Y039282D03*
D26*
X039115Y045832D03*
X045765Y045842D03*
D27*
X042516Y045716D03*
X042516Y044036D03*
X042516Y042436D03*
X042516Y040855D03*
X045666Y038946D03*
X049166Y040865D03*
X049166Y042446D03*
X049166Y044046D03*
X049166Y045726D03*
X039016Y038936D03*
D28*
X045482Y020771D03*
X046270Y020771D03*
X046270Y018881D03*
X045482Y018881D03*
D29*
X013786Y017566D03*
X013286Y017566D03*
X012786Y017566D03*
X012286Y017566D03*
X011786Y017566D03*
X011286Y017566D03*
X010786Y017566D03*
X010286Y017566D03*
X010286Y021426D03*
X010786Y021426D03*
X011286Y021426D03*
X011786Y021426D03*
X012286Y021426D03*
X012786Y021426D03*
X013286Y021426D03*
X013786Y021426D03*
D30*
X012036Y019496D03*
D31*
X034494Y021016D03*
X034494Y021516D03*
X034494Y022016D03*
X034494Y022516D03*
X034494Y023016D03*
X034494Y023516D03*
X034494Y024016D03*
X034494Y024516D03*
X034494Y026616D03*
X034494Y027116D03*
X034494Y027616D03*
X034494Y028116D03*
X034494Y028616D03*
X034494Y029116D03*
X034494Y029616D03*
X034494Y030116D03*
X034474Y032216D03*
X034474Y032716D03*
X034474Y033216D03*
X034474Y033716D03*
X034474Y034216D03*
X034474Y034716D03*
X034474Y035216D03*
X034474Y035716D03*
X036679Y035716D03*
X036679Y035216D03*
X036679Y034716D03*
X036679Y034216D03*
X036679Y033716D03*
X036679Y033216D03*
X036679Y032716D03*
X036679Y032216D03*
X036699Y030116D03*
X036699Y029616D03*
X036699Y029116D03*
X036699Y028616D03*
X036699Y028116D03*
X036699Y027616D03*
X036699Y027116D03*
X036699Y026616D03*
X036699Y024516D03*
X036699Y024016D03*
X036699Y023516D03*
X036699Y023016D03*
X036699Y022516D03*
X036699Y022016D03*
X036699Y021516D03*
X036699Y021016D03*
D32*
X032926Y021096D03*
X032926Y021596D03*
X032926Y022096D03*
X032926Y022596D03*
X032926Y023096D03*
X032926Y023596D03*
X032926Y024096D03*
X032926Y024596D03*
X032966Y026596D03*
X032966Y027096D03*
X032966Y027596D03*
X032966Y028096D03*
X032966Y028596D03*
X032966Y029096D03*
X032966Y029596D03*
X032966Y030096D03*
X032986Y032236D03*
X032986Y032736D03*
X032986Y033236D03*
X032986Y033736D03*
X032986Y034236D03*
X032986Y034736D03*
X032986Y035236D03*
X032986Y035736D03*
X029126Y035736D03*
X029126Y035236D03*
X029126Y034736D03*
X029126Y034236D03*
X029126Y033736D03*
X029126Y033236D03*
X029126Y032736D03*
X029126Y032236D03*
X029106Y030096D03*
X029106Y029596D03*
X029106Y029096D03*
X029106Y028596D03*
X029106Y028096D03*
X029106Y027596D03*
X029106Y027096D03*
X029106Y026596D03*
X029066Y024596D03*
X029066Y024096D03*
X029066Y023596D03*
X029066Y023096D03*
X029066Y022596D03*
X029066Y022096D03*
X029066Y021596D03*
X029066Y021096D03*
D33*
X030996Y022846D03*
X031036Y028346D03*
X031056Y033986D03*
D34*
X023990Y034719D03*
X023242Y034719D03*
X023616Y033893D03*
X021650Y034679D03*
X020902Y034679D03*
X021276Y033853D03*
M02*
