G75*
%MOIN*%
%OFA0B0*%
%FSLAX24Y24*%
%IPPOS*%
%LPD*%
%AMOC8*
5,1,8,0,0,1.08239X$1,22.5*
%
%ADD10C,0.0000*%
%ADD11C,0.0100*%
%ADD12C,0.0060*%
%ADD13C,0.0080*%
%ADD14R,0.0551X0.0256*%
%ADD15R,0.0810X0.0030*%
%ADD16R,0.1500X0.0030*%
%ADD17R,0.2040X0.0030*%
%ADD18R,0.1110X0.0030*%
%ADD19R,0.1020X0.0030*%
%ADD20R,0.0840X0.0030*%
%ADD21R,0.0720X0.0030*%
%ADD22R,0.0660X0.0030*%
%ADD23R,0.0630X0.0030*%
%ADD24R,0.0570X0.0030*%
%ADD25R,0.0540X0.0030*%
%ADD26R,0.0480X0.0030*%
%ADD27R,0.0450X0.0030*%
%ADD28R,0.0420X0.0030*%
%ADD29R,0.0390X0.0030*%
%ADD30R,0.0360X0.0030*%
%ADD31R,0.0330X0.0030*%
%ADD32R,0.0300X0.0030*%
%ADD33R,0.0270X0.0030*%
%ADD34R,0.0240X0.0030*%
%ADD35R,0.0210X0.0030*%
%ADD36R,0.0180X0.0030*%
%ADD37R,0.0150X0.0030*%
%ADD38R,0.0120X0.0030*%
%ADD39R,0.0090X0.0030*%
%ADD40R,0.1050X0.0030*%
%ADD41R,0.1560X0.0030*%
%ADD42R,0.1980X0.0030*%
%ADD43R,0.1230X0.0030*%
%ADD44R,0.0960X0.0030*%
%ADD45R,0.0750X0.0030*%
%ADD46R,0.0600X0.0030*%
%ADD47R,0.0780X0.0030*%
%ADD48R,0.0930X0.0030*%
%ADD49R,0.0690X0.0030*%
%ADD50R,0.0510X0.0030*%
%ADD51R,0.0060X0.0030*%
%ADD52R,0.0030X0.0030*%
%ADD53R,0.0990X0.0030*%
D10*
X004536Y010096D02*
X004536Y081096D01*
X050536Y081096D01*
X050536Y010096D01*
X004536Y010096D01*
X006536Y018646D02*
X006538Y018696D01*
X006544Y018746D01*
X006554Y018796D01*
X006567Y018844D01*
X006584Y018892D01*
X006605Y018938D01*
X006629Y018982D01*
X006657Y019024D01*
X006688Y019064D01*
X006722Y019101D01*
X006759Y019136D01*
X006798Y019167D01*
X006839Y019196D01*
X006883Y019221D01*
X006929Y019243D01*
X006976Y019261D01*
X007024Y019275D01*
X007073Y019286D01*
X007123Y019293D01*
X007173Y019296D01*
X007224Y019295D01*
X007274Y019290D01*
X007324Y019281D01*
X007372Y019269D01*
X007420Y019252D01*
X007466Y019232D01*
X007511Y019209D01*
X007554Y019182D01*
X007594Y019152D01*
X007632Y019119D01*
X007667Y019083D01*
X007700Y019044D01*
X007729Y019003D01*
X007755Y018960D01*
X007778Y018915D01*
X007797Y018868D01*
X007812Y018820D01*
X007824Y018771D01*
X007832Y018721D01*
X007836Y018671D01*
X007836Y018621D01*
X007832Y018571D01*
X007824Y018521D01*
X007812Y018472D01*
X007797Y018424D01*
X007778Y018377D01*
X007755Y018332D01*
X007729Y018289D01*
X007700Y018248D01*
X007667Y018209D01*
X007632Y018173D01*
X007594Y018140D01*
X007554Y018110D01*
X007511Y018083D01*
X007466Y018060D01*
X007420Y018040D01*
X007372Y018023D01*
X007324Y018011D01*
X007274Y018002D01*
X007224Y017997D01*
X007173Y017996D01*
X007123Y017999D01*
X007073Y018006D01*
X007024Y018017D01*
X006976Y018031D01*
X006929Y018049D01*
X006883Y018071D01*
X006839Y018096D01*
X006798Y018125D01*
X006759Y018156D01*
X006722Y018191D01*
X006688Y018228D01*
X006657Y018268D01*
X006629Y018310D01*
X006605Y018354D01*
X006584Y018400D01*
X006567Y018448D01*
X006554Y018496D01*
X006544Y018546D01*
X006538Y018596D01*
X006536Y018646D01*
X022097Y017818D02*
X022099Y017866D01*
X022105Y017914D01*
X022115Y017961D01*
X022128Y018007D01*
X022146Y018052D01*
X022166Y018096D01*
X022191Y018138D01*
X022219Y018177D01*
X022249Y018214D01*
X022283Y018248D01*
X022320Y018280D01*
X022358Y018309D01*
X022399Y018334D01*
X022442Y018356D01*
X022487Y018374D01*
X022533Y018388D01*
X022580Y018399D01*
X022628Y018406D01*
X022676Y018409D01*
X022724Y018408D01*
X022772Y018403D01*
X022820Y018394D01*
X022866Y018382D01*
X022911Y018365D01*
X022955Y018345D01*
X022997Y018322D01*
X023037Y018295D01*
X023075Y018265D01*
X023110Y018232D01*
X023142Y018196D01*
X023172Y018158D01*
X023198Y018117D01*
X023220Y018074D01*
X023240Y018030D01*
X023255Y017985D01*
X023267Y017938D01*
X023275Y017890D01*
X023279Y017842D01*
X023279Y017794D01*
X023275Y017746D01*
X023267Y017698D01*
X023255Y017651D01*
X023240Y017606D01*
X023220Y017562D01*
X023198Y017519D01*
X023172Y017478D01*
X023142Y017440D01*
X023110Y017404D01*
X023075Y017371D01*
X023037Y017341D01*
X022997Y017314D01*
X022955Y017291D01*
X022911Y017271D01*
X022866Y017254D01*
X022820Y017242D01*
X022772Y017233D01*
X022724Y017228D01*
X022676Y017227D01*
X022628Y017230D01*
X022580Y017237D01*
X022533Y017248D01*
X022487Y017262D01*
X022442Y017280D01*
X022399Y017302D01*
X022358Y017327D01*
X022320Y017356D01*
X022283Y017388D01*
X022249Y017422D01*
X022219Y017459D01*
X022191Y017498D01*
X022166Y017540D01*
X022146Y017584D01*
X022128Y017629D01*
X022115Y017675D01*
X022105Y017722D01*
X022099Y017770D01*
X022097Y017818D01*
X022097Y023173D02*
X022099Y023221D01*
X022105Y023269D01*
X022115Y023316D01*
X022128Y023362D01*
X022146Y023407D01*
X022166Y023451D01*
X022191Y023493D01*
X022219Y023532D01*
X022249Y023569D01*
X022283Y023603D01*
X022320Y023635D01*
X022358Y023664D01*
X022399Y023689D01*
X022442Y023711D01*
X022487Y023729D01*
X022533Y023743D01*
X022580Y023754D01*
X022628Y023761D01*
X022676Y023764D01*
X022724Y023763D01*
X022772Y023758D01*
X022820Y023749D01*
X022866Y023737D01*
X022911Y023720D01*
X022955Y023700D01*
X022997Y023677D01*
X023037Y023650D01*
X023075Y023620D01*
X023110Y023587D01*
X023142Y023551D01*
X023172Y023513D01*
X023198Y023472D01*
X023220Y023429D01*
X023240Y023385D01*
X023255Y023340D01*
X023267Y023293D01*
X023275Y023245D01*
X023279Y023197D01*
X023279Y023149D01*
X023275Y023101D01*
X023267Y023053D01*
X023255Y023006D01*
X023240Y022961D01*
X023220Y022917D01*
X023198Y022874D01*
X023172Y022833D01*
X023142Y022795D01*
X023110Y022759D01*
X023075Y022726D01*
X023037Y022696D01*
X022997Y022669D01*
X022955Y022646D01*
X022911Y022626D01*
X022866Y022609D01*
X022820Y022597D01*
X022772Y022588D01*
X022724Y022583D01*
X022676Y022582D01*
X022628Y022585D01*
X022580Y022592D01*
X022533Y022603D01*
X022487Y022617D01*
X022442Y022635D01*
X022399Y022657D01*
X022358Y022682D01*
X022320Y022711D01*
X022283Y022743D01*
X022249Y022777D01*
X022219Y022814D01*
X022191Y022853D01*
X022166Y022895D01*
X022146Y022939D01*
X022128Y022984D01*
X022115Y023030D01*
X022105Y023077D01*
X022099Y023125D01*
X022097Y023173D01*
X039544Y023818D02*
X039546Y023866D01*
X039552Y023914D01*
X039562Y023961D01*
X039575Y024007D01*
X039593Y024052D01*
X039613Y024096D01*
X039638Y024138D01*
X039666Y024177D01*
X039696Y024214D01*
X039730Y024248D01*
X039767Y024280D01*
X039805Y024309D01*
X039846Y024334D01*
X039889Y024356D01*
X039934Y024374D01*
X039980Y024388D01*
X040027Y024399D01*
X040075Y024406D01*
X040123Y024409D01*
X040171Y024408D01*
X040219Y024403D01*
X040267Y024394D01*
X040313Y024382D01*
X040358Y024365D01*
X040402Y024345D01*
X040444Y024322D01*
X040484Y024295D01*
X040522Y024265D01*
X040557Y024232D01*
X040589Y024196D01*
X040619Y024158D01*
X040645Y024117D01*
X040667Y024074D01*
X040687Y024030D01*
X040702Y023985D01*
X040714Y023938D01*
X040722Y023890D01*
X040726Y023842D01*
X040726Y023794D01*
X040722Y023746D01*
X040714Y023698D01*
X040702Y023651D01*
X040687Y023606D01*
X040667Y023562D01*
X040645Y023519D01*
X040619Y023478D01*
X040589Y023440D01*
X040557Y023404D01*
X040522Y023371D01*
X040484Y023341D01*
X040444Y023314D01*
X040402Y023291D01*
X040358Y023271D01*
X040313Y023254D01*
X040267Y023242D01*
X040219Y023233D01*
X040171Y023228D01*
X040123Y023227D01*
X040075Y023230D01*
X040027Y023237D01*
X039980Y023248D01*
X039934Y023262D01*
X039889Y023280D01*
X039846Y023302D01*
X039805Y023327D01*
X039767Y023356D01*
X039730Y023388D01*
X039696Y023422D01*
X039666Y023459D01*
X039638Y023498D01*
X039613Y023540D01*
X039593Y023584D01*
X039575Y023629D01*
X039562Y023675D01*
X039552Y023722D01*
X039546Y023770D01*
X039544Y023818D01*
X039544Y029173D02*
X039546Y029221D01*
X039552Y029269D01*
X039562Y029316D01*
X039575Y029362D01*
X039593Y029407D01*
X039613Y029451D01*
X039638Y029493D01*
X039666Y029532D01*
X039696Y029569D01*
X039730Y029603D01*
X039767Y029635D01*
X039805Y029664D01*
X039846Y029689D01*
X039889Y029711D01*
X039934Y029729D01*
X039980Y029743D01*
X040027Y029754D01*
X040075Y029761D01*
X040123Y029764D01*
X040171Y029763D01*
X040219Y029758D01*
X040267Y029749D01*
X040313Y029737D01*
X040358Y029720D01*
X040402Y029700D01*
X040444Y029677D01*
X040484Y029650D01*
X040522Y029620D01*
X040557Y029587D01*
X040589Y029551D01*
X040619Y029513D01*
X040645Y029472D01*
X040667Y029429D01*
X040687Y029385D01*
X040702Y029340D01*
X040714Y029293D01*
X040722Y029245D01*
X040726Y029197D01*
X040726Y029149D01*
X040722Y029101D01*
X040714Y029053D01*
X040702Y029006D01*
X040687Y028961D01*
X040667Y028917D01*
X040645Y028874D01*
X040619Y028833D01*
X040589Y028795D01*
X040557Y028759D01*
X040522Y028726D01*
X040484Y028696D01*
X040444Y028669D01*
X040402Y028646D01*
X040358Y028626D01*
X040313Y028609D01*
X040267Y028597D01*
X040219Y028588D01*
X040171Y028583D01*
X040123Y028582D01*
X040075Y028585D01*
X040027Y028592D01*
X039980Y028603D01*
X039934Y028617D01*
X039889Y028635D01*
X039846Y028657D01*
X039805Y028682D01*
X039767Y028711D01*
X039730Y028743D01*
X039696Y028777D01*
X039666Y028814D01*
X039638Y028853D01*
X039613Y028895D01*
X039593Y028939D01*
X039575Y028984D01*
X039562Y029030D01*
X039552Y029077D01*
X039546Y029125D01*
X039544Y029173D01*
X047886Y019096D02*
X047888Y019146D01*
X047894Y019196D01*
X047904Y019246D01*
X047917Y019294D01*
X047934Y019342D01*
X047955Y019388D01*
X047979Y019432D01*
X048007Y019474D01*
X048038Y019514D01*
X048072Y019551D01*
X048109Y019586D01*
X048148Y019617D01*
X048189Y019646D01*
X048233Y019671D01*
X048279Y019693D01*
X048326Y019711D01*
X048374Y019725D01*
X048423Y019736D01*
X048473Y019743D01*
X048523Y019746D01*
X048574Y019745D01*
X048624Y019740D01*
X048674Y019731D01*
X048722Y019719D01*
X048770Y019702D01*
X048816Y019682D01*
X048861Y019659D01*
X048904Y019632D01*
X048944Y019602D01*
X048982Y019569D01*
X049017Y019533D01*
X049050Y019494D01*
X049079Y019453D01*
X049105Y019410D01*
X049128Y019365D01*
X049147Y019318D01*
X049162Y019270D01*
X049174Y019221D01*
X049182Y019171D01*
X049186Y019121D01*
X049186Y019071D01*
X049182Y019021D01*
X049174Y018971D01*
X049162Y018922D01*
X049147Y018874D01*
X049128Y018827D01*
X049105Y018782D01*
X049079Y018739D01*
X049050Y018698D01*
X049017Y018659D01*
X048982Y018623D01*
X048944Y018590D01*
X048904Y018560D01*
X048861Y018533D01*
X048816Y018510D01*
X048770Y018490D01*
X048722Y018473D01*
X048674Y018461D01*
X048624Y018452D01*
X048574Y018447D01*
X048523Y018446D01*
X048473Y018449D01*
X048423Y018456D01*
X048374Y018467D01*
X048326Y018481D01*
X048279Y018499D01*
X048233Y018521D01*
X048189Y018546D01*
X048148Y018575D01*
X048109Y018606D01*
X048072Y018641D01*
X048038Y018678D01*
X048007Y018718D01*
X047979Y018760D01*
X047955Y018804D01*
X047934Y018850D01*
X047917Y018898D01*
X047904Y018946D01*
X047894Y018996D01*
X047888Y019046D01*
X047886Y019096D01*
X046786Y048731D02*
X046788Y048785D01*
X046794Y048839D01*
X046804Y048892D01*
X046817Y048945D01*
X046834Y048996D01*
X046855Y049046D01*
X046880Y049094D01*
X046908Y049141D01*
X046939Y049185D01*
X046973Y049227D01*
X047010Y049266D01*
X047050Y049303D01*
X047093Y049336D01*
X047138Y049367D01*
X047185Y049394D01*
X047233Y049417D01*
X047284Y049437D01*
X047335Y049454D01*
X047388Y049466D01*
X047441Y049475D01*
X047495Y049480D01*
X047550Y049481D01*
X047604Y049478D01*
X047657Y049471D01*
X047710Y049460D01*
X047763Y049446D01*
X047814Y049428D01*
X047863Y049406D01*
X047911Y049381D01*
X047957Y049352D01*
X048001Y049320D01*
X048042Y049285D01*
X048080Y049247D01*
X048116Y049206D01*
X048149Y049163D01*
X048179Y049118D01*
X048205Y049070D01*
X048228Y049021D01*
X048247Y048970D01*
X048262Y048919D01*
X048274Y048866D01*
X048282Y048812D01*
X048286Y048758D01*
X048286Y048704D01*
X048282Y048650D01*
X048274Y048596D01*
X048262Y048543D01*
X048247Y048492D01*
X048228Y048441D01*
X048205Y048392D01*
X048179Y048344D01*
X048149Y048299D01*
X048116Y048256D01*
X048080Y048215D01*
X048042Y048177D01*
X048001Y048142D01*
X047957Y048110D01*
X047911Y048081D01*
X047863Y048056D01*
X047814Y048034D01*
X047763Y048016D01*
X047710Y048002D01*
X047657Y047991D01*
X047604Y047984D01*
X047550Y047981D01*
X047495Y047982D01*
X047441Y047987D01*
X047388Y047996D01*
X047335Y048008D01*
X047284Y048025D01*
X047233Y048045D01*
X047185Y048068D01*
X047138Y048095D01*
X047093Y048126D01*
X047050Y048159D01*
X047010Y048196D01*
X046973Y048235D01*
X046939Y048277D01*
X046908Y048321D01*
X046880Y048368D01*
X046855Y048416D01*
X046834Y048466D01*
X046817Y048517D01*
X046804Y048570D01*
X046794Y048623D01*
X046788Y048677D01*
X046786Y048731D01*
X046786Y053461D02*
X046788Y053515D01*
X046794Y053569D01*
X046804Y053622D01*
X046817Y053675D01*
X046834Y053726D01*
X046855Y053776D01*
X046880Y053824D01*
X046908Y053871D01*
X046939Y053915D01*
X046973Y053957D01*
X047010Y053996D01*
X047050Y054033D01*
X047093Y054066D01*
X047138Y054097D01*
X047185Y054124D01*
X047233Y054147D01*
X047284Y054167D01*
X047335Y054184D01*
X047388Y054196D01*
X047441Y054205D01*
X047495Y054210D01*
X047550Y054211D01*
X047604Y054208D01*
X047657Y054201D01*
X047710Y054190D01*
X047763Y054176D01*
X047814Y054158D01*
X047863Y054136D01*
X047911Y054111D01*
X047957Y054082D01*
X048001Y054050D01*
X048042Y054015D01*
X048080Y053977D01*
X048116Y053936D01*
X048149Y053893D01*
X048179Y053848D01*
X048205Y053800D01*
X048228Y053751D01*
X048247Y053700D01*
X048262Y053649D01*
X048274Y053596D01*
X048282Y053542D01*
X048286Y053488D01*
X048286Y053434D01*
X048282Y053380D01*
X048274Y053326D01*
X048262Y053273D01*
X048247Y053222D01*
X048228Y053171D01*
X048205Y053122D01*
X048179Y053074D01*
X048149Y053029D01*
X048116Y052986D01*
X048080Y052945D01*
X048042Y052907D01*
X048001Y052872D01*
X047957Y052840D01*
X047911Y052811D01*
X047863Y052786D01*
X047814Y052764D01*
X047763Y052746D01*
X047710Y052732D01*
X047657Y052721D01*
X047604Y052714D01*
X047550Y052711D01*
X047495Y052712D01*
X047441Y052717D01*
X047388Y052726D01*
X047335Y052738D01*
X047284Y052755D01*
X047233Y052775D01*
X047185Y052798D01*
X047138Y052825D01*
X047093Y052856D01*
X047050Y052889D01*
X047010Y052926D01*
X046973Y052965D01*
X046939Y053007D01*
X046908Y053051D01*
X046880Y053098D01*
X046855Y053146D01*
X046834Y053196D01*
X046817Y053247D01*
X046804Y053300D01*
X046794Y053353D01*
X046788Y053407D01*
X046786Y053461D01*
X046786Y056731D02*
X046788Y056785D01*
X046794Y056839D01*
X046804Y056892D01*
X046817Y056945D01*
X046834Y056996D01*
X046855Y057046D01*
X046880Y057094D01*
X046908Y057141D01*
X046939Y057185D01*
X046973Y057227D01*
X047010Y057266D01*
X047050Y057303D01*
X047093Y057336D01*
X047138Y057367D01*
X047185Y057394D01*
X047233Y057417D01*
X047284Y057437D01*
X047335Y057454D01*
X047388Y057466D01*
X047441Y057475D01*
X047495Y057480D01*
X047550Y057481D01*
X047604Y057478D01*
X047657Y057471D01*
X047710Y057460D01*
X047763Y057446D01*
X047814Y057428D01*
X047863Y057406D01*
X047911Y057381D01*
X047957Y057352D01*
X048001Y057320D01*
X048042Y057285D01*
X048080Y057247D01*
X048116Y057206D01*
X048149Y057163D01*
X048179Y057118D01*
X048205Y057070D01*
X048228Y057021D01*
X048247Y056970D01*
X048262Y056919D01*
X048274Y056866D01*
X048282Y056812D01*
X048286Y056758D01*
X048286Y056704D01*
X048282Y056650D01*
X048274Y056596D01*
X048262Y056543D01*
X048247Y056492D01*
X048228Y056441D01*
X048205Y056392D01*
X048179Y056344D01*
X048149Y056299D01*
X048116Y056256D01*
X048080Y056215D01*
X048042Y056177D01*
X048001Y056142D01*
X047957Y056110D01*
X047911Y056081D01*
X047863Y056056D01*
X047814Y056034D01*
X047763Y056016D01*
X047710Y056002D01*
X047657Y055991D01*
X047604Y055984D01*
X047550Y055981D01*
X047495Y055982D01*
X047441Y055987D01*
X047388Y055996D01*
X047335Y056008D01*
X047284Y056025D01*
X047233Y056045D01*
X047185Y056068D01*
X047138Y056095D01*
X047093Y056126D01*
X047050Y056159D01*
X047010Y056196D01*
X046973Y056235D01*
X046939Y056277D01*
X046908Y056321D01*
X046880Y056368D01*
X046855Y056416D01*
X046834Y056466D01*
X046817Y056517D01*
X046804Y056570D01*
X046794Y056623D01*
X046788Y056677D01*
X046786Y056731D01*
X046786Y061461D02*
X046788Y061515D01*
X046794Y061569D01*
X046804Y061622D01*
X046817Y061675D01*
X046834Y061726D01*
X046855Y061776D01*
X046880Y061824D01*
X046908Y061871D01*
X046939Y061915D01*
X046973Y061957D01*
X047010Y061996D01*
X047050Y062033D01*
X047093Y062066D01*
X047138Y062097D01*
X047185Y062124D01*
X047233Y062147D01*
X047284Y062167D01*
X047335Y062184D01*
X047388Y062196D01*
X047441Y062205D01*
X047495Y062210D01*
X047550Y062211D01*
X047604Y062208D01*
X047657Y062201D01*
X047710Y062190D01*
X047763Y062176D01*
X047814Y062158D01*
X047863Y062136D01*
X047911Y062111D01*
X047957Y062082D01*
X048001Y062050D01*
X048042Y062015D01*
X048080Y061977D01*
X048116Y061936D01*
X048149Y061893D01*
X048179Y061848D01*
X048205Y061800D01*
X048228Y061751D01*
X048247Y061700D01*
X048262Y061649D01*
X048274Y061596D01*
X048282Y061542D01*
X048286Y061488D01*
X048286Y061434D01*
X048282Y061380D01*
X048274Y061326D01*
X048262Y061273D01*
X048247Y061222D01*
X048228Y061171D01*
X048205Y061122D01*
X048179Y061074D01*
X048149Y061029D01*
X048116Y060986D01*
X048080Y060945D01*
X048042Y060907D01*
X048001Y060872D01*
X047957Y060840D01*
X047911Y060811D01*
X047863Y060786D01*
X047814Y060764D01*
X047763Y060746D01*
X047710Y060732D01*
X047657Y060721D01*
X047604Y060714D01*
X047550Y060711D01*
X047495Y060712D01*
X047441Y060717D01*
X047388Y060726D01*
X047335Y060738D01*
X047284Y060755D01*
X047233Y060775D01*
X047185Y060798D01*
X047138Y060825D01*
X047093Y060856D01*
X047050Y060889D01*
X047010Y060926D01*
X046973Y060965D01*
X046939Y061007D01*
X046908Y061051D01*
X046880Y061098D01*
X046855Y061146D01*
X046834Y061196D01*
X046817Y061247D01*
X046804Y061300D01*
X046794Y061353D01*
X046788Y061407D01*
X046786Y061461D01*
X046786Y064731D02*
X046788Y064785D01*
X046794Y064839D01*
X046804Y064892D01*
X046817Y064945D01*
X046834Y064996D01*
X046855Y065046D01*
X046880Y065094D01*
X046908Y065141D01*
X046939Y065185D01*
X046973Y065227D01*
X047010Y065266D01*
X047050Y065303D01*
X047093Y065336D01*
X047138Y065367D01*
X047185Y065394D01*
X047233Y065417D01*
X047284Y065437D01*
X047335Y065454D01*
X047388Y065466D01*
X047441Y065475D01*
X047495Y065480D01*
X047550Y065481D01*
X047604Y065478D01*
X047657Y065471D01*
X047710Y065460D01*
X047763Y065446D01*
X047814Y065428D01*
X047863Y065406D01*
X047911Y065381D01*
X047957Y065352D01*
X048001Y065320D01*
X048042Y065285D01*
X048080Y065247D01*
X048116Y065206D01*
X048149Y065163D01*
X048179Y065118D01*
X048205Y065070D01*
X048228Y065021D01*
X048247Y064970D01*
X048262Y064919D01*
X048274Y064866D01*
X048282Y064812D01*
X048286Y064758D01*
X048286Y064704D01*
X048282Y064650D01*
X048274Y064596D01*
X048262Y064543D01*
X048247Y064492D01*
X048228Y064441D01*
X048205Y064392D01*
X048179Y064344D01*
X048149Y064299D01*
X048116Y064256D01*
X048080Y064215D01*
X048042Y064177D01*
X048001Y064142D01*
X047957Y064110D01*
X047911Y064081D01*
X047863Y064056D01*
X047814Y064034D01*
X047763Y064016D01*
X047710Y064002D01*
X047657Y063991D01*
X047604Y063984D01*
X047550Y063981D01*
X047495Y063982D01*
X047441Y063987D01*
X047388Y063996D01*
X047335Y064008D01*
X047284Y064025D01*
X047233Y064045D01*
X047185Y064068D01*
X047138Y064095D01*
X047093Y064126D01*
X047050Y064159D01*
X047010Y064196D01*
X046973Y064235D01*
X046939Y064277D01*
X046908Y064321D01*
X046880Y064368D01*
X046855Y064416D01*
X046834Y064466D01*
X046817Y064517D01*
X046804Y064570D01*
X046794Y064623D01*
X046788Y064677D01*
X046786Y064731D01*
X046786Y069461D02*
X046788Y069515D01*
X046794Y069569D01*
X046804Y069622D01*
X046817Y069675D01*
X046834Y069726D01*
X046855Y069776D01*
X046880Y069824D01*
X046908Y069871D01*
X046939Y069915D01*
X046973Y069957D01*
X047010Y069996D01*
X047050Y070033D01*
X047093Y070066D01*
X047138Y070097D01*
X047185Y070124D01*
X047233Y070147D01*
X047284Y070167D01*
X047335Y070184D01*
X047388Y070196D01*
X047441Y070205D01*
X047495Y070210D01*
X047550Y070211D01*
X047604Y070208D01*
X047657Y070201D01*
X047710Y070190D01*
X047763Y070176D01*
X047814Y070158D01*
X047863Y070136D01*
X047911Y070111D01*
X047957Y070082D01*
X048001Y070050D01*
X048042Y070015D01*
X048080Y069977D01*
X048116Y069936D01*
X048149Y069893D01*
X048179Y069848D01*
X048205Y069800D01*
X048228Y069751D01*
X048247Y069700D01*
X048262Y069649D01*
X048274Y069596D01*
X048282Y069542D01*
X048286Y069488D01*
X048286Y069434D01*
X048282Y069380D01*
X048274Y069326D01*
X048262Y069273D01*
X048247Y069222D01*
X048228Y069171D01*
X048205Y069122D01*
X048179Y069074D01*
X048149Y069029D01*
X048116Y068986D01*
X048080Y068945D01*
X048042Y068907D01*
X048001Y068872D01*
X047957Y068840D01*
X047911Y068811D01*
X047863Y068786D01*
X047814Y068764D01*
X047763Y068746D01*
X047710Y068732D01*
X047657Y068721D01*
X047604Y068714D01*
X047550Y068711D01*
X047495Y068712D01*
X047441Y068717D01*
X047388Y068726D01*
X047335Y068738D01*
X047284Y068755D01*
X047233Y068775D01*
X047185Y068798D01*
X047138Y068825D01*
X047093Y068856D01*
X047050Y068889D01*
X047010Y068926D01*
X046973Y068965D01*
X046939Y069007D01*
X046908Y069051D01*
X046880Y069098D01*
X046855Y069146D01*
X046834Y069196D01*
X046817Y069247D01*
X046804Y069300D01*
X046794Y069353D01*
X046788Y069407D01*
X046786Y069461D01*
X044546Y070126D02*
X044548Y070176D01*
X044554Y070226D01*
X044564Y070275D01*
X044578Y070323D01*
X044595Y070370D01*
X044616Y070415D01*
X044641Y070459D01*
X044669Y070500D01*
X044701Y070539D01*
X044735Y070576D01*
X044772Y070610D01*
X044812Y070640D01*
X044854Y070667D01*
X044898Y070691D01*
X044944Y070712D01*
X044991Y070728D01*
X045039Y070741D01*
X045089Y070750D01*
X045138Y070755D01*
X045189Y070756D01*
X045239Y070753D01*
X045288Y070746D01*
X045337Y070735D01*
X045385Y070720D01*
X045431Y070702D01*
X045476Y070680D01*
X045519Y070654D01*
X045560Y070625D01*
X045599Y070593D01*
X045635Y070558D01*
X045667Y070520D01*
X045697Y070480D01*
X045724Y070437D01*
X045747Y070393D01*
X045766Y070347D01*
X045782Y070299D01*
X045794Y070250D01*
X045802Y070201D01*
X045806Y070151D01*
X045806Y070101D01*
X045802Y070051D01*
X045794Y070002D01*
X045782Y069953D01*
X045766Y069905D01*
X045747Y069859D01*
X045724Y069815D01*
X045697Y069772D01*
X045667Y069732D01*
X045635Y069694D01*
X045599Y069659D01*
X045560Y069627D01*
X045519Y069598D01*
X045476Y069572D01*
X045431Y069550D01*
X045385Y069532D01*
X045337Y069517D01*
X045288Y069506D01*
X045239Y069499D01*
X045189Y069496D01*
X045138Y069497D01*
X045089Y069502D01*
X045039Y069511D01*
X044991Y069524D01*
X044944Y069540D01*
X044898Y069561D01*
X044854Y069585D01*
X044812Y069612D01*
X044772Y069642D01*
X044735Y069676D01*
X044701Y069713D01*
X044669Y069752D01*
X044641Y069793D01*
X044616Y069837D01*
X044595Y069882D01*
X044578Y069929D01*
X044564Y069977D01*
X044554Y070026D01*
X044548Y070076D01*
X044546Y070126D01*
X044486Y072606D02*
X044488Y072656D01*
X044494Y072706D01*
X044504Y072755D01*
X044518Y072803D01*
X044535Y072850D01*
X044556Y072895D01*
X044581Y072939D01*
X044609Y072980D01*
X044641Y073019D01*
X044675Y073056D01*
X044712Y073090D01*
X044752Y073120D01*
X044794Y073147D01*
X044838Y073171D01*
X044884Y073192D01*
X044931Y073208D01*
X044979Y073221D01*
X045029Y073230D01*
X045078Y073235D01*
X045129Y073236D01*
X045179Y073233D01*
X045228Y073226D01*
X045277Y073215D01*
X045325Y073200D01*
X045371Y073182D01*
X045416Y073160D01*
X045459Y073134D01*
X045500Y073105D01*
X045539Y073073D01*
X045575Y073038D01*
X045607Y073000D01*
X045637Y072960D01*
X045664Y072917D01*
X045687Y072873D01*
X045706Y072827D01*
X045722Y072779D01*
X045734Y072730D01*
X045742Y072681D01*
X045746Y072631D01*
X045746Y072581D01*
X045742Y072531D01*
X045734Y072482D01*
X045722Y072433D01*
X045706Y072385D01*
X045687Y072339D01*
X045664Y072295D01*
X045637Y072252D01*
X045607Y072212D01*
X045575Y072174D01*
X045539Y072139D01*
X045500Y072107D01*
X045459Y072078D01*
X045416Y072052D01*
X045371Y072030D01*
X045325Y072012D01*
X045277Y071997D01*
X045228Y071986D01*
X045179Y071979D01*
X045129Y071976D01*
X045078Y071977D01*
X045029Y071982D01*
X044979Y071991D01*
X044931Y072004D01*
X044884Y072020D01*
X044838Y072041D01*
X044794Y072065D01*
X044752Y072092D01*
X044712Y072122D01*
X044675Y072156D01*
X044641Y072193D01*
X044609Y072232D01*
X044581Y072273D01*
X044556Y072317D01*
X044535Y072362D01*
X044518Y072409D01*
X044504Y072457D01*
X044494Y072506D01*
X044488Y072556D01*
X044486Y072606D01*
X046786Y072731D02*
X046788Y072785D01*
X046794Y072839D01*
X046804Y072892D01*
X046817Y072945D01*
X046834Y072996D01*
X046855Y073046D01*
X046880Y073094D01*
X046908Y073141D01*
X046939Y073185D01*
X046973Y073227D01*
X047010Y073266D01*
X047050Y073303D01*
X047093Y073336D01*
X047138Y073367D01*
X047185Y073394D01*
X047233Y073417D01*
X047284Y073437D01*
X047335Y073454D01*
X047388Y073466D01*
X047441Y073475D01*
X047495Y073480D01*
X047550Y073481D01*
X047604Y073478D01*
X047657Y073471D01*
X047710Y073460D01*
X047763Y073446D01*
X047814Y073428D01*
X047863Y073406D01*
X047911Y073381D01*
X047957Y073352D01*
X048001Y073320D01*
X048042Y073285D01*
X048080Y073247D01*
X048116Y073206D01*
X048149Y073163D01*
X048179Y073118D01*
X048205Y073070D01*
X048228Y073021D01*
X048247Y072970D01*
X048262Y072919D01*
X048274Y072866D01*
X048282Y072812D01*
X048286Y072758D01*
X048286Y072704D01*
X048282Y072650D01*
X048274Y072596D01*
X048262Y072543D01*
X048247Y072492D01*
X048228Y072441D01*
X048205Y072392D01*
X048179Y072344D01*
X048149Y072299D01*
X048116Y072256D01*
X048080Y072215D01*
X048042Y072177D01*
X048001Y072142D01*
X047957Y072110D01*
X047911Y072081D01*
X047863Y072056D01*
X047814Y072034D01*
X047763Y072016D01*
X047710Y072002D01*
X047657Y071991D01*
X047604Y071984D01*
X047550Y071981D01*
X047495Y071982D01*
X047441Y071987D01*
X047388Y071996D01*
X047335Y072008D01*
X047284Y072025D01*
X047233Y072045D01*
X047185Y072068D01*
X047138Y072095D01*
X047093Y072126D01*
X047050Y072159D01*
X047010Y072196D01*
X046973Y072235D01*
X046939Y072277D01*
X046908Y072321D01*
X046880Y072368D01*
X046855Y072416D01*
X046834Y072466D01*
X046817Y072517D01*
X046804Y072570D01*
X046794Y072623D01*
X046788Y072677D01*
X046786Y072731D01*
X046786Y077461D02*
X046788Y077515D01*
X046794Y077569D01*
X046804Y077622D01*
X046817Y077675D01*
X046834Y077726D01*
X046855Y077776D01*
X046880Y077824D01*
X046908Y077871D01*
X046939Y077915D01*
X046973Y077957D01*
X047010Y077996D01*
X047050Y078033D01*
X047093Y078066D01*
X047138Y078097D01*
X047185Y078124D01*
X047233Y078147D01*
X047284Y078167D01*
X047335Y078184D01*
X047388Y078196D01*
X047441Y078205D01*
X047495Y078210D01*
X047550Y078211D01*
X047604Y078208D01*
X047657Y078201D01*
X047710Y078190D01*
X047763Y078176D01*
X047814Y078158D01*
X047863Y078136D01*
X047911Y078111D01*
X047957Y078082D01*
X048001Y078050D01*
X048042Y078015D01*
X048080Y077977D01*
X048116Y077936D01*
X048149Y077893D01*
X048179Y077848D01*
X048205Y077800D01*
X048228Y077751D01*
X048247Y077700D01*
X048262Y077649D01*
X048274Y077596D01*
X048282Y077542D01*
X048286Y077488D01*
X048286Y077434D01*
X048282Y077380D01*
X048274Y077326D01*
X048262Y077273D01*
X048247Y077222D01*
X048228Y077171D01*
X048205Y077122D01*
X048179Y077074D01*
X048149Y077029D01*
X048116Y076986D01*
X048080Y076945D01*
X048042Y076907D01*
X048001Y076872D01*
X047957Y076840D01*
X047911Y076811D01*
X047863Y076786D01*
X047814Y076764D01*
X047763Y076746D01*
X047710Y076732D01*
X047657Y076721D01*
X047604Y076714D01*
X047550Y076711D01*
X047495Y076712D01*
X047441Y076717D01*
X047388Y076726D01*
X047335Y076738D01*
X047284Y076755D01*
X047233Y076775D01*
X047185Y076798D01*
X047138Y076825D01*
X047093Y076856D01*
X047050Y076889D01*
X047010Y076926D01*
X046973Y076965D01*
X046939Y077007D01*
X046908Y077051D01*
X046880Y077098D01*
X046855Y077146D01*
X046834Y077196D01*
X046817Y077247D01*
X046804Y077300D01*
X046794Y077353D01*
X046788Y077407D01*
X046786Y077461D01*
X042886Y079096D02*
X042888Y079146D01*
X042894Y079196D01*
X042904Y079246D01*
X042917Y079294D01*
X042934Y079342D01*
X042955Y079388D01*
X042979Y079432D01*
X043007Y079474D01*
X043038Y079514D01*
X043072Y079551D01*
X043109Y079586D01*
X043148Y079617D01*
X043189Y079646D01*
X043233Y079671D01*
X043279Y079693D01*
X043326Y079711D01*
X043374Y079725D01*
X043423Y079736D01*
X043473Y079743D01*
X043523Y079746D01*
X043574Y079745D01*
X043624Y079740D01*
X043674Y079731D01*
X043722Y079719D01*
X043770Y079702D01*
X043816Y079682D01*
X043861Y079659D01*
X043904Y079632D01*
X043944Y079602D01*
X043982Y079569D01*
X044017Y079533D01*
X044050Y079494D01*
X044079Y079453D01*
X044105Y079410D01*
X044128Y079365D01*
X044147Y079318D01*
X044162Y079270D01*
X044174Y079221D01*
X044182Y079171D01*
X044186Y079121D01*
X044186Y079071D01*
X044182Y079021D01*
X044174Y078971D01*
X044162Y078922D01*
X044147Y078874D01*
X044128Y078827D01*
X044105Y078782D01*
X044079Y078739D01*
X044050Y078698D01*
X044017Y078659D01*
X043982Y078623D01*
X043944Y078590D01*
X043904Y078560D01*
X043861Y078533D01*
X043816Y078510D01*
X043770Y078490D01*
X043722Y078473D01*
X043674Y078461D01*
X043624Y078452D01*
X043574Y078447D01*
X043523Y078446D01*
X043473Y078449D01*
X043423Y078456D01*
X043374Y078467D01*
X043326Y078481D01*
X043279Y078499D01*
X043233Y078521D01*
X043189Y078546D01*
X043148Y078575D01*
X043109Y078606D01*
X043072Y078641D01*
X043038Y078678D01*
X043007Y078718D01*
X042979Y078760D01*
X042955Y078804D01*
X042934Y078850D01*
X042917Y078898D01*
X042904Y078946D01*
X042894Y078996D01*
X042888Y079046D01*
X042886Y079096D01*
X026886Y063096D02*
X026888Y063146D01*
X026894Y063196D01*
X026904Y063246D01*
X026917Y063294D01*
X026934Y063342D01*
X026955Y063388D01*
X026979Y063432D01*
X027007Y063474D01*
X027038Y063514D01*
X027072Y063551D01*
X027109Y063586D01*
X027148Y063617D01*
X027189Y063646D01*
X027233Y063671D01*
X027279Y063693D01*
X027326Y063711D01*
X027374Y063725D01*
X027423Y063736D01*
X027473Y063743D01*
X027523Y063746D01*
X027574Y063745D01*
X027624Y063740D01*
X027674Y063731D01*
X027722Y063719D01*
X027770Y063702D01*
X027816Y063682D01*
X027861Y063659D01*
X027904Y063632D01*
X027944Y063602D01*
X027982Y063569D01*
X028017Y063533D01*
X028050Y063494D01*
X028079Y063453D01*
X028105Y063410D01*
X028128Y063365D01*
X028147Y063318D01*
X028162Y063270D01*
X028174Y063221D01*
X028182Y063171D01*
X028186Y063121D01*
X028186Y063071D01*
X028182Y063021D01*
X028174Y062971D01*
X028162Y062922D01*
X028147Y062874D01*
X028128Y062827D01*
X028105Y062782D01*
X028079Y062739D01*
X028050Y062698D01*
X028017Y062659D01*
X027982Y062623D01*
X027944Y062590D01*
X027904Y062560D01*
X027861Y062533D01*
X027816Y062510D01*
X027770Y062490D01*
X027722Y062473D01*
X027674Y062461D01*
X027624Y062452D01*
X027574Y062447D01*
X027523Y062446D01*
X027473Y062449D01*
X027423Y062456D01*
X027374Y062467D01*
X027326Y062481D01*
X027279Y062499D01*
X027233Y062521D01*
X027189Y062546D01*
X027148Y062575D01*
X027109Y062606D01*
X027072Y062641D01*
X027038Y062678D01*
X027007Y062718D01*
X026979Y062760D01*
X026955Y062804D01*
X026934Y062850D01*
X026917Y062898D01*
X026904Y062946D01*
X026894Y062996D01*
X026888Y063046D01*
X026886Y063096D01*
X024426Y070026D02*
X024428Y070076D01*
X024434Y070126D01*
X024444Y070175D01*
X024458Y070223D01*
X024475Y070270D01*
X024496Y070315D01*
X024521Y070359D01*
X024549Y070400D01*
X024581Y070439D01*
X024615Y070476D01*
X024652Y070510D01*
X024692Y070540D01*
X024734Y070567D01*
X024778Y070591D01*
X024824Y070612D01*
X024871Y070628D01*
X024919Y070641D01*
X024969Y070650D01*
X025018Y070655D01*
X025069Y070656D01*
X025119Y070653D01*
X025168Y070646D01*
X025217Y070635D01*
X025265Y070620D01*
X025311Y070602D01*
X025356Y070580D01*
X025399Y070554D01*
X025440Y070525D01*
X025479Y070493D01*
X025515Y070458D01*
X025547Y070420D01*
X025577Y070380D01*
X025604Y070337D01*
X025627Y070293D01*
X025646Y070247D01*
X025662Y070199D01*
X025674Y070150D01*
X025682Y070101D01*
X025686Y070051D01*
X025686Y070001D01*
X025682Y069951D01*
X025674Y069902D01*
X025662Y069853D01*
X025646Y069805D01*
X025627Y069759D01*
X025604Y069715D01*
X025577Y069672D01*
X025547Y069632D01*
X025515Y069594D01*
X025479Y069559D01*
X025440Y069527D01*
X025399Y069498D01*
X025356Y069472D01*
X025311Y069450D01*
X025265Y069432D01*
X025217Y069417D01*
X025168Y069406D01*
X025119Y069399D01*
X025069Y069396D01*
X025018Y069397D01*
X024969Y069402D01*
X024919Y069411D01*
X024871Y069424D01*
X024824Y069440D01*
X024778Y069461D01*
X024734Y069485D01*
X024692Y069512D01*
X024652Y069542D01*
X024615Y069576D01*
X024581Y069613D01*
X024549Y069652D01*
X024521Y069693D01*
X024496Y069737D01*
X024475Y069782D01*
X024458Y069829D01*
X024444Y069877D01*
X024434Y069926D01*
X024428Y069976D01*
X024426Y070026D01*
X024526Y072406D02*
X024528Y072456D01*
X024534Y072506D01*
X024544Y072555D01*
X024558Y072603D01*
X024575Y072650D01*
X024596Y072695D01*
X024621Y072739D01*
X024649Y072780D01*
X024681Y072819D01*
X024715Y072856D01*
X024752Y072890D01*
X024792Y072920D01*
X024834Y072947D01*
X024878Y072971D01*
X024924Y072992D01*
X024971Y073008D01*
X025019Y073021D01*
X025069Y073030D01*
X025118Y073035D01*
X025169Y073036D01*
X025219Y073033D01*
X025268Y073026D01*
X025317Y073015D01*
X025365Y073000D01*
X025411Y072982D01*
X025456Y072960D01*
X025499Y072934D01*
X025540Y072905D01*
X025579Y072873D01*
X025615Y072838D01*
X025647Y072800D01*
X025677Y072760D01*
X025704Y072717D01*
X025727Y072673D01*
X025746Y072627D01*
X025762Y072579D01*
X025774Y072530D01*
X025782Y072481D01*
X025786Y072431D01*
X025786Y072381D01*
X025782Y072331D01*
X025774Y072282D01*
X025762Y072233D01*
X025746Y072185D01*
X025727Y072139D01*
X025704Y072095D01*
X025677Y072052D01*
X025647Y072012D01*
X025615Y071974D01*
X025579Y071939D01*
X025540Y071907D01*
X025499Y071878D01*
X025456Y071852D01*
X025411Y071830D01*
X025365Y071812D01*
X025317Y071797D01*
X025268Y071786D01*
X025219Y071779D01*
X025169Y071776D01*
X025118Y071777D01*
X025069Y071782D01*
X025019Y071791D01*
X024971Y071804D01*
X024924Y071820D01*
X024878Y071841D01*
X024834Y071865D01*
X024792Y071892D01*
X024752Y071922D01*
X024715Y071956D01*
X024681Y071993D01*
X024649Y072032D01*
X024621Y072073D01*
X024596Y072117D01*
X024575Y072162D01*
X024558Y072209D01*
X024544Y072257D01*
X024534Y072306D01*
X024528Y072356D01*
X024526Y072406D01*
X010886Y079096D02*
X010888Y079146D01*
X010894Y079196D01*
X010904Y079246D01*
X010917Y079294D01*
X010934Y079342D01*
X010955Y079388D01*
X010979Y079432D01*
X011007Y079474D01*
X011038Y079514D01*
X011072Y079551D01*
X011109Y079586D01*
X011148Y079617D01*
X011189Y079646D01*
X011233Y079671D01*
X011279Y079693D01*
X011326Y079711D01*
X011374Y079725D01*
X011423Y079736D01*
X011473Y079743D01*
X011523Y079746D01*
X011574Y079745D01*
X011624Y079740D01*
X011674Y079731D01*
X011722Y079719D01*
X011770Y079702D01*
X011816Y079682D01*
X011861Y079659D01*
X011904Y079632D01*
X011944Y079602D01*
X011982Y079569D01*
X012017Y079533D01*
X012050Y079494D01*
X012079Y079453D01*
X012105Y079410D01*
X012128Y079365D01*
X012147Y079318D01*
X012162Y079270D01*
X012174Y079221D01*
X012182Y079171D01*
X012186Y079121D01*
X012186Y079071D01*
X012182Y079021D01*
X012174Y078971D01*
X012162Y078922D01*
X012147Y078874D01*
X012128Y078827D01*
X012105Y078782D01*
X012079Y078739D01*
X012050Y078698D01*
X012017Y078659D01*
X011982Y078623D01*
X011944Y078590D01*
X011904Y078560D01*
X011861Y078533D01*
X011816Y078510D01*
X011770Y078490D01*
X011722Y078473D01*
X011674Y078461D01*
X011624Y078452D01*
X011574Y078447D01*
X011523Y078446D01*
X011473Y078449D01*
X011423Y078456D01*
X011374Y078467D01*
X011326Y078481D01*
X011279Y078499D01*
X011233Y078521D01*
X011189Y078546D01*
X011148Y078575D01*
X011109Y078606D01*
X011072Y078641D01*
X011038Y078678D01*
X011007Y078718D01*
X010979Y078760D01*
X010955Y078804D01*
X010934Y078850D01*
X010917Y078898D01*
X010904Y078946D01*
X010894Y078996D01*
X010888Y079046D01*
X010886Y079096D01*
X006786Y077461D02*
X006788Y077515D01*
X006794Y077569D01*
X006804Y077622D01*
X006817Y077675D01*
X006834Y077726D01*
X006855Y077776D01*
X006880Y077824D01*
X006908Y077871D01*
X006939Y077915D01*
X006973Y077957D01*
X007010Y077996D01*
X007050Y078033D01*
X007093Y078066D01*
X007138Y078097D01*
X007185Y078124D01*
X007233Y078147D01*
X007284Y078167D01*
X007335Y078184D01*
X007388Y078196D01*
X007441Y078205D01*
X007495Y078210D01*
X007550Y078211D01*
X007604Y078208D01*
X007657Y078201D01*
X007710Y078190D01*
X007763Y078176D01*
X007814Y078158D01*
X007863Y078136D01*
X007911Y078111D01*
X007957Y078082D01*
X008001Y078050D01*
X008042Y078015D01*
X008080Y077977D01*
X008116Y077936D01*
X008149Y077893D01*
X008179Y077848D01*
X008205Y077800D01*
X008228Y077751D01*
X008247Y077700D01*
X008262Y077649D01*
X008274Y077596D01*
X008282Y077542D01*
X008286Y077488D01*
X008286Y077434D01*
X008282Y077380D01*
X008274Y077326D01*
X008262Y077273D01*
X008247Y077222D01*
X008228Y077171D01*
X008205Y077122D01*
X008179Y077074D01*
X008149Y077029D01*
X008116Y076986D01*
X008080Y076945D01*
X008042Y076907D01*
X008001Y076872D01*
X007957Y076840D01*
X007911Y076811D01*
X007863Y076786D01*
X007814Y076764D01*
X007763Y076746D01*
X007710Y076732D01*
X007657Y076721D01*
X007604Y076714D01*
X007550Y076711D01*
X007495Y076712D01*
X007441Y076717D01*
X007388Y076726D01*
X007335Y076738D01*
X007284Y076755D01*
X007233Y076775D01*
X007185Y076798D01*
X007138Y076825D01*
X007093Y076856D01*
X007050Y076889D01*
X007010Y076926D01*
X006973Y076965D01*
X006939Y077007D01*
X006908Y077051D01*
X006880Y077098D01*
X006855Y077146D01*
X006834Y077196D01*
X006817Y077247D01*
X006804Y077300D01*
X006794Y077353D01*
X006788Y077407D01*
X006786Y077461D01*
X006786Y072731D02*
X006788Y072785D01*
X006794Y072839D01*
X006804Y072892D01*
X006817Y072945D01*
X006834Y072996D01*
X006855Y073046D01*
X006880Y073094D01*
X006908Y073141D01*
X006939Y073185D01*
X006973Y073227D01*
X007010Y073266D01*
X007050Y073303D01*
X007093Y073336D01*
X007138Y073367D01*
X007185Y073394D01*
X007233Y073417D01*
X007284Y073437D01*
X007335Y073454D01*
X007388Y073466D01*
X007441Y073475D01*
X007495Y073480D01*
X007550Y073481D01*
X007604Y073478D01*
X007657Y073471D01*
X007710Y073460D01*
X007763Y073446D01*
X007814Y073428D01*
X007863Y073406D01*
X007911Y073381D01*
X007957Y073352D01*
X008001Y073320D01*
X008042Y073285D01*
X008080Y073247D01*
X008116Y073206D01*
X008149Y073163D01*
X008179Y073118D01*
X008205Y073070D01*
X008228Y073021D01*
X008247Y072970D01*
X008262Y072919D01*
X008274Y072866D01*
X008282Y072812D01*
X008286Y072758D01*
X008286Y072704D01*
X008282Y072650D01*
X008274Y072596D01*
X008262Y072543D01*
X008247Y072492D01*
X008228Y072441D01*
X008205Y072392D01*
X008179Y072344D01*
X008149Y072299D01*
X008116Y072256D01*
X008080Y072215D01*
X008042Y072177D01*
X008001Y072142D01*
X007957Y072110D01*
X007911Y072081D01*
X007863Y072056D01*
X007814Y072034D01*
X007763Y072016D01*
X007710Y072002D01*
X007657Y071991D01*
X007604Y071984D01*
X007550Y071981D01*
X007495Y071982D01*
X007441Y071987D01*
X007388Y071996D01*
X007335Y072008D01*
X007284Y072025D01*
X007233Y072045D01*
X007185Y072068D01*
X007138Y072095D01*
X007093Y072126D01*
X007050Y072159D01*
X007010Y072196D01*
X006973Y072235D01*
X006939Y072277D01*
X006908Y072321D01*
X006880Y072368D01*
X006855Y072416D01*
X006834Y072466D01*
X006817Y072517D01*
X006804Y072570D01*
X006794Y072623D01*
X006788Y072677D01*
X006786Y072731D01*
X006786Y069461D02*
X006788Y069515D01*
X006794Y069569D01*
X006804Y069622D01*
X006817Y069675D01*
X006834Y069726D01*
X006855Y069776D01*
X006880Y069824D01*
X006908Y069871D01*
X006939Y069915D01*
X006973Y069957D01*
X007010Y069996D01*
X007050Y070033D01*
X007093Y070066D01*
X007138Y070097D01*
X007185Y070124D01*
X007233Y070147D01*
X007284Y070167D01*
X007335Y070184D01*
X007388Y070196D01*
X007441Y070205D01*
X007495Y070210D01*
X007550Y070211D01*
X007604Y070208D01*
X007657Y070201D01*
X007710Y070190D01*
X007763Y070176D01*
X007814Y070158D01*
X007863Y070136D01*
X007911Y070111D01*
X007957Y070082D01*
X008001Y070050D01*
X008042Y070015D01*
X008080Y069977D01*
X008116Y069936D01*
X008149Y069893D01*
X008179Y069848D01*
X008205Y069800D01*
X008228Y069751D01*
X008247Y069700D01*
X008262Y069649D01*
X008274Y069596D01*
X008282Y069542D01*
X008286Y069488D01*
X008286Y069434D01*
X008282Y069380D01*
X008274Y069326D01*
X008262Y069273D01*
X008247Y069222D01*
X008228Y069171D01*
X008205Y069122D01*
X008179Y069074D01*
X008149Y069029D01*
X008116Y068986D01*
X008080Y068945D01*
X008042Y068907D01*
X008001Y068872D01*
X007957Y068840D01*
X007911Y068811D01*
X007863Y068786D01*
X007814Y068764D01*
X007763Y068746D01*
X007710Y068732D01*
X007657Y068721D01*
X007604Y068714D01*
X007550Y068711D01*
X007495Y068712D01*
X007441Y068717D01*
X007388Y068726D01*
X007335Y068738D01*
X007284Y068755D01*
X007233Y068775D01*
X007185Y068798D01*
X007138Y068825D01*
X007093Y068856D01*
X007050Y068889D01*
X007010Y068926D01*
X006973Y068965D01*
X006939Y069007D01*
X006908Y069051D01*
X006880Y069098D01*
X006855Y069146D01*
X006834Y069196D01*
X006817Y069247D01*
X006804Y069300D01*
X006794Y069353D01*
X006788Y069407D01*
X006786Y069461D01*
X006786Y064731D02*
X006788Y064785D01*
X006794Y064839D01*
X006804Y064892D01*
X006817Y064945D01*
X006834Y064996D01*
X006855Y065046D01*
X006880Y065094D01*
X006908Y065141D01*
X006939Y065185D01*
X006973Y065227D01*
X007010Y065266D01*
X007050Y065303D01*
X007093Y065336D01*
X007138Y065367D01*
X007185Y065394D01*
X007233Y065417D01*
X007284Y065437D01*
X007335Y065454D01*
X007388Y065466D01*
X007441Y065475D01*
X007495Y065480D01*
X007550Y065481D01*
X007604Y065478D01*
X007657Y065471D01*
X007710Y065460D01*
X007763Y065446D01*
X007814Y065428D01*
X007863Y065406D01*
X007911Y065381D01*
X007957Y065352D01*
X008001Y065320D01*
X008042Y065285D01*
X008080Y065247D01*
X008116Y065206D01*
X008149Y065163D01*
X008179Y065118D01*
X008205Y065070D01*
X008228Y065021D01*
X008247Y064970D01*
X008262Y064919D01*
X008274Y064866D01*
X008282Y064812D01*
X008286Y064758D01*
X008286Y064704D01*
X008282Y064650D01*
X008274Y064596D01*
X008262Y064543D01*
X008247Y064492D01*
X008228Y064441D01*
X008205Y064392D01*
X008179Y064344D01*
X008149Y064299D01*
X008116Y064256D01*
X008080Y064215D01*
X008042Y064177D01*
X008001Y064142D01*
X007957Y064110D01*
X007911Y064081D01*
X007863Y064056D01*
X007814Y064034D01*
X007763Y064016D01*
X007710Y064002D01*
X007657Y063991D01*
X007604Y063984D01*
X007550Y063981D01*
X007495Y063982D01*
X007441Y063987D01*
X007388Y063996D01*
X007335Y064008D01*
X007284Y064025D01*
X007233Y064045D01*
X007185Y064068D01*
X007138Y064095D01*
X007093Y064126D01*
X007050Y064159D01*
X007010Y064196D01*
X006973Y064235D01*
X006939Y064277D01*
X006908Y064321D01*
X006880Y064368D01*
X006855Y064416D01*
X006834Y064466D01*
X006817Y064517D01*
X006804Y064570D01*
X006794Y064623D01*
X006788Y064677D01*
X006786Y064731D01*
X006786Y061461D02*
X006788Y061515D01*
X006794Y061569D01*
X006804Y061622D01*
X006817Y061675D01*
X006834Y061726D01*
X006855Y061776D01*
X006880Y061824D01*
X006908Y061871D01*
X006939Y061915D01*
X006973Y061957D01*
X007010Y061996D01*
X007050Y062033D01*
X007093Y062066D01*
X007138Y062097D01*
X007185Y062124D01*
X007233Y062147D01*
X007284Y062167D01*
X007335Y062184D01*
X007388Y062196D01*
X007441Y062205D01*
X007495Y062210D01*
X007550Y062211D01*
X007604Y062208D01*
X007657Y062201D01*
X007710Y062190D01*
X007763Y062176D01*
X007814Y062158D01*
X007863Y062136D01*
X007911Y062111D01*
X007957Y062082D01*
X008001Y062050D01*
X008042Y062015D01*
X008080Y061977D01*
X008116Y061936D01*
X008149Y061893D01*
X008179Y061848D01*
X008205Y061800D01*
X008228Y061751D01*
X008247Y061700D01*
X008262Y061649D01*
X008274Y061596D01*
X008282Y061542D01*
X008286Y061488D01*
X008286Y061434D01*
X008282Y061380D01*
X008274Y061326D01*
X008262Y061273D01*
X008247Y061222D01*
X008228Y061171D01*
X008205Y061122D01*
X008179Y061074D01*
X008149Y061029D01*
X008116Y060986D01*
X008080Y060945D01*
X008042Y060907D01*
X008001Y060872D01*
X007957Y060840D01*
X007911Y060811D01*
X007863Y060786D01*
X007814Y060764D01*
X007763Y060746D01*
X007710Y060732D01*
X007657Y060721D01*
X007604Y060714D01*
X007550Y060711D01*
X007495Y060712D01*
X007441Y060717D01*
X007388Y060726D01*
X007335Y060738D01*
X007284Y060755D01*
X007233Y060775D01*
X007185Y060798D01*
X007138Y060825D01*
X007093Y060856D01*
X007050Y060889D01*
X007010Y060926D01*
X006973Y060965D01*
X006939Y061007D01*
X006908Y061051D01*
X006880Y061098D01*
X006855Y061146D01*
X006834Y061196D01*
X006817Y061247D01*
X006804Y061300D01*
X006794Y061353D01*
X006788Y061407D01*
X006786Y061461D01*
X006786Y056731D02*
X006788Y056785D01*
X006794Y056839D01*
X006804Y056892D01*
X006817Y056945D01*
X006834Y056996D01*
X006855Y057046D01*
X006880Y057094D01*
X006908Y057141D01*
X006939Y057185D01*
X006973Y057227D01*
X007010Y057266D01*
X007050Y057303D01*
X007093Y057336D01*
X007138Y057367D01*
X007185Y057394D01*
X007233Y057417D01*
X007284Y057437D01*
X007335Y057454D01*
X007388Y057466D01*
X007441Y057475D01*
X007495Y057480D01*
X007550Y057481D01*
X007604Y057478D01*
X007657Y057471D01*
X007710Y057460D01*
X007763Y057446D01*
X007814Y057428D01*
X007863Y057406D01*
X007911Y057381D01*
X007957Y057352D01*
X008001Y057320D01*
X008042Y057285D01*
X008080Y057247D01*
X008116Y057206D01*
X008149Y057163D01*
X008179Y057118D01*
X008205Y057070D01*
X008228Y057021D01*
X008247Y056970D01*
X008262Y056919D01*
X008274Y056866D01*
X008282Y056812D01*
X008286Y056758D01*
X008286Y056704D01*
X008282Y056650D01*
X008274Y056596D01*
X008262Y056543D01*
X008247Y056492D01*
X008228Y056441D01*
X008205Y056392D01*
X008179Y056344D01*
X008149Y056299D01*
X008116Y056256D01*
X008080Y056215D01*
X008042Y056177D01*
X008001Y056142D01*
X007957Y056110D01*
X007911Y056081D01*
X007863Y056056D01*
X007814Y056034D01*
X007763Y056016D01*
X007710Y056002D01*
X007657Y055991D01*
X007604Y055984D01*
X007550Y055981D01*
X007495Y055982D01*
X007441Y055987D01*
X007388Y055996D01*
X007335Y056008D01*
X007284Y056025D01*
X007233Y056045D01*
X007185Y056068D01*
X007138Y056095D01*
X007093Y056126D01*
X007050Y056159D01*
X007010Y056196D01*
X006973Y056235D01*
X006939Y056277D01*
X006908Y056321D01*
X006880Y056368D01*
X006855Y056416D01*
X006834Y056466D01*
X006817Y056517D01*
X006804Y056570D01*
X006794Y056623D01*
X006788Y056677D01*
X006786Y056731D01*
X006786Y053461D02*
X006788Y053515D01*
X006794Y053569D01*
X006804Y053622D01*
X006817Y053675D01*
X006834Y053726D01*
X006855Y053776D01*
X006880Y053824D01*
X006908Y053871D01*
X006939Y053915D01*
X006973Y053957D01*
X007010Y053996D01*
X007050Y054033D01*
X007093Y054066D01*
X007138Y054097D01*
X007185Y054124D01*
X007233Y054147D01*
X007284Y054167D01*
X007335Y054184D01*
X007388Y054196D01*
X007441Y054205D01*
X007495Y054210D01*
X007550Y054211D01*
X007604Y054208D01*
X007657Y054201D01*
X007710Y054190D01*
X007763Y054176D01*
X007814Y054158D01*
X007863Y054136D01*
X007911Y054111D01*
X007957Y054082D01*
X008001Y054050D01*
X008042Y054015D01*
X008080Y053977D01*
X008116Y053936D01*
X008149Y053893D01*
X008179Y053848D01*
X008205Y053800D01*
X008228Y053751D01*
X008247Y053700D01*
X008262Y053649D01*
X008274Y053596D01*
X008282Y053542D01*
X008286Y053488D01*
X008286Y053434D01*
X008282Y053380D01*
X008274Y053326D01*
X008262Y053273D01*
X008247Y053222D01*
X008228Y053171D01*
X008205Y053122D01*
X008179Y053074D01*
X008149Y053029D01*
X008116Y052986D01*
X008080Y052945D01*
X008042Y052907D01*
X008001Y052872D01*
X007957Y052840D01*
X007911Y052811D01*
X007863Y052786D01*
X007814Y052764D01*
X007763Y052746D01*
X007710Y052732D01*
X007657Y052721D01*
X007604Y052714D01*
X007550Y052711D01*
X007495Y052712D01*
X007441Y052717D01*
X007388Y052726D01*
X007335Y052738D01*
X007284Y052755D01*
X007233Y052775D01*
X007185Y052798D01*
X007138Y052825D01*
X007093Y052856D01*
X007050Y052889D01*
X007010Y052926D01*
X006973Y052965D01*
X006939Y053007D01*
X006908Y053051D01*
X006880Y053098D01*
X006855Y053146D01*
X006834Y053196D01*
X006817Y053247D01*
X006804Y053300D01*
X006794Y053353D01*
X006788Y053407D01*
X006786Y053461D01*
X006786Y048731D02*
X006788Y048785D01*
X006794Y048839D01*
X006804Y048892D01*
X006817Y048945D01*
X006834Y048996D01*
X006855Y049046D01*
X006880Y049094D01*
X006908Y049141D01*
X006939Y049185D01*
X006973Y049227D01*
X007010Y049266D01*
X007050Y049303D01*
X007093Y049336D01*
X007138Y049367D01*
X007185Y049394D01*
X007233Y049417D01*
X007284Y049437D01*
X007335Y049454D01*
X007388Y049466D01*
X007441Y049475D01*
X007495Y049480D01*
X007550Y049481D01*
X007604Y049478D01*
X007657Y049471D01*
X007710Y049460D01*
X007763Y049446D01*
X007814Y049428D01*
X007863Y049406D01*
X007911Y049381D01*
X007957Y049352D01*
X008001Y049320D01*
X008042Y049285D01*
X008080Y049247D01*
X008116Y049206D01*
X008149Y049163D01*
X008179Y049118D01*
X008205Y049070D01*
X008228Y049021D01*
X008247Y048970D01*
X008262Y048919D01*
X008274Y048866D01*
X008282Y048812D01*
X008286Y048758D01*
X008286Y048704D01*
X008282Y048650D01*
X008274Y048596D01*
X008262Y048543D01*
X008247Y048492D01*
X008228Y048441D01*
X008205Y048392D01*
X008179Y048344D01*
X008149Y048299D01*
X008116Y048256D01*
X008080Y048215D01*
X008042Y048177D01*
X008001Y048142D01*
X007957Y048110D01*
X007911Y048081D01*
X007863Y048056D01*
X007814Y048034D01*
X007763Y048016D01*
X007710Y048002D01*
X007657Y047991D01*
X007604Y047984D01*
X007550Y047981D01*
X007495Y047982D01*
X007441Y047987D01*
X007388Y047996D01*
X007335Y048008D01*
X007284Y048025D01*
X007233Y048045D01*
X007185Y048068D01*
X007138Y048095D01*
X007093Y048126D01*
X007050Y048159D01*
X007010Y048196D01*
X006973Y048235D01*
X006939Y048277D01*
X006908Y048321D01*
X006880Y048368D01*
X006855Y048416D01*
X006834Y048466D01*
X006817Y048517D01*
X006804Y048570D01*
X006794Y048623D01*
X006788Y048677D01*
X006786Y048731D01*
D11*
X010626Y053966D02*
X010759Y053966D01*
X010826Y054032D01*
X010692Y054166D02*
X010626Y054166D01*
X010559Y054099D01*
X010559Y054032D01*
X010626Y053966D01*
X010626Y054166D02*
X010559Y054233D01*
X010559Y054299D01*
X010626Y054366D01*
X010759Y054366D01*
X010826Y054299D01*
X011019Y054366D02*
X011286Y054366D01*
X011286Y053966D01*
X011286Y054166D02*
X011153Y054166D01*
X016661Y041043D02*
X016661Y040776D01*
X016928Y041043D01*
X016995Y041043D01*
X017062Y040976D01*
X017062Y040843D01*
X016995Y040776D01*
X016995Y040583D02*
X016861Y040583D01*
X016795Y040516D01*
X016795Y040316D01*
X016795Y040449D02*
X016661Y040583D01*
X016661Y040316D02*
X017062Y040316D01*
X017062Y040516D01*
X016995Y040583D01*
X016270Y038337D02*
X016203Y038337D01*
X015936Y038070D01*
X015936Y038337D01*
X016270Y038337D02*
X016337Y038270D01*
X016337Y038137D01*
X016270Y038070D01*
X016337Y037743D02*
X015936Y037743D01*
X015936Y037610D02*
X015936Y037877D01*
X016203Y037610D02*
X016337Y037743D01*
X016270Y037416D02*
X016003Y037416D01*
X015936Y037350D01*
X015936Y037216D01*
X016003Y037149D01*
X016270Y037149D01*
X016337Y037216D01*
X016337Y037350D01*
X016270Y037416D01*
X016070Y037283D02*
X015936Y037416D01*
X016839Y037329D02*
X016906Y037396D01*
X017106Y037396D01*
X017106Y037262D01*
X017039Y037196D01*
X016906Y037196D01*
X016839Y037262D01*
X016839Y037329D01*
X016972Y037529D02*
X017106Y037396D01*
X016972Y037529D02*
X016839Y037596D01*
X017299Y037529D02*
X017366Y037596D01*
X017566Y037596D01*
X017566Y037196D01*
X017366Y037196D01*
X017299Y037262D01*
X017299Y037529D01*
X015417Y038241D02*
X015417Y038641D01*
X015217Y038641D01*
X015150Y038574D01*
X015150Y038441D01*
X015217Y038374D01*
X015417Y038374D01*
X015284Y038374D02*
X015150Y038241D01*
X014957Y038241D02*
X014690Y038508D01*
X014690Y038574D01*
X014757Y038641D01*
X014890Y038641D01*
X014957Y038574D01*
X014957Y038241D02*
X014690Y038241D01*
X014497Y038307D02*
X014430Y038241D01*
X014296Y038241D01*
X014230Y038307D01*
X014230Y038574D01*
X014296Y038641D01*
X014430Y038641D01*
X014497Y038574D01*
X014497Y038508D01*
X014430Y038441D01*
X014230Y038441D01*
X014216Y036811D02*
X014149Y036744D01*
X014149Y036611D01*
X014216Y036544D01*
X014416Y036544D01*
X014283Y036544D02*
X014149Y036411D01*
X013956Y036477D02*
X013889Y036411D01*
X013756Y036411D01*
X013689Y036477D01*
X013689Y036544D01*
X013756Y036611D01*
X013822Y036611D01*
X013756Y036611D02*
X013689Y036678D01*
X013689Y036744D01*
X013756Y036811D01*
X013889Y036811D01*
X013956Y036744D01*
X014216Y036811D02*
X014416Y036811D01*
X014416Y036411D01*
X014581Y036106D02*
X014648Y036106D01*
X014915Y036373D01*
X014982Y036373D01*
X014982Y036106D01*
X014915Y035913D02*
X014848Y035913D01*
X014781Y035846D01*
X014715Y035913D01*
X014648Y035913D01*
X014581Y035846D01*
X014581Y035713D01*
X014648Y035646D01*
X014781Y035779D02*
X014781Y035846D01*
X014915Y035913D02*
X014982Y035846D01*
X014982Y035713D01*
X014915Y035646D01*
X014915Y035453D02*
X014781Y035453D01*
X014715Y035386D01*
X014715Y035186D01*
X014715Y035319D02*
X014581Y035453D01*
X014581Y035186D02*
X014982Y035186D01*
X014982Y035386D01*
X014915Y035453D01*
X013702Y034533D02*
X013635Y034400D01*
X013501Y034266D01*
X013501Y034467D01*
X013435Y034533D01*
X013368Y034533D01*
X013301Y034467D01*
X013301Y034333D01*
X013368Y034266D01*
X013501Y034266D01*
X013435Y034073D02*
X013368Y034073D01*
X013301Y034006D01*
X013301Y033873D01*
X013368Y033806D01*
X013501Y033939D02*
X013501Y034006D01*
X013435Y034073D01*
X013501Y034006D02*
X013568Y034073D01*
X013635Y034073D01*
X013702Y034006D01*
X013702Y033873D01*
X013635Y033806D01*
X013635Y033613D02*
X013501Y033613D01*
X013435Y033546D01*
X013435Y033346D01*
X013435Y033479D02*
X013301Y033613D01*
X013301Y033346D02*
X013702Y033346D01*
X013702Y033546D01*
X013635Y033613D01*
X014062Y031586D02*
X014062Y031186D01*
X014195Y031186D02*
X013929Y031186D01*
X014195Y031453D02*
X014062Y031586D01*
X014389Y031519D02*
X014389Y031453D01*
X014456Y031386D01*
X014389Y031319D01*
X014389Y031252D01*
X014456Y031186D01*
X014589Y031186D01*
X014656Y031252D01*
X014522Y031386D02*
X014456Y031386D01*
X014389Y031519D02*
X014456Y031586D01*
X014589Y031586D01*
X014656Y031519D01*
X014849Y031519D02*
X014849Y031386D01*
X014916Y031319D01*
X015116Y031319D01*
X014983Y031319D02*
X014849Y031186D01*
X015116Y031186D02*
X015116Y031586D01*
X014916Y031586D01*
X014849Y031519D01*
X015961Y032006D02*
X015961Y032406D01*
X016161Y032206D01*
X015894Y032206D01*
X016354Y032339D02*
X016354Y032072D01*
X016421Y032006D01*
X016554Y032006D01*
X016621Y032072D01*
X016621Y032339D01*
X016554Y032406D01*
X016421Y032406D01*
X016354Y032339D01*
X016488Y032139D02*
X016354Y032006D01*
X017039Y032052D02*
X017106Y031986D01*
X017239Y031986D01*
X017306Y032052D01*
X017306Y032186D02*
X017172Y032253D01*
X017106Y032253D01*
X017039Y032186D01*
X017039Y032052D01*
X017306Y032186D02*
X017306Y032386D01*
X017039Y032386D01*
X017499Y032319D02*
X017566Y032386D01*
X017766Y032386D01*
X017766Y031986D01*
X017566Y031986D01*
X017499Y032052D01*
X017499Y032319D01*
X016407Y032946D02*
X016407Y033080D01*
X016340Y033146D01*
X016073Y033146D01*
X016006Y033080D01*
X016006Y032946D01*
X016073Y032879D01*
X016340Y032879D01*
X016407Y032946D01*
X016140Y033013D02*
X016006Y033146D01*
X016006Y033340D02*
X016006Y033607D01*
X016006Y033473D02*
X016407Y033473D01*
X016273Y033340D01*
X016340Y033800D02*
X016407Y033867D01*
X016407Y034000D01*
X016340Y034067D01*
X016273Y034067D01*
X016206Y034000D01*
X016140Y034067D01*
X016073Y034067D01*
X016006Y034000D01*
X016006Y033867D01*
X016073Y033800D01*
X016206Y033934D02*
X016206Y034000D01*
X016909Y033919D02*
X016909Y033853D01*
X016976Y033786D01*
X017109Y033786D01*
X017176Y033853D01*
X017176Y033919D01*
X017109Y033986D01*
X016976Y033986D01*
X016909Y033919D01*
X016976Y033786D02*
X016909Y033719D01*
X016909Y033652D01*
X016976Y033586D01*
X017109Y033586D01*
X017176Y033652D01*
X017176Y033719D01*
X017109Y033786D01*
X017369Y033919D02*
X017436Y033986D01*
X017636Y033986D01*
X017636Y033586D01*
X017436Y033586D01*
X017369Y033652D01*
X017369Y033919D01*
X013495Y036611D02*
X013229Y036611D01*
X013295Y036811D02*
X013495Y036611D01*
X013295Y036411D02*
X013295Y036811D01*
X013076Y031311D02*
X012876Y031311D01*
X012809Y031244D01*
X012809Y031111D01*
X012876Y031044D01*
X013076Y031044D01*
X012943Y031044D02*
X012809Y030911D01*
X012616Y030977D02*
X012549Y030911D01*
X012416Y030911D01*
X012349Y030977D01*
X012349Y031044D01*
X012416Y031111D01*
X012482Y031111D01*
X012416Y031111D02*
X012349Y031178D01*
X012349Y031244D01*
X012416Y031311D01*
X012549Y031311D01*
X012616Y031244D01*
X012155Y031244D02*
X012089Y031311D01*
X011955Y031311D01*
X011889Y031244D01*
X011889Y031178D01*
X012155Y030911D01*
X011889Y030911D01*
X013076Y030911D02*
X013076Y031311D01*
X013263Y028993D02*
X013196Y028927D01*
X013196Y028793D01*
X013263Y028726D01*
X013330Y028726D01*
X013396Y028793D01*
X013396Y028927D01*
X013330Y028993D01*
X013263Y028993D01*
X013396Y028927D02*
X013463Y028993D01*
X013530Y028993D01*
X013597Y028927D01*
X013597Y028793D01*
X013530Y028726D01*
X013463Y028726D01*
X013396Y028793D01*
X013330Y028533D02*
X013263Y028533D01*
X013196Y028466D01*
X013196Y028333D01*
X013263Y028266D01*
X013396Y028399D02*
X013396Y028466D01*
X013330Y028533D01*
X013396Y028466D02*
X013463Y028533D01*
X013530Y028533D01*
X013597Y028466D01*
X013597Y028333D01*
X013530Y028266D01*
X013530Y028073D02*
X013396Y028073D01*
X013330Y028006D01*
X013330Y027806D01*
X013330Y027939D02*
X013196Y028073D01*
X013196Y027806D02*
X013597Y027806D01*
X013597Y028006D01*
X013530Y028073D01*
X014010Y027566D02*
X014277Y027566D01*
X014277Y027366D01*
X014143Y027433D01*
X014076Y027433D01*
X014010Y027366D01*
X014010Y027232D01*
X014076Y027166D01*
X014210Y027166D01*
X014277Y027232D01*
X014470Y027232D02*
X014537Y027166D01*
X014670Y027166D01*
X014737Y027232D01*
X014604Y027366D02*
X014537Y027366D01*
X014470Y027299D01*
X014470Y027232D01*
X014537Y027366D02*
X014470Y027433D01*
X014470Y027499D01*
X014537Y027566D01*
X014670Y027566D01*
X014737Y027499D01*
X014930Y027499D02*
X014930Y027366D01*
X014997Y027299D01*
X015197Y027299D01*
X015064Y027299D02*
X014930Y027166D01*
X015197Y027166D02*
X015197Y027566D01*
X014997Y027566D01*
X014930Y027499D01*
X014976Y026791D02*
X014909Y026724D01*
X014909Y026591D01*
X014976Y026524D01*
X015176Y026524D01*
X015043Y026524D02*
X014909Y026391D01*
X014716Y026457D02*
X014649Y026391D01*
X014516Y026391D01*
X014449Y026457D01*
X014449Y026524D01*
X014516Y026591D01*
X014582Y026591D01*
X014516Y026591D02*
X014449Y026658D01*
X014449Y026724D01*
X014516Y026791D01*
X014649Y026791D01*
X014716Y026724D01*
X014976Y026791D02*
X015176Y026791D01*
X015176Y026391D01*
X015196Y025951D02*
X014996Y025951D01*
X014929Y025884D01*
X014929Y025751D01*
X014996Y025684D01*
X015196Y025684D01*
X015063Y025684D02*
X014929Y025551D01*
X014736Y025617D02*
X014669Y025551D01*
X014536Y025551D01*
X014469Y025617D01*
X014469Y025684D01*
X014536Y025751D01*
X014602Y025751D01*
X014536Y025751D02*
X014469Y025818D01*
X014469Y025884D01*
X014536Y025951D01*
X014669Y025951D01*
X014736Y025884D01*
X014275Y025884D02*
X014209Y025951D01*
X014075Y025951D01*
X014009Y025884D01*
X014275Y025617D01*
X014209Y025551D01*
X014075Y025551D01*
X014009Y025617D01*
X014009Y025884D01*
X014275Y025884D02*
X014275Y025617D01*
X014189Y026391D02*
X014255Y026457D01*
X014189Y026391D02*
X014055Y026391D01*
X013989Y026457D01*
X013989Y026524D01*
X014055Y026591D01*
X014122Y026591D01*
X014055Y026591D02*
X013989Y026658D01*
X013989Y026724D01*
X014055Y026791D01*
X014189Y026791D01*
X014255Y026724D01*
X015196Y025951D02*
X015196Y025551D01*
X015871Y023906D02*
X015805Y023839D01*
X016072Y023572D01*
X016005Y023506D01*
X015871Y023506D01*
X015805Y023572D01*
X015805Y023839D01*
X015871Y023906D02*
X016005Y023906D01*
X016072Y023839D01*
X016072Y023572D01*
X016265Y023506D02*
X016532Y023506D01*
X016399Y023506D02*
X016399Y023906D01*
X016532Y023773D01*
X016725Y023839D02*
X016725Y023572D01*
X016792Y023506D01*
X016926Y023506D01*
X016992Y023572D01*
X016992Y023839D01*
X016926Y023906D01*
X016792Y023906D01*
X016725Y023839D01*
X016859Y023639D02*
X016725Y023506D01*
X018146Y024466D02*
X018146Y024666D01*
X018213Y024733D01*
X018480Y024733D01*
X018547Y024666D01*
X018547Y024466D01*
X018146Y024466D01*
X018146Y024926D02*
X018146Y025193D01*
X018146Y025059D02*
X018547Y025059D01*
X018413Y024926D01*
X017657Y028446D02*
X017457Y028446D01*
X017390Y028512D01*
X017390Y028779D01*
X017457Y028846D01*
X017657Y028846D01*
X017657Y028446D01*
X017197Y028446D02*
X017197Y028512D01*
X016930Y028779D01*
X016930Y028846D01*
X017197Y028846D01*
X016337Y028728D02*
X016270Y028594D01*
X016136Y028461D01*
X016136Y028661D01*
X016070Y028728D01*
X016003Y028728D01*
X015936Y028661D01*
X015936Y028528D01*
X016003Y028461D01*
X016136Y028461D01*
X016003Y028268D02*
X015936Y028201D01*
X015936Y028067D01*
X016003Y028001D01*
X016270Y028001D01*
X016337Y028067D01*
X016337Y028201D01*
X016270Y028268D01*
X016003Y028268D01*
X015936Y028268D02*
X016070Y028134D01*
X012877Y024909D02*
X012877Y024843D01*
X012811Y024776D01*
X012677Y024776D01*
X012610Y024709D01*
X012610Y024642D01*
X012677Y024576D01*
X012811Y024576D01*
X012877Y024642D01*
X012877Y024909D02*
X012811Y024976D01*
X012677Y024976D01*
X012610Y024909D01*
X012417Y024642D02*
X012350Y024576D01*
X012284Y024576D01*
X012217Y024642D01*
X012217Y024976D01*
X012284Y024976D02*
X012150Y024976D01*
X011957Y024843D02*
X011823Y024976D01*
X011823Y024576D01*
X011690Y024576D02*
X011957Y024576D01*
X023093Y040674D02*
X023026Y040741D01*
X023026Y040875D01*
X023093Y040941D01*
X023026Y041135D02*
X023026Y041402D01*
X023026Y041268D02*
X023427Y041268D01*
X023293Y041135D01*
X023360Y040941D02*
X023427Y040875D01*
X023427Y040741D01*
X023360Y040674D01*
X023093Y040674D01*
X023093Y041595D02*
X023360Y041862D01*
X023093Y041862D01*
X023026Y041795D01*
X023026Y041662D01*
X023093Y041595D01*
X023360Y041595D01*
X023427Y041662D01*
X023427Y041795D01*
X023360Y041862D01*
X024166Y041869D02*
X024567Y041869D01*
X024433Y041735D01*
X024166Y041735D02*
X024166Y042002D01*
X024166Y041542D02*
X024166Y041275D01*
X024166Y041408D02*
X024567Y041408D01*
X024433Y041275D01*
X024500Y041081D02*
X024567Y041015D01*
X024567Y040881D01*
X024500Y040814D01*
X024233Y040814D01*
X024166Y040881D01*
X024166Y041015D01*
X024233Y041081D01*
X036593Y028612D02*
X036660Y028612D01*
X036726Y028545D01*
X036726Y028345D01*
X036593Y028345D01*
X036526Y028412D01*
X036526Y028545D01*
X036593Y028612D01*
X036860Y028479D02*
X036726Y028345D01*
X036860Y028479D02*
X036927Y028612D01*
X036927Y028018D02*
X036526Y028018D01*
X036526Y027885D02*
X036526Y028152D01*
X036793Y027885D02*
X036927Y028018D01*
X036860Y027691D02*
X036927Y027625D01*
X036927Y027491D01*
X036860Y027424D01*
X036593Y027424D01*
X036526Y027491D01*
X036526Y027625D01*
X036593Y027691D01*
X036586Y022732D02*
X036586Y022465D01*
X036586Y022599D02*
X036987Y022599D01*
X036853Y022465D01*
X036853Y022272D02*
X036920Y022272D01*
X036987Y022205D01*
X036987Y022072D01*
X036920Y022005D01*
X036920Y021811D02*
X036987Y021745D01*
X036987Y021611D01*
X036920Y021544D01*
X036653Y021544D01*
X036586Y021611D01*
X036586Y021745D01*
X036653Y021811D01*
X036586Y022005D02*
X036853Y022272D01*
X036586Y022272D02*
X036586Y022005D01*
X041526Y018657D02*
X041526Y018523D01*
X041593Y018456D01*
X041726Y018590D02*
X041726Y018657D01*
X041660Y018723D01*
X041593Y018723D01*
X041526Y018657D01*
X041726Y018657D02*
X041793Y018723D01*
X041860Y018723D01*
X041927Y018657D01*
X041927Y018523D01*
X041860Y018456D01*
X041860Y018263D02*
X041927Y018196D01*
X041927Y018063D01*
X041860Y017996D01*
X041860Y017803D02*
X041927Y017736D01*
X041927Y017602D01*
X041860Y017536D01*
X041593Y017536D01*
X041526Y017602D01*
X041526Y017736D01*
X041593Y017803D01*
X041526Y017996D02*
X041793Y018263D01*
X041860Y018263D01*
X041526Y018263D02*
X041526Y017996D01*
X043726Y020199D02*
X044127Y020199D01*
X044127Y020399D01*
X044060Y020466D01*
X043926Y020466D01*
X043860Y020399D01*
X043860Y020199D01*
X043860Y020332D02*
X043726Y020466D01*
X043726Y020659D02*
X044127Y020659D01*
X044127Y020859D01*
X044060Y020926D01*
X043926Y020926D01*
X043860Y020859D01*
X043860Y020659D01*
X043793Y021119D02*
X043726Y021186D01*
X043726Y021320D01*
X043793Y021386D01*
X044127Y021386D01*
X043993Y021580D02*
X044127Y021713D01*
X043726Y021713D01*
X043726Y021580D02*
X043726Y021847D01*
X043793Y022040D02*
X043726Y022107D01*
X043726Y022240D01*
X043793Y022307D01*
X043926Y022307D01*
X043993Y022240D01*
X043993Y022174D01*
X043926Y022040D01*
X044127Y022040D01*
X044127Y022307D01*
X044127Y021119D02*
X043793Y021119D01*
X045750Y021006D02*
X045750Y020939D01*
X046017Y020672D01*
X046017Y020606D01*
X046210Y020606D02*
X046344Y020739D01*
X046410Y020606D02*
X046477Y020672D01*
X046477Y020939D01*
X046410Y021006D01*
X046277Y021006D01*
X046210Y020939D01*
X046210Y020672D01*
X046277Y020606D01*
X046410Y020606D01*
X046017Y021006D02*
X045750Y021006D01*
X046136Y023116D02*
X046270Y023116D01*
X046337Y023182D01*
X046203Y023316D02*
X046136Y023316D01*
X046070Y023249D01*
X046070Y023182D01*
X046136Y023116D01*
X046136Y023316D02*
X046070Y023383D01*
X046070Y023449D01*
X046136Y023516D01*
X046270Y023516D01*
X046337Y023449D01*
X046664Y023516D02*
X046664Y023116D01*
X046797Y023116D02*
X046530Y023116D01*
X046797Y023383D02*
X046664Y023516D01*
X046990Y023516D02*
X046990Y023182D01*
X047057Y023116D01*
X047191Y023116D01*
X047257Y023182D01*
X047257Y023516D01*
X047451Y023449D02*
X047451Y023316D01*
X047518Y023249D01*
X047718Y023249D01*
X047718Y023116D02*
X047718Y023516D01*
X047518Y023516D01*
X047451Y023449D01*
X047911Y023449D02*
X047911Y023316D01*
X047978Y023249D01*
X048178Y023249D01*
X048045Y023249D02*
X047911Y023116D01*
X048178Y023116D02*
X048178Y023516D01*
X047978Y023516D01*
X047911Y023449D01*
X049526Y023557D02*
X049927Y023557D01*
X049726Y023357D01*
X049726Y023624D01*
X049526Y023164D02*
X049526Y022897D01*
X049526Y023030D02*
X049927Y023030D01*
X049793Y022897D01*
X049927Y022703D02*
X049593Y022703D01*
X049526Y022637D01*
X049526Y022503D01*
X049593Y022436D01*
X049927Y022436D01*
X049860Y022243D02*
X049726Y022243D01*
X049660Y022176D01*
X049660Y021976D01*
X049526Y021976D02*
X049927Y021976D01*
X049927Y022176D01*
X049860Y022243D01*
X049860Y021783D02*
X049726Y021783D01*
X049660Y021716D01*
X049660Y021516D01*
X049660Y021649D02*
X049526Y021783D01*
X049526Y021516D02*
X049927Y021516D01*
X049927Y021716D01*
X049860Y021783D01*
X049276Y020783D02*
X049142Y020783D01*
X049075Y020716D01*
X049075Y020449D01*
X049142Y020382D01*
X049276Y020382D01*
X049342Y020449D01*
X049342Y020716D01*
X049276Y020783D01*
X049209Y020516D02*
X049075Y020382D01*
X048882Y020382D02*
X048615Y020382D01*
X048749Y020583D02*
X048882Y020583D01*
X048882Y020783D02*
X048882Y020382D01*
X048882Y020783D02*
X048615Y020783D01*
X048422Y020583D02*
X048221Y020783D01*
X048221Y020382D01*
X048155Y020583D02*
X048422Y020583D01*
X048497Y016346D02*
X048230Y016346D01*
X048230Y016279D01*
X048497Y016012D01*
X048497Y015946D01*
X048690Y016012D02*
X048690Y016346D01*
X048957Y016346D02*
X048957Y016012D01*
X048890Y015946D01*
X048757Y015946D01*
X048690Y016012D01*
X048257Y011951D02*
X048057Y011951D01*
X047990Y011884D01*
X047990Y011751D01*
X048057Y011684D01*
X048257Y011684D01*
X048124Y011684D02*
X047990Y011551D01*
X048257Y011551D02*
X048257Y011951D01*
X047797Y011751D02*
X047530Y011751D01*
X047337Y011751D02*
X047070Y011751D01*
X047106Y011561D02*
X047039Y011494D01*
X047039Y011361D01*
X047106Y011294D01*
X047306Y011294D01*
X047173Y011294D02*
X047039Y011161D01*
X047306Y011161D02*
X047306Y011561D01*
X047106Y011561D01*
X047136Y011551D02*
X047136Y011951D01*
X047337Y011751D01*
X047597Y011951D02*
X047797Y011751D01*
X047597Y011551D02*
X047597Y011951D01*
X046846Y011361D02*
X046579Y011361D01*
X046385Y011361D02*
X046252Y011428D01*
X046185Y011428D01*
X046119Y011361D01*
X046119Y011227D01*
X046185Y011161D01*
X046319Y011161D01*
X046385Y011227D01*
X046385Y011361D02*
X046385Y011561D01*
X046119Y011561D01*
X046646Y011561D02*
X046646Y011161D01*
X046846Y011361D02*
X046646Y011561D01*
X046695Y036204D02*
X046428Y036204D01*
X046361Y036271D01*
X046361Y036405D01*
X046428Y036471D01*
X046361Y036665D02*
X046628Y036932D01*
X046695Y036932D01*
X046762Y036865D01*
X046762Y036732D01*
X046695Y036665D01*
X046695Y036471D02*
X046762Y036405D01*
X046762Y036271D01*
X046695Y036204D01*
X046361Y036665D02*
X046361Y036932D01*
X046428Y037125D02*
X046695Y037392D01*
X046428Y037392D01*
X046361Y037325D01*
X046361Y037192D01*
X046428Y037125D01*
X046695Y037125D01*
X046762Y037192D01*
X046762Y037325D01*
X046695Y037392D01*
X046776Y041334D02*
X047177Y041334D01*
X047177Y041535D01*
X047110Y041601D01*
X046976Y041601D01*
X046910Y041535D01*
X046910Y041334D01*
X046910Y041468D02*
X046776Y041601D01*
X046843Y041795D02*
X046776Y041862D01*
X046776Y041995D01*
X046843Y042062D01*
X046910Y042062D01*
X046976Y041995D01*
X046976Y041928D01*
X046976Y041995D02*
X047043Y042062D01*
X047110Y042062D01*
X047177Y041995D01*
X047177Y041862D01*
X047110Y041795D01*
X047110Y042255D02*
X047043Y042255D01*
X046976Y042322D01*
X046976Y042522D01*
X046843Y042522D02*
X047110Y042522D01*
X047177Y042455D01*
X047177Y042322D01*
X047110Y042255D01*
X046843Y042255D02*
X046776Y042322D01*
X046776Y042455D01*
X046843Y042522D01*
X046908Y042955D02*
X046841Y043022D01*
X046841Y043155D01*
X046908Y043222D01*
X046908Y043415D02*
X046841Y043482D01*
X046841Y043615D01*
X046908Y043682D01*
X047175Y043682D01*
X047242Y043615D01*
X047242Y043482D01*
X047175Y043415D01*
X047108Y043415D01*
X047041Y043482D01*
X047041Y043682D01*
X047175Y043222D02*
X047242Y043155D01*
X047242Y043022D01*
X047175Y042955D01*
X046908Y042955D01*
X046860Y044304D02*
X046860Y044505D01*
X046926Y044571D01*
X047060Y044571D01*
X047127Y044505D01*
X047127Y044304D01*
X046726Y044304D01*
X046860Y044438D02*
X046726Y044571D01*
X046926Y044765D02*
X046926Y045032D01*
X046726Y044965D02*
X047127Y044965D01*
X046926Y044765D01*
X046793Y045225D02*
X047060Y045492D01*
X046793Y045492D01*
X046726Y045425D01*
X046726Y045292D01*
X046793Y045225D01*
X047060Y045225D01*
X047127Y045292D01*
X047127Y045425D01*
X047060Y045492D01*
X042092Y042296D02*
X042025Y042363D01*
X041958Y042363D01*
X041891Y042296D01*
X041825Y042363D01*
X041758Y042363D01*
X041691Y042296D01*
X041691Y042163D01*
X041758Y042096D01*
X041891Y042229D02*
X041891Y042296D01*
X042092Y042296D02*
X042092Y042163D01*
X042025Y042096D01*
X042025Y041903D02*
X042092Y041836D01*
X042092Y041702D01*
X042025Y041636D01*
X041758Y041636D01*
X041691Y041702D01*
X041691Y041836D01*
X041758Y041903D01*
X040617Y042724D02*
X040617Y042925D01*
X040550Y042991D01*
X040416Y042991D01*
X040350Y042925D01*
X040350Y042724D01*
X040216Y042724D02*
X040617Y042724D01*
X040350Y042858D02*
X040216Y042991D01*
X040216Y043185D02*
X040483Y043452D01*
X040550Y043452D01*
X040617Y043385D01*
X040617Y043252D01*
X040550Y043185D01*
X040216Y043185D02*
X040216Y043452D01*
X040283Y043645D02*
X040216Y043712D01*
X040216Y043845D01*
X040283Y043912D01*
X040350Y043912D01*
X040416Y043845D01*
X040416Y043645D01*
X040283Y043645D01*
X040416Y043645D02*
X040550Y043779D01*
X040617Y043912D01*
X040376Y040972D02*
X040376Y040705D01*
X040577Y040905D01*
X040176Y040905D01*
X040176Y040512D02*
X040176Y040245D01*
X040443Y040512D01*
X040510Y040512D01*
X040577Y040445D01*
X040577Y040312D01*
X040510Y040245D01*
X040510Y040051D02*
X040376Y040051D01*
X040310Y039985D01*
X040310Y039784D01*
X040176Y039784D02*
X040577Y039784D01*
X040577Y039985D01*
X040510Y040051D01*
X040310Y039918D02*
X040176Y040051D01*
X037827Y036933D02*
X037827Y036666D01*
X037626Y036666D01*
X037693Y036800D01*
X037693Y036867D01*
X037626Y036933D01*
X037493Y036933D01*
X037426Y036867D01*
X037426Y036733D01*
X037493Y036666D01*
X037426Y036473D02*
X037426Y036206D01*
X037426Y036339D02*
X037827Y036339D01*
X037693Y036206D01*
X037760Y036013D02*
X037827Y035946D01*
X037827Y035812D01*
X037760Y035746D01*
X037493Y035746D01*
X037426Y035812D01*
X037426Y035946D01*
X037493Y036013D01*
D12*
X040980Y041838D02*
X040980Y042074D01*
X041452Y042074D02*
X041452Y041838D01*
X046900Y037354D02*
X046900Y037118D01*
X047372Y037118D02*
X047372Y037354D01*
X047440Y043328D02*
X047440Y043564D01*
X047912Y043564D02*
X047912Y043328D01*
X046404Y023282D02*
X046168Y023282D01*
X046168Y022809D02*
X046404Y022809D01*
X047036Y021765D02*
X047036Y020346D01*
X045176Y020346D02*
X045176Y021765D01*
X044792Y021189D02*
X044792Y020953D01*
X044320Y020953D02*
X044320Y021189D01*
X047656Y017105D02*
X047656Y015686D01*
X049516Y015686D02*
X049516Y017105D01*
X048194Y012212D02*
X047958Y012212D01*
X047958Y011739D02*
X048194Y011739D01*
X048224Y011422D02*
X047988Y011422D01*
X047988Y010949D02*
X048224Y010949D01*
X048850Y021688D02*
X048850Y021924D01*
X049322Y021924D02*
X049322Y021688D01*
X017742Y040608D02*
X017742Y040844D01*
X017270Y040844D02*
X017270Y040608D01*
X014322Y037614D02*
X014322Y037378D01*
X013850Y037378D02*
X013850Y037614D01*
X013904Y036232D02*
X013668Y036232D01*
X013668Y035759D02*
X013904Y035759D01*
X013904Y035532D02*
X013668Y035532D01*
X013668Y035059D02*
X013904Y035059D01*
X013850Y033914D02*
X013850Y033678D01*
X014322Y033678D02*
X014322Y033914D01*
X014322Y032414D02*
X014322Y032178D01*
X013850Y032178D02*
X013850Y032414D01*
X013722Y031014D02*
X013722Y030778D01*
X013250Y030778D02*
X013250Y031014D01*
X013250Y029814D02*
X013250Y029578D01*
X013722Y029578D02*
X013722Y029814D01*
X013850Y028414D02*
X013850Y028178D01*
X014322Y028178D02*
X014322Y028414D01*
X015390Y026914D02*
X015390Y026678D01*
X015862Y026678D02*
X015862Y026914D01*
X015868Y025932D02*
X016104Y025932D01*
X016104Y025459D02*
X015868Y025459D01*
X014966Y025126D02*
X014966Y024526D01*
X014964Y024509D01*
X014960Y024492D01*
X014953Y024476D01*
X014943Y024462D01*
X014930Y024449D01*
X014916Y024439D01*
X014900Y024432D01*
X014883Y024428D01*
X014866Y024426D01*
X013166Y024426D01*
X013149Y024428D01*
X013132Y024432D01*
X013116Y024439D01*
X013102Y024449D01*
X013089Y024462D01*
X013079Y024476D01*
X013072Y024492D01*
X013068Y024509D01*
X013066Y024526D01*
X013066Y025126D01*
X013068Y025143D01*
X013072Y025160D01*
X013079Y025176D01*
X013089Y025190D01*
X013102Y025203D01*
X013116Y025213D01*
X013132Y025220D01*
X013149Y025224D01*
X013166Y025226D01*
X014866Y025226D01*
X014883Y025224D01*
X014900Y025220D01*
X014916Y025213D01*
X014930Y025203D01*
X014943Y025190D01*
X014953Y025176D01*
X014960Y025160D01*
X014964Y025143D01*
X014966Y025126D01*
D13*
X015435Y024735D02*
X015435Y024420D01*
X015671Y024420D01*
X016301Y024420D02*
X016537Y024420D01*
X016537Y024735D01*
X016815Y024290D02*
X016992Y024290D01*
X016815Y024290D02*
X016815Y026101D01*
X016992Y026101D01*
X016992Y025589D02*
X017780Y025589D01*
X017780Y026101D02*
X017957Y026101D01*
X017957Y024290D01*
X017780Y024290D01*
X015362Y027744D02*
X015047Y027744D01*
X015362Y027744D02*
X015362Y027981D01*
X015362Y028611D02*
X015362Y028847D01*
X015047Y028847D01*
X015781Y029025D02*
X017592Y029025D01*
X017592Y029202D01*
X017592Y029989D02*
X017592Y030167D01*
X015781Y030167D01*
X015781Y029989D01*
X016292Y029989D02*
X016292Y029202D01*
X015781Y029202D02*
X015781Y029025D01*
X015781Y030625D02*
X017592Y030625D01*
X017592Y030802D01*
X017592Y031589D02*
X017592Y031767D01*
X015781Y031767D01*
X015781Y031589D01*
X015362Y031744D02*
X015362Y031981D01*
X015362Y031744D02*
X015047Y031744D01*
X015362Y032611D02*
X015362Y032847D01*
X015047Y032847D01*
X015047Y033244D02*
X015362Y033244D01*
X015362Y033481D01*
X015362Y034111D02*
X015362Y034347D01*
X015047Y034347D01*
X015781Y034402D02*
X015781Y034225D01*
X017592Y034225D01*
X017592Y034402D01*
X017592Y035189D02*
X017592Y035367D01*
X015781Y035367D01*
X015781Y035189D01*
X016292Y035189D02*
X016292Y034402D01*
X015781Y035825D02*
X017592Y035825D01*
X017592Y036002D01*
X017592Y036789D02*
X017592Y036967D01*
X015781Y036967D01*
X015781Y036789D01*
X015362Y036944D02*
X015362Y037181D01*
X015362Y036944D02*
X015047Y036944D01*
X015362Y037811D02*
X015362Y038047D01*
X015047Y038047D01*
X016292Y036789D02*
X016292Y036002D01*
X015781Y036002D02*
X015781Y035825D01*
X016292Y031589D02*
X016292Y030802D01*
X015781Y030802D02*
X015781Y030625D01*
X010986Y053116D02*
X010486Y053116D01*
X010486Y053716D02*
X010986Y053716D01*
X045339Y021446D02*
X045341Y021461D01*
X045347Y021474D01*
X045356Y021486D01*
X045367Y021495D01*
X045381Y021501D01*
X045396Y021503D01*
X045411Y021501D01*
X045424Y021495D01*
X045436Y021486D01*
X045445Y021475D01*
X045451Y021461D01*
X045453Y021446D01*
X045451Y021431D01*
X045445Y021418D01*
X045436Y021406D01*
X045425Y021397D01*
X045411Y021391D01*
X045396Y021389D01*
X045381Y021391D01*
X045368Y021397D01*
X045356Y021406D01*
X045347Y021417D01*
X045341Y021431D01*
X045339Y021446D01*
X047677Y021471D02*
X047677Y021234D01*
X047992Y021234D01*
X047677Y022101D02*
X047677Y022337D01*
X047992Y022337D01*
X047819Y016786D02*
X047821Y016801D01*
X047827Y016814D01*
X047836Y016826D01*
X047847Y016835D01*
X047861Y016841D01*
X047876Y016843D01*
X047891Y016841D01*
X047904Y016835D01*
X047916Y016826D01*
X047925Y016815D01*
X047931Y016801D01*
X047933Y016786D01*
X047931Y016771D01*
X047925Y016758D01*
X047916Y016746D01*
X047905Y016737D01*
X047891Y016731D01*
X047876Y016729D01*
X047861Y016731D01*
X047848Y016737D01*
X047836Y016746D01*
X047827Y016757D01*
X047821Y016771D01*
X047819Y016786D01*
D14*
X041236Y040238D03*
X041236Y040818D03*
X041216Y043168D03*
X041216Y043748D03*
X047676Y044648D03*
X047676Y045228D03*
X047686Y042288D03*
X047686Y041708D03*
D15*
X012746Y039126D03*
D16*
X012731Y039156D03*
D17*
X012731Y039186D03*
D18*
X013436Y039216D03*
D19*
X012041Y039216D03*
D20*
X012071Y040116D03*
X013901Y040176D03*
X013781Y039246D03*
X014351Y047736D03*
D21*
X013391Y044976D03*
X011711Y039246D03*
D22*
X011501Y039276D03*
X014021Y039276D03*
X014261Y040236D03*
X014141Y040896D03*
X012521Y045066D03*
X012851Y048006D03*
D23*
X010886Y047616D03*
X008906Y045396D03*
X011636Y043206D03*
X011816Y040146D03*
X014216Y039306D03*
X014396Y040266D03*
X015206Y047406D03*
D24*
X015176Y047436D03*
X012206Y048006D03*
X009746Y042486D03*
X011066Y040986D03*
X011636Y040176D03*
X011306Y039306D03*
X014396Y039336D03*
D25*
X014561Y039366D03*
X014651Y040326D03*
X011471Y040206D03*
X011141Y039336D03*
X009431Y042546D03*
X010811Y046266D03*
X011291Y046476D03*
X009671Y046716D03*
X013481Y044946D03*
D26*
X013421Y047106D03*
X011801Y046866D03*
X011171Y040266D03*
X011321Y040236D03*
X010991Y039366D03*
X014711Y039396D03*
X014771Y040356D03*
D27*
X014876Y040386D03*
X015506Y040626D03*
X014126Y040866D03*
X014846Y039426D03*
X011096Y040956D03*
X010916Y040326D03*
X010796Y040356D03*
X011036Y040296D03*
X010856Y039396D03*
X009536Y040776D03*
X009356Y041886D03*
X009236Y041916D03*
X009116Y041946D03*
X009146Y042606D03*
X010556Y043686D03*
X010946Y043626D03*
X010856Y046296D03*
X011336Y046536D03*
X009716Y046776D03*
X014036Y044976D03*
X014486Y046536D03*
D28*
X014471Y046566D03*
X014381Y047796D03*
X010901Y047646D03*
X009581Y045906D03*
X008891Y045426D03*
X011681Y043176D03*
X009491Y041856D03*
X008981Y041976D03*
X010571Y040416D03*
X010601Y039456D03*
X010721Y039426D03*
X014981Y039456D03*
X014951Y040416D03*
D29*
X015086Y039486D03*
X015266Y042066D03*
X015356Y043776D03*
X014816Y046326D03*
X014006Y046746D03*
X013406Y047136D03*
X012236Y048036D03*
X010076Y045456D03*
X009026Y042636D03*
X008876Y042006D03*
X009716Y041796D03*
X009836Y042456D03*
X009536Y040806D03*
X010466Y040446D03*
X010676Y040386D03*
X010496Y039486D03*
D30*
X010391Y039516D03*
X010271Y039546D03*
X010361Y040476D03*
X010271Y040506D03*
X010181Y040536D03*
X008771Y042036D03*
X010211Y043956D03*
X010211Y043986D03*
X010211Y044016D03*
X010931Y043596D03*
X010091Y045426D03*
X009611Y045876D03*
X009191Y046086D03*
X008681Y046206D03*
X010301Y047346D03*
X011231Y047556D03*
X011921Y047946D03*
X014051Y047706D03*
X014801Y046356D03*
X015761Y047136D03*
X015791Y047106D03*
X014531Y044856D03*
X014561Y044826D03*
X014591Y044796D03*
X013211Y045006D03*
X012551Y045006D03*
X015251Y042036D03*
X015491Y040656D03*
X015041Y040446D03*
X015191Y039516D03*
D31*
X015296Y039546D03*
X015116Y040476D03*
X015176Y040506D03*
X014456Y040956D03*
X015236Y042006D03*
X015326Y043746D03*
X014246Y045006D03*
X014036Y044946D03*
X014786Y046386D03*
X015746Y047166D03*
X014666Y047706D03*
X013976Y046776D03*
X013076Y047976D03*
X012836Y048066D03*
X012026Y046806D03*
X010916Y046326D03*
X009626Y045846D03*
X008216Y046086D03*
X011156Y043656D03*
X011936Y043236D03*
X010766Y041046D03*
X010076Y040566D03*
X010016Y040596D03*
X010166Y039576D03*
X008666Y042066D03*
D32*
X008921Y042666D03*
X010511Y043656D03*
X010031Y044916D03*
X010661Y046236D03*
X010331Y047376D03*
X010601Y047556D03*
X011831Y047916D03*
X013751Y045036D03*
X012191Y040926D03*
X009941Y040626D03*
X009551Y040836D03*
X010001Y039636D03*
X010091Y039606D03*
X015251Y040536D03*
X015371Y039576D03*
X008591Y045336D03*
D33*
X009206Y045336D03*
X010106Y045396D03*
X010916Y043566D03*
X011666Y043146D03*
X011966Y043266D03*
X012926Y045156D03*
X013616Y045006D03*
X014756Y046416D03*
X013946Y046806D03*
X013406Y047166D03*
X013676Y047556D03*
X013946Y047676D03*
X011786Y046896D03*
X011276Y047526D03*
X010346Y047406D03*
X008576Y042096D03*
X009776Y041766D03*
X009806Y040686D03*
X009866Y040656D03*
X010676Y041076D03*
X009926Y039666D03*
X012746Y039996D03*
X012926Y040926D03*
X014546Y040986D03*
X015296Y040566D03*
X015356Y040596D03*
X015476Y040686D03*
X015446Y039606D03*
D34*
X015521Y039636D03*
X015641Y039696D03*
X014621Y041016D03*
X014771Y043656D03*
X015281Y043716D03*
X015461Y043806D03*
X014291Y045036D03*
X013751Y045066D03*
X013421Y044916D03*
X012341Y045096D03*
X012101Y046776D03*
X011681Y047856D03*
X011741Y047886D03*
X012491Y047946D03*
X013181Y047946D03*
X013871Y047646D03*
X013601Y047076D03*
X015101Y046176D03*
X015131Y046146D03*
X015701Y047196D03*
X011201Y043686D03*
X011441Y043236D03*
X010181Y044676D03*
X010061Y044886D03*
X009281Y045306D03*
X009251Y046056D03*
X008501Y045306D03*
X008141Y046056D03*
X008771Y042726D03*
X008831Y042696D03*
X008501Y042126D03*
X009701Y040746D03*
X009761Y040716D03*
X010541Y041136D03*
X010601Y041106D03*
X009851Y039696D03*
X009791Y039726D03*
D35*
X009746Y039756D03*
X009686Y039786D03*
X010466Y041166D03*
X012116Y040956D03*
X011996Y043296D03*
X011216Y043716D03*
X010676Y043716D03*
X010496Y043626D03*
X010166Y044646D03*
X010196Y044706D03*
X010196Y044736D03*
X009746Y045066D03*
X009686Y045096D03*
X009596Y045156D03*
X009536Y045186D03*
X009476Y045216D03*
X009416Y045246D03*
X009356Y045276D03*
X008456Y045276D03*
X008396Y045246D03*
X008066Y046026D03*
X011606Y046806D03*
X012176Y046746D03*
X013256Y047916D03*
X013676Y047526D03*
X014756Y047676D03*
X015446Y047376D03*
X014396Y046506D03*
X014306Y045066D03*
X013886Y045006D03*
X013136Y045036D03*
X012926Y045186D03*
X012776Y045096D03*
X011966Y044346D03*
X011966Y044316D03*
X011966Y044286D03*
X014696Y043896D03*
X014756Y043686D03*
X015326Y042456D03*
X015656Y040596D03*
X015596Y039666D03*
X015926Y045426D03*
X008456Y042156D03*
X008396Y042186D03*
X008336Y042216D03*
D36*
X008291Y042246D03*
X008231Y042276D03*
X008201Y042306D03*
X008111Y042366D03*
X007931Y042516D03*
X008621Y042816D03*
X008681Y042786D03*
X008711Y042756D03*
X010271Y043926D03*
X010151Y044586D03*
X010151Y044616D03*
X010181Y044766D03*
X010121Y044826D03*
X010091Y044856D03*
X009941Y044946D03*
X009881Y044976D03*
X009851Y045006D03*
X009791Y045036D03*
X009641Y045126D03*
X010151Y045366D03*
X009431Y045936D03*
X009311Y046026D03*
X008351Y045216D03*
X007931Y045936D03*
X007961Y045966D03*
X008021Y045996D03*
X010181Y047316D03*
X010391Y047436D03*
X010511Y047526D03*
X011291Y047496D03*
X011531Y047766D03*
X011561Y047796D03*
X011621Y047826D03*
X012221Y046716D03*
X013661Y047046D03*
X013661Y047496D03*
X013811Y047616D03*
X013301Y047886D03*
X014141Y046716D03*
X014531Y046596D03*
X015071Y046206D03*
X015191Y046116D03*
X015971Y046326D03*
X016001Y046356D03*
X015941Y045456D03*
X014681Y044256D03*
X014741Y043716D03*
X015281Y042486D03*
X015371Y042426D03*
X015041Y042306D03*
X015011Y042336D03*
X014771Y041106D03*
X014741Y041076D03*
X014681Y041046D03*
X013841Y040956D03*
X013001Y040956D03*
X010421Y041196D03*
X010331Y041256D03*
X009371Y040746D03*
X009551Y039876D03*
X009641Y039816D03*
X011411Y043266D03*
X011981Y044256D03*
X011981Y044376D03*
X012911Y045216D03*
X013091Y045066D03*
X013751Y045096D03*
X014021Y044916D03*
X015191Y047496D03*
X015521Y047346D03*
X014801Y047646D03*
X010571Y046206D03*
X015701Y039726D03*
D37*
X015746Y039756D03*
X015776Y039786D03*
X015746Y040536D03*
X015716Y040566D03*
X015146Y042096D03*
X015056Y042276D03*
X015266Y042516D03*
X015416Y042396D03*
X014876Y043386D03*
X014726Y043746D03*
X014726Y043836D03*
X014726Y043866D03*
X014666Y043926D03*
X014696Y044226D03*
X014666Y044286D03*
X014336Y045096D03*
X013766Y045126D03*
X013046Y045096D03*
X013016Y045126D03*
X012926Y045246D03*
X012086Y044466D03*
X012056Y044436D03*
X012026Y044406D03*
X012086Y044136D03*
X012086Y043386D03*
X012056Y043356D03*
X012026Y043326D03*
X011396Y043296D03*
X011246Y043746D03*
X010766Y043656D03*
X010676Y043746D03*
X010376Y043716D03*
X010106Y044046D03*
X010106Y044076D03*
X010136Y044496D03*
X010136Y044526D03*
X010136Y044556D03*
X010166Y044796D03*
X010496Y045306D03*
X010466Y045336D03*
X010466Y045366D03*
X010226Y045486D03*
X009926Y045486D03*
X009896Y045516D03*
X009866Y045546D03*
X009836Y045576D03*
X009716Y045936D03*
X009386Y045966D03*
X009476Y046686D03*
X009866Y046686D03*
X010076Y047226D03*
X010106Y047256D03*
X010136Y047286D03*
X010466Y047496D03*
X011426Y047676D03*
X011456Y047706D03*
X011486Y047736D03*
X011546Y046776D03*
X011096Y046446D03*
X010526Y046176D03*
X012266Y046686D03*
X012296Y046656D03*
X013226Y047076D03*
X013706Y047016D03*
X013736Y046986D03*
X013766Y046956D03*
X014186Y046686D03*
X014216Y046656D03*
X013646Y047466D03*
X013766Y047586D03*
X013526Y047676D03*
X013406Y047796D03*
X013376Y047826D03*
X013346Y047856D03*
X014846Y047616D03*
X014876Y047586D03*
X014966Y047376D03*
X015566Y047316D03*
X015926Y047076D03*
X015956Y047046D03*
X015956Y046296D03*
X015326Y045996D03*
X015236Y046086D03*
X015896Y045396D03*
X015836Y044766D03*
X015806Y044736D03*
X015656Y043956D03*
X015566Y043866D03*
X015536Y043836D03*
X013046Y040986D03*
X012566Y040806D03*
X012056Y040986D03*
X012026Y041016D03*
X010376Y041226D03*
X010286Y041286D03*
X009836Y041736D03*
X009956Y042426D03*
X008576Y042846D03*
X008546Y042876D03*
X008516Y042906D03*
X008486Y042936D03*
X008006Y042456D03*
X007976Y042486D03*
X008036Y042426D03*
X008066Y042396D03*
X008156Y042336D03*
X007886Y042546D03*
X007856Y042576D03*
X007676Y042786D03*
X008276Y045156D03*
X008306Y045186D03*
X007796Y045816D03*
X007826Y045846D03*
X007856Y045876D03*
X007886Y045906D03*
X009446Y039966D03*
X009476Y039936D03*
X009506Y039906D03*
X009596Y039846D03*
D38*
X009431Y039996D03*
X009401Y040026D03*
X009371Y040056D03*
X009371Y040086D03*
X009341Y040116D03*
X009311Y040176D03*
X009281Y040236D03*
X009281Y040266D03*
X009251Y040386D03*
X009251Y040416D03*
X009251Y040446D03*
X009251Y040476D03*
X009251Y040506D03*
X009281Y040626D03*
X009311Y040686D03*
X009341Y040716D03*
X009611Y040866D03*
X009641Y040956D03*
X009641Y040986D03*
X009671Y041046D03*
X009671Y041076D03*
X009701Y041166D03*
X009731Y041256D03*
X009731Y041286D03*
X009761Y041376D03*
X009761Y041406D03*
X009791Y041496D03*
X009791Y041526D03*
X009821Y041616D03*
X009821Y041646D03*
X009881Y041886D03*
X009881Y041916D03*
X009911Y042036D03*
X009911Y042066D03*
X009911Y042096D03*
X009941Y042186D03*
X009941Y042216D03*
X009941Y042246D03*
X009941Y042276D03*
X009941Y042306D03*
X009971Y042366D03*
X009971Y042396D03*
X010001Y042726D03*
X010001Y042756D03*
X010001Y042786D03*
X010001Y042816D03*
X010001Y042846D03*
X010031Y043146D03*
X010031Y043176D03*
X010031Y043206D03*
X010031Y043236D03*
X010031Y043266D03*
X010061Y043596D03*
X010061Y043626D03*
X010061Y043656D03*
X010061Y043686D03*
X010061Y043716D03*
X010331Y043776D03*
X010331Y043806D03*
X010361Y043746D03*
X010301Y043896D03*
X010091Y044106D03*
X010091Y044136D03*
X010091Y044166D03*
X010091Y044196D03*
X010121Y044376D03*
X010121Y044406D03*
X010121Y044436D03*
X010121Y044466D03*
X010121Y044946D03*
X010121Y045126D03*
X010121Y045156D03*
X010121Y045186D03*
X010151Y045306D03*
X010151Y045336D03*
X010421Y045396D03*
X010421Y045606D03*
X010451Y045666D03*
X010451Y045696D03*
X010481Y045726D03*
X010511Y045756D03*
X010481Y045816D03*
X010451Y045876D03*
X010421Y045996D03*
X010451Y046086D03*
X010451Y046116D03*
X010481Y046146D03*
X011051Y046416D03*
X011501Y046446D03*
X011501Y046566D03*
X011501Y046686D03*
X011501Y046716D03*
X011531Y046746D03*
X011351Y047436D03*
X011321Y047466D03*
X011381Y047616D03*
X011411Y047646D03*
X010451Y047466D03*
X010061Y047196D03*
X010031Y047166D03*
X010001Y047136D03*
X010001Y047106D03*
X009971Y047076D03*
X009971Y047046D03*
X009941Y047016D03*
X009941Y046986D03*
X009911Y046896D03*
X009431Y046656D03*
X009431Y046626D03*
X009401Y046596D03*
X009401Y046566D03*
X009371Y046536D03*
X009341Y046476D03*
X009341Y046446D03*
X009311Y046386D03*
X009311Y046356D03*
X009371Y045996D03*
X009731Y045966D03*
X009731Y045816D03*
X009761Y045756D03*
X009761Y045726D03*
X009791Y045666D03*
X009821Y045606D03*
X008231Y045126D03*
X008201Y045096D03*
X008201Y045066D03*
X008171Y045036D03*
X008141Y044976D03*
X008111Y044916D03*
X008081Y044826D03*
X008081Y044796D03*
X008051Y044706D03*
X008051Y044676D03*
X008021Y044556D03*
X008021Y044526D03*
X008021Y044496D03*
X007991Y044196D03*
X007991Y044166D03*
X007991Y044136D03*
X007991Y044106D03*
X007991Y044076D03*
X008021Y043776D03*
X008021Y043746D03*
X008051Y043626D03*
X008051Y043596D03*
X008081Y043506D03*
X008081Y043476D03*
X008111Y043416D03*
X008111Y043386D03*
X008141Y043326D03*
X008171Y043266D03*
X008201Y043236D03*
X008201Y043206D03*
X008231Y043176D03*
X008261Y043146D03*
X008291Y043116D03*
X008321Y043086D03*
X008351Y043056D03*
X008381Y043026D03*
X008411Y042996D03*
X008441Y042966D03*
X007841Y042606D03*
X007811Y042636D03*
X007781Y042666D03*
X007751Y042696D03*
X007721Y042726D03*
X007691Y042756D03*
X007661Y042816D03*
X007631Y042846D03*
X007601Y042876D03*
X007601Y042906D03*
X007571Y042936D03*
X007541Y042966D03*
X007541Y042996D03*
X007511Y043026D03*
X007511Y043056D03*
X007481Y043086D03*
X007481Y043116D03*
X007451Y043146D03*
X007451Y043176D03*
X007421Y043236D03*
X007421Y043266D03*
X007391Y043326D03*
X007391Y043356D03*
X007361Y043446D03*
X007361Y043476D03*
X007331Y043596D03*
X007331Y043626D03*
X007331Y043656D03*
X007301Y043806D03*
X007301Y043836D03*
X007301Y043866D03*
X007301Y043896D03*
X007301Y043926D03*
X007301Y043956D03*
X007301Y044316D03*
X007301Y044346D03*
X007301Y044376D03*
X007301Y044406D03*
X007301Y044436D03*
X007301Y044466D03*
X007331Y044646D03*
X007331Y044676D03*
X007361Y044826D03*
X007361Y044856D03*
X007391Y044946D03*
X007391Y044976D03*
X007421Y045066D03*
X007421Y045096D03*
X007451Y045156D03*
X007451Y045186D03*
X007481Y045246D03*
X007481Y045276D03*
X007511Y045306D03*
X007511Y045336D03*
X007541Y045396D03*
X007571Y045456D03*
X007601Y045516D03*
X007631Y045576D03*
X007661Y045606D03*
X007661Y045636D03*
X007691Y045666D03*
X007721Y045696D03*
X007721Y045726D03*
X007751Y045756D03*
X007781Y045786D03*
X010481Y043596D03*
X010691Y043776D03*
X010691Y043806D03*
X011261Y043806D03*
X011261Y043776D03*
X011291Y043536D03*
X011291Y043506D03*
X011321Y043446D03*
X011321Y043416D03*
X011351Y043356D03*
X011381Y043326D03*
X012041Y043026D03*
X012041Y042996D03*
X012041Y042966D03*
X012041Y042936D03*
X012041Y042906D03*
X012041Y042876D03*
X012041Y042846D03*
X012011Y042456D03*
X012011Y042426D03*
X012011Y042396D03*
X012011Y042366D03*
X012011Y042336D03*
X012011Y042306D03*
X011981Y041916D03*
X011981Y041886D03*
X011981Y041856D03*
X011981Y041826D03*
X011981Y041796D03*
X011981Y041766D03*
X011981Y041736D03*
X011981Y041706D03*
X011981Y041256D03*
X011981Y041226D03*
X011981Y041196D03*
X011981Y041166D03*
X011981Y041136D03*
X012011Y041046D03*
X011381Y041196D03*
X011381Y041226D03*
X011381Y041256D03*
X011381Y041286D03*
X011351Y041076D03*
X011321Y041046D03*
X011111Y040926D03*
X011381Y041856D03*
X011381Y041886D03*
X011381Y041916D03*
X011381Y041946D03*
X011381Y041976D03*
X011381Y042006D03*
X011381Y042036D03*
X011381Y042066D03*
X011381Y042096D03*
X011381Y042126D03*
X011381Y042156D03*
X011381Y042186D03*
X011381Y042216D03*
X010391Y042366D03*
X010391Y042396D03*
X010361Y042246D03*
X010361Y042216D03*
X010331Y042096D03*
X010331Y042066D03*
X010301Y041916D03*
X010301Y041886D03*
X010271Y041766D03*
X010271Y041736D03*
X010241Y041586D03*
X010241Y041556D03*
X010241Y041526D03*
X010241Y041496D03*
X010241Y041406D03*
X010241Y041376D03*
X010241Y041346D03*
X010271Y041316D03*
X010421Y042576D03*
X010421Y042606D03*
X010451Y042906D03*
X010451Y042936D03*
X010451Y042966D03*
X010451Y042996D03*
X010451Y043026D03*
X010451Y043056D03*
X010451Y043086D03*
X010451Y043116D03*
X010451Y043146D03*
X010451Y043176D03*
X012101Y043416D03*
X012131Y043446D03*
X012161Y043476D03*
X012161Y043506D03*
X012191Y043566D03*
X012221Y043686D03*
X012221Y043716D03*
X012221Y043746D03*
X012221Y043776D03*
X012221Y043806D03*
X012191Y043926D03*
X012161Y043986D03*
X012161Y044016D03*
X012131Y044046D03*
X012131Y044076D03*
X012101Y044106D03*
X012071Y044166D03*
X012041Y044196D03*
X012011Y044226D03*
X012101Y044496D03*
X012131Y044526D03*
X012161Y044556D03*
X012161Y044586D03*
X012191Y044616D03*
X012191Y044646D03*
X012221Y044706D03*
X012251Y044796D03*
X012251Y044826D03*
X012281Y045006D03*
X012821Y045126D03*
X012911Y045276D03*
X012911Y045306D03*
X012911Y045336D03*
X012911Y045366D03*
X013091Y044826D03*
X013091Y044796D03*
X013091Y044766D03*
X013091Y044736D03*
X013091Y044706D03*
X013091Y044676D03*
X013091Y044646D03*
X013091Y044616D03*
X013091Y044586D03*
X013091Y044556D03*
X013091Y044526D03*
X013091Y044496D03*
X013091Y044466D03*
X013091Y044436D03*
X013091Y044406D03*
X013091Y044376D03*
X013091Y044346D03*
X013091Y044316D03*
X013061Y043806D03*
X013061Y043776D03*
X013061Y043746D03*
X013061Y043716D03*
X013061Y043686D03*
X013061Y043656D03*
X013061Y043626D03*
X013781Y043626D03*
X013781Y043656D03*
X013781Y043686D03*
X013781Y043716D03*
X013751Y043986D03*
X013751Y044016D03*
X013751Y044046D03*
X013751Y044076D03*
X013721Y044346D03*
X013721Y044376D03*
X013721Y044406D03*
X013721Y044436D03*
X013691Y044736D03*
X013691Y044766D03*
X013691Y044796D03*
X013691Y044826D03*
X013691Y044856D03*
X013691Y044886D03*
X013691Y044916D03*
X014381Y044916D03*
X014381Y044886D03*
X014351Y045126D03*
X014351Y045156D03*
X014711Y044766D03*
X014741Y044736D03*
X014741Y044706D03*
X014711Y044616D03*
X014711Y044586D03*
X014681Y044526D03*
X014681Y044496D03*
X014651Y044436D03*
X014651Y044406D03*
X014681Y044196D03*
X014651Y044166D03*
X014621Y044136D03*
X014621Y044106D03*
X014621Y043956D03*
X014711Y043806D03*
X014711Y043776D03*
X014831Y043626D03*
X014831Y043596D03*
X014831Y043446D03*
X014861Y043416D03*
X014891Y043356D03*
X014921Y043236D03*
X014921Y043206D03*
X014921Y043176D03*
X014951Y043116D03*
X014951Y043086D03*
X014981Y042996D03*
X014981Y042966D03*
X014981Y042936D03*
X015011Y042816D03*
X015011Y042786D03*
X015011Y042756D03*
X015011Y042726D03*
X015011Y042696D03*
X014981Y042636D03*
X014951Y042546D03*
X014951Y042456D03*
X014951Y042426D03*
X015071Y042246D03*
X015101Y042156D03*
X015161Y041856D03*
X015161Y041826D03*
X015191Y041706D03*
X015191Y041676D03*
X015221Y041586D03*
X015221Y041556D03*
X015251Y041466D03*
X015251Y041436D03*
X015281Y041346D03*
X015281Y041316D03*
X015311Y041226D03*
X015311Y041196D03*
X015341Y041106D03*
X015341Y041076D03*
X015371Y040956D03*
X015371Y040926D03*
X015401Y040746D03*
X015401Y040716D03*
X015761Y040506D03*
X015791Y040476D03*
X015821Y040446D03*
X015821Y040416D03*
X015851Y040356D03*
X015881Y040266D03*
X015881Y040236D03*
X015881Y040206D03*
X015881Y040056D03*
X015881Y040026D03*
X015851Y039936D03*
X015851Y039906D03*
X015821Y039876D03*
X015821Y039846D03*
X015791Y039816D03*
X014801Y041136D03*
X014831Y041196D03*
X014831Y041226D03*
X014831Y041256D03*
X014831Y041286D03*
X014831Y041316D03*
X014801Y041466D03*
X014801Y041496D03*
X014771Y041646D03*
X014771Y041676D03*
X014741Y041796D03*
X014741Y041826D03*
X014711Y041946D03*
X014711Y041976D03*
X014681Y042096D03*
X014681Y042126D03*
X014681Y042156D03*
X014651Y042336D03*
X014651Y042366D03*
X014651Y042396D03*
X014651Y042426D03*
X014651Y042456D03*
X014651Y042486D03*
X014651Y042516D03*
X014651Y042546D03*
X014651Y042576D03*
X014651Y042606D03*
X014651Y042636D03*
X014681Y043086D03*
X014681Y043116D03*
X014681Y043146D03*
X014681Y043176D03*
X014681Y043206D03*
X014681Y043236D03*
X014681Y043266D03*
X014681Y043296D03*
X014681Y043326D03*
X015191Y043296D03*
X015191Y043266D03*
X015221Y043146D03*
X015221Y043116D03*
X015221Y043086D03*
X015251Y042996D03*
X015281Y042876D03*
X015281Y042846D03*
X015281Y042816D03*
X015281Y042786D03*
X015311Y042666D03*
X015311Y042636D03*
X015311Y042606D03*
X015281Y042546D03*
X015431Y042366D03*
X015461Y042336D03*
X015461Y042156D03*
X015431Y042096D03*
X015191Y043566D03*
X015191Y043596D03*
X015191Y043626D03*
X015191Y043656D03*
X015191Y043686D03*
X015221Y043806D03*
X015611Y043896D03*
X015641Y043926D03*
X015671Y043986D03*
X015701Y044016D03*
X015701Y044046D03*
X015731Y044076D03*
X015731Y044106D03*
X015761Y044166D03*
X015791Y044256D03*
X015791Y044286D03*
X015821Y044466D03*
X015821Y044496D03*
X015821Y044526D03*
X015821Y044556D03*
X015791Y044676D03*
X015791Y044706D03*
X015881Y044796D03*
X015881Y044826D03*
X015911Y044856D03*
X015911Y044886D03*
X015941Y044976D03*
X015941Y045246D03*
X015941Y045276D03*
X015911Y045336D03*
X015911Y045366D03*
X016001Y045486D03*
X016031Y045546D03*
X016061Y045666D03*
X016061Y045696D03*
X016061Y045726D03*
X016061Y045756D03*
X016061Y045846D03*
X016061Y045876D03*
X016061Y045906D03*
X016061Y045936D03*
X016031Y046086D03*
X016001Y046146D03*
X016001Y046176D03*
X015971Y046236D03*
X015941Y046266D03*
X016031Y046386D03*
X016061Y046416D03*
X016091Y046476D03*
X016091Y046506D03*
X016091Y046536D03*
X016091Y046716D03*
X016091Y046746D03*
X016091Y046776D03*
X016061Y046836D03*
X016061Y046866D03*
X016031Y046926D03*
X016031Y046956D03*
X016001Y046986D03*
X015971Y047016D03*
X015611Y047256D03*
X015581Y047286D03*
X014921Y047496D03*
X014921Y047526D03*
X014891Y047556D03*
X014651Y046506D03*
X014681Y046476D03*
X014681Y046446D03*
X014381Y046476D03*
X014291Y046596D03*
X014261Y046626D03*
X013841Y046836D03*
X013811Y046896D03*
X013781Y046926D03*
X013661Y047406D03*
X013661Y047436D03*
X013571Y047586D03*
X013571Y047616D03*
X013541Y047646D03*
X013511Y047706D03*
X013481Y047736D03*
X013451Y047766D03*
X013211Y047046D03*
X012371Y046596D03*
X012371Y046566D03*
X012401Y046536D03*
X012401Y046506D03*
X012341Y046626D03*
X012491Y047916D03*
X014981Y046296D03*
X015011Y046266D03*
X015011Y046236D03*
X015281Y046056D03*
X015311Y046026D03*
X015341Y045966D03*
X015371Y045936D03*
X015371Y045906D03*
X015401Y045846D03*
X015401Y045816D03*
X015401Y045666D03*
X013781Y042516D03*
X013781Y042486D03*
X013781Y042456D03*
X013781Y042426D03*
X013781Y042396D03*
X013781Y042366D03*
X013781Y042336D03*
X013781Y042306D03*
X013781Y042276D03*
X013751Y041676D03*
X013751Y041646D03*
X013751Y041616D03*
X013751Y041586D03*
X013751Y041556D03*
X013751Y041526D03*
X013751Y041496D03*
X013751Y041466D03*
X013751Y041436D03*
X013751Y041406D03*
X013751Y041376D03*
X013751Y041346D03*
X013751Y041316D03*
X013751Y041286D03*
X013751Y041256D03*
X013781Y041046D03*
X013811Y040986D03*
X013061Y041016D03*
X013061Y042186D03*
X013061Y042216D03*
X013061Y042246D03*
X013061Y042276D03*
X013061Y042306D03*
X013061Y042336D03*
X013061Y042366D03*
X013061Y042396D03*
X013061Y042426D03*
X013061Y042456D03*
D39*
X013046Y042486D03*
X013046Y042516D03*
X013046Y042546D03*
X013046Y042576D03*
X013046Y042606D03*
X013046Y042636D03*
X013046Y042666D03*
X013046Y042696D03*
X013046Y042726D03*
X013046Y042756D03*
X013046Y042786D03*
X013046Y042816D03*
X013046Y042846D03*
X013046Y042876D03*
X013046Y042906D03*
X013046Y042936D03*
X013046Y042966D03*
X013046Y042996D03*
X013046Y043026D03*
X013046Y043056D03*
X013046Y043086D03*
X013046Y043116D03*
X013046Y043146D03*
X013046Y043176D03*
X013046Y043206D03*
X013046Y043236D03*
X013046Y043266D03*
X013046Y043296D03*
X013046Y043326D03*
X013046Y043356D03*
X013046Y043386D03*
X013046Y043416D03*
X013046Y043446D03*
X013046Y043476D03*
X013046Y043506D03*
X013046Y043536D03*
X013046Y043566D03*
X013046Y043596D03*
X013076Y043836D03*
X013076Y043866D03*
X013076Y043896D03*
X013076Y043926D03*
X013076Y043956D03*
X013076Y043986D03*
X013076Y044016D03*
X013076Y044046D03*
X013076Y044076D03*
X013076Y044106D03*
X013076Y044136D03*
X013076Y044166D03*
X013076Y044196D03*
X013076Y044226D03*
X013076Y044256D03*
X013076Y044286D03*
X013076Y044856D03*
X013076Y044886D03*
X013076Y044916D03*
X013076Y044946D03*
X012926Y045396D03*
X012266Y044976D03*
X012266Y044946D03*
X012266Y044916D03*
X012266Y044886D03*
X012266Y044856D03*
X012236Y044766D03*
X012236Y044736D03*
X012206Y044676D03*
X012176Y043956D03*
X012206Y043896D03*
X012206Y043866D03*
X012206Y043836D03*
X012206Y043656D03*
X012206Y043626D03*
X012206Y043596D03*
X012176Y043536D03*
X012056Y043206D03*
X012056Y043176D03*
X012056Y043146D03*
X012056Y043116D03*
X012056Y043086D03*
X012056Y043056D03*
X012026Y042816D03*
X012026Y042786D03*
X012026Y042756D03*
X012026Y042726D03*
X012026Y042696D03*
X012026Y042666D03*
X012026Y042636D03*
X012026Y042606D03*
X012026Y042576D03*
X012026Y042546D03*
X012026Y042516D03*
X012026Y042486D03*
X011996Y042276D03*
X011996Y042246D03*
X011996Y042216D03*
X011996Y042186D03*
X011996Y042156D03*
X011996Y042126D03*
X011996Y042096D03*
X011996Y042066D03*
X011996Y042036D03*
X011996Y042006D03*
X011996Y041976D03*
X011996Y041946D03*
X011966Y041676D03*
X011966Y041646D03*
X011966Y041616D03*
X011966Y041586D03*
X011966Y041556D03*
X011966Y041526D03*
X011966Y041496D03*
X011966Y041466D03*
X011966Y041436D03*
X011966Y041406D03*
X011966Y041376D03*
X011966Y041346D03*
X011966Y041316D03*
X011966Y041286D03*
X011996Y041106D03*
X011996Y041076D03*
X011366Y041106D03*
X011366Y041136D03*
X011366Y041166D03*
X011396Y041316D03*
X011396Y041346D03*
X011396Y041376D03*
X011396Y041406D03*
X011396Y041436D03*
X011396Y041466D03*
X011396Y041496D03*
X011396Y041526D03*
X011396Y041556D03*
X011396Y041586D03*
X011396Y041616D03*
X011396Y041646D03*
X011396Y041676D03*
X011396Y041706D03*
X011396Y041736D03*
X011396Y041766D03*
X011396Y041796D03*
X011396Y041826D03*
X011366Y042246D03*
X011366Y042276D03*
X011366Y042306D03*
X011366Y042336D03*
X011366Y042366D03*
X011366Y042396D03*
X011366Y042426D03*
X011366Y042456D03*
X011366Y042486D03*
X011366Y042516D03*
X011366Y042546D03*
X011366Y042576D03*
X011366Y042606D03*
X011366Y042636D03*
X011366Y042666D03*
X011366Y042696D03*
X011366Y042726D03*
X011366Y042756D03*
X011366Y042786D03*
X011366Y042816D03*
X011366Y042846D03*
X011366Y042876D03*
X011366Y042906D03*
X011366Y042936D03*
X011366Y042966D03*
X011366Y042996D03*
X011366Y043026D03*
X011366Y043056D03*
X011366Y043086D03*
X011366Y043116D03*
X011366Y043146D03*
X011366Y043176D03*
X011336Y043386D03*
X011306Y043476D03*
X011276Y043566D03*
X011276Y043596D03*
X011276Y043626D03*
X010706Y043836D03*
X010466Y043566D03*
X010466Y043536D03*
X010466Y043506D03*
X010466Y043476D03*
X010466Y043446D03*
X010466Y043416D03*
X010466Y043386D03*
X010466Y043356D03*
X010466Y043326D03*
X010466Y043296D03*
X010466Y043266D03*
X010466Y043236D03*
X010466Y043206D03*
X010436Y042876D03*
X010436Y042846D03*
X010436Y042816D03*
X010436Y042786D03*
X010436Y042756D03*
X010436Y042726D03*
X010436Y042696D03*
X010436Y042666D03*
X010436Y042636D03*
X010406Y042546D03*
X010406Y042516D03*
X010406Y042486D03*
X010406Y042456D03*
X010406Y042426D03*
X010376Y042336D03*
X010376Y042306D03*
X010376Y042276D03*
X010346Y042186D03*
X010346Y042156D03*
X010346Y042126D03*
X010316Y042036D03*
X010316Y042006D03*
X010316Y041976D03*
X010316Y041946D03*
X010286Y041856D03*
X010286Y041826D03*
X010286Y041796D03*
X010256Y041706D03*
X010256Y041676D03*
X010256Y041646D03*
X010256Y041616D03*
X010226Y041466D03*
X010226Y041436D03*
X009806Y041556D03*
X009806Y041586D03*
X009836Y041676D03*
X009836Y041706D03*
X009866Y041856D03*
X009896Y041946D03*
X009896Y041976D03*
X009896Y042006D03*
X009926Y042126D03*
X009926Y042156D03*
X009956Y042336D03*
X009986Y042546D03*
X009986Y042576D03*
X009986Y042606D03*
X009986Y042636D03*
X009986Y042666D03*
X009986Y042696D03*
X010016Y042876D03*
X010016Y042906D03*
X010016Y042936D03*
X010016Y042966D03*
X010016Y042996D03*
X010016Y043026D03*
X010016Y043056D03*
X010016Y043086D03*
X010016Y043116D03*
X010046Y043296D03*
X010046Y043326D03*
X010046Y043356D03*
X010046Y043386D03*
X010046Y043416D03*
X010046Y043446D03*
X010046Y043476D03*
X010046Y043506D03*
X010046Y043536D03*
X010046Y043566D03*
X010076Y043746D03*
X010076Y043776D03*
X010076Y043806D03*
X010076Y043836D03*
X010076Y043866D03*
X010076Y043896D03*
X010076Y043926D03*
X010316Y043866D03*
X010316Y043836D03*
X010106Y044226D03*
X010106Y044256D03*
X010106Y044286D03*
X010106Y044316D03*
X010106Y044346D03*
X010106Y044976D03*
X010106Y045006D03*
X010106Y045036D03*
X010106Y045066D03*
X010106Y045096D03*
X010136Y045216D03*
X010136Y045246D03*
X010136Y045276D03*
X010226Y045516D03*
X010406Y045516D03*
X010406Y045546D03*
X010406Y045576D03*
X010436Y045636D03*
X010406Y045486D03*
X010406Y045456D03*
X010406Y045426D03*
X010496Y045786D03*
X010466Y045846D03*
X010436Y045906D03*
X010436Y045936D03*
X010436Y045966D03*
X010436Y046026D03*
X010436Y046056D03*
X011036Y046356D03*
X011036Y046386D03*
X011486Y046596D03*
X011486Y046626D03*
X011486Y046656D03*
X011336Y047406D03*
X011366Y047586D03*
X012476Y047886D03*
X013196Y047016D03*
X013196Y046986D03*
X013196Y046956D03*
X013196Y046926D03*
X013826Y046866D03*
X013856Y046716D03*
X012416Y046476D03*
X013766Y045156D03*
X013706Y044706D03*
X013706Y044676D03*
X013706Y044646D03*
X013706Y044616D03*
X013706Y044586D03*
X013706Y044556D03*
X013706Y044526D03*
X013706Y044496D03*
X013706Y044466D03*
X013736Y044316D03*
X013736Y044286D03*
X013736Y044256D03*
X013736Y044226D03*
X013736Y044196D03*
X013736Y044166D03*
X013736Y044136D03*
X013736Y044106D03*
X013766Y043956D03*
X013766Y043926D03*
X013766Y043896D03*
X013766Y043866D03*
X013766Y043836D03*
X013766Y043806D03*
X013766Y043776D03*
X013766Y043746D03*
X013796Y043596D03*
X013796Y043566D03*
X013796Y043536D03*
X013796Y043506D03*
X013796Y043476D03*
X013796Y043446D03*
X013796Y043416D03*
X013796Y043386D03*
X013796Y043356D03*
X013796Y043326D03*
X013796Y043296D03*
X013796Y043266D03*
X013796Y043236D03*
X013796Y043206D03*
X013796Y043176D03*
X013796Y043146D03*
X013796Y043116D03*
X013796Y043086D03*
X013796Y043056D03*
X013796Y043026D03*
X013796Y042996D03*
X013796Y042966D03*
X013796Y042936D03*
X013796Y042906D03*
X013796Y042876D03*
X013796Y042846D03*
X013796Y042816D03*
X013796Y042786D03*
X013796Y042756D03*
X013796Y042726D03*
X013796Y042696D03*
X013796Y042666D03*
X013796Y042636D03*
X013796Y042606D03*
X013796Y042576D03*
X013796Y042546D03*
X013766Y042246D03*
X013766Y042216D03*
X013766Y042186D03*
X013766Y042156D03*
X013766Y042126D03*
X013766Y042096D03*
X013766Y042066D03*
X013766Y042036D03*
X013766Y042006D03*
X013766Y041976D03*
X013766Y041946D03*
X013766Y041916D03*
X013766Y041886D03*
X013766Y041856D03*
X013766Y041826D03*
X013766Y041796D03*
X013766Y041766D03*
X013766Y041736D03*
X013766Y041706D03*
X013766Y041226D03*
X013766Y041196D03*
X013766Y041166D03*
X013766Y041136D03*
X013766Y041106D03*
X013766Y041076D03*
X013796Y041016D03*
X013076Y041046D03*
X013076Y041076D03*
X013076Y041106D03*
X013076Y041136D03*
X013076Y041166D03*
X013076Y041196D03*
X013076Y041226D03*
X013076Y041256D03*
X013076Y041286D03*
X013076Y041316D03*
X013076Y041346D03*
X013076Y041376D03*
X013076Y041406D03*
X013076Y041436D03*
X013076Y041466D03*
X013076Y041496D03*
X013076Y041526D03*
X013076Y041556D03*
X013076Y041586D03*
X013076Y041616D03*
X013076Y041646D03*
X013076Y041676D03*
X013076Y041706D03*
X013076Y041736D03*
X013076Y041766D03*
X013076Y041796D03*
X013076Y041826D03*
X013076Y041856D03*
X013076Y041886D03*
X013076Y041916D03*
X013076Y041946D03*
X013076Y041976D03*
X013076Y042006D03*
X013076Y042036D03*
X013076Y042066D03*
X013076Y042096D03*
X013076Y042126D03*
X013076Y042156D03*
X014666Y042186D03*
X014666Y042216D03*
X014666Y042246D03*
X014666Y042276D03*
X014666Y042306D03*
X014696Y042066D03*
X014696Y042036D03*
X014696Y042006D03*
X014726Y041916D03*
X014726Y041886D03*
X014726Y041856D03*
X014756Y041766D03*
X014756Y041736D03*
X014756Y041706D03*
X014786Y041616D03*
X014786Y041586D03*
X014786Y041556D03*
X014786Y041526D03*
X014816Y041436D03*
X014816Y041406D03*
X014816Y041376D03*
X014816Y041346D03*
X014816Y041166D03*
X015296Y041256D03*
X015296Y041286D03*
X015266Y041376D03*
X015266Y041406D03*
X015236Y041496D03*
X015236Y041526D03*
X015206Y041616D03*
X015206Y041646D03*
X015176Y041736D03*
X015176Y041766D03*
X015176Y041796D03*
X015146Y041886D03*
X015146Y041916D03*
X015146Y041946D03*
X015146Y041976D03*
X015116Y042126D03*
X015086Y042186D03*
X015086Y042216D03*
X014966Y042366D03*
X014966Y042396D03*
X014936Y042486D03*
X014936Y042516D03*
X014966Y042576D03*
X014966Y042606D03*
X014996Y042666D03*
X014996Y042846D03*
X014996Y042876D03*
X014996Y042906D03*
X014966Y043026D03*
X014966Y043056D03*
X014936Y043146D03*
X014906Y043266D03*
X014906Y043296D03*
X014906Y043326D03*
X014816Y043476D03*
X014816Y043506D03*
X014816Y043536D03*
X014816Y043566D03*
X014696Y043566D03*
X014696Y043596D03*
X014696Y043626D03*
X014696Y043536D03*
X014696Y043506D03*
X014696Y043476D03*
X014696Y043446D03*
X014696Y043416D03*
X014696Y043386D03*
X014696Y043356D03*
X014666Y043056D03*
X014666Y043026D03*
X014666Y042996D03*
X014666Y042966D03*
X014666Y042936D03*
X014666Y042906D03*
X014666Y042876D03*
X014666Y042846D03*
X014666Y042816D03*
X014666Y042786D03*
X014666Y042756D03*
X014666Y042726D03*
X014666Y042696D03*
X014666Y042666D03*
X015296Y042696D03*
X015296Y042726D03*
X015296Y042756D03*
X015266Y042906D03*
X015266Y042936D03*
X015266Y042966D03*
X015236Y043026D03*
X015236Y043056D03*
X015206Y043176D03*
X015206Y043206D03*
X015206Y043236D03*
X015176Y043326D03*
X015176Y043356D03*
X015176Y043386D03*
X015176Y043416D03*
X015176Y043446D03*
X015176Y043476D03*
X015176Y043506D03*
X015176Y043536D03*
X014606Y043986D03*
X014606Y044016D03*
X014606Y044046D03*
X014606Y044076D03*
X014636Y044316D03*
X014636Y044346D03*
X014636Y044376D03*
X014666Y044466D03*
X014696Y044556D03*
X014726Y044646D03*
X014726Y044676D03*
X014516Y044766D03*
X014366Y044946D03*
X014366Y044976D03*
X015416Y045696D03*
X015416Y045726D03*
X015416Y045756D03*
X015416Y045786D03*
X015386Y045876D03*
X016046Y045966D03*
X016046Y045996D03*
X016046Y046026D03*
X016046Y046056D03*
X016016Y046116D03*
X015986Y046206D03*
X016076Y046446D03*
X016106Y046566D03*
X016106Y046596D03*
X016106Y046626D03*
X016106Y046656D03*
X016106Y046686D03*
X016076Y046806D03*
X016046Y046896D03*
X015626Y047226D03*
X016076Y045816D03*
X016076Y045786D03*
X016046Y045636D03*
X016046Y045606D03*
X016046Y045576D03*
X016016Y045516D03*
X015926Y045306D03*
X015956Y045216D03*
X015956Y045186D03*
X015956Y045156D03*
X015956Y045126D03*
X015956Y045096D03*
X015956Y045066D03*
X015956Y045036D03*
X015956Y045006D03*
X015926Y044946D03*
X015926Y044916D03*
X015806Y044646D03*
X015806Y044616D03*
X015806Y044586D03*
X015806Y044436D03*
X015806Y044406D03*
X015806Y044376D03*
X015806Y044346D03*
X015806Y044316D03*
X015776Y044226D03*
X015776Y044196D03*
X015746Y044136D03*
X015296Y042576D03*
X015476Y042306D03*
X015476Y042276D03*
X015476Y042246D03*
X015476Y042216D03*
X015476Y042186D03*
X015446Y042126D03*
X015326Y041166D03*
X015326Y041136D03*
X015356Y041046D03*
X015356Y041016D03*
X015356Y040986D03*
X015386Y040896D03*
X015386Y040866D03*
X015386Y040836D03*
X015386Y040806D03*
X015386Y040776D03*
X015836Y040386D03*
X015866Y040326D03*
X015866Y040296D03*
X015896Y040176D03*
X015896Y040146D03*
X015896Y040116D03*
X015896Y040086D03*
X015866Y039996D03*
X015866Y039966D03*
X009776Y041436D03*
X009776Y041466D03*
X009746Y041346D03*
X009746Y041316D03*
X009716Y041226D03*
X009716Y041196D03*
X009686Y041136D03*
X009686Y041106D03*
X009656Y041016D03*
X009626Y040926D03*
X009626Y040896D03*
X009296Y040656D03*
X009266Y040596D03*
X009266Y040566D03*
X009266Y040536D03*
X009266Y040356D03*
X009266Y040326D03*
X009266Y040296D03*
X009296Y040206D03*
X009326Y040146D03*
X007436Y043206D03*
X007406Y043296D03*
X007376Y043386D03*
X007376Y043416D03*
X007346Y043506D03*
X007346Y043536D03*
X007346Y043566D03*
X007316Y043686D03*
X007316Y043716D03*
X007316Y043746D03*
X007316Y043776D03*
X007286Y043986D03*
X007286Y044016D03*
X007286Y044046D03*
X007286Y044076D03*
X007286Y044106D03*
X007286Y044136D03*
X007286Y044166D03*
X007286Y044196D03*
X007286Y044226D03*
X007286Y044256D03*
X007286Y044286D03*
X007316Y044496D03*
X007316Y044526D03*
X007316Y044556D03*
X007316Y044586D03*
X007316Y044616D03*
X007346Y044706D03*
X007346Y044736D03*
X007346Y044766D03*
X007346Y044796D03*
X007376Y044886D03*
X007376Y044916D03*
X007406Y045006D03*
X007406Y045036D03*
X007436Y045126D03*
X007466Y045216D03*
X007526Y045366D03*
X007556Y045426D03*
X007586Y045486D03*
X007616Y045546D03*
X008156Y045006D03*
X008126Y044946D03*
X008096Y044886D03*
X008096Y044856D03*
X008066Y044766D03*
X008066Y044736D03*
X008036Y044646D03*
X008036Y044616D03*
X008036Y044586D03*
X008006Y044466D03*
X008006Y044436D03*
X008006Y044406D03*
X008006Y044376D03*
X008006Y044346D03*
X008006Y044316D03*
X008006Y044286D03*
X008006Y044256D03*
X008006Y044226D03*
X008006Y044046D03*
X008006Y044016D03*
X008006Y043986D03*
X008006Y043956D03*
X008006Y043926D03*
X008006Y043896D03*
X008006Y043866D03*
X008006Y043836D03*
X008006Y043806D03*
X008036Y043716D03*
X008036Y043686D03*
X008036Y043656D03*
X008066Y043566D03*
X008066Y043536D03*
X008096Y043446D03*
X008126Y043356D03*
X008156Y043296D03*
X009806Y045636D03*
X009776Y045696D03*
X009746Y045786D03*
X009746Y045996D03*
X009296Y046146D03*
X009296Y046176D03*
X009296Y046206D03*
X009296Y046236D03*
X009296Y046266D03*
X009296Y046296D03*
X009296Y046326D03*
X009326Y046416D03*
X009356Y046506D03*
X009896Y046806D03*
X009896Y046836D03*
X009896Y046866D03*
X009926Y046926D03*
X009926Y046956D03*
D40*
X012776Y040026D03*
D41*
X012821Y040056D03*
D42*
X012821Y040086D03*
D43*
X013406Y040116D03*
X008756Y046116D03*
D44*
X013721Y040146D03*
D45*
X014096Y040206D03*
X009656Y042516D03*
X008696Y046176D03*
X010886Y047586D03*
D46*
X011831Y046836D03*
X012491Y045036D03*
X012581Y040836D03*
X014531Y040296D03*
D47*
X014171Y040926D03*
X012551Y040866D03*
X008891Y045366D03*
D48*
X012296Y047976D03*
X012566Y040896D03*
D49*
X011036Y041016D03*
X014366Y047766D03*
D50*
X015146Y047466D03*
X012836Y048036D03*
X011306Y046506D03*
X009686Y046746D03*
X009266Y042576D03*
X009656Y041826D03*
D51*
X011261Y043836D03*
X013751Y045186D03*
X014351Y045186D03*
X015401Y045636D03*
X014951Y047346D03*
X013661Y047376D03*
X013211Y046896D03*
X009881Y046656D03*
X008921Y045456D03*
X015281Y041976D03*
D52*
X014366Y046446D03*
X010496Y045276D03*
D53*
X008696Y046146D03*
M02*
