G75*
%MOIN*%
%OFA0B0*%
%FSLAX24Y24*%
%IPPOS*%
%LPD*%
%AMOC8*
5,1,8,0,0,1.08239X$1,22.5*
%
%ADD10R,0.0748X0.2677*%
%ADD11R,0.0315X0.0472*%
%ADD12R,0.0472X0.0315*%
%ADD13R,0.0394X0.0709*%
%ADD14R,0.0591X0.0512*%
%ADD15R,0.0354X0.0315*%
%ADD16R,0.0240X0.0870*%
%ADD17R,0.0551X0.0433*%
%ADD18R,0.0579X0.0697*%
%ADD19R,0.0697X0.0579*%
%ADD20R,0.0315X0.0354*%
%ADD21R,0.0460X0.0630*%
D10*
X042708Y017836D03*
X044244Y017836D03*
D11*
X045932Y023046D03*
X046641Y023046D03*
X047722Y011976D03*
X048431Y011976D03*
X048461Y011186D03*
X047752Y011186D03*
X016341Y025696D03*
X015632Y025696D03*
X014141Y035296D03*
X014141Y035996D03*
X013432Y035996D03*
X013432Y035296D03*
D12*
X014086Y034150D03*
X014086Y033441D03*
X014086Y032650D03*
X014086Y031941D03*
X013486Y031250D03*
X013486Y030541D03*
X013486Y030050D03*
X013486Y029341D03*
X014086Y028650D03*
X014086Y027941D03*
X015626Y027150D03*
X015626Y026441D03*
X014086Y037141D03*
X014086Y037850D03*
X017506Y040371D03*
X017506Y041080D03*
X041216Y041601D03*
X041216Y042310D03*
X047136Y037590D03*
X047136Y036881D03*
X047676Y043091D03*
X047676Y043800D03*
X049086Y022160D03*
X049086Y021451D03*
X044556Y021425D03*
X044556Y020716D03*
D13*
X011287Y053416D03*
X010185Y053416D03*
D14*
X022536Y041750D03*
X022536Y041081D03*
X025136Y041281D03*
X025136Y041950D03*
X036916Y036680D03*
X036916Y036011D03*
X036816Y029920D03*
X036816Y029251D03*
X036816Y024100D03*
X036816Y023431D03*
D15*
X047520Y021786D03*
X048347Y022160D03*
X048347Y021412D03*
X015519Y028296D03*
X014692Y028670D03*
X014692Y027922D03*
X014692Y031922D03*
X014692Y032670D03*
X014692Y033422D03*
X014692Y034170D03*
X015519Y033796D03*
X015519Y032296D03*
X014692Y037122D03*
X014692Y037870D03*
X015519Y037496D03*
D16*
X045356Y022086D03*
X045856Y022086D03*
X046356Y022086D03*
X046856Y022086D03*
X046856Y020026D03*
X046356Y020026D03*
X045856Y020026D03*
X045356Y020026D03*
X047836Y017426D03*
X048336Y017426D03*
X048836Y017426D03*
X049336Y017426D03*
X049336Y015366D03*
X048836Y015366D03*
X048336Y015366D03*
X047836Y015366D03*
D17*
X041236Y040132D03*
X041236Y040919D03*
X041216Y043062D03*
X041216Y043849D03*
X047676Y044542D03*
X047676Y045329D03*
X047686Y042389D03*
X047686Y041602D03*
D18*
X017386Y026141D03*
X017386Y024251D03*
D19*
X017631Y029596D03*
X017631Y031196D03*
X015741Y031196D03*
X015741Y029596D03*
X015741Y034796D03*
X015741Y036396D03*
X017631Y036396D03*
X017631Y034796D03*
D20*
X016360Y025089D03*
X015612Y025089D03*
X015986Y024263D03*
D21*
X013416Y024826D03*
X014016Y024826D03*
X014616Y024826D03*
M02*
